<?xml version="1.0" encoding="UTF-8" standalone="no"?>
<svg
   xmlns:dc="http://purl.org/dc/elements/1.1/"
   xmlns:cc="http://creativecommons.org/ns#"
   xmlns:rdf="http://www.w3.org/1999/02/22-rdf-syntax-ns#"
   xmlns:svg="http://www.w3.org/2000/svg"
   xmlns="http://www.w3.org/2000/svg"
   xmlns:sodipodi="http://sodipodi.sourceforge.net/DTD/sodipodi-0.dtd"
   xmlns:inkscape="http://www.inkscape.org/namespaces/inkscape"
   sodipodi:docname="coffee.svg"
   inkscape:version="1.0beta2 (2b71d25, 2019-12-03)"
   id="svg8"
   version="1.1"
   viewBox="0 0 128.13776 153.2574"
   height="153.2574mm"
   width="128.13776mm">
  <defs
     id="defs2" />
  <sodipodi:namedview
     fit-margin-bottom="0"
     fit-margin-right="0"
     fit-margin-left="0"
     fit-margin-top="0"
     inkscape:window-maximized="0"
     inkscape:window-y="23"
     inkscape:window-x="0"
     inkscape:window-height="880"
     inkscape:window-width="1600"
     showgrid="false"
     inkscape:document-rotation="0"
     inkscape:current-layer="layer1"
     inkscape:document-units="mm"
     inkscape:cy="246.74645"
     inkscape:cx="533.42548"
     inkscape:zoom="0.7"
     inkscape:pageshadow="2"
     inkscape:pageopacity="0.0"
     borderopacity="1.0"
     bordercolor="#666666"
     pagecolor="#ffffff"
     id="base" />
  <metadata
     id="metadata5">
    <rdf:RDF>
      <cc:Work
         rdf:about="">
        <dc:format>image/svg+xml</dc:format>
        <dc:type
           rdf:resource="http://purl.org/dc/dcmitype/StillImage" />
        <dc:title></dc:title>
      </cc:Work>
    </rdf:RDF>
  </metadata>
  <g
     id="layer1"
     inkscape:groupmode="layer"
     inkscape:label="Lag 1">
    <path
       inkscape:connector-curvature="0"
       id="path897"
       d="m 56.864575,153.24127 c -3.050949,-0.13343 -6.140827,-0.40063 -8.607435,-0.74432 -7.763682,-1.08179 -16.060503,-3.17224 -23.646083,-5.95782 -3.129051,-1.14905 -6.521185,-2.74637 -8.959309,-4.21884 -3.790024,-2.28894 -6.5812018,-4.49752 -9.2570656,-7.32488 -1.1219707,-1.18549 -1.559564,-1.73203 -2.5226445,-3.15065 -1.6926462,-2.49328 -2.1767047,-3.47001 -2.8014972,-5.65284 -0.66692545,-2.33006 -0.99093136,-4.37752 -1.05865236,-6.68989 -0.09459454,-3.22975 0.36848111,-5.69371 1.63490166,-8.69918 1.8879461,-4.48045 4.8939623,-8.45624 7.6224462,-10.08157 1.8569868,-1.10617 3.1174468,-1.527773 3.6075278,-1.206664 0.194305,0.127323 0.331649,0.606094 0.275172,0.959264 -0.09558,0.59776 -0.414788,1.00397 -1.500754,1.90978 -2.6446762,2.20594 -4.3613514,4.75725 -5.5518268,8.25108 -1.3192519,3.87177 -1.7023673,8.28173 -0.9960737,11.46563 0.9611169,4.33262 4.0080065,8.6631 9.2762965,13.18424 4.859032,4.16993 9.017459,6.56507 15.233535,8.77411 10.797637,3.83722 19.312265,5.66306 28.491528,6.10961 2.038525,0.0992 7.372282,0.0453 9.543589,-0.0963 3.575873,-0.23329 7.329991,-0.67939 11.30335,-1.34317 13.341632,-2.22882 24.51385,-6.18455 32.6108,-11.54646 7.11985,-4.71487 11.67527,-10.36132 12.87521,-15.95888 0.17249,-0.80465 0.18088,-0.92419 0.17771,-2.53351 -0.004,-1.87234 -0.13192,-3.11379 -0.58545,-5.66713 -0.12429,-0.69978 -0.21769,-1.29724 -0.20754,-1.32769 0.0304,-0.0911 1.64184,2.02649 2.16611,2.84648 0.89545,1.40055 1.66282,3.21136 1.93688,4.5706 0.66121,3.27941 -0.20895,6.73191 -2.77856,11.02417 -0.71129,1.18816 -1.2357,1.86288 -2.55457,3.2868 -4.16419,4.4959 -10.4045,8.70188 -17.28346,11.64912 -3.20058,1.37126 -8.113664,3.05292 -12.098029,4.14093 -8.053521,2.19917 -15.506828,3.32354 -26.147109,3.94442 -1.119189,0.0653 -9.117953,0.13085 -10.198997,0.0836 z m -2.111256,-7.40501 c -2.920658,-0.12905 -4.476753,-0.36039 -5.651678,-0.84019 -1.272813,-0.51979 -2.601522,-1.30245 -3.735116,-2.20013 -0.632717,-0.50104 -2.222333,-2.02714 -2.168058,-2.08142 0.01488,-0.0149 0.830351,0.176 1.812081,0.42427 4.21979,1.06712 6.327612,1.43279 10.079175,1.74854 2.3374,0.19673 3.805487,0.26049 5.997363,0.26049 4.326518,0 7.889491,-0.32215 14.029201,-1.26843 0.35589,-0.0549 0.692065,-0.0904 0.747062,-0.0791 0.137934,0.0285 -1.796451,0.9972 -2.807249,1.4058 -3.535949,1.42932 -8.003087,2.40649 -12.196374,2.6679 -1.382015,0.0861 -3.61436,0.0724 -6.106407,-0.0378 z m 7.113311,-9.28953 c -0.142909,-0.015 -0.897569,-0.0864 -1.677034,-0.15883 -10.006251,-0.9295 -18.263651,-4.14913 -23.915426,-9.32487 -3.613339,-3.30897 -6.212572,-6.99603 -8.391011,-11.90275 -2.751422,-6.19734 -3.931182,-11.17625 -4.242869,-17.906124 -0.06217,-1.341697 -0.04631,-1.463165 0.19029,-1.463165 0.153158,0 0.643054,0.536327 0.890076,0.974422 0.292985,0.519631 0.49606,1.139335 0.734391,2.241177 0.38279,1.76962 1.110788,4.66501 1.633361,6.49619 2.402506,8.41873 4.931384,13.11381 9.535461,17.70338 4.661381,4.64669 10.675773,7.99083 17.40316,9.67654 5.237437,1.31237 12.089937,1.64437 18.07108,0.87554 4.168326,-0.5358 7.738784,-1.53257 10.829717,-3.02332 1.164729,-0.56174 1.692876,-0.70909 2.541717,-0.70909 0.761485,0 0.787724,0.0752 0.228918,0.65589 -2.332953,2.42446 -10.201937,4.85777 -18.478737,5.71413 -1.258021,0.13016 -4.639959,0.22549 -5.353094,0.15088 z m -41.510566,-3.27925 c -0.429317,-0.0612 -1.051776,-0.26855 -1.349234,-0.44945 -0.306941,-0.18666 -0.735659,-0.62453 -0.920815,-0.94048 -0.24121,-0.41159 -0.425865,-1.19132 -0.425865,-1.79828 0,-0.59395 0.184822,-1.512 0.451515,-2.24276 0.878664,-2.40758 2.892314,-5.23302 4.166307,-5.84591 1.419094,-0.6827 2.850436,-0.57783 3.273149,0.23983 0.27416,0.53028 0.146228,1.23165 -0.303824,1.6657 -0.445351,0.4295 -0.652115,0.51118 -1.270797,0.50197 l -0.537128,-0.008 -0.58811,0.62141 c -1.133426,1.19764 -1.924752,2.64653 -2.233022,4.08862 -0.103119,0.48236 0.378052,0.0608 1.090095,-0.95496 0.65429,-0.93342 1.107187,-1.37441 1.834402,-1.78623 0.746789,-0.4229 2.07187,-0.98847 2.615724,-1.11644 1.176528,-0.27684 2.395277,0.22591 2.697446,1.11271 0.410139,1.20369 -0.274265,2.71969 -2.063531,4.57086 -1.085535,1.12309 -2.098136,1.69731 -3.740398,2.12108 -1.014398,0.26177 -1.898434,0.33401 -2.695914,0.22033 z m 70.804338,-8.66438 c -0.07035,-0.37522 0.0053,-1.01648 0.161453,-1.36973 0.07801,-0.17645 0.341528,-0.62777 0.585503,-1.00293 1.153221,-1.77328 2.945128,-5.92201 4.377087,-10.13405 1.206113,-3.54774 2.528975,-8.28795 3.517045,-12.602581 0.26307,-1.148739 0.3803,-1.807722 0.55474,-3.118168 0.1817,-1.364986 0.35862,-2.252113 0.59593,-2.988239 0.3203,-0.993599 0.5412,-1.331456 0.84225,-1.288213 0.12782,0.01832 0.18406,0.125545 0.38892,0.74118 1.35979,4.086347 0.76126,9.251531 -1.93775,16.722511 -2.617281,7.24472 -4.066305,10.29557 -6.323102,13.31289 -1.043613,1.39531 -1.572323,1.8231 -2.380158,1.92587 l -0.336641,0.0428 z m -75.243167,-3.60872 c -1.443326,-0.11322 -2.914715,-0.43309 -3.58275,-0.77885 -0.377233,-0.19526 -1.004526,-0.65853 -1.405948,-1.03832 -1.3172618,-1.24627 -1.8435942,-2.716 -1.3952233,-3.89602 0.4360084,-1.14748 1.9289873,-2.45828 3.8408393,-3.37216 2.05551,-0.98256 4.713403,-1.57493 6.203458,-1.38258 1.178545,0.15213 2.131737,0.85725 2.121901,1.56966 -0.0079,0.5709 -0.445579,0.81761 -1.624344,0.91555 -1.807096,0.15016 -2.299423,0.20752 -3.086592,0.35964 -0.458682,0.0886 -1.043341,0.23572 -1.299229,0.32685 -1.204626,0.42901 -2.885922,1.49134 -3.281206,2.07325 -0.186548,0.27462 -0.212946,0.36053 -0.185711,0.60426 0.03795,0.33945 0.127227,0.41296 0.454332,0.37402 0.332159,-0.0395 0.619756,-0.27345 1.080612,-0.87885 0.608503,-0.79936 0.887523,-0.99079 1.851018,-1.27001 1.255915,-0.36395 2.309381,-0.44349 3.498906,-0.26419 2.000274,0.30151 3.339567,0.98258 3.770257,1.91731 0.09804,0.21279 0.134103,0.42056 0.132545,0.7636 -0.0018,0.41914 -0.03161,0.53051 -0.268595,1.00691 -0.624369,1.25511 -2.403439,2.6818 -3.619714,2.90274 -0.544304,0.0989 -2.324712,0.1362 -3.204556,0.0672 z m 92.158715,-4.47771 c -0.48276,-0.0885 -1.02504,-0.25981 -1.48203,-0.46833 l -0.42336,-0.19318 0.1807,-0.14574 c 0.42088,-0.33944 1.49525,-0.81435 3.17017,-1.40132 1.99944,-0.7007 2.89455,-1.10595 4.25087,-1.92453 2.54868,-1.53819 5.00738,-3.82534 6.34935,-5.90637 0.49281,-0.76422 0.95567,-1.75679 1.28392,-2.75325 1.09761,-3.33203 0.89904,-6.478855 -0.55181,-8.744977 -1.14655,-1.790833 -3.28334,-3.373273 -5.99934,-4.442923 -1.14234,-0.449894 -1.58102,-0.554518 -3.45444,-0.823852 -2.95202,-0.424412 -3.95026,-0.746094 -4.34876,-1.401378 -0.28119,-0.462388 -0.21672,-1.712051 0.1262,-2.44609 0.78696,-1.684528 3.32757,-2.381312 6.65096,-1.824064 3.29297,0.552132 6.28157,1.913349 8.23664,3.751527 2.21237,2.080101 3.5411,4.717628 4.06235,8.063763 0.16464,1.056892 0.16248,3.807785 -0.004,4.872124 -0.47225,3.02237 -1.46059,5.59835 -2.87876,7.50308 -2.34544,3.15017 -7.12298,6.54596 -11.0003,7.81883 -1.00432,0.32969 -1.81705,0.47103 -2.85832,0.49707 -0.5538,0.0138 -1.1434,0 -1.31022,-0.0304 z M 55.857671,103.47766 c -3.514078,-0.15594 -5.663284,-0.35488 -8.347584,-0.7727 C 41.142033,101.71377 35.051582,99.616448 30.197771,96.743241 23.757884,92.931177 20.04022,88.193129 19.077853,82.571276 c -0.120411,-0.703414 -0.145101,-1.099552 -0.14776,-2.371106 -0.0035,-1.648576 0.07326,-2.244047 0.451972,-3.509376 1.121707,-3.747592 4.094254,-7.366488 8.788558,-10.699547 4.781018,-3.394617 11.484111,-6.530017 17.520534,-8.195305 3.7818,-1.043297 7.695424,-1.726027 11.27931,-1.967669 1.130881,-0.07625 1.168251,-0.08321 1.133232,-0.212444 -0.0199,-0.07343 -0.0545,-0.455168 -0.07687,-0.848181 -0.120614,-2.119101 0.529801,-4.569419 2.043367,-7.697969 0.701125,-1.449235 1.553435,-2.963011 3.438168,-6.106407 2.45436,-4.093435 2.961743,-4.977938 3.782399,-6.593617 2.764084,-5.44185 3.070937,-8.632327 1.205823,-12.537612 -0.994427,-2.082199 -2.130636,-3.528704 -4.725501,-6.01603 -3.795,-3.637721 -4.626415,-4.591618 -5.503381,-6.3140873 C 57.660364,8.3090116 57.37142,7.1493104 57.30966,5.6565604 57.24485,4.0897144 57.550615,2.246261 58.160932,0.52458396 c 0.225555,-0.63628327 0.22957,-0.64227962 0.195538,-0.29232471 -0.174978,1.79937435 -0.174088,2.60258715 0.0044,3.80326775 0.507173,3.4156266 2.42938,6.124572 6.912191,9.741257 3.443627,2.778286 3.964474,3.223215 5.064212,4.326104 1.360301,1.364194 2.193628,2.489775 2.905178,3.924032 0.688976,1.388716 1.001869,2.568678 1.138896,4.294767 0.0855,1.077011 0.0133,2.309337 -0.207204,3.534259 -0.484957,2.694619 -1.731558,5.372139 -4.037154,8.671263 -0.981959,1.405103 -3.918326,5.297163 -5.195092,6.885943 -1.943437,2.418355 -2.680655,3.452327 -3.381225,4.742213 -0.872792,1.607015 -1.269916,2.98454 -1.332627,4.622594 l -0.03522,0.919776 1.421683,0.0062 c 9.088623,0.04112 18.497423,2.503185 27.001763,7.065675 0.706417,0.378985 1.273412,0.700033 1.259992,0.713452 -0.01338,0.01338 -0.518302,-0.169536 -1.121979,-0.406546 -5.964781,-2.341847 -11.958877,-3.880904 -17.926286,-4.6028 -2.604384,-0.31506 -3.867344,-0.384375 -7.087891,-0.388971 -1.649403,-0.0026 -3.018484,0.01523 -3.042408,0.03901 -0.0663,0.06604 0.384472,1.328885 0.809843,2.26901 0.208623,0.461068 0.363207,0.838302 0.343527,0.838302 -0.05001,0 -0.547192,-0.402892 -1.107019,-0.897138 -0.502638,-0.443749 -1.047919,-1.080692 -1.502718,-1.755322 l -0.277259,-0.411284 -0.302574,0.03557 c -0.166418,0.01955 -0.492582,0.05257 -0.724819,0.07335 -2.767386,0.248149 -6.084746,0.802367 -8.509996,1.421727 -8.072676,2.061585 -15.489054,6.112394 -19.783838,10.805887 -1.421269,1.553216 -2.430278,3.000346 -3.250238,4.661496 -0.748902,1.517211 -1.213404,2.895607 -1.499539,4.44988 -0.163671,0.889028 -0.164041,3.05691 -7.39e-4,3.86287 1.367927,6.7479 8.897505,11.354266 23.52737,14.393346 6.777911,1.407991 13.720736,1.761318 20.268073,1.031479 9.831495,-1.095933 18.279192,-4.396423 24.95541,-9.75 1.51199,-1.212443 2.180799,-1.860217 4.548877,-4.405719 2.8087,-3.019154 4.32175,-4.26784 5.10111,-4.20984 0.35972,0.02677 0.49507,0.221134 0.58215,0.835968 0.16744,1.182005 -0.13762,2.743567 -0.81866,4.190759 -1.0813,2.297732 -3.4241,4.870027 -6.630215,7.279736 -2.674623,2.010233 -6.303001,4.068455 -9.029688,5.122159 -0.904489,0.349523 -3.697789,1.271175 -5.391826,1.779025 -6.390992,1.915944 -12.618921,3.102524 -18.611547,3.545984 -2.612053,0.19329 -5.673533,0.26901 -7.535557,0.18639 z m 57.419569,-0.0495 c -0.0156,-0.0156 -0.77317,-0.0893 -1.68359,-0.16377 -4.66736,-0.38205 -5.25275,-0.45146 -5.76067,-0.68305 -0.40821,-0.18612 -0.89292,-0.65514 -1.06204,-1.02768 -0.14264,-0.31422 -0.16206,-0.80647 -0.0382,-0.96947 0.0466,-0.0613 0.22831,-0.17712 0.40394,-0.25747 0.28845,-0.13196 0.41985,-0.14617 1.35872,-0.14684 0.91824,-5.4e-4 1.12268,0.0201 1.75397,0.17767 1.43217,0.35754 2.79524,0.87753 3.92397,1.49691 0.91748,0.50347 1.64054,1.25761 1.47013,1.53333 -0.0414,0.067 -0.30994,0.0966 -0.3662,0.0403 z M 64.362251,93.23391 C 64.347371,93.22097 63.823609,93.19226 63.19835,93.17016 59.281451,93.031645 54.531789,92.387789 50.879504,91.500249 42.852193,89.54953 37.682319,86.367579 36.167424,82.445247 35.837483,81.590964 35.702922,80.861618 35.699259,79.90788 c -0.0053,-1.460699 0.306633,-2.685048 1.093389,-4.287476 1.384084,-2.819055 3.445044,-4.756909 7.076822,-6.6541 3.460938,-1.80795 8.542011,-3.294801 13.872088,-4.059323 11.828562,-1.696653 23.87841,-0.155289 29.965576,3.833081 2.789046,1.82741 4.265224,3.982965 4.541295,6.631322 0.171684,1.647096 -0.247603,3.628986 -1.152164,5.445962 -0.319612,0.641997 -0.318961,0.636573 0.04526,-0.380457 0.361322,-1.008814 0.467372,-1.698211 0.426155,-2.770185 -0.07264,-1.888686 -0.777484,-3.352766 -2.376918,-4.9371 -1.468438,-1.45457 -3.321795,-2.585469 -5.886784,-3.592048 -6.488299,-2.546215 -15.973246,-3.254727 -24.42562,-1.824565 -7.488969,1.267168 -13.651606,4.027985 -17.447618,7.816443 -1.492186,1.489219 -2.103718,2.697903 -2.088952,4.128832 0.02413,2.336898 2.190432,4.655323 6.304868,6.747471 5.044039,2.564854 13.437057,4.783234 18.09688,4.783234 2.581437,0 6.053399,-0.488461 8.744311,-1.230204 1.83745,-0.506495 3.105984,-0.981255 4.54732,-1.701873 2.871402,-1.435603 4.524372,-3.135971 5.144868,-5.292407 0.126795,-0.440675 0.147126,-0.659176 0.144441,-1.552255 -0.0026,-0.907881 -0.02439,-1.118088 -0.171024,-1.661326 -0.36827,-1.364168 -0.887567,-2.282738 -1.796812,-3.178326 -1.354852,-1.334503 -3.230409,-2.228374 -5.715772,-2.72409 -5.620941,-1.121126 -13.5958,0.08922 -17.404148,2.641453 -2.622654,1.757611 -3.796144,3.441126 -3.262812,4.680902 0.35478,0.824715 1.521587,1.464459 3.097969,1.698599 1.063865,0.15801 3.18058,0.04772 4.247509,-0.221328 1.248898,-0.314919 2.492654,-0.850911 2.652223,-1.142945 0.260124,-0.476125 -0.374258,-1.108772 -1.942601,-1.9373 -0.410887,-0.217066 -0.717546,-0.395152 -0.681471,-0.395742 0.117083,-0.0018 1.669224,0.437462 2.402955,0.68023 1.522115,0.503642 2.833988,1.295012 3.109609,1.875831 0.131286,0.27666 0.136605,0.703167 0.0118,0.944554 -0.147883,0.285976 -0.755602,0.803345 -1.24534,1.060202 -1.011245,0.530374 -2.82816,1.021406 -4.669403,1.261939 -1.249418,0.163213 -3.96192,0.165784 -5.034538,0.0044 -1.552273,-0.233013 -2.79057,-0.623568 -3.729999,-1.176431 -0.280156,-0.164869 -0.707738,-0.520803 -1.11616,-0.929119 -2.805864,-2.80516 -2.482246,-5.472703 0.947434,-7.809425 3.446559,-2.348231 10.190605,-4.25399 16.826109,-4.754814 1.393454,-0.105178 3.406892,-0.04086 4.240685,0.13539 2.383911,0.503984 4.72899,1.57013 6.702787,3.047295 0.876525,0.65598 2.177885,1.961875 2.804174,2.813956 1.491799,2.029649 2.167081,3.950227 2.167732,6.165323 5.55e-4,2.230381 -0.749184,4.156798 -2.337435,6.0051 -1.093222,1.272232 -3.044495,2.746509 -4.498643,3.398941 -2.442112,1.095704 -7.018674,1.755955 -12.202866,1.760481 -0.73543,5.55e-4 -1.349313,-0.0094 -1.364202,-0.02245 z"
       style="fill:#000000;stroke-width:0.0649616" />
  </g>
</svg>
