<?xml version="1.0" standalone="no"?>
<!DOCTYPE svg PUBLIC "-//W3C//DTD SVG 1.1//EN" "http://www.w3.org/Graphics/SVG/1.1/DTD/svg11.dtd">
<svg width="108mm" height="108mm" viewBox="-54 -54 108 108" xmlns="http://www.w3.org/2000/svg" version="1.1">
<title>OpenSCAD Model</title>
<path d="
M -0.240158,53.4595 L -0.0304565,53.4579 L 0.17897,53.4554 L 0.388046,53.4518 L 0.596603,53.4471 L 0.804535,53.4415
 L 1.01172,53.4348 L 1.21802,53.4271 L 1.42331,53.4184 L 1.62747,53.4088 L 1.83038,53.3981 L 2.03192,53.3864
 L 2.23196,53.3737 L 2.4304,53.36 L 2.62709,53.3454 L 2.82193,53.3298 L 3.0148,53.3133 L 3.20558,53.2958
 L 3.39417,53.2774 L 3.58043,53.2581 L 3.76427,53.2378 L 3.94557,53.2167 L 4.12422,53.1947 L 4.30013,53.1718
 L 4.47316,53.1481 L 4.64322,53.1235 L 4.81023,53.0981 L 4.97406,53.0718 L 5.13461,53.0448 L 5.29182,53.017
 L 5.44556,52.9884 L 5.59575,52.9592 L 5.74231,52.9291 L 5.88513,52.8984 L 6.02412,52.8669 L 6.15923,52.8348
 L 6.29036,52.802 L 6.41742,52.7686 L 6.54034,52.7346 L 6.65906,52.7 L 6.77348,52.6648 L 6.88358,52.6291
 L 6.98924,52.5928 L 7.09042,52.5561 L 7.18706,52.5188 L 7.2791,52.4811 L 7.36649,52.443 L 7.44916,52.4044
 L 7.52708,52.3654 L 7.60019,52.3261 L 7.66846,52.2864 L 7.73183,52.2464 L 7.79028,52.2061 L 7.84377,52.1655
 L 7.89224,52.1246 L 7.9357,52.0836 L 7.97412,52.0423 L 8.00745,52.0009 L 8.03569,51.9593 L 8.05882,51.9176
 L 8.07683,51.8758 L 8.08969,51.8339 L 8.09741,51.792 L 8.09999,51.75 L 8.09741,51.708 L 8.08969,51.6661
 L 8.07683,51.6242 L 8.05882,51.5824 L 8.03569,51.5407 L 8.00745,51.4991 L 7.97412,51.4576 L 7.9357,51.4164
 L 7.89224,51.3753 L 7.84377,51.3345 L 7.79028,51.2939 L 7.73183,51.2536 L 7.66846,51.2136 L 7.60019,51.1739
 L 7.52708,51.1346 L 7.44916,51.0956 L 7.36649,51.057 L 7.2791,51.0189 L 7.18706,50.9812 L 7.09042,50.9439
 L 6.98924,50.9071 L 6.88358,50.8709 L 6.77348,50.8351 L 6.65906,50.8 L 6.54034,50.7654 L 6.41742,50.7314
 L 6.29036,50.698 L 6.15923,50.6652 L 6.02412,50.6331 L 5.88513,50.6016 L 5.74231,50.5709 L 5.59575,50.5408
 L 5.44556,50.5115 L 5.29182,50.483 L 5.13461,50.4552 L 4.97406,50.4281 L 4.81023,50.4019 L 4.64322,50.3765
 L 4.47316,50.3519 L 4.30013,50.3282 L 4.12422,50.3053 L 4.04999,50.2961 L 4.04999,45 L 4.04863,44.9669
 L 4.04457,44.9337 L 4.0378,44.9007 L 4.02832,44.8677 L 4.01614,44.8347 L 4.00854,44.8179 L 4.41077,44.7833
 L 5.50847,44.6616 L 6.60286,44.5129 L 7.69328,44.3375 L 8.77905,44.1353 L 9.85954,43.9066 L 10.9341,43.6514
 L 12.0021,43.3699 L 13.0628,43.0623 L 14.1157,42.7288 L 15.16,42.3695 L 16.1953,41.9847 L 17.2207,41.5746
 L 18.1565,41.1734 L 18.1564,41.1748 L 18.1552,41.2131 L 18.1563,41.2502 L 18.1599,41.2861 L 18.1658,41.3207
 L 18.1741,41.354 L 18.1848,41.386 L 18.1978,41.4167 L 18.2132,41.4461 L 20.8613,46.0327 L 20.8015,46.0778
 L 20.6606,46.1855 L 20.5227,46.2926 L 20.3877,46.3989 L 20.2558,46.5044 L 20.127,46.6091 L 20.0014,46.7128
 L 19.8792,46.8154 L 19.7603,46.9171 L 19.6449,47.0175 L 19.533,47.1168 L 19.4247,47.2148 L 19.3201,47.3116
 L 19.2191,47.4069 L 19.1219,47.5009 L 19.0286,47.5933 L 18.9391,47.6843 L 18.8537,47.7736 L 18.7721,47.8613
 L 18.6947,47.9473 L 18.6213,48.0315 L 18.552,48.1139 L 18.487,48.1945 L 18.4261,48.2732 L 18.3695,48.3499
 L 18.3172,48.4247 L 18.2692,48.4974 L 18.2256,48.568 L 18.1863,48.6365 L 18.1514,48.7028 L 18.121,48.767
 L 18.0949,48.8289 L 18.0733,48.8885 L 18.0562,48.9457 L 18.0436,49.0007 L 18.0354,49.0532 L 18.0318,49.1034
 L 18.0326,49.151 L 18.0379,49.1963 L 18.0477,49.239 L 18.062,49.2792 L 18.0808,49.3168 L 18.104,49.3519
 L 18.1316,49.3843 L 18.1637,49.4142 L 18.2002,49.4414 L 18.2411,49.4659 L 18.2864,49.4878 L 18.336,49.507
 L 18.3898,49.5236 L 18.448,49.5374 L 18.5104,49.5485 L 18.577,49.5569 L 18.6478,49.5626 L 18.7227,49.5656
 L 18.8017,49.5658 L 18.8846,49.5633 L 18.9716,49.5581 L 19.0625,49.5502 L 19.1572,49.5395 L 19.2558,49.5262
 L 19.3581,49.5101 L 19.4641,49.4913 L 19.5738,49.4699 L 19.687,49.4458 L 19.8037,49.4191 L 19.9238,49.3897
 L 20.0472,49.3577 L 20.174,49.3231 L 20.3039,49.2859 L 20.437,49.2462 L 20.5731,49.2039 L 20.7121,49.1591
 L 20.8541,49.1118 L 20.9988,49.0621 L 21.1462,49.01 L 21.2963,48.9555 L 21.4488,48.8986 L 21.6038,48.8394
 L 21.7612,48.7779 L 21.9207,48.7141 L 22.0825,48.6482 L 22.2462,48.58 L 22.412,48.5098 L 22.5795,48.4375
 L 22.7489,48.3631 L 22.9198,48.2867 L 23.0923,48.2083 L 23.2663,48.1281 L 23.4416,48.046 L 23.6181,47.962
 L 23.7958,47.8763 L 23.9745,47.789 L 24.1541,47.6999 L 24.3344,47.6093 L 24.5155,47.5171 L 24.6972,47.4234
 L 24.8793,47.3283 L 25.0618,47.2318 L 25.2446,47.1339 L 25.4275,47.0349 L 25.6104,46.9346 L 25.7933,46.8332
 L 25.9759,46.7307 L 26.1583,46.6272 L 26.3403,46.5227 L 26.5217,46.4173 L 26.7026,46.3111 L 26.8827,46.2042
 L 27.0619,46.0965 L 27.2402,45.9883 L 27.4175,45.8794 L 27.5936,45.77 L 27.7684,45.6602 L 27.9418,45.5501
 L 28.1138,45.4396 L 28.2842,45.3289 L 28.4529,45.218 L 28.6198,45.107 L 28.7848,44.9959 L 28.9478,44.8849
 L 29.1088,44.774 L 29.2675,44.6633 L 29.424,44.5527 L 29.5781,44.4425 L 29.7298,44.3326 L 29.8789,44.2232
 L 30.0253,44.1142 L 30.169,44.0058 L 30.3099,43.8981 L 30.4479,43.791 L 30.5829,43.6847 L 30.7148,43.5792
 L 30.8436,43.4745 L 30.9691,43.3708 L 31.0914,43.2682 L 31.2102,43.1665 L 31.3256,43.0661 L 31.4375,42.9668
 L 31.5459,42.8687 L 31.6505,42.772 L 31.7514,42.6767 L 31.8486,42.5827 L 31.942,42.4903 L 32.0314,42.3993
 L 32.1169,42.31 L 32.1984,42.2223 L 32.2759,42.1364 L 32.3493,42.0521 L 32.4185,41.9697 L 32.4836,41.8891
 L 32.5444,41.8104 L 32.601,41.7337 L 32.6534,41.659 L 32.7014,41.5862 L 32.745,41.5156 L 32.7843,41.4471
 L 32.8191,41.3808 L 32.8496,41.3166 L 32.8756,41.2547 L 32.8972,41.1951 L 32.9143,41.1379 L 32.927,41.0829
 L 32.9351,41.0304 L 32.9388,40.9802 L 32.9379,40.9325 L 32.9326,40.8873 L 32.9228,40.8446 L 32.9085,40.8044
 L 32.8898,40.7668 L 32.8666,40.7318 L 32.8389,40.6993 L 32.8068,40.6694 L 32.7703,40.6422 L 32.7294,40.6177
 L 32.6842,40.5958 L 32.6346,40.5766 L 32.5807,40.56 L 32.5225,40.5462 L 32.4601,40.5351 L 32.3935,40.5267
 L 32.3228,40.521 L 32.2479,40.518 L 32.1689,40.5178 L 32.0859,40.5203 L 31.9989,40.5255 L 31.9081,40.5334
 L 31.8133,40.5441 L 31.7147,40.5574 L 31.6124,40.5735 L 31.5064,40.5922 L 31.3968,40.6137 L 31.2836,40.6378
 L 31.1669,40.6645 L 31.0468,40.6939 L 30.9233,40.7259 L 30.7966,40.7605 L 30.6666,40.7977 L 30.5336,40.8375
 L 30.3975,40.8797 L 30.2584,40.9245 L 30.1165,40.9718 L 29.9718,41.0215 L 29.8243,41.0736 L 29.6743,41.1281
 L 29.5217,41.185 L 29.3667,41.2442 L 29.2094,41.3057 L 29.0498,41.3695 L 28.8881,41.4354 L 28.7243,41.5035
 L 28.6555,41.5327 L 26.0074,36.9461 L 25.9896,36.9181 L 25.9696,36.8915 L 25.9472,36.8662 L 25.9225,36.8424
 L 25.8954,36.8199 L 25.8828,36.8109 L 25.9114,36.7913 L 26.8065,36.1443 L 27.6854,35.4756 L 28.5477,34.7855
 L 29.3928,34.0744 L 30.2201,33.3428 L 31.0293,32.5911 L 31.8198,31.8198 L 32.5911,31.0293 L 33.3428,30.2201
 L 34.0744,29.3928 L 34.7855,28.5477 L 35.4756,27.6854 L 36.1443,26.8065 L 36.3099,26.5773 L 36.3113,26.5802
 L 36.3294,26.614 L 36.3489,26.6456 L 36.3699,26.6749 L 36.3924,26.7019 L 36.4162,26.7266 L 36.4415,26.749
 L 36.4681,26.7691 L 36.4961,26.7868 L 41.0827,29.4349 L 41.0535,29.5037 L 40.9854,29.6675 L 40.9195,29.8292
 L 40.8557,29.9888 L 40.7942,30.1461 L 40.735,30.3011 L 40.6781,30.4537 L 40.6236,30.6037 L 40.5715,30.7512
 L 40.5218,30.8959 L 40.4745,31.0378 L 40.4297,31.1769 L 40.3875,31.313 L 40.3477,31.4461 L 40.3105,31.576
 L 40.2759,31.7027 L 40.2439,31.8262 L 40.2145,31.9463 L 40.1878,32.063 L 40.1637,32.1762 L 40.1422,32.2858
 L 40.1235,32.3918 L 40.1074,32.4942 L 40.0941,32.5927 L 40.0834,32.6875 L 40.0755,32.7784 L 40.0703,32.8653
 L 40.0678,32.9483 L 40.068,33.0273 L 40.071,33.1022 L 40.0767,33.1729 L 40.0851,33.2396 L 40.0962,33.302
 L 40.11,33.3601 L 40.1266,33.414 L 40.1458,33.4636 L 40.1677,33.5089 L 40.1922,33.5497 L 40.2194,33.5862
 L 40.2493,33.6183 L 40.2817,33.646 L 40.3168,33.6692 L 40.3544,33.688 L 40.3946,33.7023 L 40.4373,33.7121
 L 40.4825,33.7174 L 40.5302,33.7182 L 40.5804,33.7145 L 40.6329,33.7064 L 40.6879,33.6937 L 40.7451,33.6766
 L 40.8047,33.655 L 40.8666,33.629 L 40.9308,33.5986 L 40.9971,33.5637 L 41.0656,33.5244 L 41.1362,33.4808
 L 41.2089,33.4328 L 41.2837,33.3804 L 41.3604,33.3239 L 41.4391,33.263 L 41.5197,33.1979 L 41.6021,33.1287
 L 41.6864,33.0553 L 41.7723,32.9779 L 41.86,32.8963 L 41.9493,32.8108 L 42.0403,32.7214 L 42.1327,32.628
 L 42.2267,32.5309 L 42.322,32.4299 L 42.4187,32.3253 L 42.5168,32.2169 L 42.6161,32.1051 L 42.7166,31.9896
 L 42.8182,31.8708 L 42.9208,31.7485 L 43.0245,31.623 L 43.1292,31.4942 L 43.2346,31.3623 L 43.341,31.2273
 L 43.4481,31.0893 L 43.5558,30.9484 L 43.6642,30.8047 L 43.7732,30.6583 L 43.8826,30.5092 L 43.9925,30.3576
 L 44.1027,30.2034 L 44.2133,30.047 L 44.324,29.8882 L 44.4349,29.7273 L 44.5459,29.5642 L 44.657,29.3992
 L 44.768,29.2323 L 44.8789,29.0636 L 44.9896,28.8932 L 45.1001,28.7213 L 45.2103,28.5478 L 45.32,28.373
 L 45.4294,28.1969 L 45.5383,28.0197 L 45.6465,27.8413 L 45.7542,27.6621 L 45.8612,27.482 L 45.9673,27.3011
 L 46.0727,27.1197 L 46.1772,26.9377 L 46.2807,26.7553 L 46.3832,26.5727 L 46.4846,26.3898 L 46.5849,26.2069
 L 46.6839,26.024 L 46.7818,25.8412 L 46.8783,25.6587 L 46.9734,25.4766 L 47.0671,25.2949 L 47.1593,25.1139
 L 47.2499,24.9335 L 47.3389,24.7539 L 47.4263,24.5752 L 47.512,24.3976 L 47.5959,24.221 L 47.6781,24.0457
 L 47.7583,23.8718 L 47.8367,23.6993 L 47.9131,23.5283 L 47.9874,23.359 L 48.0598,23.1914 L 48.1301,23.0257
 L 48.1982,22.8619 L 48.2641,22.7001 L 48.3279,22.5406 L 48.3894,22.3833 L 48.4486,22.2283 L 48.5055,22.0757
 L 48.56,21.9256 L 48.6121,21.7782 L 48.6618,21.6335 L 48.7091,21.4916 L 48.7539,21.3525 L 48.7961,21.2164
 L 48.8359,21.0833 L 48.8731,20.9534 L 48.9077,20.8267 L 48.9397,20.7032 L 48.9691,20.5831 L 48.9958,20.4664
 L 49.0199,20.3532 L 49.0414,20.2436 L 49.0601,20.1375 L 49.0762,20.0352 L 49.0895,19.9367 L 49.1002,19.8419
 L 49.1081,19.751 L 49.1133,19.664 L 49.1158,19.5811 L 49.1156,19.5021 L 49.1126,19.4272 L 49.1069,19.3564
 L 49.0985,19.2898 L 49.0874,19.2274 L 49.0736,19.1693 L 49.057,19.1154 L 49.0378,19.0658 L 49.0159,19.0205
 L 48.9914,18.9796 L 48.9642,18.9431 L 48.9343,18.9111 L 48.9019,18.8834 L 48.8668,18.8602 L 48.8292,18.8414
 L 48.789,18.8272 L 48.7463,18.8174 L 48.701,18.812 L 48.6534,18.8112 L 48.6032,18.8149 L 48.5507,18.823
 L 48.4957,18.8357 L 48.4385,18.8528 L 48.3789,18.8743 L 48.317,18.9004 L 48.2528,18.9308 L 48.1865,18.9657
 L 48.118,19.005 L 48.0474,19.0486 L 47.9747,19.0966 L 47.8999,19.1489 L 47.8232,19.2056 L 47.7445,19.2664
 L 47.6639,19.3315 L 47.5815,19.4007 L 47.4973,19.4741 L 47.4113,19.5516 L 47.3236,19.6331 L 47.2343,19.7186
 L 47.1433,19.808 L 47.0509,19.9014 L 46.9569,19.9985 L 46.8616,20.0995 L 46.7648,20.2041 L 46.6668,20.3124
 L 46.5675,20.4243 L 46.467,20.5398 L 46.3654,20.6586 L 46.2628,20.7809 L 46.1591,20.9064 L 46.0544,21.0352
 L 45.9489,21.1671 L 45.8426,21.3021 L 45.7355,21.4401 L 45.6278,21.581 L 45.5827,21.6407 L 40.9961,18.9926
 L 40.9668,18.9772 L 40.9361,18.9642 L 40.904,18.9535 L 40.8707,18.9452 L 40.8361,18.9393 L 40.8181,18.9375
 L 41.1394,18.2359 L 41.5746,17.2207 L 41.9847,16.1953 L 42.3695,15.16 L 42.7288,14.1157 L 43.0623,13.0628
 L 43.3699,12.0021 L 43.6514,10.9341 L 43.9066,9.85954 L 44.1353,8.77905 L 44.3375,7.69328 L 44.5129,6.60286
 L 44.6616,5.50847 L 44.7334,4.86122 L 44.7366,4.86353 L 44.7692,4.88374 L 44.8019,4.90129 L 44.8347,4.91615
 L 44.8677,4.92833 L 44.9007,4.93781 L 44.9337,4.94456 L 44.9669,4.94864 L 45,4.95 L 50.2962,4.95
 L 50.3053,5.02422 L 50.3282,5.20012 L 50.3519,5.37315 L 50.3765,5.54323 L 50.4019,5.71022 L 50.4281,5.87405
 L 50.4552,6.03462 L 50.483,6.19182 L 50.5115,6.34557 L 50.5408,6.49576 L 50.5709,6.6423 L 50.6016,6.78513
 L 50.6331,6.92413 L 50.6652,7.05923 L 50.698,7.19035 L 50.7314,7.31741 L 50.7654,7.44034 L 50.8,7.55905
 L 50.8351,7.67349 L 50.8709,7.78357 L 50.9071,7.88924 L 50.9439,7.99042 L 50.9812,8.08707 L 51.0189,8.17911
 L 51.057,8.26648 L 51.0956,8.34917 L 51.1346,8.42708 L 51.1739,8.5002 L 51.2136,8.56845 L 51.2536,8.63184
 L 51.2939,8.69028 L 51.3345,8.74376 L 51.3753,8.79225 L 51.4164,8.83571 L 51.4576,8.87411 L 51.4991,8.90746
 L 51.5407,8.9357 L 51.5824,8.95882 L 51.6242,8.97682 L 51.6661,8.9897 L 51.708,8.99742 L 51.75,9
 L 51.792,8.99742 L 51.8339,8.9897 L 51.8758,8.97682 L 51.9176,8.95882 L 51.9593,8.9357 L 52.0009,8.90746
 L 52.0423,8.87411 L 52.0836,8.83571 L 52.1246,8.79225 L 52.1655,8.74376 L 52.2061,8.69028 L 52.2464,8.63184
 L 52.2864,8.56845 L 52.3261,8.5002 L 52.3654,8.42708 L 52.4044,8.34917 L 52.443,8.26648 L 52.4811,8.17911
 L 52.5188,8.08707 L 52.5561,7.99042 L 52.5928,7.88924 L 52.6291,7.78357 L 52.6648,7.67349 L 52.7,7.55905
 L 52.7346,7.44034 L 52.7686,7.31741 L 52.802,7.19035 L 52.8348,7.05923 L 52.8669,6.92413 L 52.8984,6.78513
 L 52.9291,6.6423 L 52.9592,6.49576 L 52.9884,6.34557 L 53.017,6.19182 L 53.0448,6.03462 L 53.0718,5.87405
 L 53.0981,5.71022 L 53.1235,5.54323 L 53.1481,5.37315 L 53.1718,5.20012 L 53.1947,5.02422 L 53.2167,4.84557
 L 53.2378,4.66428 L 53.2581,4.48044 L 53.2774,4.29417 L 53.2958,4.10559 L 53.3133,3.91481 L 53.3298,3.72194
 L 53.3454,3.5271 L 53.36,3.3304 L 53.3737,3.13197 L 53.3864,2.93193 L 53.3981,2.73039 L 53.4088,2.52747
 L 53.4184,2.3233 L 53.4271,2.11801 L 53.4348,1.91171 L 53.4415,1.70454 L 53.4471,1.4966 L 53.4518,1.28804
 L 53.4554,1.07896 L 53.4579,0.869522 L 53.4595,0.659821 L 53.46,0.449997 L 53.4595,0.240158 L 53.4579,0.0304565
 L 53.4554,-0.17897 L 53.4518,-0.388046 L 53.4471,-0.596603 L 53.4415,-0.804535 L 53.4348,-1.01172 L 53.4271,-1.21802
 L 53.4184,-1.42331 L 53.4088,-1.62747 L 53.3981,-1.83038 L 53.3864,-2.03192 L 53.3737,-2.23196 L 53.36,-2.4304
 L 53.3454,-2.62709 L 53.3298,-2.82193 L 53.3133,-3.0148 L 53.2958,-3.20558 L 53.2774,-3.39417 L 53.2581,-3.58043
 L 53.2378,-3.76427 L 53.2167,-3.94557 L 53.1947,-4.12422 L 53.1718,-4.30013 L 53.1481,-4.47316 L 53.1235,-4.64322
 L 53.0981,-4.81023 L 53.0718,-4.97406 L 53.0448,-5.13461 L 53.017,-5.29182 L 52.9884,-5.44556 L 52.9592,-5.59575
 L 52.9291,-5.74231 L 52.8984,-5.88513 L 52.8669,-6.02412 L 52.8348,-6.15923 L 52.802,-6.29036 L 52.7686,-6.41742
 L 52.7346,-6.54034 L 52.7,-6.65906 L 52.6648,-6.77348 L 52.6291,-6.88358 L 52.5928,-6.98924 L 52.5561,-7.09042
 L 52.5188,-7.18706 L 52.4811,-7.2791 L 52.443,-7.36649 L 52.4044,-7.44916 L 52.3654,-7.52708 L 52.3261,-7.60019
 L 52.2864,-7.66846 L 52.2464,-7.73183 L 52.2061,-7.79028 L 52.1655,-7.84377 L 52.1246,-7.89224 L 52.0836,-7.9357
 L 52.0423,-7.97412 L 52.0009,-8.00745 L 51.9593,-8.03569 L 51.9176,-8.05882 L 51.8758,-8.07683 L 51.8339,-8.08969
 L 51.792,-8.09741 L 51.75,-8.09999 L 51.708,-8.09741 L 51.6661,-8.08969 L 51.6242,-8.07683 L 51.5824,-8.05882
 L 51.5407,-8.03569 L 51.4991,-8.00745 L 51.4576,-7.97412 L 51.4164,-7.9357 L 51.3753,-7.89224 L 51.3345,-7.84377
 L 51.2939,-7.79028 L 51.2536,-7.73183 L 51.2136,-7.66846 L 51.1739,-7.60019 L 51.1346,-7.52708 L 51.0956,-7.44916
 L 51.057,-7.36649 L 51.0189,-7.2791 L 50.9812,-7.18706 L 50.9439,-7.09042 L 50.9071,-6.98924 L 50.8709,-6.88358
 L 50.8351,-6.77348 L 50.8,-6.65906 L 50.7654,-6.54034 L 50.7314,-6.41742 L 50.698,-6.29036 L 50.6652,-6.15923
 L 50.6331,-6.02412 L 50.6016,-5.88513 L 50.5709,-5.74231 L 50.5408,-5.59575 L 50.5115,-5.44556 L 50.483,-5.29182
 L 50.4552,-5.13461 L 50.4281,-4.97406 L 50.4019,-4.81023 L 50.3765,-4.64322 L 50.3519,-4.47316 L 50.3282,-4.30013
 L 50.3053,-4.12422 L 50.2961,-4.04999 L 45,-4.04999 L 44.9669,-4.04863 L 44.9337,-4.04457 L 44.9007,-4.0378
 L 44.8677,-4.02832 L 44.8347,-4.01614 L 44.8179,-4.00854 L 44.7833,-4.41077 L 44.6616,-5.50847 L 44.5129,-6.60286
 L 44.3375,-7.69328 L 44.1353,-8.77905 L 43.9066,-9.85954 L 43.6514,-10.9341 L 43.3699,-12.0021 L 43.0623,-13.0628
 L 42.7288,-14.1157 L 42.3695,-15.16 L 41.9847,-16.1953 L 41.5746,-17.2207 L 41.1734,-18.1565 L 41.1748,-18.1564
 L 41.2131,-18.1552 L 41.2502,-18.1563 L 41.2861,-18.1599 L 41.3207,-18.1658 L 41.354,-18.1741 L 41.386,-18.1848
 L 41.4167,-18.1978 L 41.4461,-18.2132 L 46.0327,-20.8613 L 46.0778,-20.8015 L 46.1855,-20.6606 L 46.2926,-20.5227
 L 46.3989,-20.3877 L 46.5044,-20.2558 L 46.6091,-20.127 L 46.7128,-20.0014 L 46.8154,-19.8792 L 46.9171,-19.7603
 L 47.0175,-19.6449 L 47.1168,-19.533 L 47.2148,-19.4247 L 47.3116,-19.3201 L 47.4069,-19.2191 L 47.5009,-19.1219
 L 47.5933,-19.0286 L 47.6843,-18.9391 L 47.7736,-18.8537 L 47.8613,-18.7721 L 47.9473,-18.6947 L 48.0315,-18.6213
 L 48.1139,-18.552 L 48.1945,-18.487 L 48.2732,-18.4261 L 48.3499,-18.3695 L 48.4247,-18.3172 L 48.4974,-18.2692
 L 48.568,-18.2256 L 48.6365,-18.1863 L 48.7028,-18.1514 L 48.767,-18.121 L 48.8289,-18.0949 L 48.8885,-18.0733
 L 48.9457,-18.0562 L 49.0007,-18.0436 L 49.0532,-18.0354 L 49.1034,-18.0318 L 49.151,-18.0326 L 49.1963,-18.0379
 L 49.239,-18.0477 L 49.2792,-18.062 L 49.3168,-18.0808 L 49.3519,-18.104 L 49.3843,-18.1316 L 49.4142,-18.1637
 L 49.4414,-18.2002 L 49.4659,-18.2411 L 49.4878,-18.2864 L 49.507,-18.336 L 49.5236,-18.3898 L 49.5374,-18.448
 L 49.5485,-18.5104 L 49.5569,-18.577 L 49.5626,-18.6478 L 49.5656,-18.7227 L 49.5658,-18.8017 L 49.5633,-18.8846
 L 49.5581,-18.9716 L 49.5502,-19.0625 L 49.5395,-19.1572 L 49.5262,-19.2558 L 49.5101,-19.3581 L 49.4913,-19.4641
 L 49.4699,-19.5738 L 49.4458,-19.687 L 49.4191,-19.8037 L 49.3897,-19.9238 L 49.3577,-20.0472 L 49.3231,-20.174
 L 49.2859,-20.3039 L 49.2462,-20.437 L 49.2039,-20.5731 L 49.1591,-20.7121 L 49.1118,-20.8541 L 49.0621,-20.9988
 L 49.01,-21.1462 L 48.9555,-21.2963 L 48.8986,-21.4488 L 48.8394,-21.6038 L 48.7779,-21.7612 L 48.7141,-21.9207
 L 48.6482,-22.0825 L 48.58,-22.2462 L 48.5098,-22.412 L 48.4375,-22.5795 L 48.3631,-22.7489 L 48.2867,-22.9198
 L 48.2083,-23.0923 L 48.1281,-23.2663 L 48.046,-23.4416 L 47.962,-23.6181 L 47.8763,-23.7958 L 47.789,-23.9745
 L 47.6999,-24.1541 L 47.6093,-24.3344 L 47.5171,-24.5155 L 47.4234,-24.6972 L 47.3283,-24.8793 L 47.2318,-25.0618
 L 47.1339,-25.2446 L 47.0349,-25.4275 L 46.9346,-25.6104 L 46.8332,-25.7933 L 46.7307,-25.9759 L 46.6272,-26.1583
 L 46.5227,-26.3403 L 46.4173,-26.5217 L 46.3111,-26.7026 L 46.2042,-26.8827 L 46.0965,-27.0619 L 45.9883,-27.2402
 L 45.8794,-27.4175 L 45.77,-27.5936 L 45.6602,-27.7684 L 45.5501,-27.9418 L 45.4396,-28.1138 L 45.3289,-28.2842
 L 45.218,-28.4529 L 45.107,-28.6198 L 44.9959,-28.7848 L 44.8849,-28.9478 L 44.774,-29.1088 L 44.6633,-29.2675
 L 44.5527,-29.424 L 44.4425,-29.5781 L 44.3326,-29.7298 L 44.2232,-29.8789 L 44.1142,-30.0253 L 44.0058,-30.169
 L 43.8981,-30.3099 L 43.791,-30.4479 L 43.6847,-30.5829 L 43.5792,-30.7148 L 43.4745,-30.8436 L 43.3708,-30.9691
 L 43.2682,-31.0914 L 43.1665,-31.2102 L 43.0661,-31.3256 L 42.9668,-31.4375 L 42.8687,-31.5459 L 42.772,-31.6505
 L 42.6767,-31.7514 L 42.5827,-31.8486 L 42.4903,-31.942 L 42.3993,-32.0314 L 42.31,-32.1169 L 42.2223,-32.1984
 L 42.1364,-32.2759 L 42.0521,-32.3493 L 41.9697,-32.4185 L 41.8891,-32.4836 L 41.8104,-32.5444 L 41.7337,-32.601
 L 41.659,-32.6534 L 41.5862,-32.7014 L 41.5156,-32.745 L 41.4471,-32.7843 L 41.3808,-32.8191 L 41.3166,-32.8496
 L 41.2547,-32.8756 L 41.1951,-32.8972 L 41.1379,-32.9143 L 41.0829,-32.927 L 41.0304,-32.9351 L 40.9802,-32.9388
 L 40.9325,-32.9379 L 40.8873,-32.9326 L 40.8446,-32.9228 L 40.8044,-32.9085 L 40.7668,-32.8898 L 40.7318,-32.8666
 L 40.6993,-32.8389 L 40.6694,-32.8068 L 40.6422,-32.7703 L 40.6177,-32.7294 L 40.5958,-32.6842 L 40.5766,-32.6346
 L 40.56,-32.5807 L 40.5462,-32.5225 L 40.5351,-32.4601 L 40.5267,-32.3935 L 40.521,-32.3228 L 40.518,-32.2479
 L 40.5178,-32.1689 L 40.5203,-32.0859 L 40.5255,-31.9989 L 40.5334,-31.9081 L 40.5441,-31.8133 L 40.5574,-31.7147
 L 40.5735,-31.6124 L 40.5922,-31.5064 L 40.6137,-31.3968 L 40.6378,-31.2836 L 40.6645,-31.1669 L 40.6939,-31.0468
 L 40.7259,-30.9233 L 40.7605,-30.7966 L 40.7977,-30.6666 L 40.8375,-30.5336 L 40.8797,-30.3975 L 40.9245,-30.2584
 L 40.9718,-30.1165 L 41.0215,-29.9718 L 41.0736,-29.8243 L 41.1281,-29.6743 L 41.185,-29.5217 L 41.2442,-29.3667
 L 41.3057,-29.2094 L 41.3695,-29.0498 L 41.4354,-28.8881 L 41.5035,-28.7243 L 41.5327,-28.6555 L 36.9461,-26.0074
 L 36.9181,-25.9896 L 36.8915,-25.9696 L 36.8662,-25.9472 L 36.8424,-25.9225 L 36.8199,-25.8954 L 36.8109,-25.8828
 L 36.7913,-25.9114 L 36.1443,-26.8065 L 35.4756,-27.6854 L 34.7855,-28.5477 L 34.0744,-29.3928 L 33.3428,-30.2201
 L 32.5911,-31.0293 L 31.8198,-31.8198 L 31.0293,-32.5911 L 30.2201,-33.3428 L 29.3928,-34.0744 L 28.5477,-34.7855
 L 27.6854,-35.4756 L 26.8065,-36.1443 L 26.5773,-36.3099 L 26.5802,-36.3113 L 26.614,-36.3294 L 26.6456,-36.3489
 L 26.6749,-36.3699 L 26.7019,-36.3924 L 26.7266,-36.4162 L 26.749,-36.4415 L 26.7691,-36.4681 L 26.7868,-36.4961
 L 29.4349,-41.0827 L 29.5037,-41.0535 L 29.6675,-40.9854 L 29.8292,-40.9195 L 29.9888,-40.8557 L 30.1461,-40.7942
 L 30.3011,-40.735 L 30.4537,-40.6781 L 30.6037,-40.6236 L 30.7512,-40.5715 L 30.8959,-40.5218 L 31.0378,-40.4745
 L 31.1769,-40.4297 L 31.313,-40.3875 L 31.4461,-40.3477 L 31.576,-40.3105 L 31.7027,-40.2759 L 31.8262,-40.2439
 L 31.9463,-40.2145 L 32.063,-40.1878 L 32.1762,-40.1637 L 32.2858,-40.1422 L 32.3918,-40.1235 L 32.4942,-40.1074
 L 32.5927,-40.0941 L 32.6875,-40.0834 L 32.7784,-40.0755 L 32.8653,-40.0703 L 32.9483,-40.0678 L 33.0273,-40.068
 L 33.1022,-40.071 L 33.1729,-40.0767 L 33.2396,-40.0851 L 33.302,-40.0962 L 33.3601,-40.11 L 33.414,-40.1266
 L 33.4636,-40.1458 L 33.5089,-40.1677 L 33.5497,-40.1922 L 33.5862,-40.2194 L 33.6183,-40.2493 L 33.646,-40.2817
 L 33.6692,-40.3168 L 33.688,-40.3544 L 33.7023,-40.3946 L 33.7121,-40.4373 L 33.7174,-40.4825 L 33.7182,-40.5302
 L 33.7145,-40.5804 L 33.7064,-40.6329 L 33.6937,-40.6879 L 33.6766,-40.7451 L 33.655,-40.8047 L 33.629,-40.8666
 L 33.5986,-40.9308 L 33.5637,-40.9971 L 33.5244,-41.0656 L 33.4808,-41.1362 L 33.4328,-41.2089 L 33.3804,-41.2837
 L 33.3239,-41.3604 L 33.263,-41.4391 L 33.1979,-41.5197 L 33.1287,-41.6021 L 33.0553,-41.6864 L 32.9779,-41.7723
 L 32.8963,-41.86 L 32.8108,-41.9493 L 32.7214,-42.0403 L 32.628,-42.1327 L 32.5309,-42.2267 L 32.4299,-42.322
 L 32.3253,-42.4187 L 32.2169,-42.5168 L 32.1051,-42.6161 L 31.9896,-42.7166 L 31.8708,-42.8182 L 31.7485,-42.9208
 L 31.623,-43.0245 L 31.4942,-43.1292 L 31.3623,-43.2346 L 31.2273,-43.341 L 31.0893,-43.4481 L 30.9484,-43.5558
 L 30.8047,-43.6642 L 30.6583,-43.7732 L 30.5092,-43.8826 L 30.3576,-43.9925 L 30.2034,-44.1027 L 30.047,-44.2133
 L 29.8882,-44.324 L 29.7273,-44.4349 L 29.5642,-44.5459 L 29.3992,-44.657 L 29.2323,-44.768 L 29.0636,-44.8789
 L 28.8932,-44.9896 L 28.7213,-45.1001 L 28.5478,-45.2103 L 28.373,-45.32 L 28.1969,-45.4294 L 28.0197,-45.5383
 L 27.8413,-45.6465 L 27.6621,-45.7542 L 27.482,-45.8612 L 27.3011,-45.9673 L 27.1197,-46.0727 L 26.9377,-46.1772
 L 26.7553,-46.2807 L 26.5727,-46.3832 L 26.3898,-46.4846 L 26.2069,-46.5849 L 26.024,-46.6839 L 25.8412,-46.7818
 L 25.6587,-46.8783 L 25.4766,-46.9734 L 25.2949,-47.0671 L 25.1139,-47.1593 L 24.9335,-47.2499 L 24.7539,-47.3389
 L 24.5752,-47.4263 L 24.3976,-47.512 L 24.221,-47.5959 L 24.0457,-47.6781 L 23.8718,-47.7583 L 23.6993,-47.8367
 L 23.5283,-47.9131 L 23.359,-47.9874 L 23.1914,-48.0598 L 23.0257,-48.1301 L 22.8619,-48.1982 L 22.7001,-48.2641
 L 22.5406,-48.3279 L 22.3833,-48.3894 L 22.2283,-48.4486 L 22.0757,-48.5055 L 21.9256,-48.56 L 21.7782,-48.6121
 L 21.6335,-48.6618 L 21.4916,-48.7091 L 21.3525,-48.7539 L 21.2164,-48.7961 L 21.0833,-48.8359 L 20.9534,-48.8731
 L 20.8267,-48.9077 L 20.7032,-48.9397 L 20.5831,-48.9691 L 20.4664,-48.9958 L 20.3532,-49.0199 L 20.2436,-49.0414
 L 20.1375,-49.0601 L 20.0352,-49.0762 L 19.9367,-49.0895 L 19.8419,-49.1002 L 19.751,-49.1081 L 19.664,-49.1133
 L 19.5811,-49.1158 L 19.5021,-49.1156 L 19.4272,-49.1126 L 19.3564,-49.1069 L 19.2898,-49.0985 L 19.2274,-49.0874
 L 19.1693,-49.0736 L 19.1154,-49.057 L 19.0658,-49.0378 L 19.0205,-49.0159 L 18.9796,-48.9914 L 18.9431,-48.9642
 L 18.9111,-48.9343 L 18.8834,-48.9019 L 18.8602,-48.8668 L 18.8414,-48.8292 L 18.8272,-48.789 L 18.8174,-48.7463
 L 18.812,-48.701 L 18.8112,-48.6534 L 18.8149,-48.6032 L 18.823,-48.5507 L 18.8357,-48.4957 L 18.8528,-48.4385
 L 18.8743,-48.3789 L 18.9004,-48.317 L 18.9308,-48.2528 L 18.9657,-48.1865 L 19.005,-48.118 L 19.0486,-48.0474
 L 19.0966,-47.9747 L 19.1489,-47.8999 L 19.2056,-47.8232 L 19.2664,-47.7445 L 19.3315,-47.6639 L 19.4007,-47.5815
 L 19.4741,-47.4973 L 19.5516,-47.4113 L 19.6331,-47.3236 L 19.7186,-47.2343 L 19.808,-47.1433 L 19.9014,-47.0509
 L 19.9985,-46.9569 L 20.0995,-46.8616 L 20.2041,-46.7648 L 20.3124,-46.6668 L 20.4243,-46.5675 L 20.5398,-46.467
 L 20.6586,-46.3654 L 20.7809,-46.2628 L 20.9064,-46.1591 L 21.0352,-46.0544 L 21.1671,-45.9489 L 21.3021,-45.8426
 L 21.4401,-45.7355 L 21.581,-45.6278 L 21.6407,-45.5827 L 18.9926,-40.9961 L 18.9772,-40.9668 L 18.9642,-40.9361
 L 18.9535,-40.904 L 18.9452,-40.8707 L 18.9393,-40.8361 L 18.9375,-40.8181 L 18.2359,-41.1394 L 17.2207,-41.5746
 L 16.1953,-41.9847 L 15.16,-42.3695 L 14.1157,-42.7288 L 13.0628,-43.0623 L 12.0021,-43.3699 L 10.9341,-43.6514
 L 9.85954,-43.9066 L 8.77905,-44.1353 L 7.69328,-44.3375 L 6.60286,-44.5129 L 5.50847,-44.6616 L 4.86122,-44.7334
 L 4.86353,-44.7366 L 4.88374,-44.7692 L 4.90129,-44.8019 L 4.91615,-44.8347 L 4.92833,-44.8677 L 4.93781,-44.9007
 L 4.94456,-44.9337 L 4.94864,-44.9669 L 4.95,-45 L 4.95,-50.2962 L 5.02422,-50.3053 L 5.20012,-50.3282
 L 5.37315,-50.3519 L 5.54323,-50.3765 L 5.71022,-50.4019 L 5.87405,-50.4281 L 6.03462,-50.4552 L 6.19182,-50.483
 L 6.34557,-50.5115 L 6.49576,-50.5408 L 6.6423,-50.5709 L 6.78513,-50.6016 L 6.92413,-50.6331 L 7.05923,-50.6652
 L 7.19035,-50.698 L 7.31741,-50.7314 L 7.44034,-50.7654 L 7.55905,-50.8 L 7.67349,-50.8351 L 7.78357,-50.8709
 L 7.88924,-50.9071 L 7.99042,-50.9439 L 8.08707,-50.9812 L 8.17911,-51.0189 L 8.26648,-51.057 L 8.34917,-51.0956
 L 8.42708,-51.1346 L 8.5002,-51.1739 L 8.56845,-51.2136 L 8.63184,-51.2536 L 8.69028,-51.2939 L 8.74376,-51.3345
 L 8.79225,-51.3753 L 8.83571,-51.4164 L 8.87411,-51.4576 L 8.90746,-51.4991 L 8.9357,-51.5407 L 8.95882,-51.5824
 L 8.97682,-51.6242 L 8.9897,-51.6661 L 8.99742,-51.708 L 9,-51.75 L 8.99742,-51.792 L 8.9897,-51.8339
 L 8.97682,-51.8758 L 8.95882,-51.9176 L 8.9357,-51.9593 L 8.90746,-52.0009 L 8.87411,-52.0423 L 8.83571,-52.0836
 L 8.79225,-52.1246 L 8.74376,-52.1655 L 8.69028,-52.2061 L 8.63184,-52.2464 L 8.56845,-52.2864 L 8.5002,-52.3261
 L 8.42708,-52.3654 L 8.34917,-52.4044 L 8.26648,-52.443 L 8.17911,-52.4811 L 8.08707,-52.5188 L 7.99042,-52.5561
 L 7.88924,-52.5928 L 7.78357,-52.6291 L 7.67349,-52.6648 L 7.55905,-52.7 L 7.44034,-52.7346 L 7.31741,-52.7686
 L 7.19035,-52.802 L 7.05923,-52.8348 L 6.92413,-52.8669 L 6.78513,-52.8984 L 6.6423,-52.9291 L 6.49576,-52.9592
 L 6.34557,-52.9884 L 6.19182,-53.017 L 6.03462,-53.0448 L 5.87405,-53.0718 L 5.71022,-53.0981 L 5.54323,-53.1235
 L 5.37315,-53.1481 L 5.20012,-53.1718 L 5.02422,-53.1947 L 4.84557,-53.2167 L 4.66428,-53.2378 L 4.48044,-53.2581
 L 4.29417,-53.2774 L 4.10559,-53.2958 L 3.91481,-53.3133 L 3.72194,-53.3298 L 3.5271,-53.3454 L 3.3304,-53.36
 L 3.13197,-53.3737 L 2.93193,-53.3864 L 2.73039,-53.3981 L 2.52747,-53.4088 L 2.3233,-53.4184 L 2.11801,-53.4271
 L 1.91171,-53.4348 L 1.70454,-53.4415 L 1.4966,-53.4471 L 1.28804,-53.4518 L 1.07896,-53.4554 L 0.869522,-53.4579
 L 0.659821,-53.4595 L 0.449997,-53.46 L 0.240158,-53.4595 L 0.0304565,-53.4579 L -0.17897,-53.4554 L -0.388046,-53.4518
 L -0.596603,-53.4471 L -0.804535,-53.4415 L -1.01172,-53.4348 L -1.21802,-53.4271 L -1.42331,-53.4184 L -1.62747,-53.4088
 L -1.83038,-53.3981 L -2.03192,-53.3864 L -2.23196,-53.3737 L -2.4304,-53.36 L -2.62709,-53.3454 L -2.82193,-53.3298
 L -3.0148,-53.3133 L -3.20558,-53.2958 L -3.39417,-53.2774 L -3.58043,-53.2581 L -3.76427,-53.2378 L -3.94557,-53.2167
 L -4.12422,-53.1947 L -4.30013,-53.1718 L -4.47316,-53.1481 L -4.64322,-53.1235 L -4.81023,-53.0981 L -4.97406,-53.0718
 L -5.13461,-53.0448 L -5.29182,-53.017 L -5.44556,-52.9884 L -5.59575,-52.9592 L -5.74231,-52.9291 L -5.88513,-52.8984
 L -6.02412,-52.8669 L -6.15923,-52.8348 L -6.29036,-52.802 L -6.41742,-52.7686 L -6.54034,-52.7346 L -6.65906,-52.7
 L -6.77348,-52.6648 L -6.88358,-52.6291 L -6.98924,-52.5928 L -7.09042,-52.5561 L -7.18706,-52.5188 L -7.2791,-52.4811
 L -7.36649,-52.443 L -7.44916,-52.4044 L -7.52708,-52.3654 L -7.60019,-52.3261 L -7.66846,-52.2864 L -7.73183,-52.2464
 L -7.79028,-52.2061 L -7.84377,-52.1655 L -7.89224,-52.1246 L -7.9357,-52.0836 L -7.97412,-52.0423 L -8.00745,-52.0009
 L -8.03569,-51.9593 L -8.05882,-51.9176 L -8.07683,-51.8758 L -8.08969,-51.8339 L -8.09741,-51.792 L -8.09999,-51.75
 L -8.09741,-51.708 L -8.08969,-51.6661 L -8.07683,-51.6242 L -8.05882,-51.5824 L -8.03569,-51.5407 L -8.00745,-51.4991
 L -7.97412,-51.4576 L -7.9357,-51.4164 L -7.89224,-51.3753 L -7.84377,-51.3345 L -7.79028,-51.2939 L -7.73183,-51.2536
 L -7.66846,-51.2136 L -7.60019,-51.1739 L -7.52708,-51.1346 L -7.44916,-51.0956 L -7.36649,-51.057 L -7.2791,-51.0189
 L -7.18706,-50.9812 L -7.09042,-50.9439 L -6.98924,-50.9071 L -6.88358,-50.8709 L -6.77348,-50.8351 L -6.65906,-50.8
 L -6.54034,-50.7654 L -6.41742,-50.7314 L -6.29036,-50.698 L -6.15923,-50.6652 L -6.02412,-50.6331 L -5.88513,-50.6016
 L -5.74231,-50.5709 L -5.59575,-50.5408 L -5.44556,-50.5115 L -5.29182,-50.483 L -5.13461,-50.4552 L -4.97406,-50.4281
 L -4.81023,-50.4019 L -4.64322,-50.3765 L -4.47316,-50.3519 L -4.30013,-50.3282 L -4.12422,-50.3053 L -4.04999,-50.2961
 L -4.04999,-45 L -4.04863,-44.9669 L -4.04457,-44.9337 L -4.0378,-44.9007 L -4.02832,-44.8677 L -4.01614,-44.8347
 L -4.00854,-44.8179 L -4.41077,-44.7833 L -5.50847,-44.6616 L -6.60286,-44.5129 L -7.69328,-44.3375 L -8.77905,-44.1353
 L -9.85954,-43.9066 L -10.9341,-43.6514 L -12.0021,-43.3699 L -13.0628,-43.0623 L -14.1157,-42.7288 L -15.16,-42.3695
 L -16.1953,-41.9847 L -17.2207,-41.5746 L -18.1565,-41.1734 L -18.1564,-41.1748 L -18.1552,-41.2131 L -18.1563,-41.2502
 L -18.1599,-41.2861 L -18.1658,-41.3207 L -18.1741,-41.354 L -18.1848,-41.386 L -18.1978,-41.4167 L -18.2132,-41.4461
 L -20.8613,-46.0327 L -20.8015,-46.0778 L -20.6606,-46.1855 L -20.5227,-46.2926 L -20.3877,-46.3989 L -20.2558,-46.5044
 L -20.127,-46.6091 L -20.0014,-46.7128 L -19.8792,-46.8154 L -19.7603,-46.9171 L -19.6449,-47.0175 L -19.533,-47.1168
 L -19.4247,-47.2148 L -19.3201,-47.3116 L -19.2191,-47.4069 L -19.1219,-47.5009 L -19.0286,-47.5933 L -18.9391,-47.6843
 L -18.8537,-47.7736 L -18.7721,-47.8613 L -18.6947,-47.9473 L -18.6213,-48.0315 L -18.552,-48.1139 L -18.487,-48.1945
 L -18.4261,-48.2732 L -18.3695,-48.3499 L -18.3172,-48.4247 L -18.2692,-48.4974 L -18.2256,-48.568 L -18.1863,-48.6365
 L -18.1514,-48.7028 L -18.121,-48.767 L -18.0949,-48.8289 L -18.0733,-48.8885 L -18.0562,-48.9457 L -18.0436,-49.0007
 L -18.0354,-49.0532 L -18.0318,-49.1034 L -18.0326,-49.151 L -18.0379,-49.1963 L -18.0477,-49.239 L -18.062,-49.2792
 L -18.0808,-49.3168 L -18.104,-49.3519 L -18.1316,-49.3843 L -18.1637,-49.4142 L -18.2002,-49.4414 L -18.2411,-49.4659
 L -18.2864,-49.4878 L -18.336,-49.507 L -18.3898,-49.5236 L -18.448,-49.5374 L -18.5104,-49.5485 L -18.577,-49.5569
 L -18.6478,-49.5626 L -18.7227,-49.5656 L -18.8017,-49.5658 L -18.8846,-49.5633 L -18.9716,-49.5581 L -19.0625,-49.5502
 L -19.1572,-49.5395 L -19.2558,-49.5262 L -19.3581,-49.5101 L -19.4641,-49.4913 L -19.5738,-49.4699 L -19.687,-49.4458
 L -19.8037,-49.4191 L -19.9238,-49.3897 L -20.0472,-49.3577 L -20.174,-49.3231 L -20.3039,-49.2859 L -20.437,-49.2462
 L -20.5731,-49.2039 L -20.7121,-49.1591 L -20.8541,-49.1118 L -20.9988,-49.0621 L -21.1462,-49.01 L -21.2963,-48.9555
 L -21.4488,-48.8986 L -21.6038,-48.8394 L -21.7612,-48.7779 L -21.9207,-48.7141 L -22.0825,-48.6482 L -22.2462,-48.58
 L -22.412,-48.5098 L -22.5795,-48.4375 L -22.7489,-48.3631 L -22.9198,-48.2867 L -23.0923,-48.2083 L -23.2663,-48.1281
 L -23.4416,-48.046 L -23.6181,-47.962 L -23.7958,-47.8763 L -23.9745,-47.789 L -24.1541,-47.6999 L -24.3344,-47.6093
 L -24.5155,-47.5171 L -24.6972,-47.4234 L -24.8793,-47.3283 L -25.0618,-47.2318 L -25.2446,-47.1339 L -25.4275,-47.0349
 L -25.6104,-46.9346 L -25.7933,-46.8332 L -25.9759,-46.7307 L -26.1583,-46.6272 L -26.3403,-46.5227 L -26.5217,-46.4173
 L -26.7026,-46.3111 L -26.8827,-46.2042 L -27.0619,-46.0965 L -27.2402,-45.9883 L -27.4175,-45.8794 L -27.5936,-45.77
 L -27.7684,-45.6602 L -27.9418,-45.5501 L -28.1138,-45.4396 L -28.2842,-45.3289 L -28.4529,-45.218 L -28.6198,-45.107
 L -28.7848,-44.9959 L -28.9478,-44.8849 L -29.1088,-44.774 L -29.2675,-44.6633 L -29.424,-44.5527 L -29.5781,-44.4425
 L -29.7298,-44.3326 L -29.8789,-44.2232 L -30.0253,-44.1142 L -30.169,-44.0058 L -30.3099,-43.8981 L -30.4479,-43.791
 L -30.5829,-43.6847 L -30.7148,-43.5792 L -30.8436,-43.4745 L -30.9691,-43.3708 L -31.0914,-43.2682 L -31.2102,-43.1665
 L -31.3256,-43.0661 L -31.4375,-42.9668 L -31.5459,-42.8687 L -31.6505,-42.772 L -31.7514,-42.6767 L -31.8486,-42.5827
 L -31.942,-42.4903 L -32.0314,-42.3993 L -32.1169,-42.31 L -32.1984,-42.2223 L -32.2759,-42.1364 L -32.3493,-42.0521
 L -32.4185,-41.9697 L -32.4836,-41.8891 L -32.5444,-41.8104 L -32.601,-41.7337 L -32.6534,-41.659 L -32.7014,-41.5862
 L -32.745,-41.5156 L -32.7843,-41.4471 L -32.8191,-41.3808 L -32.8496,-41.3166 L -32.8756,-41.2547 L -32.8972,-41.1951
 L -32.9143,-41.1379 L -32.927,-41.0829 L -32.9351,-41.0304 L -32.9388,-40.9802 L -32.9379,-40.9325 L -32.9326,-40.8873
 L -32.9228,-40.8446 L -32.9085,-40.8044 L -32.8898,-40.7668 L -32.8666,-40.7318 L -32.8389,-40.6993 L -32.8068,-40.6694
 L -32.7703,-40.6422 L -32.7294,-40.6177 L -32.6842,-40.5958 L -32.6346,-40.5766 L -32.5807,-40.56 L -32.5225,-40.5462
 L -32.4601,-40.5351 L -32.3935,-40.5267 L -32.3228,-40.521 L -32.2479,-40.518 L -32.1689,-40.5178 L -32.0859,-40.5203
 L -31.9989,-40.5255 L -31.9081,-40.5334 L -31.8133,-40.5441 L -31.7147,-40.5574 L -31.6124,-40.5735 L -31.5064,-40.5922
 L -31.3968,-40.6137 L -31.2836,-40.6378 L -31.1669,-40.6645 L -31.0468,-40.6939 L -30.9233,-40.7259 L -30.7966,-40.7605
 L -30.6666,-40.7977 L -30.5336,-40.8375 L -30.3975,-40.8797 L -30.2584,-40.9245 L -30.1165,-40.9718 L -29.9718,-41.0215
 L -29.8243,-41.0736 L -29.6743,-41.1281 L -29.5217,-41.185 L -29.3667,-41.2442 L -29.2094,-41.3057 L -29.0498,-41.3695
 L -28.8881,-41.4354 L -28.7243,-41.5035 L -28.6555,-41.5327 L -26.0074,-36.9461 L -25.9896,-36.9181 L -25.9696,-36.8915
 L -25.9472,-36.8662 L -25.9225,-36.8424 L -25.8954,-36.8199 L -25.8828,-36.8109 L -25.9114,-36.7913 L -26.8065,-36.1443
 L -27.6854,-35.4756 L -28.5477,-34.7855 L -29.3928,-34.0744 L -30.2201,-33.3428 L -31.0293,-32.5911 L -31.8198,-31.8198
 L -32.5911,-31.0293 L -33.3428,-30.2201 L -34.0744,-29.3928 L -34.7855,-28.5477 L -35.4756,-27.6854 L -36.1443,-26.8065
 L -36.3099,-26.5773 L -36.3113,-26.5802 L -36.3294,-26.614 L -36.3489,-26.6456 L -36.3699,-26.6749 L -36.3924,-26.7019
 L -36.4162,-26.7266 L -36.4415,-26.749 L -36.4681,-26.7691 L -36.4961,-26.7868 L -41.0827,-29.4349 L -41.0535,-29.5037
 L -40.9854,-29.6675 L -40.9195,-29.8292 L -40.8557,-29.9888 L -40.7942,-30.1461 L -40.735,-30.3011 L -40.6781,-30.4537
 L -40.6236,-30.6037 L -40.5715,-30.7512 L -40.5218,-30.8959 L -40.4745,-31.0378 L -40.4297,-31.1769 L -40.3875,-31.313
 L -40.3477,-31.4461 L -40.3105,-31.576 L -40.2759,-31.7027 L -40.2439,-31.8262 L -40.2145,-31.9463 L -40.1878,-32.063
 L -40.1637,-32.1762 L -40.1422,-32.2858 L -40.1235,-32.3918 L -40.1074,-32.4942 L -40.0941,-32.5927 L -40.0834,-32.6875
 L -40.0755,-32.7784 L -40.0703,-32.8653 L -40.0678,-32.9483 L -40.068,-33.0273 L -40.071,-33.1022 L -40.0767,-33.1729
 L -40.0851,-33.2396 L -40.0962,-33.302 L -40.11,-33.3601 L -40.1266,-33.414 L -40.1458,-33.4636 L -40.1677,-33.5089
 L -40.1922,-33.5497 L -40.2194,-33.5862 L -40.2493,-33.6183 L -40.2817,-33.646 L -40.3168,-33.6692 L -40.3544,-33.688
 L -40.3946,-33.7023 L -40.4373,-33.7121 L -40.4825,-33.7174 L -40.5302,-33.7182 L -40.5804,-33.7145 L -40.6329,-33.7064
 L -40.6879,-33.6937 L -40.7451,-33.6766 L -40.8047,-33.655 L -40.8666,-33.629 L -40.9308,-33.5986 L -40.9971,-33.5637
 L -41.0656,-33.5244 L -41.1362,-33.4808 L -41.2089,-33.4328 L -41.2837,-33.3804 L -41.3604,-33.3239 L -41.4391,-33.263
 L -41.5197,-33.1979 L -41.6021,-33.1287 L -41.6864,-33.0553 L -41.7723,-32.9779 L -41.86,-32.8963 L -41.9493,-32.8108
 L -42.0403,-32.7214 L -42.1327,-32.628 L -42.2267,-32.5309 L -42.322,-32.4299 L -42.4187,-32.3253 L -42.5168,-32.2169
 L -42.6161,-32.1051 L -42.7166,-31.9896 L -42.8182,-31.8708 L -42.9208,-31.7485 L -43.0245,-31.623 L -43.1292,-31.4942
 L -43.2346,-31.3623 L -43.341,-31.2273 L -43.4481,-31.0893 L -43.5558,-30.9484 L -43.6642,-30.8047 L -43.7732,-30.6583
 L -43.8826,-30.5092 L -43.9925,-30.3576 L -44.1027,-30.2034 L -44.2133,-30.047 L -44.324,-29.8882 L -44.4349,-29.7273
 L -44.5459,-29.5642 L -44.657,-29.3992 L -44.768,-29.2323 L -44.8789,-29.0636 L -44.9896,-28.8932 L -45.1001,-28.7213
 L -45.2103,-28.5478 L -45.32,-28.373 L -45.4294,-28.1969 L -45.5383,-28.0197 L -45.6465,-27.8413 L -45.7542,-27.6621
 L -45.8612,-27.482 L -45.9673,-27.3011 L -46.0727,-27.1197 L -46.1772,-26.9377 L -46.2807,-26.7553 L -46.3832,-26.5727
 L -46.4846,-26.3898 L -46.5849,-26.2069 L -46.6839,-26.024 L -46.7818,-25.8412 L -46.8783,-25.6587 L -46.9734,-25.4766
 L -47.0671,-25.2949 L -47.1593,-25.1139 L -47.2499,-24.9335 L -47.3389,-24.7539 L -47.4263,-24.5752 L -47.512,-24.3976
 L -47.5959,-24.221 L -47.6781,-24.0457 L -47.7583,-23.8718 L -47.8367,-23.6993 L -47.9131,-23.5283 L -47.9874,-23.359
 L -48.0598,-23.1914 L -48.1301,-23.0257 L -48.1982,-22.8619 L -48.2641,-22.7001 L -48.3279,-22.5406 L -48.3894,-22.3833
 L -48.4486,-22.2283 L -48.5055,-22.0757 L -48.56,-21.9256 L -48.6121,-21.7782 L -48.6618,-21.6335 L -48.7091,-21.4916
 L -48.7539,-21.3525 L -48.7961,-21.2164 L -48.8359,-21.0833 L -48.8731,-20.9534 L -48.9077,-20.8267 L -48.9397,-20.7032
 L -48.9691,-20.5831 L -48.9958,-20.4664 L -49.0199,-20.3532 L -49.0414,-20.2436 L -49.0601,-20.1375 L -49.0762,-20.0352
 L -49.0895,-19.9367 L -49.1002,-19.8419 L -49.1081,-19.751 L -49.1133,-19.664 L -49.1158,-19.5811 L -49.1156,-19.5021
 L -49.1126,-19.4272 L -49.1069,-19.3564 L -49.0985,-19.2898 L -49.0874,-19.2274 L -49.0736,-19.1693 L -49.057,-19.1154
 L -49.0378,-19.0658 L -49.0159,-19.0205 L -48.9914,-18.9796 L -48.9642,-18.9431 L -48.9343,-18.9111 L -48.9019,-18.8834
 L -48.8668,-18.8602 L -48.8292,-18.8414 L -48.789,-18.8272 L -48.7463,-18.8174 L -48.701,-18.812 L -48.6534,-18.8112
 L -48.6032,-18.8149 L -48.5507,-18.823 L -48.4957,-18.8357 L -48.4385,-18.8528 L -48.3789,-18.8743 L -48.317,-18.9004
 L -48.2528,-18.9308 L -48.1865,-18.9657 L -48.118,-19.005 L -48.0474,-19.0486 L -47.9747,-19.0966 L -47.8999,-19.1489
 L -47.8232,-19.2056 L -47.7445,-19.2664 L -47.6639,-19.3315 L -47.5815,-19.4007 L -47.4973,-19.4741 L -47.4113,-19.5516
 L -47.3236,-19.6331 L -47.2343,-19.7186 L -47.1433,-19.808 L -47.0509,-19.9014 L -46.9569,-19.9985 L -46.8616,-20.0995
 L -46.7648,-20.2041 L -46.6668,-20.3124 L -46.5675,-20.4243 L -46.467,-20.5398 L -46.3654,-20.6586 L -46.2628,-20.7809
 L -46.1591,-20.9064 L -46.0544,-21.0352 L -45.9489,-21.1671 L -45.8426,-21.3021 L -45.7355,-21.4401 L -45.6278,-21.581
 L -45.5827,-21.6407 L -40.9961,-18.9926 L -40.9668,-18.9772 L -40.9361,-18.9642 L -40.904,-18.9535 L -40.8707,-18.9452
 L -40.8361,-18.9393 L -40.8181,-18.9375 L -41.1394,-18.2359 L -41.5746,-17.2207 L -41.9847,-16.1953 L -42.3695,-15.16
 L -42.7288,-14.1157 L -43.0623,-13.0628 L -43.3699,-12.0021 L -43.6514,-10.9341 L -43.9066,-9.85954 L -44.1353,-8.77905
 L -44.3375,-7.69328 L -44.5129,-6.60286 L -44.6616,-5.50847 L -44.7334,-4.86122 L -44.7366,-4.86353 L -44.7692,-4.88374
 L -44.8019,-4.90129 L -44.8347,-4.91615 L -44.8677,-4.92833 L -44.9007,-4.93781 L -44.9337,-4.94456 L -44.9669,-4.94864
 L -45,-4.95 L -50.2962,-4.95 L -50.3053,-5.02422 L -50.3282,-5.20012 L -50.3519,-5.37315 L -50.3765,-5.54323
 L -50.4019,-5.71022 L -50.4281,-5.87405 L -50.4552,-6.03462 L -50.483,-6.19182 L -50.5115,-6.34557 L -50.5408,-6.49576
 L -50.5709,-6.6423 L -50.6016,-6.78513 L -50.6331,-6.92413 L -50.6652,-7.05923 L -50.698,-7.19035 L -50.7314,-7.31741
 L -50.7654,-7.44034 L -50.8,-7.55905 L -50.8351,-7.67349 L -50.8709,-7.78357 L -50.9071,-7.88924 L -50.9439,-7.99042
 L -50.9812,-8.08707 L -51.0189,-8.17911 L -51.057,-8.26648 L -51.0956,-8.34917 L -51.1346,-8.42708 L -51.1739,-8.5002
 L -51.2136,-8.56845 L -51.2536,-8.63184 L -51.2939,-8.69028 L -51.3345,-8.74376 L -51.3753,-8.79225 L -51.4164,-8.83571
 L -51.4576,-8.87411 L -51.4991,-8.90746 L -51.5407,-8.9357 L -51.5824,-8.95882 L -51.6242,-8.97682 L -51.6661,-8.9897
 L -51.708,-8.99742 L -51.75,-9 L -51.792,-8.99742 L -51.8339,-8.9897 L -51.8758,-8.97682 L -51.9176,-8.95882
 L -51.9593,-8.9357 L -52.0009,-8.90746 L -52.0423,-8.87411 L -52.0836,-8.83571 L -52.1246,-8.79225 L -52.1655,-8.74376
 L -52.2061,-8.69028 L -52.2464,-8.63184 L -52.2864,-8.56845 L -52.3261,-8.5002 L -52.3654,-8.42708 L -52.4044,-8.34917
 L -52.443,-8.26648 L -52.4811,-8.17911 L -52.5188,-8.08707 L -52.5561,-7.99042 L -52.5928,-7.88924 L -52.6291,-7.78357
 L -52.6648,-7.67349 L -52.7,-7.55905 L -52.7346,-7.44034 L -52.7686,-7.31741 L -52.802,-7.19035 L -52.8348,-7.05923
 L -52.8669,-6.92413 L -52.8984,-6.78513 L -52.9291,-6.6423 L -52.9592,-6.49576 L -52.9884,-6.34557 L -53.017,-6.19182
 L -53.0448,-6.03462 L -53.0718,-5.87405 L -53.0981,-5.71022 L -53.1235,-5.54323 L -53.1481,-5.37315 L -53.1718,-5.20012
 L -53.1947,-5.02422 L -53.2167,-4.84557 L -53.2378,-4.66428 L -53.2581,-4.48044 L -53.2774,-4.29417 L -53.2958,-4.10559
 L -53.3133,-3.91481 L -53.3298,-3.72194 L -53.3454,-3.5271 L -53.36,-3.3304 L -53.3737,-3.13197 L -53.3864,-2.93193
 L -53.3981,-2.73039 L -53.4088,-2.52747 L -53.4184,-2.3233 L -53.4271,-2.11801 L -53.4348,-1.91171 L -53.4415,-1.70454
 L -53.4471,-1.4966 L -53.4518,-1.28804 L -53.4554,-1.07896 L -53.4579,-0.869522 L -53.4595,-0.659821 L -53.46,-0.449997
 L -53.4595,-0.240158 L -53.4579,-0.0304565 L -53.4554,0.17897 L -53.4518,0.388046 L -53.4471,0.596603 L -53.4415,0.804535
 L -53.4348,1.01172 L -53.4271,1.21802 L -53.4184,1.42331 L -53.4088,1.62747 L -53.3981,1.83038 L -53.3864,2.03192
 L -53.3737,2.23196 L -53.36,2.4304 L -53.3454,2.62709 L -53.3298,2.82193 L -53.3133,3.0148 L -53.2958,3.20558
 L -53.2774,3.39417 L -53.2581,3.58043 L -53.2378,3.76427 L -53.2167,3.94557 L -53.1947,4.12422 L -53.1718,4.30013
 L -53.1481,4.47316 L -53.1235,4.64322 L -53.0981,4.81023 L -53.0718,4.97406 L -53.0448,5.13461 L -53.017,5.29182
 L -52.9884,5.44556 L -52.9592,5.59575 L -52.9291,5.74231 L -52.8984,5.88513 L -52.8669,6.02412 L -52.8348,6.15923
 L -52.802,6.29036 L -52.7686,6.41742 L -52.7346,6.54034 L -52.7,6.65906 L -52.6648,6.77348 L -52.6291,6.88358
 L -52.5928,6.98924 L -52.5561,7.09042 L -52.5188,7.18706 L -52.4811,7.2791 L -52.443,7.36649 L -52.4044,7.44916
 L -52.3654,7.52708 L -52.3261,7.60019 L -52.2864,7.66846 L -52.2464,7.73183 L -52.2061,7.79028 L -52.1655,7.84377
 L -52.1246,7.89224 L -52.0836,7.9357 L -52.0423,7.97412 L -52.0009,8.00745 L -51.9593,8.03569 L -51.9176,8.05882
 L -51.8758,8.07683 L -51.8339,8.08969 L -51.792,8.09741 L -51.75,8.09999 L -51.708,8.09741 L -51.6661,8.08969
 L -51.6242,8.07683 L -51.5824,8.05882 L -51.5407,8.03569 L -51.4991,8.00745 L -51.4576,7.97412 L -51.4164,7.9357
 L -51.3753,7.89224 L -51.3345,7.84377 L -51.2939,7.79028 L -51.2536,7.73183 L -51.2136,7.66846 L -51.1739,7.60019
 L -51.1346,7.52708 L -51.0956,7.44916 L -51.057,7.36649 L -51.0189,7.2791 L -50.9812,7.18706 L -50.9439,7.09042
 L -50.9071,6.98924 L -50.8709,6.88358 L -50.8351,6.77348 L -50.8,6.65906 L -50.7654,6.54034 L -50.7314,6.41742
 L -50.698,6.29036 L -50.6652,6.15923 L -50.6331,6.02412 L -50.6016,5.88513 L -50.5709,5.74231 L -50.5408,5.59575
 L -50.5115,5.44556 L -50.483,5.29182 L -50.4552,5.13461 L -50.4281,4.97406 L -50.4019,4.81023 L -50.3765,4.64322
 L -50.3519,4.47316 L -50.3282,4.30013 L -50.3053,4.12422 L -50.2961,4.04999 L -45,4.04999 L -44.9669,4.04863
 L -44.9337,4.04457 L -44.9007,4.0378 L -44.8677,4.02832 L -44.8347,4.01614 L -44.8179,4.00854 L -44.7833,4.41077
 L -44.6616,5.50847 L -44.5129,6.60286 L -44.3375,7.69328 L -44.1353,8.77905 L -43.9066,9.85954 L -43.6514,10.9341
 L -43.3699,12.0021 L -43.0623,13.0628 L -42.7288,14.1157 L -42.3695,15.16 L -41.9847,16.1953 L -41.5746,17.2207
 L -41.1734,18.1565 L -41.1748,18.1564 L -41.2131,18.1552 L -41.2502,18.1563 L -41.2861,18.1599 L -41.3207,18.1658
 L -41.354,18.1741 L -41.386,18.1848 L -41.4167,18.1978 L -41.4461,18.2132 L -46.0327,20.8613 L -46.0778,20.8015
 L -46.1855,20.6606 L -46.2926,20.5227 L -46.3989,20.3877 L -46.5044,20.2558 L -46.6091,20.127 L -46.7128,20.0014
 L -46.8154,19.8792 L -46.9171,19.7603 L -47.0175,19.6449 L -47.1168,19.533 L -47.2148,19.4247 L -47.3116,19.3201
 L -47.4069,19.2191 L -47.5009,19.1219 L -47.5933,19.0286 L -47.6843,18.9391 L -47.7736,18.8537 L -47.8613,18.7721
 L -47.9473,18.6947 L -48.0315,18.6213 L -48.1139,18.552 L -48.1945,18.487 L -48.2732,18.4261 L -48.3499,18.3695
 L -48.4247,18.3172 L -48.4974,18.2692 L -48.568,18.2256 L -48.6365,18.1863 L -48.7028,18.1514 L -48.767,18.121
 L -48.8289,18.0949 L -48.8885,18.0733 L -48.9457,18.0562 L -49.0007,18.0436 L -49.0532,18.0354 L -49.1034,18.0318
 L -49.151,18.0326 L -49.1963,18.0379 L -49.239,18.0477 L -49.2792,18.062 L -49.3168,18.0808 L -49.3519,18.104
 L -49.3843,18.1316 L -49.4142,18.1637 L -49.4414,18.2002 L -49.4659,18.2411 L -49.4878,18.2864 L -49.507,18.336
 L -49.5236,18.3898 L -49.5374,18.448 L -49.5485,18.5104 L -49.5569,18.577 L -49.5626,18.6478 L -49.5656,18.7227
 L -49.5658,18.8017 L -49.5633,18.8846 L -49.5581,18.9716 L -49.5502,19.0625 L -49.5395,19.1572 L -49.5262,19.2558
 L -49.5101,19.3581 L -49.4913,19.4641 L -49.4699,19.5738 L -49.4458,19.687 L -49.4191,19.8037 L -49.3897,19.9238
 L -49.3577,20.0472 L -49.3231,20.174 L -49.2859,20.3039 L -49.2462,20.437 L -49.2039,20.5731 L -49.1591,20.7121
 L -49.1118,20.8541 L -49.0621,20.9988 L -49.01,21.1462 L -48.9555,21.2963 L -48.8986,21.4488 L -48.8394,21.6038
 L -48.7779,21.7612 L -48.7141,21.9207 L -48.6482,22.0825 L -48.58,22.2462 L -48.5098,22.412 L -48.4375,22.5795
 L -48.3631,22.7489 L -48.2867,22.9198 L -48.2083,23.0923 L -48.1281,23.2663 L -48.046,23.4416 L -47.962,23.6181
 L -47.8763,23.7958 L -47.789,23.9745 L -47.6999,24.1541 L -47.6093,24.3344 L -47.5171,24.5155 L -47.4234,24.6972
 L -47.3283,24.8793 L -47.2318,25.0618 L -47.1339,25.2446 L -47.0349,25.4275 L -46.9346,25.6104 L -46.8332,25.7933
 L -46.7307,25.9759 L -46.6272,26.1583 L -46.5227,26.3403 L -46.4173,26.5217 L -46.3111,26.7026 L -46.2042,26.8827
 L -46.0965,27.0619 L -45.9883,27.2402 L -45.8794,27.4175 L -45.77,27.5936 L -45.6602,27.7684 L -45.5501,27.9418
 L -45.4396,28.1138 L -45.3289,28.2842 L -45.218,28.4529 L -45.107,28.6198 L -44.9959,28.7848 L -44.8849,28.9478
 L -44.774,29.1088 L -44.6633,29.2675 L -44.5527,29.424 L -44.4425,29.5781 L -44.3326,29.7298 L -44.2232,29.8789
 L -44.1142,30.0253 L -44.0058,30.169 L -43.8981,30.3099 L -43.791,30.4479 L -43.6847,30.5829 L -43.5792,30.7148
 L -43.4745,30.8436 L -43.3708,30.9691 L -43.2682,31.0914 L -43.1665,31.2102 L -43.0661,31.3256 L -42.9668,31.4375
 L -42.8687,31.5459 L -42.772,31.6505 L -42.6767,31.7514 L -42.5827,31.8486 L -42.4903,31.942 L -42.3993,32.0314
 L -42.31,32.1169 L -42.2223,32.1984 L -42.1364,32.2759 L -42.0521,32.3493 L -41.9697,32.4185 L -41.8891,32.4836
 L -41.8104,32.5444 L -41.7337,32.601 L -41.659,32.6534 L -41.5862,32.7014 L -41.5156,32.745 L -41.4471,32.7843
 L -41.3808,32.8191 L -41.3166,32.8496 L -41.2547,32.8756 L -41.1951,32.8972 L -41.1379,32.9143 L -41.0829,32.927
 L -41.0304,32.9351 L -40.9802,32.9388 L -40.9325,32.9379 L -40.8873,32.9326 L -40.8446,32.9228 L -40.8044,32.9085
 L -40.7668,32.8898 L -40.7318,32.8666 L -40.6993,32.8389 L -40.6694,32.8068 L -40.6422,32.7703 L -40.6177,32.7294
 L -40.5958,32.6842 L -40.5766,32.6346 L -40.56,32.5807 L -40.5462,32.5225 L -40.5351,32.4601 L -40.5267,32.3935
 L -40.521,32.3228 L -40.518,32.2479 L -40.5178,32.1689 L -40.5203,32.0859 L -40.5255,31.9989 L -40.5334,31.9081
 L -40.5441,31.8133 L -40.5574,31.7147 L -40.5735,31.6124 L -40.5922,31.5064 L -40.6137,31.3968 L -40.6378,31.2836
 L -40.6645,31.1669 L -40.6939,31.0468 L -40.7259,30.9233 L -40.7605,30.7966 L -40.7977,30.6666 L -40.8375,30.5336
 L -40.8797,30.3975 L -40.9245,30.2584 L -40.9718,30.1165 L -41.0215,29.9718 L -41.0736,29.8243 L -41.1281,29.6743
 L -41.185,29.5217 L -41.2442,29.3667 L -41.3057,29.2094 L -41.3695,29.0498 L -41.4354,28.8881 L -41.5035,28.7243
 L -41.5327,28.6555 L -36.9461,26.0074 L -36.9181,25.9896 L -36.8915,25.9696 L -36.8662,25.9472 L -36.8424,25.9225
 L -36.8199,25.8954 L -36.8109,25.8828 L -36.7913,25.9114 L -36.1443,26.8065 L -35.4756,27.6854 L -34.7855,28.5477
 L -34.0744,29.3928 L -33.3428,30.2201 L -32.5911,31.0293 L -31.8198,31.8198 L -31.0293,32.5911 L -30.2201,33.3428
 L -29.3928,34.0744 L -28.5477,34.7855 L -27.6854,35.4756 L -26.8065,36.1443 L -26.5773,36.3099 L -26.5802,36.3113
 L -26.614,36.3294 L -26.6456,36.3489 L -26.6749,36.3699 L -26.7019,36.3924 L -26.7266,36.4162 L -26.749,36.4415
 L -26.7691,36.4681 L -26.7868,36.4961 L -29.4349,41.0827 L -29.5037,41.0535 L -29.6675,40.9854 L -29.8292,40.9195
 L -29.9888,40.8557 L -30.1461,40.7942 L -30.3011,40.735 L -30.4537,40.6781 L -30.6037,40.6236 L -30.7512,40.5715
 L -30.8959,40.5218 L -31.0378,40.4745 L -31.1769,40.4297 L -31.313,40.3875 L -31.4461,40.3477 L -31.576,40.3105
 L -31.7027,40.2759 L -31.8262,40.2439 L -31.9463,40.2145 L -32.063,40.1878 L -32.1762,40.1637 L -32.2858,40.1422
 L -32.3918,40.1235 L -32.4942,40.1074 L -32.5927,40.0941 L -32.6875,40.0834 L -32.7784,40.0755 L -32.8653,40.0703
 L -32.9483,40.0678 L -33.0273,40.068 L -33.1022,40.071 L -33.1729,40.0767 L -33.2396,40.0851 L -33.302,40.0962
 L -33.3601,40.11 L -33.414,40.1266 L -33.4636,40.1458 L -33.5089,40.1677 L -33.5497,40.1922 L -33.5862,40.2194
 L -33.6183,40.2493 L -33.646,40.2817 L -33.6692,40.3168 L -33.688,40.3544 L -33.7023,40.3946 L -33.7121,40.4373
 L -33.7174,40.4825 L -33.7182,40.5302 L -33.7145,40.5804 L -33.7064,40.6329 L -33.6937,40.6879 L -33.6766,40.7451
 L -33.655,40.8047 L -33.629,40.8666 L -33.5986,40.9308 L -33.5637,40.9971 L -33.5244,41.0656 L -33.4808,41.1362
 L -33.4328,41.2089 L -33.3804,41.2837 L -33.3239,41.3604 L -33.263,41.4391 L -33.1979,41.5197 L -33.1287,41.6021
 L -33.0553,41.6864 L -32.9779,41.7723 L -32.8963,41.86 L -32.8108,41.9493 L -32.7214,42.0403 L -32.628,42.1327
 L -32.5309,42.2267 L -32.4299,42.322 L -32.3253,42.4187 L -32.2169,42.5168 L -32.1051,42.6161 L -31.9896,42.7166
 L -31.8708,42.8182 L -31.7485,42.9208 L -31.623,43.0245 L -31.4942,43.1292 L -31.3623,43.2346 L -31.2273,43.341
 L -31.0893,43.4481 L -30.9484,43.5558 L -30.8047,43.6642 L -30.6583,43.7732 L -30.5092,43.8826 L -30.3576,43.9925
 L -30.2034,44.1027 L -30.047,44.2133 L -29.8882,44.324 L -29.7273,44.4349 L -29.5642,44.5459 L -29.3992,44.657
 L -29.2323,44.768 L -29.0636,44.8789 L -28.8932,44.9896 L -28.7213,45.1001 L -28.5478,45.2103 L -28.373,45.32
 L -28.1969,45.4294 L -28.0197,45.5383 L -27.8413,45.6465 L -27.6621,45.7542 L -27.482,45.8612 L -27.3011,45.9673
 L -27.1197,46.0727 L -26.9377,46.1772 L -26.7553,46.2807 L -26.5727,46.3832 L -26.3898,46.4846 L -26.2069,46.5849
 L -26.024,46.6839 L -25.8412,46.7818 L -25.6587,46.8783 L -25.4766,46.9734 L -25.2949,47.0671 L -25.1139,47.1593
 L -24.9335,47.2499 L -24.7539,47.3389 L -24.5752,47.4263 L -24.3976,47.512 L -24.221,47.5959 L -24.0457,47.6781
 L -23.8718,47.7583 L -23.6993,47.8367 L -23.5283,47.9131 L -23.359,47.9874 L -23.1914,48.0598 L -23.0257,48.1301
 L -22.8619,48.1982 L -22.7001,48.2641 L -22.5406,48.3279 L -22.3833,48.3894 L -22.2283,48.4486 L -22.0757,48.5055
 L -21.9256,48.56 L -21.7782,48.6121 L -21.6335,48.6618 L -21.4916,48.7091 L -21.3525,48.7539 L -21.2164,48.7961
 L -21.0833,48.8359 L -20.9534,48.8731 L -20.8267,48.9077 L -20.7032,48.9397 L -20.5831,48.9691 L -20.4664,48.9958
 L -20.3532,49.0199 L -20.2436,49.0414 L -20.1375,49.0601 L -20.0352,49.0762 L -19.9367,49.0895 L -19.8419,49.1002
 L -19.751,49.1081 L -19.664,49.1133 L -19.5811,49.1158 L -19.5021,49.1156 L -19.4272,49.1126 L -19.3564,49.1069
 L -19.2898,49.0985 L -19.2274,49.0874 L -19.1693,49.0736 L -19.1154,49.057 L -19.0658,49.0378 L -19.0205,49.0159
 L -18.9796,48.9914 L -18.9431,48.9642 L -18.9111,48.9343 L -18.8834,48.9019 L -18.8602,48.8668 L -18.8414,48.8292
 L -18.8272,48.789 L -18.8174,48.7463 L -18.812,48.701 L -18.8112,48.6534 L -18.8149,48.6032 L -18.823,48.5507
 L -18.8357,48.4957 L -18.8528,48.4385 L -18.8743,48.3789 L -18.9004,48.317 L -18.9308,48.2528 L -18.9657,48.1865
 L -19.005,48.118 L -19.0486,48.0474 L -19.0966,47.9747 L -19.1489,47.8999 L -19.2056,47.8232 L -19.2664,47.7445
 L -19.3315,47.6639 L -19.4007,47.5815 L -19.4741,47.4973 L -19.5516,47.4113 L -19.6331,47.3236 L -19.7186,47.2343
 L -19.808,47.1433 L -19.9014,47.0509 L -19.9985,46.9569 L -20.0995,46.8616 L -20.2041,46.7648 L -20.3124,46.6668
 L -20.4243,46.5675 L -20.5398,46.467 L -20.6586,46.3654 L -20.7809,46.2628 L -20.9064,46.1591 L -21.0352,46.0544
 L -21.1671,45.9489 L -21.3021,45.8426 L -21.4401,45.7355 L -21.581,45.6278 L -21.6407,45.5827 L -18.9926,40.9961
 L -18.9772,40.9668 L -18.9642,40.9361 L -18.9535,40.904 L -18.9452,40.8707 L -18.9393,40.8361 L -18.9375,40.8181
 L -18.2359,41.1394 L -17.2207,41.5746 L -16.1953,41.9847 L -15.16,42.3695 L -14.1157,42.7288 L -13.0628,43.0623
 L -12.0021,43.3699 L -10.9341,43.6514 L -9.85954,43.9066 L -8.77905,44.1353 L -7.69328,44.3375 L -6.60286,44.5129
 L -5.50847,44.6616 L -4.86122,44.7334 L -4.86353,44.7366 L -4.88374,44.7692 L -4.90129,44.8019 L -4.91615,44.8347
 L -4.92833,44.8677 L -4.93781,44.9007 L -4.94456,44.9337 L -4.94864,44.9669 L -4.95,45 L -4.95,50.2962
 L -5.02422,50.3053 L -5.20012,50.3282 L -5.37315,50.3519 L -5.54323,50.3765 L -5.71022,50.4019 L -5.87405,50.4281
 L -6.03462,50.4552 L -6.19182,50.483 L -6.34557,50.5115 L -6.49576,50.5408 L -6.6423,50.5709 L -6.78513,50.6016
 L -6.92413,50.6331 L -7.05923,50.6652 L -7.19035,50.698 L -7.31741,50.7314 L -7.44034,50.7654 L -7.55905,50.8
 L -7.67349,50.8351 L -7.78357,50.8709 L -7.88924,50.9071 L -7.99042,50.9439 L -8.08707,50.9812 L -8.17911,51.0189
 L -8.26648,51.057 L -8.34917,51.0956 L -8.42708,51.1346 L -8.5002,51.1739 L -8.56845,51.2136 L -8.63184,51.2536
 L -8.69028,51.2939 L -8.74376,51.3345 L -8.79225,51.3753 L -8.83571,51.4164 L -8.87411,51.4576 L -8.90746,51.4991
 L -8.9357,51.5407 L -8.95882,51.5824 L -8.97682,51.6242 L -8.9897,51.6661 L -8.99742,51.708 L -9,51.75
 L -8.99742,51.792 L -8.9897,51.8339 L -8.97682,51.8758 L -8.95882,51.9176 L -8.9357,51.9593 L -8.90746,52.0009
 L -8.87411,52.0423 L -8.83571,52.0836 L -8.79225,52.1246 L -8.74376,52.1655 L -8.69028,52.2061 L -8.63184,52.2464
 L -8.56845,52.2864 L -8.5002,52.3261 L -8.42708,52.3654 L -8.34917,52.4044 L -8.26648,52.443 L -8.17911,52.4811
 L -8.08707,52.5188 L -7.99042,52.5561 L -7.88924,52.5928 L -7.78357,52.6291 L -7.67349,52.6648 L -7.55905,52.7
 L -7.44034,52.7346 L -7.31741,52.7686 L -7.19035,52.802 L -7.05923,52.8348 L -6.92413,52.8669 L -6.78513,52.8984
 L -6.6423,52.9291 L -6.49576,52.9592 L -6.34557,52.9884 L -6.19182,53.017 L -6.03462,53.0448 L -5.87405,53.0718
 L -5.71022,53.0981 L -5.54323,53.1235 L -5.37315,53.1481 L -5.20012,53.1718 L -5.02422,53.1947 L -4.84557,53.2167
 L -4.66428,53.2378 L -4.48044,53.2581 L -4.29417,53.2774 L -4.10559,53.2958 L -3.91481,53.3133 L -3.72194,53.3298
 L -3.5271,53.3454 L -3.3304,53.36 L -3.13197,53.3737 L -2.93193,53.3864 L -2.73039,53.3981 L -2.52747,53.4088
 L -2.3233,53.4184 L -2.11801,53.4271 L -1.91171,53.4348 L -1.70454,53.4415 L -1.4966,53.4471 L -1.28804,53.4518
 L -1.07896,53.4554 L -0.869522,53.4579 L -0.659821,53.4595 L -0.449997,53.46 z
M 3.44414,-8.31491 L 3.23904,-8.39693 L 3.032,-8.47389 L 2.82314,-8.54575 L 2.61255,-8.61246 L 2.40041,-8.67398
 L 2.18681,-8.73027 L 1.97191,-8.78131 L 1.7558,-8.82706 L 1.53865,-8.86749 L 1.32057,-8.90259 L 1.125,-8.92915
 L 1.125,-40.483 L 1.98723,-40.4512 L 2.97935,-40.3903 L 3.96968,-40.305 L 4.95763,-40.1954 L 5.94258,-40.0616
 L 6.92395,-39.9037 L 7.90115,-39.7218 L 8.8736,-39.5159 L 9.84068,-39.2863 L 10.8019,-39.0329 L 11.7565,-38.7561
 L 12.7041,-38.4559 L 13.644,-38.1325 L 14.5757,-37.7862 L 15.4987,-37.4171 L 16.4123,-37.0255 L 17.316,-36.6116
 L 18.2092,-36.1756 L 19.0916,-35.7178 L 19.2669,-35.6213 L 3.49019,-8.29517 z
M -19.2669,-35.6213 L -19.0916,-35.7178 L -18.2092,-36.1756 L -17.316,-36.6116 L -16.4123,-37.0255 L -15.4987,-37.4171
 L -14.5757,-37.7862 L -13.644,-38.1325 L -12.7041,-38.4559 L -11.7565,-38.7561 L -10.8019,-39.0329 L -9.84068,-39.2863
 L -8.8736,-39.5159 L -7.90115,-39.7218 L -6.92395,-39.9037 L -5.94258,-40.0616 L -4.95763,-40.1954 L -3.96968,-40.305
 L -2.97935,-40.3903 L -1.98723,-40.4512 L -1.125,-40.483 L -1.125,-8.92915 L -1.32057,-8.90259 L -1.53865,-8.86749
 L -1.7558,-8.82706 L -1.97191,-8.78131 L -2.18681,-8.73027 L -2.40041,-8.67398 L -2.61255,-8.61246 L -2.82314,-8.54575
 L -3.032,-8.47389 L -3.23904,-8.39693 L -3.44414,-8.31491 L -3.49019,-8.29517 z
M 7.09511,-5.53708 L 6.95709,-5.70953 L 6.81487,-5.87856 L 6.66855,-6.04402 L 6.51822,-6.20586 L 6.36395,-6.36395
 L 6.20586,-6.51822 L 6.04402,-6.66855 L 5.87856,-6.81487 L 5.70953,-6.95709 L 5.53708,-7.09511 L 5.43864,-7.17001
 L 21.2149,-34.4954 L 21.6674,-34.2166 L 22.5006,-33.6745 L 23.3202,-33.1122 L 24.1258,-32.5299 L 24.9169,-31.928
 L 25.6929,-31.3069 L 26.4535,-30.6669 L 27.1981,-30.0085 L 27.9264,-29.332 L 28.6378,-28.6378 L 29.332,-27.9264
 L 30.0085,-27.1981 L 30.6669,-26.4535 L 31.3069,-25.6929 L 31.928,-24.9169 L 32.5299,-24.1258 L 33.1122,-23.3202
 L 33.6745,-22.5006 L 34.2166,-21.6674 L 34.4954,-21.2149 L 7.17001,-5.43864 z
M -34.4954,-21.2149 L -34.2166,-21.6674 L -33.6745,-22.5006 L -33.1122,-23.3202 L -32.5299,-24.1258 L -31.928,-24.9169
 L -31.3069,-25.6929 L -30.6669,-26.4535 L -30.0085,-27.1981 L -29.332,-27.9264 L -28.6378,-28.6378 L -27.9264,-29.332
 L -27.1981,-30.0085 L -26.4535,-30.6669 L -25.6929,-31.3069 L -24.9169,-31.928 L -24.1258,-32.5299 L -23.3202,-33.1122
 L -22.5006,-33.6745 L -21.6674,-34.2166 L -21.2149,-34.4954 L -5.43864,-7.17001 L -5.53708,-7.09511 L -5.70953,-6.95709
 L -5.87856,-6.81487 L -6.04402,-6.66855 L -6.20586,-6.51822 L -6.36395,-6.36395 L -6.51822,-6.20586 L -6.66855,-6.04402
 L -6.81487,-5.87856 L -6.95709,-5.70953 L -7.09511,-5.53708 L -7.17001,-5.43864 z
M 8.92915,-1.125 L 8.90259,-1.32057 L 8.86749,-1.53865 L 8.82706,-1.7558 L 8.78131,-1.97191 L 8.73027,-2.18681
 L 8.67398,-2.40041 L 8.61246,-2.61255 L 8.54575,-2.82314 L 8.47389,-3.032 L 8.39693,-3.23904 L 8.31491,-3.44414
 L 8.29517,-3.49019 L 35.6213,-19.2669 L 35.7178,-19.0916 L 36.1756,-18.2092 L 36.6116,-17.316 L 37.0255,-16.4123
 L 37.4171,-15.4987 L 37.7862,-14.5757 L 38.1325,-13.644 L 38.4559,-12.7041 L 38.7561,-11.7565 L 39.0329,-10.8019
 L 39.2863,-9.84068 L 39.5159,-8.8736 L 39.7218,-7.90115 L 39.9037,-6.92395 L 40.0616,-5.94258 L 40.1954,-4.95763
 L 40.305,-3.96968 L 40.3903,-2.97935 L 40.4512,-1.98723 L 40.483,-1.125 z
M -40.483,-1.125 L -40.4512,-1.98723 L -40.3903,-2.97935 L -40.305,-3.96968 L -40.1954,-4.95763 L -40.0616,-5.94258
 L -39.9037,-6.92395 L -39.7218,-7.90115 L -39.5159,-8.8736 L -39.2863,-9.84068 L -39.0329,-10.8019 L -38.7561,-11.7565
 L -38.4559,-12.7041 L -38.1325,-13.644 L -37.7862,-14.5757 L -37.4171,-15.4987 L -37.0255,-16.4123 L -36.6116,-17.316
 L -36.1756,-18.2092 L -35.7178,-19.0916 L -35.6213,-19.2669 L -8.29517,-3.49019 L -8.31491,-3.44414 L -8.39693,-3.23904
 L -8.47389,-3.032 L -8.54575,-2.82314 L -8.61246,-2.61255 L -8.67398,-2.40041 L -8.73027,-2.18681 L -8.78131,-1.97191
 L -8.82706,-1.7558 L -8.86749,-1.53865 L -8.90259,-1.32057 L -8.92915,-1.125 z
M -35.7178,19.0916 L -36.1756,18.2092 L -36.6116,17.316 L -37.0255,16.4123 L -37.4171,15.4987 L -37.7862,14.5757
 L -38.1325,13.644 L -38.4559,12.7041 L -38.7561,11.7565 L -39.0329,10.8019 L -39.2863,9.84068 L -39.5159,8.8736
 L -39.7218,7.90115 L -39.9037,6.92395 L -40.0616,5.94258 L -40.1954,4.95763 L -40.305,3.96968 L -40.3903,2.97935
 L -40.4512,1.98723 L -40.483,1.125 L -8.92915,1.125 L -8.90259,1.32057 L -8.86749,1.53865 L -8.82706,1.7558
 L -8.78131,1.97191 L -8.73027,2.18681 L -8.67398,2.40041 L -8.61246,2.61255 L -8.54575,2.82314 L -8.47389,3.032
 L -8.39693,3.23904 L -8.31491,3.44414 L -8.29517,3.49019 L -35.6213,19.2669 z
M 8.29517,3.49019 L 8.31491,3.44414 L 8.39693,3.23904 L 8.47389,3.032 L 8.54575,2.82314 L 8.61246,2.61255
 L 8.67398,2.40041 L 8.73027,2.18681 L 8.78131,1.97191 L 8.82706,1.7558 L 8.86749,1.53865 L 8.90259,1.32057
 L 8.92915,1.125 L 40.483,1.125 L 40.4512,1.98723 L 40.3903,2.97935 L 40.305,3.96968 L 40.1954,4.95763
 L 40.0616,5.94258 L 39.9037,6.92395 L 39.7218,7.90115 L 39.5159,8.8736 L 39.2863,9.84068 L 39.0329,10.8019
 L 38.7561,11.7565 L 38.4559,12.7041 L 38.1325,13.644 L 37.7862,14.5757 L 37.4171,15.4987 L 37.0255,16.4123
 L 36.6116,17.316 L 36.1756,18.2092 L 35.7178,19.0916 L 35.6213,19.2669 z
M 5.43864,7.17001 L 5.53708,7.09511 L 5.70953,6.95709 L 5.87856,6.81487 L 6.04402,6.66855 L 6.20586,6.51822
 L 6.36395,6.36395 L 6.51822,6.20586 L 6.66855,6.04402 L 6.81487,5.87856 L 6.95709,5.70953 L 7.09511,5.53708
 L 7.17001,5.43864 L 34.4954,21.2149 L 34.2166,21.6674 L 33.6745,22.5006 L 33.1122,23.3202 L 32.5299,24.1258
 L 31.928,24.9169 L 31.3069,25.6929 L 30.6669,26.4535 L 30.0085,27.1981 L 29.332,27.9264 L 28.6378,28.6378
 L 27.9264,29.332 L 27.1981,30.0085 L 26.4535,30.6669 L 25.6929,31.3069 L 24.9169,31.928 L 24.1258,32.5299
 L 23.3202,33.1122 L 22.5006,33.6745 L 21.6674,34.2166 L 21.2149,34.4954 z
M -21.6674,34.2166 L -22.5006,33.6745 L -23.3202,33.1122 L -24.1258,32.5299 L -24.9169,31.928 L -25.6929,31.3069
 L -26.4535,30.6669 L -27.1981,30.0085 L -27.9264,29.332 L -28.6378,28.6378 L -29.332,27.9264 L -30.0085,27.1981
 L -30.6669,26.4535 L -31.3069,25.6929 L -31.928,24.9169 L -32.5299,24.1258 L -33.1122,23.3202 L -33.6745,22.5006
 L -34.2166,21.6674 L -34.4954,21.2149 L -7.17001,5.43864 L -7.09511,5.53708 L -6.95709,5.70953 L -6.81487,5.87856
 L -6.66855,6.04402 L -6.51822,6.20586 L -6.36395,6.36395 L -6.20586,6.51822 L -6.04402,6.66855 L -5.87856,6.81487
 L -5.70953,6.95709 L -5.53708,7.09511 L -5.43864,7.17001 L -21.2149,34.4954 z
M 1.125,8.92915 L 1.32057,8.90259 L 1.53865,8.86749 L 1.7558,8.82706 L 1.97191,8.78131 L 2.18681,8.73027
 L 2.40041,8.67398 L 2.61255,8.61246 L 2.82314,8.54575 L 3.032,8.47389 L 3.23904,8.39693 L 3.44414,8.31491
 L 3.49019,8.29517 L 19.2669,35.6213 L 19.0916,35.7178 L 18.2092,36.1756 L 17.316,36.6116 L 16.4123,37.0255
 L 15.4987,37.4171 L 14.5757,37.7862 L 13.644,38.1325 L 12.7041,38.4559 L 11.7565,38.7561 L 10.8019,39.0329
 L 9.84068,39.2863 L 8.8736,39.5159 L 7.90115,39.7218 L 6.92395,39.9037 L 5.94258,40.0616 L 4.95763,40.1954
 L 3.96968,40.305 L 2.97935,40.3903 L 1.98723,40.4512 L 1.125,40.483 z
M -1.98723,40.4512 L -2.97935,40.3903 L -3.96968,40.305 L -4.95763,40.1954 L -5.94258,40.0616 L -6.92395,39.9037
 L -7.90115,39.7218 L -8.8736,39.5159 L -9.84068,39.2863 L -10.8019,39.0329 L -11.7565,38.7561 L -12.7041,38.4559
 L -13.644,38.1325 L -14.5757,37.7862 L -15.4987,37.4171 L -16.4123,37.0255 L -17.316,36.6116 L -18.2092,36.1756
 L -19.0916,35.7178 L -19.2669,35.6213 L -3.49019,8.29517 L -3.44414,8.31491 L -3.23904,8.39693 L -3.032,8.47389
 L -2.82314,8.54575 L -2.61255,8.61246 L -2.40041,8.67398 L -2.18681,8.73027 L -1.97191,8.78131 L -1.7558,8.82706
 L -1.53865,8.86749 L -1.32057,8.90259 L -1.125,8.92915 L -1.125,40.483 z
" stroke="black" fill="lightgray" stroke-width="0.5"/>
</svg>
