<?xml version="1.0" encoding="UTF-8" standalone="no"?>
<!-- Created with Inkscape (http://www.inkscape.org/) -->

<svg
   width="200mm"
   height="50mm"
   viewBox="0 0 200 49.999999"
   version="1.1"
   id="svg1"
   xml:space="preserve"
   inkscape:version="1.4.3 (0d15f75, 2025-12-25)"
   sodipodi:docname="läkerol-logo2-enkel.svg"
   inkscape:export-filename="läkerol-logo2-enkel.svg"
   inkscape:export-xdpi="96"
   inkscape:export-ydpi="96"
   xmlns:inkscape="http://www.inkscape.org/namespaces/inkscape"
   xmlns:sodipodi="http://sodipodi.sourceforge.net/DTD/sodipodi-0.dtd"
   xmlns="http://www.w3.org/2000/svg"
   xmlns:svg="http://www.w3.org/2000/svg"><sodipodi:namedview
     id="namedview1"
     pagecolor="#505050"
     bordercolor="#ffffff"
     borderopacity="1"
     inkscape:showpageshadow="0"
     inkscape:pageopacity="0"
     inkscape:pagecheckerboard="1"
     inkscape:deskcolor="#505050"
     inkscape:document-units="mm"
     inkscape:zoom="0.15220654"
     inkscape:cx="59.130178"
     inkscape:cy="571.59172"
     inkscape:current-layer="layer1"><inkscape:page
       x="0"
       y="0"
       width="200"
       height="50"
       id="page2"
       margin="0"
       bleed="0" /></sodipodi:namedview><defs
     id="defs1" /><g
     inkscape:label="Layer 1"
     inkscape:groupmode="layer"
     id="layer1"><path
       style="fill:#000000;stroke-width:1.01901"
       d="m 5.0786018,48.152723 -0.06304,-0.760171 0.889933,-0.877661 c 0.626972,-0.618325 1.032813,-1.170219 1.373484,-1.867772 0.99975,-2.047066 0.941856,-1.171911 0.987462,-14.927264 0.044402,-13.391842 0.028526,-13.751573 -0.674841,-15.287932 -0.411962,-0.899835 -1.232509,-1.806866 -2.005628,-2.217006 l -0.58597,-0.310858 0.07247,-0.737793 c 0.03986,-0.40579 0.08228,-0.750877 0.09425,-0.766845 0.02338,-0.03118 9.5504312,-1.7039965 12.3025472,-2.1601557 0.913784,-0.1514552 1.817246,-0.3068541 2.007692,-0.3453318 0.332628,-0.067153 0.349193,-0.041576 0.420597,0.6502396 l 0.07433,0.7202047 -0.924111,0.9444682 c -0.649757,0.664077 -1.059467,1.231482 -1.380026,1.911191 -0.976136,2.06978 -0.918292,1.174733 -0.968699,14.989158 -0.03242,8.886867 -0.0027,12.624366 0.104635,13.118555 0.111884,0.515526 0.26673,0.793584 0.60959,1.094619 0.585224,0.513835 0.901803,0.588406 2.158029,0.508373 2.086635,-0.132949 4.74286,-1.408901 9.704096,-4.661496 l 2.435684,-1.596837 0.65667,0.65667 0.656671,0.656669 -1.21283,3.983743 c -0.667057,2.191062 -1.251164,4.025523 -1.298015,4.076575 -0.04685,0.05105 -1.909429,0.337699 -4.139063,0.636992 -5.893031,0.791036 -7.903402,1.096321 -14.487646,2.200019 -3.2530742,0.545313 -6.1015522,1.022596 -6.3299532,1.060646 l -0.415273,0.06919 z M 187.66585,47.213187 c -3.50893,-0.477803 -6.40606,-0.8915 -6.43806,-0.91933 -0.032,-0.02782 -0.0837,-0.403496 -0.1149,-0.834823 l -0.0568,-0.784218 0.52624,-0.268468 c 1.07905,-0.550489 1.7277,-1.615475 2.09755,-3.443832 0.18128,-0.896217 0.20289,-2.60213 0.16957,-13.388102 l -0.0382,-12.361024 -0.36409,-1.073729 c -0.4375,-1.290228 -1.18557,-2.486921 -2.09955,-3.358672 l -0.67435,-0.643188 0.0405,-0.7850547 0.0405,-0.7850545 5.51594,-1.1562691 c 3.03376,-0.6359531 5.61854,-1.1593058 5.74396,-1.1630048 0.21415,-0.00612 0.23048,1.0801389 0.26814,17.8370021 l 0.0402,17.843728 0.29384,1.03999 c 0.38918,1.377405 0.86139,2.213501 1.6959,3.002754 L 195,46.622447 l -0.0616,0.743601 c -0.061,0.734807 -0.0666,0.743438 -0.47718,0.729743 -0.22853,-0.0071 -3.28647,-0.404801 -6.7954,-0.882604 z m -24.72204,-2.297508 c -1.53995,-0.173262 -2.88287,-0.490408 -4.31971,-1.02014 -7.12265,-2.625975 -10.86036,-9.060617 -9.95892,-17.14478 0.43414,-3.893377 1.87904,-7.067253 4.37653,-9.613469 2.23005,-2.273562 4.64268,-3.582051 7.86721,-4.266773 1.80441,-0.383168 5.04499,-0.415786 6.80306,-0.06848 3.49939,0.691315 6.14406,2.03661 8.49011,4.318772 2.4705,2.403219 4.0337,5.537925 4.49672,9.017248 0.1998,1.501428 0.082,5.091303 -0.21062,6.42062 -1.63776,7.438927 -7.24288,12.11317 -14.88609,12.41388 -0.87723,0.03454 -2.07346,0.0092 -2.65829,-0.05686 z m 4.38618,-3.701091 c 1.12576,-0.524799 1.96586,-1.431431 2.66325,-2.874114 1.16461,-2.409313 1.58308,-5.143334 1.48506,-9.702745 -0.0692,-3.225509 -0.24327,-4.605012 -0.84635,-6.712159 -0.98312,-3.434956 -2.88384,-5.507732 -5.48259,-5.9789 -2.08484,-0.378001 -3.91559,0.422001 -5.1067,2.231536 -1.58074,2.401488 -2.16644,5.503809 -2.04747,10.845137 0.0946,4.24843 0.61542,6.824239 1.84885,9.144175 0.5637,1.060248 1.76037,2.3426 2.62553,2.813473 1.50632,0.819843 3.40689,0.911188 4.86042,0.233597 z M 41.335441,44.11112 c -4.264265,-0.583137 -6.959909,-3.48185 -6.676256,-7.179201 0.139553,-1.819042 1.025314,-3.522559 2.5129,-4.832851 1.659015,-1.461289 3.20887,-2.377032 13.126977,-7.756103 l 2.458912,-1.333588 0.03855,-1.150165 c 0.110451,-3.29528 -1.007012,-5.72584 -3.056834,-6.648806 -1.091949,-0.491673 -3.149522,-0.616807 -4.493029,-0.273258 -0.826577,0.211362 -2.656623,0.976811 -2.656623,1.111168 0,0.03546 0.291928,0.351904 0.648727,0.703116 1.216935,1.197885 1.68511,2.76136 1.297372,4.33259 -0.909438,3.685285 -5.339968,4.81344 -7.866706,2.003096 -0.851733,-0.947332 -1.163024,-1.88375 -1.093068,-3.288189 0.109325,-2.19477 1.349692,-3.978413 3.918979,-5.635453 3.812362,-2.458797 9.785559,-3.358266 14.116906,-2.125816 3.096226,0.881015 5.190634,2.55919 6.451604,5.169452 1.097939,2.272776 1.06069,1.894867 1.080835,10.965419 0.01901,8.557522 0.04771,8.9975 0.67402,10.33125 0.359062,0.764644 1.063608,1.429577 1.636041,1.544063 0.346463,0.06929 0.374991,0.128049 0.463526,0.954791 0.05189,0.484528 0.07311,0.902189 0.04717,0.928134 -0.02595,0.02598 -0.674182,0.182839 -1.440526,0.348663 -2.00789,0.434464 -5.174804,0.439091 -6.255268,0.0092 -1.338694,-0.532707 -2.152484,-1.427744 -2.71788,-2.989211 l -0.285834,-0.78938 -0.346441,0.591147 c -1.432351,2.444123 -4.284684,4.319893 -7.40711,4.871095 -1.180612,0.208418 -3.181978,0.274969 -4.176946,0.138912 z m 7.588562,-5.701923 c 1.025622,-0.502117 2.461113,-1.849756 3.258734,-3.059309 l 0.482069,-0.731026 0.07391,-3.890943 0.07391,-3.890941 -0.891269,0.493995 c -7.254518,4.020885 -8.86661,5.404679 -9.034797,7.755308 -0.09121,1.274749 0.204239,2.085411 1.030915,2.828666 0.868659,0.781009 1.64464,1.033734 3.012814,0.981264 0.909724,-0.03485 1.230028,-0.11312 1.993713,-0.487004 z m 85.709107,3.644535 c -6.57744,-0.372254 -8.81912,-0.523414 -8.8852,-0.599157 -0.0275,-0.03139 -0.0828,-0.392889 -0.12316,-0.803315 l -0.0733,-0.74622 0.55342,-0.310451 c 0.76391,-0.428524 1.7905,-1.413885 2.09508,-2.010932 0.59555,-1.167356 0.64741,-1.823873 0.64902,-8.214901 8.2e-4,-3.326177 -0.0615,-6.735423 -0.1385,-7.576105 -0.28762,-3.14034 -0.99325,-5.624296 -2.05841,-7.246038 -0.51249,-0.780285 -0.59188,-0.99549 -0.59188,-1.604623 0,-0.386908 0.0448,-0.729896 0.0997,-0.762178 0.1692,-0.09966 9.344,-1.855309 9.40046,-1.798845 0.0293,0.02925 0.26909,1.307887 0.53306,2.841515 0.26398,1.533618 0.52189,2.886016 0.57317,3.005332 0.0735,0.171265 0.55495,-0.201723 2.2863,-1.771628 2.58304,-2.342181 3.57041,-3.08188 4.61432,-3.456926 0.94459,-0.33936 2.4887,-0.361239 3.36052,-0.04759 1.40529,0.50552 2.61544,1.713871 3.13666,3.131975 0.32985,0.89745 0.29701,2.536302 -0.0699,3.488555 -0.409,1.061461 -1.39857,2.108624 -2.50947,2.655516 -0.81101,0.399258 -0.98842,0.435178 -2.14945,0.435178 -1.13123,0 -1.3499,-0.04148 -2.06127,-0.390719 -0.98347,-0.482857 -1.92074,-1.4019 -2.41659,-2.369592 l -0.37629,-0.734359 -1.63329,1.282137 -1.63328,1.282136 0.0461,7.974844 c 0.0496,8.589906 0.0407,8.474503 0.77575,10.00101 0.40876,0.848804 1.43239,1.910132 2.48106,2.572426 l 0.86042,0.543407 -0.0828,0.604272 c -0.0456,0.332339 -0.0828,0.68564 -0.0828,0.785085 0,0.221736 0.28356,0.228625 -6.57925,-0.15979 z M 65.805537,41.383489 c -0.172293,-1.043077 -0.116114,-1.360376 0.277082,-1.564932 0.900853,-0.468663 1.537554,-1.699818 1.761105,-3.405354 0.10259,-0.78269 0.133981,-4.86597 0.10218,-13.291419 C 67.900731,11.153283 67.895464,10.943949 67.614227,9.9408161 67.457051,9.3801882 67.200896,8.6714575 67.044993,8.3658669 66.6911,7.6721768 65.807984,6.7026105 65.15222,6.2878128 64.679221,5.9886115 64.653896,5.9370191 64.655827,5.2763957 c 0.0011,-0.382872 0.04598,-0.7605065 0.09969,-0.8391841 0.05371,-0.078668 2.639634,-0.8646492 5.746506,-1.746591 l 5.648844,-1.6035324 0.03393,12.3573438 c 0.01865,6.796544 0.08152,12.337495 0.139696,12.313273 0.05819,-0.02425 2.452957,-1.653922 5.321742,-3.621485 l 5.215969,-3.577393 -0.646031,-0.565122 C 83.501742,15.619171 84.174012,11.210307 87.486911,9.6600181 88.267757,9.2946219 88.513878,9.244344 89.5073,9.2472992 c 2.060048,0.00612 3.651902,0.9915468 4.550566,2.8169978 0.399462,0.811417 0.435178,0.988051 0.435178,2.152238 0,1.163627 -0.03587,1.341057 -0.43423,2.150323 -0.62184,1.263142 -2.090823,2.593041 -5.185735,4.694756 -1.399425,0.950337 -2.546635,1.775051 -2.549336,1.832697 -0.0071,0.143038 6.652252,11.505138 7.389138,12.60797 0.949522,1.421069 2.599519,2.784686 4.255869,3.5172 0.67258,0.297459 0.72527,0.352292 0.65914,0.686088 -0.0395,0.199522 -0.10867,0.577431 -0.15365,0.839806 l -0.0818,0.476998 -5.194642,0.08784 c -2.857056,0.0483 -6.282993,0.08784 -7.613197,0.08784 h -2.418559 l -0.07837,-0.759213 -0.07837,-0.759221 0.589272,-0.580938 c 0.759141,-0.748411 0.923802,-1.319096 0.666095,-2.308492 -0.154981,-0.595051 -4.484126,-8.808321 -4.83812,-9.178925 -0.05044,-0.05278 -0.797833,0.365886 -1.660882,0.930406 l -1.569172,1.026396 0.06756,2.990577 c 0.06725,2.979265 0.180965,3.839166 0.65347,4.943027 0.246885,0.57678 1.151021,1.593068 1.741587,1.957639 0.40152,0.247853 0.414308,0.284252 0.371225,1.056049 l -0.04463,0.799331 -0.686404,0.06756 c -0.377523,0.03719 -2.660173,0.133531 -5.072574,0.214226 -2.412391,0.0807 -5.04981,0.18225 -5.860936,0.22568 l -1.474772,0.07897 z m 44.437813,0.198137 c -5.68407,-0.332788 -9.98608,-3.048977 -12.36793,-7.808867 -1.90332,-3.803593 -2.46022,-9.1647 -1.39019,-13.382865 1.43045,-5.639021 5.98517,-9.938392 11.68331,-11.0283538 1.08574,-0.2076739 4.00336,-0.2830397 4.96114,-0.1281402 1.86334,0.3013412 3.21979,0.7208467 4.55686,1.409289 4.36407,2.246975 6.84428,6.844008 7.13604,13.226488 l 0.0797,1.744226 -2.97654,0.08244 c -1.63709,0.04534 -4.98021,0.113294 -7.42916,0.151079 -2.44894,0.03781 -5.6702,0.104805 -7.15834,0.148969 l -2.7057,0.08029 0.0949,1.014963 c 0.3841,4.109815 2.34873,6.783194 5.84823,7.957958 0.99186,0.332961 1.21961,0.35703 3.3893,0.35809 2.00045,9.5e-4 2.48034,-0.04076 3.42871,-0.298294 2.03724,-0.55321 3.50109,-1.36965 4.77299,-2.662028 l 0.70133,-0.712624 1.12709,1.023239 1.12707,1.023227 -0.5145,0.751376 c -2.44687,3.573408 -6.27789,6.163015 -10.13603,6.851549 -1.40322,0.250422 -2.47525,0.300618 -4.22826,0.197993 z m 2.17607,-19.07945 3.81428,-0.08794 -0.0828,-1.340863 c -0.32458,-5.253631 -1.64411,-8.068745 -4.09225,-8.730427 -0.85288,-0.230521 -2.44735,-0.09079 -3.22033,0.282234 -2.13244,1.029005 -3.5805,4.253199 -3.9831,8.868667 l -0.0957,1.096311 h 1.92279 c 1.05753,0 3.63921,-0.03954 5.73708,-0.08794 z M 41.127984,9.9719163 C 40.020412,9.6337786 39.125543,8.8807108 38.590696,7.8366652 38.136868,6.9507696 38.156427,5.4932001 38.634553,4.5682969 c 0.719498,-1.391813 1.954413,-2.1110089 3.623204,-2.110102 0.89509,4.891e-4 1.171046,0.056963 1.744278,0.3572338 0.846779,0.4435031 1.691894,1.3862492 1.967335,2.1946287 0.85766,2.5170941 -1.110302,5.1209256 -3.835423,5.0747136 -0.370522,-0.0061 -0.823205,-0.05706 -1.005961,-0.1128547 z M 52.116308,9.3820122 C 50.846238,9.025033 49.699825,7.8675513 49.355835,6.594891 49.03474,5.4069409 49.460108,3.9172114 50.380727,3.0055044 51.279678,2.1152476 51.785096,1.922716 53.223173,1.922716 c 1.348011,0 1.86701,0.1724061 2.746342,0.9123185 1.023592,0.8612966 1.499742,2.692231 1.051274,4.042448 -0.628888,1.8933996 -2.918646,3.0626916 -4.904481,2.5045297 z"
       id="path1-6"
       sodipodi:nodetypes="ccssssscssscscssssssscccssssscccsscssscsscccscscsscscccsssssssssssssssssssssssssscssssssssssssssssssscsssssscccsssssscsccssscsssssssscsssssscccssscssccsssssssssscssscssssscscsssccsscccssssccsssccsscsssssssscssscssssscccssssccsscccsscsssscscsssssssss" /></g></svg>
