<?xml version="1.0" encoding="UTF-8" standalone="no"?>
<!-- Created with Inkscape (http://www.inkscape.org/) -->

<svg
   width="161.77672mm"
   height="49.84993mm"
   viewBox="0 0 161.77672 49.84993"
   version="1.1"
   id="svg1"
   xml:space="preserve"
   xmlns:inkscape="http://www.inkscape.org/namespaces/inkscape"
   xmlns:sodipodi="http://sodipodi.sourceforge.net/DTD/sodipodi-0.dtd"
   xmlns="http://www.w3.org/2000/svg"
   xmlns:svg="http://www.w3.org/2000/svg"><sodipodi:namedview
     id="namedview1"
     pagecolor="#505050"
     bordercolor="#ffffff"
     borderopacity="1"
     inkscape:showpageshadow="0"
     inkscape:pageopacity="0"
     inkscape:pagecheckerboard="1"
     inkscape:deskcolor="#505050"
     inkscape:document-units="mm"><inkscape:page
       x="0"
       y="0"
       width="161.77672"
       height="49.84993"
       id="page2"
       margin="0"
       bleed="0" /></sodipodi:namedview><defs
     id="defs1" /><g
     inkscape:label="Layer 1"
     inkscape:groupmode="layer"
     id="layer1"
     transform="translate(-30.091213,-78.373243)"><path
       style="fill:#000000"
       d="m 94.621182,128.15937 c -0.573291,-0.14772 -1.292062,-0.53964 -1.622817,-0.88488 l -0.314817,-0.32859 0.527841,-0.5359 0.527842,-0.5359 0.392884,0.30591 c 1.013085,0.78884 2.400315,0.70301 2.407105,-0.14891 0.0029,-0.36741 -0.331268,-0.59663 -1.293779,-0.88736 -0.516107,-0.15589 -1.142509,-0.40153 -1.392003,-0.54586 -1.463623,-0.84671 -1.242577,-2.98188 0.394219,-3.80792 0.961067,-0.48503 2.47702,-0.269 3.294407,0.46946 l 0.426674,0.38548 -0.517729,0.52563 c -0.510458,0.51825 -0.520868,0.52278 -0.741166,0.32275 -0.372035,-0.33783 -0.673967,-0.44806 -1.227215,-0.44806 -0.659005,0 -1.012113,0.22749 -1.012113,0.65207 0,0.42259 0.392104,0.71262 1.35229,1.00027 1.099,0.32923 1.783064,0.69907 2.023099,1.09377 0.667681,1.09792 0.16998,2.5627 -1.086212,3.19683 -0.421896,0.21297 -1.607907,0.30793 -2.13851,0.17121 z m 38.309318,-0.0449 c -0.5823,-0.16469 -1.14631,-0.49535 -1.51579,-0.88864 l -0.26434,-0.28138 0.52711,-0.53516 0.52712,-0.53516 0.39288,0.30591 c 0.74084,0.57685 1.62857,0.71281 2.12166,0.32495 0.33122,-0.26053 0.37271,-0.64437 0.0964,-0.892 -0.10489,-0.094 -0.6075,-0.30308 -1.11692,-0.46461 -1.80605,-0.57268 -2.34922,-1.10471 -2.33374,-2.28588 0.0132,-1.0068 0.46903,-1.66655 1.46201,-2.11604 0.98863,-0.44752 2.52289,-0.17929 3.24684,0.56763 l 0.34799,0.35903 -0.52639,0.51847 c -0.48386,0.47659 -0.53883,0.50346 -0.6805,0.33263 -0.37823,-0.45606 -1.5691,-0.63693 -2.0368,-0.30934 -0.31858,0.22314 -0.31714,0.70359 0.003,1.00037 0.13485,0.125 0.61294,0.33596 1.06243,0.46878 1.08296,0.32002 1.81254,0.72076 2.05985,1.13144 0.66451,1.10348 0.17654,2.53928 -1.07828,3.17272 -0.48334,0.24399 -1.65114,0.30826 -2.29456,0.12628 z m -54.260207,-3.78091 v -3.70488 h 1.411208 c 1.776185,0 2.358949,0.12084 2.926807,0.6069 0.874698,0.74871 1.051707,2.21164 0.395939,3.27232 -0.481585,0.77894 -1.216043,1.13326 -2.349122,1.13326 h -0.859293 v 1.19864 1.19864 h -0.76277 -0.762769 z m 3.336632,-0.47349 c 0.359243,-0.41765 0.355505,-1.0747 -0.0082,-1.43839 -0.233358,-0.23336 -0.365364,-0.26746 -1.035187,-0.26746 h -0.767722 v 1.04748 1.04748 l 0.775906,-0.0438 c 0.684856,-0.0387 0.806332,-0.0792 1.035187,-0.34527 z m 2.377592,3.9925 c 0.04123,-0.10753 0.692838,-1.77889 1.448026,-3.71412 l 1.373068,-3.5186 0.75207,0.0317 0.75207,0.0316 1.408437,3.59591 c 0.77464,1.97776 1.408837,3.63269 1.409326,3.67764 4.9e-4,0.045 -0.362586,0.0817 -0.806836,0.0817 h -0.807726 l -0.291471,-0.76277 -0.29147,-0.76277 h -1.391984 -1.391984 l -0.269079,0.73553 -0.26908,0.73552 -0.849163,0.0321 c -0.778715,0.0294 -0.842944,0.0159 -0.774204,-0.16345 z m 4.357216,-2.89245 c -0.332802,-1.05718 -0.800311,-2.1792 -0.851312,-2.04314 -0.0337,0.0899 -0.234156,0.62124 -0.445466,1.18075 -0.21131,0.55951 -0.384199,1.0376 -0.384199,1.06243 0,0.0248 0.395585,0.0451 0.879079,0.0451 0.861862,0 0.877568,-0.005 0.801898,-0.24517 z m 12.920607,0.13621 v -2.94211 h -1.14415 -1.144158 v -0.76277 -0.76277 h 3.051078 3.05108 v 0.76277 0.76277 h -1.14416 -1.14415 v 2.94211 2.94211 h -0.76277 -0.76277 z m 5.77525,-0.76277 v -3.70488 h 0.76277 0.76277 v 3.70488 3.70488 h -0.76277 -0.76277 z m 4.14075,0 v -3.70488 h 0.76277 0.76277 v 2.99659 2.99659 h 1.47106 1.47105 v 0.70829 0.70829 h -2.23382 -2.23383 z m 6.53802,0 v -3.70488 h 0.76277 0.76277 v 2.99659 2.99659 h 1.47106 1.47105 v 0.70829 0.70829 h -2.23382 -2.23383 z m 6.42906,0 v -3.70488 h 2.39728 2.39727 v 0.76277 0.76277 h -1.58002 -1.58002 v 0.70493 0.70493 l 1.33484,0.0306 1.33485,0.0306 0.0322,0.73553 0.0322,0.73553 h -1.36707 -1.36706 v 0.76277 0.76276 h 1.6345 1.63451 v 0.70829 0.70829 h -2.45176 -2.45176 z m -94.389766,-7.37443 -0.05168,-0.62322 0.729593,-0.71953 c 0.514012,-0.50692 0.846732,-0.95938 1.126025,-1.53125 0.819624,-1.67825 0.772162,-0.96077 0.809551,-12.23783 0.0364,-10.979031 0.02338,-11.273953 -0.553259,-12.533502 C 31.878146,88.57608 31.205436,87.83247 30.57161,87.496226 l -0.480396,-0.254849 0.05942,-0.60487 c 0.03268,-0.332679 0.06745,-0.615587 0.07727,-0.628684 0.01916,-0.02556 7.829732,-1.396992 10.085999,-1.770962 0.749149,-0.124169 1.489834,-0.251571 1.645967,-0.283114 0.272698,-0.05509 0.286279,-0.0341 0.344818,0.533088 l 0.06094,0.590441 -0.757614,0.774312 c -0.53269,0.54443 -0.868582,1.009605 -1.131387,1.566851 -0.800266,1.69687 -0.752844,0.963086 -0.794169,12.288563 -0.02658,7.285718 -0.0021,10.349838 0.08578,10.754988 0.09173,0.42265 0.218674,0.65061 0.499761,0.8974 0.479784,0.42126 0.739325,0.4824 1.769217,0.41678 1.710687,-0.10899 3.88834,-1.15506 7.955711,-3.82163 l 1.996847,-1.30914 0.538358,0.53836 0.538359,0.53836 -0.994315,3.26599 c -0.546874,1.7963 -1.025742,3.30024 -1.064151,3.3421 -0.03841,0.0419 -1.565408,0.27686 -3.39333,0.52222 -4.831284,0.64852 -6.479448,0.8988 -11.877409,1.80365 -2.666968,0.44706 -5.002238,0.83835 -5.189487,0.86955 l -0.340453,0.0567 z M 179.8462,116.18882 c -2.87673,-0.39172 -5.25188,-0.73088 -5.27812,-0.7537 -0.0262,-0.0228 -0.0686,-0.3308 -0.0942,-0.68441 l -0.0465,-0.64293 0.43142,-0.22009 c 0.88463,-0.45131 1.41642,-1.32442 1.71963,-2.82336 0.14862,-0.73474 0.16634,-2.1333 0.13902,-10.97597 l -0.0313,-10.13394 -0.29849,-0.88028 c -0.35868,-1.057764 -0.97197,-2.038849 -1.72127,-2.753537 l -0.55285,-0.52731 0.0332,-0.643613 0.0332,-0.643612 4.52213,-0.947947 c 2.48718,-0.52137 4.60627,-0.950428 4.70909,-0.953461 0.17556,-0.0052 0.18895,0.88553 0.21983,14.623311 l 0.0329,14.628829 0.2409,0.85261 c 0.31905,1.12925 0.70619,1.8147 1.39035,2.46176 l 0.56394,0.53334 -0.0506,0.60963 c -0.05,0.60241 -0.0546,0.60949 -0.3912,0.59826 -0.18736,-0.006 -2.69434,-0.33186 -5.57107,-0.72358 z m -20.26787,-1.88357 c -1.26251,-0.14205 -2.36348,-0.40205 -3.54143,-0.83634 -5.83937,-2.15285 -8.90366,-7.42817 -8.16463,-14.055813 0.35592,-3.191908 1.5405,-5.793947 3.58801,-7.881414 1.82826,-1.863927 3.80622,-2.93667 6.44977,-3.498026 1.47932,-0.314131 4.13604,-0.340869 5.57736,-0.05613 2.86891,0.566765 5.03709,1.669677 6.96045,3.540664 2.02539,1.970232 3.30696,4.540153 3.68655,7.392607 0.1638,1.230922 0.0673,4.174002 -0.17268,5.263822 -1.34269,6.09866 -5.93793,9.93074 -12.20406,10.17727 -0.71918,0.0283 -1.69989,0.007 -2.17934,-0.0466 z m 3.59591,-3.03427 c 0.92293,-0.43024 1.61168,-1.17353 2.18341,-2.35629 0.95479,-1.97522 1.29786,-4.21665 1.21751,-7.9546 -0.0568,-2.644365 -0.19945,-3.775326 -0.69387,-5.502833 -0.80599,-2.816071 -2.36426,-4.515399 -4.49479,-4.901684 -1.70921,-0.309894 -3.21012,0.345981 -4.18663,1.829493 -1.29594,1.968809 -1.77611,4.512178 -1.67858,8.891154 0.0776,3.483 0.50455,5.59473 1.51574,7.49668 0.46214,0.86923 1.44322,1.92054 2.15249,2.30657 1.23493,0.67214 2.79308,0.74702 3.98472,0.19151 z m -103.294134,2.37467 c -3.495973,-0.47808 -5.705943,-2.85453 -5.473397,-5.88573 0.11441,-1.49131 0.840584,-2.8879 2.060152,-3.96212 1.360111,-1.19801 2.630727,-1.94876 10.761892,-6.358679 l 2.01589,-1.093315 0.0316,-0.942942 C 69.3668,92.70129 68.45067,90.70865 66.770163,89.951968 65.874951,89.548881 64.18809,89.44629 63.086643,89.727944 c -0.677653,0.173284 -2.177979,0.800817 -2.177979,0.91097 0,0.0291 0.23933,0.288497 0.531845,0.576435 0.997681,0.982067 1.381504,2.263847 1.063625,3.551981 -0.745585,3.02132 -4.377867,3.946212 -6.449363,1.642209 -0.698277,-0.776652 -0.953483,-1.544366 -0.89613,-2.695755 0.08963,-1.799341 1.106518,-3.261624 3.212897,-4.620131 3.125489,-2.015781 8.022496,-2.753198 11.573466,-1.742795 2.53838,0.722279 4.255439,2.098098 5.289219,4.238068 0.900124,1.863294 0.869586,1.553473 0.886102,8.989784 0.01558,7.01572 0.03911,7.37642 0.552582,8.46988 0.29437,0.62687 0.871978,1.172 1.341276,1.26586 0.284041,0.0568 0.307428,0.10498 0.380013,0.78277 0.04254,0.39723 0.05994,0.73964 0.03867,0.76091 -0.02127,0.0213 -0.552715,0.1499 -1.180987,0.28584 -1.646128,0.35619 -4.24246,0.35998 -5.128256,0.008 -1.097503,-0.43673 -1.764673,-1.17051 -2.228201,-2.45065 l -0.234335,-0.64717 -0.284022,0.48465 c -1.174285,2.00376 -3.512714,3.54157 -6.072573,3.99346 -0.967901,0.17087 -2.608682,0.22544 -3.424387,0.11389 z m 6.221331,-4.67461 c 0.840837,-0.41165 2.017696,-1.51649 2.67161,-2.50811 l 0.395214,-0.59932 0.06059,-3.18991 0.0606,-3.189917 -0.730689,0.404991 c -5.947474,3.296436 -7.269116,4.430916 -7.407001,6.358036 -0.07478,1.04508 0.167442,1.70969 0.845177,2.31903 0.712153,0.64028 1.348324,0.84748 2.469995,0.80447 0.745819,-0.0286 1.008413,-0.0928 1.634504,-0.39927 z m 70.266913,2.9879 c -5.39238,-0.30519 -7.23017,-0.42911 -7.28435,-0.49121 -0.0225,-0.0257 -0.0679,-0.3221 -0.10097,-0.65858 l -0.0601,-0.61178 0.45371,-0.25451 c 0.62627,-0.35132 1.4679,-1.15915 1.71761,-1.64862 0.48825,-0.95703 0.53077,-1.49527 0.53208,-6.73483 6.8e-4,-2.726899 -0.0504,-5.521904 -0.11354,-6.21112 -0.2358,-2.574538 -0.8143,-4.610961 -1.68755,-5.940517 -0.42016,-0.639706 -0.48524,-0.816134 -0.48524,-1.315518 0,-0.317202 0.0368,-0.598388 0.0817,-0.624857 0.13872,-0.08169 7.66049,-1.521039 7.70678,-1.474752 0.024,0.02395 0.22061,1.072252 0.43702,2.329561 0.21641,1.257308 0.42786,2.36605 0.4699,2.463869 0.0603,0.140408 0.45496,-0.165386 1.87437,-1.452442 2.11767,-1.920188 2.92713,-2.526612 3.78297,-2.834089 0.7744,-0.278216 2.04031,-0.29615 2.75506,-0.03903 1.15209,0.414445 2.14421,1.405084 2.57152,2.567687 0.27042,0.735757 0.2435,2.079338 -0.0573,2.860022 -0.33531,0.870217 -1.14659,1.72872 -2.05733,2.177077 -0.66489,0.327324 -0.81034,0.356771 -1.76219,0.356771 -0.92741,0 -1.10669,-0.03398 -1.68989,-0.320322 -0.80627,-0.395865 -1.57468,-1.149326 -1.98119,-1.942662 l -0.3085,-0.602054 -1.33902,1.051134 -1.33901,1.051134 0.0377,6.538018 c 0.0406,7.04226 0.0333,6.94766 0.63597,8.19913 0.33512,0.69588 1.17432,1.56598 2.03406,2.10895 l 0.70539,0.4455 -0.0679,0.4954 c -0.0374,0.27247 -0.0679,0.56211 -0.0679,0.64364 0,0.18179 0.23249,0.18743 -5.39386,-0.131 z m -56.426921,-0.54948 c -0.141251,-0.85515 -0.09519,-1.11528 0.227161,-1.28298 0.738546,-0.38423 1.260533,-1.39356 1.443806,-2.79181 0.08411,-0.64168 0.109842,-3.98927 0.08377,-10.89671 -0.03704,-9.812141 -0.04135,-9.983757 -0.271919,-10.806162 -0.128858,-0.459622 -0.338861,-1.04066 -0.466675,-1.291196 -0.290133,-0.568707 -1.014138,-1.363583 -1.551753,-1.70365 -0.387779,-0.245289 -0.408541,-0.287592 -0.406957,-0.829186 9.17e-4,-0.313891 0.03769,-0.623487 0.08173,-0.687991 0.04403,-0.06451 2.164051,-0.708863 4.711156,-1.431907 l 4.6311,-1.314626 0.02781,10.130922 c 0.01529,5.572008 0.06683,10.114663 0.114523,10.094788 0.04769,-0.01987 2.011012,-1.355919 4.362927,-2.96899 l 4.276209,-2.932856 -0.529638,-0.463314 c -2.225379,-1.946707 -1.674231,-5.561223 1.041786,-6.8322 0.640157,-0.299566 0.841935,-0.340785 1.656377,-0.338364 1.688888,0.005 2.993938,0.812907 3.730698,2.309466 0.32749,0.665228 0.35677,0.810036 0.35677,1.764473 0,0.953976 -0.0294,1.099437 -0.356,1.762897 -0.5098,1.035559 -1.71412,2.125858 -4.251422,3.848907 -1.147295,0.779114 -2.087805,1.455236 -2.090023,1.502492 -0.0055,0.117273 5.453715,9.432257 6.057845,10.336397 0.77844,1.16504 2.13116,2.28297 3.48908,2.88351 0.55141,0.24386 0.5946,0.28882 0.54039,0.56247 -0.0324,0.16358 -0.0891,0.4734 -0.12597,0.68849 l -0.067,0.39107 -4.25873,0.072 c -2.3423,0.0396 -5.150988,0.072 -6.241528,0.072 h -1.982799 l -0.06424,-0.62243 -0.06424,-0.62243 0.483095,-0.47627 c 0.622372,-0.61358 0.757369,-1.08144 0.546093,-1.89258 -0.127065,-0.48784 -3.676226,-7.22133 -3.966438,-7.52515 -0.04135,-0.0433 -0.654088,0.29995 -1.361641,0.76277 l -1.28646,0.84147 0.05538,2.45176 c 0.05517,2.4425 0.148365,3.14746 0.535735,4.05244 0.202404,0.47286 0.943641,1.30605 1.427806,1.60493 0.329181,0.20321 0.339668,0.23304 0.304345,0.86579 l -0.03658,0.65532 -0.562735,0.0554 c -0.309504,0.0305 -2.180895,0.10949 -4.158647,0.17564 -1.977752,0.0661 -4.139991,0.14941 -4.804976,0.18501 l -1.209063,0.0647 z m 36.431461,0.16242 c -4.65997,-0.27282 -8.18689,-2.49964 -10.13961,-6.40194 -1.56039,-3.11829 -2.01696,-7.513496 -1.13972,-10.971674 1.17273,-4.623036 4.90683,-8.1478 9.57835,-9.041374 0.89012,-0.170264 3.28207,-0.232048 4.06729,-0.105058 1.52762,0.247054 2.63968,0.590976 3.73585,1.155374 3.57779,1.842139 5.61115,5.610929 5.85033,10.843472 l 0.0654,1.429973 -2.44026,0.06756 c -1.34214,0.03716 -4.08293,0.09289 -6.09065,0.123854 -2.00772,0.03097 -4.6486,0.08593 -5.86862,0.122139 l -2.21822,0.06584 0.0778,0.832092 c 0.3149,3.369362 1.92557,5.561062 4.79455,6.524172 0.81316,0.27297 0.99987,0.2927 2.77866,0.29357 1.64003,8.1e-4 2.03345,-0.0334 2.81096,-0.24455 1.67019,-0.45354 2.8703,-1.12288 3.91304,-2.18241 l 0.57497,-0.58423 0.92402,0.83888 0.92401,0.83888 -0.4218,0.616 c -2.00603,2.92959 -5.1468,5.05263 -8.30982,5.61711 -1.15041,0.2053 -2.02929,0.24646 -3.46646,0.16232 z m 1.78401,-15.6419 3.12706,-0.07211 -0.0679,-1.099284 c -0.26609,-4.307086 -1.34789,-6.61499 -3.35495,-7.157469 -0.69921,-0.188986 -2.0064,-0.07442 -2.64012,0.231381 -1.74824,0.843616 -2.93539,3.486901 -3.26547,7.270807 l -0.0784,0.898789 h 1.57637 c 0.867,0 2.98354,-0.03245 4.70343,-0.07211 z m 69.85777,-7.837953 c -1.94951,-0.692198 -2.46347,-3.379159 -0.91409,-4.778926 0.58043,-0.524386 1.11944,-0.726586 1.93831,-0.727123 3.08545,-0.002 3.93162,4.174804 1.1047,5.452961 -0.57802,0.261342 -1.4791,0.283812 -2.12892,0.05309 z m 1.94172,-0.519626 c 0.44835,-0.189491 0.91246,-0.658703 1.19038,-1.203486 0.47228,-0.925732 0.0691,-2.359046 -0.81685,-2.903623 -1.01638,-0.624777 -2.0983,-0.506989 -2.92627,0.31858 -0.64564,0.643773 -0.82859,1.225995 -0.65334,2.079227 0.22831,1.11153 1.14223,1.857497 2.27571,1.857497 0.31885,0 0.73752,-0.06669 0.93037,-0.148195 z m -1.88318,-2.194597 v -1.471055 h 0.52858 c 0.7098,0 1.15893,0.171887 1.30884,0.500903 0.18033,0.395777 0.15633,0.533606 -0.15792,0.907075 l -0.28191,0.335028 0.33639,0.546706 c 0.18502,0.300688 0.3364,0.573743 0.3364,0.60679 0,0.03305 -0.13311,0.04457 -0.2958,0.0256 -0.22761,-0.02653 -0.37132,-0.167115 -0.62346,-0.609896 -0.42369,-0.74404 -0.6485,-0.724971 -0.6937,0.05884 -0.0278,0.482031 -0.066,0.571056 -0.24518,0.571056 -0.19986,0 -0.21224,-0.0858 -0.21224,-1.471055 z m 1.34115,-0.393815 c 0.19895,-0.317809 0.0111,-0.532405 -0.46599,-0.532405 -0.43082,0 -0.43929,0.0075 -0.43929,0.387963 0,0.379932 0.008,0.387262 0.39759,0.354142 0.21867,-0.0186 0.44714,-0.112966 0.50769,-0.2097 z M 59.710026,85.657291 c -0.908021,-0.277209 -1.641662,-0.894602 -2.080146,-1.750542 -0.37206,-0.726279 -0.356026,-1.921242 0.03596,-2.679502 0.589866,-1.141057 1.602286,-1.730677 2.970411,-1.729928 0.733822,4.02e-4 0.96006,0.04674 1.430013,0.292872 0.694215,0.363593 1.387066,1.136491 1.612881,1.799222 0.703134,2.063585 -0.91026,4.198297 -3.144397,4.16041 -0.303765,-0.0052 -0.674887,-0.04679 -0.824717,-0.09253 z m 9.00856,-0.483619 c -1.041242,-0.292665 -1.981106,-1.241602 -2.263119,-2.284966 -0.263243,-0.973919 0.08549,-2.195242 0.840237,-2.94269 0.736987,-0.729856 1.151344,-0.887699 2.330324,-0.887699 1.10514,0 1.530631,0.141345 2.251533,0.747945 0.839172,0.706117 1.229535,2.207171 0.861866,3.314117 -0.515581,1.55227 -2.392794,2.510892 -4.020841,2.053293 z"
       id="path1" /></g></svg>
