<?xml version="1.0" encoding="UTF-8" standalone="no"?>
<!-- Created with Inkscape (http://www.inkscape.org/) -->

<svg
   width="186.45572mm"
   height="46.933689mm"
   viewBox="0 0 186.45572 46.933689"
   version="1.1"
   id="svg1"
   inkscape:version="1.4.3 (0d15f75, 2025-12-25)"
   sodipodi:docname="läkerol-logo2-enkel.svg"
   xmlns:inkscape="http://www.inkscape.org/namespaces/inkscape"
   xmlns:sodipodi="http://sodipodi.sourceforge.net/DTD/sodipodi-0.dtd"
   xmlns="http://www.w3.org/2000/svg"
   xmlns:svg="http://www.w3.org/2000/svg">
  <sodipodi:namedview
     id="namedview1"
     pagecolor="#505050"
     bordercolor="#ffffff"
     borderopacity="1"
     inkscape:showpageshadow="0"
     inkscape:pageopacity="0"
     inkscape:pagecheckerboard="1"
     inkscape:deskcolor="#505050"
     inkscape:document-units="mm"
     inkscape:zoom="0.95657573"
     inkscape:cx="341.84434"
     inkscape:cy="81.540852"
     inkscape:current-layer="layer1" />
  <defs
     id="defs1" />
  <g
     inkscape:label="Layer 1"
     inkscape:groupmode="layer"
     id="layer1"
     transform="translate(-11.772137,-125.03316)">
    <path
       style="fill:#000000"
       d="m 11.84927,171.22084 -0.06186,-0.74599 0.873332,-0.86129 c 0.615277,-0.6068 1.013547,-1.14839 1.347863,-1.83294 0.981101,-2.00888 0.924287,-1.15004 0.969042,-14.6488 0.04357,-13.14204 0.02799,-13.49506 -0.662256,-15.00276 -0.404277,-0.88305 -1.209518,-1.77316 -1.968215,-2.17565 l -0.575039,-0.30506 0.07112,-0.72403 c 0.03912,-0.39822 0.08074,-0.73687 0.09249,-0.75254 0.02294,-0.0306 9.372277,-1.67221 12.073054,-2.11987 0.896739,-0.14863 1.783348,-0.30113 1.970241,-0.33888 0.326423,-0.066 0.342679,-0.0408 0.412751,0.63811 l 0.07294,0.70676 -0.906873,0.92686 c -0.637636,0.65169 -1.039703,1.20851 -1.354282,1.87554 -0.957928,2.03118 -0.901163,1.15282 -0.95063,14.70956 -0.03182,8.72109 -0.0026,12.38887 0.102683,12.87384 0.109797,0.50591 0.261755,0.77878 0.598219,1.07419 0.574307,0.50426 0.884981,0.57744 2.117774,0.4989 2.04771,-0.13047 4.654386,-1.38262 9.523074,-4.57454 l 2.390249,-1.56705 0.644426,0.64442 0.64442,0.64441 -1.19021,3.90944 c -0.654614,2.15018 -1.227824,3.95043 -1.273801,4.00053 -0.04598,0.0501 -1.873811,0.3314 -4.061854,0.62511 -5.783101,0.77628 -7.755971,1.07587 -14.217392,2.15898 -3.192391,0.53514 -5.987734,1.00352 -6.211874,1.04086 l -0.407526,0.0679 z m 179.18125,-0.92201 c -3.44347,-0.4689 -6.28656,-0.87488 -6.31796,-0.90219 -0.0314,-0.0273 -0.0821,-0.39597 -0.11276,-0.81924 l -0.0557,-0.76959 0.51642,-0.26346 c 1.05892,-0.54022 1.69547,-1.58534 2.05842,-3.37959 0.1779,-0.8795 0.19911,-2.55359 0.16641,-13.13836 l -0.0375,-12.13044 -0.3573,-1.0537 c -0.42934,-1.26617 -1.16346,-2.44054 -2.06039,-3.29602 l -0.66177,-0.63119 0.0397,-0.77041 0.0397,-0.77042 5.41304,-1.13471 c 2.97717,-0.62408 5.51374,-1.13766 5.63682,-1.1413 0.21016,-0.006 0.22618,1.05999 0.26314,17.50427 l 0.0394,17.51088 0.28836,1.02058 c 0.38192,1.35171 0.84532,2.17222 1.66427,2.94675 l 0.67504,0.63842 -0.0605,0.72973 c -0.0598,0.72109 -0.0653,0.72956 -0.46827,0.71613 -0.22427,-0.007 -3.22516,-0.39726 -6.66864,-0.86614 z m -24.26087,-2.25466 c -1.51123,-0.17003 -2.8291,-0.48126 -4.23913,-1.0011 -6.98979,-2.57699 -10.65777,-8.8916 -9.77315,-16.82497 0.42604,-3.82075 1.84399,-6.93541 4.29489,-9.43413 2.18845,-2.23116 4.55608,-3.51524 7.72045,-4.18719 1.77076,-0.37601 4.95089,-0.40802 6.67616,-0.0672 3.43412,0.67843 6.02945,1.99863 8.33174,4.23821 2.42441,2.3584 3.95846,5.43462 4.41284,8.84904 0.19607,1.47343 0.0805,4.99633 -0.2067,6.30085 -1.60721,7.30016 -7.10776,11.88721 -14.6084,12.18231 -0.86087,0.0339 -2.03478,0.009 -2.6087,-0.0558 z m 4.30435,-3.63205 c 1.10476,-0.51501 1.9292,-1.40473 2.61357,-2.82051 1.14289,-2.36435 1.55355,-5.04737 1.45737,-9.52173 -0.068,-3.16535 -0.23874,-4.51912 -0.83057,-6.58697 -0.96478,-3.37086 -2.83004,-5.40497 -5.38032,-5.86737 -2.04594,-0.37095 -3.84254,0.41415 -5.01143,2.18993 -1.55126,2.35669 -2.12603,5.40112 -2.00928,10.64281 0.0929,4.1692 0.60394,6.69696 1.81436,8.97361 0.55318,1.04047 1.72754,2.2989 2.57655,2.76099 1.47822,0.80455 3.34334,0.89419 4.76975,0.22924 z m -123.644227,2.8425 c -4.18472,-0.57226 -6.83008,-3.4169 -6.55172,-7.04528 0.13695,-1.78511 1.00619,-3.45685 2.46603,-4.7427 1.62806,-1.43404 3.14901,-2.33268 12.8821,-7.61141 l 2.41305,-1.30872 0.0378,-1.12871 c 0.10839,-3.23381 -0.98823,-5.61903 -2.99982,-6.52478 -1.07158,-0.4825 -3.09077,-0.6053 -4.40921,-0.26816 -0.81116,0.20743 -2.60707,0.9586 -2.60707,1.09044 0,0.0348 0.28648,0.34533 0.63663,0.69 1.19423,1.17554 1.65367,2.70986 1.27317,4.25176 -0.89247,3.61655 -5.24036,4.72366 -7.71996,1.96574 -0.83585,-0.92965 -1.14133,-1.84862 -1.07268,-3.22684 0.10729,-2.15384 1.32452,-3.90421 3.84587,-5.53035 3.74125,-2.41292 9.60302,-3.29561 13.85357,-2.08614 3.03847,0.86457 5.09381,2.51144 6.33126,5.07301 1.07746,2.23038 1.0409,1.85952 1.06067,10.76088 0.0186,8.39788 0.0468,8.82965 0.66145,10.13853 0.35236,0.75038 1.04377,1.4029 1.60552,1.51525 0.34,0.068 0.368,0.12566 0.45488,0.93698 0.0509,0.47549 0.0718,0.88537 0.0463,0.91082 -0.0255,0.0255 -0.6616,0.17943 -1.41365,0.34217 -1.97044,0.42635 -5.07828,0.43089 -6.13858,0.009 -1.31373,-0.52277 -2.11234,-1.40112 -2.66718,-2.93345 l -0.28051,-0.77467 -0.33997,0.58012 c -1.40564,2.39852 -4.20476,4.23929 -7.26894,4.78022 -1.15859,0.20454 -3.12262,0.26985 -4.09903,0.13633 z m 7.447,-5.59556 c 1.00649,-0.49275 2.41521,-1.81525 3.19795,-3.00224 l 0.47308,-0.71739 0.0725,-3.81835 0.0725,-3.81837 -0.87465,0.48478 c -7.11919,3.94587 -8.70121,5.30385 -8.86626,7.61065 -0.0895,1.25097 0.20043,2.0465 1.01169,2.77589 0.85245,0.76644 1.61396,1.01446 2.95661,0.96297 0.89275,-0.0342 1.20708,-0.11102 1.95652,-0.47794 z m 84.110277,3.57655 c -6.45474,-0.36531 -8.6546,-0.51365 -8.71945,-0.58798 -0.0269,-0.0308 -0.0813,-0.38556 -0.12086,-0.78833 l -0.072,-0.7323 0.5431,-0.30466 c 0.74965,-0.42053 1.7571,-1.38751 2.056,-1.97342 0.58443,-1.14557 0.63533,-1.78985 0.6369,-8.06166 8.1e-4,-3.26413 -0.0603,-6.60978 -0.1359,-7.43478 -0.28226,-3.08176 -0.97473,-5.51938 -2.02002,-7.11087 -0.50294,-0.76573 -0.58084,-0.97692 -0.58084,-1.57469 0,-0.37969 0.044,-0.71628 0.0978,-0.74796 0.16605,-0.0978 9.1697,-1.8207 9.2251,-1.76529 0.0287,0.0287 0.26407,1.28349 0.52312,2.78851 0.25905,1.50501 0.51216,2.83218 0.56247,2.94927 0.0722,0.16807 0.5446,-0.19796 2.24366,-1.73858 2.53486,-2.29849 3.5038,-3.02439 4.52825,-3.39244 0.92696,-0.33303 2.44227,-0.3545 3.29783,-0.0467 1.37907,0.49609 2.56665,1.6819 3.07814,3.07355 0.3237,0.88071 0.29147,2.48899 -0.0686,3.42348 -0.40137,1.04166 -1.37249,2.06929 -2.46266,2.60598 -0.79588,0.39181 -0.96998,0.42706 -2.10935,0.42706 -1.11013,0 -1.32472,-0.0407 -2.02282,-0.38343 -0.96512,-0.47385 -1.88491,-1.37575 -2.37151,-2.32539 l -0.36928,-0.72066 -1.60282,1.25822 -1.60281,1.25822 0.0452,7.82608 c 0.0487,8.42967 0.0399,8.31642 0.76127,9.81445 0.40114,0.83297 1.40567,1.8745 2.43478,2.52444 l 0.84437,0.53327 -0.0813,0.593 c -0.0447,0.32614 -0.0813,0.67285 -0.0813,0.77044 0,0.21761 0.27828,0.22436 -6.45652,-0.15681 z m -67.543647,-0.65774 c -0.16908,-1.02362 -0.11395,-1.335 0.27191,-1.53574 0.88405,-0.45992 1.50887,-1.66811 1.72826,-3.34183 0.10067,-0.76809 0.13148,-4.7752 0.10027,-13.04348 -0.0443,-11.74524 -0.0495,-11.95067 -0.32549,-12.93509 -0.15424,-0.55018 -0.40562,-1.24569 -0.55862,-1.54558 -0.34729,-0.68075 -1.21393,-1.63223 -1.85746,-2.03929 -0.46418,-0.29361 -0.48903,-0.34425 -0.48713,-0.99254 10e-4,-0.37573 0.0451,-0.74632 0.0978,-0.82353 0.0527,-0.0772 2.59039,-0.84852 5.6393,-1.71401 l 5.54351,-1.57362 0.0333,12.12682 c 0.0183,6.66976 0.08,12.10736 0.13708,12.08358 0.0571,-0.0238 2.40721,-1.62306 5.22248,-3.55392 l 5.11867,-3.51066 -0.63399,-0.55459 c -2.6638,-2.33023 -2.00407,-6.65685 1.24703,-8.17822 0.76628,-0.35859 1.00781,-0.40793 1.98271,-0.40503 2.02161,0.006 3.58377,0.97306 4.46568,2.76447 0.39201,0.79627 0.42706,0.96961 0.42706,2.11208 0,1.14192 -0.0352,1.31604 -0.42613,2.11021 -0.61024,1.23959 -2.05183,2.54467 -5.08901,4.60718 -1.37332,0.93262 -2.49912,1.74194 -2.50178,1.7985 -0.007,0.14038 6.52816,11.29053 7.2513,12.37279 0.93182,1.39457 2.551027,2.73274 4.176477,3.4516 0.66004,0.2919 0.71174,0.34571 0.64685,0.67327 -0.0388,0.19581 -0.10665,0.56667 -0.15079,0.82414 l -0.0803,0.46812 -5.097737,0.0862 c -2.80376,0.0474 -6.16579,0.0862 -7.47118,0.0862 h -2.37343 l -0.0769,-0.74505 -0.0769,-0.74506 0.57827,-0.5701 c 0.74498,-0.73446 0.90658,-1.29448 0.65368,-2.26544 -0.1521,-0.58393 -4.40049,-8.644 -4.74787,-9.00768 -0.0495,-0.0518 -0.78295,0.35904 -1.6299,0.91303 l -1.53991,1.00727 0.0663,2.93478 c 0.066,2.9237 0.17759,3.76755 0.64128,4.85082 0.24228,0.56601 1.12955,1.56335 1.7091,1.92112 0.39403,0.24323 0.40659,0.27894 0.3643,1.03635 l -0.0438,0.78442 -0.6736,0.0663 c -0.37048,0.0365 -2.61055,0.13105 -4.97794,0.21024 -2.36739,0.0792 -4.95561,0.17883 -5.75161,0.22145 l -1.44726,0.0775 z m 43.608857,0.19443 c -5.57804,-0.32657 -9.7998,-2.9921 -12.13722,-7.6632 -1.86781,-3.73263 -2.41433,-8.99374 -1.36426,-13.13322 1.40377,-5.53382 5.87353,-9.753 11.46538,-10.82262 1.06549,-0.20381 3.92868,-0.27777 4.8686,-0.12576 1.82858,0.29573 3.15972,0.70741 4.47185,1.383 4.28266,2.20506 6.71661,6.71634 7.00292,12.97976 l 0.0782,1.71169 -2.92101,0.0809 c -1.60656,0.0445 -4.88732,0.11118 -7.29058,0.14825 -2.40326,0.0371 -5.56443,0.10285 -7.02481,0.1462 l -2.65523,0.0788 0.0931,0.99602 c 0.37694,4.03316 2.30492,6.65666 5.73913,7.80951 0.97336,0.32676 1.19686,0.35037 3.32609,0.35141 1.96313,9.7e-4 2.43406,-0.04 3.36475,-0.29273 1.99923,-0.54289 3.43578,-1.3441 4.68395,-2.61237 l 0.68825,-0.69933 1.10606,1.00415 1.10605,1.00415 -0.5049,0.73736 c -2.40124,3.50675 -6.16078,6.04805 -9.94695,6.72374 -1.37705,0.24575 -2.42908,0.29501 -4.14939,0.1943 z m 2.13548,-18.72353 3.74313,-0.0863 -0.0813,-1.31586 c -0.31852,-5.15563 -1.61344,-7.91822 -4.01591,-8.56757 -0.83697,-0.22622 -2.40169,-0.0891 -3.16026,0.27697 -2.09266,1.00981 -3.5137,4.17386 -3.9088,8.70323 l -0.0939,1.07586 h 1.88693 c 1.03781,0 3.57133,-0.0388 5.63006,-0.0863 z M 47.226183,133.75225 c -1.08691,-0.33182 -1.96508,-1.07086 -2.48995,-2.09542 -0.44537,-0.86937 -0.42617,-2.29975 0.043,-3.2074 0.70607,-1.36585 1.91795,-2.07163 3.55561,-2.07073 0.87839,4.8e-4 1.1492,0.0559 1.71174,0.35056 0.83098,0.43523 1.66033,1.36039 1.93064,2.15369 0.84166,2.47013 -1.08959,5.0254 -3.76388,4.98005 -0.36361,-0.006 -0.80785,-0.056 -0.9872,-0.11075 z m 10.78335,-0.57891 c -1.24638,-0.35032 -2.37141,-1.48621 -2.70898,-2.73512 -0.3151,-1.16578 0.10233,-2.62772 1.00577,-3.52243 0.88219,-0.87364 1.37818,-1.06258 2.78943,-1.06258 1.32286,0 1.83218,0.16919 2.69511,0.8953 1.0045,0.84522 1.47176,2.642 1.03166,3.96703 -0.61715,1.85808 -2.8642,3.00556 -4.81299,2.4578 z"
       id="path1-4"
       sodipodi:nodetypes="ccssssscssscscssssssscccssssscccsscssscsscccscscsscscccsssssssssssssssssssssssssscssssssssssssssssscscsssssscccsssssscsccssscsssssssscsssssscccssscssccsssssssssscssscssssscscsssccsscccssssccsssccsscsssssssscssscssssscccssssccsscccsscsssscscsssssssss" />
  </g>
</svg>
