  0
SECTION
  2
BLOCKS
  0
ENDSEC
  0
SECTION
  2
ENTITIES
  0
LINE
  8
0
 10
175.103
 20
115.31
 11
183.797
 21
115.31
  0
LINE
  8
0
 10
183.797
 20
115.31
 11
183.797
 21
111.31
  0
LINE
  8
0
 10
183.797
 20
111.31
 11
192.49
 21
111.31
  0
LINE
  8
0
 10
192.49
 20
111.31
 11
192.49
 21
115.31
  0
LINE
  8
0
 10
192.49
 20
115.31
 11
201.183
 21
115.31
  0
LINE
  8
0
 10
201.183
 20
115.31
 11
201.183
 21
111.31
  0
LINE
  8
0
 10
201.183
 20
111.31
 11
209.877
 21
111.31
  0
LINE
  8
0
 10
209.877
 20
111.31
 11
209.877
 21
115.31
  0
LINE
  8
0
 10
209.877
 20
115.31
 11
218.57
 21
115.31
  0
LINE
  8
0
 10
218.57
 20
115.31
 11
218.57
 21
111.31
  0
LINE
  8
0
 10
218.57
 20
111.31
 11
227.263
 21
111.31
  0
LINE
  8
0
 10
227.263
 20
111.31
 11
227.263
 21
115.31
  0
LINE
  8
0
 10
227.263
 20
115.31
 11
235.957
 21
115.31
  0
LINE
  8
0
 10
235.957
 20
115.31
 11
235.957
 21
111.31
  0
LINE
  8
0
 10
235.957
 20
111.31
 11
244.65
 21
111.31
  0
LINE
  8
0
 10
244.65
 20
111.31
 11
244.65
 21
115.31
  0
LINE
  8
0
 10
244.65
 20
115.31
 11
253.343
 21
115.31
  0
LINE
  8
0
 10
253.343
 20
115.31
 11
253.343
 21
111.31
  0
LINE
  8
0
 10
253.343
 20
111.31
 11
262.037
 21
111.31
  0
LINE
  8
0
 10
262.037
 20
111.31
 11
262.037
 21
115.31
  0
LINE
  8
0
 10
262.037
 20
115.31
 11
270.73
 21
115.31
  0
LINE
  8
0
 10
270.73
 20
115.31
 11
270.73
 21
111.31
  0
LINE
  8
0
 10
270.73
 20
111.31
 11
279.423
 21
111.31
  0
LINE
  8
0
 10
279.423
 20
111.31
 11
279.423
 21
115.31
  0
LINE
  8
0
 10
279.423
 20
115.31
 11
288.117
 21
115.31
  0
LINE
  8
0
 10
288.117
 20
115.31
 11
288.117
 21
111.31
  0
LINE
  8
0
 10
288.117
 20
111.31
 11
296.81
 21
111.31
  0
LINE
  8
0
 10
296.81
 20
111.31
 11
296.81
 21
115.31
  0
LINE
  8
0
 10
296.81
 20
115.31
 11
304.81
 21
115.31
  0
LINE
  8
0
 10
304.81
 20
115.31
 11
304.81
 21
127.31
  0
LINE
  8
0
 10
304.81
 20
127.31
 11
308.81
 21
127.31
  0
LINE
  8
0
 10
308.81
 20
127.31
 11
308.81
 21
135.51
  0
LINE
  8
0
 10
308.81
 20
135.51
 11
304.81
 21
135.51
  0
LINE
  8
0
 10
304.81
 20
135.51
 11
304.81
 21
143.71
  0
LINE
  8
0
 10
304.81
 20
143.71
 11
308.81
 21
143.71
  0
LINE
  8
0
 10
308.81
 20
143.71
 11
308.81
 21
151.91
  0
LINE
  8
0
 10
308.81
 20
151.91
 11
304.81
 21
151.91
  0
LINE
  8
0
 10
304.81
 20
151.91
 11
304.81
 21
160.11
  0
LINE
  8
0
 10
304.81
 20
160.11
 11
308.81
 21
160.11
  0
LINE
  8
0
 10
308.81
 20
160.11
 11
308.81
 21
168.31
  0
LINE
  8
0
 10
308.81
 20
168.31
 11
304.81
 21
168.31
  0
LINE
  8
0
 10
304.81
 20
168.31
 11
304.81
 21
176.51
  0
LINE
  8
0
 10
304.81
 20
176.51
 11
308.81
 21
176.51
  0
LINE
  8
0
 10
308.81
 20
176.51
 11
308.81
 21
184.71
  0
LINE
  8
0
 10
308.81
 20
184.71
 11
304.81
 21
184.71
  0
LINE
  8
0
 10
304.81
 20
184.71
 11
304.81
 21
192.91
  0
LINE
  8
0
 10
304.81
 20
192.91
 11
308.81
 21
192.91
  0
LINE
  8
0
 10
308.81
 20
192.91
 11
308.81
 21
201.11
  0
LINE
  8
0
 10
308.81
 20
201.11
 11
304.81
 21
201.11
  0
LINE
  8
0
 10
304.81
 20
201.11
 11
304.81
 21
209.31
  0
LINE
  8
0
 10
304.81
 20
209.31
 11
308.81
 21
209.31
  0
LINE
  8
0
 10
308.81
 20
209.31
 11
308.81
 21
217.51
  0
LINE
  8
0
 10
308.81
 20
217.51
 11
304.81
 21
217.51
  0
LINE
  8
0
 10
304.81
 20
217.51
 11
304.81
 21
225.71
  0
LINE
  8
0
 10
304.81
 20
225.71
 11
308.81
 21
225.71
  0
LINE
  8
0
 10
308.81
 20
225.71
 11
308.81
 21
233.91
  0
LINE
  8
0
 10
308.81
 20
233.91
 11
304.81
 21
233.91
  0
LINE
  8
0
 10
304.81
 20
233.91
 11
304.81
 21
242.11
  0
LINE
  8
0
 10
304.81
 20
242.11
 11
308.81
 21
242.11
  0
LINE
  8
0
 10
308.81
 20
242.11
 11
308.81
 21
250.31
  0
LINE
  8
0
 10
308.81
 20
250.31
 11
304.81
 21
250.31
  0
LINE
  8
0
 10
304.81
 20
250.31
 11
304.81
 21
258.51
  0
LINE
  8
0
 10
304.81
 20
258.51
 11
308.81
 21
258.51
  0
LINE
  8
0
 10
308.81
 20
258.51
 11
308.81
 21
266.71
  0
LINE
  8
0
 10
308.81
 20
266.71
 11
304.81
 21
266.71
  0
LINE
  8
0
 10
304.81
 20
266.71
 11
304.81
 21
278.71
  0
LINE
  8
0
 10
304.81
 20
278.71
 11
296.81
 21
278.71
  0
LINE
  8
0
 10
296.81
 20
278.71
 11
296.81
 21
282.71
  0
LINE
  8
0
 10
296.81
 20
282.71
 11
288.117
 21
282.71
  0
LINE
  8
0
 10
288.117
 20
282.71
 11
288.117
 21
278.71
  0
LINE
  8
0
 10
288.117
 20
278.71
 11
279.423
 21
278.71
  0
LINE
  8
0
 10
279.423
 20
278.71
 11
279.423
 21
282.71
  0
LINE
  8
0
 10
279.423
 20
282.71
 11
270.73
 21
282.71
  0
LINE
  8
0
 10
270.73
 20
282.71
 11
270.73
 21
278.71
  0
LINE
  8
0
 10
270.73
 20
278.71
 11
262.037
 21
278.71
  0
LINE
  8
0
 10
262.037
 20
278.71
 11
262.037
 21
282.71
  0
LINE
  8
0
 10
262.037
 20
282.71
 11
253.343
 21
282.71
  0
LINE
  8
0
 10
253.343
 20
282.71
 11
253.343
 21
278.71
  0
LINE
  8
0
 10
253.343
 20
278.71
 11
244.65
 21
278.71
  0
LINE
  8
0
 10
244.65
 20
278.71
 11
244.65
 21
282.71
  0
LINE
  8
0
 10
244.65
 20
282.71
 11
235.957
 21
282.71
  0
LINE
  8
0
 10
235.957
 20
282.71
 11
235.957
 21
278.71
  0
LINE
  8
0
 10
235.957
 20
278.71
 11
227.263
 21
278.71
  0
LINE
  8
0
 10
227.263
 20
278.71
 11
227.263
 21
282.71
  0
LINE
  8
0
 10
227.263
 20
282.71
 11
218.57
 21
282.71
  0
LINE
  8
0
 10
218.57
 20
282.71
 11
218.57
 21
278.71
  0
LINE
  8
0
 10
218.57
 20
278.71
 11
209.877
 21
278.71
  0
LINE
  8
0
 10
209.877
 20
278.71
 11
209.877
 21
282.71
  0
LINE
  8
0
 10
209.877
 20
282.71
 11
201.183
 21
282.71
  0
LINE
  8
0
 10
201.183
 20
282.71
 11
201.183
 21
278.71
  0
LINE
  8
0
 10
201.183
 20
278.71
 11
192.49
 21
278.71
  0
LINE
  8
0
 10
192.49
 20
278.71
 11
192.49
 21
282.71
  0
LINE
  8
0
 10
192.49
 20
282.71
 11
183.797
 21
282.71
  0
LINE
  8
0
 10
183.797
 20
282.71
 11
183.797
 21
278.71
  0
LINE
  8
0
 10
183.797
 20
278.71
 11
175.103
 21
278.71
  0
LINE
  8
0
 10
175.103
 20
278.71
 11
175.103
 21
282.71
  0
LINE
  8
0
 10
175.103
 20
282.71
 11
166.41
 21
282.71
  0
LINE
  8
0
 10
166.41
 20
282.71
 11
166.41
 21
278.71
  0
LINE
  8
0
 10
166.41
 20
278.71
 11
158.41
 21
278.71
  0
LINE
  8
0
 10
158.41
 20
278.71
 11
158.41
 21
266.71
  0
LINE
  8
0
 10
158.41
 20
266.71
 11
154.41
 21
266.71
  0
LINE
  8
0
 10
154.41
 20
266.71
 11
154.41
 21
258.51
  0
LINE
  8
0
 10
154.41
 20
258.51
 11
158.41
 21
258.51
  0
LINE
  8
0
 10
158.41
 20
258.51
 11
158.41
 21
250.31
  0
LINE
  8
0
 10
158.41
 20
250.31
 11
154.41
 21
250.31
  0
LINE
  8
0
 10
154.41
 20
250.31
 11
154.41
 21
242.11
  0
LINE
  8
0
 10
154.41
 20
242.11
 11
158.41
 21
242.11
  0
LINE
  8
0
 10
158.41
 20
242.11
 11
158.41
 21
233.91
  0
LINE
  8
0
 10
158.41
 20
233.91
 11
154.41
 21
233.91
  0
LINE
  8
0
 10
154.41
 20
233.91
 11
154.41
 21
225.71
  0
LINE
  8
0
 10
154.41
 20
225.71
 11
158.41
 21
225.71
  0
LINE
  8
0
 10
158.41
 20
225.71
 11
158.41
 21
217.51
  0
LINE
  8
0
 10
158.41
 20
217.51
 11
154.41
 21
217.51
  0
LINE
  8
0
 10
154.41
 20
217.51
 11
154.41
 21
209.31
  0
LINE
  8
0
 10
154.41
 20
209.31
 11
158.41
 21
209.31
  0
LINE
  8
0
 10
158.41
 20
209.31
 11
158.41
 21
201.11
  0
LINE
  8
0
 10
158.41
 20
201.11
 11
154.41
 21
201.11
  0
LINE
  8
0
 10
154.41
 20
201.11
 11
154.41
 21
192.91
  0
LINE
  8
0
 10
154.41
 20
192.91
 11
158.41
 21
192.91
  0
LINE
  8
0
 10
158.41
 20
192.91
 11
158.41
 21
184.71
  0
LINE
  8
0
 10
158.41
 20
184.71
 11
154.41
 21
184.71
  0
LINE
  8
0
 10
154.41
 20
184.71
 11
154.41
 21
176.51
  0
LINE
  8
0
 10
154.41
 20
176.51
 11
158.41
 21
176.51
  0
LINE
  8
0
 10
158.41
 20
176.51
 11
158.41
 21
168.31
  0
LINE
  8
0
 10
158.41
 20
168.31
 11
154.41
 21
168.31
  0
LINE
  8
0
 10
154.41
 20
168.31
 11
154.41
 21
160.11
  0
LINE
  8
0
 10
154.41
 20
160.11
 11
158.41
 21
160.11
  0
LINE
  8
0
 10
158.41
 20
160.11
 11
158.41
 21
151.91
  0
LINE
  8
0
 10
158.41
 20
151.91
 11
154.41
 21
151.91
  0
LINE
  8
0
 10
154.41
 20
151.91
 11
154.41
 21
143.71
  0
LINE
  8
0
 10
154.41
 20
143.71
 11
158.41
 21
143.71
  0
LINE
  8
0
 10
158.41
 20
143.71
 11
158.41
 21
135.51
  0
LINE
  8
0
 10
158.41
 20
135.51
 11
154.41
 21
135.51
  0
LINE
  8
0
 10
154.41
 20
135.51
 11
154.41
 21
127.31
  0
LINE
  8
0
 10
154.41
 20
127.31
 11
158.41
 21
127.31
  0
LINE
  8
0
 10
158.41
 20
127.31
 11
158.41
 21
115.31
  0
LINE
  8
0
 10
158.41
 20
115.31
 11
166.41
 21
115.31
  0
LINE
  8
0
 10
166.41
 20
115.31
 11
166.41
 21
111.31
  0
LINE
  8
0
 10
166.41
 20
111.31
 11
175.103
 21
111.31
  0
LINE
  8
0
 10
175.103
 20
111.31
 11
175.103
 21
115.31
  0
LINE
  8
0
 10
20.6933
 20
115.31
 11
29.3867
 21
115.31
  0
LINE
  8
0
 10
29.3867
 20
115.31
 11
29.3867
 21
111.31
  0
LINE
  8
0
 10
29.3867
 20
111.31
 11
38.08
 21
111.31
  0
LINE
  8
0
 10
38.08
 20
111.31
 11
38.08
 21
115.31
  0
LINE
  8
0
 10
38.08
 20
115.31
 11
46.7733
 21
115.31
  0
LINE
  8
0
 10
46.7733
 20
115.31
 11
46.7733
 21
111.31
  0
LINE
  8
0
 10
46.7733
 20
111.31
 11
55.4667
 21
111.31
  0
LINE
  8
0
 10
55.4667
 20
111.31
 11
55.4667
 21
115.31
  0
LINE
  8
0
 10
55.4667
 20
115.31
 11
64.16
 21
115.31
  0
LINE
  8
0
 10
64.16
 20
115.31
 11
64.16
 21
111.31
  0
LINE
  8
0
 10
64.16
 20
111.31
 11
72.8533
 21
111.31
  0
LINE
  8
0
 10
72.8533
 20
111.31
 11
72.8533
 21
115.31
  0
LINE
  8
0
 10
72.8533
 20
115.31
 11
81.5467
 21
115.31
  0
LINE
  8
0
 10
81.5467
 20
115.31
 11
81.5467
 21
111.31
  0
LINE
  8
0
 10
81.5467
 20
111.31
 11
90.24
 21
111.31
  0
LINE
  8
0
 10
90.24
 20
111.31
 11
90.24
 21
115.31
  0
LINE
  8
0
 10
90.24
 20
115.31
 11
98.9333
 21
115.31
  0
LINE
  8
0
 10
98.9333
 20
115.31
 11
98.9333
 21
111.31
  0
LINE
  8
0
 10
98.9333
 20
111.31
 11
107.627
 21
111.31
  0
LINE
  8
0
 10
107.627
 20
111.31
 11
107.627
 21
115.31
  0
LINE
  8
0
 10
107.627
 20
115.31
 11
116.32
 21
115.31
  0
LINE
  8
0
 10
116.32
 20
115.31
 11
116.32
 21
111.31
  0
LINE
  8
0
 10
116.32
 20
111.31
 11
125.013
 21
111.31
  0
LINE
  8
0
 10
125.013
 20
111.31
 11
125.013
 21
115.31
  0
LINE
  8
0
 10
125.013
 20
115.31
 11
133.707
 21
115.31
  0
LINE
  8
0
 10
133.707
 20
115.31
 11
133.707
 21
111.31
  0
LINE
  8
0
 10
133.707
 20
111.31
 11
142.4
 21
111.31
  0
LINE
  8
0
 10
142.4
 20
111.31
 11
142.4
 21
115.31
  0
LINE
  8
0
 10
142.4
 20
115.31
 11
150.4
 21
115.31
  0
LINE
  8
0
 10
150.4
 20
115.31
 11
150.4
 21
127.31
  0
LINE
  8
0
 10
150.4
 20
127.31
 11
154.4
 21
127.31
  0
LINE
  8
0
 10
154.4
 20
127.31
 11
154.4
 21
135.51
  0
LINE
  8
0
 10
154.4
 20
135.51
 11
150.4
 21
135.51
  0
LINE
  8
0
 10
150.4
 20
135.51
 11
150.4
 21
143.71
  0
LINE
  8
0
 10
150.4
 20
143.71
 11
154.4
 21
143.71
  0
LINE
  8
0
 10
154.4
 20
143.71
 11
154.4
 21
151.91
  0
LINE
  8
0
 10
154.4
 20
151.91
 11
150.4
 21
151.91
  0
LINE
  8
0
 10
150.4
 20
151.91
 11
150.4
 21
160.11
  0
LINE
  8
0
 10
150.4
 20
160.11
 11
154.4
 21
160.11
  0
LINE
  8
0
 10
154.4
 20
160.11
 11
154.4
 21
168.31
  0
LINE
  8
0
 10
154.4
 20
168.31
 11
150.4
 21
168.31
  0
LINE
  8
0
 10
150.4
 20
168.31
 11
150.4
 21
176.51
  0
LINE
  8
0
 10
150.4
 20
176.51
 11
154.4
 21
176.51
  0
LINE
  8
0
 10
154.4
 20
176.51
 11
154.4
 21
184.71
  0
LINE
  8
0
 10
154.4
 20
184.71
 11
150.4
 21
184.71
  0
LINE
  8
0
 10
150.4
 20
184.71
 11
150.4
 21
192.91
  0
LINE
  8
0
 10
150.4
 20
192.91
 11
154.4
 21
192.91
  0
LINE
  8
0
 10
154.4
 20
192.91
 11
154.4
 21
201.11
  0
LINE
  8
0
 10
154.4
 20
201.11
 11
150.4
 21
201.11
  0
LINE
  8
0
 10
150.4
 20
201.11
 11
150.4
 21
209.31
  0
LINE
  8
0
 10
150.4
 20
209.31
 11
154.4
 21
209.31
  0
LINE
  8
0
 10
154.4
 20
209.31
 11
154.4
 21
217.51
  0
LINE
  8
0
 10
154.4
 20
217.51
 11
150.4
 21
217.51
  0
LINE
  8
0
 10
150.4
 20
217.51
 11
150.4
 21
225.71
  0
LINE
  8
0
 10
150.4
 20
225.71
 11
154.4
 21
225.71
  0
LINE
  8
0
 10
154.4
 20
225.71
 11
154.4
 21
233.91
  0
LINE
  8
0
 10
154.4
 20
233.91
 11
150.4
 21
233.91
  0
LINE
  8
0
 10
150.4
 20
233.91
 11
150.4
 21
242.11
  0
LINE
  8
0
 10
150.4
 20
242.11
 11
154.4
 21
242.11
  0
LINE
  8
0
 10
154.4
 20
242.11
 11
154.4
 21
250.31
  0
LINE
  8
0
 10
154.4
 20
250.31
 11
150.4
 21
250.31
  0
LINE
  8
0
 10
150.4
 20
250.31
 11
150.4
 21
258.51
  0
LINE
  8
0
 10
150.4
 20
258.51
 11
154.4
 21
258.51
  0
LINE
  8
0
 10
154.4
 20
258.51
 11
154.4
 21
266.71
  0
LINE
  8
0
 10
154.4
 20
266.71
 11
150.4
 21
266.71
  0
LINE
  8
0
 10
150.4
 20
266.71
 11
150.4
 21
278.71
  0
LINE
  8
0
 10
150.4
 20
278.71
 11
142.4
 21
278.71
  0
LINE
  8
0
 10
142.4
 20
278.71
 11
142.4
 21
282.71
  0
LINE
  8
0
 10
142.4
 20
282.71
 11
133.707
 21
282.71
  0
LINE
  8
0
 10
133.707
 20
282.71
 11
133.707
 21
278.71
  0
LINE
  8
0
 10
133.707
 20
278.71
 11
125.013
 21
278.71
  0
LINE
  8
0
 10
125.013
 20
278.71
 11
125.013
 21
282.71
  0
LINE
  8
0
 10
125.013
 20
282.71
 11
116.32
 21
282.71
  0
LINE
  8
0
 10
116.32
 20
282.71
 11
116.32
 21
278.71
  0
LINE
  8
0
 10
116.32
 20
278.71
 11
107.627
 21
278.71
  0
LINE
  8
0
 10
107.627
 20
278.71
 11
107.627
 21
282.71
  0
LINE
  8
0
 10
107.627
 20
282.71
 11
98.9333
 21
282.71
  0
LINE
  8
0
 10
98.9333
 20
282.71
 11
98.9333
 21
278.71
  0
LINE
  8
0
 10
98.9333
 20
278.71
 11
90.24
 21
278.71
  0
LINE
  8
0
 10
90.24
 20
278.71
 11
90.24
 21
282.71
  0
LINE
  8
0
 10
90.24
 20
282.71
 11
81.5467
 21
282.71
  0
LINE
  8
0
 10
81.5467
 20
282.71
 11
81.5467
 21
278.71
  0
LINE
  8
0
 10
81.5467
 20
278.71
 11
72.8533
 21
278.71
  0
LINE
  8
0
 10
72.8533
 20
278.71
 11
72.8533
 21
282.71
  0
LINE
  8
0
 10
72.8533
 20
282.71
 11
64.16
 21
282.71
  0
LINE
  8
0
 10
64.16
 20
282.71
 11
64.16
 21
278.71
  0
LINE
  8
0
 10
64.16
 20
278.71
 11
55.4667
 21
278.71
  0
LINE
  8
0
 10
55.4667
 20
278.71
 11
55.4667
 21
282.71
  0
LINE
  8
0
 10
55.4667
 20
282.71
 11
46.7733
 21
282.71
  0
LINE
  8
0
 10
46.7733
 20
282.71
 11
46.7733
 21
278.71
  0
LINE
  8
0
 10
46.7733
 20
278.71
 11
38.08
 21
278.71
  0
LINE
  8
0
 10
38.08
 20
278.71
 11
38.08
 21
282.71
  0
LINE
  8
0
 10
38.08
 20
282.71
 11
29.3867
 21
282.71
  0
LINE
  8
0
 10
29.3867
 20
282.71
 11
29.3867
 21
278.71
  0
LINE
  8
0
 10
29.3867
 20
278.71
 11
20.6933
 21
278.71
  0
LINE
  8
0
 10
20.6933
 20
278.71
 11
20.6933
 21
282.71
  0
LINE
  8
0
 10
20.6933
 20
282.71
 11
12
 21
282.71
  0
LINE
  8
0
 10
12
 20
282.71
 11
12
 21
278.71
  0
LINE
  8
0
 10
12
 20
278.71
 11
3.99998
 21
278.71
  0
LINE
  8
0
 10
3.99998
 20
278.71
 11
3.99998
 21
266.71
  0
LINE
  8
0
 10
3.99998
 20
266.71
 11
0
 21
266.71
  0
LINE
  8
0
 10
0
 20
266.71
 11
0
 21
258.51
  0
LINE
  8
0
 10
0
 20
258.51
 11
3.99998
 21
258.51
  0
LINE
  8
0
 10
3.99998
 20
258.51
 11
3.99998
 21
250.31
  0
LINE
  8
0
 10
3.99998
 20
250.31
 11
0
 21
250.31
  0
LINE
  8
0
 10
0
 20
250.31
 11
0
 21
242.11
  0
LINE
  8
0
 10
0
 20
242.11
 11
3.99998
 21
242.11
  0
LINE
  8
0
 10
3.99998
 20
242.11
 11
3.99998
 21
233.91
  0
LINE
  8
0
 10
3.99998
 20
233.91
 11
0
 21
233.91
  0
LINE
  8
0
 10
0
 20
233.91
 11
0
 21
225.71
  0
LINE
  8
0
 10
0
 20
225.71
 11
3.99998
 21
225.71
  0
LINE
  8
0
 10
3.99998
 20
225.71
 11
3.99998
 21
217.51
  0
LINE
  8
0
 10
3.99998
 20
217.51
 11
0
 21
217.51
  0
LINE
  8
0
 10
0
 20
217.51
 11
0
 21
209.31
  0
LINE
  8
0
 10
0
 20
209.31
 11
3.99998
 21
209.31
  0
LINE
  8
0
 10
3.99998
 20
209.31
 11
3.99998
 21
201.11
  0
LINE
  8
0
 10
3.99998
 20
201.11
 11
0
 21
201.11
  0
LINE
  8
0
 10
0
 20
201.11
 11
0
 21
192.91
  0
LINE
  8
0
 10
0
 20
192.91
 11
4
 21
192.91
  0
LINE
  8
0
 10
4
 20
192.91
 11
4
 21
184.71
  0
LINE
  8
0
 10
4
 20
184.71
 11
0
 21
184.71
  0
LINE
  8
0
 10
0
 20
184.71
 11
0
 21
176.51
  0
LINE
  8
0
 10
0
 20
176.51
 11
4
 21
176.51
  0
LINE
  8
0
 10
4
 20
176.51
 11
4
 21
168.31
  0
LINE
  8
0
 10
4
 20
168.31
 11
0
 21
168.31
  0
LINE
  8
0
 10
0
 20
168.31
 11
0
 21
160.11
  0
LINE
  8
0
 10
0
 20
160.11
 11
4
 21
160.11
  0
LINE
  8
0
 10
4
 20
160.11
 11
4
 21
151.91
  0
LINE
  8
0
 10
4
 20
151.91
 11
0
 21
151.91
  0
LINE
  8
0
 10
0
 20
151.91
 11
0
 21
143.71
  0
LINE
  8
0
 10
0
 20
143.71
 11
4
 21
143.71
  0
LINE
  8
0
 10
4
 20
143.71
 11
4
 21
135.51
  0
LINE
  8
0
 10
4
 20
135.51
 11
0
 21
135.51
  0
LINE
  8
0
 10
0
 20
135.51
 11
0
 21
127.31
  0
LINE
  8
0
 10
0
 20
127.31
 11
4
 21
127.31
  0
LINE
  8
0
 10
4
 20
127.31
 11
4
 21
115.31
  0
LINE
  8
0
 10
4
 20
115.31
 11
12
 21
115.31
  0
LINE
  8
0
 10
12
 20
115.31
 11
12
 21
111.31
  0
LINE
  8
0
 10
12
 20
111.31
 11
20.6933
 21
111.31
  0
LINE
  8
0
 10
20.6933
 20
111.31
 11
20.6933
 21
115.31
  0
LINE
  8
0
 10
166.41
 20
4
 11
175.103
 21
4
  0
LINE
  8
0
 10
175.103
 20
4
 11
175.103
 21
0
  0
LINE
  8
0
 10
175.103
 20
0
 11
183.797
 21
0
  0
LINE
  8
0
 10
183.797
 20
0
 11
183.797
 21
4
  0
LINE
  8
0
 10
183.797
 20
4
 11
192.49
 21
4
  0
LINE
  8
0
 10
192.49
 20
4
 11
192.49
 21
0
  0
LINE
  8
0
 10
192.49
 20
0
 11
201.183
 21
0
  0
LINE
  8
0
 10
201.183
 20
0
 11
201.183
 21
4
  0
LINE
  8
0
 10
201.183
 20
4
 11
209.877
 21
4
  0
LINE
  8
0
 10
209.877
 20
4
 11
209.877
 21
0
  0
LINE
  8
0
 10
209.877
 20
0
 11
218.57
 21
0
  0
LINE
  8
0
 10
218.57
 20
0
 11
218.57
 21
4
  0
LINE
  8
0
 10
218.57
 20
4
 11
227.263
 21
4
  0
LINE
  8
0
 10
227.263
 20
4
 11
227.263
 21
0
  0
LINE
  8
0
 10
227.263
 20
0
 11
235.957
 21
0
  0
LINE
  8
0
 10
235.957
 20
0
 11
235.957
 21
4
  0
LINE
  8
0
 10
235.957
 20
4
 11
244.65
 21
4
  0
LINE
  8
0
 10
244.65
 20
4
 11
244.65
 21
0
  0
LINE
  8
0
 10
244.65
 20
0
 11
253.343
 21
0
  0
LINE
  8
0
 10
253.343
 20
0
 11
253.343
 21
4
  0
LINE
  8
0
 10
253.343
 20
4
 11
262.037
 21
4
  0
LINE
  8
0
 10
262.037
 20
4
 11
262.037
 21
0
  0
LINE
  8
0
 10
262.037
 20
0
 11
270.73
 21
0
  0
LINE
  8
0
 10
270.73
 20
0
 11
270.73
 21
4
  0
LINE
  8
0
 10
270.73
 20
4
 11
279.423
 21
4
  0
LINE
  8
0
 10
279.423
 20
4
 11
279.423
 21
0
  0
LINE
  8
0
 10
279.423
 20
0
 11
288.117
 21
0
  0
LINE
  8
0
 10
288.117
 20
0
 11
288.117
 21
4
  0
LINE
  8
0
 10
288.117
 20
4
 11
296.81
 21
4
  0
LINE
  8
0
 10
296.81
 20
4
 11
296.81
 21
0
  0
LINE
  8
0
 10
296.81
 20
0
 11
308.81
 21
0
  0
LINE
  8
0
 10
308.81
 20
0
 11
308.81
 21
12
  0
LINE
  8
0
 10
308.81
 20
12
 11
304.81
 21
12
  0
LINE
  8
0
 10
304.81
 20
12
 11
304.81
 21
21.7
  0
LINE
  8
0
 10
304.81
 20
21.7
 11
308.81
 21
21.7
  0
LINE
  8
0
 10
308.81
 20
21.7
 11
308.81
 21
31.4
  0
LINE
  8
0
 10
308.81
 20
31.4
 11
304.81
 21
31.4
  0
LINE
  8
0
 10
304.81
 20
31.4
 11
304.81
 21
41.1
  0
LINE
  8
0
 10
304.81
 20
41.1
 11
308.81
 21
41.1
  0
LINE
  8
0
 10
308.81
 20
41.1
 11
308.81
 21
50.8
  0
LINE
  8
0
 10
308.81
 20
50.8
 11
304.81
 21
50.8
  0
LINE
  8
0
 10
304.81
 20
50.8
 11
304.81
 21
60.5
  0
LINE
  8
0
 10
304.81
 20
60.5
 11
308.81
 21
60.5
  0
LINE
  8
0
 10
308.81
 20
60.5
 11
308.81
 21
70.2
  0
LINE
  8
0
 10
308.81
 20
70.2
 11
304.81
 21
70.2
  0
LINE
  8
0
 10
304.81
 20
70.2
 11
304.81
 21
79.9
  0
LINE
  8
0
 10
304.81
 20
79.9
 11
308.81
 21
79.9
  0
LINE
  8
0
 10
308.81
 20
79.9
 11
308.81
 21
89.6
  0
LINE
  8
0
 10
308.81
 20
89.6
 11
304.81
 21
89.6
  0
LINE
  8
0
 10
304.81
 20
89.6
 11
304.81
 21
99.3
  0
LINE
  8
0
 10
304.81
 20
99.3
 11
308.81
 21
99.3
  0
LINE
  8
0
 10
308.81
 20
99.3
 11
308.81
 21
111.3
  0
LINE
  8
0
 10
308.81
 20
111.3
 11
296.81
 21
111.3
  0
LINE
  8
0
 10
296.81
 20
111.3
 11
296.81
 21
107.3
  0
LINE
  8
0
 10
296.81
 20
107.3
 11
288.117
 21
107.3
  0
LINE
  8
0
 10
288.117
 20
107.3
 11
288.117
 21
111.3
  0
LINE
  8
0
 10
288.117
 20
111.3
 11
279.423
 21
111.3
  0
LINE
  8
0
 10
279.423
 20
111.3
 11
279.423
 21
107.3
  0
LINE
  8
0
 10
279.423
 20
107.3
 11
270.73
 21
107.3
  0
LINE
  8
0
 10
270.73
 20
107.3
 11
270.73
 21
111.3
  0
LINE
  8
0
 10
270.73
 20
111.3
 11
262.037
 21
111.3
  0
LINE
  8
0
 10
262.037
 20
111.3
 11
262.037
 21
107.3
  0
LINE
  8
0
 10
262.037
 20
107.3
 11
253.343
 21
107.3
  0
LINE
  8
0
 10
253.343
 20
107.3
 11
253.343
 21
111.3
  0
LINE
  8
0
 10
253.343
 20
111.3
 11
244.65
 21
111.3
  0
LINE
  8
0
 10
244.65
 20
111.3
 11
244.65
 21
107.3
  0
LINE
  8
0
 10
244.65
 20
107.3
 11
235.957
 21
107.3
  0
LINE
  8
0
 10
235.957
 20
107.3
 11
235.957
 21
111.3
  0
LINE
  8
0
 10
235.957
 20
111.3
 11
227.263
 21
111.3
  0
LINE
  8
0
 10
227.263
 20
111.3
 11
227.263
 21
107.3
  0
LINE
  8
0
 10
227.263
 20
107.3
 11
218.57
 21
107.3
  0
LINE
  8
0
 10
218.57
 20
107.3
 11
218.57
 21
111.3
  0
LINE
  8
0
 10
218.57
 20
111.3
 11
209.877
 21
111.3
  0
LINE
  8
0
 10
209.877
 20
111.3
 11
209.877
 21
107.3
  0
LINE
  8
0
 10
209.877
 20
107.3
 11
201.183
 21
107.3
  0
LINE
  8
0
 10
201.183
 20
107.3
 11
201.183
 21
111.3
  0
LINE
  8
0
 10
201.183
 20
111.3
 11
192.49
 21
111.3
  0
LINE
  8
0
 10
192.49
 20
111.3
 11
192.49
 21
107.3
  0
LINE
  8
0
 10
192.49
 20
107.3
 11
183.797
 21
107.3
  0
LINE
  8
0
 10
183.797
 20
107.3
 11
183.797
 21
111.3
  0
LINE
  8
0
 10
183.797
 20
111.3
 11
175.103
 21
111.3
  0
LINE
  8
0
 10
175.103
 20
111.3
 11
175.103
 21
107.3
  0
LINE
  8
0
 10
175.103
 20
107.3
 11
166.41
 21
107.3
  0
LINE
  8
0
 10
166.41
 20
107.3
 11
166.41
 21
111.3
  0
LINE
  8
0
 10
166.41
 20
111.3
 11
154.41
 21
111.3
  0
LINE
  8
0
 10
154.41
 20
111.3
 11
154.41
 21
99.3
  0
LINE
  8
0
 10
154.41
 20
99.3
 11
158.41
 21
99.3
  0
LINE
  8
0
 10
158.41
 20
99.3
 11
158.41
 21
89.6
  0
LINE
  8
0
 10
158.41
 20
89.6
 11
154.41
 21
89.6
  0
LINE
  8
0
 10
154.41
 20
89.6
 11
154.41
 21
79.9
  0
LINE
  8
0
 10
154.41
 20
79.9
 11
158.41
 21
79.9
  0
LINE
  8
0
 10
158.41
 20
79.9
 11
158.41
 21
70.2
  0
LINE
  8
0
 10
158.41
 20
70.2
 11
154.41
 21
70.2
  0
LINE
  8
0
 10
154.41
 20
70.2
 11
154.41
 21
60.5
  0
LINE
  8
0
 10
154.41
 20
60.5
 11
158.41
 21
60.5
  0
LINE
  8
0
 10
158.41
 20
60.5
 11
158.41
 21
50.8
  0
LINE
  8
0
 10
158.41
 20
50.8
 11
154.41
 21
50.8
  0
LINE
  8
0
 10
154.41
 20
50.8
 11
154.41
 21
41.1
  0
LINE
  8
0
 10
154.41
 20
41.1
 11
158.41
 21
41.1
  0
LINE
  8
0
 10
158.41
 20
41.1
 11
158.41
 21
31.4
  0
LINE
  8
0
 10
158.41
 20
31.4
 11
154.41
 21
31.4
  0
LINE
  8
0
 10
154.41
 20
31.4
 11
154.41
 21
31.3725
  0
LINE
  8
0
 10
154.41
 20
31.3725
 11
154.449
 21
31.3572
  0
LINE
  8
0
 10
154.449
 20
31.3572
 11
154.614
 21
31.2665
  0
LINE
  8
0
 10
154.614
 20
31.2665
 11
154.766
 21
31.1558
  0
LINE
  8
0
 10
154.766
 20
31.1558
 11
154.903
 21
31.0268
  0
LINE
  8
0
 10
154.903
 20
31.0268
 11
155.024
 21
30.8817
  0
LINE
  8
0
 10
155.024
 20
30.8817
 11
155.124
 21
30.7226
  0
LINE
  8
0
 10
155.124
 20
30.7226
 11
155.205
 21
30.5522
  0
LINE
  8
0
 10
155.205
 20
30.5522
 11
155.263
 21
30.373
  0
LINE
  8
0
 10
155.263
 20
30.373
 11
155.298
 21
30.188
  0
LINE
  8
0
 10
155.298
 20
30.188
 11
155.31
 21
30
  0
LINE
  8
0
 10
155.31
 20
30
 11
155.298
 21
29.812
  0
LINE
  8
0
 10
155.298
 20
29.812
 11
155.263
 21
29.627
  0
LINE
  8
0
 10
155.263
 20
29.627
 11
155.205
 21
29.4478
  0
LINE
  8
0
 10
155.205
 20
29.4478
 11
155.124
 21
29.2774
  0
LINE
  8
0
 10
155.124
 20
29.2774
 11
155.024
 21
29.1183
  0
LINE
  8
0
 10
155.024
 20
29.1183
 11
154.903
 21
28.9732
  0
LINE
  8
0
 10
154.903
 20
28.9732
 11
154.766
 21
28.8442
  0
LINE
  8
0
 10
154.766
 20
28.8442
 11
154.614
 21
28.7335
  0
LINE
  8
0
 10
154.614
 20
28.7335
 11
154.449
 21
28.6427
  0
LINE
  8
0
 10
154.449
 20
28.6427
 11
154.41
 21
28.6274
  0
LINE
  8
0
 10
154.41
 20
28.6274
 11
154.41
 21
21.7
  0
LINE
  8
0
 10
154.41
 20
21.7
 11
158.41
 21
21.7
  0
LINE
  8
0
 10
158.41
 20
21.7
 11
158.41
 21
12
  0
LINE
  8
0
 10
158.41
 20
12
 11
154.41
 21
12
  0
LINE
  8
0
 10
154.41
 20
12
 11
154.41
 21
0
  0
LINE
  8
0
 10
154.41
 20
0
 11
166.41
 21
0
  0
LINE
  8
0
 10
166.41
 20
0
 11
166.41
 21
4
  0
LINE
  8
0
 10
203.716
 20
28.5029
 11
203.529
 21
28.5266
  0
LINE
  8
0
 10
203.529
 20
28.5266
 11
203.346
 21
28.5734
  0
LINE
  8
0
 10
203.346
 20
28.5734
 11
203.171
 21
28.6427
  0
LINE
  8
0
 10
203.171
 20
28.6427
 11
203.006
 21
28.7335
  0
LINE
  8
0
 10
203.006
 20
28.7335
 11
202.854
 21
28.8442
  0
LINE
  8
0
 10
202.854
 20
28.8442
 11
202.717
 21
28.9732
  0
LINE
  8
0
 10
202.717
 20
28.9732
 11
202.596
 21
29.1183
  0
LINE
  8
0
 10
202.596
 20
29.1183
 11
202.496
 21
29.2774
  0
LINE
  8
0
 10
202.496
 20
29.2774
 11
202.415
 21
29.4478
  0
LINE
  8
0
 10
202.415
 20
29.4478
 11
202.357
 21
29.627
  0
LINE
  8
0
 10
202.357
 20
29.627
 11
202.322
 21
29.812
  0
LINE
  8
0
 10
202.322
 20
29.812
 11
202.31
 21
30
  0
LINE
  8
0
 10
202.31
 20
30
 11
202.322
 21
30.188
  0
LINE
  8
0
 10
202.322
 20
30.188
 11
202.357
 21
30.373
  0
LINE
  8
0
 10
202.357
 20
30.373
 11
202.415
 21
30.5522
  0
LINE
  8
0
 10
202.415
 20
30.5522
 11
202.496
 21
30.7226
  0
LINE
  8
0
 10
202.496
 20
30.7226
 11
202.596
 21
30.8817
  0
LINE
  8
0
 10
202.596
 20
30.8817
 11
202.717
 21
31.0268
  0
LINE
  8
0
 10
202.717
 20
31.0268
 11
202.854
 21
31.1558
  0
LINE
  8
0
 10
202.854
 20
31.1558
 11
203.006
 21
31.2665
  0
LINE
  8
0
 10
203.006
 20
31.2665
 11
203.171
 21
31.3572
  0
LINE
  8
0
 10
203.171
 20
31.3572
 11
203.346
 21
31.4266
  0
LINE
  8
0
 10
203.346
 20
31.4266
 11
203.529
 21
31.4734
  0
LINE
  8
0
 10
203.529
 20
31.4734
 11
203.716
 21
31.497
  0
LINE
  8
0
 10
203.716
 20
31.497
 11
203.904
 21
31.497
  0
LINE
  8
0
 10
203.904
 20
31.497
 11
204.091
 21
31.4734
  0
LINE
  8
0
 10
204.091
 20
31.4734
 11
204.274
 21
31.4266
  0
LINE
  8
0
 10
204.274
 20
31.4266
 11
204.449
 21
31.3572
  0
LINE
  8
0
 10
204.449
 20
31.3572
 11
204.614
 21
31.2665
  0
LINE
  8
0
 10
204.614
 20
31.2665
 11
204.766
 21
31.1558
  0
LINE
  8
0
 10
204.766
 20
31.1558
 11
204.903
 21
31.0268
  0
LINE
  8
0
 10
204.903
 20
31.0268
 11
205.024
 21
30.8817
  0
LINE
  8
0
 10
205.024
 20
30.8817
 11
205.124
 21
30.7226
  0
LINE
  8
0
 10
205.124
 20
30.7226
 11
205.205
 21
30.5522
  0
LINE
  8
0
 10
205.205
 20
30.5522
 11
205.263
 21
30.373
  0
LINE
  8
0
 10
205.263
 20
30.373
 11
205.298
 21
30.188
  0
LINE
  8
0
 10
205.298
 20
30.188
 11
205.31
 21
30
  0
LINE
  8
0
 10
205.31
 20
30
 11
205.298
 21
29.812
  0
LINE
  8
0
 10
205.298
 20
29.812
 11
205.263
 21
29.627
  0
LINE
  8
0
 10
205.263
 20
29.627
 11
205.205
 21
29.4478
  0
LINE
  8
0
 10
205.205
 20
29.4478
 11
205.124
 21
29.2774
  0
LINE
  8
0
 10
205.124
 20
29.2774
 11
205.024
 21
29.1183
  0
LINE
  8
0
 10
205.024
 20
29.1183
 11
204.903
 21
28.9732
  0
LINE
  8
0
 10
204.903
 20
28.9732
 11
204.766
 21
28.8442
  0
LINE
  8
0
 10
204.766
 20
28.8442
 11
204.614
 21
28.7335
  0
LINE
  8
0
 10
204.614
 20
28.7335
 11
204.449
 21
28.6427
  0
LINE
  8
0
 10
204.449
 20
28.6427
 11
204.274
 21
28.5734
  0
LINE
  8
0
 10
204.274
 20
28.5734
 11
204.091
 21
28.5266
  0
LINE
  8
0
 10
204.091
 20
28.5266
 11
203.904
 21
28.5029
  0
LINE
  8
0
 10
203.904
 20
28.5029
 11
203.716
 21
28.5029
  0
LINE
  8
0
 10
12
 20
4
 11
20.6933
 21
4
  0
LINE
  8
0
 10
20.6933
 20
4
 11
20.6933
 21
0
  0
LINE
  8
0
 10
20.6933
 20
0
 11
29.3867
 21
0
  0
LINE
  8
0
 10
29.3867
 20
0
 11
29.3867
 21
4
  0
LINE
  8
0
 10
29.3867
 20
4
 11
38.08
 21
4
  0
LINE
  8
0
 10
38.08
 20
4
 11
38.08
 21
0
  0
LINE
  8
0
 10
38.08
 20
0
 11
46.7733
 21
0
  0
LINE
  8
0
 10
46.7733
 20
0
 11
46.7733
 21
4
  0
LINE
  8
0
 10
46.7733
 20
4
 11
55.4667
 21
4
  0
LINE
  8
0
 10
55.4667
 20
4
 11
55.4667
 21
0
  0
LINE
  8
0
 10
55.4667
 20
0
 11
64.16
 21
0
  0
LINE
  8
0
 10
64.16
 20
0
 11
64.16
 21
4
  0
LINE
  8
0
 10
64.16
 20
4
 11
72.8533
 21
4
  0
LINE
  8
0
 10
72.8533
 20
4
 11
72.8533
 21
0
  0
LINE
  8
0
 10
72.8533
 20
0
 11
81.5467
 21
0
  0
LINE
  8
0
 10
81.5467
 20
0
 11
81.5467
 21
4
  0
LINE
  8
0
 10
81.5467
 20
4
 11
90.24
 21
4
  0
LINE
  8
0
 10
90.24
 20
4
 11
90.24
 21
0
  0
LINE
  8
0
 10
90.24
 20
0
 11
98.9333
 21
0
  0
LINE
  8
0
 10
98.9333
 20
0
 11
98.9333
 21
4
  0
LINE
  8
0
 10
98.9333
 20
4
 11
107.627
 21
4
  0
LINE
  8
0
 10
107.627
 20
4
 11
107.627
 21
0
  0
LINE
  8
0
 10
107.627
 20
0
 11
116.32
 21
0
  0
LINE
  8
0
 10
116.32
 20
0
 11
116.32
 21
4
  0
LINE
  8
0
 10
116.32
 20
4
 11
125.013
 21
4
  0
LINE
  8
0
 10
125.013
 20
4
 11
125.013
 21
0
  0
LINE
  8
0
 10
125.013
 20
0
 11
133.707
 21
0
  0
LINE
  8
0
 10
133.707
 20
0
 11
133.707
 21
4
  0
LINE
  8
0
 10
133.707
 20
4
 11
142.4
 21
4
  0
LINE
  8
0
 10
142.4
 20
4
 11
142.4
 21
0
  0
LINE
  8
0
 10
142.4
 20
0
 11
154.4
 21
0
  0
LINE
  8
0
 10
154.4
 20
0
 11
154.4
 21
12
  0
LINE
  8
0
 10
154.4
 20
12
 11
150.4
 21
12
  0
LINE
  8
0
 10
150.4
 20
12
 11
150.4
 21
21.7
  0
LINE
  8
0
 10
150.4
 20
21.7
 11
154.4
 21
21.7
  0
LINE
  8
0
 10
154.4
 20
21.7
 11
154.4
 21
28.6274
  0
LINE
  8
0
 10
154.4
 20
28.6274
 11
154.361
 21
28.6427
  0
LINE
  8
0
 10
154.361
 20
28.6427
 11
154.196
 21
28.7335
  0
LINE
  8
0
 10
154.196
 20
28.7335
 11
154.044
 21
28.8442
  0
LINE
  8
0
 10
154.044
 20
28.8442
 11
153.907
 21
28.9732
  0
LINE
  8
0
 10
153.907
 20
28.9732
 11
153.786
 21
29.1183
  0
LINE
  8
0
 10
153.786
 20
29.1183
 11
153.686
 21
29.2774
  0
LINE
  8
0
 10
153.686
 20
29.2774
 11
153.605
 21
29.4478
  0
LINE
  8
0
 10
153.605
 20
29.4478
 11
153.547
 21
29.627
  0
LINE
  8
0
 10
153.547
 20
29.627
 11
153.512
 21
29.812
  0
LINE
  8
0
 10
153.512
 20
29.812
 11
153.5
 21
30
  0
LINE
  8
0
 10
153.5
 20
30
 11
153.512
 21
30.188
  0
LINE
  8
0
 10
153.512
 20
30.188
 11
153.547
 21
30.373
  0
LINE
  8
0
 10
153.547
 20
30.373
 11
153.605
 21
30.5522
  0
LINE
  8
0
 10
153.605
 20
30.5522
 11
153.686
 21
30.7226
  0
LINE
  8
0
 10
153.686
 20
30.7226
 11
153.786
 21
30.8817
  0
LINE
  8
0
 10
153.786
 20
30.8817
 11
153.907
 21
31.0268
  0
LINE
  8
0
 10
153.907
 20
31.0268
 11
154.044
 21
31.1558
  0
LINE
  8
0
 10
154.044
 20
31.1558
 11
154.196
 21
31.2665
  0
LINE
  8
0
 10
154.196
 20
31.2665
 11
154.361
 21
31.3572
  0
LINE
  8
0
 10
154.361
 20
31.3572
 11
154.4
 21
31.3725
  0
LINE
  8
0
 10
154.4
 20
31.3725
 11
154.4
 21
31.4
  0
LINE
  8
0
 10
154.4
 20
31.4
 11
150.4
 21
31.4
  0
LINE
  8
0
 10
150.4
 20
31.4
 11
150.4
 21
41.1
  0
LINE
  8
0
 10
150.4
 20
41.1
 11
154.4
 21
41.1
  0
LINE
  8
0
 10
154.4
 20
41.1
 11
154.4
 21
50.8
  0
LINE
  8
0
 10
154.4
 20
50.8
 11
150.4
 21
50.8
  0
LINE
  8
0
 10
150.4
 20
50.8
 11
150.4
 21
60.5
  0
LINE
  8
0
 10
150.4
 20
60.5
 11
154.4
 21
60.5
  0
LINE
  8
0
 10
154.4
 20
60.5
 11
154.4
 21
70.2
  0
LINE
  8
0
 10
154.4
 20
70.2
 11
150.4
 21
70.2
  0
LINE
  8
0
 10
150.4
 20
70.2
 11
150.4
 21
79.9
  0
LINE
  8
0
 10
150.4
 20
79.9
 11
154.4
 21
79.9
  0
LINE
  8
0
 10
154.4
 20
79.9
 11
154.4
 21
89.6
  0
LINE
  8
0
 10
154.4
 20
89.6
 11
150.4
 21
89.6
  0
LINE
  8
0
 10
150.4
 20
89.6
 11
150.4
 21
99.3
  0
LINE
  8
0
 10
150.4
 20
99.3
 11
154.4
 21
99.3
  0
LINE
  8
0
 10
154.4
 20
99.3
 11
154.4
 21
111.3
  0
LINE
  8
0
 10
154.4
 20
111.3
 11
142.4
 21
111.3
  0
LINE
  8
0
 10
142.4
 20
111.3
 11
142.4
 21
107.3
  0
LINE
  8
0
 10
142.4
 20
107.3
 11
133.707
 21
107.3
  0
LINE
  8
0
 10
133.707
 20
107.3
 11
133.707
 21
111.3
  0
LINE
  8
0
 10
133.707
 20
111.3
 11
125.013
 21
111.3
  0
LINE
  8
0
 10
125.013
 20
111.3
 11
125.013
 21
107.3
  0
LINE
  8
0
 10
125.013
 20
107.3
 11
116.32
 21
107.3
  0
LINE
  8
0
 10
116.32
 20
107.3
 11
116.32
 21
111.3
  0
LINE
  8
0
 10
116.32
 20
111.3
 11
107.627
 21
111.3
  0
LINE
  8
0
 10
107.627
 20
111.3
 11
107.627
 21
107.3
  0
LINE
  8
0
 10
107.627
 20
107.3
 11
98.9333
 21
107.3
  0
LINE
  8
0
 10
98.9333
 20
107.3
 11
98.9333
 21
111.3
  0
LINE
  8
0
 10
98.9333
 20
111.3
 11
90.24
 21
111.3
  0
LINE
  8
0
 10
90.24
 20
111.3
 11
90.24
 21
107.3
  0
LINE
  8
0
 10
90.24
 20
107.3
 11
81.5467
 21
107.3
  0
LINE
  8
0
 10
81.5467
 20
107.3
 11
81.5467
 21
111.3
  0
LINE
  8
0
 10
81.5467
 20
111.3
 11
72.8533
 21
111.3
  0
LINE
  8
0
 10
72.8533
 20
111.3
 11
72.8533
 21
107.3
  0
LINE
  8
0
 10
72.8533
 20
107.3
 11
64.16
 21
107.3
  0
LINE
  8
0
 10
64.16
 20
107.3
 11
64.16
 21
111.3
  0
LINE
  8
0
 10
64.16
 20
111.3
 11
55.4667
 21
111.3
  0
LINE
  8
0
 10
55.4667
 20
111.3
 11
55.4667
 21
107.3
  0
LINE
  8
0
 10
55.4667
 20
107.3
 11
46.7733
 21
107.3
  0
LINE
  8
0
 10
46.7733
 20
107.3
 11
46.7733
 21
111.3
  0
LINE
  8
0
 10
46.7733
 20
111.3
 11
38.08
 21
111.3
  0
LINE
  8
0
 10
38.08
 20
111.3
 11
38.08
 21
107.3
  0
LINE
  8
0
 10
38.08
 20
107.3
 11
29.3867
 21
107.3
  0
LINE
  8
0
 10
29.3867
 20
107.3
 11
29.3867
 21
111.3
  0
LINE
  8
0
 10
29.3867
 20
111.3
 11
20.6933
 21
111.3
  0
LINE
  8
0
 10
20.6933
 20
111.3
 11
20.6933
 21
107.3
  0
LINE
  8
0
 10
20.6933
 20
107.3
 11
12
 21
107.3
  0
LINE
  8
0
 10
12
 20
107.3
 11
12
 21
111.3
  0
LINE
  8
0
 10
12
 20
111.3
 11
0
 21
111.3
  0
LINE
  8
0
 10
0
 20
111.3
 11
0
 21
99.3
  0
LINE
  8
0
 10
0
 20
99.3
 11
3.99998
 21
99.3
  0
LINE
  8
0
 10
3.99998
 20
99.3
 11
3.99998
 21
89.6
  0
LINE
  8
0
 10
3.99998
 20
89.6
 11
0
 21
89.6
  0
LINE
  8
0
 10
0
 20
89.6
 11
0
 21
79.9
  0
LINE
  8
0
 10
0
 20
79.9
 11
3.99998
 21
79.9
  0
LINE
  8
0
 10
3.99998
 20
79.9
 11
3.99998
 21
70.2
  0
LINE
  8
0
 10
3.99998
 20
70.2
 11
0
 21
70.2
  0
LINE
  8
0
 10
0
 20
70.2
 11
0
 21
60.5
  0
LINE
  8
0
 10
0
 20
60.5
 11
3.99998
 21
60.5
  0
LINE
  8
0
 10
3.99998
 20
60.5
 11
4
 21
50.8
  0
LINE
  8
0
 10
4
 20
50.8
 11
0
 21
50.8
  0
LINE
  8
0
 10
0
 20
50.8
 11
0
 21
41.1
  0
LINE
  8
0
 10
0
 20
41.1
 11
4
 21
41.1
  0
LINE
  8
0
 10
4
 20
41.1
 11
4
 21
31.4
  0
LINE
  8
0
 10
4
 20
31.4
 11
0
 21
31.4
  0
LINE
  8
0
 10
0
 20
31.4
 11
0
 21
21.7
  0
LINE
  8
0
 10
0
 20
21.7
 11
4
 21
21.7
  0
LINE
  8
0
 10
4
 20
21.7
 11
4
 21
12
  0
LINE
  8
0
 10
4
 20
12
 11
0
 21
12
  0
LINE
  8
0
 10
0
 20
12
 11
0
 21
0
  0
LINE
  8
0
 10
0
 20
0
 11
12
 21
0
  0
LINE
  8
0
 10
12
 20
0
 11
12
 21
4
  0
LINE
  8
0
 10
104.906
 20
28.5029
 11
104.719
 21
28.5266
  0
LINE
  8
0
 10
104.719
 20
28.5266
 11
104.536
 21
28.5734
  0
LINE
  8
0
 10
104.536
 20
28.5734
 11
104.361
 21
28.6427
  0
LINE
  8
0
 10
104.361
 20
28.6427
 11
104.196
 21
28.7335
  0
LINE
  8
0
 10
104.196
 20
28.7335
 11
104.044
 21
28.8442
  0
LINE
  8
0
 10
104.044
 20
28.8442
 11
103.907
 21
28.9732
  0
LINE
  8
0
 10
103.907
 20
28.9732
 11
103.786
 21
29.1183
  0
LINE
  8
0
 10
103.786
 20
29.1183
 11
103.686
 21
29.2774
  0
LINE
  8
0
 10
103.686
 20
29.2774
 11
103.605
 21
29.4478
  0
LINE
  8
0
 10
103.605
 20
29.4478
 11
103.547
 21
29.627
  0
LINE
  8
0
 10
103.547
 20
29.627
 11
103.512
 21
29.812
  0
LINE
  8
0
 10
103.512
 20
29.812
 11
103.5
 21
30
  0
LINE
  8
0
 10
103.5
 20
30
 11
103.512
 21
30.188
  0
LINE
  8
0
 10
103.512
 20
30.188
 11
103.547
 21
30.373
  0
LINE
  8
0
 10
103.547
 20
30.373
 11
103.605
 21
30.5522
  0
LINE
  8
0
 10
103.605
 20
30.5522
 11
103.686
 21
30.7226
  0
LINE
  8
0
 10
103.686
 20
30.7226
 11
103.786
 21
30.8817
  0
LINE
  8
0
 10
103.786
 20
30.8817
 11
103.907
 21
31.0268
  0
LINE
  8
0
 10
103.907
 20
31.0268
 11
104.044
 21
31.1558
  0
LINE
  8
0
 10
104.044
 20
31.1558
 11
104.196
 21
31.2665
  0
LINE
  8
0
 10
104.196
 20
31.2665
 11
104.361
 21
31.3572
  0
LINE
  8
0
 10
104.361
 20
31.3572
 11
104.536
 21
31.4266
  0
LINE
  8
0
 10
104.536
 20
31.4266
 11
104.719
 21
31.4734
  0
LINE
  8
0
 10
104.719
 20
31.4734
 11
104.906
 21
31.497
  0
LINE
  8
0
 10
104.906
 20
31.497
 11
105.094
 21
31.497
  0
LINE
  8
0
 10
105.094
 20
31.497
 11
105.281
 21
31.4734
  0
LINE
  8
0
 10
105.281
 20
31.4734
 11
105.464
 21
31.4266
  0
LINE
  8
0
 10
105.464
 20
31.4266
 11
105.639
 21
31.3572
  0
LINE
  8
0
 10
105.639
 20
31.3572
 11
105.804
 21
31.2665
  0
LINE
  8
0
 10
105.804
 20
31.2665
 11
105.956
 21
31.1558
  0
LINE
  8
0
 10
105.956
 20
31.1558
 11
106.093
 21
31.0268
  0
LINE
  8
0
 10
106.093
 20
31.0268
 11
106.214
 21
30.8817
  0
LINE
  8
0
 10
106.214
 20
30.8817
 11
106.314
 21
30.7226
  0
LINE
  8
0
 10
106.314
 20
30.7226
 11
106.395
 21
30.5522
  0
LINE
  8
0
 10
106.395
 20
30.5522
 11
106.453
 21
30.373
  0
LINE
  8
0
 10
106.453
 20
30.373
 11
106.488
 21
30.188
  0
LINE
  8
0
 10
106.488
 20
30.188
 11
106.5
 21
30
  0
LINE
  8
0
 10
106.5
 20
30
 11
106.488
 21
29.812
  0
LINE
  8
0
 10
106.488
 20
29.812
 11
106.453
 21
29.627
  0
LINE
  8
0
 10
106.453
 20
29.627
 11
106.395
 21
29.4478
  0
LINE
  8
0
 10
106.395
 20
29.4478
 11
106.314
 21
29.2774
  0
LINE
  8
0
 10
106.314
 20
29.2774
 11
106.214
 21
29.1183
  0
LINE
  8
0
 10
106.214
 20
29.1183
 11
106.093
 21
28.9732
  0
LINE
  8
0
 10
106.093
 20
28.9732
 11
105.956
 21
28.8442
  0
LINE
  8
0
 10
105.956
 20
28.8442
 11
105.804
 21
28.7335
  0
LINE
  8
0
 10
105.804
 20
28.7335
 11
105.639
 21
28.6427
  0
LINE
  8
0
 10
105.639
 20
28.6427
 11
105.464
 21
28.5734
  0
LINE
  8
0
 10
105.464
 20
28.5734
 11
105.281
 21
28.5266
  0
LINE
  8
0
 10
105.281
 20
28.5266
 11
105.094
 21
28.5029
  0
LINE
  8
0
 10
105.094
 20
28.5029
 11
104.906
 21
28.5029
  0
LINE
  8
0
 10
324.82
 20
4
 11
333.02
 21
4
  0
LINE
  8
0
 10
333.02
 20
4
 11
333.02
 21
0
  0
LINE
  8
0
 10
333.02
 20
0
 11
341.22
 21
0
  0
LINE
  8
0
 10
341.22
 20
0
 11
341.22
 21
4
  0
LINE
  8
0
 10
341.22
 20
4
 11
349.42
 21
4
  0
LINE
  8
0
 10
349.42
 20
4
 11
349.42
 21
0
  0
LINE
  8
0
 10
349.42
 20
0
 11
357.62
 21
0
  0
LINE
  8
0
 10
357.62
 20
0
 11
357.62
 21
4
  0
LINE
  8
0
 10
357.62
 20
4
 11
365.82
 21
4
  0
LINE
  8
0
 10
365.82
 20
4
 11
365.82
 21
0
  0
LINE
  8
0
 10
365.82
 20
0
 11
374.02
 21
0
  0
LINE
  8
0
 10
374.02
 20
0
 11
374.02
 21
4
  0
LINE
  8
0
 10
374.02
 20
4
 11
382.22
 21
4
  0
LINE
  8
0
 10
382.22
 20
4
 11
382.22
 21
0
  0
LINE
  8
0
 10
382.22
 20
0
 11
390.42
 21
0
  0
LINE
  8
0
 10
390.42
 20
0
 11
390.42
 21
4
  0
LINE
  8
0
 10
390.42
 20
4
 11
398.62
 21
4
  0
LINE
  8
0
 10
398.62
 20
4
 11
398.62
 21
0
  0
LINE
  8
0
 10
398.62
 20
0
 11
406.82
 21
0
  0
LINE
  8
0
 10
406.82
 20
0
 11
406.82
 21
4
  0
LINE
  8
0
 10
406.82
 20
4
 11
415.02
 21
4
  0
LINE
  8
0
 10
415.02
 20
4
 11
415.02
 21
0
  0
LINE
  8
0
 10
415.02
 20
0
 11
423.22
 21
0
  0
LINE
  8
0
 10
423.22
 20
0
 11
423.22
 21
4
  0
LINE
  8
0
 10
423.22
 20
4
 11
431.42
 21
4
  0
LINE
  8
0
 10
431.42
 20
4
 11
431.42
 21
0
  0
LINE
  8
0
 10
431.42
 20
0
 11
439.62
 21
0
  0
LINE
  8
0
 10
439.62
 20
0
 11
439.62
 21
4
  0
LINE
  8
0
 10
439.62
 20
4
 11
447.82
 21
4
  0
LINE
  8
0
 10
447.82
 20
4
 11
447.82
 21
0
  0
LINE
  8
0
 10
447.82
 20
0
 11
456.02
 21
0
  0
LINE
  8
0
 10
456.02
 20
0
 11
456.02
 21
4
  0
LINE
  8
0
 10
456.02
 20
4
 11
464.22
 21
4
  0
LINE
  8
0
 10
464.22
 20
4
 11
464.22
 21
0
  0
LINE
  8
0
 10
464.22
 20
0
 11
476.22
 21
0
  0
LINE
  8
0
 10
476.22
 20
0
 11
476.22
 21
12
  0
LINE
  8
0
 10
476.22
 20
12
 11
480.22
 21
12
  0
LINE
  8
0
 10
480.22
 20
12
 11
480.22
 21
21.7
  0
LINE
  8
0
 10
480.22
 20
21.7
 11
476.22
 21
21.7
  0
LINE
  8
0
 10
476.22
 20
21.7
 11
476.22
 21
31.4
  0
LINE
  8
0
 10
476.22
 20
31.4
 11
480.22
 21
31.4
  0
LINE
  8
0
 10
480.22
 20
31.4
 11
480.22
 21
41.1
  0
LINE
  8
0
 10
480.22
 20
41.1
 11
476.22
 21
41.1
  0
LINE
  8
0
 10
476.22
 20
41.1
 11
476.22
 21
50.8
  0
LINE
  8
0
 10
476.22
 20
50.8
 11
480.22
 21
50.8
  0
LINE
  8
0
 10
480.22
 20
50.8
 11
480.22
 21
60.5
  0
LINE
  8
0
 10
480.22
 20
60.5
 11
476.22
 21
60.5
  0
LINE
  8
0
 10
476.22
 20
60.5
 11
476.22
 21
70.2
  0
LINE
  8
0
 10
476.22
 20
70.2
 11
480.22
 21
70.2
  0
LINE
  8
0
 10
480.22
 20
70.2
 11
480.22
 21
79.9
  0
LINE
  8
0
 10
480.22
 20
79.9
 11
476.22
 21
79.9
  0
LINE
  8
0
 10
476.22
 20
79.9
 11
476.22
 21
89.6
  0
LINE
  8
0
 10
476.22
 20
89.6
 11
480.22
 21
89.6
  0
LINE
  8
0
 10
480.22
 20
89.6
 11
480.22
 21
99.3
  0
LINE
  8
0
 10
480.22
 20
99.3
 11
476.22
 21
99.3
  0
LINE
  8
0
 10
476.22
 20
99.3
 11
476.22
 21
111.3
  0
LINE
  8
0
 10
476.22
 20
111.3
 11
464.22
 21
111.3
  0
LINE
  8
0
 10
464.22
 20
111.3
 11
464.22
 21
107.3
  0
LINE
  8
0
 10
464.22
 20
107.3
 11
456.02
 21
107.3
  0
LINE
  8
0
 10
456.02
 20
107.3
 11
456.02
 21
111.3
  0
LINE
  8
0
 10
456.02
 20
111.3
 11
447.82
 21
111.3
  0
LINE
  8
0
 10
447.82
 20
111.3
 11
447.82
 21
107.3
  0
LINE
  8
0
 10
447.82
 20
107.3
 11
439.62
 21
107.3
  0
LINE
  8
0
 10
439.62
 20
107.3
 11
439.62
 21
111.3
  0
LINE
  8
0
 10
439.62
 20
111.3
 11
431.42
 21
111.3
  0
LINE
  8
0
 10
431.42
 20
111.3
 11
431.42
 21
107.3
  0
LINE
  8
0
 10
431.42
 20
107.3
 11
423.22
 21
107.3
  0
LINE
  8
0
 10
423.22
 20
107.3
 11
423.22
 21
111.3
  0
LINE
  8
0
 10
423.22
 20
111.3
 11
415.02
 21
111.3
  0
LINE
  8
0
 10
415.02
 20
111.3
 11
415.02
 21
107.3
  0
LINE
  8
0
 10
415.02
 20
107.3
 11
406.82
 21
107.3
  0
LINE
  8
0
 10
406.82
 20
107.3
 11
406.82
 21
111.3
  0
LINE
  8
0
 10
406.82
 20
111.3
 11
398.62
 21
111.3
  0
LINE
  8
0
 10
398.62
 20
111.3
 11
398.62
 21
107.3
  0
LINE
  8
0
 10
398.62
 20
107.3
 11
390.42
 21
107.3
  0
LINE
  8
0
 10
390.42
 20
107.3
 11
390.42
 21
111.3
  0
LINE
  8
0
 10
390.42
 20
111.3
 11
382.22
 21
111.3
  0
LINE
  8
0
 10
382.22
 20
111.3
 11
382.22
 21
107.3
  0
LINE
  8
0
 10
382.22
 20
107.3
 11
374.02
 21
107.3
  0
LINE
  8
0
 10
374.02
 20
107.3
 11
374.02
 21
111.3
  0
LINE
  8
0
 10
374.02
 20
111.3
 11
365.82
 21
111.3
  0
LINE
  8
0
 10
365.82
 20
111.3
 11
365.82
 21
107.3
  0
LINE
  8
0
 10
365.82
 20
107.3
 11
357.62
 21
107.3
  0
LINE
  8
0
 10
357.62
 20
107.3
 11
357.62
 21
111.3
  0
LINE
  8
0
 10
357.62
 20
111.3
 11
349.42
 21
111.3
  0
LINE
  8
0
 10
349.42
 20
111.3
 11
349.42
 21
107.3
  0
LINE
  8
0
 10
349.42
 20
107.3
 11
341.22
 21
107.3
  0
LINE
  8
0
 10
341.22
 20
107.3
 11
341.22
 21
111.3
  0
LINE
  8
0
 10
341.22
 20
111.3
 11
333.02
 21
111.3
  0
LINE
  8
0
 10
333.02
 20
111.3
 11
333.02
 21
107.3
  0
LINE
  8
0
 10
333.02
 20
107.3
 11
324.82
 21
107.3
  0
LINE
  8
0
 10
324.82
 20
107.3
 11
324.82
 21
111.3
  0
LINE
  8
0
 10
324.82
 20
111.3
 11
312.82
 21
111.3
  0
LINE
  8
0
 10
312.82
 20
111.3
 11
312.82
 21
99.3
  0
LINE
  8
0
 10
312.82
 20
99.3
 11
308.82
 21
99.3
  0
LINE
  8
0
 10
308.82
 20
99.3
 11
308.82
 21
89.6
  0
LINE
  8
0
 10
308.82
 20
89.6
 11
312.82
 21
89.6
  0
LINE
  8
0
 10
312.82
 20
89.6
 11
312.82
 21
79.9
  0
LINE
  8
0
 10
312.82
 20
79.9
 11
308.82
 21
79.9
  0
LINE
  8
0
 10
308.82
 20
79.9
 11
308.82
 21
70.2
  0
LINE
  8
0
 10
308.82
 20
70.2
 11
312.82
 21
70.2
  0
LINE
  8
0
 10
312.82
 20
70.2
 11
312.82
 21
60.5
  0
LINE
  8
0
 10
312.82
 20
60.5
 11
308.82
 21
60.5
  0
LINE
  8
0
 10
308.82
 20
60.5
 11
308.82
 21
50.8
  0
LINE
  8
0
 10
308.82
 20
50.8
 11
312.82
 21
50.8
  0
LINE
  8
0
 10
312.82
 20
50.8
 11
312.82
 21
41.1
  0
LINE
  8
0
 10
312.82
 20
41.1
 11
308.82
 21
41.1
  0
LINE
  8
0
 10
308.82
 20
41.1
 11
308.82
 21
31.4
  0
LINE
  8
0
 10
308.82
 20
31.4
 11
312.82
 21
31.4
  0
LINE
  8
0
 10
312.82
 20
31.4
 11
312.82
 21
21.7
  0
LINE
  8
0
 10
312.82
 20
21.7
 11
308.82
 21
21.7
  0
LINE
  8
0
 10
308.82
 20
21.7
 11
308.82
 21
12
  0
LINE
  8
0
 10
308.82
 20
12
 11
312.82
 21
12
  0
LINE
  8
0
 10
312.82
 20
12
 11
312.82
 21
0
  0
LINE
  8
0
 10
312.82
 20
0
 11
324.82
 21
0
  0
LINE
  8
0
 10
324.82
 20
0
 11
324.82
 21
4
  0
LINE
  8
0
 10
496.23
 20
4
 11
504.43
 21
4
  0
LINE
  8
0
 10
504.43
 20
4
 11
504.43
 21
0
  0
LINE
  8
0
 10
504.43
 20
0
 11
512.63
 21
0
  0
LINE
  8
0
 10
512.63
 20
0
 11
512.63
 21
4
  0
LINE
  8
0
 10
512.63
 20
4
 11
520.83
 21
4
  0
LINE
  8
0
 10
520.83
 20
4
 11
520.83
 21
0
  0
LINE
  8
0
 10
520.83
 20
0
 11
529.03
 21
0
  0
LINE
  8
0
 10
529.03
 20
0
 11
529.03
 21
4
  0
LINE
  8
0
 10
529.03
 20
4
 11
537.23
 21
4
  0
LINE
  8
0
 10
537.23
 20
4
 11
537.23
 21
0
  0
LINE
  8
0
 10
537.23
 20
0
 11
545.43
 21
0
  0
LINE
  8
0
 10
545.43
 20
0
 11
545.43
 21
4
  0
LINE
  8
0
 10
545.43
 20
4
 11
553.63
 21
4
  0
LINE
  8
0
 10
553.63
 20
4
 11
553.63
 21
0
  0
LINE
  8
0
 10
553.63
 20
0
 11
561.83
 21
0
  0
LINE
  8
0
 10
561.83
 20
0
 11
561.83
 21
4
  0
LINE
  8
0
 10
561.83
 20
4
 11
570.03
 21
4
  0
LINE
  8
0
 10
570.03
 20
4
 11
570.03
 21
0
  0
LINE
  8
0
 10
570.03
 20
0
 11
578.23
 21
0
  0
LINE
  8
0
 10
578.23
 20
0
 11
578.23
 21
4
  0
LINE
  8
0
 10
578.23
 20
4
 11
586.43
 21
4
  0
LINE
  8
0
 10
586.43
 20
4
 11
586.43
 21
0
  0
LINE
  8
0
 10
586.43
 20
0
 11
594.63
 21
0
  0
LINE
  8
0
 10
594.63
 20
0
 11
594.63
 21
4
  0
LINE
  8
0
 10
594.63
 20
4
 11
602.83
 21
4
  0
LINE
  8
0
 10
602.83
 20
4
 11
602.83
 21
0
  0
LINE
  8
0
 10
602.83
 20
0
 11
611.03
 21
0
  0
LINE
  8
0
 10
611.03
 20
0
 11
611.03
 21
4
  0
LINE
  8
0
 10
611.03
 20
4
 11
619.23
 21
4
  0
LINE
  8
0
 10
619.23
 20
4
 11
619.23
 21
0
  0
LINE
  8
0
 10
619.23
 20
0
 11
627.43
 21
0
  0
LINE
  8
0
 10
627.43
 20
0
 11
627.43
 21
4
  0
LINE
  8
0
 10
627.43
 20
4
 11
635.63
 21
4
  0
LINE
  8
0
 10
635.63
 20
4
 11
635.63
 21
0
  0
LINE
  8
0
 10
635.63
 20
0
 11
647.63
 21
0
  0
LINE
  8
0
 10
647.63
 20
0
 11
647.63
 21
12
  0
LINE
  8
0
 10
647.63
 20
12
 11
651.63
 21
12
  0
LINE
  8
0
 10
651.63
 20
12
 11
651.63
 21
21.7
  0
LINE
  8
0
 10
651.63
 20
21.7
 11
647.63
 21
21.7
  0
LINE
  8
0
 10
647.63
 20
21.7
 11
647.63
 21
31.4
  0
LINE
  8
0
 10
647.63
 20
31.4
 11
651.63
 21
31.4
  0
LINE
  8
0
 10
651.63
 20
31.4
 11
651.63
 21
41.1
  0
LINE
  8
0
 10
651.63
 20
41.1
 11
647.63
 21
41.1
  0
LINE
  8
0
 10
647.63
 20
41.1
 11
647.63
 21
50.8
  0
LINE
  8
0
 10
647.63
 20
50.8
 11
651.63
 21
50.8
  0
LINE
  8
0
 10
651.63
 20
50.8
 11
651.63
 21
60.5
  0
LINE
  8
0
 10
651.63
 20
60.5
 11
647.63
 21
60.5
  0
LINE
  8
0
 10
647.63
 20
60.5
 11
647.63
 21
70.2
  0
LINE
  8
0
 10
647.63
 20
70.2
 11
651.63
 21
70.2
  0
LINE
  8
0
 10
651.63
 20
70.2
 11
651.63
 21
79.9
  0
LINE
  8
0
 10
651.63
 20
79.9
 11
647.63
 21
79.9
  0
LINE
  8
0
 10
647.63
 20
79.9
 11
647.63
 21
89.6
  0
LINE
  8
0
 10
647.63
 20
89.6
 11
651.63
 21
89.6
  0
LINE
  8
0
 10
651.63
 20
89.6
 11
651.63
 21
99.3
  0
LINE
  8
0
 10
651.63
 20
99.3
 11
647.63
 21
99.3
  0
LINE
  8
0
 10
647.63
 20
99.3
 11
647.63
 21
111.3
  0
LINE
  8
0
 10
647.63
 20
111.3
 11
635.63
 21
111.3
  0
LINE
  8
0
 10
635.63
 20
111.3
 11
635.63
 21
107.3
  0
LINE
  8
0
 10
635.63
 20
107.3
 11
627.43
 21
107.3
  0
LINE
  8
0
 10
627.43
 20
107.3
 11
627.43
 21
111.3
  0
LINE
  8
0
 10
627.43
 20
111.3
 11
619.23
 21
111.3
  0
LINE
  8
0
 10
619.23
 20
111.3
 11
619.23
 21
107.3
  0
LINE
  8
0
 10
619.23
 20
107.3
 11
611.03
 21
107.3
  0
LINE
  8
0
 10
611.03
 20
107.3
 11
611.03
 21
111.3
  0
LINE
  8
0
 10
611.03
 20
111.3
 11
602.83
 21
111.3
  0
LINE
  8
0
 10
602.83
 20
111.3
 11
602.83
 21
107.3
  0
LINE
  8
0
 10
602.83
 20
107.3
 11
594.63
 21
107.3
  0
LINE
  8
0
 10
594.63
 20
107.3
 11
594.63
 21
111.3
  0
LINE
  8
0
 10
594.63
 20
111.3
 11
586.43
 21
111.3
  0
LINE
  8
0
 10
586.43
 20
111.3
 11
586.43
 21
107.3
  0
LINE
  8
0
 10
586.43
 20
107.3
 11
578.23
 21
107.3
  0
LINE
  8
0
 10
578.23
 20
107.3
 11
578.23
 21
111.3
  0
LINE
  8
0
 10
578.23
 20
111.3
 11
570.03
 21
111.3
  0
LINE
  8
0
 10
570.03
 20
111.3
 11
570.03
 21
107.3
  0
LINE
  8
0
 10
570.03
 20
107.3
 11
561.83
 21
107.3
  0
LINE
  8
0
 10
561.83
 20
107.3
 11
561.83
 21
111.3
  0
LINE
  8
0
 10
561.83
 20
111.3
 11
553.63
 21
111.3
  0
LINE
  8
0
 10
553.63
 20
111.3
 11
553.63
 21
107.3
  0
LINE
  8
0
 10
553.63
 20
107.3
 11
545.43
 21
107.3
  0
LINE
  8
0
 10
545.43
 20
107.3
 11
545.43
 21
111.3
  0
LINE
  8
0
 10
545.43
 20
111.3
 11
537.23
 21
111.3
  0
LINE
  8
0
 10
537.23
 20
111.3
 11
537.23
 21
107.3
  0
LINE
  8
0
 10
537.23
 20
107.3
 11
529.03
 21
107.3
  0
LINE
  8
0
 10
529.03
 20
107.3
 11
529.03
 21
111.3
  0
LINE
  8
0
 10
529.03
 20
111.3
 11
520.83
 21
111.3
  0
LINE
  8
0
 10
520.83
 20
111.3
 11
520.83
 21
107.3
  0
LINE
  8
0
 10
520.83
 20
107.3
 11
512.63
 21
107.3
  0
LINE
  8
0
 10
512.63
 20
107.3
 11
512.63
 21
111.3
  0
LINE
  8
0
 10
512.63
 20
111.3
 11
504.43
 21
111.3
  0
LINE
  8
0
 10
504.43
 20
111.3
 11
504.43
 21
107.3
  0
LINE
  8
0
 10
504.43
 20
107.3
 11
496.23
 21
107.3
  0
LINE
  8
0
 10
496.23
 20
107.3
 11
496.23
 21
111.3
  0
LINE
  8
0
 10
496.23
 20
111.3
 11
484.23
 21
111.3
  0
LINE
  8
0
 10
484.23
 20
111.3
 11
484.23
 21
99.3
  0
LINE
  8
0
 10
484.23
 20
99.3
 11
480.23
 21
99.3
  0
LINE
  8
0
 10
480.23
 20
99.3
 11
480.23
 21
89.6
  0
LINE
  8
0
 10
480.23
 20
89.6
 11
484.23
 21
89.6
  0
LINE
  8
0
 10
484.23
 20
89.6
 11
484.23
 21
79.9
  0
LINE
  8
0
 10
484.23
 20
79.9
 11
480.23
 21
79.9
  0
LINE
  8
0
 10
480.23
 20
79.9
 11
480.23
 21
70.2
  0
LINE
  8
0
 10
480.23
 20
70.2
 11
484.23
 21
70.2
  0
LINE
  8
0
 10
484.23
 20
70.2
 11
484.23
 21
60.5
  0
LINE
  8
0
 10
484.23
 20
60.5
 11
480.23
 21
60.5
  0
LINE
  8
0
 10
480.23
 20
60.5
 11
480.23
 21
50.8
  0
LINE
  8
0
 10
480.23
 20
50.8
 11
484.23
 21
50.8
  0
LINE
  8
0
 10
484.23
 20
50.8
 11
484.23
 21
41.1
  0
LINE
  8
0
 10
484.23
 20
41.1
 11
480.23
 21
41.1
  0
LINE
  8
0
 10
480.23
 20
41.1
 11
480.23
 21
31.4
  0
LINE
  8
0
 10
480.23
 20
31.4
 11
484.23
 21
31.4
  0
LINE
  8
0
 10
484.23
 20
31.4
 11
484.23
 21
21.7
  0
LINE
  8
0
 10
484.23
 20
21.7
 11
480.23
 21
21.7
  0
LINE
  8
0
 10
480.23
 20
21.7
 11
480.23
 21
12
  0
LINE
  8
0
 10
480.23
 20
12
 11
484.23
 21
12
  0
LINE
  8
0
 10
484.23
 20
12
 11
484.23
 21
0
  0
LINE
  8
0
 10
484.23
 20
0
 11
496.23
 21
0
  0
LINE
  8
0
 10
496.23
 20
0
 11
496.23
 21
4
  0
ENDSEC
  0
SECTION
  2
OBJECTS
  0
DICTIONARY
  0
ENDSEC
  0
EOF
