<?xml version="1.0" encoding="UTF-8" standalone="no"?>
<!-- Created with Inkscape (http://www.inkscape.org/) -->

<svg
   width="117.34823mm"
   height="46.49543mm"
   viewBox="0 0 117.34823 46.49543"
   version="1.1"
   id="svg1836"
   xml:space="preserve"
   inkscape:version="1.2 (dc2aedaf03, 2022-05-15)"
   sodipodi:docname="bitraf logo text only.svg"
   xmlns:inkscape="http://www.inkscape.org/namespaces/inkscape"
   xmlns:sodipodi="http://sodipodi.sourceforge.net/DTD/sodipodi-0.dtd"
   xmlns="http://www.w3.org/2000/svg"
   xmlns:svg="http://www.w3.org/2000/svg"><sodipodi:namedview
     id="namedview1838"
     pagecolor="#ffffff"
     bordercolor="#000000"
     borderopacity="0.25"
     inkscape:showpageshadow="2"
     inkscape:pageopacity="0.0"
     inkscape:pagecheckerboard="0"
     inkscape:deskcolor="#d1d1d1"
     inkscape:document-units="mm"
     showgrid="false"
     inkscape:zoom="0.79285915"
     inkscape:cx="374.59365"
     inkscape:cy="178.46802"
     inkscape:window-width="1842"
     inkscape:window-height="1051"
     inkscape:window-x="69"
     inkscape:window-y="-9"
     inkscape:window-maximized="1"
     inkscape:current-layer="layer1" /><defs
     id="defs1833" /><g
     inkscape:label="Layer 1"
     inkscape:groupmode="layer"
     id="layer1"
     transform="translate(-1.339681,-1.93645)"><g
       aria-label="bitraf"
       id="text2039"
       style="font-weight:600;font-size:64.2202px;font-family:'Advent Pro';-inkscape-font-specification:'Advent Pro, Semi-Bold';fill:#f04a00;fill-opacity:1;stroke-width:3.03402;stroke-linecap:round;stroke-linejoin:round"
       inkscape:label="bitraf logo vector"
       transform="translate(-57.731461,-113.12697)"><path
         d="m 64.91518,129.19187 q 2.825688,-1.22019 5.972478,-1.22019 3.21101,0 6.42202,1.28441 5.458717,2.50458 5.458717,9.2477 v 12.13762 q 0,6.3578 -5.009175,8.92661 -3.788992,1.92661 -8.477067,1.92661 -4.688074,0 -10.211011,-0.77065 v -44.95414 h 5.844038 z m 0,6.03669 v 20.42203 q 1.798165,0.38532 3.788991,0.38532 1.990827,0 3.853212,-0.38532 1.926606,-0.44954 3.14679,-1.66973 1.284404,-1.2844 1.284404,-3.21101 v -10.91743 q 0,-2.76147 -1.477064,-4.30275 -1.669726,-1.73395 -5.009176,-1.73395 -3.33945,0 -5.587157,1.41284 z"
         id="path2404"
         style="fill:#f04a00;fill-opacity:1" /><path
         d="m 94.239736,118.33865 q 0,1.22019 -0.963303,2.24771 -0.963303,0.9633 -2.247707,0.9633 -1.220184,0 -2.247707,-0.9633 -0.963303,-1.02752 -0.963303,-2.24771 0,-1.2844 0.963303,-2.2477 1.027523,-0.96331 2.247707,-0.96331 1.284404,0 2.247707,0.96331 0.963303,0.9633 0.963303,2.2477 z m -0.385322,42.38533 h -5.844038 v -32.17432 h 5.844038 z"
         id="path2406"
         style="fill:#f04a00;fill-opacity:1" /><path
         d="m 110.66865,156.93499 -1.73394,4.62386 q -8.73395,-0.77065 -8.73395,-9.31193 v -36.47708 h 5.90826 v 12.77982 h 6.6789 l -1.54128,5.52294 h -5.13762 v 18.17432 q 0,4.04587 4.55963,4.68807 z"
         id="path2408"
         style="fill:#f04a00;fill-opacity:1" /><path
         d="m 123.29484,129.51297 q 2.88991,-1.47707 6.61468,-1.47707 1.15596,0 4.88074,0.70642 l -1.41285,5.58716 q -1.73394,-0.83486 -3.40367,-0.83486 -1.66972,0 -3.14679,0.51376 -3.46789,1.2844 -3.46789,4.49541 v 22.22019 h -5.84404 v -32.17432 h 5.52294 z"
         id="path2410"
         style="fill:#f04a00;fill-opacity:1" /><path
         d="m 142.11139,134.97168 q 5.58716,0 9.63303,2.56881 0,-5.3945 -7.9633,-5.3945 l 0.44954,-4.11009 q 5.20184,0 7.70642,1.22019 1.34863,0.70642 2.37615,1.41284 1.02752,0.70642 1.60551,1.86239 0.57798,1.15596 0.9633,2.05504 0.38532,0.83487 0.51376,2.31193 0.19266,2.24771 0.19266,4.68807 v 19.13762 q -6.6789,0.64221 -10.66055,0.64221 -14.06423,0 -14.06423,-11.49542 v -5.33028 q 0,-6.3578 4.4312,-8.54128 2.18348,-1.02753 4.81651,-1.02753 z m 9.63303,20.67891 v -12.26606 q -3.40367,-1.99083 -7.77064,-2.50459 -0.44954,-0.0642 -1.54129,-0.0642 -1.02752,0 -2.37614,0.9633 -1.34863,0.89909 -1.34863,3.40368 v 4.23853 q 0,6.61468 8.34863,6.61468 2.11926,0 4.68807,-0.38532 z"
         id="path2412"
         style="fill:#f04a00;fill-opacity:1" /><path
         d="m 169.54781,160.72398 h -5.90825 v -35.25689 q 0,-5.71559 2.95412,-8.02752 3.01835,-2.37615 6.16514,-2.37615 1.47707,0 3.66055,0.25688 l -0.9633,5.26606 q -0.77064,-0.19266 -1.86238,-0.19266 -1.02753,0 -2.24771,0.77064 -1.79817,1.02752 -1.79817,4.30275 v 3.08257 h 6.22936 l -1.54128,5.52294 h -4.68808 z"
         id="path2414"
         style="fill:#f04a00;fill-opacity:1" /></g></g></svg>
