<?xml version="1.0" standalone="no"?>
<!DOCTYPE svg PUBLIC "-//W3C//DTD SVG 1.1//EN" "http://www.w3.org/Graphics/SVG/1.1/DTD/svg11.dtd">
<svg width="14mm" height="64mm" viewBox="-6 -63 14 64" xmlns="http://www.w3.org/2000/svg" version="1.1">
<title>OpenSCAD Model</title>
<path d="
M 2,-62.1 L 0,-62.1 L 0,-61.9 L 2,-61.9 z
M 2,-61.1 L 0,-61.1 L 0,-60.9 L 2,-60.9 z
M 6.06329,-59.0166 L 6.25859,-59.1478 L 6.38167,-59.3546 L 6.4227,-59.6252 L 6.38387,-59.8761 L 6.2674,-60.0701
 L 6.08482,-60.1942 L 5.84766,-60.2355 L 5.70049,-60.2194 L 5.57097,-60.1711 L 5.46384,-60.0919 L 5.38382,-59.9833
 L 5.41246,-60.3086 L 5.49841,-60.5468 L 5.63658,-60.6928 L 5.82187,-60.7414 L 6.02193,-60.6831 L 6.13654,-60.5081
 L 6.36981,-60.5502 L 6.17722,-60.8421 L 5.82458,-60.9394 L 5.53401,-60.873 L 5.31871,-60.6736 L 5.18547,-60.3501
 L 5.14105,-59.9114 L 5.18378,-59.5076 L 5.31194,-59.2129 L 5.5208,-59.0329 L 5.80562,-58.9729 z
M 5.642,-59.2048 L 5.5174,-59.3106 L 5.43552,-59.4716 L 5.40823,-59.6727 L 5.43451,-59.8288 L 5.51334,-59.9473
 L 5.63489,-60.0221 L 5.78934,-60.047 L 5.95107,-60.0189 L 6.0728,-59.9344 L 6.14908,-59.7981 L 6.17451,-59.6144
 L 6.14941,-59.4291 L 6.07413,-59.2882 L 5.95479,-59.1992 L 5.79747,-59.1695 z
M 7.56703,-59.0359 L 7.77605,-59.2251 L 7.90269,-59.534 L 7.9449,-59.9561 L 7.90472,-60.3834 L 7.78418,-60.6912
 L 7.57924,-60.8774 L 7.28578,-60.9394 L 6.9852,-60.8781 L 6.77786,-60.694 L 6.65732,-60.3868 L 6.61714,-59.9561
 L 6.65851,-59.5323 L 6.78261,-59.2238 L 6.98909,-59.0356 L 7.27765,-58.9729 z
M 7.09268,-59.2194 L 6.96367,-59.3607 L 6.8889,-59.6039 L 6.86398,-59.9561 L 6.88857,-60.3162 L 6.96231,-60.5583
 L 7.09235,-60.6956 L 7.28578,-60.7414 L 7.47447,-60.695 L 7.6011,-60.5556 L 7.67282,-60.3129 L 7.69673,-59.9561
 L 7.67163,-59.6089 L 7.59636,-59.3648 L 7.46718,-59.2204 L 7.28035,-59.1722 z
M -3.43297,-59.0359 L -3.22395,-59.2251 L -3.09731,-59.534 L -3.0551,-59.9561 L -3.09528,-60.3834 L -3.21582,-60.6912
 L -3.42076,-60.8774 L -3.71422,-60.9394 L -4.0148,-60.8781 L -4.22214,-60.694 L -4.34268,-60.3868 L -4.38286,-59.9561
 L -4.34149,-59.5323 L -4.21739,-59.2238 L -4.01091,-59.0356 L -3.72235,-58.9729 z
M -3.90732,-59.2194 L -4.03633,-59.3607 L -4.1111,-59.6039 L -4.13602,-59.9561 L -4.11143,-60.3162 L -4.03769,-60.5583
 L -3.90765,-60.6956 L -3.71422,-60.7414 L -3.52553,-60.695 L -3.3989,-60.5556 L -3.32718,-60.3129 L -3.30327,-59.9561
 L -3.32837,-59.6089 L -3.40364,-59.3648 L -3.53282,-59.2204 L -3.71965,-59.1722 z
M -4.93671,-59.0166 L -4.74141,-59.1478 L -4.61833,-59.3546 L -4.5773,-59.6252 L -4.61613,-59.8761 L -4.7326,-60.0701
 L -4.91518,-60.1942 L -5.15234,-60.2355 L -5.29951,-60.2194 L -5.42903,-60.1711 L -5.53616,-60.0919 L -5.61618,-59.9833
 L -5.58754,-60.3086 L -5.50159,-60.5468 L -5.36342,-60.6928 L -5.17813,-60.7414 L -4.97807,-60.6831 L -4.86346,-60.5081
 L -4.63019,-60.5502 L -4.82278,-60.8421 L -5.17542,-60.9394 L -5.46599,-60.873 L -5.68129,-60.6736 L -5.81453,-60.3501
 L -5.85895,-59.9114 L -5.81622,-59.5076 L -5.68806,-59.2129 L -5.4792,-59.0329 L -5.19438,-58.9729 z
M -5.358,-59.2048 L -5.4826,-59.3106 L -5.56448,-59.4716 L -5.59177,-59.6727 L -5.56549,-59.8288 L -5.48666,-59.9473
 L -5.36511,-60.0221 L -5.21066,-60.047 L -5.04893,-60.0189 L -4.9272,-59.9344 L -4.85092,-59.7981 L -4.82549,-59.6144
 L -4.85059,-59.4291 L -4.92587,-59.2882 L -5.04521,-59.1992 L -5.20253,-59.1695 z
M 4,-60.2 L -2,-60.2 L -2,-59.8 L 4,-59.8 z
M 2,-59.1 L 0,-59.1 L 0,-58.9 L 2,-58.9 z
M 2,-58.1 L 0,-58.1 L 0,-57.9 L 2,-57.9 z
M 2,-57.1 L 0,-57.1 L 0,-56.9 L 2,-56.9 z
M 2,-56.1 L 0,-56.1 L 0,-55.9 L 2,-55.9 z
M 2,-55.1 L 0,-55.1 L 0,-54.9 L 2,-54.9 z
M 2,-54.1 L 0,-54.1 L 0,-53.9 L 2,-53.9 z
M 2,-53.1 L 0,-53.1 L 0,-52.9 L 2,-52.9 z
M 2,-52.1 L 0,-52.1 L 0,-51.9 L 2,-51.9 z
M 2,-51.1 L 0,-51.1 L 0,-50.9 L 2,-50.9 z
M -3.43297,-49.0359 L -3.22395,-49.2251 L -3.09731,-49.534 L -3.0551,-49.9561 L -3.09528,-50.3834 L -3.21582,-50.6912
 L -3.42076,-50.8774 L -3.71422,-50.9394 L -4.0148,-50.8781 L -4.22214,-50.694 L -4.34268,-50.3868 L -4.38286,-49.9561
 L -4.34149,-49.5323 L -4.21739,-49.2238 L -4.01091,-49.0356 L -3.72235,-48.9729 z
M -3.90732,-49.2194 L -4.03633,-49.3607 L -4.1111,-49.6039 L -4.13602,-49.9561 L -4.11143,-50.3162 L -4.03769,-50.5583
 L -3.90765,-50.6956 L -3.71422,-50.7414 L -3.52553,-50.695 L -3.3989,-50.5556 L -3.32718,-50.3129 L -3.30327,-49.9561
 L -3.32837,-49.6089 L -3.40364,-49.3648 L -3.53282,-49.2204 L -3.71965,-49.1722 z
M 7.56703,-49.0359 L 7.77605,-49.2251 L 7.90269,-49.534 L 7.9449,-49.9561 L 7.90472,-50.3834 L 7.78418,-50.6912
 L 7.57924,-50.8774 L 7.28578,-50.9394 L 6.9852,-50.8781 L 6.77786,-50.694 L 6.65732,-50.3868 L 6.61714,-49.9561
 L 6.65851,-49.5323 L 6.78261,-49.2238 L 6.98909,-49.0356 L 7.27765,-48.9729 z
M 7.09268,-49.2194 L 6.96367,-49.3607 L 6.8889,-49.6039 L 6.86398,-49.9561 L 6.88857,-50.3162 L 6.96231,-50.5583
 L 7.09235,-50.6956 L 7.28578,-50.7414 L 7.47447,-50.695 L 7.6011,-50.5556 L 7.67282,-50.3129 L 7.69673,-49.9561
 L 7.67163,-49.6089 L 7.59636,-49.3648 L 7.46718,-49.2204 L 7.28035,-49.1722 z
M -4.96605,-49.0163 L -4.75159,-49.1465 L -4.61679,-49.3523 L -4.57187,-49.6225 L -4.61374,-49.8632 L -4.73936,-50.0538
 L -4.93552,-50.1779 L -5.18896,-50.2193 L -5.40562,-50.1887 L -5.58365,-50.0972 L -5.54703,-50.7034 L -4.68309,-50.7034
 L -4.68309,-50.9109 L -5.76945,-50.9109 L -5.83319,-49.8829 L -5.59448,-49.8829 L -5.50905,-49.9467 L -5.42361,-49.9887
 L -5.33476,-50.0121 L -5.23915,-50.0199 L -5.06877,-49.9921 L -4.93739,-49.9087 L -4.85347,-49.7802 L -4.82549,-49.6171
 L -4.85329,-49.4318 L -4.93671,-49.2909 L -5.06929,-49.2019 L -5.24457,-49.1722 L -5.50395,-49.2431 L -5.64195,-49.4557
 L -5.88879,-49.4272 L -5.81522,-49.2323 L -5.68129,-49.0895 L -5.49142,-49.002 L -5.25,-48.9729 z
M 6.03395,-49.0163 L 6.24841,-49.1465 L 6.38321,-49.3523 L 6.42813,-49.6225 L 6.38626,-49.8632 L 6.26064,-50.0538
 L 6.06448,-50.1779 L 5.81104,-50.2193 L 5.59438,-50.1887 L 5.41635,-50.0972 L 5.45297,-50.7034 L 6.31691,-50.7034
 L 6.31691,-50.9109 L 5.23055,-50.9109 L 5.16681,-49.8829 L 5.40552,-49.8829 L 5.49095,-49.9467 L 5.57639,-49.9887
 L 5.66524,-50.0121 L 5.76085,-50.0199 L 5.93123,-49.9921 L 6.06261,-49.9087 L 6.14653,-49.7802 L 6.17451,-49.6171
 L 6.14671,-49.4318 L 6.06329,-49.2909 L 5.93071,-49.2019 L 5.75543,-49.1722 L 5.49605,-49.2431 L 5.35805,-49.4557
 L 5.11121,-49.4272 L 5.18478,-49.2323 L 5.31871,-49.0895 L 5.50858,-49.002 L 5.75,-48.9729 z
M 4,-50.2 L -2,-50.2 L -2,-49.8 L 4,-49.8 z
M 2,-49.1 L 0,-49.1 L 0,-48.9 L 2,-48.9 z
M 2,-48.1 L 0,-48.1 L 0,-47.9 L 2,-47.9 z
M 2,-47.1 L 0,-47.1 L 0,-46.9 L 2,-46.9 z
M 2,-46.1 L 0,-46.1 L 0,-45.9 L 2,-45.9 z
M 2,-45.1 L 0,-45.1 L 0,-44.9 L 2,-44.9 z
M 2,-44.1 L 0,-44.1 L 0,-43.9 L 2,-43.9 z
M 2,-43.1 L 0,-43.1 L 0,-42.9 L 2,-42.9 z
M 2,-42.1 L 0,-42.1 L 0,-41.9 L 2,-41.9 z
M 2,-41.1 L 0,-41.1 L 0,-40.9 L 2,-40.9 z
M 7.56703,-39.0359 L 7.77605,-39.2251 L 7.90269,-39.534 L 7.9449,-39.9561 L 7.90472,-40.3834 L 7.78418,-40.6912
 L 7.57924,-40.8774 L 7.28578,-40.9394 L 6.9852,-40.8781 L 6.77786,-40.694 L 6.65732,-40.3868 L 6.61714,-39.9561
 L 6.65851,-39.5323 L 6.78261,-39.2238 L 6.98909,-39.0356 L 7.27765,-38.9729 z
M 7.09268,-39.2194 L 6.96367,-39.3607 L 6.8889,-39.6039 L 6.86398,-39.9561 L 6.88857,-40.3162 L 6.96231,-40.5583
 L 7.09235,-40.6956 L 7.28578,-40.7414 L 7.47447,-40.695 L 7.6011,-40.5556 L 7.67282,-40.3129 L 7.69673,-39.9561
 L 7.67163,-39.6089 L 7.59636,-39.3648 L 7.46718,-39.2204 L 7.28035,-39.1722 z
M -3.43297,-39.0359 L -3.22395,-39.2251 L -3.09731,-39.534 L -3.0551,-39.9561 L -3.09528,-40.3834 L -3.21582,-40.6912
 L -3.42076,-40.8774 L -3.71422,-40.9394 L -4.0148,-40.8781 L -4.22214,-40.694 L -4.34268,-40.3868 L -4.38286,-39.9561
 L -4.34149,-39.5323 L -4.21739,-39.2238 L -4.01091,-39.0356 L -3.72235,-38.9729 z
M -3.90732,-39.2194 L -4.03633,-39.3607 L -4.1111,-39.6039 L -4.13602,-39.9561 L -4.11143,-40.3162 L -4.03769,-40.5583
 L -3.90765,-40.6956 L -3.71422,-40.7414 L -3.52553,-40.695 L -3.3989,-40.5556 L -3.32718,-40.3129 L -3.30327,-39.9561
 L -3.32837,-39.6089 L -3.40364,-39.3648 L -3.53282,-39.2204 L -3.71965,-39.1722 z
M -4.80515,-39.4326 L -4.53661,-39.4326 L -4.53661,-39.6252 L -4.80515,-39.6252 L -4.80515,-40.9109 L -5.06149,-40.9109
 L -5.93626,-39.6225 L -5.93626,-39.4326 L -5.03571,-39.4326 L -5.03571,-39 L -4.80515,-39 z
M -5.71112,-39.6252 L -5.68942,-39.6524 L -5.61618,-39.7527 L -5.12659,-40.4742 L -5.10454,-40.5095 L -5.07368,-40.5638
 L -5.04657,-40.6136 L -5.03571,-40.6356 L -5.03571,-39.6252 z
M 6.19485,-39.4326 L 6.46339,-39.4326 L 6.46339,-39.6252 L 6.19485,-39.6252 L 6.19485,-40.9109 L 5.93851,-40.9109
 L 5.06374,-39.6225 L 5.06374,-39.4326 L 5.96429,-39.4326 L 5.96429,-39 L 6.19485,-39 z
M 5.28888,-39.6252 L 5.31058,-39.6524 L 5.38382,-39.7527 L 5.87341,-40.4742 L 5.89546,-40.5095 L 5.92632,-40.5638
 L 5.95343,-40.6136 L 5.96429,-40.6356 L 5.96429,-39.6252 z
M 4,-40.2 L -2,-40.2 L -2,-39.8 L 4,-39.8 z
M 2,-39.1 L 0,-39.1 L 0,-38.9 L 2,-38.9 z
M 2,-38.1 L 0,-38.1 L 0,-37.9 L 2,-37.9 z
M 2,-37.1 L 0,-37.1 L 0,-36.9 L 2,-36.9 z
M 2,-36.1 L 0,-36.1 L 0,-35.9 L 2,-35.9 z
M 2,-35.1 L 0,-35.1 L 0,-34.9 L 2,-34.9 z
M 2,-34.1 L 0,-34.1 L 0,-33.9 L 2,-33.9 z
M 2,-33.1 L 0,-33.1 L 0,-32.9 L 2,-32.9 z
M 2,-32.1 L 0,-32.1 L 0,-31.9 L 2,-31.9 z
M 2,-31.1 L 0,-31.1 L 0,-30.9 L 2,-30.9 z
M 6.0504,-29.0092 L 6.25452,-29.118 L 6.38065,-29.293 L 6.4227,-29.5276 L 6.39285,-29.6951 L 6.30333,-29.8314
 L 6.16026,-29.9277 L 5.96971,-29.9751 L 5.96971,-29.9805 L 6.14178,-30.0397 L 6.26741,-30.1358 L 6.34421,-30.2676
 L 6.36981,-30.4335 L 6.32997,-30.646 L 6.21045,-30.8058 L 6.01904,-30.906 L 5.76355,-30.9394 L 5.52435,-30.9065
 L 5.33295,-30.8079 L 5.20055,-30.6505 L 5.13834,-30.4417 L 5.38382,-30.4227 L 5.42094,-30.5563 L 5.49977,-30.656
 L 5.61488,-30.718 L 5.76085,-30.7387 L 5.91664,-30.7165 L 6.02869,-30.6499 L 6.09634,-30.5449 L 6.1189,-30.4078
 L 6.09126,-30.27 L 6.00835,-30.1657 L 5.87529,-30.1001 L 5.69711,-30.0782 L 5.56419,-30.0782 L 5.56419,-29.8666
 L 5.70253,-29.8666 L 5.9024,-29.8448 L 6.04906,-29.7792 L 6.13907,-29.6745 L 6.16907,-29.5357 L 6.14279,-29.3787
 L 6.06395,-29.2658 L 5.93901,-29.1977 L 5.77441,-29.175 L 5.48656,-29.2597 L 5.35805,-29.514 L 5.10577,-29.491
 L 5.17342,-29.266 L 5.31125,-29.1038 L 5.5135,-29.0056 L 5.77441,-28.9729 z
M 7.56703,-29.0359 L 7.77605,-29.2251 L 7.90269,-29.534 L 7.9449,-29.9561 L 7.90472,-30.3834 L 7.78418,-30.6912
 L 7.57924,-30.8774 L 7.28578,-30.9394 L 6.9852,-30.8781 L 6.77786,-30.694 L 6.65732,-30.3868 L 6.61714,-29.9561
 L 6.65851,-29.5323 L 6.78261,-29.2238 L 6.98909,-29.0356 L 7.27765,-28.9729 z
M 7.09268,-29.2194 L 6.96367,-29.3607 L 6.8889,-29.6039 L 6.86398,-29.9561 L 6.88857,-30.3162 L 6.96231,-30.5583
 L 7.09235,-30.6956 L 7.28578,-30.7414 L 7.47447,-30.695 L 7.6011,-30.5556 L 7.67282,-30.3129 L 7.69673,-29.9561
 L 7.67163,-29.6089 L 7.59636,-29.3648 L 7.46718,-29.2204 L 7.28035,-29.1722 z
M -4.9496,-29.0092 L -4.74548,-29.118 L -4.61935,-29.293 L -4.5773,-29.5276 L -4.60715,-29.6951 L -4.69667,-29.8314
 L -4.83974,-29.9277 L -5.03029,-29.9751 L -5.03029,-29.9805 L -4.85822,-30.0397 L -4.73259,-30.1358 L -4.65579,-30.2676
 L -4.63019,-30.4335 L -4.67003,-30.646 L -4.78955,-30.8058 L -4.98096,-30.906 L -5.23645,-30.9394 L -5.47565,-30.9065
 L -5.66705,-30.8079 L -5.79945,-30.6505 L -5.86166,-30.4417 L -5.61618,-30.4227 L -5.57906,-30.5563 L -5.50023,-30.656
 L -5.38512,-30.718 L -5.23915,-30.7387 L -5.08336,-30.7165 L -4.97131,-30.6499 L -4.90366,-30.5449 L -4.8811,-30.4078
 L -4.90874,-30.27 L -4.99165,-30.1657 L -5.12471,-30.1001 L -5.30289,-30.0782 L -5.43581,-30.0782 L -5.43581,-29.8666
 L -5.29747,-29.8666 L -5.0976,-29.8448 L -4.95094,-29.7792 L -4.86093,-29.6745 L -4.83093,-29.5357 L -4.85721,-29.3787
 L -4.93605,-29.2658 L -5.06099,-29.1977 L -5.22559,-29.175 L -5.51344,-29.2597 L -5.64195,-29.514 L -5.89423,-29.491
 L -5.82658,-29.266 L -5.68875,-29.1038 L -5.4865,-29.0056 L -5.22559,-28.9729 z
M -3.43297,-29.0359 L -3.22395,-29.2251 L -3.09731,-29.534 L -3.0551,-29.9561 L -3.09528,-30.3834 L -3.21582,-30.6912
 L -3.42076,-30.8774 L -3.71422,-30.9394 L -4.0148,-30.8781 L -4.22214,-30.694 L -4.34268,-30.3868 L -4.38286,-29.9561
 L -4.34149,-29.5323 L -4.21739,-29.2238 L -4.01091,-29.0356 L -3.72235,-28.9729 z
M -3.90732,-29.2194 L -4.03633,-29.3607 L -4.1111,-29.6039 L -4.13602,-29.9561 L -4.11143,-30.3162 L -4.03769,-30.5583
 L -3.90765,-30.6956 L -3.71422,-30.7414 L -3.52553,-30.695 L -3.3989,-30.5556 L -3.32718,-30.3129 L -3.30327,-29.9561
 L -3.32837,-29.6089 L -3.40364,-29.3648 L -3.53282,-29.2204 L -3.71965,-29.1722 z
M 4,-30.2 L -2,-30.2 L -2,-29.8 L 4,-29.8 z
M 2,-29.1 L 0,-29.1 L 0,-28.9 L 2,-28.9 z
M 2,-28.1 L 0,-28.1 L 0,-27.9 L 2,-27.9 z
M 2,-27.1 L 0,-27.1 L 0,-26.9 L 2,-26.9 z
M 2,-26.1 L 0,-26.1 L 0,-25.9 L 2,-25.9 z
M 2,-25.1 L 0,-25.1 L 0,-24.9 L 2,-24.9 z
M 2,-24.1 L 0,-24.1 L 0,-23.9 L 2,-23.9 z
M 2,-23.1 L 0,-23.1 L 0,-22.9 L 2,-22.9 z
M 2,-22.1 L 0,-22.1 L 0,-21.9 L 2,-21.9 z
M 2,-21.1 L 0,-21.1 L 0,-20.9 L 2,-20.9 z
M 6.40508,-19.2075 L 5.40823,-19.2075 L 5.46179,-19.3043 L 5.54114,-19.4048 L 5.64929,-19.5135 L 5.78934,-19.6347
 L 6.02702,-19.8351 L 6.17316,-19.9751 L 6.26114,-20.085 L 6.32437,-20.1949 L 6.36252,-20.3051 L 6.37523,-20.4159
 L 6.33641,-20.6382 L 6.21992,-20.8031 L 6.03125,-20.9054 L 5.77577,-20.9394 L 5.53656,-20.9055 L 5.34515,-20.8038
 L 5.21275,-20.6448 L 5.15053,-20.439 L 5.40009,-20.4159 L 5.43857,-20.552 L 5.51875,-20.6539 L 5.63353,-20.7175
 L 5.77577,-20.7387 L 5.92191,-20.717 L 6.03209,-20.6519 L 6.10127,-20.5475 L 6.12433,-20.4078 L 6.11093,-20.2972
 L 6.07076,-20.1989 L 6.00887,-20.1087 L 5.93037,-20.0226 L 5.83832,-19.9385 L 5.73575,-19.8544 L 5.62743,-19.7668
 L 5.51807,-19.672 L 5.41077,-19.5679 L 5.30853,-19.4523 L 5.21648,-19.3216 L 5.13969,-19.1722 L 5.13969,-19
 L 6.40508,-19 z
M 7.56703,-19.0359 L 7.77605,-19.2251 L 7.90269,-19.534 L 7.9449,-19.9561 L 7.90472,-20.3834 L 7.78418,-20.6912
 L 7.57924,-20.8774 L 7.28578,-20.9394 L 6.9852,-20.8781 L 6.77786,-20.694 L 6.65732,-20.3868 L 6.61714,-19.9561
 L 6.65851,-19.5323 L 6.78261,-19.2238 L 6.98909,-19.0356 L 7.27765,-18.9729 z
M 7.09268,-19.2194 L 6.96367,-19.3607 L 6.8889,-19.6039 L 6.86398,-19.9561 L 6.88857,-20.3162 L 6.96231,-20.5583
 L 7.09235,-20.6956 L 7.28578,-20.7414 L 7.47447,-20.695 L 7.6011,-20.5556 L 7.67282,-20.3129 L 7.69673,-19.9561
 L 7.67163,-19.6089 L 7.59636,-19.3648 L 7.46718,-19.2204 L 7.28035,-19.1722 z
M -4.59492,-19.2075 L -5.59177,-19.2075 L -5.53821,-19.3043 L -5.45886,-19.4048 L -5.35071,-19.5135 L -5.21066,-19.6347
 L -4.97298,-19.8351 L -4.82684,-19.9751 L -4.73886,-20.085 L -4.67563,-20.1949 L -4.63748,-20.3051 L -4.62477,-20.4159
 L -4.66359,-20.6382 L -4.78008,-20.8031 L -4.96875,-20.9054 L -5.22423,-20.9394 L -5.46344,-20.9055 L -5.65485,-20.8038
 L -5.78725,-20.6448 L -5.84947,-20.439 L -5.59991,-20.4159 L -5.56143,-20.552 L -5.48125,-20.6539 L -5.36647,-20.7175
 L -5.22423,-20.7387 L -5.07809,-20.717 L -4.96791,-20.6519 L -4.89873,-20.5475 L -4.87567,-20.4078 L -4.88907,-20.2972
 L -4.92924,-20.1989 L -4.99113,-20.1087 L -5.06963,-20.0226 L -5.16168,-19.9385 L -5.26425,-19.8544 L -5.37257,-19.7668
 L -5.48193,-19.672 L -5.58923,-19.5679 L -5.69147,-19.4523 L -5.78352,-19.3216 L -5.86031,-19.1722 L -5.86031,-19
 L -4.59492,-19 z
M -3.43297,-19.0359 L -3.22395,-19.2251 L -3.09731,-19.534 L -3.0551,-19.9561 L -3.09528,-20.3834 L -3.21582,-20.6912
 L -3.42076,-20.8774 L -3.71422,-20.9394 L -4.0148,-20.8781 L -4.22214,-20.694 L -4.34268,-20.3868 L -4.38286,-19.9561
 L -4.34149,-19.5323 L -4.21739,-19.2238 L -4.01091,-19.0356 L -3.72235,-18.9729 z
M -3.90732,-19.2194 L -4.03633,-19.3607 L -4.1111,-19.6039 L -4.13602,-19.9561 L -4.11143,-20.3162 L -4.03769,-20.5583
 L -3.90765,-20.6956 L -3.71422,-20.7414 L -3.52553,-20.695 L -3.3989,-20.5556 L -3.32718,-20.3129 L -3.30327,-19.9561
 L -3.32837,-19.6089 L -3.40364,-19.3648 L -3.53282,-19.2204 L -3.71965,-19.1722 z
M 4,-20.2 L -2,-20.2 L -2,-19.8 L 4,-19.8 z
M 2,-19.1 L 0,-19.1 L 0,-18.9 L 2,-18.9 z
M 2,-18.1 L 0,-18.1 L 0,-17.9 L 2,-17.9 z
M 2,-17.1 L 0,-17.1 L 0,-16.9 L 2,-16.9 z
M 2,-16.1 L 0,-16.1 L 0,-15.9 L 2,-15.9 z
M 2,-15.1 L 0,-15.1 L 0,-14.9 L 2,-14.9 z
M 2,-14.1 L 0,-14.1 L 0,-13.9 L 2,-13.9 z
M 2,-13.1 L 0,-13.1 L 0,-12.9 L 2,-12.9 z
M 2,-12.1 L 0,-12.1 L 0,-11.9 L 2,-11.9 z
M 2,-11.1 L 0,-11.1 L 0,-10.9 L 2,-10.9 z
M 7.56703,-9.03593 L 7.77605,-9.22513 L 7.90269,-9.53401 L 7.9449,-9.95615 L 7.90472,-10.3834 L 7.78418,-10.6912
 L 7.57924,-10.8774 L 7.28578,-10.9394 L 6.9852,-10.8781 L 6.77786,-10.694 L 6.65732,-10.3868 L 6.61714,-9.95615
 L 6.65851,-9.53232 L 6.78261,-9.22377 L 6.98909,-9.0356 L 7.27765,-8.97289 z
M 7.09268,-9.21936 L 6.96367,-9.36075 L 6.8889,-9.60387 L 6.86398,-9.95615 L 6.88857,-10.3162 L 6.96231,-10.5583
 L 7.09235,-10.6956 L 7.28578,-10.7414 L 7.47447,-10.695 L 7.6011,-10.5556 L 7.67282,-10.3129 L 7.69673,-9.95615
 L 7.67163,-9.60895 L 7.59636,-9.36481 L 7.46718,-9.22038 L 7.28035,-9.17223 z
M -3.43297,-9.03593 L -3.22395,-9.22513 L -3.09731,-9.53401 L -3.0551,-9.95615 L -3.09528,-10.3834 L -3.21582,-10.6912
 L -3.42076,-10.8774 L -3.71422,-10.9394 L -4.0148,-10.8781 L -4.22214,-10.694 L -4.34268,-10.3868 L -4.38286,-9.95615
 L -4.34149,-9.53232 L -4.21739,-9.22377 L -4.01091,-9.0356 L -3.72235,-8.97289 z
M -3.90732,-9.21936 L -4.03633,-9.36075 L -4.1111,-9.60387 L -4.13602,-9.95615 L -4.11143,-10.3162 L -4.03769,-10.5583
 L -3.90765,-10.6956 L -3.71422,-10.7414 L -3.52553,-10.695 L -3.3989,-10.5556 L -3.32718,-10.3129 L -3.30327,-9.95615
 L -3.32837,-9.60895 L -3.40364,-9.36481 L -3.53282,-9.22038 L -3.71965,-9.17223 z
M 6.40913,-9.20749 L 5.94395,-9.20749 L 5.94395,-10.9109 L 5.71881,-10.9109 L 5.26717,-10.6004 L 5.26717,-10.3698
 L 5.69846,-10.6777 L 5.69846,-9.20749 L 5.21158,-9.20749 L 5.21158,-9 L 6.40913,-9 z
M -4.59087,-9.20749 L -5.05605,-9.20749 L -5.05605,-10.9109 L -5.28119,-10.9109 L -5.73283,-10.6004 L -5.73283,-10.3698
 L -5.30154,-10.6777 L -5.30154,-9.20749 L -5.78842,-9.20749 L -5.78842,-9 L -4.59087,-9 z
M 4,-10.2 L -2,-10.2 L -2,-9.79999 L 4,-9.79999 z
M 2,-9.09999 L 0,-9.09999 L 0,-8.89999 L 2,-8.89999 z
M 2,-8.09999 L 0,-8.09999 L 0,-7.89999 L 2,-7.89999 z
M 2,-7.09999 L 0,-7.09999 L 0,-6.89999 L 2,-6.89999 z
M 2,-6.09999 L 0,-6.09999 L 0,-5.89999 L 2,-5.89999 z
M 2,-5.09999 L 0,-5.09999 L 0,-4.89999 L 2,-4.89999 z
M 2,-4.09999 L 0,-4.09999 L 0,-3.89999 L 2,-3.89999 z
M 2,-3.09999 L 0,-3.09999 L 0,-2.89999 L 2,-2.89999 z
M 2,-2.09999 L 0,-2.09999 L 0,-1.89999 L 2,-1.89999 z
M 2,-1.09999 L 0,-1.09999 L 0,-0.899994 L 2,-0.899994 z
M 4,-0.199997 L -2,-0.199997 L -2,0.199997 L 4,0.199997 z
" stroke="black" fill="lightgray" stroke-width="0.5"/>
</svg>
