<?xml version="1.0" standalone="no"?>
<!DOCTYPE svg PUBLIC "-//W3C//DTD SVG 1.1//EN" "http://www.w3.org/Graphics/SVG/1.1/DTD/svg11.dtd">
<svg width="14mm" height="64mm" viewBox="-6 -63 14 64" xmlns="http://www.w3.org/2000/svg" version="1.1">
<title>OpenSCAD Model</title>
<path d="
M 4,-62.2 L -2,-62.2 L -2,-61.8 L 4,-61.8 z
M 2,-61.1 L 0,-61.1 L 0,-60.9 L 2,-60.9 z
M 2,-60.1 L 0,-60.1 L 0,-59.9 L 2,-59.9 z
M 2,-59.1 L 0,-59.1 L 0,-58.9 L 2,-58.9 z
M 2,-58.1 L 0,-58.1 L 0,-57.9 L 2,-57.9 z
M 2,-57.1 L 0,-57.1 L 0,-56.9 L 2,-56.9 z
M 2,-56.1 L 0,-56.1 L 0,-55.9 L 2,-55.9 z
M 2,-55.1 L 0,-55.1 L 0,-54.9 L 2,-54.9 z
M 2,-54.1 L 0,-54.1 L 0,-53.9 L 2,-53.9 z
M 2,-53.1 L 0,-53.1 L 0,-52.9 L 2,-52.9 z
M -3.43297,-51.0359 L -3.22395,-51.2251 L -3.09731,-51.534 L -3.0551,-51.9561 L -3.09528,-52.3834 L -3.21582,-52.6912
 L -3.42076,-52.8774 L -3.71422,-52.9394 L -4.0148,-52.8781 L -4.22214,-52.694 L -4.34268,-52.3868 L -4.38286,-51.9561
 L -4.34149,-51.5323 L -4.21739,-51.2238 L -4.01091,-51.0356 L -3.72235,-50.9729 z
M -3.90732,-51.2194 L -4.03633,-51.3607 L -4.1111,-51.6039 L -4.13602,-51.9561 L -4.11143,-52.3162 L -4.03769,-52.5583
 L -3.90765,-52.6956 L -3.71422,-52.7414 L -3.52553,-52.695 L -3.3989,-52.5556 L -3.32718,-52.3129 L -3.30327,-51.9561
 L -3.32837,-51.6089 L -3.40364,-51.3648 L -3.53282,-51.2204 L -3.71965,-51.1722 z
M 7.56703,-51.0359 L 7.77605,-51.2251 L 7.90269,-51.534 L 7.9449,-51.9561 L 7.90472,-52.3834 L 7.78418,-52.6912
 L 7.57924,-52.8774 L 7.28578,-52.9394 L 6.9852,-52.8781 L 6.77786,-52.694 L 6.65732,-52.3868 L 6.61714,-51.9561
 L 6.65851,-51.5323 L 6.78261,-51.2238 L 6.98909,-51.0356 L 7.27765,-50.9729 z
M 7.09268,-51.2194 L 6.96367,-51.3607 L 6.8889,-51.6039 L 6.86398,-51.9561 L 6.88857,-52.3162 L 6.96231,-52.5583
 L 7.09235,-52.6956 L 7.28578,-52.7414 L 7.47447,-52.695 L 7.6011,-52.5556 L 7.67282,-52.3129 L 7.69673,-51.9561
 L 7.67163,-51.6089 L 7.59636,-51.3648 L 7.46718,-51.2204 L 7.28035,-51.1722 z
M -4.59087,-51.2075 L -5.05605,-51.2075 L -5.05605,-52.9109 L -5.28119,-52.9109 L -5.73283,-52.6004 L -5.73283,-52.3698
 L -5.30154,-52.6777 L -5.30154,-51.2075 L -5.78842,-51.2075 L -5.78842,-51 L -4.59087,-51 z
M 6.40913,-51.2075 L 5.94395,-51.2075 L 5.94395,-52.9109 L 5.71881,-52.9109 L 5.26717,-52.6004 L 5.26717,-52.3698
 L 5.69846,-52.6777 L 5.69846,-51.2075 L 5.21158,-51.2075 L 5.21158,-51 L 6.40913,-51 z
M 4,-52.2 L -2,-52.2 L -2,-51.8 L 4,-51.8 z
M 2,-51.1 L 0,-51.1 L 0,-50.9 L 2,-50.9 z
M 2,-50.1 L 0,-50.1 L 0,-49.9 L 2,-49.9 z
M 2,-49.1 L 0,-49.1 L 0,-48.9 L 2,-48.9 z
M 2,-48.1 L 0,-48.1 L 0,-47.9 L 2,-47.9 z
M 2,-47.1 L 0,-47.1 L 0,-46.9 L 2,-46.9 z
M 2,-46.1 L 0,-46.1 L 0,-45.9 L 2,-45.9 z
M 2,-45.1 L 0,-45.1 L 0,-44.9 L 2,-44.9 z
M 2,-44.1 L 0,-44.1 L 0,-43.9 L 2,-43.9 z
M 2,-43.1 L 0,-43.1 L 0,-42.9 L 2,-42.9 z
M -3.43297,-41.0359 L -3.22395,-41.2251 L -3.09731,-41.534 L -3.0551,-41.9561 L -3.09528,-42.3834 L -3.21582,-42.6912
 L -3.42076,-42.8774 L -3.71422,-42.9394 L -4.0148,-42.8781 L -4.22214,-42.694 L -4.34268,-42.3868 L -4.38286,-41.9561
 L -4.34149,-41.5323 L -4.21739,-41.2238 L -4.01091,-41.0356 L -3.72235,-40.9729 z
M -3.90732,-41.2194 L -4.03633,-41.3607 L -4.1111,-41.6039 L -4.13602,-41.9561 L -4.11143,-42.3162 L -4.03769,-42.5583
 L -3.90765,-42.6956 L -3.71422,-42.7414 L -3.52553,-42.695 L -3.3989,-42.5556 L -3.32718,-42.3129 L -3.30327,-41.9561
 L -3.32837,-41.6089 L -3.40364,-41.3648 L -3.53282,-41.2204 L -3.71965,-41.1722 z
M -4.59492,-41.2075 L -5.59177,-41.2075 L -5.53821,-41.3043 L -5.45886,-41.4048 L -5.35071,-41.5135 L -5.21066,-41.6347
 L -4.97298,-41.8351 L -4.82684,-41.9751 L -4.73886,-42.085 L -4.67563,-42.1949 L -4.63748,-42.3051 L -4.62477,-42.4159
 L -4.66359,-42.6382 L -4.78008,-42.8031 L -4.96875,-42.9054 L -5.22423,-42.9394 L -5.46344,-42.9055 L -5.65485,-42.8038
 L -5.78725,-42.6448 L -5.84947,-42.439 L -5.59991,-42.4159 L -5.56143,-42.552 L -5.48125,-42.6539 L -5.36647,-42.7175
 L -5.22423,-42.7387 L -5.07809,-42.717 L -4.96791,-42.6519 L -4.89873,-42.5475 L -4.87567,-42.4078 L -4.88907,-42.2972
 L -4.92924,-42.1989 L -4.99113,-42.1087 L -5.06963,-42.0226 L -5.16168,-41.9385 L -5.26425,-41.8544 L -5.37257,-41.7668
 L -5.48193,-41.672 L -5.58923,-41.5679 L -5.69147,-41.4523 L -5.78352,-41.3216 L -5.86031,-41.1722 L -5.86031,-41
 L -4.59492,-41 z
M 7.56703,-41.0359 L 7.77605,-41.2251 L 7.90269,-41.534 L 7.9449,-41.9561 L 7.90472,-42.3834 L 7.78418,-42.6912
 L 7.57924,-42.8774 L 7.28578,-42.9394 L 6.9852,-42.8781 L 6.77786,-42.694 L 6.65732,-42.3868 L 6.61714,-41.9561
 L 6.65851,-41.5323 L 6.78261,-41.2238 L 6.98909,-41.0356 L 7.27765,-40.9729 z
M 7.09268,-41.2194 L 6.96367,-41.3607 L 6.8889,-41.6039 L 6.86398,-41.9561 L 6.88857,-42.3162 L 6.96231,-42.5583
 L 7.09235,-42.6956 L 7.28578,-42.7414 L 7.47447,-42.695 L 7.6011,-42.5556 L 7.67282,-42.3129 L 7.69673,-41.9561
 L 7.67163,-41.6089 L 7.59636,-41.3648 L 7.46718,-41.2204 L 7.28035,-41.1722 z
M 6.40508,-41.2075 L 5.40823,-41.2075 L 5.46179,-41.3043 L 5.54114,-41.4048 L 5.64929,-41.5135 L 5.78934,-41.6347
 L 6.02702,-41.8351 L 6.17316,-41.9751 L 6.26114,-42.085 L 6.32437,-42.1949 L 6.36252,-42.3051 L 6.37523,-42.4159
 L 6.33641,-42.6382 L 6.21992,-42.8031 L 6.03125,-42.9054 L 5.77577,-42.9394 L 5.53656,-42.9055 L 5.34515,-42.8038
 L 5.21275,-42.6448 L 5.15053,-42.439 L 5.40009,-42.4159 L 5.43857,-42.552 L 5.51875,-42.6539 L 5.63353,-42.7175
 L 5.77577,-42.7387 L 5.92191,-42.717 L 6.03209,-42.6519 L 6.10127,-42.5475 L 6.12433,-42.4078 L 6.11093,-42.2972
 L 6.07076,-42.1989 L 6.00887,-42.1087 L 5.93037,-42.0226 L 5.83832,-41.9385 L 5.73575,-41.8544 L 5.62743,-41.7668
 L 5.51807,-41.672 L 5.41077,-41.5679 L 5.30853,-41.4523 L 5.21648,-41.3216 L 5.13969,-41.1722 L 5.13969,-41
 L 6.40508,-41 z
M 4,-42.2 L -2,-42.2 L -2,-41.8 L 4,-41.8 z
M 2,-41.1 L 0,-41.1 L 0,-40.9 L 2,-40.9 z
M 2,-40.1 L 0,-40.1 L 0,-39.9 L 2,-39.9 z
M 2,-39.1 L 0,-39.1 L 0,-38.9 L 2,-38.9 z
M 2,-38.1 L 0,-38.1 L 0,-37.9 L 2,-37.9 z
M 2,-37.1 L 0,-37.1 L 0,-36.9 L 2,-36.9 z
M 2,-36.1 L 0,-36.1 L 0,-35.9 L 2,-35.9 z
M 2,-35.1 L 0,-35.1 L 0,-34.9 L 2,-34.9 z
M 2,-34.1 L 0,-34.1 L 0,-33.9 L 2,-33.9 z
M 2,-33.1 L 0,-33.1 L 0,-32.9 L 2,-32.9 z
M -4.9496,-31.0092 L -4.74548,-31.118 L -4.61935,-31.293 L -4.5773,-31.5276 L -4.60715,-31.6951 L -4.69667,-31.8314
 L -4.83974,-31.9277 L -5.03029,-31.9751 L -5.03029,-31.9805 L -4.85822,-32.0397 L -4.73259,-32.1358 L -4.65579,-32.2676
 L -4.63019,-32.4335 L -4.67003,-32.646 L -4.78955,-32.8058 L -4.98096,-32.906 L -5.23645,-32.9394 L -5.47565,-32.9065
 L -5.66705,-32.8079 L -5.79945,-32.6505 L -5.86166,-32.4417 L -5.61618,-32.4227 L -5.57906,-32.5563 L -5.50023,-32.656
 L -5.38512,-32.718 L -5.23915,-32.7387 L -5.08336,-32.7165 L -4.97131,-32.6499 L -4.90366,-32.5449 L -4.8811,-32.4078
 L -4.90874,-32.27 L -4.99165,-32.1657 L -5.12471,-32.1001 L -5.30289,-32.0782 L -5.43581,-32.0782 L -5.43581,-31.8666
 L -5.29747,-31.8666 L -5.0976,-31.8448 L -4.95094,-31.7792 L -4.86093,-31.6745 L -4.83093,-31.5357 L -4.85721,-31.3787
 L -4.93605,-31.2658 L -5.06099,-31.1977 L -5.22559,-31.175 L -5.51344,-31.2597 L -5.64195,-31.514 L -5.89423,-31.491
 L -5.82658,-31.266 L -5.68875,-31.1038 L -5.4865,-31.0056 L -5.22559,-30.9729 z
M 7.56703,-31.0359 L 7.77605,-31.2251 L 7.90269,-31.534 L 7.9449,-31.9561 L 7.90472,-32.3834 L 7.78418,-32.6912
 L 7.57924,-32.8774 L 7.28578,-32.9394 L 6.9852,-32.8781 L 6.77786,-32.694 L 6.65732,-32.3868 L 6.61714,-31.9561
 L 6.65851,-31.5323 L 6.78261,-31.2238 L 6.98909,-31.0356 L 7.27765,-30.9729 z
M 7.09268,-31.2194 L 6.96367,-31.3607 L 6.8889,-31.6039 L 6.86398,-31.9561 L 6.88857,-32.3162 L 6.96231,-32.5583
 L 7.09235,-32.6956 L 7.28578,-32.7414 L 7.47447,-32.695 L 7.6011,-32.5556 L 7.67282,-32.3129 L 7.69673,-31.9561
 L 7.67163,-31.6089 L 7.59636,-31.3648 L 7.46718,-31.2204 L 7.28035,-31.1722 z
M 6.0504,-31.0092 L 6.25452,-31.118 L 6.38065,-31.293 L 6.4227,-31.5276 L 6.39285,-31.6951 L 6.30333,-31.8314
 L 6.16026,-31.9277 L 5.96971,-31.9751 L 5.96971,-31.9805 L 6.14178,-32.0397 L 6.26741,-32.1358 L 6.34421,-32.2676
 L 6.36981,-32.4335 L 6.32997,-32.646 L 6.21045,-32.8058 L 6.01904,-32.906 L 5.76355,-32.9394 L 5.52435,-32.9065
 L 5.33295,-32.8079 L 5.20055,-32.6505 L 5.13834,-32.4417 L 5.38382,-32.4227 L 5.42094,-32.5563 L 5.49977,-32.656
 L 5.61488,-32.718 L 5.76085,-32.7387 L 5.91664,-32.7165 L 6.02869,-32.6499 L 6.09634,-32.5449 L 6.1189,-32.4078
 L 6.09126,-32.27 L 6.00835,-32.1657 L 5.87529,-32.1001 L 5.69711,-32.0782 L 5.56419,-32.0782 L 5.56419,-31.8666
 L 5.70253,-31.8666 L 5.9024,-31.8448 L 6.04906,-31.7792 L 6.13907,-31.6745 L 6.16907,-31.5357 L 6.14279,-31.3787
 L 6.06395,-31.2658 L 5.93901,-31.1977 L 5.77441,-31.175 L 5.48656,-31.2597 L 5.35805,-31.514 L 5.10577,-31.491
 L 5.17342,-31.266 L 5.31125,-31.1038 L 5.5135,-31.0056 L 5.77441,-30.9729 z
M -3.43297,-31.0359 L -3.22395,-31.2251 L -3.09731,-31.534 L -3.0551,-31.9561 L -3.09528,-32.3834 L -3.21582,-32.6912
 L -3.42076,-32.8774 L -3.71422,-32.9394 L -4.0148,-32.8781 L -4.22214,-32.694 L -4.34268,-32.3868 L -4.38286,-31.9561
 L -4.34149,-31.5323 L -4.21739,-31.2238 L -4.01091,-31.0356 L -3.72235,-30.9729 z
M -3.90732,-31.2194 L -4.03633,-31.3607 L -4.1111,-31.6039 L -4.13602,-31.9561 L -4.11143,-32.3162 L -4.03769,-32.5583
 L -3.90765,-32.6956 L -3.71422,-32.7414 L -3.52553,-32.695 L -3.3989,-32.5556 L -3.32718,-32.3129 L -3.30327,-31.9561
 L -3.32837,-31.6089 L -3.40364,-31.3648 L -3.53282,-31.2204 L -3.71965,-31.1722 z
M 4,-32.2 L -2,-32.2 L -2,-31.8 L 4,-31.8 z
M 2,-31.1 L 0,-31.1 L 0,-30.9 L 2,-30.9 z
M 2,-30.1 L 0,-30.1 L 0,-29.9 L 2,-29.9 z
M 2,-29.1 L 0,-29.1 L 0,-28.9 L 2,-28.9 z
M 2,-28.1 L 0,-28.1 L 0,-27.9 L 2,-27.9 z
M 2,-27.1 L 0,-27.1 L 0,-26.9 L 2,-26.9 z
M 2,-26.1 L 0,-26.1 L 0,-25.9 L 2,-25.9 z
M 2,-25.1 L 0,-25.1 L 0,-24.9 L 2,-24.9 z
M 2,-24.1 L 0,-24.1 L 0,-23.9 L 2,-23.9 z
M 2,-23.1 L 0,-23.1 L 0,-22.9 L 2,-22.9 z
M -3.43297,-21.0359 L -3.22395,-21.2251 L -3.09731,-21.534 L -3.0551,-21.9561 L -3.09528,-22.3834 L -3.21582,-22.6912
 L -3.42076,-22.8774 L -3.71422,-22.9394 L -4.0148,-22.8781 L -4.22214,-22.694 L -4.34268,-22.3868 L -4.38286,-21.9561
 L -4.34149,-21.5323 L -4.21739,-21.2238 L -4.01091,-21.0356 L -3.72235,-20.9729 z
M -3.90732,-21.2194 L -4.03633,-21.3607 L -4.1111,-21.6039 L -4.13602,-21.9561 L -4.11143,-22.3162 L -4.03769,-22.5583
 L -3.90765,-22.6956 L -3.71422,-22.7414 L -3.52553,-22.695 L -3.3989,-22.5556 L -3.32718,-22.3129 L -3.30327,-21.9561
 L -3.32837,-21.6089 L -3.40364,-21.3648 L -3.53282,-21.2204 L -3.71965,-21.1722 z
M 7.56703,-21.0359 L 7.77605,-21.2251 L 7.90269,-21.534 L 7.9449,-21.9561 L 7.90472,-22.3834 L 7.78418,-22.6912
 L 7.57924,-22.8774 L 7.28578,-22.9394 L 6.9852,-22.8781 L 6.77786,-22.694 L 6.65732,-22.3868 L 6.61714,-21.9561
 L 6.65851,-21.5323 L 6.78261,-21.2238 L 6.98909,-21.0356 L 7.27765,-20.9729 z
M 7.09268,-21.2194 L 6.96367,-21.3607 L 6.8889,-21.6039 L 6.86398,-21.9561 L 6.88857,-22.3162 L 6.96231,-22.5583
 L 7.09235,-22.6956 L 7.28578,-22.7414 L 7.47447,-22.695 L 7.6011,-22.5556 L 7.67282,-22.3129 L 7.69673,-21.9561
 L 7.67163,-21.6089 L 7.59636,-21.3648 L 7.46718,-21.2204 L 7.28035,-21.1722 z
M -4.80515,-21.4326 L -4.53661,-21.4326 L -4.53661,-21.6252 L -4.80515,-21.6252 L -4.80515,-22.9109 L -5.06149,-22.9109
 L -5.93626,-21.6225 L -5.93626,-21.4326 L -5.03571,-21.4326 L -5.03571,-21 L -4.80515,-21 z
M -5.71112,-21.6252 L -5.68942,-21.6524 L -5.61618,-21.7527 L -5.12659,-22.4742 L -5.10454,-22.5095 L -5.07368,-22.5638
 L -5.04657,-22.6136 L -5.03571,-22.6356 L -5.03571,-21.6252 z
M 6.19485,-21.4326 L 6.46339,-21.4326 L 6.46339,-21.6252 L 6.19485,-21.6252 L 6.19485,-22.9109 L 5.93851,-22.9109
 L 5.06374,-21.6225 L 5.06374,-21.4326 L 5.96429,-21.4326 L 5.96429,-21 L 6.19485,-21 z
M 5.28888,-21.6252 L 5.31058,-21.6524 L 5.38382,-21.7527 L 5.87341,-22.4742 L 5.89546,-22.5095 L 5.92632,-22.5638
 L 5.95343,-22.6136 L 5.96429,-22.6356 L 5.96429,-21.6252 z
M 4,-22.2 L -2,-22.2 L -2,-21.8 L 4,-21.8 z
M 2,-21.1 L 0,-21.1 L 0,-20.9 L 2,-20.9 z
M 2,-20.1 L 0,-20.1 L 0,-19.9 L 2,-19.9 z
M 2,-19.1 L 0,-19.1 L 0,-18.9 L 2,-18.9 z
M 2,-18.1 L 0,-18.1 L 0,-17.9 L 2,-17.9 z
M 2,-17.1 L 0,-17.1 L 0,-16.9 L 2,-16.9 z
M 2,-16.1 L 0,-16.1 L 0,-15.9 L 2,-15.9 z
M 2,-15.1 L 0,-15.1 L 0,-14.9 L 2,-14.9 z
M 2,-14.1 L 0,-14.1 L 0,-13.9 L 2,-13.9 z
M 2,-13.1 L 0,-13.1 L 0,-12.9 L 2,-12.9 z
M 7.56703,-11.0359 L 7.77605,-11.2251 L 7.90269,-11.534 L 7.9449,-11.9561 L 7.90472,-12.3834 L 7.78418,-12.6912
 L 7.57924,-12.8774 L 7.28578,-12.9394 L 6.9852,-12.8781 L 6.77786,-12.694 L 6.65732,-12.3868 L 6.61714,-11.9561
 L 6.65851,-11.5323 L 6.78261,-11.2238 L 6.98909,-11.0356 L 7.27765,-10.9729 z
M 7.09268,-11.2194 L 6.96367,-11.3607 L 6.8889,-11.6039 L 6.86398,-11.9561 L 6.88857,-12.3162 L 6.96231,-12.5583
 L 7.09235,-12.6956 L 7.28578,-12.7414 L 7.47447,-12.695 L 7.6011,-12.5556 L 7.67282,-12.3129 L 7.69673,-11.9561
 L 7.67163,-11.6089 L 7.59636,-11.3648 L 7.46718,-11.2204 L 7.28035,-11.1722 z
M -3.43297,-11.0359 L -3.22395,-11.2251 L -3.09731,-11.534 L -3.0551,-11.9561 L -3.09528,-12.3834 L -3.21582,-12.6912
 L -3.42076,-12.8774 L -3.71422,-12.9394 L -4.0148,-12.8781 L -4.22214,-12.694 L -4.34268,-12.3868 L -4.38286,-11.9561
 L -4.34149,-11.5323 L -4.21739,-11.2238 L -4.01091,-11.0356 L -3.72235,-10.9729 z
M -3.90732,-11.2194 L -4.03633,-11.3607 L -4.1111,-11.6039 L -4.13602,-11.9561 L -4.11143,-12.3162 L -4.03769,-12.5583
 L -3.90765,-12.6956 L -3.71422,-12.7414 L -3.52553,-12.695 L -3.3989,-12.5556 L -3.32718,-12.3129 L -3.30327,-11.9561
 L -3.32837,-11.6089 L -3.40364,-11.3648 L -3.53282,-11.2204 L -3.71965,-11.1722 z
M 6.03395,-11.0163 L 6.24841,-11.1465 L 6.38321,-11.3523 L 6.42813,-11.6225 L 6.38626,-11.8632 L 6.26064,-12.0538
 L 6.06448,-12.1779 L 5.81104,-12.2193 L 5.59438,-12.1887 L 5.41635,-12.0972 L 5.45297,-12.7034 L 6.31691,-12.7034
 L 6.31691,-12.9109 L 5.23055,-12.9109 L 5.16681,-11.8829 L 5.40552,-11.8829 L 5.49095,-11.9467 L 5.57639,-11.9887
 L 5.66524,-12.0121 L 5.76085,-12.0199 L 5.93123,-11.9921 L 6.06261,-11.9087 L 6.14653,-11.7802 L 6.17451,-11.6171
 L 6.14671,-11.4318 L 6.06329,-11.2909 L 5.93071,-11.2019 L 5.75543,-11.1722 L 5.49605,-11.2431 L 5.35805,-11.4557
 L 5.11121,-11.4272 L 5.18478,-11.2323 L 5.31871,-11.0895 L 5.50858,-11.002 L 5.75,-10.9729 z
M -4.96605,-11.0163 L -4.75159,-11.1465 L -4.61679,-11.3523 L -4.57187,-11.6225 L -4.61374,-11.8632 L -4.73936,-12.0538
 L -4.93552,-12.1779 L -5.18896,-12.2193 L -5.40562,-12.1887 L -5.58365,-12.0972 L -5.54703,-12.7034 L -4.68309,-12.7034
 L -4.68309,-12.9109 L -5.76945,-12.9109 L -5.83319,-11.8829 L -5.59448,-11.8829 L -5.50905,-11.9467 L -5.42361,-11.9887
 L -5.33476,-12.0121 L -5.23915,-12.0199 L -5.06877,-11.9921 L -4.93739,-11.9087 L -4.85347,-11.7802 L -4.82549,-11.6171
 L -4.85329,-11.4318 L -4.93671,-11.2909 L -5.06929,-11.2019 L -5.24457,-11.1722 L -5.50395,-11.2431 L -5.64195,-11.4557
 L -5.88879,-11.4272 L -5.81522,-11.2323 L -5.68129,-11.0895 L -5.49142,-11.002 L -5.25,-10.9729 z
M 4,-12.2 L -2,-12.2 L -2,-11.8 L 4,-11.8 z
M 2,-11.1 L 0,-11.1 L 0,-10.9 L 2,-10.9 z
M 2,-10.1 L 0,-10.1 L 0,-9.89999 L 2,-9.89999 z
M 2,-9.09999 L 0,-9.09999 L 0,-8.89999 L 2,-8.89999 z
M 2,-8.09999 L 0,-8.09999 L 0,-7.89999 L 2,-7.89999 z
M 2,-7.09999 L 0,-7.09999 L 0,-6.89999 L 2,-6.89999 z
M 2,-6.09999 L 0,-6.09999 L 0,-5.89999 L 2,-5.89999 z
M 2,-5.09999 L 0,-5.09999 L 0,-4.89999 L 2,-4.89999 z
M 2,-4.09999 L 0,-4.09999 L 0,-3.89999 L 2,-3.89999 z
M 2,-3.09999 L 0,-3.09999 L 0,-2.89999 L 2,-2.89999 z
M 6.06329,-1.0166 L 6.25859,-1.14781 L 6.38167,-1.35464 L 6.4227,-1.62523 L 6.38387,-1.87613 L 6.2674,-2.07007
 L 6.08482,-2.19417 L 5.84766,-2.23553 L 5.70049,-2.21942 L 5.57097,-2.17111 L 5.46384,-2.09195 L 5.38382,-1.98328
 L 5.41246,-2.30861 L 5.49841,-2.5468 L 5.63658,-2.69276 L 5.82187,-2.74141 L 6.02193,-2.68309 L 6.13654,-2.50815
 L 6.36981,-2.55019 L 6.17722,-2.84212 L 5.82458,-2.93944 L 5.53401,-2.87297 L 5.31871,-2.6736 L 5.18547,-2.35013
 L 5.14105,-1.91139 L 5.18378,-1.50757 L 5.31194,-1.21291 L 5.5208,-1.03288 L 5.80562,-0.972885 z
M 5.642,-1.20479 L 5.5174,-1.31058 L 5.43552,-1.47163 L 5.40823,-1.6727 L 5.43451,-1.82883 L 5.51334,-1.94733
 L 5.63489,-2.02209 L 5.78934,-2.04701 L 5.95107,-2.01886 L 6.0728,-1.93443 L 6.14908,-1.79814 L 6.17451,-1.61438
 L 6.14941,-1.42908 L 6.07413,-1.28819 L 5.95479,-1.1992 L 5.79747,-1.16953 z
M 7.56703,-1.03593 L 7.77605,-1.22513 L 7.90269,-1.53401 L 7.9449,-1.95615 L 7.90472,-2.38338 L 7.78418,-2.69124
 L 7.57924,-2.87738 L 7.28578,-2.93944 L 6.9852,-2.87807 L 6.77786,-2.69395 L 6.65732,-2.38676 L 6.61714,-1.95615
 L 6.65851,-1.53232 L 6.78261,-1.22377 L 6.98909,-1.0356 L 7.27765,-0.972885 z
M 7.09268,-1.21936 L 6.96367,-1.36075 L 6.8889,-1.60387 L 6.86398,-1.95615 L 6.88857,-2.31624 L 6.96231,-2.55832
 L 7.09235,-2.69563 L 7.28578,-2.74141 L 7.47447,-2.69496 L 7.6011,-2.55562 L 7.67282,-2.31285 L 7.69673,-1.95615
 L 7.67163,-1.60895 L 7.59636,-1.36481 L 7.46718,-1.22038 L 7.28035,-1.17223 z
M -4.93671,-1.0166 L -4.74141,-1.14781 L -4.61833,-1.35464 L -4.5773,-1.62523 L -4.61613,-1.87613 L -4.7326,-2.07007
 L -4.91518,-2.19417 L -5.15234,-2.23553 L -5.29951,-2.21942 L -5.42903,-2.17111 L -5.53616,-2.09195 L -5.61618,-1.98328
 L -5.58754,-2.30861 L -5.50159,-2.5468 L -5.36342,-2.69276 L -5.17813,-2.74141 L -4.97807,-2.68309 L -4.86346,-2.50815
 L -4.63019,-2.55019 L -4.82278,-2.84212 L -5.17542,-2.93944 L -5.46599,-2.87297 L -5.68129,-2.6736 L -5.81453,-2.35013
 L -5.85895,-1.91139 L -5.81622,-1.50757 L -5.68806,-1.21291 L -5.4792,-1.03288 L -5.19438,-0.972885 z
M -5.358,-1.20479 L -5.4826,-1.31058 L -5.56448,-1.47163 L -5.59177,-1.6727 L -5.56549,-1.82883 L -5.48666,-1.94733
 L -5.36511,-2.02209 L -5.21066,-2.04701 L -5.04893,-2.01886 L -4.9272,-1.93443 L -4.85092,-1.79814 L -4.82549,-1.61438
 L -4.85059,-1.42908 L -4.92587,-1.28819 L -5.04521,-1.1992 L -5.20253,-1.16953 z
M -3.43297,-1.03593 L -3.22395,-1.22513 L -3.09731,-1.53401 L -3.0551,-1.95615 L -3.09528,-2.38338 L -3.21582,-2.69124
 L -3.42076,-2.87738 L -3.71422,-2.93944 L -4.0148,-2.87807 L -4.22214,-2.69395 L -4.34268,-2.38676 L -4.38286,-1.95615
 L -4.34149,-1.53232 L -4.21739,-1.22377 L -4.01091,-1.0356 L -3.72235,-0.972885 z
M -3.90732,-1.21936 L -4.03633,-1.36075 L -4.1111,-1.60387 L -4.13602,-1.95615 L -4.11143,-2.31624 L -4.03769,-2.55832
 L -3.90765,-2.69563 L -3.71422,-2.74141 L -3.52553,-2.69496 L -3.3989,-2.55562 L -3.32718,-2.31285 L -3.30327,-1.95615
 L -3.32837,-1.60895 L -3.40364,-1.36481 L -3.53282,-1.22038 L -3.71965,-1.17223 z
M 4,-2.2 L -2,-2.2 L -2,-1.79999 L 4,-1.79999 z
M 2,-1.09999 L 0,-1.09999 L 0,-0.899994 L 2,-0.899994 z
M 2,-0.0999908 L 0,-0.0999908 L 0,0.0999908 L 2,0.0999908 z
" stroke="black" fill="lightgray" stroke-width="0.5"/>
</svg>
