<?xml version="1.0" encoding="UTF-8" standalone="no"?>
<!-- Created with Inkscape (http://www.inkscape.org/) -->

<svg
   width="210mm"
   height="297mm"
   viewBox="0 0 210 297"
   version="1.1"
   id="svg1"
   inkscape:export-filename="/Users/roysk/Nextcloud/Inkscape/epoxy-organizer.svg"
   inkscape:export-xdpi="96"
   inkscape:export-ydpi="96"
   inkscape:version="1.4 (e7c3feb1, 2024-10-09)"
   sodipodi:docname="kaffe1.svg"
   xmlns:inkscape="http://www.inkscape.org/namespaces/inkscape"
   xmlns:sodipodi="http://sodipodi.sourceforge.net/DTD/sodipodi-0.dtd"
   xmlns="http://www.w3.org/2000/svg"
   xmlns:svg="http://www.w3.org/2000/svg">
  <sodipodi:namedview
     id="namedview1"
     pagecolor="#505050"
     bordercolor="#ffffff"
     borderopacity="1"
     inkscape:showpageshadow="0"
     inkscape:pageopacity="0"
     inkscape:pagecheckerboard="1"
     inkscape:deskcolor="#505050"
     inkscape:document-units="mm"
     inkscape:zoom="0.66457632"
     inkscape:cx="396.49321"
     inkscape:cy="561.25984"
     inkscape:current-layer="layer1" />
  <defs
     id="defs1" />
  <g
     inkscape:label="Layer 1"
     inkscape:groupmode="layer"
     id="layer1">
    <path
       d="m 15.1782,74.776801 q -0.566212,0.566212 -2.23911,0.566212 -0.540475,0 -1.235371,-0.102948 -0.66916,-0.07721 -1.518477,-0.205895 -0.8493182,-0.102948 -1.8787942,-0.205895 -1.029476,-0.07721 -2.2905842,-0.07721 -0.3345797,0 -1.0037391,0 -0.6434225,0.02574 -1.3640557,0.02574 -0.7206332,0.02574 -1.3640557,0.02574 -0.6434225,0.02574 -0.9522653,0.02574 -0.051474,-0.591949 -0.077211,-1.261108 -0.025737,-0.694897 -0.025737,-1.49274 0,-2.367795 0.051474,-3.628903 0.077211,-1.261109 0.077211,-1.41553 0,-2.419269 -0.3345797,-4.478221 Q 0.71406218,60.467084 0.09637657,58.665501 L 1.1258526,58.047816 q 2.6509007,0.41179 5.1988539,0.617685 2.57369,0.205896 5.1473805,0.205896 0.334579,0.231632 0.334579,1.132423 l -0.05147,0.591949 q -0.720633,0.566212 -2.0589516,0.566212 -0.3603166,0 -1.1066867,-0.102948 Q 7.8689205,60.956086 7.0453397,60.853138 6.2474958,60.724453 5.5011256,60.621506 4.7804924,60.518558 4.4201758,60.518558 q -1.801583,0 -1.801583,1.544214 0,0.900792 0.5404749,2.290584 1.1581605,0.694897 3.1399019,0.694897 0.1544214,0 0.4632642,0 0.3088428,0 0.6434225,0 0.3345797,-0.02574 0.6176856,-0.02574 0.3088428,0 0.4632642,0 1.4412664,0 2.0846889,0.566212 0.669159,0.540475 0.669159,1.981741 -0.463264,0.128684 -1.080949,0.128684 -2.6509011,0 -6.2283303,-0.720633 -0.9265284,1.981742 -0.9265284,3.32006 0,3.165639 6.1253823,3.165639 0.2831059,0 0.8235808,-0.02574 0.5662116,-0.02574 1.1838976,-0.02574 0.643422,-0.02574 1.209634,-0.02574 0.591949,-0.02574 0.952265,-0.02574 l 1.518478,0.02574 q 0.334579,0.411791 0.360316,1.389793 z M 29.43644,63.092248 q 0,2.753849 -2.1619,3.551693 -0.308843,0.128684 -1.441266,0.334579 -1.132424,0.180159 -3.088428,0.386054 -2.882533,0.334579 -4.040694,1.698635 -0.02574,0.205895 -0.05147,0.437528 0,0.231632 0,0.514738 0,0.283105 0.02574,0.849317 0.05147,0.540475 0.07721,1.158161 0.05147,0.617685 0.07721,1.183897 0.05147,0.540475 0.05147,0.797844 0,2.23911 -0.978003,2.98548 h -0.334579 q -0.437528,0 -0.823581,-0.102947 -0.386054,-0.07721 -0.797844,-0.283106 v -0.231632 q 0,-0.437527 0.07721,-1.235371 0.07721,-0.772107 0.205895,-1.698636 0.128684,-0.952265 0.257369,-1.956004 0.128684,-1.029476 0.257369,-1.956005 0.128684,-0.952265 0.205895,-1.698635 0.07721,-0.772107 0.07721,-1.183897 0,-0.772107 -0.283106,-1.981742 -0.257369,-1.209634 -0.591949,-2.445005 -0.33458,-1.261108 -0.617685,-2.342058 -0.257369,-1.106687 -0.257369,-1.672899 l 0.07721,-0.849317 5.224591,0.205895 q 3.628903,0.283106 5.713592,1.389792 2.110426,1.106687 3.114165,3.345797 0.02574,0.05147 0.02574,0.797844 z m -3.139902,0.231632 q 0,-0.875054 -0.205895,-1.49274 -0.180159,-0.617685 -0.643423,-1.029476 -0.463264,-0.437527 -1.209634,-0.669159 -0.74637,-0.257369 -1.853057,-0.360317 -1.364056,-0.128684 -2.136163,-0.180158 -0.74637,-0.07721 -0.900791,-0.128685 -1.003739,1.003739 -1.003739,3.062692 0,1.930267 0.669159,2.856795 0.102948,0 0.566212,0.05147 0.489001,0.05147 1.08095,0.102948 0.617685,0.02574 1.235371,0.07721 0.643422,0.02574 1.029476,0.02574 1.878794,0 2.625164,-0.514738 0.74637,-0.514738 0.74637,-1.801583 z m 11.118363,10.474919 q -1.441267,0 -2.779586,-0.591949 -1.338318,-0.591949 -2.393531,-1.544214 -1.055213,-0.978002 -1.698636,-2.23911 -0.617685,-1.261108 -0.617685,-2.625164 0,-3.011217 3.114165,-6.048172 3.114164,-3.062691 6.151119,-3.062691 1.364055,0 2.522216,0.66916 1.183897,0.643422 2.033215,1.750109 0.849318,1.08095 1.338319,2.547953 0.489001,1.441266 0.489001,3.036954 0,1.750109 -0.617686,3.24285 -0.617685,1.49274 -1.698635,2.57369 -1.08095,1.08095 -2.57369,1.698635 -1.49274,0.591949 -3.268586,0.591949 z m 0,-13.434662 q -1.106687,0.437527 -2.1619,1.209634 -1.055213,0.74637 -1.904531,1.647162 -0.82358,0.875054 -1.338318,1.853057 -0.489002,0.952265 -0.489002,1.801583 0,0.926528 0.540475,1.82732 0.540475,0.875054 1.338319,1.595687 0.823581,0.720634 1.801583,1.158161 0.978002,0.437527 1.853057,0.437527 0.797844,0 1.312582,-0.334579 h 0.360317 q 1.029476,0 2.007478,-0.540475 0.978002,-0.540475 1.750109,-1.41553 0.772107,-0.875055 1.235371,-1.981741 0.463264,-1.132424 0.463264,-2.316321 0,-2.676638 -2.264847,-3.783325 -0.926528,-0.463264 -4.503957,-1.15816 z m 22.133744,12.482397 q 0,0.180158 -0.205895,0.489001 -0.205895,0.283106 -0.514738,0.617685 -0.308843,0.308843 -0.643422,0.591949 -0.33458,0.308843 -0.566212,0.463264 l -2.57369,-4.503957 q -1.08095,-1.878794 -1.750109,-2.779586 -0.643423,-0.900791 -0.849318,-0.926528 -0.180158,0 -0.669159,0.617686 -0.489002,0.617685 -1.235372,1.698635 -0.720633,1.055213 -1.698635,2.496479 -0.952265,1.41553 -2.058952,3.062691 -0.489001,-0.283105 -0.849318,-0.82358 -0.360316,-0.566212 -0.360316,-0.978003 0,-0.07721 2.779585,-3.628902 2.831059,-3.525956 2.831059,-4.092168 0,-0.05147 -0.257369,-0.386053 -0.257369,-0.360317 -0.66916,-0.849318 -0.386053,-0.489001 -0.875054,-1.055213 -0.463264,-0.591948 -0.900792,-1.106686 -0.437527,-0.540475 -0.797844,-0.926529 -0.334579,-0.41179 -0.437527,-0.591949 -1.415529,-1.956004 -1.49274,-2.98548 l 1.029476,-0.875055 q 0.952265,0.231632 3.448745,3.603166 1.209634,1.672899 1.827319,2.49648 0.617686,0.797844 0.591949,0.797844 0.66916,0 2.650901,-3.371534 1.981741,-3.371534 2.702374,-3.525956 l 1.41553,0.875055 q -0.05147,0.514738 -0.41179,1.235371 -0.360317,0.720633 -1.055213,1.595688 -0.05147,0.07721 -0.386054,0.41179 -0.308843,0.33458 -0.74637,0.849318 -0.437527,0.489001 -0.952265,1.055213 -0.489001,0.566212 -0.900792,1.08095 -0.41179,0.489001 -0.694896,0.875054 -0.283106,0.386054 -0.283106,0.489002 0,0.643422 2.779585,4.349536 2.779585,3.628903 2.779585,3.65464 z m 7.926964,-4.941485 q 0,0.360316 0.05147,1.080949 0.07721,0.694897 0.154421,1.492741 0.07721,0.772107 0.128685,1.49274 0.07721,0.720633 0.07721,1.055213 0,1.853057 -1.82732,1.853057 -0.823581,0 -0.823581,-1.724373 0,-0.257369 0.02574,-0.694896 0.02574,-0.463264 0.05147,-0.900791 0.05147,-0.463265 0.07721,-0.797844 0.05147,-0.360317 0.05147,-0.411791 0,-1.183897 -0.180159,-2.23911 -0.180158,-1.055213 -0.617685,-2.213374 -0.437528,-1.183897 -1.235371,-2.57369 -0.772107,-1.415529 -1.981742,-3.294323 -0.720633,-1.08095 -1.08095,-1.724372 -0.360316,-0.66916 -0.360316,-1.055213 0,-0.463264 0.514738,-0.463264 1.364056,0 2.676637,2.084689 0.231633,0.360316 1.930268,3.860535 1.055213,2.058952 1.724372,2.058952 0.308843,0 0.772107,-0.540475 0.489001,-0.566212 1.08095,-1.569951 l 2.084689,-3.706114 q 1.286845,-1.981741 2.136163,-1.981741 0.926528,0 0.926528,0.875055 0,0.74637 -1.647161,2.856795 l -3.062692,3.963483 q -1.647161,2.213374 -1.647161,3.217113 z m 21.438819,5.89375 q -1.441267,0 -2.779586,-0.591949 -1.338318,-0.591949 -2.393531,-1.544214 -1.055213,-0.978002 -1.698636,-2.23911 -0.617685,-1.261108 -0.617685,-2.625164 0,-3.011217 3.114165,-6.048172 3.114164,-3.062691 6.151119,-3.062691 1.364055,0 2.522216,0.66916 1.183897,0.643422 2.033215,1.750109 0.849318,1.08095 1.338319,2.547953 0.489001,1.441266 0.489001,3.036954 0,1.750109 -0.617686,3.24285 -0.617685,1.49274 -1.698635,2.57369 -1.08095,1.08095 -2.57369,1.698635 -1.49274,0.591949 -3.268586,0.591949 z m 0,-13.434662 q -1.106687,0.437527 -2.1619,1.209634 -1.055213,0.74637 -1.904531,1.647162 -0.82358,0.875054 -1.338318,1.853057 -0.489002,0.952265 -0.489002,1.801583 0,0.926528 0.540475,1.82732 0.540475,0.875054 1.338319,1.595687 0.823581,0.720634 1.801583,1.158161 0.978002,0.437527 1.853057,0.437527 0.797844,0 1.312582,-0.334579 h 0.360317 q 1.029476,0 2.007478,-0.540475 0.978002,-0.540475 1.750109,-1.41553 0.772107,-0.875055 1.235371,-1.981741 0.463264,-1.132424 0.463264,-2.316321 0,-2.676638 -2.264847,-3.783325 -0.926528,-0.463264 -4.503957,-1.15816 z m 23.085992,16.52309 q -1.23537,1.183897 -2.31632,1.415529 -0.69489,-0.231632 -1.02947,-0.617685 -0.33458,-0.386054 -0.46327,-1.312582 -0.12868,-0.74637 -0.36031,-1.029476 -2.77959,-3.886272 -6.04818,-7.592386 -1.7501,1.209635 -1.7501,3.088428 0,0.205896 0.0515,0.617686 0.0515,0.41179 0.12868,0.875055 0.0772,0.437527 0.12869,0.849317 0.0515,0.386054 0.0515,0.566212 0,1.312582 -1.389791,1.621425 L 98.462814,70.684634 Q 98.308393,69.217631 98.205445,68.05947 98.102498,66.90131 98.102498,66.000518 l 0.33458,-9.368232 q 3.114162,0.360317 5.353272,0.926529 2.26485,0.540475 3.70612,1.338319 1.44126,0.797843 2.13616,1.853056 0.6949,1.055213 0.6949,2.393532 0,0.463264 -0.12869,0.875055 -0.12868,0.386053 -0.489,0.823581 -0.33458,0.437527 -0.92653,0.952265 -0.59195,0.489001 -1.51848,1.106687 -1.54421,1.055212 -2.00747,1.56995 0.43752,1.158161 1.18389,2.419269 0.77211,1.261108 1.6729,2.419269 0.92653,1.132423 1.93027,2.084689 1.00374,0.952265 1.956,1.49274 z M 107.85678,63.24667 q 0,-0.900792 -0.61768,-1.724373 -0.61769,-0.82358 -1.54422,-1.467003 -0.92653,-0.643422 -2.03321,-1.003739 -1.08095,-0.386054 -2.05895,-0.386054 -0.6949,0 -1.26111,0.154422 -0.28311,1.029476 -0.463266,1.930267 -0.154421,0.875055 -0.154421,1.698636 0,2.625164 1.775847,3.603166 l 2.49648,-0.180158 q 2.08469,-0.205896 2.95974,-0.849318 0.90079,-0.66916 0.90079,-1.775846 z m 17.93863,2.6509 q 0.61768,1.595688 0.61768,3.551693 0,1.518477 -0.36031,2.779585 -0.33458,1.261108 -1.02948,2.187636 -0.66916,0.900792 -1.6729,1.389793 -0.978,0.514738 -2.23911,0.514738 -2.00748,0 -3.78332,-0.669159 -1.77585,-0.643423 -3.11417,-1.775846 -1.31258,-1.132424 -2.11042,-2.676638 -0.77211,-1.569951 -0.77211,-3.371534 0,-2.419269 0.6949,-4.375273 0.72063,-1.981741 2.05895,-3.345797 1.33832,-1.389793 3.26858,-2.136163 1.95601,-0.74637 4.40101,-0.74637 1.95601,0 3.3458,0.643423 l 0.10295,0.900791 q -0.46327,0.154421 -1.80158,0.489001 -1.33832,0.308843 -3.52596,0.772107 -1.93027,0.411791 -3.21711,1.003739 -1.28685,0.566212 -2.05895,1.41553 -0.77211,0.849318 -1.10669,2.007478 -0.33458,1.132424 -0.33458,2.625164 0,1.312582 0.59195,2.728111 0.59195,1.389793 1.54421,2.547953 0.978,1.158161 2.18764,1.904531 1.20963,0.720633 2.445,0.720633 0.92653,0 1.80159,-0.386053 0.87505,-0.386054 1.54421,-1.003739 0.6949,-0.643423 1.08095,-1.467004 0.41179,-0.849317 0.41179,-1.775846 0,-1.389792 -0.56621,-1.981741 -0.54048,-0.591949 -1.85306,-0.591949 -0.10294,0 -0.38605,0.02574 -0.28311,0 -0.61769,0.02574 -0.33458,0 -0.64342,0.02574 -0.2831,0 -0.43753,0 -1.72437,0 -1.72437,-1.132424 0.95227,-1.338319 3.78333,-1.338319 0.95226,0 1.80158,0.128685 0.84932,0.128684 1.6729,0.386053 z m 16.93488,7.64386 q 0,0.128684 -0.2059,0.41179 -0.20589,0.283106 -0.51474,0.566212 -0.2831,0.308843 -0.61768,0.566212 -0.30884,0.283106 -0.54048,0.386053 -1.23537,-1.15816 -1.62142,-3.165638 -0.38605,-2.058952 -0.92653,-2.650901 -0.56621,-0.566212 -1.6729,-0.823581 -1.10668,-0.283106 -2.67664,-0.283106 -1.80158,0 -3.57742,0.386054 -0.66916,0.617685 -1.44127,3.32006 -0.66916,2.419268 -0.978,2.419268 -0.41179,0 -1.44127,-0.797843 0.36032,-2.342058 2.39353,-7.335017 0.95227,-2.342058 1.44127,-4.195115 0.51474,-1.878794 0.59195,-3.268586 -0.79785,-0.411791 -1.41553,-1.621425 1.10668,-0.952265 3.19137,-0.952265 l 0.66916,0.07721 q 0.92653,1.312581 2.23911,3.448744 1.31258,2.136163 3.03696,5.121643 4.06643,7.077648 4.06643,8.39023 z m -5.35328,-6.897489 q -0.2831,-0.746371 -0.84932,-1.724373 -0.54047,-1.003739 -1.20963,-1.981741 -0.66916,-1.003739 -1.38979,-1.853057 -0.6949,-0.849318 -1.26111,-1.312582 -0.23163,0.823581 -0.489,1.672899 -0.23163,0.823581 -0.43753,1.647161 -0.20589,0.797844 -0.38605,1.544214 -0.18016,0.74637 -0.25737,1.364056 0.92653,0.952265 3.19137,0.952265 1.33832,0 3.08843,-0.308842 z m 21.46458,-9.780023 q -0.10295,0.849318 -0.23164,2.419269 -0.10294,1.569951 -0.23163,3.525955 -0.10295,1.956005 -0.25737,4.117904 -0.12868,2.1619 -0.25737,4.195115 -0.12868,2.007478 -0.25737,3.706114 -0.12868,1.724372 -0.25736,2.753848 -0.54048,-0.283106 -1.20964,-1.132423 -0.64342,-0.849318 -1.31258,-1.981742 -0.66916,-1.132423 -1.36406,-2.445005 -0.69489,-1.312582 -1.31258,-2.522216 -0.84932,-1.467004 -1.62142,-2.522217 -0.74637,-1.055213 -1.49274,-1.672898 l -1.02948,-0.02574 q -0.18016,0.489001 -0.36032,1.338319 -0.18015,0.849317 -0.38605,1.878793 -0.18016,1.029476 -0.38605,2.1619 -0.2059,1.132424 -0.38606,2.1619 -0.18015,1.003739 -0.36031,1.82732 -0.15442,0.849317 -0.28311,1.312581 -0.0772,0.231633 -0.30884,0.489002 -0.23163,0.283105 -0.54048,0.514738 -0.30884,0.231632 -0.69489,0.386053 -0.36032,0.180158 -0.72064,0.231632 -0.23163,-0.41179 -0.23163,-1.055213 0,-0.463264 0.12869,-1.055213 0.15442,-0.591948 0.38605,-1.261108 0.23163,-0.669159 0.489,-1.389792 0.28311,-0.720634 0.54048,-1.467004 1.18389,-3.32006 1.18389,-11.324236 0,-0.694896 0.10295,-1.364056 0.12869,-0.669159 0.41179,-1.312581 h 1.69864 q 0.41179,2.033215 1.13242,3.989219 0.74637,1.930268 1.75011,3.706114 1.00374,1.750109 2.23911,3.268586 1.23537,1.49274 2.62516,2.650901 0.97801,-2.779585 0.97801,-3.757588 0,-3.423007 -0.30885,-7.592385 0,-0.154422 -0.10294,-0.411791 -0.0772,-0.257369 -0.18016,-0.540475 -0.10295,-0.308842 -0.2059,-0.591948 -0.0772,-0.283106 -0.0772,-0.437528 0,-1.055212 1.38979,-1.827319 0.23164,0.154421 0.56622,0.437527 0.33458,0.257369 0.74637,0.617685 z m 4.06643,-0.07721 v 0.257369 q 0,0.489001 -0.10294,1.467003 -0.0772,0.952265 -0.2059,2.007478 -0.10295,1.055213 -0.20589,2.033215 -0.0772,0.978003 -0.0772,1.467004 0,0.437527 0.0257,1.183897 0.0515,0.74637 0.12869,1.672899 0.0772,0.900791 0.12868,1.90453 0.0772,0.978003 0.15442,1.904531 0.0772,0.900791 0.10295,1.647162 0.0515,0.74637 0.0515,1.183897 l -0.0772,0.694896 q -0.18015,0.231632 -0.489,0.437528 -0.2831,0.231632 -0.61768,0.386053 -0.30885,0.180158 -0.66916,0.283106 -0.33458,0.128684 -0.61769,0.128684 l -0.0257,-0.566211 q 0,-0.231632 0.0515,-0.591949 0.0772,-0.360317 0.15442,-0.74637 0.10295,-0.411791 0.15442,-0.74637 0.0772,-0.360317 0.0772,-0.540475 V 61.470824 q 0,-0.283106 -0.12868,-0.746371 -0.12869,-0.463264 -0.28311,-0.926528 -0.12868,-0.489001 -0.25737,-0.900791 -0.12868,-0.411791 -0.12868,-0.566212 0,-1.029476 1.87879,-1.904531 0.36032,0.360317 0.90079,0.360317 z m 19.35416,17.398144 q -0.43753,0.231632 -2.83106,0.33458 -2.39353,0.07721 -6.89749,0.07721 -6.40849,0 -6.40849,-1.647162 0,-0.978002 5.14738,-7.335016 l 6.40849,-7.618123 h -0.38605 q -0.489,0 -1.26111,-0.02574 -0.74637,-0.05147 -1.51848,-0.07721 -0.7721,-0.05147 -1.41553,-0.07721 -0.64342,-0.05147 -0.90079,-0.05147 h -2.41927 q -0.69489,0 -1.15816,0.02574 -0.43752,0 -0.74637,0.05147 -0.30884,0.02574 -0.56621,0.102947 -0.25737,0.05147 -0.56621,0.180159 -0.59195,0.231632 -1.00374,0.231632 -1.08095,0 -1.80158,-1.364056 0.25737,-0.437527 1.02947,-1.286845 1.26111,0.180158 3.65464,0.257369 2.41927,0.05147 6.02244,0.05147 1.85305,0 3.55169,0.102947 1.69863,0.102948 3.32006,0.308843 -0.36032,0.66916 -1.956,2.779585 -1.56996,2.084689 -4.37528,5.610645 -5.25033,6.562909 -5.25033,6.9747 0,0.231632 0.23164,0.386053 0.23163,0.128685 0.56621,0.180158 0.33458,0.05147 0.72063,0.07721 0.38606,0 0.6949,0 0.46326,0 1.38979,-0.102947 0.95227,-0.102948 1.98174,-0.205896 1.02948,-0.128684 1.95601,-0.231632 0.95226,-0.102947 1.41553,-0.102947 3.01121,0 3.37153,2.393531 z m 13.56333,0.514738 q -0.30884,0.643423 -0.61768,1.055213 -0.28311,0.411791 -0.56621,0.643423 -0.23164,-0.02574 -1.13243,-0.180159 -0.90079,-0.128684 -2.03321,-0.308842 -1.10669,-0.154422 -2.21338,-0.308843 -1.10668,-0.128685 -1.72437,-0.128685 -0.41179,0 -0.95226,0.07721 -0.51474,0.07721 -1.10669,0.180158 -0.59195,0.102948 -1.23537,0.231632 -0.61769,0.128685 -1.1839,0.231633 v -0.875055 q 0,-0.540475 -0.0515,-1.364056 -0.0257,-0.849317 -0.0772,-1.698635 -0.0257,-0.849318 -0.0515,-1.569951 -0.0257,-0.74637 -0.0257,-1.08095 0,-0.41179 0.0772,-1.261108 0.0772,-0.875055 0.18016,-1.801583 0.10294,-0.952265 0.18015,-1.801583 0.0772,-0.875055 0.0772,-1.312582 0,-0.360317 -0.15442,-0.978002 -0.12868,-0.643423 -0.30884,-1.312582 -0.15442,-0.66916 -0.30884,-1.286845 -0.12869,-0.617686 -0.12869,-0.978002 0.489,-0.437528 0.92653,-0.437528 0.33458,0 0.978,0.05147 0.66916,0.05147 1.3898,0.128685 0.74637,0.07721 1.38979,0.128684 0.66916,0.05147 1.00374,0.05147 0.36031,0 1.08095,-0.07721 0.74637,-0.07721 1.54421,-0.154421 0.79785,-0.07721 1.51848,-0.154422 0.72063,-0.07721 1.05521,-0.07721 0.18016,0 0.43753,0.128684 0.28311,0.102948 0.51474,0.283106 0.25737,0.180158 0.43752,0.386054 0.2059,0.180158 0.25737,0.360316 -0.59195,1.467004 -2.36779,1.467004 -0.38605,0 -1.15816,-0.07721 -0.77211,-0.102948 -1.64716,-0.205895 -0.84932,-0.102948 -1.6729,-0.180159 -0.79785,-0.102947 -1.20964,-0.102947 h -1.51847 q -0.2059,0.669159 -0.30885,1.261108 -0.10294,0.566212 -0.10294,1.055213 0,0.952265 0.23163,2.650901 1.51848,0.720633 3.37153,0.720633 0.30885,0 0.92653,-0.05147 0.61769,-0.07721 1.28685,-0.154421 0.69489,-0.102948 1.28684,-0.154422 0.61769,-0.07721 0.92653,-0.07721 0.978,0 1.41553,0.566212 0.46326,0.566212 0.46326,2.007478 0,0.283106 -0.41179,0.540475 -0.41179,0.231632 -0.84932,0.231632 -0.41179,0 -1.23537,-0.180158 -0.82358,-0.205895 -1.75011,-0.437527 -0.92652,-0.257369 -1.77584,-0.437527 -0.84932,-0.205896 -1.33832,-0.205896 -0.489,0 -0.978,0.05147 -0.46327,0.02574 -0.90079,0.07721 -1.10669,2.007478 -1.10669,3.397271 0,0.360316 0.10295,0.772107 0.10294,0.386053 0.2831,0.74637 0.2059,0.33458 0.43753,0.591949 0.23163,0.257369 0.51474,0.334579 0.25737,0.07721 1.85305,0.07721 1.69864,0 3.39728,-0.02574 1.72437,-0.05147 3.47448,-0.154421 0.79784,0.463264 1.18389,1.106686 z m 14.0781,2.187637 q -1.23537,1.183897 -2.31632,1.415529 -0.6949,-0.231632 -1.02948,-0.617685 -0.33458,-0.386054 -0.46326,-1.312582 -0.12869,-0.74637 -0.36032,-1.029476 -2.77959,-3.886272 -6.04817,-7.592386 -1.75011,1.209635 -1.75011,3.088428 0,0.205896 0.0515,0.617686 0.0515,0.41179 0.12869,0.875055 0.0772,0.437527 0.12868,0.849317 0.0515,0.386054 0.0515,0.566212 0,1.312582 -1.38979,1.621425 L 196.366,70.684634 q -0.15442,-1.467003 -0.25737,-2.625164 -0.10295,-1.15816 -0.10295,-2.058952 l 0.33458,-9.368232 q 3.11417,0.360317 5.35328,0.926529 2.26484,0.540475 3.70611,1.338319 1.44127,0.797843 2.13616,1.853056 0.6949,1.055213 0.6949,2.393532 0,0.463264 -0.12869,0.875055 -0.12868,0.386053 -0.489,0.823581 -0.33458,0.437527 -0.92653,0.952265 -0.59194,0.489001 -1.51847,1.106687 -1.54422,1.055212 -2.00748,1.56995 0.43753,1.158161 1.1839,2.419269 0.7721,1.261108 1.6729,2.419269 0.92652,1.132423 1.93026,2.084689 1.00374,0.952265 1.95601,1.49274 z M 205.75997,63.24667 q 0,-0.900792 -0.61769,-1.724373 -0.61769,-0.82358 -1.54421,-1.467003 -0.92653,-0.643422 -2.03322,-1.003739 -1.08095,-0.386054 -2.05895,-0.386054 -0.6949,0 -1.26111,0.154422 -0.2831,1.029476 -0.46326,1.930267 -0.15442,0.875055 -0.15442,1.698636 0,2.625164 1.77584,3.603166 l 2.49648,-0.180158 q 2.08469,-0.205896 2.95974,-0.849318 0.9008,-0.66916 0.9008,-1.775846 z"
       id="text6"
       style="font-size:25.7369px;line-height:1.8;font-family:'Prime Minister of Canada';-inkscape-font-specification:'Prime Minister of Canada, Normal';text-align:center;text-anchor:middle;fill-rule:evenodd;stroke:#000000;stroke-width:0.193027;stroke-linejoin:round;stroke-opacity:0"
       aria-label="Epoxy organizer" />
  </g>
</svg>
