999
"DXF R12 Output" (www.mydxf.blogspot.com)
 0 
SECTION
 2 
HEADER
 9 
$ACADVER
 1 
AC1009
 9 
$EXTMIN
 10 
 0 
 20 
 0 
 9 
$EXTMAX
 10 
 8.5 
 20 
 11 
 0 
ENDSEC
 0 
SECTION
 2 
ENTITIES
0
LINE
8
Layer 1
10
29.615300
20
12.513400
11
28.506790
21
25.441700
0
LINE
8
Layer 1
10
28.506790
20
25.441700
11
27.861461
21
32.958600
0
LINE
8
Layer 1
10
27.861461
20
32.958600
11
27.293574
21
39.703900
0
LINE
8
Layer 1
10
27.293574
20
39.703900
11
27.082314
21
41.272000
0
LINE
8
Layer 1
10
27.082314
20
41.272000
11
25.386004
21
40.108170
0
LINE
8
Layer 1
10
25.386004
20
40.108170
11
21.338354
21
37.189890
0
LINE
8
Layer 1
10
21.338354
20
37.189890
11
17.973584
21
34.765610
0
LINE
8
Layer 1
10
17.973584
20
34.765610
11
17.370295
21
34.336568
0
LINE
8
Layer 1
10
17.370295
20
34.336568
11
17.185393
21
34.311398
0
LINE
8
Layer 1
10
17.185393
20
34.311398
11
18.149402
21
36.045000
0
LINE
8
Layer 1
10
18.149402
20
36.045000
11
19.812232
21
38.882510
0
LINE
8
Layer 1
10
19.812232
20
38.882510
11
22.120232
21
42.831770
0
LINE
8
Layer 1
10
22.120232
20
42.831770
11
23.528722
21
45.331770
0
LINE
8
Layer 1
10
23.528722
20
45.331770
11
22.956242
21
45.482725
0
LINE
8
Layer 1
10
22.956242
20
45.482725
11
10.194320
21
46.973487
0
LINE
8
Layer 1
10
10.194320
20
46.973487
11
0.000742
21
48.258985
0
LINE
8
Layer 1
10
0.000742
20
48.258985
11
23.404242
21
51.029315
0
LINE
8
Layer 1
10
23.404242
20
51.029315
11
23.528694
21
51.119234
0
LINE
8
Layer 1
10
23.528694
20
51.119234
11
20.291694
21
56.859374
0
LINE
8
Layer 1
10
20.291694
20
56.859374
11
17.080800
21
62.528800
0
LINE
8
Layer 1
10
17.080800
20
62.528800
11
22.085020
21
58.843050
0
LINE
8
Layer 1
10
22.085020
20
58.843050
11
27.117930
21
55.167870
0
LINE
8
Layer 1
10
27.117930
20
55.167870
11
27.194934
21
55.627415
0
LINE
8
Layer 1
10
27.194934
20
55.627415
11
27.311994
21
57.052555
0
LINE
8
Layer 1
10
27.311994
20
57.052555
11
27.860247
21
63.374715
0
LINE
8
Layer 1
10
27.860247
20
63.374715
11
28.654501
21
72.633945
0
LINE
8
Layer 1
10
28.654501
20
72.633945
11
29.303064
21
80.150845
0
LINE
8
Layer 1
10
29.303064
20
80.150845
11
29.634379
21
83.819205
0
LINE
8
Layer 1
10
29.634379
20
83.819205
11
30.028383
21
79.587835
0
LINE
8
Layer 1
10
30.028383
20
79.587835
11
31.690983
21
60.288335
0
LINE
8
Layer 1
10
31.690983
20
60.288335
11
32.003239
21
56.629445
0
LINE
8
Layer 1
10
32.003239
20
56.629445
11
32.217350
21
55.210695
0
LINE
8
Layer 1
10
32.217350
20
55.210695
11
34.168120
21
56.574125
0
LINE
8
Layer 1
10
34.168120
20
56.574125
11
41.988440
21
62.263635
0
LINE
8
Layer 1
10
41.988440
20
62.263635
11
39.979100
21
58.645575
0
LINE
8
Layer 1
10
39.979100
20
58.645575
11
36.813950
21
53.070125
0
LINE
8
Layer 1
10
36.813950
20
53.070125
11
35.683740
21
51.078895
0
LINE
8
Layer 1
10
35.683740
20
51.078895
11
36.298024
21
50.999619
0
LINE
8
Layer 1
10
36.298024
20
50.999619
11
54.442524
21
48.832679
0
LINE
8
Layer 1
10
54.442524
20
48.832679
11
58.909344
21
48.257251
0
LINE
8
Layer 1
10
58.909344
20
48.257251
11
58.163702
21
48.100539
0
LINE
8
Layer 1
10
58.163702
20
48.100539
11
55.972274
21
47.815088
0
LINE
8
Layer 1
10
55.972274
20
47.815088
11
49.514224
21
47.045869
0
LINE
8
Layer 1
10
49.514224
20
47.045869
11
41.151044
21
46.047797
0
LINE
8
Layer 1
10
41.151044
20
46.047797
11
35.890384
21
45.398232
0
LINE
8
Layer 1
10
35.890384
20
45.398232
11
35.734151
21
45.330088
0
LINE
8
Layer 1
10
35.734151
20
45.330088
11
35.754229
21
45.225546
0
LINE
8
Layer 1
10
35.754229
20
45.225546
11
38.091179
21
41.222296
0
LINE
8
Layer 1
10
38.091179
20
41.222296
11
41.189059
21
35.862636
0
LINE
8
Layer 1
10
41.189059
20
35.862636
11
41.950483
21
34.418996
0
LINE
8
Layer 1
10
41.950483
20
34.418996
11
37.107363
21
37.837196
0
LINE
8
Layer 1
10
37.107363
20
37.837196
11
32.225673
21
41.254486
0
LINE
8
Layer 1
10
32.225673
20
41.254486
11
32.090949
21
41.038485
0
LINE
8
Layer 1
10
32.090949
20
41.038485
11
31.844036
21
37.919885
0
LINE
8
Layer 1
10
31.844036
20
37.919885
11
31.249744
21
30.967445
0
LINE
8
Layer 1
10
31.249744
20
30.967445
11
29.965648
21
16.030995
0
LINE
8
Layer 1
10
29.965648
20
16.030995
11
29.702533
21
13.170029
0
LINE
8
Layer 1
10
29.702533
20
13.170029
11
29.615234
21
12.513445
0
LINE
8
Layer 1
10
29.615234
20
12.513445
11
29.615300
21
12.513400
 0 
ENDSEC
 0 
EOF