<?xml version="1.0" encoding="UTF-8" standalone="no"?>
<svg
   xmlns:dc="http://purl.org/dc/elements/1.1/"
   xmlns:cc="http://creativecommons.org/ns#"
   xmlns:rdf="http://www.w3.org/1999/02/22-rdf-syntax-ns#"
   xmlns:svg="http://www.w3.org/2000/svg"
   xmlns="http://www.w3.org/2000/svg"
   xmlns:sodipodi="http://sodipodi.sourceforge.net/DTD/sodipodi-0.dtd"
   xmlns:inkscape="http://www.inkscape.org/namespaces/inkscape"
   width="210mm"
   height="297mm"
   viewBox="0 0 210 297"
   version="1.1"
   id="svg8"
   inkscape:version="1.0.1 (c497b03c, 2020-09-10)"
   sodipodi:docname="julestjerne.svg">
  <defs
     id="defs2" />
  <sodipodi:namedview
     id="base"
     pagecolor="#ffffff"
     bordercolor="#666666"
     borderopacity="1.0"
     inkscape:pageopacity="0.0"
     inkscape:pageshadow="2"
     inkscape:zoom="0.35"
     inkscape:cx="400"
     inkscape:cy="565.71429"
     inkscape:document-units="mm"
     inkscape:current-layer="layer1"
     inkscape:document-rotation="0"
     showgrid="false"
     inkscape:window-width="1252"
     inkscape:window-height="943"
     inkscape:window-x="0"
     inkscape:window-y="23"
     inkscape:window-maximized="0" />
  <metadata
     id="metadata5">
    <rdf:RDF>
      <cc:Work
         rdf:about="">
        <dc:format>image/svg+xml</dc:format>
        <dc:type
           rdf:resource="http://purl.org/dc/dcmitype/StillImage" />
        <dc:title></dc:title>
      </cc:Work>
    </rdf:RDF>
  </metadata>
  <g
     inkscape:label="Layer 1"
     inkscape:groupmode="layer"
     id="layer1">
    <path
       style="fill:#000000;stroke-width:0.352778"
       d="m 104.93615,252.66147 c -0.041,-0.50459 -1.08143,-12.639 -3.92778,-45.80902 -0.39126,-4.55965 -1.420229,-16.54528 -2.286599,-26.63472 -0.86636,-10.08945 -1.77185,-20.84476 -2.0122,-23.9007 -0.24035,-3.05593 -0.5772,-5.55625 -0.74856,-5.55625 -0.17136,0 -2.876119,1.85572 -6.010569,4.12381 -3.13446,2.26809 -9.588388,6.92126 -14.342068,10.34036 -4.753681,3.41911 -10.118774,7.28459 -11.922428,8.58996 -3.807552,2.75567 -3.847614,3.04719 0.622977,-4.53329 1.487565,-2.52236 4.138923,-7.04674 5.891911,-10.05417 1.752984,-3.00743 5.433063,-9.30448 8.177949,-13.99345 2.744887,-4.68897 4.990702,-8.67519 4.990702,-8.85829 0,-0.18308 -0.912813,-0.42378 -2.028473,-0.53488 -11.650619,-1.16017 -81.8217264,-9.64672 -81.3385284,-9.83714 0.545704,-0.21506 81.6793474,-9.81904 82.9260284,-9.81615 0.242535,7e-4 0.440973,-0.14282 0.440973,-0.31861 0,-0.1758 -5.161361,-9.3284 -11.469695,-20.339107 C 65.591461,84.519114 60.471773,75.479354 60.522707,75.441474 c 0.05094,-0.0379 8.030111,5.83902 17.7315,13.05977 9.701385,7.220758 17.726314,13.080786 17.833164,13.022286 0.10686,-0.0585 0.22964,-0.79125 0.27285,-1.628311 0.0432,-0.837068 0.22987,-3.10944 0.41478,-5.049718 0.18491,-1.940278 1.05909,-12.020907 1.94263,-22.401387 0.88353,-10.38049 2.149969,-25.14424 2.814289,-32.808338 0.66433,-7.6641 1.69846,-19.64972 2.29806,-26.63472 0.59961,-6.9849997 1.12788,-12.83415971 1.17395,-12.99812971 0.0461,-0.16396 0.6743,6.58291001 1.39608,14.99305971 1.15325,13.43747 3.83175,44.529518 5.89112,68.384238 0.37689,4.36562 0.87477,10.199687 1.10642,12.964583 0.23165,2.764892 0.57304,5.027083 0.75866,5.027083 0.18561,0 3.2961,-2.173981 6.91218,-4.831066 22.87265,-16.80673 27.62872,-20.26691 27.70982,-20.15969 0.0499,0.066 -3.15399,5.83492 -7.11972,12.81992 -3.96572,6.985003 -9.01252,15.875006 -11.2151,19.755556 l -4.0047,7.05556 2.1766,0.2809 c 3.72618,0.48088 48.35188,5.81038 64.29169,7.67814 8.34319,0.97762 15.46549,1.89514 15.82733,2.03892 0.38333,0.15233 -3.9598,0.80617 -10.40695,1.56672 -6.08565,0.7179 -16.38295,1.94442 -22.88288,2.72558 -6.49993,0.78117 -19.83493,2.37259 -29.63333,3.53648 -9.7984,1.1639 -18.18648,2.19963 -18.64016,2.30161 -0.58861,0.13233 -0.7268,0.30759 -0.48244,0.61188 0.18834,0.23454 3.91458,6.61769 8.28053,14.18477 4.36595,7.56709 9.30548,16.113 10.97674,18.99093 1.67126,2.87792 2.88534,5.1798 2.69796,5.11527 -0.18738,-0.0645 -7.90969,-5.51481 -17.16069,-12.11175 -9.25099,-6.59695 -17.0348,-12.04578 -17.29735,-12.10851 -0.30414,-0.0727 -0.47737,0.20505 -0.47737,0.76536 0,0.48368 -0.3937,5.45625 -0.87489,11.05017 -0.48119,5.59392 -1.42879,16.67951 -2.10576,24.63465 -4.49893,52.86668 -5.70373,66.46922 -5.79157,65.38818 z"
       id="path847" />
  </g>
</svg>
