solid OpenSCAD_Model
  facet normal -1 0 0
    outer loop
      vertex 0 0 0
      vertex 0 10 5.08
      vertex 0 10 0
    endloop
  endfacet
  facet normal -1 -0 0
    outer loop
      vertex 0 10 5.08
      vertex 0 0 0
      vertex 0 0 5.08
    endloop
  endfacet
  facet normal 0 0 1
    outer loop
      vertex 2 10 5.08
      vertex 0 10 5.08
      vertex 2 2 5.08
    endloop
  endfacet
  facet normal -0 0 1
    outer loop
      vertex 2 2 5.08
      vertex 10 0 5.08
      vertex 10 2 5.08
    endloop
  endfacet
  facet normal 0 0 1
    outer loop
      vertex 2 2 5.08
      vertex 0 0 5.08
      vertex 10 0 5.08
    endloop
  endfacet
  facet normal 0 0 1
    outer loop
      vertex 0 0 5.08
      vertex 2 2 5.08
      vertex 0 10 5.08
    endloop
  endfacet
  facet normal 1 0 0
    outer loop
      vertex 10 2 5.08
      vertex 10 0 5.08
      vertex 10 2 2.54
    endloop
  endfacet
  facet normal 1 -0 0
    outer loop
      vertex 10 2 2.54
      vertex 10 4 0
      vertex 10 4 2.54
    endloop
  endfacet
  facet normal 1 0 0
    outer loop
      vertex 10 0 0
      vertex 10 2 2.54
      vertex 10 0 5.08
    endloop
  endfacet
  facet normal 1 0 0
    outer loop
      vertex 10 2 2.54
      vertex 10 0 0
      vertex 10 4 0
    endloop
  endfacet
  facet normal 0 0 -1
    outer loop
      vertex 10 0 0
      vertex 4 4 0
      vertex 10 4 0
    endloop
  endfacet
  facet normal 0 0 -1
    outer loop
      vertex 0 0 0
      vertex 4 4 0
      vertex 10 0 0
    endloop
  endfacet
  facet normal 0 0 -1
    outer loop
      vertex 0 10 0
      vertex 4 4 0
      vertex 0 0 0
    endloop
  endfacet
  facet normal 0 0 -1
    outer loop
      vertex 4 4 0
      vertex 0 10 0
      vertex 4 10 0
    endloop
  endfacet
  facet normal 0 -1 0
    outer loop
      vertex 0 0 0
      vertex 10 0 5.08
      vertex 0 0 5.08
    endloop
  endfacet
  facet normal 0 -1 -0
    outer loop
      vertex 10 0 5.08
      vertex 0 0 0
      vertex 10 0 0
    endloop
  endfacet
  facet normal 0 1 0
    outer loop
      vertex 4 10 2.54
      vertex 4 10 0
      vertex 2 10 2.54
    endloop
  endfacet
  facet normal 0 1 -0
    outer loop
      vertex 2 10 2.54
      vertex 0 10 5.08
      vertex 2 10 5.08
    endloop
  endfacet
  facet normal 0 1 0
    outer loop
      vertex 0 10 0
      vertex 2 10 2.54
      vertex 4 10 0
    endloop
  endfacet
  facet normal 0 1 0
    outer loop
      vertex 2 10 2.54
      vertex 0 10 0
      vertex 0 10 5.08
    endloop
  endfacet
  facet normal 1 -0 0
    outer loop
      vertex 2 2 5.08
      vertex 2 10 2.54
      vertex 2 10 5.08
    endloop
  endfacet
  facet normal 1 0 0
    outer loop
      vertex 2 10 2.54
      vertex 2 2 5.08
      vertex 2 2 2.54
    endloop
  endfacet
  facet normal 0 0 1
    outer loop
      vertex 4 10 2.54
      vertex 2 10 2.54
      vertex 4 4 2.54
    endloop
  endfacet
  facet normal -0 0 1
    outer loop
      vertex 4 4 2.54
      vertex 10 2 2.54
      vertex 10 4 2.54
    endloop
  endfacet
  facet normal 0 0 1
    outer loop
      vertex 4 4 2.54
      vertex 2 2 2.54
      vertex 10 2 2.54
    endloop
  endfacet
  facet normal 0 0 1
    outer loop
      vertex 2 2 2.54
      vertex 4 4 2.54
      vertex 2 10 2.54
    endloop
  endfacet
  facet normal 0 1 -0
    outer loop
      vertex 10 2 2.54
      vertex 2 2 5.08
      vertex 10 2 5.08
    endloop
  endfacet
  facet normal 0 1 0
    outer loop
      vertex 2 2 5.08
      vertex 10 2 2.54
      vertex 2 2 2.54
    endloop
  endfacet
  facet normal 1 -0 0
    outer loop
      vertex 4 4 2.54
      vertex 4 10 0
      vertex 4 10 2.54
    endloop
  endfacet
  facet normal 1 0 0
    outer loop
      vertex 4 10 0
      vertex 4 4 2.54
      vertex 4 4 0
    endloop
  endfacet
  facet normal 0 1 -0
    outer loop
      vertex 10 4 0
      vertex 4 4 2.54
      vertex 10 4 2.54
    endloop
  endfacet
  facet normal 0 1 0
    outer loop
      vertex 4 4 2.54
      vertex 10 4 0
      vertex 4 4 0
    endloop
  endfacet
endsolid OpenSCAD_Model
