solid OpenSCAD_Model
  facet normal -1 0 0
    outer loop
      vertex 14.1 4 3
      vertex 14.1 3 15
      vertex 14.1 4 15
    endloop
  endfacet
  facet normal -1 0 -0
    outer loop
      vertex 14.1 3 15
      vertex 14.1 4 3
      vertex 14.1 3 3
    endloop
  endfacet
  facet normal 0 -1 5.96046e-08
    outer loop
      vertex 2.9 4 3
      vertex 14.1 4 15
      vertex 2.9 4 15
    endloop
  endfacet
  facet normal 0 -1 5.96046e-08
    outer loop
      vertex 14.1 4 15
      vertex 2.9 4 3
      vertex 14.1 4 3
    endloop
  endfacet
  facet normal -0 0 1
    outer loop
      vertex 2.9 4 3
      vertex 14.1 3 3
      vertex 14.1 4 3
    endloop
  endfacet
  facet normal 0 0 1
    outer loop
      vertex 14.1 3 3
      vertex 2.9 4 3
      vertex 2.9 3 3
    endloop
  endfacet
  facet normal 1 -0 0
    outer loop
      vertex 2.9 3 15
      vertex 2.9 4 3
      vertex 2.9 4 15
    endloop
  endfacet
  facet normal 1 0 0
    outer loop
      vertex 2.9 4 3
      vertex 2.9 3 15
      vertex 2.9 3 3
    endloop
  endfacet
  facet normal 0 1 -5.96046e-08
    outer loop
      vertex 14.1 3 3
      vertex 2.9 3 15
      vertex 14.1 3 15
    endloop
  endfacet
  facet normal 0 1 -5.96046e-08
    outer loop
      vertex 2.9 3 15
      vertex 14.1 3 3
      vertex 2.9 3 3
    endloop
  endfacet
  facet normal -1 0 0
    outer loop
      vertex 14.1 7 3
      vertex 14.1 6 15
      vertex 14.1 7 15
    endloop
  endfacet
  facet normal -1 0 -0
    outer loop
      vertex 14.1 6 15
      vertex 14.1 7 3
      vertex 14.1 6 3
    endloop
  endfacet
  facet normal 0 -1 7.94729e-08
    outer loop
      vertex 2.9 7 3
      vertex 14.1 7 15
      vertex 2.9 7 15
    endloop
  endfacet
  facet normal 0 -1 7.94729e-08
    outer loop
      vertex 14.1 7 15
      vertex 2.9 7 3
      vertex 14.1 7 3
    endloop
  endfacet
  facet normal -0 0 1
    outer loop
      vertex 2.9 7 3
      vertex 14.1 6 3
      vertex 14.1 7 3
    endloop
  endfacet
  facet normal 0 0 1
    outer loop
      vertex 14.1 6 3
      vertex 2.9 7 3
      vertex 2.9 6 3
    endloop
  endfacet
  facet normal 1 -0 0
    outer loop
      vertex 2.9 6 15
      vertex 2.9 7 3
      vertex 2.9 7 15
    endloop
  endfacet
  facet normal 1 0 0
    outer loop
      vertex 2.9 7 3
      vertex 2.9 6 15
      vertex 2.9 6 3
    endloop
  endfacet
  facet normal 0 1 -7.94729e-08
    outer loop
      vertex 14.1 6 3
      vertex 2.9 6 15
      vertex 14.1 6 15
    endloop
  endfacet
  facet normal 0 1 -7.94729e-08
    outer loop
      vertex 2.9 6 15
      vertex 14.1 6 3
      vertex 2.9 6 3
    endloop
  endfacet
  facet normal -1 0 0
    outer loop
      vertex 14.1 10 3
      vertex 14.1 9 15
      vertex 14.1 10 15
    endloop
  endfacet
  facet normal -1 0 -0
    outer loop
      vertex 14.1 9 15
      vertex 14.1 10 3
      vertex 14.1 9 3
    endloop
  endfacet
  facet normal 0 -1 7.94729e-08
    outer loop
      vertex 2.9 10 3
      vertex 14.1 10 15
      vertex 2.9 10 15
    endloop
  endfacet
  facet normal 0 -1 7.94729e-08
    outer loop
      vertex 14.1 10 15
      vertex 2.9 10 3
      vertex 14.1 10 3
    endloop
  endfacet
  facet normal 1 -0 0
    outer loop
      vertex 2.9 9 15
      vertex 2.9 10 3
      vertex 2.9 10 15
    endloop
  endfacet
  facet normal 1 0 0
    outer loop
      vertex 2.9 10 3
      vertex 2.9 9 15
      vertex 2.9 9 3
    endloop
  endfacet
  facet normal 0 1 -7.94729e-08
    outer loop
      vertex 14.1 9 3
      vertex 2.9 9 15
      vertex 14.1 9 15
    endloop
  endfacet
  facet normal 0 1 -7.94729e-08
    outer loop
      vertex 2.9 9 15
      vertex 14.1 9 3
      vertex 2.9 9 3
    endloop
  endfacet
  facet normal -0 0 1
    outer loop
      vertex 2.9 10 3
      vertex 14.1 9 3
      vertex 14.1 10 3
    endloop
  endfacet
  facet normal 0 0 1
    outer loop
      vertex 14.1 9 3
      vertex 2.9 10 3
      vertex 2.9 9 3
    endloop
  endfacet
  facet normal -1 0 0
    outer loop
      vertex 14.1 13 3
      vertex 14.1 12 15
      vertex 14.1 13 15
    endloop
  endfacet
  facet normal -1 0 -0
    outer loop
      vertex 14.1 12 15
      vertex 14.1 13 3
      vertex 14.1 12 3
    endloop
  endfacet
  facet normal 0 -1 7.94729e-08
    outer loop
      vertex 2.9 13 3
      vertex 14.1 13 15
      vertex 2.9 13 15
    endloop
  endfacet
  facet normal 0 -1 7.94729e-08
    outer loop
      vertex 14.1 13 15
      vertex 2.9 13 3
      vertex 14.1 13 3
    endloop
  endfacet
  facet normal -0 0 1
    outer loop
      vertex 2.9 13 3
      vertex 14.1 12 3
      vertex 14.1 13 3
    endloop
  endfacet
  facet normal 0 0 1
    outer loop
      vertex 14.1 12 3
      vertex 2.9 13 3
      vertex 2.9 12 3
    endloop
  endfacet
  facet normal 1 -0 0
    outer loop
      vertex 2.9 12 15
      vertex 2.9 13 3
      vertex 2.9 13 15
    endloop
  endfacet
  facet normal 1 0 0
    outer loop
      vertex 2.9 13 3
      vertex 2.9 12 15
      vertex 2.9 12 3
    endloop
  endfacet
  facet normal 0 1 -7.94729e-08
    outer loop
      vertex 14.1 12 3
      vertex 2.9 12 15
      vertex 14.1 12 15
    endloop
  endfacet
  facet normal 0 1 -7.94729e-08
    outer loop
      vertex 2.9 12 15
      vertex 14.1 12 3
      vertex 2.9 12 3
    endloop
  endfacet
  facet normal -1 0 0
    outer loop
      vertex 14.1 16 3
      vertex 14.1 15 15
      vertex 14.1 16 15
    endloop
  endfacet
  facet normal -1 0 -0
    outer loop
      vertex 14.1 15 15
      vertex 14.1 16 3
      vertex 14.1 15 3
    endloop
  endfacet
  facet normal 0 -1 7.94729e-08
    outer loop
      vertex 2.9 16 3
      vertex 14.1 16 15
      vertex 2.9 16 15
    endloop
  endfacet
  facet normal 0 -1 7.94729e-08
    outer loop
      vertex 14.1 16 15
      vertex 2.9 16 3
      vertex 14.1 16 3
    endloop
  endfacet
  facet normal 1 -0 0
    outer loop
      vertex 2.9 15 15
      vertex 2.9 16 3
      vertex 2.9 16 15
    endloop
  endfacet
  facet normal 1 0 0
    outer loop
      vertex 2.9 16 3
      vertex 2.9 15 15
      vertex 2.9 15 3
    endloop
  endfacet
  facet normal 0 1 -7.94729e-08
    outer loop
      vertex 14.1 15 3
      vertex 2.9 15 15
      vertex 14.1 15 15
    endloop
  endfacet
  facet normal 0 1 -7.94729e-08
    outer loop
      vertex 2.9 15 15
      vertex 14.1 15 3
      vertex 2.9 15 3
    endloop
  endfacet
  facet normal -0 0 1
    outer loop
      vertex 2.9 16 3
      vertex 14.1 15 3
      vertex 14.1 16 3
    endloop
  endfacet
  facet normal 0 0 1
    outer loop
      vertex 14.1 15 3
      vertex 2.9 16 3
      vertex 2.9 15 3
    endloop
  endfacet
  facet normal -1 0 0
    outer loop
      vertex 14.1 18 3
      vertex 14.1 19 15
      vertex 14.1 19 3
    endloop
  endfacet
  facet normal -1 -0 0
    outer loop
      vertex 14.1 19 15
      vertex 14.1 18 3
      vertex 14.1 18 15
    endloop
  endfacet
  facet normal 0 -1 0
    outer loop
      vertex 2.9 19 3
      vertex 14.1 19 15
      vertex 2.9 19 15
    endloop
  endfacet
  facet normal 0 -1 -0
    outer loop
      vertex 14.1 19 15
      vertex 2.9 19 3
      vertex 14.1 19 3
    endloop
  endfacet
  facet normal -0 0 1
    outer loop
      vertex 2.9 19 3
      vertex 14.1 18 3
      vertex 14.1 19 3
    endloop
  endfacet
  facet normal 0 0 1
    outer loop
      vertex 14.1 18 3
      vertex 2.9 19 3
      vertex 2.9 18 3
    endloop
  endfacet
  facet normal 1 -0 0
    outer loop
      vertex 2.9 18 15
      vertex 2.9 19 3
      vertex 2.9 19 15
    endloop
  endfacet
  facet normal 1 0 0
    outer loop
      vertex 2.9 19 3
      vertex 2.9 18 15
      vertex 2.9 18 3
    endloop
  endfacet
  facet normal 0 1 -0
    outer loop
      vertex 14.1 18 3
      vertex 2.9 18 15
      vertex 14.1 18 15
    endloop
  endfacet
  facet normal 0 1 0
    outer loop
      vertex 2.9 18 15
      vertex 14.1 18 3
      vertex 2.9 18 3
    endloop
  endfacet
  facet normal -1 0 0
    outer loop
      vertex 14.1 21 3
      vertex 14.1 22 15
      vertex 14.1 22 3
    endloop
  endfacet
  facet normal -1 -0 0
    outer loop
      vertex 14.1 22 15
      vertex 14.1 21 3
      vertex 14.1 21 15
    endloop
  endfacet
  facet normal 0 -1 0
    outer loop
      vertex 2.9 22 3
      vertex 14.1 22 15
      vertex 2.9 22 15
    endloop
  endfacet
  facet normal 0 -1 -0
    outer loop
      vertex 14.1 22 15
      vertex 2.9 22 3
      vertex 14.1 22 3
    endloop
  endfacet
  facet normal -0 0 1
    outer loop
      vertex 2.9 22 3
      vertex 14.1 21 3
      vertex 14.1 22 3
    endloop
  endfacet
  facet normal 0 0 1
    outer loop
      vertex 14.1 21 3
      vertex 2.9 22 3
      vertex 2.9 21 3
    endloop
  endfacet
  facet normal 1 -0 0
    outer loop
      vertex 2.9 21 15
      vertex 2.9 22 3
      vertex 2.9 22 15
    endloop
  endfacet
  facet normal 1 0 0
    outer loop
      vertex 2.9 22 3
      vertex 2.9 21 15
      vertex 2.9 21 3
    endloop
  endfacet
  facet normal 0 1 -0
    outer loop
      vertex 14.1 21 3
      vertex 2.9 21 15
      vertex 14.1 21 15
    endloop
  endfacet
  facet normal 0 1 0
    outer loop
      vertex 2.9 21 15
      vertex 14.1 21 3
      vertex 2.9 21 3
    endloop
  endfacet
  facet normal -1 0 0
    outer loop
      vertex 14.1 24 3
      vertex 14.1 25 15
      vertex 14.1 25 3
    endloop
  endfacet
  facet normal -1 -0 0
    outer loop
      vertex 14.1 25 15
      vertex 14.1 24 3
      vertex 14.1 24 15
    endloop
  endfacet
  facet normal 0 -1 0
    outer loop
      vertex 2.9 25 3
      vertex 14.1 25 15
      vertex 2.9 25 15
    endloop
  endfacet
  facet normal 0 -1 -0
    outer loop
      vertex 14.1 25 15
      vertex 2.9 25 3
      vertex 14.1 25 3
    endloop
  endfacet
  facet normal -0 0 1
    outer loop
      vertex 2.9 25 3
      vertex 14.1 24 3
      vertex 14.1 25 3
    endloop
  endfacet
  facet normal 0 0 1
    outer loop
      vertex 14.1 24 3
      vertex 2.9 25 3
      vertex 2.9 24 3
    endloop
  endfacet
  facet normal 1 -0 0
    outer loop
      vertex 2.9 24 15
      vertex 2.9 25 3
      vertex 2.9 25 15
    endloop
  endfacet
  facet normal 1 0 0
    outer loop
      vertex 2.9 25 3
      vertex 2.9 24 15
      vertex 2.9 24 3
    endloop
  endfacet
  facet normal 0 1 -0
    outer loop
      vertex 14.1 24 3
      vertex 2.9 24 15
      vertex 14.1 24 15
    endloop
  endfacet
  facet normal 0 1 0
    outer loop
      vertex 2.9 24 15
      vertex 14.1 24 3
      vertex 2.9 24 3
    endloop
  endfacet
  facet normal -1 0 0
    outer loop
      vertex 14.1 27 3
      vertex 14.1 28 15
      vertex 14.1 28 3
    endloop
  endfacet
  facet normal -1 -0 0
    outer loop
      vertex 14.1 28 15
      vertex 14.1 27 3
      vertex 14.1 27 15
    endloop
  endfacet
  facet normal 0 -1 0
    outer loop
      vertex 2.9 28 3
      vertex 14.1 28 15
      vertex 2.9 28 15
    endloop
  endfacet
  facet normal 0 -1 -0
    outer loop
      vertex 14.1 28 15
      vertex 2.9 28 3
      vertex 14.1 28 3
    endloop
  endfacet
  facet normal -0 0 1
    outer loop
      vertex 2.9 28 3
      vertex 14.1 27 3
      vertex 14.1 28 3
    endloop
  endfacet
  facet normal 0 0 1
    outer loop
      vertex 14.1 27 3
      vertex 2.9 28 3
      vertex 2.9 27 3
    endloop
  endfacet
  facet normal 1 -0 0
    outer loop
      vertex 2.9 27 15
      vertex 2.9 28 3
      vertex 2.9 28 15
    endloop
  endfacet
  facet normal 1 0 0
    outer loop
      vertex 2.9 28 3
      vertex 2.9 27 15
      vertex 2.9 27 3
    endloop
  endfacet
  facet normal 0 1 -0
    outer loop
      vertex 14.1 27 3
      vertex 2.9 27 15
      vertex 14.1 27 15
    endloop
  endfacet
  facet normal 0 1 0
    outer loop
      vertex 2.9 27 15
      vertex 14.1 27 3
      vertex 2.9 27 3
    endloop
  endfacet
  facet normal -1 0 0
    outer loop
      vertex 14.1 30 3
      vertex 14.1 31 15
      vertex 14.1 31 3
    endloop
  endfacet
  facet normal -1 -0 0
    outer loop
      vertex 14.1 31 15
      vertex 14.1 30 3
      vertex 14.1 30 15
    endloop
  endfacet
  facet normal 0 -1 0
    outer loop
      vertex 2.9 31 3
      vertex 14.1 31 15
      vertex 2.9 31 15
    endloop
  endfacet
  facet normal 0 -1 -0
    outer loop
      vertex 14.1 31 15
      vertex 2.9 31 3
      vertex 14.1 31 3
    endloop
  endfacet
  facet normal 1 -0 0
    outer loop
      vertex 2.9 30 15
      vertex 2.9 31 3
      vertex 2.9 31 15
    endloop
  endfacet
  facet normal 1 0 0
    outer loop
      vertex 2.9 31 3
      vertex 2.9 30 15
      vertex 2.9 30 3
    endloop
  endfacet
  facet normal 0 1 -0
    outer loop
      vertex 14.1 30 3
      vertex 2.9 30 15
      vertex 14.1 30 15
    endloop
  endfacet
  facet normal 0 1 0
    outer loop
      vertex 2.9 30 15
      vertex 14.1 30 3
      vertex 2.9 30 3
    endloop
  endfacet
  facet normal -0 0 1
    outer loop
      vertex 2.9 31 3
      vertex 14.1 30 3
      vertex 14.1 31 3
    endloop
  endfacet
  facet normal 0 0 1
    outer loop
      vertex 14.1 30 3
      vertex 2.9 31 3
      vertex 2.9 30 3
    endloop
  endfacet
  facet normal -1 0 0
    outer loop
      vertex 14.1 33 3
      vertex 14.1 34 15
      vertex 14.1 34 3
    endloop
  endfacet
  facet normal -1 -0 0
    outer loop
      vertex 14.1 34 15
      vertex 14.1 33 3
      vertex 14.1 33 15
    endloop
  endfacet
  facet normal 0 -1 0
    outer loop
      vertex 2.9 34 3
      vertex 14.1 34 15
      vertex 2.9 34 15
    endloop
  endfacet
  facet normal 0 -1 -0
    outer loop
      vertex 14.1 34 15
      vertex 2.9 34 3
      vertex 14.1 34 3
    endloop
  endfacet
  facet normal -0 0 1
    outer loop
      vertex 2.9 34 3
      vertex 14.1 33 3
      vertex 14.1 34 3
    endloop
  endfacet
  facet normal 0 0 1
    outer loop
      vertex 14.1 33 3
      vertex 2.9 34 3
      vertex 2.9 33 3
    endloop
  endfacet
  facet normal 1 -0 0
    outer loop
      vertex 2.9 33 15
      vertex 2.9 34 3
      vertex 2.9 34 15
    endloop
  endfacet
  facet normal 1 0 0
    outer loop
      vertex 2.9 34 3
      vertex 2.9 33 15
      vertex 2.9 33 3
    endloop
  endfacet
  facet normal 0 1 -0
    outer loop
      vertex 14.1 33 3
      vertex 2.9 33 15
      vertex 14.1 33 15
    endloop
  endfacet
  facet normal 0 1 0
    outer loop
      vertex 2.9 33 15
      vertex 14.1 33 3
      vertex 2.9 33 3
    endloop
  endfacet
  facet normal -1 0 0
    outer loop
      vertex 14.1 36 3
      vertex 14.1 37 15
      vertex 14.1 37 3
    endloop
  endfacet
  facet normal -1 -0 0
    outer loop
      vertex 14.1 37 15
      vertex 14.1 36 3
      vertex 14.1 36 15
    endloop
  endfacet
  facet normal 0 -1 0
    outer loop
      vertex 2.9 37 3
      vertex 14.1 37 15
      vertex 2.9 37 15
    endloop
  endfacet
  facet normal 0 -1 -0
    outer loop
      vertex 14.1 37 15
      vertex 2.9 37 3
      vertex 14.1 37 3
    endloop
  endfacet
  facet normal 1 -0 0
    outer loop
      vertex 2.9 36 15
      vertex 2.9 37 3
      vertex 2.9 37 15
    endloop
  endfacet
  facet normal 1 0 0
    outer loop
      vertex 2.9 37 3
      vertex 2.9 36 15
      vertex 2.9 36 3
    endloop
  endfacet
  facet normal 0 1 -0
    outer loop
      vertex 14.1 36 3
      vertex 2.9 36 15
      vertex 14.1 36 15
    endloop
  endfacet
  facet normal 0 1 0
    outer loop
      vertex 2.9 36 15
      vertex 14.1 36 3
      vertex 2.9 36 3
    endloop
  endfacet
  facet normal -0 0 1
    outer loop
      vertex 2.9 37 3
      vertex 14.1 36 3
      vertex 14.1 37 3
    endloop
  endfacet
  facet normal 0 0 1
    outer loop
      vertex 14.1 36 3
      vertex 2.9 37 3
      vertex 2.9 36 3
    endloop
  endfacet
  facet normal -1 0 0
    outer loop
      vertex 0 0 0
      vertex 0 40.5 15
      vertex 0 40.5 0
    endloop
  endfacet
  facet normal -1 -0 0
    outer loop
      vertex 0 40.5 15
      vertex 0 0 0
      vertex 0 0 15
    endloop
  endfacet
  facet normal -0 0 1
    outer loop
      vertex 2.9 6 15
      vertex 14.1 4 15
      vertex 14.1 6 15
    endloop
  endfacet
  facet normal 0 0 1
    outer loop
      vertex 14.1 4 15
      vertex 2.9 6 15
      vertex 2.9 4 15
    endloop
  endfacet
  facet normal -0 0 1
    outer loop
      vertex 2.9 9 15
      vertex 14.1 7 15
      vertex 14.1 9 15
    endloop
  endfacet
  facet normal 0 0 1
    outer loop
      vertex 14.1 7 15
      vertex 2.9 9 15
      vertex 2.9 7 15
    endloop
  endfacet
  facet normal -0 0 1
    outer loop
      vertex 2.9 12 15
      vertex 14.1 10 15
      vertex 14.1 12 15
    endloop
  endfacet
  facet normal 0 0 1
    outer loop
      vertex 14.1 10 15
      vertex 2.9 12 15
      vertex 2.9 10 15
    endloop
  endfacet
  facet normal -0 0 1
    outer loop
      vertex 2.9 15 15
      vertex 14.1 13 15
      vertex 14.1 15 15
    endloop
  endfacet
  facet normal 0 0 1
    outer loop
      vertex 14.1 13 15
      vertex 2.9 15 15
      vertex 2.9 13 15
    endloop
  endfacet
  facet normal -0 0 1
    outer loop
      vertex 2.9 18 15
      vertex 14.1 16 15
      vertex 14.1 18 15
    endloop
  endfacet
  facet normal 0 0 1
    outer loop
      vertex 14.1 16 15
      vertex 2.9 18 15
      vertex 2.9 16 15
    endloop
  endfacet
  facet normal -0 0 1
    outer loop
      vertex 2.9 21 15
      vertex 14.1 19 15
      vertex 14.1 21 15
    endloop
  endfacet
  facet normal 0 0 1
    outer loop
      vertex 14.1 19 15
      vertex 2.9 21 15
      vertex 2.9 19 15
    endloop
  endfacet
  facet normal -0 0 1
    outer loop
      vertex 2.9 24 15
      vertex 14.1 22 15
      vertex 14.1 24 15
    endloop
  endfacet
  facet normal 0 0 1
    outer loop
      vertex 14.1 22 15
      vertex 2.9 24 15
      vertex 2.9 22 15
    endloop
  endfacet
  facet normal -0 0 1
    outer loop
      vertex 2.9 27 15
      vertex 14.1 25 15
      vertex 14.1 27 15
    endloop
  endfacet
  facet normal 0 0 1
    outer loop
      vertex 14.1 25 15
      vertex 2.9 27 15
      vertex 2.9 25 15
    endloop
  endfacet
  facet normal -0 0 1
    outer loop
      vertex 2.9 30 15
      vertex 14.1 28 15
      vertex 14.1 30 15
    endloop
  endfacet
  facet normal 0 0 1
    outer loop
      vertex 14.1 28 15
      vertex 2.9 30 15
      vertex 2.9 28 15
    endloop
  endfacet
  facet normal -0 0 1
    outer loop
      vertex 2.9 33 15
      vertex 14.1 31 15
      vertex 14.1 33 15
    endloop
  endfacet
  facet normal 0 0 1
    outer loop
      vertex 14.1 31 15
      vertex 2.9 33 15
      vertex 2.9 31 15
    endloop
  endfacet
  facet normal -0 0 1
    outer loop
      vertex 2.9 36 15
      vertex 14.1 34 15
      vertex 14.1 36 15
    endloop
  endfacet
  facet normal 0 0 1
    outer loop
      vertex 14.1 34 15
      vertex 2.9 36 15
      vertex 2.9 34 15
    endloop
  endfacet
  facet normal 0 0 1
    outer loop
      vertex 14.1 36 15
      vertex 17 40.5 15
      vertex 14.1 37 15
    endloop
  endfacet
  facet normal 0 0 1
    outer loop
      vertex 17 40.5 15
      vertex 2.9 37 15
      vertex 14.1 37 15
    endloop
  endfacet
  facet normal 0 0 1
    outer loop
      vertex 0 40.5 15
      vertex 2.9 36 15
      vertex 2.9 37 15
    endloop
  endfacet
  facet normal 0 0 1
    outer loop
      vertex 2.9 36 15
      vertex 0 40.5 15
      vertex 2.9 34 15
    endloop
  endfacet
  facet normal 0 0 1
    outer loop
      vertex 2.9 34 15
      vertex 0 40.5 15
      vertex 2.9 33 15
    endloop
  endfacet
  facet normal 0 0 1
    outer loop
      vertex 2.9 33 15
      vertex 0 40.5 15
      vertex 2.9 31 15
    endloop
  endfacet
  facet normal 0 0 1
    outer loop
      vertex 2.9 31 15
      vertex 0 40.5 15
      vertex 2.9 30 15
    endloop
  endfacet
  facet normal 0 0 1
    outer loop
      vertex 2.9 30 15
      vertex 0 40.5 15
      vertex 2.9 28 15
    endloop
  endfacet
  facet normal 0 0 1
    outer loop
      vertex 2.9 28 15
      vertex 0 40.5 15
      vertex 2.9 27 15
    endloop
  endfacet
  facet normal 0 0 1
    outer loop
      vertex 2.9 27 15
      vertex 0 40.5 15
      vertex 2.9 25 15
    endloop
  endfacet
  facet normal 0 0 1
    outer loop
      vertex 2.9 25 15
      vertex 0 40.5 15
      vertex 2.9 24 15
    endloop
  endfacet
  facet normal 0 0 1
    outer loop
      vertex 2.9 24 15
      vertex 0 40.5 15
      vertex 2.9 22 15
    endloop
  endfacet
  facet normal 0 0 1
    outer loop
      vertex 2.9 22 15
      vertex 0 40.5 15
      vertex 2.9 21 15
    endloop
  endfacet
  facet normal 0 0 1
    outer loop
      vertex 2.9 21 15
      vertex 0 40.5 15
      vertex 2.9 19 15
    endloop
  endfacet
  facet normal 0 0 1
    outer loop
      vertex 0 0 15
      vertex 2.9 19 15
      vertex 0 40.5 15
    endloop
  endfacet
  facet normal 0 0 1
    outer loop
      vertex 2.9 19 15
      vertex 0 0 15
      vertex 2.9 18 15
    endloop
  endfacet
  facet normal 0 0 1
    outer loop
      vertex 2.9 18 15
      vertex 0 0 15
      vertex 2.9 16 15
    endloop
  endfacet
  facet normal 0 0 1
    outer loop
      vertex 2.9 16 15
      vertex 0 0 15
      vertex 2.9 15 15
    endloop
  endfacet
  facet normal 0 0 1
    outer loop
      vertex 2.9 15 15
      vertex 0 0 15
      vertex 2.9 13 15
    endloop
  endfacet
  facet normal 0 0 1
    outer loop
      vertex 2.9 13 15
      vertex 0 0 15
      vertex 2.9 12 15
    endloop
  endfacet
  facet normal 0 0 1
    outer loop
      vertex 2.9 12 15
      vertex 0 0 15
      vertex 2.9 10 15
    endloop
  endfacet
  facet normal 0 0 1
    outer loop
      vertex 2.9 10 15
      vertex 0 0 15
      vertex 2.9 9 15
    endloop
  endfacet
  facet normal 0 0 1
    outer loop
      vertex 2.9 9 15
      vertex 0 0 15
      vertex 2.9 7 15
    endloop
  endfacet
  facet normal 0 0 1
    outer loop
      vertex 2.9 7 15
      vertex 0 0 15
      vertex 2.9 6 15
    endloop
  endfacet
  facet normal 0 0 1
    outer loop
      vertex 2.9 6 15
      vertex 0 0 15
      vertex 2.9 4 15
    endloop
  endfacet
  facet normal -0 0 1
    outer loop
      vertex 0 40.5 15
      vertex 2.9 37 15
      vertex 17 40.5 15
    endloop
  endfacet
  facet normal 0 0 1
    outer loop
      vertex 14.1 34 15
      vertex 17 40.5 15
      vertex 14.1 36 15
    endloop
  endfacet
  facet normal 0 0 1
    outer loop
      vertex 14.1 33 15
      vertex 17 40.5 15
      vertex 14.1 34 15
    endloop
  endfacet
  facet normal 0 0 1
    outer loop
      vertex 14.1 31 15
      vertex 17 40.5 15
      vertex 14.1 33 15
    endloop
  endfacet
  facet normal 0 0 1
    outer loop
      vertex 14.1 30 15
      vertex 17 40.5 15
      vertex 14.1 31 15
    endloop
  endfacet
  facet normal 0 0 1
    outer loop
      vertex 14.1 28 15
      vertex 17 40.5 15
      vertex 14.1 30 15
    endloop
  endfacet
  facet normal 0 0 1
    outer loop
      vertex 14.1 27 15
      vertex 17 40.5 15
      vertex 14.1 28 15
    endloop
  endfacet
  facet normal 0 0 1
    outer loop
      vertex 14.1 25 15
      vertex 17 40.5 15
      vertex 14.1 27 15
    endloop
  endfacet
  facet normal 0 0 1
    outer loop
      vertex 14.1 24 15
      vertex 17 40.5 15
      vertex 14.1 25 15
    endloop
  endfacet
  facet normal 0 0 1
    outer loop
      vertex 14.1 22 15
      vertex 17 40.5 15
      vertex 14.1 24 15
    endloop
  endfacet
  facet normal 0 0 1
    outer loop
      vertex 14.1 21 15
      vertex 17 40.5 15
      vertex 14.1 22 15
    endloop
  endfacet
  facet normal 0 0 1
    outer loop
      vertex 17 40.5 15
      vertex 14.1 21 15
      vertex 17 0 15
    endloop
  endfacet
  facet normal -0 0 1
    outer loop
      vertex 14.1 19 15
      vertex 17 0 15
      vertex 14.1 21 15
    endloop
  endfacet
  facet normal -0 0 1
    outer loop
      vertex 14.1 18 15
      vertex 17 0 15
      vertex 14.1 19 15
    endloop
  endfacet
  facet normal -0 0 1
    outer loop
      vertex 14.1 16 15
      vertex 17 0 15
      vertex 14.1 18 15
    endloop
  endfacet
  facet normal -0 0 1
    outer loop
      vertex 14.1 15 15
      vertex 17 0 15
      vertex 14.1 16 15
    endloop
  endfacet
  facet normal -0 0 1
    outer loop
      vertex 14.1 13 15
      vertex 17 0 15
      vertex 14.1 15 15
    endloop
  endfacet
  facet normal -0 0 1
    outer loop
      vertex 14.1 12 15
      vertex 17 0 15
      vertex 14.1 13 15
    endloop
  endfacet
  facet normal -0 0 1
    outer loop
      vertex 14.1 10 15
      vertex 17 0 15
      vertex 14.1 12 15
    endloop
  endfacet
  facet normal -0 0 1
    outer loop
      vertex 14.1 9 15
      vertex 17 0 15
      vertex 14.1 10 15
    endloop
  endfacet
  facet normal -0 0 1
    outer loop
      vertex 14.1 7 15
      vertex 17 0 15
      vertex 14.1 9 15
    endloop
  endfacet
  facet normal -0 0 1
    outer loop
      vertex 14.1 6 15
      vertex 17 0 15
      vertex 14.1 7 15
    endloop
  endfacet
  facet normal -0 0 1
    outer loop
      vertex 14.1 4 15
      vertex 17 0 15
      vertex 14.1 6 15
    endloop
  endfacet
  facet normal -0 0 1
    outer loop
      vertex 14.1 3 15
      vertex 17 0 15
      vertex 14.1 4 15
    endloop
  endfacet
  facet normal -0 0 1
    outer loop
      vertex 2.9 3 15
      vertex 17 0 15
      vertex 14.1 3 15
    endloop
  endfacet
  facet normal 0 0 1
    outer loop
      vertex 2.9 3 15
      vertex 0 0 15
      vertex 17 0 15
    endloop
  endfacet
  facet normal 0 0 1
    outer loop
      vertex 2.9 4 15
      vertex 0 0 15
      vertex 2.9 3 15
    endloop
  endfacet
  facet normal 1 -0 0
    outer loop
      vertex 17 0 15
      vertex 17 40.5 0
      vertex 17 40.5 15
    endloop
  endfacet
  facet normal 1 0 0
    outer loop
      vertex 17 40.5 0
      vertex 17 0 15
      vertex 17 0 0
    endloop
  endfacet
  facet normal 0 1 -0
    outer loop
      vertex 17 40.5 0
      vertex 0 40.5 15
      vertex 17 40.5 15
    endloop
  endfacet
  facet normal 0 1 0
    outer loop
      vertex 0 40.5 15
      vertex 17 40.5 0
      vertex 0 40.5 0
    endloop
  endfacet
  facet normal 0 0 -1
    outer loop
      vertex 0 0 0
      vertex 17 40.5 0
      vertex 17 0 0
    endloop
  endfacet
  facet normal -0 0 -1
    outer loop
      vertex 17 40.5 0
      vertex 0 0 0
      vertex 0 40.5 0
    endloop
  endfacet
  facet normal 0 -1 0
    outer loop
      vertex 0 0 0
      vertex 17 0 15
      vertex 0 0 15
    endloop
  endfacet
  facet normal 0 -1 -0
    outer loop
      vertex 17 0 15
      vertex 0 0 0
      vertex 17 0 0
    endloop
  endfacet
endsolid OpenSCAD_Model
