solid OpenSCAD_Model
  facet normal -1 0 0
    outer loop
      vertex 0 84 0
      vertex 0 165.4 6
      vertex 0 165.4 0
    endloop
  endfacet
  facet normal -1 -0 0
    outer loop
      vertex 0 165.4 6
      vertex 0 84 0
      vertex 0 84 6
    endloop
  endfacet
  facet normal 0 0 1
    outer loop
      vertex 157.9 165.4 6
      vertex 156.4 163.9 6
      vertex 157.9 84 6
    endloop
  endfacet
  facet normal 0 0 1
    outer loop
      vertex 157.9 165.4 6
      vertex 1.5 163.9 6
      vertex 156.4 163.9 6
    endloop
  endfacet
  facet normal 0 0 1
    outer loop
      vertex 1.5 163.9 6
      vertex 0 165.4 6
      vertex 1.5 85.5 6
    endloop
  endfacet
  facet normal -0 0 1
    outer loop
      vertex 0 165.4 6
      vertex 1.5 163.9 6
      vertex 157.9 165.4 6
    endloop
  endfacet
  facet normal -0 0 1
    outer loop
      vertex 156.4 85.5 6
      vertex 157.9 84 6
      vertex 156.4 163.9 6
    endloop
  endfacet
  facet normal -0 0 1
    outer loop
      vertex 1.5 85.5 6
      vertex 157.9 84 6
      vertex 156.4 85.5 6
    endloop
  endfacet
  facet normal 0 0 1
    outer loop
      vertex 1.5 85.5 6
      vertex 0 84 6
      vertex 157.9 84 6
    endloop
  endfacet
  facet normal 0 0 1
    outer loop
      vertex 0 84 6
      vertex 1.5 85.5 6
      vertex 0 165.4 6
    endloop
  endfacet
  facet normal 1 -0 0
    outer loop
      vertex 157.9 84 6
      vertex 157.9 165.4 0
      vertex 157.9 165.4 6
    endloop
  endfacet
  facet normal 1 0 0
    outer loop
      vertex 157.9 165.4 0
      vertex 157.9 84 6
      vertex 157.9 84 0
    endloop
  endfacet
  facet normal 0 0 -1
    outer loop
      vertex 0 84 0
      vertex 157.9 165.4 0
      vertex 157.9 84 0
    endloop
  endfacet
  facet normal -0 0 -1
    outer loop
      vertex 157.9 165.4 0
      vertex 0 84 0
      vertex 0 165.4 0
    endloop
  endfacet
  facet normal 0 -1 0
    outer loop
      vertex 0 84 0
      vertex 157.9 84 6
      vertex 0 84 6
    endloop
  endfacet
  facet normal 0 -1 -0
    outer loop
      vertex 157.9 84 6
      vertex 0 84 0
      vertex 157.9 84 0
    endloop
  endfacet
  facet normal 0 1 -0
    outer loop
      vertex 157.9 165.4 0
      vertex 0 165.4 6
      vertex 157.9 165.4 6
    endloop
  endfacet
  facet normal 0 1 0
    outer loop
      vertex 0 165.4 6
      vertex 157.9 165.4 0
      vertex 0 165.4 0
    endloop
  endfacet
  facet normal 1 -0 0
    outer loop
      vertex 1.5 85.5 6
      vertex 1.5 163.9 1.5
      vertex 1.5 163.9 6
    endloop
  endfacet
  facet normal 1 0 0
    outer loop
      vertex 1.5 163.9 1.5
      vertex 1.5 85.5 6
      vertex 1.5 85.5 1.5
    endloop
  endfacet
  facet normal -1 0 0
    outer loop
      vertex 156.4 85.5 1.5
      vertex 156.4 163.9 6
      vertex 156.4 163.9 1.5
    endloop
  endfacet
  facet normal -1 -0 0
    outer loop
      vertex 156.4 163.9 6
      vertex 156.4 85.5 1.5
      vertex 156.4 85.5 6
    endloop
  endfacet
  facet normal 0 -1 0
    outer loop
      vertex 1.5 163.9 1.5
      vertex 156.4 163.9 6
      vertex 1.5 163.9 6
    endloop
  endfacet
  facet normal 0 -1 -0
    outer loop
      vertex 156.4 163.9 6
      vertex 1.5 163.9 1.5
      vertex 156.4 163.9 1.5
    endloop
  endfacet
  facet normal -0 0 1
    outer loop
      vertex 1.5 163.9 1.5
      vertex 156.4 85.5 1.5
      vertex 156.4 163.9 1.5
    endloop
  endfacet
  facet normal 0 0 1
    outer loop
      vertex 156.4 85.5 1.5
      vertex 1.5 163.9 1.5
      vertex 1.5 85.5 1.5
    endloop
  endfacet
  facet normal 0 1 -0
    outer loop
      vertex 156.4 85.5 1.5
      vertex 1.5 85.5 6
      vertex 156.4 85.5 6
    endloop
  endfacet
  facet normal 0 1 0
    outer loop
      vertex 1.5 85.5 6
      vertex 156.4 85.5 1.5
      vertex 1.5 85.5 1.5
    endloop
  endfacet
endsolid OpenSCAD_Model
