solid OpenSCAD_Model
  facet normal -1 0 0
    outer loop
      vertex 0 0 0
      vertex 0 78 31.5
      vertex 0 78 0
    endloop
  endfacet
  facet normal -1 -0 0
    outer loop
      vertex 0 78 31.5
      vertex 0 0 0
      vertex 0 0 31.5
    endloop
  endfacet
  facet normal 0 0 1
    outer loop
      vertex 154.5 78 31.5
      vertex 153 76.5 31.5
      vertex 154.5 0 31.5
    endloop
  endfacet
  facet normal 0 0 1
    outer loop
      vertex 154.5 78 31.5
      vertex 78 76.5 31.5
      vertex 153 76.5 31.5
    endloop
  endfacet
  facet normal 0 0 1
    outer loop
      vertex 78 76.5 31.5
      vertex 76.5 76.5 31.5
      vertex 78 1.5 31.5
    endloop
  endfacet
  facet normal 0 0 1
    outer loop
      vertex 154.5 78 31.5
      vertex 76.5 76.5 31.5
      vertex 78 76.5 31.5
    endloop
  endfacet
  facet normal -0 0 1
    outer loop
      vertex 0 78 31.5
      vertex 76.5 76.5 31.5
      vertex 154.5 78 31.5
    endloop
  endfacet
  facet normal 0 0 1
    outer loop
      vertex 1.5 76.5 31.5
      vertex 0 78 31.5
      vertex 1.5 1.5 31.5
    endloop
  endfacet
  facet normal 0 0 1
    outer loop
      vertex 76.5 76.5 31.5
      vertex 0 78 31.5
      vertex 1.5 76.5 31.5
    endloop
  endfacet
  facet normal -0 0 1
    outer loop
      vertex 153 1.5 31.5
      vertex 154.5 0 31.5
      vertex 153 76.5 31.5
    endloop
  endfacet
  facet normal -0 0 1
    outer loop
      vertex 78 1.5 31.5
      vertex 154.5 0 31.5
      vertex 153 1.5 31.5
    endloop
  endfacet
  facet normal 0 0 1
    outer loop
      vertex 76.5 1.5 31.5
      vertex 78 1.5 31.5
      vertex 76.5 76.5 31.5
    endloop
  endfacet
  facet normal -0 0 1
    outer loop
      vertex 76.5 1.5 31.5
      vertex 154.5 0 31.5
      vertex 78 1.5 31.5
    endloop
  endfacet
  facet normal 0 0 1
    outer loop
      vertex 0 0 31.5
      vertex 76.5 1.5 31.5
      vertex 1.5 1.5 31.5
    endloop
  endfacet
  facet normal 0 0 1
    outer loop
      vertex 76.5 1.5 31.5
      vertex 0 0 31.5
      vertex 154.5 0 31.5
    endloop
  endfacet
  facet normal 0 0 1
    outer loop
      vertex 0 0 31.5
      vertex 1.5 1.5 31.5
      vertex 0 78 31.5
    endloop
  endfacet
  facet normal 1 -0 0
    outer loop
      vertex 154.5 0 31.5
      vertex 154.5 78 0
      vertex 154.5 78 31.5
    endloop
  endfacet
  facet normal 1 0 0
    outer loop
      vertex 154.5 78 0
      vertex 154.5 0 31.5
      vertex 154.5 0 0
    endloop
  endfacet
  facet normal 0 0 -1
    outer loop
      vertex 0 0 0
      vertex 154.5 78 0
      vertex 154.5 0 0
    endloop
  endfacet
  facet normal -0 0 -1
    outer loop
      vertex 154.5 78 0
      vertex 0 0 0
      vertex 0 78 0
    endloop
  endfacet
  facet normal 0 -1 0
    outer loop
      vertex 0 0 0
      vertex 154.5 0 31.5
      vertex 0 0 31.5
    endloop
  endfacet
  facet normal 0 -1 -0
    outer loop
      vertex 154.5 0 31.5
      vertex 0 0 0
      vertex 154.5 0 0
    endloop
  endfacet
  facet normal 0 1 -0
    outer loop
      vertex 154.5 78 0
      vertex 0 78 31.5
      vertex 154.5 78 31.5
    endloop
  endfacet
  facet normal 0 1 0
    outer loop
      vertex 0 78 31.5
      vertex 154.5 78 0
      vertex 0 78 0
    endloop
  endfacet
  facet normal 1 -0 0
    outer loop
      vertex 1.5 1.5 31.5
      vertex 1.5 76.5 1.5
      vertex 1.5 76.5 31.5
    endloop
  endfacet
  facet normal 1 0 0
    outer loop
      vertex 1.5 76.5 1.5
      vertex 1.5 1.5 31.5
      vertex 1.5 1.5 1.5
    endloop
  endfacet
  facet normal -1 0 0
    outer loop
      vertex 76.5 1.5 1.5
      vertex 76.5 76.5 31.5
      vertex 76.5 76.5 1.5
    endloop
  endfacet
  facet normal -1 -0 0
    outer loop
      vertex 76.5 76.5 31.5
      vertex 76.5 1.5 1.5
      vertex 76.5 1.5 31.5
    endloop
  endfacet
  facet normal -0 0 1
    outer loop
      vertex 1.5 76.5 1.5
      vertex 76.5 1.5 1.5
      vertex 76.5 76.5 1.5
    endloop
  endfacet
  facet normal 0 0 1
    outer loop
      vertex 76.5 1.5 1.5
      vertex 1.5 76.5 1.5
      vertex 1.5 1.5 1.5
    endloop
  endfacet
  facet normal 0 1 -0
    outer loop
      vertex 76.5 1.5 1.5
      vertex 1.5 1.5 31.5
      vertex 76.5 1.5 31.5
    endloop
  endfacet
  facet normal 0 1 0
    outer loop
      vertex 1.5 1.5 31.5
      vertex 76.5 1.5 1.5
      vertex 1.5 1.5 1.5
    endloop
  endfacet
  facet normal 0 -1 0
    outer loop
      vertex 1.5 76.5 1.5
      vertex 76.5 76.5 31.5
      vertex 1.5 76.5 31.5
    endloop
  endfacet
  facet normal 0 -1 -0
    outer loop
      vertex 76.5 76.5 31.5
      vertex 1.5 76.5 1.5
      vertex 76.5 76.5 1.5
    endloop
  endfacet
  facet normal 1 -0 0
    outer loop
      vertex 78 1.5 31.5
      vertex 78 76.5 1.5
      vertex 78 76.5 31.5
    endloop
  endfacet
  facet normal 1 0 0
    outer loop
      vertex 78 76.5 1.5
      vertex 78 1.5 31.5
      vertex 78 1.5 1.5
    endloop
  endfacet
  facet normal -1 0 0
    outer loop
      vertex 153 1.5 1.5
      vertex 153 76.5 31.5
      vertex 153 76.5 1.5
    endloop
  endfacet
  facet normal -1 -0 0
    outer loop
      vertex 153 76.5 31.5
      vertex 153 1.5 1.5
      vertex 153 1.5 31.5
    endloop
  endfacet
  facet normal -0 0 1
    outer loop
      vertex 78 76.5 1.5
      vertex 153 1.5 1.5
      vertex 153 76.5 1.5
    endloop
  endfacet
  facet normal 0 0 1
    outer loop
      vertex 153 1.5 1.5
      vertex 78 76.5 1.5
      vertex 78 1.5 1.5
    endloop
  endfacet
  facet normal 0 1 -0
    outer loop
      vertex 153 1.5 1.5
      vertex 78 1.5 31.5
      vertex 153 1.5 31.5
    endloop
  endfacet
  facet normal 0 1 0
    outer loop
      vertex 78 1.5 31.5
      vertex 153 1.5 1.5
      vertex 78 1.5 1.5
    endloop
  endfacet
  facet normal 0 -1 0
    outer loop
      vertex 78 76.5 1.5
      vertex 153 76.5 31.5
      vertex 78 76.5 31.5
    endloop
  endfacet
  facet normal 0 -1 -0
    outer loop
      vertex 153 76.5 31.5
      vertex 78 76.5 1.5
      vertex 153 76.5 1.5
    endloop
  endfacet
endsolid OpenSCAD_Model
