solid OpenSCAD_Model
  facet normal 0.927512 0.0455727 0.371005
    outer loop
      vertex 4.97592 0.490085 2.5
      vertex 0 0 15
      vertex 5 0 2.5
    endloop
  endfacet
  facet normal 0.136245 0.918582 0.371005
    outer loop
      vertex 0 0 15
      vertex 0.975451 4.90393 2.5
      vertex 0.490086 4.97592 2.5
    endloop
  endfacet
  facet normal 0 0.929093 0.369847
    outer loop
      vertex 0 0 15
      vertex 0.490086 4.97592 2.5
      vertex 0.490085 4.97592 2.5
    endloop
  endfacet
  facet normal -0.745883 0.553186 0.371005
    outer loop
      vertex -4.15735 2.77785 2.5
      vertex 0 0 15
      vertex -3.86505 3.17197 2.5
    endloop
  endfacet
  facet normal -0.553186 0.745883 0.371005
    outer loop
      vertex 0 0 15
      vertex -2.77785 4.15735 2.5
      vertex -3.17197 3.86505 2.5
    endloop
  endfacet
  facet normal 0.22565 -0.900798 0.371005
    outer loop
      vertex 1.45142 -4.7847 2.5
      vertex 0 0 15
      vertex 0.975451 -4.90393 2.5
    endloop
  endfacet
  facet normal -0.839471 0.397044 0.371005
    outer loop
      vertex -4.6194 1.91342 2.5
      vertex 0 0 15
      vertex -4.40961 2.35698 2.5
    endloop
  endfacet
  facet normal 0.929093 0 0.369847
    outer loop
      vertex 4.97592 0.490086 2.5
      vertex 0 0 15
      vertex 4.97592 0.490085 2.5
    endloop
  endfacet
  facet normal 0.918582 0.136245 0.371005
    outer loop
      vertex 4.90393 0.975451 2.5
      vertex 0 0 15
      vertex 4.97592 0.490086 2.5
    endloop
  endfacet
  facet normal 0.839471 -0.397044 0.371005
    outer loop
      vertex 4.6194 -1.91342 2.5
      vertex 0 0 15
      vertex 4.40961 -2.35698 2.5
    endloop
  endfacet
  facet normal -0.397044 0.839471 0.371005
    outer loop
      vertex 0 0 15
      vertex -1.91342 4.6194 2.5
      vertex -2.35698 4.40961 2.5
    endloop
  endfacet
  facet normal -0.312836 -0.874351 0.371005
    outer loop
      vertex -1.45142 -4.7847 2.5
      vertex 0 0 15
      vertex -1.91342 -4.6194 2.5
    endloop
  endfacet
  facet normal -0.0455727 -0.927512 0.371005
    outer loop
      vertex 0 0 15
      vertex -0.490085 -4.97592 2.5
      vertex 0 -5 2.5
    endloop
  endfacet
  facet normal 0.688062 0.623639 0.371005
    outer loop
      vertex 3.53553 3.53553 2.5
      vertex 0 0 15
      vertex 3.86505 3.17197 2.5
    endloop
  endfacet
  facet normal -0.900798 0.22565 0.371005
    outer loop
      vertex -4.7847 1.45142 2.5
      vertex -4.90393 0.975451 2.5
      vertex 0 0 15
    endloop
  endfacet
  facet normal -0.927512 -0.0455727 0.371005
    outer loop
      vertex 0 0 15
      vertex -5 0 2.5
      vertex -4.97592 -0.490085 2.5
    endloop
  endfacet
  facet normal -0.796513 0.477412 0.371005
    outer loop
      vertex -4.40961 2.35698 2.5
      vertex 0 0 15
      vertex -4.15735 2.77785 2.5
    endloop
  endfacet
  facet normal -0.312836 0.874351 0.371005
    outer loop
      vertex 0 0 15
      vertex -1.45142 4.7847 2.5
      vertex -1.91342 4.6194 2.5
    endloop
  endfacet
  facet normal 0.477412 -0.796513 0.371005
    outer loop
      vertex 0 0 15
      vertex 2.35698 -4.40961 2.5
      vertex 2.77785 -4.15735 2.5
    endloop
  endfacet
  facet normal -0.874351 -0.312836 0.371005
    outer loop
      vertex 0 0 15
      vertex -4.7847 -1.45142 2.5
      vertex -4.6194 -1.91342 2.5
    endloop
  endfacet
  facet normal 0.477412 0.796513 0.371005
    outer loop
      vertex 0 0 15
      vertex 2.77785 4.15735 2.5
      vertex 2.35698 4.40961 2.5
    endloop
  endfacet
  facet normal -0.839471 -0.397044 0.371005
    outer loop
      vertex 0 0 15
      vertex -4.6194 -1.91342 2.5
      vertex -4.40961 -2.35698 2.5
    endloop
  endfacet
  facet normal 0 0 -1
    outer loop
      vertex 4 0 0
      vertex 10 0 0
      vertex 9.95185 -0.980171 0
    endloop
  endfacet
  facet normal 0 0 -1
    outer loop
      vertex 3.98074 -0.392068 0
      vertex 9.95185 -0.980171 0
      vertex 9.80785 -1.9509 0
    endloop
  endfacet
  facet normal 0 0 -1
    outer loop
      vertex 10 0 0
      vertex 4 0 0
      vertex 9.95185 0.980171 0
    endloop
  endfacet
  facet normal 0 0 -1
    outer loop
      vertex 3.92314 -0.780361 0
      vertex 9.80785 -1.9509 0
      vertex 9.5694 -2.90285 0
    endloop
  endfacet
  facet normal 0 0 -1
    outer loop
      vertex 3.98074 0.392068 0
      vertex 9.95185 0.980171 0
      vertex 4 0 0
    endloop
  endfacet
  facet normal 0 0 -1
    outer loop
      vertex 3.82776 -1.16114 0
      vertex 9.5694 -2.90285 0
      vertex 9.2388 -3.82683 0
    endloop
  endfacet
  facet normal -0 0 -1
    outer loop
      vertex 9.95185 0.980171 0
      vertex 3.98074 0.392068 0
      vertex 9.80785 1.9509 0
    endloop
  endfacet
  facet normal 0 0 -1
    outer loop
      vertex 3.69552 -1.53073 0
      vertex 9.2388 -3.82683 0
      vertex 8.81921 -4.71397 0
    endloop
  endfacet
  facet normal 0 0 -1
    outer loop
      vertex 3.92314 0.780361 0
      vertex 9.80785 1.9509 0
      vertex 3.98074 0.392068 0
    endloop
  endfacet
  facet normal 0 0 -1
    outer loop
      vertex 3.52768 -1.88559 0
      vertex 8.81921 -4.71397 0
      vertex 8.3147 -5.5557 0
    endloop
  endfacet
  facet normal -0 0 -1
    outer loop
      vertex 9.80785 1.9509 0
      vertex 3.92314 0.780361 0
      vertex 9.5694 2.90285 0
    endloop
  endfacet
  facet normal 0 0 -1
    outer loop
      vertex 3.32588 -2.22228 0
      vertex 8.3147 -5.5557 0
      vertex 7.7301 -6.34393 0
    endloop
  endfacet
  facet normal 0 0 -1
    outer loop
      vertex 3.82776 1.16114 0
      vertex 9.5694 2.90285 0
      vertex 3.92314 0.780361 0
    endloop
  endfacet
  facet normal 0 0 -1
    outer loop
      vertex 3.09204 -2.53757 0
      vertex 7.7301 -6.34393 0
      vertex 7.07107 -7.07107 0
    endloop
  endfacet
  facet normal -0 0 -1
    outer loop
      vertex 9.5694 2.90285 0
      vertex 3.82776 1.16114 0
      vertex 9.2388 3.82683 0
    endloop
  endfacet
  facet normal 0 0 -1
    outer loop
      vertex 2.82843 -2.82843 0
      vertex 7.07107 -7.07107 0
      vertex 6.34393 -7.7301 0
    endloop
  endfacet
  facet normal 0 0 -1
    outer loop
      vertex 3.69552 1.53073 0
      vertex 9.2388 3.82683 0
      vertex 3.82776 1.16114 0
    endloop
  endfacet
  facet normal 0 0 -1
    outer loop
      vertex 2.53757 -3.09204 0
      vertex 6.34393 -7.7301 0
      vertex 5.5557 -8.3147 0
    endloop
  endfacet
  facet normal -0 0 -1
    outer loop
      vertex 9.2388 3.82683 0
      vertex 3.69552 1.53073 0
      vertex 8.81921 4.71397 0
    endloop
  endfacet
  facet normal 0 0 -1
    outer loop
      vertex 2.22228 -3.32588 0
      vertex 5.5557 -8.3147 0
      vertex 4.71397 -8.81921 0
    endloop
  endfacet
  facet normal 0 0 -1
    outer loop
      vertex 3.52768 1.88559 0
      vertex 8.81921 4.71397 0
      vertex 3.69552 1.53073 0
    endloop
  endfacet
  facet normal -0 0 -1
    outer loop
      vertex 8.81921 4.71397 0
      vertex 3.52768 1.88559 0
      vertex 8.3147 5.5557 0
    endloop
  endfacet
  facet normal 0 0 -1
    outer loop
      vertex 9.95185 -0.980171 0
      vertex 3.98074 -0.392068 0
      vertex 4 0 0
    endloop
  endfacet
  facet normal 0 0 -1
    outer loop
      vertex 9.80785 -1.9509 0
      vertex 3.92314 -0.780361 0
      vertex 3.98074 -0.392068 0
    endloop
  endfacet
  facet normal 0 0 -1
    outer loop
      vertex 9.5694 -2.90285 0
      vertex 3.82776 -1.16114 0
      vertex 3.92314 -0.780361 0
    endloop
  endfacet
  facet normal 0 0 -1
    outer loop
      vertex 1.88559 -3.52768 0
      vertex 4.71397 -8.81921 0
      vertex 3.82683 -9.2388 0
    endloop
  endfacet
  facet normal 0 0 -1
    outer loop
      vertex 9.2388 -3.82683 0
      vertex 3.69552 -1.53073 0
      vertex 3.82776 -1.16114 0
    endloop
  endfacet
  facet normal 0 0 -1
    outer loop
      vertex 8.81921 -4.71397 0
      vertex 3.52768 -1.88559 0
      vertex 3.69552 -1.53073 0
    endloop
  endfacet
  facet normal 0 0 -1
    outer loop
      vertex 8.3147 -5.5557 0
      vertex 3.32588 -2.22228 0
      vertex 3.52768 -1.88559 0
    endloop
  endfacet
  facet normal 0 0 -1
    outer loop
      vertex 7.7301 -6.34393 0
      vertex 3.09204 -2.53757 0
      vertex 3.32588 -2.22228 0
    endloop
  endfacet
  facet normal 0 0 -1
    outer loop
      vertex 1.53073 -3.69552 0
      vertex 3.82683 -9.2388 0
      vertex 2.90285 -9.5694 0
    endloop
  endfacet
  facet normal 0 0 -1
    outer loop
      vertex 7.07107 -7.07107 0
      vertex 2.82843 -2.82843 0
      vertex 3.09204 -2.53757 0
    endloop
  endfacet
  facet normal 0 0 -1
    outer loop
      vertex 6.34393 -7.7301 0
      vertex 2.53757 -3.09204 0
      vertex 2.82843 -2.82843 0
    endloop
  endfacet
  facet normal 0 0 -1
    outer loop
      vertex 5.5557 -8.3147 0
      vertex 2.22228 -3.32588 0
      vertex 2.53757 -3.09204 0
    endloop
  endfacet
  facet normal 0 0 -1
    outer loop
      vertex 1.16114 -3.82776 0
      vertex 2.90285 -9.5694 0
      vertex 1.9509 -9.80785 0
    endloop
  endfacet
  facet normal 0 0 -1
    outer loop
      vertex 4.71397 -8.81921 0
      vertex 1.88559 -3.52768 0
      vertex 2.22228 -3.32588 0
    endloop
  endfacet
  facet normal 0 0 -1
    outer loop
      vertex 3.82683 -9.2388 0
      vertex 1.53073 -3.69552 0
      vertex 1.88559 -3.52768 0
    endloop
  endfacet
  facet normal 0 0 -1
    outer loop
      vertex 2.90285 -9.5694 0
      vertex 1.16114 -3.82776 0
      vertex 1.53073 -3.69552 0
    endloop
  endfacet
  facet normal 0 0 -1
    outer loop
      vertex 0.780361 -3.92314 0
      vertex 1.9509 -9.80785 0
      vertex 0.980171 -9.95185 0
    endloop
  endfacet
  facet normal 0 0 -1
    outer loop
      vertex 1.9509 -9.80785 0
      vertex 0.780361 -3.92314 0
      vertex 1.16114 -3.82776 0
    endloop
  endfacet
  facet normal 0 0 -1
    outer loop
      vertex 0.980171 -9.95185 0
      vertex 0.392068 -3.98074 0
      vertex 0.780361 -3.92314 0
    endloop
  endfacet
  facet normal 0 0 -1
    outer loop
      vertex 0 -10 0
      vertex 0.392068 -3.98074 0
      vertex 0.980171 -9.95185 0
    endloop
  endfacet
  facet normal 0 0 -1
    outer loop
      vertex 0 -10 0
      vertex 0 -4 0
      vertex 0.392068 -3.98074 0
    endloop
  endfacet
  facet normal 0 0 -1
    outer loop
      vertex 0 -10 0
      vertex -0.392068 -3.98074 0
      vertex 0 -4 0
    endloop
  endfacet
  facet normal 0 0 -1
    outer loop
      vertex -0.980171 -9.95185 0
      vertex -0.392068 -3.98074 0
      vertex 0 -10 0
    endloop
  endfacet
  facet normal -0 0 -1
    outer loop
      vertex -0.392068 -3.98074 0
      vertex -0.980171 -9.95185 0
      vertex -0.780361 -3.92314 0
    endloop
  endfacet
  facet normal 0 0 -1
    outer loop
      vertex -1.9509 -9.80785 0
      vertex -0.780361 -3.92314 0
      vertex -0.980171 -9.95185 0
    endloop
  endfacet
  facet normal -0 0 -1
    outer loop
      vertex -0.780361 -3.92314 0
      vertex -1.9509 -9.80785 0
      vertex -1.16114 -3.82776 0
    endloop
  endfacet
  facet normal 0 0 -1
    outer loop
      vertex -2.90285 -9.5694 0
      vertex -1.16114 -3.82776 0
      vertex -1.9509 -9.80785 0
    endloop
  endfacet
  facet normal -0 0 -1
    outer loop
      vertex -1.16114 -3.82776 0
      vertex -2.90285 -9.5694 0
      vertex -1.53073 -3.69552 0
    endloop
  endfacet
  facet normal 0 0 -1
    outer loop
      vertex -3.82683 -9.2388 0
      vertex -1.53073 -3.69552 0
      vertex -2.90285 -9.5694 0
    endloop
  endfacet
  facet normal -0 0 -1
    outer loop
      vertex -1.53073 -3.69552 0
      vertex -3.82683 -9.2388 0
      vertex -1.88559 -3.52768 0
    endloop
  endfacet
  facet normal 0 0 -1
    outer loop
      vertex -4.71397 -8.81921 0
      vertex -1.88559 -3.52768 0
      vertex -3.82683 -9.2388 0
    endloop
  endfacet
  facet normal -0 0 -1
    outer loop
      vertex -1.88559 -3.52768 0
      vertex -4.71397 -8.81921 0
      vertex -2.22228 -3.32588 0
    endloop
  endfacet
  facet normal 0 0 -1
    outer loop
      vertex -5.5557 -8.3147 0
      vertex -2.22228 -3.32588 0
      vertex -4.71397 -8.81921 0
    endloop
  endfacet
  facet normal -0 0 -1
    outer loop
      vertex -2.22228 -3.32588 0
      vertex -5.5557 -8.3147 0
      vertex -2.53757 -3.09204 0
    endloop
  endfacet
  facet normal 0 0 -1
    outer loop
      vertex -6.34393 -7.7301 0
      vertex -2.53757 -3.09204 0
      vertex -5.5557 -8.3147 0
    endloop
  endfacet
  facet normal -0 0 -1
    outer loop
      vertex -2.53757 -3.09204 0
      vertex -6.34393 -7.7301 0
      vertex -2.82843 -2.82843 0
    endloop
  endfacet
  facet normal 0 0 -1
    outer loop
      vertex -7.07107 -7.07107 0
      vertex -2.82843 -2.82843 0
      vertex -6.34393 -7.7301 0
    endloop
  endfacet
  facet normal -0 0 -1
    outer loop
      vertex -2.82843 -2.82843 0
      vertex -7.07107 -7.07107 0
      vertex -3.09204 -2.53757 0
    endloop
  endfacet
  facet normal 0 0 -1
    outer loop
      vertex -7.7301 -6.34393 0
      vertex -3.09204 -2.53757 0
      vertex -7.07107 -7.07107 0
    endloop
  endfacet
  facet normal -0 0 -1
    outer loop
      vertex -3.09204 -2.53757 0
      vertex -7.7301 -6.34393 0
      vertex -3.32588 -2.22228 0
    endloop
  endfacet
  facet normal 0 0 -1
    outer loop
      vertex -8.3147 -5.5557 0
      vertex -3.32588 -2.22228 0
      vertex -7.7301 -6.34393 0
    endloop
  endfacet
  facet normal -0 0 -1
    outer loop
      vertex -3.32588 -2.22228 0
      vertex -8.3147 -5.5557 0
      vertex -3.52768 -1.88559 0
    endloop
  endfacet
  facet normal 0 0 -1
    outer loop
      vertex 3.32588 2.22228 0
      vertex 8.3147 5.5557 0
      vertex 3.52768 1.88559 0
    endloop
  endfacet
  facet normal -0 0 -1
    outer loop
      vertex 8.3147 5.5557 0
      vertex 3.32588 2.22228 0
      vertex 7.7301 6.34393 0
    endloop
  endfacet
  facet normal 0 0 -1
    outer loop
      vertex 3.09204 2.53757 0
      vertex 7.7301 6.34393 0
      vertex 3.32588 2.22228 0
    endloop
  endfacet
  facet normal -0 0 -1
    outer loop
      vertex 7.7301 6.34393 0
      vertex 3.09204 2.53757 0
      vertex 7.07107 7.07107 0
    endloop
  endfacet
  facet normal 0 0 -1
    outer loop
      vertex 2.82843 2.82843 0
      vertex 7.07107 7.07107 0
      vertex 3.09204 2.53757 0
    endloop
  endfacet
  facet normal -0 0 -1
    outer loop
      vertex 7.07107 7.07107 0
      vertex 2.82843 2.82843 0
      vertex 6.34393 7.7301 0
    endloop
  endfacet
  facet normal 0 0 -1
    outer loop
      vertex 2.53757 3.09204 0
      vertex 6.34393 7.7301 0
      vertex 2.82843 2.82843 0
    endloop
  endfacet
  facet normal -0 0 -1
    outer loop
      vertex 6.34393 7.7301 0
      vertex 2.53757 3.09204 0
      vertex 5.5557 8.3147 0
    endloop
  endfacet
  facet normal 0 0 -1
    outer loop
      vertex 2.22228 3.32588 0
      vertex 5.5557 8.3147 0
      vertex 2.53757 3.09204 0
    endloop
  endfacet
  facet normal -0 0 -1
    outer loop
      vertex 5.5557 8.3147 0
      vertex 2.22228 3.32588 0
      vertex 4.71397 8.81921 0
    endloop
  endfacet
  facet normal 0 0 -1
    outer loop
      vertex 1.88559 3.52768 0
      vertex 4.71397 8.81921 0
      vertex 2.22228 3.32588 0
    endloop
  endfacet
  facet normal -0 0 -1
    outer loop
      vertex 4.71397 8.81921 0
      vertex 1.88559 3.52768 0
      vertex 3.82683 9.2388 0
    endloop
  endfacet
  facet normal 0 0 -1
    outer loop
      vertex 1.53073 3.69552 0
      vertex 3.82683 9.2388 0
      vertex 1.88559 3.52768 0
    endloop
  endfacet
  facet normal -0 0 -1
    outer loop
      vertex 3.82683 9.2388 0
      vertex 1.53073 3.69552 0
      vertex 2.90285 9.5694 0
    endloop
  endfacet
  facet normal 0 0 -1
    outer loop
      vertex 1.16114 3.82776 0
      vertex 2.90285 9.5694 0
      vertex 1.53073 3.69552 0
    endloop
  endfacet
  facet normal -0 0 -1
    outer loop
      vertex 2.90285 9.5694 0
      vertex 1.16114 3.82776 0
      vertex 1.9509 9.80785 0
    endloop
  endfacet
  facet normal 0 0 -1
    outer loop
      vertex 0.780361 3.92314 0
      vertex 1.9509 9.80785 0
      vertex 1.16114 3.82776 0
    endloop
  endfacet
  facet normal -0 0 -1
    outer loop
      vertex 1.9509 9.80785 0
      vertex 0.780361 3.92314 0
      vertex 0.980171 9.95185 0
    endloop
  endfacet
  facet normal 0 0 -1
    outer loop
      vertex 0.392068 3.98074 0
      vertex 0.980171 9.95185 0
      vertex 0.780361 3.92314 0
    endloop
  endfacet
  facet normal 0 0 -1
    outer loop
      vertex 0 4 0
      vertex 0.980171 9.95185 0
      vertex 0.392068 3.98074 0
    endloop
  endfacet
  facet normal 0 0 -1
    outer loop
      vertex 0 4 0
      vertex 0 10 0
      vertex 0.980171 9.95185 0
    endloop
  endfacet
  facet normal 0 0 -1
    outer loop
      vertex -0.392068 3.98074 0
      vertex 0 10 0
      vertex 0 4 0
    endloop
  endfacet
  facet normal 0 0 -1
    outer loop
      vertex -0.980171 9.95185 0
      vertex -0.392068 3.98074 0
      vertex -0.780361 3.92314 0
    endloop
  endfacet
  facet normal 0 0 -1
    outer loop
      vertex -0.392068 3.98074 0
      vertex -0.980171 9.95185 0
      vertex 0 10 0
    endloop
  endfacet
  facet normal 0 0 -1
    outer loop
      vertex -1.9509 9.80785 0
      vertex -0.780361 3.92314 0
      vertex -1.16114 3.82776 0
    endloop
  endfacet
  facet normal 0 0 -1
    outer loop
      vertex -2.90285 9.5694 0
      vertex -1.16114 3.82776 0
      vertex -1.53073 3.69552 0
    endloop
  endfacet
  facet normal 0 0 -1
    outer loop
      vertex -3.82683 9.2388 0
      vertex -1.53073 3.69552 0
      vertex -1.88559 3.52768 0
    endloop
  endfacet
  facet normal 0 0 -1
    outer loop
      vertex -0.780361 3.92314 0
      vertex -1.9509 9.80785 0
      vertex -0.980171 9.95185 0
    endloop
  endfacet
  facet normal 0 0 -1
    outer loop
      vertex -4.71397 8.81921 0
      vertex -1.88559 3.52768 0
      vertex -2.22228 3.32588 0
    endloop
  endfacet
  facet normal 0 0 -1
    outer loop
      vertex -5.5557 8.3147 0
      vertex -2.22228 3.32588 0
      vertex -2.53757 3.09204 0
    endloop
  endfacet
  facet normal 0 0 -1
    outer loop
      vertex -6.34393 7.7301 0
      vertex -2.53757 3.09204 0
      vertex -2.82843 2.82843 0
    endloop
  endfacet
  facet normal 0 0 -1
    outer loop
      vertex -1.16114 3.82776 0
      vertex -2.90285 9.5694 0
      vertex -1.9509 9.80785 0
    endloop
  endfacet
  facet normal 0 0 -1
    outer loop
      vertex -7.07107 7.07107 0
      vertex -2.82843 2.82843 0
      vertex -3.09204 2.53757 0
    endloop
  endfacet
  facet normal 0 0 -1
    outer loop
      vertex -7.7301 6.34393 0
      vertex -3.09204 2.53757 0
      vertex -3.32588 2.22228 0
    endloop
  endfacet
  facet normal 0 0 -1
    outer loop
      vertex -8.3147 5.5557 0
      vertex -3.32588 2.22228 0
      vertex -3.52768 1.88559 0
    endloop
  endfacet
  facet normal 0 0 -1
    outer loop
      vertex -8.81921 4.71397 0
      vertex -3.52768 1.88559 0
      vertex -3.69552 1.53073 0
    endloop
  endfacet
  facet normal 0 0 -1
    outer loop
      vertex -1.53073 3.69552 0
      vertex -3.82683 9.2388 0
      vertex -2.90285 9.5694 0
    endloop
  endfacet
  facet normal 0 0 -1
    outer loop
      vertex -9.2388 3.82683 0
      vertex -3.69552 1.53073 0
      vertex -3.82776 1.16114 0
    endloop
  endfacet
  facet normal 0 0 -1
    outer loop
      vertex -9.5694 2.90285 0
      vertex -3.82776 1.16114 0
      vertex -3.92314 0.780361 0
    endloop
  endfacet
  facet normal 0 0 -1
    outer loop
      vertex -9.80785 1.9509 0
      vertex -3.92314 0.780361 0
      vertex -3.98074 0.392068 0
    endloop
  endfacet
  facet normal 0 0 -1
    outer loop
      vertex -9.95185 0.980171 0
      vertex -3.98074 0.392068 0
      vertex -4 0 0
    endloop
  endfacet
  facet normal 0 0 -1
    outer loop
      vertex -8.81921 -4.71397 0
      vertex -3.52768 -1.88559 0
      vertex -8.3147 -5.5557 0
    endloop
  endfacet
  facet normal 0 0 -1
    outer loop
      vertex -1.88559 3.52768 0
      vertex -4.71397 8.81921 0
      vertex -3.82683 9.2388 0
    endloop
  endfacet
  facet normal -0 0 -1
    outer loop
      vertex -3.52768 -1.88559 0
      vertex -8.81921 -4.71397 0
      vertex -3.69552 -1.53073 0
    endloop
  endfacet
  facet normal 0 0 -1
    outer loop
      vertex -2.22228 3.32588 0
      vertex -5.5557 8.3147 0
      vertex -4.71397 8.81921 0
    endloop
  endfacet
  facet normal 0 0 -1
    outer loop
      vertex -9.2388 -3.82683 0
      vertex -3.69552 -1.53073 0
      vertex -8.81921 -4.71397 0
    endloop
  endfacet
  facet normal 0 0 -1
    outer loop
      vertex -2.53757 3.09204 0
      vertex -6.34393 7.7301 0
      vertex -5.5557 8.3147 0
    endloop
  endfacet
  facet normal -0 0 -1
    outer loop
      vertex -3.69552 -1.53073 0
      vertex -9.2388 -3.82683 0
      vertex -3.82776 -1.16114 0
    endloop
  endfacet
  facet normal 0 0 -1
    outer loop
      vertex -2.82843 2.82843 0
      vertex -7.07107 7.07107 0
      vertex -6.34393 7.7301 0
    endloop
  endfacet
  facet normal 0 0 -1
    outer loop
      vertex -9.5694 -2.90285 0
      vertex -3.82776 -1.16114 0
      vertex -9.2388 -3.82683 0
    endloop
  endfacet
  facet normal 0 0 -1
    outer loop
      vertex -3.09204 2.53757 0
      vertex -7.7301 6.34393 0
      vertex -7.07107 7.07107 0
    endloop
  endfacet
  facet normal -0 0 -1
    outer loop
      vertex -3.82776 -1.16114 0
      vertex -9.5694 -2.90285 0
      vertex -3.92314 -0.780361 0
    endloop
  endfacet
  facet normal 0 0 -1
    outer loop
      vertex -3.32588 2.22228 0
      vertex -8.3147 5.5557 0
      vertex -7.7301 6.34393 0
    endloop
  endfacet
  facet normal 0 0 -1
    outer loop
      vertex -9.80785 -1.9509 0
      vertex -3.92314 -0.780361 0
      vertex -9.5694 -2.90285 0
    endloop
  endfacet
  facet normal 0 0 -1
    outer loop
      vertex -3.52768 1.88559 0
      vertex -8.81921 4.71397 0
      vertex -8.3147 5.5557 0
    endloop
  endfacet
  facet normal -0 0 -1
    outer loop
      vertex -3.92314 -0.780361 0
      vertex -9.80785 -1.9509 0
      vertex -3.98074 -0.392068 0
    endloop
  endfacet
  facet normal 0 0 -1
    outer loop
      vertex -3.69552 1.53073 0
      vertex -9.2388 3.82683 0
      vertex -8.81921 4.71397 0
    endloop
  endfacet
  facet normal 0 0 -1
    outer loop
      vertex -9.95185 -0.980171 0
      vertex -3.98074 -0.392068 0
      vertex -9.80785 -1.9509 0
    endloop
  endfacet
  facet normal 0 0 -1
    outer loop
      vertex -3.82776 1.16114 0
      vertex -9.5694 2.90285 0
      vertex -9.2388 3.82683 0
    endloop
  endfacet
  facet normal -0 0 -1
    outer loop
      vertex -3.98074 -0.392068 0
      vertex -9.95185 -0.980171 0
      vertex -4 0 0
    endloop
  endfacet
  facet normal 0 0 -1
    outer loop
      vertex -3.92314 0.780361 0
      vertex -9.80785 1.9509 0
      vertex -9.5694 2.90285 0
    endloop
  endfacet
  facet normal 0 0 -1
    outer loop
      vertex -10 0 0
      vertex -4 0 0
      vertex -9.95185 -0.980171 0
    endloop
  endfacet
  facet normal 0 0 -1
    outer loop
      vertex -3.98074 0.392068 0
      vertex -9.95185 0.980171 0
      vertex -9.80785 1.9509 0
    endloop
  endfacet
  facet normal 0 0 -1
    outer loop
      vertex -4 0 0
      vertex -10 0 0
      vertex -9.95185 0.980171 0
    endloop
  endfacet
  facet normal -0.688062 0.623639 0.371005
    outer loop
      vertex -3.53553 3.53553 2.5
      vertex -3.86505 3.17197 2.5
      vertex 0 0 15
    endloop
  endfacet
  facet normal -0.477412 -0.796513 0.371005
    outer loop
      vertex 0 0 15
      vertex -2.77785 -4.15735 2.5
      vertex -2.35698 -4.40961 2.5
    endloop
  endfacet
  facet normal -0 0.929093 0.369847
    outer loop
      vertex -0.490086 4.97592 2.5
      vertex 0 0 15
      vertex -0.490085 4.97592 2.5
    endloop
  endfacet
  facet normal -0.136245 0.918582 0.371005
    outer loop
      vertex -0.975451 4.90393 2.5
      vertex 0 0 15
      vertex -0.490086 4.97592 2.5
    endloop
  endfacet
  facet normal 0.874351 0.312836 0.371005
    outer loop
      vertex 0 0 15
      vertex 4.7847 1.45142 2.5
      vertex 4.6194 1.91342 2.5
    endloop
  endfacet
  facet normal -0.0455727 0.927512 0.371005
    outer loop
      vertex 0 5 2.5
      vertex -0.490085 4.97592 2.5
      vertex 0 0 15
    endloop
  endfacet
  facet normal 0.745883 0.553186 0.371005
    outer loop
      vertex 0 0 15
      vertex 4.15735 2.77785 2.5
      vertex 3.86505 3.17197 2.5
    endloop
  endfacet
  facet normal -0.22565 -0.900798 0.371005
    outer loop
      vertex 0 0 15
      vertex -1.45142 -4.7847 2.5
      vertex -0.975451 -4.90393 2.5
    endloop
  endfacet
  facet normal 0.745883 -0.553186 0.371005
    outer loop
      vertex 4.15735 -2.77785 2.5
      vertex 0 0 15
      vertex 3.86505 -3.17197 2.5
    endloop
  endfacet
  facet normal 0.796513 -0.477412 0.371005
    outer loop
      vertex 4.40961 -2.35698 2.5
      vertex 0 0 15
      vertex 4.15735 -2.77785 2.5
    endloop
  endfacet
  facet normal 0.22565 0.900798 0.371005
    outer loop
      vertex 0.975451 4.90393 2.5
      vertex 0 0 15
      vertex 1.45142 4.7847 2.5
    endloop
  endfacet
  facet normal 0.312836 0.874351 0.371005
    outer loop
      vertex 1.45142 4.7847 2.5
      vertex 0 0 15
      vertex 1.91342 4.6194 2.5
    endloop
  endfacet
  facet normal -0.477412 0.796513 0.371005
    outer loop
      vertex 0 0 15
      vertex -2.35698 4.40961 2.5
      vertex -2.77785 4.15735 2.5
    endloop
  endfacet
  facet normal -0.927512 0.0455727 0.371005
    outer loop
      vertex -4.97592 0.490085 2.5
      vertex -5 0 2.5
      vertex 0 0 15
    endloop
  endfacet
  facet normal -0.918582 0.136245 0.371005
    outer loop
      vertex 0 0 15
      vertex -4.90393 0.975451 2.5
      vertex -4.97592 0.490086 2.5
    endloop
  endfacet
  facet normal -0.929093 0 0.369847
    outer loop
      vertex 0 0 15
      vertex -4.97592 0.490086 2.5
      vertex -4.97592 0.490085 2.5
    endloop
  endfacet
  facet normal -0.623639 0.688062 0.371005
    outer loop
      vertex -3.17197 3.86505 2.5
      vertex -3.53553 3.53553 2.5
      vertex 0 0 15
    endloop
  endfacet
  facet normal 0.397044 -0.839471 0.371005
    outer loop
      vertex 0 0 15
      vertex 1.91342 -4.6194 2.5
      vertex 2.35698 -4.40961 2.5
    endloop
  endfacet
  facet normal 0.927512 -0.0455727 0.371005
    outer loop
      vertex 5 0 2.5
      vertex 0 0 15
      vertex 4.97592 -0.490085 2.5
    endloop
  endfacet
  facet normal 0.900798 0.22565 0.371005
    outer loop
      vertex 4.7847 1.45142 2.5
      vertex 0 0 15
      vertex 4.90393 0.975451 2.5
    endloop
  endfacet
  facet normal -0.874351 0.312836 0.371005
    outer loop
      vertex -4.7847 1.45142 2.5
      vertex 0 0 15
      vertex -4.6194 1.91342 2.5
    endloop
  endfacet
  facet normal -0.553186 -0.745883 0.371005
    outer loop
      vertex -2.77785 -4.15735 2.5
      vertex 0 0 15
      vertex -3.17197 -3.86505 2.5
    endloop
  endfacet
  facet normal -0.623639 -0.688062 0.371005
    outer loop
      vertex 0 0 15
      vertex -3.53553 -3.53553 2.5
      vertex -3.17197 -3.86505 2.5
    endloop
  endfacet
  facet normal 0.553186 0.745883 0.371005
    outer loop
      vertex 2.77785 4.15735 2.5
      vertex 0 0 15
      vertex 3.17197 3.86505 2.5
    endloop
  endfacet
  facet normal 0.623639 0.688062 0.371005
    outer loop
      vertex 3.17197 3.86505 2.5
      vertex 0 0 15
      vertex 3.53553 3.53553 2.5
    endloop
  endfacet
  facet normal 0.0455727 0.927512 0.371005
    outer loop
      vertex 0 5 2.5
      vertex 0 0 15
      vertex 0.490085 4.97592 2.5
    endloop
  endfacet
  facet normal -0.22565 0.900798 0.371005
    outer loop
      vertex -0.975451 4.90393 2.5
      vertex -1.45142 4.7847 2.5
      vertex 0 0 15
    endloop
  endfacet
  facet normal 0.397044 0.839471 0.371005
    outer loop
      vertex 1.91342 4.6194 2.5
      vertex 0 0 15
      vertex 2.35698 4.40961 2.5
    endloop
  endfacet
  facet normal 0.796513 0.477412 0.371005
    outer loop
      vertex 0 0 15
      vertex 4.40961 2.35698 2.5
      vertex 4.15735 2.77785 2.5
    endloop
  endfacet
  facet normal 0.839471 0.397044 0.371005
    outer loop
      vertex 0 0 15
      vertex 4.6194 1.91342 2.5
      vertex 4.40961 2.35698 2.5
    endloop
  endfacet
  facet normal 0.312836 -0.874351 0.371005
    outer loop
      vertex 0 0 15
      vertex 1.45142 -4.7847 2.5
      vertex 1.91342 -4.6194 2.5
    endloop
  endfacet
  facet normal 0.623639 -0.688062 0.371005
    outer loop
      vertex 3.53553 -3.53553 2.5
      vertex 0 0 15
      vertex 3.17197 -3.86505 2.5
    endloop
  endfacet
  facet normal 0.553186 -0.745883 0.371005
    outer loop
      vertex 0 0 15
      vertex 2.77785 -4.15735 2.5
      vertex 3.17197 -3.86505 2.5
    endloop
  endfacet
  facet normal 0 -0.929093 0.369847
    outer loop
      vertex 0.490086 -4.97592 2.5
      vertex 0 0 15
      vertex 0.490085 -4.97592 2.5
    endloop
  endfacet
  facet normal 0.136245 -0.918582 0.371005
    outer loop
      vertex 0.975451 -4.90393 2.5
      vertex 0 0 15
      vertex 0.490086 -4.97592 2.5
    endloop
  endfacet
  facet normal 0.0455727 -0.927512 0.371005
    outer loop
      vertex 0 0 15
      vertex 0 -5 2.5
      vertex 0.490085 -4.97592 2.5
    endloop
  endfacet
  facet normal -0.796513 -0.477412 0.371005
    outer loop
      vertex 0 0 15
      vertex -4.40961 -2.35698 2.5
      vertex -4.15735 -2.77785 2.5
    endloop
  endfacet
  facet normal -0.929093 0 0.369847
    outer loop
      vertex -4.97592 -0.490086 2.5
      vertex 0 0 15
      vertex -4.97592 -0.490085 2.5
    endloop
  endfacet
  facet normal -0.918582 -0.136245 0.371005
    outer loop
      vertex -4.90393 -0.975451 2.5
      vertex 0 0 15
      vertex -4.97592 -0.490086 2.5
    endloop
  endfacet
  facet normal 0.688062 -0.623639 0.371005
    outer loop
      vertex 3.86505 -3.17197 2.5
      vertex 0 0 15
      vertex 3.53553 -3.53553 2.5
    endloop
  endfacet
  facet normal 0.929093 0 0.369847
    outer loop
      vertex 0 0 15
      vertex 4.97592 -0.490086 2.5
      vertex 4.97592 -0.490085 2.5
    endloop
  endfacet
  facet normal 0.918582 -0.136245 0.371005
    outer loop
      vertex 0 0 15
      vertex 4.90393 -0.975451 2.5
      vertex 4.97592 -0.490086 2.5
    endloop
  endfacet
  facet normal 0.900798 -0.22565 0.371005
    outer loop
      vertex 4.90393 -0.975451 2.5
      vertex 0 0 15
      vertex 4.7847 -1.45142 2.5
    endloop
  endfacet
  facet normal 0.874351 -0.312836 0.371005
    outer loop
      vertex 4.7847 -1.45142 2.5
      vertex 0 0 15
      vertex 4.6194 -1.91342 2.5
    endloop
  endfacet
  facet normal -0.136245 -0.918582 0.371005
    outer loop
      vertex 0 0 15
      vertex -0.975451 -4.90393 2.5
      vertex -0.490086 -4.97592 2.5
    endloop
  endfacet
  facet normal 0 -0.929093 0.369847
    outer loop
      vertex 0 0 15
      vertex -0.490086 -4.97592 2.5
      vertex -0.490085 -4.97592 2.5
    endloop
  endfacet
  facet normal -0.900798 -0.22565 0.371005
    outer loop
      vertex 0 0 15
      vertex -4.90393 -0.975451 2.5
      vertex -4.7847 -1.45142 2.5
    endloop
  endfacet
  facet normal -0.688062 -0.623639 0.371005
    outer loop
      vertex 0 0 15
      vertex -3.86505 -3.17197 2.5
      vertex -3.53553 -3.53553 2.5
    endloop
  endfacet
  facet normal -0.397044 -0.839471 0.371005
    outer loop
      vertex -1.91342 -4.6194 2.5
      vertex 0 0 15
      vertex -2.35698 -4.40961 2.5
    endloop
  endfacet
  facet normal -0.745883 -0.553186 0.371005
    outer loop
      vertex 0 0 15
      vertex -4.15735 -2.77785 2.5
      vertex -3.86505 -3.17197 2.5
    endloop
  endfacet
  facet normal -0.427558 -0.903988 0
    outer loop
      vertex -4.71397 -8.81921 0
      vertex -3.82683 -9.2388 1
      vertex -4.71397 -8.81921 1
    endloop
  endfacet
  facet normal -0.427558 -0.903988 -0
    outer loop
      vertex -3.82683 -9.2388 1
      vertex -4.71397 -8.81921 0
      vertex -3.82683 -9.2388 0
    endloop
  endfacet
  facet normal 0.740957 -0.671553 0
    outer loop
      vertex 7.07107 -7.07107 1
      vertex 7.7301 -6.34393 0
      vertex 7.7301 -6.34393 1
    endloop
  endfacet
  facet normal 0.740957 -0.671553 0
    outer loop
      vertex 7.7301 -6.34393 0
      vertex 7.07107 -7.07107 1
      vertex 7.07107 -7.07107 0
    endloop
  endfacet
  facet normal 0.989176 0.146736 0
    outer loop
      vertex 9.95185 0.980171 1
      vertex 9.80785 1.9509 0
      vertex 9.80785 1.9509 1
    endloop
  endfacet
  facet normal 0.989176 0.146736 0
    outer loop
      vertex 9.80785 1.9509 0
      vertex 9.95185 0.980171 1
      vertex 9.95185 0.980171 0
    endloop
  endfacet
  facet normal 0.146736 -0.989176 0
    outer loop
      vertex 0.980171 -9.95185 0
      vertex 1.9509 -9.80785 1
      vertex 0.980171 -9.95185 1
    endloop
  endfacet
  facet normal 0.146736 -0.989176 0
    outer loop
      vertex 1.9509 -9.80785 1
      vertex 0.980171 -9.95185 0
      vertex 1.9509 -9.80785 0
    endloop
  endfacet
  facet normal 0.5141 -0.85773 0
    outer loop
      vertex 4.71397 -8.81921 0
      vertex 5.5557 -8.3147 1
      vertex 4.71397 -8.81921 1
    endloop
  endfacet
  facet normal 0.5141 -0.85773 0
    outer loop
      vertex 5.5557 -8.3147 1
      vertex 4.71397 -8.81921 0
      vertex 5.5557 -8.3147 0
    endloop
  endfacet
  facet normal 0.998796 -0.0490649 0
    outer loop
      vertex 9.95185 -0.980171 1
      vertex 10 0 0
      vertex 10 0 1
    endloop
  endfacet
  facet normal 0.998796 -0.0490649 0
    outer loop
      vertex 10 0 0
      vertex 9.95185 -0.980171 1
      vertex 9.95185 -0.980171 0
    endloop
  endfacet
  facet normal 0.671553 0.740957 -0
    outer loop
      vertex 7.07107 7.07107 0
      vertex 6.34393 7.7301 1
      vertex 7.07107 7.07107 1
    endloop
  endfacet
  facet normal 0.671553 0.740957 0
    outer loop
      vertex 6.34393 7.7301 1
      vertex 7.07107 7.07107 0
      vertex 6.34393 7.7301 0
    endloop
  endfacet
  facet normal -0.146736 0.989176 0
    outer loop
      vertex -0.980171 9.95185 0
      vertex -1.9509 9.80785 1
      vertex -0.980171 9.95185 1
    endloop
  endfacet
  facet normal -0.146736 0.989176 0
    outer loop
      vertex -1.9509 9.80785 1
      vertex -0.980171 9.95185 0
      vertex -1.9509 9.80785 0
    endloop
  endfacet
  facet normal -0.941546 -0.336885 0
    outer loop
      vertex -9.2388 -3.82683 0
      vertex -9.5694 -2.90285 1
      vertex -9.5694 -2.90285 0
    endloop
  endfacet
  facet normal -0.941546 -0.336885 0
    outer loop
      vertex -9.5694 -2.90285 1
      vertex -9.2388 -3.82683 0
      vertex -9.2388 -3.82683 1
    endloop
  endfacet
  facet normal 0.5141 0.85773 -0
    outer loop
      vertex 5.5557 8.3147 0
      vertex 4.71397 8.81921 1
      vertex 5.5557 8.3147 1
    endloop
  endfacet
  facet normal 0.5141 0.85773 0
    outer loop
      vertex 4.71397 8.81921 1
      vertex 5.5557 8.3147 0
      vertex 4.71397 8.81921 0
    endloop
  endfacet
  facet normal 0.427558 0.903988 -0
    outer loop
      vertex 4.71397 8.81921 0
      vertex 3.82683 9.2388 1
      vertex 4.71397 8.81921 1
    endloop
  endfacet
  facet normal 0.427558 0.903988 0
    outer loop
      vertex 3.82683 9.2388 1
      vertex 4.71397 8.81921 0
      vertex 3.82683 9.2388 0
    endloop
  endfacet
  facet normal 0.998796 0.0490649 0
    outer loop
      vertex 10 0 1
      vertex 9.95185 0.980171 0
      vertex 9.95185 0.980171 1
    endloop
  endfacet
  facet normal 0.998796 0.0490649 0
    outer loop
      vertex 9.95185 0.980171 0
      vertex 10 0 1
      vertex 10 0 0
    endloop
  endfacet
  facet normal 0.85773 -0.5141 0
    outer loop
      vertex 8.3147 -5.5557 1
      vertex 8.81921 -4.71397 0
      vertex 8.81921 -4.71397 1
    endloop
  endfacet
  facet normal 0.85773 -0.5141 0
    outer loop
      vertex 8.81921 -4.71397 0
      vertex 8.3147 -5.5557 1
      vertex 8.3147 -5.5557 0
    endloop
  endfacet
  facet normal 0.970032 -0.242979 0
    outer loop
      vertex 9.5694 -2.90285 1
      vertex 9.80785 -1.9509 0
      vertex 9.80785 -1.9509 1
    endloop
  endfacet
  facet normal 0.970032 -0.242979 0
    outer loop
      vertex 9.80785 -1.9509 0
      vertex 9.5694 -2.90285 1
      vertex 9.5694 -2.90285 0
    endloop
  endfacet
  facet normal 0.803203 -0.595705 0
    outer loop
      vertex 7.7301 -6.34393 1
      vertex 8.3147 -5.5557 0
      vertex 8.3147 -5.5557 1
    endloop
  endfacet
  facet normal 0.803203 -0.595705 0
    outer loop
      vertex 8.3147 -5.5557 0
      vertex 7.7301 -6.34393 1
      vertex 7.7301 -6.34393 0
    endloop
  endfacet
  facet normal -0.998796 -0.0490649 0
    outer loop
      vertex -9.95185 -0.980171 0
      vertex -10 0 1
      vertex -10 0 0
    endloop
  endfacet
  facet normal -0.998796 -0.0490649 0
    outer loop
      vertex -10 0 1
      vertex -9.95185 -0.980171 0
      vertex -9.95185 -0.980171 1
    endloop
  endfacet
  facet normal 0.989176 -0.146736 0
    outer loop
      vertex 9.80785 -1.9509 1
      vertex 9.95185 -0.980171 0
      vertex 9.95185 -0.980171 1
    endloop
  endfacet
  facet normal 0.989176 -0.146736 0
    outer loop
      vertex 9.95185 -0.980171 0
      vertex 9.80785 -1.9509 1
      vertex 9.80785 -1.9509 0
    endloop
  endfacet
  facet normal -0.0490649 0.998796 0
    outer loop
      vertex 0 10 0
      vertex -0.980171 9.95185 1
      vertex 0 10 1
    endloop
  endfacet
  facet normal -0.0490649 0.998796 0
    outer loop
      vertex -0.980171 9.95185 1
      vertex 0 10 0
      vertex -0.980171 9.95185 0
    endloop
  endfacet
  facet normal 0.595705 0.803203 -0
    outer loop
      vertex 6.34393 7.7301 0
      vertex 5.5557 8.3147 1
      vertex 6.34393 7.7301 1
    endloop
  endfacet
  facet normal 0.595705 0.803203 0
    outer loop
      vertex 5.5557 8.3147 1
      vertex 6.34393 7.7301 0
      vertex 5.5557 8.3147 0
    endloop
  endfacet
  facet normal -0.0490649 -0.998796 0
    outer loop
      vertex -0.980171 -9.95185 0
      vertex 0 -10 1
      vertex -0.980171 -9.95185 1
    endloop
  endfacet
  facet normal -0.0490649 -0.998796 -0
    outer loop
      vertex 0 -10 1
      vertex -0.980171 -9.95185 0
      vertex 0 -10 0
    endloop
  endfacet
  facet normal -0.242979 0.970032 0
    outer loop
      vertex -1.9509 9.80785 0
      vertex -2.90285 9.5694 1
      vertex -1.9509 9.80785 1
    endloop
  endfacet
  facet normal -0.242979 0.970032 0
    outer loop
      vertex -2.90285 9.5694 1
      vertex -1.9509 9.80785 0
      vertex -2.90285 9.5694 0
    endloop
  endfacet
  facet normal -0.740957 -0.671553 0
    outer loop
      vertex -7.07107 -7.07107 0
      vertex -7.7301 -6.34393 1
      vertex -7.7301 -6.34393 0
    endloop
  endfacet
  facet normal -0.740957 -0.671553 0
    outer loop
      vertex -7.7301 -6.34393 1
      vertex -7.07107 -7.07107 0
      vertex -7.07107 -7.07107 1
    endloop
  endfacet
  facet normal -0.970032 -0.242979 0
    outer loop
      vertex -9.5694 -2.90285 0
      vertex -9.80785 -1.9509 1
      vertex -9.80785 -1.9509 0
    endloop
  endfacet
  facet normal -0.970032 -0.242979 0
    outer loop
      vertex -9.80785 -1.9509 1
      vertex -9.5694 -2.90285 0
      vertex -9.5694 -2.90285 1
    endloop
  endfacet
  facet normal 0.0490649 0.998796 -0
    outer loop
      vertex 0.980171 9.95185 0
      vertex 0 10 1
      vertex 0.980171 9.95185 1
    endloop
  endfacet
  facet normal 0.0490649 0.998796 0
    outer loop
      vertex 0 10 1
      vertex 0.980171 9.95185 0
      vertex 0 10 0
    endloop
  endfacet
  facet normal -0.671553 0.740957 0
    outer loop
      vertex -6.34393 7.7301 0
      vertex -7.07107 7.07107 1
      vertex -6.34393 7.7301 1
    endloop
  endfacet
  facet normal -0.671553 0.740957 0
    outer loop
      vertex -7.07107 7.07107 1
      vertex -6.34393 7.7301 0
      vertex -7.07107 7.07107 0
    endloop
  endfacet
  facet normal -0.903988 -0.427558 0
    outer loop
      vertex -8.81921 -4.71397 0
      vertex -9.2388 -3.82683 1
      vertex -9.2388 -3.82683 0
    endloop
  endfacet
  facet normal -0.903988 -0.427558 0
    outer loop
      vertex -9.2388 -3.82683 1
      vertex -8.81921 -4.71397 0
      vertex -8.81921 -4.71397 1
    endloop
  endfacet
  facet normal -0.5141 0.85773 0
    outer loop
      vertex -4.71397 8.81921 0
      vertex -5.5557 8.3147 1
      vertex -4.71397 8.81921 1
    endloop
  endfacet
  facet normal -0.5141 0.85773 0
    outer loop
      vertex -5.5557 8.3147 1
      vertex -4.71397 8.81921 0
      vertex -5.5557 8.3147 0
    endloop
  endfacet
  facet normal 0.941546 0.336885 0
    outer loop
      vertex 9.5694 2.90285 1
      vertex 9.2388 3.82683 0
      vertex 9.2388 3.82683 1
    endloop
  endfacet
  facet normal 0.941546 0.336885 0
    outer loop
      vertex 9.2388 3.82683 0
      vertex 9.5694 2.90285 1
      vertex 9.5694 2.90285 0
    endloop
  endfacet
  facet normal 0.242979 -0.970032 0
    outer loop
      vertex 1.9509 -9.80785 0
      vertex 2.90285 -9.5694 1
      vertex 1.9509 -9.80785 1
    endloop
  endfacet
  facet normal 0.242979 -0.970032 0
    outer loop
      vertex 2.90285 -9.5694 1
      vertex 1.9509 -9.80785 0
      vertex 2.90285 -9.5694 0
    endloop
  endfacet
  facet normal 0.970032 0.242979 0
    outer loop
      vertex 9.80785 1.9509 1
      vertex 9.5694 2.90285 0
      vertex 9.5694 2.90285 1
    endloop
  endfacet
  facet normal 0.970032 0.242979 0
    outer loop
      vertex 9.5694 2.90285 0
      vertex 9.80785 1.9509 1
      vertex 9.80785 1.9509 0
    endloop
  endfacet
  facet normal -0.803203 -0.595705 0
    outer loop
      vertex -7.7301 -6.34393 0
      vertex -8.3147 -5.5557 1
      vertex -8.3147 -5.5557 0
    endloop
  endfacet
  facet normal -0.803203 -0.595705 0
    outer loop
      vertex -8.3147 -5.5557 1
      vertex -7.7301 -6.34393 0
      vertex -7.7301 -6.34393 1
    endloop
  endfacet
  facet normal -0.146736 -0.989176 0
    outer loop
      vertex -1.9509 -9.80785 0
      vertex -0.980171 -9.95185 1
      vertex -1.9509 -9.80785 1
    endloop
  endfacet
  facet normal -0.146736 -0.989176 -0
    outer loop
      vertex -0.980171 -9.95185 1
      vertex -1.9509 -9.80785 0
      vertex -0.980171 -9.95185 0
    endloop
  endfacet
  facet normal 0.0490649 -0.998796 0
    outer loop
      vertex 0 -10 0
      vertex 0.980171 -9.95185 1
      vertex 0 -10 1
    endloop
  endfacet
  facet normal 0.0490649 -0.998796 0
    outer loop
      vertex 0.980171 -9.95185 1
      vertex 0 -10 0
      vertex 0.980171 -9.95185 0
    endloop
  endfacet
  facet normal -0.5141 -0.85773 0
    outer loop
      vertex -5.5557 -8.3147 0
      vertex -4.71397 -8.81921 1
      vertex -5.5557 -8.3147 1
    endloop
  endfacet
  facet normal -0.5141 -0.85773 -0
    outer loop
      vertex -4.71397 -8.81921 1
      vertex -5.5557 -8.3147 0
      vertex -4.71397 -8.81921 0
    endloop
  endfacet
  facet normal 0.85773 0.5141 0
    outer loop
      vertex 8.81921 4.71397 1
      vertex 8.3147 5.5557 0
      vertex 8.3147 5.5557 1
    endloop
  endfacet
  facet normal 0.85773 0.5141 0
    outer loop
      vertex 8.3147 5.5557 0
      vertex 8.81921 4.71397 1
      vertex 8.81921 4.71397 0
    endloop
  endfacet
  facet normal -0.970032 0.242979 0
    outer loop
      vertex -9.80785 1.9509 0
      vertex -9.5694 2.90285 1
      vertex -9.5694 2.90285 0
    endloop
  endfacet
  facet normal -0.970032 0.242979 0
    outer loop
      vertex -9.5694 2.90285 1
      vertex -9.80785 1.9509 0
      vertex -9.80785 1.9509 1
    endloop
  endfacet
  facet normal 0.941546 -0.336885 0
    outer loop
      vertex 9.2388 -3.82683 1
      vertex 9.5694 -2.90285 0
      vertex 9.5694 -2.90285 1
    endloop
  endfacet
  facet normal 0.941546 -0.336885 0
    outer loop
      vertex 9.5694 -2.90285 0
      vertex 9.2388 -3.82683 1
      vertex 9.2388 -3.82683 0
    endloop
  endfacet
  facet normal 0.903988 -0.427558 0
    outer loop
      vertex 8.81921 -4.71397 1
      vertex 9.2388 -3.82683 0
      vertex 9.2388 -3.82683 1
    endloop
  endfacet
  facet normal 0.903988 -0.427558 0
    outer loop
      vertex 9.2388 -3.82683 0
      vertex 8.81921 -4.71397 1
      vertex 8.81921 -4.71397 0
    endloop
  endfacet
  facet normal -0.671553 -0.740957 0
    outer loop
      vertex -7.07107 -7.07107 0
      vertex -6.34393 -7.7301 1
      vertex -7.07107 -7.07107 1
    endloop
  endfacet
  facet normal -0.671553 -0.740957 -0
    outer loop
      vertex -6.34393 -7.7301 1
      vertex -7.07107 -7.07107 0
      vertex -6.34393 -7.7301 0
    endloop
  endfacet
  facet normal 0.903988 0.427558 0
    outer loop
      vertex 9.2388 3.82683 1
      vertex 8.81921 4.71397 0
      vertex 8.81921 4.71397 1
    endloop
  endfacet
  facet normal 0.903988 0.427558 0
    outer loop
      vertex 8.81921 4.71397 0
      vertex 9.2388 3.82683 1
      vertex 9.2388 3.82683 0
    endloop
  endfacet
  facet normal -0.740957 0.671553 0
    outer loop
      vertex -7.7301 6.34393 0
      vertex -7.07107 7.07107 1
      vertex -7.07107 7.07107 0
    endloop
  endfacet
  facet normal -0.740957 0.671553 0
    outer loop
      vertex -7.07107 7.07107 1
      vertex -7.7301 6.34393 0
      vertex -7.7301 6.34393 1
    endloop
  endfacet
  facet normal -0.998796 0.0490649 0
    outer loop
      vertex -10 0 0
      vertex -9.95185 0.980171 1
      vertex -9.95185 0.980171 0
    endloop
  endfacet
  facet normal -0.998796 0.0490649 0
    outer loop
      vertex -9.95185 0.980171 1
      vertex -10 0 0
      vertex -10 0 1
    endloop
  endfacet
  facet normal -0.989176 0.146736 0
    outer loop
      vertex -9.95185 0.980171 0
      vertex -9.80785 1.9509 1
      vertex -9.80785 1.9509 0
    endloop
  endfacet
  facet normal -0.989176 0.146736 0
    outer loop
      vertex -9.80785 1.9509 1
      vertex -9.95185 0.980171 0
      vertex -9.95185 0.980171 1
    endloop
  endfacet
  facet normal -0.336885 -0.941546 0
    outer loop
      vertex -3.82683 -9.2388 0
      vertex -2.90285 -9.5694 1
      vertex -3.82683 -9.2388 1
    endloop
  endfacet
  facet normal -0.336885 -0.941546 -0
    outer loop
      vertex -2.90285 -9.5694 1
      vertex -3.82683 -9.2388 0
      vertex -2.90285 -9.5694 0
    endloop
  endfacet
  facet normal -0.941546 0.336885 0
    outer loop
      vertex -9.5694 2.90285 0
      vertex -9.2388 3.82683 1
      vertex -9.2388 3.82683 0
    endloop
  endfacet
  facet normal -0.941546 0.336885 0
    outer loop
      vertex -9.2388 3.82683 1
      vertex -9.5694 2.90285 0
      vertex -9.5694 2.90285 1
    endloop
  endfacet
  facet normal -0.595705 0.803203 0
    outer loop
      vertex -5.5557 8.3147 0
      vertex -6.34393 7.7301 1
      vertex -5.5557 8.3147 1
    endloop
  endfacet
  facet normal -0.595705 0.803203 0
    outer loop
      vertex -6.34393 7.7301 1
      vertex -5.5557 8.3147 0
      vertex -6.34393 7.7301 0
    endloop
  endfacet
  facet normal -0.85773 -0.5141 0
    outer loop
      vertex -8.3147 -5.5557 0
      vertex -8.81921 -4.71397 1
      vertex -8.81921 -4.71397 0
    endloop
  endfacet
  facet normal -0.85773 -0.5141 0
    outer loop
      vertex -8.81921 -4.71397 1
      vertex -8.3147 -5.5557 0
      vertex -8.3147 -5.5557 1
    endloop
  endfacet
  facet normal 0.242979 0.970032 -0
    outer loop
      vertex 2.90285 9.5694 0
      vertex 1.9509 9.80785 1
      vertex 2.90285 9.5694 1
    endloop
  endfacet
  facet normal 0.242979 0.970032 0
    outer loop
      vertex 1.9509 9.80785 1
      vertex 2.90285 9.5694 0
      vertex 1.9509 9.80785 0
    endloop
  endfacet
  facet normal -0.803203 0.595705 0
    outer loop
      vertex -8.3147 5.5557 0
      vertex -7.7301 6.34393 1
      vertex -7.7301 6.34393 0
    endloop
  endfacet
  facet normal -0.803203 0.595705 0
    outer loop
      vertex -7.7301 6.34393 1
      vertex -8.3147 5.5557 0
      vertex -8.3147 5.5557 1
    endloop
  endfacet
  facet normal 0.146736 0.989176 -0
    outer loop
      vertex 1.9509 9.80785 0
      vertex 0.980171 9.95185 1
      vertex 1.9509 9.80785 1
    endloop
  endfacet
  facet normal 0.146736 0.989176 0
    outer loop
      vertex 0.980171 9.95185 1
      vertex 1.9509 9.80785 0
      vertex 0.980171 9.95185 0
    endloop
  endfacet
  facet normal -0.242979 -0.970032 0
    outer loop
      vertex -2.90285 -9.5694 0
      vertex -1.9509 -9.80785 1
      vertex -2.90285 -9.5694 1
    endloop
  endfacet
  facet normal -0.242979 -0.970032 -0
    outer loop
      vertex -1.9509 -9.80785 1
      vertex -2.90285 -9.5694 0
      vertex -1.9509 -9.80785 0
    endloop
  endfacet
  facet normal -0.336885 0.941546 0
    outer loop
      vertex -2.90285 9.5694 0
      vertex -3.82683 9.2388 1
      vertex -2.90285 9.5694 1
    endloop
  endfacet
  facet normal -0.336885 0.941546 0
    outer loop
      vertex -3.82683 9.2388 1
      vertex -2.90285 9.5694 0
      vertex -3.82683 9.2388 0
    endloop
  endfacet
  facet normal 0.671553 -0.740957 0
    outer loop
      vertex 6.34393 -7.7301 0
      vertex 7.07107 -7.07107 1
      vertex 6.34393 -7.7301 1
    endloop
  endfacet
  facet normal 0.671553 -0.740957 0
    outer loop
      vertex 7.07107 -7.07107 1
      vertex 6.34393 -7.7301 0
      vertex 7.07107 -7.07107 0
    endloop
  endfacet
  facet normal -0.903988 0.427558 0
    outer loop
      vertex -9.2388 3.82683 0
      vertex -8.81921 4.71397 1
      vertex -8.81921 4.71397 0
    endloop
  endfacet
  facet normal -0.903988 0.427558 0
    outer loop
      vertex -8.81921 4.71397 1
      vertex -9.2388 3.82683 0
      vertex -9.2388 3.82683 1
    endloop
  endfacet
  facet normal 0.803203 0.595705 0
    outer loop
      vertex 8.3147 5.5557 1
      vertex 7.7301 6.34393 0
      vertex 7.7301 6.34393 1
    endloop
  endfacet
  facet normal 0.803203 0.595705 0
    outer loop
      vertex 7.7301 6.34393 0
      vertex 8.3147 5.5557 1
      vertex 8.3147 5.5557 0
    endloop
  endfacet
  facet normal 0.740957 0.671553 0
    outer loop
      vertex 7.7301 6.34393 1
      vertex 7.07107 7.07107 0
      vertex 7.07107 7.07107 1
    endloop
  endfacet
  facet normal 0.740957 0.671553 0
    outer loop
      vertex 7.07107 7.07107 0
      vertex 7.7301 6.34393 1
      vertex 7.7301 6.34393 0
    endloop
  endfacet
  facet normal -0.989176 -0.146736 0
    outer loop
      vertex -9.80785 -1.9509 0
      vertex -9.95185 -0.980171 1
      vertex -9.95185 -0.980171 0
    endloop
  endfacet
  facet normal -0.989176 -0.146736 0
    outer loop
      vertex -9.95185 -0.980171 1
      vertex -9.80785 -1.9509 0
      vertex -9.80785 -1.9509 1
    endloop
  endfacet
  facet normal 0.336885 0.941546 -0
    outer loop
      vertex 3.82683 9.2388 0
      vertex 2.90285 9.5694 1
      vertex 3.82683 9.2388 1
    endloop
  endfacet
  facet normal 0.336885 0.941546 0
    outer loop
      vertex 2.90285 9.5694 1
      vertex 3.82683 9.2388 0
      vertex 2.90285 9.5694 0
    endloop
  endfacet
  facet normal 0.336885 -0.941546 0
    outer loop
      vertex 2.90285 -9.5694 0
      vertex 3.82683 -9.2388 1
      vertex 2.90285 -9.5694 1
    endloop
  endfacet
  facet normal 0.336885 -0.941546 0
    outer loop
      vertex 3.82683 -9.2388 1
      vertex 2.90285 -9.5694 0
      vertex 3.82683 -9.2388 0
    endloop
  endfacet
  facet normal 0.595705 -0.803203 0
    outer loop
      vertex 5.5557 -8.3147 0
      vertex 6.34393 -7.7301 1
      vertex 5.5557 -8.3147 1
    endloop
  endfacet
  facet normal 0.595705 -0.803203 0
    outer loop
      vertex 6.34393 -7.7301 1
      vertex 5.5557 -8.3147 0
      vertex 6.34393 -7.7301 0
    endloop
  endfacet
  facet normal 0.427558 -0.903988 0
    outer loop
      vertex 3.82683 -9.2388 0
      vertex 4.71397 -8.81921 1
      vertex 3.82683 -9.2388 1
    endloop
  endfacet
  facet normal 0.427558 -0.903988 0
    outer loop
      vertex 4.71397 -8.81921 1
      vertex 3.82683 -9.2388 0
      vertex 4.71397 -8.81921 0
    endloop
  endfacet
  facet normal -0.427558 0.903988 0
    outer loop
      vertex -3.82683 9.2388 0
      vertex -4.71397 8.81921 1
      vertex -3.82683 9.2388 1
    endloop
  endfacet
  facet normal -0.427558 0.903988 0
    outer loop
      vertex -4.71397 8.81921 1
      vertex -3.82683 9.2388 0
      vertex -4.71397 8.81921 0
    endloop
  endfacet
  facet normal -0.85773 0.5141 0
    outer loop
      vertex -8.81921 4.71397 0
      vertex -8.3147 5.5557 1
      vertex -8.3147 5.5557 0
    endloop
  endfacet
  facet normal -0.85773 0.5141 0
    outer loop
      vertex -8.3147 5.5557 1
      vertex -8.81921 4.71397 0
      vertex -8.81921 4.71397 1
    endloop
  endfacet
  facet normal -0.595705 -0.803203 0
    outer loop
      vertex -6.34393 -7.7301 0
      vertex -5.5557 -8.3147 1
      vertex -6.34393 -7.7301 1
    endloop
  endfacet
  facet normal -0.595705 -0.803203 -0
    outer loop
      vertex -5.5557 -8.3147 1
      vertex -6.34393 -7.7301 0
      vertex -5.5557 -8.3147 0
    endloop
  endfacet
  facet normal 0.287319 0.0141143 0.957731
    outer loop
      vertex 9.95185 0.980171 1
      vertex 5 0 2.5
      vertex 10 0 1
    endloop
  endfacet
  facet normal 0.288622 -0 0.957443
    outer loop
      vertex 4.97592 0.490085 2.5
      vertex 9.95185 0.980171 1
      vertex 4.97592 0.490086 2.5
    endloop
  endfacet
  facet normal 0.287319 0.0141172 0.957731
    outer loop
      vertex 9.95185 0.980171 1
      vertex 4.97592 0.490085 2.5
      vertex 5 0 2.5
    endloop
  endfacet
  facet normal 0.0422111 0.284552 0.957731
    outer loop
      vertex 0.980171 9.95185 1
      vertex 0.975451 4.90393 2.5
      vertex 1.9509 9.80785 1
    endloop
  endfacet
  facet normal 0.0422052 0.284552 0.957731
    outer loop
      vertex 0.975451 4.90393 2.5
      vertex 0.980171 9.95185 1
      vertex 0.490086 4.97592 2.5
    endloop
  endfacet
  facet normal -0.231055 -0.171363 0.957731
    outer loop
      vertex -4.15735 -2.77785 2.5
      vertex -7.7301 -6.34393 1
      vertex -3.86505 -3.17197 2.5
    endloop
  endfacet
  facet normal -0.231054 -0.171364 0.957731
    outer loop
      vertex -7.7301 -6.34393 1
      vertex -4.15735 -2.77785 2.5
      vertex -8.3147 -5.5557 1
    endloop
  endfacet
  facet normal -0.231055 0.171363 0.957731
    outer loop
      vertex -7.7301 6.34393 1
      vertex -4.15735 2.77785 2.5
      vertex -3.86505 3.17197 2.5
    endloop
  endfacet
  facet normal -0.231054 0.171364 0.957731
    outer loop
      vertex -4.15735 2.77785 2.5
      vertex -7.7301 6.34393 1
      vertex -8.3147 5.5557 1
    endloop
  endfacet
  facet normal -0.0699005 -0.279044 0.957731
    outer loop
      vertex -1.45142 -4.7847 2.5
      vertex -1.9509 -9.80785 1
      vertex -0.975451 -4.90393 2.5
    endloop
  endfacet
  facet normal -0.0698968 -0.279045 0.957731
    outer loop
      vertex -1.9509 -9.80785 1
      vertex -1.45142 -4.7847 2.5
      vertex -2.90285 -9.5694 1
    endloop
  endfacet
  facet normal 0.193182 0.213148 0.957731
    outer loop
      vertex 6.34393 7.7301 1
      vertex 3.53553 3.53553 2.5
      vertex 7.07107 7.07107 1
    endloop
  endfacet
  facet normal 0.193188 0.213144 0.957731
    outer loop
      vertex 3.17197 3.86505 2.5
      vertex 3.53553 3.53553 2.5
      vertex 6.34393 7.7301 1
    endloop
  endfacet
  facet normal -0.171363 0.231055 0.957731
    outer loop
      vertex -5.5557 8.3147 1
      vertex -3.17197 3.86505 2.5
      vertex -2.77785 4.15735 2.5
    endloop
  endfacet
  facet normal -0.171364 0.231054 0.957731
    outer loop
      vertex -3.17197 3.86505 2.5
      vertex -5.5557 8.3147 1
      vertex -6.34393 7.7301 1
    endloop
  endfacet
  facet normal 0.0969103 -0.270851 0.957731
    outer loop
      vertex 1.91342 -4.6194 2.5
      vertex 2.90285 -9.5694 1
      vertex 3.82683 -9.2388 1
    endloop
  endfacet
  facet normal 0.0969084 -0.270851 0.957731
    outer loop
      vertex 1.91342 -4.6194 2.5
      vertex 1.45142 -4.7847 2.5
      vertex 2.90285 -9.5694 1
    endloop
  endfacet
  facet normal -0.260046 0.122994 0.957731
    outer loop
      vertex -8.81921 4.71397 1
      vertex -4.6194 1.91342 2.5
      vertex -4.40961 2.35698 2.5
    endloop
  endfacet
  facet normal -0.260046 0.122994 0.957731
    outer loop
      vertex -4.6194 1.91342 2.5
      vertex -8.81921 4.71397 1
      vertex -9.2388 3.82683 1
    endloop
  endfacet
  facet normal 0.122994 -0.260046 0.957731
    outer loop
      vertex 2.35698 -4.40961 2.5
      vertex 3.82683 -9.2388 1
      vertex 4.71397 -8.81921 1
    endloop
  endfacet
  facet normal 0.122994 -0.260046 0.957731
    outer loop
      vertex 2.35698 -4.40961 2.5
      vertex 1.91342 -4.6194 2.5
      vertex 3.82683 -9.2388 1
    endloop
  endfacet
  facet normal -0.122994 0.260046 0.957731
    outer loop
      vertex -3.82683 9.2388 1
      vertex -2.35698 4.40961 2.5
      vertex -1.91342 4.6194 2.5
    endloop
  endfacet
  facet normal -0.122994 0.260046 0.957731
    outer loop
      vertex -2.35698 4.40961 2.5
      vertex -3.82683 9.2388 1
      vertex -4.71397 8.81921 1
    endloop
  endfacet
  facet normal 0.279044 0.0699003 0.957731
    outer loop
      vertex 4.7847 1.45142 2.5
      vertex 4.90393 0.975451 2.5
      vertex 9.5694 2.90285 1
    endloop
  endfacet
  facet normal 0.279045 0.0698969 0.957731
    outer loop
      vertex 4.90393 0.975451 2.5
      vertex 9.80785 1.9509 1
      vertex 9.5694 2.90285 1
    endloop
  endfacet
  facet normal 0.231054 -0.171364 0.957731
    outer loop
      vertex 4.15735 -2.77785 2.5
      vertex 7.7301 -6.34393 1
      vertex 8.3147 -5.5557 1
    endloop
  endfacet
  facet normal 0.231055 -0.171363 0.957731
    outer loop
      vertex 7.7301 -6.34393 1
      vertex 4.15735 -2.77785 2.5
      vertex 3.86505 -3.17197 2.5
    endloop
  endfacet
  facet normal 0.284552 0.042211 0.957731
    outer loop
      vertex 9.80785 1.9509 1
      vertex 4.97592 0.490086 2.5
      vertex 9.95185 0.980171 1
    endloop
  endfacet
  facet normal 0.284553 0.0422053 0.957731
    outer loop
      vertex 4.97592 0.490086 2.5
      vertex 9.80785 1.9509 1
      vertex 4.90393 0.975451 2.5
    endloop
  endfacet
  facet normal -0.279044 0.0699003 0.957731
    outer loop
      vertex -9.5694 2.90285 1
      vertex -4.90393 0.975451 2.5
      vertex -4.7847 1.45142 2.5
    endloop
  endfacet
  facet normal -0.279045 0.0698969 0.957731
    outer loop
      vertex -9.80785 1.9509 1
      vertex -4.90393 0.975451 2.5
      vertex -9.5694 2.90285 1
    endloop
  endfacet
  facet normal 0.193182 -0.213148 0.957731
    outer loop
      vertex 3.53553 -3.53553 2.5
      vertex 6.34393 -7.7301 1
      vertex 7.07107 -7.07107 1
    endloop
  endfacet
  facet normal 0.193188 -0.213144 0.957731
    outer loop
      vertex 3.53553 -3.53553 2.5
      vertex 3.17197 -3.86505 2.5
      vertex 6.34393 -7.7301 1
    endloop
  endfacet
  facet normal -0.246739 0.14789 0.957731
    outer loop
      vertex -8.3147 5.5557 1
      vertex -4.40961 2.35698 2.5
      vertex -4.15735 2.77785 2.5
    endloop
  endfacet
  facet normal -0.24674 0.147889 0.957731
    outer loop
      vertex -4.40961 2.35698 2.5
      vertex -8.3147 5.5557 1
      vertex -8.81921 4.71397 1
    endloop
  endfacet
  facet normal -0.0969084 0.270851 0.957731
    outer loop
      vertex -2.90285 9.5694 1
      vertex -1.91342 4.6194 2.5
      vertex -1.45142 4.7847 2.5
    endloop
  endfacet
  facet normal -0.0969103 0.270851 0.957731
    outer loop
      vertex -1.91342 4.6194 2.5
      vertex -2.90285 9.5694 1
      vertex -3.82683 9.2388 1
    endloop
  endfacet
  facet normal 0.284552 -0.042211 0.957731
    outer loop
      vertex 4.97592 -0.490086 2.5
      vertex 9.80785 -1.9509 1
      vertex 9.95185 -0.980171 1
    endloop
  endfacet
  facet normal 0.284553 -0.0422053 0.957731
    outer loop
      vertex 9.80785 -1.9509 1
      vertex 4.97592 -0.490086 2.5
      vertex 4.90393 -0.975451 2.5
    endloop
  endfacet
  facet normal 0.231054 0.171364 0.957731
    outer loop
      vertex 7.7301 6.34393 1
      vertex 4.15735 2.77785 2.5
      vertex 8.3147 5.5557 1
    endloop
  endfacet
  facet normal 0.231055 0.171363 0.957731
    outer loop
      vertex 4.15735 2.77785 2.5
      vertex 7.7301 6.34393 1
      vertex 3.86505 3.17197 2.5
    endloop
  endfacet
  facet normal 0.27085 0.0969103 0.957731
    outer loop
      vertex 9.2388 3.82683 1
      vertex 4.7847 1.45142 2.5
      vertex 9.5694 2.90285 1
    endloop
  endfacet
  facet normal 0.270851 0.0969085 0.957731
    outer loop
      vertex 4.6194 1.91342 2.5
      vertex 4.7847 1.45142 2.5
      vertex 9.2388 3.82683 1
    endloop
  endfacet
  facet normal 0.260046 0.122994 0.957731
    outer loop
      vertex 8.81921 4.71397 1
      vertex 4.6194 1.91342 2.5
      vertex 9.2388 3.82683 1
    endloop
  endfacet
  facet normal 0.260046 0.122994 0.957731
    outer loop
      vertex 4.40961 2.35698 2.5
      vertex 4.6194 1.91342 2.5
      vertex 8.81921 4.71397 1
    endloop
  endfacet
  facet normal 0.171364 -0.231054 0.957731
    outer loop
      vertex 3.17197 -3.86505 2.5
      vertex 5.5557 -8.3147 1
      vertex 6.34393 -7.7301 1
    endloop
  endfacet
  facet normal 0.171363 -0.231055 0.957731
    outer loop
      vertex 5.5557 -8.3147 1
      vertex 3.17197 -3.86505 2.5
      vertex 2.77785 -4.15735 2.5
    endloop
  endfacet
  facet normal 0.147889 0.24674 0.957731
    outer loop
      vertex 2.77785 4.15735 2.5
      vertex 5.5557 8.3147 1
      vertex 4.71397 8.81921 1
    endloop
  endfacet
  facet normal 0.14789 0.246739 0.957731
    outer loop
      vertex 2.77785 4.15735 2.5
      vertex 4.71397 8.81921 1
      vertex 2.35698 4.40961 2.5
    endloop
  endfacet
  facet normal 0.279045 -0.0698969 0.957731
    outer loop
      vertex 9.80785 -1.9509 1
      vertex 4.90393 -0.975451 2.5
      vertex 9.5694 -2.90285 1
    endloop
  endfacet
  facet normal 0.279044 -0.0699003 0.957731
    outer loop
      vertex 4.90393 -0.975451 2.5
      vertex 4.7847 -1.45142 2.5
      vertex 9.5694 -2.90285 1
    endloop
  endfacet
  facet normal -0.213143 0.193187 0.957731
    outer loop
      vertex -7.07107 7.07107 1
      vertex -3.86505 3.17197 2.5
      vertex -3.53553 3.53553 2.5
    endloop
  endfacet
  facet normal -0.213148 0.193183 0.957731
    outer loop
      vertex -3.86505 3.17197 2.5
      vertex -7.07107 7.07107 1
      vertex -7.7301 6.34393 1
    endloop
  endfacet
  facet normal 0.171364 0.231054 0.957731
    outer loop
      vertex 5.5557 8.3147 1
      vertex 3.17197 3.86505 2.5
      vertex 6.34393 7.7301 1
    endloop
  endfacet
  facet normal 0.171363 0.231055 0.957731
    outer loop
      vertex 3.17197 3.86505 2.5
      vertex 5.5557 8.3147 1
      vertex 2.77785 4.15735 2.5
    endloop
  endfacet
  facet normal -0.0422052 0.284552 0.957731
    outer loop
      vertex -0.980171 9.95185 1
      vertex -0.975451 4.90393 2.5
      vertex -0.490086 4.97592 2.5
    endloop
  endfacet
  facet normal -0.0422111 0.284552 0.957731
    outer loop
      vertex -0.975451 4.90393 2.5
      vertex -0.980171 9.95185 1
      vertex -1.9509 9.80785 1
    endloop
  endfacet
  facet normal -0.0141172 0.287319 0.957731
    outer loop
      vertex 0 10 1
      vertex -0.490085 4.97592 2.5
      vertex 0 5 2.5
    endloop
  endfacet
  facet normal -0.0141143 0.287319 0.957731
    outer loop
      vertex -0.980171 9.95185 1
      vertex -0.490085 4.97592 2.5
      vertex 0 10 1
    endloop
  endfacet
  facet normal 0 0.288622 0.957443
    outer loop
      vertex -0.490085 4.97592 2.5
      vertex -0.980171 9.95185 1
      vertex -0.490086 4.97592 2.5
    endloop
  endfacet
  facet normal 0.287319 -0.0141143 0.957731
    outer loop
      vertex 5 0 2.5
      vertex 9.95185 -0.980171 1
      vertex 10 0 1
    endloop
  endfacet
  facet normal 0.287319 -0.0141172 0.957731
    outer loop
      vertex 4.97592 -0.490085 2.5
      vertex 9.95185 -0.980171 1
      vertex 5 0 2.5
    endloop
  endfacet
  facet normal 0.288622 0 0.957443
    outer loop
      vertex 9.95185 -0.980171 1
      vertex 4.97592 -0.490085 2.5
      vertex 4.97592 -0.490086 2.5
    endloop
  endfacet
  facet normal -0.287319 -0.0141172 0.957731
    outer loop
      vertex -9.95185 -0.980171 1
      vertex -4.97592 -0.490085 2.5
      vertex -5 0 2.5
    endloop
  endfacet
  facet normal -0.288622 0 0.957443
    outer loop
      vertex -4.97592 -0.490085 2.5
      vertex -9.95185 -0.980171 1
      vertex -4.97592 -0.490086 2.5
    endloop
  endfacet
  facet normal -0.287319 -0.0141143 0.957731
    outer loop
      vertex -9.95185 -0.980171 1
      vertex -5 0 2.5
      vertex -10 0 1
    endloop
  endfacet
  facet normal 0.260046 -0.122994 0.957731
    outer loop
      vertex 4.6194 -1.91342 2.5
      vertex 8.81921 -4.71397 1
      vertex 9.2388 -3.82683 1
    endloop
  endfacet
  facet normal 0.260046 -0.122994 0.957731
    outer loop
      vertex 4.6194 -1.91342 2.5
      vertex 4.40961 -2.35698 2.5
      vertex 8.81921 -4.71397 1
    endloop
  endfacet
  facet normal 0.147889 -0.24674 0.957731
    outer loop
      vertex 5.5557 -8.3147 1
      vertex 2.77785 -4.15735 2.5
      vertex 4.71397 -8.81921 1
    endloop
  endfacet
  facet normal 0.14789 -0.246739 0.957731
    outer loop
      vertex 4.71397 -8.81921 1
      vertex 2.77785 -4.15735 2.5
      vertex 2.35698 -4.40961 2.5
    endloop
  endfacet
  facet normal 0.0698968 0.279045 0.957731
    outer loop
      vertex 1.9509 9.80785 1
      vertex 1.45142 4.7847 2.5
      vertex 2.90285 9.5694 1
    endloop
  endfacet
  facet normal 0.0699005 0.279044 0.957731
    outer loop
      vertex 0.975451 4.90393 2.5
      vertex 1.45142 4.7847 2.5
      vertex 1.9509 9.80785 1
    endloop
  endfacet
  facet normal 0.0969103 0.270851 0.957731
    outer loop
      vertex 2.90285 9.5694 1
      vertex 1.91342 4.6194 2.5
      vertex 3.82683 9.2388 1
    endloop
  endfacet
  facet normal 0.0969084 0.270851 0.957731
    outer loop
      vertex 1.45142 4.7847 2.5
      vertex 1.91342 4.6194 2.5
      vertex 2.90285 9.5694 1
    endloop
  endfacet
  facet normal -0.14789 0.246739 0.957731
    outer loop
      vertex -4.71397 8.81921 1
      vertex -2.77785 4.15735 2.5
      vertex -2.35698 4.40961 2.5
    endloop
  endfacet
  facet normal -0.147889 0.24674 0.957731
    outer loop
      vertex -5.5557 8.3147 1
      vertex -2.77785 4.15735 2.5
      vertex -4.71397 8.81921 1
    endloop
  endfacet
  facet normal -0.288622 0 0.957443
    outer loop
      vertex -9.95185 0.980171 1
      vertex -4.97592 0.490085 2.5
      vertex -4.97592 0.490086 2.5
    endloop
  endfacet
  facet normal -0.287319 0.0141172 0.957731
    outer loop
      vertex -4.97592 0.490085 2.5
      vertex -9.95185 0.980171 1
      vertex -5 0 2.5
    endloop
  endfacet
  facet normal -0.287319 0.0141143 0.957731
    outer loop
      vertex -5 0 2.5
      vertex -9.95185 0.980171 1
      vertex -10 0 1
    endloop
  endfacet
  facet normal -0.284553 0.0422053 0.957731
    outer loop
      vertex -9.80785 1.9509 1
      vertex -4.97592 0.490086 2.5
      vertex -4.90393 0.975451 2.5
    endloop
  endfacet
  facet normal -0.284552 0.042211 0.957731
    outer loop
      vertex -4.97592 0.490086 2.5
      vertex -9.80785 1.9509 1
      vertex -9.95185 0.980171 1
    endloop
  endfacet
  facet normal -0.193188 0.213144 0.957731
    outer loop
      vertex -6.34393 7.7301 1
      vertex -3.53553 3.53553 2.5
      vertex -3.17197 3.86505 2.5
    endloop
  endfacet
  facet normal -0.193182 0.213148 0.957731
    outer loop
      vertex -3.53553 3.53553 2.5
      vertex -6.34393 7.7301 1
      vertex -7.07107 7.07107 1
    endloop
  endfacet
  facet normal -0.246739 -0.14789 0.957731
    outer loop
      vertex -4.40961 -2.35698 2.5
      vertex -8.3147 -5.5557 1
      vertex -4.15735 -2.77785 2.5
    endloop
  endfacet
  facet normal -0.24674 -0.147889 0.957731
    outer loop
      vertex -8.3147 -5.5557 1
      vertex -4.40961 -2.35698 2.5
      vertex -8.81921 -4.71397 1
    endloop
  endfacet
  facet normal -0.260046 -0.122994 0.957731
    outer loop
      vertex -4.6194 -1.91342 2.5
      vertex -8.81921 -4.71397 1
      vertex -4.40961 -2.35698 2.5
    endloop
  endfacet
  facet normal -0.260046 -0.122994 0.957731
    outer loop
      vertex -8.81921 -4.71397 1
      vertex -4.6194 -1.91342 2.5
      vertex -9.2388 -3.82683 1
    endloop
  endfacet
  facet normal 0.213148 0.193183 0.957731
    outer loop
      vertex 7.07107 7.07107 1
      vertex 3.86505 3.17197 2.5
      vertex 7.7301 6.34393 1
    endloop
  endfacet
  facet normal 0.213143 0.193187 0.957731
    outer loop
      vertex 3.53553 3.53553 2.5
      vertex 3.86505 3.17197 2.5
      vertex 7.07107 7.07107 1
    endloop
  endfacet
  facet normal -0.171363 -0.231055 0.957731
    outer loop
      vertex -3.17197 -3.86505 2.5
      vertex -5.5557 -8.3147 1
      vertex -2.77785 -4.15735 2.5
    endloop
  endfacet
  facet normal -0.171364 -0.231054 0.957731
    outer loop
      vertex -5.5557 -8.3147 1
      vertex -3.17197 -3.86505 2.5
      vertex -6.34393 -7.7301 1
    endloop
  endfacet
  facet normal -0.270851 0.0969085 0.957731
    outer loop
      vertex -9.2388 3.82683 1
      vertex -4.7847 1.45142 2.5
      vertex -4.6194 1.91342 2.5
    endloop
  endfacet
  facet normal -0.27085 0.0969103 0.957731
    outer loop
      vertex -4.7847 1.45142 2.5
      vertex -9.2388 3.82683 1
      vertex -9.5694 2.90285 1
    endloop
  endfacet
  facet normal 0.24674 -0.147889 0.957731
    outer loop
      vertex 4.40961 -2.35698 2.5
      vertex 8.3147 -5.5557 1
      vertex 8.81921 -4.71397 1
    endloop
  endfacet
  facet normal 0.246739 -0.14789 0.957731
    outer loop
      vertex 4.15735 -2.77785 2.5
      vertex 8.3147 -5.5557 1
      vertex 4.40961 -2.35698 2.5
    endloop
  endfacet
  facet normal 0 0.288622 0.957443
    outer loop
      vertex 0.980171 9.95185 1
      vertex 0.490085 4.97592 2.5
      vertex 0.490086 4.97592 2.5
    endloop
  endfacet
  facet normal 0.0141143 0.287319 0.957731
    outer loop
      vertex 0 10 1
      vertex 0.490085 4.97592 2.5
      vertex 0.980171 9.95185 1
    endloop
  endfacet
  facet normal 0.0141172 0.287319 0.957731
    outer loop
      vertex 0.490085 4.97592 2.5
      vertex 0 10 1
      vertex 0 5 2.5
    endloop
  endfacet
  facet normal -0.0699005 0.279044 0.957731
    outer loop
      vertex -1.9509 9.80785 1
      vertex -1.45142 4.7847 2.5
      vertex -0.975451 4.90393 2.5
    endloop
  endfacet
  facet normal -0.0698968 0.279045 0.957731
    outer loop
      vertex -1.45142 4.7847 2.5
      vertex -1.9509 9.80785 1
      vertex -2.90285 9.5694 1
    endloop
  endfacet
  facet normal 0.122994 0.260046 0.957731
    outer loop
      vertex 3.82683 9.2388 1
      vertex 2.35698 4.40961 2.5
      vertex 4.71397 8.81921 1
    endloop
  endfacet
  facet normal 0.122994 0.260046 0.957731
    outer loop
      vertex 1.91342 4.6194 2.5
      vertex 2.35698 4.40961 2.5
      vertex 3.82683 9.2388 1
    endloop
  endfacet
  facet normal -0.193188 -0.213144 0.957731
    outer loop
      vertex -3.53553 -3.53553 2.5
      vertex -6.34393 -7.7301 1
      vertex -3.17197 -3.86505 2.5
    endloop
  endfacet
  facet normal -0.193182 -0.213148 0.957731
    outer loop
      vertex -6.34393 -7.7301 1
      vertex -3.53553 -3.53553 2.5
      vertex -7.07107 -7.07107 1
    endloop
  endfacet
  facet normal 0.24674 0.147889 0.957731
    outer loop
      vertex 8.3147 5.5557 1
      vertex 4.40961 2.35698 2.5
      vertex 8.81921 4.71397 1
    endloop
  endfacet
  facet normal 0.246739 0.14789 0.957731
    outer loop
      vertex 8.3147 5.5557 1
      vertex 4.15735 2.77785 2.5
      vertex 4.40961 2.35698 2.5
    endloop
  endfacet
  facet normal -0.0141172 -0.287319 0.957731
    outer loop
      vertex -0.490085 -4.97592 2.5
      vertex 0 -10 1
      vertex 0 -5 2.5
    endloop
  endfacet
  facet normal 0 -0.288622 0.957443
    outer loop
      vertex -0.980171 -9.95185 1
      vertex -0.490085 -4.97592 2.5
      vertex -0.490086 -4.97592 2.5
    endloop
  endfacet
  facet normal -0.0141143 -0.287319 0.957731
    outer loop
      vertex -0.490085 -4.97592 2.5
      vertex -0.980171 -9.95185 1
      vertex 0 -10 1
    endloop
  endfacet
  facet normal 0.0422111 -0.284552 0.957731
    outer loop
      vertex 0.975451 -4.90393 2.5
      vertex 0.980171 -9.95185 1
      vertex 1.9509 -9.80785 1
    endloop
  endfacet
  facet normal 0.0422052 -0.284552 0.957731
    outer loop
      vertex 0.980171 -9.95185 1
      vertex 0.975451 -4.90393 2.5
      vertex 0.490086 -4.97592 2.5
    endloop
  endfacet
  facet normal 0 -0.288622 0.957443
    outer loop
      vertex 0.490085 -4.97592 2.5
      vertex 0.980171 -9.95185 1
      vertex 0.490086 -4.97592 2.5
    endloop
  endfacet
  facet normal 0.0141172 -0.287319 0.957731
    outer loop
      vertex 0 -5 2.5
      vertex 0.980171 -9.95185 1
      vertex 0.490085 -4.97592 2.5
    endloop
  endfacet
  facet normal 0.0141143 -0.287319 0.957731
    outer loop
      vertex 0.980171 -9.95185 1
      vertex 0 -5 2.5
      vertex 0 -10 1
    endloop
  endfacet
  facet normal 0.0698968 -0.279045 0.957731
    outer loop
      vertex 1.45142 -4.7847 2.5
      vertex 1.9509 -9.80785 1
      vertex 2.90285 -9.5694 1
    endloop
  endfacet
  facet normal 0.0699005 -0.279044 0.957731
    outer loop
      vertex 1.45142 -4.7847 2.5
      vertex 0.975451 -4.90393 2.5
      vertex 1.9509 -9.80785 1
    endloop
  endfacet
  facet normal -0.122994 -0.260046 0.957731
    outer loop
      vertex -2.35698 -4.40961 2.5
      vertex -3.82683 -9.2388 1
      vertex -1.91342 -4.6194 2.5
    endloop
  endfacet
  facet normal -0.122994 -0.260046 0.957731
    outer loop
      vertex -3.82683 -9.2388 1
      vertex -2.35698 -4.40961 2.5
      vertex -4.71397 -8.81921 1
    endloop
  endfacet
  facet normal 0.27085 -0.0969103 0.957731
    outer loop
      vertex 4.7847 -1.45142 2.5
      vertex 9.2388 -3.82683 1
      vertex 9.5694 -2.90285 1
    endloop
  endfacet
  facet normal 0.270851 -0.0969085 0.957731
    outer loop
      vertex 4.7847 -1.45142 2.5
      vertex 4.6194 -1.91342 2.5
      vertex 9.2388 -3.82683 1
    endloop
  endfacet
  facet normal -0.213143 -0.193187 0.957731
    outer loop
      vertex -3.86505 -3.17197 2.5
      vertex -7.07107 -7.07107 1
      vertex -3.53553 -3.53553 2.5
    endloop
  endfacet
  facet normal -0.213148 -0.193183 0.957731
    outer loop
      vertex -7.07107 -7.07107 1
      vertex -3.86505 -3.17197 2.5
      vertex -7.7301 -6.34393 1
    endloop
  endfacet
  facet normal -0.0969084 -0.270851 0.957731
    outer loop
      vertex -1.91342 -4.6194 2.5
      vertex -2.90285 -9.5694 1
      vertex -1.45142 -4.7847 2.5
    endloop
  endfacet
  facet normal -0.0969103 -0.270851 0.957731
    outer loop
      vertex -2.90285 -9.5694 1
      vertex -1.91342 -4.6194 2.5
      vertex -3.82683 -9.2388 1
    endloop
  endfacet
  facet normal 0.213148 -0.193183 0.957731
    outer loop
      vertex 3.86505 -3.17197 2.5
      vertex 7.07107 -7.07107 1
      vertex 7.7301 -6.34393 1
    endloop
  endfacet
  facet normal 0.213143 -0.193187 0.957731
    outer loop
      vertex 3.86505 -3.17197 2.5
      vertex 3.53553 -3.53553 2.5
      vertex 7.07107 -7.07107 1
    endloop
  endfacet
  facet normal -0.14789 -0.246739 0.957731
    outer loop
      vertex -2.77785 -4.15735 2.5
      vertex -4.71397 -8.81921 1
      vertex -2.35698 -4.40961 2.5
    endloop
  endfacet
  facet normal -0.147889 -0.24674 0.957731
    outer loop
      vertex -2.77785 -4.15735 2.5
      vertex -5.5557 -8.3147 1
      vertex -4.71397 -8.81921 1
    endloop
  endfacet
  facet normal -0.284553 -0.0422053 0.957731
    outer loop
      vertex -4.97592 -0.490086 2.5
      vertex -9.80785 -1.9509 1
      vertex -4.90393 -0.975451 2.5
    endloop
  endfacet
  facet normal -0.284552 -0.042211 0.957731
    outer loop
      vertex -9.80785 -1.9509 1
      vertex -4.97592 -0.490086 2.5
      vertex -9.95185 -0.980171 1
    endloop
  endfacet
  facet normal -0.0422052 -0.284552 0.957731
    outer loop
      vertex -0.975451 -4.90393 2.5
      vertex -0.980171 -9.95185 1
      vertex -0.490086 -4.97592 2.5
    endloop
  endfacet
  facet normal -0.0422111 -0.284552 0.957731
    outer loop
      vertex -0.980171 -9.95185 1
      vertex -0.975451 -4.90393 2.5
      vertex -1.9509 -9.80785 1
    endloop
  endfacet
  facet normal -0.270851 -0.0969085 0.957731
    outer loop
      vertex -4.7847 -1.45142 2.5
      vertex -9.2388 -3.82683 1
      vertex -4.6194 -1.91342 2.5
    endloop
  endfacet
  facet normal -0.27085 -0.0969103 0.957731
    outer loop
      vertex -9.2388 -3.82683 1
      vertex -4.7847 -1.45142 2.5
      vertex -9.5694 -2.90285 1
    endloop
  endfacet
  facet normal -0.279045 -0.0698969 0.957731
    outer loop
      vertex -4.90393 -0.975451 2.5
      vertex -9.80785 -1.9509 1
      vertex -9.5694 -2.90285 1
    endloop
  endfacet
  facet normal -0.279044 -0.0699003 0.957731
    outer loop
      vertex -4.7847 -1.45142 2.5
      vertex -4.90393 -0.975451 2.5
      vertex -9.5694 -2.90285 1
    endloop
  endfacet
  facet normal -0.947655 -0.0465527 -0.315885
    outer loop
      vertex 3.98074 0.392068 0
      vertex 4 0 0
      vertex 0 0 12
    endloop
  endfacet
  facet normal -0.139223 -0.938527 -0.315885
    outer loop
      vertex 0.392068 3.98074 0
      vertex 0.780361 3.92314 0
      vertex 0 0 12
    endloop
  endfacet
  facet normal -0.920363 0.230539 -0.315885
    outer loop
      vertex 3.92314 -0.780361 0
      vertex 3.82776 -1.16114 0
      vertex 0 0 12
    endloop
  endfacet
  facet normal 0.762076 -0.565206 -0.315885
    outer loop
      vertex -3.09204 2.53757 0
      vertex 0 0 12
      vertex -3.32588 2.22228 0
    endloop
  endfacet
  facet normal 0.230539 0.920363 -0.315885
    outer loop
      vertex 0 0 12
      vertex -0.780361 -3.92314 0
      vertex -1.16114 -3.82776 0
    endloop
  endfacet
  facet normal -0.319637 0.893336 -0.315885
    outer loop
      vertex 1.53073 -3.69552 0
      vertex 1.16114 -3.82776 0
      vertex 0 0 12
    endloop
  endfacet
  facet normal 0.565206 -0.762076 -0.315885
    outer loop
      vertex -2.22228 3.32588 0
      vertex 0 0 12
      vertex -2.53757 3.09204 0
    endloop
  endfacet
  facet normal 0.857699 -0.405671 -0.315885
    outer loop
      vertex -3.52768 1.88559 0
      vertex 0 0 12
      vertex -3.69552 1.53073 0
    endloop
  endfacet
  facet normal -0.920363 -0.230539 -0.315885
    outer loop
      vertex 3.82776 1.16114 0
      vertex 3.92314 0.780361 0
      vertex 0 0 12
    endloop
  endfacet
  facet normal 0.405671 -0.857699 -0.315885
    outer loop
      vertex -1.53073 3.69552 0
      vertex 0 0 12
      vertex -1.88559 3.52768 0
    endloop
  endfacet
  facet normal 0.920363 -0.230539 -0.315885
    outer loop
      vertex -3.82776 1.16114 0
      vertex 0 0 12
      vertex -3.92314 0.780361 0
    endloop
  endfacet
  facet normal 0.0465527 0.947655 -0.315885
    outer loop
      vertex 0 0 12
      vertex 0 -4 0
      vertex -0.392068 -3.98074 0
    endloop
  endfacet
  facet normal 0.813815 -0.487772 -0.315885
    outer loop
      vertex -3.32588 2.22228 0
      vertex 0 0 12
      vertex -3.52768 1.88559 0
    endloop
  endfacet
  facet normal 0.319637 -0.893336 -0.315885
    outer loop
      vertex -1.16114 3.82776 0
      vertex 0 0 12
      vertex -1.53073 3.69552 0
    endloop
  endfacet
  facet normal 0.703025 0.63716 -0.315885
    outer loop
      vertex 0 0 12
      vertex -2.82843 -2.82843 0
      vertex -3.09204 -2.53757 0
    endloop
  endfacet
  facet normal -0.63716 0.703025 -0.315885
    outer loop
      vertex 2.82843 -2.82843 0
      vertex 2.53757 -3.09204 0
      vertex 0 0 12
    endloop
  endfacet
  facet normal -0.63716 -0.703025 -0.315885
    outer loop
      vertex 2.53757 3.09204 0
      vertex 2.82843 2.82843 0
      vertex 0 0 12
    endloop
  endfacet
  facet normal -0.487772 -0.813815 -0.315885
    outer loop
      vertex 1.88559 3.52768 0
      vertex 2.22228 3.32588 0
      vertex 0 0 12
    endloop
  endfacet
  facet normal -0.565206 -0.762076 -0.315885
    outer loop
      vertex 2.22228 3.32588 0
      vertex 2.53757 3.09204 0
      vertex 0 0 12
    endloop
  endfacet
  facet normal 0.813815 0.487772 -0.315885
    outer loop
      vertex 0 0 12
      vertex -3.32588 -2.22228 0
      vertex -3.52768 -1.88559 0
    endloop
  endfacet
  facet normal 0.703025 -0.63716 -0.315885
    outer loop
      vertex -2.82843 2.82843 0
      vertex 0 0 12
      vertex -3.09204 2.53757 0
    endloop
  endfacet
  facet normal -0.703025 -0.63716 -0.315885
    outer loop
      vertex 2.82843 2.82843 0
      vertex 3.09204 2.53757 0
      vertex 0 0 12
    endloop
  endfacet
  facet normal 0.139223 -0.938527 -0.315885
    outer loop
      vertex -0.392068 3.98074 0
      vertex 0 0 12
      vertex -0.780361 3.92314 0
    endloop
  endfacet
  facet normal 0.0465527 -0.947655 -0.315885
    outer loop
      vertex 0 4 0
      vertex 0 0 12
      vertex -0.392068 3.98074 0
    endloop
  endfacet
  facet normal 0.947655 0.0465527 -0.315885
    outer loop
      vertex 0 0 12
      vertex -3.98074 -0.392068 0
      vertex -4 0 0
    endloop
  endfacet
  facet normal -0.487772 0.813815 -0.315885
    outer loop
      vertex 2.22228 -3.32588 0
      vertex 1.88559 -3.52768 0
      vertex 0 0 12
    endloop
  endfacet
  facet normal -0.230539 -0.920363 -0.315885
    outer loop
      vertex 0.780361 3.92314 0
      vertex 1.16114 3.82776 0
      vertex 0 0 12
    endloop
  endfacet
  facet normal -0.319637 -0.893336 -0.315885
    outer loop
      vertex 1.16114 3.82776 0
      vertex 1.53073 3.69552 0
      vertex 0 0 12
    endloop
  endfacet
  facet normal 0.487772 -0.813815 -0.315885
    outer loop
      vertex -1.88559 3.52768 0
      vertex 0 0 12
      vertex -2.22228 3.32588 0
    endloop
  endfacet
  facet normal 0.947655 -0.0465527 -0.315885
    outer loop
      vertex -3.98074 0.392068 0
      vertex 0 0 12
      vertex -4 0 0
    endloop
  endfacet
  facet normal 0.938527 -0.139223 -0.315885
    outer loop
      vertex -3.92314 0.780361 0
      vertex 0 0 12
      vertex -3.98074 0.392068 0
    endloop
  endfacet
  facet normal -0.938527 -0.139223 -0.315885
    outer loop
      vertex 3.92314 0.780361 0
      vertex 3.98074 0.392068 0
      vertex 0 0 12
    endloop
  endfacet
  facet normal 0.63716 -0.703025 -0.315885
    outer loop
      vertex -2.53757 3.09204 0
      vertex 0 0 12
      vertex -2.82843 2.82843 0
    endloop
  endfacet
  facet normal -0.762076 0.565206 -0.315885
    outer loop
      vertex 3.32588 -2.22228 0
      vertex 3.09204 -2.53757 0
      vertex 0 0 12
    endloop
  endfacet
  facet normal -0.947655 0.0465527 -0.315885
    outer loop
      vertex 4 0 0
      vertex 3.98074 -0.392068 0
      vertex 0 0 12
    endloop
  endfacet
  facet normal -0.893336 0.319637 -0.315885
    outer loop
      vertex 3.82776 -1.16114 0
      vertex 3.69552 -1.53073 0
      vertex 0 0 12
    endloop
  endfacet
  facet normal -0.139223 0.938527 -0.315885
    outer loop
      vertex 0.780361 -3.92314 0
      vertex 0.392068 -3.98074 0
      vertex 0 0 12
    endloop
  endfacet
  facet normal -0.0465527 0.947655 -0.315885
    outer loop
      vertex 0 0 12
      vertex 0.392068 -3.98074 0
      vertex 0 -4 0
    endloop
  endfacet
  facet normal 0.893336 -0.319637 -0.315885
    outer loop
      vertex -3.69552 1.53073 0
      vertex 0 0 12
      vertex -3.82776 1.16114 0
    endloop
  endfacet
  facet normal 0.857699 0.405671 -0.315885
    outer loop
      vertex 0 0 12
      vertex -3.52768 -1.88559 0
      vertex -3.69552 -1.53073 0
    endloop
  endfacet
  facet normal -0.857699 -0.405671 -0.315885
    outer loop
      vertex 3.52768 1.88559 0
      vertex 3.69552 1.53073 0
      vertex 0 0 12
    endloop
  endfacet
  facet normal -0.893336 -0.319637 -0.315885
    outer loop
      vertex 3.69552 1.53073 0
      vertex 3.82776 1.16114 0
      vertex 0 0 12
    endloop
  endfacet
  facet normal -0.938527 0.139223 -0.315885
    outer loop
      vertex 3.98074 -0.392068 0
      vertex 3.92314 -0.780361 0
      vertex 0 0 12
    endloop
  endfacet
  facet normal -0.0465527 -0.947655 -0.315885
    outer loop
      vertex 0 4 0
      vertex 0.392068 3.98074 0
      vertex 0 0 12
    endloop
  endfacet
  facet normal 0.230539 -0.920363 -0.315885
    outer loop
      vertex -0.780361 3.92314 0
      vertex 0 0 12
      vertex -1.16114 3.82776 0
    endloop
  endfacet
  facet normal -0.405671 -0.857699 -0.315885
    outer loop
      vertex 1.53073 3.69552 0
      vertex 1.88559 3.52768 0
      vertex 0 0 12
    endloop
  endfacet
  facet normal 0.565206 0.762076 -0.315885
    outer loop
      vertex 0 0 12
      vertex -2.22228 -3.32588 0
      vertex -2.53757 -3.09204 0
    endloop
  endfacet
  facet normal -0.405671 0.857699 -0.315885
    outer loop
      vertex 1.88559 -3.52768 0
      vertex 1.53073 -3.69552 0
      vertex 0 0 12
    endloop
  endfacet
  facet normal 0.762076 0.565206 -0.315885
    outer loop
      vertex 0 0 12
      vertex -3.09204 -2.53757 0
      vertex -3.32588 -2.22228 0
    endloop
  endfacet
  facet normal 0.63716 0.703025 -0.315885
    outer loop
      vertex 0 0 12
      vertex -2.53757 -3.09204 0
      vertex -2.82843 -2.82843 0
    endloop
  endfacet
  facet normal -0.857699 0.405671 -0.315885
    outer loop
      vertex 3.69552 -1.53073 0
      vertex 3.52768 -1.88559 0
      vertex 0 0 12
    endloop
  endfacet
  facet normal -0.813815 0.487772 -0.315885
    outer loop
      vertex 3.52768 -1.88559 0
      vertex 3.32588 -2.22228 0
      vertex 0 0 12
    endloop
  endfacet
  facet normal -0.762076 -0.565206 -0.315885
    outer loop
      vertex 3.09204 2.53757 0
      vertex 3.32588 2.22228 0
      vertex 0 0 12
    endloop
  endfacet
  facet normal -0.813815 -0.487772 -0.315885
    outer loop
      vertex 3.32588 2.22228 0
      vertex 3.52768 1.88559 0
      vertex 0 0 12
    endloop
  endfacet
  facet normal -0.230539 0.920363 -0.315885
    outer loop
      vertex 1.16114 -3.82776 0
      vertex 0.780361 -3.92314 0
      vertex 0 0 12
    endloop
  endfacet
  facet normal 0.405671 0.857699 -0.315885
    outer loop
      vertex 0 0 12
      vertex -1.53073 -3.69552 0
      vertex -1.88559 -3.52768 0
    endloop
  endfacet
  facet normal -0.565206 0.762076 -0.315885
    outer loop
      vertex 2.53757 -3.09204 0
      vertex 2.22228 -3.32588 0
      vertex 0 0 12
    endloop
  endfacet
  facet normal 0.319637 0.893336 -0.315885
    outer loop
      vertex 0 0 12
      vertex -1.16114 -3.82776 0
      vertex -1.53073 -3.69552 0
    endloop
  endfacet
  facet normal -0.703025 0.63716 -0.315885
    outer loop
      vertex 3.09204 -2.53757 0
      vertex 2.82843 -2.82843 0
      vertex 0 0 12
    endloop
  endfacet
  facet normal 0.487772 0.813815 -0.315885
    outer loop
      vertex 0 0 12
      vertex -1.88559 -3.52768 0
      vertex -2.22228 -3.32588 0
    endloop
  endfacet
  facet normal 0.938527 0.139223 -0.315885
    outer loop
      vertex 0 0 12
      vertex -3.92314 -0.780361 0
      vertex -3.98074 -0.392068 0
    endloop
  endfacet
  facet normal 0.139223 0.938527 -0.315885
    outer loop
      vertex 0 0 12
      vertex -0.392068 -3.98074 0
      vertex -0.780361 -3.92314 0
    endloop
  endfacet
  facet normal 0.893336 0.319637 -0.315885
    outer loop
      vertex 0 0 12
      vertex -3.69552 -1.53073 0
      vertex -3.82776 -1.16114 0
    endloop
  endfacet
  facet normal 0.920363 0.230539 -0.315885
    outer loop
      vertex 0 0 12
      vertex -3.82776 -1.16114 0
      vertex -3.92314 -0.780361 0
    endloop
  endfacet
endsolid OpenSCAD_Model
