solid OpenSCAD_Model
  facet normal 0.514131 -0.857712 0
    outer loop
      vertex 48.4142 0.354237 0
      vertex 48.6667 0.505591 2
      vertex 48.4142 0.354237 2
    endloop
  endfacet
  facet normal 0.989174 0.146746 0
    outer loop
      vertex 49.9424 47.5853 2
      vertex 49.9856 47.2941 0
      vertex 49.9424 47.5853 0
    endloop
  endfacet
  facet normal 0.989176 -0.146736 0
    outer loop
      vertex 49.9856 2.70595 2
      vertex 49.9424 2.41473 0
      vertex 49.9856 2.70595 0
    endloop
  endfacet
  facet normal 0.989176 -0.146736 0
    outer loop
      vertex 49.9424 2.41473 2
      vertex 49.9424 2.41473 0
      vertex 49.9856 2.70595 2
    endloop
  endfacet
  facet normal 0.904125 0.427269 -0
    outer loop
      vertex 49.7716 48.148 0
      vertex 49.6458 48.4142 2
      vertex 49.7716 48.148 2
    endloop
  endfacet
  facet normal 0.857661 -0.514216 0
    outer loop
      vertex 49.6458 1.58581 0
      vertex 49.6458 1.58581 2
      vertex 49.4944 1.33329 0
    endloop
  endfacet
  facet normal -0 0 1
    outer loop
      vertex 0 3 2
      vertex 47.5853 0.0576448 2
      vertex 0 47 2
    endloop
  endfacet
  facet normal 0.427477 -0.904026 0
    outer loop
      vertex 48.4142 0.354237 2
      vertex 48.148 0.228362 2
      vertex 48.4142 0.354237 0
    endloop
  endfacet
  facet normal -0 0 1
    outer loop
      vertex 0.354237 48.4142 2
      vertex 47.5853 0.0576448 2
      vertex 0.505591 48.6667 2
    endloop
  endfacet
  facet normal -1 -0 -0
    outer loop
      vertex 0 47 2
      vertex 0 47 0
      vertex 0 3 2
    endloop
  endfacet
  facet normal -0 0 1
    outer loop
      vertex 0.228362 48.148 2
      vertex 47.5853 0.0576448 2
      vertex 0.354237 48.4142 2
    endloop
  endfacet
  facet normal 0 0 1
    outer loop
      vertex 47 50 2
      vertex 47.5853 0.0576448 2
      vertex 47.2941 49.9856 2
    endloop
  endfacet
  facet normal 1 0 0
    outer loop
      vertex 50 3 0
      vertex 50 47 0
      vertex 50 3 2
    endloop
  endfacet
  facet normal -0 0 1
    outer loop
      vertex 1.33329 49.4944 2
      vertex 47.5853 0.0576448 2
      vertex 1.58581 49.6458 2
    endloop
  endfacet
  facet normal -1 0 0
    outer loop
      vertex 0 3 2
      vertex 0 47 0
      vertex 0 3 0
    endloop
  endfacet
  facet normal 0.514246 0.857643 -0
    outer loop
      vertex 48.6667 49.4944 0
      vertex 48.4142 49.6458 0
      vertex 48.6667 49.4944 2
    endloop
  endfacet
  facet normal -0.67156 -0.74095 0
    outer loop
      vertex 0.87868 0.87868 2
      vertex 1.09682 0.680969 0
      vertex 1.09682 0.680969 2
    endloop
  endfacet
  facet normal 0 0 -1
    outer loop
      vertex 49.9856 47.2941 0
      vertex 2.41473 49.9424 0
      vertex 49.9424 47.5853 0
    endloop
  endfacet
  facet normal -0 0 1
    outer loop
      vertex 0 47 2
      vertex 47.5853 0.0576448 2
      vertex 0.0144463 47.2941 2
    endloop
  endfacet
  facet normal 0 0 1
    outer loop
      vertex 47.2941 49.9856 2
      vertex 47.5853 0.0576448 2
      vertex 47.5853 49.9424 2
    endloop
  endfacet
  facet normal 0 0 -1
    outer loop
      vertex 49.6458 1.58581 0
      vertex 2.41473 49.9424 0
      vertex 49.7716 1.85195 0
    endloop
  endfacet
  facet normal 0.803208 0.595699 -0
    outer loop
      vertex 49.4944 48.6667 0
      vertex 49.319 48.9032 0
      vertex 49.4944 48.6667 2
    endloop
  endfacet
  facet normal 0.514246 0.857643 0
    outer loop
      vertex 48.6667 49.4944 2
      vertex 48.4142 49.6458 0
      vertex 48.4142 49.6458 2
    endloop
  endfacet
  facet normal 0 0 1
    outer loop
      vertex 49.6458 1.58581 2
      vertex 47.5853 0.0576448 2
      vertex 49.4944 1.33329 2
    endloop
  endfacet
  facet normal 0 0 -1
    outer loop
      vertex 49.7716 1.85195 0
      vertex 2.41473 49.9424 0
      vertex 49.8708 2.12915 0
    endloop
  endfacet
  facet normal -0.0490695 -0.998795 -0
    outer loop
      vertex 3 0 2
      vertex 2.70595 0.0144463 0
      vertex 3 0 0
    endloop
  endfacet
  facet normal -0.671539 0.740969 0
    outer loop
      vertex 1.09682 49.319 0
      vertex 0.87868 49.1213 2
      vertex 1.09682 49.319 2
    endloop
  endfacet
  facet normal 0.969978 -0.243191 0
    outer loop
      vertex 49.8708 2.12915 0
      vertex 49.9424 2.41473 0
      vertex 49.8708 2.12915 2
    endloop
  endfacet
  facet normal 0.904088 -0.427347 0
    outer loop
      vertex 49.6458 1.58581 0
      vertex 49.7716 1.85195 0
      vertex 49.6458 1.58581 2
    endloop
  endfacet
  facet normal 0 0 -1
    outer loop
      vertex 49.9424 47.5853 0
      vertex 2.41473 49.9424 0
      vertex 49.8708 47.8709 0
    endloop
  endfacet
  facet normal -0.74095 -0.67156 -0
    outer loop
      vertex 0.87868 0.87868 2
      vertex 0.680969 1.09682 0
      vertex 0.87868 0.87868 0
    endloop
  endfacet
  facet normal 0 -0 -1
    outer loop
      vertex 1.85195 49.7716 0
      vertex 2.41473 49.9424 0
      vertex 1.58581 49.6458 0
    endloop
  endfacet
  facet normal 0.427477 -0.904026 0
    outer loop
      vertex 48.4142 0.354237 0
      vertex 48.148 0.228362 2
      vertex 48.148 0.228362 0
    endloop
  endfacet
  facet normal 1 -0 0
    outer loop
      vertex 50 3 2
      vertex 50 47 0
      vertex 50 47 2
    endloop
  endfacet
  facet normal -0.336939 0.941527 0
    outer loop
      vertex 1.85195 49.7716 0
      vertex 1.85195 49.7716 2
      vertex 2.12915 49.8708 0
    endloop
  endfacet
  facet normal -0.998796 0.0490612 0
    outer loop
      vertex 0 47 2
      vertex 0.0144463 47.2941 2
      vertex 0 47 0
    endloop
  endfacet
  facet normal 0 0 -1
    outer loop
      vertex 47 0 0
      vertex 2.41473 49.9424 0
      vertex 47.2941 0.0144463 0
    endloop
  endfacet
  facet normal 0 0 -1
    outer loop
      vertex 48.4142 49.6458 0
      vertex 2.41473 49.9424 0
      vertex 48.148 49.7716 0
    endloop
  endfacet
  facet normal -0.427556 -0.903989 -0
    outer loop
      vertex 1.85195 0.228362 2
      vertex 1.58581 0.354237 0
      vertex 1.85195 0.228362 0
    endloop
  endfacet
  facet normal -0 -0 1
    outer loop
      vertex 1.58581 0.354237 2
      vertex 47.5853 0.0576448 2
      vertex 1.33329 0.505591 2
    endloop
  endfacet
  facet normal 0 0 -1
    outer loop
      vertex 49.1213 0.87868 0
      vertex 2.41473 49.9424 0
      vertex 49.319 1.09682 0
    endloop
  endfacet
  facet normal -0.803244 0.59565 0
    outer loop
      vertex 0.505591 48.6667 0
      vertex 0.505591 48.6667 2
      vertex 0.680969 48.9032 0
    endloop
  endfacet
  facet normal -0 0 -1
    outer loop
      vertex 47 50 0
      vertex 2.41473 49.9424 0
      vertex 3 50 0
    endloop
  endfacet
  facet normal 0.969978 -0.243191 0
    outer loop
      vertex 49.8708 2.12915 2
      vertex 49.9424 2.41473 0
      vertex 49.9424 2.41473 2
    endloop
  endfacet
  facet normal 0 0 1
    outer loop
      vertex 48.9032 49.319 2
      vertex 47.5853 0.0576448 2
      vertex 49.1213 49.1213 2
    endloop
  endfacet
  facet normal 0.904125 0.427269 -0
    outer loop
      vertex 49.6458 48.4142 0
      vertex 49.6458 48.4142 2
      vertex 49.7716 48.148 0
    endloop
  endfacet
  facet normal 0 -1 0
    outer loop
      vertex 3 0 0
      vertex 47 0 0
      vertex 3 0 2
    endloop
  endfacet
  facet normal -0.85773 -0.514101 0
    outer loop
      vertex 0.505591 1.33329 0
      vertex 0.354237 1.58581 2
      vertex 0.354237 1.58581 0
    endloop
  endfacet
  facet normal 0.671627 -0.740889 0
    outer loop
      vertex 49.1213 0.87868 0
      vertex 49.1213 0.87868 2
      vertex 48.9032 0.680969 0
    endloop
  endfacet
  facet normal -0 -0 1
    outer loop
      vertex 0.0576448 2.41473 2
      vertex 47.5853 0.0576448 2
      vertex 0.0144463 2.70595 2
    endloop
  endfacet
  facet normal -0.998796 0.0490612 0
    outer loop
      vertex 0 47 0
      vertex 0.0144463 47.2941 2
      vertex 0.0144463 47.2941 0
    endloop
  endfacet
  facet normal -0 -0 1
    outer loop
      vertex 0.87868 0.87868 2
      vertex 47.5853 0.0576448 2
      vertex 0.680969 1.09682 2
    endloop
  endfacet
  facet normal 0.998803 0.0489044 -0
    outer loop
      vertex 50 47 0
      vertex 49.9856 47.2941 0
      vertex 50 47 2
    endloop
  endfacet
  facet normal 0.671607 0.740908 -0
    outer loop
      vertex 49.1213 49.1213 0
      vertex 48.9032 49.319 0
      vertex 49.1213 49.1213 2
    endloop
  endfacet
  facet normal -0.857712 0.514131 0
    outer loop
      vertex 0.505591 48.6667 2
      vertex 0.354237 48.4142 0
      vertex 0.354237 48.4142 2
    endloop
  endfacet
  facet normal 0.146741 -0.989175 0
    outer loop
      vertex 47.5853 0.0576448 0
      vertex 47.5853 0.0576448 2
      vertex 47.2941 0.0144463 0
    endloop
  endfacet
  facet normal 0 0 1
    outer loop
      vertex 49.6458 48.4142 2
      vertex 47.5853 0.0576448 2
      vertex 49.7716 48.148 2
    endloop
  endfacet
  facet normal 0 0 -1
    outer loop
      vertex 0.228362 1.85195 0
      vertex 2.41473 49.9424 0
      vertex 0.354237 1.58581 0
    endloop
  endfacet
  facet normal -0.595699 -0.803208 -0
    outer loop
      vertex 1.09682 0.680969 2
      vertex 1.09682 0.680969 0
      vertex 1.33329 0.505591 2
    endloop
  endfacet
  facet normal 0 -0 -1
    outer loop
      vertex 1.33329 49.4944 0
      vertex 2.41473 49.9424 0
      vertex 1.09682 49.319 0
    endloop
  endfacet
  facet normal 0.998803 0.0489044 0
    outer loop
      vertex 50 47 2
      vertex 49.9856 47.2941 0
      vertex 49.9856 47.2941 2
    endloop
  endfacet
  facet normal -0 0 1
    outer loop
      vertex 0.0144463 47.2941 2
      vertex 47.5853 0.0576448 2
      vertex 0.0576448 47.5853 2
    endloop
  endfacet
  facet normal 0.242965 -0.970035 0
    outer loop
      vertex 47.8709 0.129179 0
      vertex 47.5853 0.0576448 2
      vertex 47.5853 0.0576448 0
    endloop
  endfacet
  facet normal 0 0 -1
    outer loop
      vertex 49.6458 48.4142 0
      vertex 2.41473 49.9424 0
      vertex 49.4944 48.6667 0
    endloop
  endfacet
  facet normal -0 0 1
    outer loop
      vertex 2.12915 49.8708 2
      vertex 47.5853 0.0576448 2
      vertex 2.41473 49.9424 2
    endloop
  endfacet
  facet normal 0.857661 -0.514216 0
    outer loop
      vertex 49.4944 1.33329 0
      vertex 49.6458 1.58581 2
      vertex 49.4944 1.33329 2
    endloop
  endfacet
  facet normal 0.941527 -0.336939 0
    outer loop
      vertex 49.8708 2.12915 2
      vertex 49.7716 1.85195 0
      vertex 49.8708 2.12915 0
    endloop
  endfacet
  facet normal 0 0 -1
    outer loop
      vertex 2.41473 0.0576448 0
      vertex 2.41473 49.9424 0
      vertex 2.70595 0.0144463 0
    endloop
  endfacet
  facet normal -0.514101 -0.85773 0
    outer loop
      vertex 1.33329 0.505591 0
      vertex 1.58581 0.354237 0
      vertex 1.33329 0.505591 2
    endloop
  endfacet
  facet normal -0.970035 0.242965 0
    outer loop
      vertex 0.129179 47.8709 0
      vertex 0.0576448 47.5853 2
      vertex 0.129179 47.8709 2
    endloop
  endfacet
  facet normal -0 0 1
    outer loop
      vertex 1.85195 49.7716 2
      vertex 47.5853 0.0576448 2
      vertex 2.12915 49.8708 2
    endloop
  endfacet
  facet normal 0.998803 -0.0489126 0
    outer loop
      vertex 49.9856 2.70595 2
      vertex 49.9856 2.70595 0
      vertex 50 3 2
    endloop
  endfacet
  facet normal -0.803208 -0.595699 0
    outer loop
      vertex 0.505591 1.33329 2
      vertex 0.680969 1.09682 0
      vertex 0.680969 1.09682 2
    endloop
  endfacet
  facet normal 0 -1 0
    outer loop
      vertex 3 0 2
      vertex 47 0 0
      vertex 47 0 2
    endloop
  endfacet
  facet normal 0 1 0
    outer loop
      vertex 3 50 2
      vertex 47 50 0
      vertex 3 50 0
    endloop
  endfacet
  facet normal 0 1 0
    outer loop
      vertex 47 50 2
      vertex 47 50 0
      vertex 3 50 2
    endloop
  endfacet
  facet normal 0 0 1
    outer loop
      vertex 49.8708 2.12915 2
      vertex 47.5853 0.0576448 2
      vertex 49.7716 1.85195 2
    endloop
  endfacet
  facet normal -0.857712 0.514131 0
    outer loop
      vertex 0.505591 48.6667 0
      vertex 0.354237 48.4142 0
      vertex 0.505591 48.6667 2
    endloop
  endfacet
  facet normal 0 0 -1
    outer loop
      vertex 0 3 0
      vertex 2.41473 49.9424 0
      vertex 0.0144463 2.70595 0
    endloop
  endfacet
  facet normal -0.740889 0.671627 0
    outer loop
      vertex 0.680969 48.9032 2
      vertex 0.87868 49.1213 2
      vertex 0.680969 48.9032 0
    endloop
  endfacet
  facet normal 0.740908 0.671607 0
    outer loop
      vertex 49.319 48.9032 2
      vertex 49.319 48.9032 0
      vertex 49.1213 49.1213 2
    endloop
  endfacet
  facet normal -0 0 1
    outer loop
      vertex 0.505591 48.6667 2
      vertex 47.5853 0.0576448 2
      vertex 0.680969 48.9032 2
    endloop
  endfacet
  facet normal 0.671627 -0.740889 0
    outer loop
      vertex 48.9032 0.680969 0
      vertex 49.1213 0.87868 2
      vertex 48.9032 0.680969 2
    endloop
  endfacet
  facet normal 0 0 -1
    outer loop
      vertex 48.148 0.228362 0
      vertex 2.41473 49.9424 0
      vertex 48.4142 0.354237 0
    endloop
  endfacet
  facet normal 0.514131 -0.857712 0
    outer loop
      vertex 48.6667 0.505591 0
      vertex 48.6667 0.505591 2
      vertex 48.4142 0.354237 0
    endloop
  endfacet
  facet normal 0 0 -1
    outer loop
      vertex 47.8709 0.129179 0
      vertex 2.41473 49.9424 0
      vertex 48.148 0.228362 0
    endloop
  endfacet
  facet normal 0 0 1
    outer loop
      vertex 49.8708 47.8709 2
      vertex 47.5853 0.0576448 2
      vertex 49.9424 47.5853 2
    endloop
  endfacet
  facet normal -0.85773 -0.514101 -0
    outer loop
      vertex 0.505591 1.33329 2
      vertex 0.354237 1.58581 2
      vertex 0.505591 1.33329 0
    endloop
  endfacet
  facet normal -0 -0 1
    outer loop
      vertex 0.680969 1.09682 2
      vertex 47.5853 0.0576448 2
      vertex 0.505591 1.33329 2
    endloop
  endfacet
  facet normal 0 -0 -1
    outer loop
      vertex 0.0576448 47.5853 0
      vertex 2.41473 49.9424 0
      vertex 0.0144463 47.2941 0
    endloop
  endfacet
  facet normal 0 0 1
    outer loop
      vertex 48.4142 0.354237 2
      vertex 47.5853 0.0576448 2
      vertex 48.148 0.228362 2
    endloop
  endfacet
  facet normal -0 0 1
    outer loop
      vertex 0.87868 49.1213 2
      vertex 47.5853 0.0576448 2
      vertex 1.09682 49.319 2
    endloop
  endfacet
  facet normal -0.941506 0.336995 0
    outer loop
      vertex 0.129179 47.8709 2
      vertex 0.228362 48.148 2
      vertex 0.129179 47.8709 0
    endloop
  endfacet
  facet normal -0.595699 -0.803208 -0
    outer loop
      vertex 1.33329 0.505591 2
      vertex 1.09682 0.680969 0
      vertex 1.33329 0.505591 0
    endloop
  endfacet
  facet normal -0.67156 -0.74095 0
    outer loop
      vertex 0.87868 0.87868 0
      vertex 1.09682 0.680969 0
      vertex 0.87868 0.87868 2
    endloop
  endfacet
  facet normal -0 -0 1
    outer loop
      vertex 0.0144463 2.70595 2
      vertex 47.5853 0.0576448 2
      vertex 0 3 2
    endloop
  endfacet
  facet normal 0 0 1
    outer loop
      vertex 49.7716 48.148 2
      vertex 47.5853 0.0576448 2
      vertex 49.8708 47.8709 2
    endloop
  endfacet
  facet normal -0.242981 -0.970031 0
    outer loop
      vertex 2.41473 0.0576448 0
      vertex 2.12915 0.129179 2
      vertex 2.12915 0.129179 0
    endloop
  endfacet
  facet normal -0.336939 0.941527 0
    outer loop
      vertex 2.12915 49.8708 0
      vertex 1.85195 49.7716 2
      vertex 2.12915 49.8708 2
    endloop
  endfacet
  facet normal 0 0 1
    outer loop
      vertex 49.4944 1.33329 2
      vertex 47.5853 0.0576448 2
      vertex 49.319 1.09682 2
    endloop
  endfacet
  facet normal -0.514216 0.857661 0
    outer loop
      vertex 1.33329 49.4944 0
      vertex 1.33329 49.4944 2
      vertex 1.58581 49.6458 0
    endloop
  endfacet
  facet normal 0 0 -1
    outer loop
      vertex 48.6667 49.4944 0
      vertex 2.41473 49.9424 0
      vertex 48.4142 49.6458 0
    endloop
  endfacet
  facet normal -0.0490695 -0.998795 -0
    outer loop
      vertex 2.70595 0.0144463 2
      vertex 2.70595 0.0144463 0
      vertex 3 0 2
    endloop
  endfacet
  facet normal 0.941488 0.337047 0
    outer loop
      vertex 49.7716 48.148 2
      vertex 49.8708 47.8709 2
      vertex 49.7716 48.148 0
    endloop
  endfacet
  facet normal -0.0489126 0.998803 0
    outer loop
      vertex 3 50 0
      vertex 2.70595 49.9856 0
      vertex 3 50 2
    endloop
  endfacet
  facet normal 0 -0 1
    outer loop
      vertex 47 0 2
      vertex 47.5853 0.0576448 2
      vertex 3 0 2
    endloop
  endfacet
  facet normal 0.59565 -0.803244 0
    outer loop
      vertex 48.9032 0.680969 2
      vertex 48.6667 0.505591 2
      vertex 48.9032 0.680969 0
    endloop
  endfacet
  facet normal 0.969982 0.243175 -0
    outer loop
      vertex 49.8708 47.8709 0
      vertex 49.8708 47.8709 2
      vertex 49.9424 47.5853 0
    endloop
  endfacet
  facet normal 0 -0 -1
    outer loop
      vertex 0.129179 47.8709 0
      vertex 2.41473 49.9424 0
      vertex 0.0576448 47.5853 0
    endloop
  endfacet
  facet normal 0 -0 -1
    outer loop
      vertex 0.354237 48.4142 0
      vertex 2.41473 49.9424 0
      vertex 0.228362 48.148 0
    endloop
  endfacet
  facet normal 0 0 1
    outer loop
      vertex 49.9856 47.2941 2
      vertex 47.5853 0.0576448 2
      vertex 50 47 2
    endloop
  endfacet
  facet normal -0.941506 0.336995 0
    outer loop
      vertex 0.129179 47.8709 0
      vertex 0.228362 48.148 2
      vertex 0.228362 48.148 0
    endloop
  endfacet
  facet normal -0 0 1
    outer loop
      vertex 2.70595 49.9856 2
      vertex 47.5853 0.0576448 2
      vertex 3 50 2
    endloop
  endfacet
  facet normal 0 0 -1
    outer loop
      vertex 1.09682 0.680969 0
      vertex 2.41473 49.9424 0
      vertex 1.33329 0.505591 0
    endloop
  endfacet
  facet normal -0.595747 0.803172 0
    outer loop
      vertex 1.33329 49.4944 0
      vertex 1.09682 49.319 0
      vertex 1.33329 49.4944 2
    endloop
  endfacet
  facet normal -0 0 1
    outer loop
      vertex 1.09682 49.319 2
      vertex 47.5853 0.0576448 2
      vertex 1.33329 49.4944 2
    endloop
  endfacet
  facet normal 0.740969 -0.671539 0
    outer loop
      vertex 49.319 1.09682 0
      vertex 49.319 1.09682 2
      vertex 49.1213 0.87868 0
    endloop
  endfacet
  facet normal -0.740889 0.671627 0
    outer loop
      vertex 0.680969 48.9032 0
      vertex 0.87868 49.1213 2
      vertex 0.87868 49.1213 0
    endloop
  endfacet
  facet normal 0 0 -1
    outer loop
      vertex 50 3 0
      vertex 2.41473 49.9424 0
      vertex 50 47 0
    endloop
  endfacet
  facet normal 0.998803 -0.0489126 0
    outer loop
      vertex 50 3 2
      vertex 49.9856 2.70595 0
      vertex 50 3 0
    endloop
  endfacet
  facet normal 0.740969 -0.671539 0
    outer loop
      vertex 49.1213 0.87868 0
      vertex 49.319 1.09682 2
      vertex 49.1213 0.87868 2
    endloop
  endfacet
  facet normal -0 0 1
    outer loop
      vertex 0.129179 47.8709 2
      vertex 47.5853 0.0576448 2
      vertex 0.228362 48.148 2
    endloop
  endfacet
  facet normal 0 0 1
    outer loop
      vertex 50 47 2
      vertex 47.5853 0.0576448 2
      vertex 50 3 2
    endloop
  endfacet
  facet normal 0 0 -1
    outer loop
      vertex 48.9032 49.319 0
      vertex 2.41473 49.9424 0
      vertex 48.6667 49.4944 0
    endloop
  endfacet
  facet normal 0.740908 0.671607 0
    outer loop
      vertex 49.1213 49.1213 2
      vertex 49.319 48.9032 0
      vertex 49.1213 49.1213 0
    endloop
  endfacet
  facet normal 0.803208 0.595699 0
    outer loop
      vertex 49.4944 48.6667 2
      vertex 49.319 48.9032 0
      vertex 49.319 48.9032 2
    endloop
  endfacet
  facet normal -0 -0 1
    outer loop
      vertex 0.354237 1.58581 2
      vertex 47.5853 0.0576448 2
      vertex 0.228362 1.85195 2
    endloop
  endfacet
  facet normal -0.989176 -0.146731 -0
    outer loop
      vertex 0.0144463 2.70595 2
      vertex 0.0144463 2.70595 0
      vertex 0.0576448 2.41473 2
    endloop
  endfacet
  facet normal -0.970035 0.242965 0
    outer loop
      vertex 0.0576448 47.5853 0
      vertex 0.0576448 47.5853 2
      vertex 0.129179 47.8709 0
    endloop
  endfacet
  facet normal -0 0 1
    outer loop
      vertex 2.41473 49.9424 2
      vertex 47.5853 0.0576448 2
      vertex 2.70595 49.9856 2
    endloop
  endfacet
  facet normal -0.0489126 0.998803 0
    outer loop
      vertex 3 50 2
      vertex 2.70595 49.9856 0
      vertex 2.70595 49.9856 2
    endloop
  endfacet
  facet normal 0 0 -1
    outer loop
      vertex 0.129179 2.12915 0
      vertex 2.41473 49.9424 0
      vertex 0.228362 1.85195 0
    endloop
  endfacet
  facet normal -0.74095 -0.67156 -0
    outer loop
      vertex 0.680969 1.09682 2
      vertex 0.680969 1.09682 0
      vertex 0.87868 0.87868 2
    endloop
  endfacet
  facet normal -0.803208 -0.595699 0
    outer loop
      vertex 0.505591 1.33329 0
      vertex 0.680969 1.09682 0
      vertex 0.505591 1.33329 2
    endloop
  endfacet
  facet normal 0 -0 -1
    outer loop
      vertex 0.505591 48.6667 0
      vertex 2.41473 49.9424 0
      vertex 0.354237 48.4142 0
    endloop
  endfacet
  facet normal 0 0 -1
    outer loop
      vertex 2.70595 0.0144463 0
      vertex 2.41473 49.9424 0
      vertex 3 0 0
    endloop
  endfacet
  facet normal 0 0 -1
    outer loop
      vertex 48.6667 0.505591 0
      vertex 2.41473 49.9424 0
      vertex 48.9032 0.680969 0
    endloop
  endfacet
  facet normal 0.59565 -0.803244 0
    outer loop
      vertex 48.9032 0.680969 0
      vertex 48.6667 0.505591 2
      vertex 48.6667 0.505591 0
    endloop
  endfacet
  facet normal 0.857643 0.514246 0
    outer loop
      vertex 49.4944 48.6667 0
      vertex 49.6458 48.4142 2
      vertex 49.6458 48.4142 0
    endloop
  endfacet
  facet normal -0.427347 0.904088 0
    outer loop
      vertex 1.58581 49.6458 0
      vertex 1.85195 49.7716 2
      vertex 1.85195 49.7716 0
    endloop
  endfacet
  facet normal 0 0 1
    outer loop
      vertex 49.1213 49.1213 2
      vertex 47.5853 0.0576448 2
      vertex 49.319 48.9032 2
    endloop
  endfacet
  facet normal 0 0 1
    outer loop
      vertex 49.9424 47.5853 2
      vertex 47.5853 0.0576448 2
      vertex 49.9856 47.2941 2
    endloop
  endfacet
  facet normal -0.903989 -0.427556 0
    outer loop
      vertex 0.354237 1.58581 0
      vertex 0.354237 1.58581 2
      vertex 0.228362 1.85195 0
    endloop
  endfacet
  facet normal -0.803244 0.59565 0
    outer loop
      vertex 0.680969 48.9032 0
      vertex 0.505591 48.6667 2
      vertex 0.680969 48.9032 2
    endloop
  endfacet
  facet normal -0.903989 -0.427556 0
    outer loop
      vertex 0.228362 1.85195 0
      vertex 0.354237 1.58581 2
      vertex 0.228362 1.85195 2
    endloop
  endfacet
  facet normal 0 0 1
    outer loop
      vertex 48.148 0.228362 2
      vertex 47.5853 0.0576448 2
      vertex 47.8709 0.129179 2
    endloop
  endfacet
  facet normal 0 0 -1
    outer loop
      vertex 0.505591 1.33329 0
      vertex 2.41473 49.9424 0
      vertex 0.680969 1.09682 0
    endloop
  endfacet
  facet normal 0.904088 -0.427347 0
    outer loop
      vertex 49.6458 1.58581 2
      vertex 49.7716 1.85195 0
      vertex 49.7716 1.85195 2
    endloop
  endfacet
  facet normal 0 0 -1
    outer loop
      vertex 47.5853 0.0576448 0
      vertex 2.41473 49.9424 0
      vertex 47.8709 0.129179 0
    endloop
  endfacet
  facet normal 0 0 -1
    outer loop
      vertex 48.9032 0.680969 0
      vertex 2.41473 49.9424 0
      vertex 49.1213 0.87868 0
    endloop
  endfacet
  facet normal 0.941527 -0.336939 0
    outer loop
      vertex 49.7716 1.85195 2
      vertex 49.7716 1.85195 0
      vertex 49.8708 2.12915 2
    endloop
  endfacet
  facet normal 0 0 1
    outer loop
      vertex 49.1213 0.87868 2
      vertex 47.5853 0.0576448 2
      vertex 48.9032 0.680969 2
    endloop
  endfacet
  facet normal 0.0490612 -0.998796 0
    outer loop
      vertex 47.2941 0.0144463 0
      vertex 47.2941 0.0144463 2
      vertex 47 0 0
    endloop
  endfacet
  facet normal 0 0 -1
    outer loop
      vertex 0.0576448 2.41473 0
      vertex 2.41473 49.9424 0
      vertex 0.129179 2.12915 0
    endloop
  endfacet
  facet normal -0 -0 1
    outer loop
      vertex 2.12915 0.129179 2
      vertex 47.5853 0.0576448 2
      vertex 1.85195 0.228362 2
    endloop
  endfacet
  facet normal 0.857643 0.514246 0
    outer loop
      vertex 49.4944 48.6667 2
      vertex 49.6458 48.4142 2
      vertex 49.4944 48.6667 0
    endloop
  endfacet
  facet normal -0.146736 0.989176 0
    outer loop
      vertex 2.70595 49.9856 2
      vertex 2.41473 49.9424 0
      vertex 2.41473 49.9424 2
    endloop
  endfacet
  facet normal -0 0 1
    outer loop
      vertex 0.0576448 47.5853 2
      vertex 47.5853 0.0576448 2
      vertex 0.129179 47.8709 2
    endloop
  endfacet
  facet normal 0 0 1
    outer loop
      vertex 50 3 2
      vertex 47.5853 0.0576448 2
      vertex 49.9856 2.70595 2
    endloop
  endfacet
  facet normal 0.989174 0.146746 0
    outer loop
      vertex 49.9856 47.2941 2
      vertex 49.9856 47.2941 0
      vertex 49.9424 47.5853 2
    endloop
  endfacet
  facet normal -0 0 1
    outer loop
      vertex 3 50 2
      vertex 47.5853 0.0576448 2
      vertex 47 50 2
    endloop
  endfacet
  facet normal 0.427269 0.904125 0
    outer loop
      vertex 48.148 49.7716 2
      vertex 48.4142 49.6458 0
      vertex 48.148 49.7716 0
    endloop
  endfacet
  facet normal 0 0 -1
    outer loop
      vertex 0.0144463 2.70595 0
      vertex 2.41473 49.9424 0
      vertex 0.0576448 2.41473 0
    endloop
  endfacet
  facet normal -0.146731 -0.989176 0
    outer loop
      vertex 2.41473 0.0576448 2
      vertex 2.70595 0.0144463 0
      vertex 2.70595 0.0144463 2
    endloop
  endfacet
  facet normal -0.941545 -0.336888 -0
    outer loop
      vertex 0.228362 1.85195 2
      vertex 0.129179 2.12915 2
      vertex 0.228362 1.85195 0
    endloop
  endfacet
  facet normal 0.595699 0.803208 0
    outer loop
      vertex 48.9032 49.319 2
      vertex 48.9032 49.319 0
      vertex 48.6667 49.4944 2
    endloop
  endfacet
  facet normal 0 0 -1
    outer loop
      vertex 49.4944 1.33329 0
      vertex 2.41473 49.9424 0
      vertex 49.6458 1.58581 0
    endloop
  endfacet
  facet normal -0.427556 -0.903989 -0
    outer loop
      vertex 1.58581 0.354237 2
      vertex 1.58581 0.354237 0
      vertex 1.85195 0.228362 2
    endloop
  endfacet
  facet normal 0.427269 0.904125 0
    outer loop
      vertex 48.4142 49.6458 2
      vertex 48.4142 49.6458 0
      vertex 48.148 49.7716 2
    endloop
  endfacet
  facet normal 0.336995 -0.941506 0
    outer loop
      vertex 48.148 0.228362 2
      vertex 47.8709 0.129179 0
      vertex 48.148 0.228362 0
    endloop
  endfacet
  facet normal 0 0 -1
    outer loop
      vertex 1.58581 0.354237 0
      vertex 2.41473 49.9424 0
      vertex 1.85195 0.228362 0
    endloop
  endfacet
  facet normal 0 -0 -1
    outer loop
      vertex 1.09682 49.319 0
      vertex 2.41473 49.9424 0
      vertex 0.87868 49.1213 0
    endloop
  endfacet
  facet normal -0.514101 -0.85773 0
    outer loop
      vertex 1.33329 0.505591 2
      vertex 1.58581 0.354237 0
      vertex 1.58581 0.354237 2
    endloop
  endfacet
  facet normal -0.146731 -0.989176 0
    outer loop
      vertex 2.41473 0.0576448 0
      vertex 2.70595 0.0144463 0
      vertex 2.41473 0.0576448 2
    endloop
  endfacet
  facet normal 0 0 -1
    outer loop
      vertex 1.33329 0.505591 0
      vertex 2.41473 49.9424 0
      vertex 1.58581 0.354237 0
    endloop
  endfacet
  facet normal -0.336888 -0.941545 0
    outer loop
      vertex 2.12915 0.129179 0
      vertex 2.12915 0.129179 2
      vertex 1.85195 0.228362 0
    endloop
  endfacet
  facet normal -0 -0 1
    outer loop
      vertex 0.505591 1.33329 2
      vertex 47.5853 0.0576448 2
      vertex 0.354237 1.58581 2
    endloop
  endfacet
  facet normal -0 -0 1
    outer loop
      vertex 0.228362 1.85195 2
      vertex 47.5853 0.0576448 2
      vertex 0.129179 2.12915 2
    endloop
  endfacet
  facet normal 0 -0 -1
    outer loop
      vertex 0.228362 48.148 0
      vertex 2.41473 49.9424 0
      vertex 0.129179 47.8709 0
    endloop
  endfacet
  facet normal 0.337047 0.941488 -0
    outer loop
      vertex 48.148 49.7716 0
      vertex 47.8709 49.8708 0
      vertex 48.148 49.7716 2
    endloop
  endfacet
  facet normal -0.243191 0.969978 0
    outer loop
      vertex 2.12915 49.8708 2
      vertex 2.41473 49.9424 0
      vertex 2.12915 49.8708 0
    endloop
  endfacet
  facet normal -0.941545 -0.336888 0
    outer loop
      vertex 0.228362 1.85195 0
      vertex 0.129179 2.12915 2
      vertex 0.129179 2.12915 0
    endloop
  endfacet
  facet normal 0 0 -1
    outer loop
      vertex 48.4142 0.354237 0
      vertex 2.41473 49.9424 0
      vertex 48.6667 0.505591 0
    endloop
  endfacet
  facet normal 0 0 -1
    outer loop
      vertex 49.319 1.09682 0
      vertex 2.41473 49.9424 0
      vertex 49.4944 1.33329 0
    endloop
  endfacet
  facet normal 0.941488 0.337047 0
    outer loop
      vertex 49.7716 48.148 0
      vertex 49.8708 47.8709 2
      vertex 49.8708 47.8709 0
    endloop
  endfacet
  facet normal 0.969982 0.243175 -0
    outer loop
      vertex 49.9424 47.5853 0
      vertex 49.8708 47.8709 2
      vertex 49.9424 47.5853 2
    endloop
  endfacet
  facet normal -0.336888 -0.941545 0
    outer loop
      vertex 1.85195 0.228362 0
      vertex 2.12915 0.129179 2
      vertex 1.85195 0.228362 2
    endloop
  endfacet
  facet normal 0 0 1
    outer loop
      vertex 49.7716 1.85195 2
      vertex 47.5853 0.0576448 2
      vertex 49.6458 1.58581 2
    endloop
  endfacet
  facet normal 0.803172 -0.595747 0
    outer loop
      vertex 49.4944 1.33329 2
      vertex 49.319 1.09682 2
      vertex 49.4944 1.33329 0
    endloop
  endfacet
  facet normal 0.803172 -0.595747 0
    outer loop
      vertex 49.4944 1.33329 0
      vertex 49.319 1.09682 2
      vertex 49.319 1.09682 0
    endloop
  endfacet
  facet normal -0.970031 -0.242981 0
    outer loop
      vertex 0.129179 2.12915 0
      vertex 0.129179 2.12915 2
      vertex 0.0576448 2.41473 0
    endloop
  endfacet
  facet normal -0.970031 -0.242981 0
    outer loop
      vertex 0.0576448 2.41473 0
      vertex 0.129179 2.12915 2
      vertex 0.0576448 2.41473 2
    endloop
  endfacet
  facet normal 0 0 1
    outer loop
      vertex 49.4944 48.6667 2
      vertex 47.5853 0.0576448 2
      vertex 49.6458 48.4142 2
    endloop
  endfacet
  facet normal -0.989175 0.146741 0
    outer loop
      vertex 0.0144463 47.2941 2
      vertex 0.0576448 47.5853 2
      vertex 0.0144463 47.2941 0
    endloop
  endfacet
  facet normal 0 0 -1
    outer loop
      vertex 47.2941 0.0144463 0
      vertex 2.41473 49.9424 0
      vertex 47.5853 0.0576448 0
    endloop
  endfacet
  facet normal 0 0 -1
    outer loop
      vertex 3 0 0
      vertex 2.41473 49.9424 0
      vertex 47 0 0
    endloop
  endfacet
  facet normal -0.671539 0.740969 0
    outer loop
      vertex 0.87868 49.1213 0
      vertex 0.87868 49.1213 2
      vertex 1.09682 49.319 0
    endloop
  endfacet
  facet normal -0 0 1
    outer loop
      vertex 1.58581 49.6458 2
      vertex 47.5853 0.0576448 2
      vertex 1.85195 49.7716 2
    endloop
  endfacet
  facet normal -0 -0 1
    outer loop
      vertex 1.09682 0.680969 2
      vertex 47.5853 0.0576448 2
      vertex 0.87868 0.87868 2
    endloop
  endfacet
  facet normal 0 0 1
    outer loop
      vertex 48.6667 0.505591 2
      vertex 47.5853 0.0576448 2
      vertex 48.4142 0.354237 2
    endloop
  endfacet
  facet normal 0 0 1
    outer loop
      vertex 49.319 48.9032 2
      vertex 47.5853 0.0576448 2
      vertex 49.4944 48.6667 2
    endloop
  endfacet
  facet normal -0.146736 0.989176 0
    outer loop
      vertex 2.70595 49.9856 0
      vertex 2.41473 49.9424 0
      vertex 2.70595 49.9856 2
    endloop
  endfacet
  facet normal -0.998795 -0.0490695 0
    outer loop
      vertex 0 3 2
      vertex 0.0144463 2.70595 0
      vertex 0.0144463 2.70595 2
    endloop
  endfacet
  facet normal 0 0 -1
    outer loop
      vertex 49.9856 2.70595 0
      vertex 2.41473 49.9424 0
      vertex 50 3 0
    endloop
  endfacet
  facet normal 0 0 -1
    outer loop
      vertex 50 47 0
      vertex 2.41473 49.9424 0
      vertex 49.9856 47.2941 0
    endloop
  endfacet
  facet normal -0.989176 -0.146731 -0
    outer loop
      vertex 0.0576448 2.41473 2
      vertex 0.0144463 2.70595 0
      vertex 0.0576448 2.41473 0
    endloop
  endfacet
  facet normal 0.336995 -0.941506 0
    outer loop
      vertex 47.8709 0.129179 2
      vertex 47.8709 0.129179 0
      vertex 48.148 0.228362 2
    endloop
  endfacet
  facet normal -0.904026 0.427477 0
    outer loop
      vertex 0.228362 48.148 0
      vertex 0.228362 48.148 2
      vertex 0.354237 48.4142 0
    endloop
  endfacet
  facet normal 0 -0 -1
    outer loop
      vertex 1.58581 49.6458 0
      vertex 2.41473 49.9424 0
      vertex 1.33329 49.4944 0
    endloop
  endfacet
  facet normal 0 -0 -1
    outer loop
      vertex 0.0144463 47.2941 0
      vertex 2.41473 49.9424 0
      vertex 0 47 0
    endloop
  endfacet
  facet normal 0 -0 1
    outer loop
      vertex 47.2941 0.0144463 2
      vertex 47.5853 0.0576448 2
      vertex 47 0 2
    endloop
  endfacet
  facet normal 0 -0 1
    outer loop
      vertex 2.41473 0.0576448 2
      vertex 47.5853 0.0576448 2
      vertex 2.12915 0.129179 2
    endloop
  endfacet
  facet normal 0 0 -1
    outer loop
      vertex 1.85195 0.228362 0
      vertex 2.41473 49.9424 0
      vertex 2.12915 0.129179 0
    endloop
  endfacet
  facet normal 0 0 -1
    outer loop
      vertex 0.87868 0.87868 0
      vertex 2.41473 49.9424 0
      vertex 1.09682 0.680969 0
    endloop
  endfacet
  facet normal -0.989175 0.146741 0
    outer loop
      vertex 0.0144463 47.2941 0
      vertex 0.0576448 47.5853 2
      vertex 0.0576448 47.5853 0
    endloop
  endfacet
  facet normal 0 0 -1
    outer loop
      vertex 49.1213 49.1213 0
      vertex 2.41473 49.9424 0
      vertex 48.9032 49.319 0
    endloop
  endfacet
  facet normal -0.242981 -0.970031 -0
    outer loop
      vertex 2.41473 0.0576448 2
      vertex 2.12915 0.129179 2
      vertex 2.41473 0.0576448 0
    endloop
  endfacet
  facet normal 0.595699 0.803208 0
    outer loop
      vertex 48.6667 49.4944 2
      vertex 48.9032 49.319 0
      vertex 48.6667 49.4944 0
    endloop
  endfacet
  facet normal 0.0489044 0.998803 0
    outer loop
      vertex 47 50 2
      vertex 47.2941 49.9856 0
      vertex 47 50 0
    endloop
  endfacet
  facet normal 0.243175 0.969982 0
    outer loop
      vertex 47.8709 49.8708 2
      vertex 47.8709 49.8708 0
      vertex 47.5853 49.9424 2
    endloop
  endfacet
  facet normal 0 0 -1
    outer loop
      vertex 49.8708 47.8709 0
      vertex 2.41473 49.9424 0
      vertex 49.7716 48.148 0
    endloop
  endfacet
  facet normal -0.514216 0.857661 0
    outer loop
      vertex 1.58581 49.6458 0
      vertex 1.33329 49.4944 2
      vertex 1.58581 49.6458 2
    endloop
  endfacet
  facet normal 0 -0 1
    outer loop
      vertex 3 0 2
      vertex 47.5853 0.0576448 2
      vertex 2.70595 0.0144463 2
    endloop
  endfacet
  facet normal -0.595747 0.803172 0
    outer loop
      vertex 1.33329 49.4944 2
      vertex 1.09682 49.319 0
      vertex 1.09682 49.319 2
    endloop
  endfacet
  facet normal 0.146746 0.989174 -0
    outer loop
      vertex 47.5853 49.9424 0
      vertex 47.2941 49.9856 0
      vertex 47.5853 49.9424 2
    endloop
  endfacet
  facet normal 0 0 -1
    outer loop
      vertex 47.5853 49.9424 0
      vertex 2.41473 49.9424 0
      vertex 47.2941 49.9856 0
    endloop
  endfacet
  facet normal -0 -0 1
    outer loop
      vertex 0.129179 2.12915 2
      vertex 47.5853 0.0576448 2
      vertex 0.0576448 2.41473 2
    endloop
  endfacet
  facet normal 0 -0 -1
    outer loop
      vertex 2.12915 49.8708 0
      vertex 2.41473 49.9424 0
      vertex 1.85195 49.7716 0
    endloop
  endfacet
  facet normal 0.242965 -0.970035 0
    outer loop
      vertex 47.8709 0.129179 2
      vertex 47.5853 0.0576448 2
      vertex 47.8709 0.129179 0
    endloop
  endfacet
  facet normal -0.427347 0.904088 0
    outer loop
      vertex 1.58581 49.6458 2
      vertex 1.85195 49.7716 2
      vertex 1.58581 49.6458 0
    endloop
  endfacet
  facet normal 0 0 -1
    outer loop
      vertex 0 47 0
      vertex 2.41473 49.9424 0
      vertex 0 3 0
    endloop
  endfacet
  facet normal 0 -0 -1
    outer loop
      vertex 0.87868 49.1213 0
      vertex 2.41473 49.9424 0
      vertex 0.680969 48.9032 0
    endloop
  endfacet
  facet normal 0 0 1
    outer loop
      vertex 48.4142 49.6458 2
      vertex 47.5853 0.0576448 2
      vertex 48.6667 49.4944 2
    endloop
  endfacet
  facet normal 0 0 1
    outer loop
      vertex 48.148 49.7716 2
      vertex 47.5853 0.0576448 2
      vertex 48.4142 49.6458 2
    endloop
  endfacet
  facet normal 0 0 -1
    outer loop
      vertex 2.12915 0.129179 0
      vertex 2.41473 49.9424 0
      vertex 2.41473 0.0576448 0
    endloop
  endfacet
  facet normal -0.998795 -0.0490695 0
    outer loop
      vertex 0 3 0
      vertex 0.0144463 2.70595 0
      vertex 0 3 2
    endloop
  endfacet
  facet normal 0.146741 -0.989175 0
    outer loop
      vertex 47.2941 0.0144463 0
      vertex 47.5853 0.0576448 2
      vertex 47.2941 0.0144463 2
    endloop
  endfacet
  facet normal 0 -0 1
    outer loop
      vertex 2.70595 0.0144463 2
      vertex 47.5853 0.0576448 2
      vertex 2.41473 0.0576448 2
    endloop
  endfacet
  facet normal -0.243191 0.969978 0
    outer loop
      vertex 2.41473 49.9424 2
      vertex 2.41473 49.9424 0
      vertex 2.12915 49.8708 2
    endloop
  endfacet
  facet normal 0 -0 -1
    outer loop
      vertex 0.680969 48.9032 0
      vertex 2.41473 49.9424 0
      vertex 0.505591 48.6667 0
    endloop
  endfacet
  facet normal 0 0 -1
    outer loop
      vertex 49.9424 2.41473 0
      vertex 2.41473 49.9424 0
      vertex 49.9856 2.70595 0
    endloop
  endfacet
  facet normal 0 0 -1
    outer loop
      vertex 49.8708 2.12915 0
      vertex 2.41473 49.9424 0
      vertex 49.9424 2.41473 0
    endloop
  endfacet
  facet normal 0 0 -1
    outer loop
      vertex 0.354237 1.58581 0
      vertex 2.41473 49.9424 0
      vertex 0.505591 1.33329 0
    endloop
  endfacet
  facet normal 0 0 -1
    outer loop
      vertex 0.680969 1.09682 0
      vertex 2.41473 49.9424 0
      vertex 0.87868 0.87868 0
    endloop
  endfacet
  facet normal 0 0 -1
    outer loop
      vertex 3 50 0
      vertex 2.41473 49.9424 0
      vertex 2.70595 49.9856 0
    endloop
  endfacet
  facet normal 0.671607 0.740908 0
    outer loop
      vertex 49.1213 49.1213 2
      vertex 48.9032 49.319 0
      vertex 48.9032 49.319 2
    endloop
  endfacet
  facet normal -0 0 1
    outer loop
      vertex 0.680969 48.9032 2
      vertex 47.5853 0.0576448 2
      vertex 0.87868 49.1213 2
    endloop
  endfacet
  facet normal 0.0490612 -0.998796 0
    outer loop
      vertex 47 0 0
      vertex 47.2941 0.0144463 2
      vertex 47 0 2
    endloop
  endfacet
  facet normal 0 0 1
    outer loop
      vertex 48.6667 49.4944 2
      vertex 47.5853 0.0576448 2
      vertex 48.9032 49.319 2
    endloop
  endfacet
  facet normal -0.904026 0.427477 0
    outer loop
      vertex 0.354237 48.4142 0
      vertex 0.228362 48.148 2
      vertex 0.354237 48.4142 2
    endloop
  endfacet
  facet normal 0 0 -1
    outer loop
      vertex 49.7716 48.148 0
      vertex 2.41473 49.9424 0
      vertex 49.6458 48.4142 0
    endloop
  endfacet
  facet normal 0 0 -1
    outer loop
      vertex 49.4944 48.6667 0
      vertex 2.41473 49.9424 0
      vertex 49.319 48.9032 0
    endloop
  endfacet
  facet normal 0 0 -1
    outer loop
      vertex 49.319 48.9032 0
      vertex 2.41473 49.9424 0
      vertex 49.1213 49.1213 0
    endloop
  endfacet
  facet normal 0.337047 0.941488 0
    outer loop
      vertex 48.148 49.7716 2
      vertex 47.8709 49.8708 0
      vertex 47.8709 49.8708 2
    endloop
  endfacet
  facet normal -0 0 -1
    outer loop
      vertex 47.2941 49.9856 0
      vertex 2.41473 49.9424 0
      vertex 47 50 0
    endloop
  endfacet
  facet normal 0.243175 0.969982 0
    outer loop
      vertex 47.5853 49.9424 2
      vertex 47.8709 49.8708 0
      vertex 47.5853 49.9424 0
    endloop
  endfacet
  facet normal 0.0489044 0.998803 0
    outer loop
      vertex 47.2941 49.9856 2
      vertex 47.2941 49.9856 0
      vertex 47 50 2
    endloop
  endfacet
  facet normal 0.146746 0.989174 0
    outer loop
      vertex 47.5853 49.9424 2
      vertex 47.2941 49.9856 0
      vertex 47.2941 49.9856 2
    endloop
  endfacet
  facet normal -0 -0 1
    outer loop
      vertex 1.33329 0.505591 2
      vertex 47.5853 0.0576448 2
      vertex 1.09682 0.680969 2
    endloop
  endfacet
  facet normal -0 -0 1
    outer loop
      vertex 1.85195 0.228362 2
      vertex 47.5853 0.0576448 2
      vertex 1.58581 0.354237 2
    endloop
  endfacet
  facet normal 0 0 -1
    outer loop
      vertex 47.8709 49.8708 0
      vertex 2.41473 49.9424 0
      vertex 47.5853 49.9424 0
    endloop
  endfacet
  facet normal 0 0 -1
    outer loop
      vertex 48.148 49.7716 0
      vertex 2.41473 49.9424 0
      vertex 47.8709 49.8708 0
    endloop
  endfacet
  facet normal 0 0 1
    outer loop
      vertex 48.9032 0.680969 2
      vertex 47.5853 0.0576448 2
      vertex 48.6667 0.505591 2
    endloop
  endfacet
  facet normal 0 0 1
    outer loop
      vertex 49.319 1.09682 2
      vertex 47.5853 0.0576448 2
      vertex 49.1213 0.87868 2
    endloop
  endfacet
  facet normal 0 0 1
    outer loop
      vertex 49.9424 2.41473 2
      vertex 47.5853 0.0576448 2
      vertex 49.8708 2.12915 2
    endloop
  endfacet
  facet normal 0 0 1
    outer loop
      vertex 49.9856 2.70595 2
      vertex 47.5853 0.0576448 2
      vertex 49.9424 2.41473 2
    endloop
  endfacet
  facet normal 0 0 1
    outer loop
      vertex 47.8709 49.8708 2
      vertex 47.5853 0.0576448 2
      vertex 48.148 49.7716 2
    endloop
  endfacet
  facet normal 0 0 1
    outer loop
      vertex 47.5853 49.9424 2
      vertex 47.5853 0.0576448 2
      vertex 47.8709 49.8708 2
    endloop
  endfacet
endsolid OpenSCAD_Model
