<?xml version="1.0" encoding="UTF-8" standalone="no"?>
<svg
   xmlns:dc="http://purl.org/dc/elements/1.1/"
   xmlns:cc="http://creativecommons.org/ns#"
   xmlns:rdf="http://www.w3.org/1999/02/22-rdf-syntax-ns#"
   xmlns:svg="http://www.w3.org/2000/svg"
   xmlns="http://www.w3.org/2000/svg"
   xmlns:sodipodi="http://sodipodi.sourceforge.net/DTD/sodipodi-0.dtd"
   xmlns:inkscape="http://www.inkscape.org/namespaces/inkscape"
   width="210mm"
   height="297mm"
   viewBox="0 0 210 297"
   version="1.1"
   id="svg888"
   inkscape:version="1.0.1 (c497b03c, 2020-09-10)"
   sodipodi:docname="bob20.svg">
  <defs
     id="defs882" />
  <sodipodi:namedview
     id="base"
     pagecolor="#ffffff"
     bordercolor="#666666"
     borderopacity="1.0"
     inkscape:pageopacity="0.0"
     inkscape:pageshadow="2"
     inkscape:zoom="0.35"
     inkscape:cx="228.57143"
     inkscape:cy="652.85714"
     inkscape:document-units="mm"
     inkscape:current-layer="layer1"
     inkscape:document-rotation="0"
     showgrid="false"
     inkscape:window-width="1252"
     inkscape:window-height="943"
     inkscape:window-x="0"
     inkscape:window-y="23"
     inkscape:window-maximized="0" />
  <metadata
     id="metadata885">
    <rdf:RDF>
      <cc:Work
         rdf:about="">
        <dc:format>image/svg+xml</dc:format>
        <dc:type
           rdf:resource="http://purl.org/dc/dcmitype/StillImage" />
        <dc:title></dc:title>
      </cc:Work>
    </rdf:RDF>
  </metadata>
  <g
     inkscape:label="Layer 1"
     inkscape:groupmode="layer"
     id="layer1">
    <path
       inkscape:connector-curvature="0"
       style="opacity:1;fill:#0000ff;fill-opacity:1;fill-rule:nonzero;stroke:#000000;stroke-width:0.1;stroke-miterlimit:4;stroke-dasharray:none;stroke-dashoffset:3.3276;stroke-opacity:1"
       d="m 223.85364,241.79779 c 0.31995,0.0223 0.62278,0.19841 0.79588,0.49824 l 16.01971,27.74693 6.48949,-3.74664 c 0.22588,-0.13041 0.47061,-0.19609 0.71325,-0.2028 0.53379,-0.0149 1.05696,0.25544 1.34324,0.75144 l 5.83462,10.10536 -0.99105,3e-5 c 0.5497,0.005 0.99102,0.44786 0.99115,0.99873 l -7e-5,18.00045 c 9e-5,0.55406 -0.44588,0.99997 -0.99984,0.99997 l -19.23192,-9e-5 -3e-5,-10.00012 -2.89994,9e-5 3e-5,10.00006 -50.00021,-3e-5 v -10.00009 l -2.89994,3e-5 v 10.00012 l -49.99964,-3e-5 v -10.00009 l -2.89993,-6e-5 -6e-5,10.00018 H 76.118263 l 5.6e-5,-10.00018 -2.899974,6e-5 -5.8e-5,10.00009 H 23.218132 l -2.8e-5,-10.00009 -2.899918,-3e-5 2.8e-5,10.00018 -19.268324,-3e-5 C 0.49593996,296.94944 0.05,296.50356 0.05,295.94956 v -18.00051 c 0,-0.554 0.44587996,-0.99988 0.99986,-0.99986 l 16.899183,-5e-5 7.301399,-4.21567 -16.0195521,-27.74673 c -0.2770599,-0.47975 -0.11379,-1.08944 0.36598,-1.3665 l 2.5982801,-1.50009 c 0.47978,-0.27697 1.088929,-0.11371 1.365902,0.36607 l 16.019977,27.74704 6.488882,-3.74661 c 0.225947,-0.13041 0.471141,-0.19611 0.713825,-0.20295 0.533794,-0.0149 1.056471,0.2553 1.342673,0.75142 l 5.72389,9.91365 0.443087,-6e-5 7.342775,-4.23937 -16.019695,-27.74696 c -0.27703,-0.47972 -0.113766,-1.08887 0.365956,-1.36587 l 2.598308,-1.5001 c 0.479722,-0.27697 1.088898,-0.11382 1.365928,0.36599 l 16.019412,27.74656 6.48939,-3.74661 c 0.225976,-0.13044 0.471226,-0.1962 0.713854,-0.20297 0.533794,-0.0149 1.056442,0.25592 1.34284,0.75181 l 5.737579,9.9373 0.388054,-3e-5 7.38463,-4.26362 -16.019614,-27.74673 c -0.276971,-0.47983 -0.113734,-1.08949 0.366014,-1.36649 l 2.59842,-1.49987 c 0.479806,-0.27703 1.088898,-0.11379 1.365928,0.36598 l 16.019978,27.7471 6.488938,-3.74661 c 0.225864,-0.13041 0.471115,-0.19611 0.713769,-0.20294 0.533823,-0.0149 1.056442,0.25527 1.342673,0.75139 l 5.751378,9.96156 h 0.332372 l 7.425977,-4.28735 -16.019416,-27.74701 c -0.276974,-0.47987 -0.113766,-1.08896 0.366014,-1.36596 l 2.598277,-1.50015 c 0.47978,-0.27697 1.088842,-0.11371 1.365901,0.36604 l 16.019414,27.74651 6.48947,-3.74656 c 0.22592,-0.13041 0.47114,-0.19614 0.71377,-0.20294 0.53385,-0.0149 1.05647,0.25583 1.34278,0.75178 l 5.76515,9.98528 h 0.27788 l 7.46745,-4.31131 -16.0196,-27.74677 c -0.277,-0.47983 -0.11374,-1.08949 0.36601,-1.36649 l 2.59842,-1.49984 c 0.47981,-0.277 1.08898,-0.11379 1.3659,0.36601 l 16.02,27.74708 6.48886,-3.74662 c 0.22592,-0.13041 0.47119,-0.19611 0.71384,-0.20297 0.53378,-0.0149 1.05645,0.25527 1.34267,0.75139 l 5.77915,10.00971 0.221,3e-5 7.50926,-4.3353 -16.01973,-27.74693 c -0.27699,-0.47972 -0.11379,-1.0889 0.36603,-1.36582 l 2.59842,-1.49995 c 0.47975,-0.27697 1.08888,-0.11373 1.36594,0.36604 l 16.01933,27.74651 6.48949,-3.74661 c 0.22592,-0.13039 0.47113,-0.19612 0.71379,-0.20295 0.53377,-0.0149 1.05647,0.25587 1.34283,0.75181 l 5.79275,10.0332 0.16693,-3e-5 7.55055,-4.35951 -16.01959,-27.74676 c -0.27702,-0.47975 -0.11378,-1.08944 0.36597,-1.36641 l 2.59841,-1.4999 c 0.47986,-0.277 1.08891,-0.11382 1.36595,0.36602 l 16.01968,27.74687 6.48947,-3.74656 c 0.22592,-0.13041 0.47118,-0.19617 0.71383,-0.20297 0.53379,-0.0149 1.05645,0.2553 1.34271,0.75142 l 5.80674,10.05764 h 0.11079 l 7.59189,-4.38331 -16.01967,-27.7469 c -0.277,-0.47978 -0.11378,-1.0889 0.36601,-1.36591 l 2.59843,-1.49989 c 0.47971,-0.277 1.08889,-0.11374 1.36591,0.36607 l 16.01938,27.74651 6.48949,-3.74667 c 0.22582,-0.13042 0.47056,-0.19612 0.71325,-0.20281 0.53381,-0.0149 1.05697,0.25601 1.34336,0.75179 l 5.82045,10.08137 h 0.0557 l 7.63379,-4.40749 -16.01999,-27.7471 c -0.27695,-0.47981 -0.11379,-1.0889 0.36602,-1.36591 l 2.59788,-1.49987 c 0.17996,-0.10382 0.37849,-0.14573 0.57049,-0.13238 z"
       id="rect4159-83-1-6" />
    <path
       style="opacity:1;fill:#008080;fill-opacity:1;fill-rule:nonzero;stroke:#000000;stroke-width:0.1;stroke-miterlimit:4;stroke-dasharray:none;stroke-dashoffset:3.3276;stroke-opacity:1"
       d="m 2.0503632,207.92612 c -1.108004,0 -2.0003632,0.89236 -2.0003632,2.00037 v 16.00014 c 0,1.108 0.8923592,1.99979 2.0003632,1.99979 H 164.05035 c 1.10801,0 1.99981,-0.89179 1.99981,-1.99979 v -16.00014 c 0,-1.10801 -0.8918,-2.00037 -1.99981,-2.00037 h -5.00007 v 10.00015 h -3.00026 v -10.00015 h -18.1427 v 10.00015 h -2.99972 v -10.00015 h -18.14325 v 10.00015 h -2.99971 V 207.92612 H 95.621372 v 10.00015 h -2.99971 V 207.92612 H 74.478946 v 10.00015 h -3.00025 V 207.92612 H 53.335984 v 10.00015 H 50.335736 V 207.92612 H 32.193024 v 10.00015 h -2.999711 v -10.00015 h -18.14325 v 10.00015 H 8.0503512 v -10.00015 z"
       id="rect6990"
       inkscape:connector-curvature="0" />
  </g>
</svg>
