<?xml version="1.0" encoding="UTF-8" standalone="no"?>
<!-- Created with Inkscape (http://www.inkscape.org/) -->

<svg
   xmlns:dc="http://purl.org/dc/elements/1.1/"
   xmlns:cc="http://creativecommons.org/ns#"
   xmlns:rdf="http://www.w3.org/1999/02/22-rdf-syntax-ns#"
   xmlns:svg="http://www.w3.org/2000/svg"
   xmlns="http://www.w3.org/2000/svg"
   xmlns:sodipodi="http://sodipodi.sourceforge.net/DTD/sodipodi-0.dtd"
   xmlns:inkscape="http://www.inkscape.org/namespaces/inkscape"
   width="210mm"
   height="297mm"
   viewBox="0 0 744.09448819 1052.3622047"
   id="svg2"
   version="1.1"
   inkscape:version="0.91 r13725"
   sodipodi:docname="Bobbin holder rack v05.svg">
  <defs
     id="defs4" />
  <sodipodi:namedview
     id="base"
     pagecolor="#ffffff"
     bordercolor="#666666"
     borderopacity="1.0"
     inkscape:pageopacity="0.0"
     inkscape:pageshadow="2"
     inkscape:zoom="0.5"
     inkscape:cx="868.8899"
     inkscape:cy="-354.9771"
     inkscape:document-units="mm"
     inkscape:current-layer="layer1"
     showgrid="false"
     inkscape:window-width="1280"
     inkscape:window-height="755"
     inkscape:window-x="0"
     inkscape:window-y="1"
     inkscape:window-maximized="1"
     showguides="true"
     inkscape:snap-midpoints="true"
     inkscape:object-nodes="true" />
  <metadata
     id="metadata7">
    <rdf:RDF>
      <cc:Work
         rdf:about="">
        <dc:format>image/svg+xml</dc:format>
        <dc:type
           rdf:resource="http://purl.org/dc/dcmitype/StillImage" />
        <dc:title></dc:title>
      </cc:Work>
    </rdf:RDF>
  </metadata>
  <g
     inkscape:label="Layer 1"
     inkscape:groupmode="layer"
     id="layer1">
    <path
       style="opacity:1;fill:#008080;fill-opacity:1;fill-rule:nonzero;stroke:#000000;stroke-width:0.35433072;stroke-miterlimit:4;stroke-dasharray:none;stroke-dashoffset:3.32759953;stroke-opacity:1"
       d="m -289.82036,1275.7063 c -3.92599,0 -7.08789,3.1619 -7.08789,7.0879 l 0,56.6914 c 0,3.926 3.1619,7.0879 7.08789,7.0879 l 574.01562,0 c 3.92599,0 7.08594,-3.1619 7.08594,-7.0879 l 0,-56.6914 c 0,-3.926 -3.15995,-7.0879 -7.08594,-7.0879 l -35.43359,0 0,35.4336 -10.63086,0 0,-35.4336 -112.5,0 0,35.4336 -10.62891,0 0,-35.4336 -112.5,0 0,35.4336 -10.63086,0 0,-35.4336 -112.5,0 0,35.4336 -10.6289,0 0,-35.4336 -112.5,0 0,35.4336 -10.63086,0 0,-35.4336 -35.43164,0 z"
       id="rect6990-2-3"
       inkscape:connector-curvature="0" />
    <path
       style="opacity:1;fill:#008080;fill-opacity:1;fill-rule:nonzero;stroke:#000000;stroke-width:0.35433072;stroke-miterlimit:4;stroke-dasharray:none;stroke-dashoffset:3.32759953;stroke-opacity:1"
       d="m -1378.8422,1284.2922 c -3.926,0 -7.0879,3.1619 -7.0879,7.0879 l 0,56.6934 c 0,3.926 3.1619,7.0859 7.0879,7.0859 l 574.01567,0 c 3.92598,0 7.08593,-3.1599 7.08593,-7.0859 l 0,-56.6934 c 0,-3.926 -3.15995,-7.0879 -7.08593,-7.0879 l -17.7168,0 0,35.4336 -10.63086,0 0,-35.4336 -64.28516,0 0,35.4336 -10.6289,0 0,-35.4336 -64.28711,0 0,35.4336 -10.62891,0 0,-35.4336 -64.28713,0 0,35.4336 -10.6289,0 0,-35.4336 -64.2852,0 0,35.4336 -10.6308,0 0,-35.4336 -64.2852,0 0,35.4336 -10.6308,0 0,-35.4336 -64.2852,0 0,35.4336 -10.6289,0 0,-35.4336 -64.2871,0 0,35.4336 -10.6289,0 0,-35.4336 -21.2598,0 z"
       id="rect6990"
       inkscape:connector-curvature="0" />
    <path
       inkscape:connector-curvature="0"
       style="opacity:1;fill:#0000ff;fill-opacity:1;fill-rule:nonzero;stroke:#000000;stroke-width:0.35433072;stroke-miterlimit:4;stroke-dasharray:none;stroke-dashoffset:3.32759953;stroke-opacity:1"
       d="m -1275.8113,1068.295 c -1.1337,0.079 -2.2069,0.7031 -2.8203,1.7656 l -56.7617,98.3164 -22.9942,-13.2754 c -0.8004,-0.4621 -1.6675,-0.6949 -2.5273,-0.7187 -1.8914,-0.053 -3.7452,0.9049 -4.7598,2.6621 l -20.6738,35.8066 3.5117,0 c -1.948,0.017 -3.5117,1.5869 -3.5117,3.5391 l 0,63.7813 c 0,1.9629 1.58,3.5429 3.543,3.5429 l 68.1445,0 0,-35.4336 10.2754,0 0,35.4336 177.166,0 0,-35.4336 10.2754,0 0,35.4336 177.16408,0 0,-35.4336 10.27539,0 0,35.4336 177.16601,0 0,-35.4336 10.27539,0 0,35.4336 177.16602,0 0,-35.4336 10.27539,0 0,35.4336 68.27344,0 c 1.96299,0 3.54297,-1.58 3.54297,-3.5429 l 0,-63.7813 c -1e-5,-1.963 -1.57998,-3.543 -3.54297,-3.543 l -59.87891,0 -25.87109,-14.9375 56.76367,-98.3144 c 0.98149,-1.7 0.40313,-3.8603 -1.29688,-4.8418 l -9.20703,-5.3145 c -1.7,-0.9815 -3.85835,-0.4031 -4.83984,1.2969 l -56.76367,98.3164 -22.99219,-13.2754 c -0.80043,-0.4621 -1.66945,-0.6949 -2.5293,-0.7187 -1.89144,-0.053 -3.74327,0.9049 -4.75781,2.6621 l -20.28125,35.1269 -1.57031,0 -26.01758,-15.0214 56.76172,-98.3165 c 0.98149,-1.7 0.40312,-3.8583 -1.29688,-4.8398 l -9.20703,-5.3145 c -1.7,-0.9814 -3.85835,-0.4031 -4.83984,1.2969 l -56.76172,98.3145 -22.99414,-13.2754 c -0.80043,-0.4621 -1.66945,-0.695 -2.5293,-0.7188 -1.89144,-0.053 -3.74327,0.9069 -4.75781,2.6641 l -20.33008,35.2109 -1.375,0 -26.16602,-15.1074 56.76368,-98.3144 c 0.98149,-1.7 0.40312,-3.8603 -1.29688,-4.8418 l -9.20703,-5.3145 c -1.7,-0.9815 -3.85835,-0.4031 -4.83984,1.2969 l -56.76367,98.3164 -22.99219,-13.2754 c -0.80043,-0.4621 -1.66945,-0.6949 -2.5293,-0.7188 -1.89144,-0.053 -3.74327,0.905 -4.75781,2.6622 l -20.37891,35.2968 -1.17773,0 -26.3125,-15.1914 56.76172,-98.3164 c 0.98149,-1.7 0.40312,-3.8583 -1.29688,-4.8398 l -9.20703,-5.3145 c -1.7,-0.9815 -3.85835,-0.4031 -4.83984,1.2969 l -56.76172,98.3145 -22.99414,-13.2754 c -0.80043,-0.4621 -1.66945,-0.695 -2.5293,-0.7188 -1.89144,-0.053 -3.74327,0.9069 -4.75781,2.6641 l -20.42774,35.3808 -0.98437,0 -26.45899,-15.2773 56.76368,-98.3145 c 0.98149,-1.7 0.40312,-3.8603 -1.29688,-4.8418 l -9.20703,-5.3144 c -1.7,-0.9815 -3.85835,-0.4031 -4.83984,1.2969 l -56.76366,98.3164 -22.9922,-13.2754 c -0.8004,-0.4621 -1.6694,-0.695 -2.5293,-0.7188 -1.8914,-0.053 -3.7433,0.9049 -4.7578,2.6621 l -20.47852,35.4668 -0.7832,0 -26.6074,-15.3613 56.76172,-98.3164 c 0.9814,-1.7 0.4031,-3.8583 -1.2969,-4.8398 l -9.207,-5.3145 c -1.7,-0.9815 -3.8584,-0.4031 -4.8399,1.2969 l -56.76172,98.3144 -22.9941,-13.2754 c -0.8005,-0.4621 -1.6694,-0.6949 -2.5293,-0.7187 -1.8914,-0.053 -3.7433,0.9069 -4.7578,2.6641 l -20.5254,35.5507 -0.5918,0 -26.7539,-15.4472 56.7636,-98.3145 c 0.9815,-1.7 0.4032,-3.8603 -1.2968,-4.8418 l -9.2071,-5.3144 c -1.7,-0.9815 -3.8583,-0.4032 -4.8398,1.2968 l -56.7617,98.3164 -22.9942,-13.2753 c -0.8004,-0.4621 -1.6695,-0.695 -2.5293,-0.7188 -1.8914,-0.053 -3.7432,0.9049 -4.7578,2.6621 l -20.5762,35.6367 -0.3925,0 -26.9004,-15.5312 56.7617,-98.3164 c 0.9815,-1.7 0.4031,-3.8584 -1.2969,-4.8399 l -9.207,-5.3144 c -1.7,-0.9815 -3.8584,-0.4031 -4.8399,1.2969 l -56.7617,98.3144 -22.9941,-13.2754 c -0.8004,-0.4621 -1.6676,-0.6949 -2.5274,-0.7187 -1.8914,-0.053 -3.7451,0.9068 -4.7597,2.664 l -20.625,35.7207 -0.1973,0 -27.0488,-15.6172 56.7637,-98.3164 c 0.9814,-1.7 0.4031,-3.8583 -1.2969,-4.8398 l -9.2051,-5.3145 c -0.6375,-0.368 -1.3412,-0.5163 -2.0215,-0.4687 z"
       id="rect4159-83" />
    <path
       style="opacity:1;fill:#0000ff;fill-opacity:1;fill-rule:nonzero;stroke:#000000;stroke-width:0.35433072;stroke-miterlimit:4;stroke-dasharray:none;stroke-dashoffset:3.32759953;stroke-opacity:1"
       d="m -312.48633,749.48948 c -1.963,0 -3.54297,-1.58007 -3.54297,-3.54297 l 0,-63.7793 c 0,-1.963 1.57997,-3.543 3.54297,-3.543 l 20.31054,0 38.28907,-22.1054 -56.76172,-98.3164 c -0.9815,-1.7 -0.40313,-3.8584 1.29687,-4.8399 l 9.20508,-5.3144 c 1.7,-0.9815 3.85845,-0.4032 4.83985,1.2968 l 56.76367,98.3125 33.51562,-19.3496 c 1.077,-0.6219 2.24535,-0.9347 3.40235,-0.9668 2.5454,-0.07 5.04045,1.2221 6.40625,3.5879 l 27.53515,47.6953 1.17774,0 38.4375,-22.1914 -56.76367,-98.3144 c -0.98151,-1.7 -0.40313,-3.8623 1.29687,-4.8438 l 9.20508,-5.3125 c 1.7,-0.9815 3.85834,-0.4031 4.83984,1.2969 l 56.76367,98.3164 33.517584,-19.3516 c 1.077,-0.6219 2.24339,-0.9347 3.40039,-0.9667 2.5454,-0.07 5.0384,1.2181 6.4043,3.5839 l 27.58789,47.7852 0.978516,0 38.5839837,-22.2754 -56.7636717,-98.3164 c -0.981498,-1.7 -0.403125,-3.8603 1.296875,-4.8418 l 9.207031,-5.3125 c 1.7,-0.9815 3.858344,-0.4031 4.839844,1.2969 l 56.761719,98.3164 33.517578,-19.3496 c 1.077,-0.6219 2.245443,-0.9386 3.402343,-0.9707 2.5455,-0.07 5.038498,1.2221 6.404298,3.5879 l 27.636718,47.8652 0.783204,0 38.730468,-22.3613 -56.763672,-98.3125 c -0.9815,-1.7 -0.403125,-3.8603 1.296875,-4.8418 l 9.207032,-5.3164 c 1.7,-0.9815 3.858343,-0.4051 4.839843,1.2949 l 56.763672,98.3164 33.51562,-19.3496 c 1.077,-0.6219 2.24534,-0.9347 3.40234,-0.9668 2.54541,-0.07 5.0384,1.2221 6.4043,3.5879 l 27.68555,47.9492 0.58594,0 38.8789,-22.4473 -56.76172,-98.3144 c -0.9815,-1.7 -0.40312,-3.8584 1.29688,-4.8399 l 9.20508,-5.3144 c 1.7,-0.9815 3.85834,-0.4051 4.83984,1.2949 l 56.76172,98.3164 33.51758,-19.3535 c 1.077,-0.6219 2.24544,-0.9347 3.40234,-0.9668 2.5454,-0.07 5.04035,1.2221 6.40625,3.5879 l 27.73438,48.0371 0.39257,0 39.02344,-22.5332 -56.76367,-98.3164 c -0.9815,-1.7 -0.40313,-3.8564 1.29688,-4.8379 l 9.20507,-5.3164 c 1.7,-0.9815 3.8603,-0.3992 4.8418,1.3008 l 56.76172,98.3164 33.51758,-19.3535 c 1.077,-0.6219 2.24534,-0.9347 3.40234,-0.9668 2.5454,-0.07 5.0384,1.2201 6.4043,3.5859 l 27.7832,48.1211 0.19336,0 39.17383,-22.6172 -56.76367,-98.3164 c -0.9815,-1.7 -0.40313,-3.8544 1.29687,-4.8359 l 9.20703,-5.3184 c 0.6375,-0.3681 1.33933,-0.5182 2.01953,-0.4707 l 0.002,0 c 1.1338,0.079 2.20691,0.7051 2.82031,1.7676 l 56.76172,98.3144 33.51758,-19.3515 c 1.077,-0.6219 2.24544,-0.9347 3.40234,-0.9668 2.5455,-0.07 5.0384,1.2221 6.4043,3.5879 l 27.83203,48.205 -3.51953,0 c 1.9518,0.013 3.51953,1.588 3.51953,3.543 l 0,63.7793 c 0,1.9629 -1.57997,3.54297 -3.54297,3.54297 l -68.14453,0 0,-35.43357 -10.27539,0 0,35.43357 -177.16602,0 0,-35.43357 -10.27539,0 0,35.43357 -177.16406,0 0,-35.43357 -10.27539,0 0,35.43357 -177.166014,0 0,-35.43357 -10.27539,0 0,35.43357 -177.166016,0 0,-35.43357 -10.27539,0 0,35.43357 -68.27344,0 z m 22.66601,-93.36917 c -1.1338,-0.079 -2.20691,-0.705 -2.82031,-1.7675 l -56.76172,-98.3145 -33.51758,19.3516 c -1.077,0.6219 -2.24544,0.9347 -3.40234,0.9668 -2.5455,0.07 -5.0384,-1.2221 -6.4043,-3.5879 l -27.83203,-48.2051 3.51953,0 c -1.9518,-0.013 -3.51953,-1.588 -3.51953,-3.543 l 0,-63.7793 c 0,-1.9629 1.57997,-3.5429 3.54297,-3.5429 l 68.14453,0 0,35.4336 10.27539,0 0,-35.4336 177.16602,0 0,35.4336 10.27539,0 0,-35.4336 177.164066,0 0,35.4336 10.27539,0 0,-35.4336 177.166014,0 0,35.4336 10.27539,0 0,-35.4336 177.16601,0 0,35.4336 10.2754,0 0,-35.4336 68.27343,0 c 1.963,0 3.54297,1.58 3.54297,3.5429 l 0,63.7793 c 0,1.963 -1.57997,3.543 -3.54297,3.543 l -20.31054,0 -38.28907,22.1055 56.76172,98.3164 c 0.9815,1.7 0.40313,3.8583 -1.29687,4.8398 l -9.20508,5.3145 c -1.7,0.9815 -3.85844,0.4031 -4.83985,-1.2969 l -56.76367,-98.3125 -33.51562,19.3496 c -1.077,0.6219 -2.24535,0.9347 -3.40235,0.9668 -2.5454,0.07 -5.04045,-1.2221 -6.40625,-3.5879 l -27.53515,-47.6953 -1.17774,0 -38.4375,22.1914 56.76368,98.3144 c 0.9815,1.7001 0.40312,3.8623 -1.29688,4.8438 l -9.20508,5.3125 c -1.7,0.9815 -3.85834,0.4031 -4.83984,-1.2969 l -56.76367,-98.3164 -33.51758,19.3516 c -1.077,0.6219 -2.24339,0.9347 -3.40039,0.9668 -2.5454,0.07 -5.0384,-1.2182 -6.4043,-3.584 l -27.58789,-47.7852 -0.97851,0 -38.58399,22.2754 56.76367,98.3164 c 0.9815,1.7 0.40313,3.8603 -1.29687,4.8418 l -9.20703,5.3125 c -1.7,0.9815 -3.85835,0.4032 -4.83985,-1.2968 l -56.76172,-98.3165 -33.51757,19.3516 c -1.077,0.6219 -2.24544,0.9367 -3.40234,0.9688 -2.5455,0.07 -5.0385,-1.2221 -6.4043,-3.5879 l -27.63672,-47.8653 -0.783203,0 -38.730469,22.3614 56.763672,98.3144 c 0.9815,1.7 0.40312,3.8603 -1.296875,4.8418 l -9.207031,5.3145 c -1.7,0.9815 -3.858344,0.405 -4.839844,-1.295 l -56.763672,-98.3164 -33.5156253,19.3497 c -1.077,0.6219 -2.245347,0.9346 -3.402343,0.9667 -2.5453997,0.07 -5.0383967,-1.2201 -6.4042967,-3.5859 l -27.685547,-47.9512 -0.585938,0 -38.878904,22.4473 56.761717,98.3145 c 0.9815,1.7 0.403125,3.8583 -1.296875,4.8398 l -9.205078,5.3145 c -1.7,0.9815 -3.858344,0.405 -4.839844,-1.295 l -56.76172,-98.3164 -33.517584,19.3535 c -1.077,0.6219 -2.24544,0.9347 -3.40234,0.9668 -2.5454,0.07 -5.04035,-1.2221 -6.40625,-3.5879 l -27.73438,-48.0371 -0.39257,0 -39.02344,22.5332 56.76367,98.3164 c 0.9815,1.7 0.40313,3.8564 -1.29687,4.8379 l -9.20508,5.3164 c -1.7,0.9815 -3.8603,0.4012 -4.8418,-1.2988 l -56.76172,-98.3164 -33.51758,19.3516 c -1.077,0.6219 -2.24534,0.9347 -3.40234,0.9668 -2.5454,0.07 -5.0384,-1.2202 -6.4043,-3.586 l -27.7832,-48.1211 -0.19336,0 -39.17383,22.6172 56.76367,98.3164 c 0.9815,1.7 0.40313,3.8564 -1.29687,4.8379 l -9.20703,5.3164 c -0.6375,0.3681 -1.33933,0.5182 -2.01953,0.4707 l -0.002,0 z"
       id="rect4159-4-1"
       inkscape:connector-curvature="0" />
    <path
       style="opacity:1;fill:#0000ff;fill-opacity:1;fill-rule:nonzero;stroke:#000000;stroke-width:0.35433072;stroke-miterlimit:4;stroke-dasharray:none;stroke-dashoffset:3.32759953;stroke-opacity:1"
       d="M 711.70898 962.05859 C 709.74598 962.05859 708.16602 963.63866 708.16602 965.60156 L 708.16602 1029.3809 C 708.16602 1031.3438 709.74598 1032.9238 711.70898 1032.9238 L 803.99414 1032.9238 L 864.56445 1067.8945 L 807.80078 1166.2109 C 806.81928 1167.9109 807.39766 1170.0693 809.09766 1171.0508 L 818.30469 1176.3652 C 820.00469 1177.3467 822.16303 1176.7685 823.14453 1175.0684 L 879.90625 1076.752 L 932.20508 1106.9473 C 933.77578 1107.854 935.48027 1108.3113 937.16797 1108.3574 C 940.88087 1108.4588 944.51812 1106.5721 946.51172 1103.1191 L 987.04102 1032.9238 L 1012.0859 1032.9238 L 1072.7539 1067.9512 L 1015.9922 1166.2656 C 1015.0107 1167.9656 1015.5891 1170.124 1017.2891 1171.1055 L 1026.4941 1176.4199 C 1028.1941 1177.4014 1030.3544 1176.823 1031.3359 1175.123 L 1088.0977 1076.8086 L 1140.3965 1107.0039 C 1141.9672 1107.9107 1143.6717 1108.366 1145.3594 1108.4121 C 1149.0722 1108.5135 1152.7095 1106.6288 1154.7031 1103.1758 L 1195.2637 1032.9238 L 1220.1836 1032.9238 L 1280.9473 1068.0059 L 1224.1836 1166.3203 C 1223.2021 1168.0203 1223.7805 1170.1787 1225.4805 1171.1602 L 1234.6855 1176.4766 C 1236.3855 1177.4581 1238.5439 1176.8797 1239.5254 1175.1797 L 1296.2891 1076.8633 L 1348.5879 1107.0586 C 1350.1586 1107.9654 1351.8631 1108.4226 1353.5508 1108.4688 C 1357.2636 1108.5702 1360.9009 1106.6854 1362.8945 1103.2324 L 1403.4863 1032.9258 L 1428.2793 1032.9258 L 1489.1367 1068.0625 L 1432.375 1166.377 C 1431.3935 1168.077 1431.9719 1170.2372 1433.6719 1171.2188 L 1442.877 1176.5332 C 1443.5145 1176.9013 1444.2162 1177.0495 1444.8965 1177.002 L 1444.8965 1176.998 C 1446.0303 1176.919 1447.1034 1176.2969 1447.7168 1175.2344 L 1504.4805 1076.918 L 1556.7793 1107.1133 C 1558.3499 1108.0201 1560.0525 1108.4754 1561.7402 1108.5215 C 1565.4531 1108.6229 1569.0923 1106.7362 1571.0859 1103.2832 L 1611.709 1032.9219 L 1608.1758 1032.9219 C 1610.1341 1032.9119 1611.709 1031.3405 1611.709 1029.3809 L 1611.709 965.60156 C 1611.709 963.63866 1610.129 962.05859 1608.166 962.05859 L 1540.0215 962.05859 L 1540.0215 997.49219 L 1529.7461 997.49219 L 1529.7461 962.05859 L 1352.5801 962.05859 L 1352.5801 997.49219 L 1342.3047 997.49219 L 1342.3047 962.05859 L 1165.1406 962.05859 L 1165.1406 997.49219 L 1154.8652 997.49219 L 1154.8652 962.05859 L 977.69922 962.05859 L 977.69922 997.49219 L 967.42383 997.49219 L 967.42383 962.05859 L 790.25781 962.05859 L 790.25781 997.49219 L 779.98242 997.49219 L 779.98242 962.05859 L 711.70898 962.05859 z M 807.94141 1048.7676 L 807.94141 1048.7715 C 806.80761 1048.8505 805.73449 1049.4727 805.12109 1050.5352 L 748.35742 1148.8516 L 696.05859 1118.6562 C 694.48799 1117.7495 692.78536 1117.2941 691.09766 1117.248 C 687.38476 1117.1466 683.74555 1119.0333 681.75195 1122.4863 L 641.12891 1192.8477 L 644.66211 1192.8477 C 642.70381 1192.8577 641.12891 1194.4291 641.12891 1196.3887 L 641.12891 1260.168 C 641.12891 1262.1309 642.70887 1263.7109 644.67188 1263.7109 L 712.81641 1263.7109 L 712.81641 1228.2773 L 723.0918 1228.2773 L 723.0918 1263.7109 L 900.25781 1263.7109 L 900.25781 1228.2773 L 910.5332 1228.2773 L 910.5332 1263.7109 L 1087.6973 1263.7109 L 1087.6973 1228.2773 L 1097.9727 1228.2773 L 1097.9727 1263.7109 L 1275.1387 1263.7109 L 1275.1387 1228.2773 L 1285.4141 1228.2773 L 1285.4141 1263.7109 L 1462.5801 1263.7109 L 1462.5801 1228.2773 L 1472.8555 1228.2773 L 1472.8555 1263.7109 L 1541.1289 1263.7109 C 1543.0919 1263.7109 1544.6719 1262.1309 1544.6719 1260.168 L 1544.6719 1196.3887 C 1544.6719 1194.4258 1543.0919 1192.8457 1541.1289 1192.8457 L 1448.8438 1192.8457 L 1388.2734 1157.875 L 1445.0371 1059.5586 C 1446.0186 1057.8586 1445.4402 1055.7002 1443.7402 1054.7188 L 1434.5332 1049.4043 C 1432.8332 1048.4228 1430.6749 1049.0011 1429.6934 1050.7012 L 1372.9316 1149.0176 L 1320.6328 1118.8223 C 1319.0621 1117.9156 1317.3576 1117.4582 1315.6699 1117.4121 C 1311.957 1117.3107 1308.3198 1119.1974 1306.3262 1122.6504 L 1265.7969 1192.8457 L 1240.752 1192.8457 L 1180.084 1157.8184 L 1236.8457 1059.5039 C 1237.8272 1057.8039 1237.2488 1055.6456 1235.5488 1054.6641 L 1226.3438 1049.3496 C 1224.6437 1048.3681 1222.4835 1048.9465 1221.502 1050.6465 L 1164.7402 1148.9609 L 1112.4414 1118.7656 C 1110.8707 1117.8588 1109.1662 1117.4035 1107.4785 1117.3574 C 1103.7657 1117.256 1100.1284 1119.1407 1098.1348 1122.5938 L 1057.5742 1192.8457 L 1032.6543 1192.8457 L 971.89062 1157.7637 L 1028.6543 1059.4492 C 1029.6358 1057.7492 1029.0574 1055.5909 1027.3574 1054.6094 L 1018.1523 1049.293 C 1016.4523 1048.3115 1014.294 1048.8898 1013.3125 1050.5898 L 956.54883 1148.9062 L 904.25 1118.7109 C 902.6793 1117.8041 900.97481 1117.3469 899.28711 1117.3008 C 895.57431 1117.1994 891.93696 1119.0841 889.94336 1122.5371 L 849.35156 1192.8438 L 824.55859 1192.8438 L 763.70117 1157.707 L 820.46289 1059.3926 C 821.44439 1057.6926 820.86602 1055.5323 819.16602 1054.5508 L 809.96094 1049.2363 C 809.32344 1048.8682 808.62171 1048.7201 807.94141 1048.7676 z "
       id="rect4159-8-7" />
    <path
       inkscape:connector-curvature="0"
       style="opacity:1;fill:#0000ff;fill-opacity:1;fill-rule:nonzero;stroke:#000000;stroke-width:0.35433072;stroke-miterlimit:4;stroke-dasharray:none;stroke-dashoffset:3.32759953;stroke-opacity:1"
       d="m -599.47465,1145.0321 c 1.13365,-0.079 2.20668,-0.703 2.82004,-1.7654 l 56.76275,-98.3159 22.99423,13.2755 c 0.80037,0.4621 1.66751,0.6948 2.52726,0.7186 1.89138,0.053 3.74515,-0.9051 4.75952,-2.6626 l 20.67386,-35.8064 -3.51159,-10e-5 c 1.94776,-0.017 3.51147,-1.5869 3.51193,-3.5388 l -2.3e-4,-63.78112 c 3.1e-4,-1.9632 -1.5799,-3.5432 -3.54276,-3.5432 l -68.14457,3e-4 -1.2e-4,35.4335 -10.27536,-3e-4 7e-5,-35.4333 -177.16607,10e-5 -10e-6,35.4334 -10.27536,-10e-5 0,-35.4335 -177.16407,10e-5 0,35.4334 -10.27535,2e-4 -2e-4,-35.4337 -177.16582,0 2e-4,35.4337 -10.2755,-2e-4 -2e-4,-35.4334 -177.1659,0 -10e-5,35.4334 -10.2753,10e-5 10e-5,-35.4337 -68.2736,1e-4 c -1.9628,10e-5 -3.5429,1.58 -3.5429,3.543 l 0,63.78132 c 0,1.963 1.5799,3.5429 3.5428,3.5428 l 59.879,2e-4 25.8711,14.9374 -56.7622,98.3152 c -0.9817,1.6999 -0.4032,3.8602 1.2968,4.8419 l 9.2065,5.3153 c 1.7,0.9814 3.8584,0.4029 4.8398,-1.2971 l 56.7637,-98.3163 22.9921,13.2754 c 0.8006,0.4621 1.6694,0.6949 2.5293,0.7191 1.8914,0.053 3.7434,-0.9046 4.7575,-2.6625 l 20.2815,-35.1271 1.57,2e-4 26.0177,15.0214 -56.7627,98.316 c -0.9816,1.6998 -0.4031,3.8582 1.2967,4.8397 l 9.2066,5.3153 c 1.6998,0.9814 3.8583,0.4033 4.8399,-1.2968 l 56.7617,-98.3146 22.9939,13.2754 c 0.8007,0.4622 1.6697,0.6952 2.5294,0.7192 1.8914,0.053 3.7433,-0.9068 4.7581,-2.6639 l 20.33,-35.2109 1.375,10e-5 26.166,15.1073 -56.7624,98.3152 c -0.9814,1.7002 -0.403,3.8604 1.2969,4.8419 l 9.207,5.3145 c 1.7001,0.9816 3.8583,0.4032 4.8399,-1.2968 l 56.7637,-98.3165 22.9923,13.2754 c 0.8003,0.4621 1.6693,0.6949 2.5291,0.7191 1.8915,0.053 3.7433,-0.9045 4.7575,-2.6624 l 20.3789,-35.2969 1.1777,0 26.3125,15.1914 -56.7617,98.3162 c -0.9814,1.7003 -0.4031,3.8585 1.2969,4.84 l 9.2065,5.3155 c 1.7,0.9814 3.8581,0.4029 4.8398,-1.297 l 56.7617,-98.3144 22.99422,13.2752 c 0.8005,0.4621 1.6694,0.695 2.5291,0.7191 1.8916,0.053 3.7434,-0.9065 4.7579,-2.6638 l 20.4277,-35.3809 0.9846,0 26.45946,15.2763 -56.76236,98.3153 c -0.9815,1.7002 -0.403,3.8604 1.2969,4.8419 l 9.207,5.3144 c 1.7001,0.9815 3.8586,0.4032 4.8398,-1.2969 l 56.76379,-98.3164 22.99202,13.2754 c 0.80048,0.4621 1.66954,0.6949 2.52934,0.7192 1.89136,0.053 3.74334,-0.9045 4.75749,-2.6624 l 20.47729,-35.4675 0.78308,-10e-5 26.60763,15.3613 -56.76284,98.3159 c -0.98145,1.6998 -0.40317,3.8583 1.29698,4.8395 l 9.20697,5.3148 c 1.69993,0.9814 3.85824,0.403 4.83996,-1.297 l 56.76141,-98.3144 22.99424,13.2754 c 0.8005,0.462 1.66937,0.6949 2.52919,0.7191 1.89132,0.053 3.74339,-0.9066 4.75806,-2.6639 l 20.5255,-35.5507 0.59148,10e-5 26.75391,15.4471 -56.76231,98.3153 c -0.98159,1.6999 -0.40317,3.8602 1.29674,4.8416 l 9.20694,5.3146 c 1.70029,0.9815 3.85835,0.4033 4.84001,-1.2969 l 56.76263,-98.3157 22.99419,13.2752 c 0.80049,0.4621 1.66953,0.6951 2.52929,0.7192 1.89141,0.053 3.74335,-0.9046 4.75766,-2.6625 l 20.57506,-35.6373 0.39255,0 26.90041,15.5314 -56.76263,98.3158 c -0.98149,1.7 -0.40314,3.8583 1.2969,4.8398 l 9.20704,5.3146 c 1.69975,0.9815 3.85828,0.403 4.83985,-1.2971 l 56.76156,-98.3144 22.99427,13.2756 c 0.80014,0.4621 1.66734,0.6949 2.52726,0.7186 1.89145,0.053 3.74517,-0.9071 4.75995,-2.6638 l 20.62363,-35.7214 0.19728,0 27.04888,15.6171 -56.76374,98.3165 c -0.98133,1.7001 -0.4032,3.8583 1.2969,4.8398 l 9.20509,5.3145 c 0.63764,0.3679 1.34112,0.5164 2.02143,0.4691 z"
       id="rect4159-83-1" />
    <path
       inkscape:connector-curvature="0"
       style="opacity:1;fill:#0000ff;fill-opacity:1;fill-rule:nonzero;stroke:#000000;stroke-width:0.35433072;stroke-miterlimit:4;stroke-dasharray:none;stroke-dashoffset:3.32759953;stroke-opacity:1"
       d="m -1281.8128,744.19293 c -1.1337,0.079 -2.2069,0.7031 -2.8203,1.7656 l -56.7617,98.3164 -22.9942,-13.2754 c -0.8004,-0.4621 -1.6675,-0.6949 -2.5273,-0.7187 -1.8914,-0.053 -3.7452,0.9049 -4.7598,2.6621 l -20.6738,35.8066 3.5117,0 c -1.948,0.017 -3.5117,1.5869 -3.5117,3.5391 l 0,63.7813 c 0,1.9629 1.58,3.5429 3.543,3.5429 l 68.1445,0 0,-35.4336 10.2754,0 0,35.4336 177.166,0 0,-35.4336 10.2754,0 0,35.4336 177.16411,0 0,-35.4336 10.27539,0 0,35.4336 177.16601,0 0,-35.4336 10.27539,0 0,35.4336 177.16602,0 0,-35.4336 10.27539,0 0,35.4336 68.27344,0 c 1.96299,0 3.54297,-1.58 3.54297,-3.5429 l 0,-63.7813 c -1e-5,-1.963 -1.57998,-3.543 -3.54297,-3.543 l -59.87891,0 -25.87109,-14.9375 56.76367,-98.3144 c 0.98149,-1.7 0.40313,-3.8603 -1.29688,-4.8418 l -9.20703,-5.3145 c -1.7,-0.9815 -3.85835,-0.4031 -4.83984,1.2969 l -56.76367,98.3164 -22.99219,-13.2754 c -0.80043,-0.4621 -1.66945,-0.6949 -2.5293,-0.7187 -1.89144,-0.053 -3.74327,0.9049 -4.75781,2.6621 l -20.28125,35.1269 -1.57031,0 -26.01758,-15.0214 56.76172,-98.3165 c 0.98149,-1.7 0.40312,-3.8583 -1.29688,-4.8398 l -9.20703,-5.3145 c -1.7,-0.9814 -3.85835,-0.4031 -4.83984,1.2969 l -56.76172,98.3145 -22.99414,-13.2754 c -0.80043,-0.4621 -1.66945,-0.695 -2.5293,-0.7188 -1.89144,-0.053 -3.74327,0.9069 -4.75781,2.6641 l -20.33008,35.2109 -1.375,0 -26.16602,-15.1074 56.76368,-98.3144 c 0.98149,-1.7 0.40312,-3.8603 -1.29688,-4.8418 l -9.20703,-5.3145 c -1.7,-0.9815 -3.85835,-0.4031 -4.83984,1.2969 l -56.76367,98.3164 -22.99219,-13.2754 c -0.80043,-0.4621 -1.66945,-0.6949 -2.5293,-0.7188 -1.89144,-0.053 -3.74327,0.905 -4.75781,2.6622 l -20.37891,35.2968 -1.17773,0 -26.3125,-15.1914 56.76172,-98.3164 c 0.98149,-1.7 0.40312,-3.8583 -1.29688,-4.8398 l -9.20703,-5.3145 c -1.7,-0.9815 -3.85835,-0.4031 -4.83984,1.2969 l -56.76172,98.3145 -22.99414,-13.2754 c -0.80043,-0.4621 -1.66945,-0.695 -2.5293,-0.7188 -1.89144,-0.053 -3.74327,0.9069 -4.75781,2.6641 l -20.42774,35.3808 -0.98437,0 -26.45899,-15.2773 56.76368,-98.3145 c 0.98149,-1.7 0.40312,-3.8603 -1.29688,-4.8418 l -9.20703,-5.3144 c -1.7,-0.9815 -3.85835,-0.4031 -4.83984,1.2969 l -56.76366,98.3164 -22.9922,-13.2754 c -0.8004,-0.4621 -1.6694,-0.695 -2.5293,-0.7188 -1.8914,-0.053 -3.74331,0.9049 -4.75781,2.6621 l -20.47854,35.4668 -0.7832,0 -26.6074,-15.3613 56.76175,-98.3164 c 0.9814,-1.7 0.4031,-3.8583 -1.2969,-4.8398 l -9.20701,-5.3145 c -1.70004,-0.9815 -3.85844,-0.4031 -4.83994,1.2969 l -56.7617,98.3144 -22.9941,-13.2754 c -0.8005,-0.4621 -1.6694,-0.6949 -2.5293,-0.7187 -1.8914,-0.053 -3.7433,0.9069 -4.7578,2.6641 l -20.5254,35.5507 -0.5918,0 -26.7539,-15.4472 56.7636,-98.3145 c 0.9815,-1.7 0.4032,-3.8603 -1.2968,-4.8418 l -9.2071,-5.3144 c -1.7,-0.9815 -3.8583,-0.4032 -4.8398,1.2968 l -56.7617,98.3164 -22.9942,-13.2753 c -0.8004,-0.4621 -1.6695,-0.695 -2.5293,-0.7188 -1.8914,-0.053 -3.7432,0.9049 -4.7578,2.6621 l -20.5762,35.6367 -0.3925,0 -26.9004,-15.5312 56.7617,-98.3164 c 0.9815,-1.7 0.4031,-3.8584 -1.2969,-4.8399 l -9.207,-5.3144 c -1.7,-0.9815 -3.8584,-0.4031 -4.8399,1.2969 l -56.7617,98.3144 -22.9941,-13.2754 c -0.8004,-0.4621 -1.6676,-0.6949 -2.5274,-0.7187 -1.8914,-0.053 -3.7451,0.9068 -4.7597,2.664 l -20.625,35.7207 -0.1973,0 -27.0488,-15.6172 56.7637,-98.3164 c 0.9814,-1.7 0.4031,-3.8583 -1.2969,-4.8398 l -9.2051,-5.3145 c -0.6375,-0.368 -1.3412,-0.5163 -2.0215,-0.4687 z"
       id="rect4159-83-0" />
    <path
       inkscape:connector-curvature="0"
       style="opacity:1;fill:#0000ff;fill-opacity:1;fill-rule:nonzero;stroke:#000000;stroke-width:0.35433072;stroke-miterlimit:4;stroke-dasharray:none;stroke-dashoffset:3.32759953;stroke-opacity:1"
       d="m -605.47612,820.93003 c 1.13365,-0.079 2.20668,-0.703 2.82004,-1.7654 l 56.76275,-98.3159 22.99423,13.2755 c 0.80037,0.4621 1.66751,0.6948 2.52726,0.7186 1.89138,0.053 3.74515,-0.9051 4.75952,-2.6626 l 20.67386,-35.8064 -3.51159,-10e-5 c 1.94776,-0.017 3.51147,-1.5869 3.51193,-3.5388 l -2.3e-4,-63.78112 c 3.1e-4,-1.9632 -1.5799,-3.5432 -3.54276,-3.5432 l -68.14457,3e-4 -1.2e-4,35.4335 -10.27536,-3e-4 7e-5,-35.4333 -177.16607,10e-5 -1e-5,35.4334 -10.27536,-10e-5 0,-35.4335 -177.16407,10e-5 0,35.4334 -10.27535,2e-4 -2e-4,-35.4337 -177.16585,0 2e-4,35.4337 -10.2755,-2e-4 -2e-4,-35.4334 -177.1659,0 -10e-5,35.4334 -10.2753,10e-5 10e-5,-35.4337 -68.2736,10e-5 c -1.9628,10e-5 -3.5429,1.58 -3.5429,3.543 l 0,63.78132 c 0,1.963 1.5799,3.5429 3.5428,3.5428 l 59.879,2e-4 25.8711,14.9374 -56.7622,98.3152 c -0.9817,1.6999 -0.4032,3.8602 1.2968,4.8419 l 9.2065,5.3153 c 1.7,0.9814 3.8584,0.4029 4.8398,-1.2971 l 56.7637,-98.3163 22.9921,13.2754 c 0.8006,0.4621 1.6694,0.6949 2.5293,0.7191 1.8914,0.053 3.7434,-0.9046 4.7575,-2.6625 l 20.2815,-35.1271 1.57,2e-4 26.0177,15.0214 -56.7627,98.316 c -0.9816,1.6998 -0.4031,3.8582 1.2967,4.8397 l 9.2066,5.3153 c 1.6998,0.9814 3.8583,0.4033 4.8399,-1.2968 l 56.7617,-98.3146 22.9939,13.2754 c 0.8007,0.4622 1.6697,0.6952 2.5294,0.7192 1.8914,0.053 3.7433,-0.9068 4.7581,-2.6639 l 20.33,-35.2109 1.375,1e-4 26.166,15.1073 -56.7624,98.3152 c -0.9814,1.7002 -0.403,3.8604 1.2969,4.8419 l 9.207,5.3145 c 1.7001,0.9816 3.8583,0.4032 4.8399,-1.2968 l 56.7637,-98.3165 22.9923,13.2754 c 0.8003,0.4621 1.6693,0.6949 2.5291,0.7191 1.8915,0.053 3.7433,-0.9045 4.7575,-2.6624 l 20.3789,-35.2969 1.1777,0 26.3125,15.1914 -56.7617,98.3162 c -0.9814,1.7003 -0.4031,3.8585 1.2969,4.84 l 9.2065,5.3155 c 1.7,0.9814 3.8581,0.4029 4.8398,-1.297 l 56.7617,-98.3144 22.99425,13.2752 c 0.8005,0.4621 1.6694,0.695 2.5291,0.7191 1.8916,0.053 3.7434,-0.9065 4.7579,-2.6638 l 20.4277,-35.3809 0.9846,0 26.45946,15.2763 -56.76236,98.3153 c -0.9815,1.7002 -0.403,3.8604 1.2969,4.8419 l 9.207,5.3144 c 1.7001,0.9815 3.8586,0.4032 4.8398,-1.2969 l 56.76379,-98.3164 22.99202,13.2754 c 0.80048,0.4621 1.66954,0.6949 2.52934,0.7192 1.89136,0.053 3.74334,-0.9045 4.75749,-2.6624 l 20.47729,-35.4675 0.78308,-1e-4 26.60763,15.3613 -56.76284,98.3159 c -0.98145,1.6998 -0.40317,3.8583 1.29698,4.8395 l 9.20697,5.3148 c 1.69993,0.9814 3.85824,0.403 4.83996,-1.297 l 56.76141,-98.3144 22.99424,13.2754 c 0.8005,0.462 1.66937,0.6949 2.52919,0.7191 1.89132,0.053 3.74339,-0.9066 4.75806,-2.6639 l 20.5255,-35.5507 0.59148,1e-4 26.75391,15.4471 -56.76231,98.3153 c -0.98159,1.6999 -0.40317,3.8602 1.29674,4.8416 l 9.20694,5.3146 c 1.70029,0.9815 3.85835,0.4033 4.84001,-1.2969 l 56.76263,-98.3157 22.99419,13.2752 c 0.80049,0.4621 1.66953,0.6951 2.52929,0.7192 1.89141,0.053 3.74335,-0.9046 4.75766,-2.6625 l 20.57506,-35.6373 0.39255,0 26.90041,15.5314 -56.76263,98.3158 c -0.98149,1.7 -0.40314,3.8583 1.2969,4.8398 l 9.20704,5.3146 c 1.69975,0.9815 3.85828,0.403 4.83985,-1.2971 l 56.76156,-98.3144 22.99427,13.2756 c 0.80014,0.4621 1.66734,0.6949 2.52726,0.7186 1.89145,0.053 3.74517,-0.9071 4.75995,-2.6638 l 20.62363,-35.7214 0.19728,0 27.04888,15.6171 -56.76374,98.3165 c -0.98133,1.7001 -0.4032,3.8583 1.2969,4.8398 l 9.20509,5.3145 c 0.63764,0.3679 1.34112,0.5164 2.02143,0.4691 z"
       id="rect4159-83-1-7" />
    <path
       inkscape:connector-curvature="0"
       style="opacity:1;fill:#0000ff;fill-opacity:1;fill-rule:nonzero;stroke:#000000;stroke-width:0.35433072;stroke-miterlimit:4;stroke-dasharray:none;stroke-dashoffset:3.32759953;stroke-opacity:1"
       d="m -1287.8134,420.09081 c -1.1337,0.079 -2.2069,0.7031 -2.8203,1.7656 l -56.7617,98.3164 -22.9942,-13.2754 c -0.8004,-0.4621 -1.6675,-0.6949 -2.5273,-0.7187 -1.8914,-0.053 -3.7452,0.9049 -4.7598,2.6621 l -20.6738,35.8066 3.5117,0 c -1.948,0.017 -3.5117,1.5869 -3.5117,3.5391 l 0,63.7813 c 0,1.9629 1.58,3.5429 3.543,3.5429 l 68.1445,0 0,-35.4336 10.2754,0 0,35.4336 177.166,0 0,-35.4336 10.2754,0 0,35.4336 177.16405,0 0,-35.4336 10.27539,0 0,35.4336 177.16601,0 0,-35.4336 10.27539,0 0,35.4336 177.16602,0 0,-35.4336 10.27539,0 0,35.4336 68.27344,0 c 1.96299,0 3.54297,-1.58 3.54297,-3.5429 l 0,-63.7813 c -10e-6,-1.963 -1.57998,-3.543 -3.54297,-3.543 l -59.87891,0 -25.87109,-14.9375 56.76367,-98.3144 c 0.98149,-1.7 0.40313,-3.8603 -1.29688,-4.8418 l -9.20703,-5.3145 c -1.7,-0.9815 -3.85835,-0.4031 -4.83984,1.2969 l -56.76367,98.3164 -22.99219,-13.2754 c -0.80043,-0.4621 -1.66945,-0.6949 -2.5293,-0.7187 -1.89144,-0.053 -3.74327,0.9049 -4.75781,2.6621 l -20.28125,35.1269 -1.57031,0 -26.01758,-15.0214 56.76172,-98.3165 c 0.98149,-1.7 0.40312,-3.8583 -1.29688,-4.8398 l -9.20703,-5.3145 c -1.7,-0.9814 -3.85835,-0.4031 -4.83984,1.2969 l -56.76172,98.3145 -22.99414,-13.2754 c -0.80043,-0.4621 -1.66945,-0.695 -2.5293,-0.7188 -1.89144,-0.053 -3.74327,0.9069 -4.75781,2.6641 l -20.33008,35.2109 -1.375,0 -26.16602,-15.1074 56.76368,-98.3144 c 0.98149,-1.7 0.40312,-3.8603 -1.29688,-4.8418 l -9.20703,-5.3145 c -1.7,-0.9815 -3.85835,-0.4031 -4.83984,1.2969 l -56.76367,98.3164 -22.99219,-13.2754 c -0.80043,-0.4621 -1.66945,-0.6949 -2.5293,-0.7188 -1.89144,-0.053 -3.74327,0.905 -4.75781,2.6622 l -20.37891,35.2968 -1.17773,0 -26.3125,-15.1914 56.76172,-98.3164 c 0.98149,-1.7 0.40312,-3.8583 -1.29688,-4.8398 l -9.20703,-5.3145 c -1.7,-0.9815 -3.85835,-0.4031 -4.83984,1.2969 l -56.76172,98.3145 -22.99414,-13.2754 c -0.80043,-0.4621 -1.66945,-0.695 -2.5293,-0.7188 -1.89144,-0.053 -3.74327,0.9069 -4.75781,2.6641 l -20.42774,35.3808 -0.98437,0 -26.45899,-15.2773 56.76368,-98.3145 c 0.98149,-1.7 0.40312,-3.8603 -1.29688,-4.8418 l -9.20703,-5.3144 c -1.7,-0.9815 -3.85835,-0.4031 -4.83984,1.2969 l -56.76366,98.3164 -22.9922,-13.2754 c -0.8004,-0.4621 -1.6694,-0.695 -2.5293,-0.7188 -1.89139,-0.053 -3.74329,0.9049 -4.75779,2.6621 l -20.4785,35.4668 -0.7832,0 -26.6074,-15.3613 56.76169,-98.3164 c 0.9814,-1.7 0.4031,-3.8583 -1.2969,-4.8398 l -9.20699,-5.3145 c -1.7,-0.9815 -3.8584,-0.4031 -4.8399,1.2969 l -56.7617,98.3144 -22.9941,-13.2754 c -0.8005,-0.4621 -1.6694,-0.6949 -2.5293,-0.7187 -1.8914,-0.053 -3.7433,0.9069 -4.7578,2.6641 l -20.5254,35.5507 -0.5918,0 -26.7539,-15.4472 56.7636,-98.3145 c 0.9815,-1.7 0.4032,-3.8603 -1.2968,-4.8418 l -9.2071,-5.3144 c -1.7,-0.9815 -3.8583,-0.4032 -4.8398,1.2968 l -56.7617,98.3164 -22.9942,-13.2753 c -0.8004,-0.4621 -1.6695,-0.695 -2.5293,-0.7188 -1.8914,-0.053 -3.7432,0.9049 -4.7578,2.6621 l -20.5762,35.6367 -0.3925,0 -26.9004,-15.5312 56.7617,-98.3164 c 0.9815,-1.7 0.4031,-3.8584 -1.2969,-4.8399 l -9.207,-5.3144 c -1.7,-0.9815 -3.8584,-0.4031 -4.8399,1.2969 l -56.7617,98.3144 -22.9941,-13.2754 c -0.8004,-0.4621 -1.6676,-0.6949 -2.5274,-0.7187 -1.8914,-0.053 -3.7451,0.9068 -4.7597,2.664 l -20.625,35.7207 -0.1973,0 -27.0488,-15.6172 56.7637,-98.3164 c 0.9814,-1.7 0.4031,-3.8583 -1.2969,-4.8398 l -9.2051,-5.3145 c -0.6375,-0.368 -1.3412,-0.5163 -2.0215,-0.4687 z"
       id="rect4159-83-6" />
    <path
       inkscape:connector-curvature="0"
       style="opacity:1;fill:#0000ff;fill-opacity:1;fill-rule:nonzero;stroke:#000000;stroke-width:0.35433072;stroke-miterlimit:4;stroke-dasharray:none;stroke-dashoffset:3.32759953;stroke-opacity:1"
       d="m -611.47678,496.82791 c 1.13365,-0.079 2.20668,-0.703 2.82004,-1.7654 l 56.76275,-98.3159 22.99423,13.2755 c 0.80037,0.4621 1.66751,0.6948 2.52726,0.7186 1.89138,0.053 3.74515,-0.9051 4.75952,-2.6626 l 20.67386,-35.8064 -3.51159,-10e-5 c 1.94776,-0.017 3.51147,-1.5869 3.51193,-3.5388 l -2.3e-4,-63.78112 c 3.1e-4,-1.9632 -1.5799,-3.5432 -3.54276,-3.5432 l -68.14457,3e-4 -1.2e-4,35.4335 -10.27536,-3e-4 7e-5,-35.4333 -177.16607,1e-4 -10e-6,35.4334 -10.27536,-1e-4 0,-35.4335 -177.16407,10e-5 0,35.4334 -10.27535,2e-4 -2e-4,-35.4337 -177.16579,0 2e-4,35.4337 -10.2755,-2e-4 -2e-4,-35.4334 -177.1659,0 -10e-5,35.4334 -10.2753,1e-4 1e-4,-35.4337 -68.2736,1e-4 c -1.9628,10e-5 -3.5429,1.58 -3.5429,3.543 l 0,63.78132 c 0,1.963 1.5799,3.5429 3.5428,3.5428 l 59.879,2e-4 25.8711,14.9374 -56.7622,98.3152 c -0.9817,1.6999 -0.4032,3.8602 1.2968,4.8419 l 9.2065,5.3153 c 1.7,0.9814 3.8584,0.4029 4.8398,-1.2971 l 56.7637,-98.3163 22.9921,13.2754 c 0.8006,0.4621 1.6694,0.6949 2.5293,0.7191 1.8914,0.053 3.7434,-0.9046 4.7575,-2.6625 l 20.2815,-35.1271 1.57,2e-4 26.0177,15.0214 -56.7627,98.316 c -0.9816,1.6998 -0.4031,3.8582 1.2967,4.8397 l 9.2066,5.3153 c 1.6998,0.9814 3.8583,0.4033 4.8399,-1.2968 l 56.7617,-98.3146 22.9939,13.2754 c 0.8007,0.4622 1.6697,0.6952 2.5294,0.7192 1.8914,0.053 3.7433,-0.9068 4.7581,-2.6639 l 20.33,-35.2109 1.375,10e-5 26.166,15.1073 -56.7624,98.3152 c -0.9814,1.7002 -0.403,3.8604 1.2969,4.8419 l 9.207,5.3145 c 1.7001,0.9816 3.8583,0.4032 4.8399,-1.2968 l 56.7637,-98.3165 22.9923,13.2754 c 0.8003,0.4621 1.6693,0.6949 2.5291,0.7191 1.8915,0.053 3.7433,-0.9045 4.7575,-2.6624 l 20.3789,-35.2969 1.1777,0 26.3125,15.1914 -56.7617,98.3162 c -0.9814,1.7003 -0.4031,3.8585 1.2969,4.84 l 9.2065,5.3155 c 1.7,0.9814 3.8581,0.4029 4.8398,-1.297 l 56.7617,-98.3144 22.99419,13.2752 c 0.8005,0.4621 1.6694,0.695 2.5291,0.7191 1.8916,0.053 3.7434,-0.9065 4.7579,-2.6638 l 20.4277,-35.3809 0.9846,0 26.45946,15.2763 -56.76236,98.3153 c -0.9815,1.7002 -0.403,3.8604 1.2969,4.8419 l 9.207,5.3144 c 1.7001,0.9815 3.8586,0.4032 4.8398,-1.2969 l 56.76379,-98.3164 22.99202,13.2754 c 0.80048,0.4621 1.66954,0.6949 2.52934,0.7192 1.89136,0.053 3.74334,-0.9045 4.75749,-2.6624 l 20.47729,-35.4675 0.78308,-1e-4 26.60763,15.3613 -56.76284,98.3159 c -0.98145,1.6998 -0.40317,3.8583 1.29698,4.8395 l 9.20697,5.3148 c 1.69993,0.9814 3.85824,0.403 4.83996,-1.297 l 56.76141,-98.3144 22.99424,13.2754 c 0.8005,0.462 1.66937,0.6949 2.52919,0.7191 1.89132,0.053 3.74339,-0.9066 4.75806,-2.6639 l 20.5255,-35.5507 0.59148,1e-4 26.75391,15.4471 -56.76231,98.3153 c -0.98159,1.6999 -0.40317,3.8602 1.29674,4.8416 l 9.20694,5.3146 c 1.70029,0.9815 3.85835,0.4033 4.84001,-1.2969 l 56.76263,-98.3157 22.99419,13.2752 c 0.80049,0.4621 1.66953,0.6951 2.52929,0.7192 1.89141,0.053 3.74335,-0.9046 4.75766,-2.6625 l 20.57506,-35.6373 0.39255,0 26.90041,15.5314 -56.76263,98.3158 c -0.98149,1.7 -0.40314,3.8583 1.2969,4.8398 l 9.20704,5.3146 c 1.69975,0.9815 3.85828,0.403 4.83985,-1.2971 l 56.76156,-98.3144 22.99427,13.2756 c 0.80014,0.4621 1.66734,0.6949 2.52726,0.7186 1.89145,0.053 3.74517,-0.9071 4.75995,-2.6638 l 20.62363,-35.7214 0.19728,0 27.04888,15.6171 -56.76374,98.3165 c -0.98133,1.7001 -0.4032,3.8583 1.2969,4.8398 l 9.20509,5.3145 c 0.63764,0.3679 1.34112,0.5164 2.02143,0.4691 z"
       id="rect4159-83-1-6" />
    <path
       style="opacity:1;fill:#0000ff;fill-opacity:1;fill-rule:nonzero;stroke:#000000;stroke-width:0.35433072;stroke-miterlimit:4;stroke-dasharray:none;stroke-dashoffset:3.32759953;stroke-opacity:1"
       d="m -312.48438,1055.2824 c -1.963,0 -3.54296,-1.58 -3.54296,-3.5429 l 0,-63.77931 c 0,-1.963 1.57997,-3.54297 3.54296,-3.54297 l 20.31055,0 38.28906,-22.10547 -56.76171,-98.31641 c -0.9815,-1.7 -0.40313,-3.85834 1.29687,-4.83984 l 9.20508,-5.31446 c 1.7,-0.9815 3.85844,-0.40312 4.83984,1.29688 l 56.76367,98.3125 33.51563,-19.34961 c 1.077,-0.6219 2.24534,-0.9347 3.40234,-0.9668 2.5454,-0.07 5.04045,1.22209 6.40625,3.58789 l 27.53516,47.69532 1.17773,0 38.4375,-22.19141 -56.76367,-98.31445 c -0.9815,-1.7 -0.40312,-3.86225 1.29688,-4.84375 l 9.20508,-5.3125 c 1.69999,-0.9815 3.85834,-0.40313 4.83984,1.29687 l 56.76367,98.31641 33.517579,-19.35156 c 1.077,-0.6219 2.24339,-0.9347 3.40039,-0.9668 2.5454,-0.07 5.038397,1.21818 6.404297,3.58398 l 27.587891,47.78516 0.978515,0 38.5839849,-22.27539 -56.7636719,-98.31641 c -0.98151,-1.7 -0.403125,-3.86029 1.296875,-4.84179 l 9.207031,-5.3125 c 1.7,-0.9815 3.858344,-0.40313 4.839844,1.29687 l 56.761719,98.31641 33.517578,-19.35157 c 1.077,-0.6219 2.245444,-0.93665 3.402344,-0.96875 2.5455,-0.07 5.038496,1.2221 6.404296,3.58789 l 27.636719,47.86524 0.783203,0 38.730466,-22.36133 -56.763669,-98.31445 c -0.9815,-1.7 -0.403125,-3.8603 1.296875,-4.8418 l 9.207032,-5.31445 c 1.7,-0.9815 3.858343,-0.40508 4.839843,1.29492 l 56.763669,98.31641 33.51563,-19.34961 c 1.077,-0.6219 2.24534,-0.9347 3.40234,-0.9668 2.5454,-0.07 5.0384,1.22014 6.4043,3.58594 l 27.68555,47.95117 0.58593,0 38.87891,-22.44727 -56.76172,-98.31445 c -0.9815,-1.7 -0.40312,-3.85834 1.29688,-4.83984 l 9.20507,-5.31446 c 1.7,-0.9815 3.85835,-0.40507 4.83985,1.29493 l 56.76172,98.3164 33.51757,-19.35351 c 1.077,-0.6219 2.24545,-0.9347 3.40235,-0.9668 2.5454,-0.07 5.04035,1.22209 6.40625,3.58789 l 27.73437,48.03711 0.39258,0 39.02344,-22.5332 -56.76367,-98.31641 c -0.9815,-1.7 -0.40313,-3.85639 1.29687,-4.83789 l 9.20508,-5.31641 c 1.7,-0.9815 3.8603,-0.40117 4.8418,1.29883 l 56.76172,98.31641 33.51757,-19.35157 c 1.077,-0.62189 2.24535,-0.93469 3.40235,-0.96679 2.5454,-0.07 5.03839,1.22014 6.40429,3.58594 l 27.78321,48.12109 0.19336,0 39.17382,-22.61719 -56.76367,-98.3164 c -0.9815,-1.7 -0.40312,-3.8564 1.29688,-4.83789 l 9.20703,-5.31641 c 0.6375,-0.3681 1.33933,-0.5182 2.01953,-0.4707 l 0.002,0 c 1.1338,0.079 2.20692,0.70507 2.82032,1.76757 l 56.76172,98.31446 33.51757,-19.35157 c 1.077,-0.6219 2.24545,-0.93469 3.40235,-0.96679 2.5455,-0.07 5.03839,1.22209 6.40429,3.58789 l 27.83203,48.20508 -3.51953,0 c 1.9518,0.013 3.51953,1.58796 3.51953,3.54297 l 0,63.77931 c 0,1.9629 -1.57996,3.5429 -3.54296,3.5429 l -68.14454,0 0,-35.4335 -10.27539,0 0,35.4335 -177.16601,0 0,-35.4335 -10.27539,0 0,35.4335 -177.16406,0 0,-35.4335 -10.27539,0 0,35.4335 -177.166021,0 0,-35.4335 -10.27539,0 0,35.4335 -177.166019,0 0,-35.4335 -10.27539,0 0,35.4335 -68.27344,0 z m 22.66407,-93.36909 c -1.1338,-0.079 -2.20691,-0.70703 -2.82031,-1.76953 l -56.76172,-98.3125 -33.51758,19.34961 c -1.077,0.6219 -2.24545,0.93469 -3.40235,0.9668 -2.5455,0.07 -5.03839,-1.2221 -6.40429,-3.5879 l -27.83203,-48.20312 3.51953,0 c -1.9518,-0.013 -3.51953,-1.58797 -3.51953,-3.54297 l 0,-63.7793 c 0,-1.9629 1.57997,-3.54492 3.54297,-3.54492 l 68.14453,0 0,35.4336 10.27539,0 0,-35.4336 177.16601,0 0,35.4336 10.27539,0 0,-35.4336 177.164066,0 0,35.4336 10.27539,0 0,-35.4336 177.166014,0 0,35.4336 10.27539,0 0,-35.4336 177.16602,0 0,35.4336 10.27539,0 0,-35.4336 68.27344,0 c 1.963,0 3.54297,1.58202 3.54297,3.54492 l 0,63.7793 c 0,1.963 -1.57997,3.54297 -3.54297,3.54297 l -20.31055,0 -38.28906,22.10352 56.76172,98.3164 c 0.9815,1.7 0.40312,3.86029 -1.29688,4.8418 l -9.20508,5.3125 c -1.7,0.9815 -3.85844,0.40508 -4.83984,-1.29492 l -56.76367,-98.3125 -33.51563,19.34961 c -1.077,0.6219 -2.24534,0.93469 -3.40234,0.96679 -2.5454,0.07 -5.04045,-1.22209 -6.40625,-3.58789 l -27.53516,-47.69531 -1.17773,0 -38.4375,22.19141 56.76367,98.3125 c 0.9815,1.7 0.40312,3.86419 -1.29688,4.8457 l -9.20507,5.3125 c -1.7,0.9815 -3.85835,0.40312 -4.83985,-1.29688 l -56.76367,-98.3164 -33.51758,19.35156 c -1.077,0.6219 -2.24339,0.9347 -3.40039,0.9668 -2.5454,0.07 -5.03839,-1.21819 -6.40429,-3.58399 l -27.5879,-47.78711 -0.97851,0 -38.58399,22.27539 56.76368,98.31641 c 0.9815,1.7 0.40312,3.86224 -1.29688,4.84375 l -9.20703,5.3125 c -1.7,0.9815 -3.85834,0.40117 -4.83984,-1.29883 l -56.76172,-98.3164 -33.51758,19.35156 c -1.077,0.6219 -2.24544,0.93665 -3.40234,0.96875 -2.5455,0.07 -5.0385,-1.22209 -6.4043,-3.58789 l -27.63672,-47.86524 -0.783203,0 -38.730469,22.36133 56.763672,98.31445 c 0.9815,1.7 0.40312,3.86029 -1.296875,4.8418 l -9.207031,5.31445 c -1.7,0.9815 -3.858344,0.40508 -4.839844,-1.29492 l -56.763672,-98.3164 -33.5156249,19.34961 c -1.077,0.6219 -2.2453537,0.93469 -3.4023437,0.96679 -2.5454004,0.07 -5.0383974,-1.22013 -6.4042974,-3.58594 l -27.685546,-47.95117 -0.585938,0 -38.878906,22.44727 56.761719,98.31445 c 0.9815,1.7 0.403125,3.85834 -1.296875,4.83985 l -9.205078,5.31445 c -1.700001,0.9815 -3.858344,0.40703 -4.839844,-1.29297 L -97.765625,861.6594 -131.2832,881.01097 c -1.077,0.6219 -2.24545,0.93469 -3.40235,0.96679 -2.5454,0.07 -5.04035,-1.22209 -6.40625,-3.58789 l -27.73437,-48.03711 -0.39258,0 -39.02344,22.53321 56.76367,98.3164 c 0.9815,1.7 0.40313,3.85834 -1.29687,4.83985 l -9.20508,5.31445 c -1.7,0.9815 -3.8603,0.40117 -4.8418,-1.29883 l -56.76171,-98.31641 -33.51758,19.35157 c -1.077,0.6219 -2.24535,0.93469 -3.40235,0.96679 -2.5454,0.07 -5.03839,-1.22013 -6.40429,-3.58593 l -27.78321,-48.1211 -0.19336,0 -39.17382,22.61914 56.76367,98.31446 c 0.9815,1.7 0.40312,3.85638 -1.29688,4.83789 l -9.20703,5.31836 c -0.6375,0.3681 -1.33933,0.5182 -2.01953,0.4707 l -0.002,0 z"
       id="rect4159-4-1-8"
       inkscape:connector-curvature="0" />
    <path
       style="opacity:1;fill:#0000ff;fill-opacity:1;fill-rule:nonzero;stroke:#000000;stroke-width:0.35433072;stroke-miterlimit:4;stroke-dasharray:none;stroke-dashoffset:3.32759953;stroke-opacity:1"
       d="m -289.82031,1263.7063 c -1.1338,-0.079 -2.20691,-0.707 -2.82031,-1.7695 l -56.76172,-98.3126 -33.51758,19.3497 c -1.077,0.6219 -2.24545,0.9346 -3.40235,0.9668 -2.5455,0.07 -5.03839,-1.2221 -6.40429,-3.5879 l -27.83203,-48.2032 3.51953,0 c -1.9518,-0.013 -3.51953,-1.5879 -3.51953,-3.5429 l 0,-63.7793 c 0,-1.9629 1.57997,-3.545 3.54297,-3.545 l 68.14453,0 0,35.4336 10.27539,0 0,-35.4336 177.16601,0 0,35.4336 10.2754,0 0,-35.4336 177.16407,0 0,35.4336 10.27539,0 0,-35.4336 177.166,0 0,35.4336 10.27539,0 0,-35.4336 177.16602,0 0,35.4336 10.27539,0 0,-35.4336 68.27344,0 c 1.963,0 3.54297,1.5821 3.54297,3.545 l 0,63.7793 c 0,1.963 -1.57997,3.5429 -3.54297,3.5429 l -20.31055,0 -38.28906,22.1036 56.76172,98.3164 c 0.9815,1.7 0.40312,3.8602 -1.29688,4.8418 l -9.20508,5.3125 c -1.7,0.9815 -3.85844,0.405 -4.83984,-1.295 l -56.76367,-98.3125 -33.51563,19.3496 c -1.077,0.6219 -2.24534,0.9347 -3.40234,0.9668 -2.5454,0.07 -5.04045,-1.2221 -6.40625,-3.5879 l -27.53516,-47.6953 -1.17773,0 -38.4375,22.1914 56.76367,98.3125 c 0.9815,1.7 0.40312,3.8642 -1.29688,4.8458 l -9.20507,5.3125 c -1.7,0.9815 -3.85835,0.4031 -4.83985,-1.2969 l -56.76367,-98.3164 -33.51758,19.3515 c -1.077,0.6219 -2.24339,0.9347 -3.40039,0.9668 -2.5454,0.07 -5.03839,-1.2182 -6.40429,-3.584 l -27.5879,-47.7871 -0.97851,0 -38.58399,22.2754 56.76368,98.3164 c 0.9815,1.7 0.40312,3.8623 -1.29688,4.8438 l -9.20703,5.3125 c -1.7,0.9815 -3.85834,0.4012 -4.83984,-1.2988 l -56.76172,-98.3165 -33.51758,19.3516 c -1.077,0.6219 -2.24544,0.9367 -3.40234,0.9688 -2.5455,0.07 -5.0385,-1.2221 -6.4043,-3.5879 l -27.63672,-47.8653 -0.7832,0 -38.73046,22.3614 56.76366,98.3144 c 0.9815,1.7 0.40312,3.8603 -1.29687,4.8418 l -9.20704,5.3145 c -1.7,0.9815 -3.85834,0.405 -4.83984,-1.295 l -56.76366,-98.3164 -33.515634,19.3496 c -1.077,0.6219 -2.24535,0.9347 -3.40234,0.9668 -2.5454,0.07 -5.0384,-1.2201 -6.4043,-3.5859 l -27.68554,-47.9512 -0.58594,0 -38.87891,22.4473 56.76172,98.3144 c 0.9815,1.7 0.40313,3.8584 -1.29687,4.8399 l -9.20508,5.3145 c -1.7,0.9815 -3.85835,0.407 -4.83985,-1.293 l -56.761709,-98.3164 -33.517577,19.3515 c -1.077,0.6219 -2.24545,0.9347 -3.40235,0.9668 -2.5454,0.07 -5.04035,-1.2221 -6.40625,-3.5879 l -27.73438,-48.0371 -0.39258,0 -39.02344,22.5332 56.76368,98.3164 c 0.9815,1.7 0.40313,3.8584 -1.29687,4.8399 l -9.20509,5.3144 c -1.7,0.9815 -3.8603,0.4012 -4.8418,-1.2988 l -56.76171,-98.3164 -33.51758,19.3516 c -1.077,0.6219 -2.24535,0.9347 -3.40235,0.9668 -2.5454,0.07 -5.03839,-1.2202 -6.40429,-3.586 l -27.78321,-48.1211 -0.19336,0 -39.17382,22.6192 56.76367,98.3144 c 0.9815,1.7 0.40312,3.8564 -1.29688,4.8379 l -9.20703,5.3184 c -0.6375,0.3681 -1.33933,0.5182 -2.01953,0.4707 l -0.002,0 z"
       id="rect4159-4-1-8-2"
       inkscape:connector-curvature="0" />
    <path
       inkscape:connector-curvature="0"
       style="opacity:1;fill:#0000ff;fill-opacity:1;fill-rule:nonzero;stroke:#000000;stroke-width:0.35433072;stroke-miterlimit:4;stroke-dasharray:none;stroke-dashoffset:3.32759953;stroke-opacity:1"
       d="m 711.70898,654.41018 c -1.963,0 -3.54296,1.58007 -3.54296,3.54297 l 0,63.77934 c 0,1.9629 1.57996,3.5429 3.54296,3.5429 l 92.28516,0 60.57031,34.97071 -56.76367,98.3164 c -0.9815,1.7 -0.40312,3.8584 1.29688,4.8399 l 9.20703,5.3144 c 1.7,0.9815 3.85834,0.4033 4.83984,-1.2968 l 56.76172,-98.3164 52.29885,30.1953 c 1.5707,0.9067 3.2752,1.364 4.9629,1.4101 3.7129,0.1014 7.3501,-1.7853 9.3437,-5.2383 l 40.5293,-70.19531 25.0449,0 60.668,35.02741 -56.7617,98.3144 c -0.9815,1.7 -0.4031,3.8584 1.2969,4.8399 l 9.205,5.3144 c 1.7,0.9815 3.8603,0.4031 4.8418,-1.2969 l 56.7618,-98.3144 52.2988,30.1953 c 1.5707,0.9068 3.2752,1.3621 4.9629,1.4082 3.7128,0.1014 7.3501,-1.7833 9.3437,-5.2363 l 40.5606,-70.25201 24.9199,0 60.7637,35.08211 -56.7637,98.3144 c -0.9815,1.7 -0.4031,3.8584 1.2969,4.8399 l 9.205,5.3164 c 1.7,0.9815 3.8584,0.4031 4.8399,-1.2969 l 56.7637,-98.3164 52.2988,30.1953 c 1.5707,0.9068 3.2752,1.364 4.9629,1.4102 3.7128,0.1014 7.3501,-1.7834 9.3437,-5.2364 l 40.5918,-70.30661 24.793,0 60.8574,35.13671 -56.7617,98.3145 c -0.9815,1.7 -0.4031,3.8602 1.2969,4.8418 l 9.2051,5.3144 c 0.6375,0.3681 1.3392,0.5163 2.0195,0.4688 l 0,0 c 1.1338,-0.079 2.2069,-0.7011 2.8203,-1.7636 l 56.7637,-98.3164 52.2988,30.1953 c 1.5706,0.9068 3.2732,1.3621 4.9609,1.4082 3.7129,0.1014 7.3521,-1.7853 9.3457,-5.2383 l 40.6231,-70.36131 -3.5332,0 c 1.9583,-0.01 3.5332,-1.5814 3.5332,-3.541 l 0,-63.77934 c 0,-1.9629 -1.58,-3.54297 -3.543,-3.54297 l -68.1445,0 0,35.4336 -10.2754,0 0,-35.4336 -177.166,0 0,35.4336 -10.2754,0 0,-35.4336 -177.1641,0 0,35.4336 -10.2754,0 0,-35.4336 -177.166,0 0,35.4336 -10.2754,0 0,-35.4336 -177.16599,0 0,35.4336 -10.27539,0 0,-35.4336 -68.27344,0 z m 96.23243,86.70901 0,0 c -1.1338,0.079 -2.20692,0.7012 -2.82032,1.7637 l -56.76367,98.31641 -52.29883,-30.1954 c -1.5706,-0.9067 -3.27323,-1.3621 -4.96093,-1.4082 -3.7129,-0.1014 -7.35211,1.7853 -9.34571,5.2383 l -40.62304,70.3614 3.5332,0 c -1.9583,0.01 -3.5332,1.5814 -3.5332,3.541 l 0,63.77929 c 0,1.9629 1.57996,3.5429 3.54297,3.5429 l 68.14453,0 0,-35.43359 10.27539,0 0,35.43359 177.16601,0 0,-35.43359 10.27539,0 0,35.43359 177.1641,0 0,-35.43359 10.2754,0 0,35.43359 177.166,0 0,-35.43359 10.2754,0 0,35.43359 177.166,0 0,-35.43359 10.2754,0 0,35.43359 68.2734,0 c 1.963,0 3.543,-1.58 3.543,-3.5429 l 0,-63.77929 c 0,-1.9629 -1.58,-3.543 -3.543,-3.543 l -92.2851,0 -60.5704,-34.9707 56.7637,-98.31641 c 0.9815,-1.7 0.4031,-3.8584 -1.2969,-4.8398 l -9.207,-5.3145 c -1.7,-0.9815 -3.8583,-0.4032 -4.8398,1.2969 l -56.7618,98.31641 -52.2988,-30.1953 c -1.5707,-0.9067 -3.2752,-1.3641 -4.9629,-1.4102 -3.7129,-0.1014 -7.3501,1.7853 -9.3437,5.2383 l -40.5293,70.1953 -25.0449,0 -60.668,-35.0273 56.7617,-98.31451 c 0.9815,-1.7 0.4031,-3.8583 -1.2969,-4.8398 l -9.205,-5.3145 c -1.7001,-0.9815 -3.8603,-0.4031 -4.8418,1.2969 l -56.7618,98.31441 -52.2988,-30.1953 c -1.5707,-0.9068 -3.2752,-1.3621 -4.9629,-1.4082 -3.7128,-0.1014 -7.3501,1.7833 -9.3437,5.2364 l -40.5606,70.2519 -24.9199,0 -60.7637,-35.082 56.7637,-98.31451 c 0.9815,-1.7 0.4031,-3.8583 -1.2969,-4.8398 l -9.2051,-5.3164 c -1.7,-0.9815 -3.8583,-0.4032 -4.8398,1.2968 L 956.5488,841.2539 904.25,811.0586 c -1.5707,-0.9068 -3.27519,-1.364 -4.96289,-1.4101 -3.7128,-0.1014 -7.35015,1.7833 -9.34375,5.2363 l -40.5918,70.3067 -24.79297,0 -60.85742,-35.1368 56.76172,-98.31441 c 0.9815,-1.7 0.40313,-3.8603 -1.29687,-4.8418 l -9.20508,-5.3145 c -0.6375,-0.3681 -1.33923,-0.5162 -2.01953,-0.4687 z"
       id="rect4159-8-7-9" />
    <path
       inkscape:connector-curvature="0"
       style="opacity:1;fill:#008080;fill-opacity:1;fill-rule:nonzero;stroke:#000000;stroke-width:0.35433072;stroke-miterlimit:4;stroke-dasharray:none;stroke-dashoffset:3.32759953;stroke-opacity:1"
       d="m -1380.6136,1361.1594 c -3.926,0 -7.0879,3.1619 -7.0879,7.0879 l 0,56.6934 c 0,3.926 3.1619,7.0859 7.0879,7.0859 l 574.0156,0 c 3.92598,0 7.08593,-3.1599 7.08593,-7.0859 l 0,-56.6934 c 0,-3.926 -3.15995,-7.0879 -7.08593,-7.0879 l -17.7168,0 0,35.4336 -10.63086,0 0,-35.4336 -64.28516,0 0,35.4336 -10.6289,0 0,-35.4336 -64.28711,0 0,35.4336 -10.62891,0 0,-35.4336 -64.28716,0 0,35.4336 -10.6289,0 0,-35.4336 -64.2852,0 0,35.4336 -10.6308,0 0,-35.4336 -64.2851,0 0,35.4336 -10.6308,0 0,-35.4336 -64.2852,0 0,35.4336 -10.6289,0 0,-35.4336 -64.2871,0 0,35.4336 -10.6289,0 0,-35.4336 -21.2598,0 z"
       id="rect6990-26" />
    <path
       inkscape:connector-curvature="0"
       style="opacity:1;fill:#008080;fill-opacity:1;fill-rule:nonzero;stroke:#000000;stroke-width:0.35433072;stroke-miterlimit:4;stroke-dasharray:none;stroke-dashoffset:3.32759953;stroke-opacity:1"
       d="m -1382.3851,1440.0266 c -3.926,0 -7.0879,3.1619 -7.0879,7.0879 l 0,56.6934 c 0,3.926 3.1619,7.0859 7.0879,7.0859 l 574.01566,0 c 3.92598,0 7.08593,-3.1599 7.08593,-7.0859 l 0,-56.6934 c 0,-3.926 -3.15995,-7.0879 -7.08593,-7.0879 l -17.7168,0 0,35.4336 -10.63086,0 0,-35.4336 -64.28516,0 0,35.4336 -10.6289,0 0,-35.4336 -64.28711,0 0,35.4336 -10.62891,0 0,-35.4336 -64.28712,0 0,35.4336 -10.6289,0 0,-35.4336 -64.2852,0 0,35.4336 -10.6308,0 0,-35.4336 -64.2852,0 0,35.4336 -10.6308,0 0,-35.4336 -64.2852,0 0,35.4336 -10.6289,0 0,-35.4336 -64.2871,0 0,35.4336 -10.6289,0 0,-35.4336 -21.2598,0 z"
       id="rect6990-6" />
    <path
       inkscape:connector-curvature="0"
       style="opacity:1;fill:#008080;fill-opacity:1;fill-rule:nonzero;stroke:#000000;stroke-width:0.35433072;stroke-miterlimit:4;stroke-dasharray:none;stroke-dashoffset:3.32759953;stroke-opacity:1"
       d="m -1384.1565,1518.8938 c -3.926,0 -7.0879,3.1619 -7.0879,7.0879 l 0,56.6934 c 0,3.926 3.1619,7.0859 7.0879,7.0859 l 574.01559,0 c 3.92598,0 7.08593,-3.1599 7.08593,-7.0859 l 0,-56.6934 c 0,-3.926 -3.15995,-7.0879 -7.08593,-7.0879 l -17.7168,0 0,35.4336 -10.63086,0 0,-35.4336 -64.28516,0 0,35.4336 -10.6289,0 0,-35.4336 -64.28711,0 0,35.4336 -10.62891,0 0,-35.4336 -64.28715,0 0,35.4336 -10.6289,0 0,-35.4336 -64.2852,0 0,35.4336 -10.6308,0 0,-35.4336 -64.2852,0 0,35.4336 -10.6307,0 0,-35.4336 -64.2852,0 0,35.4336 -10.6289,0 0,-35.4336 -64.2871,0 0,35.4336 -10.6289,0 0,-35.4336 -21.2598,0 z"
       id="rect6990-6-0" />
    <path
       inkscape:connector-curvature="0"
       style="opacity:1;fill:#008080;fill-opacity:1;fill-rule:nonzero;stroke:#000000;stroke-width:0.35433072;stroke-miterlimit:4;stroke-dasharray:none;stroke-dashoffset:3.32759953;stroke-opacity:1"
       d="m -1385.928,1597.761 c -3.926,0 -7.0879,3.1619 -7.0879,7.0879 l 0,56.6934 c 0,3.926 3.1619,7.0859 7.0879,7.0859 l 574.01564,0 c 3.92598,0 7.08593,-3.1599 7.08593,-7.0859 l 0,-56.6934 c 0,-3.926 -3.15995,-7.0879 -7.08593,-7.0879 l -17.7168,0 0,35.4336 -10.63086,0 0,-35.4336 -64.28516,0 0,35.4336 -10.6289,0 0,-35.4336 -64.28711,0 0,35.4336 -10.62891,0 0,-35.4336 -64.2871,0 0,35.4336 -10.6289,0 0,-35.4336 -64.2852,0 0,35.4336 -10.6308,0 0,-35.4336 -64.2852,0 0,35.4336 -10.6308,0 0,-35.4336 -64.2852,0 0,35.4336 -10.6289,0 0,-35.4336 -64.2871,0 0,35.4336 -10.6289,0 0,-35.4336 -21.2598,0 z"
       id="rect6990-6-9" />
    <text
       xml:space="preserve"
       style="font-style:normal;font-variant:normal;font-weight:500;font-stretch:normal;font-size:80px;line-height:125%;font-family:YuMincho;-inkscape-font-specification:'YuMincho Medium';letter-spacing:0px;word-spacing:0px;fill:#000000;fill-opacity:1;stroke:none;stroke-width:1px;stroke-linecap:butt;stroke-linejoin:miter;stroke-opacity:1"
       x="-319.30969"
       y="138.42131"
       id="text7265"
       sodipodi:linespacing="125%"><tspan
         sodipodi:role="line"
         id="tspan7267"
         x="-319.30969"
         y="138.42131">For 27mm</tspan><tspan
         sodipodi:role="line"
         x="-319.30969"
         y="238.42131"
         id="tspan7269">diameter bobbins</tspan></text>
    <text
       xml:space="preserve"
       style="font-style:normal;font-variant:normal;font-weight:500;font-stretch:normal;font-size:80px;line-height:125%;font-family:YuMincho;-inkscape-font-specification:'YuMincho Medium';letter-spacing:0px;word-spacing:0px;fill:#000000;fill-opacity:1;stroke:none;stroke-width:1px;stroke-linecap:butt;stroke-linejoin:miter;stroke-opacity:1"
       x="718.86414"
       y="270.77783"
       id="text7271"
       sodipodi:linespacing="125%"><tspan
         sodipodi:role="line"
         id="tspan7273"
         x="718.86414"
         y="270.77783">For 41mm</tspan><tspan
         sodipodi:role="line"
         x="718.86414"
         y="370.77783"
         id="tspan7275">diameter bobbins</tspan></text>
    <text
       xml:space="preserve"
       style="font-style:normal;font-variant:normal;font-weight:500;font-stretch:normal;font-size:80px;line-height:125%;font-family:YuMincho;-inkscape-font-specification:'YuMincho Medium';letter-spacing:0px;word-spacing:0px;fill:#000000;fill-opacity:1;stroke:none;stroke-width:1px;stroke-linecap:butt;stroke-linejoin:miter;stroke-opacity:1"
       x="-1390.5015"
       y="121.73537"
       id="text7277"
       sodipodi:linespacing="125%"><tspan
         sodipodi:role="line"
         id="tspan7279"
         x="-1390.5015"
         y="121.73537">For 20mm diameter </tspan><tspan
         sodipodi:role="line"
         x="-1390.5015"
         y="221.73537"
         id="tspan7281">bobbins</tspan></text>
    <path
       inkscape:connector-curvature="0"
       style="opacity:1;fill:#008080;fill-opacity:1;fill-rule:nonzero;stroke:#000000;stroke-width:0.35433072;stroke-miterlimit:4;stroke-dasharray:none;stroke-dashoffset:3.32759953;stroke-opacity:1"
       d="m -289.82036,1352.5735 c -3.92599,0 -7.08789,3.1619 -7.08789,7.0879 l 0,56.6914 c 0,3.926 3.1619,7.0879 7.08789,7.0879 l 574.01563,0 c 3.92598,0 7.08594,-3.1619 7.08594,-7.0879 l 0,-56.6914 c 0,-3.926 -3.15996,-7.0879 -7.08594,-7.0879 l -35.43359,0 0,35.4336 -10.63086,0 0,-35.4336 -112.5,0 0,35.4336 -10.62891,0 0,-35.4336 -112.5,0 0,35.4336 -10.63086,0 0,-35.4336 -112.5,0 0,35.4336 -10.6289,0 0,-35.4336 -112.50001,0 0,35.4336 -10.63086,0 0,-35.4336 -35.43164,0 z"
       id="rect6990-2-3-5" />
    <path
       inkscape:connector-curvature="0"
       style="opacity:1;fill:#008080;fill-opacity:1;fill-rule:nonzero;stroke:#000000;stroke-width:0.35433072;stroke-miterlimit:4;stroke-dasharray:none;stroke-dashoffset:3.32759953;stroke-opacity:1"
       d="m -289.82036,1429.4407 c -3.92599,0 -7.08789,3.1619 -7.08789,7.0879 l 0,56.6914 c 0,3.926 3.1619,7.0879 7.08789,7.0879 l 574.01563,0 c 3.92599,0 7.08594,-3.1619 7.08594,-7.0879 l 0,-56.6914 c 0,-3.926 -3.15996,-7.0879 -7.08594,-7.0879 l -35.43359,0 0,35.4336 -10.63086,0 0,-35.4336 -112.5,0 0,35.4336 -10.62891,0 0,-35.4336 -112.5,0 0,35.4336 -10.63086,0 0,-35.4336 -112.5,0 0,35.4336 -10.6289,0 0,-35.4336 -112.50001,0 0,35.4336 -10.63086,0 0,-35.4336 -35.43164,0 z"
       id="rect6990-2-3-0" />
    <path
       inkscape:connector-curvature="0"
       style="opacity:1;fill:#008080;fill-opacity:1;fill-rule:nonzero;stroke:#000000;stroke-width:0.35433072;stroke-miterlimit:4;stroke-dasharray:none;stroke-dashoffset:3.32759953;stroke-opacity:1"
       d="m -289.82036,1506.3079 c -3.92599,0 -7.08789,3.1619 -7.08789,7.0879 l 0,56.6914 c 0,3.926 3.1619,7.0879 7.08789,7.0879 l 574.01563,0 c 3.92598,0 7.08594,-3.1619 7.08594,-7.0879 l 0,-56.6914 c 0,-3.926 -3.15996,-7.0879 -7.08594,-7.0879 l -35.43359,0 0,35.4336 -10.63086,0 0,-35.4336 -112.50001,0 0,35.4336 -10.62891,0 0,-35.4336 -112.49999,0 0,35.4336 -10.63086,0 0,-35.4336 -112.5,0 0,35.4336 -10.6289,0 0,-35.4336 -112.50001,0 0,35.4336 -10.63086,0 0,-35.4336 -35.43164,0 z"
       id="rect6990-2-3-2" />
    <path
       inkscape:connector-curvature="0"
       style="opacity:1;fill:#008080;fill-opacity:1;fill-rule:nonzero;stroke:#000000;stroke-width:0.35433072;stroke-miterlimit:4;stroke-dasharray:none;stroke-dashoffset:3.32759953;stroke-opacity:1"
       d="m -289.82036,1583.1751 c -3.92599,0 -7.08789,3.1619 -7.08789,7.0879 l 0,56.6914 c 0,3.926 3.1619,7.0879 7.08789,7.0879 l 574.01563,0 c 3.92598,0 7.08594,-3.1619 7.08594,-7.0879 l 0,-56.6914 c 0,-3.926 -3.15996,-7.0879 -7.08594,-7.0879 l -35.43359,0 0,35.4336 -10.63086,0 0,-35.4336 -112.5,0 0,35.4336 -10.62891,0 0,-35.4336 -112.5,0 0,35.4336 -10.63086,0 0,-35.4336 -112.5,0 0,35.4336 -10.6289,0 0,-35.4336 -112.50001,0 0,35.4336 -10.63086,0 0,-35.4336 -35.43164,0 z"
       id="rect6990-2-3-3" />
    <path
       style="opacity:1;fill:#008080;fill-opacity:1;fill-rule:nonzero;stroke:#000000;stroke-width:0.35433072;stroke-miterlimit:4;stroke-dasharray:none;stroke-dashoffset:3.32759953;stroke-opacity:1"
       d="m 654.63283,1271.7109 c -3.92598,0 -7.08789,3.1619 -7.08789,7.0879 l 0,56.6934 c 0,3.926 3.16191,7.0859 7.08789,7.0859 l 574.01567,0 c 3.926,0 7.0859,-3.1599 7.0859,-7.0859 l 0,-56.6934 c 0,-3.926 -3.1599,-7.0879 -7.0859,-7.0879 l -51.3242,0 0,35.4336 -10.6289,0 0,-35.4336 -142.9493,0 0,35.4336 -10.6308,0 0,-35.4336 -142.94926,0 0,35.4336 -10.63086,0 0,-35.4336 -142.94922,0 0,35.4336 -10.63086,0 0,-35.4336 -51.32227,0 z"
       id="rect6990-2"
       inkscape:connector-curvature="0" />
    <path
       style="opacity:1;fill:#008080;fill-opacity:1;fill-rule:nonzero;stroke:#000000;stroke-width:0.35433072;stroke-miterlimit:4;stroke-dasharray:none;stroke-dashoffset:3.32759953;stroke-opacity:1"
       d="m 654.63283,1360.4402 c -3.92598,0 -7.08789,3.1619 -7.08789,7.0879 l 0,56.6934 c 0,3.926 3.16191,7.0859 7.08789,7.0859 l 574.01567,0 c 3.926,0 7.0859,-3.1599 7.0859,-7.0859 l 0,-56.6934 c 0,-3.926 -3.1599,-7.0879 -7.0859,-7.0879 l -51.3242,0 0,35.4336 -10.6289,0 0,-35.4336 -142.9493,0 0,35.4336 -10.6308,0 0,-35.4336 -142.94926,0 0,35.4336 -10.63086,0 0,-35.4336 -142.94922,0 0,35.4336 -10.63086,0 0,-35.4336 -51.32227,0 z"
       id="rect6990-2-4"
       inkscape:connector-curvature="0" />
    <path
       style="opacity:1;fill:#008080;fill-opacity:1;fill-rule:nonzero;stroke:#000000;stroke-width:0.35433072;stroke-miterlimit:4;stroke-dasharray:none;stroke-dashoffset:3.32759953;stroke-opacity:1"
       d="m 654.63283,1449.1693 c -3.92598,0 -7.08789,3.1619 -7.08789,7.0879 l 0,56.6934 c 0,3.926 3.16191,7.0859 7.08789,7.0859 l 574.01567,0 c 3.926,0 7.0859,-3.1599 7.0859,-7.0859 l 0,-56.6934 c 0,-3.926 -3.1599,-7.0879 -7.0859,-7.0879 l -51.3242,0 0,35.4336 -10.6289,0 0,-35.4336 -142.9493,0 0,35.4336 -10.6308,0 0,-35.4336 -142.94926,0 0,35.4336 -10.63086,0 0,-35.4336 -142.94922,0 0,35.4336 -10.63086,0 0,-35.4336 -51.32227,0 z"
       id="rect6990-2-41"
       inkscape:connector-curvature="0" />
    <path
       style="opacity:1;fill:#008080;fill-opacity:1;fill-rule:nonzero;stroke:#000000;stroke-width:0.35433072;stroke-miterlimit:4;stroke-dasharray:none;stroke-dashoffset:3.32759953;stroke-opacity:1"
       d="m 654.63283,1537.8986 c -3.92598,0 -7.08789,3.1619 -7.08789,7.0879 l 0,56.6934 c 0,3.926 3.16191,7.0859 7.08789,7.0859 l 574.01567,0 c 3.926,0 7.0859,-3.1599 7.0859,-7.0859 l 0,-56.6934 c 0,-3.926 -3.1599,-7.0879 -7.0859,-7.0879 l -51.3242,0 0,35.4336 -10.6289,0 0,-35.4336 -142.9493,0 0,35.4336 -10.6308,0 0,-35.4336 -142.94926,0 0,35.4336 -10.63086,0 0,-35.4336 -142.94922,0 0,35.4336 -10.63086,0 0,-35.4336 -51.32227,0 z"
       id="rect6990-2-8"
       inkscape:connector-curvature="0" />
    <path
       style="opacity:1;fill:#008080;fill-opacity:1;fill-rule:nonzero;stroke:#000000;stroke-width:0.35433072;stroke-miterlimit:4;stroke-dasharray:none;stroke-dashoffset:3.32759953;stroke-opacity:1"
       d="m 654.63283,1626.6278 c -3.92598,0 -7.08789,3.1619 -7.08789,7.0879 l 0,56.6934 c 0,3.926 3.16191,7.0859 7.08789,7.0859 l 574.01567,0 c 3.926,0 7.0859,-3.1599 7.0859,-7.0859 l 0,-56.6934 c 0,-3.926 -3.1599,-7.0879 -7.0859,-7.0879 l -51.3242,0 0,35.4336 -10.6289,0 0,-35.4336 -142.9493,0 0,35.4336 -10.6308,0 0,-35.4336 -142.94926,0 0,35.4336 -10.63086,0 0,-35.4336 -142.94922,0 0,35.4336 -10.63086,0 0,-35.4336 -51.32227,0 z"
       id="rect6990-2-9"
       inkscape:connector-curvature="0" />
  </g>
</svg>
