<?xml version="1.0" standalone="no"?>
<!DOCTYPE svg PUBLIC "-//W3C//DTD SVG 1.1//EN" "http://www.w3.org/Graphics/SVG/1.1/DTD/svg11.dtd">
<svg width="150mm" height="150mm" viewBox="0 -150 150 150" xmlns="http://www.w3.org/2000/svg" version="1.1">
<title>OpenSCAD Model</title>
<path d="
M 9,-7 L 9,-0 L 12,-0 L 12,-7 L 13,-7 L 13,-0
 L 16,-0 L 16,-7 L 17,-7 L 17,-0 L 20,-0 L 20,-7
 L 21,-7 L 21,-0 L 24,-0 L 24,-7 L 25,-7 L 25,-0
 L 28,-0 L 28,-7 L 29,-7 L 29,-0 L 32,-0 L 32,-7
 L 33,-7 L 33,-0 L 36,-0 L 36,-7 L 37,-7 L 37,-0
 L 40,-0 L 40,-7 L 41,-7 L 41,-0 L 44,-0 L 44,-7
 L 45,-7 L 45,-0 L 48,-0 L 48,-7 L 49,-7 L 49,-0
 L 52,-0 L 52,-7 L 53,-7 L 53,-0 L 56,-0 L 56,-7
 L 57,-7 L 57,-0 L 60,-0 L 60,-7 L 61,-7 L 61,-0
 L 64,-0 L 64,-7 L 65,-7 L 65,-0 L 68,-0 L 68,-7
 L 69,-7 L 69,-0 L 72,-0 L 72,-7 L 73,-7 L 73,-0
 L 76,-0 L 76,-7 L 77,-7 L 77,-0 L 80,-0 L 80,-7
 L 81,-7 L 81,-0 L 84,-0 L 84,-7 L 85,-7 L 85,-0
 L 88,-0 L 88,-7 L 89,-7 L 89,-0 L 92,-0 L 92,-7
 L 93,-7 L 93,-0 L 96,-0 L 96,-7 L 97,-7 L 97,-0
 L 100,-0 L 100,-7 L 101,-7 L 101,-0 L 104,-0 L 104,-7
 L 105,-7 L 105,-0 L 108,-0 L 108,-7 L 109,-7 L 109,-0
 L 112,-0 L 112,-7 L 113,-7 L 113,-0 L 116,-0 L 116,-7
 L 117,-7 L 117,-0 L 120,-0 L 120,-7 L 121,-7 L 121,-0
 L 124,-0 L 124,-7 L 125,-7 L 125,-0 L 128,-0 L 128,-7
 L 129,-7 L 129,-0 L 132,-0 L 132,-7 L 133,-7 L 133,-0
 L 136,-0 L 136,-7 L 137,-7 L 137,-0 L 140,-0 L 140,-7
 L 141,-7 L 141,-0 L 145,-0 L 146.913,-0.380602 L 148.536,-1.46447 L 149.619,-3.08658
 L 150,-5 L 150,-145 L 149.619,-146.913 L 148.536,-148.536 L 146.913,-149.619 L 145,-150
 L 141,-150 L 141,-143 L 140,-143 L 140,-150 L 137,-150 L 137,-143
 L 136,-143 L 136,-150 L 133,-150 L 133,-143 L 132,-143 L 132,-150
 L 129,-150 L 129,-143 L 128,-143 L 128,-150 L 125,-150 L 125,-143
 L 124,-143 L 124,-150 L 121,-150 L 121,-143 L 120,-143 L 120,-150
 L 117,-150 L 117,-143 L 116,-143 L 116,-150 L 113,-150 L 113,-143
 L 112,-143 L 112,-150 L 109,-150 L 109,-143 L 108,-143 L 108,-150
 L 105,-150 L 105,-143 L 104,-143 L 104,-150 L 101,-150 L 101,-143
 L 100,-143 L 100,-150 L 97,-150 L 97,-143 L 96,-143 L 96,-150
 L 93,-150 L 93,-143 L 92,-143 L 92,-150 L 89,-150 L 89,-143
 L 88,-143 L 88,-150 L 85,-150 L 85,-143 L 84,-143 L 84,-150
 L 81,-150 L 81,-143 L 80,-143 L 80,-150 L 77,-150 L 77,-143
 L 76,-143 L 76,-150 L 73,-150 L 73,-143 L 72,-143 L 72,-150
 L 69,-150 L 69,-143 L 68,-143 L 68,-150 L 65,-150 L 65,-143
 L 64,-143 L 64,-150 L 61,-150 L 61,-143 L 60,-143 L 60,-150
 L 57,-150 L 57,-143 L 56,-143 L 56,-150 L 53,-150 L 53,-143
 L 52,-143 L 52,-150 L 49,-150 L 49,-143 L 48,-143 L 48,-150
 L 45,-150 L 45,-143 L 44,-143 L 44,-150 L 41,-150 L 41,-143
 L 40,-143 L 40,-150 L 37,-150 L 37,-143 L 36,-143 L 36,-150
 L 33,-150 L 33,-143 L 32,-143 L 32,-150 L 29,-150 L 29,-143
 L 28,-143 L 28,-150 L 25,-150 L 25,-143 L 24,-143 L 24,-150
 L 21,-150 L 21,-143 L 20,-143 L 20,-150 L 17,-150 L 17,-143
 L 16,-143 L 16,-150 L 13,-150 L 13,-143 L 12,-143 L 12,-150
 L 9,-150 L 9,-143 L 8,-143 L 8,-150 L 5,-150 L 3.08658,-149.619
 L 1.46447,-148.536 L 0.380602,-146.913 L 0,-145 L 0,-5 L 0.380602,-3.08658 L 1.46447,-1.46447
 L 3.08658,-0.380602 L 5,-0 L 8,-0 L 8,-7 z
" stroke="black" fill="lightgray" stroke-width="0.5"/>
</svg>
