<?xml version="1.0" standalone="no"?>
<!DOCTYPE svg PUBLIC "-//W3C//DTD SVG 1.1//EN" "http://www.w3.org/Graphics/SVG/1.1/DTD/svg11.dtd">
<svg width="100mm" height="150mm" viewBox="0 -150 100 150" xmlns="http://www.w3.org/2000/svg" version="1.1">
<title>OpenSCAD Model</title>
<path d="
M 12,-7 L 12,-0 L 15,-0 L 15,-7 L 18,-7 L 18,-0
 L 21,-0 L 21,-7 L 24,-7 L 24,-0 L 27,-0 L 27,-7
 L 30,-7 L 30,-0 L 33,-0 L 33,-7 L 36,-7 L 36,-0
 L 39,-0 L 39,-7 L 42,-7 L 42,-0 L 45,-0 L 45,-7
 L 48,-7 L 48,-0 L 51,-0 L 51,-7 L 54,-7 L 54,-0
 L 57,-0 L 57,-7 L 60,-7 L 60,-0 L 63,-0 L 63,-7
 L 66,-7 L 66,-0 L 69,-0 L 69,-7 L 72,-7 L 72,-0
 L 75,-0 L 75,-7 L 78,-7 L 78,-0 L 81,-0 L 81,-7
 L 84,-7 L 84,-0 L 87,-0 L 87,-7 L 90,-7 L 90,-0
 L 100,-0 L 100,-150 L 90,-150 L 90,-143 L 87,-143 L 87,-150
 L 84,-150 L 84,-143 L 81,-143 L 81,-150 L 78,-150 L 78,-143
 L 75,-143 L 75,-150 L 72,-150 L 72,-143 L 69,-143 L 69,-150
 L 66,-150 L 66,-143 L 63,-143 L 63,-150 L 60,-150 L 60,-143
 L 57,-143 L 57,-150 L 54,-150 L 54,-143 L 51,-143 L 51,-150
 L 48,-150 L 48,-143 L 45,-143 L 45,-150 L 42,-150 L 42,-143
 L 39,-143 L 39,-150 L 36,-150 L 36,-143 L 33,-143 L 33,-150
 L 30,-150 L 30,-143 L 27,-143 L 27,-150 L 24,-150 L 24,-143
 L 21,-143 L 21,-150 L 18,-150 L 18,-143 L 15,-143 L 15,-150
 L 12,-150 L 12,-143 L 9,-143 L 9,-150 L 0,-150 L 0,-0
 L 9,-0 L 9,-7 z
" stroke="black" fill="lightgray" stroke-width="0.5"/>
</svg>
