<?xml version="1.0" standalone="no"?>
<!DOCTYPE svg PUBLIC "-//W3C//DTD SVG 1.1//EN" "http://www.w3.org/Graphics/SVG/1.1/DTD/svg11.dtd">
<svg width="150mm" height="200mm" viewBox="0 -200 150 200" xmlns="http://www.w3.org/2000/svg" version="1.1">
<title>OpenSCAD Model</title>
<path d="
M 14,-9 L 14,-0 L 18,-0 L 18,-9 L 22,-9 L 22,-0
 L 26,-0 L 26,-9 L 30,-9 L 30,-0 L 34,-0 L 34,-9
 L 38,-9 L 38,-0 L 42,-0 L 42,-9 L 46,-9 L 46,-0
 L 50,-0 L 50,-9 L 54,-9 L 54,-0 L 58,-0 L 58,-9
 L 62,-9 L 62,-0 L 66,-0 L 66,-9 L 70,-9 L 70,-0
 L 74,-0 L 74,-9 L 78,-9 L 78,-0 L 82,-0 L 82,-9
 L 86,-9 L 86,-0 L 90,-0 L 90,-9 L 94,-9 L 94,-0
 L 98,-0 L 98,-9 L 102,-9 L 102,-0 L 106,-0 L 106,-9
 L 110,-9 L 110,-0 L 114,-0 L 114,-9 L 118,-9 L 118,-0
 L 122,-0 L 122,-9 L 126,-9 L 126,-0 L 130,-0 L 130,-9
 L 134,-9 L 134,-0 L 138,-0 L 138,-9 L 142,-9 L 142,-0
 L 150,-0 L 150,-200 L 142,-200 L 142,-191 L 138,-191 L 138,-200
 L 134,-200 L 134,-191 L 130,-191 L 130,-200 L 126,-200 L 126,-191
 L 122,-191 L 122,-200 L 118,-200 L 118,-191 L 114,-191 L 114,-200
 L 110,-200 L 110,-191 L 106,-191 L 106,-200 L 102,-200 L 102,-191
 L 98,-191 L 98,-200 L 94,-200 L 94,-191 L 90,-191 L 90,-200
 L 86,-200 L 86,-191 L 82,-191 L 82,-200 L 78,-200 L 78,-191
 L 74,-191 L 74,-200 L 70,-200 L 70,-191 L 66,-191 L 66,-200
 L 62,-200 L 62,-191 L 58,-191 L 58,-200 L 54,-200 L 54,-191
 L 50,-191 L 50,-200 L 46,-200 L 46,-191 L 42,-191 L 42,-200
 L 38,-200 L 38,-191 L 34,-191 L 34,-200 L 30,-200 L 30,-191
 L 26,-191 L 26,-200 L 22,-200 L 22,-191 L 18,-191 L 18,-200
 L 14,-200 L 14,-191 L 10,-191 L 10,-200 L 0,-200 L 0,-0
 L 10,-0 L 10,-9 z
" stroke="black" fill="lightgray" stroke-width="0.5"/>
</svg>
