<?xml version="1.0" standalone="no"?>
<!DOCTYPE svg PUBLIC "-//W3C//DTD SVG 1.1//EN" "http://www.w3.org/Graphics/SVG/1.1/DTD/svg11.dtd">
<svg width="445mm" height="541mm" viewBox="0 -541 445 541" xmlns="http://www.w3.org/2000/svg" version="1.1">
<title>OpenSCAD Model</title>
<path d="
M 221.2,-540.8 L 114,-540.8 L 114,-433.6 L 221.2,-433.6 z
M 18.9455,-428.81 L 27.0909,-428.81 L 27.0909,-425.21 L 35.2364,-425.21 L 35.2364,-428.81 L 43.3818,-428.81
 L 43.3818,-425.21 L 51.5273,-425.21 L 51.5273,-428.81 L 59.6727,-428.81 L 59.6727,-425.21 L 67.8182,-425.21
 L 67.8182,-428.81 L 75.9636,-428.81 L 75.9636,-425.21 L 84.1091,-425.21 L 84.1091,-428.81 L 92.2545,-428.81
 L 92.2545,-425.21 L 100.4,-425.21 L 100.4,-428.81 L 107.6,-428.81 L 107.6,-439.61 L 111.2,-439.61
 L 111.2,-447.101 L 107.6,-447.101 L 107.6,-454.592 L 111.2,-454.592 L 111.2,-462.083 L 107.6,-462.083
 L 107.6,-469.574 L 111.2,-469.574 L 111.2,-477.065 L 107.6,-477.065 L 107.6,-484.555 L 111.2,-484.555
 L 111.2,-492.046 L 107.6,-492.046 L 107.6,-499.537 L 111.2,-499.537 L 111.2,-507.028 L 107.6,-507.028
 L 107.6,-514.519 L 111.2,-514.519 L 111.2,-522.01 L 107.6,-522.01 L 107.6,-532.81 L 100.4,-532.81
 L 100.4,-536.41 L 92.2545,-536.41 L 92.2545,-532.81 L 84.1091,-532.81 L 84.1091,-536.41 L 75.9636,-536.41
 L 75.9636,-532.81 L 67.8182,-532.81 L 67.8182,-536.41 L 59.6727,-536.41 L 59.6727,-532.81 L 51.5273,-532.81
 L 51.5273,-536.41 L 43.3818,-536.41 L 43.3818,-532.81 L 35.2364,-532.81 L 35.2364,-536.41 L 27.0909,-536.41
 L 27.0909,-532.81 L 18.9455,-532.81 L 18.9455,-536.41 L 10.8,-536.41 L 10.8,-532.81 L 3.6,-532.81
 L 3.6,-522.01 L 0,-522.01 L 0,-514.519 L 3.6,-514.519 L 3.6,-507.028 L 0,-507.028
 L 0,-499.537 L 3.6,-499.537 L 3.6,-492.046 L 0,-492.046 L 0,-484.555 L 3.6,-484.555
 L 3.6,-477.065 L 0,-477.065 L 0,-469.574 L 3.6,-469.574 L 3.6,-462.083 L 0,-462.083
 L 0,-454.592 L 3.6,-454.592 L 3.6,-447.101 L 0,-447.101 L 0,-439.61 L 3.6,-439.61
 L 3.6,-428.81 L 10.8,-428.81 L 10.8,-425.21 L 18.9455,-425.21 z
M 111.2,-410.8 L 107.6,-410.8 L 107.6,-418 L 111.2,-418 L 111.2,-425.2 L 0,-425.2
 L 0,-418 L 3.6,-418 L 3.6,-410.8 L 0,-410.8 L 0,-403.6 L 111.2,-403.6
 z
M 10.8,-417.99 L 10.8,-421.6 L 18.9455,-421.6 L 18.9455,-417.99 z
M 27.0909,-417.99 L 27.0909,-421.6 L 35.2364,-421.6 L 35.2364,-417.99 z
M 43.3818,-417.99 L 43.3818,-421.6 L 51.5273,-421.6 L 51.5273,-417.99 z
M 59.6727,-417.99 L 59.6727,-421.6 L 67.8182,-421.6 L 67.8182,-417.99 z
M 75.9636,-417.99 L 75.9636,-421.6 L 84.1091,-421.6 L 84.1091,-417.99 z
M 92.2545,-417.99 L 92.2545,-421.6 L 100.4,-421.6 L 100.4,-417.99 z
M 330.02,-410.8 L 333.62,-410.8 L 333.62,-418 L 330.02,-418 L 330.02,-425.2 L 226.02,-425.2
 L 226.02,-418 L 222.42,-418 L 222.42,-410.8 L 226.02,-410.8 L 226.02,-403.6 L 330.02,-403.6
 z
M 296.747,-417.99 L 296.747,-421.6 L 304.238,-421.6 L 304.238,-417.99 z
M 311.729,-417.99 L 311.729,-421.6 L 319.22,-421.6 L 319.22,-417.99 z
M 266.784,-417.99 L 266.784,-421.6 L 274.275,-421.6 L 274.275,-417.99 z
M 251.802,-417.99 L 251.802,-421.6 L 259.293,-421.6 L 259.293,-417.99 z
M 236.82,-417.99 L 236.82,-421.6 L 244.311,-421.6 L 244.311,-417.99 z
M 281.765,-417.99 L 281.765,-421.6 L 289.256,-421.6 L 289.256,-417.99 z
M 222.41,-410.8 L 218.81,-410.8 L 218.81,-418 L 222.41,-418 L 222.41,-425.2 L 111.21,-425.2
 L 111.21,-418 L 114.81,-418 L 114.81,-410.8 L 111.21,-410.8 L 111.21,-403.6 L 222.41,-403.6
 z
M 122.01,-417.99 L 122.01,-421.6 L 130.155,-421.6 L 130.155,-417.99 z
M 187.174,-417.99 L 187.174,-421.6 L 195.319,-421.6 L 195.319,-417.99 z
M 203.465,-417.99 L 203.465,-421.6 L 211.61,-421.6 L 211.61,-417.99 z
M 170.883,-417.99 L 170.883,-421.6 L 179.028,-421.6 L 179.028,-417.99 z
M 154.592,-417.99 L 154.592,-421.6 L 162.737,-421.6 L 162.737,-417.99 z
M 138.301,-417.99 L 138.301,-421.6 L 146.446,-421.6 L 146.446,-417.99 z
M 441.23,-410.8 L 444.83,-410.8 L 444.83,-418 L 441.23,-418 L 441.23,-425.2 L 337.23,-425.2
 L 337.23,-418 L 333.63,-418 L 333.63,-410.8 L 337.23,-410.8 L 337.23,-403.6 L 441.23,-403.6
 z
M 407.957,-417.99 L 407.957,-421.6 L 415.448,-421.6 L 415.448,-417.99 z
M 392.975,-417.99 L 392.975,-421.6 L 400.466,-421.6 L 400.466,-417.99 z
M 377.994,-417.99 L 377.994,-421.6 L 385.485,-421.6 L 385.485,-417.99 z
M 363.012,-417.99 L 363.012,-421.6 L 370.503,-421.6 L 370.503,-417.99 z
M 348.03,-417.99 L 348.03,-421.6 L 355.521,-421.6 L 355.521,-417.99 z
M 422.939,-417.99 L 422.939,-421.6 L 430.43,-421.6 L 430.43,-417.99 z
M 19.5111,-303.61 L 28.2222,-303.61 L 28.2222,-300.01 L 36.9333,-300.01 L 36.9333,-303.61 L 45.6444,-303.61
 L 45.6444,-300.01 L 54.3556,-300.01 L 54.3556,-303.61 L 63.0667,-303.61 L 63.0667,-300.01 L 71.7778,-300.01
 L 71.7778,-303.61 L 80.4889,-303.61 L 80.4889,-300.01 L 89.2,-300.01 L 89.2,-303.61 L 96.4,-303.61
 L 96.4,-314.41 L 100,-314.41 L 100,-322.321 L 96.4,-322.321 L 96.4,-330.232 L 100,-330.232
 L 100,-338.143 L 96.4,-338.143 L 96.4,-346.054 L 100,-346.054 L 100,-353.966 L 96.4,-353.966
 L 96.4,-361.877 L 100,-361.877 L 100,-369.788 L 96.4,-369.788 L 96.4,-377.699 L 100,-377.699
 L 100,-385.61 L 96.4,-385.61 L 96.4,-396.41 L 89.2,-396.41 L 89.2,-400.01 L 80.4889,-400.01
 L 80.4889,-396.41 L 71.7778,-396.41 L 71.7778,-400.01 L 63.0667,-400.01 L 63.0667,-396.41 L 54.3556,-396.41
 L 54.3556,-400.01 L 45.6444,-400.01 L 45.6444,-396.41 L 36.9333,-396.41 L 36.9333,-400.01 L 28.2222,-400.01
 L 28.2222,-396.41 L 19.5111,-396.41 L 19.5111,-400.01 L 10.8,-400.01 L 10.8,-396.41 L 3.6,-396.41
 L 3.6,-385.61 L 0,-385.61 L 0,-377.699 L 3.6,-377.699 L 3.6,-369.788 L 0,-369.788
 L 0,-361.877 L 3.6,-361.877 L 3.6,-353.966 L 0,-353.966 L 0,-346.054 L 3.6,-346.054
 L 3.6,-338.143 L 0,-338.143 L 0,-330.232 L 3.6,-330.232 L 3.6,-322.321 L 0,-322.321
 L 0,-314.41 L 3.6,-314.41 L 3.6,-303.61 L 10.8,-303.61 L 10.8,-300.01 L 19.5111,-300.01
 z
M 200.01,-10.8 L 196.41,-10.8 L 196.41,-18.3243 L 200.01,-18.3243 L 200.01,-25.8486 L 196.41,-25.8486
 L 196.41,-33.373 L 200.01,-33.373 L 200.01,-40.8973 L 196.41,-40.8973 L 196.41,-48.4216 L 200.01,-48.4216
 L 200.01,-55.9459 L 196.41,-55.9459 L 196.41,-63.4703 L 200.01,-63.4703 L 200.01,-70.9946 L 196.41,-70.9946
 L 196.41,-78.5189 L 200.01,-78.5189 L 200.01,-86.0432 L 196.41,-86.0432 L 196.41,-93.5676 L 200.01,-93.5676
 L 200.01,-101.092 L 196.41,-101.092 L 196.41,-108.616 L 200.01,-108.616 L 200.01,-116.141 L 196.41,-116.141
 L 196.41,-123.665 L 200.01,-123.665 L 200.01,-131.189 L 196.41,-131.189 L 196.41,-138.714 L 200.01,-138.714
 L 200.01,-146.238 L 196.41,-146.238 L 196.41,-153.762 L 200.01,-153.762 L 200.01,-161.286 L 196.41,-161.286
 L 196.41,-168.811 L 200.01,-168.811 L 200.01,-176.335 L 196.41,-176.335 L 196.41,-183.859 L 200.01,-183.859
 L 200.01,-191.384 L 196.41,-191.384 L 196.41,-198.908 L 200.01,-198.908 L 200.01,-206.432 L 196.41,-206.432
 L 196.41,-213.957 L 200.01,-213.957 L 200.01,-221.481 L 196.41,-221.481 L 196.41,-229.005 L 200.01,-229.005
 L 200.01,-236.53 L 196.41,-236.53 L 196.41,-244.054 L 200.01,-244.054 L 200.01,-251.578 L 196.41,-251.578
 L 196.41,-259.103 L 200.01,-259.103 L 200.01,-266.627 L 196.41,-266.627 L 196.41,-274.151 L 200.01,-274.151
 L 200.01,-281.676 L 196.41,-281.676 L 196.41,-289.2 L 200.01,-289.2 L 200.01,-300 L 100.01,-300
 L 100.01,-289.2 L 103.61,-289.2 L 103.61,-281.676 L 100.01,-281.676 L 100.01,-274.151 L 103.61,-274.151
 L 103.61,-266.627 L 100.01,-266.627 L 100.01,-259.103 L 103.61,-259.103 L 103.61,-251.578 L 100.01,-251.578
 L 100.01,-244.054 L 103.61,-244.054 L 103.61,-236.53 L 100.01,-236.53 L 100.01,-229.005 L 103.61,-229.005
 L 103.61,-221.481 L 100.01,-221.481 L 100.01,-213.957 L 103.61,-213.957 L 103.61,-206.432 L 100.01,-206.432
 L 100.01,-198.908 L 103.61,-198.908 L 103.61,-191.384 L 100.01,-191.384 L 100.01,-183.859 L 103.61,-183.859
 L 103.61,-176.335 L 100.01,-176.335 L 100.01,-168.811 L 103.61,-168.811 L 103.61,-161.286 L 100.01,-161.286
 L 100.01,-153.762 L 103.61,-153.762 L 103.61,-146.238 L 100.01,-146.238 L 100.01,-138.714 L 103.61,-138.714
 L 103.61,-131.189 L 100.01,-131.189 L 100.01,-123.665 L 103.61,-123.665 L 103.61,-116.141 L 100.01,-116.141
 L 100.01,-108.616 L 103.61,-108.616 L 103.61,-101.092 L 100.01,-101.092 L 100.01,-93.5676 L 103.61,-93.5676
 L 103.61,-86.0432 L 100.01,-86.0432 L 100.01,-78.5189 L 103.61,-78.5189 L 103.61,-70.9946 L 100.01,-70.9946
 L 100.01,-63.4703 L 103.61,-63.4703 L 103.61,-55.9459 L 100.01,-55.9459 L 100.01,-48.4216 L 103.61,-48.4216
 L 103.61,-40.8973 L 100.01,-40.8973 L 100.01,-33.373 L 103.61,-33.373 L 103.61,-25.8486 L 100.01,-25.8486
 L 100.01,-18.3243 L 103.61,-18.3243 L 103.61,-10.8 L 100.01,-10.8 L 100.01,-0 L 200.01,-0
 z
M 110.81,-7.19 L 110.81,-10.8 L 119.521,-10.8 L 119.521,-7.19 z
M 180.499,-7.19 L 180.499,-10.8 L 189.21,-10.8 L 189.21,-7.19 z
M 163.077,-7.19 L 163.077,-10.8 L 171.788,-10.8 L 171.788,-7.19 z
M 128.232,-7.19 L 128.232,-10.8 L 136.943,-10.8 L 136.943,-7.19 z
M 145.654,-7.19 L 145.654,-10.8 L 154.366,-10.8 L 154.366,-7.19 z
M 396.43,-10.8 L 400.03,-10.8 L 400.03,-18.3243 L 396.43,-18.3243 L 396.43,-25.8486 L 400.03,-25.8486
 L 400.03,-33.373 L 396.43,-33.373 L 396.43,-40.8973 L 400.03,-40.8973 L 400.03,-48.4216 L 396.43,-48.4216
 L 396.43,-55.9459 L 400.03,-55.9459 L 400.03,-63.4703 L 396.43,-63.4703 L 396.43,-70.9946 L 400.03,-70.9946
 L 400.03,-78.5189 L 396.43,-78.5189 L 396.43,-86.0432 L 400.03,-86.0432 L 400.03,-93.5676 L 396.43,-93.5676
 L 396.43,-101.092 L 400.03,-101.092 L 400.03,-108.616 L 396.43,-108.616 L 396.43,-116.141 L 400.03,-116.141
 L 400.03,-123.665 L 396.43,-123.665 L 396.43,-131.189 L 400.03,-131.189 L 400.03,-138.714 L 396.43,-138.714
 L 396.43,-146.238 L 400.03,-146.238 L 400.03,-153.762 L 396.43,-153.762 L 396.43,-161.286 L 400.03,-161.286
 L 400.03,-168.811 L 396.43,-168.811 L 396.43,-176.335 L 400.03,-176.335 L 400.03,-183.859 L 396.43,-183.859
 L 396.43,-191.384 L 400.03,-191.384 L 400.03,-198.908 L 396.43,-198.908 L 396.43,-206.432 L 400.03,-206.432
 L 400.03,-213.957 L 396.43,-213.957 L 396.43,-221.481 L 400.03,-221.481 L 400.03,-229.005 L 396.43,-229.005
 L 396.43,-236.53 L 400.03,-236.53 L 400.03,-244.054 L 396.43,-244.054 L 396.43,-251.578 L 400.03,-251.578
 L 400.03,-259.103 L 396.43,-259.103 L 396.43,-266.627 L 400.03,-266.627 L 400.03,-274.151 L 396.43,-274.151
 L 396.43,-281.676 L 400.03,-281.676 L 400.03,-289.2 L 396.43,-289.2 L 396.43,-300 L 303.63,-300
 L 303.63,-289.2 L 300.03,-289.2 L 300.03,-281.676 L 303.63,-281.676 L 303.63,-274.151 L 300.03,-274.151
 L 300.03,-266.627 L 303.63,-266.627 L 303.63,-259.103 L 300.03,-259.103 L 300.03,-251.578 L 303.63,-251.578
 L 303.63,-244.054 L 300.03,-244.054 L 300.03,-236.53 L 303.63,-236.53 L 303.63,-229.005 L 300.03,-229.005
 L 300.03,-221.481 L 303.63,-221.481 L 303.63,-213.957 L 300.03,-213.957 L 300.03,-206.432 L 303.63,-206.432
 L 303.63,-198.908 L 300.03,-198.908 L 300.03,-191.384 L 303.63,-191.384 L 303.63,-183.859 L 300.03,-183.859
 L 300.03,-176.335 L 303.63,-176.335 L 303.63,-168.811 L 300.03,-168.811 L 300.03,-161.286 L 303.63,-161.286
 L 303.63,-153.762 L 300.03,-153.762 L 300.03,-146.238 L 303.63,-146.238 L 303.63,-138.714 L 300.03,-138.714
 L 300.03,-131.189 L 303.63,-131.189 L 303.63,-123.665 L 300.03,-123.665 L 300.03,-116.141 L 303.63,-116.141
 L 303.63,-108.616 L 300.03,-108.616 L 300.03,-101.092 L 303.63,-101.092 L 303.63,-93.5676 L 300.03,-93.5676
 L 300.03,-86.0432 L 303.63,-86.0432 L 303.63,-78.5189 L 300.03,-78.5189 L 300.03,-70.9946 L 303.63,-70.9946
 L 303.63,-63.4703 L 300.03,-63.4703 L 300.03,-55.9459 L 303.63,-55.9459 L 303.63,-48.4216 L 300.03,-48.4216
 L 300.03,-40.8973 L 303.63,-40.8973 L 303.63,-33.373 L 300.03,-33.373 L 300.03,-25.8486 L 303.63,-25.8486
 L 303.63,-18.3243 L 300.03,-18.3243 L 300.03,-10.8 L 303.63,-10.8 L 303.63,-0 L 396.43,-0
 z
M 346.074,-7.19 L 346.074,-10.8 L 353.986,-10.8 L 353.986,-7.19 z
M 377.719,-7.19 L 377.719,-10.8 L 385.63,-10.8 L 385.63,-7.19 z
M 361.897,-7.19 L 361.897,-10.8 L 369.808,-10.8 L 369.808,-7.19 z
M 330.252,-7.19 L 330.252,-10.8 L 338.163,-10.8 L 338.163,-7.19 z
M 314.43,-7.19 L 314.43,-10.8 L 322.341,-10.8 L 322.341,-7.19 z
M 296.42,-10.8 L 300.02,-10.8 L 300.02,-18.3243 L 296.42,-18.3243 L 296.42,-25.8486 L 300.02,-25.8486
 L 300.02,-33.373 L 296.42,-33.373 L 296.42,-40.8973 L 300.02,-40.8973 L 300.02,-48.4216 L 296.42,-48.4216
 L 296.42,-55.9459 L 300.02,-55.9459 L 300.02,-63.4703 L 296.42,-63.4703 L 296.42,-70.9946 L 300.02,-70.9946
 L 300.02,-78.5189 L 296.42,-78.5189 L 296.42,-86.0432 L 300.02,-86.0432 L 300.02,-93.5676 L 296.42,-93.5676
 L 296.42,-101.092 L 300.02,-101.092 L 300.02,-108.616 L 296.42,-108.616 L 296.42,-116.141 L 300.02,-116.141
 L 300.02,-123.665 L 296.42,-123.665 L 296.42,-131.189 L 300.02,-131.189 L 300.02,-138.714 L 296.42,-138.714
 L 296.42,-146.238 L 300.02,-146.238 L 300.02,-153.762 L 296.42,-153.762 L 296.42,-161.286 L 300.02,-161.286
 L 300.02,-168.811 L 296.42,-168.811 L 296.42,-176.335 L 300.02,-176.335 L 300.02,-183.859 L 296.42,-183.859
 L 296.42,-191.384 L 300.02,-191.384 L 300.02,-198.908 L 296.42,-198.908 L 296.42,-206.432 L 300.02,-206.432
 L 300.02,-213.957 L 296.42,-213.957 L 296.42,-221.481 L 300.02,-221.481 L 300.02,-229.005 L 296.42,-229.005
 L 296.42,-236.53 L 300.02,-236.53 L 300.02,-244.054 L 296.42,-244.054 L 296.42,-251.578 L 300.02,-251.578
 L 300.02,-259.103 L 296.42,-259.103 L 296.42,-266.627 L 300.02,-266.627 L 300.02,-274.151 L 296.42,-274.151
 L 296.42,-281.676 L 300.02,-281.676 L 300.02,-289.2 L 296.42,-289.2 L 296.42,-300 L 203.62,-300
 L 203.62,-289.2 L 200.02,-289.2 L 200.02,-281.676 L 203.62,-281.676 L 203.62,-274.151 L 200.02,-274.151
 L 200.02,-266.627 L 203.62,-266.627 L 203.62,-259.103 L 200.02,-259.103 L 200.02,-251.578 L 203.62,-251.578
 L 203.62,-244.054 L 200.02,-244.054 L 200.02,-236.53 L 203.62,-236.53 L 203.62,-229.005 L 200.02,-229.005
 L 200.02,-221.481 L 203.62,-221.481 L 203.62,-213.957 L 200.02,-213.957 L 200.02,-206.432 L 203.62,-206.432
 L 203.62,-198.908 L 200.02,-198.908 L 200.02,-191.384 L 203.62,-191.384 L 203.62,-183.859 L 200.02,-183.859
 L 200.02,-176.335 L 203.62,-176.335 L 203.62,-168.811 L 200.02,-168.811 L 200.02,-161.286 L 203.62,-161.286
 L 203.62,-153.762 L 200.02,-153.762 L 200.02,-146.238 L 203.62,-146.238 L 203.62,-138.714 L 200.02,-138.714
 L 200.02,-131.189 L 203.62,-131.189 L 203.62,-123.665 L 200.02,-123.665 L 200.02,-116.141 L 203.62,-116.141
 L 203.62,-108.616 L 200.02,-108.616 L 200.02,-101.092 L 203.62,-101.092 L 203.62,-93.5676 L 200.02,-93.5676
 L 200.02,-86.0432 L 203.62,-86.0432 L 203.62,-78.5189 L 200.02,-78.5189 L 200.02,-70.9946 L 203.62,-70.9946
 L 203.62,-63.4703 L 200.02,-63.4703 L 200.02,-55.9459 L 203.62,-55.9459 L 203.62,-48.4216 L 200.02,-48.4216
 L 200.02,-40.8973 L 203.62,-40.8973 L 203.62,-33.373 L 200.02,-33.373 L 200.02,-25.8486 L 203.62,-25.8486
 L 203.62,-18.3243 L 200.02,-18.3243 L 200.02,-10.8 L 203.62,-10.8 L 203.62,-0 L 296.42,-0
 z
M 277.709,-7.19 L 277.709,-10.8 L 285.62,-10.8 L 285.62,-7.19 z
M 246.064,-7.19 L 246.064,-10.8 L 253.976,-10.8 L 253.976,-7.19 z
M 261.887,-7.19 L 261.887,-10.8 L 269.798,-10.8 L 269.798,-7.19 z
M 230.242,-7.19 L 230.242,-10.8 L 238.153,-10.8 L 238.153,-7.19 z
M 214.42,-7.19 L 214.42,-10.8 L 222.331,-10.8 L 222.331,-7.19 z
M 100,-10.8 L 96.4,-10.8 L 96.4,-18.3243 L 100,-18.3243 L 100,-25.8486 L 96.4,-25.8486
 L 96.4,-33.373 L 100,-33.373 L 100,-40.8973 L 96.4,-40.8973 L 96.4,-48.4216 L 100,-48.4216
 L 100,-55.9459 L 96.4,-55.9459 L 96.4,-63.4703 L 100,-63.4703 L 100,-70.9946 L 96.4,-70.9946
 L 96.4,-78.5189 L 100,-78.5189 L 100,-86.0432 L 96.4,-86.0432 L 96.4,-93.5676 L 100,-93.5676
 L 100,-101.092 L 96.4,-101.092 L 96.4,-108.616 L 100,-108.616 L 100,-116.141 L 96.4,-116.141
 L 96.4,-123.665 L 100,-123.665 L 100,-131.189 L 96.4,-131.189 L 96.4,-138.714 L 100,-138.714
 L 100,-146.238 L 96.4,-146.238 L 96.4,-153.762 L 100,-153.762 L 100,-161.286 L 96.4,-161.286
 L 96.4,-168.811 L 100,-168.811 L 100,-176.335 L 96.4,-176.335 L 96.4,-183.859 L 100,-183.859
 L 100,-191.384 L 96.4,-191.384 L 96.4,-198.908 L 100,-198.908 L 100,-206.432 L 96.4,-206.432
 L 96.4,-213.957 L 100,-213.957 L 100,-221.481 L 96.4,-221.481 L 96.4,-229.005 L 100,-229.005
 L 100,-236.53 L 96.4,-236.53 L 96.4,-244.054 L 100,-244.054 L 100,-251.578 L 96.4,-251.578
 L 96.4,-259.103 L 100,-259.103 L 100,-266.627 L 96.4,-266.627 L 96.4,-274.151 L 100,-274.151
 L 100,-281.676 L 96.4,-281.676 L 96.4,-289.2 L 100,-289.2 L 100,-300 L 0,-300
 L 0,-289.2 L 3.6,-289.2 L 3.6,-281.676 L 0,-281.676 L 0,-274.151 L 3.6,-274.151
 L 3.6,-266.627 L 0,-266.627 L 0,-259.103 L 3.6,-259.103 L 3.6,-251.578 L 0,-251.578
 L 0,-244.054 L 3.6,-244.054 L 3.6,-236.53 L 0,-236.53 L 0,-229.005 L 3.6,-229.005
 L 3.6,-221.481 L 0,-221.481 L 0,-213.957 L 3.6,-213.957 L 3.6,-206.432 L 0,-206.432
 L 0,-198.908 L 3.6,-198.908 L 3.6,-191.384 L 0,-191.384 L 0,-183.859 L 3.6,-183.859
 L 3.6,-176.335 L 0,-176.335 L 0,-168.811 L 3.6,-168.811 L 3.6,-161.286 L 0,-161.286
 L 0,-153.762 L 3.6,-153.762 L 3.6,-146.238 L 0,-146.238 L 0,-138.714 L 3.6,-138.714
 L 3.6,-131.189 L 0,-131.189 L 0,-123.665 L 3.6,-123.665 L 3.6,-116.141 L 0,-116.141
 L 0,-108.616 L 3.6,-108.616 L 3.6,-101.092 L 0,-101.092 L 0,-93.5676 L 3.6,-93.5676
 L 3.6,-86.0432 L 0,-86.0432 L 0,-78.5189 L 3.6,-78.5189 L 3.6,-70.9946 L 0,-70.9946
 L 0,-63.4703 L 3.6,-63.4703 L 3.6,-55.9459 L 0,-55.9459 L 0,-48.4216 L 3.6,-48.4216
 L 3.6,-40.8973 L 0,-40.8973 L 0,-33.373 L 3.6,-33.373 L 3.6,-25.8486 L 0,-25.8486
 L 0,-18.3243 L 3.6,-18.3243 L 3.6,-10.8 L 0,-10.8 L 0,-0 L 100,-0
 z
M 10.8,-7.19 L 10.8,-10.8 L 19.5111,-10.8 L 19.5111,-7.19 z
M 80.4889,-7.19 L 80.4889,-10.8 L 89.2,-10.8 L 89.2,-7.19 z
M 63.0667,-7.19 L 63.0667,-10.8 L 71.7778,-10.8 L 71.7778,-7.19 z
M 45.6444,-7.19 L 45.6444,-10.8 L 54.3556,-10.8 L 54.3556,-7.19 z
M 28.2222,-7.19 L 28.2222,-10.8 L 36.9333,-10.8 L 36.9333,-7.19 z
" stroke="black" fill="lightgray" stroke-width="0.5"/>
</svg>
