999
DXF from OpenSCAD
  0
SECTION
  2
HEADER
  9
$ACADVER
  1
AC1006
  9
$INSBASE
 10
0.0
 20
0.0
 30
0.0
  9
$EXTMIN
 10
0
 20
0
  9
$EXTMAX
 10
444.83
 20
540.8
  9
$LINMIN
 10
0
 20
0
  9
$LINMAX
 10
444.83
 20
540.8
  0
ENDSEC
  0
SECTION
  2
TABLES
  0
TABLE
  2
LTYPE
 70
1
  0
LTYPE
  2
CONTINUOUS
 70
64
  3
Solid line
 72
65
 73
0
 40
0.000000
  0
ENDTAB
  0
TABLE
  2
LAYER
 70
6
  0
LAYER
  2
0
 70
64
 62
7
  6
CONTINUOUS
  0
ENDTAB
  0
TABLE
  2
STYLE
 70
0
  0
ENDTAB
  0
ENDSEC
  0
SECTION
  2
BLOCKS
  0
ENDSEC
  0
SECTION
  2
ENTITIES
  0
LWPOLYLINE
100
AcDbEntity
  8
0
100
AcDbPolyline
 90
4
 70
1
 10
221.2
 20
540.8
 10
114
 20
540.8
 10
114
 20
433.6
 10
221.2
 20
433.6
  0
LWPOLYLINE
100
AcDbEntity
  8
0
100
AcDbPolyline
 90
100
 70
1
 10
18.9455
 20
428.81
 10
27.0909
 20
428.81
 10
27.0909
 20
425.21
 10
35.2364
 20
425.21
 10
35.2364
 20
428.81
 10
43.3818
 20
428.81
 10
43.3818
 20
425.21
 10
51.5273
 20
425.21
 10
51.5273
 20
428.81
 10
59.6727
 20
428.81
 10
59.6727
 20
425.21
 10
67.8182
 20
425.21
 10
67.8182
 20
428.81
 10
75.9636
 20
428.81
 10
75.9636
 20
425.21
 10
84.1091
 20
425.21
 10
84.1091
 20
428.81
 10
92.2545
 20
428.81
 10
92.2545
 20
425.21
 10
100.4
 20
425.21
 10
100.4
 20
428.81
 10
107.6
 20
428.81
 10
107.6
 20
439.61
 10
111.2
 20
439.61
 10
111.2
 20
447.101
 10
107.6
 20
447.101
 10
107.6
 20
454.592
 10
111.2
 20
454.592
 10
111.2
 20
462.083
 10
107.6
 20
462.083
 10
107.6
 20
469.574
 10
111.2
 20
469.574
 10
111.2
 20
477.065
 10
107.6
 20
477.065
 10
107.6
 20
484.555
 10
111.2
 20
484.555
 10
111.2
 20
492.046
 10
107.6
 20
492.046
 10
107.6
 20
499.537
 10
111.2
 20
499.537
 10
111.2
 20
507.028
 10
107.6
 20
507.028
 10
107.6
 20
514.519
 10
111.2
 20
514.519
 10
111.2
 20
522.01
 10
107.6
 20
522.01
 10
107.6
 20
532.81
 10
100.4
 20
532.81
 10
100.4
 20
536.41
 10
92.2545
 20
536.41
 10
92.2545
 20
532.81
 10
84.1091
 20
532.81
 10
84.1091
 20
536.41
 10
75.9636
 20
536.41
 10
75.9636
 20
532.81
 10
67.8182
 20
532.81
 10
67.8182
 20
536.41
 10
59.6727
 20
536.41
 10
59.6727
 20
532.81
 10
51.5273
 20
532.81
 10
51.5273
 20
536.41
 10
43.3818
 20
536.41
 10
43.3818
 20
532.81
 10
35.2364
 20
532.81
 10
35.2364
 20
536.41
 10
27.0909
 20
536.41
 10
27.0909
 20
532.81
 10
18.9455
 20
532.81
 10
18.9455
 20
536.41
 10
10.8
 20
536.41
 10
10.8
 20
532.81
 10
3.6
 20
532.81
 10
3.6
 20
522.01
 10
0
 20
522.01
 10
0
 20
514.519
 10
3.6
 20
514.519
 10
3.6
 20
507.028
 10
0
 20
507.028
 10
0
 20
499.537
 10
3.6
 20
499.537
 10
3.6
 20
492.046
 10
0
 20
492.046
 10
0
 20
484.555
 10
3.6
 20
484.555
 10
3.6
 20
477.065
 10
0
 20
477.065
 10
0
 20
469.574
 10
3.6
 20
469.574
 10
3.6
 20
462.083
 10
0
 20
462.083
 10
0
 20
454.592
 10
3.6
 20
454.592
 10
3.6
 20
447.101
 10
0
 20
447.101
 10
0
 20
439.61
 10
3.6
 20
439.61
 10
3.6
 20
428.81
 10
10.8
 20
428.81
 10
10.8
 20
425.21
 10
18.9455
 20
425.21
  0
LWPOLYLINE
100
AcDbEntity
  8
0
100
AcDbPolyline
 90
12
 70
1
 10
111.2
 20
410.8
 10
107.6
 20
410.8
 10
107.6
 20
418
 10
111.2
 20
418
 10
111.2
 20
425.2
 10
0
 20
425.2
 10
0
 20
418
 10
3.6
 20
418
 10
3.6
 20
410.8
 10
0
 20
410.8
 10
0
 20
403.6
 10
111.2
 20
403.6
  0
LWPOLYLINE
100
AcDbEntity
  8
0
100
AcDbPolyline
 90
4
 70
1
 10
10.8
 20
417.99
 10
10.8
 20
421.6
 10
18.9455
 20
421.6
 10
18.9455
 20
417.99
  0
LWPOLYLINE
100
AcDbEntity
  8
0
100
AcDbPolyline
 90
4
 70
1
 10
27.0909
 20
417.99
 10
27.0909
 20
421.6
 10
35.2364
 20
421.6
 10
35.2364
 20
417.99
  0
LWPOLYLINE
100
AcDbEntity
  8
0
100
AcDbPolyline
 90
4
 70
1
 10
43.3818
 20
417.99
 10
43.3818
 20
421.6
 10
51.5273
 20
421.6
 10
51.5273
 20
417.99
  0
LWPOLYLINE
100
AcDbEntity
  8
0
100
AcDbPolyline
 90
4
 70
1
 10
59.6727
 20
417.99
 10
59.6727
 20
421.6
 10
67.8182
 20
421.6
 10
67.8182
 20
417.99
  0
LWPOLYLINE
100
AcDbEntity
  8
0
100
AcDbPolyline
 90
4
 70
1
 10
75.9636
 20
417.99
 10
75.9636
 20
421.6
 10
84.1091
 20
421.6
 10
84.1091
 20
417.99
  0
LWPOLYLINE
100
AcDbEntity
  8
0
100
AcDbPolyline
 90
4
 70
1
 10
92.2545
 20
417.99
 10
92.2545
 20
421.6
 10
100.4
 20
421.6
 10
100.4
 20
417.99
  0
LWPOLYLINE
100
AcDbEntity
  8
0
100
AcDbPolyline
 90
12
 70
1
 10
330.02
 20
410.8
 10
333.62
 20
410.8
 10
333.62
 20
418
 10
330.02
 20
418
 10
330.02
 20
425.2
 10
226.02
 20
425.2
 10
226.02
 20
418
 10
222.42
 20
418
 10
222.42
 20
410.8
 10
226.02
 20
410.8
 10
226.02
 20
403.6
 10
330.02
 20
403.6
  0
LWPOLYLINE
100
AcDbEntity
  8
0
100
AcDbPolyline
 90
4
 70
1
 10
296.747
 20
417.99
 10
296.747
 20
421.6
 10
304.238
 20
421.6
 10
304.238
 20
417.99
  0
LWPOLYLINE
100
AcDbEntity
  8
0
100
AcDbPolyline
 90
4
 70
1
 10
311.729
 20
417.99
 10
311.729
 20
421.6
 10
319.22
 20
421.6
 10
319.22
 20
417.99
  0
LWPOLYLINE
100
AcDbEntity
  8
0
100
AcDbPolyline
 90
4
 70
1
 10
266.784
 20
417.99
 10
266.784
 20
421.6
 10
274.275
 20
421.6
 10
274.275
 20
417.99
  0
LWPOLYLINE
100
AcDbEntity
  8
0
100
AcDbPolyline
 90
4
 70
1
 10
251.802
 20
417.99
 10
251.802
 20
421.6
 10
259.293
 20
421.6
 10
259.293
 20
417.99
  0
LWPOLYLINE
100
AcDbEntity
  8
0
100
AcDbPolyline
 90
4
 70
1
 10
236.82
 20
417.99
 10
236.82
 20
421.6
 10
244.311
 20
421.6
 10
244.311
 20
417.99
  0
LWPOLYLINE
100
AcDbEntity
  8
0
100
AcDbPolyline
 90
4
 70
1
 10
281.765
 20
417.99
 10
281.765
 20
421.6
 10
289.256
 20
421.6
 10
289.256
 20
417.99
  0
LWPOLYLINE
100
AcDbEntity
  8
0
100
AcDbPolyline
 90
12
 70
1
 10
222.41
 20
410.8
 10
218.81
 20
410.8
 10
218.81
 20
418
 10
222.41
 20
418
 10
222.41
 20
425.2
 10
111.21
 20
425.2
 10
111.21
 20
418
 10
114.81
 20
418
 10
114.81
 20
410.8
 10
111.21
 20
410.8
 10
111.21
 20
403.6
 10
222.41
 20
403.6
  0
LWPOLYLINE
100
AcDbEntity
  8
0
100
AcDbPolyline
 90
4
 70
1
 10
122.01
 20
417.99
 10
122.01
 20
421.6
 10
130.155
 20
421.6
 10
130.155
 20
417.99
  0
LWPOLYLINE
100
AcDbEntity
  8
0
100
AcDbPolyline
 90
4
 70
1
 10
187.174
 20
417.99
 10
187.174
 20
421.6
 10
195.319
 20
421.6
 10
195.319
 20
417.99
  0
LWPOLYLINE
100
AcDbEntity
  8
0
100
AcDbPolyline
 90
4
 70
1
 10
203.465
 20
417.99
 10
203.465
 20
421.6
 10
211.61
 20
421.6
 10
211.61
 20
417.99
  0
LWPOLYLINE
100
AcDbEntity
  8
0
100
AcDbPolyline
 90
4
 70
1
 10
170.883
 20
417.99
 10
170.883
 20
421.6
 10
179.028
 20
421.6
 10
179.028
 20
417.99
  0
LWPOLYLINE
100
AcDbEntity
  8
0
100
AcDbPolyline
 90
4
 70
1
 10
154.592
 20
417.99
 10
154.592
 20
421.6
 10
162.737
 20
421.6
 10
162.737
 20
417.99
  0
LWPOLYLINE
100
AcDbEntity
  8
0
100
AcDbPolyline
 90
4
 70
1
 10
138.301
 20
417.99
 10
138.301
 20
421.6
 10
146.446
 20
421.6
 10
146.446
 20
417.99
  0
LWPOLYLINE
100
AcDbEntity
  8
0
100
AcDbPolyline
 90
12
 70
1
 10
441.23
 20
410.8
 10
444.83
 20
410.8
 10
444.83
 20
418
 10
441.23
 20
418
 10
441.23
 20
425.2
 10
337.23
 20
425.2
 10
337.23
 20
418
 10
333.63
 20
418
 10
333.63
 20
410.8
 10
337.23
 20
410.8
 10
337.23
 20
403.6
 10
441.23
 20
403.6
  0
LWPOLYLINE
100
AcDbEntity
  8
0
100
AcDbPolyline
 90
4
 70
1
 10
407.957
 20
417.99
 10
407.957
 20
421.6
 10
415.448
 20
421.6
 10
415.448
 20
417.99
  0
LWPOLYLINE
100
AcDbEntity
  8
0
100
AcDbPolyline
 90
4
 70
1
 10
392.975
 20
417.99
 10
392.975
 20
421.6
 10
400.466
 20
421.6
 10
400.466
 20
417.99
  0
LWPOLYLINE
100
AcDbEntity
  8
0
100
AcDbPolyline
 90
4
 70
1
 10
377.994
 20
417.99
 10
377.994
 20
421.6
 10
385.485
 20
421.6
 10
385.485
 20
417.99
  0
LWPOLYLINE
100
AcDbEntity
  8
0
100
AcDbPolyline
 90
4
 70
1
 10
363.012
 20
417.99
 10
363.012
 20
421.6
 10
370.503
 20
421.6
 10
370.503
 20
417.99
  0
LWPOLYLINE
100
AcDbEntity
  8
0
100
AcDbPolyline
 90
4
 70
1
 10
348.03
 20
417.99
 10
348.03
 20
421.6
 10
355.521
 20
421.6
 10
355.521
 20
417.99
  0
LWPOLYLINE
100
AcDbEntity
  8
0
100
AcDbPolyline
 90
4
 70
1
 10
422.939
 20
417.99
 10
422.939
 20
421.6
 10
430.43
 20
421.6
 10
430.43
 20
417.99
  0
LWPOLYLINE
100
AcDbEntity
  8
0
100
AcDbPolyline
 90
84
 70
1
 10
19.5111
 20
303.61
 10
28.2222
 20
303.61
 10
28.2222
 20
300.01
 10
36.9333
 20
300.01
 10
36.9333
 20
303.61
 10
45.6444
 20
303.61
 10
45.6444
 20
300.01
 10
54.3556
 20
300.01
 10
54.3556
 20
303.61
 10
63.0667
 20
303.61
 10
63.0667
 20
300.01
 10
71.7778
 20
300.01
 10
71.7778
 20
303.61
 10
80.4889
 20
303.61
 10
80.4889
 20
300.01
 10
89.2
 20
300.01
 10
89.2
 20
303.61
 10
96.4
 20
303.61
 10
96.4
 20
314.41
 10
100
 20
314.41
 10
100
 20
322.321
 10
96.4
 20
322.321
 10
96.4
 20
330.232
 10
100
 20
330.232
 10
100
 20
338.143
 10
96.4
 20
338.143
 10
96.4
 20
346.054
 10
100
 20
346.054
 10
100
 20
353.966
 10
96.4
 20
353.966
 10
96.4
 20
361.877
 10
100
 20
361.877
 10
100
 20
369.788
 10
96.4
 20
369.788
 10
96.4
 20
377.699
 10
100
 20
377.699
 10
100
 20
385.61
 10
96.4
 20
385.61
 10
96.4
 20
396.41
 10
89.2
 20
396.41
 10
89.2
 20
400.01
 10
80.4889
 20
400.01
 10
80.4889
 20
396.41
 10
71.7778
 20
396.41
 10
71.7778
 20
400.01
 10
63.0667
 20
400.01
 10
63.0667
 20
396.41
 10
54.3556
 20
396.41
 10
54.3556
 20
400.01
 10
45.6444
 20
400.01
 10
45.6444
 20
396.41
 10
36.9333
 20
396.41
 10
36.9333
 20
400.01
 10
28.2222
 20
400.01
 10
28.2222
 20
396.41
 10
19.5111
 20
396.41
 10
19.5111
 20
400.01
 10
10.8
 20
400.01
 10
10.8
 20
396.41
 10
3.6
 20
396.41
 10
3.6
 20
385.61
 10
0
 20
385.61
 10
0
 20
377.699
 10
3.6
 20
377.699
 10
3.6
 20
369.788
 10
0
 20
369.788
 10
0
 20
361.877
 10
3.6
 20
361.877
 10
3.6
 20
353.966
 10
0
 20
353.966
 10
0
 20
346.054
 10
3.6
 20
346.054
 10
3.6
 20
338.143
 10
0
 20
338.143
 10
0
 20
330.232
 10
3.6
 20
330.232
 10
3.6
 20
322.321
 10
0
 20
322.321
 10
0
 20
314.41
 10
3.6
 20
314.41
 10
3.6
 20
303.61
 10
10.8
 20
303.61
 10
10.8
 20
300.01
 10
19.5111
 20
300.01
  0
LWPOLYLINE
100
AcDbEntity
  8
0
100
AcDbPolyline
 90
156
 70
1
 10
200.01
 20
10.8
 10
196.41
 20
10.8
 10
196.41
 20
18.3243
 10
200.01
 20
18.3243
 10
200.01
 20
25.8486
 10
196.41
 20
25.8486
 10
196.41
 20
33.373
 10
200.01
 20
33.373
 10
200.01
 20
40.8973
 10
196.41
 20
40.8973
 10
196.41
 20
48.4216
 10
200.01
 20
48.4216
 10
200.01
 20
55.9459
 10
196.41
 20
55.9459
 10
196.41
 20
63.4703
 10
200.01
 20
63.4703
 10
200.01
 20
70.9946
 10
196.41
 20
70.9946
 10
196.41
 20
78.5189
 10
200.01
 20
78.5189
 10
200.01
 20
86.0432
 10
196.41
 20
86.0432
 10
196.41
 20
93.5676
 10
200.01
 20
93.5676
 10
200.01
 20
101.092
 10
196.41
 20
101.092
 10
196.41
 20
108.616
 10
200.01
 20
108.616
 10
200.01
 20
116.141
 10
196.41
 20
116.141
 10
196.41
 20
123.665
 10
200.01
 20
123.665
 10
200.01
 20
131.189
 10
196.41
 20
131.189
 10
196.41
 20
138.714
 10
200.01
 20
138.714
 10
200.01
 20
146.238
 10
196.41
 20
146.238
 10
196.41
 20
153.762
 10
200.01
 20
153.762
 10
200.01
 20
161.286
 10
196.41
 20
161.286
 10
196.41
 20
168.811
 10
200.01
 20
168.811
 10
200.01
 20
176.335
 10
196.41
 20
176.335
 10
196.41
 20
183.859
 10
200.01
 20
183.859
 10
200.01
 20
191.384
 10
196.41
 20
191.384
 10
196.41
 20
198.908
 10
200.01
 20
198.908
 10
200.01
 20
206.432
 10
196.41
 20
206.432
 10
196.41
 20
213.957
 10
200.01
 20
213.957
 10
200.01
 20
221.481
 10
196.41
 20
221.481
 10
196.41
 20
229.005
 10
200.01
 20
229.005
 10
200.01
 20
236.53
 10
196.41
 20
236.53
 10
196.41
 20
244.054
 10
200.01
 20
244.054
 10
200.01
 20
251.578
 10
196.41
 20
251.578
 10
196.41
 20
259.103
 10
200.01
 20
259.103
 10
200.01
 20
266.627
 10
196.41
 20
266.627
 10
196.41
 20
274.151
 10
200.01
 20
274.151
 10
200.01
 20
281.676
 10
196.41
 20
281.676
 10
196.41
 20
289.2
 10
200.01
 20
289.2
 10
200.01
 20
300
 10
100.01
 20
300
 10
100.01
 20
289.2
 10
103.61
 20
289.2
 10
103.61
 20
281.676
 10
100.01
 20
281.676
 10
100.01
 20
274.151
 10
103.61
 20
274.151
 10
103.61
 20
266.627
 10
100.01
 20
266.627
 10
100.01
 20
259.103
 10
103.61
 20
259.103
 10
103.61
 20
251.578
 10
100.01
 20
251.578
 10
100.01
 20
244.054
 10
103.61
 20
244.054
 10
103.61
 20
236.53
 10
100.01
 20
236.53
 10
100.01
 20
229.005
 10
103.61
 20
229.005
 10
103.61
 20
221.481
 10
100.01
 20
221.481
 10
100.01
 20
213.957
 10
103.61
 20
213.957
 10
103.61
 20
206.432
 10
100.01
 20
206.432
 10
100.01
 20
198.908
 10
103.61
 20
198.908
 10
103.61
 20
191.384
 10
100.01
 20
191.384
 10
100.01
 20
183.859
 10
103.61
 20
183.859
 10
103.61
 20
176.335
 10
100.01
 20
176.335
 10
100.01
 20
168.811
 10
103.61
 20
168.811
 10
103.61
 20
161.286
 10
100.01
 20
161.286
 10
100.01
 20
153.762
 10
103.61
 20
153.762
 10
103.61
 20
146.238
 10
100.01
 20
146.238
 10
100.01
 20
138.714
 10
103.61
 20
138.714
 10
103.61
 20
131.189
 10
100.01
 20
131.189
 10
100.01
 20
123.665
 10
103.61
 20
123.665
 10
103.61
 20
116.141
 10
100.01
 20
116.141
 10
100.01
 20
108.616
 10
103.61
 20
108.616
 10
103.61
 20
101.092
 10
100.01
 20
101.092
 10
100.01
 20
93.5676
 10
103.61
 20
93.5676
 10
103.61
 20
86.0432
 10
100.01
 20
86.0432
 10
100.01
 20
78.5189
 10
103.61
 20
78.5189
 10
103.61
 20
70.9946
 10
100.01
 20
70.9946
 10
100.01
 20
63.4703
 10
103.61
 20
63.4703
 10
103.61
 20
55.9459
 10
100.01
 20
55.9459
 10
100.01
 20
48.4216
 10
103.61
 20
48.4216
 10
103.61
 20
40.8973
 10
100.01
 20
40.8973
 10
100.01
 20
33.373
 10
103.61
 20
33.373
 10
103.61
 20
25.8486
 10
100.01
 20
25.8486
 10
100.01
 20
18.3243
 10
103.61
 20
18.3243
 10
103.61
 20
10.8
 10
100.01
 20
10.8
 10
100.01
 20
0
 10
200.01
 20
0
  0
LWPOLYLINE
100
AcDbEntity
  8
0
100
AcDbPolyline
 90
4
 70
1
 10
110.81
 20
7.19
 10
110.81
 20
10.8
 10
119.521
 20
10.8
 10
119.521
 20
7.19
  0
LWPOLYLINE
100
AcDbEntity
  8
0
100
AcDbPolyline
 90
4
 70
1
 10
180.499
 20
7.19
 10
180.499
 20
10.8
 10
189.21
 20
10.8
 10
189.21
 20
7.19
  0
LWPOLYLINE
100
AcDbEntity
  8
0
100
AcDbPolyline
 90
4
 70
1
 10
163.077
 20
7.19
 10
163.077
 20
10.8
 10
171.788
 20
10.8
 10
171.788
 20
7.19
  0
LWPOLYLINE
100
AcDbEntity
  8
0
100
AcDbPolyline
 90
4
 70
1
 10
128.232
 20
7.19
 10
128.232
 20
10.8
 10
136.943
 20
10.8
 10
136.943
 20
7.19
  0
LWPOLYLINE
100
AcDbEntity
  8
0
100
AcDbPolyline
 90
4
 70
1
 10
145.654
 20
7.19
 10
145.654
 20
10.8
 10
154.366
 20
10.8
 10
154.366
 20
7.19
  0
LWPOLYLINE
100
AcDbEntity
  8
0
100
AcDbPolyline
 90
156
 70
1
 10
396.43
 20
10.8
 10
400.03
 20
10.8
 10
400.03
 20
18.3243
 10
396.43
 20
18.3243
 10
396.43
 20
25.8486
 10
400.03
 20
25.8486
 10
400.03
 20
33.373
 10
396.43
 20
33.373
 10
396.43
 20
40.8973
 10
400.03
 20
40.8973
 10
400.03
 20
48.4216
 10
396.43
 20
48.4216
 10
396.43
 20
55.9459
 10
400.03
 20
55.9459
 10
400.03
 20
63.4703
 10
396.43
 20
63.4703
 10
396.43
 20
70.9946
 10
400.03
 20
70.9946
 10
400.03
 20
78.5189
 10
396.43
 20
78.5189
 10
396.43
 20
86.0432
 10
400.03
 20
86.0432
 10
400.03
 20
93.5676
 10
396.43
 20
93.5676
 10
396.43
 20
101.092
 10
400.03
 20
101.092
 10
400.03
 20
108.616
 10
396.43
 20
108.616
 10
396.43
 20
116.141
 10
400.03
 20
116.141
 10
400.03
 20
123.665
 10
396.43
 20
123.665
 10
396.43
 20
131.189
 10
400.03
 20
131.189
 10
400.03
 20
138.714
 10
396.43
 20
138.714
 10
396.43
 20
146.238
 10
400.03
 20
146.238
 10
400.03
 20
153.762
 10
396.43
 20
153.762
 10
396.43
 20
161.286
 10
400.03
 20
161.286
 10
400.03
 20
168.811
 10
396.43
 20
168.811
 10
396.43
 20
176.335
 10
400.03
 20
176.335
 10
400.03
 20
183.859
 10
396.43
 20
183.859
 10
396.43
 20
191.384
 10
400.03
 20
191.384
 10
400.03
 20
198.908
 10
396.43
 20
198.908
 10
396.43
 20
206.432
 10
400.03
 20
206.432
 10
400.03
 20
213.957
 10
396.43
 20
213.957
 10
396.43
 20
221.481
 10
400.03
 20
221.481
 10
400.03
 20
229.005
 10
396.43
 20
229.005
 10
396.43
 20
236.53
 10
400.03
 20
236.53
 10
400.03
 20
244.054
 10
396.43
 20
244.054
 10
396.43
 20
251.578
 10
400.03
 20
251.578
 10
400.03
 20
259.103
 10
396.43
 20
259.103
 10
396.43
 20
266.627
 10
400.03
 20
266.627
 10
400.03
 20
274.151
 10
396.43
 20
274.151
 10
396.43
 20
281.676
 10
400.03
 20
281.676
 10
400.03
 20
289.2
 10
396.43
 20
289.2
 10
396.43
 20
300
 10
303.63
 20
300
 10
303.63
 20
289.2
 10
300.03
 20
289.2
 10
300.03
 20
281.676
 10
303.63
 20
281.676
 10
303.63
 20
274.151
 10
300.03
 20
274.151
 10
300.03
 20
266.627
 10
303.63
 20
266.627
 10
303.63
 20
259.103
 10
300.03
 20
259.103
 10
300.03
 20
251.578
 10
303.63
 20
251.578
 10
303.63
 20
244.054
 10
300.03
 20
244.054
 10
300.03
 20
236.53
 10
303.63
 20
236.53
 10
303.63
 20
229.005
 10
300.03
 20
229.005
 10
300.03
 20
221.481
 10
303.63
 20
221.481
 10
303.63
 20
213.957
 10
300.03
 20
213.957
 10
300.03
 20
206.432
 10
303.63
 20
206.432
 10
303.63
 20
198.908
 10
300.03
 20
198.908
 10
300.03
 20
191.384
 10
303.63
 20
191.384
 10
303.63
 20
183.859
 10
300.03
 20
183.859
 10
300.03
 20
176.335
 10
303.63
 20
176.335
 10
303.63
 20
168.811
 10
300.03
 20
168.811
 10
300.03
 20
161.286
 10
303.63
 20
161.286
 10
303.63
 20
153.762
 10
300.03
 20
153.762
 10
300.03
 20
146.238
 10
303.63
 20
146.238
 10
303.63
 20
138.714
 10
300.03
 20
138.714
 10
300.03
 20
131.189
 10
303.63
 20
131.189
 10
303.63
 20
123.665
 10
300.03
 20
123.665
 10
300.03
 20
116.141
 10
303.63
 20
116.141
 10
303.63
 20
108.616
 10
300.03
 20
108.616
 10
300.03
 20
101.092
 10
303.63
 20
101.092
 10
303.63
 20
93.5676
 10
300.03
 20
93.5676
 10
300.03
 20
86.0432
 10
303.63
 20
86.0432
 10
303.63
 20
78.5189
 10
300.03
 20
78.5189
 10
300.03
 20
70.9946
 10
303.63
 20
70.9946
 10
303.63
 20
63.4703
 10
300.03
 20
63.4703
 10
300.03
 20
55.9459
 10
303.63
 20
55.9459
 10
303.63
 20
48.4216
 10
300.03
 20
48.4216
 10
300.03
 20
40.8973
 10
303.63
 20
40.8973
 10
303.63
 20
33.373
 10
300.03
 20
33.373
 10
300.03
 20
25.8486
 10
303.63
 20
25.8486
 10
303.63
 20
18.3243
 10
300.03
 20
18.3243
 10
300.03
 20
10.8
 10
303.63
 20
10.8
 10
303.63
 20
0
 10
396.43
 20
0
  0
LWPOLYLINE
100
AcDbEntity
  8
0
100
AcDbPolyline
 90
4
 70
1
 10
346.074
 20
7.19
 10
346.074
 20
10.8
 10
353.986
 20
10.8
 10
353.986
 20
7.19
  0
LWPOLYLINE
100
AcDbEntity
  8
0
100
AcDbPolyline
 90
4
 70
1
 10
377.719
 20
7.19
 10
377.719
 20
10.8
 10
385.63
 20
10.8
 10
385.63
 20
7.19
  0
LWPOLYLINE
100
AcDbEntity
  8
0
100
AcDbPolyline
 90
4
 70
1
 10
361.897
 20
7.19
 10
361.897
 20
10.8
 10
369.808
 20
10.8
 10
369.808
 20
7.19
  0
LWPOLYLINE
100
AcDbEntity
  8
0
100
AcDbPolyline
 90
4
 70
1
 10
330.252
 20
7.19
 10
330.252
 20
10.8
 10
338.163
 20
10.8
 10
338.163
 20
7.19
  0
LWPOLYLINE
100
AcDbEntity
  8
0
100
AcDbPolyline
 90
4
 70
1
 10
314.43
 20
7.19
 10
314.43
 20
10.8
 10
322.341
 20
10.8
 10
322.341
 20
7.19
  0
LWPOLYLINE
100
AcDbEntity
  8
0
100
AcDbPolyline
 90
156
 70
1
 10
296.42
 20
10.8
 10
300.02
 20
10.8
 10
300.02
 20
18.3243
 10
296.42
 20
18.3243
 10
296.42
 20
25.8486
 10
300.02
 20
25.8486
 10
300.02
 20
33.373
 10
296.42
 20
33.373
 10
296.42
 20
40.8973
 10
300.02
 20
40.8973
 10
300.02
 20
48.4216
 10
296.42
 20
48.4216
 10
296.42
 20
55.9459
 10
300.02
 20
55.9459
 10
300.02
 20
63.4703
 10
296.42
 20
63.4703
 10
296.42
 20
70.9946
 10
300.02
 20
70.9946
 10
300.02
 20
78.5189
 10
296.42
 20
78.5189
 10
296.42
 20
86.0432
 10
300.02
 20
86.0432
 10
300.02
 20
93.5676
 10
296.42
 20
93.5676
 10
296.42
 20
101.092
 10
300.02
 20
101.092
 10
300.02
 20
108.616
 10
296.42
 20
108.616
 10
296.42
 20
116.141
 10
300.02
 20
116.141
 10
300.02
 20
123.665
 10
296.42
 20
123.665
 10
296.42
 20
131.189
 10
300.02
 20
131.189
 10
300.02
 20
138.714
 10
296.42
 20
138.714
 10
296.42
 20
146.238
 10
300.02
 20
146.238
 10
300.02
 20
153.762
 10
296.42
 20
153.762
 10
296.42
 20
161.286
 10
300.02
 20
161.286
 10
300.02
 20
168.811
 10
296.42
 20
168.811
 10
296.42
 20
176.335
 10
300.02
 20
176.335
 10
300.02
 20
183.859
 10
296.42
 20
183.859
 10
296.42
 20
191.384
 10
300.02
 20
191.384
 10
300.02
 20
198.908
 10
296.42
 20
198.908
 10
296.42
 20
206.432
 10
300.02
 20
206.432
 10
300.02
 20
213.957
 10
296.42
 20
213.957
 10
296.42
 20
221.481
 10
300.02
 20
221.481
 10
300.02
 20
229.005
 10
296.42
 20
229.005
 10
296.42
 20
236.53
 10
300.02
 20
236.53
 10
300.02
 20
244.054
 10
296.42
 20
244.054
 10
296.42
 20
251.578
 10
300.02
 20
251.578
 10
300.02
 20
259.103
 10
296.42
 20
259.103
 10
296.42
 20
266.627
 10
300.02
 20
266.627
 10
300.02
 20
274.151
 10
296.42
 20
274.151
 10
296.42
 20
281.676
 10
300.02
 20
281.676
 10
300.02
 20
289.2
 10
296.42
 20
289.2
 10
296.42
 20
300
 10
203.62
 20
300
 10
203.62
 20
289.2
 10
200.02
 20
289.2
 10
200.02
 20
281.676
 10
203.62
 20
281.676
 10
203.62
 20
274.151
 10
200.02
 20
274.151
 10
200.02
 20
266.627
 10
203.62
 20
266.627
 10
203.62
 20
259.103
 10
200.02
 20
259.103
 10
200.02
 20
251.578
 10
203.62
 20
251.578
 10
203.62
 20
244.054
 10
200.02
 20
244.054
 10
200.02
 20
236.53
 10
203.62
 20
236.53
 10
203.62
 20
229.005
 10
200.02
 20
229.005
 10
200.02
 20
221.481
 10
203.62
 20
221.481
 10
203.62
 20
213.957
 10
200.02
 20
213.957
 10
200.02
 20
206.432
 10
203.62
 20
206.432
 10
203.62
 20
198.908
 10
200.02
 20
198.908
 10
200.02
 20
191.384
 10
203.62
 20
191.384
 10
203.62
 20
183.859
 10
200.02
 20
183.859
 10
200.02
 20
176.335
 10
203.62
 20
176.335
 10
203.62
 20
168.811
 10
200.02
 20
168.811
 10
200.02
 20
161.286
 10
203.62
 20
161.286
 10
203.62
 20
153.762
 10
200.02
 20
153.762
 10
200.02
 20
146.238
 10
203.62
 20
146.238
 10
203.62
 20
138.714
 10
200.02
 20
138.714
 10
200.02
 20
131.189
 10
203.62
 20
131.189
 10
203.62
 20
123.665
 10
200.02
 20
123.665
 10
200.02
 20
116.141
 10
203.62
 20
116.141
 10
203.62
 20
108.616
 10
200.02
 20
108.616
 10
200.02
 20
101.092
 10
203.62
 20
101.092
 10
203.62
 20
93.5676
 10
200.02
 20
93.5676
 10
200.02
 20
86.0432
 10
203.62
 20
86.0432
 10
203.62
 20
78.5189
 10
200.02
 20
78.5189
 10
200.02
 20
70.9946
 10
203.62
 20
70.9946
 10
203.62
 20
63.4703
 10
200.02
 20
63.4703
 10
200.02
 20
55.9459
 10
203.62
 20
55.9459
 10
203.62
 20
48.4216
 10
200.02
 20
48.4216
 10
200.02
 20
40.8973
 10
203.62
 20
40.8973
 10
203.62
 20
33.373
 10
200.02
 20
33.373
 10
200.02
 20
25.8486
 10
203.62
 20
25.8486
 10
203.62
 20
18.3243
 10
200.02
 20
18.3243
 10
200.02
 20
10.8
 10
203.62
 20
10.8
 10
203.62
 20
0
 10
296.42
 20
0
  0
LWPOLYLINE
100
AcDbEntity
  8
0
100
AcDbPolyline
 90
4
 70
1
 10
277.709
 20
7.19
 10
277.709
 20
10.8
 10
285.62
 20
10.8
 10
285.62
 20
7.19
  0
LWPOLYLINE
100
AcDbEntity
  8
0
100
AcDbPolyline
 90
4
 70
1
 10
246.064
 20
7.19
 10
246.064
 20
10.8
 10
253.976
 20
10.8
 10
253.976
 20
7.19
  0
LWPOLYLINE
100
AcDbEntity
  8
0
100
AcDbPolyline
 90
4
 70
1
 10
261.887
 20
7.19
 10
261.887
 20
10.8
 10
269.798
 20
10.8
 10
269.798
 20
7.19
  0
LWPOLYLINE
100
AcDbEntity
  8
0
100
AcDbPolyline
 90
4
 70
1
 10
230.242
 20
7.19
 10
230.242
 20
10.8
 10
238.153
 20
10.8
 10
238.153
 20
7.19
  0
LWPOLYLINE
100
AcDbEntity
  8
0
100
AcDbPolyline
 90
4
 70
1
 10
214.42
 20
7.19
 10
214.42
 20
10.8
 10
222.331
 20
10.8
 10
222.331
 20
7.19
  0
LWPOLYLINE
100
AcDbEntity
  8
0
100
AcDbPolyline
 90
156
 70
1
 10
100
 20
10.8
 10
96.4
 20
10.8
 10
96.4
 20
18.3243
 10
100
 20
18.3243
 10
100
 20
25.8486
 10
96.4
 20
25.8486
 10
96.4
 20
33.373
 10
100
 20
33.373
 10
100
 20
40.8973
 10
96.4
 20
40.8973
 10
96.4
 20
48.4216
 10
100
 20
48.4216
 10
100
 20
55.9459
 10
96.4
 20
55.9459
 10
96.4
 20
63.4703
 10
100
 20
63.4703
 10
100
 20
70.9946
 10
96.4
 20
70.9946
 10
96.4
 20
78.5189
 10
100
 20
78.5189
 10
100
 20
86.0432
 10
96.4
 20
86.0432
 10
96.4
 20
93.5676
 10
100
 20
93.5676
 10
100
 20
101.092
 10
96.4
 20
101.092
 10
96.4
 20
108.616
 10
100
 20
108.616
 10
100
 20
116.141
 10
96.4
 20
116.141
 10
96.4
 20
123.665
 10
100
 20
123.665
 10
100
 20
131.189
 10
96.4
 20
131.189
 10
96.4
 20
138.714
 10
100
 20
138.714
 10
100
 20
146.238
 10
96.4
 20
146.238
 10
96.4
 20
153.762
 10
100
 20
153.762
 10
100
 20
161.286
 10
96.4
 20
161.286
 10
96.4
 20
168.811
 10
100
 20
168.811
 10
100
 20
176.335
 10
96.4
 20
176.335
 10
96.4
 20
183.859
 10
100
 20
183.859
 10
100
 20
191.384
 10
96.4
 20
191.384
 10
96.4
 20
198.908
 10
100
 20
198.908
 10
100
 20
206.432
 10
96.4
 20
206.432
 10
96.4
 20
213.957
 10
100
 20
213.957
 10
100
 20
221.481
 10
96.4
 20
221.481
 10
96.4
 20
229.005
 10
100
 20
229.005
 10
100
 20
236.53
 10
96.4
 20
236.53
 10
96.4
 20
244.054
 10
100
 20
244.054
 10
100
 20
251.578
 10
96.4
 20
251.578
 10
96.4
 20
259.103
 10
100
 20
259.103
 10
100
 20
266.627
 10
96.4
 20
266.627
 10
96.4
 20
274.151
 10
100
 20
274.151
 10
100
 20
281.676
 10
96.4
 20
281.676
 10
96.4
 20
289.2
 10
100
 20
289.2
 10
100
 20
300
 10
0
 20
300
 10
0
 20
289.2
 10
3.6
 20
289.2
 10
3.6
 20
281.676
 10
0
 20
281.676
 10
0
 20
274.151
 10
3.6
 20
274.151
 10
3.6
 20
266.627
 10
0
 20
266.627
 10
0
 20
259.103
 10
3.6
 20
259.103
 10
3.6
 20
251.578
 10
0
 20
251.578
 10
0
 20
244.054
 10
3.6
 20
244.054
 10
3.6
 20
236.53
 10
0
 20
236.53
 10
0
 20
229.005
 10
3.6
 20
229.005
 10
3.6
 20
221.481
 10
0
 20
221.481
 10
0
 20
213.957
 10
3.6
 20
213.957
 10
3.6
 20
206.432
 10
0
 20
206.432
 10
0
 20
198.908
 10
3.6
 20
198.908
 10
3.6
 20
191.384
 10
0
 20
191.384
 10
0
 20
183.859
 10
3.6
 20
183.859
 10
3.6
 20
176.335
 10
0
 20
176.335
 10
0
 20
168.811
 10
3.6
 20
168.811
 10
3.6
 20
161.286
 10
0
 20
161.286
 10
0
 20
153.762
 10
3.6
 20
153.762
 10
3.6
 20
146.238
 10
0
 20
146.238
 10
0
 20
138.714
 10
3.6
 20
138.714
 10
3.6
 20
131.189
 10
0
 20
131.189
 10
0
 20
123.665
 10
3.6
 20
123.665
 10
3.6
 20
116.141
 10
0
 20
116.141
 10
0
 20
108.616
 10
3.6
 20
108.616
 10
3.6
 20
101.092
 10
0
 20
101.092
 10
0
 20
93.5676
 10
3.6
 20
93.5676
 10
3.6
 20
86.0432
 10
0
 20
86.0432
 10
0
 20
78.5189
 10
3.6
 20
78.5189
 10
3.6
 20
70.9946
 10
0
 20
70.9946
 10
0
 20
63.4703
 10
3.6
 20
63.4703
 10
3.6
 20
55.9459
 10
0
 20
55.9459
 10
0
 20
48.4216
 10
3.6
 20
48.4216
 10
3.6
 20
40.8973
 10
0
 20
40.8973
 10
0
 20
33.373
 10
3.6
 20
33.373
 10
3.6
 20
25.8486
 10
0
 20
25.8486
 10
0
 20
18.3243
 10
3.6
 20
18.3243
 10
3.6
 20
10.8
 10
0
 20
10.8
 10
0
 20
0
 10
100
 20
0
  0
LWPOLYLINE
100
AcDbEntity
  8
0
100
AcDbPolyline
 90
4
 70
1
 10
10.8
 20
7.19
 10
10.8
 20
10.8
 10
19.5111
 20
10.8
 10
19.5111
 20
7.19
  0
LWPOLYLINE
100
AcDbEntity
  8
0
100
AcDbPolyline
 90
4
 70
1
 10
80.4889
 20
7.19
 10
80.4889
 20
10.8
 10
89.2
 20
10.8
 10
89.2
 20
7.19
  0
LWPOLYLINE
100
AcDbEntity
  8
0
100
AcDbPolyline
 90
4
 70
1
 10
63.0667
 20
7.19
 10
63.0667
 20
10.8
 10
71.7778
 20
10.8
 10
71.7778
 20
7.19
  0
LWPOLYLINE
100
AcDbEntity
  8
0
100
AcDbPolyline
 90
4
 70
1
 10
45.6444
 20
7.19
 10
45.6444
 20
10.8
 10
54.3556
 20
10.8
 10
54.3556
 20
7.19
  0
LWPOLYLINE
100
AcDbEntity
  8
0
100
AcDbPolyline
 90
4
 70
1
 10
28.2222
 20
7.19
 10
28.2222
 20
10.8
 10
36.9333
 20
10.8
 10
36.9333
 20
7.19
  0
ENDSEC
  0
EOF
