solid OpenSCAD_Model
  facet normal -1 0 0
    outer loop
      vertex 0 84 0
      vertex 0 165 4.5
      vertex 0 165 0
    endloop
  endfacet
  facet normal -1 -0 0
    outer loop
      vertex 0 165 4.5
      vertex 0 84 0
      vertex 0 84 4.5
    endloop
  endfacet
  facet normal 0 0 1
    outer loop
      vertex 157.5 165 4.5
      vertex 156 163.5 4.5
      vertex 157.5 84 4.5
    endloop
  endfacet
  facet normal 0 0 1
    outer loop
      vertex 157.5 165 4.5
      vertex 1.5 163.5 4.5
      vertex 156 163.5 4.5
    endloop
  endfacet
  facet normal 0 0 1
    outer loop
      vertex 1.5 163.5 4.5
      vertex 0 165 4.5
      vertex 1.5 85.5 4.5
    endloop
  endfacet
  facet normal -0 0 1
    outer loop
      vertex 0 165 4.5
      vertex 1.5 163.5 4.5
      vertex 157.5 165 4.5
    endloop
  endfacet
  facet normal -0 0 1
    outer loop
      vertex 156 85.5 4.5
      vertex 157.5 84 4.5
      vertex 156 163.5 4.5
    endloop
  endfacet
  facet normal -0 0 1
    outer loop
      vertex 1.5 85.5 4.5
      vertex 157.5 84 4.5
      vertex 156 85.5 4.5
    endloop
  endfacet
  facet normal 0 0 1
    outer loop
      vertex 1.5 85.5 4.5
      vertex 0 84 4.5
      vertex 157.5 84 4.5
    endloop
  endfacet
  facet normal 0 0 1
    outer loop
      vertex 0 84 4.5
      vertex 1.5 85.5 4.5
      vertex 0 165 4.5
    endloop
  endfacet
  facet normal 1 -0 0
    outer loop
      vertex 157.5 84 4.5
      vertex 157.5 165 0
      vertex 157.5 165 4.5
    endloop
  endfacet
  facet normal 1 0 0
    outer loop
      vertex 157.5 165 0
      vertex 157.5 84 4.5
      vertex 157.5 84 0
    endloop
  endfacet
  facet normal 0 0 -1
    outer loop
      vertex 0 84 0
      vertex 157.5 165 0
      vertex 157.5 84 0
    endloop
  endfacet
  facet normal -0 0 -1
    outer loop
      vertex 157.5 165 0
      vertex 0 84 0
      vertex 0 165 0
    endloop
  endfacet
  facet normal 0 -1 0
    outer loop
      vertex 0 84 0
      vertex 157.5 84 4.5
      vertex 0 84 4.5
    endloop
  endfacet
  facet normal 0 -1 -0
    outer loop
      vertex 157.5 84 4.5
      vertex 0 84 0
      vertex 157.5 84 0
    endloop
  endfacet
  facet normal 0 1 -0
    outer loop
      vertex 157.5 165 0
      vertex 0 165 4.5
      vertex 157.5 165 4.5
    endloop
  endfacet
  facet normal 0 1 0
    outer loop
      vertex 0 165 4.5
      vertex 157.5 165 0
      vertex 0 165 0
    endloop
  endfacet
  facet normal 1 -0 0
    outer loop
      vertex 1.5 85.5 4.5
      vertex 1.5 163.5 1.5
      vertex 1.5 163.5 4.5
    endloop
  endfacet
  facet normal 1 0 0
    outer loop
      vertex 1.5 163.5 1.5
      vertex 1.5 85.5 4.5
      vertex 1.5 85.5 1.5
    endloop
  endfacet
  facet normal -1 0 0
    outer loop
      vertex 156 85.5 1.5
      vertex 156 163.5 4.5
      vertex 156 163.5 1.5
    endloop
  endfacet
  facet normal -1 -0 0
    outer loop
      vertex 156 163.5 4.5
      vertex 156 85.5 1.5
      vertex 156 85.5 4.5
    endloop
  endfacet
  facet normal 0 -1 0
    outer loop
      vertex 1.5 163.5 1.5
      vertex 156 163.5 4.5
      vertex 1.5 163.5 4.5
    endloop
  endfacet
  facet normal 0 -1 -0
    outer loop
      vertex 156 163.5 4.5
      vertex 1.5 163.5 1.5
      vertex 156 163.5 1.5
    endloop
  endfacet
  facet normal -0 0 1
    outer loop
      vertex 1.5 163.5 1.5
      vertex 156 85.5 1.5
      vertex 156 163.5 1.5
    endloop
  endfacet
  facet normal 0 0 1
    outer loop
      vertex 156 85.5 1.5
      vertex 1.5 163.5 1.5
      vertex 1.5 85.5 1.5
    endloop
  endfacet
  facet normal 0 1 -0
    outer loop
      vertex 156 85.5 1.5
      vertex 1.5 85.5 4.5
      vertex 156 85.5 4.5
    endloop
  endfacet
  facet normal 0 1 0
    outer loop
      vertex 1.5 85.5 4.5
      vertex 156 85.5 1.5
      vertex 1.5 85.5 1.5
    endloop
  endfacet
endsolid OpenSCAD_Model
