  0
SECTION
  2
BLOCKS
  0
ENDSEC
  0
SECTION
  2
ENTITIES
  0
LINE
  8
0
 10
9.15527e-05
 20
-18.7948
 11
0.000793457
 21
-18.7792
  0
LINE
  8
0
 10
0.000793457
 20
-18.7792
 11
0.00271606
 21
-18.7532
  0
LINE
  8
0
 10
0.00271606
 20
-18.7532
 11
0.00643921
 21
-18.7168
  0
LINE
  8
0
 10
0.00643921
 20
-18.7168
 11
0.0125732
 21
-18.6702
  0
LINE
  8
0
 10
0.0125732
 20
-18.6702
 11
0.021698
 21
-18.6134
  0
LINE
  8
0
 10
0.021698
 20
-18.6134
 11
0.0343781
 21
-18.5465
  0
LINE
  8
0
 10
0.0343781
 20
-18.5465
 11
0.0512085
 21
-18.4696
  0
LINE
  8
0
 10
0.0512085
 20
-18.4696
 11
0.0727234
 21
-18.3828
  0
LINE
  8
0
 10
0.0727234
 20
-18.3828
 11
0.099472
 21
-18.2862
  0
LINE
  8
0
 10
0.099472
 20
-18.2862
 11
0.131989
 21
-18.1801
  0
LINE
  8
0
 10
0.131989
 20
-18.1801
 11
0.170761
 21
-18.0646
  0
LINE
  8
0
 10
0.170761
 20
-18.0646
 11
0.216278
 21
-17.9399
  0
LINE
  8
0
 10
0.216278
 20
-17.9399
 11
0.269012
 21
-17.8061
  0
LINE
  8
0
 10
0.269012
 20
-17.8061
 11
0.329407
 21
-17.6635
  0
LINE
  8
0
 10
0.329407
 20
-17.6635
 11
0.397888
 21
-17.5122
  0
LINE
  8
0
 10
0.397888
 20
-17.5122
 11
0.474838
 21
-17.3526
  0
LINE
  8
0
 10
0.474838
 20
-17.3526
 11
0.560654
 21
-17.1848
  0
LINE
  8
0
 10
0.560654
 20
-17.1848
 11
0.655655
 21
-17.009
  0
LINE
  8
0
 10
0.655655
 20
-17.009
 11
0.760162
 21
-16.8256
  0
LINE
  8
0
 10
0.760162
 20
-16.8256
 11
0.874451
 21
-16.6347
  0
LINE
  8
0
 10
0.874451
 20
-16.6347
 11
0.998795
 21
-16.4367
  0
LINE
  8
0
 10
0.998795
 20
-16.4367
 11
1.13341
 21
-16.2317
  0
LINE
  8
0
 10
1.13341
 20
-16.2317
 11
1.27847
 21
-16.0201
  0
LINE
  8
0
 10
1.27847
 20
-16.0201
 11
1.43416
 21
-15.802
  0
LINE
  8
0
 10
1.43416
 20
-15.802
 11
1.60059
 21
-15.5777
  0
LINE
  8
0
 10
1.60059
 20
-15.5777
 11
1.77783
 21
-15.3476
  0
LINE
  8
0
 10
1.77783
 20
-15.3476
 11
1.96599
 21
-15.1118
  0
LINE
  8
0
 10
1.96599
 20
-15.1118
 11
2.16504
 21
-14.8707
  0
LINE
  8
0
 10
2.16504
 20
-14.8707
 11
2.375
 21
-14.6243
  0
LINE
  8
0
 10
2.375
 20
-14.6243
 11
2.59579
 21
-14.3731
  0
LINE
  8
0
 10
2.59579
 20
-14.3731
 11
2.82736
 21
-14.1172
  0
LINE
  8
0
 10
2.82736
 20
-14.1172
 11
3.06958
 21
-13.8568
  0
LINE
  8
0
 10
3.06958
 20
-13.8568
 11
3.3223
 21
-13.5922
  0
LINE
  8
0
 10
3.3223
 20
-13.5922
 11
3.58531
 21
-13.3236
  0
LINE
  8
0
 10
3.58531
 20
-13.3236
 11
3.85841
 21
-13.0511
  0
LINE
  8
0
 10
3.85841
 20
-13.0511
 11
4.14134
 21
-12.7751
  0
LINE
  8
0
 10
4.14134
 20
-12.7751
 11
4.43382
 21
-12.4955
  0
LINE
  8
0
 10
4.43382
 20
-12.4955
 11
4.73552
 21
-12.2127
  0
LINE
  8
0
 10
4.73552
 20
-12.2127
 11
5.0461
 21
-11.9268
  0
LINE
  8
0
 10
5.0461
 20
-11.9268
 11
5.36514
 21
-11.6379
  0
LINE
  8
0
 10
5.36514
 20
-11.6379
 11
5.69228
 21
-11.3462
  0
LINE
  8
0
 10
5.69228
 20
-11.3462
 11
6.02702
 21
-11.0517
  0
LINE
  8
0
 10
6.02702
 20
-11.0517
 11
6.36894
 21
-10.7547
  0
LINE
  8
0
 10
6.36894
 20
-10.7547
 11
6.71751
 21
-10.4551
  0
LINE
  8
0
 10
6.71751
 20
-10.4551
 11
7.07222
 21
-10.1532
  0
LINE
  8
0
 10
7.07222
 20
-10.1532
 11
7.43251
 21
-9.84888
  0
LINE
  8
0
 10
7.43251
 20
-9.84888
 11
7.79782
 21
-9.54234
  0
LINE
  8
0
 10
7.79782
 20
-9.54234
 11
8.16757
 21
-9.2336
  0
LINE
  8
0
 10
8.16757
 20
-9.2336
 11
8.54112
 21
-8.9227
  0
LINE
  8
0
 10
8.54112
 20
-8.9227
 11
9.29715
 21
-8.29457
  0
LINE
  8
0
 10
9.29715
 20
-8.29457
 11
9.6783
 21
-7.9774
  0
LINE
  8
0
 10
9.6783
 20
-7.9774
 11
10.0607
 21
-7.65819
  0
LINE
  8
0
 10
10.0607
 20
-7.65819
 11
10.4435
 21
-7.33693
  0
LINE
  8
0
 10
10.4435
 20
-7.33693
 11
10.8262
 21
-7.01364
  0
LINE
  8
0
 10
10.8262
 20
-7.01364
 11
11.208
 21
-6.68831
  0
LINE
  8
0
 10
11.208
 20
-6.68831
 11
11.5882
 21
-6.36092
  0
LINE
  8
0
 10
11.5882
 20
-6.36092
 11
11.966
 21
-6.03149
  0
LINE
  8
0
 10
11.966
 20
-6.03149
 11
12.3409
 21
-5.7
  0
LINE
  8
0
 10
12.3409
 20
-5.7
 11
12.7119
 21
-5.36642
  0
LINE
  8
0
 10
12.7119
 20
-5.36642
 11
13.0785
 21
-5.03078
  0
LINE
  8
0
 10
13.0785
 20
-5.03078
 11
13.4399
 21
-4.69304
  0
LINE
  8
0
 10
13.4399
 20
-4.69304
 11
13.7954
 21
-4.35323
  0
LINE
  8
0
 10
13.7954
 20
-4.35323
 11
14.1443
 21
-4.01131
  0
LINE
  8
0
 10
14.1443
 20
-4.01131
 11
14.4858
 21
-3.66731
  0
LINE
  8
0
 10
14.4858
 20
-3.66731
 11
14.8194
 21
-3.32126
  0
LINE
  8
0
 10
14.8194
 20
-3.32126
 11
15.1444
 21
-2.97314
  0
LINE
  8
0
 10
15.1444
 20
-2.97314
 11
15.46
 21
-2.62302
  0
LINE
  8
0
 10
15.46
 20
-2.62302
 11
15.7656
 21
-2.2709
  0
LINE
  8
0
 10
15.7656
 20
-2.2709
 11
16.0607
 21
-1.91689
  0
LINE
  8
0
 10
16.0607
 20
-1.91689
 11
16.3445
 21
-1.56099
  0
LINE
  8
0
 10
16.3445
 20
-1.56099
 11
16.6166
 21
-1.20329
  0
LINE
  8
0
 10
16.6166
 20
-1.20329
 11
16.8763
 21
-0.843918
  0
LINE
  8
0
 10
16.8763
 20
-0.843918
 11
17.1232
 21
-0.482941
  0
LINE
  8
0
 10
17.1232
 20
-0.482941
 11
17.3566
 21
-0.120499
  0
LINE
  8
0
 10
17.3566
 20
-0.120499
 11
17.5762
 21
0.243271
  0
LINE
  8
0
 10
17.5762
 20
0.243271
 11
17.7814
 21
0.608246
  0
LINE
  8
0
 10
17.7814
 20
0.608246
 11
17.9719
 21
0.974228
  0
LINE
  8
0
 10
17.9719
 20
0.974228
 11
18.1471
 21
1.34103
  0
LINE
  8
0
 10
18.1471
 20
1.34103
 11
18.3068
 21
1.70845
  0
LINE
  8
0
 10
18.3068
 20
1.70845
 11
18.4507
 21
2.07626
  0
LINE
  8
0
 10
18.4507
 20
2.07626
 11
18.5783
 21
2.44424
  0
LINE
  8
0
 10
18.5783
 20
2.44424
 11
18.6895
 21
2.8121
  0
LINE
  8
0
 10
18.6895
 20
2.8121
 11
18.7839
 21
3.17957
  0
LINE
  8
0
 10
18.7839
 20
3.17957
 11
18.8615
 21
3.54634
  0
LINE
  8
0
 10
18.8615
 20
3.54634
 11
18.922
 21
3.91211
  0
LINE
  8
0
 10
18.922
 20
3.91211
 11
18.9653
 21
4.27655
  0
LINE
  8
0
 10
18.9653
 20
4.27655
 11
18.9913
 21
4.6393
  0
LINE
  8
0
 10
18.9913
 20
4.6393
 11
19
 21
5
  0
LINE
  8
0
 10
19
 20
5
 11
18.9913
 21
5.35825
  0
LINE
  8
0
 10
18.9913
 20
5.35825
 11
18.9653
 21
5.71367
  0
LINE
  8
0
 10
18.9653
 20
5.71367
 11
18.922
 21
6.06584
  0
LINE
  8
0
 10
18.922
 20
6.06584
 11
18.8615
 21
6.41434
  0
LINE
  8
0
 10
18.8615
 20
6.41434
 11
18.7839
 21
6.75873
  0
LINE
  8
0
 10
18.7839
 20
6.75873
 11
18.6895
 21
7.09857
  0
LINE
  8
0
 10
18.6895
 20
7.09857
 11
18.5783
 21
7.4334
  0
LINE
  8
0
 10
18.5783
 20
7.4334
 11
18.4507
 21
7.76276
  0
LINE
  8
0
 10
18.4507
 20
7.76276
 11
18.3068
 21
8.08618
  0
LINE
  8
0
 10
18.3068
 20
8.08618
 11
18.1471
 21
8.40318
  0
LINE
  8
0
 10
18.1471
 20
8.40318
 11
17.9719
 21
8.71329
  0
LINE
  8
0
 10
17.9719
 20
8.71329
 11
17.7814
 21
9.01602
  0
LINE
  8
0
 10
17.7814
 20
9.01602
 11
17.5762
 21
9.31091
  0
LINE
  8
0
 10
17.5762
 20
9.31091
 11
17.3566
 21
9.59747
  0
LINE
  8
0
 10
17.3566
 20
9.59747
 11
17.1232
 21
9.87524
  0
LINE
  8
0
 10
17.1232
 20
9.87524
 11
16.8763
 21
10.1438
  0
LINE
  8
0
 10
16.8763
 20
10.1438
 11
16.6166
 21
10.4025
  0
LINE
  8
0
 10
16.6166
 20
10.4025
 11
16.3445
 21
10.6512
  0
LINE
  8
0
 10
16.3445
 20
10.6512
 11
16.0607
 21
10.8892
  0
LINE
  8
0
 10
16.0607
 20
10.8892
 11
15.7656
 21
11.1161
  0
LINE
  8
0
 10
15.7656
 20
11.1161
 11
15.46
 21
11.3317
  0
LINE
  8
0
 10
15.46
 20
11.3317
 11
15.1444
 21
11.5354
  0
LINE
  8
0
 10
15.1444
 20
11.5354
 11
14.8194
 21
11.727
  0
LINE
  8
0
 10
14.8194
 20
11.727
 11
14.4858
 21
11.9059
  0
LINE
  8
0
 10
14.4858
 20
11.9059
 11
14.1443
 21
12.0721
  0
LINE
  8
0
 10
14.1443
 20
12.0721
 11
13.7954
 21
12.225
  0
LINE
  8
0
 10
13.7954
 20
12.225
 11
13.4399
 21
12.3645
  0
LINE
  8
0
 10
13.4399
 20
12.3645
 11
13.0785
 21
12.4903
  0
LINE
  8
0
 10
13.0785
 20
12.4903
 11
12.7119
 21
12.6022
  0
LINE
  8
0
 10
12.7119
 20
12.6022
 11
12.3409
 21
12.7
  0
LINE
  8
0
 10
12.3409
 20
12.7
 11
11.966
 21
12.7835
  0
LINE
  8
0
 10
11.966
 20
12.7835
 11
11.5882
 21
12.8527
  0
LINE
  8
0
 10
11.5882
 20
12.8527
 11
11.208
 21
12.9074
  0
LINE
  8
0
 10
11.208
 20
12.9074
 11
10.8262
 21
12.9476
  0
LINE
  8
0
 10
10.8262
 20
12.9476
 11
10.4435
 21
12.9733
  0
LINE
  8
0
 10
10.4435
 20
12.9733
 11
10.0607
 21
12.9844
  0
LINE
  8
0
 10
10.0607
 20
12.9844
 11
9.6783
 21
12.9812
  0
LINE
  8
0
 10
9.6783
 20
12.9812
 11
9.29715
 21
12.9635
  0
LINE
  8
0
 10
9.29715
 20
12.9635
 11
8.91786
 21
12.9317
  0
LINE
  8
0
 10
8.91786
 20
12.9317
 11
8.54112
 21
12.8858
  0
LINE
  8
0
 10
8.54112
 20
12.8858
 11
8.16757
 21
12.8262
  0
LINE
  8
0
 10
8.16757
 20
12.8262
 11
7.79782
 21
12.753
  0
LINE
  8
0
 10
7.79782
 20
12.753
 11
7.43251
 21
12.6665
  0
LINE
  8
0
 10
7.43251
 20
12.6665
 11
7.07222
 21
12.5671
  0
LINE
  8
0
 10
7.07222
 20
12.5671
 11
6.71751
 21
12.4551
  0
LINE
  8
0
 10
6.71751
 20
12.4551
 11
6.36894
 21
12.331
  0
LINE
  8
0
 10
6.36894
 20
12.331
 11
6.02702
 21
12.1952
  0
LINE
  8
0
 10
6.02702
 20
12.1952
 11
5.69228
 21
12.0481
  0
LINE
  8
0
 10
5.69228
 20
12.0481
 11
5.36514
 21
11.8904
  0
LINE
  8
0
 10
5.36514
 20
11.8904
 11
5.0461
 21
11.7224
  0
LINE
  8
0
 10
5.0461
 20
11.7224
 11
4.73552
 21
11.5449
  0
LINE
  8
0
 10
4.73552
 20
11.5449
 11
4.43382
 21
11.3584
  0
LINE
  8
0
 10
4.43382
 20
11.3584
 11
4.14134
 21
11.1635
  0
LINE
  8
0
 10
4.14134
 20
11.1635
 11
3.85841
 21
10.961
  0
LINE
  8
0
 10
3.85841
 20
10.961
 11
3.58531
 21
10.7514
  0
LINE
  8
0
 10
3.58531
 20
10.7514
 11
3.3223
 21
10.5356
  0
LINE
  8
0
 10
3.3223
 20
10.5356
 11
3.06958
 21
10.3142
  0
LINE
  8
0
 10
3.06958
 20
10.3142
 11
2.82736
 21
10.0881
  0
LINE
  8
0
 10
2.82736
 20
10.0881
 11
2.59579
 21
9.85783
  0
LINE
  8
0
 10
2.59579
 20
9.85783
 11
2.375
 21
9.62434
  0
LINE
  8
0
 10
2.375
 20
9.62434
 11
2.16504
 21
9.38838
  0
LINE
  8
0
 10
2.16504
 20
9.38838
 11
1.96599
 21
9.15074
  0
LINE
  8
0
 10
1.96599
 20
9.15074
 11
1.77783
 21
8.91223
  0
LINE
  8
0
 10
1.77783
 20
8.91223
 11
1.60059
 21
8.67366
  0
LINE
  8
0
 10
1.60059
 20
8.67366
 11
1.43416
 21
8.43582
  0
LINE
  8
0
 10
1.43416
 20
8.43582
 11
1.27847
 21
8.19954
  0
LINE
  8
0
 10
1.27847
 20
8.19954
 11
1.13341
 21
7.96561
  0
LINE
  8
0
 10
1.13341
 20
7.96561
 11
0.998795
 21
7.7348
  0
LINE
  8
0
 10
0.998795
 20
7.7348
 11
0.874451
 21
7.50793
  0
LINE
  8
0
 10
0.874451
 20
7.50793
 11
0.760162
 21
7.28577
  0
LINE
  8
0
 10
0.760162
 20
7.28577
 11
0.655655
 21
7.06906
  0
LINE
  8
0
 10
0.655655
 20
7.06906
 11
0.560654
 21
6.85854
  0
LINE
  8
0
 10
0.560654
 20
6.85854
 11
0.474838
 21
6.65492
  0
LINE
  8
0
 10
0.474838
 20
6.65492
 11
0.397888
 21
6.45891
  0
LINE
  8
0
 10
0.397888
 20
6.45891
 11
0.329407
 21
6.27116
  0
LINE
  8
0
 10
0.329407
 20
6.27116
 11
0.269012
 21
6.09233
  0
LINE
  8
0
 10
0.269012
 20
6.09233
 11
0.216278
 21
5.92302
  0
LINE
  8
0
 10
0.216278
 20
5.92302
 11
0.170761
 21
5.76382
  0
LINE
  8
0
 10
0.170761
 20
5.76382
 11
0.131989
 21
5.61525
  0
LINE
  8
0
 10
0.131989
 20
5.61525
 11
0.099472
 21
5.47784
  0
LINE
  8
0
 10
0.099472
 20
5.47784
 11
0.0727234
 21
5.35207
  0
LINE
  8
0
 10
0.0727234
 20
5.35207
 11
0.0512085
 21
5.23833
  0
LINE
  8
0
 10
0.0512085
 20
5.23833
 11
0.0343781
 21
5.13704
  0
LINE
  8
0
 10
0.0343781
 20
5.13704
 11
0.021698
 21
5.04854
  0
LINE
  8
0
 10
0.021698
 20
5.04854
 11
0.0125732
 21
4.97314
  0
LINE
  8
0
 10
0.0125732
 20
4.97314
 11
0.00643921
 21
4.91109
  0
LINE
  8
0
 10
0.00643921
 20
4.91109
 11
0.00271606
 21
4.86261
  0
LINE
  8
0
 10
0.00271606
 20
4.86261
 11
0.000793457
 21
4.82787
  0
LINE
  8
0
 10
0.000793457
 20
4.82787
 11
9.15527e-05
 21
4.80696
  0
LINE
  8
0
 10
9.15527e-05
 20
4.80696
 11
0
 21
4.79999
  0
LINE
  8
0
 10
0
 20
4.79999
 11
-9.15527e-05
 21
4.80696
  0
LINE
  8
0
 10
-9.15527e-05
 20
4.80696
 11
-0.000793457
 21
4.82787
  0
LINE
  8
0
 10
-0.000793457
 20
4.82787
 11
-0.00271606
 21
4.86261
  0
LINE
  8
0
 10
-0.00271606
 20
4.86261
 11
-0.00643921
 21
4.91109
  0
LINE
  8
0
 10
-0.00643921
 20
4.91109
 11
-0.0125732
 21
4.97314
  0
LINE
  8
0
 10
-0.0125732
 20
4.97314
 11
-0.021698
 21
5.04854
  0
LINE
  8
0
 10
-0.021698
 20
5.04854
 11
-0.0343781
 21
5.13704
  0
LINE
  8
0
 10
-0.0343781
 20
5.13704
 11
-0.0512085
 21
5.23833
  0
LINE
  8
0
 10
-0.0512085
 20
5.23833
 11
-0.0727234
 21
5.35207
  0
LINE
  8
0
 10
-0.0727234
 20
5.35207
 11
-0.099472
 21
5.47784
  0
LINE
  8
0
 10
-0.099472
 20
5.47784
 11
-0.131989
 21
5.61525
  0
LINE
  8
0
 10
-0.131989
 20
5.61525
 11
-0.170761
 21
5.76382
  0
LINE
  8
0
 10
-0.170761
 20
5.76382
 11
-0.216278
 21
5.92302
  0
LINE
  8
0
 10
-0.216278
 20
5.92302
 11
-0.269012
 21
6.09233
  0
LINE
  8
0
 10
-0.269012
 20
6.09233
 11
-0.329407
 21
6.27116
  0
LINE
  8
0
 10
-0.329407
 20
6.27116
 11
-0.397888
 21
6.45891
  0
LINE
  8
0
 10
-0.397888
 20
6.45891
 11
-0.474838
 21
6.65492
  0
LINE
  8
0
 10
-0.474838
 20
6.65492
 11
-0.560654
 21
6.85854
  0
LINE
  8
0
 10
-0.560654
 20
6.85854
 11
-0.655655
 21
7.06906
  0
LINE
  8
0
 10
-0.655655
 20
7.06906
 11
-0.760162
 21
7.28577
  0
LINE
  8
0
 10
-0.760162
 20
7.28577
 11
-0.874451
 21
7.50793
  0
LINE
  8
0
 10
-0.874451
 20
7.50793
 11
-0.998795
 21
7.7348
  0
LINE
  8
0
 10
-0.998795
 20
7.7348
 11
-1.13341
 21
7.96561
  0
LINE
  8
0
 10
-1.13341
 20
7.96561
 11
-1.27847
 21
8.19954
  0
LINE
  8
0
 10
-1.27847
 20
8.19954
 11
-1.43416
 21
8.43582
  0
LINE
  8
0
 10
-1.43416
 20
8.43582
 11
-1.60059
 21
8.67366
  0
LINE
  8
0
 10
-1.60059
 20
8.67366
 11
-1.77783
 21
8.91223
  0
LINE
  8
0
 10
-1.77783
 20
8.91223
 11
-1.96599
 21
9.15074
  0
LINE
  8
0
 10
-1.96599
 20
9.15074
 11
-2.16504
 21
9.38838
  0
LINE
  8
0
 10
-2.16504
 20
9.38838
 11
-2.375
 21
9.62434
  0
LINE
  8
0
 10
-2.375
 20
9.62434
 11
-2.59579
 21
9.85783
  0
LINE
  8
0
 10
-2.59579
 20
9.85783
 11
-2.82736
 21
10.0881
  0
LINE
  8
0
 10
-2.82736
 20
10.0881
 11
-3.06958
 21
10.3142
  0
LINE
  8
0
 10
-3.06958
 20
10.3142
 11
-3.3223
 21
10.5356
  0
LINE
  8
0
 10
-3.3223
 20
10.5356
 11
-3.58531
 21
10.7514
  0
LINE
  8
0
 10
-3.58531
 20
10.7514
 11
-3.85841
 21
10.961
  0
LINE
  8
0
 10
-3.85841
 20
10.961
 11
-4.14134
 21
11.1635
  0
LINE
  8
0
 10
-4.14134
 20
11.1635
 11
-4.43382
 21
11.3584
  0
LINE
  8
0
 10
-4.43382
 20
11.3584
 11
-4.73552
 21
11.5449
  0
LINE
  8
0
 10
-4.73552
 20
11.5449
 11
-5.0461
 21
11.7224
  0
LINE
  8
0
 10
-5.0461
 20
11.7224
 11
-5.36514
 21
11.8904
  0
LINE
  8
0
 10
-5.36514
 20
11.8904
 11
-5.69228
 21
12.0481
  0
LINE
  8
0
 10
-5.69228
 20
12.0481
 11
-6.02702
 21
12.1952
  0
LINE
  8
0
 10
-6.02702
 20
12.1952
 11
-6.36894
 21
12.331
  0
LINE
  8
0
 10
-6.36894
 20
12.331
 11
-6.71751
 21
12.4551
  0
LINE
  8
0
 10
-6.71751
 20
12.4551
 11
-7.07222
 21
12.5671
  0
LINE
  8
0
 10
-7.07222
 20
12.5671
 11
-7.43251
 21
12.6665
  0
LINE
  8
0
 10
-7.43251
 20
12.6665
 11
-7.79782
 21
12.753
  0
LINE
  8
0
 10
-7.79782
 20
12.753
 11
-8.16757
 21
12.8262
  0
LINE
  8
0
 10
-8.16757
 20
12.8262
 11
-8.54112
 21
12.8858
  0
LINE
  8
0
 10
-8.54112
 20
12.8858
 11
-8.91786
 21
12.9317
  0
LINE
  8
0
 10
-8.91786
 20
12.9317
 11
-9.29715
 21
12.9635
  0
LINE
  8
0
 10
-9.29715
 20
12.9635
 11
-9.6783
 21
12.9812
  0
LINE
  8
0
 10
-9.6783
 20
12.9812
 11
-10.0607
 21
12.9844
  0
LINE
  8
0
 10
-10.0607
 20
12.9844
 11
-10.4435
 21
12.9733
  0
LINE
  8
0
 10
-10.4435
 20
12.9733
 11
-10.8262
 21
12.9476
  0
LINE
  8
0
 10
-10.8262
 20
12.9476
 11
-11.208
 21
12.9074
  0
LINE
  8
0
 10
-11.208
 20
12.9074
 11
-11.5882
 21
12.8527
  0
LINE
  8
0
 10
-11.5882
 20
12.8527
 11
-11.966
 21
12.7835
  0
LINE
  8
0
 10
-11.966
 20
12.7835
 11
-12.3409
 21
12.7
  0
LINE
  8
0
 10
-12.3409
 20
12.7
 11
-12.7119
 21
12.6022
  0
LINE
  8
0
 10
-12.7119
 20
12.6022
 11
-13.0785
 21
12.4903
  0
LINE
  8
0
 10
-13.0785
 20
12.4903
 11
-13.4399
 21
12.3645
  0
LINE
  8
0
 10
-13.4399
 20
12.3645
 11
-13.7954
 21
12.225
  0
LINE
  8
0
 10
-13.7954
 20
12.225
 11
-14.1443
 21
12.0721
  0
LINE
  8
0
 10
-14.1443
 20
12.0721
 11
-14.4858
 21
11.9059
  0
LINE
  8
0
 10
-14.4858
 20
11.9059
 11
-14.8194
 21
11.727
  0
LINE
  8
0
 10
-14.8194
 20
11.727
 11
-15.1444
 21
11.5354
  0
LINE
  8
0
 10
-15.1444
 20
11.5354
 11
-15.46
 21
11.3317
  0
LINE
  8
0
 10
-15.46
 20
11.3317
 11
-15.7656
 21
11.1161
  0
LINE
  8
0
 10
-15.7656
 20
11.1161
 11
-16.0607
 21
10.8892
  0
LINE
  8
0
 10
-16.0607
 20
10.8892
 11
-16.3445
 21
10.6512
  0
LINE
  8
0
 10
-16.3445
 20
10.6512
 11
-16.6166
 21
10.4025
  0
LINE
  8
0
 10
-16.6166
 20
10.4025
 11
-16.8763
 21
10.1438
  0
LINE
  8
0
 10
-16.8763
 20
10.1438
 11
-17.1232
 21
9.87524
  0
LINE
  8
0
 10
-17.1232
 20
9.87524
 11
-17.3566
 21
9.59747
  0
LINE
  8
0
 10
-17.3566
 20
9.59747
 11
-17.5762
 21
9.31091
  0
LINE
  8
0
 10
-17.5762
 20
9.31091
 11
-17.7814
 21
9.01602
  0
LINE
  8
0
 10
-17.7814
 20
9.01602
 11
-17.9719
 21
8.71329
  0
LINE
  8
0
 10
-17.9719
 20
8.71329
 11
-18.1471
 21
8.40318
  0
LINE
  8
0
 10
-18.1471
 20
8.40318
 11
-18.3068
 21
8.08618
  0
LINE
  8
0
 10
-18.3068
 20
8.08618
 11
-18.4507
 21
7.76276
  0
LINE
  8
0
 10
-18.4507
 20
7.76276
 11
-18.5783
 21
7.4334
  0
LINE
  8
0
 10
-18.5783
 20
7.4334
 11
-18.6895
 21
7.09857
  0
LINE
  8
0
 10
-18.6895
 20
7.09857
 11
-18.7839
 21
6.75873
  0
LINE
  8
0
 10
-18.7839
 20
6.75873
 11
-18.8615
 21
6.41434
  0
LINE
  8
0
 10
-18.8615
 20
6.41434
 11
-18.922
 21
6.06584
  0
LINE
  8
0
 10
-18.922
 20
6.06584
 11
-18.9653
 21
5.71367
  0
LINE
  8
0
 10
-18.9653
 20
5.71367
 11
-18.9913
 21
5.35825
  0
LINE
  8
0
 10
-18.9913
 20
5.35825
 11
-19
 21
5
  0
LINE
  8
0
 10
-19
 20
5
 11
-18.9913
 21
4.6393
  0
LINE
  8
0
 10
-18.9913
 20
4.6393
 11
-18.9653
 21
4.27655
  0
LINE
  8
0
 10
-18.9653
 20
4.27655
 11
-18.922
 21
3.91211
  0
LINE
  8
0
 10
-18.922
 20
3.91211
 11
-18.8615
 21
3.54634
  0
LINE
  8
0
 10
-18.8615
 20
3.54634
 11
-18.7839
 21
3.17957
  0
LINE
  8
0
 10
-18.7839
 20
3.17957
 11
-18.6895
 21
2.8121
  0
LINE
  8
0
 10
-18.6895
 20
2.8121
 11
-18.5783
 21
2.44424
  0
LINE
  8
0
 10
-18.5783
 20
2.44424
 11
-18.4507
 21
2.07626
  0
LINE
  8
0
 10
-18.4507
 20
2.07626
 11
-18.3068
 21
1.70845
  0
LINE
  8
0
 10
-18.3068
 20
1.70845
 11
-18.1471
 21
1.34103
  0
LINE
  8
0
 10
-18.1471
 20
1.34103
 11
-17.9719
 21
0.974228
  0
LINE
  8
0
 10
-17.9719
 20
0.974228
 11
-17.7814
 21
0.608246
  0
LINE
  8
0
 10
-17.7814
 20
0.608246
 11
-17.5762
 21
0.243271
  0
LINE
  8
0
 10
-17.5762
 20
0.243271
 11
-17.3566
 21
-0.120499
  0
LINE
  8
0
 10
-17.3566
 20
-0.120499
 11
-17.1232
 21
-0.482941
  0
LINE
  8
0
 10
-17.1232
 20
-0.482941
 11
-16.8763
 21
-0.843918
  0
LINE
  8
0
 10
-16.8763
 20
-0.843918
 11
-16.6166
 21
-1.20329
  0
LINE
  8
0
 10
-16.6166
 20
-1.20329
 11
-16.3445
 21
-1.56099
  0
LINE
  8
0
 10
-16.3445
 20
-1.56099
 11
-16.0607
 21
-1.91689
  0
LINE
  8
0
 10
-16.0607
 20
-1.91689
 11
-15.7656
 21
-2.2709
  0
LINE
  8
0
 10
-15.7656
 20
-2.2709
 11
-15.46
 21
-2.62302
  0
LINE
  8
0
 10
-15.46
 20
-2.62302
 11
-15.1444
 21
-2.97314
  0
LINE
  8
0
 10
-15.1444
 20
-2.97314
 11
-14.8194
 21
-3.32126
  0
LINE
  8
0
 10
-14.8194
 20
-3.32126
 11
-14.4858
 21
-3.66731
  0
LINE
  8
0
 10
-14.4858
 20
-3.66731
 11
-14.1443
 21
-4.01131
  0
LINE
  8
0
 10
-14.1443
 20
-4.01131
 11
-13.7954
 21
-4.35323
  0
LINE
  8
0
 10
-13.7954
 20
-4.35323
 11
-13.4399
 21
-4.69304
  0
LINE
  8
0
 10
-13.4399
 20
-4.69304
 11
-13.0785
 21
-5.03078
  0
LINE
  8
0
 10
-13.0785
 20
-5.03078
 11
-12.7119
 21
-5.36642
  0
LINE
  8
0
 10
-12.7119
 20
-5.36642
 11
-12.3409
 21
-5.7
  0
LINE
  8
0
 10
-12.3409
 20
-5.7
 11
-11.966
 21
-6.03149
  0
LINE
  8
0
 10
-11.966
 20
-6.03149
 11
-11.5882
 21
-6.36092
  0
LINE
  8
0
 10
-11.5882
 20
-6.36092
 11
-11.208
 21
-6.68831
  0
LINE
  8
0
 10
-11.208
 20
-6.68831
 11
-10.8262
 21
-7.01364
  0
LINE
  8
0
 10
-10.8262
 20
-7.01364
 11
-10.4435
 21
-7.33693
  0
LINE
  8
0
 10
-10.4435
 20
-7.33693
 11
-10.0607
 21
-7.65819
  0
LINE
  8
0
 10
-10.0607
 20
-7.65819
 11
-9.6783
 21
-7.9774
  0
LINE
  8
0
 10
-9.6783
 20
-7.9774
 11
-9.29715
 21
-8.29457
  0
LINE
  8
0
 10
-9.29715
 20
-8.29457
 11
-8.54112
 21
-8.9227
  0
LINE
  8
0
 10
-8.54112
 20
-8.9227
 11
-8.16757
 21
-9.2336
  0
LINE
  8
0
 10
-8.16757
 20
-9.2336
 11
-7.79782
 21
-9.54234
  0
LINE
  8
0
 10
-7.79782
 20
-9.54234
 11
-7.43251
 21
-9.84888
  0
LINE
  8
0
 10
-7.43251
 20
-9.84888
 11
-7.07222
 21
-10.1532
  0
LINE
  8
0
 10
-7.07222
 20
-10.1532
 11
-6.71751
 21
-10.4551
  0
LINE
  8
0
 10
-6.71751
 20
-10.4551
 11
-6.36894
 21
-10.7547
  0
LINE
  8
0
 10
-6.36894
 20
-10.7547
 11
-6.02702
 21
-11.0517
  0
LINE
  8
0
 10
-6.02702
 20
-11.0517
 11
-5.69228
 21
-11.3462
  0
LINE
  8
0
 10
-5.69228
 20
-11.3462
 11
-5.36514
 21
-11.6379
  0
LINE
  8
0
 10
-5.36514
 20
-11.6379
 11
-5.0461
 21
-11.9268
  0
LINE
  8
0
 10
-5.0461
 20
-11.9268
 11
-4.73552
 21
-12.2127
  0
LINE
  8
0
 10
-4.73552
 20
-12.2127
 11
-4.43382
 21
-12.4955
  0
LINE
  8
0
 10
-4.43382
 20
-12.4955
 11
-4.14134
 21
-12.7751
  0
LINE
  8
0
 10
-4.14134
 20
-12.7751
 11
-3.85841
 21
-13.0511
  0
LINE
  8
0
 10
-3.85841
 20
-13.0511
 11
-3.58531
 21
-13.3236
  0
LINE
  8
0
 10
-3.58531
 20
-13.3236
 11
-3.3223
 21
-13.5922
  0
LINE
  8
0
 10
-3.3223
 20
-13.5922
 11
-3.06958
 21
-13.8568
  0
LINE
  8
0
 10
-3.06958
 20
-13.8568
 11
-2.82736
 21
-14.1172
  0
LINE
  8
0
 10
-2.82736
 20
-14.1172
 11
-2.59579
 21
-14.3731
  0
LINE
  8
0
 10
-2.59579
 20
-14.3731
 11
-2.375
 21
-14.6243
  0
LINE
  8
0
 10
-2.375
 20
-14.6243
 11
-2.16504
 21
-14.8707
  0
LINE
  8
0
 10
-2.16504
 20
-14.8707
 11
-1.96599
 21
-15.1118
  0
LINE
  8
0
 10
-1.96599
 20
-15.1118
 11
-1.77783
 21
-15.3476
  0
LINE
  8
0
 10
-1.77783
 20
-15.3476
 11
-1.60059
 21
-15.5777
  0
LINE
  8
0
 10
-1.60059
 20
-15.5777
 11
-1.43416
 21
-15.802
  0
LINE
  8
0
 10
-1.43416
 20
-15.802
 11
-1.27847
 21
-16.0201
  0
LINE
  8
0
 10
-1.27847
 20
-16.0201
 11
-1.13341
 21
-16.2317
  0
LINE
  8
0
 10
-1.13341
 20
-16.2317
 11
-0.998795
 21
-16.4367
  0
LINE
  8
0
 10
-0.998795
 20
-16.4367
 11
-0.874451
 21
-16.6347
  0
LINE
  8
0
 10
-0.874451
 20
-16.6347
 11
-0.760162
 21
-16.8256
  0
LINE
  8
0
 10
-0.760162
 20
-16.8256
 11
-0.655655
 21
-17.009
  0
LINE
  8
0
 10
-0.655655
 20
-17.009
 11
-0.560654
 21
-17.1848
  0
LINE
  8
0
 10
-0.560654
 20
-17.1848
 11
-0.474838
 21
-17.3526
  0
LINE
  8
0
 10
-0.474838
 20
-17.3526
 11
-0.397888
 21
-17.5122
  0
LINE
  8
0
 10
-0.397888
 20
-17.5122
 11
-0.329407
 21
-17.6635
  0
LINE
  8
0
 10
-0.329407
 20
-17.6635
 11
-0.269012
 21
-17.8061
  0
LINE
  8
0
 10
-0.269012
 20
-17.8061
 11
-0.216278
 21
-17.9399
  0
LINE
  8
0
 10
-0.216278
 20
-17.9399
 11
-0.170761
 21
-18.0646
  0
LINE
  8
0
 10
-0.170761
 20
-18.0646
 11
-0.131989
 21
-18.1801
  0
LINE
  8
0
 10
-0.131989
 20
-18.1801
 11
-0.099472
 21
-18.2862
  0
LINE
  8
0
 10
-0.099472
 20
-18.2862
 11
-0.0727234
 21
-18.3828
  0
LINE
  8
0
 10
-0.0727234
 20
-18.3828
 11
-0.0512085
 21
-18.4696
  0
LINE
  8
0
 10
-0.0512085
 20
-18.4696
 11
-0.0343781
 21
-18.5465
  0
LINE
  8
0
 10
-0.0343781
 20
-18.5465
 11
-0.021698
 21
-18.6134
  0
LINE
  8
0
 10
-0.021698
 20
-18.6134
 11
-0.0125732
 21
-18.6702
  0
LINE
  8
0
 10
-0.0125732
 20
-18.6702
 11
-0.00643921
 21
-18.7168
  0
LINE
  8
0
 10
-0.00643921
 20
-18.7168
 11
-0.00271606
 21
-18.7532
  0
LINE
  8
0
 10
-0.00271606
 20
-18.7532
 11
-0.000793457
 21
-18.7792
  0
LINE
  8
0
 10
-0.000793457
 20
-18.7792
 11
-9.15527e-05
 21
-18.7948
  0
LINE
  8
0
 10
-9.15527e-05
 20
-18.7948
 11
0
 21
-18.8
  0
LINE
  8
0
 10
0
 20
-18.8
 11
9.15527e-05
 21
-18.7948
  0
ENDSEC
  0
SECTION
  2
OBJECTS
  0
DICTIONARY
  0
ENDSEC
  0
EOF
