  0
SECTION
  2
BLOCKS
  0
ENDSEC
  0
SECTION
  2
ENTITIES
  0
LINE
  8
0
 10
9.15527e-05
 20
-18.7948
 11
0.000762939
 21
-18.7792
  0
LINE
  8
0
 10
0.000762939
 20
-18.7792
 11
0.00257874
 21
-18.7532
  0
LINE
  8
0
 10
0.00257874
 20
-18.7532
 11
0.00610352
 21
-18.7168
  0
LINE
  8
0
 10
0.00610352
 20
-18.7168
 11
0.0119019
 21
-18.6702
  0
LINE
  8
0
 10
0.0119019
 20
-18.6702
 11
0.0205536
 21
-18.6134
  0
LINE
  8
0
 10
0.0205536
 20
-18.6134
 11
0.0325775
 21
-18.5465
  0
LINE
  8
0
 10
0.0325775
 20
-18.5465
 11
0.0485077
 21
-18.4696
  0
LINE
  8
0
 10
0.0485077
 20
-18.4696
 11
0.0688934
 21
-18.3828
  0
LINE
  8
0
 10
0.0688934
 20
-18.3828
 11
0.0942383
 21
-18.2862
  0
LINE
  8
0
 10
0.0942383
 20
-18.2862
 11
0.125046
 21
-18.1801
  0
LINE
  8
0
 10
0.125046
 20
-18.1801
 11
0.161774
 21
-18.0646
  0
LINE
  8
0
 10
0.161774
 20
-18.0646
 11
0.204895
 21
-17.9399
  0
LINE
  8
0
 10
0.204895
 20
-17.9399
 11
0.254852
 21
-17.8061
  0
LINE
  8
0
 10
0.254852
 20
-17.8061
 11
0.312073
 21
-17.6635
  0
LINE
  8
0
 10
0.312073
 20
-17.6635
 11
0.376938
 21
-17.5122
  0
LINE
  8
0
 10
0.376938
 20
-17.5122
 11
0.44986
 21
-17.3526
  0
LINE
  8
0
 10
0.44986
 20
-17.3526
 11
0.531143
 21
-17.1848
  0
LINE
  8
0
 10
0.531143
 20
-17.1848
 11
0.62114
 21
-17.009
  0
LINE
  8
0
 10
0.62114
 20
-17.009
 11
0.720154
 21
-16.8256
  0
LINE
  8
0
 10
0.720154
 20
-16.8256
 11
0.82843
 21
-16.6347
  0
LINE
  8
0
 10
0.82843
 20
-16.6347
 11
0.946228
 21
-16.4367
  0
LINE
  8
0
 10
0.946228
 20
-16.4367
 11
1.07375
 21
-16.2317
  0
LINE
  8
0
 10
1.07375
 20
-16.2317
 11
1.21118
 21
-16.0201
  0
LINE
  8
0
 10
1.21118
 20
-16.0201
 11
1.35867
 21
-15.802
  0
LINE
  8
0
 10
1.35867
 20
-15.802
 11
1.51634
 21
-15.5777
  0
LINE
  8
0
 10
1.51634
 20
-15.5777
 11
1.68427
 21
-15.3476
  0
LINE
  8
0
 10
1.68427
 20
-15.3476
 11
1.8625
 21
-15.1118
  0
LINE
  8
0
 10
1.8625
 20
-15.1118
 11
2.05109
 21
-14.8707
  0
LINE
  8
0
 10
2.05109
 20
-14.8707
 11
2.25
 21
-14.6243
  0
LINE
  8
0
 10
2.25
 20
-14.6243
 11
2.45917
 21
-14.3731
  0
LINE
  8
0
 10
2.45917
 20
-14.3731
 11
2.67856
 21
-14.1172
  0
LINE
  8
0
 10
2.67856
 20
-14.1172
 11
2.90802
 21
-13.8568
  0
LINE
  8
0
 10
2.90802
 20
-13.8568
 11
3.14743
 21
-13.5922
  0
LINE
  8
0
 10
3.14743
 20
-13.5922
 11
3.39661
 21
-13.3236
  0
LINE
  8
0
 10
3.39661
 20
-13.3236
 11
3.65533
 21
-13.0511
  0
LINE
  8
0
 10
3.65533
 20
-13.0511
 11
3.92339
 21
-12.7751
  0
LINE
  8
0
 10
3.92339
 20
-12.7751
 11
4.20047
 21
-12.4955
  0
LINE
  8
0
 10
4.20047
 20
-12.4955
 11
4.48628
 21
-12.2127
  0
LINE
  8
0
 10
4.48628
 20
-12.2127
 11
4.78052
 21
-11.9268
  0
LINE
  8
0
 10
4.78052
 20
-11.9268
 11
5.08278
 21
-11.6379
  0
LINE
  8
0
 10
5.08278
 20
-11.6379
 11
5.39268
 21
-11.3462
  0
LINE
  8
0
 10
5.39268
 20
-11.3462
 11
5.70981
 21
-11.0517
  0
LINE
  8
0
 10
5.70981
 20
-11.0517
 11
6.03372
 21
-10.7547
  0
LINE
  8
0
 10
6.03372
 20
-10.7547
 11
6.36395
 21
-10.4551
  0
LINE
  8
0
 10
6.36395
 20
-10.4551
 11
6.7
 21
-10.1532
  0
LINE
  8
0
 10
6.7
 20
-10.1532
 11
7.04132
 21
-9.84888
  0
LINE
  8
0
 10
7.04132
 20
-9.84888
 11
7.38742
 21
-9.54234
  0
LINE
  8
0
 10
7.38742
 20
-9.54234
 11
7.7377
 21
-9.2336
  0
LINE
  8
0
 10
7.7377
 20
-9.2336
 11
8.0916
 21
-8.9227
  0
LINE
  8
0
 10
8.0916
 20
-8.9227
 11
8.80782
 21
-8.29457
  0
LINE
  8
0
 10
8.80782
 20
-8.29457
 11
9.16891
 21
-7.9774
  0
LINE
  8
0
 10
9.16891
 20
-7.9774
 11
9.53114
 21
-7.65819
  0
LINE
  8
0
 10
9.53114
 20
-7.65819
 11
9.89386
 21
-7.33693
  0
LINE
  8
0
 10
9.89386
 20
-7.33693
 11
10.2564
 21
-7.01364
  0
LINE
  8
0
 10
10.2564
 20
-7.01364
 11
10.6181
 21
-6.68831
  0
LINE
  8
0
 10
10.6181
 20
-6.68831
 11
10.9783
 21
-6.36092
  0
LINE
  8
0
 10
10.9783
 20
-6.36092
 11
11.3362
 21
-6.03149
  0
LINE
  8
0
 10
11.3362
 20
-6.03149
 11
11.6913
 21
-5.7
  0
LINE
  8
0
 10
11.6913
 20
-5.7
 11
12.0429
 21
-5.36642
  0
LINE
  8
0
 10
12.0429
 20
-5.36642
 11
12.3902
 21
-5.03078
  0
LINE
  8
0
 10
12.3902
 20
-5.03078
 11
12.7325
 21
-4.69304
  0
LINE
  8
0
 10
12.7325
 20
-4.69304
 11
13.0693
 21
-4.35323
  0
LINE
  8
0
 10
13.0693
 20
-4.35323
 11
13.3998
 21
-4.01131
  0
LINE
  8
0
 10
13.3998
 20
-4.01131
 11
13.7234
 21
-3.66731
  0
LINE
  8
0
 10
13.7234
 20
-3.66731
 11
14.0395
 21
-3.32126
  0
LINE
  8
0
 10
14.0395
 20
-3.32126
 11
14.3473
 21
-2.97314
  0
LINE
  8
0
 10
14.3473
 20
-2.97314
 11
14.6463
 21
-2.62302
  0
LINE
  8
0
 10
14.6463
 20
-2.62302
 11
14.9358
 21
-2.2709
  0
LINE
  8
0
 10
14.9358
 20
-2.2709
 11
15.2154
 21
-1.91689
  0
LINE
  8
0
 10
15.2154
 20
-1.91689
 11
15.4843
 21
-1.56099
  0
LINE
  8
0
 10
15.4843
 20
-1.56099
 11
15.7421
 21
-1.20329
  0
LINE
  8
0
 10
15.7421
 20
-1.20329
 11
15.9881
 21
-0.843918
  0
LINE
  8
0
 10
15.9881
 20
-0.843918
 11
16.222
 21
-0.482941
  0
LINE
  8
0
 10
16.222
 20
-0.482941
 11
16.4431
 21
-0.120499
  0
LINE
  8
0
 10
16.4431
 20
-0.120499
 11
16.6511
 21
0.243271
  0
LINE
  8
0
 10
16.6511
 20
0.243271
 11
16.8456
 21
0.608246
  0
LINE
  8
0
 10
16.8456
 20
0.608246
 11
17.026
 21
0.974228
  0
LINE
  8
0
 10
17.026
 20
0.974228
 11
17.192
 21
1.34103
  0
LINE
  8
0
 10
17.192
 20
1.34103
 11
17.3433
 21
1.70845
  0
LINE
  8
0
 10
17.3433
 20
1.70845
 11
17.4796
 21
2.07626
  0
LINE
  8
0
 10
17.4796
 20
2.07626
 11
17.6005
 21
2.44424
  0
LINE
  8
0
 10
17.6005
 20
2.44424
 11
17.7058
 21
2.8121
  0
LINE
  8
0
 10
17.7058
 20
2.8121
 11
17.7953
 21
3.17957
  0
LINE
  8
0
 10
17.7953
 20
3.17957
 11
17.8688
 21
3.54634
  0
LINE
  8
0
 10
17.8688
 20
3.54634
 11
17.9261
 21
3.91211
  0
LINE
  8
0
 10
17.9261
 20
3.91211
 11
17.9671
 21
4.27655
  0
LINE
  8
0
 10
17.9671
 20
4.27655
 11
17.9918
 21
4.6393
  0
LINE
  8
0
 10
17.9918
 20
4.6393
 11
18
 21
5
  0
LINE
  8
0
 10
18
 20
5
 11
17.9918
 21
5.35825
  0
LINE
  8
0
 10
17.9918
 20
5.35825
 11
17.9671
 21
5.71367
  0
LINE
  8
0
 10
17.9671
 20
5.71367
 11
17.9261
 21
6.06584
  0
LINE
  8
0
 10
17.9261
 20
6.06584
 11
17.8688
 21
6.41434
  0
LINE
  8
0
 10
17.8688
 20
6.41434
 11
17.7953
 21
6.75873
  0
LINE
  8
0
 10
17.7953
 20
6.75873
 11
17.7058
 21
7.09857
  0
LINE
  8
0
 10
17.7058
 20
7.09857
 11
17.6005
 21
7.4334
  0
LINE
  8
0
 10
17.6005
 20
7.4334
 11
17.4796
 21
7.76276
  0
LINE
  8
0
 10
17.4796
 20
7.76276
 11
17.3433
 21
8.08618
  0
LINE
  8
0
 10
17.3433
 20
8.08618
 11
17.192
 21
8.40318
  0
LINE
  8
0
 10
17.192
 20
8.40318
 11
17.026
 21
8.71329
  0
LINE
  8
0
 10
17.026
 20
8.71329
 11
16.8456
 21
9.01602
  0
LINE
  8
0
 10
16.8456
 20
9.01602
 11
16.6511
 21
9.31091
  0
LINE
  8
0
 10
16.6511
 20
9.31091
 11
16.4431
 21
9.59747
  0
LINE
  8
0
 10
16.4431
 20
9.59747
 11
16.222
 21
9.87524
  0
LINE
  8
0
 10
16.222
 20
9.87524
 11
15.9881
 21
10.1438
  0
LINE
  8
0
 10
15.9881
 20
10.1438
 11
15.7421
 21
10.4025
  0
LINE
  8
0
 10
15.7421
 20
10.4025
 11
15.4843
 21
10.6512
  0
LINE
  8
0
 10
15.4843
 20
10.6512
 11
15.2154
 21
10.8892
  0
LINE
  8
0
 10
15.2154
 20
10.8892
 11
14.9358
 21
11.1161
  0
LINE
  8
0
 10
14.9358
 20
11.1161
 11
14.6463
 21
11.3317
  0
LINE
  8
0
 10
14.6463
 20
11.3317
 11
14.3473
 21
11.5354
  0
LINE
  8
0
 10
14.3473
 20
11.5354
 11
14.0395
 21
11.727
  0
LINE
  8
0
 10
14.0395
 20
11.727
 11
13.7234
 21
11.9059
  0
LINE
  8
0
 10
13.7234
 20
11.9059
 11
13.3998
 21
12.0721
  0
LINE
  8
0
 10
13.3998
 20
12.0721
 11
13.0693
 21
12.225
  0
LINE
  8
0
 10
13.0693
 20
12.225
 11
12.7325
 21
12.3645
  0
LINE
  8
0
 10
12.7325
 20
12.3645
 11
12.3902
 21
12.4903
  0
LINE
  8
0
 10
12.3902
 20
12.4903
 11
12.0429
 21
12.6022
  0
LINE
  8
0
 10
12.0429
 20
12.6022
 11
11.6913
 21
12.7
  0
LINE
  8
0
 10
11.6913
 20
12.7
 11
11.3362
 21
12.7835
  0
LINE
  8
0
 10
11.3362
 20
12.7835
 11
10.9783
 21
12.8527
  0
LINE
  8
0
 10
10.9783
 20
12.8527
 11
10.6181
 21
12.9074
  0
LINE
  8
0
 10
10.6181
 20
12.9074
 11
10.2564
 21
12.9476
  0
LINE
  8
0
 10
10.2564
 20
12.9476
 11
9.89386
 21
12.9733
  0
LINE
  8
0
 10
9.89386
 20
12.9733
 11
9.53114
 21
12.9844
  0
LINE
  8
0
 10
9.53114
 20
12.9844
 11
9.16891
 21
12.9812
  0
LINE
  8
0
 10
9.16891
 20
12.9812
 11
8.80782
 21
12.9635
  0
LINE
  8
0
 10
8.80782
 20
12.9635
 11
8.4485
 21
12.9317
  0
LINE
  8
0
 10
8.4485
 20
12.9317
 11
8.0916
 21
12.8858
  0
LINE
  8
0
 10
8.0916
 20
12.8858
 11
7.7377
 21
12.8262
  0
LINE
  8
0
 10
7.7377
 20
12.8262
 11
7.38742
 21
12.753
  0
LINE
  8
0
 10
7.38742
 20
12.753
 11
7.04132
 21
12.6665
  0
LINE
  8
0
 10
7.04132
 20
12.6665
 11
6.7
 21
12.5671
  0
LINE
  8
0
 10
6.7
 20
12.5671
 11
6.36395
 21
12.4551
  0
LINE
  8
0
 10
6.36395
 20
12.4551
 11
6.03372
 21
12.331
  0
LINE
  8
0
 10
6.03372
 20
12.331
 11
5.70981
 21
12.1952
  0
LINE
  8
0
 10
5.70981
 20
12.1952
 11
5.39268
 21
12.0481
  0
LINE
  8
0
 10
5.39268
 20
12.0481
 11
5.08278
 21
11.8904
  0
LINE
  8
0
 10
5.08278
 20
11.8904
 11
4.78052
 21
11.7224
  0
LINE
  8
0
 10
4.78052
 20
11.7224
 11
4.48628
 21
11.5449
  0
LINE
  8
0
 10
4.48628
 20
11.5449
 11
4.20047
 21
11.3584
  0
LINE
  8
0
 10
4.20047
 20
11.3584
 11
3.92339
 21
11.1635
  0
LINE
  8
0
 10
3.92339
 20
11.1635
 11
3.65533
 21
10.961
  0
LINE
  8
0
 10
3.65533
 20
10.961
 11
3.39661
 21
10.7514
  0
LINE
  8
0
 10
3.39661
 20
10.7514
 11
3.14743
 21
10.5356
  0
LINE
  8
0
 10
3.14743
 20
10.5356
 11
2.90802
 21
10.3142
  0
LINE
  8
0
 10
2.90802
 20
10.3142
 11
2.67856
 21
10.0881
  0
LINE
  8
0
 10
2.67856
 20
10.0881
 11
2.45917
 21
9.85783
  0
LINE
  8
0
 10
2.45917
 20
9.85783
 11
2.25
 21
9.62434
  0
LINE
  8
0
 10
2.25
 20
9.62434
 11
2.05109
 21
9.38838
  0
LINE
  8
0
 10
2.05109
 20
9.38838
 11
1.8625
 21
9.15074
  0
LINE
  8
0
 10
1.8625
 20
9.15074
 11
1.68427
 21
8.91223
  0
LINE
  8
0
 10
1.68427
 20
8.91223
 11
1.51634
 21
8.67366
  0
LINE
  8
0
 10
1.51634
 20
8.67366
 11
1.35867
 21
8.43582
  0
LINE
  8
0
 10
1.35867
 20
8.43582
 11
1.21118
 21
8.19954
  0
LINE
  8
0
 10
1.21118
 20
8.19954
 11
1.07375
 21
7.96561
  0
LINE
  8
0
 10
1.07375
 20
7.96561
 11
0.946228
 21
7.7348
  0
LINE
  8
0
 10
0.946228
 20
7.7348
 11
0.82843
 21
7.50793
  0
LINE
  8
0
 10
0.82843
 20
7.50793
 11
0.720154
 21
7.28577
  0
LINE
  8
0
 10
0.720154
 20
7.28577
 11
0.62114
 21
7.06906
  0
LINE
  8
0
 10
0.62114
 20
7.06906
 11
0.531143
 21
6.85854
  0
LINE
  8
0
 10
0.531143
 20
6.85854
 11
0.44986
 21
6.65492
  0
LINE
  8
0
 10
0.44986
 20
6.65492
 11
0.376938
 21
6.45891
  0
LINE
  8
0
 10
0.376938
 20
6.45891
 11
0.312073
 21
6.27116
  0
LINE
  8
0
 10
0.312073
 20
6.27116
 11
0.254852
 21
6.09233
  0
LINE
  8
0
 10
0.254852
 20
6.09233
 11
0.204895
 21
5.92302
  0
LINE
  8
0
 10
0.204895
 20
5.92302
 11
0.161774
 21
5.76382
  0
LINE
  8
0
 10
0.161774
 20
5.76382
 11
0.125046
 21
5.61525
  0
LINE
  8
0
 10
0.125046
 20
5.61525
 11
0.0942383
 21
5.47784
  0
LINE
  8
0
 10
0.0942383
 20
5.47784
 11
0.0688934
 21
5.35207
  0
LINE
  8
0
 10
0.0688934
 20
5.35207
 11
0.0485077
 21
5.23833
  0
LINE
  8
0
 10
0.0485077
 20
5.23833
 11
0.0325775
 21
5.13704
  0
LINE
  8
0
 10
0.0325775
 20
5.13704
 11
0.0205536
 21
5.04854
  0
LINE
  8
0
 10
0.0205536
 20
5.04854
 11
0.0119019
 21
4.97314
  0
LINE
  8
0
 10
0.0119019
 20
4.97314
 11
0.00610352
 21
4.91109
  0
LINE
  8
0
 10
0.00610352
 20
4.91109
 11
0.00257874
 21
4.86261
  0
LINE
  8
0
 10
0.00257874
 20
4.86261
 11
0.000762939
 21
4.82787
  0
LINE
  8
0
 10
0.000762939
 20
4.82787
 11
9.15527e-05
 21
4.80696
  0
LINE
  8
0
 10
9.15527e-05
 20
4.80696
 11
0
 21
4.79999
  0
LINE
  8
0
 10
0
 20
4.79999
 11
-9.15527e-05
 21
4.80696
  0
LINE
  8
0
 10
-9.15527e-05
 20
4.80696
 11
-0.000762939
 21
4.82787
  0
LINE
  8
0
 10
-0.000762939
 20
4.82787
 11
-0.00257874
 21
4.86261
  0
LINE
  8
0
 10
-0.00257874
 20
4.86261
 11
-0.00610352
 21
4.91109
  0
LINE
  8
0
 10
-0.00610352
 20
4.91109
 11
-0.0119019
 21
4.97314
  0
LINE
  8
0
 10
-0.0119019
 20
4.97314
 11
-0.0205536
 21
5.04854
  0
LINE
  8
0
 10
-0.0205536
 20
5.04854
 11
-0.0325775
 21
5.13704
  0
LINE
  8
0
 10
-0.0325775
 20
5.13704
 11
-0.0485077
 21
5.23833
  0
LINE
  8
0
 10
-0.0485077
 20
5.23833
 11
-0.0688934
 21
5.35207
  0
LINE
  8
0
 10
-0.0688934
 20
5.35207
 11
-0.0942383
 21
5.47784
  0
LINE
  8
0
 10
-0.0942383
 20
5.47784
 11
-0.125046
 21
5.61525
  0
LINE
  8
0
 10
-0.125046
 20
5.61525
 11
-0.161774
 21
5.76382
  0
LINE
  8
0
 10
-0.161774
 20
5.76382
 11
-0.204895
 21
5.92302
  0
LINE
  8
0
 10
-0.204895
 20
5.92302
 11
-0.254852
 21
6.09233
  0
LINE
  8
0
 10
-0.254852
 20
6.09233
 11
-0.312073
 21
6.27116
  0
LINE
  8
0
 10
-0.312073
 20
6.27116
 11
-0.376938
 21
6.45891
  0
LINE
  8
0
 10
-0.376938
 20
6.45891
 11
-0.44986
 21
6.65492
  0
LINE
  8
0
 10
-0.44986
 20
6.65492
 11
-0.531143
 21
6.85854
  0
LINE
  8
0
 10
-0.531143
 20
6.85854
 11
-0.62114
 21
7.06906
  0
LINE
  8
0
 10
-0.62114
 20
7.06906
 11
-0.720154
 21
7.28577
  0
LINE
  8
0
 10
-0.720154
 20
7.28577
 11
-0.82843
 21
7.50793
  0
LINE
  8
0
 10
-0.82843
 20
7.50793
 11
-0.946228
 21
7.7348
  0
LINE
  8
0
 10
-0.946228
 20
7.7348
 11
-1.07375
 21
7.96561
  0
LINE
  8
0
 10
-1.07375
 20
7.96561
 11
-1.21118
 21
8.19954
  0
LINE
  8
0
 10
-1.21118
 20
8.19954
 11
-1.35867
 21
8.43582
  0
LINE
  8
0
 10
-1.35867
 20
8.43582
 11
-1.51634
 21
8.67366
  0
LINE
  8
0
 10
-1.51634
 20
8.67366
 11
-1.68427
 21
8.91223
  0
LINE
  8
0
 10
-1.68427
 20
8.91223
 11
-1.8625
 21
9.15074
  0
LINE
  8
0
 10
-1.8625
 20
9.15074
 11
-2.05109
 21
9.38838
  0
LINE
  8
0
 10
-2.05109
 20
9.38838
 11
-2.25
 21
9.62434
  0
LINE
  8
0
 10
-2.25
 20
9.62434
 11
-2.45917
 21
9.85783
  0
LINE
  8
0
 10
-2.45917
 20
9.85783
 11
-2.67856
 21
10.0881
  0
LINE
  8
0
 10
-2.67856
 20
10.0881
 11
-2.90802
 21
10.3142
  0
LINE
  8
0
 10
-2.90802
 20
10.3142
 11
-3.14743
 21
10.5356
  0
LINE
  8
0
 10
-3.14743
 20
10.5356
 11
-3.39661
 21
10.7514
  0
LINE
  8
0
 10
-3.39661
 20
10.7514
 11
-3.65533
 21
10.961
  0
LINE
  8
0
 10
-3.65533
 20
10.961
 11
-3.92339
 21
11.1635
  0
LINE
  8
0
 10
-3.92339
 20
11.1635
 11
-4.20047
 21
11.3584
  0
LINE
  8
0
 10
-4.20047
 20
11.3584
 11
-4.48628
 21
11.5449
  0
LINE
  8
0
 10
-4.48628
 20
11.5449
 11
-4.78052
 21
11.7224
  0
LINE
  8
0
 10
-4.78052
 20
11.7224
 11
-5.08278
 21
11.8904
  0
LINE
  8
0
 10
-5.08278
 20
11.8904
 11
-5.39268
 21
12.0481
  0
LINE
  8
0
 10
-5.39268
 20
12.0481
 11
-5.70981
 21
12.1952
  0
LINE
  8
0
 10
-5.70981
 20
12.1952
 11
-6.03372
 21
12.331
  0
LINE
  8
0
 10
-6.03372
 20
12.331
 11
-6.36395
 21
12.4551
  0
LINE
  8
0
 10
-6.36395
 20
12.4551
 11
-6.7
 21
12.5671
  0
LINE
  8
0
 10
-6.7
 20
12.5671
 11
-7.04132
 21
12.6665
  0
LINE
  8
0
 10
-7.04132
 20
12.6665
 11
-7.38742
 21
12.753
  0
LINE
  8
0
 10
-7.38742
 20
12.753
 11
-7.7377
 21
12.8262
  0
LINE
  8
0
 10
-7.7377
 20
12.8262
 11
-8.0916
 21
12.8858
  0
LINE
  8
0
 10
-8.0916
 20
12.8858
 11
-8.4485
 21
12.9317
  0
LINE
  8
0
 10
-8.4485
 20
12.9317
 11
-8.80782
 21
12.9635
  0
LINE
  8
0
 10
-8.80782
 20
12.9635
 11
-9.16891
 21
12.9812
  0
LINE
  8
0
 10
-9.16891
 20
12.9812
 11
-9.53114
 21
12.9844
  0
LINE
  8
0
 10
-9.53114
 20
12.9844
 11
-9.89386
 21
12.9733
  0
LINE
  8
0
 10
-9.89386
 20
12.9733
 11
-10.2564
 21
12.9476
  0
LINE
  8
0
 10
-10.2564
 20
12.9476
 11
-10.6181
 21
12.9074
  0
LINE
  8
0
 10
-10.6181
 20
12.9074
 11
-10.9783
 21
12.8527
  0
LINE
  8
0
 10
-10.9783
 20
12.8527
 11
-11.3362
 21
12.7835
  0
LINE
  8
0
 10
-11.3362
 20
12.7835
 11
-11.6913
 21
12.7
  0
LINE
  8
0
 10
-11.6913
 20
12.7
 11
-12.0429
 21
12.6022
  0
LINE
  8
0
 10
-12.0429
 20
12.6022
 11
-12.3902
 21
12.4903
  0
LINE
  8
0
 10
-12.3902
 20
12.4903
 11
-12.7325
 21
12.3645
  0
LINE
  8
0
 10
-12.7325
 20
12.3645
 11
-13.0693
 21
12.225
  0
LINE
  8
0
 10
-13.0693
 20
12.225
 11
-13.3998
 21
12.0721
  0
LINE
  8
0
 10
-13.3998
 20
12.0721
 11
-13.7234
 21
11.9059
  0
LINE
  8
0
 10
-13.7234
 20
11.9059
 11
-14.0395
 21
11.727
  0
LINE
  8
0
 10
-14.0395
 20
11.727
 11
-14.3473
 21
11.5354
  0
LINE
  8
0
 10
-14.3473
 20
11.5354
 11
-14.6463
 21
11.3317
  0
LINE
  8
0
 10
-14.6463
 20
11.3317
 11
-14.9358
 21
11.1161
  0
LINE
  8
0
 10
-14.9358
 20
11.1161
 11
-15.2154
 21
10.8892
  0
LINE
  8
0
 10
-15.2154
 20
10.8892
 11
-15.4843
 21
10.6512
  0
LINE
  8
0
 10
-15.4843
 20
10.6512
 11
-15.7421
 21
10.4025
  0
LINE
  8
0
 10
-15.7421
 20
10.4025
 11
-15.9881
 21
10.1438
  0
LINE
  8
0
 10
-15.9881
 20
10.1438
 11
-16.222
 21
9.87524
  0
LINE
  8
0
 10
-16.222
 20
9.87524
 11
-16.4431
 21
9.59747
  0
LINE
  8
0
 10
-16.4431
 20
9.59747
 11
-16.6511
 21
9.31091
  0
LINE
  8
0
 10
-16.6511
 20
9.31091
 11
-16.8456
 21
9.01602
  0
LINE
  8
0
 10
-16.8456
 20
9.01602
 11
-17.026
 21
8.71329
  0
LINE
  8
0
 10
-17.026
 20
8.71329
 11
-17.192
 21
8.40318
  0
LINE
  8
0
 10
-17.192
 20
8.40318
 11
-17.3433
 21
8.08618
  0
LINE
  8
0
 10
-17.3433
 20
8.08618
 11
-17.4796
 21
7.76276
  0
LINE
  8
0
 10
-17.4796
 20
7.76276
 11
-17.6005
 21
7.4334
  0
LINE
  8
0
 10
-17.6005
 20
7.4334
 11
-17.7058
 21
7.09857
  0
LINE
  8
0
 10
-17.7058
 20
7.09857
 11
-17.7953
 21
6.75873
  0
LINE
  8
0
 10
-17.7953
 20
6.75873
 11
-17.8688
 21
6.41434
  0
LINE
  8
0
 10
-17.8688
 20
6.41434
 11
-17.9261
 21
6.06584
  0
LINE
  8
0
 10
-17.9261
 20
6.06584
 11
-17.9671
 21
5.71367
  0
LINE
  8
0
 10
-17.9671
 20
5.71367
 11
-17.9918
 21
5.35825
  0
LINE
  8
0
 10
-17.9918
 20
5.35825
 11
-18
 21
5
  0
LINE
  8
0
 10
-18
 20
5
 11
-17.9918
 21
4.6393
  0
LINE
  8
0
 10
-17.9918
 20
4.6393
 11
-17.9671
 21
4.27655
  0
LINE
  8
0
 10
-17.9671
 20
4.27655
 11
-17.9261
 21
3.91211
  0
LINE
  8
0
 10
-17.9261
 20
3.91211
 11
-17.8688
 21
3.54634
  0
LINE
  8
0
 10
-17.8688
 20
3.54634
 11
-17.7953
 21
3.17957
  0
LINE
  8
0
 10
-17.7953
 20
3.17957
 11
-17.7058
 21
2.8121
  0
LINE
  8
0
 10
-17.7058
 20
2.8121
 11
-17.6005
 21
2.44424
  0
LINE
  8
0
 10
-17.6005
 20
2.44424
 11
-17.4796
 21
2.07626
  0
LINE
  8
0
 10
-17.4796
 20
2.07626
 11
-17.3433
 21
1.70845
  0
LINE
  8
0
 10
-17.3433
 20
1.70845
 11
-17.192
 21
1.34103
  0
LINE
  8
0
 10
-17.192
 20
1.34103
 11
-17.026
 21
0.974228
  0
LINE
  8
0
 10
-17.026
 20
0.974228
 11
-16.8456
 21
0.608246
  0
LINE
  8
0
 10
-16.8456
 20
0.608246
 11
-16.6511
 21
0.243271
  0
LINE
  8
0
 10
-16.6511
 20
0.243271
 11
-16.4431
 21
-0.120499
  0
LINE
  8
0
 10
-16.4431
 20
-0.120499
 11
-16.222
 21
-0.482941
  0
LINE
  8
0
 10
-16.222
 20
-0.482941
 11
-15.9881
 21
-0.843918
  0
LINE
  8
0
 10
-15.9881
 20
-0.843918
 11
-15.7421
 21
-1.20329
  0
LINE
  8
0
 10
-15.7421
 20
-1.20329
 11
-15.4843
 21
-1.56099
  0
LINE
  8
0
 10
-15.4843
 20
-1.56099
 11
-15.2154
 21
-1.91689
  0
LINE
  8
0
 10
-15.2154
 20
-1.91689
 11
-14.9358
 21
-2.2709
  0
LINE
  8
0
 10
-14.9358
 20
-2.2709
 11
-14.6463
 21
-2.62302
  0
LINE
  8
0
 10
-14.6463
 20
-2.62302
 11
-14.3473
 21
-2.97314
  0
LINE
  8
0
 10
-14.3473
 20
-2.97314
 11
-14.0395
 21
-3.32126
  0
LINE
  8
0
 10
-14.0395
 20
-3.32126
 11
-13.7234
 21
-3.66731
  0
LINE
  8
0
 10
-13.7234
 20
-3.66731
 11
-13.3998
 21
-4.01131
  0
LINE
  8
0
 10
-13.3998
 20
-4.01131
 11
-13.0693
 21
-4.35323
  0
LINE
  8
0
 10
-13.0693
 20
-4.35323
 11
-12.7325
 21
-4.69304
  0
LINE
  8
0
 10
-12.7325
 20
-4.69304
 11
-12.3902
 21
-5.03078
  0
LINE
  8
0
 10
-12.3902
 20
-5.03078
 11
-12.0429
 21
-5.36642
  0
LINE
  8
0
 10
-12.0429
 20
-5.36642
 11
-11.6913
 21
-5.7
  0
LINE
  8
0
 10
-11.6913
 20
-5.7
 11
-11.3362
 21
-6.03149
  0
LINE
  8
0
 10
-11.3362
 20
-6.03149
 11
-10.9783
 21
-6.36092
  0
LINE
  8
0
 10
-10.9783
 20
-6.36092
 11
-10.6181
 21
-6.68831
  0
LINE
  8
0
 10
-10.6181
 20
-6.68831
 11
-10.2564
 21
-7.01364
  0
LINE
  8
0
 10
-10.2564
 20
-7.01364
 11
-9.89386
 21
-7.33693
  0
LINE
  8
0
 10
-9.89386
 20
-7.33693
 11
-9.53114
 21
-7.65819
  0
LINE
  8
0
 10
-9.53114
 20
-7.65819
 11
-9.16891
 21
-7.9774
  0
LINE
  8
0
 10
-9.16891
 20
-7.9774
 11
-8.80782
 21
-8.29457
  0
LINE
  8
0
 10
-8.80782
 20
-8.29457
 11
-8.0916
 21
-8.9227
  0
LINE
  8
0
 10
-8.0916
 20
-8.9227
 11
-7.7377
 21
-9.2336
  0
LINE
  8
0
 10
-7.7377
 20
-9.2336
 11
-7.38742
 21
-9.54234
  0
LINE
  8
0
 10
-7.38742
 20
-9.54234
 11
-7.04132
 21
-9.84888
  0
LINE
  8
0
 10
-7.04132
 20
-9.84888
 11
-6.7
 21
-10.1532
  0
LINE
  8
0
 10
-6.7
 20
-10.1532
 11
-6.36395
 21
-10.4551
  0
LINE
  8
0
 10
-6.36395
 20
-10.4551
 11
-6.03372
 21
-10.7547
  0
LINE
  8
0
 10
-6.03372
 20
-10.7547
 11
-5.70981
 21
-11.0517
  0
LINE
  8
0
 10
-5.70981
 20
-11.0517
 11
-5.39268
 21
-11.3462
  0
LINE
  8
0
 10
-5.39268
 20
-11.3462
 11
-5.08278
 21
-11.6379
  0
LINE
  8
0
 10
-5.08278
 20
-11.6379
 11
-4.78052
 21
-11.9268
  0
LINE
  8
0
 10
-4.78052
 20
-11.9268
 11
-4.48628
 21
-12.2127
  0
LINE
  8
0
 10
-4.48628
 20
-12.2127
 11
-4.20047
 21
-12.4955
  0
LINE
  8
0
 10
-4.20047
 20
-12.4955
 11
-3.92339
 21
-12.7751
  0
LINE
  8
0
 10
-3.92339
 20
-12.7751
 11
-3.65533
 21
-13.0511
  0
LINE
  8
0
 10
-3.65533
 20
-13.0511
 11
-3.39661
 21
-13.3236
  0
LINE
  8
0
 10
-3.39661
 20
-13.3236
 11
-3.14743
 21
-13.5922
  0
LINE
  8
0
 10
-3.14743
 20
-13.5922
 11
-2.90802
 21
-13.8568
  0
LINE
  8
0
 10
-2.90802
 20
-13.8568
 11
-2.67856
 21
-14.1172
  0
LINE
  8
0
 10
-2.67856
 20
-14.1172
 11
-2.45917
 21
-14.3731
  0
LINE
  8
0
 10
-2.45917
 20
-14.3731
 11
-2.25
 21
-14.6243
  0
LINE
  8
0
 10
-2.25
 20
-14.6243
 11
-2.05109
 21
-14.8707
  0
LINE
  8
0
 10
-2.05109
 20
-14.8707
 11
-1.8625
 21
-15.1118
  0
LINE
  8
0
 10
-1.8625
 20
-15.1118
 11
-1.68427
 21
-15.3476
  0
LINE
  8
0
 10
-1.68427
 20
-15.3476
 11
-1.51634
 21
-15.5777
  0
LINE
  8
0
 10
-1.51634
 20
-15.5777
 11
-1.35867
 21
-15.802
  0
LINE
  8
0
 10
-1.35867
 20
-15.802
 11
-1.21118
 21
-16.0201
  0
LINE
  8
0
 10
-1.21118
 20
-16.0201
 11
-1.07375
 21
-16.2317
  0
LINE
  8
0
 10
-1.07375
 20
-16.2317
 11
-0.946228
 21
-16.4367
  0
LINE
  8
0
 10
-0.946228
 20
-16.4367
 11
-0.82843
 21
-16.6347
  0
LINE
  8
0
 10
-0.82843
 20
-16.6347
 11
-0.720154
 21
-16.8256
  0
LINE
  8
0
 10
-0.720154
 20
-16.8256
 11
-0.62114
 21
-17.009
  0
LINE
  8
0
 10
-0.62114
 20
-17.009
 11
-0.531143
 21
-17.1848
  0
LINE
  8
0
 10
-0.531143
 20
-17.1848
 11
-0.44986
 21
-17.3526
  0
LINE
  8
0
 10
-0.44986
 20
-17.3526
 11
-0.376938
 21
-17.5122
  0
LINE
  8
0
 10
-0.376938
 20
-17.5122
 11
-0.312073
 21
-17.6635
  0
LINE
  8
0
 10
-0.312073
 20
-17.6635
 11
-0.254852
 21
-17.8061
  0
LINE
  8
0
 10
-0.254852
 20
-17.8061
 11
-0.204895
 21
-17.9399
  0
LINE
  8
0
 10
-0.204895
 20
-17.9399
 11
-0.161774
 21
-18.0646
  0
LINE
  8
0
 10
-0.161774
 20
-18.0646
 11
-0.125046
 21
-18.1801
  0
LINE
  8
0
 10
-0.125046
 20
-18.1801
 11
-0.0942383
 21
-18.2862
  0
LINE
  8
0
 10
-0.0942383
 20
-18.2862
 11
-0.0688934
 21
-18.3828
  0
LINE
  8
0
 10
-0.0688934
 20
-18.3828
 11
-0.0485077
 21
-18.4696
  0
LINE
  8
0
 10
-0.0485077
 20
-18.4696
 11
-0.0325775
 21
-18.5465
  0
LINE
  8
0
 10
-0.0325775
 20
-18.5465
 11
-0.0205536
 21
-18.6134
  0
LINE
  8
0
 10
-0.0205536
 20
-18.6134
 11
-0.0119019
 21
-18.6702
  0
LINE
  8
0
 10
-0.0119019
 20
-18.6702
 11
-0.00610352
 21
-18.7168
  0
LINE
  8
0
 10
-0.00610352
 20
-18.7168
 11
-0.00257874
 21
-18.7532
  0
LINE
  8
0
 10
-0.00257874
 20
-18.7532
 11
-0.000762939
 21
-18.7792
  0
LINE
  8
0
 10
-0.000762939
 20
-18.7792
 11
-9.15527e-05
 21
-18.7948
  0
LINE
  8
0
 10
-9.15527e-05
 20
-18.7948
 11
0
 21
-18.8
  0
LINE
  8
0
 10
0
 20
-18.8
 11
9.15527e-05
 21
-18.7948
  0
ENDSEC
  0
SECTION
  2
OBJECTS
  0
DICTIONARY
  0
ENDSEC
  0
EOF
