  0
SECTION
  2
BLOCKS
  0
ENDSEC
  0
SECTION
  2
ENTITIES
  0
LINE
  8
0
 10
-1.6
 20
0
 11
-1.58738
 21
-0.200533
  0
LINE
  8
0
 10
-1.58738
 20
-0.200533
 11
-1.54973
 21
-0.397903
  0
LINE
  8
0
 10
-1.54973
 20
-0.397903
 11
-1.48764
 21
-0.588999
  0
LINE
  8
0
 10
-1.48764
 20
-0.588999
 11
-1.40209
 21
-0.770805
  0
LINE
  8
0
 10
-1.40209
 20
-0.770805
 11
-1.29443
 21
-0.940456
  0
LINE
  8
0
 10
-1.29443
 20
-0.940456
 11
-1.16635
 21
-1.09527
  0
LINE
  8
0
 10
-1.16635
 20
-1.09527
 11
-1.01988
 21
-1.23282
  0
LINE
  8
0
 10
-1.01988
 20
-1.23282
 11
-0.857323
 21
-1.35092
  0
LINE
  8
0
 10
-0.857323
 20
-1.35092
 11
-0.681247
 21
-1.44772
  0
LINE
  8
0
 10
-0.681247
 20
-1.44772
 11
-0.494427
 21
-1.52169
  0
LINE
  8
0
 10
-0.494427
 20
-1.52169
 11
-0.299809
 21
-1.57166
  0
LINE
  8
0
 10
-0.299809
 20
-1.57166
 11
-0.100465
 21
-1.59684
  0
LINE
  8
0
 10
-0.100465
 20
-1.59684
 11
137.6
 21
-1.59684
  0
LINE
  8
0
 10
137.6
 20
-1.59684
 11
137.8
 21
-1.57166
  0
LINE
  8
0
 10
137.8
 20
-1.57166
 11
137.994
 21
-1.52169
  0
LINE
  8
0
 10
137.994
 20
-1.52169
 11
138.181
 21
-1.44772
  0
LINE
  8
0
 10
138.181
 20
-1.44772
 11
138.357
 21
-1.35092
  0
LINE
  8
0
 10
138.357
 20
-1.35092
 11
138.52
 21
-1.23282
  0
LINE
  8
0
 10
138.52
 20
-1.23282
 11
138.666
 21
-1.09527
  0
LINE
  8
0
 10
138.666
 20
-1.09527
 11
138.794
 21
-0.940456
  0
LINE
  8
0
 10
138.794
 20
-0.940456
 11
138.902
 21
-0.770805
  0
LINE
  8
0
 10
138.902
 20
-0.770805
 11
138.988
 21
-0.588999
  0
LINE
  8
0
 10
138.988
 20
-0.588999
 11
139.05
 21
-0.397903
  0
LINE
  8
0
 10
139.05
 20
-0.397903
 11
139.087
 21
-0.200533
  0
LINE
  8
0
 10
139.087
 20
-0.200533
 11
139.1
 21
0
  0
LINE
  8
0
 10
139.1
 20
0
 11
139.1
 21
55.1
  0
LINE
  8
0
 10
139.1
 20
55.1
 11
139.087
 21
55.3005
  0
LINE
  8
0
 10
139.087
 20
55.3005
 11
139.05
 21
55.4979
  0
LINE
  8
0
 10
139.05
 20
55.4979
 11
138.988
 21
55.689
  0
LINE
  8
0
 10
138.988
 20
55.689
 11
138.902
 21
55.8708
  0
LINE
  8
0
 10
138.902
 20
55.8708
 11
138.794
 21
56.0405
  0
LINE
  8
0
 10
138.794
 20
56.0405
 11
138.666
 21
56.1953
  0
LINE
  8
0
 10
138.666
 20
56.1953
 11
138.52
 21
56.3328
  0
LINE
  8
0
 10
138.52
 20
56.3328
 11
138.357
 21
56.4509
  0
LINE
  8
0
 10
138.357
 20
56.4509
 11
138.181
 21
56.5477
  0
LINE
  8
0
 10
138.181
 20
56.5477
 11
137.994
 21
56.6217
  0
LINE
  8
0
 10
137.994
 20
56.6217
 11
137.8
 21
56.6717
  0
LINE
  8
0
 10
137.8
 20
56.6717
 11
137.6
 21
56.6968
  0
LINE
  8
0
 10
137.6
 20
56.6968
 11
-0.100465
 21
56.6968
  0
LINE
  8
0
 10
-0.100465
 20
56.6968
 11
-0.299809
 21
56.6717
  0
LINE
  8
0
 10
-0.299809
 20
56.6717
 11
-0.494427
 21
56.6217
  0
LINE
  8
0
 10
-0.494427
 20
56.6217
 11
-0.681247
 21
56.5477
  0
LINE
  8
0
 10
-0.681247
 20
56.5477
 11
-0.857323
 21
56.4509
  0
LINE
  8
0
 10
-0.857323
 20
56.4509
 11
-1.01988
 21
56.3328
  0
LINE
  8
0
 10
-1.01988
 20
56.3328
 11
-1.16635
 21
56.1953
  0
LINE
  8
0
 10
-1.16635
 20
56.1953
 11
-1.29443
 21
56.0405
  0
LINE
  8
0
 10
-1.29443
 20
56.0405
 11
-1.40209
 21
55.8708
  0
LINE
  8
0
 10
-1.40209
 20
55.8708
 11
-1.48764
 21
55.689
  0
LINE
  8
0
 10
-1.48764
 20
55.689
 11
-1.54973
 21
55.4979
  0
LINE
  8
0
 10
-1.54973
 20
55.4979
 11
-1.58738
 21
55.3005
  0
LINE
  8
0
 10
-1.58738
 20
55.3005
 11
-1.6
 21
55.1
  0
LINE
  8
0
 10
-1.6
 20
55.1
 11
-1.6
 21
0
  0
LINE
  8
0
 10
2
 20
3.5
 11
2.01183
 21
3.688
  0
LINE
  8
0
 10
2.01183
 20
3.688
 11
2.04712
 21
3.87303
  0
LINE
  8
0
 10
2.04712
 20
3.87303
 11
2.10534
 21
4.05219
  0
LINE
  8
0
 10
2.10534
 20
4.05219
 11
2.18554
 21
4.22263
  0
LINE
  8
0
 10
2.18554
 20
4.22263
 11
2.28647
 21
4.38168
  0
LINE
  8
0
 10
2.28647
 20
4.38168
 11
2.40655
 21
4.52682
  0
LINE
  8
0
 10
2.40655
 20
4.52682
 11
2.54386
 21
4.65577
  0
LINE
  8
0
 10
2.54386
 20
4.65577
 11
2.69626
 21
4.76649
  0
LINE
  8
0
 10
2.69626
 20
4.76649
 11
2.86133
 21
4.85724
  0
LINE
  8
0
 10
2.86133
 20
4.85724
 11
3.03647
 21
4.92658
  0
LINE
  8
0
 10
3.03647
 20
4.92658
 11
3.21893
 21
4.97343
  0
LINE
  8
0
 10
3.21893
 20
4.97343
 11
3.40581
 21
4.99704
  0
LINE
  8
0
 10
3.40581
 20
4.99704
 11
3.59418
 21
4.99704
  0
LINE
  8
0
 10
3.59418
 20
4.99704
 11
3.78107
 21
4.97343
  0
LINE
  8
0
 10
3.78107
 20
4.97343
 11
3.96352
 21
4.92658
  0
LINE
  8
0
 10
3.96352
 20
4.92658
 11
4.13867
 21
4.85724
  0
LINE
  8
0
 10
4.13867
 20
4.85724
 11
4.30374
 21
4.76649
  0
LINE
  8
0
 10
4.30374
 20
4.76649
 11
4.45614
 21
4.65577
  0
LINE
  8
0
 10
4.45614
 20
4.65577
 11
4.59345
 21
4.52682
  0
LINE
  8
0
 10
4.59345
 20
4.52682
 11
4.71352
 21
4.38168
  0
LINE
  8
0
 10
4.71352
 20
4.38168
 11
4.81446
 21
4.22263
  0
LINE
  8
0
 10
4.81446
 20
4.22263
 11
4.89466
 21
4.05219
  0
LINE
  8
0
 10
4.89466
 20
4.05219
 11
4.95287
 21
3.87303
  0
LINE
  8
0
 10
4.95287
 20
3.87303
 11
4.98817
 21
3.688
  0
LINE
  8
0
 10
4.98817
 20
3.688
 11
5
 21
3.5
  0
LINE
  8
0
 10
5
 20
3.5
 11
4.98817
 21
3.312
  0
LINE
  8
0
 10
4.98817
 20
3.312
 11
4.95287
 21
3.12696
  0
LINE
  8
0
 10
4.95287
 20
3.12696
 11
4.89466
 21
2.94781
  0
LINE
  8
0
 10
4.89466
 20
2.94781
 11
4.81446
 21
2.77737
  0
LINE
  8
0
 10
4.81446
 20
2.77737
 11
4.71352
 21
2.61832
  0
LINE
  8
0
 10
4.71352
 20
2.61832
 11
4.59345
 21
2.47318
  0
LINE
  8
0
 10
4.59345
 20
2.47318
 11
4.45614
 21
2.34423
  0
LINE
  8
0
 10
4.45614
 20
2.34423
 11
4.30374
 21
2.23351
  0
LINE
  8
0
 10
4.30374
 20
2.23351
 11
4.13867
 21
2.14276
  0
LINE
  8
0
 10
4.13867
 20
2.14276
 11
3.96352
 21
2.07341
  0
LINE
  8
0
 10
3.96352
 20
2.07341
 11
3.78107
 21
2.02657
  0
LINE
  8
0
 10
3.78107
 20
2.02657
 11
3.59418
 21
2.00296
  0
LINE
  8
0
 10
3.59418
 20
2.00296
 11
3.40581
 21
2.00296
  0
LINE
  8
0
 10
3.40581
 20
2.00296
 11
3.21893
 21
2.02657
  0
LINE
  8
0
 10
3.21893
 20
2.02657
 11
3.03647
 21
2.07341
  0
LINE
  8
0
 10
3.03647
 20
2.07341
 11
2.86133
 21
2.14276
  0
LINE
  8
0
 10
2.86133
 20
2.14276
 11
2.69626
 21
2.23351
  0
LINE
  8
0
 10
2.69626
 20
2.23351
 11
2.54386
 21
2.34423
  0
LINE
  8
0
 10
2.54386
 20
2.34423
 11
2.40655
 21
2.47318
  0
LINE
  8
0
 10
2.40655
 20
2.47318
 11
2.28647
 21
2.61832
  0
LINE
  8
0
 10
2.28647
 20
2.61832
 11
2.18554
 21
2.77737
  0
LINE
  8
0
 10
2.18554
 20
2.77737
 11
2.10534
 21
2.94781
  0
LINE
  8
0
 10
2.10534
 20
2.94781
 11
2.04712
 21
3.12696
  0
LINE
  8
0
 10
2.04712
 20
3.12696
 11
2.01183
 21
3.312
  0
LINE
  8
0
 10
2.01183
 20
3.312
 11
2
 21
3.5
  0
LINE
  8
0
 10
2
 20
52.4
 11
2.01183
 21
52.588
  0
LINE
  8
0
 10
2.01183
 20
52.588
 11
2.04712
 21
52.773
  0
LINE
  8
0
 10
2.04712
 20
52.773
 11
2.10534
 21
52.9522
  0
LINE
  8
0
 10
2.10534
 20
52.9522
 11
2.18554
 21
53.1226
  0
LINE
  8
0
 10
2.18554
 20
53.1226
 11
2.28647
 21
53.2817
  0
LINE
  8
0
 10
2.28647
 20
53.2817
 11
2.40655
 21
53.4268
  0
LINE
  8
0
 10
2.40655
 20
53.4268
 11
2.54386
 21
53.5558
  0
LINE
  8
0
 10
2.54386
 20
53.5558
 11
2.69626
 21
53.6665
  0
LINE
  8
0
 10
2.69626
 20
53.6665
 11
2.86133
 21
53.7572
  0
LINE
  8
0
 10
2.86133
 20
53.7572
 11
3.03647
 21
53.8266
  0
LINE
  8
0
 10
3.03647
 20
53.8266
 11
3.21893
 21
53.8734
  0
LINE
  8
0
 10
3.21893
 20
53.8734
 11
3.40581
 21
53.897
  0
LINE
  8
0
 10
3.40581
 20
53.897
 11
3.59418
 21
53.897
  0
LINE
  8
0
 10
3.59418
 20
53.897
 11
3.78107
 21
53.8734
  0
LINE
  8
0
 10
3.78107
 20
53.8734
 11
3.96352
 21
53.8266
  0
LINE
  8
0
 10
3.96352
 20
53.8266
 11
4.13867
 21
53.7572
  0
LINE
  8
0
 10
4.13867
 20
53.7572
 11
4.30374
 21
53.6665
  0
LINE
  8
0
 10
4.30374
 20
53.6665
 11
4.45614
 21
53.5558
  0
LINE
  8
0
 10
4.45614
 20
53.5558
 11
4.59345
 21
53.4268
  0
LINE
  8
0
 10
4.59345
 20
53.4268
 11
4.71352
 21
53.2817
  0
LINE
  8
0
 10
4.71352
 20
53.2817
 11
4.81446
 21
53.1226
  0
LINE
  8
0
 10
4.81446
 20
53.1226
 11
4.89466
 21
52.9522
  0
LINE
  8
0
 10
4.89466
 20
52.9522
 11
4.95287
 21
52.773
  0
LINE
  8
0
 10
4.95287
 20
52.773
 11
4.98817
 21
52.588
  0
LINE
  8
0
 10
4.98817
 20
52.588
 11
5
 21
52.4
  0
LINE
  8
0
 10
5
 20
52.4
 11
4.98817
 21
52.212
  0
LINE
  8
0
 10
4.98817
 20
52.212
 11
4.95287
 21
52.027
  0
LINE
  8
0
 10
4.95287
 20
52.027
 11
4.89466
 21
51.8478
  0
LINE
  8
0
 10
4.89466
 20
51.8478
 11
4.81446
 21
51.6774
  0
LINE
  8
0
 10
4.81446
 20
51.6774
 11
4.71352
 21
51.5183
  0
LINE
  8
0
 10
4.71352
 20
51.5183
 11
4.59345
 21
51.3732
  0
LINE
  8
0
 10
4.59345
 20
51.3732
 11
4.45614
 21
51.2442
  0
LINE
  8
0
 10
4.45614
 20
51.2442
 11
4.30374
 21
51.1335
  0
LINE
  8
0
 10
4.30374
 20
51.1335
 11
4.13867
 21
51.0428
  0
LINE
  8
0
 10
4.13867
 20
51.0428
 11
3.96352
 21
50.9734
  0
LINE
  8
0
 10
3.96352
 20
50.9734
 11
3.78107
 21
50.9266
  0
LINE
  8
0
 10
3.78107
 20
50.9266
 11
3.59418
 21
50.903
  0
LINE
  8
0
 10
3.59418
 20
50.903
 11
3.40581
 21
50.903
  0
LINE
  8
0
 10
3.40581
 20
50.903
 11
3.21893
 21
50.9266
  0
LINE
  8
0
 10
3.21893
 20
50.9266
 11
3.03647
 21
50.9734
  0
LINE
  8
0
 10
3.03647
 20
50.9734
 11
2.86133
 21
51.0428
  0
LINE
  8
0
 10
2.86133
 20
51.0428
 11
2.69626
 21
51.1335
  0
LINE
  8
0
 10
2.69626
 20
51.1335
 11
2.54386
 21
51.2442
  0
LINE
  8
0
 10
2.54386
 20
51.2442
 11
2.40655
 21
51.3732
  0
LINE
  8
0
 10
2.40655
 20
51.3732
 11
2.28647
 21
51.5183
  0
LINE
  8
0
 10
2.28647
 20
51.5183
 11
2.18554
 21
51.6774
  0
LINE
  8
0
 10
2.18554
 20
51.6774
 11
2.10534
 21
51.8478
  0
LINE
  8
0
 10
2.10534
 20
51.8478
 11
2.04712
 21
52.027
  0
LINE
  8
0
 10
2.04712
 20
52.027
 11
2.01183
 21
52.212
  0
LINE
  8
0
 10
2.01183
 20
52.212
 11
2
 21
52.4
  0
LINE
  8
0
 10
133.3
 20
3.5
 11
133.312
 21
3.688
  0
LINE
  8
0
 10
133.312
 20
3.688
 11
133.347
 21
3.87303
  0
LINE
  8
0
 10
133.347
 20
3.87303
 11
133.405
 21
4.05219
  0
LINE
  8
0
 10
133.405
 20
4.05219
 11
133.486
 21
4.22263
  0
LINE
  8
0
 10
133.486
 20
4.22263
 11
133.586
 21
4.38168
  0
LINE
  8
0
 10
133.586
 20
4.38168
 11
133.707
 21
4.52682
  0
LINE
  8
0
 10
133.707
 20
4.52682
 11
133.844
 21
4.65577
  0
LINE
  8
0
 10
133.844
 20
4.65577
 11
133.996
 21
4.76649
  0
LINE
  8
0
 10
133.996
 20
4.76649
 11
134.161
 21
4.85724
  0
LINE
  8
0
 10
134.161
 20
4.85724
 11
134.336
 21
4.92658
  0
LINE
  8
0
 10
134.336
 20
4.92658
 11
134.519
 21
4.97343
  0
LINE
  8
0
 10
134.519
 20
4.97343
 11
134.706
 21
4.99704
  0
LINE
  8
0
 10
134.706
 20
4.99704
 11
134.894
 21
4.99704
  0
LINE
  8
0
 10
134.894
 20
4.99704
 11
135.081
 21
4.97343
  0
LINE
  8
0
 10
135.081
 20
4.97343
 11
135.264
 21
4.92658
  0
LINE
  8
0
 10
135.264
 20
4.92658
 11
135.439
 21
4.85724
  0
LINE
  8
0
 10
135.439
 20
4.85724
 11
135.604
 21
4.76649
  0
LINE
  8
0
 10
135.604
 20
4.76649
 11
135.756
 21
4.65577
  0
LINE
  8
0
 10
135.756
 20
4.65577
 11
135.893
 21
4.52682
  0
LINE
  8
0
 10
135.893
 20
4.52682
 11
136.014
 21
4.38168
  0
LINE
  8
0
 10
136.014
 20
4.38168
 11
136.114
 21
4.22263
  0
LINE
  8
0
 10
136.114
 20
4.22263
 11
136.195
 21
4.05219
  0
LINE
  8
0
 10
136.195
 20
4.05219
 11
136.253
 21
3.87303
  0
LINE
  8
0
 10
136.253
 20
3.87303
 11
136.288
 21
3.688
  0
LINE
  8
0
 10
136.288
 20
3.688
 11
136.3
 21
3.5
  0
LINE
  8
0
 10
136.3
 20
3.5
 11
136.288
 21
3.312
  0
LINE
  8
0
 10
136.288
 20
3.312
 11
136.253
 21
3.12696
  0
LINE
  8
0
 10
136.253
 20
3.12696
 11
136.195
 21
2.94781
  0
LINE
  8
0
 10
136.195
 20
2.94781
 11
136.114
 21
2.77737
  0
LINE
  8
0
 10
136.114
 20
2.77737
 11
136.014
 21
2.61832
  0
LINE
  8
0
 10
136.014
 20
2.61832
 11
135.893
 21
2.47318
  0
LINE
  8
0
 10
135.893
 20
2.47318
 11
135.756
 21
2.34423
  0
LINE
  8
0
 10
135.756
 20
2.34423
 11
135.604
 21
2.23351
  0
LINE
  8
0
 10
135.604
 20
2.23351
 11
135.439
 21
2.14276
  0
LINE
  8
0
 10
135.439
 20
2.14276
 11
135.264
 21
2.07341
  0
LINE
  8
0
 10
135.264
 20
2.07341
 11
135.081
 21
2.02657
  0
LINE
  8
0
 10
135.081
 20
2.02657
 11
134.894
 21
2.00296
  0
LINE
  8
0
 10
134.894
 20
2.00296
 11
134.706
 21
2.00296
  0
LINE
  8
0
 10
134.706
 20
2.00296
 11
134.519
 21
2.02657
  0
LINE
  8
0
 10
134.519
 20
2.02657
 11
134.336
 21
2.07341
  0
LINE
  8
0
 10
134.336
 20
2.07341
 11
134.161
 21
2.14276
  0
LINE
  8
0
 10
134.161
 20
2.14276
 11
133.996
 21
2.23351
  0
LINE
  8
0
 10
133.996
 20
2.23351
 11
133.844
 21
2.34423
  0
LINE
  8
0
 10
133.844
 20
2.34423
 11
133.707
 21
2.47318
  0
LINE
  8
0
 10
133.707
 20
2.47318
 11
133.586
 21
2.61832
  0
LINE
  8
0
 10
133.586
 20
2.61832
 11
133.486
 21
2.77737
  0
LINE
  8
0
 10
133.486
 20
2.77737
 11
133.405
 21
2.94781
  0
LINE
  8
0
 10
133.405
 20
2.94781
 11
133.347
 21
3.12696
  0
LINE
  8
0
 10
133.347
 20
3.12696
 11
133.312
 21
3.312
  0
LINE
  8
0
 10
133.312
 20
3.312
 11
133.3
 21
3.5
  0
LINE
  8
0
 10
133.3
 20
52.4
 11
133.312
 21
52.588
  0
LINE
  8
0
 10
133.312
 20
52.588
 11
133.347
 21
52.773
  0
LINE
  8
0
 10
133.347
 20
52.773
 11
133.405
 21
52.9522
  0
LINE
  8
0
 10
133.405
 20
52.9522
 11
133.486
 21
53.1226
  0
LINE
  8
0
 10
133.486
 20
53.1226
 11
133.586
 21
53.2817
  0
LINE
  8
0
 10
133.586
 20
53.2817
 11
133.707
 21
53.4268
  0
LINE
  8
0
 10
133.707
 20
53.4268
 11
133.844
 21
53.5558
  0
LINE
  8
0
 10
133.844
 20
53.5558
 11
133.996
 21
53.6665
  0
LINE
  8
0
 10
133.996
 20
53.6665
 11
134.161
 21
53.7572
  0
LINE
  8
0
 10
134.161
 20
53.7572
 11
134.336
 21
53.8266
  0
LINE
  8
0
 10
134.336
 20
53.8266
 11
134.519
 21
53.8734
  0
LINE
  8
0
 10
134.519
 20
53.8734
 11
134.706
 21
53.897
  0
LINE
  8
0
 10
134.706
 20
53.897
 11
134.894
 21
53.897
  0
LINE
  8
0
 10
134.894
 20
53.897
 11
135.081
 21
53.8734
  0
LINE
  8
0
 10
135.081
 20
53.8734
 11
135.264
 21
53.8266
  0
LINE
  8
0
 10
135.264
 20
53.8266
 11
135.439
 21
53.7572
  0
LINE
  8
0
 10
135.439
 20
53.7572
 11
135.604
 21
53.6665
  0
LINE
  8
0
 10
135.604
 20
53.6665
 11
135.756
 21
53.5558
  0
LINE
  8
0
 10
135.756
 20
53.5558
 11
135.893
 21
53.4268
  0
LINE
  8
0
 10
135.893
 20
53.4268
 11
136.014
 21
53.2817
  0
LINE
  8
0
 10
136.014
 20
53.2817
 11
136.114
 21
53.1226
  0
LINE
  8
0
 10
136.114
 20
53.1226
 11
136.195
 21
52.9522
  0
LINE
  8
0
 10
136.195
 20
52.9522
 11
136.253
 21
52.773
  0
LINE
  8
0
 10
136.253
 20
52.773
 11
136.288
 21
52.588
  0
LINE
  8
0
 10
136.288
 20
52.588
 11
136.3
 21
52.4
  0
LINE
  8
0
 10
136.3
 20
52.4
 11
136.288
 21
52.212
  0
LINE
  8
0
 10
136.288
 20
52.212
 11
136.253
 21
52.027
  0
LINE
  8
0
 10
136.253
 20
52.027
 11
136.195
 21
51.8478
  0
LINE
  8
0
 10
136.195
 20
51.8478
 11
136.114
 21
51.6774
  0
LINE
  8
0
 10
136.114
 20
51.6774
 11
136.014
 21
51.5183
  0
LINE
  8
0
 10
136.014
 20
51.5183
 11
135.893
 21
51.3732
  0
LINE
  8
0
 10
135.893
 20
51.3732
 11
135.756
 21
51.2442
  0
LINE
  8
0
 10
135.756
 20
51.2442
 11
135.604
 21
51.1335
  0
LINE
  8
0
 10
135.604
 20
51.1335
 11
135.439
 21
51.0428
  0
LINE
  8
0
 10
135.439
 20
51.0428
 11
135.264
 21
50.9734
  0
LINE
  8
0
 10
135.264
 20
50.9734
 11
135.081
 21
50.9266
  0
LINE
  8
0
 10
135.081
 20
50.9266
 11
134.894
 21
50.903
  0
LINE
  8
0
 10
134.894
 20
50.903
 11
134.706
 21
50.903
  0
LINE
  8
0
 10
134.706
 20
50.903
 11
134.519
 21
50.9266
  0
LINE
  8
0
 10
134.519
 20
50.9266
 11
134.336
 21
50.9734
  0
LINE
  8
0
 10
134.336
 20
50.9734
 11
134.161
 21
51.0428
  0
LINE
  8
0
 10
134.161
 20
51.0428
 11
133.996
 21
51.1335
  0
LINE
  8
0
 10
133.996
 20
51.1335
 11
133.844
 21
51.2442
  0
LINE
  8
0
 10
133.844
 20
51.2442
 11
133.707
 21
51.3732
  0
LINE
  8
0
 10
133.707
 20
51.3732
 11
133.586
 21
51.5183
  0
LINE
  8
0
 10
133.586
 20
51.5183
 11
133.486
 21
51.6774
  0
LINE
  8
0
 10
133.486
 20
51.6774
 11
133.405
 21
51.8478
  0
LINE
  8
0
 10
133.405
 20
51.8478
 11
133.347
 21
52.027
  0
LINE
  8
0
 10
133.347
 20
52.027
 11
133.312
 21
52.212
  0
LINE
  8
0
 10
133.312
 20
52.212
 11
133.3
 21
52.4
  0
ENDSEC
  0
SECTION
  2
OBJECTS
  0
DICTIONARY
  0
ENDSEC
  0
EOF
