  0
SECTION
  2
HEADER
  9
$ACADVER
  1
AC1009
  9
$EXTMIN
 10
0.0
 20
0.0
 30
0.0
  9
$EXTMAX
 10
1000.0
 20
1000.0
 30
0.0
  9
$FILLMODE
 70
 0
  9
$SPLFRAME
 70
 1
  0
ENDSEC
  0
SECTION
  2
TABLES
  0
TABLE
  2
LAYER
 70
1
  0
LAYER
  2
0
 70
     0
 62
     7
  6
CONTINUOUS
  0
ENDTAB
  0
ENDSEC
  0
SECTION
  2
ENTITIES
  0
LINE
  8
0
 62
     0
 10
0.235894
 20
0.968804
 30
0.0
 11
0.235894
 21
0.480957
 31
0.0
  0
LINE
  8
0
 62
     0
 10
0.235894
 20
0.480957
 30
0.0
 11
0.377821
 21
0.480957
 31
0.0
  0
LINE
  8
0
 62
     0
 10
0.377821
 20
0.480957
 30
0.0
 11
0.377821
 21
1.18886
 31
0.0
  0
LINE
  8
0
 62
     0
 10
0.377821
 20
1.18886
 30
0.0
 11
0.261936
 21
1.18886
 31
0.0
  0
LINE
  8
0
 62
     0
 10
0.261936
 20
1.18886
 30
0.0
 11
0.256944
 21
1.16086
 31
0.0
  0
LINE
  8
0
 62
     0
 10
0.256944
 20
1.16086
 30
0.0
 11
0.22895
 21
1.10986
 31
0.0
  0
LINE
  8
0
 62
     0
 10
0.22895
 20
1.10986
 30
0.0
 11
0.19911
 21
1.08643
 31
0.0
  0
LINE
  8
0
 62
     0
 10
0.19911
 20
1.08643
 30
0.0
 11
0.161025
 21
1.07275
 31
0.0
  0
LINE
  8
0
 62
     0
 10
0.161025
 20
1.07275
 30
0.0
 11
0.125108
 21
1.0676
 31
0.0
  0
LINE
  8
0
 62
     0
 10
0.125108
 20
1.0676
 30
0.0
 11
0.0690104
 21
1.06386
 31
0.0
  0
LINE
  8
0
 62
     0
 10
0.0690104
 20
1.06386
 30
0.0
 11
0.0690104
 21
0.968804
 31
0.0
  0
LINE
  8
0
 62
     0
 10
0.0690104
 20
0.968804
 30
0.0
 11
0.235894
 21
0.968804
 31
0.0
  0
LINE
  8
0
 62
     0
 10
0.917969
 20
0.909776
 30
0.0
 11
0.917969
 21
0.581868
 31
0.0
  0
LINE
  8
0
 62
     0
 10
0.917969
 20
0.581868
 30
0.0
 11
0.923828
 21
0.538519
 31
0.0
  0
LINE
  8
0
 62
     0
 10
0.923828
 20
0.538519
 30
0.0
 11
0.940972
 21
0.507867
 31
0.0
  0
LINE
  8
0
 62
     0
 10
0.940972
 20
0.507867
 30
0.0
 11
0.992676
 21
0.480849
 31
0.0
  0
LINE
  8
0
 62
     0
 10
0.992676
 20
0.480849
 30
0.0
 11
1.07596
 21
0.474012
 31
0.0
  0
LINE
  8
0
 62
     0
 10
1.07596
 20
0.474012
 30
0.0
 11
1.14193
 21
0.477051
 31
0.0
  0
LINE
  8
0
 62
     0
 10
1.14193
 20
0.477051
 30
0.0
 11
1.14193
 21
0.581
 31
0.0
  0
LINE
  8
0
 62
     0
 10
1.14193
 20
0.581
 30
0.0
 11
1.12782
 21
0.579915
 31
0.0
  0
LINE
  8
0
 62
     0
 10
1.12782
 20
0.579915
 30
0.0
 11
1.11502
 21
0.578831
 31
0.0
  0
LINE
  8
0
 62
     0
 10
1.11502
 20
0.578831
 30
0.0
 11
1.08122
 21
0.581
 31
0.0
  0
LINE
  8
0
 62
     0
 10
1.08122
 20
0.581
 30
0.0
 11
1.06402
 21
0.58686
 31
0.0
  0
LINE
  8
0
 62
     0
 10
1.06402
 20
0.58686
 30
0.0
 11
1.05811
 21
0.601019
 31
0.0
  0
LINE
  8
0
 62
     0
 10
1.05811
 20
0.601019
 30
0.0
 11
1.05599
 21
0.627875
 31
0.0
  0
LINE
  8
0
 62
     0
 10
1.05599
 20
0.627875
 30
0.0
 11
1.05599
 21
0.909776
 31
0.0
  0
LINE
  8
0
 62
     0
 10
1.05599
 20
0.909776
 30
0.0
 11
1.14193
 21
0.909776
 31
0.0
  0
LINE
  8
0
 62
     0
 10
1.14193
 20
0.909776
 30
0.0
 11
1.14193
 21
1.00787
 31
0.0
  0
LINE
  8
0
 62
     0
 10
1.14193
 20
1.00787
 30
0.0
 11
1.05599
 21
1.00787
 31
0.0
  0
LINE
  8
0
 62
     0
 10
1.05599
 20
1.00787
 30
0.0
 11
1.05599
 21
1.15782
 31
0.0
  0
LINE
  8
0
 62
     0
 10
1.05599
 20
1.15782
 30
0.0
 11
0.917969
 21
1.15782
 31
0.0
  0
LINE
  8
0
 62
     0
 10
0.917969
 20
1.15782
 30
0.0
 11
0.917969
 21
1.00787
 31
0.0
  0
LINE
  8
0
 62
     0
 10
0.917969
 20
1.00787
 30
0.0
 11
0.843967
 21
1.00787
 31
0.0
  0
LINE
  8
0
 62
     0
 10
0.843967
 20
1.00787
 30
0.0
 11
0.843967
 21
0.909776
 31
0.0
  0
LINE
  8
0
 62
     0
 10
0.843967
 20
0.909776
 30
0.0
 11
0.917969
 21
0.909776
 31
0.0
  0
LINE
  8
0
 62
     0
 10
1.52089
 20
1.02479
 30
0.0
 11
1.46761
 21
1.01883
 31
0.0
  0
LINE
  8
0
 62
     0
 10
1.46761
 20
1.01883
 30
0.0
 11
1.42497
 21
1.00092
 31
0.0
  0
LINE
  8
0
 62
     0
 10
1.42497
 20
1.00092
 30
0.0
 11
1.36594
 21
0.943847
 31
0.0
  0
LINE
  8
0
 62
     0
 10
1.36594
 20
0.943847
 30
0.0
 11
1.36594
 21
1.19971
 31
0.0
  0
LINE
  8
0
 62
     0
 10
1.36594
 20
1.19971
 30
0.0
 11
1.22683
 21
1.19971
 31
0.0
  0
LINE
  8
0
 62
     0
 10
1.22683
 20
1.19971
 30
0.0
 11
1.22683
 21
0.480957
 31
0.0
  0
LINE
  8
0
 62
     0
 10
1.22683
 20
0.480957
 30
0.0
 11
1.36399
 21
0.480957
 31
0.0
  0
LINE
  8
0
 62
     0
 10
1.36399
 20
0.480957
 30
0.0
 11
1.36399
 21
0.548882
 31
0.0
  0
LINE
  8
0
 62
     0
 10
1.36399
 20
0.548882
 30
0.0
 11
1.39094
 21
0.515408
 31
0.0
  0
LINE
  8
0
 62
     0
 10
1.39094
 20
0.515408
 30
0.0
 11
1.41585
 21
0.493978
 31
0.0
  0
LINE
  8
0
 62
     0
 10
1.41585
 20
0.493978
 30
0.0
 11
1.46257
 21
0.473796
 31
0.0
  0
LINE
  8
0
 62
     0
 10
1.46257
 20
0.473796
 30
0.0
 11
1.52285
 21
0.467068
 31
0.0
  0
LINE
  8
0
 62
     0
 10
1.52285
 20
0.467068
 30
0.0
 11
1.57243
 21
0.472168
 31
0.0
  0
LINE
  8
0
 62
     0
 10
1.57243
 20
0.472168
 30
0.0
 11
1.61643
 21
0.487414
 31
0.0
  0
LINE
  8
0
 62
     0
 10
1.61643
 20
0.487414
 30
0.0
 11
1.65457
 21
0.512967
 31
0.0
  0
LINE
  8
0
 62
     0
 10
1.65457
 20
0.512967
 30
0.0
 11
1.6869
 21
0.548882
 31
0.0
  0
LINE
  8
0
 62
     0
 10
1.6869
 20
0.548882
 30
0.0
 11
1.73085
 21
0.640517
 31
0.0
  0
LINE
  8
0
 62
     0
 10
1.73085
 20
0.640517
 30
0.0
 11
1.74571
 21
0.753961
 31
0.0
  0
LINE
  8
0
 62
     0
 10
1.74571
 20
0.753961
 30
0.0
 11
1.73074
 21
0.862631
 31
0.0
  0
LINE
  8
0
 62
     0
 10
1.73074
 20
0.862631
 30
0.0
 11
1.68582
 21
0.948839
 31
0.0
  0
LINE
  8
0
 62
     0
 10
1.68582
 20
0.948839
 30
0.0
 11
1.653
 21
0.98226
 31
0.0
  0
LINE
  8
0
 62
     0
 10
1.653
 20
0.98226
 30
0.0
 11
1.61458
 21
1.00597
 31
0.0
  0
LINE
  8
0
 62
     0
 10
1.61458
 20
1.00597
 30
0.0
 11
1.57047
 21
1.02013
 31
0.0
  0
LINE
  8
0
 62
     0
 10
1.57047
 20
1.02013
 30
0.0
 11
1.52089
 21
1.02479
 31
0.0
  0
LINE
  8
0
 62
     0
 10
1.48594
 20
0.582954
 30
0.0
 11
1.4311
 21
0.594183
 31
0.0
  0
LINE
  8
0
 62
     0
 10
1.4311
 20
0.594183
 30
0.0
 11
1.39285
 21
0.627875
 31
0.0
  0
LINE
  8
0
 62
     0
 10
1.39285
 20
0.627875
 30
0.0
 11
1.36941
 21
0.677951
 31
0.0
  0
LINE
  8
0
 62
     0
 10
1.36941
 20
0.677951
 30
0.0
 11
1.36182
 21
0.739854
 31
0.0
  0
LINE
  8
0
 62
     0
 10
1.36182
 20
0.739854
 30
0.0
 11
1.36556
 21
0.792697
 31
0.0
  0
LINE
  8
0
 62
     0
 10
1.36556
 20
0.792697
 30
0.0
 11
1.37679
 21
0.834907
 31
0.0
  0
LINE
  8
0
 62
     0
 10
1.37679
 20
0.834907
 30
0.0
 11
1.39404
 21
0.864475
 31
0.0
  0
LINE
  8
0
 62
     0
 10
1.39404
 20
0.864475
 30
0.0
 11
1.41732
 21
0.885742
 31
0.0
  0
LINE
  8
0
 62
     0
 10
1.41732
 20
0.885742
 30
0.0
 11
1.44656
 21
0.898546
 31
0.0
  0
LINE
  8
0
 62
     0
 10
1.44656
 20
0.898546
 30
0.0
 11
1.48182
 21
0.902832
 31
0.0
  0
LINE
  8
0
 62
     0
 10
1.48182
 20
0.902832
 30
0.0
 11
1.51628
 21
0.898546
 31
0.0
  0
LINE
  8
0
 62
     0
 10
1.51628
 20
0.898546
 30
0.0
 11
1.54492
 21
0.885471
 31
0.0
  0
LINE
  8
0
 62
     0
 10
1.54492
 20
0.885471
 30
0.0
 11
1.56776
 21
0.863661
 31
0.0
  0
LINE
  8
0
 62
     0
 10
1.56776
 20
0.863661
 30
0.0
 11
1.5849
 21
0.832954
 31
0.0
  0
LINE
  8
0
 62
     0
 10
1.5849
 20
0.832954
 30
0.0
 11
1.59614
 21
0.790907
 31
0.0
  0
LINE
  8
0
 62
     0
 10
1.59614
 20
0.790907
 30
0.0
 11
1.59988
 21
0.739854
 31
0.0
  0
LINE
  8
0
 62
     0
 10
1.59988
 20
0.739854
 30
0.0
 11
1.59239
 21
0.676215
 31
0.0
  0
LINE
  8
0
 62
     0
 10
1.59239
 20
0.676215
 30
0.0
 11
1.56993
 21
0.625922
 31
0.0
  0
LINE
  8
0
 62
     0
 10
1.56993
 20
0.625922
 30
0.0
 11
1.53381
 21
0.593533
 31
0.0
  0
LINE
  8
0
 62
     0
 10
1.53381
 20
0.593533
 30
0.0
 11
1.48594
 21
0.582954
 31
0.0
  0
LINE
  8
0
 62
     0
 10
1.98492
 20
1.19971
 30
0.0
 11
1.84581
 21
1.19971
 31
0.0
  0
LINE
  8
0
 62
     0
 10
1.84581
 20
1.19971
 30
0.0
 11
1.84581
 21
0.480957
 31
0.0
  0
LINE
  8
0
 62
     0
 10
1.84581
 20
0.480957
 30
0.0
 11
1.98492
 21
0.480957
 31
0.0
  0
LINE
  8
0
 62
     0
 10
1.98492
 20
0.480957
 30
0.0
 11
1.98492
 21
1.19971
 31
0.0
  0
ENDSEC
  0
EOF
