  0
SECTION
  2
HEADER
  9
$ACADVER
  1
AC1009
  9
$EXTMIN
 10
0.0
 20
0.0
 30
0.0
  9
$EXTMAX
 10
1000.0
 20
1000.0
 30
0.0
  9
$FILLMODE
 70
 0
  9
$SPLFRAME
 70
 1
  0
ENDSEC
  0
SECTION
  2
TABLES
  0
TABLE
  2
LAYER
 70
1
  0
LAYER
  2
0
 70
     0
 62
     7
  6
CONTINUOUS
  0
ENDTAB
  0
ENDSEC
  0
SECTION
  2
ENTITIES
  0
LINE
  8
0
 62
     0
 10
0.0310331
 20
0.480957
 30
0.0
 11
0.515842
 21
0.480957
 31
0.0
  0
LINE
  8
0
 62
     0
 10
0.515842
 20
0.480957
 30
0.0
 11
0.515842
 21
0.604004
 31
0.0
  0
LINE
  8
0
 62
     0
 10
0.515842
 20
0.604004
 30
0.0
 11
0.207031
 21
0.604004
 31
0.0
  0
LINE
  8
0
 62
     0
 10
0.207031
 20
0.604004
 30
0.0
 11
0.238932
 21
0.641982
 31
0.0
  0
LINE
  8
0
 62
     0
 10
0.238932
 20
0.641982
 30
0.0
 11
0.266656
 21
0.664008
 31
0.0
  0
LINE
  8
0
 62
     0
 10
0.266656
 20
0.664008
 30
0.0
 11
0.310981
 21
0.695801
 31
0.0
  0
LINE
  8
0
 62
     0
 10
0.310981
 20
0.695801
 30
0.0
 11
0.366971
 21
0.734864
 31
0.0
  0
LINE
  8
0
 62
     0
 10
0.366971
 20
0.734864
 30
0.0
 11
0.427517
 21
0.78304
 31
0.0
  0
LINE
  8
0
 62
     0
 10
0.427517
 20
0.78304
 30
0.0
 11
0.467882
 21
0.825792
 31
0.0
  0
LINE
  8
0
 62
     0
 10
0.467882
 20
0.825792
 30
0.0
 11
0.503039
 21
0.890896
 31
0.0
  0
LINE
  8
0
 62
     0
 10
0.503039
 20
0.890896
 30
0.0
 11
0.514974
 21
0.964899
 31
0.0
  0
LINE
  8
0
 62
     0
 10
0.514974
 20
0.964899
 30
0.0
 11
0.498372
 21
1.05707
 31
0.0
  0
LINE
  8
0
 62
     0
 10
0.498372
 20
1.05707
 30
0.0
 11
0.448785
 21
1.12983
 31
0.0
  0
LINE
  8
0
 62
     0
 10
0.448785
 20
1.12983
 30
0.0
 11
0.370606
 21
1.17616
 31
0.0
  0
LINE
  8
0
 62
     0
 10
0.370606
 20
1.17616
 30
0.0
 11
0.269965
 21
1.19168
 31
0.0
  0
LINE
  8
0
 62
     0
 10
0.269965
 20
1.19168
 30
0.0
 11
0.204101
 21
1.18511
 31
0.0
  0
LINE
  8
0
 62
     0
 10
0.204101
 20
1.18511
 30
0.0
 11
0.149197
 21
1.16536
 31
0.0
  0
LINE
  8
0
 62
     0
 10
0.149197
 20
1.16536
 30
0.0
 11
0.105143
 21
1.13227
 31
0.0
  0
LINE
  8
0
 62
     0
 10
0.105143
 20
1.13227
 30
0.0
 11
0.0720486
 21
1.08577
 31
0.0
  0
LINE
  8
0
 62
     0
 10
0.0720486
 20
1.08577
 30
0.0
 11
0.0487739
 21
1.02148
 31
0.0
  0
LINE
  8
0
 62
     0
 10
0.0487739
 20
1.02148
 30
0.0
 11
0.0390625
 21
0.939942
 31
0.0
  0
LINE
  8
0
 62
     0
 10
0.0390625
 20
0.939942
 30
0.0
 11
0.174044
 21
0.939942
 31
0.0
  0
LINE
  8
0
 62
     0
 10
0.174044
 20
0.939942
 30
0.0
 11
0.179362
 21
0.99159
 31
0.0
  0
LINE
  8
0
 62
     0
 10
0.179362
 20
0.99159
 30
0.0
 11
0.189887
 21
1.02675
 31
0.0
  0
LINE
  8
0
 62
     0
 10
0.189887
 20
1.02675
 30
0.0
 11
0.222765
 21
1.06196
 31
0.0
  0
LINE
  8
0
 62
     0
 10
0.222765
 20
1.06196
 30
0.0
 11
0.275825
 21
1.07384
 31
0.0
  0
LINE
  8
0
 62
     0
 10
0.275825
 20
1.07384
 30
0.0
 11
0.317111
 21
1.06635
 31
0.0
  0
LINE
  8
0
 62
     0
 10
0.317111
 20
1.06635
 30
0.0
 11
0.347874
 21
1.04389
 31
0.0
  0
LINE
  8
0
 62
     0
 10
0.347874
 20
1.04389
 30
0.0
 11
0.366699
 21
1.01058
 31
0.0
  0
LINE
  8
0
 62
     0
 10
0.366699
 20
1.01058
 30
0.0
 11
0.372831
 21
0.969889
 31
0.0
  0
LINE
  8
0
 62
     0
 10
0.372831
 20
0.969889
 30
0.0
 11
0.361708
 21
0.916613
 31
0.0
  0
LINE
  8
0
 62
     0
 10
0.361708
 20
0.916613
 30
0.0
 11
0.328993
 21
0.867893
 31
0.0
  0
LINE
  8
0
 62
     0
 10
0.328993
 20
0.867893
 30
0.0
 11
0.283746
 21
0.828939
 31
0.0
  0
LINE
  8
0
 62
     0
 10
0.283746
 20
0.828939
 30
0.0
 11
0.204861
 21
0.769803
 31
0.0
  0
LINE
  8
0
 62
     0
 10
0.204861
 20
0.769803
 30
0.0
 11
0.114149
 21
0.692979
 31
0.0
  0
LINE
  8
0
 62
     0
 10
0.114149
 20
0.692979
 30
0.0
 11
0.0640192
 21
0.619846
 31
0.0
  0
LINE
  8
0
 62
     0
 10
0.0640192
 20
0.619846
 30
0.0
 11
0.0399306
 21
0.553819
 31
0.0
  0
LINE
  8
0
 62
     0
 10
0.0399306
 20
0.553819
 30
0.0
 11
0.0310331
 21
0.480957
 31
0.0
  0
LINE
  8
0
 62
     0
 10
0.917969
 20
0.909776
 30
0.0
 11
0.917969
 21
0.581868
 31
0.0
  0
LINE
  8
0
 62
     0
 10
0.917969
 20
0.581868
 30
0.0
 11
0.923828
 21
0.538519
 31
0.0
  0
LINE
  8
0
 62
     0
 10
0.923828
 20
0.538519
 30
0.0
 11
0.940972
 21
0.507867
 31
0.0
  0
LINE
  8
0
 62
     0
 10
0.940972
 20
0.507867
 30
0.0
 11
0.992676
 21
0.480849
 31
0.0
  0
LINE
  8
0
 62
     0
 10
0.992676
 20
0.480849
 30
0.0
 11
1.07596
 21
0.474012
 31
0.0
  0
LINE
  8
0
 62
     0
 10
1.07596
 20
0.474012
 30
0.0
 11
1.14193
 21
0.477051
 31
0.0
  0
LINE
  8
0
 62
     0
 10
1.14193
 20
0.477051
 30
0.0
 11
1.14193
 21
0.581
 31
0.0
  0
LINE
  8
0
 62
     0
 10
1.14193
 20
0.581
 30
0.0
 11
1.12782
 21
0.579915
 31
0.0
  0
LINE
  8
0
 62
     0
 10
1.12782
 20
0.579915
 30
0.0
 11
1.11502
 21
0.578831
 31
0.0
  0
LINE
  8
0
 62
     0
 10
1.11502
 20
0.578831
 30
0.0
 11
1.08122
 21
0.581
 31
0.0
  0
LINE
  8
0
 62
     0
 10
1.08122
 20
0.581
 30
0.0
 11
1.06402
 21
0.58686
 31
0.0
  0
LINE
  8
0
 62
     0
 10
1.06402
 20
0.58686
 30
0.0
 11
1.05811
 21
0.601019
 31
0.0
  0
LINE
  8
0
 62
     0
 10
1.05811
 20
0.601019
 30
0.0
 11
1.05599
 21
0.627875
 31
0.0
  0
LINE
  8
0
 62
     0
 10
1.05599
 20
0.627875
 30
0.0
 11
1.05599
 21
0.909776
 31
0.0
  0
LINE
  8
0
 62
     0
 10
1.05599
 20
0.909776
 30
0.0
 11
1.14193
 21
0.909776
 31
0.0
  0
LINE
  8
0
 62
     0
 10
1.14193
 20
0.909776
 30
0.0
 11
1.14193
 21
1.00787
 31
0.0
  0
LINE
  8
0
 62
     0
 10
1.14193
 20
1.00787
 30
0.0
 11
1.05599
 21
1.00787
 31
0.0
  0
LINE
  8
0
 62
     0
 10
1.05599
 20
1.00787
 30
0.0
 11
1.05599
 21
1.15782
 31
0.0
  0
LINE
  8
0
 62
     0
 10
1.05599
 20
1.15782
 30
0.0
 11
0.917969
 21
1.15782
 31
0.0
  0
LINE
  8
0
 62
     0
 10
0.917969
 20
1.15782
 30
0.0
 11
0.917969
 21
1.00787
 31
0.0
  0
LINE
  8
0
 62
     0
 10
0.917969
 20
1.00787
 30
0.0
 11
0.843967
 21
1.00787
 31
0.0
  0
LINE
  8
0
 62
     0
 10
0.843967
 20
1.00787
 30
0.0
 11
0.843967
 21
0.909776
 31
0.0
  0
LINE
  8
0
 62
     0
 10
0.843967
 20
0.909776
 30
0.0
 11
0.917969
 21
0.909776
 31
0.0
  0
LINE
  8
0
 62
     0
 10
1.19797
 20
0.650879
 30
0.0
 11
1.21294
 21
0.5759
 31
0.0
  0
LINE
  8
0
 62
     0
 10
1.21294
 20
0.5759
 30
0.0
 11
1.25787
 21
0.515896
 31
0.0
  0
LINE
  8
0
 62
     0
 10
1.25787
 20
0.515896
 30
0.0
 11
1.29194
 21
0.492893
 31
0.0
  0
LINE
  8
0
 62
     0
 10
1.29194
 20
0.492893
 30
0.0
 11
1.33431
 21
0.476346
 31
0.0
  0
LINE
  8
0
 62
     0
 10
1.33431
 20
0.476346
 30
0.0
 11
1.38493
 21
0.466308
 31
0.0
  0
LINE
  8
0
 62
     0
 10
1.38493
 20
0.466308
 30
0.0
 11
1.44385
 21
0.462944
 31
0.0
  0
LINE
  8
0
 62
     0
 10
1.44385
 20
0.462944
 30
0.0
 11
1.50142
 21
0.466146
 31
0.0
  0
LINE
  8
0
 62
     0
 10
1.50142
 20
0.466146
 30
0.0
 11
1.551
 21
0.475532
 31
0.0
  0
LINE
  8
0
 62
     0
 10
1.551
 20
0.475532
 30
0.0
 11
1.5925
 21
0.491157
 31
0.0
  0
LINE
  8
0
 62
     0
 10
1.5925
 20
0.491157
 30
0.0
 11
1.62592
 21
0.512858
 31
0.0
  0
LINE
  8
0
 62
     0
 10
1.62592
 20
0.512858
 30
0.0
 11
1.66986
 21
0.569933
 31
0.0
  0
LINE
  8
0
 62
     0
 10
1.66986
 20
0.569933
 30
0.0
 11
1.68474
 21
0.641982
 31
0.0
  0
LINE
  8
0
 62
     0
 10
1.68474
 20
0.641982
 30
0.0
 11
1.67438
 21
0.697211
 31
0.0
  0
LINE
  8
0
 62
     0
 10
1.67438
 20
0.697211
 30
0.0
 11
1.64372
 21
0.741808
 31
0.0
  0
LINE
  8
0
 62
     0
 10
1.64372
 20
0.741808
 30
0.0
 11
1.59142
 21
0.776639
 31
0.0
  0
LINE
  8
0
 62
     0
 10
1.59142
 20
0.776639
 30
0.0
 11
1.51893
 21
0.800836
 31
0.0
  0
LINE
  8
0
 62
     0
 10
1.51893
 20
0.800836
 30
0.0
 11
1.463
 21
0.813422
 31
0.0
  0
LINE
  8
0
 62
     0
 10
1.463
 20
0.813422
 30
0.0
 11
1.42008
 21
0.82411
 31
0.0
  0
LINE
  8
0
 62
     0
 10
1.42008
 20
0.82411
 30
0.0
 11
1.39031
 21
0.832954
 31
0.0
  0
LINE
  8
0
 62
     0
 10
1.39031
 20
0.832954
 30
0.0
 11
1.37397
 21
0.839899
 31
0.0
  0
LINE
  8
0
 62
     0
 10
1.37397
 20
0.839899
 30
0.0
 11
1.35813
 21
0.85395
 31
0.0
  0
LINE
  8
0
 62
     0
 10
1.35813
 20
0.85395
 30
0.0
 11
1.35292
 21
0.874838
 31
0.0
  0
LINE
  8
0
 62
     0
 10
1.35292
 20
0.874838
 30
0.0
 11
1.3718
 21
0.907824
 31
0.0
  0
LINE
  8
0
 62
     0
 10
1.3718
 20
0.907824
 30
0.0
 11
1.398
 21
0.918294
 31
0.0
  0
LINE
  8
0
 62
     0
 10
1.398
 20
0.918294
 30
0.0
 11
1.4369
 21
0.921929
 31
0.0
  0
LINE
  8
0
 62
     0
 10
1.4369
 20
0.921929
 30
0.0
 11
1.48421
 21
0.915039
 31
0.0
  0
LINE
  8
0
 62
     0
 10
1.48421
 20
0.915039
 30
0.0
 11
1.5159
 21
0.893935
 31
0.0
  0
LINE
  8
0
 62
     0
 10
1.5159
 20
0.893935
 30
0.0
 11
1.53088
 21
0.850965
 31
0.0
  0
LINE
  8
0
 62
     0
 10
1.53088
 20
0.850965
 30
0.0
 11
1.66976
 21
0.850965
 31
0.0
  0
LINE
  8
0
 62
     0
 10
1.66976
 20
0.850965
 30
0.0
 11
1.66194
 21
0.896104
 31
0.0
  0
LINE
  8
0
 62
     0
 10
1.66194
 20
0.896104
 30
0.0
 11
1.64735
 21
0.934028
 31
0.0
  0
LINE
  8
0
 62
     0
 10
1.64735
 20
0.934028
 30
0.0
 11
1.62597
 21
0.964681
 31
0.0
  0
LINE
  8
0
 62
     0
 10
1.62597
 20
0.964681
 30
0.0
 11
1.59793
 21
0.987901
 31
0.0
  0
LINE
  8
0
 62
     0
 10
1.59793
 20
0.987901
 30
0.0
 11
1.52572
 21
1.01796
 31
0.0
  0
LINE
  8
0
 62
     0
 10
1.52572
 20
1.01796
 30
0.0
 11
1.43494
 21
1.02783
 31
0.0
  0
LINE
  8
0
 62
     0
 10
1.43494
 20
1.02783
 30
0.0
 11
1.34174
 21
1.01449
 31
0.0
  0
LINE
  8
0
 62
     0
 10
1.34174
 20
1.01449
 30
0.0
 11
1.27197
 21
0.974881
 31
0.0
  0
LINE
  8
0
 62
     0
 10
1.27197
 20
0.974881
 30
0.0
 11
1.22835
 21
0.917156
 31
0.0
  0
LINE
  8
0
 62
     0
 10
1.22835
 20
0.917156
 30
0.0
 11
1.21403
 21
0.848796
 31
0.0
  0
LINE
  8
0
 62
     0
 10
1.21403
 20
0.848796
 30
0.0
 11
1.22309
 21
0.793349
 31
0.0
  0
LINE
  8
0
 62
     0
 10
1.22309
 20
0.793349
 30
0.0
 11
1.25092
 21
0.752875
 31
0.0
  0
LINE
  8
0
 62
     0
 10
1.25092
 20
0.752875
 30
0.0
 11
1.30143
 21
0.722276
 31
0.0
  0
LINE
  8
0
 62
     0
 10
1.30143
 20
0.722276
 30
0.0
 11
1.37896
 21
0.696886
 31
0.0
  0
LINE
  8
0
 62
     0
 10
1.37896
 20
0.696886
 30
0.0
 11
1.43533
 21
0.683051
 31
0.0
  0
LINE
  8
0
 62
     0
 10
1.43533
 20
0.683051
 30
0.0
 11
1.47846
 21
0.671386
 31
0.0
  0
LINE
  8
0
 62
     0
 10
1.47846
 20
0.671386
 30
0.0
 11
1.50831
 21
0.662056
 31
0.0
  0
LINE
  8
0
 62
     0
 10
1.50831
 20
0.662056
 30
0.0
 11
1.52479
 21
0.655003
 31
0.0
  0
LINE
  8
0
 62
     0
 10
1.52479
 20
0.655003
 30
0.0
 11
1.53922
 21
0.639919
 31
0.0
  0
LINE
  8
0
 62
     0
 10
1.53922
 20
0.639919
 30
0.0
 11
1.54389
 21
0.618978
 31
0.0
  0
LINE
  8
0
 62
     0
 10
1.54389
 20
0.618978
 30
0.0
 11
1.53787
 21
0.597439
 31
0.0
  0
LINE
  8
0
 62
     0
 10
1.53787
 20
0.597439
 30
0.0
 11
1.51981
 21
0.581868
 31
0.0
  0
LINE
  8
0
 62
     0
 10
1.51981
 20
0.581868
 30
0.0
 11
1.49126
 21
0.572917
 31
0.0
  0
LINE
  8
0
 62
     0
 10
1.49126
 20
0.572917
 30
0.0
 11
1.45383
 21
0.569933
 31
0.0
  0
LINE
  8
0
 62
     0
 10
1.45383
 20
0.569933
 30
0.0
 11
1.39497
 21
0.576768
 31
0.0
  0
LINE
  8
0
 62
     0
 10
1.39497
 20
0.576768
 30
0.0
 11
1.35791
 21
0.597928
 31
0.0
  0
LINE
  8
0
 62
     0
 10
1.35791
 20
0.597928
 30
0.0
 11
1.34576
 21
0.618815
 31
0.0
  0
LINE
  8
0
 62
     0
 10
1.34576
 20
0.618815
 30
0.0
 11
1.33881
 21
0.650879
 31
0.0
  0
LINE
  8
0
 62
     0
 10
1.33881
 20
0.650879
 30
0.0
 11
1.19797
 21
0.650879
 31
0.0
  0
LINE
  8
0
 62
     0
 10
2.15674
 20
0.746799
 30
0.0
 11
2.14914
 21
0.679417
 31
0.0
  0
LINE
  8
0
 62
     0
 10
2.14914
 20
0.679417
 30
0.0
 11
2.12592
 21
0.627007
 31
0.0
  0
LINE
  8
0
 62
     0
 10
2.12592
 20
0.627007
 30
0.0
 11
2.08843
 21
0.593153
 31
0.0
  0
LINE
  8
0
 62
     0
 10
2.08843
 20
0.593153
 30
0.0
 11
2.03694
 21
0.581868
 31
0.0
  0
LINE
  8
0
 62
     0
 10
2.03694
 20
0.581868
 30
0.0
 11
1.99918
 21
0.587349
 31
0.0
  0
LINE
  8
0
 62
     0
 10
1.99918
 20
0.587349
 30
0.0
 11
1.96685
 21
0.604004
 31
0.0
  0
LINE
  8
0
 62
     0
 10
1.96685
 20
0.604004
 30
0.0
 11
1.92953
 21
0.65549
 31
0.0
  0
LINE
  8
0
 62
     0
 10
1.92953
 20
0.65549
 30
0.0
 11
1.91694
 21
0.733996
 31
0.0
  0
LINE
  8
0
 62
     0
 10
1.91694
 20
0.733996
 30
0.0
 11
1.92068
 21
0.788032
 31
0.0
  0
LINE
  8
0
 62
     0
 10
1.92068
 20
0.788032
 30
0.0
 11
1.93192
 21
0.830783
 31
0.0
  0
LINE
  8
0
 62
     0
 10
1.93192
 20
0.830783
 30
0.0
 11
1.94911
 21
0.862414
 31
0.0
  0
LINE
  8
0
 62
     0
 10
1.94911
 20
0.862414
 30
0.0
 11
1.97239
 21
0.884874
 31
0.0
  0
LINE
  8
0
 62
     0
 10
1.97239
 20
0.884874
 30
0.0
 11
2.00163
 21
0.898383
 31
0.0
  0
LINE
  8
0
 62
     0
 10
2.00163
 20
0.898383
 30
0.0
 11
2.03694
 21
0.902832
 31
0.0
  0
LINE
  8
0
 62
     0
 10
2.03694
 20
0.902832
 30
0.0
 11
2.09147
 21
0.89095
 31
0.0
  0
LINE
  8
0
 62
     0
 10
2.09147
 20
0.89095
 30
0.0
 11
2.12875
 21
0.855957
 31
0.0
  0
LINE
  8
0
 62
     0
 10
2.12875
 20
0.855957
 30
0.0
 11
2.1499
 21
0.804742
 31
0.0
  0
LINE
  8
0
 62
     0
 10
2.1499
 20
0.804742
 30
0.0
 11
2.15674
 21
0.746799
 31
0.0
  0
LINE
  8
0
 62
     0
 10
2.07688
 20
1.02479
 30
0.0
 11
2.01682
 21
1.01584
 31
0.0
  0
LINE
  8
0
 62
     0
 10
2.01682
 20
1.01584
 30
0.0
 11
1.96576
 21
0.988769
 31
0.0
  0
LINE
  8
0
 62
     0
 10
1.96576
 20
0.988769
 30
0.0
 11
1.91781
 21
0.934733
 31
0.0
  0
LINE
  8
0
 62
     0
 10
1.91781
 20
0.934733
 30
0.0
 11
1.91781
 21
1.01373
 31
0.0
  0
LINE
  8
0
 62
     0
 10
1.91781
 20
1.01373
 30
0.0
 11
1.7839
 21
1.01373
 31
0.0
  0
LINE
  8
0
 62
     0
 10
1.7839
 20
1.01373
 30
0.0
 11
1.7839
 21
0.271972
 31
0.0
  0
LINE
  8
0
 62
     0
 10
1.7839
 20
0.271972
 30
0.0
 11
1.92193
 21
0.271972
 31
0.0
  0
LINE
  8
0
 62
     0
 10
1.92193
 20
0.271972
 30
0.0
 11
1.92193
 21
0.548882
 31
0.0
  0
LINE
  8
0
 62
     0
 10
1.92193
 20
0.548882
 30
0.0
 11
1.96685
 21
0.497885
 31
0.0
  0
LINE
  8
0
 62
     0
 10
1.96685
 20
0.497885
 30
0.0
 11
2.0146
 21
0.474121
 31
0.0
  0
LINE
  8
0
 62
     0
 10
2.0146
 20
0.474121
 30
0.0
 11
2.07275
 21
0.465983
 31
0.0
  0
LINE
  8
0
 62
     0
 10
2.07275
 20
0.465983
 30
0.0
 11
2.12061
 21
0.470649
 31
0.0
  0
LINE
  8
0
 62
     0
 10
2.12061
 20
0.470649
 30
0.0
 11
2.16379
 21
0.484592
 31
0.0
  0
LINE
  8
0
 62
     0
 10
2.16379
 20
0.484592
 30
0.0
 11
2.20247
 21
0.507758
 31
0.0
  0
LINE
  8
0
 62
     0
 10
2.20247
 20
0.507758
 30
0.0
 11
2.23682
 21
0.539985
 31
0.0
  0
LINE
  8
0
 62
     0
 10
2.23682
 20
0.539985
 30
0.0
 11
2.26426
 21
0.580946
 31
0.0
  0
LINE
  8
0
 62
     0
 10
2.26426
 20
0.580946
 30
0.0
 11
2.28396
 21
0.630154
 31
0.0
  0
LINE
  8
0
 62
     0
 10
2.28396
 20
0.630154
 30
0.0
 11
2.29579
 21
0.687825
 31
0.0
  0
LINE
  8
0
 62
     0
 10
2.29579
 20
0.687825
 30
0.0
 11
2.29975
 21
0.753961
 31
0.0
  0
LINE
  8
0
 62
     0
 10
2.29975
 20
0.753961
 30
0.0
 11
2.29563
 21
0.816569
 31
0.0
  0
LINE
  8
0
 62
     0
 10
2.29563
 20
0.816569
 30
0.0
 11
2.28342
 21
0.870985
 31
0.0
  0
LINE
  8
0
 62
     0
 10
2.28342
 20
0.870985
 30
0.0
 11
2.26313
 21
0.917372
 31
0.0
  0
LINE
  8
0
 62
     0
 10
2.26313
 20
0.917372
 30
0.0
 11
2.23486
 21
0.955783
 31
0.0
  0
LINE
  8
0
 62
     0
 10
2.23486
 20
0.955783
 30
0.0
 11
2.16292
 21
1.00754
 31
0.0
  0
LINE
  8
0
 62
     0
 10
2.16292
 20
1.00754
 30
0.0
 11
2.07688
 21
1.02479
 31
0.0
  0
ENDSEC
  0
EOF
