  0
SECTION
  2
HEADER
  9
$ACADVER
  1
AC1009
  9
$EXTMIN
 10
0.0
 20
0.0
 30
0.0
  9
$EXTMAX
 10
1000.0
 20
1000.0
 30
0.0
  9
$FILLMODE
 70
 0
  9
$SPLFRAME
 70
 1
  0
ENDSEC
  0
SECTION
  2
TABLES
  0
TABLE
  2
LAYER
 70
1
  0
LAYER
  2
0
 70
     0
 62
     7
  6
CONTINUOUS
  0
ENDTAB
  0
ENDSEC
  0
SECTION
  2
ENTITIES
  0
LINE
  8
0
 62
     0
 10
0.136068
 20
0.46186
 30
0.0
 11
0.214844
 21
0.46186
 31
0.0
  0
LINE
  8
0
 62
     0
 10
0.214844
 20
0.46186
 30
0.0
 11
0.641928
 21
1.18669
 31
0.0
  0
LINE
  8
0
 62
     0
 10
0.641928
 20
1.18669
 30
0.0
 11
0.562933
 21
1.18669
 31
0.0
  0
LINE
  8
0
 62
     0
 10
0.562933
 20
1.18669
 30
0.0
 11
0.136068
 21
0.46186
 31
0.0
  0
LINE
  8
0
 62
     0
 10
0.131944
 20
1.05691
 30
0.0
 11
0.131944
 21
0.763943
 31
0.0
  0
LINE
  8
0
 62
     0
 10
0.131944
 20
0.763943
 30
0.0
 11
0.22895
 21
0.763943
 31
0.0
  0
LINE
  8
0
 62
     0
 10
0.22895
 20
0.763943
 30
0.0
 11
0.22895
 21
1.18886
 31
0.0
  0
LINE
  8
0
 62
     0
 10
0.22895
 20
1.18886
 30
0.0
 11
0.148872
 21
1.18886
 31
0.0
  0
LINE
  8
0
 62
     0
 10
0.148872
 20
1.18886
 30
0.0
 11
0.143012
 21
1.16368
 31
0.0
  0
LINE
  8
0
 62
     0
 10
0.143012
 20
1.16368
 30
0.0
 11
0.121962
 21
1.13569
 31
0.0
  0
LINE
  8
0
 62
     0
 10
0.121962
 20
1.13569
 30
0.0
 11
0.0939669
 21
1.1218
 31
0.0
  0
LINE
  8
0
 62
     0
 10
0.0939669
 20
1.1218
 30
0.0
 11
0.0678168
 21
1.11708
 31
0.0
  0
LINE
  8
0
 62
     0
 10
0.0678168
 20
1.11708
 30
0.0
 11
0.0230035
 21
1.11377
 31
0.0
  0
LINE
  8
0
 62
     0
 10
0.0230035
 20
1.11377
 30
0.0
 11
0.0230035
 21
1.05691
 31
0.0
  0
LINE
  8
0
 62
     0
 10
0.0230035
 20
1.05691
 30
0.0
 11
0.131944
 21
1.05691
 31
0.0
  0
LINE
  8
0
 62
     0
 10
0.698785
 20
0.777832
 30
0.0
 11
0.681858
 21
0.729872
 31
0.0
  0
LINE
  8
0
 62
     0
 10
0.681858
 20
0.729872
 30
0.0
 11
0.649631
 21
0.701335
 31
0.0
  0
LINE
  8
0
 62
     0
 10
0.649631
 20
0.701335
 30
0.0
 11
0.588758
 21
0.656956
 31
0.0
  0
LINE
  8
0
 62
     0
 10
0.588758
 20
0.656956
 30
0.0
 11
0.540256
 21
0.618326
 31
0.0
  0
LINE
  8
0
 62
     0
 10
0.540256
 20
0.618326
 30
0.0
 11
0.505479
 21
0.576064
 31
0.0
  0
LINE
  8
0
 62
     0
 10
0.505479
 20
0.576064
 30
0.0
 11
0.484321
 21
0.530219
 31
0.0
  0
LINE
  8
0
 62
     0
 10
0.484321
 20
0.530219
 30
0.0
 11
0.476779
 21
0.480957
 31
0.0
  0
LINE
  8
0
 62
     0
 10
0.476779
 20
0.480957
 30
0.0
 11
0.791883
 21
0.480957
 31
0.0
  0
LINE
  8
0
 62
     0
 10
0.791883
 20
0.480957
 30
0.0
 11
0.791883
 21
0.556912
 31
0.0
  0
LINE
  8
0
 62
     0
 10
0.791883
 20
0.556912
 30
0.0
 11
0.591797
 21
0.556912
 31
0.0
  0
LINE
  8
0
 62
     0
 10
0.591797
 20
0.556912
 30
0.0
 11
0.60395
 21
0.571886
 31
0.0
  0
LINE
  8
0
 62
     0
 10
0.60395
 20
0.571886
 30
0.0
 11
0.621744
 21
0.58686
 31
0.0
  0
LINE
  8
0
 62
     0
 10
0.621744
 20
0.58686
 30
0.0
 11
0.639757
 21
0.600965
 31
0.0
  0
LINE
  8
0
 62
     0
 10
0.639757
 20
0.600965
 30
0.0
 11
0.658854
 21
0.612901
 31
0.0
  0
LINE
  8
0
 62
     0
 10
0.658854
 20
0.612901
 30
0.0
 11
0.695747
 21
0.635906
 31
0.0
  0
LINE
  8
0
 62
     0
 10
0.695747
 20
0.635906
 30
0.0
 11
0.736925
 21
0.665907
 31
0.0
  0
LINE
  8
0
 62
     0
 10
0.736925
 20
0.665907
 30
0.0
 11
0.76671
 21
0.698839
 31
0.0
  0
LINE
  8
0
 62
     0
 10
0.76671
 20
0.698839
 30
0.0
 11
0.785699
 21
0.734646
 31
0.0
  0
LINE
  8
0
 62
     0
 10
0.785699
 20
0.734646
 30
0.0
 11
0.791883
 21
0.774794
 31
0.0
  0
LINE
  8
0
 62
     0
 10
0.791883
 20
0.774794
 30
0.0
 11
0.781196
 21
0.829156
 31
0.0
  0
LINE
  8
0
 62
     0
 10
0.781196
 20
0.829156
 30
0.0
 11
0.748697
 21
0.872885
 31
0.0
  0
LINE
  8
0
 62
     0
 10
0.748697
 20
0.872885
 30
0.0
 11
0.699436
 21
0.901258
 31
0.0
  0
LINE
  8
0
 62
     0
 10
0.699436
 20
0.901258
 30
0.0
 11
0.63585
 21
0.910861
 31
0.0
  0
LINE
  8
0
 62
     0
 10
0.63585
 20
0.910861
 30
0.0
 11
0.573731
 21
0.901747
 31
0.0
  0
LINE
  8
0
 62
     0
 10
0.573731
 20
0.901747
 30
0.0
 11
0.525825
 21
0.873753
 31
0.0
  0
LINE
  8
0
 62
     0
 10
0.525825
 20
0.873753
 30
0.0
 11
0.493489
 21
0.82411
 31
0.0
  0
LINE
  8
0
 62
     0
 10
0.493489
 20
0.82411
 30
0.0
 11
0.482856
 21
0.760906
 31
0.0
  0
LINE
  8
0
 62
     0
 10
0.482856
 20
0.760906
 30
0.0
 11
0.570747
 21
0.760906
 31
0.0
  0
LINE
  8
0
 62
     0
 10
0.570747
 20
0.760906
 30
0.0
 11
0.573839
 21
0.792481
 31
0.0
  0
LINE
  8
0
 62
     0
 10
0.573839
 20
0.792481
 30
0.0
 11
0.579861
 21
0.812771
 31
0.0
  0
LINE
  8
0
 62
     0
 10
0.579861
 20
0.812771
 30
0.0
 11
0.601074
 21
0.833117
 31
0.0
  0
LINE
  8
0
 62
     0
 10
0.601074
 20
0.833117
 30
0.0
 11
0.63585
 21
0.839899
 31
0.0
  0
LINE
  8
0
 62
     0
 10
0.63585
 20
0.839899
 30
0.0
 11
0.663086
 21
0.835503
 31
0.0
  0
LINE
  8
0
 62
     0
 10
0.663086
 20
0.835503
 30
0.0
 11
0.682725
 21
0.822971
 31
0.0
  0
LINE
  8
0
 62
     0
 10
0.682725
 20
0.822971
 30
0.0
 11
0.698785
 21
0.777832
 31
0.0
  0
LINE
  8
0
 62
     0
 10
1.19596
 20
0.909776
 30
0.0
 11
1.19596
 21
0.581868
 31
0.0
  0
LINE
  8
0
 62
     0
 10
1.19596
 20
0.581868
 30
0.0
 11
1.20182
 21
0.538519
 31
0.0
  0
LINE
  8
0
 62
     0
 10
1.20182
 20
0.538519
 30
0.0
 11
1.21897
 21
0.507867
 31
0.0
  0
LINE
  8
0
 62
     0
 10
1.21897
 20
0.507867
 30
0.0
 11
1.27067
 21
0.480849
 31
0.0
  0
LINE
  8
0
 62
     0
 10
1.27067
 20
0.480849
 30
0.0
 11
1.35395
 21
0.474012
 31
0.0
  0
LINE
  8
0
 62
     0
 10
1.35395
 20
0.474012
 30
0.0
 11
1.41992
 21
0.477051
 31
0.0
  0
LINE
  8
0
 62
     0
 10
1.41992
 20
0.477051
 30
0.0
 11
1.41992
 21
0.581
 31
0.0
  0
LINE
  8
0
 62
     0
 10
1.41992
 20
0.581
 30
0.0
 11
1.40582
 21
0.579915
 31
0.0
  0
LINE
  8
0
 62
     0
 10
1.40582
 20
0.579915
 30
0.0
 11
1.39301
 21
0.578831
 31
0.0
  0
LINE
  8
0
 62
     0
 10
1.39301
 20
0.578831
 30
0.0
 11
1.35921
 21
0.581
 31
0.0
  0
LINE
  8
0
 62
     0
 10
1.35921
 20
0.581
 30
0.0
 11
1.34201
 21
0.58686
 31
0.0
  0
LINE
  8
0
 62
     0
 10
1.34201
 20
0.58686
 30
0.0
 11
1.3361
 21
0.601019
 31
0.0
  0
LINE
  8
0
 62
     0
 10
1.3361
 20
0.601019
 30
0.0
 11
1.33398
 21
0.627875
 31
0.0
  0
LINE
  8
0
 62
     0
 10
1.33398
 20
0.627875
 30
0.0
 11
1.33398
 21
0.909776
 31
0.0
  0
LINE
  8
0
 62
     0
 10
1.33398
 20
0.909776
 30
0.0
 11
1.41992
 21
0.909776
 31
0.0
  0
LINE
  8
0
 62
     0
 10
1.41992
 20
0.909776
 30
0.0
 11
1.41992
 21
1.00787
 31
0.0
  0
LINE
  8
0
 62
     0
 10
1.41992
 20
1.00787
 30
0.0
 11
1.33398
 21
1.00787
 31
0.0
  0
LINE
  8
0
 62
     0
 10
1.33398
 20
1.00787
 30
0.0
 11
1.33398
 21
1.15782
 31
0.0
  0
LINE
  8
0
 62
     0
 10
1.33398
 20
1.15782
 30
0.0
 11
1.19596
 21
1.15782
 31
0.0
  0
LINE
  8
0
 62
     0
 10
1.19596
 20
1.15782
 30
0.0
 11
1.19596
 21
1.00787
 31
0.0
  0
LINE
  8
0
 62
     0
 10
1.19596
 20
1.00787
 30
0.0
 11
1.12196
 21
1.00787
 31
0.0
  0
LINE
  8
0
 62
     0
 10
1.12196
 20
1.00787
 30
0.0
 11
1.12196
 21
0.909776
 31
0.0
  0
LINE
  8
0
 62
     0
 10
1.12196
 20
0.909776
 30
0.0
 11
1.19596
 21
0.909776
 31
0.0
  0
LINE
  8
0
 62
     0
 10
1.79889
 20
1.02479
 30
0.0
 11
1.74561
 21
1.01883
 31
0.0
  0
LINE
  8
0
 62
     0
 10
1.74561
 20
1.01883
 30
0.0
 11
1.70296
 21
1.00092
 31
0.0
  0
LINE
  8
0
 62
     0
 10
1.70296
 20
1.00092
 30
0.0
 11
1.64393
 21
0.943847
 31
0.0
  0
LINE
  8
0
 62
     0
 10
1.64393
 20
0.943847
 30
0.0
 11
1.64393
 21
1.19971
 31
0.0
  0
LINE
  8
0
 62
     0
 10
1.64393
 20
1.19971
 30
0.0
 11
1.50483
 21
1.19971
 31
0.0
  0
LINE
  8
0
 62
     0
 10
1.50483
 20
1.19971
 30
0.0
 11
1.50483
 21
0.480957
 31
0.0
  0
LINE
  8
0
 62
     0
 10
1.50483
 20
0.480957
 30
0.0
 11
1.64199
 21
0.480957
 31
0.0
  0
LINE
  8
0
 62
     0
 10
1.64199
 20
0.480957
 30
0.0
 11
1.64199
 21
0.548882
 31
0.0
  0
LINE
  8
0
 62
     0
 10
1.64199
 20
0.548882
 30
0.0
 11
1.66894
 21
0.515408
 31
0.0
  0
LINE
  8
0
 62
     0
 10
1.66894
 20
0.515408
 30
0.0
 11
1.69385
 21
0.493978
 31
0.0
  0
LINE
  8
0
 62
     0
 10
1.69385
 20
0.493978
 30
0.0
 11
1.74056
 21
0.473796
 31
0.0
  0
LINE
  8
0
 62
     0
 10
1.74056
 20
0.473796
 30
0.0
 11
1.80083
 21
0.467068
 31
0.0
  0
LINE
  8
0
 62
     0
 10
1.80083
 20
0.467068
 30
0.0
 11
1.85042
 21
0.472168
 31
0.0
  0
LINE
  8
0
 62
     0
 10
1.85042
 20
0.472168
 30
0.0
 11
1.89442
 21
0.487414
 31
0.0
  0
LINE
  8
0
 62
     0
 10
1.89442
 20
0.487414
 30
0.0
 11
1.93257
 21
0.512967
 31
0.0
  0
LINE
  8
0
 62
     0
 10
1.93257
 20
0.512967
 30
0.0
 11
1.9649
 21
0.548882
 31
0.0
  0
LINE
  8
0
 62
     0
 10
1.9649
 20
0.548882
 30
0.0
 11
2.00885
 21
0.640517
 31
0.0
  0
LINE
  8
0
 62
     0
 10
2.00885
 20
0.640517
 30
0.0
 11
2.02371
 21
0.753961
 31
0.0
  0
LINE
  8
0
 62
     0
 10
2.02371
 20
0.753961
 30
0.0
 11
2.00874
 21
0.862631
 31
0.0
  0
LINE
  8
0
 62
     0
 10
2.00874
 20
0.862631
 30
0.0
 11
1.96382
 21
0.948839
 31
0.0
  0
LINE
  8
0
 62
     0
 10
1.96382
 20
0.948839
 30
0.0
 11
1.93099
 21
0.98226
 31
0.0
  0
LINE
  8
0
 62
     0
 10
1.93099
 20
0.98226
 30
0.0
 11
1.89258
 21
1.00597
 31
0.0
  0
LINE
  8
0
 62
     0
 10
1.89258
 20
1.00597
 30
0.0
 11
1.84847
 21
1.02013
 31
0.0
  0
LINE
  8
0
 62
     0
 10
1.84847
 20
1.02013
 30
0.0
 11
1.79889
 21
1.02479
 31
0.0
  0
LINE
  8
0
 62
     0
 10
1.76394
 20
0.582954
 30
0.0
 11
1.7091
 21
0.594183
 31
0.0
  0
LINE
  8
0
 62
     0
 10
1.7091
 20
0.594183
 30
0.0
 11
1.67085
 21
0.627875
 31
0.0
  0
LINE
  8
0
 62
     0
 10
1.67085
 20
0.627875
 30
0.0
 11
1.6474
 21
0.677951
 31
0.0
  0
LINE
  8
0
 62
     0
 10
1.6474
 20
0.677951
 30
0.0
 11
1.63981
 21
0.739854
 31
0.0
  0
LINE
  8
0
 62
     0
 10
1.63981
 20
0.739854
 30
0.0
 11
1.64356
 21
0.792697
 31
0.0
  0
LINE
  8
0
 62
     0
 10
1.64356
 20
0.792697
 30
0.0
 11
1.65479
 21
0.834907
 31
0.0
  0
LINE
  8
0
 62
     0
 10
1.65479
 20
0.834907
 30
0.0
 11
1.67204
 21
0.864475
 31
0.0
  0
LINE
  8
0
 62
     0
 10
1.67204
 20
0.864475
 30
0.0
 11
1.69531
 21
0.885742
 31
0.0
  0
LINE
  8
0
 62
     0
 10
1.69531
 20
0.885742
 30
0.0
 11
1.72456
 21
0.898546
 31
0.0
  0
LINE
  8
0
 62
     0
 10
1.72456
 20
0.898546
 30
0.0
 11
1.75982
 21
0.902832
 31
0.0
  0
LINE
  8
0
 62
     0
 10
1.75982
 20
0.902832
 30
0.0
 11
1.79428
 21
0.898546
 31
0.0
  0
LINE
  8
0
 62
     0
 10
1.79428
 20
0.898546
 30
0.0
 11
1.82292
 21
0.885471
 31
0.0
  0
LINE
  8
0
 62
     0
 10
1.82292
 20
0.885471
 30
0.0
 11
1.84576
 21
0.863661
 31
0.0
  0
LINE
  8
0
 62
     0
 10
1.84576
 20
0.863661
 30
0.0
 11
1.8629
 21
0.832954
 31
0.0
  0
LINE
  8
0
 62
     0
 10
1.8629
 20
0.832954
 30
0.0
 11
1.87414
 21
0.790907
 31
0.0
  0
LINE
  8
0
 62
     0
 10
1.87414
 20
0.790907
 30
0.0
 11
1.87788
 21
0.739854
 31
0.0
  0
LINE
  8
0
 62
     0
 10
1.87788
 20
0.739854
 30
0.0
 11
1.87039
 21
0.676215
 31
0.0
  0
LINE
  8
0
 62
     0
 10
1.87039
 20
0.676215
 30
0.0
 11
1.84793
 21
0.625922
 31
0.0
  0
LINE
  8
0
 62
     0
 10
1.84793
 20
0.625922
 30
0.0
 11
1.81179
 21
0.593533
 31
0.0
  0
LINE
  8
0
 62
     0
 10
1.81179
 20
0.593533
 30
0.0
 11
1.76394
 21
0.582954
 31
0.0
  0
LINE
  8
0
 62
     0
 10
2.26292
 20
1.19971
 30
0.0
 11
2.12381
 21
1.19971
 31
0.0
  0
LINE
  8
0
 62
     0
 10
2.12381
 20
1.19971
 30
0.0
 11
2.12381
 21
0.480957
 31
0.0
  0
LINE
  8
0
 62
     0
 10
2.12381
 20
0.480957
 30
0.0
 11
2.26292
 21
0.480957
 31
0.0
  0
LINE
  8
0
 62
     0
 10
2.26292
 20
0.480957
 30
0.0
 11
2.26292
 21
1.19971
 31
0.0
  0
ENDSEC
  0
EOF
