  0
SECTION
  2
HEADER
  9
$ACADVER
  1
AC1009
  9
$EXTMIN
 10
0.0
 20
0.0
 30
0.0
  9
$EXTMAX
 10
1000.0
 20
1000.0
 30
0.0
  9
$FILLMODE
 70
 0
  9
$SPLFRAME
 70
 1
  0
ENDSEC
  0
SECTION
  2
TABLES
  0
TABLE
  2
LAYER
 70
1
  0
LAYER
  2
0
 70
     0
 62
     7
  6
CONTINUOUS
  0
ENDTAB
  0
ENDSEC
  0
SECTION
  2
ENTITIES
  0
LINE
  8
0
 62
     0
 10
0.136068
 20
0.46186
 30
0.0
 11
0.214844
 21
0.46186
 31
0.0
  0
LINE
  8
0
 62
     0
 10
0.214844
 20
0.46186
 30
0.0
 11
0.641928
 21
1.18669
 31
0.0
  0
LINE
  8
0
 62
     0
 10
0.641928
 20
1.18669
 30
0.0
 11
0.562933
 21
1.18669
 31
0.0
  0
LINE
  8
0
 62
     0
 10
0.562933
 20
1.18669
 30
0.0
 11
0.136068
 21
0.46186
 31
0.0
  0
LINE
  8
0
 62
     0
 10
0.131944
 20
1.05691
 30
0.0
 11
0.131944
 21
0.763943
 31
0.0
  0
LINE
  8
0
 62
     0
 10
0.131944
 20
0.763943
 30
0.0
 11
0.22895
 21
0.763943
 31
0.0
  0
LINE
  8
0
 62
     0
 10
0.22895
 20
0.763943
 30
0.0
 11
0.22895
 21
1.18886
 31
0.0
  0
LINE
  8
0
 62
     0
 10
0.22895
 20
1.18886
 30
0.0
 11
0.148872
 21
1.18886
 31
0.0
  0
LINE
  8
0
 62
     0
 10
0.148872
 20
1.18886
 30
0.0
 11
0.143012
 21
1.16368
 31
0.0
  0
LINE
  8
0
 62
     0
 10
0.143012
 20
1.16368
 30
0.0
 11
0.121962
 21
1.13569
 31
0.0
  0
LINE
  8
0
 62
     0
 10
0.121962
 20
1.13569
 30
0.0
 11
0.0939669
 21
1.1218
 31
0.0
  0
LINE
  8
0
 62
     0
 10
0.0939669
 20
1.1218
 30
0.0
 11
0.0678168
 21
1.11708
 31
0.0
  0
LINE
  8
0
 62
     0
 10
0.0678168
 20
1.11708
 30
0.0
 11
0.0230035
 21
1.11377
 31
0.0
  0
LINE
  8
0
 62
     0
 10
0.0230035
 20
1.11377
 30
0.0
 11
0.0230035
 21
1.05691
 31
0.0
  0
LINE
  8
0
 62
     0
 10
0.0230035
 20
1.05691
 30
0.0
 11
0.131944
 21
1.05691
 31
0.0
  0
LINE
  8
0
 62
     0
 10
0.698785
 20
0.777832
 30
0.0
 11
0.681858
 21
0.729872
 31
0.0
  0
LINE
  8
0
 62
     0
 10
0.681858
 20
0.729872
 30
0.0
 11
0.649631
 21
0.701335
 31
0.0
  0
LINE
  8
0
 62
     0
 10
0.649631
 20
0.701335
 30
0.0
 11
0.588758
 21
0.656956
 31
0.0
  0
LINE
  8
0
 62
     0
 10
0.588758
 20
0.656956
 30
0.0
 11
0.540256
 21
0.618326
 31
0.0
  0
LINE
  8
0
 62
     0
 10
0.540256
 20
0.618326
 30
0.0
 11
0.505479
 21
0.576064
 31
0.0
  0
LINE
  8
0
 62
     0
 10
0.505479
 20
0.576064
 30
0.0
 11
0.484321
 21
0.530219
 31
0.0
  0
LINE
  8
0
 62
     0
 10
0.484321
 20
0.530219
 30
0.0
 11
0.476779
 21
0.480957
 31
0.0
  0
LINE
  8
0
 62
     0
 10
0.476779
 20
0.480957
 30
0.0
 11
0.791883
 21
0.480957
 31
0.0
  0
LINE
  8
0
 62
     0
 10
0.791883
 20
0.480957
 30
0.0
 11
0.791883
 21
0.556912
 31
0.0
  0
LINE
  8
0
 62
     0
 10
0.791883
 20
0.556912
 30
0.0
 11
0.591797
 21
0.556912
 31
0.0
  0
LINE
  8
0
 62
     0
 10
0.591797
 20
0.556912
 30
0.0
 11
0.60395
 21
0.571886
 31
0.0
  0
LINE
  8
0
 62
     0
 10
0.60395
 20
0.571886
 30
0.0
 11
0.621744
 21
0.58686
 31
0.0
  0
LINE
  8
0
 62
     0
 10
0.621744
 20
0.58686
 30
0.0
 11
0.639757
 21
0.600965
 31
0.0
  0
LINE
  8
0
 62
     0
 10
0.639757
 20
0.600965
 30
0.0
 11
0.658854
 21
0.612901
 31
0.0
  0
LINE
  8
0
 62
     0
 10
0.658854
 20
0.612901
 30
0.0
 11
0.695747
 21
0.635906
 31
0.0
  0
LINE
  8
0
 62
     0
 10
0.695747
 20
0.635906
 30
0.0
 11
0.736925
 21
0.665907
 31
0.0
  0
LINE
  8
0
 62
     0
 10
0.736925
 20
0.665907
 30
0.0
 11
0.76671
 21
0.698839
 31
0.0
  0
LINE
  8
0
 62
     0
 10
0.76671
 20
0.698839
 30
0.0
 11
0.785699
 21
0.734646
 31
0.0
  0
LINE
  8
0
 62
     0
 10
0.785699
 20
0.734646
 30
0.0
 11
0.791883
 21
0.774794
 31
0.0
  0
LINE
  8
0
 62
     0
 10
0.791883
 20
0.774794
 30
0.0
 11
0.781196
 21
0.829156
 31
0.0
  0
LINE
  8
0
 62
     0
 10
0.781196
 20
0.829156
 30
0.0
 11
0.748697
 21
0.872885
 31
0.0
  0
LINE
  8
0
 62
     0
 10
0.748697
 20
0.872885
 30
0.0
 11
0.699436
 21
0.901258
 31
0.0
  0
LINE
  8
0
 62
     0
 10
0.699436
 20
0.901258
 30
0.0
 11
0.63585
 21
0.910861
 31
0.0
  0
LINE
  8
0
 62
     0
 10
0.63585
 20
0.910861
 30
0.0
 11
0.573731
 21
0.901747
 31
0.0
  0
LINE
  8
0
 62
     0
 10
0.573731
 20
0.901747
 30
0.0
 11
0.525825
 21
0.873753
 31
0.0
  0
LINE
  8
0
 62
     0
 10
0.525825
 20
0.873753
 30
0.0
 11
0.493489
 21
0.82411
 31
0.0
  0
LINE
  8
0
 62
     0
 10
0.493489
 20
0.82411
 30
0.0
 11
0.482856
 21
0.760906
 31
0.0
  0
LINE
  8
0
 62
     0
 10
0.482856
 20
0.760906
 30
0.0
 11
0.570747
 21
0.760906
 31
0.0
  0
LINE
  8
0
 62
     0
 10
0.570747
 20
0.760906
 30
0.0
 11
0.573839
 21
0.792481
 31
0.0
  0
LINE
  8
0
 62
     0
 10
0.573839
 20
0.792481
 30
0.0
 11
0.579861
 21
0.812771
 31
0.0
  0
LINE
  8
0
 62
     0
 10
0.579861
 20
0.812771
 30
0.0
 11
0.601074
 21
0.833117
 31
0.0
  0
LINE
  8
0
 62
     0
 10
0.601074
 20
0.833117
 30
0.0
 11
0.63585
 21
0.839899
 31
0.0
  0
LINE
  8
0
 62
     0
 10
0.63585
 20
0.839899
 30
0.0
 11
0.663086
 21
0.835503
 31
0.0
  0
LINE
  8
0
 62
     0
 10
0.663086
 20
0.835503
 30
0.0
 11
0.682725
 21
0.822971
 31
0.0
  0
LINE
  8
0
 62
     0
 10
0.682725
 20
0.822971
 30
0.0
 11
0.698785
 21
0.777832
 31
0.0
  0
LINE
  8
0
 62
     0
 10
1.19596
 20
0.909776
 30
0.0
 11
1.19596
 21
0.581868
 31
0.0
  0
LINE
  8
0
 62
     0
 10
1.19596
 20
0.581868
 30
0.0
 11
1.20182
 21
0.538519
 31
0.0
  0
LINE
  8
0
 62
     0
 10
1.20182
 20
0.538519
 30
0.0
 11
1.21897
 21
0.507867
 31
0.0
  0
LINE
  8
0
 62
     0
 10
1.21897
 20
0.507867
 30
0.0
 11
1.27067
 21
0.480849
 31
0.0
  0
LINE
  8
0
 62
     0
 10
1.27067
 20
0.480849
 30
0.0
 11
1.35395
 21
0.474012
 31
0.0
  0
LINE
  8
0
 62
     0
 10
1.35395
 20
0.474012
 30
0.0
 11
1.41992
 21
0.477051
 31
0.0
  0
LINE
  8
0
 62
     0
 10
1.41992
 20
0.477051
 30
0.0
 11
1.41992
 21
0.581
 31
0.0
  0
LINE
  8
0
 62
     0
 10
1.41992
 20
0.581
 30
0.0
 11
1.40582
 21
0.579915
 31
0.0
  0
LINE
  8
0
 62
     0
 10
1.40582
 20
0.579915
 30
0.0
 11
1.39301
 21
0.578831
 31
0.0
  0
LINE
  8
0
 62
     0
 10
1.39301
 20
0.578831
 30
0.0
 11
1.35921
 21
0.581
 31
0.0
  0
LINE
  8
0
 62
     0
 10
1.35921
 20
0.581
 30
0.0
 11
1.34201
 21
0.58686
 31
0.0
  0
LINE
  8
0
 62
     0
 10
1.34201
 20
0.58686
 30
0.0
 11
1.3361
 21
0.601019
 31
0.0
  0
LINE
  8
0
 62
     0
 10
1.3361
 20
0.601019
 30
0.0
 11
1.33398
 21
0.627875
 31
0.0
  0
LINE
  8
0
 62
     0
 10
1.33398
 20
0.627875
 30
0.0
 11
1.33398
 21
0.909776
 31
0.0
  0
LINE
  8
0
 62
     0
 10
1.33398
 20
0.909776
 30
0.0
 11
1.41992
 21
0.909776
 31
0.0
  0
LINE
  8
0
 62
     0
 10
1.41992
 20
0.909776
 30
0.0
 11
1.41992
 21
1.00787
 31
0.0
  0
LINE
  8
0
 62
     0
 10
1.41992
 20
1.00787
 30
0.0
 11
1.33398
 21
1.00787
 31
0.0
  0
LINE
  8
0
 62
     0
 10
1.33398
 20
1.00787
 30
0.0
 11
1.33398
 21
1.15782
 31
0.0
  0
LINE
  8
0
 62
     0
 10
1.33398
 20
1.15782
 30
0.0
 11
1.19596
 21
1.15782
 31
0.0
  0
LINE
  8
0
 62
     0
 10
1.19596
 20
1.15782
 30
0.0
 11
1.19596
 21
1.00787
 31
0.0
  0
LINE
  8
0
 62
     0
 10
1.19596
 20
1.00787
 30
0.0
 11
1.12196
 21
1.00787
 31
0.0
  0
LINE
  8
0
 62
     0
 10
1.12196
 20
1.00787
 30
0.0
 11
1.12196
 21
0.909776
 31
0.0
  0
LINE
  8
0
 62
     0
 10
1.12196
 20
0.909776
 30
0.0
 11
1.19596
 21
0.909776
 31
0.0
  0
LINE
  8
0
 62
     0
 10
1.47597
 20
0.650879
 30
0.0
 11
1.49094
 21
0.5759
 31
0.0
  0
LINE
  8
0
 62
     0
 10
1.49094
 20
0.5759
 30
0.0
 11
1.53586
 21
0.515896
 31
0.0
  0
LINE
  8
0
 62
     0
 10
1.53586
 20
0.515896
 30
0.0
 11
1.56993
 21
0.492893
 31
0.0
  0
LINE
  8
0
 62
     0
 10
1.56993
 20
0.492893
 30
0.0
 11
1.61231
 21
0.476346
 31
0.0
  0
LINE
  8
0
 62
     0
 10
1.61231
 20
0.476346
 30
0.0
 11
1.66292
 21
0.466308
 31
0.0
  0
LINE
  8
0
 62
     0
 10
1.66292
 20
0.466308
 30
0.0
 11
1.72185
 21
0.462944
 31
0.0
  0
LINE
  8
0
 62
     0
 10
1.72185
 20
0.462944
 30
0.0
 11
1.7794
 21
0.466146
 31
0.0
  0
LINE
  8
0
 62
     0
 10
1.7794
 20
0.466146
 30
0.0
 11
1.829
 21
0.475532
 31
0.0
  0
LINE
  8
0
 62
     0
 10
1.829
 20
0.475532
 30
0.0
 11
1.8705
 21
0.491157
 31
0.0
  0
LINE
  8
0
 62
     0
 10
1.8705
 20
0.491157
 30
0.0
 11
1.90392
 21
0.512858
 31
0.0
  0
LINE
  8
0
 62
     0
 10
1.90392
 20
0.512858
 30
0.0
 11
1.94786
 21
0.569933
 31
0.0
  0
LINE
  8
0
 62
     0
 10
1.94786
 20
0.569933
 30
0.0
 11
1.96272
 21
0.641982
 31
0.0
  0
LINE
  8
0
 62
     0
 10
1.96272
 20
0.641982
 30
0.0
 11
1.95236
 21
0.697211
 31
0.0
  0
LINE
  8
0
 62
     0
 10
1.95236
 20
0.697211
 30
0.0
 11
1.92171
 21
0.741808
 31
0.0
  0
LINE
  8
0
 62
     0
 10
1.92171
 20
0.741808
 30
0.0
 11
1.86942
 21
0.776639
 31
0.0
  0
LINE
  8
0
 62
     0
 10
1.86942
 20
0.776639
 30
0.0
 11
1.79693
 21
0.800836
 31
0.0
  0
LINE
  8
0
 62
     0
 10
1.79693
 20
0.800836
 30
0.0
 11
1.741
 21
0.813422
 31
0.0
  0
LINE
  8
0
 62
     0
 10
1.741
 20
0.813422
 30
0.0
 11
1.69808
 21
0.82411
 31
0.0
  0
LINE
  8
0
 62
     0
 10
1.69808
 20
0.82411
 30
0.0
 11
1.66829
 21
0.832954
 31
0.0
  0
LINE
  8
0
 62
     0
 10
1.66829
 20
0.832954
 30
0.0
 11
1.65196
 21
0.839899
 31
0.0
  0
LINE
  8
0
 62
     0
 10
1.65196
 20
0.839899
 30
0.0
 11
1.63613
 21
0.85395
 31
0.0
  0
LINE
  8
0
 62
     0
 10
1.63613
 20
0.85395
 30
0.0
 11
1.63092
 21
0.874838
 31
0.0
  0
LINE
  8
0
 62
     0
 10
1.63092
 20
0.874838
 30
0.0
 11
1.64979
 21
0.907824
 31
0.0
  0
LINE
  8
0
 62
     0
 10
1.64979
 20
0.907824
 30
0.0
 11
1.676
 21
0.918294
 31
0.0
  0
LINE
  8
0
 62
     0
 10
1.676
 20
0.918294
 30
0.0
 11
1.7149
 21
0.921929
 31
0.0
  0
LINE
  8
0
 62
     0
 10
1.7149
 20
0.921929
 30
0.0
 11
1.76221
 21
0.915039
 31
0.0
  0
LINE
  8
0
 62
     0
 10
1.76221
 20
0.915039
 30
0.0
 11
1.79389
 21
0.893935
 31
0.0
  0
LINE
  8
0
 62
     0
 10
1.79389
 20
0.893935
 30
0.0
 11
1.80886
 21
0.850965
 31
0.0
  0
LINE
  8
0
 62
     0
 10
1.80886
 20
0.850965
 30
0.0
 11
1.94775
 21
0.850965
 31
0.0
  0
LINE
  8
0
 62
     0
 10
1.94775
 20
0.850965
 30
0.0
 11
1.93994
 21
0.896104
 31
0.0
  0
LINE
  8
0
 62
     0
 10
1.93994
 20
0.896104
 30
0.0
 11
1.92535
 21
0.934028
 31
0.0
  0
LINE
  8
0
 62
     0
 10
1.92535
 20
0.934028
 30
0.0
 11
1.90397
 21
0.964681
 31
0.0
  0
LINE
  8
0
 62
     0
 10
1.90397
 20
0.964681
 30
0.0
 11
1.87592
 21
0.987901
 31
0.0
  0
LINE
  8
0
 62
     0
 10
1.87592
 20
0.987901
 30
0.0
 11
1.80371
 21
1.01796
 31
0.0
  0
LINE
  8
0
 62
     0
 10
1.80371
 20
1.01796
 30
0.0
 11
1.71294
 21
1.02783
 31
0.0
  0
LINE
  8
0
 62
     0
 10
1.71294
 20
1.02783
 30
0.0
 11
1.61974
 21
1.01449
 31
0.0
  0
LINE
  8
0
 62
     0
 10
1.61974
 20
1.01449
 30
0.0
 11
1.54997
 21
0.974881
 31
0.0
  0
LINE
  8
0
 62
     0
 10
1.54997
 20
0.974881
 30
0.0
 11
1.50635
 21
0.917156
 31
0.0
  0
LINE
  8
0
 62
     0
 10
1.50635
 20
0.917156
 30
0.0
 11
1.49203
 21
0.848796
 31
0.0
  0
LINE
  8
0
 62
     0
 10
1.49203
 20
0.848796
 30
0.0
 11
1.50108
 21
0.793349
 31
0.0
  0
LINE
  8
0
 62
     0
 10
1.50108
 20
0.793349
 30
0.0
 11
1.52892
 21
0.752875
 31
0.0
  0
LINE
  8
0
 62
     0
 10
1.52892
 20
0.752875
 30
0.0
 11
1.57943
 21
0.722276
 31
0.0
  0
LINE
  8
0
 62
     0
 10
1.57943
 20
0.722276
 30
0.0
 11
1.65696
 21
0.696886
 31
0.0
  0
LINE
  8
0
 62
     0
 10
1.65696
 20
0.696886
 30
0.0
 11
1.71332
 21
0.683051
 31
0.0
  0
LINE
  8
0
 62
     0
 10
1.71332
 20
0.683051
 30
0.0
 11
1.75646
 21
0.671386
 31
0.0
  0
LINE
  8
0
 62
     0
 10
1.75646
 20
0.671386
 30
0.0
 11
1.78629
 21
0.662056
 31
0.0
  0
LINE
  8
0
 62
     0
 10
1.78629
 20
0.662056
 30
0.0
 11
1.80279
 21
0.655003
 31
0.0
  0
LINE
  8
0
 62
     0
 10
1.80279
 20
0.655003
 30
0.0
 11
1.81722
 21
0.639919
 31
0.0
  0
LINE
  8
0
 62
     0
 10
1.81722
 20
0.639919
 30
0.0
 11
1.82189
 21
0.618978
 31
0.0
  0
LINE
  8
0
 62
     0
 10
1.82189
 20
0.618978
 30
0.0
 11
1.81586
 21
0.597439
 31
0.0
  0
LINE
  8
0
 62
     0
 10
1.81586
 20
0.597439
 30
0.0
 11
1.79779
 21
0.581868
 31
0.0
  0
LINE
  8
0
 62
     0
 10
1.79779
 20
0.581868
 30
0.0
 11
1.76926
 21
0.572917
 31
0.0
  0
LINE
  8
0
 62
     0
 10
1.76926
 20
0.572917
 30
0.0
 11
1.73182
 21
0.569933
 31
0.0
  0
LINE
  8
0
 62
     0
 10
1.73182
 20
0.569933
 30
0.0
 11
1.67296
 21
0.576768
 31
0.0
  0
LINE
  8
0
 62
     0
 10
1.67296
 20
0.576768
 30
0.0
 11
1.6359
 21
0.597928
 31
0.0
  0
LINE
  8
0
 62
     0
 10
1.6359
 20
0.597928
 30
0.0
 11
1.62375
 21
0.618815
 31
0.0
  0
LINE
  8
0
 62
     0
 10
1.62375
 20
0.618815
 30
0.0
 11
1.61681
 21
0.650879
 31
0.0
  0
LINE
  8
0
 62
     0
 10
1.61681
 20
0.650879
 30
0.0
 11
1.47597
 21
0.650879
 31
0.0
  0
LINE
  8
0
 62
     0
 10
2.43474
 20
0.746799
 30
0.0
 11
2.42714
 21
0.679417
 31
0.0
  0
LINE
  8
0
 62
     0
 10
2.42714
 20
0.679417
 30
0.0
 11
2.40392
 21
0.627007
 31
0.0
  0
LINE
  8
0
 62
     0
 10
2.40392
 20
0.627007
 30
0.0
 11
2.36643
 21
0.593153
 31
0.0
  0
LINE
  8
0
 62
     0
 10
2.36643
 20
0.593153
 30
0.0
 11
2.31494
 21
0.581868
 31
0.0
  0
LINE
  8
0
 62
     0
 10
2.31494
 20
0.581868
 30
0.0
 11
2.27718
 21
0.587349
 31
0.0
  0
LINE
  8
0
 62
     0
 10
2.27718
 20
0.587349
 30
0.0
 11
2.24485
 21
0.604004
 31
0.0
  0
LINE
  8
0
 62
     0
 10
2.24485
 20
0.604004
 30
0.0
 11
2.20751
 21
0.65549
 31
0.0
  0
LINE
  8
0
 62
     0
 10
2.20751
 20
0.65549
 30
0.0
 11
2.19493
 21
0.733996
 31
0.0
  0
LINE
  8
0
 62
     0
 10
2.19493
 20
0.733996
 30
0.0
 11
2.19868
 21
0.788032
 31
0.0
  0
LINE
  8
0
 62
     0
 10
2.19868
 20
0.788032
 30
0.0
 11
2.2099
 21
0.830783
 31
0.0
  0
LINE
  8
0
 62
     0
 10
2.2099
 20
0.830783
 30
0.0
 11
2.22711
 21
0.862414
 31
0.0
  0
LINE
  8
0
 62
     0
 10
2.22711
 20
0.862414
 30
0.0
 11
2.25037
 21
0.884874
 31
0.0
  0
LINE
  8
0
 62
     0
 10
2.25037
 20
0.884874
 30
0.0
 11
2.27962
 21
0.898383
 31
0.0
  0
LINE
  8
0
 62
     0
 10
2.27962
 20
0.898383
 30
0.0
 11
2.31494
 21
0.902832
 31
0.0
  0
LINE
  8
0
 62
     0
 10
2.31494
 20
0.902832
 30
0.0
 11
2.36947
 21
0.89095
 31
0.0
  0
LINE
  8
0
 62
     0
 10
2.36947
 20
0.89095
 30
0.0
 11
2.40674
 21
0.855957
 31
0.0
  0
LINE
  8
0
 62
     0
 10
2.40674
 20
0.855957
 30
0.0
 11
2.4279
 21
0.804742
 31
0.0
  0
LINE
  8
0
 62
     0
 10
2.4279
 20
0.804742
 30
0.0
 11
2.43474
 21
0.746799
 31
0.0
  0
LINE
  8
0
 62
     0
 10
2.35487
 20
1.02479
 30
0.0
 11
2.29482
 21
1.01584
 31
0.0
  0
LINE
  8
0
 62
     0
 10
2.29482
 20
1.01584
 30
0.0
 11
2.24376
 21
0.988769
 31
0.0
  0
LINE
  8
0
 62
     0
 10
2.24376
 20
0.988769
 30
0.0
 11
2.19581
 21
0.934733
 31
0.0
  0
LINE
  8
0
 62
     0
 10
2.19581
 20
0.934733
 30
0.0
 11
2.19581
 21
1.01373
 31
0.0
  0
LINE
  8
0
 62
     0
 10
2.19581
 20
1.01373
 30
0.0
 11
2.0619
 21
1.01373
 31
0.0
  0
LINE
  8
0
 62
     0
 10
2.0619
 20
1.01373
 30
0.0
 11
2.0619
 21
0.271972
 31
0.0
  0
LINE
  8
0
 62
     0
 10
2.0619
 20
0.271972
 30
0.0
 11
2.19993
 21
0.271972
 31
0.0
  0
LINE
  8
0
 62
     0
 10
2.19993
 20
0.271972
 30
0.0
 11
2.19993
 21
0.548882
 31
0.0
  0
LINE
  8
0
 62
     0
 10
2.19993
 20
0.548882
 30
0.0
 11
2.24485
 21
0.497885
 31
0.0
  0
LINE
  8
0
 62
     0
 10
2.24485
 20
0.497885
 30
0.0
 11
2.29258
 21
0.474121
 31
0.0
  0
LINE
  8
0
 62
     0
 10
2.29258
 20
0.474121
 30
0.0
 11
2.35075
 21
0.465983
 31
0.0
  0
LINE
  8
0
 62
     0
 10
2.35075
 20
0.465983
 30
0.0
 11
2.3986
 21
0.470649
 31
0.0
  0
LINE
  8
0
 62
     0
 10
2.3986
 20
0.470649
 30
0.0
 11
2.44179
 21
0.484592
 31
0.0
  0
LINE
  8
0
 62
     0
 10
2.44179
 20
0.484592
 30
0.0
 11
2.48047
 21
0.507758
 31
0.0
  0
LINE
  8
0
 62
     0
 10
2.48047
 20
0.507758
 30
0.0
 11
2.51481
 21
0.539985
 31
0.0
  0
LINE
  8
0
 62
     0
 10
2.51481
 20
0.539985
 30
0.0
 11
2.54226
 21
0.580946
 31
0.0
  0
LINE
  8
0
 62
     0
 10
2.54226
 20
0.580946
 30
0.0
 11
2.56196
 21
0.630154
 31
0.0
  0
LINE
  8
0
 62
     0
 10
2.56196
 20
0.630154
 30
0.0
 11
2.57378
 21
0.687825
 31
0.0
  0
LINE
  8
0
 62
     0
 10
2.57378
 20
0.687825
 30
0.0
 11
2.57775
 21
0.753961
 31
0.0
  0
LINE
  8
0
 62
     0
 10
2.57775
 20
0.753961
 30
0.0
 11
2.57362
 21
0.816569
 31
0.0
  0
LINE
  8
0
 62
     0
 10
2.57362
 20
0.816569
 30
0.0
 11
2.56142
 21
0.870985
 31
0.0
  0
LINE
  8
0
 62
     0
 10
2.56142
 20
0.870985
 30
0.0
 11
2.54112
 21
0.917372
 31
0.0
  0
LINE
  8
0
 62
     0
 10
2.54112
 20
0.917372
 30
0.0
 11
2.51286
 21
0.955783
 31
0.0
  0
LINE
  8
0
 62
     0
 10
2.51286
 20
0.955783
 30
0.0
 11
2.44092
 21
1.00754
 31
0.0
  0
LINE
  8
0
 62
     0
 10
2.44092
 20
1.00754
 30
0.0
 11
2.35487
 21
1.02479
 31
0.0
  0
ENDSEC
  0
EOF
