  0
SECTION
  2
BLOCKS
  0
ENDSEC
  0
SECTION
  2
ENTITIES
  0
LINE
  8
0
 10
-20
 11
-19.563
 20
0
 21
4.158
  0
LINE
  8
0
 10
-19.563
 11
-18.271
 20
4.158
 21
8.135
  0
LINE
  8
0
 10
-18.271
 11
-16.18
 20
8.135
 21
11.756
  0
LINE
  8
0
 10
-16.18
 11
-13.383
 20
11.756
 21
14.863
  0
LINE
  8
0
 10
-13.383
 11
-10
 20
14.863
 21
17.321
  0
LINE
  8
0
 10
-10
 11
-6.18
 20
17.321
 21
19.021
  0
LINE
  8
0
 10
-6.18
 11
-2.091
 20
19.021
 21
19.89
  0
LINE
  8
0
 10
-2.091
 11
2.091
 20
19.89
 21
19.89
  0
LINE
  8
0
 10
2.091
 11
6.18
 20
19.89
 21
19.021
  0
LINE
  8
0
 10
6.18
 11
10
 20
19.021
 21
17.321
  0
LINE
  8
0
 10
10
 11
13.383
 20
17.321
 21
14.863
  0
LINE
  8
0
 10
13.383
 11
16.18
 20
14.863
 21
11.756
  0
LINE
  8
0
 10
16.18
 11
18.271
 20
11.756
 21
8.135
  0
LINE
  8
0
 10
18.271
 11
19.563
 20
8.135
 21
4.158
  0
LINE
  8
0
 10
19.563
 11
20
 20
4.158
 21
0
  0
LINE
  8
0
 10
20
 11
19.563
 20
0
 21
-4.158
  0
LINE
  8
0
 10
19.563
 11
18.271
 20
-4.158
 21
-8.135
  0
LINE
  8
0
 10
18.271
 11
16.18
 20
-8.135
 21
-11.756
  0
LINE
  8
0
 10
16.18
 11
13.383
 20
-11.756
 21
-14.863
  0
LINE
  8
0
 10
13.383
 11
10
 20
-14.863
 21
-17.321
  0
LINE
  8
0
 10
10
 11
6.18
 20
-17.321
 21
-19.021
  0
LINE
  8
0
 10
6.18
 11
2.091
 20
-19.021
 21
-19.89
  0
LINE
  8
0
 10
2.091
 11
-2.091
 20
-19.89
 21
-19.89
  0
LINE
  8
0
 10
-2.091
 11
-6.18
 20
-19.89
 21
-19.021
  0
LINE
  8
0
 10
-6.18
 11
-10
 20
-19.021
 21
-17.321
  0
LINE
  8
0
 10
-10
 11
-13.383
 20
-17.321
 21
-14.863
  0
LINE
  8
0
 10
-13.383
 11
-16.18
 20
-14.863
 21
-11.756
  0
LINE
  8
0
 10
-16.18
 11
-18.271
 20
-11.756
 21
-8.135
  0
LINE
  8
0
 10
-18.271
 11
-19.563
 20
-8.135
 21
-4.158
  0
LINE
  8
0
 10
-19.563
 11
-20
 20
-4.158
 21
0
  0
LINE
  8
0
 10
-18.182
 11
-17.785
 20
0
 21
3.78
  0
LINE
  8
0
 10
-17.785
 11
-16.61
 20
3.78
 21
7.395
  0
LINE
  8
0
 10
-16.61
 11
-14.709
 20
7.395
 21
10.687
  0
LINE
  8
0
 10
-14.709
 11
-12.166
 20
10.687
 21
13.512
  0
LINE
  8
0
 10
-12.166
 11
-9.091
 20
13.512
 21
15.746
  0
LINE
  8
0
 10
-9.091
 11
-5.618
 20
15.746
 21
17.292
  0
LINE
  8
0
 10
-5.618
 11
-1.901
 20
17.292
 21
18.082
  0
LINE
  8
0
 10
-1.901
 11
1.901
 20
18.082
 21
18.082
  0
LINE
  8
0
 10
1.901
 11
5.618
 20
18.082
 21
17.292
  0
LINE
  8
0
 10
5.618
 11
9.091
 20
17.292
 21
15.746
  0
LINE
  8
0
 10
9.091
 11
12.166
 20
15.746
 21
13.512
  0
LINE
  8
0
 10
12.166
 11
14.709
 20
13.512
 21
10.687
  0
LINE
  8
0
 10
14.709
 11
16.61
 20
10.687
 21
7.395
  0
LINE
  8
0
 10
16.61
 11
17.785
 20
7.395
 21
3.78
  0
LINE
  8
0
 10
17.785
 11
18.182
 20
3.78
 21
0
  0
LINE
  8
0
 10
18.182
 11
17.785
 20
0
 21
-3.78
  0
LINE
  8
0
 10
17.785
 11
16.61
 20
-3.78
 21
-7.395
  0
LINE
  8
0
 10
16.61
 11
14.709
 20
-7.395
 21
-10.687
  0
LINE
  8
0
 10
14.709
 11
12.166
 20
-10.687
 21
-13.512
  0
LINE
  8
0
 10
12.166
 11
9.091
 20
-13.512
 21
-15.746
  0
LINE
  8
0
 10
9.091
 11
5.618
 20
-15.746
 21
-17.292
  0
LINE
  8
0
 10
5.618
 11
1.901
 20
-17.292
 21
-18.082
  0
LINE
  8
0
 10
1.901
 11
-1.901
 20
-18.082
 21
-18.082
  0
LINE
  8
0
 10
-1.901
 11
-5.618
 20
-18.082
 21
-17.292
  0
LINE
  8
0
 10
-5.618
 11
-9.091
 20
-17.292
 21
-15.746
  0
LINE
  8
0
 10
-9.091
 11
-12.166
 20
-15.746
 21
-13.512
  0
LINE
  8
0
 10
-12.166
 11
-14.709
 20
-13.512
 21
-10.687
  0
LINE
  8
0
 10
-14.709
 11
-16.61
 20
-10.687
 21
-7.395
  0
LINE
  8
0
 10
-16.61
 11
-17.785
 20
-7.395
 21
-3.78
  0
LINE
  8
0
 10
-17.785
 11
-18.182
 20
-3.78
 21
0
  0
LINE
  8
0
 10
-9.98
 11
-9.98
 20
-7.462
 21
-7.084
  0
LINE
  8
0
 10
-9.98
 11
-9.826
 20
-7.084
 21
-6.738
  0
LINE
  8
0
 10
-9.826
 11
-9.545
 20
-6.738
 21
-6.485
  0
LINE
  8
0
 10
-9.545
 11
-9.186
 20
-6.485
 21
-6.368
  0
LINE
  8
0
 10
-9.186
 11
-9.091
 20
-6.368
 21
-6.378
  0
LINE
  8
0
 10
-9.091
 11
-9.091
 20
-6.378
 21
-6.364
  0
LINE
  8
0
 10
-9.091
 11
9.091
 20
-6.364
 21
-6.364
  0
LINE
  8
0
 10
9.091
 11
9.091
 20
-6.364
 21
-6.378
  0
LINE
  8
0
 10
9.091
 11
9.372
 20
-6.378
 21
-6.408
  0
LINE
  8
0
 10
9.372
 11
9.699
 20
-6.408
 21
-6.597
  0
LINE
  8
0
 10
9.699
 11
9.922
 20
-6.597
 21
-6.903
  0
LINE
  8
0
 10
9.922
 11
10
 20
-6.903
 21
-7.273
  0
LINE
  8
0
 10
10
 11
9.922
 20
-7.273
 21
-7.643
  0
LINE
  8
0
 10
9.922
 11
9.699
 20
-7.643
 21
-7.948
  0
LINE
  8
0
 10
9.699
 11
9.372
 20
-7.948
 21
-8.137
  0
LINE
  8
0
 10
9.372
 11
9.091
 20
-8.137
 21
-8.167
  0
LINE
  8
0
 10
9.091
 11
9.091
 20
-8.167
 21
-8.182
  0
LINE
  8
0
 10
9.091
 11
-9.091
 20
-8.182
 21
-8.182
  0
LINE
  8
0
 10
-9.091
 11
-9.091
 20
-8.182
 21
-8.167
  0
LINE
  8
0
 10
-9.091
 11
-9.186
 20
-8.167
 21
-8.177
  0
LINE
  8
0
 10
-9.186
 11
-9.545
 20
-8.177
 21
-8.06
  0
LINE
  8
0
 10
-9.545
 11
-9.826
 20
-8.06
 21
-7.807
  0
LINE
  8
0
 10
-9.826
 11
-9.98
 20
-7.807
 21
-7.462
  0
LINE
  8
0
 10
-6.064
 11
-6.064
 20
5.672
 21
7.185
  0
LINE
  8
0
 10
-6.064
 11
-5.756
 20
7.185
 21
8.566
  0
LINE
  8
0
 10
-5.756
 11
-5.195
 20
8.566
 21
9.577
  0
LINE
  8
0
 10
-5.195
 11
-4.475
 20
9.577
 21
10.045
  0
LINE
  8
0
 10
-4.475
 11
-3.724
 20
10.045
 21
9.886
  0
LINE
  8
0
 10
-3.724
 11
-3.069
 20
9.886
 21
9.13
  0
LINE
  8
0
 10
-3.069
 11
-2.625
 20
9.13
 21
7.906
  0
LINE
  8
0
 10
-2.625
 11
-2.467
 20
7.906
 21
6.428
  0
LINE
  8
0
 10
-2.467
 11
-2.625
 20
6.428
 21
4.95
  0
LINE
  8
0
 10
-2.625
 11
-3.069
 20
4.95
 21
3.726
  0
LINE
  8
0
 10
-3.069
 11
-3.724
 20
3.726
 21
2.97
  0
LINE
  8
0
 10
-3.724
 11
-4.475
 20
2.97
 21
2.812
  0
LINE
  8
0
 10
-4.475
 11
-5.195
 20
2.812
 21
3.279
  0
LINE
  8
0
 10
-5.195
 11
-5.756
 20
3.279
 21
4.29
  0
LINE
  8
0
 10
-5.756
 11
-6.064
 20
4.29
 21
5.672
  0
LINE
  8
0
 10
2.507
 11
2.507
 20
5.672
 21
7.185
  0
LINE
  8
0
 10
2.507
 11
2.815
 20
7.185
 21
8.566
  0
LINE
  8
0
 10
2.815
 11
3.376
 20
8.566
 21
9.577
  0
LINE
  8
0
 10
3.376
 11
4.095
 20
9.577
 21
10.045
  0
LINE
  8
0
 10
4.095
 11
4.847
 20
10.045
 21
9.886
  0
LINE
  8
0
 10
4.847
 11
5.502
 20
9.886
 21
9.13
  0
LINE
  8
0
 10
5.502
 11
5.946
 20
9.13
 21
7.906
  0
LINE
  8
0
 10
5.946
 11
6.104
 20
7.906
 21
6.428
  0
LINE
  8
0
 10
6.104
 11
5.946
 20
6.428
 21
4.95
  0
LINE
  8
0
 10
5.946
 11
5.502
 20
4.95
 21
3.726
  0
LINE
  8
0
 10
5.502
 11
4.847
 20
3.726
 21
2.97
  0
LINE
  8
0
 10
4.847
 11
4.095
 20
2.97
 21
2.812
  0
LINE
  8
0
 10
4.095
 11
3.376
 20
2.812
 21
3.279
  0
LINE
  8
0
 10
3.376
 11
2.815
 20
3.279
 21
4.29
  0
LINE
  8
0
 10
2.815
 11
2.507
 20
4.29
 21
5.672
  0
ENDSEC
  0
SECTION
  2
OBJECTS
  0
DICTIONARY
  0
ENDSEC
  0
EOF
