  0
SECTION
  2
BLOCKS
  0
ENDSEC
  0
SECTION
  2
ENTITIES
  0
LINE
  8
0
 10
-20
 11
-19.563
 20
0
 21
4.158
  0
LINE
  8
0
 10
-19.563
 11
-18.271
 20
4.158
 21
8.135
  0
LINE
  8
0
 10
-18.271
 11
-16.18
 20
8.135
 21
11.756
  0
LINE
  8
0
 10
-16.18
 11
-13.383
 20
11.756
 21
14.863
  0
LINE
  8
0
 10
-13.383
 11
-10
 20
14.863
 21
17.321
  0
LINE
  8
0
 10
-10
 11
-6.18
 20
17.321
 21
19.021
  0
LINE
  8
0
 10
-6.18
 11
-2.091
 20
19.021
 21
19.89
  0
LINE
  8
0
 10
-2.091
 11
2.091
 20
19.89
 21
19.89
  0
LINE
  8
0
 10
2.091
 11
6.18
 20
19.89
 21
19.021
  0
LINE
  8
0
 10
6.18
 11
10
 20
19.021
 21
17.321
  0
LINE
  8
0
 10
10
 11
13.383
 20
17.321
 21
14.863
  0
LINE
  8
0
 10
13.383
 11
16.18
 20
14.863
 21
11.756
  0
LINE
  8
0
 10
16.18
 11
18.271
 20
11.756
 21
8.135
  0
LINE
  8
0
 10
18.271
 11
19.563
 20
8.135
 21
4.158
  0
LINE
  8
0
 10
19.563
 11
20
 20
4.158
 21
0
  0
LINE
  8
0
 10
20
 11
19.563
 20
0
 21
-4.158
  0
LINE
  8
0
 10
19.563
 11
18.271
 20
-4.158
 21
-8.135
  0
LINE
  8
0
 10
18.271
 11
16.18
 20
-8.135
 21
-11.756
  0
LINE
  8
0
 10
16.18
 11
13.383
 20
-11.756
 21
-14.863
  0
LINE
  8
0
 10
13.383
 11
10
 20
-14.863
 21
-17.321
  0
LINE
  8
0
 10
10
 11
6.18
 20
-17.321
 21
-19.021
  0
LINE
  8
0
 10
6.18
 11
2.091
 20
-19.021
 21
-19.89
  0
LINE
  8
0
 10
2.091
 11
-2.091
 20
-19.89
 21
-19.89
  0
LINE
  8
0
 10
-2.091
 11
-6.18
 20
-19.89
 21
-19.021
  0
LINE
  8
0
 10
-6.18
 11
-10
 20
-19.021
 21
-17.321
  0
LINE
  8
0
 10
-10
 11
-13.383
 20
-17.321
 21
-14.863
  0
LINE
  8
0
 10
-13.383
 11
-16.18
 20
-14.863
 21
-11.756
  0
LINE
  8
0
 10
-16.18
 11
-18.271
 20
-11.756
 21
-8.135
  0
LINE
  8
0
 10
-18.271
 11
-19.563
 20
-8.135
 21
-4.158
  0
LINE
  8
0
 10
-19.563
 11
-20
 20
-4.158
 21
0
  0
LINE
  8
0
 10
-18.182
 11
-17.785
 20
0
 21
3.78
  0
LINE
  8
0
 10
-17.785
 11
-16.61
 20
3.78
 21
7.395
  0
LINE
  8
0
 10
-16.61
 11
-14.709
 20
7.395
 21
10.687
  0
LINE
  8
0
 10
-14.709
 11
-12.166
 20
10.687
 21
13.512
  0
LINE
  8
0
 10
-12.166
 11
-9.091
 20
13.512
 21
15.746
  0
LINE
  8
0
 10
-9.091
 11
-5.618
 20
15.746
 21
17.292
  0
LINE
  8
0
 10
-5.618
 11
-1.901
 20
17.292
 21
18.082
  0
LINE
  8
0
 10
-1.901
 11
1.901
 20
18.082
 21
18.082
  0
LINE
  8
0
 10
1.901
 11
5.618
 20
18.082
 21
17.292
  0
LINE
  8
0
 10
5.618
 11
9.091
 20
17.292
 21
15.746
  0
LINE
  8
0
 10
9.091
 11
12.166
 20
15.746
 21
13.512
  0
LINE
  8
0
 10
12.166
 11
14.709
 20
13.512
 21
10.687
  0
LINE
  8
0
 10
14.709
 11
16.61
 20
10.687
 21
7.395
  0
LINE
  8
0
 10
16.61
 11
17.785
 20
7.395
 21
3.78
  0
LINE
  8
0
 10
17.785
 11
18.182
 20
3.78
 21
0
  0
LINE
  8
0
 10
18.182
 11
17.785
 20
0
 21
-3.78
  0
LINE
  8
0
 10
17.785
 11
16.61
 20
-3.78
 21
-7.395
  0
LINE
  8
0
 10
16.61
 11
14.709
 20
-7.395
 21
-10.687
  0
LINE
  8
0
 10
14.709
 11
12.166
 20
-10.687
 21
-13.512
  0
LINE
  8
0
 10
12.166
 11
9.091
 20
-13.512
 21
-15.746
  0
LINE
  8
0
 10
9.091
 11
5.618
 20
-15.746
 21
-17.292
  0
LINE
  8
0
 10
5.618
 11
1.901
 20
-17.292
 21
-18.082
  0
LINE
  8
0
 10
1.901
 11
-1.901
 20
-18.082
 21
-18.082
  0
LINE
  8
0
 10
-1.901
 11
-5.618
 20
-18.082
 21
-17.292
  0
LINE
  8
0
 10
-5.618
 11
-9.091
 20
-17.292
 21
-15.746
  0
LINE
  8
0
 10
-9.091
 11
-12.166
 20
-15.746
 21
-13.512
  0
LINE
  8
0
 10
-12.166
 11
-14.709
 20
-13.512
 21
-10.687
  0
LINE
  8
0
 10
-14.709
 11
-16.61
 20
-10.687
 21
-7.395
  0
LINE
  8
0
 10
-16.61
 11
-17.785
 20
-7.395
 21
-3.78
  0
LINE
  8
0
 10
-17.785
 11
-18.182
 20
-3.78
 21
0
  0
LINE
  8
0
 10
-12
 11
-11.978
 20
-2.727
 21
-2.727
  0
LINE
  8
0
 10
-11.978
 11
-11.978
 20
-2.727
 21
-2.538
  0
LINE
  8
0
 10
-11.978
 11
-11.809
 20
-2.538
 21
-2.193
  0
LINE
  8
0
 10
-11.809
 11
-11.5
 20
-2.193
 21
-1.94
  0
LINE
  8
0
 10
-11.5
 11
-11.105
 20
-1.94
 21
-1.823
  0
LINE
  8
0
 10
-11.105
 11
-10.691
 20
-1.823
 21
-1.863
  0
LINE
  8
0
 10
-10.691
 11
-10.331
 20
-1.863
 21
-2.052
  0
LINE
  8
0
 10
-10.331
 11
-10.086
 20
-2.052
 21
-2.357
  0
LINE
  8
0
 10
-10.086
 11
-10
 20
-2.357
 21
-2.727
  0
LINE
  8
0
 10
-10
 11
-9.781
 20
-2.727
 21
-4.617
  0
LINE
  8
0
 10
-9.781
 11
-9.135
 20
-4.617
 21
-6.425
  0
LINE
  8
0
 10
-9.135
 11
-8.09
 20
-6.425
 21
-8.071
  0
LINE
  8
0
 10
-8.09
 11
-6.691
 20
-8.071
 21
-9.483
  0
LINE
  8
0
 10
-6.691
 11
-5
 20
-9.483
 21
-10.6
  0
LINE
  8
0
 10
-5
 11
-3.09
 20
-10.6
 21
-11.374
  0
LINE
  8
0
 10
-3.09
 11
-1.045
 20
-11.374
 21
-11.768
  0
LINE
  8
0
 10
-1.045
 11
1.045
 20
-11.768
 21
-11.768
  0
LINE
  8
0
 10
1.045
 11
3.09
 20
-11.768
 21
-11.374
  0
LINE
  8
0
 10
3.09
 11
5
 20
-11.374
 21
-10.6
  0
LINE
  8
0
 10
5
 11
6.691
 20
-10.6
 21
-9.483
  0
LINE
  8
0
 10
6.691
 11
8.09
 20
-9.483
 21
-8.071
  0
LINE
  8
0
 10
8.09
 11
9.135
 20
-8.071
 21
-6.425
  0
LINE
  8
0
 10
9.135
 11
9.781
 20
-6.425
 21
-4.617
  0
LINE
  8
0
 10
9.781
 11
10
 20
-4.617
 21
-2.727
  0
LINE
  8
0
 10
10
 11
10.022
 20
-2.727
 21
-2.727
  0
LINE
  8
0
 10
10.022
 11
10.022
 20
-2.727
 21
-2.538
  0
LINE
  8
0
 10
10.022
 11
10.191
 20
-2.538
 21
-2.193
  0
LINE
  8
0
 10
10.191
 11
10.5
 20
-2.193
 21
-1.94
  0
LINE
  8
0
 10
10.5
 11
10.895
 20
-1.94
 21
-1.823
  0
LINE
  8
0
 10
10.895
 11
11.309
 20
-1.823
 21
-1.863
  0
LINE
  8
0
 10
11.309
 11
11.669
 20
-1.863
 21
-2.052
  0
LINE
  8
0
 10
11.669
 11
11.914
 20
-2.052
 21
-2.357
  0
LINE
  8
0
 10
11.914
 11
12
 20
-2.357
 21
-2.727
  0
LINE
  8
0
 10
12
 11
11.738
 20
-2.727
 21
-4.995
  0
LINE
  8
0
 10
11.738
 11
10.963
 20
-4.995
 21
-7.165
  0
LINE
  8
0
 10
10.963
 11
9.708
 20
-7.165
 21
-9.139
  0
LINE
  8
0
 10
9.708
 11
8.03
 20
-9.139
 21
-10.835
  0
LINE
  8
0
 10
8.03
 11
6
 20
-10.835
 21
-12.175
  0
LINE
  8
0
 10
6
 11
3.708
 20
-12.175
 21
-13.103
  0
LINE
  8
0
 10
3.708
 11
1.254
 20
-13.103
 21
-13.576
  0
LINE
  8
0
 10
1.254
 11
-1.254
 20
-13.576
 21
-13.576
  0
LINE
  8
0
 10
-1.254
 11
-3.708
 20
-13.576
 21
-13.103
  0
LINE
  8
0
 10
-3.708
 11
-6
 20
-13.103
 21
-12.175
  0
LINE
  8
0
 10
-6
 11
-8.03
 20
-12.175
 21
-10.835
  0
LINE
  8
0
 10
-8.03
 11
-9.708
 20
-10.835
 21
-9.139
  0
LINE
  8
0
 10
-9.708
 11
-10.963
 20
-9.139
 21
-7.165
  0
LINE
  8
0
 10
-10.963
 11
-11.738
 20
-7.165
 21
-4.995
  0
LINE
  8
0
 10
-11.738
 11
-12
 20
-4.995
 21
-2.727
  0
LINE
  8
0
 10
-7.842
 11
-7.842
 20
6.277
 21
6.579
  0
LINE
  8
0
 10
-7.842
 11
-7.227
 20
6.579
 21
6.855
  0
LINE
  8
0
 10
-7.227
 11
-6.104
 20
6.855
 21
7.057
  0
LINE
  8
0
 10
-6.104
 11
-4.665
 20
7.057
 21
7.152
  0
LINE
  8
0
 10
-4.665
 11
-3.162
 20
7.152
 21
7.119
  0
LINE
  8
0
 10
-3.162
 11
-1.853
 20
7.119
 21
6.968
  0
LINE
  8
0
 10
-1.853
 11
-0.964
 20
6.968
 21
6.725
  0
LINE
  8
0
 10
-0.964
 11
-0.649
 20
6.725
 21
6.428
  0
LINE
  8
0
 10
-0.649
 11
-0.964
 20
6.428
 21
6.132
  0
LINE
  8
0
 10
-0.964
 11
-1.853
 20
6.132
 21
5.888
  0
LINE
  8
0
 10
-1.853
 11
-3.162
 20
5.888
 21
5.737
  0
LINE
  8
0
 10
-3.162
 11
-4.665
 20
5.737
 21
5.705
  0
LINE
  8
0
 10
-4.665
 11
-6.104
 20
5.705
 21
5.799
  0
LINE
  8
0
 10
-6.104
 11
-7.227
 20
5.799
 21
6.001
  0
LINE
  8
0
 10
-7.227
 11
-7.842
 20
6.001
 21
6.277
  0
LINE
  8
0
 10
2.507
 11
2.507
 20
5.672
 21
7.185
  0
LINE
  8
0
 10
2.507
 11
2.815
 20
7.185
 21
8.566
  0
LINE
  8
0
 10
2.815
 11
3.376
 20
8.566
 21
9.577
  0
LINE
  8
0
 10
3.376
 11
4.095
 20
9.577
 21
10.045
  0
LINE
  8
0
 10
4.095
 11
4.847
 20
10.045
 21
9.886
  0
LINE
  8
0
 10
4.847
 11
5.502
 20
9.886
 21
9.13
  0
LINE
  8
0
 10
5.502
 11
5.946
 20
9.13
 21
7.906
  0
LINE
  8
0
 10
5.946
 11
6.104
 20
7.906
 21
6.428
  0
LINE
  8
0
 10
6.104
 11
5.946
 20
6.428
 21
4.95
  0
LINE
  8
0
 10
5.946
 11
5.502
 20
4.95
 21
3.726
  0
LINE
  8
0
 10
5.502
 11
4.847
 20
3.726
 21
2.97
  0
LINE
  8
0
 10
4.847
 11
4.095
 20
2.97
 21
2.812
  0
LINE
  8
0
 10
4.095
 11
3.376
 20
2.812
 21
3.279
  0
LINE
  8
0
 10
3.376
 11
2.815
 20
3.279
 21
4.29
  0
LINE
  8
0
 10
2.815
 11
2.507
 20
4.29
 21
5.672
  0
ENDSEC
  0
SECTION
  2
OBJECTS
  0
DICTIONARY
  0
ENDSEC
  0
EOF
