  0
SECTION
  2
BLOCKS
  0
ENDSEC
  0
SECTION
  2
ENTITIES
  0
LINE
  8
0
 10
-20
 11
-19.563
 20
0
 21
4.158
  0
LINE
  8
0
 10
-19.563
 11
-18.271
 20
4.158
 21
8.135
  0
LINE
  8
0
 10
-18.271
 11
-16.18
 20
8.135
 21
11.756
  0
LINE
  8
0
 10
-16.18
 11
-13.383
 20
11.756
 21
14.863
  0
LINE
  8
0
 10
-13.383
 11
-10
 20
14.863
 21
17.321
  0
LINE
  8
0
 10
-10
 11
-6.18
 20
17.321
 21
19.021
  0
LINE
  8
0
 10
-6.18
 11
-2.091
 20
19.021
 21
19.89
  0
LINE
  8
0
 10
-2.091
 11
2.091
 20
19.89
 21
19.89
  0
LINE
  8
0
 10
2.091
 11
6.18
 20
19.89
 21
19.021
  0
LINE
  8
0
 10
6.18
 11
10
 20
19.021
 21
17.321
  0
LINE
  8
0
 10
10
 11
13.383
 20
17.321
 21
14.863
  0
LINE
  8
0
 10
13.383
 11
16.18
 20
14.863
 21
11.756
  0
LINE
  8
0
 10
16.18
 11
18.271
 20
11.756
 21
8.135
  0
LINE
  8
0
 10
18.271
 11
19.563
 20
8.135
 21
4.158
  0
LINE
  8
0
 10
19.563
 11
20
 20
4.158
 21
0
  0
LINE
  8
0
 10
20
 11
19.563
 20
0
 21
-4.158
  0
LINE
  8
0
 10
19.563
 11
18.271
 20
-4.158
 21
-8.135
  0
LINE
  8
0
 10
18.271
 11
16.18
 20
-8.135
 21
-11.756
  0
LINE
  8
0
 10
16.18
 11
13.383
 20
-11.756
 21
-14.863
  0
LINE
  8
0
 10
13.383
 11
10
 20
-14.863
 21
-17.321
  0
LINE
  8
0
 10
10
 11
6.18
 20
-17.321
 21
-19.021
  0
LINE
  8
0
 10
6.18
 11
2.091
 20
-19.021
 21
-19.89
  0
LINE
  8
0
 10
2.091
 11
-2.091
 20
-19.89
 21
-19.89
  0
LINE
  8
0
 10
-2.091
 11
-6.18
 20
-19.89
 21
-19.021
  0
LINE
  8
0
 10
-6.18
 11
-10
 20
-19.021
 21
-17.321
  0
LINE
  8
0
 10
-10
 11
-13.383
 20
-17.321
 21
-14.863
  0
LINE
  8
0
 10
-13.383
 11
-16.18
 20
-14.863
 21
-11.756
  0
LINE
  8
0
 10
-16.18
 11
-18.271
 20
-11.756
 21
-8.135
  0
LINE
  8
0
 10
-18.271
 11
-19.563
 20
-8.135
 21
-4.158
  0
LINE
  8
0
 10
-19.563
 11
-20
 20
-4.158
 21
0
  0
LINE
  8
0
 10
-10.978
 11
-10.978
 20
-8.208
 21
-7.792
  0
LINE
  8
0
 10
-10.978
 11
-10.809
 20
-7.792
 21
-7.412
  0
LINE
  8
0
 10
-10.809
 11
-10.5
 20
-7.412
 21
-7.134
  0
LINE
  8
0
 10
-10.5
 11
-10.105
 20
-7.134
 21
-7.005
  0
LINE
  8
0
 10
-10.105
 11
-10
 20
-7.005
 21
-7.016
  0
LINE
  8
0
 10
-10
 11
-10
 20
-7.016
 21
-7
  0
LINE
  8
0
 10
-10
 11
10
 20
-7
 21
-7
  0
LINE
  8
0
 10
10
 11
10
 20
-7
 21
-7.016
  0
LINE
  8
0
 10
10
 11
10.309
 20
-7.016
 21
-7.049
  0
LINE
  8
0
 10
10.309
 11
10.669
 20
-7.049
 21
-7.257
  0
LINE
  8
0
 10
10.669
 11
10.914
 20
-7.257
 21
-7.593
  0
LINE
  8
0
 10
10.914
 11
11
 20
-7.593
 21
-8
  0
LINE
  8
0
 10
11
 11
10.914
 20
-8
 21
-8.407
  0
LINE
  8
0
 10
10.914
 11
10.669
 20
-8.407
 21
-8.743
  0
LINE
  8
0
 10
10.669
 11
10.309
 20
-8.743
 21
-8.951
  0
LINE
  8
0
 10
10.309
 11
10
 20
-8.951
 21
-8.984
  0
LINE
  8
0
 10
10
 11
10
 20
-8.984
 21
-9
  0
LINE
  8
0
 10
10
 11
-10
 20
-9
 21
-9
  0
LINE
  8
0
 10
-10
 11
-10
 20
-9
 21
-8.984
  0
LINE
  8
0
 10
-10
 11
-10.105
 20
-8.984
 21
-8.995
  0
LINE
  8
0
 10
-10.105
 11
-10.5
 20
-8.995
 21
-8.866
  0
LINE
  8
0
 10
-10.5
 11
-10.809
 20
-8.866
 21
-8.588
  0
LINE
  8
0
 10
-10.809
 11
-10.978
 20
-8.588
 21
-8.208
  0
LINE
  8
0
 10
-6.67
 11
-6.67
 20
6.239
 21
7.903
  0
LINE
  8
0
 10
-6.67
 11
-6.332
 20
7.903
 21
9.423
  0
LINE
  8
0
 10
-6.332
 11
-5.714
 20
9.423
 21
10.535
  0
LINE
  8
0
 10
-5.714
 11
-4.923
 20
10.535
 21
11.049
  0
LINE
  8
0
 10
-4.923
 11
-4.096
 20
11.049
 21
10.875
  0
LINE
  8
0
 10
-4.096
 11
-3.376
 20
10.875
 21
10.043
  0
LINE
  8
0
 10
-3.376
 11
-2.887
 20
10.043
 21
8.697
  0
LINE
  8
0
 10
-2.887
 11
-2.714
 20
8.697
 21
7.071
  0
LINE
  8
0
 10
-2.714
 11
-2.887
 20
7.071
 21
5.445
  0
LINE
  8
0
 10
-2.887
 11
-3.376
 20
5.445
 21
4.099
  0
LINE
  8
0
 10
-3.376
 11
-4.096
 20
4.099
 21
3.267
  0
LINE
  8
0
 10
-4.096
 11
-4.923
 20
3.267
 21
3.093
  0
LINE
  8
0
 10
-4.923
 11
-5.714
 20
3.093
 21
3.607
  0
LINE
  8
0
 10
-5.714
 11
-6.332
 20
3.607
 21
4.719
  0
LINE
  8
0
 10
-6.332
 11
-6.67
 20
4.719
 21
6.239
  0
LINE
  8
0
 10
2.758
 11
2.758
 20
6.239
 21
7.903
  0
LINE
  8
0
 10
2.758
 11
3.096
 20
7.903
 21
9.423
  0
LINE
  8
0
 10
3.096
 11
3.714
 20
9.423
 21
10.535
  0
LINE
  8
0
 10
3.714
 11
4.505
 20
10.535
 21
11.049
  0
LINE
  8
0
 10
4.505
 11
5.332
 20
11.049
 21
10.875
  0
LINE
  8
0
 10
5.332
 11
6.052
 20
10.875
 21
10.043
  0
LINE
  8
0
 10
6.052
 11
6.541
 20
10.043
 21
8.697
  0
LINE
  8
0
 10
6.541
 11
6.714
 20
8.697
 21
7.071
  0
LINE
  8
0
 10
6.714
 11
6.541
 20
7.071
 21
5.445
  0
LINE
  8
0
 10
6.541
 11
6.052
 20
5.445
 21
4.099
  0
LINE
  8
0
 10
6.052
 11
5.332
 20
4.099
 21
3.267
  0
LINE
  8
0
 10
5.332
 11
4.505
 20
3.267
 21
3.093
  0
LINE
  8
0
 10
4.505
 11
3.714
 20
3.093
 21
3.607
  0
LINE
  8
0
 10
3.714
 11
3.096
 20
3.607
 21
4.719
  0
LINE
  8
0
 10
3.096
 11
2.758
 20
4.719
 21
6.239
  0
ENDSEC
  0
SECTION
  2
OBJECTS
  0
DICTIONARY
  0
ENDSEC
  0
EOF
