  0
SECTION
  2
BLOCKS
  0
ENDSEC
  0
SECTION
  2
ENTITIES
  0
LINE
  8
0
 10
-20
 11
-19.563
 20
0
 21
4.158
  0
LINE
  8
0
 10
-19.563
 11
-18.271
 20
4.158
 21
8.135
  0
LINE
  8
0
 10
-18.271
 11
-16.18
 20
8.135
 21
11.756
  0
LINE
  8
0
 10
-16.18
 11
-13.383
 20
11.756
 21
14.863
  0
LINE
  8
0
 10
-13.383
 11
-10
 20
14.863
 21
17.321
  0
LINE
  8
0
 10
-10
 11
-6.18
 20
17.321
 21
19.021
  0
LINE
  8
0
 10
-6.18
 11
-2.091
 20
19.021
 21
19.89
  0
LINE
  8
0
 10
-2.091
 11
2.091
 20
19.89
 21
19.89
  0
LINE
  8
0
 10
2.091
 11
6.18
 20
19.89
 21
19.021
  0
LINE
  8
0
 10
6.18
 11
10
 20
19.021
 21
17.321
  0
LINE
  8
0
 10
10
 11
13.383
 20
17.321
 21
14.863
  0
LINE
  8
0
 10
13.383
 11
16.18
 20
14.863
 21
11.756
  0
LINE
  8
0
 10
16.18
 11
18.271
 20
11.756
 21
8.135
  0
LINE
  8
0
 10
18.271
 11
19.563
 20
8.135
 21
4.158
  0
LINE
  8
0
 10
19.563
 11
20
 20
4.158
 21
0
  0
LINE
  8
0
 10
20
 11
19.563
 20
0
 21
-4.158
  0
LINE
  8
0
 10
19.563
 11
18.271
 20
-4.158
 21
-8.135
  0
LINE
  8
0
 10
18.271
 11
16.18
 20
-8.135
 21
-11.756
  0
LINE
  8
0
 10
16.18
 11
13.383
 20
-11.756
 21
-14.863
  0
LINE
  8
0
 10
13.383
 11
10
 20
-14.863
 21
-17.321
  0
LINE
  8
0
 10
10
 11
6.18
 20
-17.321
 21
-19.021
  0
LINE
  8
0
 10
6.18
 11
2.091
 20
-19.021
 21
-19.89
  0
LINE
  8
0
 10
2.091
 11
-2.091
 20
-19.89
 21
-19.89
  0
LINE
  8
0
 10
-2.091
 11
-6.18
 20
-19.89
 21
-19.021
  0
LINE
  8
0
 10
-6.18
 11
-10
 20
-19.021
 21
-17.321
  0
LINE
  8
0
 10
-10
 11
-13.383
 20
-17.321
 21
-14.863
  0
LINE
  8
0
 10
-13.383
 11
-16.18
 20
-14.863
 21
-11.756
  0
LINE
  8
0
 10
-16.18
 11
-18.271
 20
-11.756
 21
-8.135
  0
LINE
  8
0
 10
-18.271
 11
-19.563
 20
-8.135
 21
-4.158
  0
LINE
  8
0
 10
-19.563
 11
-20
 20
-4.158
 21
0
  0
LINE
  8
0
 10
-13.2
 11
-12.912
 20
-11
 21
-8.505
  0
LINE
  8
0
 10
-12.912
 11
-12.059
 20
-8.505
 21
-6.119
  0
LINE
  8
0
 10
-12.059
 11
-10.679
 20
-6.119
 21
-3.947
  0
LINE
  8
0
 10
-10.679
 11
-8.833
 20
-3.947
 21
-2.082
  0
LINE
  8
0
 10
-8.833
 11
-6.6
 20
-2.082
 21
-0.608
  0
LINE
  8
0
 10
-6.6
 11
-4.079
 20
-0.608
 21
0.413
  0
LINE
  8
0
 10
-4.079
 11
-1.379
 20
0.413
 21
0.934
  0
LINE
  8
0
 10
-1.379
 11
1.379
 20
0.934
 21
0.934
  0
LINE
  8
0
 10
1.379
 11
4.079
 20
0.934
 21
0.413
  0
LINE
  8
0
 10
4.079
 11
6.6
 20
0.413
 21
-0.608
  0
LINE
  8
0
 10
6.6
 11
8.833
 20
-0.608
 21
-2.082
  0
LINE
  8
0
 10
8.833
 11
10.679
 20
-2.082
 21
-3.947
  0
LINE
  8
0
 10
10.679
 11
12.059
 20
-3.947
 21
-6.119
  0
LINE
  8
0
 10
12.059
 11
12.912
 20
-6.119
 21
-8.505
  0
LINE
  8
0
 10
12.912
 11
13.2
 20
-8.505
 21
-11
  0
LINE
  8
0
 10
13.2
 11
13.105
 20
-11
 21
-11.407
  0
LINE
  8
0
 10
13.105
 11
12.836
 20
-11.407
 21
-11.743
  0
LINE
  8
0
 10
12.836
 11
12.44
 20
-11.743
 21
-11.951
  0
LINE
  8
0
 10
12.44
 11
11.984
 20
-11.951
 21
-11.995
  0
LINE
  8
0
 10
11.984
 11
11.55
 20
-11.995
 21
-11.866
  0
LINE
  8
0
 10
11.55
 11
11.21
 20
-11.866
 21
-11.588
  0
LINE
  8
0
 10
11.21
 11
11.024
 20
-11.588
 21
-11.208
  0
LINE
  8
0
 10
11.024
 11
11.024
 20
-11.208
 21
-11
  0
LINE
  8
0
 10
11.024
 11
11
 20
-11
 21
-11
  0
LINE
  8
0
 10
11
 11
10.759
 20
-11
 21
-8.921
  0
LINE
  8
0
 10
10.759
 11
10.048
 20
-8.921
 21
-6.933
  0
LINE
  8
0
 10
10.048
 11
8.899
 20
-6.933
 21
-5.122
  0
LINE
  8
0
 10
8.899
 11
7.36
 20
-5.122
 21
-3.569
  0
LINE
  8
0
 10
7.36
 11
5.5
 20
-3.569
 21
-2.34
  0
LINE
  8
0
 10
5.5
 11
3.399
 20
-2.34
 21
-1.489
  0
LINE
  8
0
 10
3.399
 11
1.15
 20
-1.489
 21
-1.055
  0
LINE
  8
0
 10
1.15
 11
-1.15
 20
-1.055
 21
-1.055
  0
LINE
  8
0
 10
-1.15
 11
-3.399
 20
-1.055
 21
-1.489
  0
LINE
  8
0
 10
-3.399
 11
-5.5
 20
-1.489
 21
-2.34
  0
LINE
  8
0
 10
-5.5
 11
-7.36
 20
-2.34
 21
-3.569
  0
LINE
  8
0
 10
-7.36
 11
-8.899
 20
-3.569
 21
-5.122
  0
LINE
  8
0
 10
-8.899
 11
-10.048
 20
-5.122
 21
-6.933
  0
LINE
  8
0
 10
-10.048
 11
-10.759
 20
-6.933
 21
-8.921
  0
LINE
  8
0
 10
-10.759
 11
-11
 20
-8.921
 21
-11
  0
LINE
  8
0
 10
-11
 11
-11.095
 20
-11
 21
-11.407
  0
LINE
  8
0
 10
-11.095
 11
-11.364
 20
-11.407
 21
-11.743
  0
LINE
  8
0
 10
-11.364
 11
-11.76
 20
-11.743
 21
-11.951
  0
LINE
  8
0
 10
-11.76
 11
-12.215
 20
-11.951
 21
-11.995
  0
LINE
  8
0
 10
-12.215
 11
-12.65
 20
-11.995
 21
-11.866
  0
LINE
  8
0
 10
-12.65
 11
-12.99
 20
-11.866
 21
-11.588
  0
LINE
  8
0
 10
-12.99
 11
-13.176
 20
-11.588
 21
-11.208
  0
LINE
  8
0
 10
-13.176
 11
-13.176
 20
-11.208
 21
-11
  0
LINE
  8
0
 10
-13.176
 11
-13.2
 20
-11
 21
-11
  0
LINE
  8
0
 10
-6.67
 11
-6.67
 20
6.239
 21
7.903
  0
LINE
  8
0
 10
-6.67
 11
-6.332
 20
7.903
 21
9.423
  0
LINE
  8
0
 10
-6.332
 11
-5.714
 20
9.423
 21
10.535
  0
LINE
  8
0
 10
-5.714
 11
-4.923
 20
10.535
 21
11.049
  0
LINE
  8
0
 10
-4.923
 11
-4.096
 20
11.049
 21
10.875
  0
LINE
  8
0
 10
-4.096
 11
-3.376
 20
10.875
 21
10.043
  0
LINE
  8
0
 10
-3.376
 11
-2.887
 20
10.043
 21
8.697
  0
LINE
  8
0
 10
-2.887
 11
-2.714
 20
8.697
 21
7.071
  0
LINE
  8
0
 10
-2.714
 11
-2.887
 20
7.071
 21
5.445
  0
LINE
  8
0
 10
-2.887
 11
-3.376
 20
5.445
 21
4.099
  0
LINE
  8
0
 10
-3.376
 11
-4.096
 20
4.099
 21
3.267
  0
LINE
  8
0
 10
-4.096
 11
-4.923
 20
3.267
 21
3.093
  0
LINE
  8
0
 10
-4.923
 11
-5.714
 20
3.093
 21
3.607
  0
LINE
  8
0
 10
-5.714
 11
-6.332
 20
3.607
 21
4.719
  0
LINE
  8
0
 10
-6.332
 11
-6.67
 20
4.719
 21
6.239
  0
LINE
  8
0
 10
2.758
 11
2.758
 20
6.239
 21
7.903
  0
LINE
  8
0
 10
2.758
 11
3.096
 20
7.903
 21
9.423
  0
LINE
  8
0
 10
3.096
 11
3.714
 20
9.423
 21
10.535
  0
LINE
  8
0
 10
3.714
 11
4.505
 20
10.535
 21
11.049
  0
LINE
  8
0
 10
4.505
 11
5.332
 20
11.049
 21
10.875
  0
LINE
  8
0
 10
5.332
 11
6.052
 20
10.875
 21
10.043
  0
LINE
  8
0
 10
6.052
 11
6.541
 20
10.043
 21
8.697
  0
LINE
  8
0
 10
6.541
 11
6.714
 20
8.697
 21
7.071
  0
LINE
  8
0
 10
6.714
 11
6.541
 20
7.071
 21
5.445
  0
LINE
  8
0
 10
6.541
 11
6.052
 20
5.445
 21
4.099
  0
LINE
  8
0
 10
6.052
 11
5.332
 20
4.099
 21
3.267
  0
LINE
  8
0
 10
5.332
 11
4.505
 20
3.267
 21
3.093
  0
LINE
  8
0
 10
4.505
 11
3.714
 20
3.093
 21
3.607
  0
LINE
  8
0
 10
3.714
 11
3.096
 20
3.607
 21
4.719
  0
LINE
  8
0
 10
3.096
 11
2.758
 20
4.719
 21
6.239
  0
ENDSEC
  0
SECTION
  2
OBJECTS
  0
DICTIONARY
  0
ENDSEC
  0
EOF
