  0
SECTION
  2
BLOCKS
  0
ENDSEC
  0
SECTION
  2
ENTITIES
  0
LINE
  8
0
 10
-20
 11
-19.563
 20
0
 21
4.158
  0
LINE
  8
0
 10
-19.563
 11
-18.271
 20
4.158
 21
8.135
  0
LINE
  8
0
 10
-18.271
 11
-16.18
 20
8.135
 21
11.756
  0
LINE
  8
0
 10
-16.18
 11
-13.383
 20
11.756
 21
14.863
  0
LINE
  8
0
 10
-13.383
 11
-10
 20
14.863
 21
17.321
  0
LINE
  8
0
 10
-10
 11
-6.18
 20
17.321
 21
19.021
  0
LINE
  8
0
 10
-6.18
 11
-2.091
 20
19.021
 21
19.89
  0
LINE
  8
0
 10
-2.091
 11
2.091
 20
19.89
 21
19.89
  0
LINE
  8
0
 10
2.091
 11
6.18
 20
19.89
 21
19.021
  0
LINE
  8
0
 10
6.18
 11
10
 20
19.021
 21
17.321
  0
LINE
  8
0
 10
10
 11
13.383
 20
17.321
 21
14.863
  0
LINE
  8
0
 10
13.383
 11
16.18
 20
14.863
 21
11.756
  0
LINE
  8
0
 10
16.18
 11
18.271
 20
11.756
 21
8.135
  0
LINE
  8
0
 10
18.271
 11
19.563
 20
8.135
 21
4.158
  0
LINE
  8
0
 10
19.563
 11
20
 20
4.158
 21
0
  0
LINE
  8
0
 10
20
 11
19.563
 20
0
 21
-4.158
  0
LINE
  8
0
 10
19.563
 11
18.271
 20
-4.158
 21
-8.135
  0
LINE
  8
0
 10
18.271
 11
16.18
 20
-8.135
 21
-11.756
  0
LINE
  8
0
 10
16.18
 11
13.383
 20
-11.756
 21
-14.863
  0
LINE
  8
0
 10
13.383
 11
10
 20
-14.863
 21
-17.321
  0
LINE
  8
0
 10
10
 11
6.18
 20
-17.321
 21
-19.021
  0
LINE
  8
0
 10
6.18
 11
2.091
 20
-19.021
 21
-19.89
  0
LINE
  8
0
 10
2.091
 11
-2.091
 20
-19.89
 21
-19.89
  0
LINE
  8
0
 10
-2.091
 11
-6.18
 20
-19.89
 21
-19.021
  0
LINE
  8
0
 10
-6.18
 11
-10
 20
-19.021
 21
-17.321
  0
LINE
  8
0
 10
-10
 11
-13.383
 20
-17.321
 21
-14.863
  0
LINE
  8
0
 10
-13.383
 11
-16.18
 20
-14.863
 21
-11.756
  0
LINE
  8
0
 10
-16.18
 11
-18.271
 20
-11.756
 21
-8.135
  0
LINE
  8
0
 10
-18.271
 11
-19.563
 20
-8.135
 21
-4.158
  0
LINE
  8
0
 10
-19.563
 11
-20
 20
-4.158
 21
0
  0
LINE
  8
0
 10
-13.2
 11
-13.176
 20
-3
 21
-3
  0
LINE
  8
0
 10
-13.176
 11
-13.176
 20
-3
 21
-2.792
  0
LINE
  8
0
 10
-13.176
 11
-12.99
 20
-2.792
 21
-2.412
  0
LINE
  8
0
 10
-12.99
 11
-12.65
 20
-2.412
 21
-2.134
  0
LINE
  8
0
 10
-12.65
 11
-12.215
 20
-2.134
 21
-2.005
  0
LINE
  8
0
 10
-12.215
 11
-11.76
 20
-2.005
 21
-2.049
  0
LINE
  8
0
 10
-11.76
 11
-11.364
 20
-2.049
 21
-2.257
  0
LINE
  8
0
 10
-11.364
 11
-11.095
 20
-2.257
 21
-2.593
  0
LINE
  8
0
 10
-11.095
 11
-11
 20
-2.593
 21
-3
  0
LINE
  8
0
 10
-11
 11
-10.759
 20
-3
 21
-5.079
  0
LINE
  8
0
 10
-10.759
 11
-10.048
 20
-5.079
 21
-7.067
  0
LINE
  8
0
 10
-10.048
 11
-8.899
 20
-7.067
 21
-8.878
  0
LINE
  8
0
 10
-8.899
 11
-7.36
 20
-8.878
 21
-10.431
  0
LINE
  8
0
 10
-7.36
 11
-5.5
 20
-10.431
 21
-11.66
  0
LINE
  8
0
 10
-5.5
 11
-3.399
 20
-11.66
 21
-12.511
  0
LINE
  8
0
 10
-3.399
 11
-1.15
 20
-12.511
 21
-12.945
  0
LINE
  8
0
 10
-1.15
 11
1.15
 20
-12.945
 21
-12.945
  0
LINE
  8
0
 10
1.15
 11
3.399
 20
-12.945
 21
-12.511
  0
LINE
  8
0
 10
3.399
 11
5.5
 20
-12.511
 21
-11.66
  0
LINE
  8
0
 10
5.5
 11
7.36
 20
-11.66
 21
-10.431
  0
LINE
  8
0
 10
7.36
 11
8.899
 20
-10.431
 21
-8.878
  0
LINE
  8
0
 10
8.899
 11
10.048
 20
-8.878
 21
-7.067
  0
LINE
  8
0
 10
10.048
 11
10.759
 20
-7.067
 21
-5.079
  0
LINE
  8
0
 10
10.759
 11
11
 20
-5.079
 21
-3
  0
LINE
  8
0
 10
11
 11
11.024
 20
-3
 21
-3
  0
LINE
  8
0
 10
11.024
 11
11.024
 20
-3
 21
-2.792
  0
LINE
  8
0
 10
11.024
 11
11.21
 20
-2.792
 21
-2.412
  0
LINE
  8
0
 10
11.21
 11
11.55
 20
-2.412
 21
-2.134
  0
LINE
  8
0
 10
11.55
 11
11.984
 20
-2.134
 21
-2.005
  0
LINE
  8
0
 10
11.984
 11
12.44
 20
-2.005
 21
-2.049
  0
LINE
  8
0
 10
12.44
 11
12.836
 20
-2.049
 21
-2.257
  0
LINE
  8
0
 10
12.836
 11
13.105
 20
-2.257
 21
-2.593
  0
LINE
  8
0
 10
13.105
 11
13.2
 20
-2.593
 21
-3
  0
LINE
  8
0
 10
13.2
 11
12.912
 20
-3
 21
-5.495
  0
LINE
  8
0
 10
12.912
 11
12.059
 20
-5.495
 21
-7.881
  0
LINE
  8
0
 10
12.059
 11
10.679
 20
-7.881
 21
-10.053
  0
LINE
  8
0
 10
10.679
 11
8.833
 20
-10.053
 21
-11.918
  0
LINE
  8
0
 10
8.833
 11
6.6
 20
-11.918
 21
-13.392
  0
LINE
  8
0
 10
6.6
 11
4.079
 20
-13.392
 21
-14.413
  0
LINE
  8
0
 10
4.079
 11
1.379
 20
-14.413
 21
-14.934
  0
LINE
  8
0
 10
1.379
 11
-1.379
 20
-14.934
 21
-14.934
  0
LINE
  8
0
 10
-1.379
 11
-4.079
 20
-14.934
 21
-14.413
  0
LINE
  8
0
 10
-4.079
 11
-6.6
 20
-14.413
 21
-13.392
  0
LINE
  8
0
 10
-6.6
 11
-8.833
 20
-13.392
 21
-11.918
  0
LINE
  8
0
 10
-8.833
 11
-10.679
 20
-11.918
 21
-10.053
  0
LINE
  8
0
 10
-10.679
 11
-12.059
 20
-10.053
 21
-7.881
  0
LINE
  8
0
 10
-12.059
 11
-12.912
 20
-7.881
 21
-5.495
  0
LINE
  8
0
 10
-12.912
 11
-13.2
 20
-5.495
 21
-3
  0
LINE
  8
0
 10
-8.626
 11
-8.626
 20
6.905
 21
7.237
  0
LINE
  8
0
 10
-8.626
 11
-7.95
 20
7.237
 21
7.541
  0
LINE
  8
0
 10
-7.95
 11
-6.714
 20
7.541
 21
7.763
  0
LINE
  8
0
 10
-6.714
 11
-5.132
 20
7.763
 21
7.867
  0
LINE
  8
0
 10
-5.132
 11
-3.478
 20
7.867
 21
7.831
  0
LINE
  8
0
 10
-3.478
 11
-2.038
 20
7.831
 21
7.665
  0
LINE
  8
0
 10
-2.038
 11
-1.06
 20
7.665
 21
7.397
  0
LINE
  8
0
 10
-1.06
 11
-0.714
 20
7.397
 21
7.071
  0
LINE
  8
0
 10
-0.714
 11
-1.06
 20
7.071
 21
6.745
  0
LINE
  8
0
 10
-1.06
 11
-2.038
 20
6.745
 21
6.477
  0
LINE
  8
0
 10
-2.038
 11
-3.478
 20
6.477
 21
6.311
  0
LINE
  8
0
 10
-3.478
 11
-5.132
 20
6.311
 21
6.275
  0
LINE
  8
0
 10
-5.132
 11
-6.714
 20
6.275
 21
6.379
  0
LINE
  8
0
 10
-6.714
 11
-7.95
 20
6.379
 21
6.601
  0
LINE
  8
0
 10
-7.95
 11
-8.626
 20
6.601
 21
6.905
  0
LINE
  8
0
 10
2.758
 11
2.758
 20
6.239
 21
7.903
  0
LINE
  8
0
 10
2.758
 11
3.096
 20
7.903
 21
9.423
  0
LINE
  8
0
 10
3.096
 11
3.714
 20
9.423
 21
10.535
  0
LINE
  8
0
 10
3.714
 11
4.505
 20
10.535
 21
11.049
  0
LINE
  8
0
 10
4.505
 11
5.332
 20
11.049
 21
10.875
  0
LINE
  8
0
 10
5.332
 11
6.052
 20
10.875
 21
10.043
  0
LINE
  8
0
 10
6.052
 11
6.541
 20
10.043
 21
8.697
  0
LINE
  8
0
 10
6.541
 11
6.714
 20
8.697
 21
7.071
  0
LINE
  8
0
 10
6.714
 11
6.541
 20
7.071
 21
5.445
  0
LINE
  8
0
 10
6.541
 11
6.052
 20
5.445
 21
4.099
  0
LINE
  8
0
 10
6.052
 11
5.332
 20
4.099
 21
3.267
  0
LINE
  8
0
 10
5.332
 11
4.505
 20
3.267
 21
3.093
  0
LINE
  8
0
 10
4.505
 11
3.714
 20
3.093
 21
3.607
  0
LINE
  8
0
 10
3.714
 11
3.096
 20
3.607
 21
4.719
  0
LINE
  8
0
 10
3.096
 11
2.758
 20
4.719
 21
6.239
  0
ENDSEC
  0
SECTION
  2
OBJECTS
  0
DICTIONARY
  0
ENDSEC
  0
EOF
