<?xml version="1.0" encoding="UTF-8"?>
<svg xmlns="http://www.w3.org/2000/svg" xmlns:xlink="http://www.w3.org/1999/xlink" width="380.000mm" height="165.000mm" viewBox="0.000000 0.000000 380.000000 165.000000">
    <rect transform="translate(190,40)" style="stroke:#000000;stroke-width:0.05mm;fill:none" x="-190" y="-40" width="380" height="80"/>
    <circle transform="translate(30,10)" style="stroke:#ff0000;stroke-width:0.05mm;fill:none" r="1.5" cx="0" cy="0"/>
    <circle transform="translate(30,70)" style="stroke:#ff0000;stroke-width:0.05mm;fill:none" r="1.5" cx="0" cy="0"/>
    <circle transform="translate(350,70)" style="stroke:#ff0000;stroke-width:0.05mm;fill:none" r="1.5" cx="0" cy="0"/>
    <circle transform="translate(350,10)" style="stroke:#ff0000;stroke-width:0.05mm;fill:none" r="1.5" cx="0" cy="0"/>
    <rect transform="translate(190,125)" style="stroke:#000000;stroke-width:0.05mm;fill:none" x="-190" y="-40" width="380" height="80"/>
    <circle transform="translate(30,95)" style="stroke:#ff0000;stroke-width:0.05mm;fill:none" r="1.5" cx="0" cy="0"/>
    <circle transform="translate(30,155)" style="stroke:#ff0000;stroke-width:0.05mm;fill:none" r="1.5" cx="0" cy="0"/>
    <circle transform="translate(350,155)" style="stroke:#ff0000;stroke-width:0.05mm;fill:none" r="1.5" cx="0" cy="0"/>
    <circle transform="translate(350,95)" style="stroke:#ff0000;stroke-width:0.05mm;fill:none" r="1.5" cx="0" cy="0"/>
    <rect transform="translate(231.599991,125)" style="stroke:#ff0000;stroke-width:0.05mm;fill:none" x="-11.599995" y="-12.350001" width="23.199989" height="24.700003"/>
    <rect transform="translate(163.400009,125.000008)" style="stroke:#ff0000;stroke-width:0.05mm;fill:none" x="-23.400005" y="-12.350002" width="46.800011" height="24.700005"/>
    <path style="stroke:none;fill:#0000ff;fill-rule:evenodd" d="M218.528381,34.92104C219.816986,35.018753,221.075363,35.301231,222.247986,35.756001C223.2836,36.138603,224.287491,36.577965,225.253021,37.071186C225.945953,37.777054,226.343719,38.651043,226.386383,39.56142C226.420868,40.251484,226.426941,40.942322,226.404602,41.63271L226.478012,41.63271L226.834564,41.10268C227.450775,40.187439,228.233185,39.356697,229.154129,38.63979C230.013672,37.963345,231.089081,37.506191,232.251984,37.322895C233.508148,37.164307,234.791138,37.238342,236.008896,37.539692C237.279083,37.883766,238.477829,38.388649,239.562851,39.036518C240.960846,39.860752,242.26358,40.791271,243.454254,41.816059C244.78476,43.084373,245.880783,44.510239,246.706299,46.046772C247.56282,47.682377,247.929123,49.466831,247.77359,51.245991C247.667923,54.450729,246.158005,57.513733,243.527985,59.85854C242.196411,60.903976,240.505463,61.578083,238.691177,61.786762C235.773697,62.156178,232.79097,61.706863,230.214951,60.509907C229.21698,60.058586,228.269684,59.533875,227.384354,58.942036L227.433395,61.263569L227.433395,61.670795L227.310928,65.010635L227.506821,68.818497C227.530029,69.411934,227.413498,70.003433,227.163788,70.559708C226.97171,70.979446,226.6073,71.329269,226.134979,71.547256C224.585388,72.040405,222.976059,72.392471,221.33519,72.597305C220.325974,72.711655,219.302368,72.704834,218.295486,72.577042C217.110413,72.38987,216.151108,71.665451,215.813492,70.702774C215.286713,69.083092,215.012894,67.413788,214.998795,65.735977C214.959991,64.334106,214.979675,62.931362,215.057831,61.530659L215.117447,59.765522C215.225525,56.41114,215.28067,53.052528,215.282791,49.696918L214.792923,40.981098C214.759888,39.814716,214.909668,38.649769,215.238449,37.515522C215.43634,36.82999,215.808243,36.187531,216.329224,35.631245C216.556091,35.401154,216.822617,35.200169,217.120132,35.034809L218.173599,34.912739L218.528381,34.92104zM232.096619,44.736225L231.737152,44.760151C230.291458,44.921322,228.916107,45.376663,227.732956,46.085835C227.35051,46.304146,226.980743,46.537388,226.624863,46.784809C226.654907,48.753021,226.776474,50.719402,226.989334,52.679829C227.014099,53.116955,227.11615,53.548889,227.29213,53.961323C227.310684,54.017853,227.364838,54.061493,227.433395,54.075092C227.904495,54.6679,228.561768,55.14201,229.334167,55.446186C230.295807,55.858002,231.322815,56.153973,232.384735,56.325336C233.49678,56.459419,234.626053,56.458603,235.737823,56.322895C236.585358,56.22168,237.347687,55.839378,237.850632,55.263325C238.037277,55.031483,238.17807,54.776306,238.26767,54.507465C238.740814,53.216217,238.932678,51.865067,238.834198,50.517719C238.809509,49.515591,238.570023,48.525146,238.126999,47.592915C237.575851,46.437378,236.47023,45.524578,235.076416,45.07436C234.225281,44.861938,233.343658,44.745502,232.455231,44.728168L232.096619,44.736225z"/>
    <path style="stroke:none;fill:#0000ff;fill-rule:evenodd" d="M142.108109,27.182026L142.411499,27.256001C142.928406,27.38224,143.275558,27.785862,143.252045,28.233295C143.415085,28.572533,143.500122,28.933912,143.502853,29.299213C143.621002,30.927738,143.553452,32.561665,143.301086,34.179585L146.387787,34.016743C147.380264,33.988438,148.372711,34.077641,149.334976,34.281635C149.751572,34.361885,150.131805,34.540409,150.429565,34.795551C150.606705,34.962753,150.702789,35.17873,150.699173,35.401508C150.814087,35.530781,150.872452,35.688904,150.864517,35.849506C150.997528,36.66058,150.998016,37.48315,150.865997,38.294331C150.788971,39.298508,150.57959,40.292736,150.241608,41.25893C150.1185,41.657204,149.878448,42.024181,149.543198,42.326557C149.445938,42.405113,149.330963,42.466927,149.204865,42.508442C148.904755,42.573845,148.592102,42.589439,148.284729,42.55434C146.899536,42.421597,145.533371,42.176033,144.205948,41.821186L143.301086,41.592182L143.301086,41.653217L143.105194,50.083881C143.066925,50.934521,143.189621,51.784908,143.468781,52.603901C143.573288,52.900021,143.768753,53.168434,144.035904,53.38271C144.818665,53.743591,145.711975,53.904507,146.604233,53.845356C148.128555,53.76442,149.649338,53.644089,151.164673,53.484516L151.433411,53.495502C152.046692,53.509182,152.564926,53.880882,152.671021,54.383198C152.846039,55.20697,152.803741,56.052376,152.547073,56.861225C152.138123,58.176003,151.506531,59.435837,150.671265,60.602924L150.380814,61.019184C149.343353,61.549152,148.211716,61.939629,147.02774,62.176167C146.53244,62.285759,146.032959,62.382092,145.530212,62.464985L143.986847,62.628071C141.986603,62.609055,140.026276,62.159538,138.29718,61.323383C137.091614,60.752556,135.967896,60.069801,134.947617,59.288227C133.218414,57.462204,132.115387,55.2813,131.755493,52.976704C131.582565,51.917004,131.511368,50.847553,131.542572,49.778461C131.579468,46.944038,131.95697,44.119812,132.669464,41.347797L131.945511,41.273579C130.666794,41.163116,129.40625,40.936989,128.186554,40.599262C127.779449,40.487091,127.399841,40.31509,127.065826,40.09145C126.841743,39.947861,126.705078,39.729477,126.692245,39.494526C126.505692,38.99353,126.414719,38.471325,126.422638,37.946918C126.382278,37.310429,126.421547,36.672115,126.539825,36.042377C126.606949,35.58976,126.843109,35.165958,127.215019,34.830708C127.333862,34.736599,127.472031,34.660938,127.622955,34.607319L129.362198,34.403706L133.624832,34.485004C133.852783,34.509712,134.083099,34.451744,134.256271,34.326069C134.32663,34.256821,134.363464,34.168362,134.35965,34.077778L134.395782,33.419331C134.440552,32.166,134.59198,30.916847,134.848938,29.681293C134.907349,29.385242,135.021011,29.098585,135.185806,28.831684C135.234802,28.726225,135.351273,28.652189,135.486542,28.640522C136.844101,28.083406,138.269928,27.64924,139.739197,27.3456C140.40004,27.210936,141.077362,27.139828,141.757736,27.133686L142.108109,27.182026z"/>
    <path style="stroke:none;fill:#0000ff;fill-rule:evenodd" d="M43.586975,23.39101C44.165985,23.407639,44.74411,23.442009,45.320053,23.494038C47.808395,23.740063,50.283188,24.071133,52.738693,24.486469C53.396942,24.625561,53.974564,24.954853,54.367798,25.41518L54.502609,25.606342L63.345947,42.019672C63.52301,42.352165,63.817909,42.631889,64.191193,42.82143C64.361137,42.912437,64.586639,42.886951,64.721306,42.761616C65.200348,42.365082,65.613251,41.916897,65.948936,41.429096C66.933815,40.095459,67.855194,38.72998,68.710808,37.336079L69.336082,36.377827C71.394737,33.170383,73.589493,30.024113,75.915649,26.945698C76.163361,26.625872,76.415642,26.308271,76.672195,25.993305C76.714828,25.89496,76.811859,25.820169,76.932999,25.792133C77.712753,25.561626,78.52079,25.403776,79.342438,25.32143C82.001495,24.994267,84.673187,24.742893,87.352875,24.567768L88.185783,24.567768C88.552261,24.576483,88.903473,24.691849,89.178162,24.893696C89.41021,25.103636,89.529587,25.383043,89.508858,25.667622C89.859642,27.244238,90.087914,28.837883,90.192284,30.438862C90.518936,35.000034,90.68502,39.567337,90.690384,44.136372C90.703232,45.584328,90.709541,47.026981,90.709175,48.474995L90.954117,60.469379C90.977615,60.834023,90.906609,61.198624,90.745888,61.538471C90.646477,61.753197,90.397987,61.894814,90.121208,61.894917C90.061157,61.967388,89.964867,62.012405,89.859238,62.017963C89.17836,62.123283,88.486427,62.170727,87.793999,62.159565L87.573433,62.2206L87.181648,62.159565L86.789574,62.159565C84.120293,62.129776,81.462585,61.863213,78.861374,61.364399L77.603195,61.120991L77.416412,61.087055C76.911827,60.955528,76.515854,60.627716,76.355301,60.208881C76.138107,59.676804,76.038033,59.116653,76.059853,58.555073L75.471878,49.269184C75.421852,48.940884,75.297173,48.623451,75.104469,48.333881C75.045128,48.268185,74.936745,48.249199,74.850426,48.289204C74.487335,48.43586,74.169342,48.649055,73.920013,48.912983C72.874054,49.971737,71.930923,51.097794,71.099403,52.280659C70.852425,52.599159,70.622894,52.926823,70.411575,53.262592L70.14843,53.634663C69.924347,53.974022,69.63942,54.283062,69.303482,54.551167C69.173225,54.617775,69.031845,54.667255,68.883499,54.698139C67.82235,54.868015,66.745926,54.963158,65.665527,54.982563C64.359726,55.073189,63.047134,55.075317,61.740921,54.988911C61.277969,54.96804,60.822021,54.885529,60.390533,54.744526C60.200012,54.700867,60.060349,54.564339,60.038986,54.40102C58.699066,53.111679,57.439896,51.765797,56.266525,50.368793L55.889709,49.986958C55.531448,49.615173,55.129349,49.274113,54.689392,48.968891C54.478088,48.796722,54.184311,48.712524,53.890259,48.739887C53.771759,48.787495,53.69487,48.886135,53.691132,48.995502C53.505035,49.801922,53.407623,50.620686,53.400085,51.441792C53.378143,51.905243,53.361877,52.369164,53.351334,52.832905L53.424759,57.985004C53.449722,58.656387,53.379837,59.327896,53.216537,59.985737C53.176056,60.23243,53.022125,60.456573,52.787155,60.610981C52.727386,60.638443,52.660141,60.652592,52.591858,60.652729C52.426132,60.811924,52.203552,60.923004,51.956604,60.969624C50.959534,61.202766,49.938461,61.357655,48.906616,61.43227C47.679871,61.542793,46.449783,61.629173,45.21814,61.691303C43.872772,61.71999,42.526627,61.670475,41.189575,61.54311C40.74971,61.510162,40.320099,61.41293,39.920822,61.256001C39.749023,61.200241,39.628357,61.069794,39.608337,60.917377L39.461502,58.840229C39.479004,55.994045,39.585144,53.149296,39.779861,50.307758L39.706436,49.839497C39.884048,43.108803,40.149979,36.38541,40.504684,29.659809C40.577911,27.972301,40.72377,26.287601,40.942001,24.608784C40.959198,24.400599,41.015991,24.19598,41.110275,24.002583L41.151688,23.977192L41.334366,23.839008C41.888474,23.514956,42.557495,23.355713,43.233963,23.38686L43.586975,23.39101z"/>
    <path style="stroke:none;fill:#0000ff;fill-rule:evenodd" d="M198.465439,36.569477C200.892792,36.67749,203.251968,37.276115,205.338104,38.313374L207.689697,40.003803C208.834045,41.160961,209.650024,42.517498,210.077118,43.972797C210.319595,44.877476,210.50293,45.792351,210.626312,46.71352C211.016083,49.393524,211.161469,52.09417,211.061279,54.792377C210.916977,56.410294,210.175858,57.951939,208.939056,59.206928C207.624359,60.20932,206.072495,60.97266,204.382736,61.448139C203.506989,61.663052,202.614929,61.828865,201.712494,61.944477C201.057755,62.04982,200.394562,62.114937,199.728317,62.139301C198.951416,62.160332,198.173859,62.154385,197.397583,62.121479C195.478622,61.975868,193.578857,61.68959,191.72052,61.26601C191.310242,61.17971,190.901398,61.090759,190.492889,60.99892C188.90921,60.41349,187.458618,59.6068,186.203232,58.613422C185.683853,58.034927,185.31041,57.375351,185.105118,56.673969C184.812103,55.794422,184.606796,54.896267,184.491302,53.988667C184.242828,52.126968,184.20076,50.250305,184.365601,48.382221C184.512985,46.066433,184.990952,43.773407,185.789429,41.551411C186.342026,40.427662,187.145294,39.400902,188.156876,38.525288C188.839188,37.953911,189.679321,37.529869,190.603912,37.29018C192.241821,36.798592,193.969498,36.545448,195.710907,36.541889C196.62915,36.527821,197.547882,36.537022,198.465439,36.569477zM197.156158,44.605854L196.773773,44.616596C195.768997,44.633678,194.825516,45.023903,194.203094,45.679829C193.771133,46.177155,193.482346,46.75034,193.359024,47.355122C192.979553,48.772308,192.885971,50.231766,193.082077,51.674458C193.168625,52.358326,193.485596,53.008293,193.996338,53.549213C194.407333,53.950092,194.953232,54.239616,195.563766,54.380512C196.348587,54.743446,197.238556,54.919655,198.13591,54.88979C198.951157,54.940899,199.766129,54.785538,200.473114,54.444233C200.844345,54.255051,201.179504,54.020866,201.467545,53.749409C201.975815,52.670643,202.245422,51.524567,202.263458,50.366108C202.344406,49.212246,202.223816,48.054703,201.905441,46.929585C201.753204,46.383884,201.441727,45.877689,200.99852,45.455708C200.724899,45.209621,200.372314,45.033768,199.982361,44.948872C199.08046,44.668705,198.11676,44.551743,197.156158,44.605854z"/>
    <path style="stroke:none;fill:#0000ff;fill-rule:evenodd" d="M261.906616,23.165668C262.585724,23.151539,263.26297,23.231159,263.910767,23.401264C264.167267,23.456764,264.372925,23.616215,264.457306,23.825092L264.46875,23.916157L264.575958,24.04726C264.670807,24.20203,264.71814,24.373844,264.713684,24.547504L264.570374,25.760395C264.270599,28.32185,264.114105,30.893408,264.101349,33.466938C264.044647,35.122406,264.020142,36.779564,264.027924,38.435688C264.066376,42.499569,264.194427,46.560638,264.412079,50.620502C264.441742,51.508263,264.544373,52.393322,264.719299,53.269428C264.717987,53.362297,264.770752,53.450096,264.86084,53.505024C265.169464,53.729179,265.527008,53.901978,265.914001,54.014057L269.515259,53.341938C270.151947,53.323456,270.725739,53.661278,270.916168,54.166645C271.009949,54.373539,271.074097,54.58889,271.107361,54.808247C271.442841,55.619755,271.592468,56.476082,271.548492,57.333393C271.579315,58.157288,271.415039,58.978394,271.065063,59.749653C270.597687,60.7617,269.553406,61.513718,268.281769,61.754047C267.731323,61.86512,267.166504,61.919235,266.600098,61.91518C263.293945,61.771381,259.995026,61.525349,256.710907,61.177631C256.036438,61.111301,255.369995,60.996937,254.719086,60.835835C253.757736,60.434284,253.111023,59.650314,253.006866,58.760151L252.979858,58.35146L252.926102,58.072407C252.59845,56.000114,252.364487,53.918098,252.224762,51.831196C251.807953,46.284561,251.479752,40.731194,251.240601,35.177387C250.967789,32.617683,250.77475,30.052277,250.661743,27.484272C250.620621,26.898022,250.645691,26.309797,250.736633,25.727436C250.830872,25.185486,251.169724,24.693291,251.684082,24.351215C252.09639,24.114904,252.570282,23.963287,253.066772,23.908833C254.902557,23.643572,256.754333,23.462481,258.614014,23.366352L261.553589,23.162739L261.906616,23.165668z"/>
    <path style="stroke:none;fill:#0000ff;fill-rule:evenodd" d="M163.408081,35.020161L163.616302,35.037495C164.413834,35.080654,165.031067,35.638874,165.015747,36.30312L165.023087,36.48061L165.114716,36.850239C165.343079,38.1367,165.443466,39.436539,165.414871,40.736713L165.414871,41.551411L165.463928,41.551411L165.934113,40.793354C166.825012,39.327263,167.899124,37.943123,169.13858,36.66396C169.663055,36.508038,170.216599,36.430504,170.77356,36.434956C173.073685,36.360771,175.376389,36.497742,177.640366,36.843403C178.137177,36.929317,178.627502,37.039371,179.108826,37.172993C180.038864,37.976521,180.711594,38.961182,181.065399,40.036762C181.348679,40.822769,181.526382,41.632549,181.595215,42.451069C181.671326,43.200912,181.549728,43.955723,181.238968,44.662495C180.837189,45.509026,180.016357,46.171093,178.986359,46.479389C176.946243,47.135406,174.71254,47.250435,172.590637,46.808735C172.25705,46.744129,171.958786,46.58897,171.743042,46.367817C171.673553,46.280071,171.636749,46.177219,171.637314,46.072163L171.514557,45.420551L171.563599,44.972553C171.606934,44.492176,171.525391,44.009621,171.324539,43.557758C171.130432,43.159389,170.628235,42.926006,170.118347,42.997211C169.479645,42.978733,168.847458,43.109226,168.29335,43.37392C167.786499,43.642307,167.395996,44.038269,167.178787,44.504047L166.982895,45.624165L167.05632,49.045307L168.434906,56.662251C168.649475,57.79369,168.732971,58.939678,168.68425,60.08437C168.606537,60.395187,168.372375,60.663536,168.041061,60.82143C167.43335,61.113739,166.765701,61.309502,166.071869,61.398823C165.805222,61.441513,165.537155,61.477909,165.268036,61.507954C164.656311,61.538811,164.043518,61.552406,163.430695,61.548725C161.781387,61.505161,160.138885,61.351917,158.518997,61.090473C157.944672,61.004925,157.390869,60.841763,156.879913,60.607563C156.692078,60.522804,156.534821,60.397751,156.424683,60.245502C156.232178,60.15509,156.097488,59.998463,156.056976,59.817768C155.831512,59.119926,155.708145,58.401993,155.689575,57.679585L155.76329,54.421284L155.717194,53.086567C155.566895,48.990372,155.528412,44.892532,155.601761,40.795063C155.606491,39.81134,155.723114,38.830105,155.950073,37.864643C155.999146,37.607578,156.125534,37.364952,156.31749,37.159321C156.376648,37.105427,156.459442,37.07365,156.54715,37.071186C157.375824,36.502739,158.322968,36.06575,159.341629,35.781879C160.402817,35.470055,161.491425,35.227142,162.597778,35.055317C162.865402,35.018101,163.137253,35.006306,163.408081,35.020161z"/>
    <path style="stroke:none;fill:#0000ff;fill-rule:evenodd" d="M330.860352,36.457905C333.06897,36.553303,335.271515,36.729084,337.46167,36.98476C337.844482,37.023918,338.219971,37.102566,338.579437,37.218891C338.647552,37.234756,338.700562,37.279293,338.718933,37.336079L338.792664,37.559956C338.63208,37.917934,338.419128,38.258156,338.158569,38.572895C336.907715,40.272694,335.616577,41.951069,334.285095,43.608051L333.896545,44.133198C332.994873,45.317627,332.158264,46.535423,331.389282,47.782856C331.231567,48.009003,331.125244,48.257591,331.075928,48.515766L339.723389,60.489643C339.744263,60.555977,339.730194,60.627075,339.68219,60.682777C339.634216,60.73848,339.557739,60.772438,339.475494,60.777973C338.653381,60.939461,337.812378,61.024601,336.967651,61.031879C335.535492,61.083275,334.101837,61.106239,332.668335,61.100727L328.773376,61.161762C328.005798,61.153889,327.271637,60.899712,326.724304,60.45229C326.00589,59.84417,325.44574,59.119873,325.07843,58.324116C324.934021,58.038582,324.80188,57.748833,324.682251,57.455463L322.943024,53.769672C322.843781,53.757862,322.747284,53.801994,322.705719,53.877827C322.461304,54.263237,322.274353,54.67186,322.148865,55.094868L322.012024,55.500629C321.433167,56.903942,320.750092,58.27607,319.966736,59.609028C319.728973,60.040016,319.410736,60.437256,319.023987,60.785786C318.914001,60.896545,318.7547,60.966034,318.582581,60.978413C318.092896,61.126534,317.576477,61.20348,317.055389,61.205952C316.487183,61.232567,315.918152,61.245018,315.34903,61.243305L311.257935,61.243305C310.08136,61.244675,308.906281,61.173355,307.742432,61.029926C307.534912,61.024048,307.33609,60.956551,307.182953,60.839985L307.167084,60.795307C307.567535,60.03001,308.027557,59.287235,308.544189,58.571674C309.497162,57.192249,310.454285,55.81847,311.419159,54.444965L311.761597,53.935444C312.967896,52.193176,314.059143,50.397514,315.030396,48.556538C314.963501,48.123089,314.80365,47.703091,314.558411,47.316547C313.378418,45.295967,312.01593,43.352695,310.482574,41.503315L309.802673,40.637836C309.0755,39.745022,308.401062,38.823238,307.781799,37.875874C307.715424,37.811192,307.687592,37.725121,307.706024,37.641499C307.782837,37.546646,307.90271,37.482742,308.038483,37.464252C309.14267,37.232716,310.266083,37.070244,311.399475,36.978168C313.364563,36.77644,315.335022,36.610531,317.308838,36.48061C317.902954,36.451649,318.493958,36.573818,319.002563,36.830708C319.24939,36.969112,319.450378,37.156925,319.587006,37.37685C320.951202,39.561993,322.137817,41.820599,323.138916,44.137592C323.189697,44.142372,323.235718,44.165237,323.264038,44.2006C323.292358,44.235962,323.299988,44.280056,323.286041,44.320942L323.335083,44.320942C323.605347,43.966988,323.818298,43.585129,323.968567,43.184956C324.153137,42.752373,324.325806,42.316231,324.486359,41.877094L325.071686,40.774555C325.695557,39.548706,326.37207,38.341919,327.099915,37.156391C327.1763,36.967644,327.362061,36.823685,327.593933,36.773579C328.282471,36.523464,329.026398,36.395969,329.777802,36.399311L330.860352,36.457905z"/>
    <path style="stroke:none;fill:#0000ff;fill-rule:evenodd" d="M111.148628,36.4706L111.766556,36.501118C114.664207,36.701572,117.431038,37.592518,119.734993,39.067036C121.020393,40.278328,121.87059,41.765354,122.188782,43.358784C122.470558,44.543701,122.530685,45.75774,122.367058,46.957905C122.299782,47.528492,122.006058,48.064621,121.532387,48.481342C121.391434,48.593075,121.231537,48.687012,121.057777,48.760151C117.167793,49.956024,113.08123,50.65168,108.938896,50.823139C107.484566,50.889542,106.027809,50.914619,104.571411,50.898335L104.497986,50.939106L104.497986,51.142719C104.992386,52.241066,105.914833,53.170227,107.118301,53.782124C107.866173,54.18375,108.711037,54.443695,109.593239,54.543598C110.999947,54.729446,112.43045,54.753429,113.845009,54.614887C115.319115,54.418629,116.721107,53.94873,117.946709,53.240131L118.438347,53.035297C119.113197,52.811642,119.842224,52.7257,120.565262,52.784565C121.094223,52.7994,121.614075,52.903309,122.093338,53.089985C122.661507,53.327171,123.057236,53.778244,123.155327,54.300434C123.352989,55.21339,123.430016,56.141632,123.384987,57.068501C123.400558,57.524841,123.33876,57.980732,123.201431,58.422749C123.130188,58.700691,122.932709,58.945137,122.650177,59.105122C120.416687,59.868736,118.069206,60.377327,115.671478,60.617085C114.172386,60.822823,112.655945,60.930016,111.136589,60.937641C108.181122,60.969017,105.246529,60.521645,102.496773,59.620502C101.633148,59.328781,100.795578,58.98637,99.990417,58.595844C97.031906,56.560951,95.113853,53.666977,94.625259,50.500874C94.319931,48.796448,94.359245,47.061481,94.741562,45.367817C95.395447,42.450222,97.601814,39.933773,100.742851,38.52309C102.148521,37.859844,103.662544,37.369537,105.237503,37.067524C107.161987,36.628853,109.15377,36.427711,111.148628,36.4706zM109.911606,41.999409L109.446396,41.999409C108.474976,41.974491,107.508385,42.124767,106.613449,42.439838C105.635849,42.804649,104.86795,43.472248,104.47332,44.300434L104.326477,45.013081C104.299454,45.403355,104.428658,45.790123,104.693878,46.112934C105.079285,46.486111,105.667793,46.668755,106.25309,46.596821C107.931427,46.504921,109.59481,46.276291,111.219414,45.914204C112.020676,45.749084,112.817795,45.57093,113.610649,45.37978C113.895706,45.272621,114.147263,45.112297,114.345757,44.911274C114.397049,44.465378,114.316574,44.01564,114.111389,43.60146C113.776016,43.04805,113.204048,42.6189,112.507545,42.39809C111.970528,42.187222,111.392792,42.056946,110.801193,42.013325C110.545891,42.000759,110.290077,41.996117,110.034363,41.999409L109.960648,41.958637L109.911606,41.999409z"/>
    <path style="stroke:none;fill:#0000ff;fill-rule:evenodd" d="M290.913025,36.4706C294.029053,36.577782,297.028809,37.484875,299.49939,39.067036C300.78479,40.278328,301.634979,41.76535,301.953186,43.358784C302.234955,44.543705,302.295105,45.757748,302.13147,46.957905C302.06427,47.528511,301.770508,48.064651,301.296783,48.481342C301.155823,48.593063,300.995941,48.687004,300.822174,48.760151C296.93219,49.956024,292.845642,50.651672,288.703308,50.823139C287.248901,50.889545,285.792267,50.914623,284.335815,50.898335L284.26239,50.939106L284.26239,51.142719C284.756775,52.241066,285.67923,53.170227,286.88269,53.782124C287.630554,54.183746,288.475433,54.443703,289.357635,54.543598C290.764343,54.729446,292.194824,54.753429,293.609406,54.614887C295.083496,54.418629,296.485504,53.948727,297.711121,53.240131L298.202759,53.035297C298.877594,52.811646,299.606628,52.725708,300.329651,52.784565C300.858612,52.799431,301.378479,52.90332,301.857727,53.089985C302.425903,53.327168,302.821655,53.77824,302.919739,54.300434C303.117432,55.21339,303.194458,56.141636,303.149384,57.068501C303.164948,57.524837,303.103149,57.980728,302.96582,58.422749C302.894562,58.700691,302.697144,58.94516,302.414581,59.105122C300.181091,59.868736,297.833618,60.377327,295.435883,60.617085C293.936798,60.822823,292.420349,60.930016,290.901001,60.937641C287.945526,60.969021,285.010925,60.521641,282.261169,59.620502C281.397552,59.328796,280.559967,58.986374,279.754822,58.595844C276.796356,56.560928,274.878296,53.666969,274.389648,50.500874C274.084351,48.79644,274.123657,47.061481,274.505951,45.367817C275.159882,42.45023,277.366241,39.933784,280.507263,38.52309C281.912933,37.859844,283.426941,37.369537,285.001892,37.067524C286.926392,36.628857,288.918152,36.427719,290.913025,36.4706zM289.6763,41.999409L289.210815,41.999409C288.23938,41.974495,287.272766,42.124767,286.377838,42.439838C285.400269,42.804665,284.632385,43.472256,284.237732,44.300434L284.090881,45.013081C284.063873,45.403351,284.193085,45.790112,284.458282,46.112934C284.843689,46.486122,285.43219,46.66877,286.017487,46.596821C287.695831,46.504925,289.359222,46.276295,290.983826,45.914204C291.785187,45.749027,292.582336,45.570896,293.375336,45.37978C293.660248,45.272533,293.911682,45.112213,294.110168,44.911274C294.161499,44.465378,294.081024,44.015633,293.875793,43.60146C293.540436,43.048038,292.968445,42.618881,292.271942,42.39809C291.734924,42.187206,291.157196,42.056931,290.565613,42.013325C290.310272,42.000759,290.054504,41.996117,289.798767,41.999409L289.725037,41.958637L289.6763,41.999409z"/>
</svg>
