solid OpenSCAD_Model
  facet normal 1 -0 0
    outer loop
      vertex 5 -5 100
      vertex 5 5 10
      vertex 5 5 100
    endloop
  endfacet
  facet normal 1 0 0
    outer loop
      vertex 5 5 10
      vertex 5 -5 100
      vertex 5 -5 10
    endloop
  endfacet
  facet normal -0 0 1
    outer loop
      vertex -5 5 100
      vertex 5 -5 100
      vertex 5 5 100
    endloop
  endfacet
  facet normal 0 0 1
    outer loop
      vertex 5 -5 100
      vertex -5 5 100
      vertex -5 -5 100
    endloop
  endfacet
  facet normal 0 0 -1
    outer loop
      vertex -100 -5 0
      vertex -5 5 0
      vertex -5 -5 0
    endloop
  endfacet
  facet normal -0 0 -1
    outer loop
      vertex -5 5 0
      vertex -100 -5 0
      vertex -100 5 0
    endloop
  endfacet
  facet normal 0 0 -1
    outer loop
      vertex -5 -5 0
      vertex 5 -5 0
      vertex 5 -100 0
    endloop
  endfacet
  facet normal 0 0 -1
    outer loop
      vertex 5 -5 0
      vertex -5 -5 0
      vertex 5 5 0
    endloop
  endfacet
  facet normal 0 0 -1
    outer loop
      vertex -5 -5 0
      vertex 5 -100 0
      vertex -5 -100 0
    endloop
  endfacet
  facet normal 0 0 -1
    outer loop
      vertex -5 5 0
      vertex 5 5 0
      vertex -5 -5 0
    endloop
  endfacet
  facet normal 0 0 -1
    outer loop
      vertex 5 5 0
      vertex -5 5 0
      vertex 5 100 0
    endloop
  endfacet
  facet normal -0 0 -1
    outer loop
      vertex 5 100 0
      vertex -5 5 0
      vertex -5 100 0
    endloop
  endfacet
  facet normal 0 0 -1
    outer loop
      vertex 5 -5 0
      vertex 100 5 0
      vertex 100 -5 0
    endloop
  endfacet
  facet normal -0 0 -1
    outer loop
      vertex 100 5 0
      vertex 5 -5 0
      vertex 5 5 0
    endloop
  endfacet
  facet normal -1 0 0
    outer loop
      vertex -5 -5 10
      vertex -5 5 100
      vertex -5 5 10
    endloop
  endfacet
  facet normal -1 -0 0
    outer loop
      vertex -5 5 100
      vertex -5 -5 10
      vertex -5 -5 100
    endloop
  endfacet
  facet normal 0 1 -0
    outer loop
      vertex 5 5 10
      vertex -5 5 100
      vertex 5 5 100
    endloop
  endfacet
  facet normal 0 1 0
    outer loop
      vertex -5 5 100
      vertex 5 5 10
      vertex -5 5 10
    endloop
  endfacet
  facet normal 0 1 -0
    outer loop
      vertex 100 5 0
      vertex 5 5 10
      vertex 100 5 10
    endloop
  endfacet
  facet normal 0 1 0
    outer loop
      vertex 5 5 10
      vertex 100 5 0
      vertex 5 5 0
    endloop
  endfacet
  facet normal 0 -1 0
    outer loop
      vertex -5 -5 10
      vertex 5 -5 100
      vertex -5 -5 100
    endloop
  endfacet
  facet normal 0 -1 -0
    outer loop
      vertex 5 -5 100
      vertex -5 -5 10
      vertex 5 -5 10
    endloop
  endfacet
  facet normal 0 -1 0
    outer loop
      vertex -100 -5 0
      vertex -5 -5 10
      vertex -100 -5 10
    endloop
  endfacet
  facet normal 0 -1 -0
    outer loop
      vertex -5 -5 10
      vertex -100 -5 0
      vertex -5 -5 0
    endloop
  endfacet
  facet normal 0 -1 0
    outer loop
      vertex 5 -5 0
      vertex 100 -5 10
      vertex 5 -5 10
    endloop
  endfacet
  facet normal 0 -1 -0
    outer loop
      vertex 100 -5 10
      vertex 5 -5 0
      vertex 100 -5 0
    endloop
  endfacet
  facet normal 1 -0 0
    outer loop
      vertex 100 -5 10
      vertex 100 5 0
      vertex 100 5 10
    endloop
  endfacet
  facet normal 1 0 0
    outer loop
      vertex 100 5 0
      vertex 100 -5 10
      vertex 100 -5 0
    endloop
  endfacet
  facet normal -0 0 1
    outer loop
      vertex 5 5 10
      vertex 100 -5 10
      vertex 100 5 10
    endloop
  endfacet
  facet normal 0 0 1
    outer loop
      vertex 100 -5 10
      vertex 5 5 10
      vertex 5 -5 10
    endloop
  endfacet
  facet normal 1 -0 0
    outer loop
      vertex 5 5 10
      vertex 5 100 0
      vertex 5 100 10
    endloop
  endfacet
  facet normal 1 0 0
    outer loop
      vertex 5 100 0
      vertex 5 5 10
      vertex 5 5 0
    endloop
  endfacet
  facet normal -0 0 1
    outer loop
      vertex -5 100 10
      vertex 5 5 10
      vertex 5 100 10
    endloop
  endfacet
  facet normal 0 0 1
    outer loop
      vertex 5 5 10
      vertex -5 100 10
      vertex -5 5 10
    endloop
  endfacet
  facet normal -1 0 0
    outer loop
      vertex -5 5 0
      vertex -5 100 10
      vertex -5 100 0
    endloop
  endfacet
  facet normal -1 -0 0
    outer loop
      vertex -5 100 10
      vertex -5 5 0
      vertex -5 5 10
    endloop
  endfacet
  facet normal 0 1 -0
    outer loop
      vertex 5 100 0
      vertex -5 100 10
      vertex 5 100 10
    endloop
  endfacet
  facet normal 0 1 0
    outer loop
      vertex -5 100 10
      vertex 5 100 0
      vertex -5 100 0
    endloop
  endfacet
  facet normal -0 0 1
    outer loop
      vertex -100 5 10
      vertex -5 -5 10
      vertex -5 5 10
    endloop
  endfacet
  facet normal 0 0 1
    outer loop
      vertex -5 -5 10
      vertex -100 5 10
      vertex -100 -5 10
    endloop
  endfacet
  facet normal -1 0 0
    outer loop
      vertex -100 -5 0
      vertex -100 5 10
      vertex -100 5 0
    endloop
  endfacet
  facet normal -1 -0 0
    outer loop
      vertex -100 5 10
      vertex -100 -5 0
      vertex -100 -5 10
    endloop
  endfacet
  facet normal 0 1 -0
    outer loop
      vertex -5 5 0
      vertex -100 5 10
      vertex -5 5 10
    endloop
  endfacet
  facet normal 0 1 0
    outer loop
      vertex -100 5 10
      vertex -5 5 0
      vertex -100 5 0
    endloop
  endfacet
  facet normal 1 -0 0
    outer loop
      vertex 5 -100 10
      vertex 5 -5 0
      vertex 5 -5 10
    endloop
  endfacet
  facet normal 1 0 0
    outer loop
      vertex 5 -5 0
      vertex 5 -100 10
      vertex 5 -100 0
    endloop
  endfacet
  facet normal -0 0 1
    outer loop
      vertex -5 -5 10
      vertex 5 -100 10
      vertex 5 -5 10
    endloop
  endfacet
  facet normal 0 0 1
    outer loop
      vertex 5 -100 10
      vertex -5 -5 10
      vertex -5 -100 10
    endloop
  endfacet
  facet normal -1 0 0
    outer loop
      vertex -5 -100 0
      vertex -5 -5 10
      vertex -5 -5 0
    endloop
  endfacet
  facet normal -1 -0 0
    outer loop
      vertex -5 -5 10
      vertex -5 -100 0
      vertex -5 -100 10
    endloop
  endfacet
  facet normal 0 -1 0
    outer loop
      vertex -5 -100 0
      vertex 5 -100 10
      vertex -5 -100 10
    endloop
  endfacet
  facet normal 0 -1 -0
    outer loop
      vertex 5 -100 10
      vertex -5 -100 0
      vertex 5 -100 0
    endloop
  endfacet
endsolid OpenSCAD_Model
