solid OpenSCAD_Model
  facet normal 1 -0 0
    outer loop
      vertex 68 0 3.9
      vertex 68 19.5 0
      vertex 68 19.5 3.9
    endloop
  endfacet
  facet normal 1 0 0
    outer loop
      vertex 68 19.5 0
      vertex 68 0 3.9
      vertex 68 0 0
    endloop
  endfacet
  facet normal 0 0 1
    outer loop
      vertex 23.5 25.5 3.9
      vertex 20 25.5 3.9
      vertex 23.5 22.5 3.9
    endloop
  endfacet
  facet normal 0 0 1
    outer loop
      vertex 43.5 22.5 3.9
      vertex 47 25.5 3.9
      vertex 43.5 25.5 3.9
    endloop
  endfacet
  facet normal -0 0 1
    outer loop
      vertex 47 19.5 3.9
      vertex 68 0 3.9
      vertex 68 19.5 3.9
    endloop
  endfacet
  facet normal 0 0 1
    outer loop
      vertex 47 25.5 3.9
      vertex 43.5 22.5 3.9
      vertex 47 19.5 3.9
    endloop
  endfacet
  facet normal 0 0 1
    outer loop
      vertex 37.8 5.5 3.9
      vertex 47 19.5 3.9
      vertex 43.5 22.5 3.9
    endloop
  endfacet
  facet normal 0 0 1
    outer loop
      vertex 47 19.5 3.9
      vertex 37.8 5.5 3.9
      vertex 68 0 3.9
    endloop
  endfacet
  facet normal -0 0 1
    outer loop
      vertex 37.8 1.8 3.9
      vertex 68 0 3.9
      vertex 37.8 5.5 3.9
    endloop
  endfacet
  facet normal -0 0 1
    outer loop
      vertex 30 1.8 3.9
      vertex 68 0 3.9
      vertex 37.8 1.8 3.9
    endloop
  endfacet
  facet normal 0 0 1
    outer loop
      vertex 23.5 22.5 3.9
      vertex 20 19.5 3.9
      vertex 30 5.5 3.9
    endloop
  endfacet
  facet normal 0 0 1
    outer loop
      vertex 0 0 3.9
      vertex 30 5.5 3.9
      vertex 20 19.5 3.9
    endloop
  endfacet
  facet normal 0 0 1
    outer loop
      vertex 0 0 3.9
      vertex 20 19.5 3.9
      vertex 0 19.5 3.9
    endloop
  endfacet
  facet normal 0 0 1
    outer loop
      vertex 30 1.8 3.9
      vertex 0 0 3.9
      vertex 68 0 3.9
    endloop
  endfacet
  facet normal 0 0 1
    outer loop
      vertex 30 5.5 3.9
      vertex 0 0 3.9
      vertex 30 1.8 3.9
    endloop
  endfacet
  facet normal 0 0 1
    outer loop
      vertex 43.5 22.5 3.9
      vertex 30 5.5 3.9
      vertex 37.8 5.5 3.9
    endloop
  endfacet
  facet normal 0 0 1
    outer loop
      vertex 20 19.5 3.9
      vertex 23.5 22.5 3.9
      vertex 20 25.5 3.9
    endloop
  endfacet
  facet normal -0 0 1
    outer loop
      vertex 23.5 22.5 3.9
      vertex 30 5.5 3.9
      vertex 43.5 22.5 3.9
    endloop
  endfacet
  facet normal 0 0 -1
    outer loop
      vertex 68 0 0
      vertex 47 19.5 0
      vertex 68 19.5 0
    endloop
  endfacet
  facet normal 0 0 -1
    outer loop
      vertex 68 0 0
      vertex 37.8 5.5 0
      vertex 47 19.5 0
    endloop
  endfacet
  facet normal 0 0 -1
    outer loop
      vertex 37.8 5.5 0
      vertex 68 0 0
      vertex 37.8 1.8 0
    endloop
  endfacet
  facet normal 0 0 -1
    outer loop
      vertex 68 0 0
      vertex 30 1.8 0
      vertex 37.8 1.8 0
    endloop
  endfacet
  facet normal 0 0 -1
    outer loop
      vertex 0 0 0
      vertex 30 5.5 0
      vertex 30 1.8 0
    endloop
  endfacet
  facet normal 0 0 -1
    outer loop
      vertex 0 0 0
      vertex 30 1.8 0
      vertex 68 0 0
    endloop
  endfacet
  facet normal -0 0 -1
    outer loop
      vertex 30 5.5 0
      vertex 0 0 0
      vertex 20 19.5 0
    endloop
  endfacet
  facet normal -0 0 -1
    outer loop
      vertex 20 19.5 0
      vertex 0 0 0
      vertex 0 19.5 0
    endloop
  endfacet
  facet normal 0 0 -1
    outer loop
      vertex 30 5.5 0
      vertex 47 19.5 0
      vertex 37.8 5.5 0
    endloop
  endfacet
  facet normal -0 0 -1
    outer loop
      vertex 47 19.5 0
      vertex 30 5.5 0
      vertex 20 19.5 0
    endloop
  endfacet
  facet normal 0 0 -1
    outer loop
      vertex 47 19.5 0
      vertex 20 19.5 0
      vertex 47 25.5 0
    endloop
  endfacet
  facet normal -0 0 -1
    outer loop
      vertex 47 25.5 0
      vertex 20 19.5 0
      vertex 20 25.5 0
    endloop
  endfacet
  facet normal -1 0 0
    outer loop
      vertex 0 0 0
      vertex 0 19.5 3.9
      vertex 0 19.5 0
    endloop
  endfacet
  facet normal -1 -0 0
    outer loop
      vertex 0 19.5 3.9
      vertex 0 0 0
      vertex 0 0 3.9
    endloop
  endfacet
  facet normal 0 1 -0
    outer loop
      vertex 20 19.5 0
      vertex 0 19.5 3.9
      vertex 20 19.5 3.9
    endloop
  endfacet
  facet normal 0 1 0
    outer loop
      vertex 0 19.5 3.9
      vertex 20 19.5 0
      vertex 0 19.5 0
    endloop
  endfacet
  facet normal 0 1 -0
    outer loop
      vertex 68 19.5 0
      vertex 47 19.5 3.9
      vertex 68 19.5 3.9
    endloop
  endfacet
  facet normal 0 1 0
    outer loop
      vertex 47 19.5 3.9
      vertex 68 19.5 0
      vertex 47 19.5 0
    endloop
  endfacet
  facet normal 0 -1 0
    outer loop
      vertex 0 0 0
      vertex 68 0 3.9
      vertex 0 0 3.9
    endloop
  endfacet
  facet normal 0 -1 -0
    outer loop
      vertex 68 0 3.9
      vertex 0 0 0
      vertex 68 0 0
    endloop
  endfacet
  facet normal -1 0 0
    outer loop
      vertex 37.8 1.8 0
      vertex 37.8 5.5 3.9
      vertex 37.8 5.5 0
    endloop
  endfacet
  facet normal -1 -0 0
    outer loop
      vertex 37.8 5.5 3.9
      vertex 37.8 1.8 0
      vertex 37.8 1.8 3.9
    endloop
  endfacet
  facet normal 1 -0 0
    outer loop
      vertex 30 1.8 3.9
      vertex 30 5.5 0
      vertex 30 5.5 3.9
    endloop
  endfacet
  facet normal 1 0 0
    outer loop
      vertex 30 5.5 0
      vertex 30 1.8 3.9
      vertex 30 1.8 0
    endloop
  endfacet
  facet normal 0 -1 0
    outer loop
      vertex 30 5.5 0
      vertex 37.8 5.5 3.9
      vertex 30 5.5 3.9
    endloop
  endfacet
  facet normal 0 -1 -0
    outer loop
      vertex 37.8 5.5 3.9
      vertex 30 5.5 0
      vertex 37.8 5.5 0
    endloop
  endfacet
  facet normal 0 1 -0
    outer loop
      vertex 37.8 1.8 0
      vertex 30 1.8 3.9
      vertex 37.8 1.8 3.9
    endloop
  endfacet
  facet normal 0 1 0
    outer loop
      vertex 30 1.8 3.9
      vertex 37.8 1.8 0
      vertex 30 1.8 0
    endloop
  endfacet
  facet normal 1 -0 0
    outer loop
      vertex 47 19.5 3.9
      vertex 47 25.5 0
      vertex 47 25.5 3.9
    endloop
  endfacet
  facet normal 1 0 0
    outer loop
      vertex 47 25.5 0
      vertex 47 19.5 3.9
      vertex 47 19.5 0
    endloop
  endfacet
  facet normal -1 0 0
    outer loop
      vertex 20 19.5 0
      vertex 20 25.5 3.9
      vertex 20 25.5 0
    endloop
  endfacet
  facet normal -1 -0 0
    outer loop
      vertex 20 25.5 3.9
      vertex 20 19.5 0
      vertex 20 19.5 3.9
    endloop
  endfacet
  facet normal 0 1 -0
    outer loop
      vertex 47 25.5 0
      vertex 43.5 25.5 3.9
      vertex 47 25.5 3.9
    endloop
  endfacet
  facet normal 0 1 0
    outer loop
      vertex 43.5 25.5 3.9
      vertex 47 25.5 0
      vertex 23.5 25.5 3.9
    endloop
  endfacet
  facet normal 0 1 0
    outer loop
      vertex 20 25.5 0
      vertex 23.5 25.5 3.9
      vertex 47 25.5 0
    endloop
  endfacet
  facet normal 0 1 0
    outer loop
      vertex 23.5 25.5 3.9
      vertex 20 25.5 0
      vertex 20 25.5 3.9
    endloop
  endfacet
  facet normal 0 1 -0
    outer loop
      vertex 43.5 25.5 3.9
      vertex 23.5 25.5 6.9
      vertex 43.5 25.5 6.9
    endloop
  endfacet
  facet normal 0 1 0
    outer loop
      vertex 23.5 25.5 6.9
      vertex 43.5 25.5 3.9
      vertex 23.5 25.5 3.9
    endloop
  endfacet
  facet normal 1 -0 0
    outer loop
      vertex 43.5 22.5 6.9
      vertex 43.5 25.5 3.9
      vertex 43.5 25.5 6.9
    endloop
  endfacet
  facet normal 1 0 0
    outer loop
      vertex 43.5 25.5 3.9
      vertex 43.5 22.5 6.9
      vertex 43.5 22.5 3.9
    endloop
  endfacet
  facet normal -0 0 1
    outer loop
      vertex 23.5 25.5 6.9
      vertex 43.5 22.5 6.9
      vertex 43.5 25.5 6.9
    endloop
  endfacet
  facet normal 0 0 1
    outer loop
      vertex 43.5 22.5 6.9
      vertex 23.5 25.5 6.9
      vertex 23.5 22.5 6.9
    endloop
  endfacet
  facet normal -1 0 0
    outer loop
      vertex 23.5 22.5 3.9
      vertex 23.5 25.5 6.9
      vertex 23.5 25.5 3.9
    endloop
  endfacet
  facet normal -1 -0 0
    outer loop
      vertex 23.5 25.5 6.9
      vertex 23.5 22.5 3.9
      vertex 23.5 22.5 6.9
    endloop
  endfacet
  facet normal 0 -1 0
    outer loop
      vertex 23.5 22.5 3.9
      vertex 43.5 22.5 6.9
      vertex 23.5 22.5 6.9
    endloop
  endfacet
  facet normal 0 -1 -0
    outer loop
      vertex 43.5 22.5 6.9
      vertex 23.5 22.5 3.9
      vertex 43.5 22.5 3.9
    endloop
  endfacet
endsolid OpenSCAD_Model
