999
DXF from OpenSCAD
  0
SECTION
  2
HEADER
  9
$ACADVER
  1
AC1006
  9
$INSBASE
 10
0.0
 20
0.0
 30
0.0
  9
$EXTMIN
 10
-1
 20
0
  9
$EXTMAX
 10
275
 20
100
  9
$LINMIN
 10
-1
 20
0
  9
$LINMAX
 10
275
 20
100
  0
ENDSEC
  0
SECTION
  2
TABLES
  0
TABLE
  2
LTYPE
 70
1
  0
LTYPE
  2
CONTINUOUS
 70
64
  3
Solid line
 72
65
 73
0
 40
0.000000
  0
ENDTAB
  0
TABLE
  2
LAYER
 70
6
  0
LAYER
  2
0
 70
64
 62
7
  6
CONTINUOUS
  0
ENDTAB
  0
TABLE
  2
STYLE
 70
0
  0
ENDTAB
  0
ENDSEC
  0
SECTION
  2
BLOCKS
  0
ENDSEC
  0
SECTION
  2
ENTITIES
  0
LWPOLYLINE
100
AcDbEntity
  8
0
100
AcDbPolyline
 90
96
 70
1
 10
170
 20
100
 10
161
 20
100
 10
161
 20
65
 10
160
 20
65
 10
160
 20
100
 10
154
 20
100
 10
154
 20
65
 10
153
 20
65
 10
153
 20
100
 10
147
 20
100
 10
147
 20
65
 10
146
 20
65
 10
146
 20
100
 10
140
 20
100
 10
140
 20
65
 10
139
 20
65
 10
139
 20
100
 10
133
 20
100
 10
133
 20
65
 10
132
 20
65
 10
132
 20
100
 10
126
 20
100
 10
126
 20
65
 10
125
 20
65
 10
125
 20
100
 10
119
 20
100
 10
119
 20
65
 10
118
 20
65
 10
118
 20
100
 10
112
 20
100
 10
112
 20
65
 10
111
 20
65
 10
111
 20
100
 10
105
 20
100
 10
105
 20
65
 10
104
 20
65
 10
104
 20
100
 10
98
 20
100
 10
98
 20
65
 10
97
 20
65
 10
97
 20
100
 10
91
 20
100
 10
91
 20
65
 10
90
 20
65
 10
90
 20
100
 10
84
 20
100
 10
84
 20
65
 10
83
 20
65
 10
83
 20
100
 10
77
 20
100
 10
77
 20
65
 10
76
 20
65
 10
76
 20
100
 10
70
 20
100
 10
70
 20
65
 10
69
 20
65
 10
69
 20
100
 10
63
 20
100
 10
63
 20
65
 10
62
 20
65
 10
62
 20
100
 10
56
 20
100
 10
56
 20
65
 10
55
 20
65
 10
55
 20
100
 10
49
 20
100
 10
49
 20
65
 10
48
 20
65
 10
48
 20
100
 10
42
 20
100
 10
42
 20
65
 10
41
 20
65
 10
41
 20
100
 10
35
 20
100
 10
35
 20
65
 10
34
 20
65
 10
34
 20
100
 10
28
 20
100
 10
28
 20
65
 10
27
 20
65
 10
27
 20
100
 10
21
 20
100
 10
21
 20
65
 10
20
 20
65
 10
20
 20
100
 10
14
 20
100
 10
14
 20
65
 10
13
 20
65
 10
13
 20
100
 10
7
 20
100
 10
7
 20
65
 10
6
 20
65
 10
6
 20
100
 10
0
 20
100
 10
0
 20
40
 10
170
 20
40
  0
LWPOLYLINE
100
AcDbEntity
  8
0
100
AcDbPolyline
 90
13
 70
1
 10
153.582
 20
47.2599
 10
152.006
 20
48.3475
 10
151.116
 20
50.0427
 10
151.116
 20
51.9573
 10
152.006
 20
53.6525
 10
153.582
 20
54.7401
 10
155.482
 20
54.9708
 10
157.272
 20
54.2919
 10
158.542
 20
52.8589
 10
159
 20
51
 10
158.542
 20
49.1411
 10
157.272
 20
47.7081
 10
155.482
 20
47.0292
  0
LWPOLYLINE
100
AcDbEntity
  8
0
100
AcDbPolyline
 90
13
 70
1
 10
117.582
 20
47.2599
 10
116.006
 20
48.3475
 10
115.116
 20
50.0427
 10
115.116
 20
51.9573
 10
116.006
 20
53.6525
 10
117.582
 20
54.7401
 10
119.482
 20
54.9708
 10
121.272
 20
54.2919
 10
122.542
 20
52.8589
 10
123
 20
51
 10
122.542
 20
49.1411
 10
121.272
 20
47.7081
 10
119.482
 20
47.0292
  0
LWPOLYLINE
100
AcDbEntity
  8
0
100
AcDbPolyline
 90
13
 70
1
 10
81.5816
 20
47.2599
 10
80.006
 20
48.3475
 10
79.1162
 20
50.0427
 10
79.1162
 20
51.9573
 10
80.006
 20
53.6525
 10
81.5816
 20
54.7401
 10
83.4821
 20
54.9708
 10
85.2723
 20
54.2919
 10
86.5418
 20
52.8589
 10
87
 20
51
 10
86.5418
 20
49.1411
 10
85.2723
 20
47.7081
 10
83.4821
 20
47.0292
  0
LWPOLYLINE
100
AcDbEntity
  8
0
100
AcDbPolyline
 90
13
 70
1
 10
45.5816
 20
47.2599
 10
44.006
 20
48.3475
 10
43.1162
 20
50.0427
 10
43.1162
 20
51.9573
 10
44.006
 20
53.6525
 10
45.5816
 20
54.7401
 10
47.4821
 20
54.9708
 10
49.2723
 20
54.2919
 10
50.5418
 20
52.8589
 10
51
 20
51
 10
50.5418
 20
49.1411
 10
49.2723
 20
47.7081
 10
47.4821
 20
47.0292
  0
LWPOLYLINE
100
AcDbEntity
  8
0
100
AcDbPolyline
 90
13
 70
1
 10
9.58158
 20
47.2599
 10
8.00596
 20
48.3475
 10
7.11623
 20
50.0427
 10
7.11623
 20
51.9573
 10
8.00596
 20
53.6525
 10
9.58158
 20
54.7401
 10
11.4821
 20
54.9708
 10
13.2723
 20
54.2919
 10
14.5418
 20
52.8589
 10
15
 20
51
 10
14.5418
 20
49.1411
 10
13.2723
 20
47.7081
 10
11.4821
 20
47.0292
  0
LWPOLYLINE
100
AcDbEntity
  8
0
100
AcDbPolyline
 90
163
 70
1
 10
275
 20
33
 10
265
 20
33
 10
265
 20
22
 10
264
 20
22
 10
264
 20
33
 10
258
 20
33
 10
258
 20
22
 10
257
 20
22
 10
257
 20
33
 10
251
 20
33
 10
251
 20
22
 10
250
 20
22
 10
250
 20
33
 10
244
 20
33
 10
244
 20
22
 10
243
 20
22
 10
243
 20
33
 10
237
 20
33
 10
237
 20
22
 10
236
 20
22
 10
236
 20
33
 10
230
 20
33
 10
230
 20
22
 10
229
 20
22
 10
229
 20
33
 10
223
 20
33
 10
223
 20
22
 10
222
 20
22
 10
222
 20
33
 10
216
 20
33
 10
216
 20
22
 10
215
 20
22
 10
215
 20
33
 10
209
 20
33
 10
209
 20
22
 10
208
 20
22
 10
208
 20
33
 10
202
 20
33
 10
202
 20
22
 10
201
 20
22
 10
201
 20
33
 10
195
 20
33
 10
195
 20
22
 10
194
 20
22
 10
194
 20
33
 10
188
 20
33
 10
188
 20
22
 10
187
 20
22
 10
187
 20
33
 10
181
 20
33
 10
181
 20
22
 10
180
 20
22
 10
180
 20
33
 10
174
 20
33
 10
174
 20
22
 10
173
 20
22
 10
173
 20
33
 10
167
 20
33
 10
167
 20
22
 10
166
 20
22
 10
166
 20
33
 10
160
 20
33
 10
160
 20
22
 10
159
 20
22
 10
159
 20
33
 10
153
 20
33
 10
153
 20
22
 10
152
 20
22
 10
152
 20
33
 10
146
 20
33
 10
146
 20
22
 10
145
 20
22
 10
145
 20
33
 10
139
 20
33
 10
139
 20
22
 10
138
 20
22
 10
138
 20
33
 10
132
 20
33
 10
132
 20
22
 10
131
 20
22
 10
131
 20
33
 10
125
 20
33
 10
125
 20
22
 10
124
 20
22
 10
124
 20
33
 10
118
 20
33
 10
118
 20
22
 10
117
 20
22
 10
117
 20
33
 10
111
 20
33
 10
111
 20
22
 10
110
 20
22
 10
110
 20
33
 10
104
 20
33
 10
104
 20
22
 10
103
 20
22
 10
103
 20
33
 10
97
 20
33
 10
97
 20
22
 10
96
 20
22
 10
96
 20
33
 10
90
 20
33
 10
90
 20
22
 10
89
 20
22
 10
89
 20
33
 10
83
 20
33
 10
83
 20
22
 10
82
 20
22
 10
82
 20
33
 10
76
 20
33
 10
76
 20
22
 10
75
 20
22
 10
75
 20
33
 10
69
 20
33
 10
69
 20
22
 10
68
 20
22
 10
68
 20
33
 10
62
 20
33
 10
62
 20
22
 10
61
 20
22
 10
61
 20
33
 10
55
 20
33
 10
55
 20
22
 10
54
 20
22
 10
54
 20
33
 10
48
 20
33
 10
48
 20
22
 10
47
 20
22
 10
47
 20
33
 10
41
 20
33
 10
41
 20
22
 10
40
 20
22
 10
40
 20
33
 10
34
 20
33
 10
34
 20
22
 10
33
 20
22
 10
33
 20
33
 10
27
 20
33
 10
27
 20
22
 10
26
 20
22
 10
26
 20
33
 10
20
 20
33
 10
20
 20
22
 10
19
 20
22
 10
19
 20
33
 10
13
 20
33
 10
13
 20
22
 10
12
 20
22
 10
12
 20
33
 10
6
 20
33
 10
6
 20
19.8375
 10
5
 20
19.3923
 10
2.97043
 20
17.9177
 10
1.2918
 20
16.0534
 10
0.0374545
 20
13.8808
 10
-0.737771
 20
11.4949
 10
-1
 20
9
 10
-0.737771
 20
6.50506
 10
0.0374545
 20
4.11916
 10
1.2918
 20
1.94658
 10
2.97043
 20
0.0822621
 10
3.08366
 20
0
 10
275
 20
0
  0
LWPOLYLINE
100
AcDbEntity
  8
0
100
AcDbPolyline
 90
13
 70
1
 10
9.58158
 20
7.25994
 10
8.00596
 20
8.34751
 10
7.11623
 20
10.0427
 10
7.11623
 20
11.9573
 10
8.00596
 20
13.6525
 10
9.58158
 20
14.7401
 10
11.4821
 20
14.9708
 10
13.2723
 20
14.2919
 10
14.5418
 20
12.8589
 10
15
 20
11
 10
14.5418
 20
9.14111
 10
13.2723
 20
7.70806
 10
11.4821
 20
7.02916
  0
LWPOLYLINE
100
AcDbEntity
  8
0
100
AcDbPolyline
 90
13
 70
1
 10
45.5816
 20
7.25994
 10
44.006
 20
8.34751
 10
43.1162
 20
10.0427
 10
43.1162
 20
11.9573
 10
44.006
 20
13.6525
 10
45.5816
 20
14.7401
 10
47.4821
 20
14.9708
 10
49.2723
 20
14.2919
 10
50.5418
 20
12.8589
 10
51
 20
11
 10
50.5418
 20
9.14111
 10
49.2723
 20
7.70806
 10
47.4821
 20
7.02916
  0
LWPOLYLINE
100
AcDbEntity
  8
0
100
AcDbPolyline
 90
13
 70
1
 10
81.5816
 20
7.25994
 10
80.006
 20
8.34751
 10
79.1162
 20
10.0427
 10
79.1162
 20
11.9573
 10
80.006
 20
13.6525
 10
81.5816
 20
14.7401
 10
83.4821
 20
14.9708
 10
85.2723
 20
14.2919
 10
86.5418
 20
12.8589
 10
87
 20
11
 10
86.5418
 20
9.14111
 10
85.2723
 20
7.70806
 10
83.4821
 20
7.02916
  0
LWPOLYLINE
100
AcDbEntity
  8
0
100
AcDbPolyline
 90
13
 70
1
 10
117.582
 20
7.25994
 10
116.006
 20
8.34751
 10
115.116
 20
10.0427
 10
115.116
 20
11.9573
 10
116.006
 20
13.6525
 10
117.582
 20
14.7401
 10
119.482
 20
14.9708
 10
121.272
 20
14.2919
 10
122.542
 20
12.8589
 10
123
 20
11
 10
122.542
 20
9.14111
 10
121.272
 20
7.70806
 10
119.482
 20
7.02916
  0
LWPOLYLINE
100
AcDbEntity
  8
0
100
AcDbPolyline
 90
13
 70
1
 10
153.582
 20
7.25994
 10
152.006
 20
8.34751
 10
151.116
 20
10.0427
 10
151.116
 20
11.9573
 10
152.006
 20
13.6525
 10
153.582
 20
14.7401
 10
155.482
 20
14.9708
 10
157.272
 20
14.2919
 10
158.542
 20
12.8589
 10
159
 20
11
 10
158.542
 20
9.14111
 10
157.272
 20
7.70806
 10
155.482
 20
7.02916
  0
LWPOLYLINE
100
AcDbEntity
  8
0
100
AcDbPolyline
 90
13
 70
1
 10
189.582
 20
7.25994
 10
188.006
 20
8.34751
 10
187.116
 20
10.0427
 10
187.116
 20
11.9573
 10
188.006
 20
13.6525
 10
189.582
 20
14.7401
 10
191.482
 20
14.9708
 10
193.272
 20
14.2919
 10
194.542
 20
12.8589
 10
195
 20
11
 10
194.542
 20
9.14111
 10
193.272
 20
7.70806
 10
191.482
 20
7.02916
  0
LWPOLYLINE
100
AcDbEntity
  8
0
100
AcDbPolyline
 90
13
 70
1
 10
225.582
 20
7.25994
 10
224.006
 20
8.34751
 10
223.116
 20
10.0427
 10
223.116
 20
11.9573
 10
224.006
 20
13.6525
 10
225.582
 20
14.7401
 10
227.482
 20
14.9708
 10
229.272
 20
14.2919
 10
230.542
 20
12.8589
 10
231
 20
11
 10
230.542
 20
9.14111
 10
229.272
 20
7.70806
 10
227.482
 20
7.02916
  0
LWPOLYLINE
100
AcDbEntity
  8
0
100
AcDbPolyline
 90
13
 70
1
 10
261.582
 20
7.25994
 10
260.006
 20
8.34751
 10
259.116
 20
10.0427
 10
259.116
 20
11.9573
 10
260.006
 20
13.6525
 10
261.582
 20
14.7401
 10
263.482
 20
14.9708
 10
265.272
 20
14.2919
 10
266.542
 20
12.8589
 10
267
 20
11
 10
266.542
 20
9.14111
 10
265.272
 20
7.70806
 10
263.482
 20
7.02916
  0
ENDSEC
  0
EOF
