<?xml version="1.0" encoding="UTF-8" standalone="no"?>
<!-- Created with Inkscape (http://www.inkscape.org/) -->

<svg
   width="87.307648mm"
   height="22.987537mm"
   viewBox="0 0 87.307647 22.987538"
   version="1.1"
   id="svg1"
   sodipodi:docname="kløpinne1p.svg"
   inkscape:version="1.4 (e7c3feb1, 2024-10-09)"
   inkscape:export-filename="kløpinne1p.svg"
   inkscape:export-xdpi="96"
   inkscape:export-ydpi="96"
   xmlns:inkscape="http://www.inkscape.org/namespaces/inkscape"
   xmlns:sodipodi="http://sodipodi.sourceforge.net/DTD/sodipodi-0.dtd"
   xmlns="http://www.w3.org/2000/svg"
   xmlns:svg="http://www.w3.org/2000/svg">
  <sodipodi:namedview
     id="namedview1"
     pagecolor="#505050"
     bordercolor="#ffffff"
     borderopacity="1"
     inkscape:showpageshadow="0"
     inkscape:pageopacity="0"
     inkscape:pagecheckerboard="1"
     inkscape:deskcolor="#505050"
     inkscape:document-units="mm"
     inkscape:zoom="1.6628139"
     inkscape:cx="155.76006"
     inkscape:cy="97.425212"
     inkscape:window-width="1504"
     inkscape:window-height="819"
     inkscape:window-x="0"
     inkscape:window-y="38"
     inkscape:window-maximized="0"
     inkscape:current-layer="layer1">
    <inkscape:page
       x="0"
       y="-2.2411079e-22"
       width="87.307648"
       height="22.987537"
       id="page1"
       margin="0"
       bleed="0" />
  </sodipodi:namedview>
  <defs
     id="defs1" />
  <g
     inkscape:label="Layer 1"
     inkscape:groupmode="layer"
     id="layer1"
     transform="translate(-14.777437,-67.879842)">
    <path
       style="font-size:21.4755px;line-height:1.8;font-family:'Bradley Hand';-inkscape-font-specification:'Bradley Hand, Normal';text-align:center;text-anchor:middle;fill:#1a1a1a;fill-rule:evenodd;stroke:#000000;stroke-width:0.243502;stroke-opacity:0"
       d="m 29.805689,81.296392 -0.236231,0.365083 -0.644265,0.794594 -0.493936,0.386559 -0.62279,0.322132 -0.66574,0.236231 -0.601314,0.128853 -0.171804,-0.06443 -0.279182,0.0859 -0.408034,-0.06443 -0.493937,0.0859 -0.107377,-0.0859 -0.0859,0.04295 -0.343608,-0.06443 h -0.515412 l -0.322133,-0.300657 -0.536887,-0.107377 -0.107378,-0.150329 -0.171804,0.04295 -0.472461,-0.42951 -0.450985,-0.128853 -0.236231,-0.279181 H 21.129589 L 20.97926,81.833265 h -0.214755 l -0.128853,-0.214755 -0.343608,-0.128853 -0.04295,0.04295 -0.408034,-0.42951 -0.365084,-0.257706 -0.386559,-0.386559 -0.408034,-0.257706 q -0.257706,-0.193279 -0.794594,-0.515412 -0.107377,-0.23623 -0.193279,-0.23623 l -0.322133,-0.02148 -0.0859,-0.0859 -0.300657,0.06443 0.0859,0.622789 -0.128853,0.02148 0.06443,0.214755 -0.171804,0.816069 q 0.0859,0.150328 0.150328,0.515412 l -0.128853,0.23623 -0.02148,0.257706 -0.02148,0.472461 -0.150328,0.365084 -0.06443,0.450985 -0.300657,0.579839 -0.558363,0.837544 q -0.751642,0 -0.837544,-0.601314 l 0.150328,-0.515412 0.0859,-0.386559 0.02148,-0.06443 0.04295,-0.107378 q -0.02148,-0.04295 -0.0859,-0.150328 -0.04295,-0.128853 -0.04295,-0.214755 0,-0.128853 0.0859,-0.279182 l -0.0859,-0.107377 0.322132,-0.408035 -0.171804,-0.343608 0.0859,-0.214755 Q 15.202345,81.189 15.202345,81.038672 q 0,-0.107378 0.0859,-0.365084 l 0.04295,-0.128853 q -0.04295,-0.515412 -0.04295,-0.66574 -0.0859,-0.150329 -0.0859,-0.450986 l 0.06443,-0.0859 -0.128853,-0.365083 0.171804,-0.19328 -0.04295,-0.04295 v -0.558363 l -0.107377,-0.66574 0.171804,-0.150329 q -0.02148,-0.107377 -0.02148,-0.343608 v -0.343608 h -0.04295 l -0.107377,-1.310005 q 0.04295,-0.128853 0.214755,-0.322133 0,-0.150328 0.02148,-0.257706 l 0.04295,-0.128853 0.02148,-0.128853 q -0.171804,-0.386559 -0.171804,-0.708691 0,-0.450986 0.279181,-0.944922 0.493937,-0.128853 0.644265,-0.128853 0.279182,0 0.665741,0.193279 l 0.493936,0.579839 -0.0859,0.472461 0.214755,0.23623 -0.128853,0.279182 0.0859,0.279181 -0.279181,0.42951 0.128853,0.601314 -0.171804,0.515412 0.06443,0.708692 -0.107377,0.150328 0.257706,0.386559 h 0.150328 l 0.386559,0.107378 0.171804,-0.107378 0.171804,0.0859 0.150329,-0.107377 0.515412,0.0859 0.193279,-0.128853 0.601314,-0.19328 v -0.06443 h 0.472461 q 0.236231,-0.214755 0.579839,-0.279182 -0.02148,-0.02148 -0.02148,-0.04295 0,-0.107377 0.601314,-0.171804 l 0.536888,-0.214755 0.193279,-0.300657 q 0.128853,-0.06443 0.322133,-0.128853 l 0.04295,-0.257706 h 0.193279 v -0.0859 l 0.365084,-0.06443 0.214755,-0.386559 h 0.214755 q 0.06443,-0.386559 0.493936,-0.536888 l 0.128853,-0.171804 v -0.23623 l 0.386559,-0.04295 q 0.128853,-0.386559 0.408035,-0.579839 0.0859,-0.171804 0.107377,-0.257706 l 0.279182,-0.365083 0.214755,-0.19328 q 0.06443,-0.687216 0.837544,-0.687216 0.04295,0 0.493937,0.62279 l -0.19328,0.536887 0.107378,0.04295 -0.04295,0.128853 0.02147,0.150329 q -0.04295,0.02148 -0.171804,0.128853 l -0.06443,0.365083 -0.236231,0.0859 -0.171804,0.493937 -0.279181,0.322132 q -0.19328,0.408035 -0.515412,0.515412 0.02147,0.02148 0.02147,0.0859 0,0.107378 -0.150328,0.408035 l -0.515412,0.107377 q -0.0859,0.128853 -0.257706,0.236231 v 0.128853 l -0.42951,0.150328 -0.42951,0.42951 -0.62279,0.322133 -0.450985,0.322132 -0.42951,0.0859 -0.343608,0.19328 -0.558363,0.107377 -0.515412,0.300657 -0.62279,0.300657 -0.214755,0.06443 q 0.257706,0.150328 0.493937,0.42951 l 0.450985,0.365083 0.708692,0.408035 0.06443,0.171804 0.450986,0.107377 0.558363,0.343608 0.66574,0.343608 0.365084,0.300657 0.386559,0.107378 0.579838,0.408034 0.730167,0.214755 0.536888,0.06443 1.009348,-0.128853 h 0.386559 l 0.0859,-0.04295 q 0.19328,-0.19328 0.42951,-0.19328 0.107378,-0.06443 0.257706,-0.128853 v -0.04295 l 0.365084,-0.408034 0.150328,-0.107378 0.02148,-0.150328 q 0.279181,-0.150329 0.536887,-0.236231 l -0.06443,0.02148 0.536887,-0.107378 0.322133,0.171804 z m 6.592961,-0.04295 q 0,0.23623 -0.171804,0.386559 -0.171804,0.257706 -0.558363,0.536887 l -0.214755,0.150329 -0.193279,0.257706 -0.19328,0.0859 -0.300657,0.193279 -0.214755,0.02148 -0.0859,0.0859 q -0.42951,0.128853 -0.66574,0.42951 -0.150329,0.107377 -0.279182,0.107377 -0.0859,0 -0.150328,-0.02148 -0.365084,0.214755 -0.944922,0.214755 -0.493937,0 -0.644265,-0.0859 l -0.386559,-0.214755 -0.128853,-0.214755 v -0.06443 q 0,-0.279181 -0.236231,-0.450985 l -0.0859,-0.42951 -0.171804,-0.19328 -0.107377,-0.794593 -0.02148,-0.472461 0.02148,-0.343608 0.04295,-0.128853 q -0.06443,-0.128853 -0.06443,-0.279182 0.107378,-0.901971 0.107378,-1.138201 l -0.19328,-0.386559 0.19328,-0.322133 0.06443,-0.536887 -0.04295,-0.365084 0.128853,-0.322132 -0.128853,-0.42951 0.19328,-0.300657 0.02147,-0.19328 v -0.751642 l 0.06443,-0.150329 -0.02148,-0.901971 0.06443,-0.923446 -0.0859,-0.171804 -0.02148,-0.644265 0.06443,-0.579839 -0.06443,-0.214755 0.128853,-1.28853 q 0.901971,-0.214755 0.794594,-0.214755 0.343608,0 0.558363,0.365084 l 0.04295,0.171804 0.322132,0.322132 -0.171804,0.450986 0.04295,0.0859 q -0.04295,0.408034 -0.107377,0.536887 l 0.04295,0.450986 0.107377,0.408034 -0.150328,0.450986 q 0,0.365083 -0.107378,0.66574 0,0.107378 -0.04295,0.343608 l -0.02147,0.128853 0.193279,0.236231 -0.0859,0.23623 q 0.04295,0.171804 0.04295,0.236231 0,0.128853 -0.0859,0.343608 l 0.04295,0.193279 -0.128853,0.687216 v 0.450986 l -0.150328,0.450985 0.0859,0.408035 -0.0859,0.944922 0.06443,0.107377 -0.107377,0.493937 -0.04295,0.601314 q -0.04295,0.128853 -0.04295,0.150328 0,0.365084 -0.02148,0.601314 l 0.107378,0.300657 -0.04295,0.322133 0.128853,0.279181 -0.02148,0.107378 q 0.128853,0.107377 0.236231,0.343608 h 0.193279 l 0.279182,0.0859 0.128853,-0.171804 0.193279,-0.02148 q 0.128853,-0.04295 0.19328,-0.04295 h 0.06443 q 0.214755,-0.04295 0.343608,-0.214755 l 0.128853,-0.06443 q 0.150329,-0.236231 0.493937,-0.322133 0.107377,-0.0859 0.408034,-0.343608 0,-0.300657 0.365084,-0.450985 0.322132,0 0.42951,-0.107378 0.42951,0.06443 0.536887,0.236231 0.128853,0.150328 0.128853,0.601314 z m 11.467911,-8.139215 q -0.279182,0.794594 -0.901971,1.0523 -0.107378,0.107377 -0.19328,0.171804 -0.06443,0.386559 -0.558363,0.536887 l -0.343608,0.558363 0.06443,0.04295 h 0.171804 l 0.515412,0.343608 0.02148,0.214755 0.279182,0.19328 0.04295,0.193279 0.0859,0.0859 q 0.04295,0.107378 0.0859,0.257706 l 0.06443,0.04295 q 0.214755,0.150329 0.214755,0.408035 l 0.107378,0.107377 0.193279,0.558363 -0.0859,0.279182 q 0.0859,0.150328 0.0859,0.300657 v 0.0859 l 0.0859,0.193279 -0.02147,0.04295 v 0.279182 l -0.150329,0.193279 -0.04295,0.107378 -0.06443,0.0859 q -0.02148,0.0859 -0.19328,0.343608 l 0.0859,0.193279 -0.365083,0.708692 -0.19328,0.515412 -0.300657,0.193279 -0.0859,0.236231 -0.300657,0.0859 -0.107377,0.06443 q -0.107378,0.19328 -0.343608,0.300657 -0.150329,0.365084 -0.816069,0.601314 -0.214755,-0.04295 -0.236231,-0.107377 l -0.193279,0.214755 v 0.128853 q -0.343608,0.23623 -0.773118,0.279181 v 0.06443 q 0,0.06443 -0.107378,0.214755 h -0.0859 q -0.257706,0 -0.751642,0.300657 l -0.107378,-0.0859 -0.0859,0.0859 h -0.107377 l -0.128853,0.0859 q -0.343608,-0.04295 -0.42951,-0.04295 -0.236231,0 -0.343608,0.02148 l -0.343608,0.06443 -0.816069,0.23623 -0.02148,0.128853 -0.128853,0.107378 -0.02147,0.107377 0.04295,0.236231 q -0.02148,0 -0.02148,0 -0.02147,-0.02148 -0.04295,-0.02148 -0.0859,0.04295 -0.171804,0.171804 l -0.279181,0.450986 -0.19328,0.66574 -0.279181,0.04295 -0.04295,0.214755 -0.42951,0.365084 -0.0859,0.365083 -0.236231,0.171804 q -0.214755,0.515412 -0.687216,0.515412 -0.472461,0 -0.536887,-0.601314 l 0.515412,-0.901971 0.0859,-0.06443 0.257706,-0.579839 q 0.02147,-0.06443 0.107377,-0.150328 0.02148,-0.279182 0.257706,-0.450986 l 0.06443,-0.343608 h 0.0859 l 0.150328,-0.150328 q 0.02148,-0.300657 0.19328,-0.493937 l -0.02148,-0.23623 q -0.06443,-0.171804 -0.171804,-0.279182 -0.300657,-0.02148 -0.472461,-0.23623 l -0.472461,-0.536888 -0.386559,-0.730167 q -0.06443,-0.386559 -0.0859,-0.536887 0,-0.150329 0,-0.236231 0,-0.02148 0.04295,-0.23623 -0.171804,-0.42951 -0.171804,-0.558363 0,0.04295 0.171804,-0.687216 l -0.02148,-0.0859 0.257706,-0.450986 q 0.04295,-0.171804 0.04295,-0.214755 0,-0.107377 -0.107378,-0.214755 l 0.300657,-0.343608 0.19328,-0.536887 0.107377,-0.0859 v -0.365084 l 0.171804,-0.107377 q -0.04295,-0.214755 -0.04295,-0.408035 l 0.322133,-0.150328 -0.04295,-0.150329 q 0.150328,-0.171804 0.408034,-0.386559 0.171804,-0.150328 0.171804,-0.214755 0,-0.0859 -0.06443,-0.171804 0.107377,-0.214755 0.408034,-0.730167 0.19328,-0.536887 0.665741,-0.751642 l -0.06443,-0.171804 0.601314,-0.06443 q 0.601314,-0.257706 1.030824,-0.279181 l 0.214755,-0.107378 h 0.214755 q 0.343608,0 0.579839,0.0859 l 0.365083,0.128853 h 0.322133 l 0.66574,0.279182 0.06443,0.107377 0.107377,0.02148 0.236231,0.04295 0.300657,-0.236231 q 0,-0.472461 0.515412,-0.601314 l -0.04295,-0.04295 0.386559,-0.365083 -0.0859,0.02147 q 0.06443,-0.171804 0.279181,-0.515412 l -0.04295,0.128853 q 0.300657,-0.42951 0.85902,-0.42951 0.42951,0 1.181153,0.816069 z m -1.503285,4.831988 -0.06443,-0.06443 -0.06443,-0.343608 -0.322126,-0.450983 -0.107377,-0.236231 -0.150329,-0.128853 -0.322132,-0.300657 v 0.171804 l -0.06443,0.171804 -0.300657,0.06443 v 0.107377 l -0.343608,0.257706 -0.128853,0.214755 -0.04295,0.214755 -0.322132,0.386559 -0.04295,0.02148 -0.06443,0.193279 -0.472461,0.536888 -0.06443,0.322132 -0.06443,0.0859 -0.493936,0.558363 -0.02148,0.19328 -0.150328,0.150328 q -0.06443,0.236231 -0.236231,0.386559 v 0.42951 l -0.06443,0.02148 -0.0859,0.257706 -0.171804,0.06443 -0.300657,0.42951 q 0.06443,0 0.06443,0.06443 0,0.107377 -0.214755,0.322132 l -0.322132,0.322133 0.150328,0.04295 0.493937,-0.04295 0.579838,-0.19328 q 0.150329,-0.128853 0.472461,-0.23623 l 0.04295,-0.171804 0.601314,-0.0859 0.150329,-0.171804 0.365083,-0.150329 q 0.279182,-0.214755 0.730167,-0.450985 0.322133,-0.42951 0.450986,-0.558363 0.06443,-0.19328 0.279181,-0.322133 v -0.0859 q 0,-0.193279 0.300657,-0.386559 v -0.150348 l 0.236245,-0.837545 z m -2.534109,-2.233452 -0.06443,-0.236231 -0.300657,-0.02148 -0.107377,-0.128853 -0.343608,-0.06443 q 0.02147,0 -0.107378,0.02148 h -0.06443 l -0.257706,-0.107378 -0.171804,0.300657 -0.322133,-0.04295 -0.214755,0.107378 -0.171804,0.02148 -0.150328,0.128853 -0.300657,0.128853 -0.42951,0.579839 -0.19328,0.493936 -0.214755,0.150329 -0.23623,0.558363 -0.257706,0.23623 -0.06443,0.19328 -0.365083,0.515412 q -0.107378,0.02147 -0.107378,0.128853 v 0.493936 l -0.06443,-0.0859 q -0.02148,0.536888 -0.408035,1.267055 l 0.04295,0.128853 -0.150328,0.408034 v 0.493937 q 0.04295,0.107377 0.06443,0.23623 0,0.02148 0.02148,0.04295 0,0.02148 0,0.04295 l 0.408034,0.515412 0.322133,0.171804 0.0859,-0.193279 0.214755,0.0859 v -0.107378 q 0.365083,-0.300657 0.408034,-0.66574 l 0.236231,-0.19328 0.04295,-0.386559 0.42951,-0.622789 h 0.06443 l 0.236231,-0.408035 -0.0859,-0.386559 0.408034,-0.23623 0.02148,-0.107378 q 0.0859,-0.128853 0.214755,-0.300657 l -0.06443,-0.322132 q 0.171804,-0.300657 0.536888,-0.493937 l 0.0859,-0.472461 q 0.0859,0 0.128853,-0.0859 0.04295,-0.107377 0.06443,-0.107377 h 0.02148 l 0.0859,-0.214755 0.193279,-0.214755 q 0.214755,-0.386559 0.579839,-0.687216 l -0.02148,-0.171804 z m 13.808735,4.703134 -0.257706,0.644265 0.171804,0.42951 -0.0859,0.128853 -0.0859,0.343608 -0.171804,0.300657 -0.0859,0.04295 -0.04295,0.408035 -0.386559,0.04295 q -0.300657,0.279181 -0.62279,0.450985 l -0.128853,-0.02147 -0.322132,0.107377 -0.19328,0.02148 -0.408034,0.150328 -0.472461,-0.214755 -0.06443,-0.04295 -0.365083,0.02148 0.0859,0.04295 -0.601314,-0.0859 -0.536888,0.128853 -0.214755,-0.19328 -0.450985,0.04295 -0.171804,-0.128853 q -0.02148,0 -0.171804,0.02148 v 0.128853 q 0,0.193279 -0.06443,0.386559 l 0.06443,0.408034 -0.171804,0.214755 q 0.04295,0.472461 0.04295,0.708692 l -0.06443,0.536887 0.0859,0.816069 -0.171804,0.214755 0.0859,0.322133 -0.06443,0.214755 0.128853,0.06443 v 0.322133 q 0.04295,0.128853 0.04295,0.193279 0,0.19328 -0.236231,0.322133 l 0.0859,0.300657 -0.107377,0.171804 -0.04295,0.85902 q -0.06443,1.503285 -0.665741,1.503285 -0.128853,0 -0.751642,-0.171804 l 0.06443,-0.644265 -0.128853,-0.944922 0.214755,-0.386559 0.02148,-0.472461 -0.0859,-0.644265 0.171804,-0.279182 -0.19328,-0.493936 0.150329,-0.257706 -0.128853,-0.42951 0.171804,-0.386559 q -0.04295,-0.128853 -0.171804,-0.236231 -0.107378,-0.107377 -0.107378,-0.150328 0,-0.06443 0.150329,-0.128853 -0.02148,-0.06443 -0.02148,-0.214755 0,-0.279182 0.128853,-0.730167 l -0.128853,-0.214755 0.06443,-0.279182 -0.150329,-0.193279 0.19328,-0.236231 -0.0859,-0.622789 0.128853,-0.880496 -0.150329,-0.279181 0.236231,-0.408035 -0.257706,-0.23623 0.150328,-0.408035 -0.150328,-0.107377 0.02148,-0.365084 0.128853,-0.450985 v -0.0859 l 0.02148,-0.0859 V 79.08444 l 0.02148,-0.0859 -0.107377,-0.343608 0.107377,-0.365083 -0.107377,-0.279182 0.0859,-0.322132 -0.0859,-0.0859 0.06443,-0.42951 -0.06443,-0.236231 0.04295,-0.214755 -0.06443,-0.150328 -0.773118,0.343608 v -0.128853 l -0.150328,0.02148 -0.236231,0.214755 h -0.193279 l -0.257706,0.343608 -0.214755,-0.0859 -0.107378,0.214755 q -1.052299,-0.622789 -1.052299,-0.987873 0,-0.257706 0.193279,-0.42951 l -0.02148,-0.322168 q 0.601314,-0.343608 1.138201,-0.365084 l 0.150329,-0.150328 0.687216,-0.279182 0.150328,-0.150328 0.601314,0.04295 0.107378,-0.04295 0.193279,-0.751643 0.515412,0.107378 0.343608,0.558363 0.19328,-0.19328 0.386559,0.279182 q 0.279181,0 0.536887,0.107377 l 0.107378,0.19328 0.150328,-0.06443 0.171804,0.128853 q 0.150329,0 0.236231,0.02148 l -0.02148,0.128853 0.472461,-0.150329 0.236231,0.257706 0.408034,0.128853 0.279182,0.343608 0.515412,0.322133 0.02148,0.04295 0.408035,0.128853 v 0.128853 q 0.171804,0.128853 0.257706,0.343608 l 0.171804,0.107377 0.128853,0.236231 h 0.257706 v 0.42951 l 0.150328,0.150328 0.04295,0.150329 0.214755,0.04295 q 0.04295,0.493936 0.279182,0.837544 v 0.150329 l 0.214755,0.214755 -0.04295,0.343608 0.171804,0.386559 0.06443,0.450985 z m -1.610663,0.322133 -0.02148,-0.107378 0.02148,-0.0859 -0.128853,-0.386559 0.0859,-0.193279 -0.0859,-0.171804 -0.02147,-0.214755 -0.171804,-0.343608 -0.0859,-0.236231 -0.322133,-0.558363 -0.257706,-0.214755 -0.150328,-0.365083 -0.19328,-0.0859 -0.343608,-0.450986 -0.343608,0.04295 -0.257706,-0.343608 -0.214755,0.04295 -0.150328,-0.279181 -0.0859,-0.02148 h -0.300666 l -0.214755,0.107378 -0.171804,-0.171804 -0.214755,0.04295 -0.0859,-0.150329 -0.386559,-0.06443 0.02148,0.257706 -0.04295,0.408034 0.0859,0.236231 0.300657,0.279181 -0.23623,0.515412 0.02148,0.322133 -0.107377,0.644265 q 0.06443,0.408034 0.257706,0.687216 l -0.0859,0.23623 q 0.02148,0.02148 0.02148,0.04295 0,0.06443 -0.171804,0.19328 l 0.150329,0.193279 -0.107378,0.257706 -0.04295,0.279182 0.06443,0.300657 -0.02148,0.279181 H 52.4838 q 0.0859,-0.04295 0.23623,-0.04295 0.19328,0 0.343608,0.128853 0.02148,0 0.0859,-0.02148 0.04295,0 0.06443,0 0.06443,0 0.23623,0.04295 0.128853,-0.06443 0.236231,-0.06443 0.171804,0 0.322132,0.0859 h 0.19328 l 0.171804,0.04295 0.42951,-0.128853 0.343608,0.214755 q 0.193279,0.06443 0.150328,0.06443 l 0.408035,-0.408035 0.04295,-0.300657 0.107377,-0.04295 -0.06443,-0.171804 0.150328,-0.171804 z m 7.022496,-11.661197 q 0,0.257706 -0.343608,0.472461 v 0.04295 q -0.408035,0.493937 -0.708692,0.558363 l -0.322132,0.386559 -0.214755,0.279182 -0.493937,0.128853 -0.214755,0.300657 -0.343608,0.171804 -0.558363,0.493936 -0.343608,-0.322132 0.06443,-0.536888 0.23623,-0.386559 q 0.02148,-0.300657 0.343608,-0.515412 v -0.0859 l 0.128853,-0.0859 0.02148,-0.322132 0.343608,-0.0859 v -0.19328 l 0.257706,-0.04295 q 0.0859,-0.42951 0.365083,-0.622789 l 0.06443,-0.04295 0.128853,-0.128853 0.171804,-0.515412 q 1.417383,0.343608 1.417383,1.052299 z m 2.190501,11.382015 q 0,0.493937 -0.171804,0.62279 l -0.107378,0.0859 -0.107377,0.300657 -0.343608,0.107377 Q 64.35974,81.91918 64.059083,82.11246 l -0.193279,0.06443 -0.279182,0.300657 -0.257706,0.06443 q -0.150328,0.386559 -0.622789,0.408034 -0.04295,0.06443 -0.19328,0.257706 -0.322132,0.214755 -0.66574,0.257706 l -0.107378,0.02148 -0.150328,0.193279 h -0.42951 l -0.343608,0.257706 -0.880496,-0.644265 -0.408034,-0.837544 -0.02148,-1.0523 -0.0859,-0.257706 0.257706,-1.889844 0.0859,-0.0859 q -0.06443,-0.322132 -0.06443,-0.622789 0,-0.19328 0.128853,-0.794594 l 0.107377,-0.493936 q -0.04295,-0.128853 -0.171804,-0.279182 l 0.128853,-0.408034 0.04295,-0.493937 0.04295,-0.06443 q -0.0859,-0.19328 -0.107377,-0.42951 0.02147,-0.04295 0.04295,-0.107378 0.02148,-0.0859 0.02148,-0.128853 -0.06443,-0.193279 -0.06443,-0.365083 0,-0.515412 0.579838,-0.472461 l 0.257706,0.02147 q 0.257706,-0.128853 0.322133,-0.128853 0.42951,0 0.579838,0.472461 v 0.0859 q 0.0859,0.257706 0.0859,0.493937 0,0.193279 -0.04295,0.279181 l -0.150328,1.073775 0.150328,0.300657 q 0,0.386559 -0.257706,0.687216 l 0.0859,0.257706 -0.279181,0.816069 q -0.04295,0.536888 -0.107378,0.816069 v 0.536888 l -0.128853,0.300657 0.02148,0.214755 -0.04295,0.493936 0.04295,0.386559 0.322132,0.257706 0.257706,-0.04295 0.04295,-0.06443 0.171804,0.02147 0.279182,-0.0859 0.23623,-0.23623 0.0859,-0.128853 0.150329,-0.02148 0.04295,-0.107377 0.06443,-0.0859 0.128853,0.0859 0.214755,-0.214755 0.128853,0.02148 0.04295,-0.150328 h 0.04295 l 0.06443,-0.171804 0.193279,-0.0859 0.408035,-0.19328 q 0.493936,-0.343608 0.966397,-0.343608 h 0.0859 q 0.236231,0.150329 0.322133,0.386559 z M 80.122739,80.11524 q 0,0.171804 -0.279182,0.450986 l -0.23623,0.365083 -0.0859,0.42951 -0.19328,0.06443 -0.04295,0.128853 q -0.343608,0.107377 -0.493936,0.536887 -0.236231,0.300657 -0.515412,0.42951 -0.107378,0.107378 -0.19328,0.150329 l -0.107377,0.193279 -0.19328,0.04295 -0.558363,0.300657 -0.730167,0.0859 -0.193279,-0.04295 -0.322133,0.06443 -0.128853,-0.150329 q -0.300657,-0.150328 -0.42951,-0.300657 -0.257706,-0.06443 -0.386559,-0.408034 -0.365083,-0.42951 -0.365083,-0.687216 v -0.06443 l -0.150329,-0.257706 -0.04295,-0.04295 -0.128853,-0.386559 -0.193279,-0.408034 0.04295,-0.493937 -0.214755,-0.279181 -0.322133,-1.846893 q -0.06443,-0.365084 -0.06443,-0.62279 l -0.04295,-0.107377 -0.107378,-0.150329 -0.193279,0.257706 -0.773118,0.816069 -0.279182,0.450986 -0.150328,0.300657 -0.236231,0.343608 -0.171804,0.171804 0.02148,0.107377 -0.300657,0.665741 -0.171804,0.214755 -0.214755,0.04295 -0.19328,0.193279 q 0,0.42951 -0.408034,0.558363 l -0.04295,0.04295 q -0.19328,0.472461 -0.42951,0.579839 l -0.19328,0.300657 q -0.472461,0.42951 -0.622789,0.536887 -0.06443,0.214755 -0.236231,0.365084 -0.04295,0.06443 -0.150328,0.171804 -0.06443,0.365083 -0.601314,0.515412 l -0.236231,0.06443 q -0.42951,-0.02148 -0.708691,-0.493936 l -0.322133,-0.536888 0.107378,-0.515412 -0.04295,-0.279181 0.04295,-0.04295 0.02147,-0.279182 -0.23623,-0.515412 0.171804,-0.257706 -0.0859,-0.279181 0.150328,-0.300657 0.04295,-0.493937 -0.0859,-0.0859 0.171804,-0.300657 -0.06443,-0.150328 -0.02148,-0.343608 0.0859,-0.644265 q -0.04295,-0.214755 -0.04295,-0.279182 0,-0.04295 0.02148,-0.0859 0,-0.06443 0,-0.0859 l -0.107378,-0.171804 0.06443,-0.687216 -0.02148,-0.23623 0.06443,-0.343608 -0.0859,-0.579839 0.386559,-0.644265 q 0.66574,0.107378 0.923446,0.300657 0.257706,0.171804 0.257706,0.644265 v 0.19328 l 0.150329,0.257706 -0.06443,0.450985 0.0859,0.85902 -0.150328,0.408035 0.06443,0.450985 v 0.365084 l -0.171804,0.23623 0.128853,0.386559 -0.128853,0.236231 -0.02148,0.23623 0.128853,0.236231 -0.171804,0.450985 -0.06443,0.19328 v 0.193279 l 0.107378,0.214755 0.365083,-0.365083 q 0,-0.322133 0.214755,-0.42951 0.02148,-0.214755 0.171804,-0.322133 l -0.06443,-0.06443 0.279181,-0.257706 0.06443,-0.0859 v -0.19328 l 0.343608,-0.257706 0.0859,-0.214755 0.193279,-0.128853 0.837545,-0.944922 q -0.107378,0.128853 -0.708692,0.794594 v 0.04295 l 0.04295,-0.150329 0.279182,-0.322132 0.193279,-0.365084 v -0.214755 l 0.322133,-0.107377 0.04295,-0.279182 0.0859,-0.0859 0.02147,-0.107377 v -0.15034 l 0.300657,-0.300657 q 0,-0.04295 0,-0.107377 -0.02147,-0.06443 -0.02147,-0.0859 0,-0.386559 0.42951,-0.42951 0.193279,-0.386559 0.579838,-0.450986 l 0.128853,-0.193279 0.04295,-0.04295 q 0.19328,-0.279182 0.579839,-0.386559 l 0.193279,-0.236231 h 0.515412 l 0.257706,0.300657 0.236231,0.128853 0.02147,0.06443 0.150329,0.04295 0.04295,0.450985 0.365083,0.214755 -0.150328,0.472461 0.23623,0.515412 v 0.601314 l 0.171804,0.816069 0.04295,0.773118 0.19328,0.450986 0.128853,0.558363 q 0.128853,0.128853 0.193279,0.365083 l 0.386559,0.107378 v 0.42951 l 0.214755,0.23623 v 0.06443 l 0.0859,0.02147 0.0859,0.128853 0.0859,-0.107377 q -0.04295,0 0.107378,0.02148 0.23623,0 0.493936,-0.42951 l 0.257706,-0.06443 0.06443,-0.107378 q 0.06443,-0.171804 0.257706,-0.257706 l 0.150328,0.02148 0.0859,-0.0859 0.02148,-0.107378 0.06443,-0.0859 q 0.214755,-0.150328 0.279182,-0.450985 l 0.23623,-0.257706 0.04295,-0.19328 0.150329,-0.343608 0.408034,-0.150328 0.579839,0.193279 0.193279,0.62279 q 0,0.02148 0.02148,0.04295 0,0.04295 0,0.06443 z m 14.388588,0 q 0,0.171804 -0.279182,0.450986 l -0.23623,0.365083 -0.0859,0.42951 -0.19328,0.06443 -0.04295,0.128853 q -0.343608,0.107377 -0.493936,0.536887 -0.236231,0.300657 -0.515412,0.42951 -0.107378,0.107378 -0.19328,0.150329 l -0.107377,0.193279 -0.19328,0.04295 -0.558363,0.300657 -0.730167,0.0859 -0.193279,-0.04295 -0.322133,0.06443 -0.128853,-0.150329 q -0.300657,-0.150328 -0.42951,-0.300657 -0.257706,-0.06443 -0.386559,-0.408034 -0.365083,-0.42951 -0.365083,-0.687216 v -0.06443 l -0.150329,-0.257706 -0.04295,-0.04295 -0.128853,-0.386559 -0.193279,-0.408034 0.04295,-0.493937 -0.214755,-0.279181 -0.322133,-1.846893 q -0.06443,-0.365084 -0.06443,-0.62279 l -0.04295,-0.107377 -0.107378,-0.150329 -0.193279,0.257706 -0.773118,0.816069 -0.279182,0.450986 -0.150328,0.300657 -0.236231,0.343608 -0.171804,0.171804 0.02148,0.107377 -0.300657,0.665741 -0.171804,0.214755 -0.214755,0.04295 -0.19328,0.193279 q 0,0.42951 -0.408034,0.558363 l -0.04295,0.04295 q -0.19328,0.472461 -0.42951,0.579839 l -0.19328,0.300657 q -0.472461,0.42951 -0.622789,0.536887 -0.06443,0.214755 -0.236231,0.365084 -0.04295,0.06443 -0.150328,0.171804 -0.06443,0.365083 -0.601314,0.515412 l -0.236231,0.06443 q -0.42951,-0.02148 -0.708691,-0.493936 l -0.322133,-0.536888 0.107378,-0.515412 -0.04295,-0.279181 0.04295,-0.04295 0.02147,-0.279182 -0.23623,-0.515412 0.171804,-0.257706 -0.0859,-0.279181 0.150328,-0.300657 0.04295,-0.493937 -0.0859,-0.0859 0.171804,-0.300657 -0.06443,-0.150328 -0.02148,-0.343608 0.0859,-0.644265 q -0.04295,-0.214755 -0.04295,-0.279182 0,-0.04295 0.02148,-0.0859 0,-0.06443 0,-0.0859 l -0.107378,-0.171804 0.06443,-0.687216 -0.02148,-0.23623 0.06443,-0.343608 -0.0859,-0.579839 0.386559,-0.644265 q 0.66574,0.107378 0.923446,0.300657 0.257706,0.171804 0.257706,0.644265 v 0.19328 l 0.150329,0.257706 -0.06443,0.450985 0.0859,0.85902 -0.150328,0.408035 0.06443,0.450985 v 0.365084 l -0.171804,0.23623 0.128853,0.386559 -0.128853,0.236231 -0.02147,0.23623 0.128853,0.236231 -0.171804,0.450985 -0.06443,0.19328 v 0.193279 l 0.107378,0.214755 0.365083,-0.365083 q 0,-0.322133 0.214755,-0.42951 0.02148,-0.214755 0.171804,-0.322133 l -0.06443,-0.06443 0.279181,-0.257706 0.06443,-0.0859 v -0.19328 l 0.343608,-0.257706 0.0859,-0.214755 0.193279,-0.128853 0.837545,-0.944922 q -0.107378,0.128853 -0.708692,0.794594 v 0.04295 l 0.04295,-0.150329 0.279182,-0.322132 0.193279,-0.365084 v -0.214755 l 0.322133,-0.107377 0.04295,-0.279182 0.0859,-0.0859 0.02147,-0.107377 v -0.15034 l 0.300657,-0.300657 q 0,-0.04295 0,-0.107377 -0.02147,-0.06443 -0.02147,-0.0859 0,-0.386559 0.42951,-0.42951 0.193279,-0.386559 0.579838,-0.450986 l 0.128853,-0.193279 0.04295,-0.04295 q 0.19328,-0.279182 0.579839,-0.386559 l 0.193279,-0.236231 h 0.515412 l 0.257706,0.300657 0.236231,0.128853 0.02147,0.06443 0.150329,0.04295 0.04295,0.450985 0.365083,0.214755 -0.150328,0.472461 0.23623,0.515412 v 0.601314 l 0.171804,0.816069 0.04295,0.773118 0.19328,0.450986 0.128853,0.558363 q 0.128853,0.128853 0.193279,0.365083 l 0.386559,0.107378 v 0.42951 l 0.214755,0.23623 v 0.06443 l 0.0859,0.02147 0.0859,0.128853 0.0859,-0.107377 q -0.04295,0 0.107378,0.02148 0.23623,0 0.493936,-0.42951 l 0.257706,-0.06443 0.06443,-0.107378 q 0.06443,-0.171804 0.257706,-0.257706 l 0.150328,0.02148 0.0859,-0.0859 0.02148,-0.107378 0.06443,-0.0859 q 0.214755,-0.150328 0.279182,-0.450985 l 0.23623,-0.257706 0.04295,-0.19328 0.150329,-0.343608 0.408034,-0.150328 0.579839,0.193279 0.193279,0.62279 q 0,0.02148 0.02148,0.04295 0,0.04295 0,0.06443 z m 7.452003,1.71804 q 0,0.257706 -0.38656,0.644265 -0.10738,0.343608 -0.32213,0.558363 l -0.12886,0.02148 -0.23623,0.408034 -0.38656,0.06443 -0.40803,0.257706 -0.214756,0.386559 -0.23623,-0.04295 q -0.236231,0.107377 -0.386559,0.128853 l -0.128853,0.193279 q -0.06443,-0.02147 -0.19328,-0.02147 -0.279181,0 -0.536887,0.386559 l -0.300657,-0.257706 q -0.0859,0.02147 -0.257706,0.02147 -0.279182,0 -0.472461,-0.0859 h -0.365084 l -0.171804,-0.107377 q -0.816069,-0.128853 -1.030824,-0.62279 v -0.06443 L 95.542153,83.572795 95.4133,83.207711 95.155594,83.035907 v -0.322132 l -0.257706,-0.944922 0.04295,-0.773118 0.0859,-0.343608 v -0.450986 l 0.107378,-0.343608 -0.02148,-0.150328 0.150329,-0.257706 -0.04295,0.04295 q 0,-0.19328 0.107377,-0.408035 v -0.107377 l -0.06443,-0.515412 q 0,-0.365084 0.322132,-0.644265 0.02148,-0.04295 0.02148,-0.128853 0,-0.0859 -0.0859,-0.343608 -0.06443,-0.279182 -0.06443,-0.386559 0,-0.257706 0.128853,-0.536888 0.171804,0.257706 0.493937,0.257706 h 0.06443 q 0.04295,-0.0859 0.19328,-0.193279 0.171804,-0.536888 0.472461,-0.901971 l 0.0859,-0.0859 q 0,-0.0859 0.128853,-0.493937 h 0.171804 l 0.04295,-0.107377 0.171804,-0.04295 q 0.107377,-0.171804 0.128853,-0.19328 0.04295,-0.04295 0.472461,-0.279181 0.0859,-0.150329 0.257706,-0.279182 0.0859,-0.04295 0.214755,-0.0859 l 0.0859,-0.128853 q 0.579838,-0.193279 0.730167,-0.193279 0.171804,0 0.322132,0.0859 l 0.107378,-0.02148 0.150328,0.0859 q 0.257704,0.19328 0.515414,0.322133 l 0.36508,0.279181 v 0.0859 q 0.49394,0.386559 0.49394,1.095251 l -0.0644,0.214755 0.0644,0.708691 -0.19328,0.128853 -0.21476,0.558363 -0.40803,0.450986 -0.0215,0.343608 q -0.687216,0.493936 -1.267055,0.794593 -0.193279,0.300657 -0.601314,0.300657 h -0.06443 l -0.408035,0.257706 h -0.343592 l -0.515412,0.214755 -0.386559,-0.193279 h -0.04295 q -0.04295,0.171804 -0.0859,0.515412 l -0.171804,0.128853 -0.02147,0.257706 -0.128853,0.365083 q 0.06443,0.515412 0.06443,0.665741 l -0.0859,0.06443 q 0,0.279182 -0.02148,0.408035 0,0.02148 -0.02148,0.06443 0,0.04295 0,0.06443 0,0.171804 0.171804,0.279181 0.06443,0.257706 0.214755,0.322133 l 0.150329,0.128853 0.472461,0.128853 v 0.06443 l 0.171804,0.04295 0.730167,0.04295 0.42951,-0.06443 0.214755,-0.150329 0.128853,-0.04295 0.214755,-0.322132 0.107377,-0.02148 0.536888,-0.171804 q 0.0859,-0.150328 0.279186,-0.257706 l 0.0644,-0.107377 q 0.42951,-0.0859 0.49393,-0.450986 0.30066,-0.300657 0.77312,-0.300657 h 0.0859 q 0.40804,0.472461 0.40804,0.773118 z m -2.126077,-6.184944 q 0,-0.06443 -0.06443,-0.257706 l -0.107378,-0.02147 -0.04295,0.02147 q -0.02147,0 -0.0859,0 -0.04295,0.02148 -0.0859,0.02148 -0.02147,0 -0.06443,-0.02148 -0.04295,0 -0.06443,0 l -0.214755,0.150329 -0.193279,0.02148 -0.107378,0.04295 -0.365083,0.472461 -0.236231,0.171804 -0.343608,0.601314 -0.193279,0.128853 q -0.06443,0.365084 -0.300657,0.62279 l -0.0859,0.150328 q 0.23623,-0.150328 0.536887,-0.150328 l 0.150329,-0.06443 0.06443,-0.193279 0.300657,0.02148 0.171804,-0.257706 h 0.128853 l 0.236231,0.0859 0.107377,-0.322132 h 0.150329 v -0.236231 l 0.279181,-0.06443 0.06443,-0.06443 0.04295,-0.193279 0.279181,-0.408035 q 0.04295,-0.107377 0.04295,-0.257706 z"
       id="text1"
       aria-label="Kløpinne" />
  </g>
</svg>
