  0
SECTION
  2
BLOCKS
  0
ENDSEC
  0
SECTION
  2
ENTITIES
  0
LINE
  8
0
 10
41.9189
 20
15.2113
 11
41.7771
 21
15.441
  0
LINE
  8
0
 10
41.7771
 20
15.441
 11
41.6135
 21
15.6556
  0
LINE
  8
0
 10
41.6135
 20
15.6556
 11
41.4297
 21
15.8532
  0
LINE
  8
0
 10
41.4297
 20
15.8532
 11
41.2274
 21
16.0318
  0
LINE
  8
0
 10
41.2274
 20
16.0318
 11
41.0085
 21
16.1897
  0
LINE
  8
0
 10
41.0085
 20
16.1897
 11
40.7753
 21
16.3254
  0
LINE
  8
0
 10
40.7753
 20
16.3254
 11
40.5298
 21
16.4376
  0
LINE
  8
0
 10
40.5298
 20
16.4376
 11
40.2745
 21
16.5252
  0
LINE
  8
0
 10
40.2745
 20
16.5252
 11
40.0119
 21
16.5873
  0
LINE
  8
0
 10
40.0119
 20
16.5873
 11
39.7445
 21
16.6234
  0
LINE
  8
0
 10
39.7445
 20
16.6234
 11
39.4748
 21
16.6331
  0
LINE
  8
0
 10
39.4748
 20
16.6331
 11
39.2054
 21
16.6164
  0
LINE
  8
0
 10
39.2054
 20
16.6164
 11
38.939
 21
16.5733
  0
LINE
  8
0
 10
38.939
 20
16.5733
 11
38.6781
 21
16.5043
  0
LINE
  8
0
 10
38.6781
 20
16.5043
 11
38.4252
 21
16.41
  0
LINE
  8
0
 10
38.4252
 20
16.41
 11
38.1828
 21
16.2915
  0
LINE
  8
0
 10
38.1828
 20
16.2915
 11
37.9532
 21
16.1497
  0
LINE
  8
0
 10
37.9532
 20
16.1497
 11
37.7385
 21
15.9861
  0
LINE
  8
0
 10
37.7385
 20
15.9861
 11
37.5409
 21
15.8023
  0
LINE
  8
0
 10
37.5409
 20
15.8023
 11
37.3623
 21
15.6
  0
LINE
  8
0
 10
37.3623
 20
15.6
 11
37.2044
 21
15.3811
  0
LINE
  8
0
 10
37.2044
 20
15.3811
 11
37.0687
 21
15.1479
  0
LINE
  8
0
 10
37.0687
 20
15.1479
 11
36.9565
 21
14.9024
  0
LINE
  8
0
 10
36.9565
 20
14.9024
 11
36.869
 21
14.6471
  0
LINE
  8
0
 10
36.869
 20
14.6471
 11
36.8068
 21
14.3845
  0
LINE
  8
0
 10
36.8068
 20
14.3845
 11
36.7707
 21
14.1171
  0
LINE
  8
0
 10
36.7707
 20
14.1171
 11
36.761
 21
13.8474
  0
LINE
  8
0
 10
36.761
 20
13.8474
 11
36.7778
 21
13.578
  0
LINE
  8
0
 10
36.7778
 20
13.578
 11
36.8209
 21
13.3116
  0
LINE
  8
0
 10
36.8209
 20
13.3116
 11
36.8899
 21
13.0507
  0
LINE
  8
0
 10
36.8899
 20
13.0507
 11
36.9841
 21
12.7978
  0
LINE
  8
0
 10
36.9841
 20
12.7978
 11
37.1027
 21
12.5554
  0
LINE
  8
0
 10
37.1027
 20
12.5554
 11
37.2444
 21
12.3258
  0
LINE
  8
0
 10
37.2444
 20
12.3258
 11
37.408
 21
12.1111
  0
LINE
  8
0
 10
37.408
 20
12.1111
 11
37.5918
 21
11.9135
  0
LINE
  8
0
 10
37.5918
 20
11.9135
 11
37.7942
 21
11.7349
  0
LINE
  8
0
 10
37.7942
 20
11.7349
 11
38.013
 21
11.577
  0
LINE
  8
0
 10
38.013
 20
11.577
 11
38.2463
 21
11.4413
  0
LINE
  8
0
 10
38.2463
 20
11.4413
 11
38.4917
 21
11.3291
  0
LINE
  8
0
 10
38.4917
 20
11.3291
 11
38.747
 21
11.2416
  0
LINE
  8
0
 10
38.747
 20
11.2416
 11
39.0096
 21
11.1794
  0
LINE
  8
0
 10
39.0096
 20
11.1794
 11
39.2771
 21
11.1433
  0
LINE
  8
0
 10
39.2771
 20
11.1433
 11
39.5468
 21
11.1336
  0
LINE
  8
0
 10
39.5468
 20
11.1336
 11
39.8161
 21
11.1504
  0
LINE
  8
0
 10
39.8161
 20
11.1504
 11
39.8849
 21
11.1615
  0
LINE
  8
0
 10
39.8849
 20
11.1615
 11
40.3131
 21
9.14668
  0
LINE
  8
0
 10
40.3131
 20
9.14668
 11
24.0244
 21
5.6844
  0
LINE
  8
0
 10
24.0244
 20
5.6844
 11
23.8119
 21
5.89246
  0
LINE
  8
0
 10
23.8119
 20
5.89246
 11
22.4497
 21
6.94463
  0
LINE
  8
0
 10
22.4497
 20
6.94463
 11
20.8713
 21
7.9299
  0
LINE
  8
0
 10
20.8713
 20
7.9299
 11
19.0919
 21
8.83882
  0
LINE
  8
0
 10
19.0919
 20
8.83882
 11
17.1286
 21
9.66263
  0
LINE
  8
0
 10
17.1286
 20
9.66263
 11
15.0004
 21
10.3934
  0
LINE
  8
0
 10
15.0004
 20
10.3934
 11
12.7277
 21
11.024
  0
LINE
  8
0
 10
12.7277
 20
11.024
 11
10.3324
 21
11.5485
  0
LINE
  8
0
 10
10.3324
 20
11.5485
 11
7.83768
 21
11.9617
  0
LINE
  8
0
 10
7.83768
 20
11.9617
 11
5.26743
 21
12.2598
  0
LINE
  8
0
 10
5.26743
 20
12.2598
 11
2.64645
 21
12.4398
  0
LINE
  8
0
 10
2.64645
 20
12.4398
 11
0
 21
12.5
  0
LINE
  8
0
 10
0
 20
12.5
 11
-2.64645
 21
12.4398
  0
LINE
  8
0
 10
-2.64645
 20
12.4398
 11
-5.26743
 21
12.2598
  0
LINE
  8
0
 10
-5.26743
 20
12.2598
 11
-7.83768
 21
11.9617
  0
LINE
  8
0
 10
-7.83768
 20
11.9617
 11
-10.3324
 21
11.5485
  0
LINE
  8
0
 10
-10.3324
 20
11.5485
 11
-12.7277
 21
11.024
  0
LINE
  8
0
 10
-12.7277
 20
11.024
 11
-15.0004
 21
10.3934
  0
LINE
  8
0
 10
-15.0004
 20
10.3934
 11
-17.1286
 21
9.66263
  0
LINE
  8
0
 10
-17.1286
 20
9.66263
 11
-19.0919
 21
8.83882
  0
LINE
  8
0
 10
-19.0919
 20
8.83882
 11
-20.8713
 21
7.9299
  0
LINE
  8
0
 10
-20.8713
 20
7.9299
 11
-22.4497
 21
6.94463
  0
LINE
  8
0
 10
-22.4497
 20
6.94463
 11
-23.8119
 21
5.89246
  0
LINE
  8
0
 10
-23.8119
 20
5.89246
 11
-24.0244
 21
5.6844
  0
LINE
  8
0
 10
-24.0244
 20
5.6844
 11
-40.3131
 21
9.14668
  0
LINE
  8
0
 10
-40.3131
 20
9.14668
 11
-39.8849
 21
11.1615
  0
LINE
  8
0
 10
-39.8849
 20
11.1615
 11
-39.8161
 21
11.1504
  0
LINE
  8
0
 10
-39.8161
 20
11.1504
 11
-39.5468
 21
11.1336
  0
LINE
  8
0
 10
-39.5468
 20
11.1336
 11
-39.2771
 21
11.1433
  0
LINE
  8
0
 10
-39.2771
 20
11.1433
 11
-39.0096
 21
11.1794
  0
LINE
  8
0
 10
-39.0096
 20
11.1794
 11
-38.747
 21
11.2416
  0
LINE
  8
0
 10
-38.747
 20
11.2416
 11
-38.4917
 21
11.3291
  0
LINE
  8
0
 10
-38.4917
 20
11.3291
 11
-38.2463
 21
11.4413
  0
LINE
  8
0
 10
-38.2463
 20
11.4413
 11
-38.013
 21
11.577
  0
LINE
  8
0
 10
-38.013
 20
11.577
 11
-37.7942
 21
11.7349
  0
LINE
  8
0
 10
-37.7942
 20
11.7349
 11
-37.5918
 21
11.9135
  0
LINE
  8
0
 10
-37.5918
 20
11.9135
 11
-37.408
 21
12.1111
  0
LINE
  8
0
 10
-37.408
 20
12.1111
 11
-37.2444
 21
12.3258
  0
LINE
  8
0
 10
-37.2444
 20
12.3258
 11
-37.1027
 21
12.5554
  0
LINE
  8
0
 10
-37.1027
 20
12.5554
 11
-36.9841
 21
12.7978
  0
LINE
  8
0
 10
-36.9841
 20
12.7978
 11
-36.8899
 21
13.0507
  0
LINE
  8
0
 10
-36.8899
 20
13.0507
 11
-36.8209
 21
13.3116
  0
LINE
  8
0
 10
-36.8209
 20
13.3116
 11
-36.7778
 21
13.578
  0
LINE
  8
0
 10
-36.7778
 20
13.578
 11
-36.761
 21
13.8474
  0
LINE
  8
0
 10
-36.761
 20
13.8474
 11
-36.7707
 21
14.1171
  0
LINE
  8
0
 10
-36.7707
 20
14.1171
 11
-36.8068
 21
14.3845
  0
LINE
  8
0
 10
-36.8068
 20
14.3845
 11
-36.869
 21
14.6471
  0
LINE
  8
0
 10
-36.869
 20
14.6471
 11
-36.9565
 21
14.9024
  0
LINE
  8
0
 10
-36.9565
 20
14.9024
 11
-37.0687
 21
15.1479
  0
LINE
  8
0
 10
-37.0687
 20
15.1479
 11
-37.2044
 21
15.3811
  0
LINE
  8
0
 10
-37.2044
 20
15.3811
 11
-37.3623
 21
15.6
  0
LINE
  8
0
 10
-37.3623
 20
15.6
 11
-37.5409
 21
15.8023
  0
LINE
  8
0
 10
-37.5409
 20
15.8023
 11
-37.7385
 21
15.9861
  0
LINE
  8
0
 10
-37.7385
 20
15.9861
 11
-37.9532
 21
16.1497
  0
LINE
  8
0
 10
-37.9532
 20
16.1497
 11
-38.1828
 21
16.2915
  0
LINE
  8
0
 10
-38.1828
 20
16.2915
 11
-38.4252
 21
16.41
  0
LINE
  8
0
 10
-38.4252
 20
16.41
 11
-38.6781
 21
16.5043
  0
LINE
  8
0
 10
-38.6781
 20
16.5043
 11
-38.939
 21
16.5733
  0
LINE
  8
0
 10
-38.939
 20
16.5733
 11
-39.2054
 21
16.6164
  0
LINE
  8
0
 10
-39.2054
 20
16.6164
 11
-39.4748
 21
16.6331
  0
LINE
  8
0
 10
-39.4748
 20
16.6331
 11
-39.7445
 21
16.6234
  0
LINE
  8
0
 10
-39.7445
 20
16.6234
 11
-40.0119
 21
16.5873
  0
LINE
  8
0
 10
-40.0119
 20
16.5873
 11
-40.2745
 21
16.5252
  0
LINE
  8
0
 10
-40.2745
 20
16.5252
 11
-40.5298
 21
16.4376
  0
LINE
  8
0
 10
-40.5298
 20
16.4376
 11
-40.7753
 21
16.3254
  0
LINE
  8
0
 10
-40.7753
 20
16.3254
 11
-41.0085
 21
16.1897
  0
LINE
  8
0
 10
-41.0085
 20
16.1897
 11
-41.2274
 21
16.0318
  0
LINE
  8
0
 10
-41.2274
 20
16.0318
 11
-41.4297
 21
15.8532
  0
LINE
  8
0
 10
-41.4297
 20
15.8532
 11
-41.6135
 21
15.6556
  0
LINE
  8
0
 10
-41.6135
 20
15.6556
 11
-41.7771
 21
15.441
  0
LINE
  8
0
 10
-41.7771
 20
15.441
 11
-41.9189
 21
15.2113
  0
LINE
  8
0
 10
-41.9189
 20
15.2113
 11
-42.0374
 21
14.9689
  0
LINE
  8
0
 10
-42.0374
 20
14.9689
 11
-42.1317
 21
14.716
  0
LINE
  8
0
 10
-42.1317
 20
14.716
 11
-42.2007
 21
14.4551
  0
LINE
  8
0
 10
-42.2007
 20
14.4551
 11
-42.2496
 21
14.4655
  0
LINE
  8
0
 10
-42.2496
 20
14.4655
 11
-43.2476
 21
9.77042
  0
LINE
  8
0
 10
-43.2476
 20
9.77042
 11
-52.0509
 21
11.6416
  0
LINE
  8
0
 10
-52.0509
 20
11.6416
 11
-51.6226
 21
13.6564
  0
LINE
  8
0
 10
-51.6226
 20
13.6564
 11
-51.5539
 21
13.6453
  0
LINE
  8
0
 10
-51.5539
 20
13.6453
 11
-51.2845
 21
13.6286
  0
LINE
  8
0
 10
-51.2845
 20
13.6286
 11
-51.0148
 21
13.6383
  0
LINE
  8
0
 10
-51.0148
 20
13.6383
 11
-50.7474
 21
13.6744
  0
LINE
  8
0
 10
-50.7474
 20
13.6744
 11
-50.4848
 21
13.7365
  0
LINE
  8
0
 10
-50.4848
 20
13.7365
 11
-50.2295
 21
13.8241
  0
LINE
  8
0
 10
-50.2295
 20
13.8241
 11
-49.9841
 21
13.9363
  0
LINE
  8
0
 10
-49.9841
 20
13.9363
 11
-49.7508
 21
14.072
  0
LINE
  8
0
 10
-49.7508
 20
14.072
 11
-49.5319
 21
14.2299
  0
LINE
  8
0
 10
-49.5319
 20
14.2299
 11
-49.3296
 21
14.4085
  0
LINE
  8
0
 10
-49.3296
 20
14.4085
 11
-49.1458
 21
14.606
  0
LINE
  8
0
 10
-49.1458
 20
14.606
 11
-48.9822
 21
14.8207
  0
LINE
  8
0
 10
-48.9822
 20
14.8207
 11
-48.8404
 21
15.0503
  0
LINE
  8
0
 10
-48.8404
 20
15.0503
 11
-48.7219
 21
15.2928
  0
LINE
  8
0
 10
-48.7219
 20
15.2928
 11
-48.6276
 21
15.5457
  0
LINE
  8
0
 10
-48.6276
 20
15.5457
 11
-48.5586
 21
15.8065
  0
LINE
  8
0
 10
-48.5586
 20
15.8065
 11
-48.5155
 21
16.073
  0
LINE
  8
0
 10
-48.5155
 20
16.073
 11
-48.4988
 21
16.3423
  0
LINE
  8
0
 10
-48.4988
 20
16.3423
 11
-48.5085
 21
16.612
  0
LINE
  8
0
 10
-48.5085
 20
16.612
 11
-48.5446
 21
16.8795
  0
LINE
  8
0
 10
-48.5446
 20
16.8795
 11
-48.6067
 21
17.1421
  0
LINE
  8
0
 10
-48.6067
 20
17.1421
 11
-48.6943
 21
17.3974
  0
LINE
  8
0
 10
-48.6943
 20
17.3974
 11
-48.8065
 21
17.6428
  0
LINE
  8
0
 10
-48.8065
 20
17.6428
 11
-48.9422
 21
17.8761
  0
LINE
  8
0
 10
-48.9422
 20
17.8761
 11
-49.1001
 21
18.0949
  0
LINE
  8
0
 10
-49.1001
 20
18.0949
 11
-49.2787
 21
18.2972
  0
LINE
  8
0
 10
-49.2787
 20
18.2972
 11
-49.4763
 21
18.4811
  0
LINE
  8
0
 10
-49.4763
 20
18.4811
 11
-49.6909
 21
18.6447
  0
LINE
  8
0
 10
-49.6909
 20
18.6447
 11
-49.9206
 21
18.7864
  0
LINE
  8
0
 10
-49.9206
 20
18.7864
 11
-50.163
 21
18.905
  0
LINE
  8
0
 10
-50.163
 20
18.905
 11
-50.4159
 21
18.9992
  0
LINE
  8
0
 10
-50.4159
 20
18.9992
 11
-50.6768
 21
19.0682
  0
LINE
  8
0
 10
-50.6768
 20
19.0682
 11
-50.9432
 21
19.1113
  0
LINE
  8
0
 10
-50.9432
 20
19.1113
 11
-51.2125
 21
19.1281
  0
LINE
  8
0
 10
-51.2125
 20
19.1281
 11
-51.4822
 21
19.1184
  0
LINE
  8
0
 10
-51.4822
 20
19.1184
 11
-51.7497
 21
19.0823
  0
LINE
  8
0
 10
-51.7497
 20
19.0823
 11
-52.0123
 21
19.0201
  0
LINE
  8
0
 10
-52.0123
 20
19.0201
 11
-52.2676
 21
18.9325
  0
LINE
  8
0
 10
-52.2676
 20
18.9325
 11
-52.513
 21
18.8204
  0
LINE
  8
0
 10
-52.513
 20
18.8204
 11
-52.7463
 21
18.6847
  0
LINE
  8
0
 10
-52.7463
 20
18.6847
 11
-52.9651
 21
18.5267
  0
LINE
  8
0
 10
-52.9651
 20
18.5267
 11
-53.1675
 21
18.3481
  0
LINE
  8
0
 10
-53.1675
 20
18.3481
 11
-53.3513
 21
18.1506
  0
LINE
  8
0
 10
-53.3513
 20
18.1506
 11
-53.5149
 21
17.9359
  0
LINE
  8
0
 10
-53.5149
 20
17.9359
 11
-53.6566
 21
17.7063
  0
LINE
  8
0
 10
-53.6566
 20
17.7063
 11
-53.7752
 21
17.4639
  0
LINE
  8
0
 10
-53.7752
 20
17.4639
 11
-53.8694
 21
17.211
  0
LINE
  8
0
 10
-53.8694
 20
17.211
 11
-53.9384
 21
16.9501
  0
LINE
  8
0
 10
-53.9384
 20
16.9501
 11
-53.9874
 21
16.9605
  0
LINE
  8
0
 10
-53.9874
 20
16.9605
 11
-54.9853
 21
12.2654
  0
LINE
  8
0
 10
-54.9853
 20
12.2654
 11
-63.7887
 21
14.1366
  0
LINE
  8
0
 10
-63.7887
 20
14.1366
 11
-63.3604
 21
16.1514
  0
LINE
  8
0
 10
-63.3604
 20
16.1514
 11
-63.2917
 21
16.1403
  0
LINE
  8
0
 10
-63.2917
 20
16.1403
 11
-63.0223
 21
16.1235
  0
LINE
  8
0
 10
-63.0223
 20
16.1235
 11
-62.7526
 21
16.1332
  0
LINE
  8
0
 10
-62.7526
 20
16.1332
 11
-62.4852
 21
16.1693
  0
LINE
  8
0
 10
-62.4852
 20
16.1693
 11
-62.2225
 21
16.2314
  0
LINE
  8
0
 10
-62.2225
 20
16.2314
 11
-61.9673
 21
16.319
  0
LINE
  8
0
 10
-61.9673
 20
16.319
 11
-61.7218
 21
16.4312
  0
LINE
  8
0
 10
-61.7218
 20
16.4312
 11
-61.4886
 21
16.5669
  0
LINE
  8
0
 10
-61.4886
 20
16.5669
 11
-61.2697
 21
16.7248
  0
LINE
  8
0
 10
-61.2697
 20
16.7248
 11
-61.0674
 21
16.9034
  0
LINE
  8
0
 10
-61.0674
 20
16.9034
 11
-60.8835
 21
17.101
  0
LINE
  8
0
 10
-60.8835
 20
17.101
 11
-60.72
 21
17.3156
  0
LINE
  8
0
 10
-60.72
 20
17.3156
 11
-60.5782
 21
17.5453
  0
LINE
  8
0
 10
-60.5782
 20
17.5453
 11
-60.4596
 21
17.7877
  0
LINE
  8
0
 10
-60.4596
 20
17.7877
 11
-60.3654
 21
18.0406
  0
LINE
  8
0
 10
-60.3654
 20
18.0406
 11
-60.2964
 21
18.3015
  0
LINE
  8
0
 10
-60.2964
 20
18.3015
 11
-60.2533
 21
18.5679
  0
LINE
  8
0
 10
-60.2533
 20
18.5679
 11
-60.2365
 21
18.8373
  0
LINE
  8
0
 10
-60.2365
 20
18.8373
 11
-60.2463
 21
19.1069
  0
LINE
  8
0
 10
-60.2463
 20
19.1069
 11
-60.2824
 21
19.3744
  0
LINE
  8
0
 10
-60.2824
 20
19.3744
 11
-60.3445
 21
19.637
  0
LINE
  8
0
 10
-60.3445
 20
19.637
 11
-60.4321
 21
19.8923
  0
LINE
  8
0
 10
-60.4321
 20
19.8923
 11
-60.5443
 21
20.1377
  0
LINE
  8
0
 10
-60.5443
 20
20.1377
 11
-60.68
 21
20.371
  0
LINE
  8
0
 10
-60.68
 20
20.371
 11
-60.8379
 21
20.5899
  0
LINE
  8
0
 10
-60.8379
 20
20.5899
 11
-61.0165
 21
20.7922
  0
LINE
  8
0
 10
-61.0165
 20
20.7922
 11
-61.2141
 21
20.976
  0
LINE
  8
0
 10
-61.2141
 20
20.976
 11
-61.4287
 21
21.1396
  0
LINE
  8
0
 10
-61.4287
 20
21.1396
 11
-61.6583
 21
21.2814
  0
LINE
  8
0
 10
-61.6583
 20
21.2814
 11
-61.9008
 21
21.3999
  0
LINE
  8
0
 10
-61.9008
 20
21.3999
 11
-62.1537
 21
21.4942
  0
LINE
  8
0
 10
-62.1537
 20
21.4942
 11
-62.4146
 21
21.5632
  0
LINE
  8
0
 10
-62.4146
 20
21.5632
 11
-62.681
 21
21.6062
  0
LINE
  8
0
 10
-62.681
 20
21.6062
 11
-62.9503
 21
21.623
  0
LINE
  8
0
 10
-62.9503
 20
21.623
 11
-63.22
 21
21.6133
  0
LINE
  8
0
 10
-63.22
 20
21.6133
 11
-63.4875
 21
21.5772
  0
LINE
  8
0
 10
-63.4875
 20
21.5772
 11
-63.7501
 21
21.5151
  0
LINE
  8
0
 10
-63.7501
 20
21.5151
 11
-64.0053
 21
21.4275
  0
LINE
  8
0
 10
-64.0053
 20
21.4275
 11
-64.2508
 21
21.3153
  0
LINE
  8
0
 10
-64.2508
 20
21.3153
 11
-64.4841
 21
21.1796
  0
LINE
  8
0
 10
-64.4841
 20
21.1796
 11
-64.7029
 21
21.0217
  0
LINE
  8
0
 10
-64.7029
 20
21.0217
 11
-64.9052
 21
20.8431
  0
LINE
  8
0
 10
-64.9052
 20
20.8431
 11
-65.0891
 21
20.6455
  0
LINE
  8
0
 10
-65.0891
 20
20.6455
 11
-65.2527
 21
20.4309
  0
LINE
  8
0
 10
-65.2527
 20
20.4309
 11
-65.3944
 21
20.2012
  0
LINE
  8
0
 10
-65.3944
 20
20.2012
 11
-65.513
 21
19.9588
  0
LINE
  8
0
 10
-65.513
 20
19.9588
 11
-65.6072
 21
19.7059
  0
LINE
  8
0
 10
-65.6072
 20
19.7059
 11
-65.6762
 21
19.445
  0
LINE
  8
0
 10
-65.6762
 20
19.445
 11
-65.7251
 21
19.4554
  0
LINE
  8
0
 10
-65.7251
 20
19.4554
 11
-69.8834
 21
-0.107529
  0
LINE
  8
0
 10
-69.8834
 20
-0.107529
 11
-69.8026
 21
-0.124695
  0
LINE
  8
0
 10
-69.8026
 20
-0.124695
 11
-69.8111
 21
-0.262421
  0
LINE
  8
0
 10
-69.8111
 20
-0.262421
 11
-69.8014
 21
-0.53212
  0
LINE
  8
0
 10
-69.8014
 20
-0.53212
 11
-69.7653
 21
-0.799576
  0
LINE
  8
0
 10
-69.7653
 20
-0.799576
 11
-69.7032
 21
-1.06219
  0
LINE
  8
0
 10
-69.7032
 20
-1.06219
 11
-69.6156
 21
-1.31746
  0
LINE
  8
0
 10
-69.6156
 20
-1.31746
 11
-69.5034
 21
-1.56291
  0
LINE
  8
0
 10
-69.5034
 20
-1.56291
 11
-69.3677
 21
-1.79617
  0
LINE
  8
0
 10
-69.3677
 20
-1.79617
 11
-69.2098
 21
-2.01503
  0
LINE
  8
0
 10
-69.2098
 20
-2.01503
 11
-69.0312
 21
-2.21735
  0
LINE
  8
0
 10
-69.0312
 20
-2.21735
 11
-68.8336
 21
-2.40118
  0
LINE
  8
0
 10
-68.8336
 20
-2.40118
 11
-68.619
 21
-2.56477
  0
LINE
  8
0
 10
-68.619
 20
-2.56477
 11
-68.3894
 21
-2.70653
  0
LINE
  8
0
 10
-68.3894
 20
-2.70653
 11
-68.1469
 21
-2.8251
  0
LINE
  8
0
 10
-68.1469
 20
-2.8251
 11
-67.894
 21
-2.91934
  0
LINE
  8
0
 10
-67.894
 20
-2.91934
 11
-67.6331
 21
-2.98833
  0
LINE
  8
0
 10
-67.6331
 20
-2.98833
 11
-67.3667
 21
-3.03142
  0
LINE
  8
0
 10
-67.3667
 20
-3.03142
 11
-67.0974
 21
-3.04819
  0
LINE
  8
0
 10
-67.0974
 20
-3.04819
 11
-66.8277
 21
-3.03847
  0
LINE
  8
0
 10
-66.8277
 20
-3.03847
 11
-66.5602
 21
-3.00238
  0
LINE
  8
0
 10
-66.5602
 20
-3.00238
 11
-66.2976
 21
-2.94023
  0
LINE
  8
0
 10
-66.2976
 20
-2.94023
 11
-66.0424
 21
-2.85265
  0
LINE
  8
0
 10
-66.0424
 20
-2.85265
 11
-65.7969
 21
-2.74046
  0
LINE
  8
0
 10
-65.7969
 20
-2.74046
 11
-65.5636
 21
-2.60477
  0
LINE
  8
0
 10
-65.5636
 20
-2.60477
 11
-65.3448
 21
-2.44685
  0
LINE
  8
0
 10
-65.3448
 20
-2.44685
 11
-65.1425
 21
-2.26825
  0
LINE
  8
0
 10
-65.1425
 20
-2.26825
 11
-64.9586
 21
-2.07068
  0
LINE
  8
0
 10
-64.9586
 20
-2.07068
 11
-64.795
 21
-1.85603
  0
LINE
  8
0
 10
-64.795
 20
-1.85603
 11
-64.6533
 21
-1.6264
  0
LINE
  8
0
 10
-64.6533
 20
-1.6264
 11
-64.5347
 21
-1.38397
  0
LINE
  8
0
 10
-64.5347
 20
-1.38397
 11
-64.4405
 21
-1.13109
  0
LINE
  8
0
 10
-64.4405
 20
-1.13109
 11
-64.3715
 21
-0.870178
  0
LINE
  8
0
 10
-64.3715
 20
-0.870178
 11
-64.3284
 21
-0.603775
  0
LINE
  8
0
 10
-64.3284
 20
-0.603775
 11
-64.3116
 21
-0.334427
  0
LINE
  8
0
 10
-64.3116
 20
-0.334427
 11
-64.3213
 21
-0.0647278
  0
LINE
  8
0
 10
-64.3213
 20
-0.0647278
 11
-64.3574
 21
0.202713
  0
LINE
  8
0
 10
-64.3574
 20
0.202713
 11
-64.4196
 21
0.465332
  0
LINE
  8
0
 10
-64.4196
 20
0.465332
 11
-64.5072
 21
0.720596
  0
LINE
  8
0
 10
-64.5072
 20
0.720596
 11
-64.6193
 21
0.966049
  0
LINE
  8
0
 10
-64.6193
 20
0.966049
 11
-64.755
 21
1.19933
  0
LINE
  8
0
 10
-64.755
 20
1.19933
 11
-64.9129
 21
1.41817
  0
LINE
  8
0
 10
-64.9129
 20
1.41817
 11
-65.0916
 21
1.62048
  0
LINE
  8
0
 10
-65.0916
 20
1.62048
 11
-65.2891
 21
1.80432
  0
LINE
  8
0
 10
-65.2891
 20
1.80432
 11
-65.5038
 21
1.96791
  0
LINE
  8
0
 10
-65.5038
 20
1.96791
 11
-65.7334
 21
2.10966
  0
LINE
  8
0
 10
-65.7334
 20
2.10966
 11
-65.9758
 21
2.22824
  0
LINE
  8
0
 10
-65.9758
 20
2.22824
 11
-66.2287
 21
2.32248
  0
LINE
  8
0
 10
-66.2287
 20
2.32248
 11
-66.296
 21
2.34027
  0
LINE
  8
0
 10
-66.296
 20
2.34027
 11
-65.8678
 21
4.35509
  0
LINE
  8
0
 10
-65.8678
 20
4.35509
 11
-57.0645
 21
2.48389
  0
LINE
  8
0
 10
-57.0645
 20
2.48389
 11
-58.1456
 21
-2.60246
  0
LINE
  8
0
 10
-58.1456
 20
-2.60246
 11
-58.0648
 21
-2.61964
  0
LINE
  8
0
 10
-58.0648
 20
-2.61964
 11
-58.0734
 21
-2.75737
  0
LINE
  8
0
 10
-58.0734
 20
-2.75737
 11
-58.0637
 21
-3.02707
  0
LINE
  8
0
 10
-58.0637
 20
-3.02707
 11
-58.0276
 21
-3.29451
  0
LINE
  8
0
 10
-58.0276
 20
-3.29451
 11
-57.9654
 21
-3.55713
  0
LINE
  8
0
 10
-57.9654
 20
-3.55713
 11
-57.8778
 21
-3.81239
  0
LINE
  8
0
 10
-57.8778
 20
-3.81239
 11
-57.7657
 21
-4.05785
  0
LINE
  8
0
 10
-57.7657
 20
-4.05785
 11
-57.63
 21
-4.29112
  0
LINE
  8
0
 10
-57.63
 20
-4.29112
 11
-57.472
 21
-4.50996
  0
LINE
  8
0
 10
-57.472
 20
-4.50996
 11
-57.2934
 21
-4.71228
  0
LINE
  8
0
 10
-57.2934
 20
-4.71228
 11
-57.0959
 21
-4.89612
  0
LINE
  8
0
 10
-57.0959
 20
-4.89612
 11
-56.8812
 21
-5.05971
  0
LINE
  8
0
 10
-56.8812
 20
-5.05971
 11
-56.6516
 21
-5.20148
  0
LINE
  8
0
 10
-56.6516
 20
-5.20148
 11
-56.4091
 21
-5.32004
  0
LINE
  8
0
 10
-56.4091
 20
-5.32004
 11
-56.1563
 21
-5.41428
  0
LINE
  8
0
 10
-56.1563
 20
-5.41428
 11
-55.8954
 21
-5.48328
  0
LINE
  8
0
 10
-55.8954
 20
-5.48328
 11
-55.629
 21
-5.52635
  0
LINE
  8
0
 10
-55.629
 20
-5.52635
 11
-55.3596
 21
-5.54312
  0
LINE
  8
0
 10
-55.3596
 20
-5.54312
 11
-55.0899
 21
-5.53342
  0
LINE
  8
0
 10
-55.0899
 20
-5.53342
 11
-54.8225
 21
-5.49731
  0
LINE
  8
0
 10
-54.8225
 20
-5.49731
 11
-54.5598
 21
-5.43517
  0
LINE
  8
0
 10
-54.5598
 20
-5.43517
 11
-54.3046
 21
-5.3476
  0
LINE
  8
0
 10
-54.3046
 20
-5.3476
 11
-54.0591
 21
-5.23541
  0
LINE
  8
0
 10
-54.0591
 20
-5.23541
 11
-53.8259
 21
-5.0997
  0
LINE
  8
0
 10
-53.8259
 20
-5.0997
 11
-53.607
 21
-4.9418
  0
LINE
  8
0
 10
-53.607
 20
-4.9418
 11
-53.4047
 21
-4.7632
  0
LINE
  8
0
 10
-53.4047
 20
-4.7632
 11
-53.2209
 21
-4.56563
  0
LINE
  8
0
 10
-53.2209
 20
-4.56563
 11
-53.0573
 21
-4.35098
  0
LINE
  8
0
 10
-53.0573
 20
-4.35098
 11
-52.9155
 21
-4.12134
  0
LINE
  8
0
 10
-52.9155
 20
-4.12134
 11
-52.7969
 21
-3.87891
  0
LINE
  8
0
 10
-52.7969
 20
-3.87891
 11
-52.7027
 21
-3.62602
  0
LINE
  8
0
 10
-52.7027
 20
-3.62602
 11
-52.6337
 21
-3.36513
  0
LINE
  8
0
 10
-52.6337
 20
-3.36513
 11
-52.5906
 21
-3.09871
  0
LINE
  8
0
 10
-52.5906
 20
-3.09871
 11
-52.5739
 21
-2.82936
  0
LINE
  8
0
 10
-52.5739
 20
-2.82936
 11
-52.5836
 21
-2.55966
  0
LINE
  8
0
 10
-52.5836
 20
-2.55966
 11
-52.6197
 21
-2.29222
  0
LINE
  8
0
 10
-52.6197
 20
-2.29222
 11
-52.6818
 21
-2.0296
  0
LINE
  8
0
 10
-52.6818
 20
-2.0296
 11
-52.7694
 21
-1.77434
  0
LINE
  8
0
 10
-52.7694
 20
-1.77434
 11
-52.8816
 21
-1.52888
  0
LINE
  8
0
 10
-52.8816
 20
-1.52888
 11
-53.0173
 21
-1.29561
  0
LINE
  8
0
 10
-53.0173
 20
-1.29561
 11
-53.1752
 21
-1.07675
  0
LINE
  8
0
 10
-53.1752
 20
-1.07675
 11
-53.3538
 21
-0.874435
  0
LINE
  8
0
 10
-53.3538
 20
-0.874435
 11
-53.5513
 21
-0.690598
  0
LINE
  8
0
 10
-53.5513
 20
-0.690598
 11
-53.766
 21
-0.527023
  0
LINE
  8
0
 10
-53.766
 20
-0.527023
 11
-53.9956
 21
-0.385254
  0
LINE
  8
0
 10
-53.9956
 20
-0.385254
 11
-54.2381
 21
-0.266693
  0
LINE
  8
0
 10
-54.2381
 20
-0.266693
 11
-54.491
 21
-0.172455
  0
LINE
  8
0
 10
-54.491
 20
-0.172455
 11
-54.5583
 21
-0.154648
  0
LINE
  8
0
 10
-54.5583
 20
-0.154648
 11
-54.13
 21
1.86015
  0
LINE
  8
0
 10
-54.13
 20
1.86015
 11
-45.3267
 21
-0.0110474
  0
LINE
  8
0
 10
-45.3267
 20
-0.0110474
 11
-46.4078
 21
-5.09741
  0
LINE
  8
0
 10
-46.4078
 20
-5.09741
 11
-46.327
 21
-5.11458
  0
LINE
  8
0
 10
-46.327
 20
-5.11458
 11
-46.3356
 21
-5.2523
  0
LINE
  8
0
 10
-46.3356
 20
-5.2523
 11
-46.3259
 21
-5.522
  0
LINE
  8
0
 10
-46.3259
 20
-5.522
 11
-46.2898
 21
-5.78946
  0
LINE
  8
0
 10
-46.2898
 20
-5.78946
 11
-46.2276
 21
-6.05208
  0
LINE
  8
0
 10
-46.2276
 20
-6.05208
 11
-46.1401
 21
-6.30734
  0
LINE
  8
0
 10
-46.1401
 20
-6.30734
 11
-46.0279
 21
-6.5528
  0
LINE
  8
0
 10
-46.0279
 20
-6.5528
 11
-45.8922
 21
-6.78606
  0
LINE
  8
0
 10
-45.8922
 20
-6.78606
 11
-45.7343
 21
-7.00491
  0
LINE
  8
0
 10
-45.7343
 20
-7.00491
 11
-45.5557
 21
-7.20723
  0
LINE
  8
0
 10
-45.5557
 20
-7.20723
 11
-45.3581
 21
-7.39107
  0
LINE
  8
0
 10
-45.3581
 20
-7.39107
 11
-45.1435
 21
-7.55466
  0
LINE
  8
0
 10
-45.1435
 20
-7.55466
 11
-44.9138
 21
-7.69641
  0
LINE
  8
0
 10
-44.9138
 20
-7.69641
 11
-44.6714
 21
-7.81499
  0
LINE
  8
0
 10
-44.6714
 20
-7.81499
 11
-44.4185
 21
-7.90921
  0
LINE
  8
0
 10
-44.4185
 20
-7.90921
 11
-44.1576
 21
-7.97821
  0
LINE
  8
0
 10
-44.1576
 20
-7.97821
 11
-43.8912
 21
-8.0213
  0
LINE
  8
0
 10
-43.8912
 20
-8.0213
 11
-43.6218
 21
-8.03807
  0
LINE
  8
0
 10
-43.6218
 20
-8.03807
 11
-43.3521
 21
-8.02835
  0
LINE
  8
0
 10
-43.3521
 20
-8.02835
 11
-43.0847
 21
-7.99225
  0
LINE
  8
0
 10
-43.0847
 20
-7.99225
 11
-42.8221
 21
-7.93011
  0
LINE
  8
0
 10
-42.8221
 20
-7.93011
 11
-42.5668
 21
-7.84253
  0
LINE
  8
0
 10
-42.5668
 20
-7.84253
 11
-42.3214
 21
-7.73035
  0
LINE
  8
0
 10
-42.3214
 20
-7.73035
 11
-42.0881
 21
-7.59465
  0
LINE
  8
0
 10
-42.0881
 20
-7.59465
 11
-41.8692
 21
-7.43674
  0
LINE
  8
0
 10
-41.8692
 20
-7.43674
 11
-41.6669
 21
-7.25813
  0
LINE
  8
0
 10
-41.6669
 20
-7.25813
 11
-41.4831
 21
-7.06056
  0
LINE
  8
0
 10
-41.4831
 20
-7.06056
 11
-41.3195
 21
-6.84592
  0
LINE
  8
0
 10
-41.3195
 20
-6.84592
 11
-41.1777
 21
-6.61629
  0
LINE
  8
0
 10
-41.1777
 20
-6.61629
 11
-41.0592
 21
-6.37386
  0
LINE
  8
0
 10
-41.0592
 20
-6.37386
 11
-40.9649
 21
-6.12097
  0
LINE
  8
0
 10
-40.9649
 20
-6.12097
 11
-40.8959
 21
-5.86006
  0
LINE
  8
0
 10
-40.8959
 20
-5.86006
 11
-40.8528
 21
-5.59366
  0
LINE
  8
0
 10
-40.8528
 20
-5.59366
 11
-40.8361
 21
-5.3243
  0
LINE
  8
0
 10
-40.8361
 20
-5.3243
 11
-40.8458
 21
-5.0546
  0
LINE
  8
0
 10
-40.8458
 20
-5.0546
 11
-40.8819
 21
-4.78716
  0
LINE
  8
0
 10
-40.8819
 20
-4.78716
 11
-40.944
 21
-4.52454
  0
LINE
  8
0
 10
-40.944
 20
-4.52454
 11
-41.0316
 21
-4.26927
  0
LINE
  8
0
 10
-41.0316
 20
-4.26927
 11
-41.1438
 21
-4.02382
  0
LINE
  8
0
 10
-41.1438
 20
-4.02382
 11
-41.2795
 21
-3.79054
  0
LINE
  8
0
 10
-41.2795
 20
-3.79054
 11
-41.4374
 21
-3.5717
  0
LINE
  8
0
 10
-41.4374
 20
-3.5717
 11
-41.616
 21
-3.36938
  0
LINE
  8
0
 10
-41.616
 20
-3.36938
 11
-41.8136
 21
-3.18555
  0
LINE
  8
0
 10
-41.8136
 20
-3.18555
 11
-42.0282
 21
-3.02196
  0
LINE
  8
0
 10
-42.0282
 20
-3.02196
 11
-42.2579
 21
-2.8802
  0
LINE
  8
0
 10
-42.2579
 20
-2.8802
 11
-42.5003
 21
-2.76163
  0
LINE
  8
0
 10
-42.5003
 20
-2.76163
 11
-42.7532
 21
-2.66739
  0
LINE
  8
0
 10
-42.7532
 20
-2.66739
 11
-42.8205
 21
-2.64958
  0
LINE
  8
0
 10
-42.8205
 20
-2.64958
 11
-42.3922
 21
-0.634781
  0
LINE
  8
0
 10
-42.3922
 20
-0.634781
 11
-25.3518
 21
-4.25684
  0
LINE
  8
0
 10
-25.3518
 20
-4.25684
 11
-24.9447
 21
-4.78354
  0
LINE
  8
0
 10
-24.9447
 20
-4.78354
 11
-23.8119
 21
-5.89246
  0
LINE
  8
0
 10
-23.8119
 20
-5.89246
 11
-22.4497
 21
-6.94463
  0
LINE
  8
0
 10
-22.4497
 20
-6.94463
 11
-20.8713
 21
-7.9299
  0
LINE
  8
0
 10
-20.8713
 20
-7.9299
 11
-19.0919
 21
-8.83882
  0
LINE
  8
0
 10
-19.0919
 20
-8.83882
 11
-17.1286
 21
-9.66263
  0
LINE
  8
0
 10
-17.1286
 20
-9.66263
 11
-15.0004
 21
-10.3934
  0
LINE
  8
0
 10
-15.0004
 20
-10.3934
 11
-12.7277
 21
-11.024
  0
LINE
  8
0
 10
-12.7277
 20
-11.024
 11
-10.3324
 21
-11.5485
  0
LINE
  8
0
 10
-10.3324
 20
-11.5485
 11
-7.83768
 21
-11.9617
  0
LINE
  8
0
 10
-7.83768
 20
-11.9617
 11
-5.26743
 21
-12.2598
  0
LINE
  8
0
 10
-5.26743
 20
-12.2598
 11
-2.64645
 21
-12.4398
  0
LINE
  8
0
 10
-2.64645
 20
-12.4398
 11
0
 21
-12.5
  0
LINE
  8
0
 10
0
 20
-12.5
 11
2.64645
 21
-12.4398
  0
LINE
  8
0
 10
2.64645
 20
-12.4398
 11
5.26743
 21
-12.2598
  0
LINE
  8
0
 10
5.26743
 20
-12.2598
 11
7.83768
 21
-11.9617
  0
LINE
  8
0
 10
7.83768
 20
-11.9617
 11
10.3324
 21
-11.5485
  0
LINE
  8
0
 10
10.3324
 20
-11.5485
 11
12.7277
 21
-11.024
  0
LINE
  8
0
 10
12.7277
 20
-11.024
 11
15.0004
 21
-10.3934
  0
LINE
  8
0
 10
15.0004
 20
-10.3934
 11
17.1286
 21
-9.66263
  0
LINE
  8
0
 10
17.1286
 20
-9.66263
 11
19.0919
 21
-8.83882
  0
LINE
  8
0
 10
19.0919
 20
-8.83882
 11
20.8713
 21
-7.9299
  0
LINE
  8
0
 10
20.8713
 20
-7.9299
 11
22.4497
 21
-6.94463
  0
LINE
  8
0
 10
22.4497
 20
-6.94463
 11
23.8119
 21
-5.89246
  0
LINE
  8
0
 10
23.8119
 20
-5.89246
 11
24.9447
 21
-4.78354
  0
LINE
  8
0
 10
24.9447
 20
-4.78354
 11
25.3518
 21
-4.25684
  0
LINE
  8
0
 10
25.3518
 20
-4.25684
 11
42.3922
 21
-0.634781
  0
LINE
  8
0
 10
42.3922
 20
-0.634781
 11
42.8205
 21
-2.64958
  0
LINE
  8
0
 10
42.8205
 20
-2.64958
 11
42.7532
 21
-2.66739
  0
LINE
  8
0
 10
42.7532
 20
-2.66739
 11
42.5003
 21
-2.76163
  0
LINE
  8
0
 10
42.5003
 20
-2.76163
 11
42.2579
 21
-2.8802
  0
LINE
  8
0
 10
42.2579
 20
-2.8802
 11
42.0282
 21
-3.02196
  0
LINE
  8
0
 10
42.0282
 20
-3.02196
 11
41.8136
 21
-3.18555
  0
LINE
  8
0
 10
41.8136
 20
-3.18555
 11
41.616
 21
-3.36938
  0
LINE
  8
0
 10
41.616
 20
-3.36938
 11
41.4374
 21
-3.5717
  0
LINE
  8
0
 10
41.4374
 20
-3.5717
 11
41.2795
 21
-3.79054
  0
LINE
  8
0
 10
41.2795
 20
-3.79054
 11
41.1438
 21
-4.02382
  0
LINE
  8
0
 10
41.1438
 20
-4.02382
 11
41.0316
 21
-4.26927
  0
LINE
  8
0
 10
41.0316
 20
-4.26927
 11
40.944
 21
-4.52454
  0
LINE
  8
0
 10
40.944
 20
-4.52454
 11
40.8819
 21
-4.78716
  0
LINE
  8
0
 10
40.8819
 20
-4.78716
 11
40.8458
 21
-5.0546
  0
LINE
  8
0
 10
40.8458
 20
-5.0546
 11
40.8361
 21
-5.3243
  0
LINE
  8
0
 10
40.8361
 20
-5.3243
 11
40.8528
 21
-5.59366
  0
LINE
  8
0
 10
40.8528
 20
-5.59366
 11
40.8959
 21
-5.86006
  0
LINE
  8
0
 10
40.8959
 20
-5.86006
 11
40.9649
 21
-6.12097
  0
LINE
  8
0
 10
40.9649
 20
-6.12097
 11
41.0592
 21
-6.37386
  0
LINE
  8
0
 10
41.0592
 20
-6.37386
 11
41.1777
 21
-6.61629
  0
LINE
  8
0
 10
41.1777
 20
-6.61629
 11
41.3195
 21
-6.84592
  0
LINE
  8
0
 10
41.3195
 20
-6.84592
 11
41.4831
 21
-7.06056
  0
LINE
  8
0
 10
41.4831
 20
-7.06056
 11
41.6669
 21
-7.25813
  0
LINE
  8
0
 10
41.6669
 20
-7.25813
 11
41.8692
 21
-7.43674
  0
LINE
  8
0
 10
41.8692
 20
-7.43674
 11
42.0881
 21
-7.59465
  0
LINE
  8
0
 10
42.0881
 20
-7.59465
 11
42.3214
 21
-7.73035
  0
LINE
  8
0
 10
42.3214
 20
-7.73035
 11
42.5668
 21
-7.84253
  0
LINE
  8
0
 10
42.5668
 20
-7.84253
 11
42.8221
 21
-7.93011
  0
LINE
  8
0
 10
42.8221
 20
-7.93011
 11
43.0847
 21
-7.99225
  0
LINE
  8
0
 10
43.0847
 20
-7.99225
 11
43.3521
 21
-8.02835
  0
LINE
  8
0
 10
43.3521
 20
-8.02835
 11
43.6218
 21
-8.03807
  0
LINE
  8
0
 10
43.6218
 20
-8.03807
 11
43.8912
 21
-8.0213
  0
LINE
  8
0
 10
43.8912
 20
-8.0213
 11
44.1576
 21
-7.97821
  0
LINE
  8
0
 10
44.1576
 20
-7.97821
 11
44.4185
 21
-7.90921
  0
LINE
  8
0
 10
44.4185
 20
-7.90921
 11
44.6714
 21
-7.81499
  0
LINE
  8
0
 10
44.6714
 20
-7.81499
 11
44.9138
 21
-7.69641
  0
LINE
  8
0
 10
44.9138
 20
-7.69641
 11
45.1435
 21
-7.55466
  0
LINE
  8
0
 10
45.1435
 20
-7.55466
 11
45.3581
 21
-7.39107
  0
LINE
  8
0
 10
45.3581
 20
-7.39107
 11
45.5557
 21
-7.20723
  0
LINE
  8
0
 10
45.5557
 20
-7.20723
 11
45.7343
 21
-7.00491
  0
LINE
  8
0
 10
45.7343
 20
-7.00491
 11
45.8922
 21
-6.78606
  0
LINE
  8
0
 10
45.8922
 20
-6.78606
 11
46.0279
 21
-6.5528
  0
LINE
  8
0
 10
46.0279
 20
-6.5528
 11
46.1401
 21
-6.30734
  0
LINE
  8
0
 10
46.1401
 20
-6.30734
 11
46.2276
 21
-6.05208
  0
LINE
  8
0
 10
46.2276
 20
-6.05208
 11
46.2898
 21
-5.78946
  0
LINE
  8
0
 10
46.2898
 20
-5.78946
 11
46.3259
 21
-5.522
  0
LINE
  8
0
 10
46.3259
 20
-5.522
 11
46.3356
 21
-5.2523
  0
LINE
  8
0
 10
46.3356
 20
-5.2523
 11
46.3188
 21
-4.98296
  0
LINE
  8
0
 10
46.3188
 20
-4.98296
 11
46.2757
 21
-4.71655
  0
LINE
  8
0
 10
46.2757
 20
-4.71655
 11
46.3246
 21
-4.70615
  0
LINE
  8
0
 10
46.3246
 20
-4.70615
 11
45.3267
 21
-0.0110474
  0
LINE
  8
0
 10
45.3267
 20
-0.0110474
 11
54.13
 21
1.86015
  0
LINE
  8
0
 10
54.13
 20
1.86015
 11
54.5583
 21
-0.154648
  0
LINE
  8
0
 10
54.5583
 20
-0.154648
 11
54.491
 21
-0.172455
  0
LINE
  8
0
 10
54.491
 20
-0.172455
 11
54.2381
 21
-0.266693
  0
LINE
  8
0
 10
54.2381
 20
-0.266693
 11
53.9956
 21
-0.385254
  0
LINE
  8
0
 10
53.9956
 20
-0.385254
 11
53.766
 21
-0.527023
  0
LINE
  8
0
 10
53.766
 20
-0.527023
 11
53.5513
 21
-0.690598
  0
LINE
  8
0
 10
53.5513
 20
-0.690598
 11
53.3538
 21
-0.874435
  0
LINE
  8
0
 10
53.3538
 20
-0.874435
 11
53.1752
 21
-1.07675
  0
LINE
  8
0
 10
53.1752
 20
-1.07675
 11
53.0173
 21
-1.29561
  0
LINE
  8
0
 10
53.0173
 20
-1.29561
 11
52.8816
 21
-1.52888
  0
LINE
  8
0
 10
52.8816
 20
-1.52888
 11
52.7694
 21
-1.77434
  0
LINE
  8
0
 10
52.7694
 20
-1.77434
 11
52.6818
 21
-2.0296
  0
LINE
  8
0
 10
52.6818
 20
-2.0296
 11
52.6197
 21
-2.29222
  0
LINE
  8
0
 10
52.6197
 20
-2.29222
 11
52.5836
 21
-2.55966
  0
LINE
  8
0
 10
52.5836
 20
-2.55966
 11
52.5739
 21
-2.82936
  0
LINE
  8
0
 10
52.5739
 20
-2.82936
 11
52.5906
 21
-3.09871
  0
LINE
  8
0
 10
52.5906
 20
-3.09871
 11
52.6337
 21
-3.36513
  0
LINE
  8
0
 10
52.6337
 20
-3.36513
 11
52.7027
 21
-3.62602
  0
LINE
  8
0
 10
52.7027
 20
-3.62602
 11
52.7969
 21
-3.87891
  0
LINE
  8
0
 10
52.7969
 20
-3.87891
 11
52.9155
 21
-4.12134
  0
LINE
  8
0
 10
52.9155
 20
-4.12134
 11
53.0573
 21
-4.35098
  0
LINE
  8
0
 10
53.0573
 20
-4.35098
 11
53.2209
 21
-4.56563
  0
LINE
  8
0
 10
53.2209
 20
-4.56563
 11
53.4047
 21
-4.7632
  0
LINE
  8
0
 10
53.4047
 20
-4.7632
 11
53.607
 21
-4.9418
  0
LINE
  8
0
 10
53.607
 20
-4.9418
 11
53.8259
 21
-5.0997
  0
LINE
  8
0
 10
53.8259
 20
-5.0997
 11
54.0591
 21
-5.23541
  0
LINE
  8
0
 10
54.0591
 20
-5.23541
 11
54.3046
 21
-5.3476
  0
LINE
  8
0
 10
54.3046
 20
-5.3476
 11
54.5598
 21
-5.43517
  0
LINE
  8
0
 10
54.5598
 20
-5.43517
 11
54.8225
 21
-5.49731
  0
LINE
  8
0
 10
54.8225
 20
-5.49731
 11
55.0899
 21
-5.53342
  0
LINE
  8
0
 10
55.0899
 20
-5.53342
 11
55.3596
 21
-5.54312
  0
LINE
  8
0
 10
55.3596
 20
-5.54312
 11
55.629
 21
-5.52635
  0
LINE
  8
0
 10
55.629
 20
-5.52635
 11
55.8954
 21
-5.48328
  0
LINE
  8
0
 10
55.8954
 20
-5.48328
 11
56.1563
 21
-5.41428
  0
LINE
  8
0
 10
56.1563
 20
-5.41428
 11
56.4091
 21
-5.32004
  0
LINE
  8
0
 10
56.4091
 20
-5.32004
 11
56.6516
 21
-5.20148
  0
LINE
  8
0
 10
56.6516
 20
-5.20148
 11
56.8812
 21
-5.05971
  0
LINE
  8
0
 10
56.8812
 20
-5.05971
 11
57.0959
 21
-4.89612
  0
LINE
  8
0
 10
57.0959
 20
-4.89612
 11
57.2934
 21
-4.71228
  0
LINE
  8
0
 10
57.2934
 20
-4.71228
 11
57.472
 21
-4.50996
  0
LINE
  8
0
 10
57.472
 20
-4.50996
 11
57.63
 21
-4.29112
  0
LINE
  8
0
 10
57.63
 20
-4.29112
 11
57.7657
 21
-4.05785
  0
LINE
  8
0
 10
57.7657
 20
-4.05785
 11
57.8778
 21
-3.81239
  0
LINE
  8
0
 10
57.8778
 20
-3.81239
 11
57.9654
 21
-3.55713
  0
LINE
  8
0
 10
57.9654
 20
-3.55713
 11
58.0276
 21
-3.29451
  0
LINE
  8
0
 10
58.0276
 20
-3.29451
 11
58.0637
 21
-3.02707
  0
LINE
  8
0
 10
58.0637
 20
-3.02707
 11
58.0734
 21
-2.75737
  0
LINE
  8
0
 10
58.0734
 20
-2.75737
 11
58.0566
 21
-2.48802
  0
LINE
  8
0
 10
58.0566
 20
-2.48802
 11
58.0135
 21
-2.2216
  0
LINE
  8
0
 10
58.0135
 20
-2.2216
 11
58.0624
 21
-2.21121
  0
LINE
  8
0
 10
58.0624
 20
-2.21121
 11
57.0645
 21
2.48389
  0
LINE
  8
0
 10
57.0645
 20
2.48389
 11
65.8678
 21
4.35509
  0
LINE
  8
0
 10
65.8678
 20
4.35509
 11
66.296
 21
2.34027
  0
LINE
  8
0
 10
66.296
 20
2.34027
 11
66.2287
 21
2.32248
  0
LINE
  8
0
 10
66.2287
 20
2.32248
 11
65.9758
 21
2.22824
  0
LINE
  8
0
 10
65.9758
 20
2.22824
 11
65.7334
 21
2.10966
  0
LINE
  8
0
 10
65.7334
 20
2.10966
 11
65.5038
 21
1.96791
  0
LINE
  8
0
 10
65.5038
 20
1.96791
 11
65.2891
 21
1.80432
  0
LINE
  8
0
 10
65.2891
 20
1.80432
 11
65.0916
 21
1.62048
  0
LINE
  8
0
 10
65.0916
 20
1.62048
 11
64.9129
 21
1.41817
  0
LINE
  8
0
 10
64.9129
 20
1.41817
 11
64.755
 21
1.19933
  0
LINE
  8
0
 10
64.755
 20
1.19933
 11
64.6193
 21
0.966049
  0
LINE
  8
0
 10
64.6193
 20
0.966049
 11
64.5072
 21
0.720596
  0
LINE
  8
0
 10
64.5072
 20
0.720596
 11
64.4196
 21
0.465332
  0
LINE
  8
0
 10
64.4196
 20
0.465332
 11
64.3574
 21
0.202713
  0
LINE
  8
0
 10
64.3574
 20
0.202713
 11
64.3213
 21
-0.0647278
  0
LINE
  8
0
 10
64.3213
 20
-0.0647278
 11
64.3116
 21
-0.334427
  0
LINE
  8
0
 10
64.3116
 20
-0.334427
 11
64.3284
 21
-0.603775
  0
LINE
  8
0
 10
64.3284
 20
-0.603775
 11
64.3715
 21
-0.870178
  0
LINE
  8
0
 10
64.3715
 20
-0.870178
 11
64.4405
 21
-1.13109
  0
LINE
  8
0
 10
64.4405
 20
-1.13109
 11
64.5347
 21
-1.38397
  0
LINE
  8
0
 10
64.5347
 20
-1.38397
 11
64.6533
 21
-1.6264
  0
LINE
  8
0
 10
64.6533
 20
-1.6264
 11
64.795
 21
-1.85603
  0
LINE
  8
0
 10
64.795
 20
-1.85603
 11
64.9586
 21
-2.07068
  0
LINE
  8
0
 10
64.9586
 20
-2.07068
 11
65.1425
 21
-2.26825
  0
LINE
  8
0
 10
65.1425
 20
-2.26825
 11
65.3448
 21
-2.44685
  0
LINE
  8
0
 10
65.3448
 20
-2.44685
 11
65.5636
 21
-2.60477
  0
LINE
  8
0
 10
65.5636
 20
-2.60477
 11
65.7969
 21
-2.74046
  0
LINE
  8
0
 10
65.7969
 20
-2.74046
 11
66.0424
 21
-2.85265
  0
LINE
  8
0
 10
66.0424
 20
-2.85265
 11
66.2976
 21
-2.94023
  0
LINE
  8
0
 10
66.2976
 20
-2.94023
 11
66.5602
 21
-3.00238
  0
LINE
  8
0
 10
66.5602
 20
-3.00238
 11
66.8277
 21
-3.03847
  0
LINE
  8
0
 10
66.8277
 20
-3.03847
 11
67.0974
 21
-3.04819
  0
LINE
  8
0
 10
67.0974
 20
-3.04819
 11
67.3667
 21
-3.03142
  0
LINE
  8
0
 10
67.3667
 20
-3.03142
 11
67.6331
 21
-2.98833
  0
LINE
  8
0
 10
67.6331
 20
-2.98833
 11
67.894
 21
-2.91934
  0
LINE
  8
0
 10
67.894
 20
-2.91934
 11
68.1469
 21
-2.8251
  0
LINE
  8
0
 10
68.1469
 20
-2.8251
 11
68.3894
 21
-2.70653
  0
LINE
  8
0
 10
68.3894
 20
-2.70653
 11
68.619
 21
-2.56477
  0
LINE
  8
0
 10
68.619
 20
-2.56477
 11
68.8336
 21
-2.40118
  0
LINE
  8
0
 10
68.8336
 20
-2.40118
 11
69.0312
 21
-2.21735
  0
LINE
  8
0
 10
69.0312
 20
-2.21735
 11
69.2098
 21
-2.01503
  0
LINE
  8
0
 10
69.2098
 20
-2.01503
 11
69.3677
 21
-1.79617
  0
LINE
  8
0
 10
69.3677
 20
-1.79617
 11
69.5034
 21
-1.56291
  0
LINE
  8
0
 10
69.5034
 20
-1.56291
 11
69.6156
 21
-1.31746
  0
LINE
  8
0
 10
69.6156
 20
-1.31746
 11
69.7032
 21
-1.06219
  0
LINE
  8
0
 10
69.7032
 20
-1.06219
 11
69.7653
 21
-0.799576
  0
LINE
  8
0
 10
69.7653
 20
-0.799576
 11
69.8014
 21
-0.53212
  0
LINE
  8
0
 10
69.8014
 20
-0.53212
 11
69.8111
 21
-0.262421
  0
LINE
  8
0
 10
69.8111
 20
-0.262421
 11
69.7944
 21
0.00691223
  0
LINE
  8
0
 10
69.7944
 20
0.00691223
 11
69.7513
 21
0.273315
  0
LINE
  8
0
 10
69.7513
 20
0.273315
 11
69.8002
 21
0.283722
  0
LINE
  8
0
 10
69.8002
 20
0.283722
 11
65.642
 21
19.8467
  0
LINE
  8
0
 10
65.642
 20
19.8467
 11
65.5612
 21
19.8295
  0
LINE
  8
0
 10
65.5612
 20
19.8295
 11
65.513
 21
19.9588
  0
LINE
  8
0
 10
65.513
 20
19.9588
 11
65.3944
 21
20.2012
  0
LINE
  8
0
 10
65.3944
 20
20.2012
 11
65.2527
 21
20.4309
  0
LINE
  8
0
 10
65.2527
 20
20.4309
 11
65.0891
 21
20.6455
  0
LINE
  8
0
 10
65.0891
 20
20.6455
 11
64.9052
 21
20.8431
  0
LINE
  8
0
 10
64.9052
 20
20.8431
 11
64.7029
 21
21.0217
  0
LINE
  8
0
 10
64.7029
 20
21.0217
 11
64.4841
 21
21.1796
  0
LINE
  8
0
 10
64.4841
 20
21.1796
 11
64.2508
 21
21.3153
  0
LINE
  8
0
 10
64.2508
 20
21.3153
 11
64.0053
 21
21.4275
  0
LINE
  8
0
 10
64.0053
 20
21.4275
 11
63.7501
 21
21.5151
  0
LINE
  8
0
 10
63.7501
 20
21.5151
 11
63.4875
 21
21.5772
  0
LINE
  8
0
 10
63.4875
 20
21.5772
 11
63.22
 21
21.6133
  0
LINE
  8
0
 10
63.22
 20
21.6133
 11
62.9503
 21
21.623
  0
LINE
  8
0
 10
62.9503
 20
21.623
 11
62.681
 21
21.6062
  0
LINE
  8
0
 10
62.681
 20
21.6062
 11
62.4146
 21
21.5632
  0
LINE
  8
0
 10
62.4146
 20
21.5632
 11
62.1537
 21
21.4942
  0
LINE
  8
0
 10
62.1537
 20
21.4942
 11
61.9008
 21
21.3999
  0
LINE
  8
0
 10
61.9008
 20
21.3999
 11
61.6583
 21
21.2814
  0
LINE
  8
0
 10
61.6583
 20
21.2814
 11
61.4287
 21
21.1396
  0
LINE
  8
0
 10
61.4287
 20
21.1396
 11
61.2141
 21
20.976
  0
LINE
  8
0
 10
61.2141
 20
20.976
 11
61.0165
 21
20.7922
  0
LINE
  8
0
 10
61.0165
 20
20.7922
 11
60.8379
 21
20.5899
  0
LINE
  8
0
 10
60.8379
 20
20.5899
 11
60.68
 21
20.371
  0
LINE
  8
0
 10
60.68
 20
20.371
 11
60.5443
 21
20.1377
  0
LINE
  8
0
 10
60.5443
 20
20.1377
 11
60.4321
 21
19.8923
  0
LINE
  8
0
 10
60.4321
 20
19.8923
 11
60.3445
 21
19.637
  0
LINE
  8
0
 10
60.3445
 20
19.637
 11
60.2824
 21
19.3744
  0
LINE
  8
0
 10
60.2824
 20
19.3744
 11
60.2463
 21
19.1069
  0
LINE
  8
0
 10
60.2463
 20
19.1069
 11
60.2365
 21
18.8373
  0
LINE
  8
0
 10
60.2365
 20
18.8373
 11
60.2533
 21
18.5679
  0
LINE
  8
0
 10
60.2533
 20
18.5679
 11
60.2964
 21
18.3015
  0
LINE
  8
0
 10
60.2964
 20
18.3015
 11
60.3654
 21
18.0406
  0
LINE
  8
0
 10
60.3654
 20
18.0406
 11
60.4596
 21
17.7877
  0
LINE
  8
0
 10
60.4596
 20
17.7877
 11
60.5782
 21
17.5453
  0
LINE
  8
0
 10
60.5782
 20
17.5453
 11
60.72
 21
17.3156
  0
LINE
  8
0
 10
60.72
 20
17.3156
 11
60.8835
 21
17.101
  0
LINE
  8
0
 10
60.8835
 20
17.101
 11
61.0674
 21
16.9034
  0
LINE
  8
0
 10
61.0674
 20
16.9034
 11
61.2697
 21
16.7248
  0
LINE
  8
0
 10
61.2697
 20
16.7248
 11
61.4886
 21
16.5669
  0
LINE
  8
0
 10
61.4886
 20
16.5669
 11
61.7218
 21
16.4312
  0
LINE
  8
0
 10
61.7218
 20
16.4312
 11
61.9673
 21
16.319
  0
LINE
  8
0
 10
61.9673
 20
16.319
 11
62.2225
 21
16.2314
  0
LINE
  8
0
 10
62.2225
 20
16.2314
 11
62.4852
 21
16.1693
  0
LINE
  8
0
 10
62.4852
 20
16.1693
 11
62.7526
 21
16.1332
  0
LINE
  8
0
 10
62.7526
 20
16.1332
 11
63.0223
 21
16.1235
  0
LINE
  8
0
 10
63.0223
 20
16.1235
 11
63.2917
 21
16.1403
  0
LINE
  8
0
 10
63.2917
 20
16.1403
 11
63.3604
 21
16.1514
  0
LINE
  8
0
 10
63.3604
 20
16.1514
 11
63.7887
 21
14.1366
  0
LINE
  8
0
 10
63.7887
 20
14.1366
 11
54.9853
 21
12.2654
  0
LINE
  8
0
 10
54.9853
 20
12.2654
 11
53.9042
 21
17.3517
  0
LINE
  8
0
 10
53.9042
 20
17.3517
 11
53.8234
 21
17.3345
  0
LINE
  8
0
 10
53.8234
 20
17.3345
 11
53.7752
 21
17.4639
  0
LINE
  8
0
 10
53.7752
 20
17.4639
 11
53.6566
 21
17.7063
  0
LINE
  8
0
 10
53.6566
 20
17.7063
 11
53.5149
 21
17.9359
  0
LINE
  8
0
 10
53.5149
 20
17.9359
 11
53.3513
 21
18.1506
  0
LINE
  8
0
 10
53.3513
 20
18.1506
 11
53.1675
 21
18.3481
  0
LINE
  8
0
 10
53.1675
 20
18.3481
 11
52.9651
 21
18.5267
  0
LINE
  8
0
 10
52.9651
 20
18.5267
 11
52.7463
 21
18.6847
  0
LINE
  8
0
 10
52.7463
 20
18.6847
 11
52.513
 21
18.8204
  0
LINE
  8
0
 10
52.513
 20
18.8204
 11
52.2676
 21
18.9325
  0
LINE
  8
0
 10
52.2676
 20
18.9325
 11
52.0123
 21
19.0201
  0
LINE
  8
0
 10
52.0123
 20
19.0201
 11
51.7497
 21
19.0823
  0
LINE
  8
0
 10
51.7497
 20
19.0823
 11
51.4822
 21
19.1184
  0
LINE
  8
0
 10
51.4822
 20
19.1184
 11
51.2125
 21
19.1281
  0
LINE
  8
0
 10
51.2125
 20
19.1281
 11
50.9432
 21
19.1113
  0
LINE
  8
0
 10
50.9432
 20
19.1113
 11
50.6768
 21
19.0682
  0
LINE
  8
0
 10
50.6768
 20
19.0682
 11
50.4159
 21
18.9992
  0
LINE
  8
0
 10
50.4159
 20
18.9992
 11
50.163
 21
18.905
  0
LINE
  8
0
 10
50.163
 20
18.905
 11
49.9206
 21
18.7864
  0
LINE
  8
0
 10
49.9206
 20
18.7864
 11
49.6909
 21
18.6447
  0
LINE
  8
0
 10
49.6909
 20
18.6447
 11
49.4763
 21
18.4811
  0
LINE
  8
0
 10
49.4763
 20
18.4811
 11
49.2787
 21
18.2972
  0
LINE
  8
0
 10
49.2787
 20
18.2972
 11
49.1001
 21
18.0949
  0
LINE
  8
0
 10
49.1001
 20
18.0949
 11
48.9422
 21
17.8761
  0
LINE
  8
0
 10
48.9422
 20
17.8761
 11
48.8065
 21
17.6428
  0
LINE
  8
0
 10
48.8065
 20
17.6428
 11
48.6943
 21
17.3974
  0
LINE
  8
0
 10
48.6943
 20
17.3974
 11
48.6067
 21
17.1421
  0
LINE
  8
0
 10
48.6067
 20
17.1421
 11
48.5446
 21
16.8795
  0
LINE
  8
0
 10
48.5446
 20
16.8795
 11
48.5085
 21
16.612
  0
LINE
  8
0
 10
48.5085
 20
16.612
 11
48.4988
 21
16.3423
  0
LINE
  8
0
 10
48.4988
 20
16.3423
 11
48.5155
 21
16.073
  0
LINE
  8
0
 10
48.5155
 20
16.073
 11
48.5586
 21
15.8065
  0
LINE
  8
0
 10
48.5586
 20
15.8065
 11
48.6276
 21
15.5457
  0
LINE
  8
0
 10
48.6276
 20
15.5457
 11
48.7219
 21
15.2928
  0
LINE
  8
0
 10
48.7219
 20
15.2928
 11
48.8404
 21
15.0503
  0
LINE
  8
0
 10
48.8404
 20
15.0503
 11
48.9822
 21
14.8207
  0
LINE
  8
0
 10
48.9822
 20
14.8207
 11
49.1458
 21
14.606
  0
LINE
  8
0
 10
49.1458
 20
14.606
 11
49.3296
 21
14.4085
  0
LINE
  8
0
 10
49.3296
 20
14.4085
 11
49.5319
 21
14.2299
  0
LINE
  8
0
 10
49.5319
 20
14.2299
 11
49.7508
 21
14.072
  0
LINE
  8
0
 10
49.7508
 20
14.072
 11
49.9841
 21
13.9363
  0
LINE
  8
0
 10
49.9841
 20
13.9363
 11
50.2295
 21
13.8241
  0
LINE
  8
0
 10
50.2295
 20
13.8241
 11
50.4848
 21
13.7365
  0
LINE
  8
0
 10
50.4848
 20
13.7365
 11
50.7474
 21
13.6744
  0
LINE
  8
0
 10
50.7474
 20
13.6744
 11
51.0148
 21
13.6383
  0
LINE
  8
0
 10
51.0148
 20
13.6383
 11
51.2845
 21
13.6286
  0
LINE
  8
0
 10
51.2845
 20
13.6286
 11
51.5539
 21
13.6453
  0
LINE
  8
0
 10
51.5539
 20
13.6453
 11
51.6226
 21
13.6564
  0
LINE
  8
0
 10
51.6226
 20
13.6564
 11
52.0509
 21
11.6416
  0
LINE
  8
0
 10
52.0509
 20
11.6416
 11
43.2476
 21
9.77042
  0
LINE
  8
0
 10
43.2476
 20
9.77042
 11
42.1664
 21
14.8568
  0
LINE
  8
0
 10
42.1664
 20
14.8568
 11
42.0856
 21
14.8396
  0
LINE
  8
0
 10
42.0856
 20
14.8396
 11
42.0374
 21
14.9689
  0
LINE
  8
0
 10
42.0374
 20
14.9689
 11
41.9189
 21
15.2113
  0
LINE
  8
0
 10
-2.0907
 20
-7.77487
 11
-4.16127
 21
-7.66238
  0
LINE
  8
0
 10
-4.16127
 20
-7.66238
 11
-6.19176
 21
-7.47609
  0
LINE
  8
0
 10
-6.19176
 20
-7.47609
 11
-8.16263
 21
-7.2178
  0
LINE
  8
0
 10
-8.16263
 20
-7.2178
 11
-10.0549
 21
-6.89
  0
LINE
  8
0
 10
-10.0549
 20
-6.89
 11
-11.8503
 21
-6.49585
  0
LINE
  8
0
 10
-11.8503
 20
-6.49585
 11
-13.5316
 21
-6.03914
  0
LINE
  8
0
 10
-13.5316
 20
-6.03914
 11
-15.0826
 21
-5.52426
  0
LINE
  8
0
 10
-15.0826
 20
-5.52426
 11
-16.4883
 21
-4.95619
  0
LINE
  8
0
 10
-16.4883
 20
-4.95619
 11
-17.7352
 21
-4.34038
  0
LINE
  8
0
 10
-17.7352
 20
-4.34038
 11
-18.8114
 21
-3.68279
  0
LINE
  8
0
 10
-18.8114
 20
-3.68279
 11
-19.7063
 21
-2.9897
  0
LINE
  8
0
 10
-19.7063
 20
-2.9897
 11
-20.4115
 21
-2.26784
  0
LINE
  8
0
 10
-20.4115
 20
-2.26784
 11
-20.9202
 21
-1.52414
  0
LINE
  8
0
 10
-20.9202
 20
-1.52414
 11
-21.2273
 21
-0.765747
  0
LINE
  8
0
 10
-21.2273
 20
-0.765747
 11
-21.33
 21
0
  0
LINE
  8
0
 10
-21.33
 20
0
 11
-21.1009
 21
1.07784
  0
LINE
  8
0
 10
-21.1009
 20
1.07784
 11
-20.9202
 21
1.52414
  0
LINE
  8
0
 10
-20.9202
 20
1.52414
 11
-20.4115
 21
2.26784
  0
LINE
  8
0
 10
-20.4115
 20
2.26784
 11
-19.7063
 21
2.9897
  0
LINE
  8
0
 10
-19.7063
 20
2.9897
 11
-18.8114
 21
3.68279
  0
LINE
  8
0
 10
-18.8114
 20
3.68279
 11
-17.7352
 21
4.34038
  0
LINE
  8
0
 10
-17.7352
 20
4.34038
 11
-16.4883
 21
4.95619
  0
LINE
  8
0
 10
-16.4883
 20
4.95619
 11
-15.0826
 21
5.52426
  0
LINE
  8
0
 10
-15.0826
 20
5.52426
 11
-13.5316
 21
6.03914
  0
LINE
  8
0
 10
-13.5316
 20
6.03914
 11
-11.8503
 21
6.49585
  0
LINE
  8
0
 10
-11.8503
 20
6.49585
 11
-10.0549
 21
6.89
  0
LINE
  8
0
 10
-10.0549
 20
6.89
 11
-8.16263
 21
7.2178
  0
LINE
  8
0
 10
-8.16263
 20
7.2178
 11
-6.19176
 21
7.47609
  0
LINE
  8
0
 10
-6.19176
 20
7.47609
 11
-4.16127
 21
7.66238
  0
LINE
  8
0
 10
-4.16127
 20
7.66238
 11
-2.0907
 21
7.77487
  0
LINE
  8
0
 10
-2.0907
 20
7.77487
 11
0
 21
7.8125
  0
LINE
  8
0
 10
0
 20
7.8125
 11
2.0907
 21
7.77487
  0
LINE
  8
0
 10
2.0907
 20
7.77487
 11
4.16127
 21
7.66238
  0
LINE
  8
0
 10
4.16127
 20
7.66238
 11
6.19176
 21
7.47609
  0
LINE
  8
0
 10
6.19176
 20
7.47609
 11
8.16263
 21
7.2178
  0
LINE
  8
0
 10
8.16263
 20
7.2178
 11
10.0549
 21
6.89
  0
LINE
  8
0
 10
10.0549
 20
6.89
 11
11.8503
 21
6.49585
  0
LINE
  8
0
 10
11.8503
 20
6.49585
 11
13.5316
 21
6.03914
  0
LINE
  8
0
 10
13.5316
 20
6.03914
 11
15.0826
 21
5.52426
  0
LINE
  8
0
 10
15.0826
 20
5.52426
 11
16.4883
 21
4.95619
  0
LINE
  8
0
 10
16.4883
 20
4.95619
 11
17.7352
 21
4.34038
  0
LINE
  8
0
 10
17.7352
 20
4.34038
 11
18.8114
 21
3.68279
  0
LINE
  8
0
 10
18.8114
 20
3.68279
 11
19.7063
 21
2.9897
  0
LINE
  8
0
 10
19.7063
 20
2.9897
 11
20.4115
 21
2.26784
  0
LINE
  8
0
 10
20.4115
 20
2.26784
 11
20.9202
 21
1.52414
  0
LINE
  8
0
 10
20.9202
 20
1.52414
 11
21.1009
 21
1.07784
  0
LINE
  8
0
 10
21.1009
 20
1.07784
 11
21.33
 21
0
  0
LINE
  8
0
 10
21.33
 20
0
 11
21.2273
 21
-0.765747
  0
LINE
  8
0
 10
21.2273
 20
-0.765747
 11
20.9202
 21
-1.52414
  0
LINE
  8
0
 10
20.9202
 20
-1.52414
 11
20.4115
 21
-2.26784
  0
LINE
  8
0
 10
20.4115
 20
-2.26784
 11
19.7063
 21
-2.9897
  0
LINE
  8
0
 10
19.7063
 20
-2.9897
 11
18.8114
 21
-3.68279
  0
LINE
  8
0
 10
18.8114
 20
-3.68279
 11
17.7352
 21
-4.34038
  0
LINE
  8
0
 10
17.7352
 20
-4.34038
 11
16.4883
 21
-4.95619
  0
LINE
  8
0
 10
16.4883
 20
-4.95619
 11
15.0826
 21
-5.52426
  0
LINE
  8
0
 10
15.0826
 20
-5.52426
 11
13.5316
 21
-6.03914
  0
LINE
  8
0
 10
13.5316
 20
-6.03914
 11
11.8503
 21
-6.49585
  0
LINE
  8
0
 10
11.8503
 20
-6.49585
 11
10.0549
 21
-6.89
  0
LINE
  8
0
 10
10.0549
 20
-6.89
 11
8.16263
 21
-7.2178
  0
LINE
  8
0
 10
8.16263
 20
-7.2178
 11
6.19176
 21
-7.47609
  0
LINE
  8
0
 10
6.19176
 20
-7.47609
 11
4.16127
 21
-7.66238
  0
LINE
  8
0
 10
4.16127
 20
-7.66238
 11
2.0907
 21
-7.77487
  0
LINE
  8
0
 10
2.0907
 20
-7.77487
 11
0
 21
-7.8125
  0
LINE
  8
0
 10
0
 20
-7.8125
 11
-2.0907
 21
-7.77487
  0
ENDSEC
  0
SECTION
  2
OBJECTS
  0
DICTIONARY
  0
ENDSEC
  0
EOF
