solid OpenSCAD_Model
  facet normal -1 0 0
    outer loop
      vertex 0 0 0
      vertex 0 6 4
      vertex 0 6 0
    endloop
  endfacet
  facet normal -1 -0 0
    outer loop
      vertex 0 6 4
      vertex 0 0 0
      vertex 0 0 4
    endloop
  endfacet
  facet normal 0 0 1
    outer loop
      vertex 10 6 4
      vertex 8.05 3 4
      vertex 10 0 4
    endloop
  endfacet
  facet normal 0 0 1
    outer loop
      vertex 10 6 4
      vertex 8.03943 3.1073 4
      vertex 8.05 3 4
    endloop
  endfacet
  facet normal 0 0 1
    outer loop
      vertex 10 6 4
      vertex 8.00813 3.21047 4
      vertex 8.03943 3.1073 4
    endloop
  endfacet
  facet normal 0 0 1
    outer loop
      vertex 10 6 4
      vertex 7.95731 3.30556 4
      vertex 8.00813 3.21047 4
    endloop
  endfacet
  facet normal 0 0 1
    outer loop
      vertex 10 6 4
      vertex 7.88891 3.38891 4
      vertex 7.95731 3.30556 4
    endloop
  endfacet
  facet normal 0 0 1
    outer loop
      vertex 10 6 4
      vertex 7.80556 3.45731 4
      vertex 7.88891 3.38891 4
    endloop
  endfacet
  facet normal 0 0 1
    outer loop
      vertex 10 6 4
      vertex 7.71047 3.50813 4
      vertex 7.80556 3.45731 4
    endloop
  endfacet
  facet normal 0 0 1
    outer loop
      vertex 10 6 4
      vertex 7.6073 3.53943 4
      vertex 7.71047 3.50813 4
    endloop
  endfacet
  facet normal 0 0 1
    outer loop
      vertex 10 6 4
      vertex 7.5 3.55 4
      vertex 7.6073 3.53943 4
    endloop
  endfacet
  facet normal 0 0 1
    outer loop
      vertex 10 6 4
      vertex 7.3927 3.53943 4
      vertex 7.5 3.55 4
    endloop
  endfacet
  facet normal -0 0 1
    outer loop
      vertex 3.73744 4.23744 4
      vertex 7.3927 3.53943 4
      vertex 10 6 4
    endloop
  endfacet
  facet normal 0 0 1
    outer loop
      vertex 7.3927 3.53943 4
      vertex 3.73744 4.23744 4
      vertex 7.28952 3.50813 4
    endloop
  endfacet
  facet normal 0 0 1
    outer loop
      vertex 7.28952 3.50813 4
      vertex 3.73744 4.23744 4
      vertex 7.19444 3.45731 4
    endloop
  endfacet
  facet normal 0 0 1
    outer loop
      vertex 6.96057 3.1073 4
      vertex 4.25 3 4
      vertex 6.95 3 4
    endloop
  endfacet
  facet normal 0 0 1
    outer loop
      vertex 4.21637 3.34141 4
      vertex 6.96057 3.1073 4
      vertex 6.99187 3.21047 4
    endloop
  endfacet
  facet normal 0 0 1
    outer loop
      vertex 4.11679 3.6697 4
      vertex 6.99187 3.21047 4
      vertex 7.04269 3.30556 4
    endloop
  endfacet
  facet normal 0 0 1
    outer loop
      vertex 4.11679 3.6697 4
      vertex 7.04269 3.30556 4
      vertex 7.11109 3.38891 4
    endloop
  endfacet
  facet normal -0 -0 1
    outer loop
      vertex 3.95507 3.97225 4
      vertex 7.19444 3.45731 4
      vertex 3.73744 4.23744 4
    endloop
  endfacet
  facet normal 0 0 1
    outer loop
      vertex 6.96057 3.1073 4
      vertex 4.21637 3.34141 4
      vertex 4.25 3 4
    endloop
  endfacet
  facet normal 0 0 1
    outer loop
      vertex 6.99187 3.21047 4
      vertex 4.11679 3.6697 4
      vertex 4.21637 3.34141 4
    endloop
  endfacet
  facet normal 0 0 1
    outer loop
      vertex 7.11109 3.38891 4
      vertex 3.95507 3.97225 4
      vertex 4.11679 3.6697 4
    endloop
  endfacet
  facet normal 0 0 1
    outer loop
      vertex 7.19444 3.45731 4
      vertex 3.95507 3.97225 4
      vertex 7.11109 3.38891 4
    endloop
  endfacet
  facet normal 0 0 1
    outer loop
      vertex 10 6 4
      vertex 3.47225 4.45507 4
      vertex 3.73744 4.23744 4
    endloop
  endfacet
  facet normal 0 0 1
    outer loop
      vertex 10 6 4
      vertex 3.1697 4.61679 4
      vertex 3.47225 4.45507 4
    endloop
  endfacet
  facet normal 0 0 1
    outer loop
      vertex 10 6 4
      vertex 2.84141 4.71637 4
      vertex 3.1697 4.61679 4
    endloop
  endfacet
  facet normal -0 0 1
    outer loop
      vertex 0 6 4
      vertex 2.84141 4.71637 4
      vertex 10 6 4
    endloop
  endfacet
  facet normal 0 0 1
    outer loop
      vertex 2.84141 4.71637 4
      vertex 0 6 4
      vertex 2.5 4.75 4
    endloop
  endfacet
  facet normal 0 0 1
    outer loop
      vertex 0.783626 3.34141 4
      vertex 0 6 4
      vertex 0.75 3 4
    endloop
  endfacet
  facet normal 0 0 1
    outer loop
      vertex 0.88321 3.6697 4
      vertex 0 6 4
      vertex 0.783626 3.34141 4
    endloop
  endfacet
  facet normal 0 0 1
    outer loop
      vertex 1.04493 3.97225 4
      vertex 0 6 4
      vertex 0.88321 3.6697 4
    endloop
  endfacet
  facet normal 0 0 1
    outer loop
      vertex 1.26256 4.23744 4
      vertex 0 6 4
      vertex 1.04493 3.97225 4
    endloop
  endfacet
  facet normal 0 0 1
    outer loop
      vertex 1.52775 4.45507 4
      vertex 0 6 4
      vertex 1.26256 4.23744 4
    endloop
  endfacet
  facet normal 0 0 1
    outer loop
      vertex 1.8303 4.61679 4
      vertex 0 6 4
      vertex 1.52775 4.45507 4
    endloop
  endfacet
  facet normal 0 0 1
    outer loop
      vertex 2.15859 4.71637 4
      vertex 0 6 4
      vertex 1.8303 4.61679 4
    endloop
  endfacet
  facet normal 0 0 1
    outer loop
      vertex 2.5 4.75 4
      vertex 0 6 4
      vertex 2.15859 4.71637 4
    endloop
  endfacet
  facet normal -0 0 1
    outer loop
      vertex 8.03943 2.8927 4
      vertex 10 0 4
      vertex 8.05 3 4
    endloop
  endfacet
  facet normal -0 0 1
    outer loop
      vertex 8.00813 2.78952 4
      vertex 10 0 4
      vertex 8.03943 2.8927 4
    endloop
  endfacet
  facet normal -0 0 1
    outer loop
      vertex 7.95731 2.69444 4
      vertex 10 0 4
      vertex 8.00813 2.78952 4
    endloop
  endfacet
  facet normal -0 0 1
    outer loop
      vertex 7.88891 2.61109 4
      vertex 10 0 4
      vertex 7.95731 2.69444 4
    endloop
  endfacet
  facet normal -0 0 1
    outer loop
      vertex 7.80556 2.54269 4
      vertex 10 0 4
      vertex 7.88891 2.61109 4
    endloop
  endfacet
  facet normal -0 0 1
    outer loop
      vertex 7.71047 2.49187 4
      vertex 10 0 4
      vertex 7.80556 2.54269 4
    endloop
  endfacet
  facet normal -0 0 1
    outer loop
      vertex 7.6073 2.46057 4
      vertex 10 0 4
      vertex 7.71047 2.49187 4
    endloop
  endfacet
  facet normal -0 0 1
    outer loop
      vertex 7.5 2.45 4
      vertex 10 0 4
      vertex 7.6073 2.46057 4
    endloop
  endfacet
  facet normal 0 0 1
    outer loop
      vertex 7.3927 2.46057 4
      vertex 10 0 4
      vertex 7.5 2.45 4
    endloop
  endfacet
  facet normal 0 0 1
    outer loop
      vertex 3.73744 1.76256 4
      vertex 7.3927 2.46057 4
      vertex 7.28952 2.49187 4
    endloop
  endfacet
  facet normal 0 0 1
    outer loop
      vertex 3.73744 1.76256 4
      vertex 7.28952 2.49187 4
      vertex 7.19444 2.54269 4
    endloop
  endfacet
  facet normal 0 0 1
    outer loop
      vertex 3.95507 2.02775 4
      vertex 7.19444 2.54269 4
      vertex 7.11109 2.61109 4
    endloop
  endfacet
  facet normal -0 0 1
    outer loop
      vertex 4.25 3 4
      vertex 6.96057 2.8927 4
      vertex 6.95 3 4
    endloop
  endfacet
  facet normal 0 0 1
    outer loop
      vertex 4.21637 2.65859 4
      vertex 6.96057 2.8927 4
      vertex 4.25 3 4
    endloop
  endfacet
  facet normal 0 0 1
    outer loop
      vertex 6.96057 2.8927 4
      vertex 4.21637 2.65859 4
      vertex 6.99187 2.78952 4
    endloop
  endfacet
  facet normal 0 0 1
    outer loop
      vertex 4.11679 2.3303 4
      vertex 6.99187 2.78952 4
      vertex 4.21637 2.65859 4
    endloop
  endfacet
  facet normal 0 0 1
    outer loop
      vertex 6.99187 2.78952 4
      vertex 4.11679 2.3303 4
      vertex 7.04269 2.69444 4
    endloop
  endfacet
  facet normal 0 0 1
    outer loop
      vertex 7.04269 2.69444 4
      vertex 4.11679 2.3303 4
      vertex 7.11109 2.61109 4
    endloop
  endfacet
  facet normal 0 0 1
    outer loop
      vertex 3.95507 2.02775 4
      vertex 7.11109 2.61109 4
      vertex 4.11679 2.3303 4
    endloop
  endfacet
  facet normal 0 0 1
    outer loop
      vertex 7.19444 2.54269 4
      vertex 3.95507 2.02775 4
      vertex 3.73744 1.76256 4
    endloop
  endfacet
  facet normal 0 0 1
    outer loop
      vertex 7.3927 2.46057 4
      vertex 3.73744 1.76256 4
      vertex 10 0 4
    endloop
  endfacet
  facet normal -0 0 1
    outer loop
      vertex 3.47225 1.54493 4
      vertex 10 0 4
      vertex 3.73744 1.76256 4
    endloop
  endfacet
  facet normal -0 0 1
    outer loop
      vertex 3.1697 1.38321 4
      vertex 10 0 4
      vertex 3.47225 1.54493 4
    endloop
  endfacet
  facet normal -0 0 1
    outer loop
      vertex 2.84141 1.28363 4
      vertex 10 0 4
      vertex 3.1697 1.38321 4
    endloop
  endfacet
  facet normal 0 0 1
    outer loop
      vertex 0 0 4
      vertex 2.84141 1.28363 4
      vertex 2.5 1.25 4
    endloop
  endfacet
  facet normal 0 0 1
    outer loop
      vertex 0 0 4
      vertex 2.5 1.25 4
      vertex 2.15859 1.28363 4
    endloop
  endfacet
  facet normal 0 0 1
    outer loop
      vertex 0 0 4
      vertex 0.75 3 4
      vertex 0 6 4
    endloop
  endfacet
  facet normal 0 0 1
    outer loop
      vertex 2.84141 1.28363 4
      vertex 0 0 4
      vertex 10 0 4
    endloop
  endfacet
  facet normal 0 0 1
    outer loop
      vertex 1.8303 1.38321 4
      vertex 0 0 4
      vertex 2.15859 1.28363 4
    endloop
  endfacet
  facet normal 0 0 1
    outer loop
      vertex 1.52775 1.54493 4
      vertex 0 0 4
      vertex 1.8303 1.38321 4
    endloop
  endfacet
  facet normal 0 0 1
    outer loop
      vertex 1.26256 1.76256 4
      vertex 0 0 4
      vertex 1.52775 1.54493 4
    endloop
  endfacet
  facet normal 0 0 1
    outer loop
      vertex 1.04493 2.02775 4
      vertex 0 0 4
      vertex 1.26256 1.76256 4
    endloop
  endfacet
  facet normal 0 0 1
    outer loop
      vertex 0.88321 2.3303 4
      vertex 0 0 4
      vertex 1.04493 2.02775 4
    endloop
  endfacet
  facet normal 0 0 1
    outer loop
      vertex 0.783626 2.65859 4
      vertex 0 0 4
      vertex 0.88321 2.3303 4
    endloop
  endfacet
  facet normal 0 0 1
    outer loop
      vertex 0.75 3 4
      vertex 0 0 4
      vertex 0.783626 2.65859 4
    endloop
  endfacet
  facet normal 1 -0 0
    outer loop
      vertex 10 0 4
      vertex 10 6 0
      vertex 10 6 4
    endloop
  endfacet
  facet normal 1 0 0
    outer loop
      vertex 10 6 0
      vertex 10 0 4
      vertex 10 0 0
    endloop
  endfacet
  facet normal 0 0 -1
    outer loop
      vertex 10 0 0
      vertex 4.25 3 0
      vertex 10 6 0
    endloop
  endfacet
  facet normal 0 0 -1
    outer loop
      vertex 10 0 0
      vertex 4.21637 2.65859 0
      vertex 4.25 3 0
    endloop
  endfacet
  facet normal 0 0 -1
    outer loop
      vertex 10 0 0
      vertex 4.11679 2.3303 0
      vertex 4.21637 2.65859 0
    endloop
  endfacet
  facet normal 0 0 -1
    outer loop
      vertex 10 0 0
      vertex 3.95507 2.02775 0
      vertex 4.11679 2.3303 0
    endloop
  endfacet
  facet normal 0 0 -1
    outer loop
      vertex 10 0 0
      vertex 3.73744 1.76256 0
      vertex 3.95507 2.02775 0
    endloop
  endfacet
  facet normal 0 0 -1
    outer loop
      vertex 10 0 0
      vertex 3.47225 1.54493 0
      vertex 3.73744 1.76256 0
    endloop
  endfacet
  facet normal 0 0 -1
    outer loop
      vertex 10 0 0
      vertex 3.1697 1.38321 0
      vertex 3.47225 1.54493 0
    endloop
  endfacet
  facet normal 0 0 -1
    outer loop
      vertex 10 0 0
      vertex 2.84141 1.28363 0
      vertex 3.1697 1.38321 0
    endloop
  endfacet
  facet normal 0 0 -1
    outer loop
      vertex 0 0 0
      vertex 2.84141 1.28363 0
      vertex 10 0 0
    endloop
  endfacet
  facet normal 0 0 -1
    outer loop
      vertex 2.84141 1.28363 0
      vertex 0 0 0
      vertex 2.5 1.25 0
    endloop
  endfacet
  facet normal -0 0 -1
    outer loop
      vertex 0.783626 2.65859 0
      vertex 0 0 0
      vertex 0.75 3 0
    endloop
  endfacet
  facet normal -0 0 -1
    outer loop
      vertex 0.88321 2.3303 0
      vertex 0 0 0
      vertex 0.783626 2.65859 0
    endloop
  endfacet
  facet normal -0 0 -1
    outer loop
      vertex 1.04493 2.02775 0
      vertex 0 0 0
      vertex 0.88321 2.3303 0
    endloop
  endfacet
  facet normal -0 0 -1
    outer loop
      vertex 1.26256 1.76256 0
      vertex 0 0 0
      vertex 1.04493 2.02775 0
    endloop
  endfacet
  facet normal -0 0 -1
    outer loop
      vertex 1.52775 1.54493 0
      vertex 0 0 0
      vertex 1.26256 1.76256 0
    endloop
  endfacet
  facet normal -0 0 -1
    outer loop
      vertex 1.8303 1.38321 0
      vertex 0 0 0
      vertex 1.52775 1.54493 0
    endloop
  endfacet
  facet normal -0 0 -1
    outer loop
      vertex 2.15859 1.28363 0
      vertex 0 0 0
      vertex 1.8303 1.38321 0
    endloop
  endfacet
  facet normal -0 0 -1
    outer loop
      vertex 2.5 1.25 0
      vertex 0 0 0
      vertex 2.15859 1.28363 0
    endloop
  endfacet
  facet normal 0 0 -1
    outer loop
      vertex 4.21637 3.34141 0
      vertex 10 6 0
      vertex 4.25 3 0
    endloop
  endfacet
  facet normal 0 0 -1
    outer loop
      vertex 4.11679 3.6697 0
      vertex 10 6 0
      vertex 4.21637 3.34141 0
    endloop
  endfacet
  facet normal 0 0 -1
    outer loop
      vertex 3.95507 3.97225 0
      vertex 10 6 0
      vertex 4.11679 3.6697 0
    endloop
  endfacet
  facet normal 0 0 -1
    outer loop
      vertex 3.73744 4.23744 0
      vertex 10 6 0
      vertex 3.95507 3.97225 0
    endloop
  endfacet
  facet normal 0 0 -1
    outer loop
      vertex 3.47225 4.45507 0
      vertex 10 6 0
      vertex 3.73744 4.23744 0
    endloop
  endfacet
  facet normal 0 0 -1
    outer loop
      vertex 3.1697 4.61679 0
      vertex 10 6 0
      vertex 3.47225 4.45507 0
    endloop
  endfacet
  facet normal 0 0 -1
    outer loop
      vertex 2.84141 4.71637 0
      vertex 10 6 0
      vertex 3.1697 4.61679 0
    endloop
  endfacet
  facet normal 0 0 -1
    outer loop
      vertex 0 6 0
      vertex 2.84141 4.71637 0
      vertex 2.5 4.75 0
    endloop
  endfacet
  facet normal 0 0 -1
    outer loop
      vertex 0 6 0
      vertex 2.5 4.75 0
      vertex 2.15859 4.71637 0
    endloop
  endfacet
  facet normal 0 0 -1
    outer loop
      vertex 0 6 0
      vertex 0.75 3 0
      vertex 0 0 0
    endloop
  endfacet
  facet normal 0 0 -1
    outer loop
      vertex 2.84141 4.71637 0
      vertex 0 6 0
      vertex 10 6 0
    endloop
  endfacet
  facet normal 0 0 -1
    outer loop
      vertex 1.8303 4.61679 0
      vertex 0 6 0
      vertex 2.15859 4.71637 0
    endloop
  endfacet
  facet normal 0 0 -1
    outer loop
      vertex 1.52775 4.45507 0
      vertex 0 6 0
      vertex 1.8303 4.61679 0
    endloop
  endfacet
  facet normal 0 0 -1
    outer loop
      vertex 1.26256 4.23744 0
      vertex 0 6 0
      vertex 1.52775 4.45507 0
    endloop
  endfacet
  facet normal 0 0 -1
    outer loop
      vertex 1.04493 3.97225 0
      vertex 0 6 0
      vertex 1.26256 4.23744 0
    endloop
  endfacet
  facet normal 0 0 -1
    outer loop
      vertex 0.88321 3.6697 0
      vertex 0 6 0
      vertex 1.04493 3.97225 0
    endloop
  endfacet
  facet normal 0 0 -1
    outer loop
      vertex 0.783626 3.34141 0
      vertex 0 6 0
      vertex 0.88321 3.6697 0
    endloop
  endfacet
  facet normal 0 0 -1
    outer loop
      vertex 0.75 3 0
      vertex 0 6 0
      vertex 0.783626 3.34141 0
    endloop
  endfacet
  facet normal 0 -1 0
    outer loop
      vertex 0 0 0
      vertex 10 0 4
      vertex 0 0 4
    endloop
  endfacet
  facet normal 0 -1 -0
    outer loop
      vertex 10 0 4
      vertex 0 0 0
      vertex 10 0 0
    endloop
  endfacet
  facet normal 0 1 -0
    outer loop
      vertex 10 6 0
      vertex 0 6 4
      vertex 10 6 4
    endloop
  endfacet
  facet normal 0 1 0
    outer loop
      vertex 0 6 4
      vertex 10 6 0
      vertex 0 6 0
    endloop
  endfacet
  facet normal -0.471398 -0.881921 0
    outer loop
      vertex 3.1697 4.61679 0
      vertex 3.47225 4.45507 4
      vertex 3.1697 4.61679 4
    endloop
  endfacet
  facet normal -0.471398 -0.881921 -0
    outer loop
      vertex 3.47225 4.45507 4
      vertex 3.1697 4.61679 0
      vertex 3.47225 4.45507 0
    endloop
  endfacet
  facet normal -0.995185 0.0980193 0
    outer loop
      vertex 4.21637 2.65859 0
      vertex 4.25 3 4
      vertex 4.25 3 0
    endloop
  endfacet
  facet normal -0.995185 0.0980193 0
    outer loop
      vertex 4.25 3 4
      vertex 4.21637 2.65859 0
      vertex 4.21637 2.65859 4
    endloop
  endfacet
  facet normal 0.0980168 0.995185 -0
    outer loop
      vertex 2.5 1.25 0
      vertex 2.15859 1.28363 4
      vertex 2.5 1.25 4
    endloop
  endfacet
  facet normal 0.0980168 0.995185 0
    outer loop
      vertex 2.15859 1.28363 4
      vertex 2.5 1.25 0
      vertex 2.15859 1.28363 0
    endloop
  endfacet
  facet normal 0.471398 -0.881921 0
    outer loop
      vertex 1.52775 4.45507 0
      vertex 1.8303 4.61679 4
      vertex 1.52775 4.45507 4
    endloop
  endfacet
  facet normal 0.471398 -0.881921 0
    outer loop
      vertex 1.8303 4.61679 4
      vertex 1.52775 4.45507 0
      vertex 1.8303 4.61679 0
    endloop
  endfacet
  facet normal 0.956941 -0.290283 0
    outer loop
      vertex 0.783626 3.34141 4
      vertex 0.88321 3.6697 0
      vertex 0.88321 3.6697 4
    endloop
  endfacet
  facet normal 0.956941 -0.290283 0
    outer loop
      vertex 0.88321 3.6697 0
      vertex 0.783626 3.34141 4
      vertex 0.783626 3.34141 0
    endloop
  endfacet
  facet normal -0.77301 0.634393 0
    outer loop
      vertex 3.73744 1.76256 0
      vertex 3.95507 2.02775 4
      vertex 3.95507 2.02775 0
    endloop
  endfacet
  facet normal -0.77301 0.634393 0
    outer loop
      vertex 3.95507 2.02775 4
      vertex 3.73744 1.76256 0
      vertex 3.73744 1.76256 4
    endloop
  endfacet
  facet normal 0.77301 0.634393 0
    outer loop
      vertex 1.26256 1.76256 4
      vertex 1.04493 2.02775 0
      vertex 1.04493 2.02775 4
    endloop
  endfacet
  facet normal 0.77301 0.634393 0
    outer loop
      vertex 1.04493 2.02775 0
      vertex 1.26256 1.76256 4
      vertex 1.26256 1.76256 0
    endloop
  endfacet
  facet normal -0.956941 -0.290283 0
    outer loop
      vertex 4.21637 3.34141 0
      vertex 4.11679 3.6697 4
      vertex 4.11679 3.6697 0
    endloop
  endfacet
  facet normal -0.956941 -0.290283 0
    outer loop
      vertex 4.11679 3.6697 4
      vertex 4.21637 3.34141 0
      vertex 4.21637 3.34141 4
    endloop
  endfacet
  facet normal -0.881921 -0.471398 0
    outer loop
      vertex 4.11679 3.6697 0
      vertex 3.95507 3.97225 4
      vertex 3.95507 3.97225 0
    endloop
  endfacet
  facet normal -0.881921 -0.471398 0
    outer loop
      vertex 3.95507 3.97225 4
      vertex 4.11679 3.6697 0
      vertex 4.11679 3.6697 4
    endloop
  endfacet
  facet normal -0.77301 -0.634393 0
    outer loop
      vertex 3.95507 3.97225 0
      vertex 3.73744 4.23744 4
      vertex 3.73744 4.23744 0
    endloop
  endfacet
  facet normal -0.77301 -0.634393 0
    outer loop
      vertex 3.73744 4.23744 4
      vertex 3.95507 3.97225 0
      vertex 3.95507 3.97225 4
    endloop
  endfacet
  facet normal -0.634393 -0.77301 0
    outer loop
      vertex 3.47225 4.45507 0
      vertex 3.73744 4.23744 4
      vertex 3.47225 4.45507 4
    endloop
  endfacet
  facet normal -0.634393 -0.77301 -0
    outer loop
      vertex 3.73744 4.23744 4
      vertex 3.47225 4.45507 0
      vertex 3.73744 4.23744 0
    endloop
  endfacet
  facet normal -0.290283 -0.956941 0
    outer loop
      vertex 2.84141 4.71637 0
      vertex 3.1697 4.61679 4
      vertex 2.84141 4.71637 4
    endloop
  endfacet
  facet normal -0.290283 -0.956941 -0
    outer loop
      vertex 3.1697 4.61679 4
      vertex 2.84141 4.71637 0
      vertex 3.1697 4.61679 0
    endloop
  endfacet
  facet normal 0.0980193 -0.995185 0
    outer loop
      vertex 2.15859 4.71637 0
      vertex 2.5 4.75 4
      vertex 2.15859 4.71637 4
    endloop
  endfacet
  facet normal 0.0980193 -0.995185 0
    outer loop
      vertex 2.5 4.75 4
      vertex 2.15859 4.71637 0
      vertex 2.5 4.75 0
    endloop
  endfacet
  facet normal 0.995185 0.0980165 0
    outer loop
      vertex 0.783626 2.65859 4
      vertex 0.75 3 0
      vertex 0.75 3 4
    endloop
  endfacet
  facet normal 0.995185 0.0980165 0
    outer loop
      vertex 0.75 3 0
      vertex 0.783626 2.65859 4
      vertex 0.783626 2.65859 0
    endloop
  endfacet
  facet normal 0.881921 -0.471398 0
    outer loop
      vertex 0.88321 3.6697 4
      vertex 1.04493 3.97225 0
      vertex 1.04493 3.97225 4
    endloop
  endfacet
  facet normal 0.881921 -0.471398 0
    outer loop
      vertex 1.04493 3.97225 0
      vertex 0.88321 3.6697 4
      vertex 0.88321 3.6697 0
    endloop
  endfacet
  facet normal 0.634393 -0.77301 0
    outer loop
      vertex 1.26256 4.23744 0
      vertex 1.52775 4.45507 4
      vertex 1.26256 4.23744 4
    endloop
  endfacet
  facet normal 0.634393 -0.77301 0
    outer loop
      vertex 1.52775 4.45507 4
      vertex 1.26256 4.23744 0
      vertex 1.52775 4.45507 0
    endloop
  endfacet
  facet normal 0.290283 -0.956941 0
    outer loop
      vertex 1.8303 4.61679 0
      vertex 2.15859 4.71637 4
      vertex 1.8303 4.61679 4
    endloop
  endfacet
  facet normal 0.290283 -0.956941 0
    outer loop
      vertex 2.15859 4.71637 4
      vertex 1.8303 4.61679 0
      vertex 2.15859 4.71637 0
    endloop
  endfacet
  facet normal 0.77301 -0.634393 0
    outer loop
      vertex 1.04493 3.97225 4
      vertex 1.26256 4.23744 0
      vertex 1.26256 4.23744 4
    endloop
  endfacet
  facet normal 0.77301 -0.634393 0
    outer loop
      vertex 1.26256 4.23744 0
      vertex 1.04493 3.97225 4
      vertex 1.04493 3.97225 0
    endloop
  endfacet
  facet normal -0.995184 -0.0980195 0
    outer loop
      vertex 4.25 3 0
      vertex 4.21637 3.34141 4
      vertex 4.21637 3.34141 0
    endloop
  endfacet
  facet normal -0.995184 -0.0980195 0
    outer loop
      vertex 4.21637 3.34141 4
      vertex 4.25 3 0
      vertex 4.25 3 4
    endloop
  endfacet
  facet normal -0.290283 0.956941 0
    outer loop
      vertex 3.1697 1.38321 0
      vertex 2.84141 1.28363 4
      vertex 3.1697 1.38321 4
    endloop
  endfacet
  facet normal -0.290283 0.956941 0
    outer loop
      vertex 2.84141 1.28363 4
      vertex 3.1697 1.38321 0
      vertex 2.84141 1.28363 0
    endloop
  endfacet
  facet normal -0.881921 0.471398 0
    outer loop
      vertex 3.95507 2.02775 0
      vertex 4.11679 2.3303 4
      vertex 4.11679 2.3303 0
    endloop
  endfacet
  facet normal -0.881921 0.471398 0
    outer loop
      vertex 4.11679 2.3303 4
      vertex 3.95507 2.02775 0
      vertex 3.95507 2.02775 4
    endloop
  endfacet
  facet normal -0.956941 0.290283 0
    outer loop
      vertex 4.11679 2.3303 0
      vertex 4.21637 2.65859 4
      vertex 4.21637 2.65859 0
    endloop
  endfacet
  facet normal -0.956941 0.290283 0
    outer loop
      vertex 4.21637 2.65859 4
      vertex 4.11679 2.3303 0
      vertex 4.11679 2.3303 4
    endloop
  endfacet
  facet normal -0.471398 0.881921 0
    outer loop
      vertex 3.47225 1.54493 0
      vertex 3.1697 1.38321 4
      vertex 3.47225 1.54493 4
    endloop
  endfacet
  facet normal -0.471398 0.881921 0
    outer loop
      vertex 3.1697 1.38321 4
      vertex 3.47225 1.54493 0
      vertex 3.1697 1.38321 0
    endloop
  endfacet
  facet normal -0.634393 0.77301 0
    outer loop
      vertex 3.73744 1.76256 0
      vertex 3.47225 1.54493 4
      vertex 3.73744 1.76256 4
    endloop
  endfacet
  facet normal -0.634393 0.77301 0
    outer loop
      vertex 3.47225 1.54493 4
      vertex 3.73744 1.76256 0
      vertex 3.47225 1.54493 0
    endloop
  endfacet
  facet normal -0.0980165 0.995185 0
    outer loop
      vertex 2.84141 1.28363 0
      vertex 2.5 1.25 4
      vertex 2.84141 1.28363 4
    endloop
  endfacet
  facet normal -0.0980165 0.995185 0
    outer loop
      vertex 2.5 1.25 4
      vertex 2.84141 1.28363 0
      vertex 2.5 1.25 0
    endloop
  endfacet
  facet normal 0.290283 0.956941 -0
    outer loop
      vertex 2.15859 1.28363 0
      vertex 1.8303 1.38321 4
      vertex 2.15859 1.28363 4
    endloop
  endfacet
  facet normal 0.290283 0.956941 0
    outer loop
      vertex 1.8303 1.38321 4
      vertex 2.15859 1.28363 0
      vertex 1.8303 1.38321 0
    endloop
  endfacet
  facet normal 0.471398 0.881921 -0
    outer loop
      vertex 1.8303 1.38321 0
      vertex 1.52775 1.54493 4
      vertex 1.8303 1.38321 4
    endloop
  endfacet
  facet normal 0.471398 0.881921 0
    outer loop
      vertex 1.52775 1.54493 4
      vertex 1.8303 1.38321 0
      vertex 1.52775 1.54493 0
    endloop
  endfacet
  facet normal 0.956941 0.290283 0
    outer loop
      vertex 0.88321 2.3303 4
      vertex 0.783626 2.65859 0
      vertex 0.783626 2.65859 4
    endloop
  endfacet
  facet normal 0.956941 0.290283 0
    outer loop
      vertex 0.783626 2.65859 0
      vertex 0.88321 2.3303 4
      vertex 0.88321 2.3303 0
    endloop
  endfacet
  facet normal -0.0980195 -0.995184 0
    outer loop
      vertex 2.5 4.75 0
      vertex 2.84141 4.71637 4
      vertex 2.5 4.75 4
    endloop
  endfacet
  facet normal -0.0980195 -0.995184 -0
    outer loop
      vertex 2.84141 4.71637 4
      vertex 2.5 4.75 0
      vertex 2.84141 4.71637 0
    endloop
  endfacet
  facet normal 0.995185 -0.0980168 0
    outer loop
      vertex 0.75 3 4
      vertex 0.783626 3.34141 0
      vertex 0.783626 3.34141 4
    endloop
  endfacet
  facet normal 0.995185 -0.0980168 0
    outer loop
      vertex 0.783626 3.34141 0
      vertex 0.75 3 4
      vertex 0.75 3 0
    endloop
  endfacet
  facet normal 0.881921 0.471398 0
    outer loop
      vertex 1.04493 2.02775 4
      vertex 0.88321 2.3303 0
      vertex 0.88321 2.3303 4
    endloop
  endfacet
  facet normal 0.881921 0.471398 0
    outer loop
      vertex 0.88321 2.3303 0
      vertex 1.04493 2.02775 4
      vertex 1.04493 2.02775 0
    endloop
  endfacet
  facet normal 0.634393 0.77301 -0
    outer loop
      vertex 1.52775 1.54493 0
      vertex 1.26256 1.76256 4
      vertex 1.52775 1.54493 4
    endloop
  endfacet
  facet normal 0.634393 0.77301 0
    outer loop
      vertex 1.26256 1.76256 4
      vertex 1.52775 1.54493 0
      vertex 1.26256 1.76256 0
    endloop
  endfacet
  facet normal 0.471393 0.881923 -0
    outer loop
      vertex 7.80556 3.45731 4
      vertex 7.71047 3.50813 5.5
      vertex 7.80556 3.45731 5.5
    endloop
  endfacet
  facet normal 0.471393 0.881923 0
    outer loop
      vertex 7.71047 3.50813 5.5
      vertex 7.80556 3.45731 4
      vertex 7.71047 3.50813 4
    endloop
  endfacet
  facet normal -0.995185 0.0980139 0
    outer loop
      vertex 6.95 3 4
      vertex 6.96057 3.1073 5.5
      vertex 6.96057 3.1073 4
    endloop
  endfacet
  facet normal -0.995185 0.0980139 0
    outer loop
      vertex 6.96057 3.1073 5.5
      vertex 6.95 3 4
      vertex 6.95 3 5.5
    endloop
  endfacet
  facet normal 0.995185 -0.0980131 0
    outer loop
      vertex 8.03943 2.8927 5.5
      vertex 8.05 3 4
      vertex 8.05 3 5.5
    endloop
  endfacet
  facet normal 0.995185 -0.0980131 0
    outer loop
      vertex 8.05 3 4
      vertex 8.03943 2.8927 5.5
      vertex 8.03943 2.8927 4
    endloop
  endfacet
  facet normal -0.0980131 -0.995185 0
    outer loop
      vertex 7.3927 2.46057 4
      vertex 7.5 2.45 5.5
      vertex 7.3927 2.46057 5.5
    endloop
  endfacet
  facet normal -0.0980131 -0.995185 -0
    outer loop
      vertex 7.5 2.45 5.5
      vertex 7.3927 2.46057 4
      vertex 7.5 2.45 4
    endloop
  endfacet
  facet normal -0.471393 0.881923 0
    outer loop
      vertex 7.28952 3.50813 4
      vertex 7.19444 3.45731 5.5
      vertex 7.28952 3.50813 5.5
    endloop
  endfacet
  facet normal -0.471393 0.881923 0
    outer loop
      vertex 7.19444 3.45731 5.5
      vertex 7.28952 3.50813 4
      vertex 7.19444 3.45731 4
    endloop
  endfacet
  facet normal -0.956939 0.290289 0
    outer loop
      vertex 6.96057 3.1073 4
      vertex 6.99187 3.21047 5.5
      vertex 6.99187 3.21047 4
    endloop
  endfacet
  facet normal -0.956939 0.290289 0
    outer loop
      vertex 6.99187 3.21047 5.5
      vertex 6.96057 3.1073 4
      vertex 6.96057 3.1073 5.5
    endloop
  endfacet
  facet normal 0.881923 0.471393 0
    outer loop
      vertex 8.00813 3.21047 5.5
      vertex 7.95731 3.30556 4
      vertex 7.95731 3.30556 5.5
    endloop
  endfacet
  facet normal 0.881923 0.471393 0
    outer loop
      vertex 7.95731 3.30556 4
      vertex 8.00813 3.21047 5.5
      vertex 8.00813 3.21047 4
    endloop
  endfacet
  facet normal 0.773012 0.634391 0
    outer loop
      vertex 7.95731 3.30556 5.5
      vertex 7.88891 3.38891 4
      vertex 7.88891 3.38891 5.5
    endloop
  endfacet
  facet normal 0.773012 0.634391 0
    outer loop
      vertex 7.88891 3.38891 4
      vertex 7.95731 3.30556 5.5
      vertex 7.95731 3.30556 4
    endloop
  endfacet
  facet normal 0.634391 0.773012 -0
    outer loop
      vertex 7.88891 3.38891 4
      vertex 7.80556 3.45731 5.5
      vertex 7.88891 3.38891 5.5
    endloop
  endfacet
  facet normal 0.634391 0.773012 0
    outer loop
      vertex 7.80556 3.45731 5.5
      vertex 7.88891 3.38891 4
      vertex 7.80556 3.45731 4
    endloop
  endfacet
  facet normal 0.290289 0.956939 -0
    outer loop
      vertex 7.71047 3.50813 4
      vertex 7.6073 3.53943 5.5
      vertex 7.71047 3.50813 5.5
    endloop
  endfacet
  facet normal 0.290289 0.956939 0
    outer loop
      vertex 7.6073 3.53943 5.5
      vertex 7.71047 3.50813 4
      vertex 7.6073 3.53943 4
    endloop
  endfacet
  facet normal -0.0980131 0.995185 0
    outer loop
      vertex 7.5 3.55 4
      vertex 7.3927 3.53943 5.5
      vertex 7.5 3.55 5.5
    endloop
  endfacet
  facet normal -0.0980131 0.995185 0
    outer loop
      vertex 7.3927 3.53943 5.5
      vertex 7.5 3.55 4
      vertex 7.3927 3.53943 4
    endloop
  endfacet
  facet normal -0.995185 -0.0980131 0
    outer loop
      vertex 6.96057 2.8927 4
      vertex 6.95 3 5.5
      vertex 6.95 3 4
    endloop
  endfacet
  facet normal -0.995185 -0.0980131 0
    outer loop
      vertex 6.95 3 5.5
      vertex 6.96057 2.8927 4
      vertex 6.96057 2.8927 5.5
    endloop
  endfacet
  facet normal -0.881923 0.471393 0
    outer loop
      vertex 6.99187 3.21047 4
      vertex 7.04269 3.30556 5.5
      vertex 7.04269 3.30556 4
    endloop
  endfacet
  facet normal -0.881923 0.471393 0
    outer loop
      vertex 7.04269 3.30556 5.5
      vertex 6.99187 3.21047 4
      vertex 6.99187 3.21047 5.5
    endloop
  endfacet
  facet normal -0.634391 0.773012 0
    outer loop
      vertex 7.19444 3.45731 4
      vertex 7.11109 3.38891 5.5
      vertex 7.19444 3.45731 5.5
    endloop
  endfacet
  facet normal -0.634391 0.773012 0
    outer loop
      vertex 7.11109 3.38891 5.5
      vertex 7.19444 3.45731 4
      vertex 7.11109 3.38891 4
    endloop
  endfacet
  facet normal -0.290289 0.956939 0
    outer loop
      vertex 7.3927 3.53943 4
      vertex 7.28952 3.50813 5.5
      vertex 7.3927 3.53943 5.5
    endloop
  endfacet
  facet normal -0.290289 0.956939 0
    outer loop
      vertex 7.28952 3.50813 5.5
      vertex 7.3927 3.53943 4
      vertex 7.28952 3.50813 4
    endloop
  endfacet
  facet normal -0.773012 0.634391 0
    outer loop
      vertex 7.04269 3.30556 4
      vertex 7.11109 3.38891 5.5
      vertex 7.11109 3.38891 4
    endloop
  endfacet
  facet normal -0.773012 0.634391 0
    outer loop
      vertex 7.11109 3.38891 5.5
      vertex 7.04269 3.30556 4
      vertex 7.04269 3.30556 5.5
    endloop
  endfacet
  facet normal 0.995185 0.0980139 0
    outer loop
      vertex 8.05 3 5.5
      vertex 8.03943 3.1073 4
      vertex 8.03943 3.1073 5.5
    endloop
  endfacet
  facet normal 0.995185 0.0980139 0
    outer loop
      vertex 8.03943 3.1073 4
      vertex 8.05 3 5.5
      vertex 8.05 3 4
    endloop
  endfacet
  facet normal 0.290289 -0.956939 0
    outer loop
      vertex 7.6073 2.46057 4
      vertex 7.71047 2.49187 5.5
      vertex 7.6073 2.46057 5.5
    endloop
  endfacet
  facet normal 0.290289 -0.956939 0
    outer loop
      vertex 7.71047 2.49187 5.5
      vertex 7.6073 2.46057 4
      vertex 7.71047 2.49187 4
    endloop
  endfacet
  facet normal 0.471393 -0.881923 0
    outer loop
      vertex 7.71047 2.49187 4
      vertex 7.80556 2.54269 5.5
      vertex 7.71047 2.49187 5.5
    endloop
  endfacet
  facet normal 0.471393 -0.881923 0
    outer loop
      vertex 7.80556 2.54269 5.5
      vertex 7.71047 2.49187 4
      vertex 7.80556 2.54269 4
    endloop
  endfacet
  facet normal 0.634391 -0.773012 0
    outer loop
      vertex 7.80556 2.54269 4
      vertex 7.88891 2.61109 5.5
      vertex 7.80556 2.54269 5.5
    endloop
  endfacet
  facet normal 0.634391 -0.773012 0
    outer loop
      vertex 7.88891 2.61109 5.5
      vertex 7.80556 2.54269 4
      vertex 7.88891 2.61109 4
    endloop
  endfacet
  facet normal 0.881923 -0.471393 0
    outer loop
      vertex 7.95731 2.69444 5.5
      vertex 8.00813 2.78952 4
      vertex 8.00813 2.78952 5.5
    endloop
  endfacet
  facet normal 0.881923 -0.471393 0
    outer loop
      vertex 8.00813 2.78952 4
      vertex 7.95731 2.69444 5.5
      vertex 7.95731 2.69444 4
    endloop
  endfacet
  facet normal 0.0980139 -0.995185 0
    outer loop
      vertex 7.5 2.45 4
      vertex 7.6073 2.46057 5.5
      vertex 7.5 2.45 5.5
    endloop
  endfacet
  facet normal 0.0980139 -0.995185 0
    outer loop
      vertex 7.6073 2.46057 5.5
      vertex 7.5 2.45 4
      vertex 7.6073 2.46057 4
    endloop
  endfacet
  facet normal -0.471393 -0.881923 0
    outer loop
      vertex 7.19444 2.54269 4
      vertex 7.28952 2.49187 5.5
      vertex 7.19444 2.54269 5.5
    endloop
  endfacet
  facet normal -0.471393 -0.881923 -0
    outer loop
      vertex 7.28952 2.49187 5.5
      vertex 7.19444 2.54269 4
      vertex 7.28952 2.49187 4
    endloop
  endfacet
  facet normal -0.773012 -0.634391 0
    outer loop
      vertex 7.11109 2.61109 4
      vertex 7.04269 2.69444 5.5
      vertex 7.04269 2.69444 4
    endloop
  endfacet
  facet normal -0.773012 -0.634391 0
    outer loop
      vertex 7.04269 2.69444 5.5
      vertex 7.11109 2.61109 4
      vertex 7.11109 2.61109 5.5
    endloop
  endfacet
  facet normal -0.956939 -0.290289 0
    outer loop
      vertex 6.99187 2.78952 4
      vertex 6.96057 2.8927 5.5
      vertex 6.96057 2.8927 4
    endloop
  endfacet
  facet normal -0.956939 -0.290289 0
    outer loop
      vertex 6.96057 2.8927 5.5
      vertex 6.99187 2.78952 4
      vertex 6.99187 2.78952 5.5
    endloop
  endfacet
  facet normal -0.634391 -0.773012 0
    outer loop
      vertex 7.11109 2.61109 4
      vertex 7.19444 2.54269 5.5
      vertex 7.11109 2.61109 5.5
    endloop
  endfacet
  facet normal -0.634391 -0.773012 -0
    outer loop
      vertex 7.19444 2.54269 5.5
      vertex 7.11109 2.61109 4
      vertex 7.19444 2.54269 4
    endloop
  endfacet
  facet normal 0.956939 0.290289 0
    outer loop
      vertex 8.03943 3.1073 5.5
      vertex 8.00813 3.21047 4
      vertex 8.00813 3.21047 5.5
    endloop
  endfacet
  facet normal 0.956939 0.290289 0
    outer loop
      vertex 8.00813 3.21047 4
      vertex 8.03943 3.1073 5.5
      vertex 8.03943 3.1073 4
    endloop
  endfacet
  facet normal 0.0980139 0.995185 -0
    outer loop
      vertex 7.6073 3.53943 4
      vertex 7.5 3.55 5.5
      vertex 7.6073 3.53943 5.5
    endloop
  endfacet
  facet normal 0.0980139 0.995185 0
    outer loop
      vertex 7.5 3.55 5.5
      vertex 7.6073 3.53943 4
      vertex 7.5 3.55 4
    endloop
  endfacet
  facet normal 0 0 1
    outer loop
      vertex 8.03943 3.1073 5.5
      vertex 8.03943 2.8927 5.5
      vertex 8.05 3 5.5
    endloop
  endfacet
  facet normal 0 0 1
    outer loop
      vertex 8.00813 3.21047 5.5
      vertex 8.03943 2.8927 5.5
      vertex 8.03943 3.1073 5.5
    endloop
  endfacet
  facet normal 0 0 1
    outer loop
      vertex 8.00813 3.21047 5.5
      vertex 8.00813 2.78952 5.5
      vertex 8.03943 2.8927 5.5
    endloop
  endfacet
  facet normal 0 0 1
    outer loop
      vertex 7.95731 3.30556 5.5
      vertex 8.00813 2.78952 5.5
      vertex 8.00813 3.21047 5.5
    endloop
  endfacet
  facet normal 0 0 1
    outer loop
      vertex 7.95731 3.30556 5.5
      vertex 7.95731 2.69444 5.5
      vertex 8.00813 2.78952 5.5
    endloop
  endfacet
  facet normal 0 0 1
    outer loop
      vertex 7.88891 3.38891 5.5
      vertex 7.95731 2.69444 5.5
      vertex 7.95731 3.30556 5.5
    endloop
  endfacet
  facet normal 0 0 1
    outer loop
      vertex 7.88891 3.38891 5.5
      vertex 7.88891 2.61109 5.5
      vertex 7.95731 2.69444 5.5
    endloop
  endfacet
  facet normal 0 0 1
    outer loop
      vertex 7.80556 3.45731 5.5
      vertex 7.88891 2.61109 5.5
      vertex 7.88891 3.38891 5.5
    endloop
  endfacet
  facet normal 0 0 1
    outer loop
      vertex 7.80556 3.45731 5.5
      vertex 7.80556 2.54269 5.5
      vertex 7.88891 2.61109 5.5
    endloop
  endfacet
  facet normal 0 0 1
    outer loop
      vertex 7.71047 3.50813 5.5
      vertex 7.80556 2.54269 5.5
      vertex 7.80556 3.45731 5.5
    endloop
  endfacet
  facet normal 0 0 1
    outer loop
      vertex 7.71047 3.50813 5.5
      vertex 7.71047 2.49187 5.5
      vertex 7.80556 2.54269 5.5
    endloop
  endfacet
  facet normal 0 0 1
    outer loop
      vertex 7.6073 3.53943 5.5
      vertex 7.71047 2.49187 5.5
      vertex 7.71047 3.50813 5.5
    endloop
  endfacet
  facet normal 0 0 1
    outer loop
      vertex 7.6073 3.53943 5.5
      vertex 7.6073 2.46057 5.5
      vertex 7.71047 2.49187 5.5
    endloop
  endfacet
  facet normal 0 0 1
    outer loop
      vertex 7.5 3.55 5.5
      vertex 7.6073 2.46057 5.5
      vertex 7.6073 3.53943 5.5
    endloop
  endfacet
  facet normal 0 0 1
    outer loop
      vertex 7.5 3.55 5.5
      vertex 7.5 2.45 5.5
      vertex 7.6073 2.46057 5.5
    endloop
  endfacet
  facet normal -0 0 1
    outer loop
      vertex 7.3927 3.53943 5.5
      vertex 7.5 2.45 5.5
      vertex 7.5 3.55 5.5
    endloop
  endfacet
  facet normal 0 0 1
    outer loop
      vertex 7.3927 3.53943 5.5
      vertex 7.3927 2.46057 5.5
      vertex 7.5 2.45 5.5
    endloop
  endfacet
  facet normal -0 0 1
    outer loop
      vertex 7.28952 3.50813 5.5
      vertex 7.3927 2.46057 5.5
      vertex 7.3927 3.53943 5.5
    endloop
  endfacet
  facet normal 0 0 1
    outer loop
      vertex 7.28952 3.50813 5.5
      vertex 7.28952 2.49187 5.5
      vertex 7.3927 2.46057 5.5
    endloop
  endfacet
  facet normal -0 0 1
    outer loop
      vertex 7.19444 3.45731 5.5
      vertex 7.28952 2.49187 5.5
      vertex 7.28952 3.50813 5.5
    endloop
  endfacet
  facet normal 0 0 1
    outer loop
      vertex 7.19444 3.45731 5.5
      vertex 7.19444 2.54269 5.5
      vertex 7.28952 2.49187 5.5
    endloop
  endfacet
  facet normal -0 0 1
    outer loop
      vertex 7.11109 3.38891 5.5
      vertex 7.19444 2.54269 5.5
      vertex 7.19444 3.45731 5.5
    endloop
  endfacet
  facet normal 0 0 1
    outer loop
      vertex 7.11109 3.38891 5.5
      vertex 7.11109 2.61109 5.5
      vertex 7.19444 2.54269 5.5
    endloop
  endfacet
  facet normal -0 0 1
    outer loop
      vertex 7.04269 3.30556 5.5
      vertex 7.11109 2.61109 5.5
      vertex 7.11109 3.38891 5.5
    endloop
  endfacet
  facet normal 0 0 1
    outer loop
      vertex 7.04269 3.30556 5.5
      vertex 7.04269 2.69444 5.5
      vertex 7.11109 2.61109 5.5
    endloop
  endfacet
  facet normal -0 0 1
    outer loop
      vertex 6.99187 3.21047 5.5
      vertex 7.04269 2.69444 5.5
      vertex 7.04269 3.30556 5.5
    endloop
  endfacet
  facet normal 0 0 1
    outer loop
      vertex 6.99187 3.21047 5.5
      vertex 6.99187 2.78952 5.5
      vertex 7.04269 2.69444 5.5
    endloop
  endfacet
  facet normal -0 0 1
    outer loop
      vertex 6.96057 3.1073 5.5
      vertex 6.99187 2.78952 5.5
      vertex 6.99187 3.21047 5.5
    endloop
  endfacet
  facet normal 0 0 1
    outer loop
      vertex 6.96057 3.1073 5.5
      vertex 6.96057 2.8927 5.5
      vertex 6.99187 2.78952 5.5
    endloop
  endfacet
  facet normal 0 -0 1
    outer loop
      vertex 6.96057 2.8927 5.5
      vertex 6.96057 3.1073 5.5
      vertex 6.95 3 5.5
    endloop
  endfacet
  facet normal 0.773012 -0.634391 0
    outer loop
      vertex 7.88891 2.61109 5.5
      vertex 7.95731 2.69444 4
      vertex 7.95731 2.69444 5.5
    endloop
  endfacet
  facet normal 0.773012 -0.634391 0
    outer loop
      vertex 7.95731 2.69444 4
      vertex 7.88891 2.61109 5.5
      vertex 7.88891 2.61109 4
    endloop
  endfacet
  facet normal 0.956939 -0.290289 0
    outer loop
      vertex 8.00813 2.78952 5.5
      vertex 8.03943 2.8927 4
      vertex 8.03943 2.8927 5.5
    endloop
  endfacet
  facet normal 0.956939 -0.290289 0
    outer loop
      vertex 8.03943 2.8927 4
      vertex 8.00813 2.78952 5.5
      vertex 8.00813 2.78952 4
    endloop
  endfacet
  facet normal -0.290289 -0.956939 0
    outer loop
      vertex 7.28952 2.49187 4
      vertex 7.3927 2.46057 5.5
      vertex 7.28952 2.49187 5.5
    endloop
  endfacet
  facet normal -0.290289 -0.956939 -0
    outer loop
      vertex 7.3927 2.46057 5.5
      vertex 7.28952 2.49187 4
      vertex 7.3927 2.46057 4
    endloop
  endfacet
  facet normal -0.881923 -0.471393 0
    outer loop
      vertex 7.04269 2.69444 4
      vertex 6.99187 2.78952 5.5
      vertex 6.99187 2.78952 4
    endloop
  endfacet
  facet normal -0.881923 -0.471393 0
    outer loop
      vertex 6.99187 2.78952 5.5
      vertex 7.04269 2.69444 4
      vertex 7.04269 2.69444 5.5
    endloop
  endfacet
endsolid OpenSCAD_Model
