<?xml version="1.0" standalone="no"?>
<!DOCTYPE svg PUBLIC "-//W3C//DTD SVG 1.1//EN" "http://www.w3.org/Graphics/SVG/1.1/DTD/svg11.dtd">
<svg width="1714mm" height="802mm" viewBox="-1 -801 1714 802" xmlns="http://www.w3.org/2000/svg" version="1.1">
<title>OpenSCAD Model</title>
<path d="
M 10.1224,-214.01 L 14.2449,-214.01 L 14.2449,-212.01 L 18.3673,-212.01 L 18.3673,-214.01 L 22.4898,-214.01
 L 22.4898,-212.01 L 26.6122,-212.01 L 26.6122,-214.01 L 30.7347,-214.01 L 30.7347,-212.01 L 34.8571,-212.01
 L 34.8571,-214.01 L 38.9796,-214.01 L 38.9796,-212.01 L 43.102,-212.01 L 43.102,-214.01 L 47.2245,-214.01
 L 47.2245,-212.01 L 51.3469,-212.01 L 51.3469,-214.01 L 55.4694,-214.01 L 55.4694,-212.01 L 59.5918,-212.01
 L 59.5918,-214.01 L 63.7143,-214.01 L 63.7143,-212.01 L 67.8367,-212.01 L 67.8367,-214.01 L 71.9592,-214.01
 L 71.9592,-212.01 L 76.0816,-212.01 L 76.0816,-214.01 L 80.2041,-214.01 L 80.2041,-212.01 L 84.3265,-212.01
 L 84.3265,-214.01 L 88.449,-214.01 L 88.449,-212.01 L 92.5714,-212.01 L 92.5714,-214.01 L 96.6939,-214.01
 L 96.6939,-212.01 L 100.816,-212.01 L 100.816,-214.01 L 104.939,-214.01 L 104.939,-212.01 L 109.061,-212.01
 L 109.061,-214.01 L 113.184,-214.01 L 113.184,-212.01 L 117.306,-212.01 L 117.306,-214.01 L 121.429,-214.01
 L 121.429,-212.01 L 125.551,-212.01 L 125.551,-214.01 L 129.673,-214.01 L 129.673,-212.01 L 133.796,-212.01
 L 133.796,-214.01 L 137.918,-214.01 L 137.918,-212.01 L 142.041,-212.01 L 142.041,-214.01 L 146.163,-214.01
 L 146.163,-212.01 L 150.286,-212.01 L 150.286,-214.01 L 154.408,-214.01 L 154.408,-212.01 L 158.531,-212.01
 L 158.531,-214.01 L 162.653,-214.01 L 162.653,-212.01 L 166.776,-212.01 L 166.776,-214.01 L 170.898,-214.01
 L 170.898,-212.01 L 175.02,-212.01 L 175.02,-214.01 L 179.143,-214.01 L 179.143,-212.01 L 183.265,-212.01
 L 183.265,-214.01 L 187.388,-214.01 L 187.388,-212.01 L 191.51,-212.01 L 191.51,-214.01 L 195.633,-214.01
 L 195.633,-212.01 L 199.755,-212.01 L 199.755,-214.01 L 203.878,-214.01 L 203.878,-212.01 L 208,-212.01
 L 208,-214.01 L 212,-214.01 L 212,-220.01 L 214,-220.01 L 214,-224.01 L 212,-224.01
 L 212,-228.01 L 214,-228.01 L 214,-232.01 L 212,-232.01 L 212,-236.01 L 214,-236.01
 L 214,-240.01 L 212,-240.01 L 212,-244.01 L 214,-244.01 L 214,-248.01 L 212,-248.01
 L 212,-252.01 L 214,-252.01 L 214,-256.01 L 212,-256.01 L 212,-260.01 L 214,-260.01
 L 214,-264.01 L 212,-264.01 L 212,-268.01 L 214,-268.01 L 214,-272.01 L 212,-272.01
 L 212,-276.01 L 214,-276.01 L 214,-280.01 L 212,-280.01 L 212,-284.01 L 214,-284.01
 L 214,-288.01 L 212,-288.01 L 212,-292.01 L 214,-292.01 L 214,-296.01 L 212,-296.01
 L 212,-300.01 L 214,-300.01 L 214,-304.01 L 212,-304.01 L 212,-308.01 L 214,-308.01
 L 214,-312.01 L 212,-312.01 L 212,-316.01 L 214,-316.01 L 214,-320.01 L 212,-320.01
 L 212,-324.01 L 214,-324.01 L 214,-328.01 L 212,-328.01 L 212,-332.01 L 214,-332.01
 L 214,-336.01 L 212,-336.01 L 212,-340.01 L 214,-340.01 L 214,-344.01 L 212,-344.01
 L 212,-348.01 L 214,-348.01 L 214,-352.01 L 212,-352.01 L 212,-356.01 L 214,-356.01
 L 214,-360.01 L 212,-360.01 L 212,-364.01 L 214,-364.01 L 214,-368.01 L 212,-368.01
 L 212,-372.01 L 214,-372.01 L 214,-376.01 L 212,-376.01 L 212,-380.01 L 214,-380.01
 L 214,-384.01 L 212,-384.01 L 212,-388.01 L 214,-388.01 L 214,-392.01 L 212,-392.01
 L 212,-396.01 L 214,-396.01 L 214,-400.01 L 212,-400.01 L 212,-404.01 L 214,-404.01
 L 214,-408.01 L 212,-408.01 L 212,-412.01 L 214,-412.01 L 214,-416.01 L 212,-416.01
 L 212,-420.01 L 214,-420.01 L 214,-424.01 L 212,-424.01 L 212,-428.01 L 214,-428.01
 L 214,-432.01 L 212,-432.01 L 212,-436.01 L 214,-436.01 L 214,-440.01 L 212,-440.01
 L 212,-444.01 L 214,-444.01 L 214,-448.01 L 212,-448.01 L 212,-452.01 L 214,-452.01
 L 214,-456.01 L 212,-456.01 L 212,-460.01 L 214,-460.01 L 214,-464.01 L 212,-464.01
 L 212,-468.01 L 214,-468.01 L 214,-472.01 L 212,-472.01 L 212,-476.01 L 214,-476.01
 L 214,-480.01 L 212,-480.01 L 212,-484.01 L 214,-484.01 L 214,-488.01 L 212,-488.01
 L 212,-492.01 L 214,-492.01 L 214,-496.01 L 212,-496.01 L 212,-500.01 L 214,-500.01
 L 214,-504.01 L 212,-504.01 L 212,-508.01 L 214,-508.01 L 214,-512.01 L 212,-512.01
 L 212,-516.01 L 214,-516.01 L 214,-520.01 L 212,-520.01 L 212,-524.01 L 214,-524.01
 L 214,-528.01 L 212,-528.01 L 212,-532.01 L 214,-532.01 L 214,-536.01 L 212,-536.01
 L 212,-540.01 L 214,-540.01 L 214,-544.01 L 212,-544.01 L 212,-548.01 L 214,-548.01
 L 214,-552.01 L 212,-552.01 L 212,-556.01 L 214,-556.01 L 214,-560.01 L 212,-560.01
 L 212,-564.01 L 214,-564.01 L 214,-568.01 L 212,-568.01 L 212,-572.01 L 214,-572.01
 L 214,-576.01 L 212,-576.01 L 212,-580.01 L 214,-580.01 L 214,-584.01 L 212,-584.01
 L 212,-588.01 L 214,-588.01 L 214,-592.01 L 212,-592.01 L 212,-596.01 L 214,-596.01
 L 214,-600.01 L 212,-600.01 L 212,-604.01 L 214,-604.01 L 214,-608.01 L 212,-608.01
 L 212,-612.01 L 214,-612.01 L 214,-616.01 L 212,-616.01 L 212,-620.01 L 214,-620.01
 L 214,-624.01 L 212,-624.01 L 212,-628.01 L 214,-628.01 L 214,-632.01 L 212,-632.01
 L 212,-636.01 L 214,-636.01 L 214,-640.01 L 212,-640.01 L 212,-644.01 L 214,-644.01
 L 214,-648.01 L 212,-648.01 L 212,-652.01 L 214,-652.01 L 214,-656.01 L 212,-656.01
 L 212,-660.01 L 214,-660.01 L 214,-664.01 L 212,-664.01 L 212,-668.01 L 214,-668.01
 L 214,-672.01 L 212,-672.01 L 212,-676.01 L 214,-676.01 L 214,-680.01 L 212,-680.01
 L 212,-684.01 L 214,-684.01 L 214,-688.01 L 212,-688.01 L 212,-692.01 L 214,-692.01
 L 214,-696.01 L 212,-696.01 L 212,-700.01 L 214,-700.01 L 214,-704.01 L 212,-704.01
 L 212,-708.01 L 214,-708.01 L 214,-712.01 L 212,-712.01 L 212,-716.01 L 214,-716.01
 L 214,-720.01 L 212,-720.01 L 212,-724.01 L 214,-724.01 L 214,-728.01 L 212,-728.01
 L 212,-732.01 L 214,-732.01 L 214,-736.01 L 212,-736.01 L 212,-740.01 L 214,-740.01
 L 214,-744.01 L 212,-744.01 L 212,-748.01 L 214,-748.01 L 214,-752.01 L 212,-752.01
 L 212,-756.01 L 214,-756.01 L 214,-760.01 L 212,-760.01 L 212,-764.01 L 214,-764.01
 L 214,-768.01 L 212,-768.01 L 212,-772.01 L 214,-772.01 L 214,-776.01 L 212,-776.01
 L 212,-780.01 L 214,-780.01 L 214,-784.01 L 212,-784.01 L 212,-788.01 L 214,-788.01
 L 214,-792.01 L 212,-792.01 L 212,-798.01 L 208,-798.01 L 208,-800.01 L 203.878,-800.01
 L 203.878,-798.01 L 199.755,-798.01 L 199.755,-800.01 L 195.633,-800.01 L 195.633,-798.01 L 191.51,-798.01
 L 191.51,-800.01 L 187.388,-800.01 L 187.388,-798.01 L 183.265,-798.01 L 183.265,-800.01 L 179.143,-800.01
 L 179.143,-798.01 L 175.02,-798.01 L 175.02,-800.01 L 170.898,-800.01 L 170.898,-798.01 L 166.776,-798.01
 L 166.776,-800.01 L 162.653,-800.01 L 162.653,-798.01 L 158.531,-798.01 L 158.531,-800.01 L 154.408,-800.01
 L 154.408,-798.01 L 150.286,-798.01 L 150.286,-800.01 L 146.163,-800.01 L 146.163,-798.01 L 142.041,-798.01
 L 142.041,-800.01 L 137.918,-800.01 L 137.918,-798.01 L 133.796,-798.01 L 133.796,-800.01 L 129.673,-800.01
 L 129.673,-798.01 L 125.551,-798.01 L 125.551,-800.01 L 121.429,-800.01 L 121.429,-798.01 L 117.306,-798.01
 L 117.306,-800.01 L 113.184,-800.01 L 113.184,-798.01 L 109.061,-798.01 L 109.061,-800.01 L 104.939,-800.01
 L 104.939,-798.01 L 100.816,-798.01 L 100.816,-800.01 L 96.6939,-800.01 L 96.6939,-798.01 L 92.5714,-798.01
 L 92.5714,-800.01 L 88.449,-800.01 L 88.449,-798.01 L 84.3265,-798.01 L 84.3265,-800.01 L 80.2041,-800.01
 L 80.2041,-798.01 L 76.0816,-798.01 L 76.0816,-800.01 L 71.9592,-800.01 L 71.9592,-798.01 L 67.8367,-798.01
 L 67.8367,-800.01 L 63.7143,-800.01 L 63.7143,-798.01 L 59.5918,-798.01 L 59.5918,-800.01 L 55.4694,-800.01
 L 55.4694,-798.01 L 51.3469,-798.01 L 51.3469,-800.01 L 47.2245,-800.01 L 47.2245,-798.01 L 43.102,-798.01
 L 43.102,-800.01 L 38.9796,-800.01 L 38.9796,-798.01 L 34.8571,-798.01 L 34.8571,-800.01 L 30.7347,-800.01
 L 30.7347,-798.01 L 26.6122,-798.01 L 26.6122,-800.01 L 22.4898,-800.01 L 22.4898,-798.01 L 18.3673,-798.01
 L 18.3673,-800.01 L 14.2449,-800.01 L 14.2449,-798.01 L 10.1224,-798.01 L 10.1224,-800.01 L 6,-800.01
 L 6,-798.01 L 2,-798.01 L 2,-792.01 L 0,-792.01 L 0,-788.01 L 2,-788.01
 L 2,-784.01 L 0,-784.01 L 0,-780.01 L 2,-780.01 L 2,-776.01 L 0,-776.01
 L 0,-772.01 L 2,-772.01 L 2,-768.01 L 0,-768.01 L 0,-764.01 L 2,-764.01
 L 2,-760.01 L 0,-760.01 L 0,-756.01 L 2,-756.01 L 2,-752.01 L 0,-752.01
 L 0,-748.01 L 2,-748.01 L 2,-744.01 L 0,-744.01 L 0,-740.01 L 2,-740.01
 L 2,-736.01 L 0,-736.01 L 0,-732.01 L 2,-732.01 L 2,-728.01 L 0,-728.01
 L 0,-724.01 L 2,-724.01 L 2,-720.01 L 0,-720.01 L 0,-716.01 L 2,-716.01
 L 2,-712.01 L 0,-712.01 L 0,-708.01 L 2,-708.01 L 2,-704.01 L 0,-704.01
 L 0,-700.01 L 2,-700.01 L 2,-696.01 L 0,-696.01 L 0,-692.01 L 2,-692.01
 L 2,-688.01 L 0,-688.01 L 0,-684.01 L 2,-684.01 L 2,-680.01 L 0,-680.01
 L 0,-676.01 L 2,-676.01 L 2,-672.01 L 0,-672.01 L 0,-668.01 L 2,-668.01
 L 2,-664.01 L 0,-664.01 L 0,-660.01 L 2,-660.01 L 2,-656.01 L 0,-656.01
 L 0,-652.01 L 2,-652.01 L 2,-648.01 L 0,-648.01 L 0,-644.01 L 2,-644.01
 L 2,-640.01 L 0,-640.01 L 0,-636.01 L 2,-636.01 L 2,-632.01 L 0,-632.01
 L 0,-628.01 L 2,-628.01 L 2,-624.01 L 0,-624.01 L 0,-620.01 L 2,-620.01
 L 2,-616.01 L 0,-616.01 L 0,-612.01 L 2,-612.01 L 2,-608.01 L 0,-608.01
 L 0,-604.01 L 2,-604.01 L 2,-600.01 L 0,-600.01 L 0,-596.01 L 2,-596.01
 L 2,-592.01 L 0,-592.01 L 0,-588.01 L 2,-588.01 L 2,-584.01 L 0,-584.01
 L 0,-580.01 L 2,-580.01 L 2,-576.01 L 0,-576.01 L 0,-572.01 L 2,-572.01
 L 2,-568.01 L 0,-568.01 L 0,-564.01 L 2,-564.01 L 2,-560.01 L 0,-560.01
 L 0,-556.01 L 2,-556.01 L 2,-552.01 L 0,-552.01 L 0,-548.01 L 2,-548.01
 L 2,-544.01 L 0,-544.01 L 0,-540.01 L 2,-540.01 L 2,-536.01 L 0,-536.01
 L 0,-532.01 L 2,-532.01 L 2,-528.01 L 0,-528.01 L 0,-524.01 L 2,-524.01
 L 2,-520.01 L 0,-520.01 L 0,-516.01 L 2,-516.01 L 2,-512.01 L 0,-512.01
 L 0,-508.01 L 2,-508.01 L 2,-504.01 L 0,-504.01 L 0,-500.01 L 2,-500.01
 L 2,-496.01 L 0,-496.01 L 0,-492.01 L 2,-492.01 L 2,-488.01 L 0,-488.01
 L 0,-484.01 L 2,-484.01 L 2,-480.01 L 0,-480.01 L 0,-476.01 L 2,-476.01
 L 2,-472.01 L 0,-472.01 L 0,-468.01 L 2,-468.01 L 2,-464.01 L 0,-464.01
 L 0,-460.01 L 2,-460.01 L 2,-456.01 L 0,-456.01 L 0,-452.01 L 2,-452.01
 L 2,-448.01 L 0,-448.01 L 0,-444.01 L 2,-444.01 L 2,-440.01 L 0,-440.01
 L 0,-436.01 L 2,-436.01 L 2,-432.01 L 0,-432.01 L 0,-428.01 L 2,-428.01
 L 2,-424.01 L 0,-424.01 L 0,-420.01 L 2,-420.01 L 2,-416.01 L 0,-416.01
 L 0,-412.01 L 2,-412.01 L 2,-408.01 L 0,-408.01 L 0,-404.01 L 2,-404.01
 L 2,-400.01 L 0,-400.01 L 0,-396.01 L 2,-396.01 L 2,-392.01 L 0,-392.01
 L 0,-388.01 L 2,-388.01 L 2,-384.01 L 0,-384.01 L 0,-380.01 L 2,-380.01
 L 2,-376.01 L 0,-376.01 L 0,-372.01 L 2,-372.01 L 2,-368.01 L 0,-368.01
 L 0,-364.01 L 2,-364.01 L 2,-360.01 L 0,-360.01 L 0,-356.01 L 2,-356.01
 L 2,-352.01 L 0,-352.01 L 0,-348.01 L 2,-348.01 L 2,-344.01 L 0,-344.01
 L 0,-340.01 L 2,-340.01 L 2,-336.01 L 0,-336.01 L 0,-332.01 L 2,-332.01
 L 2,-328.01 L 0,-328.01 L 0,-324.01 L 2,-324.01 L 2,-320.01 L 0,-320.01
 L 0,-316.01 L 2,-316.01 L 2,-312.01 L 0,-312.01 L 0,-308.01 L 2,-308.01
 L 2,-304.01 L 0,-304.01 L 0,-300.01 L 2,-300.01 L 2,-296.01 L 0,-296.01
 L 0,-292.01 L 2,-292.01 L 2,-288.01 L 0,-288.01 L 0,-284.01 L 2,-284.01
 L 2,-280.01 L 0,-280.01 L 0,-276.01 L 2,-276.01 L 2,-272.01 L 0,-272.01
 L 0,-268.01 L 2,-268.01 L 2,-264.01 L 0,-264.01 L 0,-260.01 L 2,-260.01
 L 2,-256.01 L 0,-256.01 L 0,-252.01 L 2,-252.01 L 2,-248.01 L 0,-248.01
 L 0,-244.01 L 2,-244.01 L 2,-240.01 L 0,-240.01 L 0,-236.01 L 2,-236.01
 L 2,-232.01 L 0,-232.01 L 0,-228.01 L 2,-228.01 L 2,-224.01 L 0,-224.01
 L 0,-220.01 L 2,-220.01 L 2,-214.01 L 6,-214.01 L 6,-212.01 L 10.1224,-212.01
 z
M 426.01,-222.01 L 428.01,-222.01 L 428.01,-226.01 L 426.01,-226.01 L 426.01,-230.01 L 428.01,-230.01
 L 428.01,-234.01 L 426.01,-234.01 L 426.01,-238.01 L 428.01,-238.01 L 428.01,-242.01 L 426.01,-242.01
 L 426.01,-246.01 L 428.01,-246.01 L 428.01,-250.01 L 426.01,-250.01 L 426.01,-254.01 L 428.01,-254.01
 L 428.01,-258.01 L 426.01,-258.01 L 426.01,-262.01 L 428.01,-262.01 L 428.01,-266.01 L 426.01,-266.01
 L 426.01,-270.01 L 428.01,-270.01 L 428.01,-274.01 L 426.01,-274.01 L 426.01,-278.01 L 428.01,-278.01
 L 428.01,-282.01 L 426.01,-282.01 L 426.01,-286.01 L 428.01,-286.01 L 428.01,-290.01 L 426.01,-290.01
 L 426.01,-294.01 L 428.01,-294.01 L 428.01,-298.01 L 426.01,-298.01 L 426.01,-302.01 L 428.01,-302.01
 L 428.01,-306.01 L 426.01,-306.01 L 426.01,-310.01 L 428.01,-310.01 L 428.01,-314.01 L 426.01,-314.01
 L 426.01,-318.01 L 428.01,-318.01 L 428.01,-322.01 L 426.01,-322.01 L 426.01,-326.01 L 428.01,-326.01
 L 428.01,-330.01 L 426.01,-330.01 L 426.01,-334.01 L 428.01,-334.01 L 428.01,-338.01 L 426.01,-338.01
 L 426.01,-342.01 L 428.01,-342.01 L 428.01,-346.01 L 426.01,-346.01 L 426.01,-350.01 L 428.01,-350.01
 L 428.01,-354.01 L 426.01,-354.01 L 426.01,-358.01 L 428.01,-358.01 L 428.01,-362.01 L 426.01,-362.01
 L 426.01,-366.01 L 428.01,-366.01 L 428.01,-370.01 L 426.01,-370.01 L 426.01,-374.01 L 428.01,-374.01
 L 428.01,-378.01 L 426.01,-378.01 L 426.01,-382.01 L 428.01,-382.01 L 428.01,-386.01 L 426.01,-386.01
 L 426.01,-390.01 L 428.01,-390.01 L 428.01,-394.01 L 426.01,-394.01 L 426.01,-398.01 L 428.01,-398.01
 L 428.01,-402.01 L 426.01,-402.01 L 426.01,-406.01 L 428.01,-406.01 L 428.01,-410.01 L 426.01,-410.01
 L 426.01,-414.01 L 428.01,-414.01 L 428.01,-418.01 L 426.01,-418.01 L 426.01,-424.01 L 216.01,-424.01
 L 216.01,-418.01 L 214.01,-418.01 L 214.01,-414.01 L 216.01,-414.01 L 216.01,-410.01 L 214.01,-410.01
 L 214.01,-406.01 L 216.01,-406.01 L 216.01,-402.01 L 214.01,-402.01 L 214.01,-398.01 L 216.01,-398.01
 L 216.01,-394.01 L 214.01,-394.01 L 214.01,-390.01 L 216.01,-390.01 L 216.01,-386.01 L 214.01,-386.01
 L 214.01,-382.01 L 216.01,-382.01 L 216.01,-378.01 L 214.01,-378.01 L 214.01,-374.01 L 216.01,-374.01
 L 216.01,-370.01 L 214.01,-370.01 L 214.01,-366.01 L 216.01,-366.01 L 216.01,-362.01 L 214.01,-362.01
 L 214.01,-358.01 L 216.01,-358.01 L 216.01,-354.01 L 214.01,-354.01 L 214.01,-350.01 L 216.01,-350.01
 L 216.01,-346.01 L 214.01,-346.01 L 214.01,-342.01 L 216.01,-342.01 L 216.01,-338.01 L 214.01,-338.01
 L 214.01,-334.01 L 216.01,-334.01 L 216.01,-330.01 L 214.01,-330.01 L 214.01,-326.01 L 216.01,-326.01
 L 216.01,-322.01 L 214.01,-322.01 L 214.01,-318.01 L 216.01,-318.01 L 216.01,-314.01 L 214.01,-314.01
 L 214.01,-310.01 L 216.01,-310.01 L 216.01,-306.01 L 214.01,-306.01 L 214.01,-302.01 L 216.01,-302.01
 L 216.01,-298.01 L 214.01,-298.01 L 214.01,-294.01 L 216.01,-294.01 L 216.01,-290.01 L 214.01,-290.01
 L 214.01,-286.01 L 216.01,-286.01 L 216.01,-282.01 L 214.01,-282.01 L 214.01,-278.01 L 216.01,-278.01
 L 216.01,-274.01 L 214.01,-274.01 L 214.01,-270.01 L 216.01,-270.01 L 216.01,-266.01 L 214.01,-266.01
 L 214.01,-262.01 L 216.01,-262.01 L 216.01,-258.01 L 214.01,-258.01 L 214.01,-254.01 L 216.01,-254.01
 L 216.01,-250.01 L 214.01,-250.01 L 214.01,-246.01 L 216.01,-246.01 L 216.01,-242.01 L 214.01,-242.01
 L 214.01,-238.01 L 216.01,-238.01 L 216.01,-234.01 L 214.01,-234.01 L 214.01,-230.01 L 216.01,-230.01
 L 216.01,-226.01 L 214.01,-226.01 L 214.01,-222.01 L 216.01,-222.01 L 216.01,-214.01 L 426.01,-214.01
 z
M 640.02,-222.01 L 642.02,-222.01 L 642.02,-226.01 L 640.02,-226.01 L 640.02,-230.01 L 642.02,-230.01
 L 642.02,-234.01 L 640.02,-234.01 L 640.02,-238.01 L 642.02,-238.01 L 642.02,-242.01 L 640.02,-242.01
 L 640.02,-246.01 L 642.02,-246.01 L 642.02,-250.01 L 640.02,-250.01 L 640.02,-254.01 L 642.02,-254.01
 L 642.02,-258.01 L 640.02,-258.01 L 640.02,-262.01 L 642.02,-262.01 L 642.02,-266.01 L 640.02,-266.01
 L 640.02,-270.01 L 642.02,-270.01 L 642.02,-274.01 L 640.02,-274.01 L 640.02,-278.01 L 642.02,-278.01
 L 642.02,-282.01 L 640.02,-282.01 L 640.02,-286.01 L 642.02,-286.01 L 642.02,-290.01 L 640.02,-290.01
 L 640.02,-294.01 L 642.02,-294.01 L 642.02,-298.01 L 640.02,-298.01 L 640.02,-302.01 L 642.02,-302.01
 L 642.02,-306.01 L 640.02,-306.01 L 640.02,-310.01 L 642.02,-310.01 L 642.02,-314.01 L 640.02,-314.01
 L 640.02,-318.01 L 642.02,-318.01 L 642.02,-322.01 L 640.02,-322.01 L 640.02,-326.01 L 642.02,-326.01
 L 642.02,-330.01 L 640.02,-330.01 L 640.02,-334.01 L 642.02,-334.01 L 642.02,-338.01 L 640.02,-338.01
 L 640.02,-342.01 L 642.02,-342.01 L 642.02,-346.01 L 640.02,-346.01 L 640.02,-350.01 L 642.02,-350.01
 L 642.02,-354.01 L 640.02,-354.01 L 640.02,-358.01 L 642.02,-358.01 L 642.02,-362.01 L 640.02,-362.01
 L 640.02,-366.01 L 642.02,-366.01 L 642.02,-370.01 L 640.02,-370.01 L 640.02,-374.01 L 642.02,-374.01
 L 642.02,-378.01 L 640.02,-378.01 L 640.02,-382.01 L 642.02,-382.01 L 642.02,-386.01 L 640.02,-386.01
 L 640.02,-390.01 L 642.02,-390.01 L 642.02,-394.01 L 640.02,-394.01 L 640.02,-398.01 L 642.02,-398.01
 L 642.02,-402.01 L 640.02,-402.01 L 640.02,-406.01 L 642.02,-406.01 L 642.02,-410.01 L 640.02,-410.01
 L 640.02,-414.01 L 642.02,-414.01 L 642.02,-418.01 L 640.02,-418.01 L 640.02,-424.01 L 430.02,-424.01
 L 430.02,-418.01 L 428.02,-418.01 L 428.02,-414.01 L 430.02,-414.01 L 430.02,-410.01 L 428.02,-410.01
 L 428.02,-406.01 L 430.02,-406.01 L 430.02,-402.01 L 428.02,-402.01 L 428.02,-398.01 L 430.02,-398.01
 L 430.02,-394.01 L 428.02,-394.01 L 428.02,-390.01 L 430.02,-390.01 L 430.02,-386.01 L 428.02,-386.01
 L 428.02,-382.01 L 430.02,-382.01 L 430.02,-378.01 L 428.02,-378.01 L 428.02,-374.01 L 430.02,-374.01
 L 430.02,-370.01 L 428.02,-370.01 L 428.02,-366.01 L 430.02,-366.01 L 430.02,-362.01 L 428.02,-362.01
 L 428.02,-358.01 L 430.02,-358.01 L 430.02,-354.01 L 428.02,-354.01 L 428.02,-350.01 L 430.02,-350.01
 L 430.02,-346.01 L 428.02,-346.01 L 428.02,-342.01 L 430.02,-342.01 L 430.02,-338.01 L 428.02,-338.01
 L 428.02,-334.01 L 430.02,-334.01 L 430.02,-330.01 L 428.02,-330.01 L 428.02,-326.01 L 430.02,-326.01
 L 430.02,-322.01 L 428.02,-322.01 L 428.02,-318.01 L 430.02,-318.01 L 430.02,-314.01 L 428.02,-314.01
 L 428.02,-310.01 L 430.02,-310.01 L 430.02,-306.01 L 428.02,-306.01 L 428.02,-302.01 L 430.02,-302.01
 L 430.02,-298.01 L 428.02,-298.01 L 428.02,-294.01 L 430.02,-294.01 L 430.02,-290.01 L 428.02,-290.01
 L 428.02,-286.01 L 430.02,-286.01 L 430.02,-282.01 L 428.02,-282.01 L 428.02,-278.01 L 430.02,-278.01
 L 430.02,-274.01 L 428.02,-274.01 L 428.02,-270.01 L 430.02,-270.01 L 430.02,-266.01 L 428.02,-266.01
 L 428.02,-262.01 L 430.02,-262.01 L 430.02,-258.01 L 428.02,-258.01 L 428.02,-254.01 L 430.02,-254.01
 L 430.02,-250.01 L 428.02,-250.01 L 428.02,-246.01 L 430.02,-246.01 L 430.02,-242.01 L 428.02,-242.01
 L 428.02,-238.01 L 430.02,-238.01 L 430.02,-234.01 L 428.02,-234.01 L 428.02,-230.01 L 430.02,-230.01
 L 430.02,-226.01 L 428.02,-226.01 L 428.02,-222.01 L 430.02,-222.01 L 430.02,-214.01 L 640.02,-214.01
 z
M 854.03,-222.01 L 856.03,-222.01 L 856.03,-226.01 L 854.03,-226.01 L 854.03,-230.01 L 856.03,-230.01
 L 856.03,-234.01 L 854.03,-234.01 L 854.03,-238.01 L 856.03,-238.01 L 856.03,-242.01 L 854.03,-242.01
 L 854.03,-246.01 L 856.03,-246.01 L 856.03,-250.01 L 854.03,-250.01 L 854.03,-254.01 L 856.03,-254.01
 L 856.03,-258.01 L 854.03,-258.01 L 854.03,-262.01 L 856.03,-262.01 L 856.03,-266.01 L 854.03,-266.01
 L 854.03,-270.01 L 856.03,-270.01 L 856.03,-274.01 L 854.03,-274.01 L 854.03,-278.01 L 856.03,-278.01
 L 856.03,-282.01 L 854.03,-282.01 L 854.03,-286.01 L 856.03,-286.01 L 856.03,-290.01 L 854.03,-290.01
 L 854.03,-294.01 L 856.03,-294.01 L 856.03,-298.01 L 854.03,-298.01 L 854.03,-302.01 L 856.03,-302.01
 L 856.03,-306.01 L 854.03,-306.01 L 854.03,-310.01 L 856.03,-310.01 L 856.03,-314.01 L 854.03,-314.01
 L 854.03,-318.01 L 856.03,-318.01 L 856.03,-322.01 L 854.03,-322.01 L 854.03,-326.01 L 856.03,-326.01
 L 856.03,-330.01 L 854.03,-330.01 L 854.03,-334.01 L 856.03,-334.01 L 856.03,-338.01 L 854.03,-338.01
 L 854.03,-342.01 L 856.03,-342.01 L 856.03,-346.01 L 854.03,-346.01 L 854.03,-350.01 L 856.03,-350.01
 L 856.03,-354.01 L 854.03,-354.01 L 854.03,-358.01 L 856.03,-358.01 L 856.03,-362.01 L 854.03,-362.01
 L 854.03,-366.01 L 856.03,-366.01 L 856.03,-370.01 L 854.03,-370.01 L 854.03,-374.01 L 856.03,-374.01
 L 856.03,-378.01 L 854.03,-378.01 L 854.03,-382.01 L 856.03,-382.01 L 856.03,-386.01 L 854.03,-386.01
 L 854.03,-390.01 L 856.03,-390.01 L 856.03,-394.01 L 854.03,-394.01 L 854.03,-398.01 L 856.03,-398.01
 L 856.03,-402.01 L 854.03,-402.01 L 854.03,-406.01 L 856.03,-406.01 L 856.03,-410.01 L 854.03,-410.01
 L 854.03,-414.01 L 856.03,-414.01 L 856.03,-418.01 L 854.03,-418.01 L 854.03,-424.01 L 644.03,-424.01
 L 644.03,-418.01 L 642.03,-418.01 L 642.03,-414.01 L 644.03,-414.01 L 644.03,-410.01 L 642.03,-410.01
 L 642.03,-406.01 L 644.03,-406.01 L 644.03,-402.01 L 642.03,-402.01 L 642.03,-398.01 L 644.03,-398.01
 L 644.03,-394.01 L 642.03,-394.01 L 642.03,-390.01 L 644.03,-390.01 L 644.03,-386.01 L 642.03,-386.01
 L 642.03,-382.01 L 644.03,-382.01 L 644.03,-378.01 L 642.03,-378.01 L 642.03,-374.01 L 644.03,-374.01
 L 644.03,-370.01 L 642.03,-370.01 L 642.03,-366.01 L 644.03,-366.01 L 644.03,-362.01 L 642.03,-362.01
 L 642.03,-358.01 L 644.03,-358.01 L 644.03,-354.01 L 642.03,-354.01 L 642.03,-350.01 L 644.03,-350.01
 L 644.03,-346.01 L 642.03,-346.01 L 642.03,-342.01 L 644.03,-342.01 L 644.03,-338.01 L 642.03,-338.01
 L 642.03,-334.01 L 644.03,-334.01 L 644.03,-330.01 L 642.03,-330.01 L 642.03,-326.01 L 644.03,-326.01
 L 644.03,-322.01 L 642.03,-322.01 L 642.03,-318.01 L 644.03,-318.01 L 644.03,-314.01 L 642.03,-314.01
 L 642.03,-310.01 L 644.03,-310.01 L 644.03,-306.01 L 642.03,-306.01 L 642.03,-302.01 L 644.03,-302.01
 L 644.03,-298.01 L 642.03,-298.01 L 642.03,-294.01 L 644.03,-294.01 L 644.03,-290.01 L 642.03,-290.01
 L 642.03,-286.01 L 644.03,-286.01 L 644.03,-282.01 L 642.03,-282.01 L 642.03,-278.01 L 644.03,-278.01
 L 644.03,-274.01 L 642.03,-274.01 L 642.03,-270.01 L 644.03,-270.01 L 644.03,-266.01 L 642.03,-266.01
 L 642.03,-262.01 L 644.03,-262.01 L 644.03,-258.01 L 642.03,-258.01 L 642.03,-254.01 L 644.03,-254.01
 L 644.03,-250.01 L 642.03,-250.01 L 642.03,-246.01 L 644.03,-246.01 L 644.03,-242.01 L 642.03,-242.01
 L 642.03,-238.01 L 644.03,-238.01 L 644.03,-234.01 L 642.03,-234.01 L 642.03,-230.01 L 644.03,-230.01
 L 644.03,-226.01 L 642.03,-226.01 L 642.03,-222.01 L 644.03,-222.01 L 644.03,-214.01 L 854.03,-214.01
 z
M 1068.04,-222.01 L 1070.04,-222.01 L 1070.04,-226.01 L 1068.04,-226.01 L 1068.04,-230.01 L 1070.04,-230.01
 L 1070.04,-234.01 L 1068.04,-234.01 L 1068.04,-238.01 L 1070.04,-238.01 L 1070.04,-242.01 L 1068.04,-242.01
 L 1068.04,-246.01 L 1070.04,-246.01 L 1070.04,-250.01 L 1068.04,-250.01 L 1068.04,-254.01 L 1070.04,-254.01
 L 1070.04,-258.01 L 1068.04,-258.01 L 1068.04,-262.01 L 1070.04,-262.01 L 1070.04,-266.01 L 1068.04,-266.01
 L 1068.04,-270.01 L 1070.04,-270.01 L 1070.04,-274.01 L 1068.04,-274.01 L 1068.04,-278.01 L 1070.04,-278.01
 L 1070.04,-282.01 L 1068.04,-282.01 L 1068.04,-286.01 L 1070.04,-286.01 L 1070.04,-290.01 L 1068.04,-290.01
 L 1068.04,-294.01 L 1070.04,-294.01 L 1070.04,-298.01 L 1068.04,-298.01 L 1068.04,-302.01 L 1070.04,-302.01
 L 1070.04,-306.01 L 1068.04,-306.01 L 1068.04,-310.01 L 1070.04,-310.01 L 1070.04,-314.01 L 1068.04,-314.01
 L 1068.04,-318.01 L 1070.04,-318.01 L 1070.04,-322.01 L 1068.04,-322.01 L 1068.04,-326.01 L 1070.04,-326.01
 L 1070.04,-330.01 L 1068.04,-330.01 L 1068.04,-334.01 L 1070.04,-334.01 L 1070.04,-338.01 L 1068.04,-338.01
 L 1068.04,-342.01 L 1070.04,-342.01 L 1070.04,-346.01 L 1068.04,-346.01 L 1068.04,-350.01 L 1070.04,-350.01
 L 1070.04,-354.01 L 1068.04,-354.01 L 1068.04,-358.01 L 1070.04,-358.01 L 1070.04,-362.01 L 1068.04,-362.01
 L 1068.04,-366.01 L 1070.04,-366.01 L 1070.04,-370.01 L 1068.04,-370.01 L 1068.04,-374.01 L 1070.04,-374.01
 L 1070.04,-378.01 L 1068.04,-378.01 L 1068.04,-382.01 L 1070.04,-382.01 L 1070.04,-386.01 L 1068.04,-386.01
 L 1068.04,-390.01 L 1070.04,-390.01 L 1070.04,-394.01 L 1068.04,-394.01 L 1068.04,-398.01 L 1070.04,-398.01
 L 1070.04,-402.01 L 1068.04,-402.01 L 1068.04,-406.01 L 1070.04,-406.01 L 1070.04,-410.01 L 1068.04,-410.01
 L 1068.04,-414.01 L 1070.04,-414.01 L 1070.04,-418.01 L 1068.04,-418.01 L 1068.04,-424.01 L 858.04,-424.01
 L 858.04,-418.01 L 856.04,-418.01 L 856.04,-414.01 L 858.04,-414.01 L 858.04,-410.01 L 856.04,-410.01
 L 856.04,-406.01 L 858.04,-406.01 L 858.04,-402.01 L 856.04,-402.01 L 856.04,-398.01 L 858.04,-398.01
 L 858.04,-394.01 L 856.04,-394.01 L 856.04,-390.01 L 858.04,-390.01 L 858.04,-386.01 L 856.04,-386.01
 L 856.04,-382.01 L 858.04,-382.01 L 858.04,-378.01 L 856.04,-378.01 L 856.04,-374.01 L 858.04,-374.01
 L 858.04,-370.01 L 856.04,-370.01 L 856.04,-366.01 L 858.04,-366.01 L 858.04,-362.01 L 856.04,-362.01
 L 856.04,-358.01 L 858.04,-358.01 L 858.04,-354.01 L 856.04,-354.01 L 856.04,-350.01 L 858.04,-350.01
 L 858.04,-346.01 L 856.04,-346.01 L 856.04,-342.01 L 858.04,-342.01 L 858.04,-338.01 L 856.04,-338.01
 L 856.04,-334.01 L 858.04,-334.01 L 858.04,-330.01 L 856.04,-330.01 L 856.04,-326.01 L 858.04,-326.01
 L 858.04,-322.01 L 856.04,-322.01 L 856.04,-318.01 L 858.04,-318.01 L 858.04,-314.01 L 856.04,-314.01
 L 856.04,-310.01 L 858.04,-310.01 L 858.04,-306.01 L 856.04,-306.01 L 856.04,-302.01 L 858.04,-302.01
 L 858.04,-298.01 L 856.04,-298.01 L 856.04,-294.01 L 858.04,-294.01 L 858.04,-290.01 L 856.04,-290.01
 L 856.04,-286.01 L 858.04,-286.01 L 858.04,-282.01 L 856.04,-282.01 L 856.04,-278.01 L 858.04,-278.01
 L 858.04,-274.01 L 856.04,-274.01 L 856.04,-270.01 L 858.04,-270.01 L 858.04,-266.01 L 856.04,-266.01
 L 856.04,-262.01 L 858.04,-262.01 L 858.04,-258.01 L 856.04,-258.01 L 856.04,-254.01 L 858.04,-254.01
 L 858.04,-250.01 L 856.04,-250.01 L 856.04,-246.01 L 858.04,-246.01 L 858.04,-242.01 L 856.04,-242.01
 L 856.04,-238.01 L 858.04,-238.01 L 858.04,-234.01 L 856.04,-234.01 L 856.04,-230.01 L 858.04,-230.01
 L 858.04,-226.01 L 856.04,-226.01 L 856.04,-222.01 L 858.04,-222.01 L 858.04,-214.01 L 1068.04,-214.01
 z
M 1282.05,-222.01 L 1284.05,-222.01 L 1284.05,-226.01 L 1282.05,-226.01 L 1282.05,-230.01 L 1284.05,-230.01
 L 1284.05,-234.01 L 1282.05,-234.01 L 1282.05,-238.01 L 1284.05,-238.01 L 1284.05,-242.01 L 1282.05,-242.01
 L 1282.05,-246.01 L 1284.05,-246.01 L 1284.05,-250.01 L 1282.05,-250.01 L 1282.05,-254.01 L 1284.05,-254.01
 L 1284.05,-258.01 L 1282.05,-258.01 L 1282.05,-262.01 L 1284.05,-262.01 L 1284.05,-266.01 L 1282.05,-266.01
 L 1282.05,-270.01 L 1284.05,-270.01 L 1284.05,-274.01 L 1282.05,-274.01 L 1282.05,-278.01 L 1284.05,-278.01
 L 1284.05,-282.01 L 1282.05,-282.01 L 1282.05,-286.01 L 1284.05,-286.01 L 1284.05,-290.01 L 1282.05,-290.01
 L 1282.05,-294.01 L 1284.05,-294.01 L 1284.05,-298.01 L 1282.05,-298.01 L 1282.05,-302.01 L 1284.05,-302.01
 L 1284.05,-306.01 L 1282.05,-306.01 L 1282.05,-310.01 L 1284.05,-310.01 L 1284.05,-314.01 L 1282.05,-314.01
 L 1282.05,-318.01 L 1284.05,-318.01 L 1284.05,-322.01 L 1282.05,-322.01 L 1282.05,-326.01 L 1284.05,-326.01
 L 1284.05,-330.01 L 1282.05,-330.01 L 1282.05,-334.01 L 1284.05,-334.01 L 1284.05,-338.01 L 1282.05,-338.01
 L 1282.05,-342.01 L 1284.05,-342.01 L 1284.05,-346.01 L 1282.05,-346.01 L 1282.05,-350.01 L 1284.05,-350.01
 L 1284.05,-354.01 L 1282.05,-354.01 L 1282.05,-358.01 L 1284.05,-358.01 L 1284.05,-362.01 L 1282.05,-362.01
 L 1282.05,-366.01 L 1284.05,-366.01 L 1284.05,-370.01 L 1282.05,-370.01 L 1282.05,-374.01 L 1284.05,-374.01
 L 1284.05,-378.01 L 1282.05,-378.01 L 1282.05,-382.01 L 1284.05,-382.01 L 1284.05,-386.01 L 1282.05,-386.01
 L 1282.05,-390.01 L 1284.05,-390.01 L 1284.05,-394.01 L 1282.05,-394.01 L 1282.05,-398.01 L 1284.05,-398.01
 L 1284.05,-402.01 L 1282.05,-402.01 L 1282.05,-406.01 L 1284.05,-406.01 L 1284.05,-410.01 L 1282.05,-410.01
 L 1282.05,-414.01 L 1284.05,-414.01 L 1284.05,-418.01 L 1282.05,-418.01 L 1282.05,-424.01 L 1072.05,-424.01
 L 1072.05,-418.01 L 1070.05,-418.01 L 1070.05,-414.01 L 1072.05,-414.01 L 1072.05,-410.01 L 1070.05,-410.01
 L 1070.05,-406.01 L 1072.05,-406.01 L 1072.05,-402.01 L 1070.05,-402.01 L 1070.05,-398.01 L 1072.05,-398.01
 L 1072.05,-394.01 L 1070.05,-394.01 L 1070.05,-390.01 L 1072.05,-390.01 L 1072.05,-386.01 L 1070.05,-386.01
 L 1070.05,-382.01 L 1072.05,-382.01 L 1072.05,-378.01 L 1070.05,-378.01 L 1070.05,-374.01 L 1072.05,-374.01
 L 1072.05,-370.01 L 1070.05,-370.01 L 1070.05,-366.01 L 1072.05,-366.01 L 1072.05,-362.01 L 1070.05,-362.01
 L 1070.05,-358.01 L 1072.05,-358.01 L 1072.05,-354.01 L 1070.05,-354.01 L 1070.05,-350.01 L 1072.05,-350.01
 L 1072.05,-346.01 L 1070.05,-346.01 L 1070.05,-342.01 L 1072.05,-342.01 L 1072.05,-338.01 L 1070.05,-338.01
 L 1070.05,-334.01 L 1072.05,-334.01 L 1072.05,-330.01 L 1070.05,-330.01 L 1070.05,-326.01 L 1072.05,-326.01
 L 1072.05,-322.01 L 1070.05,-322.01 L 1070.05,-318.01 L 1072.05,-318.01 L 1072.05,-314.01 L 1070.05,-314.01
 L 1070.05,-310.01 L 1072.05,-310.01 L 1072.05,-306.01 L 1070.05,-306.01 L 1070.05,-302.01 L 1072.05,-302.01
 L 1072.05,-298.01 L 1070.05,-298.01 L 1070.05,-294.01 L 1072.05,-294.01 L 1072.05,-290.01 L 1070.05,-290.01
 L 1070.05,-286.01 L 1072.05,-286.01 L 1072.05,-282.01 L 1070.05,-282.01 L 1070.05,-278.01 L 1072.05,-278.01
 L 1072.05,-274.01 L 1070.05,-274.01 L 1070.05,-270.01 L 1072.05,-270.01 L 1072.05,-266.01 L 1070.05,-266.01
 L 1070.05,-262.01 L 1072.05,-262.01 L 1072.05,-258.01 L 1070.05,-258.01 L 1070.05,-254.01 L 1072.05,-254.01
 L 1072.05,-250.01 L 1070.05,-250.01 L 1070.05,-246.01 L 1072.05,-246.01 L 1072.05,-242.01 L 1070.05,-242.01
 L 1070.05,-238.01 L 1072.05,-238.01 L 1072.05,-234.01 L 1070.05,-234.01 L 1070.05,-230.01 L 1072.05,-230.01
 L 1072.05,-226.01 L 1070.05,-226.01 L 1070.05,-222.01 L 1072.05,-222.01 L 1072.05,-214.01 L 1282.05,-214.01
 z
M 1496.06,-222.01 L 1498.06,-222.01 L 1498.06,-226.01 L 1496.06,-226.01 L 1496.06,-230.01 L 1498.06,-230.01
 L 1498.06,-234.01 L 1496.06,-234.01 L 1496.06,-238.01 L 1498.06,-238.01 L 1498.06,-242.01 L 1496.06,-242.01
 L 1496.06,-246.01 L 1498.06,-246.01 L 1498.06,-250.01 L 1496.06,-250.01 L 1496.06,-254.01 L 1498.06,-254.01
 L 1498.06,-258.01 L 1496.06,-258.01 L 1496.06,-262.01 L 1498.06,-262.01 L 1498.06,-266.01 L 1496.06,-266.01
 L 1496.06,-270.01 L 1498.06,-270.01 L 1498.06,-274.01 L 1496.06,-274.01 L 1496.06,-278.01 L 1498.06,-278.01
 L 1498.06,-282.01 L 1496.06,-282.01 L 1496.06,-286.01 L 1498.06,-286.01 L 1498.06,-290.01 L 1496.06,-290.01
 L 1496.06,-294.01 L 1498.06,-294.01 L 1498.06,-298.01 L 1496.06,-298.01 L 1496.06,-302.01 L 1498.06,-302.01
 L 1498.06,-306.01 L 1496.06,-306.01 L 1496.06,-310.01 L 1498.06,-310.01 L 1498.06,-314.01 L 1496.06,-314.01
 L 1496.06,-318.01 L 1498.06,-318.01 L 1498.06,-322.01 L 1496.06,-322.01 L 1496.06,-326.01 L 1498.06,-326.01
 L 1498.06,-330.01 L 1496.06,-330.01 L 1496.06,-334.01 L 1498.06,-334.01 L 1498.06,-338.01 L 1496.06,-338.01
 L 1496.06,-342.01 L 1498.06,-342.01 L 1498.06,-346.01 L 1496.06,-346.01 L 1496.06,-350.01 L 1498.06,-350.01
 L 1498.06,-354.01 L 1496.06,-354.01 L 1496.06,-358.01 L 1498.06,-358.01 L 1498.06,-362.01 L 1496.06,-362.01
 L 1496.06,-366.01 L 1498.06,-366.01 L 1498.06,-370.01 L 1496.06,-370.01 L 1496.06,-374.01 L 1498.06,-374.01
 L 1498.06,-378.01 L 1496.06,-378.01 L 1496.06,-382.01 L 1498.06,-382.01 L 1498.06,-386.01 L 1496.06,-386.01
 L 1496.06,-390.01 L 1498.06,-390.01 L 1498.06,-394.01 L 1496.06,-394.01 L 1496.06,-398.01 L 1498.06,-398.01
 L 1498.06,-402.01 L 1496.06,-402.01 L 1496.06,-406.01 L 1498.06,-406.01 L 1498.06,-410.01 L 1496.06,-410.01
 L 1496.06,-414.01 L 1498.06,-414.01 L 1498.06,-418.01 L 1496.06,-418.01 L 1496.06,-424.01 L 1286.06,-424.01
 L 1286.06,-418.01 L 1284.06,-418.01 L 1284.06,-414.01 L 1286.06,-414.01 L 1286.06,-410.01 L 1284.06,-410.01
 L 1284.06,-406.01 L 1286.06,-406.01 L 1286.06,-402.01 L 1284.06,-402.01 L 1284.06,-398.01 L 1286.06,-398.01
 L 1286.06,-394.01 L 1284.06,-394.01 L 1284.06,-390.01 L 1286.06,-390.01 L 1286.06,-386.01 L 1284.06,-386.01
 L 1284.06,-382.01 L 1286.06,-382.01 L 1286.06,-378.01 L 1284.06,-378.01 L 1284.06,-374.01 L 1286.06,-374.01
 L 1286.06,-370.01 L 1284.06,-370.01 L 1284.06,-366.01 L 1286.06,-366.01 L 1286.06,-362.01 L 1284.06,-362.01
 L 1284.06,-358.01 L 1286.06,-358.01 L 1286.06,-354.01 L 1284.06,-354.01 L 1284.06,-350.01 L 1286.06,-350.01
 L 1286.06,-346.01 L 1284.06,-346.01 L 1284.06,-342.01 L 1286.06,-342.01 L 1286.06,-338.01 L 1284.06,-338.01
 L 1284.06,-334.01 L 1286.06,-334.01 L 1286.06,-330.01 L 1284.06,-330.01 L 1284.06,-326.01 L 1286.06,-326.01
 L 1286.06,-322.01 L 1284.06,-322.01 L 1284.06,-318.01 L 1286.06,-318.01 L 1286.06,-314.01 L 1284.06,-314.01
 L 1284.06,-310.01 L 1286.06,-310.01 L 1286.06,-306.01 L 1284.06,-306.01 L 1284.06,-302.01 L 1286.06,-302.01
 L 1286.06,-298.01 L 1284.06,-298.01 L 1284.06,-294.01 L 1286.06,-294.01 L 1286.06,-290.01 L 1284.06,-290.01
 L 1284.06,-286.01 L 1286.06,-286.01 L 1286.06,-282.01 L 1284.06,-282.01 L 1284.06,-278.01 L 1286.06,-278.01
 L 1286.06,-274.01 L 1284.06,-274.01 L 1284.06,-270.01 L 1286.06,-270.01 L 1286.06,-266.01 L 1284.06,-266.01
 L 1284.06,-262.01 L 1286.06,-262.01 L 1286.06,-258.01 L 1284.06,-258.01 L 1284.06,-254.01 L 1286.06,-254.01
 L 1286.06,-250.01 L 1284.06,-250.01 L 1284.06,-246.01 L 1286.06,-246.01 L 1286.06,-242.01 L 1284.06,-242.01
 L 1284.06,-238.01 L 1286.06,-238.01 L 1286.06,-234.01 L 1284.06,-234.01 L 1284.06,-230.01 L 1286.06,-230.01
 L 1286.06,-226.01 L 1284.06,-226.01 L 1284.06,-222.01 L 1286.06,-222.01 L 1286.06,-214.01 L 1496.06,-214.01
 z
M 1710.07,-222.01 L 1712.07,-222.01 L 1712.07,-226.01 L 1710.07,-226.01 L 1710.07,-230.01 L 1712.07,-230.01
 L 1712.07,-234.01 L 1710.07,-234.01 L 1710.07,-238.01 L 1712.07,-238.01 L 1712.07,-242.01 L 1710.07,-242.01
 L 1710.07,-246.01 L 1712.07,-246.01 L 1712.07,-250.01 L 1710.07,-250.01 L 1710.07,-254.01 L 1712.07,-254.01
 L 1712.07,-258.01 L 1710.07,-258.01 L 1710.07,-262.01 L 1712.07,-262.01 L 1712.07,-266.01 L 1710.07,-266.01
 L 1710.07,-270.01 L 1712.07,-270.01 L 1712.07,-274.01 L 1710.07,-274.01 L 1710.07,-278.01 L 1712.07,-278.01
 L 1712.07,-282.01 L 1710.07,-282.01 L 1710.07,-286.01 L 1712.07,-286.01 L 1712.07,-290.01 L 1710.07,-290.01
 L 1710.07,-294.01 L 1712.07,-294.01 L 1712.07,-298.01 L 1710.07,-298.01 L 1710.07,-302.01 L 1712.07,-302.01
 L 1712.07,-306.01 L 1710.07,-306.01 L 1710.07,-310.01 L 1712.07,-310.01 L 1712.07,-314.01 L 1710.07,-314.01
 L 1710.07,-318.01 L 1712.07,-318.01 L 1712.07,-322.01 L 1710.07,-322.01 L 1710.07,-326.01 L 1712.07,-326.01
 L 1712.07,-330.01 L 1710.07,-330.01 L 1710.07,-334.01 L 1712.07,-334.01 L 1712.07,-338.01 L 1710.07,-338.01
 L 1710.07,-342.01 L 1712.07,-342.01 L 1712.07,-346.01 L 1710.07,-346.01 L 1710.07,-350.01 L 1712.07,-350.01
 L 1712.07,-354.01 L 1710.07,-354.01 L 1710.07,-358.01 L 1712.07,-358.01 L 1712.07,-362.01 L 1710.07,-362.01
 L 1710.07,-366.01 L 1712.07,-366.01 L 1712.07,-370.01 L 1710.07,-370.01 L 1710.07,-374.01 L 1712.07,-374.01
 L 1712.07,-378.01 L 1710.07,-378.01 L 1710.07,-382.01 L 1712.07,-382.01 L 1712.07,-386.01 L 1710.07,-386.01
 L 1710.07,-390.01 L 1712.07,-390.01 L 1712.07,-394.01 L 1710.07,-394.01 L 1710.07,-398.01 L 1712.07,-398.01
 L 1712.07,-402.01 L 1710.07,-402.01 L 1710.07,-406.01 L 1712.07,-406.01 L 1712.07,-410.01 L 1710.07,-410.01
 L 1710.07,-414.01 L 1712.07,-414.01 L 1712.07,-418.01 L 1710.07,-418.01 L 1710.07,-424.01 L 1500.07,-424.01
 L 1500.07,-418.01 L 1498.07,-418.01 L 1498.07,-414.01 L 1500.07,-414.01 L 1500.07,-410.01 L 1498.07,-410.01
 L 1498.07,-406.01 L 1500.07,-406.01 L 1500.07,-402.01 L 1498.07,-402.01 L 1498.07,-398.01 L 1500.07,-398.01
 L 1500.07,-394.01 L 1498.07,-394.01 L 1498.07,-390.01 L 1500.07,-390.01 L 1500.07,-386.01 L 1498.07,-386.01
 L 1498.07,-382.01 L 1500.07,-382.01 L 1500.07,-378.01 L 1498.07,-378.01 L 1498.07,-374.01 L 1500.07,-374.01
 L 1500.07,-370.01 L 1498.07,-370.01 L 1498.07,-366.01 L 1500.07,-366.01 L 1500.07,-362.01 L 1498.07,-362.01
 L 1498.07,-358.01 L 1500.07,-358.01 L 1500.07,-354.01 L 1498.07,-354.01 L 1498.07,-350.01 L 1500.07,-350.01
 L 1500.07,-346.01 L 1498.07,-346.01 L 1498.07,-342.01 L 1500.07,-342.01 L 1500.07,-338.01 L 1498.07,-338.01
 L 1498.07,-334.01 L 1500.07,-334.01 L 1500.07,-330.01 L 1498.07,-330.01 L 1498.07,-326.01 L 1500.07,-326.01
 L 1500.07,-322.01 L 1498.07,-322.01 L 1498.07,-318.01 L 1500.07,-318.01 L 1500.07,-314.01 L 1498.07,-314.01
 L 1498.07,-310.01 L 1500.07,-310.01 L 1500.07,-306.01 L 1498.07,-306.01 L 1498.07,-302.01 L 1500.07,-302.01
 L 1500.07,-298.01 L 1498.07,-298.01 L 1498.07,-294.01 L 1500.07,-294.01 L 1500.07,-290.01 L 1498.07,-290.01
 L 1498.07,-286.01 L 1500.07,-286.01 L 1500.07,-282.01 L 1498.07,-282.01 L 1498.07,-278.01 L 1500.07,-278.01
 L 1500.07,-274.01 L 1498.07,-274.01 L 1498.07,-270.01 L 1500.07,-270.01 L 1500.07,-266.01 L 1498.07,-266.01
 L 1498.07,-262.01 L 1500.07,-262.01 L 1500.07,-258.01 L 1498.07,-258.01 L 1498.07,-254.01 L 1500.07,-254.01
 L 1500.07,-250.01 L 1498.07,-250.01 L 1498.07,-246.01 L 1500.07,-246.01 L 1500.07,-242.01 L 1498.07,-242.01
 L 1498.07,-238.01 L 1500.07,-238.01 L 1500.07,-234.01 L 1498.07,-234.01 L 1498.07,-230.01 L 1500.07,-230.01
 L 1500.07,-226.01 L 1498.07,-226.01 L 1498.07,-222.01 L 1500.07,-222.01 L 1500.07,-214.01 L 1710.07,-214.01
 z
M 6,-2 L 10.1224,-2 L 10.1224,-0 L 14.2449,-0 L 14.2449,-2 L 18.3673,-2
 L 18.3673,-0 L 22.4898,-0 L 22.4898,-2 L 26.6122,-2 L 26.6122,-0 L 30.7347,-0
 L 30.7347,-2 L 34.8571,-2 L 34.8571,-0 L 38.9796,-0 L 38.9796,-2 L 43.102,-2
 L 43.102,-0 L 47.2245,-0 L 47.2245,-2 L 51.3469,-2 L 51.3469,-0 L 55.4694,-0
 L 55.4694,-2 L 59.5918,-2 L 59.5918,-0 L 63.7143,-0 L 63.7143,-2 L 67.8367,-2
 L 67.8367,-0 L 71.9592,-0 L 71.9592,-2 L 76.0816,-2 L 76.0816,-0 L 80.2041,-0
 L 80.2041,-2 L 84.3265,-2 L 84.3265,-0 L 88.449,-0 L 88.449,-2 L 92.5714,-2
 L 92.5714,-0 L 96.6939,-0 L 96.6939,-2 L 100.816,-2 L 100.816,-0 L 104.939,-0
 L 104.939,-2 L 109.061,-2 L 109.061,-0 L 113.184,-0 L 113.184,-2 L 117.306,-2
 L 117.306,-0 L 121.429,-0 L 121.429,-2 L 125.551,-2 L 125.551,-0 L 129.673,-0
 L 129.673,-2 L 133.796,-2 L 133.796,-0 L 137.918,-0 L 137.918,-2 L 142.041,-2
 L 142.041,-0 L 146.163,-0 L 146.163,-2 L 150.286,-2 L 150.286,-0 L 154.408,-0
 L 154.408,-2 L 158.531,-2 L 158.531,-0 L 162.653,-0 L 162.653,-2 L 166.776,-2
 L 166.776,-0 L 170.898,-0 L 170.898,-2 L 175.02,-2 L 175.02,-0 L 179.143,-0
 L 179.143,-2 L 183.265,-2 L 183.265,-0 L 187.388,-0 L 187.388,-2 L 191.51,-2
 L 191.51,-0 L 195.633,-0 L 195.633,-2 L 199.755,-2 L 199.755,-0 L 203.878,-0
 L 203.878,-2 L 208,-2 L 208,-0 L 214,-0 L 214,-6 L 212,-6
 L 212,-10.0816 L 214,-10.0816 L 214,-14.1633 L 212,-14.1633 L 212,-18.2449 L 214,-18.2449
 L 214,-22.3265 L 212,-22.3265 L 212,-26.4082 L 214,-26.4082 L 214,-30.4898 L 212,-30.4898
 L 212,-34.5714 L 214,-34.5714 L 214,-38.6531 L 212,-38.6531 L 212,-42.7347 L 214,-42.7347
 L 214,-46.8163 L 212,-46.8163 L 212,-50.898 L 214,-50.898 L 214,-54.9796 L 212,-54.9796
 L 212,-59.0612 L 214,-59.0612 L 214,-63.1429 L 212,-63.1429 L 212,-67.2245 L 214,-67.2245
 L 214,-71.3061 L 212,-71.3061 L 212,-75.3878 L 214,-75.3878 L 214,-79.4694 L 212,-79.4694
 L 212,-83.551 L 214,-83.551 L 214,-87.6327 L 212,-87.6327 L 212,-91.7143 L 214,-91.7143
 L 214,-95.7959 L 212,-95.7959 L 212,-99.8776 L 214,-99.8776 L 214,-103.959 L 212,-103.959
 L 212,-108.041 L 214,-108.041 L 214,-112.122 L 212,-112.122 L 212,-116.204 L 214,-116.204
 L 214,-120.286 L 212,-120.286 L 212,-124.367 L 214,-124.367 L 214,-128.449 L 212,-128.449
 L 212,-132.531 L 214,-132.531 L 214,-136.612 L 212,-136.612 L 212,-140.694 L 214,-140.694
 L 214,-144.776 L 212,-144.776 L 212,-148.857 L 214,-148.857 L 214,-152.939 L 212,-152.939
 L 212,-157.02 L 214,-157.02 L 214,-161.102 L 212,-161.102 L 212,-165.184 L 214,-165.184
 L 214,-169.265 L 212,-169.265 L 212,-173.347 L 214,-173.347 L 214,-177.429 L 212,-177.429
 L 212,-181.51 L 214,-181.51 L 214,-185.592 L 212,-185.592 L 212,-189.673 L 214,-189.673
 L 214,-193.755 L 212,-193.755 L 212,-197.837 L 214,-197.837 L 214,-201.918 L 212,-201.918
 L 212,-206 L 214,-206 L 214,-212 L 0,-212 L 0,-206 L 2,-206
 L 2,-201.918 L 0,-201.918 L 0,-197.837 L 2,-197.837 L 2,-193.755 L 0,-193.755
 L 0,-189.673 L 2,-189.673 L 2,-185.592 L 0,-185.592 L 0,-181.51 L 2,-181.51
 L 2,-177.429 L 0,-177.429 L 0,-173.347 L 2,-173.347 L 2,-169.265 L 0,-169.265
 L 0,-165.184 L 2,-165.184 L 2,-161.102 L 0,-161.102 L 0,-157.02 L 2,-157.02
 L 2,-152.939 L 0,-152.939 L 0,-148.857 L 2,-148.857 L 2,-144.776 L 0,-144.776
 L 0,-140.694 L 2,-140.694 L 2,-136.612 L 0,-136.612 L 0,-132.531 L 2,-132.531
 L 2,-128.449 L 0,-128.449 L 0,-124.367 L 2,-124.367 L 2,-120.286 L 0,-120.286
 L 0,-116.204 L 2,-116.204 L 2,-112.122 L 0,-112.122 L 0,-108.041 L 2,-108.041
 L 2,-103.959 L 0,-103.959 L 0,-99.8776 L 2,-99.8776 L 2,-95.7959 L 0,-95.7959
 L 0,-91.7143 L 2,-91.7143 L 2,-87.6327 L 0,-87.6327 L 0,-83.551 L 2,-83.551
 L 2,-79.4694 L 0,-79.4694 L 0,-75.3878 L 2,-75.3878 L 2,-71.3061 L 0,-71.3061
 L 0,-67.2245 L 2,-67.2245 L 2,-63.1429 L 0,-63.1429 L 0,-59.0612 L 2,-59.0612
 L 2,-54.9796 L 0,-54.9796 L 0,-50.898 L 2,-50.898 L 2,-46.8163 L 0,-46.8163
 L 0,-42.7347 L 2,-42.7347 L 2,-38.6531 L 0,-38.6531 L 0,-34.5714 L 2,-34.5714
 L 2,-30.4898 L 0,-30.4898 L 0,-26.4082 L 2,-26.4082 L 2,-22.3265 L 0,-22.3265
 L 0,-18.2449 L 2,-18.2449 L 2,-14.1633 L 0,-14.1633 L 0,-10.0816 L 2,-10.0816
 L 2,-6 L 0,-6 L 0,-0 L 6,-0 z
M 220.01,-2 L 224.132,-2 L 224.132,-0 L 228.255,-0 L 228.255,-2 L 232.377,-2
 L 232.377,-0 L 236.5,-0 L 236.5,-2 L 240.622,-2 L 240.622,-0 L 244.745,-0
 L 244.745,-2 L 248.867,-2 L 248.867,-0 L 252.99,-0 L 252.99,-2 L 257.112,-2
 L 257.112,-0 L 261.234,-0 L 261.234,-2 L 265.357,-2 L 265.357,-0 L 269.479,-0
 L 269.479,-2 L 273.602,-2 L 273.602,-0 L 277.724,-0 L 277.724,-2 L 281.847,-2
 L 281.847,-0 L 285.969,-0 L 285.969,-2 L 290.092,-2 L 290.092,-0 L 294.214,-0
 L 294.214,-2 L 298.337,-2 L 298.337,-0 L 302.459,-0 L 302.459,-2 L 306.581,-2
 L 306.581,-0 L 310.704,-0 L 310.704,-2 L 314.826,-2 L 314.826,-0 L 318.949,-0
 L 318.949,-2 L 323.071,-2 L 323.071,-0 L 327.194,-0 L 327.194,-2 L 331.316,-2
 L 331.316,-0 L 335.439,-0 L 335.439,-2 L 339.561,-2 L 339.561,-0 L 343.683,-0
 L 343.683,-2 L 347.806,-2 L 347.806,-0 L 351.928,-0 L 351.928,-2 L 356.051,-2
 L 356.051,-0 L 360.173,-0 L 360.173,-2 L 364.296,-2 L 364.296,-0 L 368.418,-0
 L 368.418,-2 L 372.541,-2 L 372.541,-0 L 376.663,-0 L 376.663,-2 L 380.786,-2
 L 380.786,-0 L 384.908,-0 L 384.908,-2 L 389.03,-2 L 389.03,-0 L 393.153,-0
 L 393.153,-2 L 397.275,-2 L 397.275,-0 L 401.398,-0 L 401.398,-2 L 405.52,-2
 L 405.52,-0 L 409.643,-0 L 409.643,-2 L 413.765,-2 L 413.765,-0 L 417.888,-0
 L 417.888,-2 L 422.01,-2 L 422.01,-0 L 428.01,-0 L 428.01,-6 L 426.01,-6
 L 426.01,-10.0816 L 428.01,-10.0816 L 428.01,-14.1633 L 426.01,-14.1633 L 426.01,-18.2449 L 428.01,-18.2449
 L 428.01,-22.3265 L 426.01,-22.3265 L 426.01,-26.4082 L 428.01,-26.4082 L 428.01,-30.4898 L 426.01,-30.4898
 L 426.01,-34.5714 L 428.01,-34.5714 L 428.01,-38.6531 L 426.01,-38.6531 L 426.01,-42.7347 L 428.01,-42.7347
 L 428.01,-46.8163 L 426.01,-46.8163 L 426.01,-50.898 L 428.01,-50.898 L 428.01,-54.9796 L 426.01,-54.9796
 L 426.01,-59.0612 L 428.01,-59.0612 L 428.01,-63.1429 L 426.01,-63.1429 L 426.01,-67.2245 L 428.01,-67.2245
 L 428.01,-71.3061 L 426.01,-71.3061 L 426.01,-75.3878 L 428.01,-75.3878 L 428.01,-79.4694 L 426.01,-79.4694
 L 426.01,-83.551 L 428.01,-83.551 L 428.01,-87.6327 L 426.01,-87.6327 L 426.01,-91.7143 L 428.01,-91.7143
 L 428.01,-95.7959 L 426.01,-95.7959 L 426.01,-99.8776 L 428.01,-99.8776 L 428.01,-103.959 L 426.01,-103.959
 L 426.01,-108.041 L 428.01,-108.041 L 428.01,-112.122 L 426.01,-112.122 L 426.01,-116.204 L 428.01,-116.204
 L 428.01,-120.286 L 426.01,-120.286 L 426.01,-124.367 L 428.01,-124.367 L 428.01,-128.449 L 426.01,-128.449
 L 426.01,-132.531 L 428.01,-132.531 L 428.01,-136.612 L 426.01,-136.612 L 426.01,-140.694 L 428.01,-140.694
 L 428.01,-144.776 L 426.01,-144.776 L 426.01,-148.857 L 428.01,-148.857 L 428.01,-152.939 L 426.01,-152.939
 L 426.01,-157.02 L 428.01,-157.02 L 428.01,-161.102 L 426.01,-161.102 L 426.01,-165.184 L 428.01,-165.184
 L 428.01,-169.265 L 426.01,-169.265 L 426.01,-173.347 L 428.01,-173.347 L 428.01,-177.429 L 426.01,-177.429
 L 426.01,-181.51 L 428.01,-181.51 L 428.01,-185.592 L 426.01,-185.592 L 426.01,-189.673 L 428.01,-189.673
 L 428.01,-193.755 L 426.01,-193.755 L 426.01,-197.837 L 428.01,-197.837 L 428.01,-201.918 L 426.01,-201.918
 L 426.01,-206 L 428.01,-206 L 428.01,-212 L 214.01,-212 L 214.01,-206 L 216.01,-206
 L 216.01,-201.918 L 214.01,-201.918 L 214.01,-197.837 L 216.01,-197.837 L 216.01,-193.755 L 214.01,-193.755
 L 214.01,-189.673 L 216.01,-189.673 L 216.01,-185.592 L 214.01,-185.592 L 214.01,-181.51 L 216.01,-181.51
 L 216.01,-177.429 L 214.01,-177.429 L 214.01,-173.347 L 216.01,-173.347 L 216.01,-169.265 L 214.01,-169.265
 L 214.01,-165.184 L 216.01,-165.184 L 216.01,-161.102 L 214.01,-161.102 L 214.01,-157.02 L 216.01,-157.02
 L 216.01,-152.939 L 214.01,-152.939 L 214.01,-148.857 L 216.01,-148.857 L 216.01,-144.776 L 214.01,-144.776
 L 214.01,-140.694 L 216.01,-140.694 L 216.01,-136.612 L 214.01,-136.612 L 214.01,-132.531 L 216.01,-132.531
 L 216.01,-128.449 L 214.01,-128.449 L 214.01,-124.367 L 216.01,-124.367 L 216.01,-120.286 L 214.01,-120.286
 L 214.01,-116.204 L 216.01,-116.204 L 216.01,-112.122 L 214.01,-112.122 L 214.01,-108.041 L 216.01,-108.041
 L 216.01,-103.959 L 214.01,-103.959 L 214.01,-99.8776 L 216.01,-99.8776 L 216.01,-95.7959 L 214.01,-95.7959
 L 214.01,-91.7143 L 216.01,-91.7143 L 216.01,-87.6327 L 214.01,-87.6327 L 214.01,-83.551 L 216.01,-83.551
 L 216.01,-79.4694 L 214.01,-79.4694 L 214.01,-75.3878 L 216.01,-75.3878 L 216.01,-71.3061 L 214.01,-71.3061
 L 214.01,-67.2245 L 216.01,-67.2245 L 216.01,-63.1429 L 214.01,-63.1429 L 214.01,-59.0612 L 216.01,-59.0612
 L 216.01,-54.9796 L 214.01,-54.9796 L 214.01,-50.898 L 216.01,-50.898 L 216.01,-46.8163 L 214.01,-46.8163
 L 214.01,-42.7347 L 216.01,-42.7347 L 216.01,-38.6531 L 214.01,-38.6531 L 214.01,-34.5714 L 216.01,-34.5714
 L 216.01,-30.4898 L 214.01,-30.4898 L 214.01,-26.4082 L 216.01,-26.4082 L 216.01,-22.3265 L 214.01,-22.3265
 L 214.01,-18.2449 L 216.01,-18.2449 L 216.01,-14.1633 L 214.01,-14.1633 L 214.01,-10.0816 L 216.01,-10.0816
 L 216.01,-6 L 214.01,-6 L 214.01,-0 L 220.01,-0 z
M 436.02,-2 L 440.02,-2 L 440.02,-0 L 444.02,-0 L 444.02,-2 L 448.02,-2
 L 448.02,-0 L 452.02,-0 L 452.02,-2 L 456.02,-2 L 456.02,-0 L 460.02,-0
 L 460.02,-2 L 464.02,-2 L 464.02,-0 L 468.02,-0 L 468.02,-2 L 472.02,-2
 L 472.02,-0 L 476.02,-0 L 476.02,-2 L 480.02,-2 L 480.02,-0 L 484.02,-0
 L 484.02,-2 L 488.02,-2 L 488.02,-0 L 492.02,-0 L 492.02,-2 L 496.02,-2
 L 496.02,-0 L 500.02,-0 L 500.02,-2 L 504.02,-2 L 504.02,-0 L 508.02,-0
 L 508.02,-2 L 512.02,-2 L 512.02,-0 L 516.02,-0 L 516.02,-2 L 520.02,-2
 L 520.02,-0 L 524.02,-0 L 524.02,-2 L 528.02,-2 L 528.02,-0 L 532.02,-0
 L 532.02,-2 L 536.02,-2 L 536.02,-0 L 540.02,-0 L 540.02,-2 L 544.02,-2
 L 544.02,-0 L 548.02,-0 L 548.02,-2 L 552.02,-2 L 552.02,-0 L 556.02,-0
 L 556.02,-2 L 560.02,-2 L 560.02,-0 L 564.02,-0 L 564.02,-2 L 568.02,-2
 L 568.02,-0 L 572.02,-0 L 572.02,-2 L 576.02,-2 L 576.02,-0 L 580.02,-0
 L 580.02,-2 L 584.02,-2 L 584.02,-0 L 588.02,-0 L 588.02,-2 L 592.02,-2
 L 592.02,-0 L 596.02,-0 L 596.02,-2 L 600.02,-2 L 600.02,-0 L 604.02,-0
 L 604.02,-2 L 608.02,-2 L 608.02,-0 L 612.02,-0 L 612.02,-2 L 616.02,-2
 L 616.02,-0 L 620.02,-0 L 620.02,-2 L 624.02,-2 L 624.02,-0 L 628.02,-0
 L 628.02,-2 L 632.02,-2 L 632.02,-0 L 636.02,-0 L 636.02,-2 L 640.02,-2
 L 640.02,-0 L 644.02,-0 L 644.02,-2 L 648.02,-2 L 648.02,-0 L 652.02,-0
 L 652.02,-2 L 656.02,-2 L 656.02,-0 L 660.02,-0 L 660.02,-2 L 664.02,-2
 L 664.02,-0 L 668.02,-0 L 668.02,-2 L 672.02,-2 L 672.02,-0 L 676.02,-0
 L 676.02,-2 L 680.02,-2 L 680.02,-0 L 684.02,-0 L 684.02,-2 L 688.02,-2
 L 688.02,-0 L 692.02,-0 L 692.02,-2 L 696.02,-2 L 696.02,-0 L 700.02,-0
 L 700.02,-2 L 704.02,-2 L 704.02,-0 L 708.02,-0 L 708.02,-2 L 712.02,-2
 L 712.02,-0 L 716.02,-0 L 716.02,-2 L 720.02,-2 L 720.02,-0 L 724.02,-0
 L 724.02,-2 L 728.02,-2 L 728.02,-0 L 732.02,-0 L 732.02,-2 L 736.02,-2
 L 736.02,-0 L 740.02,-0 L 740.02,-2 L 744.02,-2 L 744.02,-0 L 748.02,-0
 L 748.02,-2 L 752.02,-2 L 752.02,-0 L 756.02,-0 L 756.02,-2 L 760.02,-2
 L 760.02,-0 L 764.02,-0 L 764.02,-2 L 768.02,-2 L 768.02,-0 L 772.02,-0
 L 772.02,-2 L 776.02,-2 L 776.02,-0 L 780.02,-0 L 780.02,-2 L 784.02,-2
 L 784.02,-0 L 788.02,-0 L 788.02,-2 L 792.02,-2 L 792.02,-0 L 796.02,-0
 L 796.02,-2 L 800.02,-2 L 800.02,-0 L 804.02,-0 L 804.02,-2 L 808.02,-2
 L 808.02,-0 L 812.02,-0 L 812.02,-2 L 816.02,-2 L 816.02,-0 L 820.02,-0
 L 820.02,-2 L 824.02,-2 L 824.02,-0 L 828.02,-0 L 828.02,-2 L 832.02,-2
 L 832.02,-0 L 836.02,-0 L 836.02,-2 L 840.02,-2 L 840.02,-0 L 844.02,-0
 L 844.02,-2 L 848.02,-2 L 848.02,-0 L 852.02,-0 L 852.02,-2 L 856.02,-2
 L 856.02,-0 L 860.02,-0 L 860.02,-2 L 864.02,-2 L 864.02,-0 L 868.02,-0
 L 868.02,-2 L 872.02,-2 L 872.02,-0 L 876.02,-0 L 876.02,-2 L 880.02,-2
 L 880.02,-0 L 884.02,-0 L 884.02,-2 L 888.02,-2 L 888.02,-0 L 892.02,-0
 L 892.02,-2 L 896.02,-2 L 896.02,-0 L 900.02,-0 L 900.02,-2 L 904.02,-2
 L 904.02,-0 L 908.02,-0 L 908.02,-2 L 912.02,-2 L 912.02,-0 L 916.02,-0
 L 916.02,-2 L 920.02,-2 L 920.02,-0 L 924.02,-0 L 924.02,-2 L 928.02,-2
 L 928.02,-0 L 932.02,-0 L 932.02,-2 L 936.02,-2 L 936.02,-0 L 940.02,-0
 L 940.02,-2 L 944.02,-2 L 944.02,-0 L 948.02,-0 L 948.02,-2 L 952.02,-2
 L 952.02,-0 L 956.02,-0 L 956.02,-2 L 960.02,-2 L 960.02,-0 L 964.02,-0
 L 964.02,-2 L 968.02,-2 L 968.02,-0 L 972.02,-0 L 972.02,-2 L 976.02,-2
 L 976.02,-0 L 980.02,-0 L 980.02,-2 L 984.02,-2 L 984.02,-0 L 988.02,-0
 L 988.02,-2 L 992.02,-2 L 992.02,-0 L 996.02,-0 L 996.02,-2 L 1000.02,-2
 L 1000.02,-0 L 1004.02,-0 L 1004.02,-2 L 1008.02,-2 L 1008.02,-0 L 1014.02,-0
 L 1014.02,-6 L 1016.02,-6 L 1016.02,-10.0816 L 1014.02,-10.0816 L 1014.02,-14.1633 L 1016.02,-14.1633
 L 1016.02,-18.2449 L 1014.02,-18.2449 L 1014.02,-22.3265 L 1016.02,-22.3265 L 1016.02,-26.4082 L 1014.02,-26.4082
 L 1014.02,-30.4898 L 1016.02,-30.4898 L 1016.02,-34.5714 L 1014.02,-34.5714 L 1014.02,-38.6531 L 1016.02,-38.6531
 L 1016.02,-42.7347 L 1014.02,-42.7347 L 1014.02,-46.8163 L 1016.02,-46.8163 L 1016.02,-50.898 L 1014.02,-50.898
 L 1014.02,-54.9796 L 1016.02,-54.9796 L 1016.02,-59.0612 L 1014.02,-59.0612 L 1014.02,-63.1429 L 1016.02,-63.1429
 L 1016.02,-67.2245 L 1014.02,-67.2245 L 1014.02,-71.3061 L 1016.02,-71.3061 L 1016.02,-75.3878 L 1014.02,-75.3878
 L 1014.02,-79.4694 L 1016.02,-79.4694 L 1016.02,-83.551 L 1014.02,-83.551 L 1014.02,-87.6327 L 1016.02,-87.6327
 L 1016.02,-91.7143 L 1014.02,-91.7143 L 1014.02,-95.7959 L 1016.02,-95.7959 L 1016.02,-99.8776 L 1014.02,-99.8776
 L 1014.02,-103.959 L 1016.02,-103.959 L 1016.02,-108.041 L 1014.02,-108.041 L 1014.02,-112.122 L 1016.02,-112.122
 L 1016.02,-116.204 L 1014.02,-116.204 L 1014.02,-120.286 L 1016.02,-120.286 L 1016.02,-124.367 L 1014.02,-124.367
 L 1014.02,-128.449 L 1016.02,-128.449 L 1016.02,-132.531 L 1014.02,-132.531 L 1014.02,-136.612 L 1016.02,-136.612
 L 1016.02,-140.694 L 1014.02,-140.694 L 1014.02,-144.776 L 1016.02,-144.776 L 1016.02,-148.857 L 1014.02,-148.857
 L 1014.02,-152.939 L 1016.02,-152.939 L 1016.02,-157.02 L 1014.02,-157.02 L 1014.02,-161.102 L 1016.02,-161.102
 L 1016.02,-165.184 L 1014.02,-165.184 L 1014.02,-169.265 L 1016.02,-169.265 L 1016.02,-173.347 L 1014.02,-173.347
 L 1014.02,-177.429 L 1016.02,-177.429 L 1016.02,-181.51 L 1014.02,-181.51 L 1014.02,-185.592 L 1016.02,-185.592
 L 1016.02,-189.673 L 1014.02,-189.673 L 1014.02,-193.755 L 1016.02,-193.755 L 1016.02,-197.837 L 1014.02,-197.837
 L 1014.02,-201.918 L 1016.02,-201.918 L 1016.02,-206 L 1014.02,-206 L 1014.02,-212 L 430.02,-212
 L 430.02,-206 L 428.02,-206 L 428.02,-201.918 L 430.02,-201.918 L 430.02,-197.837 L 428.02,-197.837
 L 428.02,-193.755 L 430.02,-193.755 L 430.02,-189.673 L 428.02,-189.673 L 428.02,-185.592 L 430.02,-185.592
 L 430.02,-181.51 L 428.02,-181.51 L 428.02,-177.429 L 430.02,-177.429 L 430.02,-173.347 L 428.02,-173.347
 L 428.02,-169.265 L 430.02,-169.265 L 430.02,-165.184 L 428.02,-165.184 L 428.02,-161.102 L 430.02,-161.102
 L 430.02,-157.02 L 428.02,-157.02 L 428.02,-152.939 L 430.02,-152.939 L 430.02,-148.857 L 428.02,-148.857
 L 428.02,-144.776 L 430.02,-144.776 L 430.02,-140.694 L 428.02,-140.694 L 428.02,-136.612 L 430.02,-136.612
 L 430.02,-132.531 L 428.02,-132.531 L 428.02,-128.449 L 430.02,-128.449 L 430.02,-124.367 L 428.02,-124.367
 L 428.02,-120.286 L 430.02,-120.286 L 430.02,-116.204 L 428.02,-116.204 L 428.02,-112.122 L 430.02,-112.122
 L 430.02,-108.041 L 428.02,-108.041 L 428.02,-103.959 L 430.02,-103.959 L 430.02,-99.8776 L 428.02,-99.8776
 L 428.02,-95.7959 L 430.02,-95.7959 L 430.02,-91.7143 L 428.02,-91.7143 L 428.02,-87.6327 L 430.02,-87.6327
 L 430.02,-83.551 L 428.02,-83.551 L 428.02,-79.4694 L 430.02,-79.4694 L 430.02,-75.3878 L 428.02,-75.3878
 L 428.02,-71.3061 L 430.02,-71.3061 L 430.02,-67.2245 L 428.02,-67.2245 L 428.02,-63.1429 L 430.02,-63.1429
 L 430.02,-59.0612 L 428.02,-59.0612 L 428.02,-54.9796 L 430.02,-54.9796 L 430.02,-50.898 L 428.02,-50.898
 L 428.02,-46.8163 L 430.02,-46.8163 L 430.02,-42.7347 L 428.02,-42.7347 L 428.02,-38.6531 L 430.02,-38.6531
 L 430.02,-34.5714 L 428.02,-34.5714 L 428.02,-30.4898 L 430.02,-30.4898 L 430.02,-26.4082 L 428.02,-26.4082
 L 428.02,-22.3265 L 430.02,-22.3265 L 430.02,-18.2449 L 428.02,-18.2449 L 428.02,-14.1633 L 430.02,-14.1633
 L 430.02,-10.0816 L 428.02,-10.0816 L 428.02,-6 L 430.02,-6 L 430.02,-0 L 436.02,-0
 z
M 500.52,-206 L 502.53,-206 L 502.53,-202 L 500.52,-202 z
M 574.02,-206 L 576.03,-206 L 576.03,-202 L 574.02,-202 z
M 647.52,-206 L 649.53,-206 L 649.53,-202 L 647.52,-202 z
M 721.02,-206 L 723.03,-206 L 723.03,-202 L 721.02,-202 z
M 794.52,-206 L 796.53,-206 L 796.53,-202 L 794.52,-202 z
M 868.02,-206 L 870.03,-206 L 870.03,-202 L 868.02,-202 z
M 941.52,-206 L 943.53,-206 L 943.53,-202 L 941.52,-202 z
M 500.52,-198 L 502.53,-198 L 502.53,-194 L 500.52,-194 z
M 574.02,-198 L 576.03,-198 L 576.03,-194 L 574.02,-194 z
M 647.52,-198 L 649.53,-198 L 649.53,-194 L 647.52,-194 z
M 721.02,-198 L 723.03,-198 L 723.03,-194 L 721.02,-194 z
M 794.52,-198 L 796.53,-198 L 796.53,-194 L 794.52,-194 z
M 868.02,-198 L 870.03,-198 L 870.03,-194 L 868.02,-194 z
M 941.52,-198 L 943.53,-198 L 943.53,-194 L 941.52,-194 z
M 500.52,-190 L 502.53,-190 L 502.53,-186 L 500.52,-186 z
M 574.02,-190 L 576.03,-190 L 576.03,-186 L 574.02,-186 z
M 647.52,-190 L 649.53,-190 L 649.53,-186 L 647.52,-186 z
M 721.02,-190 L 723.03,-190 L 723.03,-186 L 721.02,-186 z
M 794.52,-190 L 796.53,-190 L 796.53,-186 L 794.52,-186 z
M 868.02,-190 L 870.03,-190 L 870.03,-186 L 868.02,-186 z
M 941.52,-190 L 943.53,-190 L 943.53,-186 L 941.52,-186 z
M 500.52,-182 L 502.53,-182 L 502.53,-178 L 500.52,-178 z
M 574.02,-182 L 576.03,-182 L 576.03,-178 L 574.02,-178 z
M 647.52,-182 L 649.53,-182 L 649.53,-178 L 647.52,-178 z
M 721.02,-182 L 723.03,-182 L 723.03,-178 L 721.02,-178 z
M 794.52,-182 L 796.53,-182 L 796.53,-178 L 794.52,-178 z
M 868.02,-182 L 870.03,-182 L 870.03,-178 L 868.02,-178 z
M 941.52,-182 L 943.53,-182 L 943.53,-178 L 941.52,-178 z
M 500.52,-174 L 502.53,-174 L 502.53,-170 L 500.52,-170 z
M 574.02,-174 L 576.03,-174 L 576.03,-170 L 574.02,-170 z
M 647.52,-174 L 649.53,-174 L 649.53,-170 L 647.52,-170 z
M 721.02,-174 L 723.03,-174 L 723.03,-170 L 721.02,-170 z
M 794.52,-174 L 796.53,-174 L 796.53,-170 L 794.52,-170 z
M 868.02,-174 L 870.03,-174 L 870.03,-170 L 868.02,-170 z
M 941.52,-174 L 943.53,-174 L 943.53,-170 L 941.52,-170 z
M 500.52,-166 L 502.53,-166 L 502.53,-162 L 500.52,-162 z
M 574.02,-166 L 576.03,-166 L 576.03,-162 L 574.02,-162 z
M 647.52,-166 L 649.53,-166 L 649.53,-162 L 647.52,-162 z
M 721.02,-166 L 723.03,-166 L 723.03,-162 L 721.02,-162 z
M 794.52,-166 L 796.53,-166 L 796.53,-162 L 794.52,-162 z
M 868.02,-166 L 870.03,-166 L 870.03,-162 L 868.02,-162 z
M 941.52,-166 L 943.53,-166 L 943.53,-162 L 941.52,-162 z
M 500.52,-158 L 502.53,-158 L 502.53,-154 L 500.52,-154 z
M 574.02,-158 L 576.03,-158 L 576.03,-154 L 574.02,-154 z
M 647.52,-158 L 649.53,-158 L 649.53,-154 L 647.52,-154 z
M 721.02,-158 L 723.03,-158 L 723.03,-154 L 721.02,-154 z
M 794.52,-158 L 796.53,-158 L 796.53,-154 L 794.52,-154 z
M 868.02,-158 L 870.03,-158 L 870.03,-154 L 868.02,-154 z
M 941.52,-158 L 943.53,-158 L 943.53,-154 L 941.52,-154 z
M 500.52,-150 L 502.53,-150 L 502.53,-146 L 500.52,-146 z
M 574.02,-150 L 576.03,-150 L 576.03,-146 L 574.02,-146 z
M 647.52,-150 L 649.53,-150 L 649.53,-146 L 647.52,-146 z
M 721.02,-150 L 723.03,-150 L 723.03,-146 L 721.02,-146 z
M 794.52,-150 L 796.53,-150 L 796.53,-146 L 794.52,-146 z
M 868.02,-150 L 870.03,-150 L 870.03,-146 L 868.02,-146 z
M 941.52,-150 L 943.53,-150 L 943.53,-146 L 941.52,-146 z
M 500.52,-142 L 502.53,-142 L 502.53,-138 L 500.52,-138 z
M 574.02,-142 L 576.03,-142 L 576.03,-138 L 574.02,-138 z
M 647.52,-142 L 649.53,-142 L 649.53,-138 L 647.52,-138 z
M 721.02,-142 L 723.03,-142 L 723.03,-138 L 721.02,-138 z
M 794.52,-142 L 796.53,-142 L 796.53,-138 L 794.52,-138 z
M 868.02,-142 L 870.03,-142 L 870.03,-138 L 868.02,-138 z
M 941.52,-142 L 943.53,-142 L 943.53,-138 L 941.52,-138 z
M 500.52,-134 L 502.53,-134 L 502.53,-130 L 500.52,-130 z
M 574.02,-134 L 576.03,-134 L 576.03,-130 L 574.02,-130 z
M 647.52,-134 L 649.53,-134 L 649.53,-130 L 647.52,-130 z
M 721.02,-134 L 723.03,-134 L 723.03,-130 L 721.02,-130 z
M 794.52,-134 L 796.53,-134 L 796.53,-130 L 794.52,-130 z
M 868.02,-134 L 870.03,-134 L 870.03,-130 L 868.02,-130 z
M 941.52,-134 L 943.53,-134 L 943.53,-130 L 941.52,-130 z
M 500.52,-126 L 502.53,-126 L 502.53,-122 L 500.52,-122 z
M 574.02,-126 L 576.03,-126 L 576.03,-122 L 574.02,-122 z
M 647.52,-126 L 649.53,-126 L 649.53,-122 L 647.52,-122 z
M 721.02,-126 L 723.03,-126 L 723.03,-122 L 721.02,-122 z
M 794.52,-126 L 796.53,-126 L 796.53,-122 L 794.52,-122 z
M 868.02,-126 L 870.03,-126 L 870.03,-122 L 868.02,-122 z
M 941.52,-126 L 943.53,-126 L 943.53,-122 L 941.52,-122 z
M 500.52,-118 L 502.53,-118 L 502.53,-114 L 500.52,-114 z
M 574.02,-118 L 576.03,-118 L 576.03,-114 L 574.02,-114 z
M 647.52,-118 L 649.53,-118 L 649.53,-114 L 647.52,-114 z
M 721.02,-118 L 723.03,-118 L 723.03,-114 L 721.02,-114 z
M 794.52,-118 L 796.53,-118 L 796.53,-114 L 794.52,-114 z
M 868.02,-118 L 870.03,-118 L 870.03,-114 L 868.02,-114 z
M 941.52,-118 L 943.53,-118 L 943.53,-114 L 941.52,-114 z
M 500.52,-110 L 502.53,-110 L 502.53,-106 L 500.52,-106 z
M 574.02,-110 L 576.03,-110 L 576.03,-106 L 574.02,-106 z
M 647.52,-110 L 649.53,-110 L 649.53,-106 L 647.52,-106 z
M 721.02,-110 L 723.03,-110 L 723.03,-106 L 721.02,-106 z
M 794.52,-110 L 796.53,-110 L 796.53,-106 L 794.52,-106 z
M 868.02,-110 L 870.03,-110 L 870.03,-106 L 868.02,-106 z
M 941.52,-110 L 943.53,-110 L 943.53,-106 L 941.52,-106 z
M 500.52,-102 L 502.53,-102 L 502.53,-98 L 500.52,-98 z
M 574.02,-102 L 576.03,-102 L 576.03,-98 L 574.02,-98 z
M 647.52,-102 L 649.53,-102 L 649.53,-98 L 647.52,-98 z
M 721.02,-102 L 723.03,-102 L 723.03,-98 L 721.02,-98 z
M 794.52,-102 L 796.53,-102 L 796.53,-98 L 794.52,-98 z
M 868.02,-102 L 870.03,-102 L 870.03,-98 L 868.02,-98 z
M 941.52,-102 L 943.53,-102 L 943.53,-98 L 941.52,-98 z
M 500.52,-94 L 502.53,-94 L 502.53,-90 L 500.52,-90 z
M 574.02,-94 L 576.03,-94 L 576.03,-90 L 574.02,-90 z
M 647.52,-94 L 649.53,-94 L 649.53,-90 L 647.52,-90 z
M 721.02,-94 L 723.03,-94 L 723.03,-90 L 721.02,-90 z
M 794.52,-94 L 796.53,-94 L 796.53,-90 L 794.52,-90 z
M 868.02,-94 L 870.03,-94 L 870.03,-90 L 868.02,-90 z
M 941.52,-94 L 943.53,-94 L 943.53,-90 L 941.52,-90 z
M 500.52,-86 L 502.53,-86 L 502.53,-82 L 500.52,-82 z
M 574.02,-86 L 576.03,-86 L 576.03,-82 L 574.02,-82 z
M 647.52,-86 L 649.53,-86 L 649.53,-82 L 647.52,-82 z
M 721.02,-86 L 723.03,-86 L 723.03,-82 L 721.02,-82 z
M 794.52,-86 L 796.53,-86 L 796.53,-82 L 794.52,-82 z
M 868.02,-86 L 870.03,-86 L 870.03,-82 L 868.02,-82 z
M 941.52,-86 L 943.53,-86 L 943.53,-82 L 941.52,-82 z
M 500.52,-78 L 502.53,-78 L 502.53,-74 L 500.52,-74 z
M 574.02,-78 L 576.03,-78 L 576.03,-74 L 574.02,-74 z
M 647.52,-78 L 649.53,-78 L 649.53,-74 L 647.52,-74 z
M 721.02,-78 L 723.03,-78 L 723.03,-74 L 721.02,-74 z
M 794.52,-78 L 796.53,-78 L 796.53,-74 L 794.52,-74 z
M 868.02,-78 L 870.03,-78 L 870.03,-74 L 868.02,-74 z
M 941.52,-78 L 943.53,-78 L 943.53,-74 L 941.52,-74 z
M 500.52,-70 L 502.53,-70 L 502.53,-66 L 500.52,-66 z
M 574.02,-70 L 576.03,-70 L 576.03,-66 L 574.02,-66 z
M 647.52,-70 L 649.53,-70 L 649.53,-66 L 647.52,-66 z
M 721.02,-70 L 723.03,-70 L 723.03,-66 L 721.02,-66 z
M 794.52,-70 L 796.53,-70 L 796.53,-66 L 794.52,-66 z
M 868.02,-70 L 870.03,-70 L 870.03,-66 L 868.02,-66 z
M 941.52,-70 L 943.53,-70 L 943.53,-66 L 941.52,-66 z
M 500.52,-62 L 502.53,-62 L 502.53,-58 L 500.52,-58 z
M 574.02,-62 L 576.03,-62 L 576.03,-58 L 574.02,-58 z
M 647.52,-62 L 649.53,-62 L 649.53,-58 L 647.52,-58 z
M 721.02,-62 L 723.03,-62 L 723.03,-58 L 721.02,-58 z
M 794.52,-62 L 796.53,-62 L 796.53,-58 L 794.52,-58 z
M 868.02,-62 L 870.03,-62 L 870.03,-58 L 868.02,-58 z
M 941.52,-62 L 943.53,-62 L 943.53,-58 L 941.52,-58 z
M 500.52,-54 L 502.53,-54 L 502.53,-50 L 500.52,-50 z
M 574.02,-54 L 576.03,-54 L 576.03,-50 L 574.02,-50 z
M 647.52,-54 L 649.53,-54 L 649.53,-50 L 647.52,-50 z
M 721.02,-54 L 723.03,-54 L 723.03,-50 L 721.02,-50 z
M 794.52,-54 L 796.53,-54 L 796.53,-50 L 794.52,-50 z
M 868.02,-54 L 870.03,-54 L 870.03,-50 L 868.02,-50 z
M 941.52,-54 L 943.53,-54 L 943.53,-50 L 941.52,-50 z
M 500.52,-46 L 502.53,-46 L 502.53,-42 L 500.52,-42 z
M 574.02,-46 L 576.03,-46 L 576.03,-42 L 574.02,-42 z
M 647.52,-46 L 649.53,-46 L 649.53,-42 L 647.52,-42 z
M 721.02,-46 L 723.03,-46 L 723.03,-42 L 721.02,-42 z
M 794.52,-46 L 796.53,-46 L 796.53,-42 L 794.52,-42 z
M 868.02,-46 L 870.03,-46 L 870.03,-42 L 868.02,-42 z
M 941.52,-46 L 943.53,-46 L 943.53,-42 L 941.52,-42 z
M 500.52,-38 L 502.53,-38 L 502.53,-34 L 500.52,-34 z
M 574.02,-38 L 576.03,-38 L 576.03,-34 L 574.02,-34 z
M 647.52,-38 L 649.53,-38 L 649.53,-34 L 647.52,-34 z
M 721.02,-38 L 723.03,-38 L 723.03,-34 L 721.02,-34 z
M 794.52,-38 L 796.53,-38 L 796.53,-34 L 794.52,-34 z
M 868.02,-38 L 870.03,-38 L 870.03,-34 L 868.02,-34 z
M 941.52,-38 L 943.53,-38 L 943.53,-34 L 941.52,-34 z
M 500.52,-30 L 502.53,-30 L 502.53,-26 L 500.52,-26 z
M 574.02,-30 L 576.03,-30 L 576.03,-26 L 574.02,-26 z
M 647.52,-30 L 649.53,-30 L 649.53,-26 L 647.52,-26 z
M 721.02,-30 L 723.03,-30 L 723.03,-26 L 721.02,-26 z
M 794.52,-30 L 796.53,-30 L 796.53,-26 L 794.52,-26 z
M 868.02,-30 L 870.03,-30 L 870.03,-26 L 868.02,-26 z
M 941.52,-30 L 943.53,-30 L 943.53,-26 L 941.52,-26 z
M 500.52,-22 L 502.53,-22 L 502.53,-18 L 500.52,-18 z
M 574.02,-22 L 576.03,-22 L 576.03,-18 L 574.02,-18 z
M 647.52,-22 L 649.53,-22 L 649.53,-18 L 647.52,-18 z
M 721.02,-22 L 723.03,-22 L 723.03,-18 L 721.02,-18 z
M 794.52,-22 L 796.53,-22 L 796.53,-18 L 794.52,-18 z
M 868.02,-22 L 870.03,-22 L 870.03,-18 L 868.02,-18 z
M 941.52,-22 L 943.53,-22 L 943.53,-18 L 941.52,-18 z
M 500.52,-14 L 502.53,-14 L 502.53,-10 L 500.52,-10 z
M 574.02,-14 L 576.03,-14 L 576.03,-10 L 574.02,-10 z
M 647.52,-14 L 649.53,-14 L 649.53,-10 L 647.52,-10 z
M 721.02,-14 L 723.03,-14 L 723.03,-10 L 721.02,-10 z
M 794.52,-14 L 796.53,-14 L 796.53,-10 L 794.52,-10 z
M 868.02,-14 L 870.03,-14 L 870.03,-10 L 868.02,-10 z
M 941.52,-14 L 943.53,-14 L 943.53,-10 L 941.52,-10 z
M 1024.03,-2 L 1028.03,-2 L 1028.03,-0 L 1032.03,-0 L 1032.03,-2 L 1036.03,-2
 L 1036.03,-0 L 1040.03,-0 L 1040.03,-2 L 1044.03,-2 L 1044.03,-0 L 1048.03,-0
 L 1048.03,-2 L 1052.03,-2 L 1052.03,-0 L 1056.03,-0 L 1056.03,-2 L 1060.03,-2
 L 1060.03,-0 L 1064.03,-0 L 1064.03,-2 L 1068.03,-2 L 1068.03,-0 L 1072.03,-0
 L 1072.03,-2 L 1076.03,-2 L 1076.03,-0 L 1080.03,-0 L 1080.03,-2 L 1084.03,-2
 L 1084.03,-0 L 1088.03,-0 L 1088.03,-2 L 1092.03,-2 L 1092.03,-0 L 1096.03,-0
 L 1096.03,-2 L 1100.03,-2 L 1100.03,-0 L 1104.03,-0 L 1104.03,-2 L 1108.03,-2
 L 1108.03,-0 L 1112.03,-0 L 1112.03,-2 L 1116.03,-2 L 1116.03,-0 L 1120.03,-0
 L 1120.03,-2 L 1124.03,-2 L 1124.03,-0 L 1128.03,-0 L 1128.03,-2 L 1132.03,-2
 L 1132.03,-0 L 1136.03,-0 L 1136.03,-2 L 1140.03,-2 L 1140.03,-0 L 1144.03,-0
 L 1144.03,-2 L 1148.03,-2 L 1148.03,-0 L 1152.03,-0 L 1152.03,-2 L 1156.03,-2
 L 1156.03,-0 L 1160.03,-0 L 1160.03,-2 L 1164.03,-2 L 1164.03,-0 L 1168.03,-0
 L 1168.03,-2 L 1172.03,-2 L 1172.03,-0 L 1176.03,-0 L 1176.03,-2 L 1180.03,-2
 L 1180.03,-0 L 1184.03,-0 L 1184.03,-2 L 1188.03,-2 L 1188.03,-0 L 1192.03,-0
 L 1192.03,-2 L 1196.03,-2 L 1196.03,-0 L 1200.03,-0 L 1200.03,-2 L 1204.03,-2
 L 1204.03,-0 L 1208.03,-0 L 1208.03,-2 L 1212.03,-2 L 1212.03,-0 L 1216.03,-0
 L 1216.03,-2 L 1220.03,-2 L 1220.03,-0 L 1224.03,-0 L 1224.03,-2 L 1228.03,-2
 L 1228.03,-0 L 1232.03,-0 L 1232.03,-2 L 1236.03,-2 L 1236.03,-0 L 1240.03,-0
 L 1240.03,-2 L 1244.03,-2 L 1244.03,-0 L 1248.03,-0 L 1248.03,-2 L 1252.03,-2
 L 1252.03,-0 L 1256.03,-0 L 1256.03,-2 L 1260.03,-2 L 1260.03,-0 L 1264.03,-0
 L 1264.03,-2 L 1268.03,-2 L 1268.03,-0 L 1272.03,-0 L 1272.03,-2 L 1276.03,-2
 L 1276.03,-0 L 1280.03,-0 L 1280.03,-2 L 1284.03,-2 L 1284.03,-0 L 1288.03,-0
 L 1288.03,-2 L 1292.03,-2 L 1292.03,-0 L 1296.03,-0 L 1296.03,-2 L 1300.03,-2
 L 1300.03,-0 L 1304.03,-0 L 1304.03,-2 L 1308.03,-2 L 1308.03,-0 L 1312.03,-0
 L 1312.03,-2 L 1316.03,-2 L 1316.03,-0 L 1320.03,-0 L 1320.03,-2 L 1324.03,-2
 L 1324.03,-0 L 1328.03,-0 L 1328.03,-2 L 1332.03,-2 L 1332.03,-0 L 1336.03,-0
 L 1336.03,-2 L 1340.03,-2 L 1340.03,-0 L 1344.03,-0 L 1344.03,-2 L 1348.03,-2
 L 1348.03,-0 L 1352.03,-0 L 1352.03,-2 L 1356.03,-2 L 1356.03,-0 L 1360.03,-0
 L 1360.03,-2 L 1364.03,-2 L 1364.03,-0 L 1368.03,-0 L 1368.03,-2 L 1372.03,-2
 L 1372.03,-0 L 1376.03,-0 L 1376.03,-2 L 1380.03,-2 L 1380.03,-0 L 1384.03,-0
 L 1384.03,-2 L 1388.03,-2 L 1388.03,-0 L 1392.03,-0 L 1392.03,-2 L 1396.03,-2
 L 1396.03,-0 L 1400.03,-0 L 1400.03,-2 L 1404.03,-2 L 1404.03,-0 L 1408.03,-0
 L 1408.03,-2 L 1412.03,-2 L 1412.03,-0 L 1416.03,-0 L 1416.03,-2 L 1420.03,-2
 L 1420.03,-0 L 1424.03,-0 L 1424.03,-2 L 1428.03,-2 L 1428.03,-0 L 1432.03,-0
 L 1432.03,-2 L 1436.03,-2 L 1436.03,-0 L 1440.03,-0 L 1440.03,-2 L 1444.03,-2
 L 1444.03,-0 L 1448.03,-0 L 1448.03,-2 L 1452.03,-2 L 1452.03,-0 L 1456.03,-0
 L 1456.03,-2 L 1460.03,-2 L 1460.03,-0 L 1464.03,-0 L 1464.03,-2 L 1468.03,-2
 L 1468.03,-0 L 1472.03,-0 L 1472.03,-2 L 1476.03,-2 L 1476.03,-0 L 1480.03,-0
 L 1480.03,-2 L 1484.03,-2 L 1484.03,-0 L 1488.03,-0 L 1488.03,-2 L 1492.03,-2
 L 1492.03,-0 L 1496.03,-0 L 1496.03,-2 L 1500.03,-2 L 1500.03,-0 L 1504.03,-0
 L 1504.03,-2 L 1508.03,-2 L 1508.03,-0 L 1512.03,-0 L 1512.03,-2 L 1516.03,-2
 L 1516.03,-0 L 1520.03,-0 L 1520.03,-2 L 1524.03,-2 L 1524.03,-0 L 1528.03,-0
 L 1528.03,-2 L 1532.03,-2 L 1532.03,-0 L 1536.03,-0 L 1536.03,-2 L 1540.03,-2
 L 1540.03,-0 L 1544.03,-0 L 1544.03,-2 L 1548.03,-2 L 1548.03,-0 L 1552.03,-0
 L 1552.03,-2 L 1556.03,-2 L 1556.03,-0 L 1560.03,-0 L 1560.03,-2 L 1564.03,-2
 L 1564.03,-0 L 1568.03,-0 L 1568.03,-2 L 1572.03,-2 L 1572.03,-0 L 1576.03,-0
 L 1576.03,-2 L 1580.03,-2 L 1580.03,-0 L 1584.03,-0 L 1584.03,-2 L 1588.03,-2
 L 1588.03,-0 L 1592.03,-0 L 1592.03,-2 L 1596.03,-2 L 1596.03,-0 L 1602.03,-0
 L 1602.03,-6 L 1604.03,-6 L 1604.03,-10.0816 L 1602.03,-10.0816 L 1602.03,-14.1633 L 1604.03,-14.1633
 L 1604.03,-18.2449 L 1602.03,-18.2449 L 1602.03,-22.3265 L 1604.03,-22.3265 L 1604.03,-26.4082 L 1602.03,-26.4082
 L 1602.03,-30.4898 L 1604.03,-30.4898 L 1604.03,-34.5714 L 1602.03,-34.5714 L 1602.03,-38.6531 L 1604.03,-38.6531
 L 1604.03,-42.7347 L 1602.03,-42.7347 L 1602.03,-46.8163 L 1604.03,-46.8163 L 1604.03,-50.898 L 1602.03,-50.898
 L 1602.03,-54.9796 L 1604.03,-54.9796 L 1604.03,-59.0612 L 1602.03,-59.0612 L 1602.03,-63.1429 L 1604.03,-63.1429
 L 1604.03,-67.2245 L 1602.03,-67.2245 L 1602.03,-71.3061 L 1604.03,-71.3061 L 1604.03,-75.3878 L 1602.03,-75.3878
 L 1602.03,-79.4694 L 1604.03,-79.4694 L 1604.03,-83.551 L 1602.03,-83.551 L 1602.03,-87.6327 L 1604.03,-87.6327
 L 1604.03,-91.7143 L 1602.03,-91.7143 L 1602.03,-95.7959 L 1604.03,-95.7959 L 1604.03,-99.8776 L 1602.03,-99.8776
 L 1602.03,-103.959 L 1604.03,-103.959 L 1604.03,-108.041 L 1602.03,-108.041 L 1602.03,-112.122 L 1604.03,-112.122
 L 1604.03,-116.204 L 1602.03,-116.204 L 1602.03,-120.286 L 1604.03,-120.286 L 1604.03,-124.367 L 1602.03,-124.367
 L 1602.03,-128.449 L 1604.03,-128.449 L 1604.03,-132.531 L 1602.03,-132.531 L 1602.03,-136.612 L 1604.03,-136.612
 L 1604.03,-140.694 L 1602.03,-140.694 L 1602.03,-144.776 L 1604.03,-144.776 L 1604.03,-148.857 L 1602.03,-148.857
 L 1602.03,-152.939 L 1604.03,-152.939 L 1604.03,-157.02 L 1602.03,-157.02 L 1602.03,-161.102 L 1604.03,-161.102
 L 1604.03,-165.184 L 1602.03,-165.184 L 1602.03,-169.265 L 1604.03,-169.265 L 1604.03,-173.347 L 1602.03,-173.347
 L 1602.03,-177.429 L 1604.03,-177.429 L 1604.03,-181.51 L 1602.03,-181.51 L 1602.03,-185.592 L 1604.03,-185.592
 L 1604.03,-189.673 L 1602.03,-189.673 L 1602.03,-193.755 L 1604.03,-193.755 L 1604.03,-197.837 L 1602.03,-197.837
 L 1602.03,-201.918 L 1604.03,-201.918 L 1604.03,-206 L 1602.03,-206 L 1602.03,-212 L 1018.03,-212
 L 1018.03,-206 L 1016.03,-206 L 1016.03,-201.918 L 1018.03,-201.918 L 1018.03,-197.837 L 1016.03,-197.837
 L 1016.03,-193.755 L 1018.03,-193.755 L 1018.03,-189.673 L 1016.03,-189.673 L 1016.03,-185.592 L 1018.03,-185.592
 L 1018.03,-181.51 L 1016.03,-181.51 L 1016.03,-177.429 L 1018.03,-177.429 L 1018.03,-173.347 L 1016.03,-173.347
 L 1016.03,-169.265 L 1018.03,-169.265 L 1018.03,-165.184 L 1016.03,-165.184 L 1016.03,-161.102 L 1018.03,-161.102
 L 1018.03,-157.02 L 1016.03,-157.02 L 1016.03,-152.939 L 1018.03,-152.939 L 1018.03,-148.857 L 1016.03,-148.857
 L 1016.03,-144.776 L 1018.03,-144.776 L 1018.03,-140.694 L 1016.03,-140.694 L 1016.03,-136.612 L 1018.03,-136.612
 L 1018.03,-132.531 L 1016.03,-132.531 L 1016.03,-128.449 L 1018.03,-128.449 L 1018.03,-124.367 L 1016.03,-124.367
 L 1016.03,-120.286 L 1018.03,-120.286 L 1018.03,-116.204 L 1016.03,-116.204 L 1016.03,-112.122 L 1018.03,-112.122
 L 1018.03,-108.041 L 1016.03,-108.041 L 1016.03,-103.959 L 1018.03,-103.959 L 1018.03,-99.8776 L 1016.03,-99.8776
 L 1016.03,-95.7959 L 1018.03,-95.7959 L 1018.03,-91.7143 L 1016.03,-91.7143 L 1016.03,-87.6327 L 1018.03,-87.6327
 L 1018.03,-83.551 L 1016.03,-83.551 L 1016.03,-79.4694 L 1018.03,-79.4694 L 1018.03,-75.3878 L 1016.03,-75.3878
 L 1016.03,-71.3061 L 1018.03,-71.3061 L 1018.03,-67.2245 L 1016.03,-67.2245 L 1016.03,-63.1429 L 1018.03,-63.1429
 L 1018.03,-59.0612 L 1016.03,-59.0612 L 1016.03,-54.9796 L 1018.03,-54.9796 L 1018.03,-50.898 L 1016.03,-50.898
 L 1016.03,-46.8163 L 1018.03,-46.8163 L 1018.03,-42.7347 L 1016.03,-42.7347 L 1016.03,-38.6531 L 1018.03,-38.6531
 L 1018.03,-34.5714 L 1016.03,-34.5714 L 1016.03,-30.4898 L 1018.03,-30.4898 L 1018.03,-26.4082 L 1016.03,-26.4082
 L 1016.03,-22.3265 L 1018.03,-22.3265 L 1018.03,-18.2449 L 1016.03,-18.2449 L 1016.03,-14.1633 L 1018.03,-14.1633
 L 1018.03,-10.0816 L 1016.03,-10.0816 L 1016.03,-6 L 1018.03,-6 L 1018.03,-0 L 1024.03,-0
 z
M 1088.53,-206 L 1090.54,-206 L 1090.54,-202 L 1088.53,-202 z
M 1162.03,-206 L 1164.04,-206 L 1164.04,-202 L 1162.03,-202 z
M 1235.53,-206 L 1237.54,-206 L 1237.54,-202 L 1235.53,-202 z
M 1309.03,-206 L 1311.04,-206 L 1311.04,-202 L 1309.03,-202 z
M 1382.53,-206 L 1384.54,-206 L 1384.54,-202 L 1382.53,-202 z
M 1456.03,-206 L 1458.04,-206 L 1458.04,-202 L 1456.03,-202 z
M 1529.53,-206 L 1531.54,-206 L 1531.54,-202 L 1529.53,-202 z
M 1088.53,-198 L 1090.54,-198 L 1090.54,-194 L 1088.53,-194 z
M 1162.03,-198 L 1164.04,-198 L 1164.04,-194 L 1162.03,-194 z
M 1235.53,-198 L 1237.54,-198 L 1237.54,-194 L 1235.53,-194 z
M 1309.03,-198 L 1311.04,-198 L 1311.04,-194 L 1309.03,-194 z
M 1382.53,-198 L 1384.54,-198 L 1384.54,-194 L 1382.53,-194 z
M 1456.03,-198 L 1458.04,-198 L 1458.04,-194 L 1456.03,-194 z
M 1529.53,-198 L 1531.54,-198 L 1531.54,-194 L 1529.53,-194 z
M 1088.53,-190 L 1090.54,-190 L 1090.54,-186 L 1088.53,-186 z
M 1162.03,-190 L 1164.04,-190 L 1164.04,-186 L 1162.03,-186 z
M 1235.53,-190 L 1237.54,-190 L 1237.54,-186 L 1235.53,-186 z
M 1309.03,-190 L 1311.04,-190 L 1311.04,-186 L 1309.03,-186 z
M 1382.53,-190 L 1384.54,-190 L 1384.54,-186 L 1382.53,-186 z
M 1456.03,-190 L 1458.04,-190 L 1458.04,-186 L 1456.03,-186 z
M 1529.53,-190 L 1531.54,-190 L 1531.54,-186 L 1529.53,-186 z
M 1088.53,-182 L 1090.54,-182 L 1090.54,-178 L 1088.53,-178 z
M 1162.03,-182 L 1164.04,-182 L 1164.04,-178 L 1162.03,-178 z
M 1235.53,-182 L 1237.54,-182 L 1237.54,-178 L 1235.53,-178 z
M 1309.03,-182 L 1311.04,-182 L 1311.04,-178 L 1309.03,-178 z
M 1382.53,-182 L 1384.54,-182 L 1384.54,-178 L 1382.53,-178 z
M 1456.03,-182 L 1458.04,-182 L 1458.04,-178 L 1456.03,-178 z
M 1529.53,-182 L 1531.54,-182 L 1531.54,-178 L 1529.53,-178 z
M 1088.53,-174 L 1090.54,-174 L 1090.54,-170 L 1088.53,-170 z
M 1162.03,-174 L 1164.04,-174 L 1164.04,-170 L 1162.03,-170 z
M 1235.53,-174 L 1237.54,-174 L 1237.54,-170 L 1235.53,-170 z
M 1309.03,-174 L 1311.04,-174 L 1311.04,-170 L 1309.03,-170 z
M 1382.53,-174 L 1384.54,-174 L 1384.54,-170 L 1382.53,-170 z
M 1456.03,-174 L 1458.04,-174 L 1458.04,-170 L 1456.03,-170 z
M 1529.53,-174 L 1531.54,-174 L 1531.54,-170 L 1529.53,-170 z
M 1088.53,-166 L 1090.54,-166 L 1090.54,-162 L 1088.53,-162 z
M 1162.03,-166 L 1164.04,-166 L 1164.04,-162 L 1162.03,-162 z
M 1235.53,-166 L 1237.54,-166 L 1237.54,-162 L 1235.53,-162 z
M 1309.03,-166 L 1311.04,-166 L 1311.04,-162 L 1309.03,-162 z
M 1382.53,-166 L 1384.54,-166 L 1384.54,-162 L 1382.53,-162 z
M 1456.03,-166 L 1458.04,-166 L 1458.04,-162 L 1456.03,-162 z
M 1529.53,-166 L 1531.54,-166 L 1531.54,-162 L 1529.53,-162 z
M 1088.53,-158 L 1090.54,-158 L 1090.54,-154 L 1088.53,-154 z
M 1162.03,-158 L 1164.04,-158 L 1164.04,-154 L 1162.03,-154 z
M 1235.53,-158 L 1237.54,-158 L 1237.54,-154 L 1235.53,-154 z
M 1309.03,-158 L 1311.04,-158 L 1311.04,-154 L 1309.03,-154 z
M 1382.53,-158 L 1384.54,-158 L 1384.54,-154 L 1382.53,-154 z
M 1456.03,-158 L 1458.04,-158 L 1458.04,-154 L 1456.03,-154 z
M 1529.53,-158 L 1531.54,-158 L 1531.54,-154 L 1529.53,-154 z
M 1088.53,-150 L 1090.54,-150 L 1090.54,-146 L 1088.53,-146 z
M 1162.03,-150 L 1164.04,-150 L 1164.04,-146 L 1162.03,-146 z
M 1235.53,-150 L 1237.54,-150 L 1237.54,-146 L 1235.53,-146 z
M 1309.03,-150 L 1311.04,-150 L 1311.04,-146 L 1309.03,-146 z
M 1382.53,-150 L 1384.54,-150 L 1384.54,-146 L 1382.53,-146 z
M 1456.03,-150 L 1458.04,-150 L 1458.04,-146 L 1456.03,-146 z
M 1529.53,-150 L 1531.54,-150 L 1531.54,-146 L 1529.53,-146 z
M 1088.53,-142 L 1090.54,-142 L 1090.54,-138 L 1088.53,-138 z
M 1162.03,-142 L 1164.04,-142 L 1164.04,-138 L 1162.03,-138 z
M 1235.53,-142 L 1237.54,-142 L 1237.54,-138 L 1235.53,-138 z
M 1309.03,-142 L 1311.04,-142 L 1311.04,-138 L 1309.03,-138 z
M 1382.53,-142 L 1384.54,-142 L 1384.54,-138 L 1382.53,-138 z
M 1456.03,-142 L 1458.04,-142 L 1458.04,-138 L 1456.03,-138 z
M 1529.53,-142 L 1531.54,-142 L 1531.54,-138 L 1529.53,-138 z
M 1088.53,-134 L 1090.54,-134 L 1090.54,-130 L 1088.53,-130 z
M 1162.03,-134 L 1164.04,-134 L 1164.04,-130 L 1162.03,-130 z
M 1235.53,-134 L 1237.54,-134 L 1237.54,-130 L 1235.53,-130 z
M 1309.03,-134 L 1311.04,-134 L 1311.04,-130 L 1309.03,-130 z
M 1382.53,-134 L 1384.54,-134 L 1384.54,-130 L 1382.53,-130 z
M 1456.03,-134 L 1458.04,-134 L 1458.04,-130 L 1456.03,-130 z
M 1529.53,-134 L 1531.54,-134 L 1531.54,-130 L 1529.53,-130 z
M 1088.53,-126 L 1090.54,-126 L 1090.54,-122 L 1088.53,-122 z
M 1162.03,-126 L 1164.04,-126 L 1164.04,-122 L 1162.03,-122 z
M 1235.53,-126 L 1237.54,-126 L 1237.54,-122 L 1235.53,-122 z
M 1309.03,-126 L 1311.04,-126 L 1311.04,-122 L 1309.03,-122 z
M 1382.53,-126 L 1384.54,-126 L 1384.54,-122 L 1382.53,-122 z
M 1456.03,-126 L 1458.04,-126 L 1458.04,-122 L 1456.03,-122 z
M 1529.53,-126 L 1531.54,-126 L 1531.54,-122 L 1529.53,-122 z
M 1088.53,-118 L 1090.54,-118 L 1090.54,-114 L 1088.53,-114 z
M 1162.03,-118 L 1164.04,-118 L 1164.04,-114 L 1162.03,-114 z
M 1235.53,-118 L 1237.54,-118 L 1237.54,-114 L 1235.53,-114 z
M 1309.03,-118 L 1311.04,-118 L 1311.04,-114 L 1309.03,-114 z
M 1382.53,-118 L 1384.54,-118 L 1384.54,-114 L 1382.53,-114 z
M 1456.03,-118 L 1458.04,-118 L 1458.04,-114 L 1456.03,-114 z
M 1529.53,-118 L 1531.54,-118 L 1531.54,-114 L 1529.53,-114 z
M 1088.53,-110 L 1090.54,-110 L 1090.54,-106 L 1088.53,-106 z
M 1162.03,-110 L 1164.04,-110 L 1164.04,-106 L 1162.03,-106 z
M 1235.53,-110 L 1237.54,-110 L 1237.54,-106 L 1235.53,-106 z
M 1309.03,-110 L 1311.04,-110 L 1311.04,-106 L 1309.03,-106 z
M 1382.53,-110 L 1384.54,-110 L 1384.54,-106 L 1382.53,-106 z
M 1456.03,-110 L 1458.04,-110 L 1458.04,-106 L 1456.03,-106 z
M 1529.53,-110 L 1531.54,-110 L 1531.54,-106 L 1529.53,-106 z
M 1088.53,-102 L 1090.54,-102 L 1090.54,-98 L 1088.53,-98 z
M 1162.03,-102 L 1164.04,-102 L 1164.04,-98 L 1162.03,-98 z
M 1235.53,-102 L 1237.54,-102 L 1237.54,-98 L 1235.53,-98 z
M 1309.03,-102 L 1311.04,-102 L 1311.04,-98 L 1309.03,-98 z
M 1382.53,-102 L 1384.54,-102 L 1384.54,-98 L 1382.53,-98 z
M 1456.03,-102 L 1458.04,-102 L 1458.04,-98 L 1456.03,-98 z
M 1529.53,-102 L 1531.54,-102 L 1531.54,-98 L 1529.53,-98 z
M 1088.53,-94 L 1090.54,-94 L 1090.54,-90 L 1088.53,-90 z
M 1162.03,-94 L 1164.04,-94 L 1164.04,-90 L 1162.03,-90 z
M 1235.53,-94 L 1237.54,-94 L 1237.54,-90 L 1235.53,-90 z
M 1309.03,-94 L 1311.04,-94 L 1311.04,-90 L 1309.03,-90 z
M 1382.53,-94 L 1384.54,-94 L 1384.54,-90 L 1382.53,-90 z
M 1456.03,-94 L 1458.04,-94 L 1458.04,-90 L 1456.03,-90 z
M 1529.53,-94 L 1531.54,-94 L 1531.54,-90 L 1529.53,-90 z
M 1088.53,-86 L 1090.54,-86 L 1090.54,-82 L 1088.53,-82 z
M 1162.03,-86 L 1164.04,-86 L 1164.04,-82 L 1162.03,-82 z
M 1235.53,-86 L 1237.54,-86 L 1237.54,-82 L 1235.53,-82 z
M 1309.03,-86 L 1311.04,-86 L 1311.04,-82 L 1309.03,-82 z
M 1382.53,-86 L 1384.54,-86 L 1384.54,-82 L 1382.53,-82 z
M 1456.03,-86 L 1458.04,-86 L 1458.04,-82 L 1456.03,-82 z
M 1529.53,-86 L 1531.54,-86 L 1531.54,-82 L 1529.53,-82 z
M 1088.53,-78 L 1090.54,-78 L 1090.54,-74 L 1088.53,-74 z
M 1162.03,-78 L 1164.04,-78 L 1164.04,-74 L 1162.03,-74 z
M 1235.53,-78 L 1237.54,-78 L 1237.54,-74 L 1235.53,-74 z
M 1309.03,-78 L 1311.04,-78 L 1311.04,-74 L 1309.03,-74 z
M 1382.53,-78 L 1384.54,-78 L 1384.54,-74 L 1382.53,-74 z
M 1456.03,-78 L 1458.04,-78 L 1458.04,-74 L 1456.03,-74 z
M 1529.53,-78 L 1531.54,-78 L 1531.54,-74 L 1529.53,-74 z
M 1088.53,-70 L 1090.54,-70 L 1090.54,-66 L 1088.53,-66 z
M 1162.03,-70 L 1164.04,-70 L 1164.04,-66 L 1162.03,-66 z
M 1235.53,-70 L 1237.54,-70 L 1237.54,-66 L 1235.53,-66 z
M 1309.03,-70 L 1311.04,-70 L 1311.04,-66 L 1309.03,-66 z
M 1382.53,-70 L 1384.54,-70 L 1384.54,-66 L 1382.53,-66 z
M 1456.03,-70 L 1458.04,-70 L 1458.04,-66 L 1456.03,-66 z
M 1529.53,-70 L 1531.54,-70 L 1531.54,-66 L 1529.53,-66 z
M 1088.53,-62 L 1090.54,-62 L 1090.54,-58 L 1088.53,-58 z
M 1162.03,-62 L 1164.04,-62 L 1164.04,-58 L 1162.03,-58 z
M 1235.53,-62 L 1237.54,-62 L 1237.54,-58 L 1235.53,-58 z
M 1309.03,-62 L 1311.04,-62 L 1311.04,-58 L 1309.03,-58 z
M 1382.53,-62 L 1384.54,-62 L 1384.54,-58 L 1382.53,-58 z
M 1456.03,-62 L 1458.04,-62 L 1458.04,-58 L 1456.03,-58 z
M 1529.53,-62 L 1531.54,-62 L 1531.54,-58 L 1529.53,-58 z
M 1088.53,-54 L 1090.54,-54 L 1090.54,-50 L 1088.53,-50 z
M 1162.03,-54 L 1164.04,-54 L 1164.04,-50 L 1162.03,-50 z
M 1235.53,-54 L 1237.54,-54 L 1237.54,-50 L 1235.53,-50 z
M 1309.03,-54 L 1311.04,-54 L 1311.04,-50 L 1309.03,-50 z
M 1382.53,-54 L 1384.54,-54 L 1384.54,-50 L 1382.53,-50 z
M 1456.03,-54 L 1458.04,-54 L 1458.04,-50 L 1456.03,-50 z
M 1529.53,-54 L 1531.54,-54 L 1531.54,-50 L 1529.53,-50 z
M 1088.53,-46 L 1090.54,-46 L 1090.54,-42 L 1088.53,-42 z
M 1162.03,-46 L 1164.04,-46 L 1164.04,-42 L 1162.03,-42 z
M 1235.53,-46 L 1237.54,-46 L 1237.54,-42 L 1235.53,-42 z
M 1309.03,-46 L 1311.04,-46 L 1311.04,-42 L 1309.03,-42 z
M 1382.53,-46 L 1384.54,-46 L 1384.54,-42 L 1382.53,-42 z
M 1456.03,-46 L 1458.04,-46 L 1458.04,-42 L 1456.03,-42 z
M 1529.53,-46 L 1531.54,-46 L 1531.54,-42 L 1529.53,-42 z
M 1088.53,-38 L 1090.54,-38 L 1090.54,-34 L 1088.53,-34 z
M 1162.03,-38 L 1164.04,-38 L 1164.04,-34 L 1162.03,-34 z
M 1235.53,-38 L 1237.54,-38 L 1237.54,-34 L 1235.53,-34 z
M 1309.03,-38 L 1311.04,-38 L 1311.04,-34 L 1309.03,-34 z
M 1382.53,-38 L 1384.54,-38 L 1384.54,-34 L 1382.53,-34 z
M 1456.03,-38 L 1458.04,-38 L 1458.04,-34 L 1456.03,-34 z
M 1529.53,-38 L 1531.54,-38 L 1531.54,-34 L 1529.53,-34 z
M 1088.53,-30 L 1090.54,-30 L 1090.54,-26 L 1088.53,-26 z
M 1162.03,-30 L 1164.04,-30 L 1164.04,-26 L 1162.03,-26 z
M 1235.53,-30 L 1237.54,-30 L 1237.54,-26 L 1235.53,-26 z
M 1309.03,-30 L 1311.04,-30 L 1311.04,-26 L 1309.03,-26 z
M 1382.53,-30 L 1384.54,-30 L 1384.54,-26 L 1382.53,-26 z
M 1456.03,-30 L 1458.04,-30 L 1458.04,-26 L 1456.03,-26 z
M 1529.53,-30 L 1531.54,-30 L 1531.54,-26 L 1529.53,-26 z
M 1088.53,-22 L 1090.54,-22 L 1090.54,-18 L 1088.53,-18 z
M 1162.03,-22 L 1164.04,-22 L 1164.04,-18 L 1162.03,-18 z
M 1235.53,-22 L 1237.54,-22 L 1237.54,-18 L 1235.53,-18 z
M 1309.03,-22 L 1311.04,-22 L 1311.04,-18 L 1309.03,-18 z
M 1382.53,-22 L 1384.54,-22 L 1384.54,-18 L 1382.53,-18 z
M 1456.03,-22 L 1458.04,-22 L 1458.04,-18 L 1456.03,-18 z
M 1529.53,-22 L 1531.54,-22 L 1531.54,-18 L 1529.53,-18 z
M 1088.53,-14 L 1090.54,-14 L 1090.54,-10 L 1088.53,-10 z
M 1162.03,-14 L 1164.04,-14 L 1164.04,-10 L 1162.03,-10 z
M 1235.53,-14 L 1237.54,-14 L 1237.54,-10 L 1235.53,-10 z
M 1309.03,-14 L 1311.04,-14 L 1311.04,-10 L 1309.03,-10 z
M 1382.53,-14 L 1384.54,-14 L 1384.54,-10 L 1382.53,-10 z
M 1456.03,-14 L 1458.04,-14 L 1458.04,-10 L 1456.03,-10 z
M 1529.53,-14 L 1531.54,-14 L 1531.54,-10 L 1529.53,-10 z
" stroke="#000000" fill="none" stroke-width="0.35"/>
</svg>
