<?xml version="1.0" standalone="no"?>
<!DOCTYPE svg PUBLIC "-//W3C//DTD SVG 1.1//EN" "http://www.w3.org/Graphics/SVG/1.1/DTD/svg11.dtd">
<svg width="312mm" height="244mm" viewBox="37 -271 312 244" xmlns="http://www.w3.org/2000/svg" version="1.1">
<title>OpenSCAD Model</title>
<path d="
M 233.142,-260.282 L 232.882,-260.287 L 232.657,-260.305 L 232.467,-260.333 L 232.311,-260.373 L 232.184,-260.426
 L 232.081,-260.493 L 232.002,-260.574 L 231.946,-260.669 L 231.907,-260.783 L 231.88,-260.919 L 231.863,-261.077
 L 231.858,-261.258 L 231.858,-268.186 L 231.859,-268.469 L 231.864,-268.72 L 231.871,-268.939 L 231.882,-269.126
 L 231.9,-269.292 L 231.929,-269.451 L 231.97,-269.601 L 232.022,-269.742 L 232.089,-269.871 L 232.173,-269.985
 L 232.273,-270.082 L 232.391,-270.163 L 232.53,-270.227 L 232.694,-270.273 L 232.883,-270.301 L 233.096,-270.31
 L 233.368,-270.288 L 233.563,-270.223 L 233.679,-270.114 L 233.718,-269.962 L 233.715,-269.916 L 233.706,-269.866
 L 233.691,-269.81 L 233.669,-269.748 L 233.653,-269.691 L 233.641,-269.634 L 233.635,-269.578 L 233.632,-269.522
 L 233.639,-269.435 L 233.658,-269.351 L 233.691,-269.269 L 233.736,-269.19 L 233.793,-269.116 L 233.859,-269.049
 L 233.935,-268.991 L 234.02,-268.94 L 234.112,-268.898 L 234.21,-268.869 L 234.312,-268.851 L 234.42,-268.845
 L 234.605,-268.861 L 234.768,-268.911 L 234.911,-268.993 L 235.033,-269.108 L 235.131,-269.243 L 235.2,-269.387
 L 235.242,-269.54 L 235.256,-269.7 L 235.24,-269.895 L 235.19,-270.075 L 235.108,-270.242 L 234.994,-270.394
 L 234.85,-270.53 L 234.681,-270.649 L 234.487,-270.75 L 234.267,-270.834 L 234.027,-270.899 L 233.77,-270.946
 L 233.496,-270.974 L 233.206,-270.984 L 233.015,-270.978 L 232.807,-270.959 L 232.583,-270.929 L 232.343,-270.886
 L 232.091,-270.823 L 231.834,-270.73 L 231.571,-270.607 L 231.302,-270.456 L 231.045,-270.273 L 230.817,-270.057
 L 230.618,-269.807 L 230.448,-269.525 L 230.348,-269.317 L 230.269,-269.114 L 230.21,-268.917 L 230.17,-268.725
 L 230.145,-268.518 L 230.127,-268.275 L 230.116,-267.996 L 230.112,-267.681 L 230.112,-261.258 L 230.107,-261.088
 L 230.091,-260.936 L 230.064,-260.804 L 230.027,-260.691 L 229.972,-260.594 L 229.894,-260.51 L 229.793,-260.439
 L 229.668,-260.382 L 229.516,-260.338 L 229.332,-260.307 L 229.116,-260.288 L 228.868,-260.282 L 228.868,-259.72
 L 233.142,-259.72 z
M 98.1868,-259.594 L 98.6287,-259.659 L 99.0519,-259.765 L 99.4564,-259.915 L 99.8378,-260.102 L 100.192,-260.321
 L 100.518,-260.572 L 100.817,-260.855 L 101.086,-261.166 L 101.322,-261.501 L 101.526,-261.859 L 101.696,-262.241
 L 101.831,-262.639 L 101.927,-263.048 L 101.985,-263.467 L 102.004,-263.895 L 101.969,-264.49 L 101.862,-265.054
 L 101.685,-265.587 L 101.437,-266.09 L 101.129,-266.549 L 100.772,-266.956 L 100.367,-267.308 L 99.9141,-267.607
 L 99.4265,-267.844 L 98.9186,-268.014 L 98.3905,-268.116 L 97.8422,-268.15 L 97.3589,-268.128 L 96.9283,-268.063
 L 96.5503,-267.954 L 96.2249,-267.802 L 95.9343,-267.62 L 95.6604,-267.421 L 95.4033,-267.205 L 95.163,-266.972
 L 95.0268,-267.187 L 94.9112,-267.415 L 94.8162,-267.658 L 94.7417,-267.914 L 94.1679,-267.914 L 94.1679,-264.786
 L 94.754,-264.786 L 94.8341,-265.089 L 94.9463,-265.393 L 95.0905,-265.698 L 95.2668,-266.004 L 95.4726,-266.298
 L 95.7056,-266.565 L 95.9656,-266.806 L 96.2527,-267.021 L 96.5627,-267.197 L 96.8914,-267.323 L 97.2389,-267.399
 L 97.605,-267.424 L 97.779,-267.415 L 97.959,-267.39 L 98.1453,-267.347 L 98.3376,-267.287 L 98.5327,-267.203
 L 98.7275,-267.088 L 98.922,-266.942 L 99.116,-266.765 L 99.302,-266.55 L 99.4724,-266.288 L 99.6272,-265.981
 L 99.7662,-265.627 L 99.8811,-265.226 L 99.9631,-264.778 L 100.012,-264.282 L 100.029,-263.738 L 100.009,-263.179
 L 99.9501,-262.668 L 99.8519,-262.206 L 99.7143,-261.791 L 99.542,-261.426 L 99.3396,-261.11 L 99.107,-260.844
 L 98.8443,-260.629 L 98.5577,-260.462 L 98.2536,-260.342 L 97.932,-260.271 L 97.5927,-260.247 L 97.2847,-260.267
 L 96.9831,-260.327 L 96.688,-260.427 L 96.3993,-260.567 L 96.1236,-260.745 L 95.8674,-260.958 L 95.6306,-261.206
 L 95.4133,-261.49 L 95.2218,-261.803 L 95.0623,-262.136 L 94.9348,-262.491 L 94.8395,-262.868 L 94.2534,-262.868
 L 94.351,-259.821 L 94.9005,-259.821 L 94.965,-260.058 L 95.0302,-260.264 L 95.0962,-260.441 L 95.163,-260.588
 L 95.7031,-260.144 L 96.3104,-259.827 L 96.9847,-259.637 L 97.7262,-259.573 z
M 174.545,-259.608 L 175.087,-259.714 L 175.607,-259.891 L 176.103,-260.138 L 176.563,-260.446 L 176.973,-260.808
 L 177.332,-261.222 L 177.641,-261.688 L 177.889,-262.194 L 178.066,-262.727 L 178.173,-263.286 L 178.208,-263.871
 L 178.178,-264.389 L 178.088,-264.901 L 177.939,-265.405 L 177.729,-265.903 L 177.46,-266.375 L 177.13,-266.802
 L 176.741,-267.184 L 176.292,-267.521 L 175.789,-267.796 L 175.238,-267.993 L 174.639,-268.11 L 173.992,-268.15
 L 173.747,-268.146 L 173.519,-268.134 L 173.308,-268.114 L 173.113,-268.086 L 172.904,-268.047 L 172.648,-267.996
 L 172.346,-267.933 L 171.997,-267.857 L 171.49,-267.756 L 171.002,-267.683 L 170.532,-267.64 L 170.081,-267.625
 L 170.081,-265.684 L 170.077,-265.501 L 170.064,-265.344 L 170.043,-265.213 L 170.013,-265.107 L 169.973,-265.02
 L 169.918,-264.948 L 169.848,-264.889 L 169.765,-264.844 L 169.664,-264.808 L 169.54,-264.778 L 169.395,-264.752
 L 169.228,-264.731 L 169.228,-264.17 L 172.915,-264.17 L 172.915,-264.731 L 172.687,-264.737 L 172.491,-264.754
 L 172.327,-264.783 L 172.194,-264.823 L 172.087,-264.875 L 172.002,-264.94 L 171.938,-265.019 L 171.896,-265.11
 L 171.868,-265.222 L 171.848,-265.363 L 171.836,-265.533 L 171.832,-265.733 L 171.84,-265.953 L 171.863,-266.163
 L 171.902,-266.362 L 171.957,-266.551 L 172.038,-266.727 L 172.155,-266.889 L 172.308,-267.037 L 172.497,-267.171
 L 172.729,-267.281 L 173.01,-267.361 L 173.339,-267.408 L 173.718,-267.424 L 174.202,-267.388 L 174.627,-267.281
 L 174.995,-267.101 L 175.305,-266.85 L 175.562,-266.549 L 175.772,-266.22 L 175.934,-265.862 L 176.049,-265.476
 L 176.13,-265.072 L 176.187,-264.66 L 176.221,-264.239 L 176.232,-263.81 L 176.218,-263.323 L 176.174,-262.877
 L 176.1,-262.472 L 175.998,-262.106 L 175.87,-261.78 L 175.724,-261.489 L 175.559,-261.235 L 175.375,-261.017
 L 175.178,-260.832 L 174.973,-260.676 L 174.761,-260.551 L 174.542,-260.455 L 174.318,-260.384 L 174.092,-260.334
 L 173.863,-260.303 L 173.633,-260.293 L 173.322,-260.312 L 173.025,-260.368 L 172.741,-260.461 L 172.47,-260.592
 L 172.217,-260.755 L 171.986,-260.945 L 171.776,-261.161 L 171.588,-261.404 L 171.425,-261.667 L 171.291,-261.943
 L 171.184,-262.232 L 171.106,-262.534 L 170.544,-262.534 L 170.606,-259.821 L 171.197,-259.821 L 171.243,-260.038
 L 171.296,-260.231 L 171.356,-260.4 L 171.423,-260.543 L 172.015,-260.119 L 172.639,-259.816 L 173.294,-259.634
 L 173.98,-259.573 z
M 326.743,-259.611 L 327.392,-259.723 L 327.99,-259.911 L 328.538,-260.174 L 329.027,-260.499 L 329.45,-260.871
 L 329.808,-261.291 L 330.1,-261.759 L 330.327,-262.258 L 330.489,-262.772 L 330.586,-263.301 L 330.619,-263.846
 L 330.602,-264.227 L 330.551,-264.608 L 330.466,-264.987 L 330.347,-265.366 L 330.193,-265.737 L 330.002,-266.093
 L 329.775,-266.433 L 329.511,-266.758 L 329.209,-267.059 L 328.865,-267.329 L 328.481,-267.566 L 328.056,-267.771
 L 327.593,-267.937 L 327.095,-268.055 L 326.561,-268.126 L 325.993,-268.15 L 325.3,-268.113 L 324.654,-268.001
 L 324.057,-267.815 L 323.506,-267.555 L 323.012,-267.233 L 322.583,-266.862 L 322.218,-266.442 L 321.917,-265.974
 L 321.682,-265.472 L 321.514,-264.952 L 321.413,-264.414 L 321.38,-263.858 L 321.394,-263.527 L 321.435,-263.188
 L 321.505,-262.839 L 321.603,-262.482 L 321.732,-262.124 L 321.899,-261.775 L 322.103,-261.433 L 322.344,-261.099
 L 322.629,-260.784 L 322.965,-260.496 L 323.352,-260.237 L 323.79,-260.007 L 324.279,-259.817 L 324.817,-259.681
 L 325.405,-259.6 L 326.042,-259.573 z
M 325.627,-260.312 L 325.291,-260.367 L 324.986,-260.46 L 324.711,-260.589 L 324.465,-260.75 L 324.247,-260.937
 L 324.056,-261.15 L 323.893,-261.389 L 323.754,-261.648 L 323.639,-261.922 L 323.545,-262.212 L 323.475,-262.515
 L 323.422,-262.831 L 323.385,-263.157 L 323.363,-263.491 L 323.355,-263.834 L 323.359,-264.082 L 323.371,-264.336
 L 323.392,-264.598 L 323.42,-264.866 L 323.463,-265.141 L 323.531,-265.422 L 323.622,-265.71 L 323.737,-266.005
 L 323.882,-266.291 L 324.065,-266.554 L 324.285,-266.794 L 324.543,-267.012 L 324.84,-267.192 L 325.179,-267.321
 L 325.559,-267.398 L 325.981,-267.424 L 326.406,-267.399 L 326.79,-267.324 L 327.133,-267.199 L 327.434,-267.024
 L 327.696,-266.813 L 327.92,-266.578 L 328.105,-266.321 L 328.252,-266.041 L 328.369,-265.751 L 328.461,-265.465
 L 328.531,-265.182 L 328.576,-264.903 L 328.605,-264.627 L 328.626,-264.358 L 328.639,-264.093 L 328.643,-263.834
 L 328.63,-263.379 L 328.59,-262.942 L 328.525,-262.523 L 328.433,-262.122 L 328.304,-261.746 L 328.127,-261.403
 L 327.904,-261.093 L 327.633,-260.815 L 327.309,-260.587 L 326.928,-260.424 L 326.489,-260.326 L 325.993,-260.293
 z
M 305.533,-260.284 L 305.277,-260.293 L 305.057,-260.318 L 304.875,-260.36 L 304.729,-260.419 L 304.614,-260.493
 L 304.523,-260.581 L 304.455,-260.684 L 304.411,-260.8 L 304.383,-260.937 L 304.363,-261.102 L 304.351,-261.293
 L 304.347,-261.511 L 304.347,-265.29 L 309.061,-259.723 L 311.471,-259.723 L 311.471,-260.284 L 311.275,-260.311
 L 311.102,-260.346 L 310.951,-260.391 L 310.822,-260.446 L 310.713,-260.51 L 310.621,-260.584 L 310.544,-260.666
 L 310.484,-260.758 L 310.437,-260.858 L 310.4,-260.966 L 310.372,-261.082 L 310.353,-261.206 L 310.341,-261.35
 L 310.333,-261.527 L 310.328,-261.735 L 310.326,-261.975 L 310.326,-266.199 L 310.329,-266.441 L 310.34,-266.647
 L 310.358,-266.818 L 310.384,-266.953 L 310.424,-267.064 L 310.489,-267.161 L 310.577,-267.244 L 310.688,-267.313
 L 310.831,-267.368 L 311.011,-267.407 L 311.228,-267.431 L 311.484,-267.438 L 311.484,-268 L 308.408,-268
 L 308.408,-267.438 L 308.68,-267.431 L 308.913,-267.407 L 309.104,-267.368 L 309.256,-267.313 L 309.375,-267.244
 L 309.469,-267.161 L 309.538,-267.064 L 309.582,-266.953 L 309.61,-266.818 L 309.63,-266.647 L 309.642,-266.441
 L 309.646,-266.199 L 309.646,-261.64 L 304.231,-268.072 L 303.667,-268.072 L 303.667,-261.511 L 303.663,-261.267
 L 303.652,-261.06 L 303.633,-260.889 L 303.607,-260.754 L 303.564,-260.645 L 303.497,-260.551 L 303.406,-260.47
 L 303.291,-260.403 L 303.142,-260.351 L 302.952,-260.314 L 302.72,-260.292 L 302.446,-260.284 L 302.446,-259.723
 L 305.533,-259.723 z
M 287.964,-265.564 L 290.708,-259.723 L 293.735,-259.723 L 293.735,-260.284 L 293.464,-260.292 L 293.235,-260.314
 L 293.049,-260.351 L 292.905,-260.403 L 292.793,-260.47 L 292.706,-260.551 L 292.643,-260.646 L 292.603,-260.754
 L 292.579,-260.889 L 292.562,-261.06 L 292.552,-261.267 L 292.549,-261.511 L 292.549,-266.199 L 292.55,-266.383
 L 292.555,-266.543 L 292.562,-266.681 L 292.573,-266.794 L 292.591,-266.893 L 292.619,-266.984 L 292.657,-267.069
 L 292.707,-267.145 L 292.77,-267.214 L 292.849,-267.274 L 292.945,-267.324 L 293.057,-267.365 L 293.189,-267.397
 L 293.347,-267.42 L 293.529,-267.434 L 293.735,-267.438 L 293.735,-268 L 290.671,-268 L 290.671,-267.438
 L 290.876,-267.434 L 291.057,-267.421 L 291.215,-267.399 L 291.349,-267.368 L 291.463,-267.328 L 291.561,-267.279
 L 291.642,-267.22 L 291.707,-267.151 L 291.758,-267.074 L 291.798,-266.99 L 291.828,-266.897 L 291.847,-266.798
 L 291.859,-266.682 L 291.868,-266.544 L 291.873,-266.383 L 291.875,-266.199 L 291.875,-261.273 L 288.708,-268
 L 288.336,-268 L 285.21,-261.273 L 285.21,-266.462 L 285.215,-266.629 L 285.23,-266.778 L 285.253,-266.909
 L 285.287,-267.02 L 285.336,-267.116 L 285.407,-267.2 L 285.499,-267.272 L 285.614,-267.332 L 285.757,-267.378
 L 285.936,-267.412 L 286.152,-267.432 L 286.403,-267.438 L 286.403,-268 L 282.25,-268 L 282.25,-267.438
 L 282.499,-267.431 L 282.715,-267.41 L 282.897,-267.375 L 283.047,-267.325 L 283.168,-267.263 L 283.265,-267.189
 L 283.337,-267.103 L 283.386,-267.005 L 283.418,-266.893 L 283.441,-266.765 L 283.455,-266.622 L 283.459,-266.462
 L 283.459,-261.261 L 283.445,-261.015 L 283.404,-260.807 L 283.334,-260.638 L 283.236,-260.507 L 283.091,-260.41
 L 282.878,-260.34 L 282.598,-260.298 L 282.25,-260.284 L 282.25,-259.723 L 285.21,-259.723 z
M 249.472,-260.284 L 249.106,-260.311 L 248.845,-260.393 L 248.688,-260.531 L 248.636,-260.723 L 248.644,-260.824
 L 248.666,-260.921 L 248.705,-261.012 L 248.758,-261.099 L 248.828,-261.186 L 248.917,-261.282 L 249.024,-261.386
 L 249.149,-261.498 L 251.724,-263.751 L 251.724,-261.26 L 251.711,-261.012 L 251.67,-260.802 L 251.601,-260.633
 L 251.505,-260.503 L 251.362,-260.407 L 251.151,-260.339 L 250.873,-260.297 L 250.526,-260.284 L 250.526,-259.723
 L 254.662,-259.723 L 254.662,-260.284 L 254.413,-260.291 L 254.198,-260.312 L 254.017,-260.347 L 253.87,-260.397
 L 253.752,-260.458 L 253.658,-260.531 L 253.587,-260.614 L 253.54,-260.708 L 253.509,-260.817 L 253.487,-260.945
 L 253.474,-261.093 L 253.47,-261.26 L 253.47,-266.462 L 253.474,-266.629 L 253.489,-266.778 L 253.513,-266.907
 L 253.546,-267.017 L 253.595,-267.112 L 253.667,-267.196 L 253.761,-267.268 L 253.876,-267.329 L 254.021,-267.377
 L 254.2,-267.411 L 254.413,-267.432 L 254.662,-267.438 L 254.662,-268 L 250.526,-268 L 250.526,-267.438
 L 250.848,-267.425 L 251.113,-267.384 L 251.322,-267.316 L 251.475,-267.222 L 251.584,-267.093 L 251.662,-266.923
 L 251.709,-266.713 L 251.724,-266.462 L 251.724,-264.673 L 250.678,-263.751 L 248.899,-266.26 L 248.68,-266.581
 L 248.523,-266.84 L 248.429,-267.039 L 248.398,-267.176 L 248.409,-267.244 L 248.442,-267.3 L 248.496,-267.346
 L 248.573,-267.38 L 248.679,-267.406 L 248.823,-267.424 L 249.005,-267.435 L 249.225,-267.438 L 249.599,-267.438
 L 249.599,-268 L 245.002,-268 L 245.002,-267.438 L 245.226,-267.423 L 245.426,-267.394 L 245.604,-267.353
 L 245.759,-267.298 L 245.9,-267.228 L 246.036,-267.138 L 246.168,-267.031 L 246.295,-266.904 L 246.429,-266.751
 L 246.58,-266.562 L 246.749,-266.337 L 246.935,-266.077 L 249.375,-262.597 L 248.508,-261.846 L 248.194,-261.574
 L 247.926,-261.344 L 247.703,-261.156 L 247.525,-261.01 L 247.372,-260.891 L 247.226,-260.784 L 247.085,-260.69
 L 246.951,-260.607 L 246.819,-260.536 L 246.685,-260.476 L 246.549,-260.426 L 246.411,-260.387 L 246.262,-260.356
 L 246.093,-260.328 L 245.903,-260.304 L 245.694,-260.284 L 245.694,-259.723 L 249.472,-259.723 z
M 214.108,-260.284 L 213.752,-260.298 L 213.466,-260.339 L 213.25,-260.408 L 213.104,-260.504 L 213.006,-260.634
 L 212.936,-260.803 L 212.895,-261.012 L 212.881,-261.261 L 212.881,-266.462 L 212.886,-266.637 L 212.901,-266.791
 L 212.927,-266.924 L 212.963,-267.035 L 213.016,-267.13 L 213.092,-267.212 L 213.191,-267.281 L 213.314,-267.338
 L 213.464,-267.382 L 213.647,-267.413 L 213.861,-267.432 L 214.108,-267.438 L 214.108,-268 L 209.909,-268
 L 209.909,-267.438 L 210.165,-267.432 L 210.385,-267.411 L 210.57,-267.377 L 210.717,-267.329 L 210.836,-267.268
 L 210.932,-267.196 L 211.005,-267.112 L 211.056,-267.017 L 211.091,-266.907 L 211.116,-266.778 L 211.13,-266.629
 L 211.135,-266.462 L 211.135,-261.261 L 211.13,-261.086 L 211.115,-260.932 L 211.089,-260.8 L 211.053,-260.69
 L 211,-260.597 L 210.924,-260.516 L 210.825,-260.446 L 210.702,-260.388 L 210.552,-260.343 L 210.369,-260.31
 L 210.155,-260.291 L 209.909,-260.284 L 209.909,-259.723 L 214.108,-259.723 z
M 139.802,-260.286 L 139.548,-260.293 L 139.33,-260.314 L 139.147,-260.35 L 139,-260.399 L 138.882,-260.461
 L 138.788,-260.533 L 138.718,-260.616 L 138.671,-260.71 L 138.64,-260.819 L 138.618,-260.947 L 138.605,-261.095
 L 138.601,-261.262 L 138.601,-266.461 L 138.615,-266.709 L 138.656,-266.918 L 138.724,-267.087 L 138.82,-267.217
 L 138.964,-267.313 L 139.175,-267.382 L 139.455,-267.423 L 139.802,-267.437 L 139.802,-268 L 132.43,-268
 L 132.362,-265.277 L 132.936,-265.277 L 133.023,-265.718 L 133.138,-266.097 L 133.28,-266.412 L 133.449,-266.665
 L 133.633,-266.865 L 133.819,-267.023 L 134.007,-267.139 L 134.197,-267.214 L 134.39,-267.26 L 134.588,-267.294
 L 134.792,-267.314 L 135,-267.32 L 135.665,-267.32 L 135.875,-267.316 L 136.06,-267.304 L 136.219,-267.283
 L 136.352,-267.253 L 136.464,-267.214 L 136.56,-267.165 L 136.638,-267.106 L 136.7,-267.037 L 136.748,-266.957
 L 136.786,-266.868 L 136.814,-266.77 L 136.831,-266.662 L 136.842,-266.532 L 136.85,-266.37 L 136.854,-266.176
 L 136.856,-265.948 L 136.856,-264.003 L 136.001,-264.003 L 135.798,-264.007 L 135.623,-264.021 L 135.476,-264.044
 L 135.357,-264.076 L 135.258,-264.121 L 135.174,-264.185 L 135.104,-264.266 L 135.048,-264.366 L 135.004,-264.489
 L 134.969,-264.642 L 134.943,-264.826 L 134.926,-265.039 L 134.364,-265.039 L 134.364,-262.286 L 134.951,-262.286
 L 134.969,-262.5 L 134.995,-262.683 L 135.027,-262.835 L 135.067,-262.957 L 135.117,-263.055 L 135.184,-263.136
 L 135.267,-263.2 L 135.366,-263.247 L 135.486,-263.28 L 135.634,-263.304 L 135.81,-263.318 L 136.013,-263.323
 L 136.856,-263.323 L 136.856,-260.403 L 135.305,-260.403 L 135.016,-260.407 L 134.765,-260.42 L 134.553,-260.442
 L 134.38,-260.473 L 134.23,-260.523 L 134.087,-260.602 L 133.952,-260.712 L 133.824,-260.851 L 133.704,-261.03
 L 133.592,-261.26 L 133.486,-261.54 L 133.388,-261.872 L 132.826,-261.872 L 132.936,-259.723 L 139.802,-259.723
 z
M 79.2017,-259.612 L 79.3632,-259.614 L 79.5633,-259.617 L 79.8019,-259.621 L 80.0775,-259.626 L 80.3887,-259.632
 L 80.7353,-259.64 L 81.1173,-259.648 L 81.5225,-259.657 L 81.9383,-259.666 L 82.3647,-259.676 L 82.8019,-259.685
 L 82.8019,-260.259 L 82.4649,-260.272 L 82.1919,-260.312 L 81.983,-260.379 L 81.8381,-260.472 L 81.7394,-260.6
 L 81.6689,-260.77 L 81.6265,-260.982 L 81.6124,-261.235 L 81.6124,-266.46 L 81.6172,-266.628 L 81.6315,-266.776
 L 81.6553,-266.905 L 81.6887,-267.015 L 81.7378,-267.11 L 81.8091,-267.194 L 81.9025,-267.266 L 82.0181,-267.327
 L 82.162,-267.375 L 82.3406,-267.409 L 82.5539,-267.43 L 82.8019,-267.437 L 82.8019,-268 L 78.6528,-268
 L 78.4095,-267.995 L 78.1617,-267.982 L 77.9093,-267.959 L 77.6522,-267.927 L 77.3914,-267.88 L 77.1275,-267.814
 L 76.8606,-267.729 L 76.5906,-267.624 L 76.3309,-267.497 L 76.0948,-267.342 L 75.8824,-267.161 L 75.6937,-266.953
 L 75.5388,-266.715 L 75.4283,-266.446 L 75.3619,-266.146 L 75.3398,-265.814 L 75.3569,-265.531 L 75.4084,-265.262
 L 75.4941,-265.008 L 75.6141,-264.769 L 75.7675,-264.547 L 75.9532,-264.345 L 76.1713,-264.164 L 76.4219,-264.003
 L 76.7002,-263.862 L 77.0018,-263.744 L 77.3266,-263.647 L 77.6747,-263.572 L 77.1837,-263.409 L 76.7668,-263.226
 L 76.4239,-263.022 L 76.155,-262.797 L 75.9521,-262.551 L 75.8071,-262.281 L 75.7201,-261.989 L 75.6911,-261.674
 L 75.7268,-261.263 L 75.8338,-260.904 L 76.0122,-260.595 L 76.2618,-260.338 L 76.5548,-260.127 L 76.863,-259.957
 L 77.1865,-259.829 L 77.5253,-259.743 L 77.868,-259.685 L 78.2035,-259.644 L 78.5318,-259.62 L 78.8528,-259.611
 L 79.0787,-259.611 z
M 78.8782,-263.933 L 78.5038,-263.963 L 78.174,-264.05 L 77.8888,-264.196 L 77.6483,-264.4 L 77.4573,-264.657
 L 77.3209,-264.961 L 77.2391,-265.312 L 77.2118,-265.709 L 77.2429,-266.102 L 77.3362,-266.437 L 77.4916,-266.715
 L 77.7093,-266.936 L 77.9666,-267.104 L 78.2411,-267.224 L 78.5328,-267.296 L 78.8416,-267.32 L 79.0637,-267.312
 L 79.2537,-267.286 L 79.4117,-267.243 L 79.5376,-267.183 L 79.6371,-267.107 L 79.7161,-267.017 L 79.7745,-266.912
 L 79.8123,-266.792 L 79.8363,-266.653 L 79.8534,-266.49 L 79.8637,-266.301 L 79.8671,-266.088 L 79.8671,-263.933
 z
M 79.2259,-260.296 L 78.9471,-260.307 L 78.6908,-260.341 L 78.457,-260.397 L 78.2457,-260.476 L 78.0579,-260.575
 L 77.8945,-260.691 L 77.7556,-260.825 L 77.6411,-260.976 L 77.5516,-261.143 L 77.4876,-261.323 L 77.4492,-261.516
 L 77.4364,-261.723 L 77.466,-262.058 L 77.5548,-262.357 L 77.7027,-262.619 L 77.9098,-262.845 L 78.1784,-263.026
 L 78.5106,-263.156 L 78.9066,-263.234 L 79.3664,-263.26 L 79.8671,-263.26 L 79.8671,-260.296 z
M 62.6886,-265.815 L 62.8117,-266.123 L 62.9305,-266.394 L 63.0452,-266.628 L 63.1557,-266.825 L 63.2654,-266.989
 L 63.3777,-267.125 L 63.4928,-267.232 L 63.6105,-267.31 L 63.7361,-267.366 L 63.8746,-267.406 L 64.0261,-267.43
 L 64.1905,-267.438 L 64.1905,-268 L 61.3393,-268 L 61.3393,-267.438 L 61.5226,-267.432 L 61.6941,-267.414
 L 61.8538,-267.383 L 62.0017,-267.341 L 62.1259,-267.275 L 62.2146,-267.176 L 62.2678,-267.043 L 62.2856,-266.876
 L 62.2749,-266.76 L 62.2428,-266.612 L 62.1894,-266.433 L 62.1146,-266.222 L 61.9131,-265.684 L 59.2271,-265.684
 L 58.8366,-266.662 L 58.8045,-266.757 L 58.7816,-266.85 L 58.7679,-266.943 L 58.7633,-267.035 L 58.7774,-267.154
 L 58.8198,-267.25 L 58.8903,-267.321 L 58.9891,-267.368 L 59.1188,-267.399 L 59.282,-267.421 L 59.4788,-267.434
 L 59.7092,-267.438 L 59.7092,-268 L 55.8097,-268 L 55.8097,-267.438 L 56.0027,-267.43 L 56.1728,-267.406
 L 56.32,-267.365 L 56.4444,-267.307 L 56.5512,-267.235 L 56.6458,-267.148 L 56.7282,-267.048 L 56.7983,-266.935
 L 56.8715,-266.787 L 56.9631,-266.583 L 57.0729,-266.324 L 57.2011,-266.01 L 59.7214,-259.564 L 60.3014,-259.564
 z
M 59.4468,-265.085 L 61.6751,-265.085 L 60.5883,-262.2 z
M 192.241,-260.284 L 191.996,-260.291 L 191.786,-260.313 L 191.609,-260.349 L 191.467,-260.4 L 191.354,-260.463
 L 191.263,-260.536 L 191.195,-260.62 L 191.151,-260.714 L 191.121,-260.823 L 191.1,-260.95 L 191.088,-261.096
 L 191.083,-261.261 L 191.083,-263.3 L 194.925,-263.3 L 194.925,-261.261 L 194.912,-261.017 L 194.871,-260.81
 L 194.803,-260.641 L 194.708,-260.509 L 194.566,-260.411 L 194.356,-260.34 L 194.078,-260.298 L 193.733,-260.284
 L 193.733,-259.723 L 197.834,-259.723 L 197.834,-260.284 L 197.592,-260.291 L 197.383,-260.313 L 197.208,-260.349
 L 197.067,-260.4 L 196.953,-260.463 L 196.861,-260.536 L 196.791,-260.62 L 196.744,-260.714 L 196.712,-260.822
 L 196.689,-260.95 L 196.675,-261.096 L 196.671,-261.26 L 196.671,-266.462 L 196.675,-266.627 L 196.69,-266.774
 L 196.714,-266.903 L 196.747,-267.014 L 196.796,-267.11 L 196.869,-267.195 L 196.964,-267.268 L 197.082,-267.329
 L 197.226,-267.377 L 197.399,-267.411 L 197.602,-267.432 L 197.834,-267.438 L 197.834,-268 L 193.733,-268
 L 193.733,-267.438 L 194.081,-267.424 L 194.36,-267.38 L 194.57,-267.308 L 194.711,-267.207 L 194.805,-267.073
 L 194.872,-266.905 L 194.912,-266.701 L 194.925,-266.462 L 194.925,-263.98 L 191.083,-263.98 L 191.083,-266.462
 L 191.088,-266.625 L 191.102,-266.77 L 191.125,-266.899 L 191.157,-267.011 L 191.205,-267.109 L 191.275,-267.194
 L 191.369,-267.268 L 191.486,-267.329 L 191.629,-267.377 L 191.803,-267.411 L 192.007,-267.432 L 192.241,-267.438
 L 192.241,-268 L 188.169,-268 L 188.169,-267.438 L 188.413,-267.431 L 188.624,-267.408 L 188.802,-267.37
 L 188.947,-267.316 L 189.063,-267.25 L 189.156,-267.175 L 189.224,-267.09 L 189.268,-266.996 L 189.296,-266.888
 L 189.316,-266.763 L 189.328,-266.621 L 189.332,-266.462 L 189.332,-261.26 L 189.328,-261.096 L 189.315,-260.95
 L 189.293,-260.822 L 189.262,-260.714 L 189.216,-260.62 L 189.147,-260.536 L 189.055,-260.463 L 188.941,-260.4
 L 188.798,-260.349 L 188.622,-260.313 L 188.412,-260.291 L 188.169,-260.284 L 188.169,-259.723 L 192.241,-259.723
 z
M 158.414,-260.286 L 158.168,-260.293 L 157.955,-260.314 L 157.775,-260.35 L 157.629,-260.399 L 157.51,-260.461
 L 157.415,-260.533 L 157.344,-260.617 L 157.295,-260.71 L 157.263,-260.819 L 157.24,-260.948 L 157.227,-261.095
 L 157.222,-261.263 L 157.222,-266.462 L 157.236,-266.708 L 157.276,-266.916 L 157.344,-267.085 L 157.439,-267.216
 L 157.582,-267.313 L 157.792,-267.383 L 158.069,-267.424 L 158.414,-267.438 L 158.414,-268 L 154.164,-268
 L 154.164,-267.438 L 154.335,-267.438 L 154.673,-267.424 L 154.943,-267.379 L 155.145,-267.305 L 155.278,-267.2
 L 155.365,-267.065 L 155.427,-266.897 L 155.464,-266.696 L 155.477,-266.462 L 155.477,-264.003 L 154.726,-264.003
 L 154.54,-264.008 L 154.379,-264.022 L 154.242,-264.047 L 154.131,-264.082 L 154.039,-264.129 L 153.961,-264.193
 L 153.898,-264.273 L 153.85,-264.368 L 153.812,-264.489 L 153.78,-264.643 L 153.755,-264.83 L 153.737,-265.051
 L 153.164,-265.051 L 153.164,-262.298 L 153.725,-262.298 L 153.753,-262.592 L 153.801,-262.83 L 153.869,-263.011
 L 153.957,-263.134 L 154.077,-263.216 L 154.241,-263.276 L 154.449,-263.311 L 154.702,-263.323 L 155.477,-263.323
 L 155.477,-260.403 L 154,-260.403 L 153.735,-260.407 L 153.5,-260.421 L 153.297,-260.444 L 153.124,-260.476
 L 152.971,-260.528 L 152.825,-260.61 L 152.687,-260.722 L 152.557,-260.866 L 152.436,-261.047 L 152.329,-261.275
 L 152.234,-261.55 L 152.151,-261.871 L 151.577,-261.871 L 151.638,-259.723 L 158.414,-259.723 z
M 272.738,-260.284 L 272.491,-260.291 L 272.277,-260.312 L 272.096,-260.346 L 271.947,-260.394 L 271.826,-260.455
 L 271.729,-260.526 L 271.656,-260.609 L 271.607,-260.703 L 271.575,-260.812 L 271.552,-260.941 L 271.539,-261.091
 L 271.534,-261.261 L 271.534,-266.46 L 271.548,-266.709 L 271.589,-266.918 L 271.658,-267.087 L 271.754,-267.217
 L 271.898,-267.313 L 272.11,-267.382 L 272.39,-267.423 L 272.738,-267.437 L 272.738,-268 L 265.363,-268
 L 265.308,-265.233 L 265.87,-265.233 L 265.946,-265.679 L 266.064,-266.062 L 266.225,-266.385 L 266.428,-266.646
 L 266.658,-266.854 L 266.897,-267.018 L 267.146,-267.138 L 267.405,-267.214 L 267.68,-267.26 L 267.977,-267.294
 L 268.295,-267.314 L 268.635,-267.32 L 268.893,-267.313 L 269.113,-267.289 L 269.293,-267.25 L 269.435,-267.195
 L 269.545,-267.125 L 269.632,-267.04 L 269.695,-266.941 L 269.734,-266.826 L 269.758,-266.684 L 269.775,-266.503
 L 269.785,-266.281 L 269.789,-266.021 L 269.789,-261.261 L 269.784,-261.086 L 269.768,-260.932 L 269.742,-260.8
 L 269.706,-260.69 L 269.654,-260.597 L 269.578,-260.516 L 269.48,-260.446 L 269.358,-260.388 L 269.21,-260.343
 L 269.029,-260.31 L 268.817,-260.291 L 268.573,-260.284 L 268.573,-259.723 L 272.738,-259.723 z
M 118.317,-259.624 L 118.472,-259.627 L 118.695,-259.631 L 118.988,-259.636 L 119.279,-259.641 L 119.5,-259.645
 L 119.651,-259.647 L 119.732,-259.648 L 121.508,-259.685 L 121.508,-260.259 L 121.149,-260.272 L 120.862,-260.314
 L 120.646,-260.382 L 120.501,-260.478 L 120.404,-260.608 L 120.336,-260.777 L 120.295,-260.987 L 120.281,-261.235
 L 120.281,-266.46 L 120.286,-266.636 L 120.301,-266.79 L 120.327,-266.922 L 120.363,-267.034 L 120.416,-267.128
 L 120.492,-267.21 L 120.592,-267.279 L 120.714,-267.336 L 120.865,-267.38 L 121.047,-267.412 L 121.261,-267.43
 L 121.508,-267.437 L 121.508,-268 L 117.731,-268 L 116.924,-267.968 L 116.182,-267.872 L 115.505,-267.712
 L 114.893,-267.487 L 114.623,-267.35 L 114.361,-267.183 L 114.107,-266.987 L 113.862,-266.761 L 113.632,-266.504
 L 113.424,-266.218 L 113.238,-265.902 L 113.075,-265.555 L 112.941,-265.182 L 112.846,-264.788 L 112.789,-264.372
 L 112.77,-263.934 L 112.78,-263.614 L 112.812,-263.301 L 112.866,-262.994 L 112.941,-262.695 L 113.035,-262.404
 L 113.147,-262.125 L 113.278,-261.856 L 113.426,-261.599 L 113.592,-261.354 L 113.776,-261.123 L 113.978,-260.905
 L 114.198,-260.701 L 114.432,-260.515 L 114.677,-260.351 L 114.932,-260.209 L 115.198,-260.088 L 115.502,-259.974
 L 115.82,-259.877 L 116.153,-259.797 L 116.501,-259.734 L 116.876,-259.686 L 117.289,-259.651 L 117.741,-259.631
 L 118.231,-259.624 z
M 118.168,-260.31 L 117.85,-260.317 L 117.577,-260.33 L 117.349,-260.347 L 117.146,-260.374 L 116.948,-260.414
 L 116.756,-260.467 L 116.57,-260.533 L 116.171,-260.735 L 115.816,-261.002 L 115.504,-261.337 L 115.237,-261.739
 L 115.022,-262.2 L 114.868,-262.713 L 114.776,-263.279 L 114.745,-263.896 L 114.784,-264.551 L 114.899,-265.167
 L 115.091,-265.744 L 115.359,-266.283 L 115.72,-266.737 L 116.19,-267.061 L 116.768,-267.255 L 117.456,-267.32
 L 117.689,-267.313 L 117.89,-267.291 L 118.059,-267.253 L 118.194,-267.201 L 118.301,-267.135 L 118.385,-267.055
 L 118.445,-266.961 L 118.481,-266.853 L 118.502,-266.722 L 118.518,-266.557 L 118.527,-266.357 L 118.53,-266.124
 L 118.53,-260.308 z
M 193.65,-248 L 192.35,-248 L 192.35,-188 L 193.65,-188 z
M 288.65,-248 L 287.35,-248 L 287.35,-188 L 288.65,-188 z
M 79.65,-248 L 78.35,-248 L 78.35,-188 L 79.65,-188 z
M 98.65,-248 L 97.35,-248 L 97.35,-188 L 98.65,-188 z
M 117.65,-248 L 116.35,-248 L 116.35,-188 L 117.65,-188 z
M 307.65,-248 L 306.35,-248 L 306.35,-188 L 307.65,-188 z
M 60.65,-248 L 59.35,-248 L 59.35,-188 L 60.65,-188 z
M 269.65,-248 L 268.35,-248 L 268.35,-188 L 269.65,-188 z
M 326.65,-248 L 325.35,-248 L 325.35,-188 L 326.65,-188 z
M 174.65,-248 L 173.35,-248 L 173.35,-188 L 174.65,-188 z
M 136.65,-248 L 135.35,-248 L 135.35,-188 L 136.65,-188 z
M 250.65,-248 L 249.35,-248 L 249.35,-188 L 250.65,-188 z
M 231.65,-248 L 230.35,-248 L 230.35,-188 L 231.65,-188 z
M 155.65,-248 L 154.35,-248 L 154.35,-188 L 155.65,-188 z
M 212.65,-248 L 211.35,-248 L 211.35,-188 L 212.65,-188 z
M 40.6601,-212.878 L 41.0536,-212.93 L 41.436,-213.016 L 41.8071,-213.137 L 42.1622,-213.289 L 42.4963,-213.469
 L 42.8094,-213.677 L 43.1015,-213.913 L 43.3672,-214.173 L 43.6013,-214.451 L 43.8036,-214.747 L 43.9742,-215.063
 L 44.1097,-215.393 L 44.2065,-215.736 L 44.2645,-216.091 L 44.2839,-216.458 L 44.2736,-216.773 L 44.2429,-217.054
 L 44.1917,-217.3 L 44.12,-217.511 L 44.0316,-217.701 L 43.9301,-217.884 L 43.8155,-218.059 L 43.6879,-218.227
 L 43.3895,-218.531 L 43.0231,-218.754 L 42.5888,-218.896 L 42.0865,-218.959 L 42.2794,-219.082 L 42.4555,-219.197
 L 42.6148,-219.304 L 42.7573,-219.403 L 42.8928,-219.504 L 43.0312,-219.617 L 43.1723,-219.741 L 43.3162,-219.877
 L 43.4559,-220.025 L 43.5845,-220.187 L 43.7018,-220.361 L 43.808,-220.549 L 43.8961,-220.746 L 43.959,-220.95
 L 43.9967,-221.161 L 44.0093,-221.377 L 43.9876,-221.657 L 43.9226,-221.914 L 43.8142,-222.148 L 43.6624,-222.359
 L 43.4733,-222.546 L 43.2531,-222.706 L 43.0016,-222.841 L 42.7188,-222.949 L 42.4097,-223.032 L 42.0791,-223.092
 L 41.7271,-223.127 L 41.3536,-223.139 L 40.767,-223.114 L 40.2458,-223.039 L 39.7897,-222.915 L 39.399,-222.74
 L 39.0685,-222.533 L 38.7929,-222.312 L 38.5724,-222.078 L 38.4069,-221.829 L 38.2862,-221.581 L 38.1999,-221.347
 L 38.1482,-221.127 L 38.1309,-220.922 L 38.1426,-220.737 L 38.1777,-220.556 L 38.2361,-220.379 L 38.3179,-220.205
 L 38.411,-220.055 L 38.503,-219.948 L 38.5942,-219.883 L 38.6843,-219.862 L 38.7446,-219.868 L 38.8134,-219.886
 L 38.8906,-219.916 L 38.9762,-219.959 L 39.604,-220.227 L 39.7532,-220.317 L 39.7858,-220.34 L 39.8091,-220.364
 L 39.8231,-220.388 L 39.8278,-220.414 L 39.8203,-220.437 L 39.7979,-220.476 L 39.7607,-220.53 L 39.7084,-220.601
 L 39.5942,-220.765 L 39.5127,-220.936 L 39.4637,-221.116 L 39.4474,-221.302 L 39.4593,-221.443 L 39.4949,-221.58
 L 39.5543,-221.715 L 39.6375,-221.847 L 39.7409,-221.971 L 39.8611,-222.081 L 39.9981,-222.178 L 40.1518,-222.261
 L 40.3152,-222.328 L 40.4808,-222.376 L 40.6488,-222.405 L 40.8192,-222.414 L 41.0995,-222.393 L 41.3587,-222.328
 L 41.597,-222.221 L 41.8144,-222.071 L 41.9954,-221.88 L 42.1247,-221.649 L 42.2023,-221.38 L 42.2282,-221.071
 L 42.2147,-220.804 L 42.1741,-220.558 L 42.1066,-220.331 L 42.0119,-220.123 L 41.892,-219.929 L 41.7482,-219.742
 L 41.5807,-219.563 L 41.3895,-219.392 L 41.1549,-219.207 L 40.8574,-218.987 L 40.497,-218.733 L 40.0736,-218.444
 L 39.972,-218.374 L 39.8835,-218.304 L 39.808,-218.235 L 39.7455,-218.168 L 39.6966,-218.098 L 39.6617,-218.024
 L 39.6407,-217.945 L 39.6337,-217.862 L 39.6407,-217.781 L 39.6617,-217.709 L 39.6966,-217.646 L 39.7455,-217.593
 L 39.8033,-217.551 L 39.8648,-217.52 L 39.9301,-217.502 L 39.9991,-217.496 L 40.107,-217.519 L 40.2446,-217.588
 L 40.4121,-217.702 L 40.6093,-217.862 L 40.8103,-218.009 L 41.0037,-218.114 L 41.1898,-218.177 L 41.3683,-218.198
 L 41.6151,-218.165 L 41.8196,-218.066 L 41.9816,-217.902 L 42.1014,-217.672 L 42.1877,-217.374 L 42.2493,-217.008
 L 42.2863,-216.574 L 42.2986,-216.071 L 42.2769,-215.648 L 42.2119,-215.229 L 42.1035,-214.814 L 41.9518,-214.403
 L 41.725,-214.046 L 41.3915,-213.79 L 40.9512,-213.637 L 40.4042,-213.586 L 40.2382,-213.596 L 40.0909,-213.627
 L 39.9622,-213.678 L 39.8522,-213.75 L 39.752,-213.846 L 39.6527,-213.97 L 39.5543,-214.122 L 39.4569,-214.302
 L 39.3499,-214.519 L 39.2453,-214.706 L 39.1429,-214.864 L 39.0429,-214.992 L 38.9336,-215.092 L 38.8033,-215.163
 L 38.6521,-215.206 L 38.4798,-215.22 L 38.3348,-215.206 L 38.1982,-215.165 L 38.07,-215.096 L 37.9502,-215
 L 37.8491,-214.879 L 37.7769,-214.738 L 37.7335,-214.575 L 37.7191,-214.391 L 37.7394,-214.18 L 37.8002,-213.978
 L 37.9016,-213.786 L 38.0436,-213.604 L 38.2215,-213.436 L 38.4306,-213.289 L 38.6709,-213.162 L 38.9425,-213.055
 L 39.24,-212.97 L 39.558,-212.909 L 39.8965,-212.873 L 40.2555,-212.861 z
M 345.233,-212.886 L 345.754,-212.961 L 346.21,-213.085 L 346.601,-213.26 L 346.932,-213.467 L 347.207,-213.688
 L 347.428,-213.922 L 347.593,-214.171 L 347.714,-214.419 L 347.8,-214.653 L 347.852,-214.873 L 347.869,-215.078
 L 347.857,-215.263 L 347.822,-215.444 L 347.764,-215.621 L 347.682,-215.795 L 347.589,-215.945 L 347.497,-216.052
 L 347.406,-216.117 L 347.316,-216.138 L 347.255,-216.132 L 347.187,-216.114 L 347.109,-216.084 L 347.024,-216.041
 L 346.396,-215.773 L 346.284,-215.705 L 346.247,-215.683 L 346.214,-215.66 L 346.191,-215.636 L 346.177,-215.612
 L 346.172,-215.586 L 346.18,-215.563 L 346.202,-215.524 L 346.239,-215.47 L 346.292,-215.399 L 346.406,-215.235
 L 346.487,-215.064 L 346.536,-214.884 L 346.553,-214.698 L 346.541,-214.557 L 346.505,-214.42 L 346.446,-214.285
 L 346.363,-214.153 L 346.259,-214.029 L 346.139,-213.919 L 346.002,-213.822 L 345.848,-213.739 L 345.685,-213.672
 L 345.519,-213.624 L 345.351,-213.595 L 345.181,-213.586 L 344.901,-213.607 L 344.641,-213.672 L 344.403,-213.779
 L 344.186,-213.929 L 344.005,-214.12 L 343.875,-214.351 L 343.798,-214.62 L 343.772,-214.929 L 343.785,-215.196
 L 343.826,-215.442 L 343.893,-215.669 L 343.988,-215.877 L 344.108,-216.071 L 344.252,-216.258 L 344.419,-216.437
 L 344.611,-216.608 L 344.845,-216.793 L 345.143,-217.013 L 345.503,-217.267 L 345.926,-217.556 L 346.028,-217.626
 L 346.117,-217.696 L 346.192,-217.765 L 346.254,-217.832 L 346.303,-217.902 L 346.338,-217.976 L 346.359,-218.055
 L 346.366,-218.138 L 346.359,-218.219 L 346.338,-218.291 L 346.303,-218.354 L 346.254,-218.407 L 346.197,-218.449
 L 346.135,-218.48 L 346.07,-218.498 L 346.001,-218.504 L 345.893,-218.481 L 345.755,-218.412 L 345.588,-218.298
 L 345.391,-218.138 L 345.19,-217.991 L 344.996,-217.886 L 344.81,-217.823 L 344.632,-217.802 L 344.385,-217.835
 L 344.18,-217.934 L 344.018,-218.098 L 343.899,-218.328 L 343.812,-218.626 L 343.751,-218.992 L 343.714,-219.426
 L 343.701,-219.929 L 343.723,-220.352 L 343.788,-220.771 L 343.896,-221.186 L 344.048,-221.597 L 344.275,-221.954
 L 344.609,-222.21 L 345.049,-222.363 L 345.596,-222.414 L 345.762,-222.404 L 345.909,-222.373 L 346.038,-222.322
 L 346.148,-222.25 L 346.248,-222.154 L 346.347,-222.03 L 346.446,-221.878 L 346.543,-221.698 L 346.65,-221.481
 L 346.755,-221.294 L 346.857,-221.136 L 346.957,-221.008 L 347.066,-220.908 L 347.197,-220.837 L 347.348,-220.794
 L 347.52,-220.78 L 347.665,-220.794 L 347.802,-220.835 L 347.93,-220.904 L 348.05,-221 L 348.151,-221.121
 L 348.223,-221.262 L 348.266,-221.425 L 348.281,-221.609 L 348.261,-221.82 L 348.2,-222.022 L 348.098,-222.214
 L 347.956,-222.396 L 347.779,-222.564 L 347.569,-222.711 L 347.329,-222.838 L 347.057,-222.945 L 346.76,-223.03
 L 346.442,-223.091 L 346.104,-223.127 L 345.745,-223.139 L 345.34,-223.122 L 344.946,-223.07 L 344.564,-222.984
 L 344.193,-222.863 L 343.838,-222.711 L 343.504,-222.531 L 343.191,-222.323 L 342.899,-222.087 L 342.633,-221.827
 L 342.399,-221.549 L 342.196,-221.253 L 342.026,-220.937 L 341.89,-220.607 L 341.794,-220.264 L 341.735,-219.909
 L 341.716,-219.542 L 341.726,-219.227 L 341.757,-218.946 L 341.808,-218.7 L 341.88,-218.489 L 341.968,-218.299
 L 342.07,-218.116 L 342.184,-217.941 L 342.312,-217.773 L 342.611,-217.469 L 342.977,-217.246 L 343.411,-217.104
 L 343.913,-217.041 L 343.721,-216.918 L 343.545,-216.803 L 343.385,-216.696 L 343.243,-216.597 L 343.107,-216.496
 L 342.969,-216.383 L 342.828,-216.259 L 342.684,-216.123 L 342.544,-215.975 L 342.416,-215.813 L 342.298,-215.639
 L 342.192,-215.451 L 342.104,-215.254 L 342.041,-215.05 L 342.003,-214.839 L 341.991,-214.623 L 342.012,-214.343
 L 342.077,-214.086 L 342.186,-213.852 L 342.338,-213.641 L 342.527,-213.454 L 342.747,-213.294 L 342.998,-213.159
 L 343.281,-213.051 L 343.59,-212.968 L 343.921,-212.908 L 344.273,-212.873 L 344.646,-212.861 z
M 231.65,-179 L 230.35,-179 L 230.35,-119 L 231.65,-119 z
M 174.65,-179 L 173.35,-179 L 173.35,-119 L 174.65,-119 z
M 269.65,-148.449 L 278.098,-140 L 279.018,-140.92 L 269.931,-150.006 L 279.018,-159.092 L 278.098,-160.012
 L 269.65,-151.563 L 269.65,-179 L 268.35,-179 L 268.35,-151.587 L 259.926,-160.012 L 259.006,-159.092
 L 268.093,-150.006 L 259.006,-140.92 L 259.926,-140 L 268.35,-148.425 L 268.35,-119 L 269.65,-119
 z
M 326.65,-179 L 325.35,-179 L 325.35,-119 L 326.65,-119 z
M 307.65,-179 L 306.35,-179 L 306.35,-119 L 307.65,-119 z
M 79.65,-179 L 78.35,-179 L 78.35,-119 L 79.65,-119 z
M 98.65,-179 L 97.35,-179 L 97.35,-119 L 98.65,-119 z
M 117.65,-148.449 L 126.098,-140 L 127.018,-140.92 L 117.931,-150.006 L 127.018,-159.092 L 126.098,-160.012
 L 117.65,-151.563 L 117.65,-179 L 116.35,-179 L 116.35,-151.587 L 107.926,-160.012 L 107.006,-159.092
 L 116.093,-150.006 L 107.006,-140.92 L 107.926,-140 L 116.35,-148.425 L 116.35,-119 L 117.65,-119
 z
M 288.65,-179 L 287.35,-179 L 287.35,-119 L 288.65,-119 z
M 60.65,-179 L 59.35,-179 L 59.35,-119 L 60.65,-119 z
M 250.65,-179 L 249.35,-179 L 249.35,-119 L 250.65,-119 z
M 193.65,-135.231 L 207.419,-149 L 193.65,-162.769 L 193.65,-179 L 192.35,-179 L 192.35,-162.769
 L 178.581,-149 L 192.35,-135.231 L 192.35,-119 L 193.65,-119 z
M 180.419,-149 L 192.35,-160.931 L 192.35,-137.069 z
M 193.65,-160.931 L 205.581,-149 L 193.65,-137.069 z
M 136.65,-179 L 135.35,-179 L 135.35,-119 L 136.65,-119 z
M 155.65,-179 L 154.35,-179 L 154.35,-119 L 155.65,-119 z
M 212.65,-179 L 211.35,-179 L 211.35,-119 L 212.65,-119 z
M 44.1489,-145.557 L 39.4594,-145.557 L 39.5381,-145.63 L 39.67,-145.752 L 39.855,-145.923 L 40.0931,-146.144
 L 40.3506,-146.382 L 40.5936,-146.607 L 40.8222,-146.82 L 41.0362,-147.021 L 41.221,-147.194 L 41.3615,-147.327
 L 41.4577,-147.418 L 41.5097,-147.469 L 42.0675,-148.047 L 42.5628,-148.601 L 42.9956,-149.131 L 43.366,-149.638
 L 43.6629,-150.136 L 43.8749,-150.641 L 44.0021,-151.153 L 44.0445,-151.672 L 44.0294,-151.935 L 43.9839,-152.207
 L 43.9081,-152.489 L 43.802,-152.781 L 43.6523,-153.07 L 43.4458,-153.343 L 43.1824,-153.6 L 42.8621,-153.842
 L 42.4815,-154.046 L 42.0369,-154.192 L 41.5285,-154.279 L 40.9562,-154.308 L 40.4823,-154.289 L 40.0452,-154.231
 L 39.645,-154.134 L 39.2815,-153.998 L 38.9584,-153.83 L 38.6791,-153.633 L 38.4437,-153.41 L 38.252,-153.158
 L 38.1036,-152.885 L 37.9975,-152.594 L 37.9339,-152.287 L 37.9127,-151.963 L 37.9225,-151.729 L 37.952,-151.504
 L 38.001,-151.288 L 38.0698,-151.082 L 38.146,-150.906 L 38.2175,-150.78 L 38.2843,-150.704 L 38.3465,-150.679
 L 38.3816,-150.685 L 38.4419,-150.705 L 38.5274,-150.738 L 38.6382,-150.783 L 39.1243,-150.985 L 39.2614,-151.044
 L 39.3594,-151.095 L 39.4181,-151.138 L 39.4377,-151.172 L 39.4363,-151.188 L 39.4321,-151.205 L 39.4251,-151.225
 L 39.4153,-151.246 L 39.2815,-151.545 L 39.1859,-151.816 L 39.1286,-152.057 L 39.1095,-152.269 L 39.1206,-152.435
 L 39.1541,-152.598 L 39.21,-152.756 L 39.2881,-152.911 L 39.3863,-153.056 L 39.5022,-153.186 L 39.6358,-153.301
 L 39.787,-153.4 L 39.9513,-153.48 L 40.1239,-153.537 L 40.305,-153.572 L 40.4944,-153.583 L 40.6961,-153.57
 L 40.8918,-153.532 L 41.0815,-153.468 L 41.265,-153.378 L 41.4372,-153.261 L 41.5927,-153.116 L 41.7313,-152.944
 L 41.8532,-152.743 L 41.9526,-152.516 L 42.0236,-152.265 L 42.0662,-151.988 L 42.0804,-151.687 L 42.0408,-151.134
 L 41.9219,-150.565 L 41.7239,-149.979 L 41.4467,-149.377 L 41.11,-148.772 L 40.7337,-148.177 L 40.3178,-147.593
 L 39.8623,-147.018 L 39.385,-146.463 L 38.9034,-145.935 L 38.4176,-145.435 L 37.9276,-144.962 L 37.9276,-144.262
 L 42.85,-144.262 L 43.0132,-144.243 L 43.1298,-144.186 L 43.1997,-144.09 L 43.223,-143.956 L 43.2207,-143.904
 L 43.2137,-143.843 L 43.2021,-143.773 L 43.1858,-143.695 L 43.813,-143.695 z
M 345.518,-143.711 L 345.955,-143.769 L 346.355,-143.866 L 346.718,-144.002 L 347.042,-144.17 L 347.321,-144.367
 L 347.556,-144.59 L 347.748,-144.842 L 347.896,-145.115 L 348.002,-145.406 L 348.066,-145.713 L 348.087,-146.037
 L 348.077,-146.271 L 348.048,-146.496 L 347.999,-146.712 L 347.93,-146.918 L 347.854,-147.094 L 347.783,-147.22
 L 347.716,-147.296 L 347.653,-147.321 L 347.618,-147.315 L 347.558,-147.295 L 347.473,-147.262 L 347.362,-147.217
 L 346.876,-147.015 L 346.739,-146.956 L 346.641,-146.905 L 346.582,-146.862 L 346.562,-146.828 L 346.564,-146.812
 L 346.568,-146.795 L 346.575,-146.775 L 346.585,-146.754 L 346.719,-146.455 L 346.814,-146.184 L 346.871,-145.943
 L 346.891,-145.731 L 346.879,-145.565 L 346.846,-145.402 L 346.79,-145.244 L 346.712,-145.089 L 346.614,-144.944
 L 346.498,-144.814 L 346.364,-144.699 L 346.213,-144.6 L 346.049,-144.52 L 345.876,-144.463 L 345.695,-144.428
 L 345.506,-144.417 L 345.304,-144.43 L 345.108,-144.468 L 344.919,-144.532 L 344.735,-144.622 L 344.563,-144.739
 L 344.407,-144.884 L 344.269,-145.056 L 344.147,-145.257 L 344.047,-145.484 L 343.976,-145.735 L 343.934,-146.012
 L 343.92,-146.313 L 343.959,-146.866 L 344.078,-147.435 L 344.276,-148.021 L 344.553,-148.623 L 344.89,-149.228
 L 345.266,-149.823 L 345.682,-150.407 L 346.138,-150.982 L 346.615,-151.537 L 347.097,-152.065 L 347.582,-152.565
 L 348.072,-153.038 L 348.072,-153.738 L 343.15,-153.738 L 342.987,-153.757 L 342.87,-153.814 L 342.8,-153.91
 L 342.777,-154.044 L 342.779,-154.096 L 342.786,-154.157 L 342.798,-154.227 L 342.814,-154.305 L 342.187,-154.305
 L 341.851,-152.443 L 346.541,-152.443 L 346.462,-152.37 L 346.33,-152.248 L 346.145,-152.077 L 345.907,-151.856
 L 345.649,-151.618 L 345.406,-151.393 L 345.178,-151.18 L 344.964,-150.979 L 344.779,-150.806 L 344.639,-150.673
 L 344.542,-150.582 L 344.49,-150.531 L 343.933,-149.953 L 343.437,-149.399 L 343.004,-148.869 L 342.634,-148.362
 L 342.337,-147.864 L 342.125,-147.359 L 341.998,-146.847 L 341.955,-146.328 L 341.971,-146.065 L 342.016,-145.793
 L 342.092,-145.511 L 342.198,-145.219 L 342.348,-144.93 L 342.554,-144.657 L 342.818,-144.4 L 343.138,-144.158
 L 343.519,-143.954 L 343.963,-143.808 L 344.471,-143.721 L 345.044,-143.692 z
M 250.65,-110 L 249.35,-110 L 249.35,-50 L 250.65,-50 z
M 79.65,-110 L 78.35,-110 L 78.35,-50 L 79.65,-50 z
M 326.65,-110 L 325.35,-110 L 325.35,-50 L 326.65,-50 z
M 231.65,-110 L 230.35,-110 L 230.35,-50 L 231.65,-50 z
M 98.65,-110 L 97.35,-110 L 97.35,-50 L 98.65,-50 z
M 193.65,-110 L 192.35,-110 L 192.35,-50 L 193.65,-50 z
M 307.65,-110 L 306.35,-110 L 306.35,-50 L 307.65,-50 z
M 155.65,-110 L 154.35,-110 L 154.35,-50 L 155.65,-50 z
M 60.65,-110 L 59.35,-110 L 59.35,-50 L 60.65,-50 z
M 117.65,-110 L 116.35,-110 L 116.35,-50 L 117.65,-50 z
M 136.65,-110 L 135.35,-110 L 135.35,-50 L 136.65,-50 z
M 212.65,-110 L 211.35,-110 L 211.35,-50 L 212.65,-50 z
M 288.65,-110 L 287.35,-110 L 287.35,-50 L 288.65,-50 z
M 174.65,-110 L 173.35,-110 L 173.35,-50 L 174.65,-50 z
M 269.65,-110 L 268.35,-110 L 268.35,-50 L 269.65,-50 z
M 344.945,-75.1203 L 345.174,-75.2414 L 345.415,-75.344 L 345.666,-75.4279 L 345.97,-75.5038 L 346.368,-75.5825
 L 346.86,-75.664 L 347.447,-75.7484 L 347.447,-76.4342 L 347.187,-76.4342 L 346.93,-76.4394 L 346.712,-76.4548
 L 346.531,-76.4804 L 346.387,-76.5163 L 346.274,-76.5653 L 346.181,-76.6301 L 346.11,-76.7107 L 346.06,-76.8072
 L 346.026,-76.9261 L 346.002,-77.0739 L 345.987,-77.2506 L 345.982,-77.4562 L 345.982,-83.2605 L 345.985,-83.4622
 L 345.994,-83.6345 L 346.01,-83.7774 L 346.031,-83.8909 L 346.065,-83.9842 L 346.118,-84.0662 L 346.191,-84.1371
 L 346.283,-84.1968 L 346.402,-84.2441 L 346.554,-84.2779 L 346.739,-84.2982 L 346.956,-84.305 L 347.306,-84.305
 L 347.306,-85.023 L 342.709,-85.023 L 342.709,-84.305 L 343.135,-84.305 L 343.379,-84.2921 L 343.578,-84.2537
 L 343.734,-84.1896 L 343.846,-84.0999 L 343.924,-83.9775 L 343.98,-83.8155 L 344.014,-83.6138 L 344.025,-83.3725
 L 344.025,-74.9805 L 344.727,-74.9805 z
M 43.2912,-75.695 L 42.8649,-75.695 L 42.6213,-75.7079 L 42.4217,-75.7463 L 42.266,-75.8104 L 42.1543,-75.9001
 L 42.0757,-76.0225 L 42.0196,-76.1845 L 41.986,-76.3862 L 41.9748,-76.6275 L 41.9748,-85.0195 L 41.2726,-85.0195
 L 41.0547,-84.8797 L 40.8256,-84.7586 L 40.5854,-84.656 L 40.3339,-84.5721 L 40.0298,-84.4962 L 39.6317,-84.4175
 L 39.1396,-84.336 L 38.5533,-84.2516 L 38.5533,-83.5658 L 38.8135,-83.5658 L 39.0697,-83.5606 L 39.2882,-83.5452
 L 39.4692,-83.5196 L 39.6125,-83.4837 L 39.7263,-83.4347 L 39.8188,-83.3699 L 39.8899,-83.2893 L 39.9395,-83.1928
 L 39.9737,-83.0739 L 39.9981,-82.9261 L 40.0128,-82.7494 L 40.0176,-82.5438 L 40.0176,-76.7395 L 40.0146,-76.5378
 L 40.0056,-76.3655 L 39.9905,-76.2226 L 39.9694,-76.1091 L 39.9354,-76.0158 L 39.882,-75.9338 L 39.8091,-75.8629
 L 39.7166,-75.8032 L 39.5978,-75.7559 L 39.4461,-75.7221 L 39.2613,-75.7018 L 39.0436,-75.695 L 38.6941,-75.695
 L 38.6941,-74.977 L 43.2912,-74.977 z
M 58.6607,-30.5616 L 58.4774,-30.5677 L 58.3059,-30.586 L 58.1462,-30.6166 L 57.9983,-30.6593 L 57.8741,-30.7251
 L 57.7854,-30.8244 L 57.7322,-30.9573 L 57.7144,-31.1238 L 57.7251,-31.2403 L 57.7572,-31.3882 L 57.8106,-31.5673
 L 57.8854,-31.7778 L 58.0869,-32.3155 L 60.7729,-32.3155 L 61.1634,-31.3378 L 61.1955,-31.2434 L 61.2184,-31.1498
 L 61.2321,-31.057 L 61.2367,-30.965 L 61.2226,-30.8456 L 61.1802,-30.7504 L 61.1097,-30.6791 L 61.0109,-30.6319
 L 60.8812,-30.6011 L 60.718,-30.5792 L 60.5212,-30.566 L 60.2908,-30.5616 L 60.2908,-30 L 64.1903,-30
 L 64.1903,-30.5616 L 63.9973,-30.5698 L 63.8272,-30.5944 L 63.68,-30.6354 L 63.5556,-30.6928 L 63.4488,-30.7653
 L 63.3542,-30.8516 L 63.2718,-30.9515 L 63.2017,-31.0652 L 63.1285,-31.2135 L 63.0369,-31.417 L 62.9271,-31.6758
 L 62.7989,-31.99 L 60.2786,-38.4355 L 59.6986,-38.4355 L 57.3114,-32.1852 L 57.1883,-31.8772 L 57.0695,-31.6061
 L 56.9548,-31.3721 L 56.8443,-31.175 L 56.7346,-31.0108 L 56.6223,-30.8752 L 56.5072,-30.7682 L 56.3895,-30.6898
 L 56.2639,-30.6337 L 56.1254,-30.5936 L 55.9739,-30.5696 L 55.8095,-30.5616 L 55.8095,-30 L 58.6607,-30
 z
M 58.3249,-32.9146 L 59.4117,-35.8001 L 60.5532,-32.9146 z
M 326.7,-29.8874 L 327.346,-29.999 L 327.943,-30.185 L 328.494,-30.4454 L 328.988,-30.7674 L 329.417,-31.1383
 L 329.782,-31.5579 L 330.083,-32.0264 L 330.318,-32.5283 L 330.486,-33.0481 L 330.587,-33.5859 L 330.62,-34.1415
 L 330.606,-34.4725 L 330.565,-34.8123 L 330.495,-35.1608 L 330.397,-35.5181 L 330.268,-35.8758 L 330.101,-36.2255
 L 329.897,-36.5671 L 329.656,-36.9008 L 329.371,-37.2163 L 329.035,-37.5035 L 328.648,-37.7626 L 328.21,-37.9934
 L 327.721,-38.1831 L 327.183,-38.3185 L 326.595,-38.3998 L 325.958,-38.4269 L 325.257,-38.3893 L 324.608,-38.2766
 L 324.01,-38.0887 L 323.462,-37.8256 L 322.973,-37.5011 L 322.55,-37.1289 L 322.192,-36.709 L 321.9,-36.2414
 L 321.673,-35.7424 L 321.511,-35.2281 L 321.414,-34.6986 L 321.381,-34.1538 L 321.398,-33.7726 L 321.449,-33.3923
 L 321.534,-33.0126 L 321.653,-32.6338 L 321.807,-32.2629 L 321.998,-31.9074 L 322.225,-31.5671 L 322.489,-31.242
 L 322.791,-30.9406 L 323.135,-30.6712 L 323.519,-30.4339 L 323.944,-30.2287 L 324.407,-30.0631 L 324.905,-29.9449
 L 325.439,-29.8739 L 326.007,-29.8502 z
M 325.594,-30.601 L 325.21,-30.676 L 324.867,-30.8009 L 324.566,-30.9759 L 324.304,-31.1873 L 324.08,-31.4216
 L 323.895,-31.6788 L 323.748,-31.9588 L 323.631,-32.2486 L 323.539,-32.535 L 323.469,-32.8179 L 323.424,-33.0974
 L 323.395,-33.3726 L 323.374,-33.6423 L 323.361,-33.9067 L 323.357,-34.1658 L 323.37,-34.6209 L 323.41,-35.058
 L 323.475,-35.4771 L 323.567,-35.8783 L 323.696,-36.2542 L 323.873,-36.5972 L 324.096,-36.9075 L 324.367,-37.1849
 L 324.691,-37.4133 L 325.072,-37.5764 L 325.511,-37.6743 L 326.007,-37.7069 L 326.373,-37.6884 L 326.709,-37.6328
 L 327.014,-37.5403 L 327.289,-37.4107 L 327.535,-37.2497 L 327.753,-37.0627 L 327.944,-36.8498 L 328.107,-36.611
 L 328.246,-36.3517 L 328.361,-36.0775 L 328.455,-35.7885 L 328.525,-35.4845 L 328.578,-35.1686 L 328.615,-34.8435
 L 328.637,-34.5092 L 328.645,-34.1658 L 328.641,-33.9182 L 328.629,-33.6637 L 328.608,-33.4023 L 328.58,-33.134
 L 328.537,-32.8591 L 328.469,-32.5777 L 328.378,-32.2898 L 328.263,-31.9954 L 328.118,-31.7092 L 327.935,-31.446
 L 327.715,-31.2056 L 327.457,-30.9881 L 327.16,-30.8078 L 326.821,-30.679 L 326.441,-30.6018 L 326.019,-30.576
 z
M 98.6411,-29.872 L 99.0717,-29.9372 L 99.4497,-30.0459 L 99.7751,-30.198 L 100.066,-30.3803 L 100.34,-30.5794
 L 100.597,-30.7953 L 100.837,-31.0279 L 100.973,-30.8131 L 101.089,-30.5846 L 101.184,-30.3424 L 101.258,-30.0864
 L 101.832,-30.0864 L 101.832,-33.2141 L 101.246,-33.2141 L 101.166,-32.9112 L 101.054,-32.6073 L 100.91,-32.3021
 L 100.733,-31.9958 L 100.527,-31.7021 L 100.294,-31.4348 L 100.034,-31.1937 L 99.7473,-30.979 L 99.4373,-30.8027
 L 99.1086,-30.6768 L 98.7611,-30.6012 L 98.395,-30.576 L 98.221,-30.5846 L 98.041,-30.6103 L 97.8547,-30.6533
 L 97.6624,-30.7133 L 97.4673,-30.7975 L 97.2725,-30.9124 L 97.078,-31.0583 L 96.884,-31.2351 L 96.698,-31.4504
 L 96.5276,-31.7118 L 96.3728,-32.0195 L 96.2338,-32.3732 L 96.1189,-32.7739 L 96.0369,-33.2223 L 95.9877,-33.7184
 L 95.9713,-34.2621 L 95.991,-34.8209 L 96.0499,-35.3317 L 96.1481,-35.7943 L 96.2857,-36.2089 L 96.458,-36.5745
 L 96.6604,-36.8901 L 96.893,-37.1558 L 97.1557,-37.3714 L 97.4423,-37.5384 L 97.7464,-37.6576 L 98.068,-37.7291
 L 98.4073,-37.753 L 98.7153,-37.733 L 99.0169,-37.673 L 99.312,-37.5729 L 99.6007,-37.4329 L 99.8764,-37.2552
 L 100.133,-37.0421 L 100.369,-36.7936 L 100.587,-36.5096 L 100.778,-36.1973 L 100.938,-35.8636 L 101.065,-35.5085
 L 101.161,-35.1322 L 101.747,-35.1322 L 101.649,-38.1792 L 101.1,-38.1792 L 101.035,-37.9424 L 100.97,-37.7356
 L 100.904,-37.5587 L 100.837,-37.4117 L 100.297,-37.8558 L 99.6896,-38.1731 L 99.0153,-38.3634 L 98.2738,-38.4269
 L 97.8132,-38.4055 L 97.3713,-38.3414 L 96.9481,-38.2346 L 96.5436,-38.085 L 96.1622,-37.898 L 95.8082,-37.679
 L 95.4817,-37.428 L 95.1826,-37.1449 L 94.9137,-36.834 L 94.6776,-36.4994 L 94.4743,-36.1411 L 94.3038,-35.7592
 L 94.169,-35.3605 L 94.0727,-34.9519 L 94.0149,-34.5334 L 93.9956,-34.1049 L 94.0311,-33.5099 L 94.1375,-32.9459
 L 94.3149,-32.4127 L 94.5632,-31.9104 L 94.8712,-31.4505 L 95.2277,-31.0444 L 95.6326,-30.692 L 96.0859,-30.3935
 L 96.5735,-30.1558 L 97.0814,-29.986 L 97.6095,-29.8842 L 98.1578,-29.8502 z
M 174.253,-29.8542 L 174.481,-29.8663 L 174.692,-29.8863 L 174.887,-29.9143 L 175.096,-29.9526 L 175.352,-30.0035
 L 175.654,-30.067 L 176.003,-30.143 L 176.51,-30.2444 L 176.998,-30.3168 L 177.468,-30.3603 L 177.919,-30.3748
 L 177.919,-32.3163 L 177.923,-32.4989 L 177.936,-32.6559 L 177.957,-32.7873 L 177.987,-32.8932 L 178.027,-32.9795
 L 178.082,-33.052 L 178.152,-33.1108 L 178.235,-33.1559 L 178.336,-33.1915 L 178.46,-33.2222 L 178.605,-33.248
 L 178.772,-33.2688 L 178.772,-33.8304 L 175.085,-33.8304 L 175.085,-33.2688 L 175.313,-33.2631 L 175.509,-33.2459
 L 175.673,-33.2173 L 175.806,-33.1772 L 175.913,-33.1249 L 175.998,-33.0597 L 176.062,-32.9814 L 176.104,-32.8902
 L 176.132,-32.778 L 176.152,-32.6368 L 176.164,-32.4666 L 176.168,-32.2674 L 176.16,-32.0468 L 176.137,-31.8369
 L 176.098,-31.6377 L 176.043,-31.4492 L 175.962,-31.273 L 175.845,-31.111 L 175.692,-30.9631 L 175.503,-30.8294
 L 175.271,-30.7185 L 174.99,-30.6393 L 174.661,-30.5918 L 174.282,-30.576 L 173.798,-30.6119 L 173.373,-30.7195
 L 173.005,-30.8988 L 172.695,-31.1498 L 172.438,-31.4509 L 172.228,-31.7802 L 172.066,-32.1378 L 171.951,-32.5235
 L 171.87,-32.9276 L 171.813,-33.3401 L 171.779,-33.761 L 171.768,-34.1902 L 171.782,-34.6767 L 171.826,-35.1228
 L 171.9,-35.5284 L 172.002,-35.8936 L 172.13,-36.2204 L 172.276,-36.511 L 172.441,-36.7653 L 172.625,-36.9834
 L 172.822,-37.1685 L 173.027,-37.3238 L 173.239,-37.4493 L 173.458,-37.5451 L 173.682,-37.6159 L 173.908,-37.6664
 L 174.137,-37.6968 L 174.367,-37.7069 L 174.678,-37.6882 L 174.975,-37.6321 L 175.259,-37.5386 L 175.53,-37.4076
 L 175.783,-37.2447 L 176.014,-37.0551 L 176.224,-36.8387 L 176.412,-36.5956 L 176.575,-36.3328 L 176.709,-36.0569
 L 176.816,-35.7681 L 176.894,-35.4662 L 177.456,-35.4662 L 177.394,-38.1792 L 176.803,-38.1792 L 176.757,-37.9618
 L 176.704,-37.7689 L 176.644,-37.6005 L 176.577,-37.4566 L 175.985,-37.8811 L 175.361,-38.1843 L 174.706,-38.3662
 L 174.02,-38.4269 L 173.455,-38.3916 L 172.913,-38.2857 L 172.393,-38.1093 L 171.897,-37.8622 L 171.437,-37.5536
 L 171.027,-37.1923 L 170.668,-36.7783 L 170.359,-36.3117 L 170.111,-35.8056 L 169.934,-35.2732 L 169.827,-34.7144
 L 169.792,-34.1294 L 169.822,-33.6109 L 169.912,-33.0993 L 170.061,-32.5945 L 170.271,-32.0966 L 170.54,-31.6247
 L 170.87,-31.1978 L 171.259,-30.8159 L 171.708,-30.479 L 172.211,-30.2039 L 172.762,-30.0074 L 173.361,-29.8895
 L 174.008,-29.8502 z
M 79.5905,-30.0046 L 79.8383,-30.0183 L 80.0907,-30.0412 L 80.3478,-30.0733 L 80.6086,-30.1197 L 80.8725,-30.1855
 L 81.1394,-30.2708 L 81.4094,-30.3756 L 81.6691,-30.5035 L 81.9052,-30.6581 L 82.1176,-30.8394 L 82.3063,-31.0474
 L 82.4612,-31.2847 L 82.5717,-31.5536 L 82.6381,-31.8542 L 82.6602,-32.1865 L 82.6431,-32.4694 L 82.5916,-32.7377
 L 82.5059,-32.9916 L 82.3859,-33.2309 L 82.2325,-33.4529 L 82.0468,-33.6547 L 81.8287,-33.8362 L 81.5781,-33.9974
 L 81.2998,-34.1377 L 80.9982,-34.2563 L 80.6734,-34.353 L 80.3253,-34.428 L 80.8163,-34.5909 L 81.2332,-34.7744
 L 81.5761,-34.9784 L 81.845,-35.2031 L 82.0479,-35.4495 L 82.1929,-35.7187 L 82.2799,-36.0109 L 82.3089,-36.3259
 L 82.2732,-36.7367 L 82.1662,-37.0963 L 81.9878,-37.4049 L 81.7382,-37.6623 L 81.4452,-37.8734 L 81.137,-38.043
 L 80.8135,-38.1709 L 80.4747,-38.2573 L 80.132,-38.3147 L 79.7965,-38.3557 L 79.4682,-38.3803 L 79.1472,-38.3885
 L 78.9213,-38.3885 L 78.7983,-38.388 L 78.6368,-38.3862 L 78.4367,-38.3834 L 78.1981,-38.3794 L 77.9225,-38.3742
 L 77.6113,-38.3679 L 77.2647,-38.3604 L 76.8827,-38.3518 L 76.4775,-38.3427 L 76.0617,-38.3336 L 75.6353,-38.3244
 L 75.1981,-38.3153 L 75.1981,-37.7414 L 75.5351,-37.7281 L 75.8081,-37.688 L 76.017,-37.6213 L 76.1619,-37.5278
 L 76.2606,-37.4 L 76.3311,-37.2302 L 76.3735,-37.0185 L 76.3876,-36.7648 L 76.3876,-31.5399 L 76.3828,-31.3724
 L 76.3685,-31.2241 L 76.3447,-31.0948 L 76.3113,-30.9845 L 76.2622,-30.8895 L 76.1909,-30.806 L 76.0975,-30.7339
 L 75.9819,-30.6732 L 75.838,-30.6251 L 75.6594,-30.5908 L 75.4461,-30.5702 L 75.1981,-30.5633 L 75.1981,-30
 L 79.3472,-30 z
M 78.1329,-34.7405 L 78.1329,-37.704 L 78.7741,-37.704 L 79.0529,-37.6928 L 79.3092,-37.659 L 79.543,-37.6028
 L 79.7543,-37.5241 L 79.9421,-37.4254 L 80.1055,-37.3091 L 80.2444,-37.1754 L 80.3589,-37.0241 L 80.4484,-36.8573
 L 80.5124,-36.6772 L 80.5508,-36.4838 L 80.5636,-36.2771 L 80.534,-35.9417 L 80.4452,-35.6429 L 80.2973,-35.3807
 L 80.0902,-35.1551 L 79.8216,-34.9737 L 79.4894,-34.8441 L 79.0934,-34.7664 L 78.6336,-34.7405 z
M 78.9363,-30.6883 L 78.7463,-30.714 L 78.5883,-30.7569 L 78.4624,-30.817 L 78.3629,-30.8929 L 78.2839,-30.9833
 L 78.2255,-31.0882 L 78.1877,-31.2076 L 78.1637,-31.3466 L 78.1466,-31.5104 L 78.1363,-31.699 L 78.1329,-31.9124
 L 78.1329,-34.0666 L 79.1218,-34.0666 L 79.4962,-34.0374 L 79.826,-33.9499 L 80.1112,-33.804 L 80.3517,-33.5997
 L 80.5427,-33.3429 L 80.6791,-33.0391 L 80.7609,-32.6884 L 80.7882,-32.2908 L 80.7571,-31.8983 L 80.6638,-31.5631
 L 80.5084,-31.285 L 80.2907,-31.0642 L 80.0334,-30.8959 L 79.7589,-30.7758 L 79.4672,-30.7037 L 79.1584,-30.6797
 z
M 117.076,-30.0321 L 117.818,-30.1282 L 118.495,-30.2885 L 119.107,-30.5128 L 119.377,-30.6498 L 119.639,-30.8166
 L 119.893,-31.0131 L 120.138,-31.2393 L 120.368,-31.4955 L 120.576,-31.7819 L 120.762,-32.0984 L 120.925,-32.445
 L 121.059,-32.8177 L 121.154,-33.212 L 121.211,-33.6282 L 121.23,-34.066 L 121.22,-34.3862 L 121.188,-34.6995
 L 121.134,-35.0059 L 121.059,-35.3054 L 120.965,-35.596 L 120.853,-35.8755 L 120.722,-36.1439 L 120.574,-36.4013
 L 120.408,-36.6462 L 120.224,-36.8775 L 120.022,-37.095 L 119.802,-37.2987 L 119.568,-37.4847 L 119.323,-37.649
 L 119.068,-37.7915 L 118.802,-37.9123 L 118.498,-38.026 L 118.18,-38.1229 L 117.847,-38.2031 L 117.499,-38.2664
 L 117.124,-38.3145 L 116.711,-38.3488 L 116.259,-38.3694 L 115.769,-38.3763 L 115.683,-38.3755 L 115.528,-38.3732
 L 115.305,-38.3694 L 115.012,-38.3641 L 114.721,-38.3587 L 114.5,-38.3549 L 114.349,-38.3527 L 114.268,-38.3519
 L 112.492,-38.3153 L 112.492,-37.7414 L 112.851,-37.7277 L 113.138,-37.6865 L 113.354,-37.6178 L 113.499,-37.5217
 L 113.596,-37.3919 L 113.664,-37.2225 L 113.705,-37.0135 L 113.719,-36.7648 L 113.719,-31.5399 L 113.714,-31.3645
 L 113.699,-31.2104 L 113.673,-31.0776 L 113.637,-30.9662 L 113.584,-30.8718 L 113.508,-30.79 L 113.408,-30.7207
 L 113.286,-30.664 L 113.135,-30.62 L 112.953,-30.5885 L 112.739,-30.5696 L 112.492,-30.5633 L 112.492,-30
 L 116.269,-30 z
M 116.311,-30.6871 L 116.11,-30.7094 L 115.941,-30.7466 L 115.806,-30.7987 L 115.699,-30.8651 L 115.615,-30.9452
 L 115.555,-31.039 L 115.519,-31.1466 L 115.498,-31.278 L 115.482,-31.4434 L 115.473,-31.6427 L 115.47,-31.876
 L 115.47,-37.6925 L 115.832,-37.69 L 116.15,-37.6826 L 116.423,-37.6702 L 116.651,-37.6528 L 116.854,-37.6263
 L 117.052,-37.5864 L 117.244,-37.5332 L 117.43,-37.4667 L 117.829,-37.2655 L 118.184,-36.9975 L 118.496,-36.6628
 L 118.763,-36.2613 L 118.978,-35.8003 L 119.132,-35.287 L 119.224,-34.7215 L 119.255,-34.1036 L 119.216,-33.4487
 L 119.101,-32.8327 L 118.909,-32.2555 L 118.641,-31.7173 L 118.28,-31.2633 L 117.81,-30.9391 L 117.232,-30.7445
 L 116.544,-30.6797 z
M 228.985,-27.0224 L 229.193,-27.0407 L 229.417,-27.0712 L 229.657,-27.114 L 229.909,-27.1775 L 230.166,-27.2704
 L 230.429,-27.3927 L 230.698,-27.5444 L 230.955,-27.7273 L 231.183,-27.9435 L 231.382,-28.1928 L 231.552,-28.4754
 L 231.652,-28.6834 L 231.731,-28.886 L 231.79,-29.0833 L 231.83,-29.2752 L 231.855,-29.4824 L 231.873,-29.7254
 L 231.884,-30.0043 L 231.888,-30.3191 L 231.888,-36.7416 L 231.893,-36.9122 L 231.909,-37.0637 L 231.936,-37.196
 L 231.973,-37.3094 L 232.028,-37.4065 L 232.106,-37.4903 L 232.207,-37.5607 L 232.332,-37.6177 L 232.484,-37.6618
 L 232.668,-37.6932 L 232.884,-37.7121 L 233.132,-37.7184 L 233.132,-38.28 L 228.858,-38.28 L 228.858,-37.7184
 L 229.118,-37.7127 L 229.343,-37.6955 L 229.533,-37.6669 L 229.689,-37.6268 L 229.816,-37.574 L 229.919,-37.507
 L 229.998,-37.426 L 230.054,-37.3308 L 230.093,-37.2173 L 230.12,-37.0813 L 230.137,-36.9228 L 230.142,-36.7418
 L 230.142,-29.8142 L 230.141,-29.5312 L 230.136,-29.2802 L 230.129,-29.0613 L 230.118,-28.8744 L 230.1,-28.7077
 L 230.071,-28.5493 L 230.03,-28.3994 L 229.978,-28.2579 L 229.911,-28.1285 L 229.827,-28.0153 L 229.727,-27.918
 L 229.609,-27.8368 L 229.47,-27.7727 L 229.306,-27.7269 L 229.117,-27.6994 L 228.904,-27.6902 L 228.632,-27.712
 L 228.437,-27.7772 L 228.321,-27.8859 L 228.282,-28.0381 L 228.285,-28.0835 L 228.294,-28.1343 L 228.309,-28.1904
 L 228.331,-28.2518 L 228.347,-28.3094 L 228.359,-28.3662 L 228.365,-28.4222 L 228.368,-28.4776 L 228.361,-28.5647
 L 228.342,-28.6493 L 228.309,-28.7311 L 228.264,-28.8103 L 228.207,-28.8843 L 228.141,-28.9506 L 228.065,-29.0094
 L 227.98,-29.0605 L 227.888,-29.1019 L 227.79,-29.1314 L 227.688,-29.1492 L 227.58,-29.1551 L 227.395,-29.1387
 L 227.232,-29.0894 L 227.089,-29.0073 L 226.967,-28.8924 L 226.869,-28.7568 L 226.8,-28.6128 L 226.758,-28.4604
 L 226.744,-28.2995 L 226.76,-28.105 L 226.81,-27.9245 L 226.892,-27.7582 L 227.006,-27.606 L 227.15,-27.4696
 L 227.319,-27.3508 L 227.513,-27.2496 L 227.733,-27.166 L 227.973,-27.1005 L 228.23,-27.0537 L 228.504,-27.0257
 L 228.794,-27.0163 z
M 192.267,-30.5616 L 191.919,-30.5761 L 191.64,-30.6196 L 191.43,-30.692 L 191.289,-30.7934 L 191.195,-30.9269
 L 191.128,-31.0954 L 191.088,-31.299 L 191.075,-31.5376 L 191.075,-34.0205 L 194.917,-34.0205 L 194.917,-31.5376
 L 194.912,-31.3753 L 194.898,-31.2296 L 194.875,-31.1008 L 194.843,-30.9886 L 194.795,-30.891 L 194.725,-30.8056
 L 194.631,-30.7324 L 194.514,-30.6714 L 194.371,-30.6234 L 194.197,-30.5891 L 193.993,-30.5685 L 193.759,-30.5616
 L 193.759,-30 L 197.831,-30 L 197.831,-30.5616 L 197.587,-30.5692 L 197.376,-30.5921 L 197.198,-30.6303
 L 197.053,-30.6837 L 196.937,-30.7496 L 196.844,-30.8249 L 196.776,-30.9098 L 196.732,-31.0042 L 196.704,-31.112
 L 196.684,-31.237 L 196.672,-31.3791 L 196.668,-31.5384 L 196.668,-36.7396 L 196.672,-36.9043 L 196.685,-37.0503
 L 196.707,-37.1775 L 196.738,-37.286 L 196.784,-37.3801 L 196.853,-37.4639 L 196.945,-37.5373 L 197.059,-37.6004
 L 197.202,-37.6512 L 197.378,-37.6874 L 197.588,-37.7092 L 197.831,-37.7164 L 197.831,-38.2771 L 193.759,-38.2771
 L 193.759,-37.7164 L 194.004,-37.7092 L 194.214,-37.6874 L 194.391,-37.6512 L 194.533,-37.6004 L 194.646,-37.5373
 L 194.737,-37.4639 L 194.805,-37.3801 L 194.849,-37.286 L 194.879,-37.1775 L 194.9,-37.0502 L 194.912,-36.9042
 L 194.917,-36.7395 L 194.917,-34.7002 L 191.075,-34.7002 L 191.075,-36.7395 L 191.088,-36.9833 L 191.129,-37.1898
 L 191.197,-37.3589 L 191.292,-37.4905 L 191.434,-37.5894 L 191.644,-37.6599 L 191.922,-37.7023 L 192.267,-37.7164
 L 192.267,-38.2771 L 188.166,-38.2771 L 188.166,-37.7164 L 188.408,-37.7092 L 188.617,-37.6874 L 188.792,-37.6512
 L 188.933,-37.6004 L 189.047,-37.5373 L 189.139,-37.4639 L 189.209,-37.3801 L 189.256,-37.286 L 189.288,-37.1775
 L 189.311,-37.0503 L 189.325,-36.9043 L 189.329,-36.7396 L 189.329,-31.5384 L 189.325,-31.3734 L 189.31,-31.2263
 L 189.286,-31.0971 L 189.253,-30.9859 L 189.204,-30.8895 L 189.131,-30.805 L 189.036,-30.7323 L 188.918,-30.6715
 L 188.774,-30.6234 L 188.601,-30.5891 L 188.398,-30.5685 L 188.166,-30.5616 L 188.166,-30 L 192.267,-30
 z
M 310.333,-36.4888 L 310.337,-36.733 L 310.348,-36.9405 L 310.367,-37.1114 L 310.393,-37.2456 L 310.436,-37.3545
 L 310.503,-37.4493 L 310.594,-37.53 L 310.709,-37.5965 L 310.858,-37.6486 L 311.048,-37.6858 L 311.28,-37.7081
 L 311.554,-37.7155 L 311.554,-38.2771 L 308.467,-38.2771 L 308.467,-37.7155 L 308.723,-37.7071 L 308.943,-37.682
 L 309.125,-37.64 L 309.271,-37.5812 L 309.386,-37.5071 L 309.477,-37.4188 L 309.545,-37.3163 L 309.589,-37.1997
 L 309.617,-37.0626 L 309.637,-36.8983 L 309.649,-36.707 L 309.653,-36.4886 L 309.653,-32.7103 L 304.939,-38.2771
 L 302.529,-38.2771 L 302.529,-37.7155 L 302.725,-37.6894 L 302.898,-37.6538 L 303.049,-37.6085 L 303.178,-37.5538
 L 303.287,-37.4897 L 303.379,-37.4165 L 303.456,-37.3341 L 303.516,-37.2425 L 303.563,-37.1423 L 303.6,-37.0342
 L 303.628,-36.918 L 303.647,-36.7938 L 303.659,-36.6496 L 303.667,-36.4734 L 303.672,-36.2651 L 303.674,-36.0248
 L 303.674,-31.8007 L 303.671,-31.5591 L 303.66,-31.3529 L 303.642,-31.1822 L 303.616,-31.047 L 303.576,-30.9363
 L 303.511,-30.8394 L 303.423,-30.7562 L 303.312,-30.6868 L 303.169,-30.632 L 302.989,-30.5929 L 302.772,-30.5694
 L 302.516,-30.5616 L 302.516,-30 L 305.592,-30 L 305.592,-30.5616 L 305.32,-30.5694 L 305.087,-30.5929
 L 304.896,-30.632 L 304.744,-30.6868 L 304.625,-30.7562 L 304.531,-30.8394 L 304.462,-30.9363 L 304.418,-31.047
 L 304.39,-31.1822 L 304.37,-31.3529 L 304.358,-31.5591 L 304.354,-31.8007 L 304.354,-36.3604 L 309.769,-29.928
 L 310.333,-29.928 z
M 272.692,-32.7666 L 272.13,-32.7666 L 272.054,-32.3214 L 271.936,-31.9375 L 271.775,-31.6151 L 271.572,-31.354
 L 271.342,-31.1457 L 271.103,-30.9817 L 270.854,-30.862 L 270.595,-30.7864 L 270.32,-30.7397 L 270.023,-30.7064
 L 269.705,-30.6864 L 269.365,-30.6797 L 269.107,-30.6875 L 268.887,-30.711 L 268.707,-30.75 L 268.565,-30.8048
 L 268.455,-30.8748 L 268.368,-30.9596 L 268.305,-31.0594 L 268.266,-31.174 L 268.242,-31.3158 L 268.225,-31.4974
 L 268.215,-31.7186 L 268.211,-31.9795 L 268.211,-36.7391 L 268.216,-36.9144 L 268.232,-37.0679 L 268.258,-37.1997
 L 268.294,-37.3097 L 268.346,-37.403 L 268.422,-37.4844 L 268.52,-37.554 L 268.642,-37.6118 L 268.79,-37.6571
 L 268.971,-37.6896 L 269.183,-37.709 L 269.427,-37.7155 L 269.427,-38.2771 L 265.262,-38.2771 L 265.262,-37.7155
 L 265.509,-37.7087 L 265.723,-37.688 L 265.904,-37.6537 L 266.053,-37.6056 L 266.174,-37.5452 L 266.271,-37.4737
 L 266.344,-37.3911 L 266.393,-37.2975 L 266.425,-37.1882 L 266.448,-37.0587 L 266.461,-36.909 L 266.466,-36.7391
 L 266.466,-31.5397 L 266.452,-31.291 L 266.411,-31.082 L 266.342,-30.9127 L 266.246,-30.783 L 266.102,-30.6869
 L 265.89,-30.6182 L 265.61,-30.577 L 265.262,-30.5633 L 265.262,-30 L 272.637,-30 z
M 155.836,-30.5616 L 155.665,-30.5616 L 155.327,-30.5765 L 155.057,-30.6211 L 154.855,-30.6955 L 154.722,-30.7996
 L 154.635,-30.935 L 154.573,-31.1032 L 154.536,-31.3042 L 154.523,-31.538 L 154.523,-33.9974 L 155.274,-33.9974
 L 155.46,-33.9925 L 155.621,-33.9776 L 155.758,-33.9529 L 155.869,-33.9182 L 155.961,-33.8706 L 156.039,-33.807
 L 156.102,-33.7274 L 156.15,-33.6318 L 156.188,-33.5114 L 156.22,-33.3575 L 156.245,-33.1701 L 156.263,-32.9491
 L 156.836,-32.9491 L 156.836,-35.7024 L 156.275,-35.7024 L 156.247,-35.4075 L 156.199,-35.1699 L 156.131,-34.9895
 L 156.043,-34.8663 L 155.923,-34.7835 L 155.759,-34.7244 L 155.551,-34.6889 L 155.298,-34.6771 L 154.523,-34.6771
 L 154.523,-37.5974 L 156,-37.5974 L 156.265,-37.5929 L 156.5,-37.5791 L 156.703,-37.5563 L 156.876,-37.5243
 L 157.029,-37.4725 L 157.175,-37.3902 L 157.313,-37.2775 L 157.443,-37.1343 L 157.564,-36.9526 L 157.671,-36.7245
 L 157.766,-36.4499 L 157.849,-36.1289 L 158.423,-36.1289 L 158.362,-38.2771 L 151.586,-38.2771 L 151.586,-37.7137
 L 151.832,-37.7067 L 152.045,-37.6855 L 152.225,-37.6502 L 152.371,-37.6009 L 152.49,-37.5391 L 152.585,-37.4666
 L 152.656,-37.3835 L 152.705,-37.2896 L 152.737,-37.1807 L 152.76,-37.0524 L 152.773,-36.9046 L 152.778,-36.7373
 L 152.778,-31.538 L 152.764,-31.2918 L 152.724,-31.0841 L 152.656,-30.915 L 152.561,-30.7843 L 152.418,-30.6869
 L 152.208,-30.6173 L 151.931,-30.5755 L 151.586,-30.5616 L 151.586,-30 L 155.836,-30 z
M 139.638,-32.7229 L 139.064,-32.7229 L 138.977,-32.2816 L 138.862,-31.9033 L 138.72,-31.5879 L 138.551,-31.3353
 L 138.367,-31.1352 L 138.181,-30.977 L 137.993,-30.8608 L 137.803,-30.7864 L 137.61,-30.7397 L 137.412,-30.7064
 L 137.208,-30.6864 L 137,-30.6797 L 136.335,-30.6797 L 136.125,-30.6839 L 135.94,-30.6965 L 135.781,-30.7174
 L 135.648,-30.7468 L 135.536,-30.7855 L 135.44,-30.8345 L 135.362,-30.8938 L 135.3,-30.9633 L 135.252,-31.0427
 L 135.214,-31.1317 L 135.186,-31.2302 L 135.169,-31.3383 L 135.158,-31.4675 L 135.15,-31.6296 L 135.146,-31.8244
 L 135.144,-32.0519 L 135.144,-33.9974 L 135.999,-33.9974 L 136.202,-33.9929 L 136.377,-33.9791 L 136.524,-33.9562
 L 136.643,-33.9242 L 136.742,-33.8786 L 136.826,-33.8152 L 136.896,-33.7338 L 136.952,-33.6345 L 136.996,-33.5112
 L 137.031,-33.3578 L 137.057,-33.1743 L 137.074,-32.9606 L 137.636,-32.9606 L 137.636,-35.7139 L 137.049,-35.7139
 L 137.031,-35.5004 L 137.005,-35.3174 L 136.973,-35.165 L 136.933,-35.043 L 136.883,-34.9448 L 136.816,-34.8638
 L 136.733,-34.8 L 136.634,-34.7533 L 136.514,-34.7199 L 136.366,-34.6962 L 136.19,-34.6819 L 135.987,-34.6771
 L 135.144,-34.6771 L 135.144,-37.5974 L 136.695,-37.5974 L 136.984,-37.5931 L 137.235,-37.5799 L 137.447,-37.558
 L 137.62,-37.5272 L 137.77,-37.4773 L 137.913,-37.3977 L 138.048,-37.2884 L 138.176,-37.1493 L 138.296,-36.9701
 L 138.408,-36.7402 L 138.514,-36.4596 L 138.612,-36.1284 L 139.174,-36.1284 L 139.064,-38.2771 L 132.198,-38.2771
 L 132.198,-37.7137 L 132.452,-37.7067 L 132.67,-37.6855 L 132.853,-37.6502 L 133,-37.6009 L 133.118,-37.5391
 L 133.212,-37.4667 L 133.282,-37.3836 L 133.329,-37.2898 L 133.36,-37.181 L 133.382,-37.0526 L 133.395,-36.9048
 L 133.399,-36.7376 L 133.399,-31.5394 L 133.385,-31.2908 L 133.344,-31.0819 L 133.276,-30.9126 L 133.18,-30.7829
 L 133.036,-30.6868 L 132.825,-30.6182 L 132.545,-30.577 L 132.198,-30.5633 L 132.198,-30 L 139.57,-30
 z
M 214.091,-30.5616 L 213.835,-30.5685 L 213.615,-30.5891 L 213.43,-30.6234 L 213.283,-30.6715 L 213.164,-30.7322
 L 213.068,-30.8043 L 212.995,-30.8878 L 212.944,-30.9828 L 212.909,-31.0931 L 212.884,-31.2224 L 212.87,-31.3708
 L 212.865,-31.5383 L 212.865,-36.7389 L 212.87,-36.9142 L 212.885,-37.0678 L 212.911,-37.1996 L 212.947,-37.3096
 L 213,-37.4029 L 213.076,-37.4844 L 213.175,-37.554 L 213.298,-37.6118 L 213.448,-37.6571 L 213.631,-37.6896
 L 213.845,-37.709 L 214.091,-37.7155 L 214.091,-38.2771 L 209.892,-38.2771 L 209.892,-37.7155 L 210.248,-37.7018
 L 210.534,-37.6606 L 210.75,-37.5919 L 210.896,-37.4958 L 210.994,-37.3661 L 211.064,-37.1968 L 211.105,-36.9877
 L 211.119,-36.7389 L 211.119,-31.5383 L 211.114,-31.3628 L 211.099,-31.2087 L 211.073,-31.0759 L 211.037,-30.9645
 L 210.984,-30.8701 L 210.908,-30.7883 L 210.809,-30.719 L 210.686,-30.6623 L 210.536,-30.6182 L 210.353,-30.5868
 L 210.139,-30.5679 L 209.892,-30.5616 L 209.892,-30 L 214.091,-30 z
M 285.329,-30.5616 L 285.124,-30.566 L 284.943,-30.5791 L 284.785,-30.6011 L 284.651,-30.6318 L 284.537,-30.6717
 L 284.439,-30.7211 L 284.358,-30.7801 L 284.293,-30.8485 L 284.242,-30.9256 L 284.202,-31.0102 L 284.172,-31.1025
 L 284.153,-31.2025 L 284.141,-31.3177 L 284.132,-31.4559 L 284.127,-31.6169 L 284.125,-31.8007 L 284.125,-36.7267
 L 287.292,-30 L 287.664,-30 L 290.79,-36.7267 L 290.79,-31.5383 L 290.785,-31.3706 L 290.77,-31.2216
 L 290.747,-31.0913 L 290.713,-30.9797 L 290.664,-30.8836 L 290.593,-30.7997 L 290.501,-30.728 L 290.386,-30.6684
 L 290.243,-30.6217 L 290.064,-30.5883 L 289.848,-30.5683 L 289.597,-30.5616 L 289.597,-30 L 293.75,-30
 L 293.75,-30.5616 L 293.501,-30.5687 L 293.285,-30.5898 L 293.103,-30.6251 L 292.953,-30.6745 L 292.832,-30.7369
 L 292.735,-30.8111 L 292.663,-30.8972 L 292.614,-30.995 L 292.582,-31.1068 L 292.559,-31.2346 L 292.545,-31.3784
 L 292.541,-31.5383 L 292.541,-36.7389 L 292.555,-36.9852 L 292.596,-37.1929 L 292.666,-37.3621 L 292.764,-37.4928
 L 292.909,-37.5902 L 293.122,-37.6598 L 293.402,-37.7016 L 293.75,-37.7155 L 293.75,-38.2771 L 290.79,-38.2771
 L 288.036,-32.4356 L 285.292,-38.2771 L 282.265,-38.2771 L 282.265,-37.7155 L 282.536,-37.7081 L 282.765,-37.6858
 L 282.951,-37.6486 L 283.095,-37.5965 L 283.207,-37.53 L 283.294,-37.4493 L 283.357,-37.3545 L 283.397,-37.2455
 L 283.421,-37.1113 L 283.438,-36.9404 L 283.448,-36.7328 L 283.451,-36.4886 L 283.451,-31.8007 L 283.45,-31.617
 L 283.445,-31.4566 L 283.438,-31.3195 L 283.427,-31.2055 L 283.409,-31.1069 L 283.381,-31.0156 L 283.343,-30.9314
 L 283.293,-30.8545 L 283.23,-30.7859 L 283.151,-30.7264 L 283.055,-30.6761 L 282.943,-30.6349 L 282.811,-30.6028
 L 282.653,-30.5799 L 282.471,-30.5662 L 282.265,-30.5616 L 282.265,-30 L 285.329,-30 z
M 249.474,-30.5616 L 249.152,-30.5751 L 248.887,-30.6158 L 248.678,-30.6835 L 248.525,-30.7783 L 248.416,-30.9071
 L 248.338,-31.0767 L 248.291,-31.2871 L 248.276,-31.5384 L 248.276,-33.327 L 249.322,-34.2489 L 251.101,-31.7399
 L 251.32,-31.4194 L 251.477,-31.1599 L 251.571,-30.9615 L 251.602,-30.8241 L 251.591,-30.7564 L 251.558,-30.6997
 L 251.504,-30.6541 L 251.427,-30.6196 L 251.321,-30.5942 L 251.177,-30.5761 L 250.995,-30.5652 L 250.775,-30.5616
 L 250.401,-30.5616 L 250.401,-30 L 254.998,-30 L 254.998,-30.5616 L 254.774,-30.5773 L 254.574,-30.6059
 L 254.396,-30.6475 L 254.241,-30.702 L 254.1,-30.7724 L 253.964,-30.8615 L 253.832,-30.9693 L 253.705,-31.0957
 L 253.571,-31.2493 L 253.42,-31.4384 L 253.251,-31.663 L 253.065,-31.923 L 250.625,-35.4027 L 251.492,-36.1537
 L 251.806,-36.4257 L 252.074,-36.6557 L 252.297,-36.8438 L 252.475,-36.9899 L 252.628,-37.109 L 252.774,-37.2159
 L 252.915,-37.3105 L 253.049,-37.3929 L 253.181,-37.4638 L 253.315,-37.5241 L 253.451,-37.5737 L 253.589,-37.6127
 L 253.738,-37.6443 L 253.907,-37.6722 L 254.097,-37.6962 L 254.306,-37.7164 L 254.306,-38.2771 L 250.528,-38.2771
 L 250.528,-37.7164 L 250.894,-37.689 L 251.155,-37.6066 L 251.312,-37.4692 L 251.364,-37.2769 L 251.356,-37.1756
 L 251.334,-37.0793 L 251.295,-36.9879 L 251.242,-36.9015 L 251.172,-36.8135 L 251.083,-36.7176 L 250.976,-36.6136
 L 250.851,-36.5016 L 248.276,-34.2489 L 248.276,-36.7396 L 248.289,-36.9884 L 248.33,-37.1975 L 248.399,-37.3669
 L 248.495,-37.4966 L 248.638,-37.5928 L 248.849,-37.6615 L 249.127,-37.7027 L 249.474,-37.7164 L 249.474,-38.2771
 L 245.338,-38.2771 L 245.338,-37.7164 L 245.587,-37.7094 L 245.802,-37.6882 L 245.983,-37.6529 L 246.13,-37.6035
 L 246.248,-37.5417 L 246.342,-37.4692 L 246.413,-37.386 L 246.46,-37.2922 L 246.491,-37.1832 L 246.513,-37.0549
 L 246.526,-36.907 L 246.53,-36.7396 L 246.53,-31.5384 L 246.526,-31.3709 L 246.511,-31.2224 L 246.487,-31.0931
 L 246.454,-30.9828 L 246.405,-30.8878 L 246.333,-30.8043 L 246.239,-30.7322 L 246.124,-30.6715 L 245.979,-30.6234
 L 245.8,-30.5891 L 245.587,-30.5685 L 245.338,-30.5616 L 245.338,-30 L 249.474,-30 z
" stroke="black" fill="lightgray" stroke-width="0.5"/>
</svg>
