<?xml version="1.0" encoding="UTF-8" standalone="no"?>
<svg
   width="330mm"
   height="260mm"
   viewBox="38 -271 330 260"
   version="1.1"
   id="svg1"
   sodipodi:docname="SaÌhkku-v1.0.2.svg"
   inkscape:version="1.4 (e7c3feb1, 2024-10-09)"
   xmlns:inkscape="http://www.inkscape.org/namespaces/inkscape"
   xmlns:sodipodi="http://sodipodi.sourceforge.net/DTD/sodipodi-0.dtd"
   xmlns="http://www.w3.org/2000/svg"
   xmlns:svg="http://www.w3.org/2000/svg"
   xmlns:rdf="http://www.w3.org/1999/02/22-rdf-syntax-ns#"
   xmlns:cc="http://creativecommons.org/ns#"
   xmlns:dc="http://purl.org/dc/elements/1.1/">
  <defs
     id="defs1" />
  <sodipodi:namedview
     id="namedview1"
     pagecolor="#505050"
     bordercolor="#ffffff"
     borderopacity="1"
     inkscape:showpageshadow="0"
     inkscape:pageopacity="0"
     inkscape:pagecheckerboard="1"
     inkscape:deskcolor="#505050"
     inkscape:document-units="mm"
     inkscape:zoom="0.64244461"
     inkscape:cx="621.84349"
     inkscape:cy="486.42326"
     inkscape:window-width="1728"
     inkscape:window-height="952"
     inkscape:window-x="0"
     inkscape:window-y="38"
     inkscape:window-maximized="0"
     inkscape:current-layer="svg1" />
  <title
     id="title1">OpenSCAD Model</title>
  <path
     d="m 242.763,-252.00406 h -0.195 l -0.287,-0.007 -0.232,-0.02 -0.176,-0.034 -0.121,-0.049 -0.085,-0.066 -0.069,-0.088 -0.053,-0.11 -0.037,-0.132 -0.025,-0.188 -0.019,-0.275 -0.01,-0.363 -0.004,-0.45 v -5.409 l 0.006,-0.644 0.018,-0.545 0.031,-0.448 0.043,-0.35 0.072,-0.291 0.12,-0.27 0.167,-0.252 0.215,-0.231 0.252,-0.193 0.28,-0.139 0.307,-0.083 0.334,-0.027 0.164,0.007 0.151,0.02 0.136,0.034 0.123,0.049 0.102,0.06 0.072,0.071 0.044,0.081 0.015,0.093 -0.005,0.041 -0.012,0.05 -0.021,0.06 -0.03,0.069 -0.032,0.081 -0.022,0.08 -0.014,0.079 -0.005,0.077 0.012,0.123 0.033,0.113 0.057,0.104 0.078,0.093 0.096,0.078 0.106,0.055 0.118,0.033 0.128,0.011 0.126,-0.012 0.116,-0.036 0.105,-0.061 0.095,-0.086 0.079,-0.103 0.056,-0.115 0.034,-0.127 0.011,-0.137 -0.031,-0.23 -0.095,-0.213 -0.159,-0.198 -0.222,-0.18 -0.28,-0.151 -0.335,-0.108 -0.389,-0.065 -0.443,-0.021 -0.405,0.017 -0.38,0.053 -0.355,0.088 -0.328,0.123 -0.3,0.155 -0.269,0.186 -0.237,0.216 -0.205,0.245 -0.171,0.263 -0.133,0.266 -0.097,0.27 -0.06,0.273 -0.036,0.306 -0.026,0.368 -0.015,0.431 -0.005,0.494 v 5.409 l -0.004,0.468 -0.012,0.374 -0.019,0.279 -0.026,0.185 -0.039,0.127 -0.055,0.104 -0.07,0.083 -0.087,0.062 -0.121,0.044 -0.174,0.031 -0.226,0.019 -0.279,0.006 h -0.207 v 0.281 h 3.847 z m 72.675,0 -0.236,-0.008 -0.218,-0.024 -0.2,-0.04 -0.183,-0.056 -0.159,-0.07 -0.13,-0.081 -0.101,-0.093 -0.071,-0.104 -0.05,-0.13 -0.035,-0.172 -0.021,-0.213 -0.007,-0.254 v -4.95 l 4.903,6.476 h 2.441 v -0.281 l -0.303,-0.005 -0.244,-0.018 -0.185,-0.028 -0.126,-0.04 -0.09,-0.06 -0.076,-0.09 -0.064,-0.118 -0.051,-0.147 -0.038,-0.201 -0.028,-0.28 -0.017,-0.358 -0.005,-0.437 v -4.389 l 0.003,-0.341 0.011,-0.272 0.018,-0.204 0.026,-0.135 0.045,-0.099 0.076,-0.096 0.108,-0.092 0.14,-0.089 0.173,-0.078 0.209,-0.063 0.243,-0.046 0.278,-0.029 v -0.281 h -3.087 v 0.281 l 0.309,0.012 0.267,0.035 0.227,0.059 0.185,0.083 0.148,0.097 0.116,0.101 0.084,0.106 0.051,0.111 0.031,0.144 0.022,0.204 0.013,0.266 0.004,0.326 v 5.744 l -5.854,-7.759 h -0.263 v 6.849 l -0.005,0.247 -0.015,0.207 -0.026,0.17 -0.036,0.13 -0.055,0.108 -0.082,0.099 -0.109,0.092 -0.137,0.083 -0.165,0.072 -0.192,0.058 -0.22,0.043 -0.248,0.028 v 0.281 h 3.001 z m -207.088,0.404 0.5273,-0.099 0.5043,-0.164 0.4814,-0.229 0.444,-0.298 0.392,-0.367 0.341,-0.437 0.288,-0.507 0.23,-0.55 0.164,-0.569 0.098,-0.587 0.033,-0.604 -0.071,-0.888 -0.214,-0.797 -0.355,-0.705 -0.499,-0.613 -0.61,-0.497 -0.6919,-0.355 -0.7742,-0.213 -0.8563,-0.071 -0.8107,0.077 -0.7351,0.232 -0.6596,0.386 -0.5841,0.54 -0.1323,-0.196 -0.1102,-0.211 -0.0881,-0.225 -0.066,-0.24 h -0.2624 v 2.897 h 0.2624 l 0.0574,-0.363 0.099,-0.371 0.1405,-0.376 0.1821,-0.384 0.2209,-0.358 0.2573,-0.302 0.2935,-0.246 0.3297,-0.19 0.3459,-0.142 0.342,-0.101 0.3383,-0.061 0.3344,-0.02 0.5968,0.062 0.5457,0.186 0.4947,0.31 0.4435,0.434 0.3657,0.551 0.2611,0.659 0.157,0.768 0.052,0.877 -0.048,0.926 -0.143,0.812 -0.24,0.699 -0.3346,0.585 -0.4163,0.462 -0.483,0.331 -0.5497,0.198 -0.6165,0.066 -0.5173,-0.041 -0.4902,-0.123 -0.4631,-0.204 -0.4361,-0.286 -0.3869,-0.39 -0.3156,-0.517 -0.2443,-0.646 -0.1729,-0.772 h -0.2624 l 0.0733,3.137 h 0.2685 l 0.0404,-0.275 0.0663,-0.271 0.0923,-0.266 0.1182,-0.262 0.2101,0.227 0.2577,0.216 0.3054,0.206 0.3531,0.196 0.3877,0.167 0.4095,0.119 0.4313,0.072 0.453,0.024 z m 76.568,-0.051 0.814,-0.251 0.712,-0.417 0.612,-0.585 0.492,-0.696 0.351,-0.751 0.21,-0.806 0.07,-0.86 -0.073,-0.859 -0.221,-0.78 -0.368,-0.701 -0.516,-0.624 -0.626,-0.511 -0.702,-0.366 -0.776,-0.219 -0.85,-0.073 -0.453,0.025 -0.471,0.073 -0.49,0.122 -0.509,0.171 -0.364,0.126 -0.326,0.089 -0.29,0.054 -0.254,0.018 -0.059,-0.002 -0.064,-0.004 -0.068,-0.008 -0.071,-0.01 v 0.878 l -0.004,0.485 -0.013,0.385 -0.021,0.287 -0.029,0.188 -0.043,0.129 -0.06,0.109 -0.078,0.09 -0.096,0.069 -0.129,0.052 -0.177,0.037 -0.224,0.022 -0.272,0.008 v 0.294 h 3.571 v -0.294 h -0.195 l -0.225,-0.005 -0.187,-0.014 -0.149,-0.024 -0.111,-0.033 -0.085,-0.048 -0.074,-0.065 -0.062,-0.084 -0.05,-0.102 -0.039,-0.139 -0.028,-0.195 -0.016,-0.249 -0.006,-0.305 0.012,-0.271 0.035,-0.248 0.059,-0.222 0.083,-0.199 0.115,-0.179 0.157,-0.164 0.197,-0.151 0.239,-0.137 0.266,-0.113 0.281,-0.081 0.296,-0.049 0.31,-0.016 0.594,0.057 0.543,0.172 0.494,0.287 0.443,0.402 0.365,0.54 0.262,0.7 0.156,0.861 0.052,1.021 -0.054,1.021 -0.162,0.853 -0.271,0.685 -0.379,0.517 -0.452,0.38 -0.489,0.27 -0.527,0.163 -0.564,0.054 -0.543,-0.046 -0.501,-0.14 -0.459,-0.233 -0.416,-0.326 -0.357,-0.405 -0.28,-0.472 -0.203,-0.538 -0.127,-0.605 h -0.294 v 2.765 h 0.294 l 0.036,-0.243 0.055,-0.234 0.074,-0.227 0.092,-0.217 0.579,0.534 0.65,0.381 0.723,0.229 0.794,0.077 z m 152.024,0.011 0.839,-0.217 0.76,-0.363 0.68,-0.507 0.561,-0.627 0.4,-0.722 0.241,-0.817 0.08,-0.911 -0.079,-0.934 -0.237,-0.837 -0.395,-0.741 -0.553,-0.644 -0.676,-0.52 -0.764,-0.372 -0.853,-0.223 -0.941,-0.075 -0.965,0.075 -0.866,0.223 -0.768,0.372 -0.67,0.52 -0.543,0.641 -0.388,0.733 -0.233,0.824 -0.078,0.916 0.081,0.939 0.243,0.835 0.406,0.731 0.567,0.626 0.689,0.502 0.768,0.359 0.847,0.215 0.928,0.072 z m -1.64,-0.297 -0.624,-0.193 -0.535,-0.321 -0.444,-0.45 -0.35,-0.571 -0.25,-0.683 -0.149,-0.795 -0.05,-0.909 0.05,-0.93 0.152,-0.808 0.254,-0.685 0.355,-0.562 0.442,-0.437 0.516,-0.313 0.588,-0.188 0.662,-0.062 0.746,0.062 0.647,0.188 0.547,0.313 0.448,0.437 0.348,0.563 0.249,0.687 0.149,0.812 0.05,0.936 -0.05,0.922 -0.149,0.803 -0.249,0.682 -0.348,0.562 -0.441,0.44 -0.529,0.313 -0.617,0.189 -0.703,0.062 z m -52.878,-0.066 h -0.184 l -0.287,-0.007 -0.231,-0.02 -0.177,-0.035 -0.121,-0.048 -0.085,-0.066 -0.069,-0.088 -0.053,-0.11 -0.037,-0.132 -0.025,-0.188 -0.019,-0.275 -0.01,-0.363 -0.004,-0.45 v -4.06 l 0.004,-0.472 0.01,-0.377 0.019,-0.284 0.025,-0.189 0.038,-0.132 0.057,-0.114 0.075,-0.095 0.093,-0.077 0.123,-0.059 0.163,-0.042 0.205,-0.025 0.245,-0.008 h 0.245 v -0.281 h -7.033 l -0.061,2.436 h 0.287 l 0.141,-0.458 0.148,-0.392 0.156,-0.326 0.162,-0.259 0.169,-0.206 0.173,-0.166 0.177,-0.127 0.183,-0.087 0.209,-0.059 0.258,-0.042 0.307,-0.025 0.357,-0.008 h 0.628 l 0.326,0.008 0.264,0.023 0.201,0.039 0.14,0.055 0.097,0.069 0.077,0.081 0.056,0.094 0.035,0.107 0.021,0.155 0.015,0.239 0.01,0.323 0.003,0.406 v 4.335 l -0.004,0.468 -0.012,0.374 -0.02,0.279 -0.028,0.185 -0.04,0.127 -0.055,0.104 -0.071,0.083 -0.087,0.062 -0.121,0.044 -0.173,0.031 -0.226,0.019 -0.278,0.006 h -0.366 v 0.28 h 3.975 z m -133.086,0 -0.273,-0.007 -0.222,-0.022 -0.17,-0.038 -0.119,-0.052 -0.084,-0.071 -0.068,-0.093 -0.051,-0.116 -0.034,-0.138 -0.023,-0.19 -0.016,-0.271 -0.01,-0.352 -0.003,-0.432 v -4.06 l 0.003,-0.47 0.009,-0.372 0.015,-0.273 0.021,-0.176 0.033,-0.121 0.049,-0.11 0.065,-0.099 0.082,-0.088 0.117,-0.073 0.172,-0.051 0.226,-0.031 0.281,-0.01 h 0.171 v -0.281 h -6.853 l -0.177,2.578 h 0.293 l 0.12,-0.434 0.14,-0.384 0.161,-0.335 0.18,-0.286 0.193,-0.239 0.198,-0.195 0.203,-0.15 0.208,-0.106 0.225,-0.074 0.254,-0.052 0.283,-0.032 0.312,-0.01 h 0.616 l 0.374,0.016 0.295,0.049 0.215,0.081 0.134,0.113 0.083,0.205 0.059,0.357 0.036,0.508 0.011,0.66 v 1.958 h -0.908 l -0.246,-0.005 -0.208,-0.013 -0.169,-0.022 -0.13,-0.03 -0.105,-0.045 -0.091,-0.066 -0.078,-0.087 -0.065,-0.106 -0.051,-0.146 -0.036,-0.202 -0.021,-0.259 -0.008,-0.315 h -0.286 v 2.834 h 0.286 l 0.005,-0.282 0.014,-0.231 0.024,-0.181 0.033,-0.131 0.049,-0.099 0.069,-0.085 0.089,-0.072 0.111,-0.059 0.143,-0.046 0.188,-0.032 0.234,-0.02 0.279,-0.006 h 0.878 v 3.475 h -1.146 l -0.404,-0.006 -0.343,-0.017 -0.285,-0.03 -0.224,-0.041 -0.189,-0.064 -0.175,-0.098 -0.162,-0.131 -0.148,-0.164 -0.137,-0.213 -0.125,-0.276 -0.114,-0.339 -0.103,-0.401 h -0.287 l 0.195,2.06 h 5.913 z m 52.835,0 h -0.219 l -0.287,-0.007 -0.232,-0.02 -0.176,-0.035 -0.12,-0.048 -0.085,-0.066 -0.069,-0.088 -0.052,-0.11 -0.036,-0.132 -0.024,-0.187 -0.017,-0.276 -0.01,-0.362 -0.004,-0.451 v -1.642 h 4.321 v 1.642 l -0.004,0.468 -0.012,0.374 -0.02,0.279 -0.028,0.184 -0.04,0.127 -0.055,0.104 -0.071,0.083 -0.087,0.062 -0.12,0.044 -0.173,0.031 -0.223,0.019 -0.276,0.006 h -0.153 v 0.281 h 3.721 v -0.281 h -0.152 l -0.286,-0.007 -0.231,-0.02 -0.176,-0.034 -0.12,-0.049 -0.085,-0.066 -0.069,-0.088 -0.053,-0.11 -0.037,-0.132 -0.025,-0.188 -0.018,-0.275 -0.011,-0.362 -0.004,-0.451 v -4.059 l 0.004,-0.472 0.011,-0.377 0.018,-0.284 0.025,-0.189 0.038,-0.132 0.056,-0.114 0.075,-0.095 0.093,-0.077 0.122,-0.059 0.164,-0.042 0.203,-0.025 0.245,-0.008 h 0.213 v -0.281 h -3.721 v 0.281 h 0.214 l 0.255,0.009 0.21,0.027 0.166,0.046 0.121,0.064 0.09,0.083 0.071,0.103 0.052,0.122 0.034,0.141 0.021,0.194 0.016,0.277 0.009,0.362 0.003,0.447 v 1.997 h -4.321 v -1.997 l 0.004,-0.472 0.01,-0.378 0.017,-0.283 0.024,-0.19 0.037,-0.132 0.056,-0.114 0.074,-0.095 0.093,-0.077 0.122,-0.059 0.163,-0.042 0.202,-0.025 0.242,-0.008 h 0.287 v -0.281 h -3.767 v 0.281 h 0.19 l 0.255,0.009 0.211,0.027 0.167,0.046 0.123,0.064 0.091,0.083 0.071,0.103 0.052,0.122 0.033,0.141 0.02,0.193 0.014,0.278 0.009,0.362 0.003,0.446 v 4.06 l -0.004,0.468 -0.012,0.374 -0.02,0.279 -0.028,0.185 -0.04,0.127 -0.056,0.104 -0.071,0.083 -0.086,0.062 -0.121,0.044 -0.174,0.031 -0.226,0.019 -0.279,0.006 h -0.122 v 0.28 h 3.767 z m 21.717,0 h -0.177 l -0.286,-0.007 -0.231,-0.02 -0.176,-0.035 -0.122,-0.048 -0.086,-0.066 -0.069,-0.088 -0.053,-0.11 -0.035,-0.132 -0.024,-0.188 -0.018,-0.275 -0.01,-0.363 -0.003,-0.45 v -4.06 l 0.003,-0.472 0.01,-0.377 0.018,-0.284 0.024,-0.189 0.036,-0.132 0.056,-0.114 0.074,-0.095 0.092,-0.077 0.122,-0.059 0.163,-0.042 0.204,-0.025 0.245,-0.008 h 0.243 v -0.281 h -3.784 v 0.281 h 0.244 l 0.259,0.009 0.213,0.027 0.167,0.046 0.122,0.064 0.09,0.083 0.071,0.103 0.051,0.122 0.033,0.141 0.02,0.193 0.014,0.278 0.009,0.362 0.003,0.446 v 4.06 l -0.004,0.468 -0.012,0.374 -0.02,0.279 -0.029,0.185 -0.039,0.127 -0.056,0.104 -0.071,0.083 -0.087,0.062 -0.121,0.044 -0.174,0.031 -0.227,0.019 -0.279,0.006 h -0.177 v 0.28 h 3.784 z m 74.109,-6.57 3.033,6.85 h 2.521 v -0.281 h -0.225 l -0.287,-0.007 -0.231,-0.02 -0.176,-0.034 -0.121,-0.049 -0.085,-0.066 -0.069,-0.088 -0.053,-0.11 -0.037,-0.132 -0.025,-0.188 -0.018,-0.275 -0.011,-0.362 -0.004,-0.451 v -3.601 l 0.005,-0.473 0.014,-0.391 0.022,-0.311 0.032,-0.229 0.053,-0.182 0.085,-0.167 0.118,-0.152 0.15,-0.137 0.179,-0.116 0.203,-0.086 0.228,-0.059 0.253,-0.029 v -0.281 h -2.96 v 0.281 l 0.271,0.033 0.238,0.062 0.207,0.092 0.175,0.121 0.143,0.141 0.11,0.153 0.079,0.163 0.046,0.175 0.027,0.22 0.019,0.299 0.011,0.378 0.004,0.458 v 4.847 l -3.302,-7.423 h -0.287 l -3.277,7.423 v -5.268 l 0.004,-0.472 0.011,-0.377 0.018,-0.284 0.025,-0.189 0.038,-0.132 0.057,-0.114 0.075,-0.095 0.093,-0.077 0.122,-0.059 0.162,-0.042 0.202,-0.025 0.243,-0.008 h 0.292 v -0.281 h -3.957 v 0.281 h 0.367 l 0.258,0.009 0.213,0.027 0.167,0.046 0.122,0.064 0.09,0.083 0.071,0.103 0.052,0.122 0.034,0.141 0.022,0.193 0.015,0.278 0.009,0.362 0.003,0.446 v 4.059 l -0.004,0.468 -0.012,0.374 -0.02,0.28 -0.028,0.184 -0.04,0.127 -0.055,0.104 -0.071,0.083 -0.087,0.062 -0.121,0.044 -0.173,0.031 -0.226,0.019 -0.278,0.006 h -0.305 v 0.281 h 2.539 z m -206.9005,6.887 1.3611,-0.036 v -0.28 h -0.1588 l -0.2868,-0.007 -0.2315,-0.021 -0.1761,-0.034 -0.1208,-0.048 -0.0852,-0.066 -0.069,-0.09 -0.0531,-0.112 -0.037,-0.135 -0.0254,-0.191 -0.0181,-0.281 -0.0109,-0.369 -0.0036,-0.459 v -4.029 l 0.0034,-0.472 0.0103,-0.377 0.0172,-0.284 0.0241,-0.189 0.0368,-0.132 0.0555,-0.114 0.0743,-0.095 0.0929,-0.077 0.1227,-0.059 0.1635,-0.042 0.2044,-0.025 0.2453,-0.008 h 0.3176 v -0.282 h -3.249 l -0.577,0.011 -0.5155,0.032 -0.454,0.055 -0.3926,0.076 -0.3456,0.111 -0.3132,0.161 -0.2807,0.209 -0.2483,0.258 -0.2031,0.295 -0.145,0.323 -0.087,0.35 -0.029,0.378 0.0428,0.43 0.1286,0.392 0.2142,0.355 0.3,0.318 0.3881,0.268 0.4786,0.207 0.5691,0.144 0.6597,0.083 -0.5491,0.106 -0.4755,0.145 -0.4018,0.184 -0.3283,0.225 -0.255,0.264 -0.1822,0.303 -0.1093,0.344 -0.0364,0.383 0.2121,0.854 0.6362,0.611 1.0605,0.366 1.4846,0.122 z m -2.2207,-4.058 -0.5386,-0.091 -0.4336,-0.151 -0.3286,-0.213 -0.2417,-0.276 -0.1727,-0.344 -0.1035,-0.411 -0.0346,-0.479 0.0306,-0.47 0.0915,-0.407 0.1526,-0.344 0.2137,-0.281 0.2747,-0.219 0.3357,-0.157 0.3968,-0.094 0.4579,-0.031 0.2519,0.01 0.2066,0.031 0.1612,0.052 0.1158,0.072 0.0841,0.092 0.0662,0.111 0.0483,0.13 0.0303,0.149 0.0187,0.213 0.0134,0.32 0.008,0.428 0.0027,0.535 v 1.844 l -0.1206,0.005 -0.1175,0.004 -0.1145,0.002 -0.1114,10e-4 z m 0.1966,3.796 -0.3564,-0.036 -0.2894,-0.06 -0.2224,-0.084 -0.177,-0.106 -0.1535,-0.127 -0.1298,-0.147 -0.1062,-0.166 -0.0827,-0.196 -0.059,-0.231 -0.0354,-0.269 -0.0118,-0.305 0.0301,-0.432 0.0902,-0.367 0.1504,-0.304 0.2106,-0.239 0.2928,-0.182 0.3971,-0.13 0.5014,-0.077 0.6058,-0.026 h 0.256 v 3.478 l -0.1242,0.008 -0.1226,0.005 -0.1211,0.004 -0.1196,0.001 z m 78.9826,-0.056 h -0.146 l -0.287,-0.007 -0.232,-0.02 -0.176,-0.034 -0.121,-0.049 -0.085,-0.066 -0.069,-0.088 -0.053,-0.11 -0.037,-0.132 -0.026,-0.188 -0.018,-0.275 -0.011,-0.362 -0.003,-0.451 v -4.059 l 0.003,-0.472 0.011,-0.377 0.018,-0.284 0.026,-0.189 0.038,-0.132 0.056,-0.114 0.075,-0.095 0.093,-0.077 0.123,-0.059 0.164,-0.042 0.204,-0.025 0.245,-0.008 h 0.257 v -0.281 h -3.848 v 0.281 h 0.281 l 0.26,0.009 0.215,0.027 0.168,0.046 0.122,0.064 0.09,0.083 0.071,0.103 0.053,0.121 0.034,0.142 0.021,0.193 0.015,0.277 0.009,0.362 0.003,0.446 v 2.057 h -0.773 l -0.28,-0.007 -0.229,-0.022 -0.18,-0.035 -0.13,-0.049 -0.099,-0.069 -0.086,-0.093 -0.072,-0.117 -0.06,-0.142 -0.047,-0.167 -0.033,-0.196 -0.02,-0.223 -0.007,-0.251 h -0.305 v 2.92 h 0.305 l 0.016,-0.351 0.046,-0.286 0.077,-0.223 0.108,-0.159 0.155,-0.111 0.217,-0.079 0.281,-0.048 0.343,-0.016 h 0.773 v 3.509 h -1.615 l -0.357,-0.007 -0.3,-0.02 -0.245,-0.034 -0.189,-0.048 -0.16,-0.076 -0.157,-0.117 -0.153,-0.159 -0.149,-0.2 -0.135,-0.235 -0.108,-0.265 -0.083,-0.294 -0.055,-0.324 h -0.287 l 0.067,2.06 h 6.383 z m 91.446,0.001 -0.385,-0.042 -0.274,-0.103 -0.165,-0.163 -0.055,-0.223 0.055,-0.196 0.165,-0.253 0.274,-0.309 0.384,-0.365 2.524,-2.277 v 2.149 l -0.004,0.468 -0.012,0.374 -0.02,0.279 -0.028,0.185 -0.04,0.127 -0.055,0.104 -0.071,0.083 -0.087,0.062 -0.121,0.044 -0.173,0.031 -0.226,0.019 -0.278,0.006 h -0.152 v 0.28 h 3.663 v -0.28 l -0.317,-0.006 -0.253,-0.018 -0.19,-0.031 -0.126,-0.042 -0.087,-0.061 -0.071,-0.083 -0.056,-0.106 -0.04,-0.129 -0.028,-0.187 -0.02,-0.28 -0.012,-0.373 -0.004,-0.466 v -4.06 l 0.004,-0.472 0.011,-0.377 0.018,-0.284 0.025,-0.189 0.038,-0.132 0.057,-0.114 0.075,-0.095 0.093,-0.077 0.123,-0.059 0.163,-0.042 0.205,-0.025 0.245,-0.008 h 0.256 v -0.281 h -3.715 v 0.281 h 0.158 l 0.257,0.009 0.212,0.027 0.167,0.046 0.121,0.064 0.09,0.083 0.07,0.103 0.053,0.122 0.033,0.141 0.022,0.193 0.015,0.278 0.009,0.362 0.003,0.446 v 1.508 l -0.59,0.519 -2.336,-2.357 -0.387,-0.403 -0.276,-0.325 -0.166,-0.246 -0.055,-0.167 0.01,-0.082 0.032,-0.075 0.054,-0.069 0.074,-0.061 0.118,-0.051 0.184,-0.036 0.249,-0.022 0.315,-0.007 h 0.165 v -0.281 h -4.297 v 0.281 l 0.273,0.014 0.247,0.042 0.22,0.071 0.193,0.099 0.224,0.166 0.312,0.273 0.399,0.38 0.487,0.487 3.101,3.132 -1.506,1.392 -0.405,0.376 -0.335,0.306 -0.265,0.235 -0.197,0.163 -0.165,0.122 -0.174,0.11 -0.181,0.098 -0.19,0.085 -0.193,0.07 -0.193,0.05 -0.193,0.029 -0.192,0.01 v 0.286 h 3.116 z m -187.0342,-5.348 0.1167,-0.275 0.0878,-0.21 0.0587,-0.144 0.0298,-0.079 0.1824,-0.444 0.1687,-0.359 0.1549,-0.277 0.1412,-0.193 0.1519,-0.137 0.1869,-0.111 0.2221,-0.083 0.2571,-0.056 v -0.281 h -2.4595 v 0.281 l 0.1894,0.012 0.1715,0.036 0.1535,0.06 0.1356,0.084 0.1108,0.107 0.0791,0.13 0.0475,0.152 0.0158,0.174 -0.0297,0.224 -0.0893,0.322 -0.1488,0.421 -0.2082,0.52 -0.2136,0.524 h -3.1455 l -0.6351,-1.529 -0.1228,-0.299 -0.0878,-0.233 -0.0527,-0.166 -0.0176,-0.1 0.0132,-0.121 0.0395,-0.098 0.0659,-0.077 0.0921,-0.055 0.1296,-0.039 0.178,-0.027 0.2265,-0.017 0.2749,-0.005 v -0.281 H 65.685 v 0.281 l 0.2032,0.029 0.1761,0.045 0.149,0.06 0.122,0.076 0.1028,0.092 0.0918,0.108 0.0808,0.123 0.0696,0.138 0.3786,0.867 2.7661,6.573 h 0.2383 z m -3.5295,0.675 h 2.9259 l -1.4598,3.529 z m 59.2297,5.036 0.505,-0.016 0.642,-0.027 0.782,-0.037 1.361,-0.068 v -0.28 h -0.244 l -0.287,-0.007 -0.231,-0.02 -0.176,-0.034 -0.121,-0.046 -0.085,-0.065 -0.069,-0.088 -0.053,-0.111 -0.037,-0.133 -0.025,-0.189 -0.018,-0.276 -0.011,-0.363 -0.004,-0.451 v -3.993 l 0.004,-0.472 0.011,-0.377 0.018,-0.284 0.025,-0.189 0.039,-0.132 0.056,-0.114 0.075,-0.095 0.093,-0.077 0.122,-0.059 0.164,-0.042 0.204,-0.025 0.245,-0.008 h 0.341 v -0.282 h -3.667 l -0.486,0.004 -0.429,0.012 -0.37,0.02 -0.313,0.028 -0.288,0.044 -0.295,0.069 -0.304,0.093 -0.312,0.118 -0.306,0.144 -0.287,0.175 -0.268,0.204 -0.249,0.234 -0.227,0.265 -0.201,0.297 -0.176,0.329 -0.15,0.361 -0.12,0.386 -0.086,0.407 -0.051,0.425 -0.017,0.445 0.031,0.611 0.095,0.573 0.157,0.537 0.22,0.499 0.285,0.456 0.35,0.406 0.417,0.355 0.482,0.306 0.567,0.246 0.667,0.176 0.769,0.105 0.871,0.035 z m -0.662,-0.3 -0.416,-0.035 -0.373,-0.058 -0.33,-0.081 -0.301,-0.114 -0.287,-0.155 -0.274,-0.196 -0.26,-0.237 -0.238,-0.278 -0.209,-0.315 -0.18,-0.355 -0.15,-0.392 -0.119,-0.427 -0.085,-0.454 -0.051,-0.483 -0.016,-0.511 0.029,-0.644 0.087,-0.585 0.146,-0.525 0.204,-0.465 0.247,-0.399 0.277,-0.327 0.304,-0.256 0.333,-0.184 0.372,-0.129 0.42,-0.093 0.467,-0.055 0.516,-0.019 0.337,0.009 0.273,0.027 0.21,0.045 0.146,0.062 0.103,0.085 0.08,0.112 0.057,0.137 0.034,0.164 0.02,0.232 0.015,0.34 0.008,0.45 0.003,0.559 v 5.531 l -0.237,0.014 -0.235,0.009 -0.234,0.006 -0.233,0.002 z m -38.357,11.94 h -0.3 v 60 h 0.3 z m 133,0 h -0.3 v 60 h 0.3 z m -114,0 h -0.3 v 60 h 0.3 z m 171,0 h -0.3 v 60 h 0.3 z m 19,0 h -0.3 v 60 h 0.3 z m -133,0 h -0.3 v 60 h 0.3 z m 152,0 h -0.3 v 60 h 0.3 z m -114,0 h -0.3 v 60 h 0.3 z m -133,0 h -0.3 v 60 h 0.3 z m 57,0 h -0.3 v 60 h 0.3 z m 114,0 h -0.3 v 60 h 0.3 z m 95,0 h -0.3 v 60 h 0.3 z m -152,0 h -0.3 v 60 h 0.3 z m 76,0 h -0.3 v 60 h 0.3 z m -114,0 h -0.3 v 60 h 0.3 z m -94.986,35.078 0.6341,-0.164 0.567,-0.273 0.4998,-0.382 0.408,-0.467 0.2914,-0.529 0.1749,-0.59 0.0583,-0.652 -0.0395,-0.543 -0.1183,-0.495 -0.1973,-0.447 -0.2761,-0.399 -0.3447,-0.328 -0.4028,-0.234 -0.461,-0.141 -0.5193,-0.046 -0.1156,0.004 -0.1156,0.012 -0.1156,0.021 -0.1156,0.03 0.6042,-0.418 0.4739,-0.333 0.3998,-0.313 0.3257,-0.293 0.2515,-0.273 0.1877,-0.268 0.1341,-0.279 0.0804,-0.29 0.0268,-0.3 -0.0394,-0.339 -0.1182,-0.322 -0.197,-0.306 -0.2758,-0.29 -0.3527,-0.246 -0.4278,-0.176 -0.5029,-0.106 -0.5779,-0.035 -0.5703,0.042 -0.5096,0.126 -0.449,0.209 -0.3884,0.294 -0.3133,0.346 -0.2238,0.365 -0.1343,0.384 -0.0447,0.404 0.0126,0.202 0.0378,0.194 0.0631,0.186 0.0882,0.179 0.1028,0.154 0.1064,0.109 0.1102,0.066 0.1139,0.022 0.0644,-0.007 0.0811,-0.021 0.098,-0.035 0.1147,-0.049 0.1077,-0.055 0.0769,-0.053 0.0462,-0.051 0.0154,-0.05 -0.0033,-0.019 -0.0098,-0.022 -0.0163,-0.023 -0.0228,-0.025 -0.1991,-0.236 -0.1422,-0.243 -0.0853,-0.253 -0.0285,-0.26 0.0324,-0.317 0.0972,-0.288 0.1619,-0.258 0.2268,-0.229 0.2687,-0.188 0.2878,-0.134 0.307,-0.08 0.3261,-0.027 0.3118,0.026 0.2792,0.079 0.2466,0.132 0.2139,0.185 0.1729,0.232 0.1235,0.276 0.0741,0.319 0.0247,0.362 -0.0237,0.386 -0.0713,0.351 -0.1189,0.317 -0.1663,0.282 -0.2401,0.282 -0.3398,0.315 -0.4396,0.349 -0.5392,0.382 -0.2422,0.167 -0.1895,0.136 -0.1368,0.105 -0.0842,0.074 -0.0505,0.057 -0.0361,0.055 -0.0217,0.055 -0.0072,0.053 0.014,0.104 0.042,0.074 0.0699,0.045 0.098,0.015 0.0554,-0.007 0.0546,-0.021 0.0536,-0.035 0.0527,-0.049 0.3032,-0.274 0.29,-0.195 0.2771,-0.118 0.264,-0.039 0.2884,0.036 0.2683,0.106 0.2483,0.177 0.2283,0.248 0.191,0.32 0.1364,0.393 0.0819,0.467 0.0273,0.541 -0.0366,0.672 -0.1098,0.578 -0.183,0.484 -0.2563,0.39 -0.3149,0.3 -0.3593,0.214 -0.4035,0.128 -0.4478,0.043 -0.187,-0.012 -0.1879,-0.038 -0.1889,-0.063 -0.1897,-0.088 -0.1828,-0.127 -0.1604,-0.188 -0.138,-0.248 -0.1157,-0.309 -0.0961,-0.231 -0.124,-0.166 -0.152,-0.099 -0.18,-0.033 -0.103,0.01 -0.0928,0.028 -0.0825,0.048 -0.0723,0.067 -0.0587,0.081 -0.042,0.088 -0.0252,0.096 -0.0084,0.105 0.0443,0.253 0.1329,0.245 0.2215,0.236 0.3101,0.228 0.3716,0.196 0.4061,0.14 0.4406,0.084 0.4751,0.028 z m 304.438,0.012 0.509,-0.126 0.449,-0.209 0.389,-0.294 0.313,-0.346 0.224,-0.365 0.134,-0.384 0.045,-0.404 -0.013,-0.202 -0.038,-0.194 -0.063,-0.186 -0.088,-0.179 -0.103,-0.154 -0.106,-0.109 -0.11,-0.066 -0.114,-0.022 -0.064,0.007 -0.082,0.021 -0.098,0.035 -0.114,0.049 -0.108,0.055 -0.077,0.053 -0.046,0.051 -0.015,0.05 0.003,0.019 0.01,0.022 0.016,0.023 0.023,0.025 0.199,0.236 0.142,0.243 0.085,0.253 0.029,0.26 -0.033,0.317 -0.097,0.288 -0.162,0.258 -0.226,0.229 -0.269,0.188 -0.288,0.134 -0.307,0.08 -0.326,0.027 -0.312,-0.026 -0.279,-0.079 -0.247,-0.132 -0.214,-0.185 -0.173,-0.232 -0.123,-0.276 -0.074,-0.319 -0.025,-0.362 0.024,-0.386 0.071,-0.351 0.119,-0.317 0.166,-0.282 0.241,-0.282 0.339,-0.315 0.44,-0.349 0.539,-0.382 0.242,-0.167 0.19,-0.136 0.137,-0.105 0.084,-0.074 0.05,-0.057 0.036,-0.055 0.022,-0.055 0.007,-0.053 -0.014,-0.104 -0.042,-0.074 -0.07,-0.045 -0.098,-0.015 -0.055,0.007 -0.055,0.021 -0.053,0.035 -0.053,0.049 -0.303,0.274 -0.29,0.195 -0.277,0.118 -0.264,0.039 -0.289,-0.036 -0.268,-0.106 -0.248,-0.177 -0.228,-0.248 -0.192,-0.32 -0.136,-0.393 -0.082,-0.467 -0.027,-0.541 0.037,-0.672 0.109,-0.578 0.183,-0.484 0.257,-0.39 0.315,-0.3 0.359,-0.214 0.403,-0.128 0.448,-0.043 0.187,0.012 0.188,0.038 0.189,0.063 0.19,0.088 0.182,0.127 0.161,0.188 0.138,0.248 0.116,0.309 0.096,0.231 0.124,0.166 0.152,0.099 0.18,0.033 0.103,-0.01 0.092,-0.028 0.083,-0.048 0.072,-0.067 0.059,-0.081 0.042,-0.088 0.025,-0.096 0.008,-0.105 -0.044,-0.253 -0.133,-0.245 -0.221,-0.236 -0.31,-0.228 -0.372,-0.196 -0.406,-0.14 -0.441,-0.084 -0.475,-0.028 -0.701,0.054 -0.634,0.164 -0.567,0.273 -0.5,0.382 -0.408,0.467 -0.291,0.529 -0.175,0.59 -0.058,0.652 0.039,0.543 0.118,0.495 0.198,0.447 0.276,0.399 0.344,0.328 0.403,0.234 0.461,0.141 0.519,0.046 0.116,-0.004 0.116,-0.012 0.115,-0.021 0.116,-0.03 -0.604,0.418 -0.474,0.333 -0.4,0.313 -0.326,0.293 -0.251,0.273 -0.188,0.268 -0.134,0.279 -0.08,0.29 -0.027,0.3 0.039,0.339 0.118,0.322 0.197,0.306 0.276,0.29 0.353,0.246 0.428,0.176 0.503,0.106 0.578,0.035 z m -209.452,33.91 h -0.3 v 60 h 0.3 z m 76,0 h -0.3 v 60 h 0.3 z m 114,0 h -0.3 v 60 h 0.3 z m -19,0 h -0.3 v 60 h 0.3 z m -228,0 h -0.3 v 60 h 0.3 z m 38,29.344 9.302,9.302 0.212,-0.212 -9.44,-9.44 9.44,-9.44 -0.212,-0.212 -9.302,9.302 v -28.644 h -0.3 v 28.62 l -9.278,-9.278 -0.212,0.212 9.44,9.44 -9.44,9.44 0.212,0.212 9.278,-9.278 v 30.632 h 0.3 z m -19,-29.344 h -0.3 v 60 h 0.3 z m 190,0 h -0.3 v 60 h 0.3 z m -38,0 h -0.3 v 60 h 0.3 z m -19,0 h -0.3 v 60 h 0.3 z m 38,29.344 9.302,9.302 0.212,-0.212 -9.44,-9.44 9.44,-9.44 -0.212,-0.212 -9.302,9.302 v -28.644 h -0.3 v 28.62 l -9.278,-9.278 -0.212,0.212 9.44,9.44 -9.44,9.44 0.212,0.212 9.278,-9.278 v 30.632 h 0.3 z m -114,-29.344 h -0.3 v 60 h 0.3 z m 19,0 h -0.3 v 60 h 0.3 z m 19,43.562 13.562,-13.562 -13.562,-13.562 v -16.438 h -0.3 v 16.438 l -13.562,13.562 13.562,13.562 v 16.438 h 0.3 z m 0,-26.7 13.138,13.138 -13.138,13.138 z m -13.438,13.138 13.138,-13.138 v 26.276 z m -119.562,-30 h -0.3 v 60 h 0.3 z m -16.3797,33.728 h -4.742 l 0.5114,-0.449 0.5874,-0.546 0.6633,-0.645 0.7393,-0.744 0.7053,-0.742 0.5613,-0.64 0.4173,-0.538 0.2733,-0.437 0.1762,-0.392 0.1259,-0.402 0.0755,-0.413 0.0251,-0.423 -0.0561,-0.641 -0.1686,-0.557 -0.2809,-0.472 -0.3933,-0.389 -0.4632,-0.304 -0.4907,-0.217 -0.5183,-0.13 -0.5457,-0.043 -0.519,0.042 -0.4975,0.125 -0.476,0.208 -0.4546,0.293 -0.3884,0.363 -0.2774,0.423 -0.1665,0.481 -0.0554,0.541 0.0198,0.339 0.0595,0.306 0.0992,0.274 0.1389,0.241 0.153,0.198 0.1412,0.141 0.1296,0.084 0.1179,0.029 0.0877,-0.015 0.099,-0.043 0.1102,-0.073 0.1214,-0.101 0.1112,-0.109 0.0794,-0.098 0.0476,-0.085 0.0159,-0.073 -0.014,-0.046 -0.0419,-0.055 -0.07,-0.064 -0.0978,-0.074 -0.2642,-0.228 -0.1887,-0.264 -0.1132,-0.303 -0.0377,-0.339 0.0291,-0.309 0.0873,-0.299 0.1456,-0.29 0.2038,-0.281 0.257,-0.241 0.3049,-0.173 0.3529,-0.103 0.4009,-0.035 0.4147,0.038 0.3793,0.112 0.3439,0.188 0.3084,0.263 0.2544,0.342 0.1817,0.427 0.109,0.511 0.0364,0.596 -0.0359,0.532 -0.1077,0.529 -0.1795,0.527 -0.2512,0.523 -0.3326,0.547 -0.4234,0.596 -0.5143,0.644 -0.6052,0.694 -0.6225,0.67 -0.5661,0.573 -0.5096,0.477 -0.4533,0.38 v 0.462 h 4.3925 l 0.192,0.002 0.151,0.008 0.11,0.013 0.069,0.018 0.0425,0.032 0.0303,0.054 0.0182,0.078 0.0061,0.1 -0.0014,0.06 -0.0042,0.054 -0.0071,0.047 -0.0098,0.04 -0.0195,0.067 -0.014,0.067 -0.0083,0.067 -0.0028,0.067 h 0.3505 z m 301.7757,1.626 0.498,-0.125 0.476,-0.208 0.454,-0.293 0.389,-0.363 0.277,-0.423 0.167,-0.481 0.055,-0.541 -0.02,-0.339 -0.059,-0.306 -0.1,-0.274 -0.138,-0.241 -0.153,-0.198 -0.142,-0.141 -0.129,-0.084 -0.118,-0.029 -0.088,0.015 -0.099,0.043 -0.11,0.073 -0.121,0.101 -0.112,0.109 -0.079,0.098 -0.048,0.085 -0.015,0.073 0.013,0.046 0.042,0.055 0.07,0.064 0.098,0.074 0.264,0.228 0.189,0.264 0.113,0.303 0.038,0.339 -0.029,0.309 -0.087,0.299 -0.146,0.29 -0.204,0.281 -0.257,0.241 -0.305,0.173 -0.353,0.103 -0.401,0.035 -0.414,-0.038 -0.38,-0.112 -0.343,-0.188 -0.309,-0.263 -0.254,-0.342 -0.182,-0.427 -0.109,-0.511 -0.036,-0.596 0.036,-0.532 0.107,-0.529 0.18,-0.527 0.251,-0.523 0.333,-0.547 0.423,-0.596 0.514,-0.644 0.606,-0.694 0.622,-0.67 0.566,-0.573 0.51,-0.477 0.453,-0.38 v -0.462 h -4.392 l -0.193,-0.002 -0.151,-0.008 -0.11,-0.013 -0.069,-0.018 -0.042,-0.032 -0.03,-0.054 -0.019,-0.078 -0.006,-0.1 0.002,-0.06 0.004,-0.054 0.007,-0.047 0.01,-0.04 0.019,-0.067 0.014,-0.067 0.009,-0.067 0.003,-0.067 h -0.351 l -0.425,1.668 h 4.742 l -0.512,0.449 -0.587,0.546 -0.663,0.645 -0.74,0.744 -0.705,0.742 -0.561,0.64 -0.418,0.538 -0.273,0.437 -0.176,0.392 -0.126,0.402 -0.075,0.413 -0.026,0.423 0.057,0.641 0.168,0.557 0.281,0.472 0.393,0.389 0.463,0.304 0.491,0.217 0.518,0.13 0.546,0.043 z m -190.396,33.646 h -0.3 v 60.000003 h 0.3 z m 152,0 h -0.3 v 60.000003 h 0.3 z m -57,0 h -0.3 v 60.000003 h 0.3 z m -76,0 h -0.3 v 60.000003 h 0.3 z m 95,0 h -0.3 v 60.000003 h 0.3 z m -38,0 h -0.3 v 60.000003 h 0.3 z m 57,0 h -0.3 v 60.000003 h 0.3 z m -152,0 h -0.3 v 60.000003 h 0.3 z m -76,0 h -0.3 v 60.000003 h 0.3 z m 19,0 h -0.3 v 60.000003 h 0.3 z m 38,0 h -0.3 v 60.000003 h 0.3 z m 209,0 h -0.3 v 60.000003 h 0.3 z m -133,0 h -0.3 v 60.000003 h 0.3 z m -95,0 h -0.3 v 60.000003 h 0.3 z m 114,0 h -0.3 v 60.000003 h 0.3 z m 132.928,34.791903 0.434,-0.1583 0.519,-0.0994 0.603,-0.0406 v -0.3435 h -0.321 l -0.241,-0.01 -0.197,-0.0301 -0.151,-0.0501 -0.107,-0.0702 -0.074,-0.0835 -0.057,-0.09 -0.038,-0.0965 -0.021,-0.1031 -0.009,-0.156 -0.007,-0.2553 -0.005,-0.3546 -0.001,-0.454 v -5.3125 l 0.002,-0.4605 0.005,-0.3593 0.008,-0.2582 0.011,-0.1569 0.022,-0.1026 0.038,-0.0952 0.055,-0.0876 0.071,-0.0803 0.104,-0.0669 0.151,-0.0478 0.197,-0.0286 0.245,-0.0096 h 0.246 v -0.3432 h -3.358 v 0.3432 h 0.291 l 0.221,0.0084 0.185,0.0252 0.148,0.042 0.112,0.0587 0.083,0.0747 0.064,0.0895 0.043,0.1045 0.023,0.1194 0.012,0.1721 0.008,0.2626 0.005,0.353 0.001,0.4435 v 7.9247 h 0.328 z m -302.2796,-0.1226 h -0.2917 l -0.2211,-0.0084 -0.1847,-0.0252 -0.1482,-0.042 -0.1117,-0.0587 -0.0834,-0.0747 -0.0634,-0.0895 -0.0432,-0.1045 -0.0232,-0.1194 -0.0114,-0.1721 -0.0082,-0.2626 -0.0049,-0.353 -0.0017,-0.4435 v -7.9247 h -0.3281 l -0.351,0.2171 -0.4349,0.1583 -0.5186,0.0994 -0.6026,0.0406 v 0.3435 h 0.3201 l 0.2418,0.01 0.1966,0.0301 0.1515,0.0501 0.1063,0.0702 0.0747,0.0835 0.0566,0.09 0.0384,0.0965 0.0202,0.1031 0.0098,0.156 0.0069,0.2553 0.0042,0.3546 0.0014,0.454 v 5.3125 l -0.0016,0.4605 -0.0049,0.3593 -0.0081,0.2582 -0.0114,0.1569 -0.0215,0.1026 -0.0381,0.0952 -0.055,0.0876 -0.0717,0.0803 -0.1036,0.0669 -0.1506,0.0478 -0.1976,0.0286 -0.2447,0.0096 h -0.2457 v 0.3432 h 3.358 z m 284.1616,45.4061 0.866,-0.2232 0.768,-0.372 0.67,-0.5207 0.543,-0.6409 0.388,-0.7325 0.233,-0.8241 0.078,-0.9156 -0.081,-0.9396 -0.243,-0.8351 -0.406,-0.7306 -0.567,-0.6261 -0.689,-0.5021 -0.768,-0.3586 -0.847,-0.2152 -0.928,-0.0717 -0.919,0.0724 -0.839,0.2175 -0.76,0.3625 -0.68,0.5074 -0.561,0.6272 -0.4,0.7218 -0.241,0.8164 -0.08,0.9111 0.079,0.9343 0.237,0.8374 0.395,0.7405 0.553,0.6436 0.676,0.5207 0.764,0.372 0.853,0.2232 0.941,0.0744 z m -1.625,-0.2935 -0.647,-0.1877 -0.547,-0.3128 -0.448,-0.4379 -0.348,-0.5627 -0.249,-0.6871 -0.149,-0.8115 -0.05,-0.9359 0.05,-0.9226 0.149,-0.8025 0.249,-0.6823 0.348,-0.5621 0.441,-0.4393 0.529,-0.3138 0.617,-0.1883 0.703,-0.0628 0.715,0.0643 0.624,0.1929 0.535,0.3214 0.444,0.45 0.35,0.5705 0.25,0.6831 0.149,0.7956 0.05,0.9082 -0.05,0.9305 -0.152,0.8076 -0.254,0.6848 -0.355,0.562 -0.442,0.4379 -0.516,0.3128 -0.588,0.1877 -0.662,0.0626 z m -150.929,0.3434 0.471,-0.0732 0.49,-0.1222 0.509,-0.1709 0.364,-0.1255 0.326,-0.0897 0.29,-0.0538 0.254,-0.0179 0.059,0.0015 0.064,0.0046 0.068,0.0076 0.071,0.0106 v -0.8785 l 0.004,-0.4844 0.013,-0.3857 0.021,-0.287 0.029,-0.1882 0.043,-0.1289 0.06,-0.109 0.078,-0.0892 0.096,-0.0694 0.129,-0.0521 0.177,-0.0371 0.224,-0.0223 0.272,-0.0075 v -0.2937 h -3.571 v 0.2937 h 0.195 l 0.225,0.0048 0.187,0.0143 0.149,0.0238 0.111,0.0334 0.085,0.0473 0.074,0.0656 0.062,0.0839 0.05,0.1021 0.039,0.139 0.028,0.1943 0.016,0.2495 0.006,0.3049 -0.012,0.2715 -0.035,0.2471 -0.059,0.2226 -0.083,0.1983 -0.115,0.179 -0.157,0.1649 -0.197,0.1509 -0.239,0.1366 -0.266,0.1135 -0.281,0.081 -0.296,0.0486 -0.31,0.0162 -0.594,-0.0574 -0.543,-0.1722 -0.494,-0.287 -0.443,-0.4019 -0.365,-0.5396 -0.262,-0.7002 -0.156,-0.8608 -0.052,-1.0213 0.054,-1.0208 0.162,-0.853 0.271,-0.6851 0.379,-0.5173 0.452,-0.3792 0.489,-0.2708 0.527,-0.1626 0.564,-0.0541 0.543,0.0465 0.501,0.1396 0.459,0.2328 0.416,0.3257 0.357,0.4055 0.28,0.4719 0.203,0.5382 0.127,0.6046 h 0.294 v -2.7648 h -0.294 l -0.036,0.2429 -0.055,0.2346 -0.074,0.2262 -0.092,0.2179 -0.579,-0.5343 -0.65,-0.3816 -0.723,-0.2289 -0.794,-0.0763 -0.914,0.0835 -0.814,0.2507 -0.712,0.4177 -0.612,0.5849 -0.492,0.6959 -0.351,0.7508 -0.21,0.8057 -0.07,0.8607 0.073,0.8582 0.221,0.78 0.368,0.7018 0.516,0.6235 0.626,0.5114 0.702,0.3653 0.776,0.2192 0.85,0.0731 z m -75.3769,-0.0527 0.7351,-0.2316 0.6598,-0.386 0.584,-0.5403 0.132,0.1963 0.11,0.2108 0.089,0.2253 0.066,0.2398 h 0.262 v -2.8973 h -0.262 l -0.058,0.3637 -0.099,0.3703 -0.14,0.3767 -0.182,0.3833 -0.221,0.3584 -0.258,0.3022 -0.293,0.2462 -0.3299,0.1899 -0.3459,0.1417 -0.342,0.1012 -0.3383,0.0607 -0.3344,0.0203 -0.5968,-0.0621 -0.5457,-0.186 -0.4947,-0.3101 -0.4435,-0.4341 -0.3657,-0.5505 -0.2612,-0.6593 -0.1568,-0.768 -0.0522,-0.8768 0.0478,-0.9263 0.1436,-0.8125 0.2393,-0.6987 0.335,-0.5851 0.4163,-0.4621 0.483,-0.3301 0.5497,-0.1981 0.6165,-0.066 0.5173,0.0408 0.4902,0.1225 0.4631,0.2041 0.4363,0.2857 0.387,0.3903 0.315,0.5177 0.245,0.6451 0.173,0.7724 h 0.262 l -0.073,-3.1372 h -0.269 l -0.04,0.2754 -0.067,0.2709 -0.092,0.2662 -0.118,0.2617 -0.21,-0.2268 -0.258,-0.2164 -0.305,-0.2062 -0.3534,-0.1958 -0.3877,-0.1669 -0.4095,-0.1192 -0.4313,-0.0715 -0.453,-0.0238 -0.5501,0.0328 -0.5273,0.0984 -0.5043,0.1641 -0.4814,0.2296 -0.444,0.2974 -0.3922,0.3672 -0.3403,0.4371 -0.2884,0.5068 -0.2297,0.5507 -0.164,0.5686 -0.0984,0.5866 -0.0328,0.6045 0.0711,0.8881 0.2135,0.7966 0.3557,0.7051 0.498,0.6134 0.6102,0.4967 0.6922,0.3548 0.7742,0.2129 0.8563,0.071 z m -40.7966,-0.3534 -0.1894,-0.012 -0.1715,-0.036 -0.1535,-0.06 -0.1356,-0.084 -0.1108,-0.1072 -0.0791,-0.1296 -0.0475,-0.1522 -0.0158,-0.1745 0.0297,-0.2232 0.0893,-0.3222 0.1488,-0.4212 0.2082,-0.5202 0.2136,-0.5239 h 3.1455 l 0.6351,1.5292 0.1228,0.299 0.0878,0.2327 0.0527,0.1664 0.0176,0.1002 -0.0132,0.1201 -0.0395,0.0985 -0.0659,0.0768 -0.0921,0.055 -0.1296,0.0386 -0.178,0.0276 -0.2265,0.0166 -0.2749,0.0055 v 0.2808 h 3.2543 v -0.2808 l -0.2032,-0.0292 -0.1761,-0.0448 -0.149,-0.0605 -0.122,-0.0761 -0.1028,-0.0917 -0.0918,-0.1074 -0.0808,-0.123 -0.0696,-0.1387 -0.3786,-0.8667 -2.7661,-6.5734 h -0.2383 l -2.4055,5.7433 -0.1167,0.2754 -0.0878,0.2098 -0.0587,0.1443 -0.0298,0.0786 -0.1824,0.4434 -0.1687,0.3599 -0.1549,0.2764 -0.1412,0.1929 -0.1519,0.1374 -0.1869,0.1105 -0.2221,0.0833 -0.2571,0.0563 v 0.2808 h 2.4595 z m -0.0977,-3.0427 1.4598,-3.5298 1.4661,3.5298 z m 58.5232,3.3195 0.429,-0.012 0.37,-0.02 0.313,-0.0281 0.288,-0.0442 0.295,-0.0687 0.304,-0.0931 0.312,-0.1175 0.306,-0.1447 0.287,-0.1744 0.268,-0.2042 0.249,-0.2339 0.227,-0.2649 0.201,-0.2969 0.176,-0.3289 0.15,-0.361 0.12,-0.3868 0.086,-0.4063 0.051,-0.4257 0.017,-0.4451 -0.031,-0.6104 -0.095,-0.5734 -0.157,-0.5363 -0.22,-0.4993 -0.285,-0.4559 -0.35,-0.4059 -0.417,-0.3558 -0.482,-0.3059 -0.567,-0.2457 -0.667,-0.1755 -0.769,-0.1054 -0.871,-0.0351 -0.365,0.0054 -0.505,0.016 -0.642,0.0267 -0.782,0.0373 -1.361,0.0672 v 0.2809 h 0.244 l 0.287,0.0067 0.231,0.02 0.176,0.0334 0.121,0.0467 0.085,0.0649 0.069,0.0878 0.053,0.1106 0.037,0.1336 0.025,0.1887 0.018,0.276 0.011,0.3634 0.004,0.4508 v 3.9928 l -0.004,0.4718 -0.011,0.3775 -0.018,0.2834 -0.025,0.189 -0.039,0.1326 -0.056,0.1139 -0.075,0.0952 -0.093,0.0765 -0.122,0.0588 -0.164,0.042 -0.204,0.0251 -0.245,0.0084 h -0.341 v 0.2819 h 3.667 z m -0.615,-0.293 -0.273,-0.0269 -0.21,-0.0448 -0.146,-0.0628 -0.103,-0.0849 -0.08,-0.1112 -0.057,-0.1376 -0.034,-0.1639 -0.02,-0.2316 -0.015,-0.3407 -0.008,-0.4499 -0.003,-0.559 v -5.5311 l 0.237,-0.0134 0.235,-0.0096 0.234,-0.0057 0.233,-0.0019 0.46,0.0116 0.416,0.0349 0.373,0.0582 0.33,0.0815 0.301,0.1137 0.287,0.155 0.274,0.1961 0.26,0.2374 0.238,0.2772 0.209,0.3157 0.18,0.3543 0.15,0.3929 0.119,0.4262 0.085,0.4544 0.051,0.4826 0.016,0.5109 -0.029,0.6447 -0.087,0.5848 -0.146,0.5248 -0.204,0.465 -0.247,0.3991 -0.277,0.3273 -0.304,0.2557 -0.333,0.1839 -0.372,0.1295 -0.42,0.0926 -0.467,0.0555 -0.516,0.0185 z m -36.7683,0.2861 0.5155,-0.0326 0.454,-0.0544 0.3926,-0.0761 0.3456,-0.1114 0.3132,-0.1602 0.2807,-0.2091 0.2483,-0.2579 0.2031,-0.2959 0.145,-0.3229 0.087,-0.35 0.029,-0.3771 -0.0428,-0.4301 -0.1286,-0.3926 -0.2142,-0.3552 -0.3,-0.3178 -0.3881,-0.2682 -0.4786,-0.2064 -0.5691,-0.1446 -0.6597,-0.0829 0.5491,-0.1053 0.4755,-0.1449 0.4018,-0.1847 0.3283,-0.2243 0.255,-0.264 0.1822,-0.3037 0.1093,-0.3434 0.0364,-0.3831 -0.2121,-0.8546 -0.6362,-0.6104 -1.0605,-0.3663 -1.4846,-0.1221 -1.5503,0.0488 -1.3611,0.0366 v 0.2799 h 0.1588 l 0.2868,0.0069 0.2315,0.0206 0.1761,0.0344 0.1208,0.048 0.0852,0.0664 0.069,0.0892 0.0531,0.1122 0.037,0.1351 0.0254,0.1911 0.0181,0.2804 0.0109,0.3697 0.0036,0.459 v 4.0289 l -0.0034,0.4718 -0.0103,0.3775 -0.0172,0.2833 -0.0241,0.189 -0.0368,0.1325 -0.0555,0.1139 -0.0743,0.0952 -0.0929,0.0765 -0.1227,0.0588 -0.1635,0.042 -0.2044,0.0251 -0.2453,0.0084 h -0.3176 v 0.2819 h 3.249 z m -1.2599,-4.5568 v -3.4782 l 0.1242,-0.0079 0.1226,-0.0057 0.1211,-0.0034 0.1196,-0.0011 0.4233,0.012 0.3564,0.0361 0.2894,0.06 0.2224,0.0841 0.177,0.1063 0.1535,0.1264 0.1298,0.1466 0.1062,0.1669 0.0827,0.1952 0.059,0.2319 0.0354,0.2685 0.0118,0.3051 -0.0301,0.4317 -0.0902,0.3676 -0.1504,0.3035 -0.2106,0.2395 -0.2928,0.1815 -0.3971,0.1297 -0.5014,0.0778 -0.6058,0.0259 z m 0.7553,4.2694 -0.2066,-0.0309 -0.1612,-0.0515 -0.1158,-0.0721 -0.0841,-0.092 -0.0662,-0.111 -0.0483,-0.1301 -0.0303,-0.1492 -0.0187,-0.2125 -0.0134,-0.3202 -0.008,-0.4277 -0.0027,-0.5354 v -1.8437 l 0.1206,-0.0054 0.1175,-0.0038 0.1145,-0.0022 0.1114,-8e-4 0.6434,0.0303 0.5386,0.0911 0.4336,0.1516 0.3286,0.2124 0.2417,0.2764 0.1727,0.344 0.1035,0.4115 0.0346,0.479 -0.0306,0.4693 -0.0915,0.4068 -0.1526,0.3442 -0.2137,0.2816 -0.2747,0.219 -0.3357,0.1565 -0.3968,0.0938 -0.4579,0.0313 z m 113.3289,0.0175 h -0.214 l -0.255,-0.0092 -0.21,-0.0274 -0.166,-0.0458 -0.121,-0.0641 -0.09,-0.0831 -0.071,-0.1025 -0.052,-0.1219 -0.034,-0.1414 -0.021,-0.1934 -0.016,-0.2777 -0.009,-0.362 -0.003,-0.4465 v -1.9972 h 4.321 v 1.9972 l -0.004,0.472 -0.01,0.3777 -0.017,0.2835 -0.024,0.1891 -0.037,0.1326 -0.056,0.114 -0.074,0.0952 -0.093,0.0765 -0.122,0.0588 -0.163,0.042 -0.202,0.0252 -0.242,0.0084 h -0.287 v 0.2808 h 3.767 v -0.2808 h -0.19 l -0.255,-0.0092 -0.211,-0.0274 -0.167,-0.0458 -0.123,-0.0641 -0.091,-0.083 -0.071,-0.1024 -0.052,-0.1219 -0.033,-0.1414 -0.02,-0.1932 -0.014,-0.2776 -0.009,-0.3619 -0.003,-0.4463 v -4.0597 l 0.004,-0.4685 0.012,-0.3739 0.02,-0.2793 0.028,-0.1846 0.04,-0.1265 0.056,-0.1048 0.071,-0.083 0.086,-0.0612 0.121,-0.0441 0.174,-0.0315 0.226,-0.0189 0.279,-0.0063 h 0.122 v -0.2798 h -3.767 v 0.2798 h 0.219 l 0.287,0.0069 0.232,0.0206 0.176,0.0343 0.12,0.0481 0.085,0.0659 0.069,0.0881 0.052,0.1103 0.036,0.1323 0.024,0.1873 0.017,0.275 0.01,0.3628 0.004,0.4505 v 1.6418 h -4.321 v -1.6413 l 0.004,-0.4683 0.012,-0.3737 0.02,-0.2791 0.028,-0.1845 0.04,-0.1264 0.055,-0.1047 0.071,-0.083 0.087,-0.0612 0.12,-0.0441 0.173,-0.0314 0.223,-0.0189 0.276,-0.0063 h 0.153 v -0.2808 h -3.721 v 0.2808 h 0.152 l 0.286,0.0068 0.231,0.0207 0.176,0.0343 0.12,0.0481 0.085,0.0659 0.069,0.0882 0.053,0.1102 0.037,0.1324 0.025,0.1873 0.018,0.275 0.011,0.3629 0.004,0.4505 v 4.0593 l -0.004,0.4717 -0.011,0.3775 -0.018,0.2832 -0.025,0.1891 -0.038,0.1325 -0.056,0.1139 -0.075,0.0952 -0.093,0.0765 -0.122,0.0588 -0.164,0.0419 -0.203,0.0252 -0.245,0.0084 h -0.213 v 0.2808 h 3.721 z m 80.571,-2.1551 h -0.287 l -0.141,0.4583 -0.148,0.3919 -0.156,0.3254 -0.162,0.2591 -0.169,0.2061 -0.173,0.1663 -0.177,0.1267 -0.183,0.087 -0.209,0.0588 -0.258,0.0419 -0.307,0.0252 -0.357,0.0084 h -0.628 l -0.326,-0.0078 -0.264,-0.0235 -0.201,-0.0391 -0.14,-0.0547 -0.097,-0.0689 -0.077,-0.0815 -0.056,-0.094 -0.035,-0.1067 -0.021,-0.1549 -0.015,-0.2389 -0.01,-0.3228 -0.003,-0.4067 v -4.3344 l 0.004,-0.4685 0.012,-0.3739 0.02,-0.2793 0.028,-0.1846 0.04,-0.1265 0.055,-0.1048 0.071,-0.083 0.087,-0.0612 0.121,-0.0441 0.173,-0.0315 0.226,-0.0189 0.278,-0.0063 h 0.366 v -0.2798 h -3.975 v 0.2798 h 0.184 l 0.287,0.0069 0.231,0.0206 0.177,0.0343 0.121,0.0481 0.085,0.066 0.069,0.0881 0.053,0.1103 0.037,0.1324 0.025,0.1873 0.019,0.2751 0.01,0.3629 0.004,0.4506 v 4.0597 l -0.004,0.4718 -0.01,0.3775 -0.019,0.2833 -0.025,0.1891 -0.038,0.1326 -0.057,0.1139 -0.075,0.0952 -0.093,0.0765 -0.123,0.0588 -0.163,0.0419 -0.205,0.0252 -0.245,0.0084 h -0.245 v 0.2808 h 7.033 z m -58.776,2.1551 h -0.244 l -0.259,-0.0092 -0.213,-0.0274 -0.167,-0.0458 -0.122,-0.0641 -0.09,-0.083 -0.071,-0.1024 -0.051,-0.1219 -0.033,-0.1414 -0.02,-0.1932 -0.014,-0.2776 -0.009,-0.3619 -0.003,-0.4463 v -4.0597 l 0.004,-0.4685 0.012,-0.3739 0.02,-0.2793 0.029,-0.1846 0.039,-0.1265 0.056,-0.1048 0.071,-0.083 0.087,-0.0612 0.121,-0.0441 0.174,-0.0315 0.227,-0.0189 0.279,-0.0063 h 0.177 v -0.2798 h -3.784 v 0.2798 h 0.177 l 0.286,0.0069 0.231,0.0206 0.176,0.0343 0.122,0.0481 0.086,0.066 0.069,0.0881 0.053,0.1103 0.035,0.1324 0.024,0.1873 0.018,0.2751 0.01,0.3629 0.003,0.4506 v 4.0597 l -0.003,0.4718 -0.01,0.3775 -0.018,0.2833 -0.024,0.1891 -0.036,0.1326 -0.056,0.1139 -0.074,0.0952 -0.092,0.0765 -0.122,0.0588 -0.163,0.0419 -0.204,0.0252 -0.245,0.0084 h -0.243 v 0.2808 h 3.784 z m -58.152,0 h -0.281 l -0.26,-0.0092 -0.215,-0.0274 -0.168,-0.0458 -0.122,-0.064 -0.09,-0.083 -0.071,-0.1024 -0.053,-0.1219 -0.034,-0.1413 -0.021,-0.1932 -0.015,-0.2774 -0.009,-0.3617 -0.003,-0.4461 v -2.0564 h 0.773 l 0.28,0.0071 0.229,0.0211 0.18,0.0352 0.13,0.0493 0.099,0.0685 0.086,0.093 0.072,0.1172 0.06,0.1417 0.047,0.1678 0.033,0.1955 0.02,0.2234 0.007,0.2511 h 0.305 v -2.9203 h -0.305 l -0.016,0.3506 -0.046,0.2866 -0.077,0.2229 -0.108,0.1589 -0.155,0.1111 -0.217,0.0794 -0.281,0.0476 -0.343,0.0159 H 164.4 v -3.5093 h 1.615 l 0.357,0.0068 0.3,0.0206 0.245,0.0343 0.189,0.048 0.16,0.0756 0.157,0.1171 0.153,0.1586 0.149,0.2001 0.135,0.2356 0.108,0.2649 0.083,0.2942 0.055,0.3235 h 0.287 l -0.067,-2.0601 h -6.383 v 0.2808 h 0.146 l 0.287,0.0068 0.232,0.0207 0.176,0.0343 0.121,0.0481 0.085,0.0659 0.069,0.0882 0.053,0.1102 0.037,0.1324 0.026,0.1873 0.018,0.275 0.011,0.3629 0.003,0.4505 v 4.0593 l -0.003,0.4717 -0.011,0.3775 -0.018,0.2832 -0.026,0.1891 -0.038,0.1325 -0.056,0.1139 -0.075,0.0952 -0.093,0.0765 -0.123,0.0588 -0.164,0.0419 -0.204,0.0252 -0.245,0.0084 h -0.257 v 0.2808 h 3.848 z m 154.531,-6.3787 0.005,-0.2462 0.015,-0.2078 0.026,-0.1692 0.036,-0.1307 0.055,-0.1074 0.082,-0.0994 0.109,-0.0914 0.137,-0.0833 0.165,-0.0721 0.192,-0.0576 0.22,-0.0431 0.248,-0.0286 v -0.2808 h -3.001 v 0.2808 l 0.236,0.008 0.218,0.024 0.2,0.0401 0.183,0.0561 0.159,0.0698 0.13,0.0813 0.101,0.0927 0.071,0.1042 0.05,0.1304 0.035,0.1717 0.021,0.2129 0.007,0.2541 v 4.9503 l -4.903,-6.4764 h -2.441 v 0.2808 l 0.303,0.0057 0.244,0.0172 0.185,0.0286 0.126,0.04 0.09,0.0603 0.076,0.0892 0.064,0.1183 0.051,0.1473 0.038,0.201 0.028,0.2797 0.017,0.3582 0.005,0.4368 v 4.3889 l -0.003,0.3411 -0.011,0.2724 -0.018,0.2037 -0.026,0.1351 -0.045,0.099 -0.076,0.0955 -0.108,0.0922 -0.14,0.0887 -0.173,0.0787 -0.209,0.0624 -0.243,0.0459 -0.278,0.0296 v 0.2808 h 3.087 v -0.2808 l -0.309,-0.0118 -0.267,-0.0355 -0.227,-0.0591 -0.185,-0.0828 -0.148,-0.0969 -0.116,-0.1015 -0.084,-0.106 -0.051,-0.1107 -0.031,-0.1434 -0.022,-0.2045 -0.013,-0.2656 -0.004,-0.3265 v -5.7439 l 5.854,7.7591 h 0.263 z m -61.089,6.3787 h -0.158 l -0.257,-0.0092 -0.212,-0.0274 -0.167,-0.0458 -0.121,-0.0641 -0.09,-0.083 -0.07,-0.1024 -0.053,-0.1219 -0.033,-0.1414 -0.022,-0.1932 -0.015,-0.2776 -0.009,-0.3619 -0.003,-0.4463 v -1.5079 l 0.59,-0.5189 2.336,2.3565 0.387,0.4033 0.276,0.3247 0.166,0.2461 0.055,0.1675 -0.01,0.082 -0.032,0.0752 -0.054,0.0683 -0.074,0.0614 -0.118,0.0507 -0.184,0.0363 -0.249,0.0217 -0.315,0.0073 h -0.165 v 0.2808 h 4.297 v -0.2808 l -0.273,-0.0141 -0.247,-0.0424 -0.22,-0.0706 -0.193,-0.0988 -0.224,-0.1664 -0.312,-0.2732 -0.399,-0.38 -0.487,-0.4868 -3.101,-3.1318 1.506,-1.3919 0.405,-0.3766 0.335,-0.3056 0.265,-0.2347 0.197,-0.1636 0.165,-0.1221 0.174,-0.1099 0.181,-0.0977 0.19,-0.0854 0.193,-0.0695 0.193,-0.0496 0.193,-0.0298 0.192,-0.0099 v -0.2859 h -3.116 v 0.2798 l 0.385,0.0424 0.274,0.1026 0.165,0.163 0.055,0.2232 -0.055,0.1961 -0.165,0.2525 -0.274,0.3091 -0.384,0.3656 -2.524,2.277 v -2.1489 l 0.004,-0.4685 0.012,-0.3739 0.02,-0.2793 0.028,-0.1846 0.04,-0.1265 0.055,-0.1048 0.071,-0.083 0.087,-0.0612 0.121,-0.0441 0.173,-0.0315 0.226,-0.0189 0.278,-0.0063 h 0.152 v -0.2798 h -3.663 v 0.2798 l 0.317,0.0061 0.253,0.0183 0.19,0.0306 0.126,0.0427 0.087,0.0603 0.071,0.0832 0.056,0.106 0.04,0.129 0.028,0.1869 0.02,0.2801 0.012,0.3732 0.004,0.4662 v 4.0597 l -0.004,0.4718 -0.011,0.3775 -0.018,0.2833 -0.025,0.1891 -0.038,0.1326 -0.057,0.1139 -0.075,0.0952 -0.093,0.0765 -0.123,0.0588 -0.163,0.0419 -0.205,0.0252 -0.245,0.0084 h -0.256 v 0.2808 h 3.715 z m -20.036,3.2124 0.38,-0.0527 0.355,-0.0877 0.328,-0.1229 0.3,-0.1554 0.269,-0.1857 0.237,-0.2157 0.205,-0.2459 0.171,-0.2627 0.133,-0.2661 0.097,-0.2695 0.06,-0.2731 0.036,-0.306 0.026,-0.3685 0.015,-0.4312 0.005,-0.4936 v -5.4086 l 0.004,-0.4685 0.012,-0.3739 0.019,-0.2793 0.026,-0.1846 0.039,-0.1265 0.055,-0.1048 0.07,-0.083 0.087,-0.0612 0.121,-0.0441 0.174,-0.0315 0.226,-0.0189 0.279,-0.0063 h 0.207 v -0.2808 h -3.847 v 0.2808 h 0.195 l 0.287,0.0068 0.232,0.0207 0.176,0.0343 0.121,0.0481 0.085,0.066 0.069,0.0881 0.053,0.1103 0.037,0.1324 0.025,0.1873 0.019,0.2751 0.01,0.3629 0.004,0.4506 v 5.4086 l -0.006,0.6438 -0.018,0.5458 -0.031,0.4477 -0.043,0.3497 -0.072,0.2907 -0.12,0.2709 -0.167,0.251 -0.215,0.2312 -0.252,0.1936 -0.28,0.1384 -0.307,0.083 -0.334,0.0276 -0.164,-0.0068 -0.151,-0.0207 -0.136,-0.0343 -0.123,-0.0481 -0.102,-0.0603 -0.072,-0.0709 -0.044,-0.0816 -0.015,-0.0924 0.005,-0.0412 0.012,-0.0503 0.021,-0.0596 0.03,-0.0686 0.032,-0.0817 0.022,-0.0801 0.014,-0.0785 0.005,-0.0771 -0.012,-0.1232 -0.033,-0.1134 -0.057,-0.1034 -0.078,-0.0935 -0.096,-0.0775 -0.106,-0.0553 -0.118,-0.0332 -0.128,-0.011 -0.126,0.0122 -0.116,0.0366 -0.105,0.0611 -0.095,0.0855 -0.079,0.1034 -0.056,0.1148 -0.034,0.1263 -0.011,0.1378 0.031,0.2298 0.095,0.2134 0.159,0.197 0.222,0.1807 0.28,0.1509 0.335,0.1078 0.389,0.0647 0.443,0.0215 z m 56.259,-3.2124 -0.271,-0.033 -0.238,-0.0624 -0.207,-0.0917 -0.175,-0.1212 -0.143,-0.1413 -0.11,-0.1524 -0.079,-0.1634 -0.046,-0.1746 -0.027,-0.2197 -0.019,-0.2992 -0.011,-0.3784 -0.004,-0.4579 v -4.8466 l 3.302,7.4226 h 0.287 l 3.277,-7.4226 v 5.2678 l -0.004,0.4718 -0.011,0.3775 -0.018,0.2832 -0.025,0.1891 -0.038,0.1325 -0.057,0.1139 -0.075,0.0952 -0.093,0.0765 -0.122,0.0588 -0.162,0.0419 -0.202,0.0252 -0.243,0.0084 h -0.292 v 0.2808 h 3.957 v -0.2808 h -0.367 l -0.258,-0.0092 -0.213,-0.0274 -0.167,-0.0458 -0.122,-0.0641 -0.09,-0.083 -0.071,-0.1024 -0.052,-0.1219 -0.034,-0.1414 -0.022,-0.1932 -0.015,-0.2775 -0.009,-0.3618 -0.003,-0.4462 v -4.0593 l 0.004,-0.4684 0.012,-0.3739 0.02,-0.2793 0.028,-0.1846 0.04,-0.1265 0.055,-0.1047 0.071,-0.083 0.087,-0.0612 0.121,-0.0441 0.173,-0.0314 0.226,-0.0189 0.278,-0.0063 h 0.305 v -0.2808 h -2.539 l -3.015,6.8496 -3.033,-6.8496 h -2.521 v 0.2808 h 0.225 l 0.287,0.0068 0.231,0.0207 0.176,0.0343 0.121,0.0481 0.085,0.0659 0.069,0.0882 0.053,0.1102 0.037,0.1324 0.025,0.1873 0.018,0.275 0.011,0.3629 0.004,0.4505 v 3.6014 l -0.005,0.4723 -0.014,0.3915 -0.022,0.3105 -0.032,0.2297 -0.053,0.1818 -0.085,0.1669 -0.118,0.152 -0.15,0.1372 -0.179,0.1154 -0.203,0.0868 -0.228,0.0581 -0.253,0.0296 v 0.2808 h 2.96 z m -145.886,-2.2968 h -0.293 l -0.12,0.4335 -0.14,0.3843 -0.161,0.335 -0.18,0.2858 -0.193,0.239 -0.198,0.1947 -0.203,0.1504 -0.208,0.1062 -0.225,0.0734 -0.254,0.0525 -0.283,0.0315 -0.312,0.0105 h -0.616 l -0.374,-0.0162 -0.295,-0.0486 -0.215,-0.0811 -0.134,-0.1134 -0.083,-0.2053 -0.059,-0.3567 -0.036,-0.508 -0.011,-0.6594 v -1.9583 h 0.908 l 0.246,0.0043 0.208,0.0132 0.169,0.0218 0.13,0.0307 0.105,0.0452 0.091,0.0658 0.078,0.0863 0.065,0.1069 0.051,0.1454 0.036,0.2021 0.021,0.2588 0.008,0.3155 h 0.286 v -2.834 h -0.286 l -0.005,0.2814 -0.014,0.2312 -0.024,0.181 -0.033,0.1308 -0.049,0.099 -0.069,0.0857 -0.089,0.0722 -0.111,0.0588 -0.143,0.0455 -0.188,0.0326 -0.234,0.0195 -0.279,0.0065 h -0.878 v -3.4757 h 1.146 l 0.404,0.0059 0.343,0.0177 0.285,0.0295 0.224,0.0414 0.189,0.064 0.175,0.0976 0.162,0.1311 0.148,0.1646 0.137,0.2128 0.125,0.2757 0.114,0.3386 0.103,0.4014 h 0.287 l -0.195,-2.0601 h -5.913 v 0.2798 l 0.273,0.0074 0.222,0.0224 0.17,0.0372 0.119,0.0521 0.084,0.0708 0.068,0.0933 0.051,0.1158 0.034,0.1383 0.023,0.19 0.016,0.2709 0.01,0.3517 0.003,0.4327 v 4.0597 l -0.003,0.4699 -0.009,0.3718 -0.015,0.2738 -0.021,0.1757 -0.033,0.1211 -0.049,0.1101 -0.065,0.099 -0.082,0.088 -0.117,0.0721 -0.172,0.0515 -0.226,0.0309 -0.281,0.0103 h -0.171 v 0.2808 h 6.853 z"
     stroke="#000000"
     fill="#d3d3d3"
     stroke-width="0.5"
     id="path1" />
  <metadata
     id="metadata1">
    <rdf:RDF>
      <cc:Work
         rdf:about="">
        <dc:title>OpenSCAD Model</dc:title>
      </cc:Work>
    </rdf:RDF>
  </metadata>
</svg>
