<?xml version="1.0" standalone="no"?>
<!DOCTYPE svg PUBLIC "-//W3C//DTD SVG 1.1//EN" "http://www.w3.org/Graphics/SVG/1.1/DTD/svg11.dtd">
<svg width="268mm" height="198mm" viewBox="59 -248 268 198" xmlns="http://www.w3.org/2000/svg" version="1.1">
<title>OpenSCAD Model</title>
<path d="
M 326.15,-248 L 325.85,-248 L 325.85,-188 L 326.15,-188 z
M 307.15,-248 L 306.85,-248 L 306.85,-188 L 307.15,-188 z
M 288.15,-248 L 287.85,-248 L 287.85,-188 L 288.15,-188 z
M 269.15,-248 L 268.85,-248 L 268.85,-188 L 269.15,-188 z
M 250.15,-248 L 249.85,-248 L 249.85,-188 L 250.15,-188 z
M 231.15,-248 L 230.85,-248 L 230.85,-188 L 231.15,-188 z
M 212.15,-248 L 211.85,-248 L 211.85,-188 L 212.15,-188 z
M 193.15,-248 L 192.85,-248 L 192.85,-188 L 193.15,-188 z
M 174.15,-248 L 173.85,-248 L 173.85,-188 L 174.15,-188 z
M 155.15,-248 L 154.85,-248 L 154.85,-188 L 155.15,-188 z
M 136.15,-248 L 135.85,-248 L 135.85,-188 L 136.15,-188 z
M 117.15,-248 L 116.85,-248 L 116.85,-188 L 117.15,-188 z
M 98.15,-248 L 97.85,-248 L 97.85,-188 L 98.15,-188 z
M 79.15,-248 L 78.85,-248 L 78.85,-188 L 79.15,-188 z
M 60.15,-248 L 59.85,-248 L 59.85,-188 L 60.15,-188 z
M 307.15,-179 L 306.85,-179 L 306.85,-119 L 307.15,-119 z
M 231.15,-179 L 230.85,-179 L 230.85,-119 L 231.15,-119 z
M 98.15,-179 L 97.85,-179 L 97.85,-119 L 98.15,-119 z
M 212.15,-179 L 211.85,-179 L 211.85,-119 L 212.15,-119 z
M 79.15,-179 L 78.85,-179 L 78.85,-119 L 79.15,-119 z
M 117.15,-149.656 L 126.452,-140.354 L 126.664,-140.566 L 117.224,-150.006 L 126.664,-159.446 L 126.452,-159.658
 L 117.15,-150.356 L 117.15,-179 L 116.85,-179 L 116.85,-150.38 L 107.572,-159.658 L 107.36,-159.446
 L 116.8,-150.006 L 107.36,-140.566 L 107.572,-140.354 L 116.85,-149.632 L 116.85,-119 L 117.15,-119
 z
M 250.15,-179 L 249.85,-179 L 249.85,-119 L 250.15,-119 z
M 269.15,-149.656 L 278.452,-140.354 L 278.664,-140.566 L 269.224,-150.006 L 278.664,-159.446 L 278.452,-159.658
 L 269.15,-150.356 L 269.15,-179 L 268.85,-179 L 268.85,-150.38 L 259.572,-159.658 L 259.36,-159.446
 L 268.8,-150.006 L 259.36,-140.566 L 259.572,-140.354 L 268.85,-149.632 L 268.85,-119 L 269.15,-119
 z
M 136.15,-179 L 135.85,-179 L 135.85,-119 L 136.15,-119 z
M 155.15,-179 L 154.85,-179 L 154.85,-119 L 155.15,-119 z
M 174.15,-179 L 173.85,-179 L 173.85,-119 L 174.15,-119 z
M 193.15,-135.438 L 206.712,-149 L 193.15,-162.562 L 193.15,-179 L 192.85,-179 L 192.85,-162.562
 L 179.288,-149 L 192.85,-135.438 L 192.85,-119 L 193.15,-119 z
M 193.15,-162.138 L 206.288,-149 L 193.15,-135.862 z
M 179.712,-149 L 192.85,-162.138 L 192.85,-135.862 z
M 326.15,-179 L 325.85,-179 L 325.85,-119 L 326.15,-119 z
M 288.15,-179 L 287.85,-179 L 287.85,-119 L 288.15,-119 z
M 60.15,-179 L 59.85,-179 L 59.85,-119 L 60.15,-119 z
M 269.15,-110 L 268.85,-110 L 268.85,-50 L 269.15,-50 z
M 307.15,-110 L 306.85,-110 L 306.85,-50 L 307.15,-50 z
M 288.15,-110 L 287.85,-110 L 287.85,-50 L 288.15,-50 z
M 326.15,-110 L 325.85,-110 L 325.85,-50 L 326.15,-50 z
M 250.15,-110 L 249.85,-110 L 249.85,-50 L 250.15,-50 z
M 231.15,-110 L 230.85,-110 L 230.85,-50 L 231.15,-50 z
M 212.15,-110 L 211.85,-110 L 211.85,-50 L 212.15,-50 z
M 193.15,-110 L 192.85,-110 L 192.85,-50 L 193.15,-50 z
M 174.15,-110 L 173.85,-110 L 173.85,-50 L 174.15,-50 z
M 155.15,-110 L 154.85,-110 L 154.85,-50 L 155.15,-50 z
M 136.15,-110 L 135.85,-110 L 135.85,-50 L 136.15,-50 z
M 117.15,-110 L 116.85,-110 L 116.85,-50 L 117.15,-50 z
M 98.15,-110 L 97.85,-110 L 97.85,-50 L 98.15,-50 z
M 79.15,-110 L 78.85,-110 L 78.85,-50 L 79.15,-50 z
M 60.15,-110 L 59.85,-110 L 59.85,-50 L 60.15,-50 z
" stroke="black" fill="lightgray" stroke-width="0.5"/>
</svg>
