  0
SECTION
  2
HEADER
  9
$ACADVER
  1
AC1014
  9
$HANDSEED
  5
FFFF
  9
$INSUNITS
 70
     4
  9
$MEASUREMENT
 70
     1
  0
ENDSEC
  0
SECTION
  2
TABLES
  0
TABLE
  2
VPORT
  5
8
330
0
100
AcDbSymbolTable
 70
     4
  0
VPORT
  5
2E
330
8
100
AcDbSymbolTableRecord
100
AcDbViewportTableRecord
  2
*ACTIVE
 70
     0
 10
0.0
 20
0.0
 11
1.0
 21
1.0
 12
210.0
 22
148.5
 13
0.0
 23
0.0
 14
10.0
 24
10.0
 15
10.0
 25
10.0
 16
0.0
 26
0.0
 36
1.0
 17
0.0
 27
0.0
 37
0.0
 40
341.0
 41
1.24
 42
50.0
 43
0.0
 44
0.0
 50
0.0
 51
0.0
 71
     0
 72
   100
 73
     1
 74
     3
 75
     0
 76
     0
 77
     0
 78
     0
  0
ENDTAB
  0
TABLE
  2
LTYPE
  5
5
330
0
100
AcDbSymbolTable
 70
     1
  0
LTYPE
  5
14
330
5
100
AcDbSymbolTableRecord
100
AcDbLinetypeTableRecord
  2
BYBLOCK
 70
     0
  3

 72
    65
 73
     0
 40
0.0
  0
LTYPE
  5
15
330
5
100
AcDbSymbolTableRecord
100
AcDbLinetypeTableRecord
  2
BYLAYER
 70
     0
  3

 72
    65
 73
     0
 40
0.0
  0
LTYPE
  5
16
330
5
100
AcDbSymbolTableRecord
100
AcDbLinetypeTableRecord
  2
CONTINUOUS
 70
     0
  3
Solid line
 72
    65
 73
     0
 40
0.0
  0
ENDTAB
  0
TABLE
  2
LAYER
  5
2
100
AcDbSymbolTable
 70
1
  0
LAYER
  5
50
100
AcDbSymbolTableRecord
100
AcDbLayerTableRecord
  2
0
 70
0
  6
CONTINUOUS
  0
ENDTAB
  0
TABLE
  2
STYLE
  5
3
330
0
100
AcDbSymbolTable
 70
     1
  0
STYLE
  5
11
330
3
100
AcDbSymbolTableRecord
100
AcDbTextStyleTableRecord
  2
STANDARD
 70
     0
 40
0.0
 41
1.0
 50
0.0
 71
     0
 42
2.5
  3
txt
  4

  0
ENDTAB
  0
TABLE
  2
VIEW
  5
6
330
0
100
AcDbSymbolTable
 70
     0
  0
ENDTAB
  0
TABLE
  2
UCS
  5
7
330
0
100
AcDbSymbolTable
 70
     0
  0
ENDTAB
  0
TABLE
  2
APPID
  5
9
330
0
100
AcDbSymbolTable
 70
     2
  0
APPID
  5
12
330
9
100
AcDbSymbolTableRecord
100
AcDbRegAppTableRecord
  2
ACAD
 70
     0
  0
ENDTAB
  0
TABLE
  2
DIMSTYLE
  5
A
330
0
100
AcDbSymbolTable
 70
     1
  0
DIMSTYLE
105
27
330
A
100
AcDbSymbolTableRecord
100
AcDbDimStyleTableRecord
  2
ISO-25
 70
     0
  3

  4

  5

  6

  7

 40
1.0
 41
2.5
 42
0.625
 43
3.75
 44
1.25
 45
0.0
 46
0.0
 47
0.0
 48
0.0
140
2.5
141
2.5
142
0.0
143
0.03937007874016
144
1.0
145
0.0
146
1.0
147
0.625
 71
     0
 72
     0
 73
     0
 74
     0
 75
     0
 76
     0
 77
     1
 78
     8
170
     0
171
     3
172
     1
173
     0
174
     0
175
     0
176
     0
177
     0
178
     0
270
     2
271
     2
272
     2
273
     2
274
     3
340
11
275
     0
280
     0
281
     0
282
     0
283
     0
284
     8
285
     0
286
     0
287
     3
288
     0
  0
ENDTAB
  0
TABLE
  2
BLOCK_RECORD
  5
1
330
0
100
AcDbSymbolTable
 70
     1
  0
BLOCK_RECORD
  5
1F
330
1
100
AcDbSymbolTableRecord
100
AcDbBlockTableRecord
  2
*MODEL_SPACE
  0
BLOCK_RECORD
  5
1B
330
1
100
AcDbSymbolTableRecord
100
AcDbBlockTableRecord
  2
*PAPER_SPACE
  0
ENDTAB
  0
ENDSEC
  0
SECTION
  2
BLOCKS
  0
BLOCK
  5
20
330
1F
100
AcDbEntity
  8
0
100
AcDbBlockBegin
  2
*MODEL_SPACE
 70
     0
 10
0.0
 20
0.0
 30
0.0
  3
*MODEL_SPACE
  1

  0
ENDBLK
  5
21
330
1F
100
AcDbEntity
  8
0
100
AcDbBlockEnd
  0
BLOCK
  5
1C
330
1B
100
AcDbEntity
 67
     1
  8
0
100
AcDbBlockBegin
  2
*PAPER_SPACE
  1

  0
ENDBLK
  5
1D
330
1B
100
AcDbEntity
 67
     1
  8
0
100
AcDbBlockEnd
  0
ENDSEC
  0
SECTION
  2
ENTITIES
  0
LWPOLYLINE
  5
100
100
AcDbEntity
  8
0
 62
7
100
AcDbPolyline
 90
99
 70
1
 10
242.763000
 20
512.004060
 30
0.0
 10
242.568000
 20
512.004060
 30
0.0
 10
242.281000
 20
512.011060
 30
0.0
 10
242.049000
 20
512.031060
 30
0.0
 10
241.873000
 20
512.065060
 30
0.0
 10
241.752000
 20
512.114060
 30
0.0
 10
241.667000
 20
512.180060
 30
0.0
 10
241.598000
 20
512.268060
 30
0.0
 10
241.545000
 20
512.378060
 30
0.0
 10
241.508000
 20
512.510060
 30
0.0
 10
241.483000
 20
512.698060
 30
0.0
 10
241.464000
 20
512.973060
 30
0.0
 10
241.454000
 20
513.336060
 30
0.0
 10
241.450000
 20
513.786060
 30
0.0
 10
241.450000
 20
519.195060
 30
0.0
 10
241.456000
 20
519.839060
 30
0.0
 10
241.474000
 20
520.384060
 30
0.0
 10
241.505000
 20
520.832060
 30
0.0
 10
241.548000
 20
521.182060
 30
0.0
 10
241.620000
 20
521.473060
 30
0.0
 10
241.740000
 20
521.743060
 30
0.0
 10
241.907000
 20
521.995060
 30
0.0
 10
242.122000
 20
522.226060
 30
0.0
 10
242.374000
 20
522.419060
 30
0.0
 10
242.654000
 20
522.558060
 30
0.0
 10
242.961000
 20
522.641060
 30
0.0
 10
243.295000
 20
522.668060
 30
0.0
 10
243.459000
 20
522.661060
 30
0.0
 10
243.610000
 20
522.641060
 30
0.0
 10
243.746000
 20
522.607060
 30
0.0
 10
243.869000
 20
522.558060
 30
0.0
 10
243.971000
 20
522.498060
 30
0.0
 10
244.043000
 20
522.427060
 30
0.0
 10
244.087000
 20
522.346060
 30
0.0
 10
244.102000
 20
522.253060
 30
0.0
 10
244.097000
 20
522.212060
 30
0.0
 10
244.085000
 20
522.162060
 30
0.0
 10
244.064000
 20
522.102060
 30
0.0
 10
244.034000
 20
522.033060
 30
0.0
 10
244.002000
 20
521.952060
 30
0.0
 10
243.980000
 20
521.872060
 30
0.0
 10
243.966000
 20
521.793060
 30
0.0
 10
243.961000
 20
521.716060
 30
0.0
 10
243.973000
 20
521.593060
 30
0.0
 10
244.006000
 20
521.480060
 30
0.0
 10
244.063000
 20
521.376060
 30
0.0
 10
244.141000
 20
521.283060
 30
0.0
 10
244.237000
 20
521.205060
 30
0.0
 10
244.343000
 20
521.150060
 30
0.0
 10
244.461000
 20
521.117060
 30
0.0
 10
244.589000
 20
521.106060
 30
0.0
 10
244.715000
 20
521.118060
 30
0.0
 10
244.831000
 20
521.154060
 30
0.0
 10
244.936000
 20
521.215060
 30
0.0
 10
245.031000
 20
521.301060
 30
0.0
 10
245.110000
 20
521.404060
 30
0.0
 10
245.166000
 20
521.519060
 30
0.0
 10
245.200000
 20
521.646060
 30
0.0
 10
245.211000
 20
521.783060
 30
0.0
 10
245.180000
 20
522.013060
 30
0.0
 10
245.085000
 20
522.226060
 30
0.0
 10
244.926000
 20
522.424060
 30
0.0
 10
244.704000
 20
522.604060
 30
0.0
 10
244.424000
 20
522.755060
 30
0.0
 10
244.089000
 20
522.863060
 30
0.0
 10
243.700000
 20
522.928060
 30
0.0
 10
243.257000
 20
522.949060
 30
0.0
 10
242.852000
 20
522.932060
 30
0.0
 10
242.472000
 20
522.879060
 30
0.0
 10
242.117000
 20
522.791060
 30
0.0
 10
241.789000
 20
522.668060
 30
0.0
 10
241.489000
 20
522.513060
 30
0.0
 10
241.220000
 20
522.327060
 30
0.0
 10
240.983000
 20
522.111060
 30
0.0
 10
240.778000
 20
521.866060
 30
0.0
 10
240.607000
 20
521.603060
 30
0.0
 10
240.474000
 20
521.337060
 30
0.0
 10
240.377000
 20
521.067060
 30
0.0
 10
240.317000
 20
520.794060
 30
0.0
 10
240.281000
 20
520.488060
 30
0.0
 10
240.255000
 20
520.120060
 30
0.0
 10
240.240000
 20
519.689060
 30
0.0
 10
240.235000
 20
519.195060
 30
0.0
 10
240.235000
 20
513.786060
 30
0.0
 10
240.231000
 20
513.318060
 30
0.0
 10
240.219000
 20
512.944060
 30
0.0
 10
240.200000
 20
512.665060
 30
0.0
 10
240.174000
 20
512.480060
 30
0.0
 10
240.135000
 20
512.353060
 30
0.0
 10
240.080000
 20
512.249060
 30
0.0
 10
240.010000
 20
512.166060
 30
0.0
 10
239.923000
 20
512.104060
 30
0.0
 10
239.802000
 20
512.060060
 30
0.0
 10
239.628000
 20
512.029060
 30
0.0
 10
239.402000
 20
512.010060
 30
0.0
 10
239.123000
 20
512.004060
 30
0.0
 10
238.916000
 20
512.004060
 30
0.0
 10
238.916000
 20
511.723060
 30
0.0
 10
242.763000
 20
511.723060
 30
0.0
  0
LWPOLYLINE
  5
101
100
AcDbEntity
  8
0
 62
7
100
AcDbPolyline
 90
75
 70
1
 10
315.438000
 20
512.004060
 30
0.0
 10
315.202000
 20
512.012060
 30
0.0
 10
314.984000
 20
512.036060
 30
0.0
 10
314.784000
 20
512.076060
 30
0.0
 10
314.601000
 20
512.132060
 30
0.0
 10
314.442000
 20
512.202060
 30
0.0
 10
314.312000
 20
512.283060
 30
0.0
 10
314.211000
 20
512.376060
 30
0.0
 10
314.140000
 20
512.480060
 30
0.0
 10
314.090000
 20
512.610060
 30
0.0
 10
314.055000
 20
512.782060
 30
0.0
 10
314.034000
 20
512.995060
 30
0.0
 10
314.027000
 20
513.249060
 30
0.0
 10
314.027000
 20
518.199060
 30
0.0
 10
318.930000
 20
511.723060
 30
0.0
 10
321.371000
 20
511.723060
 30
0.0
 10
321.371000
 20
512.004060
 30
0.0
 10
321.068000
 20
512.009060
 30
0.0
 10
320.824000
 20
512.027060
 30
0.0
 10
320.639000
 20
512.055060
 30
0.0
 10
320.513000
 20
512.095060
 30
0.0
 10
320.423000
 20
512.155060
 30
0.0
 10
320.347000
 20
512.245060
 30
0.0
 10
320.283000
 20
512.363060
 30
0.0
 10
320.232000
 20
512.510060
 30
0.0
 10
320.194000
 20
512.711060
 30
0.0
 10
320.166000
 20
512.991060
 30
0.0
 10
320.149000
 20
513.349060
 30
0.0
 10
320.144000
 20
513.786060
 30
0.0
 10
320.144000
 20
518.175060
 30
0.0
 10
320.147000
 20
518.516060
 30
0.0
 10
320.158000
 20
518.788060
 30
0.0
 10
320.176000
 20
518.992060
 30
0.0
 10
320.202000
 20
519.127060
 30
0.0
 10
320.247000
 20
519.226060
 30
0.0
 10
320.323000
 20
519.322060
 30
0.0
 10
320.431000
 20
519.414060
 30
0.0
 10
320.571000
 20
519.503060
 30
0.0
 10
320.744000
 20
519.581060
 30
0.0
 10
320.953000
 20
519.644060
 30
0.0
 10
321.196000
 20
519.690060
 30
0.0
 10
321.474000
 20
519.719060
 30
0.0
 10
321.474000
 20
520.000060
 30
0.0
 10
318.387000
 20
520.000060
 30
0.0
 10
318.387000
 20
519.719060
 30
0.0
 10
318.696000
 20
519.707060
 30
0.0
 10
318.963000
 20
519.672060
 30
0.0
 10
319.190000
 20
519.613060
 30
0.0
 10
319.375000
 20
519.530060
 30
0.0
 10
319.523000
 20
519.433060
 30
0.0
 10
319.639000
 20
519.332060
 30
0.0
 10
319.723000
 20
519.226060
 30
0.0
 10
319.774000
 20
519.115060
 30
0.0
 10
319.805000
 20
518.971060
 30
0.0
 10
319.827000
 20
518.767060
 30
0.0
 10
319.840000
 20
518.501060
 30
0.0
 10
319.844000
 20
518.175060
 30
0.0
 10
319.844000
 20
512.431060
 30
0.0
 10
313.990000
 20
520.190060
 30
0.0
 10
313.727000
 20
520.190060
 30
0.0
 10
313.727000
 20
513.341060
 30
0.0
 10
313.722000
 20
513.094060
 30
0.0
 10
313.707000
 20
512.887060
 30
0.0
 10
313.681000
 20
512.717060
 30
0.0
 10
313.645000
 20
512.587060
 30
0.0
 10
313.590000
 20
512.479060
 30
0.0
 10
313.508000
 20
512.380060
 30
0.0
 10
313.399000
 20
512.288060
 30
0.0
 10
313.262000
 20
512.205060
 30
0.0
 10
313.097000
 20
512.133060
 30
0.0
 10
312.905000
 20
512.075060
 30
0.0
 10
312.685000
 20
512.032060
 30
0.0
 10
312.437000
 20
512.004060
 30
0.0
 10
312.437000
 20
511.723060
 30
0.0
 10
315.438000
 20
511.723060
 30
0.0
  0
LWPOLYLINE
  5
102
100
AcDbEntity
  8
0
 62
7
100
AcDbPolyline
 90
82
 70
1
 10
108.350000
 20
511.600060
 30
0.0
 10
108.877300
 20
511.699060
 30
0.0
 10
109.381600
 20
511.863060
 30
0.0
 10
109.863000
 20
512.092060
 30
0.0
 10
110.307000
 20
512.390060
 30
0.0
 10
110.699000
 20
512.757060
 30
0.0
 10
111.040000
 20
513.194060
 30
0.0
 10
111.328000
 20
513.701060
 30
0.0
 10
111.558000
 20
514.251060
 30
0.0
 10
111.722000
 20
514.820060
 30
0.0
 10
111.820000
 20
515.407060
 30
0.0
 10
111.853000
 20
516.011060
 30
0.0
 10
111.782000
 20
516.899060
 30
0.0
 10
111.568000
 20
517.696060
 30
0.0
 10
111.213000
 20
518.401060
 30
0.0
 10
110.714000
 20
519.014060
 30
0.0
 10
110.104000
 20
519.511060
 30
0.0
 10
109.412100
 20
519.866060
 30
0.0
 10
108.637900
 20
520.079060
 30
0.0
 10
107.781600
 20
520.150060
 30
0.0
 10
106.970900
 20
520.073060
 30
0.0
 10
106.235800
 20
519.841060
 30
0.0
 10
105.576200
 20
519.455060
 30
0.0
 10
104.992100
 20
518.915060
 30
0.0
 10
104.859800
 20
519.111060
 30
0.0
 10
104.749600
 20
519.322060
 30
0.0
 10
104.661500
 20
519.547060
 30
0.0
 10
104.595500
 20
519.787060
 30
0.0
 10
104.333100
 20
519.787060
 30
0.0
 10
104.333100
 20
516.890060
 30
0.0
 10
104.595500
 20
516.890060
 30
0.0
 10
104.652900
 20
517.253060
 30
0.0
 10
104.751900
 20
517.624060
 30
0.0
 10
104.892400
 20
518.000060
 30
0.0
 10
105.074500
 20
518.384060
 30
0.0
 10
105.295400
 20
518.742060
 30
0.0
 10
105.552700
 20
519.044060
 30
0.0
 10
105.846200
 20
519.290060
 30
0.0
 10
106.175900
 20
519.480060
 30
0.0
 10
106.521800
 20
519.622060
 30
0.0
 10
106.863800
 20
519.723060
 30
0.0
 10
107.202100
 20
519.784060
 30
0.0
 10
107.536500
 20
519.804060
 30
0.0
 10
108.133300
 20
519.742060
 30
0.0
 10
108.679000
 20
519.556060
 30
0.0
 10
109.173700
 20
519.246060
 30
0.0
 10
109.617200
 20
518.812060
 30
0.0
 10
109.982900
 20
518.261060
 30
0.0
 10
110.244000
 20
517.602060
 30
0.0
 10
110.401000
 20
516.834060
 30
0.0
 10
110.453000
 20
515.957060
 30
0.0
 10
110.405000
 20
515.031060
 30
0.0
 10
110.262000
 20
514.219060
 30
0.0
 10
110.022000
 20
513.520060
 30
0.0
 10
109.687400
 20
512.935060
 30
0.0
 10
109.271100
 20
512.473060
 30
0.0
 10
108.788100
 20
512.142060
 30
0.0
 10
108.238400
 20
511.944060
 30
0.0
 10
107.621900
 20
511.878060
 30
0.0
 10
107.104600
 20
511.919060
 30
0.0
 10
106.614400
 20
512.042060
 30
0.0
 10
106.151300
 20
512.246060
 30
0.0
 10
105.715200
 20
512.532060
 30
0.0
 10
105.328300
 20
512.922060
 30
0.0
 10
105.012700
 20
513.439060
 30
0.0
 10
104.768400
 20
514.085060
 30
0.0
 10
104.595500
 20
514.857060
 30
0.0
 10
104.333100
 20
514.857060
 30
0.0
 10
104.406400
 20
511.720060
 30
0.0
 10
104.674900
 20
511.720060
 30
0.0
 10
104.715300
 20
511.995060
 30
0.0
 10
104.781600
 20
512.266060
 30
0.0
 10
104.873900
 20
512.532060
 30
0.0
 10
104.992100
 20
512.794060
 30
0.0
 10
105.202200
 20
512.567060
 30
0.0
 10
105.459900
 20
512.351060
 30
0.0
 10
105.765300
 20
512.145060
 30
0.0
 10
106.118400
 20
511.949060
 30
0.0
 10
106.506100
 20
511.782060
 30
0.0
 10
106.915600
 20
511.663060
 30
0.0
 10
107.346900
 20
511.591060
 30
0.0
 10
107.799900
 20
511.567060
 30
0.0
  0
LWPOLYLINE
  5
103
100
AcDbEntity
  8
0
 62
7
100
AcDbPolyline
 90
104
 70
1
 10
184.918000
 20
511.651060
 30
0.0
 10
185.732000
 20
511.902060
 30
0.0
 10
186.444000
 20
512.319060
 30
0.0
 10
187.056000
 20
512.904060
 30
0.0
 10
187.548000
 20
513.600060
 30
0.0
 10
187.899000
 20
514.351060
 30
0.0
 10
188.109000
 20
515.157060
 30
0.0
 10
188.179000
 20
516.017060
 30
0.0
 10
188.106000
 20
516.876060
 30
0.0
 10
187.885000
 20
517.656060
 30
0.0
 10
187.517000
 20
518.357060
 30
0.0
 10
187.001000
 20
518.981060
 30
0.0
 10
186.375000
 20
519.492060
 30
0.0
 10
185.673000
 20
519.858060
 30
0.0
 10
184.897000
 20
520.077060
 30
0.0
 10
184.047000
 20
520.150060
 30
0.0
 10
183.594000
 20
520.125060
 30
0.0
 10
183.123000
 20
520.052060
 30
0.0
 10
182.633000
 20
519.930060
 30
0.0
 10
182.124000
 20
519.759060
 30
0.0
 10
181.760000
 20
519.633060
 30
0.0
 10
181.434000
 20
519.544060
 30
0.0
 10
181.144000
 20
519.490060
 30
0.0
 10
180.890000
 20
519.472060
 30
0.0
 10
180.831000
 20
519.474060
 30
0.0
 10
180.767000
 20
519.478060
 30
0.0
 10
180.699000
 20
519.486060
 30
0.0
 10
180.628000
 20
519.496060
 30
0.0
 10
180.628000
 20
518.618060
 30
0.0
 10
180.624000
 20
518.133060
 30
0.0
 10
180.611000
 20
517.748060
 30
0.0
 10
180.590000
 20
517.461060
 30
0.0
 10
180.561000
 20
517.273060
 30
0.0
 10
180.518000
 20
517.144060
 30
0.0
 10
180.458000
 20
517.035060
 30
0.0
 10
180.380000
 20
516.945060
 30
0.0
 10
180.284000
 20
516.876060
 30
0.0
 10
180.155000
 20
516.824060
 30
0.0
 10
179.978000
 20
516.787060
 30
0.0
 10
179.754000
 20
516.765060
 30
0.0
 10
179.482000
 20
516.757060
 30
0.0
 10
179.482000
 20
516.463060
 30
0.0
 10
183.053000
 20
516.463060
 30
0.0
 10
183.053000
 20
516.757060
 30
0.0
 10
182.858000
 20
516.757060
 30
0.0
 10
182.633000
 20
516.762060
 30
0.0
 10
182.446000
 20
516.776060
 30
0.0
 10
182.297000
 20
516.800060
 30
0.0
 10
182.186000
 20
516.833060
 30
0.0
 10
182.101000
 20
516.881060
 30
0.0
 10
182.027000
 20
516.946060
 30
0.0
 10
181.965000
 20
517.030060
 30
0.0
 10
181.915000
 20
517.132060
 30
0.0
 10
181.876000
 20
517.271060
 30
0.0
 10
181.848000
 20
517.466060
 30
0.0
 10
181.832000
 20
517.715060
 30
0.0
 10
181.826000
 20
518.020060
 30
0.0
 10
181.838000
 20
518.291060
 30
0.0
 10
181.873000
 20
518.539060
 30
0.0
 10
181.932000
 20
518.761060
 30
0.0
 10
182.015000
 20
518.960060
 30
0.0
 10
182.130000
 20
519.139060
 30
0.0
 10
182.287000
 20
519.303060
 30
0.0
 10
182.484000
 20
519.454060
 30
0.0
 10
182.723000
 20
519.591060
 30
0.0
 10
182.989000
 20
519.704060
 30
0.0
 10
183.270000
 20
519.785060
 30
0.0
 10
183.566000
 20
519.834060
 30
0.0
 10
183.876000
 20
519.850060
 30
0.0
 10
184.470000
 20
519.793060
 30
0.0
 10
185.013000
 20
519.621060
 30
0.0
 10
185.507000
 20
519.334060
 30
0.0
 10
185.950000
 20
518.932060
 30
0.0
 10
186.315000
 20
518.392060
 30
0.0
 10
186.577000
 20
517.692060
 30
0.0
 10
186.733000
 20
516.831060
 30
0.0
 10
186.785000
 20
515.810060
 30
0.0
 10
186.731000
 20
514.789060
 30
0.0
 10
186.569000
 20
513.936060
 30
0.0
 10
186.298000
 20
513.251060
 30
0.0
 10
185.919000
 20
512.734060
 30
0.0
 10
185.467000
 20
512.354060
 30
0.0
 10
184.978000
 20
512.084060
 30
0.0
 10
184.451000
 20
511.921060
 30
0.0
 10
183.887000
 20
511.867060
 30
0.0
 10
183.344000
 20
511.913060
 30
0.0
 10
182.843000
 20
512.053060
 30
0.0
 10
182.384000
 20
512.286060
 30
0.0
 10
181.968000
 20
512.612060
 30
0.0
 10
181.611000
 20
513.017060
 30
0.0
 10
181.331000
 20
513.489060
 30
0.0
 10
181.128000
 20
514.027060
 30
0.0
 10
181.001000
 20
514.632060
 30
0.0
 10
180.707000
 20
514.632060
 30
0.0
 10
180.707000
 20
511.867060
 30
0.0
 10
181.001000
 20
511.867060
 30
0.0
 10
181.037000
 20
512.110060
 30
0.0
 10
181.092000
 20
512.344060
 30
0.0
 10
181.166000
 20
512.571060
 30
0.0
 10
181.258000
 20
512.788060
 30
0.0
 10
181.837000
 20
512.254060
 30
0.0
 10
182.487000
 20
511.873060
 30
0.0
 10
183.210000
 20
511.644060
 30
0.0
 10
184.004000
 20
511.567060
 30
0.0
  0
LWPOLYLINE
  5
104
100
AcDbEntity
  8
0
 62
7
100
AcDbPolyline
 90
32
 70
1
 10
336.942000
 20
511.640060
 30
0.0
 10
337.781000
 20
511.857060
 30
0.0
 10
338.541000
 20
512.220060
 30
0.0
 10
339.221000
 20
512.727060
 30
0.0
 10
339.782000
 20
513.354060
 30
0.0
 10
340.182000
 20
514.076060
 30
0.0
 10
340.423000
 20
514.893060
 30
0.0
 10
340.503000
 20
515.804060
 30
0.0
 10
340.424000
 20
516.738060
 30
0.0
 10
340.187000
 20
517.575060
 30
0.0
 10
339.792000
 20
518.316060
 30
0.0
 10
339.239000
 20
518.960060
 30
0.0
 10
338.563000
 20
519.480060
 30
0.0
 10
337.799000
 20
519.852060
 30
0.0
 10
336.946000
 20
520.075060
 30
0.0
 10
336.005000
 20
520.150060
 30
0.0
 10
335.040000
 20
520.075060
 30
0.0
 10
334.174000
 20
519.852060
 30
0.0
 10
333.406000
 20
519.480060
 30
0.0
 10
332.736000
 20
518.960060
 30
0.0
 10
332.193000
 20
518.319060
 30
0.0
 10
331.805000
 20
517.586060
 30
0.0
 10
331.572000
 20
516.762060
 30
0.0
 10
331.494000
 20
515.846060
 30
0.0
 10
331.575000
 20
514.907060
 30
0.0
 10
331.818000
 20
514.072060
 30
0.0
 10
332.224000
 20
513.341060
 30
0.0
 10
332.791000
 20
512.715060
 30
0.0
 10
333.480000
 20
512.213060
 30
0.0
 10
334.248000
 20
511.854060
 30
0.0
 10
335.095000
 20
511.639060
 30
0.0
 10
336.023000
 20
511.567060
 30
0.0
  0
LWPOLYLINE
  5
105
100
AcDbEntity
  8
0
 62
7
100
AcDbPolyline
 90
32
 70
1
 10
335.302000
 20
511.937060
 30
0.0
 10
334.678000
 20
512.130060
 30
0.0
 10
334.143000
 20
512.451060
 30
0.0
 10
333.699000
 20
512.901060
 30
0.0
 10
333.349000
 20
513.472060
 30
0.0
 10
333.099000
 20
514.155060
 30
0.0
 10
332.950000
 20
514.950060
 30
0.0
 10
332.900000
 20
515.859060
 30
0.0
 10
332.950000
 20
516.789060
 30
0.0
 10
333.102000
 20
517.597060
 30
0.0
 10
333.356000
 20
518.282060
 30
0.0
 10
333.711000
 20
518.844060
 30
0.0
 10
334.153000
 20
519.281060
 30
0.0
 10
334.669000
 20
519.594060
 30
0.0
 10
335.257000
 20
519.782060
 30
0.0
 10
335.919000
 20
519.844060
 30
0.0
 10
336.665000
 20
519.782060
 30
0.0
 10
337.312000
 20
519.594060
 30
0.0
 10
337.859000
 20
519.281060
 30
0.0
 10
338.307000
 20
518.844060
 30
0.0
 10
338.655000
 20
518.281060
 30
0.0
 10
338.904000
 20
517.594060
 30
0.0
 10
339.053000
 20
516.782060
 30
0.0
 10
339.103000
 20
515.846060
 30
0.0
 10
339.053000
 20
514.924060
 30
0.0
 10
338.904000
 20
514.121060
 30
0.0
 10
338.655000
 20
513.439060
 30
0.0
 10
338.307000
 20
512.877060
 30
0.0
 10
337.866000
 20
512.437060
 30
0.0
 10
337.337000
 20
512.124060
 30
0.0
 10
336.720000
 20
511.935060
 30
0.0
 10
336.017000
 20
511.873060
 30
0.0
  0
LWPOLYLINE
  5
106
100
AcDbEntity
  8
0
 62
7
100
AcDbPolyline
 90
73
 70
1
 10
282.424000
 20
512.003060
 30
0.0
 10
282.240000
 20
512.003060
 30
0.0
 10
281.953000
 20
512.010060
 30
0.0
 10
281.722000
 20
512.030060
 30
0.0
 10
281.545000
 20
512.065060
 30
0.0
 10
281.424000
 20
512.113060
 30
0.0
 10
281.339000
 20
512.179060
 30
0.0
 10
281.270000
 20
512.267060
 30
0.0
 10
281.217000
 20
512.377060
 30
0.0
 10
281.180000
 20
512.509060
 30
0.0
 10
281.155000
 20
512.697060
 30
0.0
 10
281.136000
 20
512.972060
 30
0.0
 10
281.126000
 20
513.335060
 30
0.0
 10
281.122000
 20
513.785060
 30
0.0
 10
281.122000
 20
517.845060
 30
0.0
 10
281.126000
 20
518.317060
 30
0.0
 10
281.136000
 20
518.694060
 30
0.0
 10
281.155000
 20
518.978060
 30
0.0
 10
281.180000
 20
519.167060
 30
0.0
 10
281.218000
 20
519.299060
 30
0.0
 10
281.275000
 20
519.413060
 30
0.0
 10
281.350000
 20
519.508060
 30
0.0
 10
281.443000
 20
519.585060
 30
0.0
 10
281.566000
 20
519.644060
 30
0.0
 10
281.729000
 20
519.686060
 30
0.0
 10
281.934000
 20
519.711060
 30
0.0
 10
282.179000
 20
519.719060
 30
0.0
 10
282.424000
 20
519.719060
 30
0.0
 10
282.424000
 20
520.000060
 30
0.0
 10
275.391000
 20
520.000060
 30
0.0
 10
275.330000
 20
517.564060
 30
0.0
 10
275.617000
 20
517.564060
 30
0.0
 10
275.758000
 20
518.022060
 30
0.0
 10
275.906000
 20
518.414060
 30
0.0
 10
276.062000
 20
518.740060
 30
0.0
 10
276.224000
 20
518.999060
 30
0.0
 10
276.393000
 20
519.205060
 30
0.0
 10
276.566000
 20
519.371060
 30
0.0
 10
276.743000
 20
519.498060
 30
0.0
 10
276.926000
 20
519.585060
 30
0.0
 10
277.135000
 20
519.644060
 30
0.0
 10
277.393000
 20
519.686060
 30
0.0
 10
277.700000
 20
519.711060
 30
0.0
 10
278.057000
 20
519.719060
 30
0.0
 10
278.685000
 20
519.719060
 30
0.0
 10
279.011000
 20
519.711060
 30
0.0
 10
279.275000
 20
519.688060
 30
0.0
 10
279.476000
 20
519.649060
 30
0.0
 10
279.616000
 20
519.594060
 30
0.0
 10
279.713000
 20
519.525060
 30
0.0
 10
279.790000
 20
519.444060
 30
0.0
 10
279.846000
 20
519.350060
 30
0.0
 10
279.881000
 20
519.243060
 30
0.0
 10
279.902000
 20
519.088060
 30
0.0
 10
279.917000
 20
518.849060
 30
0.0
 10
279.927000
 20
518.526060
 30
0.0
 10
279.930000
 20
518.120060
 30
0.0
 10
279.930000
 20
513.785060
 30
0.0
 10
279.926000
 20
513.317060
 30
0.0
 10
279.914000
 20
512.943060
 30
0.0
 10
279.894000
 20
512.664060
 30
0.0
 10
279.866000
 20
512.479060
 30
0.0
 10
279.826000
 20
512.352060
 30
0.0
 10
279.771000
 20
512.248060
 30
0.0
 10
279.700000
 20
512.165060
 30
0.0
 10
279.613000
 20
512.103060
 30
0.0
 10
279.492000
 20
512.059060
 30
0.0
 10
279.319000
 20
512.028060
 30
0.0
 10
279.093000
 20
512.009060
 30
0.0
 10
278.815000
 20
512.003060
 30
0.0
 10
278.449000
 20
512.003060
 30
0.0
 10
278.449000
 20
511.723060
 30
0.0
 10
282.424000
 20
511.723060
 30
0.0
  0
LWPOLYLINE
  5
107
100
AcDbEntity
  8
0
 62
7
100
AcDbPolyline
 90
99
 70
1
 10
149.338000
 20
512.003060
 30
0.0
 10
149.065000
 20
512.010060
 30
0.0
 10
148.843000
 20
512.032060
 30
0.0
 10
148.673000
 20
512.070060
 30
0.0
 10
148.554000
 20
512.122060
 30
0.0
 10
148.470000
 20
512.193060
 30
0.0
 10
148.402000
 20
512.286060
 30
0.0
 10
148.351000
 20
512.402060
 30
0.0
 10
148.317000
 20
512.540060
 30
0.0
 10
148.294000
 20
512.730060
 30
0.0
 10
148.278000
 20
513.001060
 30
0.0
 10
148.268000
 20
513.353060
 30
0.0
 10
148.265000
 20
513.785060
 30
0.0
 10
148.265000
 20
517.845060
 30
0.0
 10
148.268000
 20
518.315060
 30
0.0
 10
148.277000
 20
518.687060
 30
0.0
 10
148.292000
 20
518.960060
 30
0.0
 10
148.313000
 20
519.136060
 30
0.0
 10
148.346000
 20
519.257060
 30
0.0
 10
148.395000
 20
519.367060
 30
0.0
 10
148.460000
 20
519.466060
 30
0.0
 10
148.542000
 20
519.554060
 30
0.0
 10
148.659000
 20
519.627060
 30
0.0
 10
148.831000
 20
519.678060
 30
0.0
 10
149.057000
 20
519.709060
 30
0.0
 10
149.338000
 20
519.719060
 30
0.0
 10
149.509000
 20
519.719060
 30
0.0
 10
149.509000
 20
520.000060
 30
0.0
 10
142.656000
 20
520.000060
 30
0.0
 10
142.479000
 20
517.422060
 30
0.0
 10
142.772000
 20
517.422060
 30
0.0
 10
142.892000
 20
517.856060
 30
0.0
 10
143.032000
 20
518.240060
 30
0.0
 10
143.193000
 20
518.575060
 30
0.0
 10
143.373000
 20
518.861060
 30
0.0
 10
143.566000
 20
519.100060
 30
0.0
 10
143.764000
 20
519.295060
 30
0.0
 10
143.967000
 20
519.445060
 30
0.0
 10
144.175000
 20
519.551060
 30
0.0
 10
144.400000
 20
519.625060
 30
0.0
 10
144.654000
 20
519.677060
 30
0.0
 10
144.937000
 20
519.709060
 30
0.0
 10
145.249000
 20
519.719060
 30
0.0
 10
145.865000
 20
519.719060
 30
0.0
 10
146.239000
 20
519.703060
 30
0.0
 10
146.534000
 20
519.654060
 30
0.0
 10
146.749000
 20
519.573060
 30
0.0
 10
146.883000
 20
519.460060
 30
0.0
 10
146.966000
 20
519.255060
 30
0.0
 10
147.025000
 20
518.898060
 30
0.0
 10
147.061000
 20
518.390060
 30
0.0
 10
147.072000
 20
517.730060
 30
0.0
 10
147.072000
 20
515.772060
 30
0.0
 10
146.164000
 20
515.772060
 30
0.0
 10
145.918000
 20
515.777060
 30
0.0
 10
145.710000
 20
515.790060
 30
0.0
 10
145.541000
 20
515.812060
 30
0.0
 10
145.411000
 20
515.842060
 30
0.0
 10
145.306000
 20
515.887060
 30
0.0
 10
145.215000
 20
515.953060
 30
0.0
 10
145.137000
 20
516.040060
 30
0.0
 10
145.072000
 20
516.146060
 30
0.0
 10
145.021000
 20
516.292060
 30
0.0
 10
144.985000
 20
516.494060
 30
0.0
 10
144.964000
 20
516.753060
 30
0.0
 10
144.956000
 20
517.068060
 30
0.0
 10
144.670000
 20
517.068060
 30
0.0
 10
144.670000
 20
514.234060
 30
0.0
 10
144.956000
 20
514.234060
 30
0.0
 10
144.961000
 20
514.516060
 30
0.0
 10
144.975000
 20
514.747060
 30
0.0
 10
144.999000
 20
514.928060
 30
0.0
 10
145.032000
 20
515.059060
 30
0.0
 10
145.081000
 20
515.158060
 30
0.0
 10
145.150000
 20
515.243060
 30
0.0
 10
145.239000
 20
515.315060
 30
0.0
 10
145.350000
 20
515.374060
 30
0.0
 10
145.493000
 20
515.420060
 30
0.0
 10
145.681000
 20
515.452060
 30
0.0
 10
145.915000
 20
515.472060
 30
0.0
 10
146.194000
 20
515.478060
 30
0.0
 10
147.072000
 20
515.478060
 30
0.0
 10
147.072000
 20
512.003060
 30
0.0
 10
145.926000
 20
512.003060
 30
0.0
 10
145.522000
 20
512.009060
 30
0.0
 10
145.179000
 20
512.026060
 30
0.0
 10
144.894000
 20
512.056060
 30
0.0
 10
144.670000
 20
512.097060
 30
0.0
 10
144.481000
 20
512.161060
 30
0.0
 10
144.306000
 20
512.259060
 30
0.0
 10
144.144000
 20
512.390060
 30
0.0
 10
143.996000
 20
512.554060
 30
0.0
 10
143.859000
 20
512.767060
 30
0.0
 10
143.734000
 20
513.043060
 30
0.0
 10
143.620000
 20
513.382060
 30
0.0
 10
143.517000
 20
513.783060
 30
0.0
 10
143.230000
 20
513.783060
 30
0.0
 10
143.425000
 20
511.723060
 30
0.0
 10
149.338000
 20
511.723060
 30
0.0
  0
LWPOLYLINE
  5
108
100
AcDbEntity
  8
0
 62
7
100
AcDbPolyline
 90
124
 70
1
 10
202.173000
 20
512.003060
 30
0.0
 10
201.954000
 20
512.003060
 30
0.0
 10
201.667000
 20
512.010060
 30
0.0
 10
201.435000
 20
512.030060
 30
0.0
 10
201.259000
 20
512.065060
 30
0.0
 10
201.139000
 20
512.113060
 30
0.0
 10
201.054000
 20
512.179060
 30
0.0
 10
200.985000
 20
512.267060
 30
0.0
 10
200.933000
 20
512.377060
 30
0.0
 10
200.897000
 20
512.509060
 30
0.0
 10
200.873000
 20
512.696060
 30
0.0
 10
200.856000
 20
512.972060
 30
0.0
 10
200.846000
 20
513.334060
 30
0.0
 10
200.842000
 20
513.785060
 30
0.0
 10
200.842000
 20
515.427060
 30
0.0
 10
205.163000
 20
515.427060
 30
0.0
 10
205.163000
 20
513.785060
 30
0.0
 10
205.159000
 20
513.317060
 30
0.0
 10
205.147000
 20
512.943060
 30
0.0
 10
205.127000
 20
512.664060
 30
0.0
 10
205.099000
 20
512.480060
 30
0.0
 10
205.059000
 20
512.353060
 30
0.0
 10
205.004000
 20
512.249060
 30
0.0
 10
204.933000
 20
512.166060
 30
0.0
 10
204.846000
 20
512.104060
 30
0.0
 10
204.726000
 20
512.060060
 30
0.0
 10
204.553000
 20
512.029060
 30
0.0
 10
204.330000
 20
512.010060
 30
0.0
 10
204.054000
 20
512.004060
 30
0.0
 10
203.901000
 20
512.004060
 30
0.0
 10
203.901000
 20
511.723060
 30
0.0
 10
207.622000
 20
511.723060
 30
0.0
 10
207.622000
 20
512.004060
 30
0.0
 10
207.470000
 20
512.004060
 30
0.0
 10
207.184000
 20
512.011060
 30
0.0
 10
206.953000
 20
512.031060
 30
0.0
 10
206.777000
 20
512.065060
 30
0.0
 10
206.657000
 20
512.114060
 30
0.0
 10
206.572000
 20
512.180060
 30
0.0
 10
206.503000
 20
512.268060
 30
0.0
 10
206.450000
 20
512.378060
 30
0.0
 10
206.413000
 20
512.510060
 30
0.0
 10
206.388000
 20
512.698060
 30
0.0
 10
206.370000
 20
512.973060
 30
0.0
 10
206.359000
 20
513.335060
 30
0.0
 10
206.355000
 20
513.786060
 30
0.0
 10
206.355000
 20
517.845060
 30
0.0
 10
206.359000
 20
518.317060
 30
0.0
 10
206.370000
 20
518.694060
 30
0.0
 10
206.388000
 20
518.978060
 30
0.0
 10
206.413000
 20
519.167060
 30
0.0
 10
206.451000
 20
519.299060
 30
0.0
 10
206.507000
 20
519.413060
 30
0.0
 10
206.582000
 20
519.508060
 30
0.0
 10
206.675000
 20
519.585060
 30
0.0
 10
206.797000
 20
519.644060
 30
0.0
 10
206.961000
 20
519.686060
 30
0.0
 10
207.164000
 20
519.711060
 30
0.0
 10
207.409000
 20
519.719060
 30
0.0
 10
207.622000
 20
519.719060
 30
0.0
 10
207.622000
 20
520.000060
 30
0.0
 10
203.901000
 20
520.000060
 30
0.0
 10
203.901000
 20
519.719060
 30
0.0
 10
204.115000
 20
519.719060
 30
0.0
 10
204.370000
 20
519.710060
 30
0.0
 10
204.580000
 20
519.683060
 30
0.0
 10
204.746000
 20
519.637060
 30
0.0
 10
204.867000
 20
519.573060
 30
0.0
 10
204.957000
 20
519.490060
 30
0.0
 10
205.028000
 20
519.387060
 30
0.0
 10
205.080000
 20
519.265060
 30
0.0
 10
205.114000
 20
519.124060
 30
0.0
 10
205.135000
 20
518.930060
 30
0.0
 10
205.151000
 20
518.653060
 30
0.0
 10
205.160000
 20
518.291060
 30
0.0
 10
205.163000
 20
517.844060
 30
0.0
 10
205.163000
 20
515.847060
 30
0.0
 10
200.842000
 20
515.847060
 30
0.0
 10
200.842000
 20
517.844060
 30
0.0
 10
200.846000
 20
518.316060
 30
0.0
 10
200.856000
 20
518.694060
 30
0.0
 10
200.873000
 20
518.977060
 30
0.0
 10
200.897000
 20
519.167060
 30
0.0
 10
200.934000
 20
519.299060
 30
0.0
 10
200.990000
 20
519.413060
 30
0.0
 10
201.064000
 20
519.508060
 30
0.0
 10
201.157000
 20
519.585060
 30
0.0
 10
201.279000
 20
519.644060
 30
0.0
 10
201.442000
 20
519.686060
 30
0.0
 10
201.644000
 20
519.711060
 30
0.0
 10
201.886000
 20
519.719060
 30
0.0
 10
202.173000
 20
519.719060
 30
0.0
 10
202.173000
 20
520.000060
 30
0.0
 10
198.406000
 20
520.000060
 30
0.0
 10
198.406000
 20
519.719060
 30
0.0
 10
198.596000
 20
519.719060
 30
0.0
 10
198.851000
 20
519.710060
 30
0.0
 10
199.062000
 20
519.683060
 30
0.0
 10
199.229000
 20
519.637060
 30
0.0
 10
199.352000
 20
519.573060
 30
0.0
 10
199.443000
 20
519.490060
 30
0.0
 10
199.514000
 20
519.387060
 30
0.0
 10
199.566000
 20
519.265060
 30
0.0
 10
199.599000
 20
519.124060
 30
0.0
 10
199.619000
 20
518.931060
 30
0.0
 10
199.633000
 20
518.653060
 30
0.0
 10
199.642000
 20
518.291060
 30
0.0
 10
199.645000
 20
517.845060
 30
0.0
 10
199.645000
 20
513.785060
 30
0.0
 10
199.641000
 20
513.317060
 30
0.0
 10
199.629000
 20
512.943060
 30
0.0
 10
199.609000
 20
512.664060
 30
0.0
 10
199.581000
 20
512.479060
 30
0.0
 10
199.541000
 20
512.352060
 30
0.0
 10
199.485000
 20
512.248060
 30
0.0
 10
199.414000
 20
512.165060
 30
0.0
 10
199.328000
 20
512.103060
 30
0.0
 10
199.207000
 20
512.059060
 30
0.0
 10
199.033000
 20
512.028060
 30
0.0
 10
198.807000
 20
512.009060
 30
0.0
 10
198.528000
 20
512.003060
 30
0.0
 10
198.406000
 20
512.003060
 30
0.0
 10
198.406000
 20
511.723060
 30
0.0
 10
202.173000
 20
511.723060
 30
0.0
  0
LWPOLYLINE
  5
109
100
AcDbEntity
  8
0
 62
7
100
AcDbPolyline
 90
60
 70
1
 10
223.890000
 20
512.003060
 30
0.0
 10
223.713000
 20
512.003060
 30
0.0
 10
223.427000
 20
512.010060
 30
0.0
 10
223.196000
 20
512.030060
 30
0.0
 10
223.020000
 20
512.065060
 30
0.0
 10
222.898000
 20
512.113060
 30
0.0
 10
222.812000
 20
512.179060
 30
0.0
 10
222.743000
 20
512.267060
 30
0.0
 10
222.690000
 20
512.377060
 30
0.0
 10
222.655000
 20
512.509060
 30
0.0
 10
222.631000
 20
512.697060
 30
0.0
 10
222.613000
 20
512.972060
 30
0.0
 10
222.603000
 20
513.335060
 30
0.0
 10
222.600000
 20
513.785060
 30
0.0
 10
222.600000
 20
517.845060
 30
0.0
 10
222.603000
 20
518.317060
 30
0.0
 10
222.613000
 20
518.694060
 30
0.0
 10
222.631000
 20
518.978060
 30
0.0
 10
222.655000
 20
519.167060
 30
0.0
 10
222.691000
 20
519.299060
 30
0.0
 10
222.747000
 20
519.413060
 30
0.0
 10
222.821000
 20
519.508060
 30
0.0
 10
222.913000
 20
519.585060
 30
0.0
 10
223.035000
 20
519.644060
 30
0.0
 10
223.198000
 20
519.686060
 30
0.0
 10
223.402000
 20
519.711060
 30
0.0
 10
223.647000
 20
519.719060
 30
0.0
 10
223.890000
 20
519.719060
 30
0.0
 10
223.890000
 20
520.000060
 30
0.0
 10
220.106000
 20
520.000060
 30
0.0
 10
220.106000
 20
519.719060
 30
0.0
 10
220.350000
 20
519.719060
 30
0.0
 10
220.609000
 20
519.710060
 30
0.0
 10
220.822000
 20
519.683060
 30
0.0
 10
220.989000
 20
519.637060
 30
0.0
 10
221.111000
 20
519.573060
 30
0.0
 10
221.201000
 20
519.490060
 30
0.0
 10
221.272000
 20
519.387060
 30
0.0
 10
221.323000
 20
519.265060
 30
0.0
 10
221.356000
 20
519.124060
 30
0.0
 10
221.376000
 20
518.931060
 30
0.0
 10
221.390000
 20
518.653060
 30
0.0
 10
221.399000
 20
518.291060
 30
0.0
 10
221.402000
 20
517.845060
 30
0.0
 10
221.402000
 20
513.785060
 30
0.0
 10
221.398000
 20
513.317060
 30
0.0
 10
221.386000
 20
512.943060
 30
0.0
 10
221.366000
 20
512.664060
 30
0.0
 10
221.337000
 20
512.479060
 30
0.0
 10
221.298000
 20
512.352060
 30
0.0
 10
221.242000
 20
512.248060
 30
0.0
 10
221.171000
 20
512.165060
 30
0.0
 10
221.084000
 20
512.103060
 30
0.0
 10
220.963000
 20
512.059060
 30
0.0
 10
220.789000
 20
512.028060
 30
0.0
 10
220.562000
 20
512.009060
 30
0.0
 10
220.283000
 20
512.003060
 30
0.0
 10
220.106000
 20
512.003060
 30
0.0
 10
220.106000
 20
511.723060
 30
0.0
 10
223.890000
 20
511.723060
 30
0.0
  0
LWPOLYLINE
  5
10a
100
AcDbEntity
  8
0
 62
7
100
AcDbPolyline
 90
95
 70
1
 10
297.999000
 20
518.573060
 30
0.0
 10
301.032000
 20
511.723060
 30
0.0
 10
303.553000
 20
511.723060
 30
0.0
 10
303.553000
 20
512.004060
 30
0.0
 10
303.328000
 20
512.004060
 30
0.0
 10
303.041000
 20
512.011060
 30
0.0
 10
302.810000
 20
512.031060
 30
0.0
 10
302.634000
 20
512.065060
 30
0.0
 10
302.513000
 20
512.114060
 30
0.0
 10
302.428000
 20
512.180060
 30
0.0
 10
302.359000
 20
512.268060
 30
0.0
 10
302.306000
 20
512.378060
 30
0.0
 10
302.269000
 20
512.510060
 30
0.0
 10
302.244000
 20
512.698060
 30
0.0
 10
302.226000
 20
512.973060
 30
0.0
 10
302.215000
 20
513.335060
 30
0.0
 10
302.211000
 20
513.786060
 30
0.0
 10
302.211000
 20
517.387060
 30
0.0
 10
302.216000
 20
517.860060
 30
0.0
 10
302.230000
 20
518.251060
 30
0.0
 10
302.252000
 20
518.562060
 30
0.0
 10
302.284000
 20
518.791060
 30
0.0
 10
302.337000
 20
518.973060
 30
0.0
 10
302.422000
 20
519.140060
 30
0.0
 10
302.540000
 20
519.292060
 30
0.0
 10
302.690000
 20
519.429060
 30
0.0
 10
302.869000
 20
519.545060
 30
0.0
 10
303.072000
 20
519.631060
 30
0.0
 10
303.300000
 20
519.690060
 30
0.0
 10
303.553000
 20
519.719060
 30
0.0
 10
303.553000
 20
520.000060
 30
0.0
 10
300.593000
 20
520.000060
 30
0.0
 10
300.593000
 20
519.719060
 30
0.0
 10
300.864000
 20
519.686060
 30
0.0
 10
301.102000
 20
519.624060
 30
0.0
 10
301.309000
 20
519.532060
 30
0.0
 10
301.484000
 20
519.411060
 30
0.0
 10
301.627000
 20
519.270060
 30
0.0
 10
301.737000
 20
519.117060
 30
0.0
 10
301.816000
 20
518.954060
 30
0.0
 10
301.862000
 20
518.779060
 30
0.0
 10
301.889000
 20
518.559060
 30
0.0
 10
301.908000
 20
518.260060
 30
0.0
 10
301.919000
 20
517.882060
 30
0.0
 10
301.923000
 20
517.424060
 30
0.0
 10
301.923000
 20
512.577060
 30
0.0
 10
298.621000
 20
520.000060
 30
0.0
 10
298.334000
 20
520.000060
 30
0.0
 10
295.057000
 20
512.577060
 30
0.0
 10
295.057000
 20
517.845060
 30
0.0
 10
295.061000
 20
518.317060
 30
0.0
 10
295.072000
 20
518.694060
 30
0.0
 10
295.090000
 20
518.978060
 30
0.0
 10
295.115000
 20
519.167060
 30
0.0
 10
295.153000
 20
519.299060
 30
0.0
 10
295.210000
 20
519.413060
 30
0.0
 10
295.285000
 20
519.508060
 30
0.0
 10
295.378000
 20
519.585060
 30
0.0
 10
295.500000
 20
519.644060
 30
0.0
 10
295.662000
 20
519.686060
 30
0.0
 10
295.864000
 20
519.711060
 30
0.0
 10
296.107000
 20
519.719060
 30
0.0
 10
296.399000
 20
519.719060
 30
0.0
 10
296.399000
 20
520.000060
 30
0.0
 10
292.442000
 20
520.000060
 30
0.0
 10
292.442000
 20
519.719060
 30
0.0
 10
292.809000
 20
519.719060
 30
0.0
 10
293.067000
 20
519.710060
 30
0.0
 10
293.280000
 20
519.683060
 30
0.0
 10
293.447000
 20
519.637060
 30
0.0
 10
293.569000
 20
519.573060
 30
0.0
 10
293.659000
 20
519.490060
 30
0.0
 10
293.730000
 20
519.387060
 30
0.0
 10
293.782000
 20
519.265060
 30
0.0
 10
293.816000
 20
519.124060
 30
0.0
 10
293.838000
 20
518.931060
 30
0.0
 10
293.853000
 20
518.653060
 30
0.0
 10
293.862000
 20
518.291060
 30
0.0
 10
293.865000
 20
517.845060
 30
0.0
 10
293.865000
 20
513.786060
 30
0.0
 10
293.861000
 20
513.318060
 30
0.0
 10
293.849000
 20
512.944060
 30
0.0
 10
293.829000
 20
512.664060
 30
0.0
 10
293.801000
 20
512.480060
 30
0.0
 10
293.761000
 20
512.353060
 30
0.0
 10
293.706000
 20
512.249060
 30
0.0
 10
293.635000
 20
512.166060
 30
0.0
 10
293.548000
 20
512.104060
 30
0.0
 10
293.427000
 20
512.060060
 30
0.0
 10
293.254000
 20
512.029060
 30
0.0
 10
293.028000
 20
512.010060
 30
0.0
 10
292.750000
 20
512.004060
 30
0.0
 10
292.445000
 20
512.004060
 30
0.0
 10
292.445000
 20
511.723060
 30
0.0
 10
294.984000
 20
511.723060
 30
0.0
  0
LWPOLYLINE
  5
10b
100
AcDbEntity
  8
0
 62
7
100
AcDbPolyline
 90
64
 70
1
 10
91.098500
 20
511.686060
 30
0.0
 10
92.459600
 20
511.722060
 30
0.0
 10
92.459600
 20
512.002060
 30
0.0
 10
92.300800
 20
512.002060
 30
0.0
 10
92.014000
 20
512.009060
 30
0.0
 10
91.782500
 20
512.030060
 30
0.0
 10
91.606400
 20
512.064060
 30
0.0
 10
91.485600
 20
512.112060
 30
0.0
 10
91.400400
 20
512.178060
 30
0.0
 10
91.331400
 20
512.268060
 30
0.0
 10
91.278300
 20
512.380060
 30
0.0
 10
91.241300
 20
512.515060
 30
0.0
 10
91.215900
 20
512.706060
 30
0.0
 10
91.197800
 20
512.987060
 30
0.0
 10
91.186900
 20
513.356060
 30
0.0
 10
91.183300
 20
513.815060
 30
0.0
 10
91.183300
 20
517.844060
 30
0.0
 10
91.186700
 20
518.316060
 30
0.0
 10
91.197000
 20
518.693060
 30
0.0
 10
91.214200
 20
518.977060
 30
0.0
 10
91.238300
 20
519.166060
 30
0.0
 10
91.275100
 20
519.298060
 30
0.0
 10
91.330600
 20
519.412060
 30
0.0
 10
91.404900
 20
519.507060
 30
0.0
 10
91.497800
 20
519.584060
 30
0.0
 10
91.620500
 20
519.643060
 30
0.0
 10
91.784000
 20
519.685060
 30
0.0
 10
91.988400
 20
519.710060
 30
0.0
 10
92.233700
 20
519.718060
 30
0.0
 10
92.551300
 20
519.718060
 30
0.0
 10
92.551300
 20
520.000060
 30
0.0
 10
89.302300
 20
520.000060
 30
0.0
 10
88.725300
 20
519.989060
 30
0.0
 10
88.209800
 20
519.957060
 30
0.0
 10
87.755800
 20
519.902060
 30
0.0
 10
87.363200
 20
519.826060
 30
0.0
 10
87.017600
 20
519.715060
 30
0.0
 10
86.704400
 20
519.554060
 30
0.0
 10
86.423700
 20
519.345060
 30
0.0
 10
86.175400
 20
519.087060
 30
0.0
 10
85.972300
 20
518.792060
 30
0.0
 10
85.827300
 20
518.469060
 30
0.0
 10
85.740300
 20
518.119060
 30
0.0
 10
85.711300
 20
517.741060
 30
0.0
 10
85.754100
 20
517.311060
 30
0.0
 10
85.882700
 20
516.919060
 30
0.0
 10
86.096900
 20
516.564060
 30
0.0
 10
86.396900
 20
516.246060
 30
0.0
 10
86.785000
 20
515.978060
 30
0.0
 10
87.263600
 20
515.771060
 30
0.0
 10
87.832700
 20
515.627060
 30
0.0
 10
88.492400
 20
515.544060
 30
0.0
 10
87.943300
 20
515.438060
 30
0.0
 10
87.467800
 20
515.293060
 30
0.0
 10
87.066000
 20
515.109060
 30
0.0
 10
86.737700
 20
514.884060
 30
0.0
 10
86.482700
 20
514.620060
 30
0.0
 10
86.300500
 20
514.317060
 30
0.0
 10
86.191200
 20
513.973060
 30
0.0
 10
86.154800
 20
513.590060
 30
0.0
 10
86.366900
 20
512.736060
 30
0.0
 10
87.003100
 20
512.125060
 30
0.0
 10
88.063600
 20
511.759060
 30
0.0
 10
89.548200
 20
511.637060
 30
0.0
  0
LWPOLYLINE
  5
10c
100
AcDbEntity
  8
0
 62
7
100
AcDbPolyline
 90
33
 70
1
 10
88.877800
 20
515.744060
 30
0.0
 10
88.339200
 20
515.835060
 30
0.0
 10
87.905600
 20
515.986060
 30
0.0
 10
87.577000
 20
516.199060
 30
0.0
 10
87.335300
 20
516.475060
 30
0.0
 10
87.162600
 20
516.819060
 30
0.0
 10
87.059100
 20
517.230060
 30
0.0
 10
87.024500
 20
517.709060
 30
0.0
 10
87.055100
 20
518.179060
 30
0.0
 10
87.146600
 20
518.586060
 30
0.0
 10
87.299200
 20
518.930060
 30
0.0
 10
87.512900
 20
519.211060
 30
0.0
 10
87.787600
 20
519.430060
 30
0.0
 10
88.123300
 20
519.587060
 30
0.0
 10
88.520100
 20
519.681060
 30
0.0
 10
88.978000
 20
519.712060
 30
0.0
 10
89.229900
 20
519.702060
 30
0.0
 10
89.436500
 20
519.671060
 30
0.0
 10
89.597700
 20
519.619060
 30
0.0
 10
89.713500
 20
519.547060
 30
0.0
 10
89.797600
 20
519.455060
 30
0.0
 10
89.863800
 20
519.344060
 30
0.0
 10
89.912100
 20
519.214060
 30
0.0
 10
89.942400
 20
519.065060
 30
0.0
 10
89.961100
 20
518.852060
 30
0.0
 10
89.974500
 20
518.532060
 30
0.0
 10
89.982500
 20
518.104060
 30
0.0
 10
89.985200
 20
517.569060
 30
0.0
 10
89.985200
 20
515.725060
 30
0.0
 10
89.864600
 20
515.720060
 30
0.0
 10
89.747100
 20
515.716060
 30
0.0
 10
89.632600
 20
515.714060
 30
0.0
 10
89.521200
 20
515.713060
 30
0.0
  0
LWPOLYLINE
  5
10d
100
AcDbEntity
  8
0
 62
7
100
AcDbPolyline
 90
26
 70
1
 10
89.074400
 20
511.948060
 30
0.0
 10
88.718000
 20
511.984060
 30
0.0
 10
88.428600
 20
512.044060
 30
0.0
 10
88.206200
 20
512.128060
 30
0.0
 10
88.029200
 20
512.234060
 30
0.0
 10
87.875700
 20
512.361060
 30
0.0
 10
87.745900
 20
512.508060
 30
0.0
 10
87.639700
 20
512.674060
 30
0.0
 10
87.557000
 20
512.870060
 30
0.0
 10
87.498000
 20
513.101060
 30
0.0
 10
87.462600
 20
513.370060
 30
0.0
 10
87.450800
 20
513.675060
 30
0.0
 10
87.480900
 20
514.107060
 30
0.0
 10
87.571100
 20
514.474060
 30
0.0
 10
87.721500
 20
514.778060
 30
0.0
 10
87.932100
 20
515.017060
 30
0.0
 10
88.224900
 20
515.199060
 30
0.0
 10
88.622000
 20
515.329060
 30
0.0
 10
89.123400
 20
515.406060
 30
0.0
 10
89.729200
 20
515.432060
 30
0.0
 10
89.985200
 20
515.432060
 30
0.0
 10
89.985200
 20
511.954060
 30
0.0
 10
89.861000
 20
511.946060
 30
0.0
 10
89.738400
 20
511.941060
 30
0.0
 10
89.617300
 20
511.937060
 30
0.0
 10
89.497700
 20
511.936060
 30
0.0
  0
LWPOLYLINE
  5
10e
100
AcDbEntity
  8
0
 62
7
100
AcDbPolyline
 90
87
 70
1
 10
168.057000
 20
512.004060
 30
0.0
 10
167.911000
 20
512.004060
 30
0.0
 10
167.624000
 20
512.011060
 30
0.0
 10
167.392000
 20
512.031060
 30
0.0
 10
167.216000
 20
512.065060
 30
0.0
 10
167.095000
 20
512.114060
 30
0.0
 10
167.010000
 20
512.180060
 30
0.0
 10
166.941000
 20
512.268060
 30
0.0
 10
166.888000
 20
512.378060
 30
0.0
 10
166.851000
 20
512.510060
 30
0.0
 10
166.825000
 20
512.698060
 30
0.0
 10
166.807000
 20
512.973060
 30
0.0
 10
166.796000
 20
513.335060
 30
0.0
 10
166.793000
 20
513.786060
 30
0.0
 10
166.793000
 20
517.845060
 30
0.0
 10
166.796000
 20
518.317060
 30
0.0
 10
166.807000
 20
518.694060
 30
0.0
 10
166.825000
 20
518.978060
 30
0.0
 10
166.851000
 20
519.167060
 30
0.0
 10
166.889000
 20
519.299060
 30
0.0
 10
166.945000
 20
519.413060
 30
0.0
 10
167.020000
 20
519.508060
 30
0.0
 10
167.113000
 20
519.585060
 30
0.0
 10
167.236000
 20
519.644060
 30
0.0
 10
167.400000
 20
519.686060
 30
0.0
 10
167.604000
 20
519.711060
 30
0.0
 10
167.849000
 20
519.719060
 30
0.0
 10
168.106000
 20
519.719060
 30
0.0
 10
168.106000
 20
520.000060
 30
0.0
 10
164.258000
 20
520.000060
 30
0.0
 10
164.258000
 20
519.719060
 30
0.0
 10
164.539000
 20
519.719060
 30
0.0
 10
164.799000
 20
519.710060
 30
0.0
 10
165.014000
 20
519.683060
 30
0.0
 10
165.182000
 20
519.637060
 30
0.0
 10
165.304000
 20
519.573060
 30
0.0
 10
165.394000
 20
519.490060
 30
0.0
 10
165.465000
 20
519.387060
 30
0.0
 10
165.518000
 20
519.266060
 30
0.0
 10
165.552000
 20
519.124060
 30
0.0
 10
165.573000
 20
518.931060
 30
0.0
 10
165.588000
 20
518.654060
 30
0.0
 10
165.597000
 20
518.292060
 30
0.0
 10
165.600000
 20
517.846060
 30
0.0
 10
165.600000
 20
515.789060
 30
0.0
 10
164.827000
 20
515.789060
 30
0.0
 10
164.547000
 20
515.796060
 30
0.0
 10
164.318000
 20
515.818060
 30
0.0
 10
164.138000
 20
515.853060
 30
0.0
 10
164.008000
 20
515.902060
 30
0.0
 10
163.909000
 20
515.971060
 30
0.0
 10
163.823000
 20
516.064060
 30
0.0
 10
163.751000
 20
516.181060
 30
0.0
 10
163.691000
 20
516.323060
 30
0.0
 10
163.644000
 20
516.490060
 30
0.0
 10
163.611000
 20
516.686060
 30
0.0
 10
163.591000
 20
516.909060
 30
0.0
 10
163.584000
 20
517.160060
 30
0.0
 10
163.279000
 20
517.160060
 30
0.0
 10
163.279000
 20
514.240060
 30
0.0
 10
163.584000
 20
514.240060
 30
0.0
 10
163.600000
 20
514.591060
 30
0.0
 10
163.646000
 20
514.877060
 30
0.0
 10
163.723000
 20
515.100060
 30
0.0
 10
163.831000
 20
515.259060
 30
0.0
 10
163.986000
 20
515.370060
 30
0.0
 10
164.203000
 20
515.449060
 30
0.0
 10
164.484000
 20
515.497060
 30
0.0
 10
164.827000
 20
515.513060
 30
0.0
 10
165.600000
 20
515.513060
 30
0.0
 10
165.600000
 20
512.004060
 30
0.0
 10
163.985000
 20
512.004060
 30
0.0
 10
163.628000
 20
512.011060
 30
0.0
 10
163.328000
 20
512.031060
 30
0.0
 10
163.083000
 20
512.065060
 30
0.0
 10
162.894000
 20
512.113060
 30
0.0
 10
162.734000
 20
512.189060
 30
0.0
 10
162.577000
 20
512.306060
 30
0.0
 10
162.424000
 20
512.465060
 30
0.0
 10
162.275000
 20
512.665060
 30
0.0
 10
162.140000
 20
512.900060
 30
0.0
 10
162.032000
 20
513.165060
 30
0.0
 10
161.949000
 20
513.459060
 30
0.0
 10
161.894000
 20
513.783060
 30
0.0
 10
161.607000
 20
513.783060
 30
0.0
 10
161.674000
 20
511.723060
 30
0.0
 10
168.057000
 20
511.723060
 30
0.0
  0
LWPOLYLINE
  5
10f
100
AcDbEntity
  8
0
 62
7
100
AcDbPolyline
 90
112
 70
1
 10
259.503000
 20
512.003060
 30
0.0
 10
259.118000
 20
512.045060
 30
0.0
 10
258.844000
 20
512.148060
 30
0.0
 10
258.679000
 20
512.311060
 30
0.0
 10
258.624000
 20
512.534060
 30
0.0
 10
258.679000
 20
512.730060
 30
0.0
 10
258.844000
 20
512.983060
 30
0.0
 10
259.118000
 20
513.292060
 30
0.0
 10
259.502000
 20
513.657060
 30
0.0
 10
262.026000
 20
515.934060
 30
0.0
 10
262.026000
 20
513.785060
 30
0.0
 10
262.022000
 20
513.317060
 30
0.0
 10
262.010000
 20
512.943060
 30
0.0
 10
261.990000
 20
512.664060
 30
0.0
 10
261.962000
 20
512.479060
 30
0.0
 10
261.922000
 20
512.352060
 30
0.0
 10
261.867000
 20
512.248060
 30
0.0
 10
261.796000
 20
512.165060
 30
0.0
 10
261.709000
 20
512.103060
 30
0.0
 10
261.588000
 20
512.059060
 30
0.0
 10
261.415000
 20
512.028060
 30
0.0
 10
261.189000
 20
512.009060
 30
0.0
 10
260.911000
 20
512.003060
 30
0.0
 10
260.759000
 20
512.003060
 30
0.0
 10
260.759000
 20
511.723060
 30
0.0
 10
264.422000
 20
511.723060
 30
0.0
 10
264.422000
 20
512.003060
 30
0.0
 10
264.105000
 20
512.009060
 30
0.0
 10
263.852000
 20
512.027060
 30
0.0
 10
263.662000
 20
512.058060
 30
0.0
 10
263.536000
 20
512.100060
 30
0.0
 10
263.449000
 20
512.161060
 30
0.0
 10
263.378000
 20
512.244060
 30
0.0
 10
263.322000
 20
512.350060
 30
0.0
 10
263.282000
 20
512.479060
 30
0.0
 10
263.254000
 20
512.666060
 30
0.0
 10
263.234000
 20
512.946060
 30
0.0
 10
263.222000
 20
513.319060
 30
0.0
 10
263.218000
 20
513.785060
 30
0.0
 10
263.218000
 20
517.845060
 30
0.0
 10
263.222000
 20
518.317060
 30
0.0
 10
263.233000
 20
518.694060
 30
0.0
 10
263.251000
 20
518.978060
 30
0.0
 10
263.276000
 20
519.167060
 30
0.0
 10
263.314000
 20
519.299060
 30
0.0
 10
263.371000
 20
519.413060
 30
0.0
 10
263.446000
 20
519.508060
 30
0.0
 10
263.539000
 20
519.585060
 30
0.0
 10
263.662000
 20
519.644060
 30
0.0
 10
263.825000
 20
519.686060
 30
0.0
 10
264.030000
 20
519.711060
 30
0.0
 10
264.275000
 20
519.719060
 30
0.0
 10
264.531000
 20
519.719060
 30
0.0
 10
264.531000
 20
520.000060
 30
0.0
 10
260.816000
 20
520.000060
 30
0.0
 10
260.816000
 20
519.719060
 30
0.0
 10
260.974000
 20
519.719060
 30
0.0
 10
261.231000
 20
519.710060
 30
0.0
 10
261.443000
 20
519.683060
 30
0.0
 10
261.610000
 20
519.637060
 30
0.0
 10
261.731000
 20
519.573060
 30
0.0
 10
261.821000
 20
519.490060
 30
0.0
 10
261.891000
 20
519.387060
 30
0.0
 10
261.944000
 20
519.265060
 30
0.0
 10
261.977000
 20
519.124060
 30
0.0
 10
261.999000
 20
518.931060
 30
0.0
 10
262.014000
 20
518.653060
 30
0.0
 10
262.023000
 20
518.291060
 30
0.0
 10
262.026000
 20
517.845060
 30
0.0
 10
262.026000
 20
516.337060
 30
0.0
 10
261.436000
 20
515.818060
 30
0.0
 10
259.100000
 20
518.175060
 30
0.0
 10
258.713000
 20
518.578060
 30
0.0
 10
258.437000
 20
518.903060
 30
0.0
 10
258.271000
 20
519.149060
 30
0.0
 10
258.216000
 20
519.316060
 30
0.0
 10
258.226000
 20
519.398060
 30
0.0
 10
258.258000
 20
519.473060
 30
0.0
 10
258.312000
 20
519.542060
 30
0.0
 10
258.386000
 20
519.603060
 30
0.0
 10
258.504000
 20
519.654060
 30
0.0
 10
258.688000
 20
519.690060
 30
0.0
 10
258.937000
 20
519.712060
 30
0.0
 10
259.252000
 20
519.719060
 30
0.0
 10
259.417000
 20
519.719060
 30
0.0
 10
259.417000
 20
520.000060
 30
0.0
 10
255.120000
 20
520.000060
 30
0.0
 10
255.120000
 20
519.719060
 30
0.0
 10
255.393000
 20
519.705060
 30
0.0
 10
255.640000
 20
519.663060
 30
0.0
 10
255.860000
 20
519.592060
 30
0.0
 10
256.053000
 20
519.493060
 30
0.0
 10
256.277000
 20
519.327060
 30
0.0
 10
256.589000
 20
519.054060
 30
0.0
 10
256.988000
 20
518.674060
 30
0.0
 10
257.475000
 20
518.187060
 30
0.0
 10
260.576000
 20
515.055060
 30
0.0
 10
259.070000
 20
513.663060
 30
0.0
 10
258.665000
 20
513.287060
 30
0.0
 10
258.330000
 20
512.981060
 30
0.0
 10
258.065000
 20
512.746060
 30
0.0
 10
257.868000
 20
512.583060
 30
0.0
 10
257.703000
 20
512.461060
 30
0.0
 10
257.529000
 20
512.351060
 30
0.0
 10
257.348000
 20
512.253060
 30
0.0
 10
257.158000
 20
512.168060
 30
0.0
 10
256.965000
 20
512.098060
 30
0.0
 10
256.772000
 20
512.048060
 30
0.0
 10
256.579000
 20
512.019060
 30
0.0
 10
256.387000
 20
512.009060
 30
0.0
 10
256.387000
 20
511.723060
 30
0.0
 10
259.503000
 20
511.723060
 30
0.0
  0
LWPOLYLINE
  5
110
100
AcDbEntity
  8
0
 62
7
100
AcDbPolyline
 90
57
 70
1
 10
72.468800
 20
517.351060
 30
0.0
 10
72.585500
 20
517.626060
 30
0.0
 10
72.673300
 20
517.836060
 30
0.0
 10
72.732000
 20
517.980060
 30
0.0
 10
72.761800
 20
518.059060
 30
0.0
 10
72.944200
 20
518.503060
 30
0.0
 10
73.112900
 20
518.862060
 30
0.0
 10
73.267800
 20
519.139060
 30
0.0
 10
73.409000
 20
519.332060
 30
0.0
 10
73.560900
 20
519.469060
 30
0.0
 10
73.747800
 20
519.580060
 30
0.0
 10
73.969900
 20
519.663060
 30
0.0
 10
74.227000
 20
519.719060
 30
0.0
 10
74.227000
 20
520.000060
 30
0.0
 10
71.767500
 20
520.000060
 30
0.0
 10
71.767500
 20
519.719060
 30
0.0
 10
71.956900
 20
519.707060
 30
0.0
 10
72.128400
 20
519.671060
 30
0.0
 10
72.281900
 20
519.611060
 30
0.0
 10
72.417500
 20
519.527060
 30
0.0
 10
72.528300
 20
519.420060
 30
0.0
 10
72.607400
 20
519.290060
 30
0.0
 10
72.654900
 20
519.138060
 30
0.0
 10
72.670700
 20
518.964060
 30
0.0
 10
72.641000
 20
518.740060
 30
0.0
 10
72.551700
 20
518.418060
 30
0.0
 10
72.402900
 20
517.997060
 30
0.0
 10
72.194700
 20
517.477060
 30
0.0
 10
71.981100
 20
516.953060
 30
0.0
 10
68.835600
 20
516.953060
 30
0.0
 10
68.200500
 20
518.482060
 30
0.0
 10
68.077700
 20
518.781060
 30
0.0
 10
67.989900
 20
519.014060
 30
0.0
 10
67.937200
 20
519.180060
 30
0.0
 10
67.919600
 20
519.280060
 30
0.0
 10
67.932800
 20
519.401060
 30
0.0
 10
67.972300
 20
519.499060
 30
0.0
 10
68.038200
 20
519.576060
 30
0.0
 10
68.130300
 20
519.631060
 30
0.0
 10
68.259900
 20
519.670060
 30
0.0
 10
68.437900
 20
519.697060
 30
0.0
 10
68.664400
 20
519.714060
 30
0.0
 10
68.939300
 20
519.719060
 30
0.0
 10
68.939300
 20
520.000060
 30
0.0
 10
65.685000
 20
520.000060
 30
0.0
 10
65.685000
 20
519.719060
 30
0.0
 10
65.888200
 20
519.690060
 30
0.0
 10
66.064300
 20
519.645060
 30
0.0
 10
66.213300
 20
519.585060
 30
0.0
 10
66.335300
 20
519.509060
 30
0.0
 10
66.438100
 20
519.417060
 30
0.0
 10
66.529900
 20
519.309060
 30
0.0
 10
66.610700
 20
519.186060
 30
0.0
 10
66.680300
 20
519.048060
 30
0.0
 10
67.058900
 20
518.181060
 30
0.0
 10
69.825000
 20
511.608060
 30
0.0
 10
70.063300
 20
511.608060
 30
0.0
  0
LWPOLYLINE
  5
111
100
AcDbEntity
  8
0
 62
7
100
AcDbPolyline
 90
3
 70
1
 10
68.939300
 20
516.676060
 30
0.0
 10
71.865200
 20
516.676060
 30
0.0
 10
70.405400
 20
513.147060
 30
0.0
  0
LWPOLYLINE
  5
112
100
AcDbEntity
  8
0
 62
7
100
AcDbPolyline
 90
67
 70
1
 10
128.169000
 20
511.640060
 30
0.0
 10
128.674000
 20
511.656060
 30
0.0
 10
129.316000
 20
511.683060
 30
0.0
 10
130.098000
 20
511.720060
 30
0.0
 10
131.459000
 20
511.788060
 30
0.0
 10
131.459000
 20
512.068060
 30
0.0
 10
131.215000
 20
512.068060
 30
0.0
 10
130.928000
 20
512.075060
 30
0.0
 10
130.697000
 20
512.095060
 30
0.0
 10
130.521000
 20
512.129060
 30
0.0
 10
130.400000
 20
512.175060
 30
0.0
 10
130.315000
 20
512.240060
 30
0.0
 10
130.246000
 20
512.328060
 30
0.0
 10
130.193000
 20
512.439060
 30
0.0
 10
130.156000
 20
512.572060
 30
0.0
 10
130.131000
 20
512.761060
 30
0.0
 10
130.113000
 20
513.037060
 30
0.0
 10
130.102000
 20
513.400060
 30
0.0
 10
130.098000
 20
513.851060
 30
0.0
 10
130.098000
 20
517.844060
 30
0.0
 10
130.102000
 20
518.316060
 30
0.0
 10
130.113000
 20
518.693060
 30
0.0
 10
130.131000
 20
518.977060
 30
0.0
 10
130.156000
 20
519.166060
 30
0.0
 10
130.195000
 20
519.298060
 30
0.0
 10
130.251000
 20
519.412060
 30
0.0
 10
130.326000
 20
519.507060
 30
0.0
 10
130.419000
 20
519.584060
 30
0.0
 10
130.541000
 20
519.643060
 30
0.0
 10
130.705000
 20
519.685060
 30
0.0
 10
130.909000
 20
519.710060
 30
0.0
 10
131.154000
 20
519.718060
 30
0.0
 10
131.495000
 20
519.718060
 30
0.0
 10
131.495000
 20
520.000060
 30
0.0
 10
127.828000
 20
520.000060
 30
0.0
 10
127.342000
 20
519.996060
 30
0.0
 10
126.913000
 20
519.984060
 30
0.0
 10
126.543000
 20
519.964060
 30
0.0
 10
126.230000
 20
519.936060
 30
0.0
 10
125.942000
 20
519.892060
 30
0.0
 10
125.647000
 20
519.823060
 30
0.0
 10
125.343000
 20
519.730060
 30
0.0
 10
125.031000
 20
519.612060
 30
0.0
 10
124.725000
 20
519.468060
 30
0.0
 10
124.438000
 20
519.293060
 30
0.0
 10
124.170000
 20
519.089060
 30
0.0
 10
123.921000
 20
518.855060
 30
0.0
 10
123.694000
 20
518.590060
 30
0.0
 10
123.493000
 20
518.293060
 30
0.0
 10
123.317000
 20
517.964060
 30
0.0
 10
123.167000
 20
517.603060
 30
0.0
 10
123.047000
 20
517.217060
 30
0.0
 10
122.961000
 20
516.810060
 30
0.0
 10
122.910000
 20
516.385060
 30
0.0
 10
122.893000
 20
515.940060
 30
0.0
 10
122.924000
 20
515.329060
 30
0.0
 10
123.019000
 20
514.756060
 30
0.0
 10
123.176000
 20
514.219060
 30
0.0
 10
123.396000
 20
513.720060
 30
0.0
 10
123.681000
 20
513.264060
 30
0.0
 10
124.031000
 20
512.858060
 30
0.0
 10
124.448000
 20
512.503060
 30
0.0
 10
124.930000
 20
512.197060
 30
0.0
 10
125.497000
 20
511.951060
 30
0.0
 10
126.164000
 20
511.775060
 30
0.0
 10
126.933000
 20
511.670060
 30
0.0
 10
127.804000
 20
511.635060
 30
0.0
  0
LWPOLYLINE
  5
113
100
AcDbEntity
  8
0
 62
7
100
AcDbPolyline
 90
45
 70
1
 10
127.507000
 20
511.940060
 30
0.0
 10
127.091000
 20
511.975060
 30
0.0
 10
126.718000
 20
512.033060
 30
0.0
 10
126.388000
 20
512.114060
 30
0.0
 10
126.087000
 20
512.228060
 30
0.0
 10
125.800000
 20
512.383060
 30
0.0
 10
125.526000
 20
512.579060
 30
0.0
 10
125.266000
 20
512.816060
 30
0.0
 10
125.028000
 20
513.094060
 30
0.0
 10
124.819000
 20
513.409060
 30
0.0
 10
124.639000
 20
513.764060
 30
0.0
 10
124.489000
 20
514.156060
 30
0.0
 10
124.370000
 20
514.583060
 30
0.0
 10
124.285000
 20
515.037060
 30
0.0
 10
124.234000
 20
515.520060
 30
0.0
 10
124.218000
 20
516.031060
 30
0.0
 10
124.247000
 20
516.675060
 30
0.0
 10
124.334000
 20
517.260060
 30
0.0
 10
124.480000
 20
517.785060
 30
0.0
 10
124.684000
 20
518.250060
 30
0.0
 10
124.931000
 20
518.649060
 30
0.0
 10
125.208000
 20
518.976060
 30
0.0
 10
125.512000
 20
519.232060
 30
0.0
 10
125.845000
 20
519.416060
 30
0.0
 10
126.217000
 20
519.545060
 30
0.0
 10
126.637000
 20
519.638060
 30
0.0
 10
127.104000
 20
519.693060
 30
0.0
 10
127.620000
 20
519.712060
 30
0.0
 10
127.957000
 20
519.703060
 30
0.0
 10
128.230000
 20
519.676060
 30
0.0
 10
128.440000
 20
519.631060
 30
0.0
 10
128.586000
 20
519.569060
 30
0.0
 10
128.689000
 20
519.484060
 30
0.0
 10
128.769000
 20
519.372060
 30
0.0
 10
128.826000
 20
519.235060
 30
0.0
 10
128.860000
 20
519.071060
 30
0.0
 10
128.880000
 20
518.839060
 30
0.0
 10
128.895000
 20
518.499060
 30
0.0
 10
128.903000
 20
518.049060
 30
0.0
 10
128.906000
 20
517.490060
 30
0.0
 10
128.906000
 20
511.959060
 30
0.0
 10
128.669000
 20
511.945060
 30
0.0
 10
128.434000
 20
511.936060
 30
0.0
 10
128.200000
 20
511.930060
 30
0.0
 10
127.967000
 20
511.928060
 30
0.0
  0
LWPOLYLINE
  5
114
100
AcDbEntity
  8
0
 62
7
100
AcDbPolyline
 90
4
 70
1
 10
89.150000
 20
500.000060
 30
0.0
 10
88.850000
 20
500.000060
 30
0.0
 10
88.850000
 20
440.000060
 30
0.0
 10
89.150000
 20
440.000060
 30
0.0
  0
LWPOLYLINE
  5
115
100
AcDbEntity
  8
0
 62
7
100
AcDbPolyline
 90
4
 70
1
 10
222.150000
 20
500.000060
 30
0.0
 10
221.850000
 20
500.000060
 30
0.0
 10
221.850000
 20
440.000060
 30
0.0
 10
222.150000
 20
440.000060
 30
0.0
  0
LWPOLYLINE
  5
116
100
AcDbEntity
  8
0
 62
7
100
AcDbPolyline
 90
4
 70
1
 10
108.150000
 20
500.000060
 30
0.0
 10
107.850000
 20
500.000060
 30
0.0
 10
107.850000
 20
440.000060
 30
0.0
 10
108.150000
 20
440.000060
 30
0.0
  0
LWPOLYLINE
  5
117
100
AcDbEntity
  8
0
 62
7
100
AcDbPolyline
 90
4
 70
1
 10
279.150000
 20
500.000060
 30
0.0
 10
278.850000
 20
500.000060
 30
0.0
 10
278.850000
 20
440.000060
 30
0.0
 10
279.150000
 20
440.000060
 30
0.0
  0
LWPOLYLINE
  5
118
100
AcDbEntity
  8
0
 62
7
100
AcDbPolyline
 90
4
 70
1
 10
298.150000
 20
500.000060
 30
0.0
 10
297.850000
 20
500.000060
 30
0.0
 10
297.850000
 20
440.000060
 30
0.0
 10
298.150000
 20
440.000060
 30
0.0
  0
LWPOLYLINE
  5
119
100
AcDbEntity
  8
0
 62
7
100
AcDbPolyline
 90
4
 70
1
 10
165.150000
 20
500.000060
 30
0.0
 10
164.850000
 20
500.000060
 30
0.0
 10
164.850000
 20
440.000060
 30
0.0
 10
165.150000
 20
440.000060
 30
0.0
  0
LWPOLYLINE
  5
11a
100
AcDbEntity
  8
0
 62
7
100
AcDbPolyline
 90
4
 70
1
 10
317.150000
 20
500.000060
 30
0.0
 10
316.850000
 20
500.000060
 30
0.0
 10
316.850000
 20
440.000060
 30
0.0
 10
317.150000
 20
440.000060
 30
0.0
  0
LWPOLYLINE
  5
11b
100
AcDbEntity
  8
0
 62
7
100
AcDbPolyline
 90
4
 70
1
 10
203.150000
 20
500.000060
 30
0.0
 10
202.850000
 20
500.000060
 30
0.0
 10
202.850000
 20
440.000060
 30
0.0
 10
203.150000
 20
440.000060
 30
0.0
  0
LWPOLYLINE
  5
11c
100
AcDbEntity
  8
0
 62
7
100
AcDbPolyline
 90
4
 70
1
 10
70.150000
 20
500.000060
 30
0.0
 10
69.850000
 20
500.000060
 30
0.0
 10
69.850000
 20
440.000060
 30
0.0
 10
70.150000
 20
440.000060
 30
0.0
  0
LWPOLYLINE
  5
11d
100
AcDbEntity
  8
0
 62
7
100
AcDbPolyline
 90
4
 70
1
 10
127.150000
 20
500.000060
 30
0.0
 10
126.850000
 20
500.000060
 30
0.0
 10
126.850000
 20
440.000060
 30
0.0
 10
127.150000
 20
440.000060
 30
0.0
  0
LWPOLYLINE
  5
11e
100
AcDbEntity
  8
0
 62
7
100
AcDbPolyline
 90
4
 70
1
 10
241.150000
 20
500.000060
 30
0.0
 10
240.850000
 20
500.000060
 30
0.0
 10
240.850000
 20
440.000060
 30
0.0
 10
241.150000
 20
440.000060
 30
0.0
  0
LWPOLYLINE
  5
11f
100
AcDbEntity
  8
0
 62
7
100
AcDbPolyline
 90
4
 70
1
 10
336.150000
 20
500.000060
 30
0.0
 10
335.850000
 20
500.000060
 30
0.0
 10
335.850000
 20
440.000060
 30
0.0
 10
336.150000
 20
440.000060
 30
0.0
  0
LWPOLYLINE
  5
120
100
AcDbEntity
  8
0
 62
7
100
AcDbPolyline
 90
4
 70
1
 10
184.150000
 20
500.000060
 30
0.0
 10
183.850000
 20
500.000060
 30
0.0
 10
183.850000
 20
440.000060
 30
0.0
 10
184.150000
 20
440.000060
 30
0.0
  0
LWPOLYLINE
  5
121
100
AcDbEntity
  8
0
 62
7
100
AcDbPolyline
 90
4
 70
1
 10
260.150000
 20
500.000060
 30
0.0
 10
259.850000
 20
500.000060
 30
0.0
 10
259.850000
 20
440.000060
 30
0.0
 10
260.150000
 20
440.000060
 30
0.0
  0
LWPOLYLINE
  5
122
100
AcDbEntity
  8
0
 62
7
100
AcDbPolyline
 90
4
 70
1
 10
146.150000
 20
500.000060
 30
0.0
 10
145.850000
 20
500.000060
 30
0.0
 10
145.850000
 20
440.000060
 30
0.0
 10
146.150000
 20
440.000060
 30
0.0
  0
LWPOLYLINE
  5
123
100
AcDbEntity
  8
0
 62
7
100
AcDbPolyline
 90
157
 70
1
 10
51.164000
 20
464.922060
 30
0.0
 10
51.798100
 20
465.086060
 30
0.0
 10
52.365100
 20
465.359060
 30
0.0
 10
52.864900
 20
465.741060
 30
0.0
 10
53.272900
 20
466.208060
 30
0.0
 10
53.564300
 20
466.737060
 30
0.0
 10
53.739200
 20
467.327060
 30
0.0
 10
53.797500
 20
467.979060
 30
0.0
 10
53.758000
 20
468.522060
 30
0.0
 10
53.639700
 20
469.017060
 30
0.0
 10
53.442400
 20
469.464060
 30
0.0
 10
53.166300
 20
469.863060
 30
0.0
 10
52.821600
 20
470.191060
 30
0.0
 10
52.418800
 20
470.425060
 30
0.0
 10
51.957800
 20
470.566060
 30
0.0
 10
51.438500
 20
470.612060
 30
0.0
 10
51.322900
 20
470.608060
 30
0.0
 10
51.207300
 20
470.596060
 30
0.0
 10
51.091700
 20
470.575060
 30
0.0
 10
50.976100
 20
470.545060
 30
0.0
 10
51.580300
 20
470.963060
 30
0.0
 10
52.054200
 20
471.296060
 30
0.0
 10
52.454000
 20
471.609060
 30
0.0
 10
52.779700
 20
471.902060
 30
0.0
 10
53.031200
 20
472.175060
 30
0.0
 10
53.218900
 20
472.443060
 30
0.0
 10
53.353000
 20
472.722060
 30
0.0
 10
53.433400
 20
473.012060
 30
0.0
 10
53.460200
 20
473.312060
 30
0.0
 10
53.420800
 20
473.651060
 30
0.0
 10
53.302600
 20
473.973060
 30
0.0
 10
53.105600
 20
474.279060
 30
0.0
 10
52.829800
 20
474.569060
 30
0.0
 10
52.477100
 20
474.815060
 30
0.0
 10
52.049300
 20
474.991060
 30
0.0
 10
51.546400
 20
475.097060
 30
0.0
 10
50.968500
 20
475.132060
 30
0.0
 10
50.398200
 20
475.090060
 30
0.0
 10
49.888600
 20
474.964060
 30
0.0
 10
49.439600
 20
474.755060
 30
0.0
 10
49.051200
 20
474.461060
 30
0.0
 10
48.737900
 20
474.115060
 30
0.0
 10
48.514100
 20
473.750060
 30
0.0
 10
48.379800
 20
473.366060
 30
0.0
 10
48.335100
 20
472.962060
 30
0.0
 10
48.347700
 20
472.760060
 30
0.0
 10
48.385500
 20
472.566060
 30
0.0
 10
48.448600
 20
472.380060
 30
0.0
 10
48.536800
 20
472.201060
 30
0.0
 10
48.639600
 20
472.047060
 30
0.0
 10
48.746000
 20
471.938060
 30
0.0
 10
48.856200
 20
471.872060
 30
0.0
 10
48.970100
 20
471.850060
 30
0.0
 10
49.034500
 20
471.857060
 30
0.0
 10
49.115600
 20
471.878060
 30
0.0
 10
49.213600
 20
471.913060
 30
0.0
 10
49.328300
 20
471.962060
 30
0.0
 10
49.436000
 20
472.017060
 30
0.0
 10
49.512900
 20
472.070060
 30
0.0
 10
49.559100
 20
472.121060
 30
0.0
 10
49.574500
 20
472.171060
 30
0.0
 10
49.571200
 20
472.190060
 30
0.0
 10
49.561400
 20
472.212060
 30
0.0
 10
49.545100
 20
472.235060
 30
0.0
 10
49.522300
 20
472.260060
 30
0.0
 10
49.323200
 20
472.496060
 30
0.0
 10
49.181000
 20
472.739060
 30
0.0
 10
49.095700
 20
472.992060
 30
0.0
 10
49.067200
 20
473.252060
 30
0.0
 10
49.099600
 20
473.569060
 30
0.0
 10
49.196800
 20
473.857060
 30
0.0
 10
49.358700
 20
474.115060
 30
0.0
 10
49.585500
 20
474.344060
 30
0.0
 10
49.854200
 20
474.532060
 30
0.0
 10
50.142000
 20
474.666060
 30
0.0
 10
50.449000
 20
474.746060
 30
0.0
 10
50.775100
 20
474.773060
 30
0.0
 10
51.086900
 20
474.747060
 30
0.0
 10
51.366100
 20
474.668060
 30
0.0
 10
51.612700
 20
474.536060
 30
0.0
 10
51.826600
 20
474.351060
 30
0.0
 10
51.999500
 20
474.119060
 30
0.0
 10
52.123000
 20
473.843060
 30
0.0
 10
52.197100
 20
473.524060
 30
0.0
 10
52.221800
 20
473.162060
 30
0.0
 10
52.198100
 20
472.776060
 30
0.0
 10
52.126800
 20
472.425060
 30
0.0
 10
52.007900
 20
472.108060
 30
0.0
 10
51.841600
 20
471.826060
 30
0.0
 10
51.601500
 20
471.544060
 30
0.0
 10
51.261700
 20
471.229060
 30
0.0
 10
50.822100
 20
470.880060
 30
0.0
 10
50.282900
 20
470.498060
 30
0.0
 10
50.040700
 20
470.331060
 30
0.0
 10
49.851200
 20
470.195060
 30
0.0
 10
49.714400
 20
470.090060
 30
0.0
 10
49.630200
 20
470.016060
 30
0.0
 10
49.579700
 20
469.959060
 30
0.0
 10
49.543600
 20
469.904060
 30
0.0
 10
49.521900
 20
469.849060
 30
0.0
 10
49.514700
 20
469.796060
 30
0.0
 10
49.528700
 20
469.692060
 30
0.0
 10
49.570700
 20
469.618060
 30
0.0
 10
49.640600
 20
469.573060
 30
0.0
 10
49.738600
 20
469.558060
 30
0.0
 10
49.794000
 20
469.565060
 30
0.0
 10
49.848600
 20
469.586060
 30
0.0
 10
49.902200
 20
469.621060
 30
0.0
 10
49.954900
 20
469.670060
 30
0.0
 10
50.258100
 20
469.944060
 30
0.0
 10
50.548100
 20
470.139060
 30
0.0
 10
50.825200
 20
470.257060
 30
0.0
 10
51.089200
 20
470.296060
 30
0.0
 10
51.377600
 20
470.260060
 30
0.0
 10
51.645900
 20
470.154060
 30
0.0
 10
51.894200
 20
469.977060
 30
0.0
 10
52.122500
 20
469.729060
 30
0.0
 10
52.313500
 20
469.409060
 30
0.0
 10
52.449900
 20
469.016060
 30
0.0
 10
52.531800
 20
468.549060
 30
0.0
 10
52.559100
 20
468.008060
 30
0.0
 10
52.522500
 20
467.336060
 30
0.0
 10
52.412700
 20
466.758060
 30
0.0
 10
52.229700
 20
466.274060
 30
0.0
 10
51.973400
 20
465.884060
 30
0.0
 10
51.658500
 20
465.584060
 30
0.0
 10
51.299200
 20
465.370060
 30
0.0
 10
50.895700
 20
465.242060
 30
0.0
 10
50.447900
 20
465.199060
 30
0.0
 10
50.260900
 20
465.211060
 30
0.0
 10
50.073000
 20
465.249060
 30
0.0
 10
49.884100
 20
465.312060
 30
0.0
 10
49.694400
 20
465.400060
 30
0.0
 10
49.511600
 20
465.527060
 30
0.0
 10
49.351200
 20
465.715060
 30
0.0
 10
49.213200
 20
465.963060
 30
0.0
 10
49.097500
 20
466.272060
 30
0.0
 10
49.001400
 20
466.503060
 30
0.0
 10
48.877400
 20
466.669060
 30
0.0
 10
48.725400
 20
466.768060
 30
0.0
 10
48.545400
 20
466.801060
 30
0.0
 10
48.442400
 20
466.791060
 30
0.0
 10
48.349600
 20
466.763060
 30
0.0
 10
48.267100
 20
466.715060
 30
0.0
 10
48.194800
 20
466.648060
 30
0.0
 10
48.136100
 20
466.567060
 30
0.0
 10
48.094100
 20
466.479060
 30
0.0
 10
48.068900
 20
466.383060
 30
0.0
 10
48.060500
 20
466.278060
 30
0.0
 10
48.104800
 20
466.025060
 30
0.0
 10
48.237700
 20
465.780060
 30
0.0
 10
48.459200
 20
465.544060
 30
0.0
 10
48.769300
 20
465.316060
 30
0.0
 10
49.140900
 20
465.120060
 30
0.0
 10
49.547000
 20
464.980060
 30
0.0
 10
49.987600
 20
464.896060
 30
0.0
 10
50.462700
 20
464.868060
 30
0.0
  0
LWPOLYLINE
  5
124
100
AcDbEntity
  8
0
 62
7
100
AcDbPolyline
 90
157
 70
1
 10
355.602000
 20
464.910060
 30
0.0
 10
356.111000
 20
465.036060
 30
0.0
 10
356.560000
 20
465.245060
 30
0.0
 10
356.949000
 20
465.539060
 30
0.0
 10
357.262000
 20
465.885060
 30
0.0
 10
357.486000
 20
466.250060
 30
0.0
 10
357.620000
 20
466.634060
 30
0.0
 10
357.665000
 20
467.038060
 30
0.0
 10
357.652000
 20
467.240060
 30
0.0
 10
357.614000
 20
467.434060
 30
0.0
 10
357.551000
 20
467.620060
 30
0.0
 10
357.463000
 20
467.799060
 30
0.0
 10
357.360000
 20
467.953060
 30
0.0
 10
357.254000
 20
468.062060
 30
0.0
 10
357.144000
 20
468.128060
 30
0.0
 10
357.030000
 20
468.150060
 30
0.0
 10
356.966000
 20
468.143060
 30
0.0
 10
356.884000
 20
468.122060
 30
0.0
 10
356.786000
 20
468.087060
 30
0.0
 10
356.672000
 20
468.038060
 30
0.0
 10
356.564000
 20
467.983060
 30
0.0
 10
356.487000
 20
467.930060
 30
0.0
 10
356.441000
 20
467.879060
 30
0.0
 10
356.426000
 20
467.829060
 30
0.0
 10
356.429000
 20
467.810060
 30
0.0
 10
356.439000
 20
467.788060
 30
0.0
 10
356.455000
 20
467.765060
 30
0.0
 10
356.478000
 20
467.740060
 30
0.0
 10
356.677000
 20
467.504060
 30
0.0
 10
356.819000
 20
467.261060
 30
0.0
 10
356.904000
 20
467.008060
 30
0.0
 10
356.933000
 20
466.748060
 30
0.0
 10
356.900000
 20
466.431060
 30
0.0
 10
356.803000
 20
466.143060
 30
0.0
 10
356.641000
 20
465.885060
 30
0.0
 10
356.415000
 20
465.656060
 30
0.0
 10
356.146000
 20
465.468060
 30
0.0
 10
355.858000
 20
465.334060
 30
0.0
 10
355.551000
 20
465.254060
 30
0.0
 10
355.225000
 20
465.227060
 30
0.0
 10
354.913000
 20
465.253060
 30
0.0
 10
354.634000
 20
465.332060
 30
0.0
 10
354.387000
 20
465.464060
 30
0.0
 10
354.173000
 20
465.649060
 30
0.0
 10
354.000000
 20
465.881060
 30
0.0
 10
353.877000
 20
466.157060
 30
0.0
 10
353.803000
 20
466.476060
 30
0.0
 10
353.778000
 20
466.838060
 30
0.0
 10
353.802000
 20
467.224060
 30
0.0
 10
353.873000
 20
467.575060
 30
0.0
 10
353.992000
 20
467.892060
 30
0.0
 10
354.158000
 20
468.174060
 30
0.0
 10
354.399000
 20
468.456060
 30
0.0
 10
354.738000
 20
468.771060
 30
0.0
 10
355.178000
 20
469.120060
 30
0.0
 10
355.717000
 20
469.502060
 30
0.0
 10
355.959000
 20
469.669060
 30
0.0
 10
356.149000
 20
469.805060
 30
0.0
 10
356.286000
 20
469.910060
 30
0.0
 10
356.370000
 20
469.984060
 30
0.0
 10
356.420000
 20
470.041060
 30
0.0
 10
356.456000
 20
470.096060
 30
0.0
 10
356.478000
 20
470.151060
 30
0.0
 10
356.485000
 20
470.204060
 30
0.0
 10
356.471000
 20
470.308060
 30
0.0
 10
356.429000
 20
470.382060
 30
0.0
 10
356.359000
 20
470.427060
 30
0.0
 10
356.261000
 20
470.442060
 30
0.0
 10
356.206000
 20
470.435060
 30
0.0
 10
356.151000
 20
470.414060
 30
0.0
 10
356.098000
 20
470.379060
 30
0.0
 10
356.045000
 20
470.330060
 30
0.0
 10
355.742000
 20
470.056060
 30
0.0
 10
355.452000
 20
469.861060
 30
0.0
 10
355.175000
 20
469.743060
 30
0.0
 10
354.911000
 20
469.704060
 30
0.0
 10
354.622000
 20
469.740060
 30
0.0
 10
354.354000
 20
469.846060
 30
0.0
 10
354.106000
 20
470.023060
 30
0.0
 10
353.878000
 20
470.271060
 30
0.0
 10
353.686000
 20
470.591060
 30
0.0
 10
353.550000
 20
470.984060
 30
0.0
 10
353.468000
 20
471.451060
 30
0.0
 10
353.441000
 20
471.992060
 30
0.0
 10
353.478000
 20
472.664060
 30
0.0
 10
353.587000
 20
473.242060
 30
0.0
 10
353.770000
 20
473.726060
 30
0.0
 10
354.027000
 20
474.116060
 30
0.0
 10
354.342000
 20
474.416060
 30
0.0
 10
354.701000
 20
474.630060
 30
0.0
 10
355.104000
 20
474.758060
 30
0.0
 10
355.552000
 20
474.801060
 30
0.0
 10
355.739000
 20
474.789060
 30
0.0
 10
355.927000
 20
474.751060
 30
0.0
 10
356.116000
 20
474.688060
 30
0.0
 10
356.306000
 20
474.600060
 30
0.0
 10
356.488000
 20
474.473060
 30
0.0
 10
356.649000
 20
474.285060
 30
0.0
 10
356.787000
 20
474.037060
 30
0.0
 10
356.903000
 20
473.728060
 30
0.0
 10
356.999000
 20
473.497060
 30
0.0
 10
357.123000
 20
473.331060
 30
0.0
 10
357.275000
 20
473.232060
 30
0.0
 10
357.455000
 20
473.199060
 30
0.0
 10
357.558000
 20
473.209060
 30
0.0
 10
357.650000
 20
473.237060
 30
0.0
 10
357.733000
 20
473.285060
 30
0.0
 10
357.805000
 20
473.352060
 30
0.0
 10
357.864000
 20
473.433060
 30
0.0
 10
357.906000
 20
473.521060
 30
0.0
 10
357.931000
 20
473.617060
 30
0.0
 10
357.939000
 20
473.722060
 30
0.0
 10
357.895000
 20
473.975060
 30
0.0
 10
357.762000
 20
474.220060
 30
0.0
 10
357.541000
 20
474.456060
 30
0.0
 10
357.231000
 20
474.684060
 30
0.0
 10
356.859000
 20
474.880060
 30
0.0
 10
356.453000
 20
475.020060
 30
0.0
 10
356.012000
 20
475.104060
 30
0.0
 10
355.537000
 20
475.132060
 30
0.0
 10
354.836000
 20
475.078060
 30
0.0
 10
354.202000
 20
474.914060
 30
0.0
 10
353.635000
 20
474.641060
 30
0.0
 10
353.135000
 20
474.259060
 30
0.0
 10
352.727000
 20
473.792060
 30
0.0
 10
352.436000
 20
473.263060
 30
0.0
 10
352.261000
 20
472.673060
 30
0.0
 10
352.203000
 20
472.021060
 30
0.0
 10
352.242000
 20
471.478060
 30
0.0
 10
352.360000
 20
470.983060
 30
0.0
 10
352.558000
 20
470.536060
 30
0.0
 10
352.834000
 20
470.137060
 30
0.0
 10
353.178000
 20
469.809060
 30
0.0
 10
353.581000
 20
469.575060
 30
0.0
 10
354.042000
 20
469.434060
 30
0.0
 10
354.561000
 20
469.388060
 30
0.0
 10
354.677000
 20
469.392060
 30
0.0
 10
354.793000
 20
469.404060
 30
0.0
 10
354.908000
 20
469.425060
 30
0.0
 10
355.024000
 20
469.455060
 30
0.0
 10
354.420000
 20
469.037060
 30
0.0
 10
353.946000
 20
468.704060
 30
0.0
 10
353.546000
 20
468.391060
 30
0.0
 10
353.220000
 20
468.098060
 30
0.0
 10
352.969000
 20
467.825060
 30
0.0
 10
352.781000
 20
467.557060
 30
0.0
 10
352.647000
 20
467.278060
 30
0.0
 10
352.567000
 20
466.988060
 30
0.0
 10
352.540000
 20
466.688060
 30
0.0
 10
352.579000
 20
466.349060
 30
0.0
 10
352.697000
 20
466.027060
 30
0.0
 10
352.894000
 20
465.721060
 30
0.0
 10
353.170000
 20
465.431060
 30
0.0
 10
353.523000
 20
465.185060
 30
0.0
 10
353.951000
 20
465.009060
 30
0.0
 10
354.454000
 20
464.903060
 30
0.0
 10
355.032000
 20
464.868060
 30
0.0
  0
LWPOLYLINE
  5
125
100
AcDbEntity
  8
0
 62
7
100
AcDbPolyline
 90
4
 70
1
 10
146.150000
 20
431.000060
 30
0.0
 10
145.850000
 20
431.000060
 30
0.0
 10
145.850000
 20
371.000060
 30
0.0
 10
146.150000
 20
371.000060
 30
0.0
  0
LWPOLYLINE
  5
126
100
AcDbEntity
  8
0
 62
7
100
AcDbPolyline
 90
4
 70
1
 10
222.150000
 20
431.000060
 30
0.0
 10
221.850000
 20
431.000060
 30
0.0
 10
221.850000
 20
371.000060
 30
0.0
 10
222.150000
 20
371.000060
 30
0.0
  0
LWPOLYLINE
  5
127
100
AcDbEntity
  8
0
 62
7
100
AcDbPolyline
 90
4
 70
1
 10
336.150000
 20
431.000060
 30
0.0
 10
335.850000
 20
431.000060
 30
0.0
 10
335.850000
 20
371.000060
 30
0.0
 10
336.150000
 20
371.000060
 30
0.0
  0
LWPOLYLINE
  5
128
100
AcDbEntity
  8
0
 62
7
100
AcDbPolyline
 90
4
 70
1
 10
317.150000
 20
431.000060
 30
0.0
 10
316.850000
 20
431.000060
 30
0.0
 10
316.850000
 20
371.000060
 30
0.0
 10
317.150000
 20
371.000060
 30
0.0
  0
LWPOLYLINE
  5
129
100
AcDbEntity
  8
0
 62
7
100
AcDbPolyline
 90
4
 70
1
 10
89.150000
 20
431.000060
 30
0.0
 10
88.850000
 20
431.000060
 30
0.0
 10
88.850000
 20
371.000060
 30
0.0
 10
89.150000
 20
371.000060
 30
0.0
  0
LWPOLYLINE
  5
12a
100
AcDbEntity
  8
0
 62
7
100
AcDbPolyline
 90
18
 70
1
 10
127.150000
 20
401.656060
 30
0.0
 10
136.452000
 20
392.354060
 30
0.0
 10
136.664000
 20
392.566060
 30
0.0
 10
127.224000
 20
402.006060
 30
0.0
 10
136.664000
 20
411.446060
 30
0.0
 10
136.452000
 20
411.658060
 30
0.0
 10
127.150000
 20
402.356060
 30
0.0
 10
127.150000
 20
431.000060
 30
0.0
 10
126.850000
 20
431.000060
 30
0.0
 10
126.850000
 20
402.380060
 30
0.0
 10
117.572000
 20
411.658060
 30
0.0
 10
117.360000
 20
411.446060
 30
0.0
 10
126.800000
 20
402.006060
 30
0.0
 10
117.360000
 20
392.566060
 30
0.0
 10
117.572000
 20
392.354060
 30
0.0
 10
126.850000
 20
401.632060
 30
0.0
 10
126.850000
 20
371.000060
 30
0.0
 10
127.150000
 20
371.000060
 30
0.0
  0
LWPOLYLINE
  5
12b
100
AcDbEntity
  8
0
 62
7
100
AcDbPolyline
 90
4
 70
1
 10
108.150000
 20
431.000060
 30
0.0
 10
107.850000
 20
431.000060
 30
0.0
 10
107.850000
 20
371.000060
 30
0.0
 10
108.150000
 20
371.000060
 30
0.0
  0
LWPOLYLINE
  5
12c
100
AcDbEntity
  8
0
 62
7
100
AcDbPolyline
 90
4
 70
1
 10
298.150000
 20
431.000060
 30
0.0
 10
297.850000
 20
431.000060
 30
0.0
 10
297.850000
 20
371.000060
 30
0.0
 10
298.150000
 20
371.000060
 30
0.0
  0
LWPOLYLINE
  5
12d
100
AcDbEntity
  8
0
 62
7
100
AcDbPolyline
 90
4
 70
1
 10
260.150000
 20
431.000060
 30
0.0
 10
259.850000
 20
431.000060
 30
0.0
 10
259.850000
 20
371.000060
 30
0.0
 10
260.150000
 20
371.000060
 30
0.0
  0
LWPOLYLINE
  5
12e
100
AcDbEntity
  8
0
 62
7
100
AcDbPolyline
 90
4
 70
1
 10
241.150000
 20
431.000060
 30
0.0
 10
240.850000
 20
431.000060
 30
0.0
 10
240.850000
 20
371.000060
 30
0.0
 10
241.150000
 20
371.000060
 30
0.0
  0
LWPOLYLINE
  5
12f
100
AcDbEntity
  8
0
 62
7
100
AcDbPolyline
 90
18
 70
1
 10
279.150000
 20
401.656060
 30
0.0
 10
288.452000
 20
392.354060
 30
0.0
 10
288.664000
 20
392.566060
 30
0.0
 10
279.224000
 20
402.006060
 30
0.0
 10
288.664000
 20
411.446060
 30
0.0
 10
288.452000
 20
411.658060
 30
0.0
 10
279.150000
 20
402.356060
 30
0.0
 10
279.150000
 20
431.000060
 30
0.0
 10
278.850000
 20
431.000060
 30
0.0
 10
278.850000
 20
402.380060
 30
0.0
 10
269.572000
 20
411.658060
 30
0.0
 10
269.360000
 20
411.446060
 30
0.0
 10
278.800000
 20
402.006060
 30
0.0
 10
269.360000
 20
392.566060
 30
0.0
 10
269.572000
 20
392.354060
 30
0.0
 10
278.850000
 20
401.632060
 30
0.0
 10
278.850000
 20
371.000060
 30
0.0
 10
279.150000
 20
371.000060
 30
0.0
  0
LWPOLYLINE
  5
130
100
AcDbEntity
  8
0
 62
7
100
AcDbPolyline
 90
4
 70
1
 10
165.150000
 20
431.000060
 30
0.0
 10
164.850000
 20
431.000060
 30
0.0
 10
164.850000
 20
371.000060
 30
0.0
 10
165.150000
 20
371.000060
 30
0.0
  0
LWPOLYLINE
  5
131
100
AcDbEntity
  8
0
 62
7
100
AcDbPolyline
 90
4
 70
1
 10
184.150000
 20
431.000060
 30
0.0
 10
183.850000
 20
431.000060
 30
0.0
 10
183.850000
 20
371.000060
 30
0.0
 10
184.150000
 20
371.000060
 30
0.0
  0
LWPOLYLINE
  5
132
100
AcDbEntity
  8
0
 62
7
100
AcDbPolyline
 90
10
 70
1
 10
203.150000
 20
387.438060
 30
0.0
 10
216.712000
 20
401.000060
 30
0.0
 10
203.150000
 20
414.562060
 30
0.0
 10
203.150000
 20
431.000060
 30
0.0
 10
202.850000
 20
431.000060
 30
0.0
 10
202.850000
 20
414.562060
 30
0.0
 10
189.288000
 20
401.000060
 30
0.0
 10
202.850000
 20
387.438060
 30
0.0
 10
202.850000
 20
371.000060
 30
0.0
 10
203.150000
 20
371.000060
 30
0.0
  0
LWPOLYLINE
  5
133
100
AcDbEntity
  8
0
 62
7
100
AcDbPolyline
 90
3
 70
1
 10
203.150000
 20
414.138060
 30
0.0
 10
216.288000
 20
401.000060
 30
0.0
 10
203.150000
 20
387.862060
 30
0.0
  0
LWPOLYLINE
  5
134
100
AcDbEntity
  8
0
 62
7
100
AcDbPolyline
 90
3
 70
1
 10
189.712000
 20
401.000060
 30
0.0
 10
202.850000
 20
414.138060
 30
0.0
 10
202.850000
 20
387.862060
 30
0.0
  0
LWPOLYLINE
  5
135
100
AcDbEntity
  8
0
 62
7
100
AcDbPolyline
 90
4
 70
1
 10
70.150000
 20
431.000060
 30
0.0
 10
69.850000
 20
431.000060
 30
0.0
 10
69.850000
 20
371.000060
 30
0.0
 10
70.150000
 20
371.000060
 30
0.0
  0
LWPOLYLINE
  5
136
100
AcDbEntity
  8
0
 62
7
100
AcDbPolyline
 90
101
 70
1
 10
53.770300
 20
397.272060
 30
0.0
 10
49.028300
 20
397.272060
 30
0.0
 10
49.539700
 20
397.721060
 30
0.0
 10
50.127100
 20
398.267060
 30
0.0
 10
50.790400
 20
398.912060
 30
0.0
 10
51.529700
 20
399.656060
 30
0.0
 10
52.235000
 20
400.398060
 30
0.0
 10
52.796300
 20
401.038060
 30
0.0
 10
53.213600
 20
401.576060
 30
0.0
 10
53.486900
 20
402.013060
 30
0.0
 10
53.663100
 20
402.405060
 30
0.0
 10
53.789000
 20
402.807060
 30
0.0
 10
53.864500
 20
403.220060
 30
0.0
 10
53.889600
 20
403.643060
 30
0.0
 10
53.833500
 20
404.284060
 30
0.0
 10
53.664900
 20
404.841060
 30
0.0
 10
53.384000
 20
405.313060
 30
0.0
 10
52.990700
 20
405.702060
 30
0.0
 10
52.527500
 20
406.006060
 30
0.0
 10
52.036800
 20
406.223060
 30
0.0
 10
51.518500
 20
406.353060
 30
0.0
 10
50.972800
 20
406.396060
 30
0.0
 10
50.453800
 20
406.354060
 30
0.0
 10
49.956300
 20
406.229060
 30
0.0
 10
49.480300
 20
406.021060
 30
0.0
 10
49.025700
 20
405.728060
 30
0.0
 10
48.637300
 20
405.365060
 30
0.0
 10
48.359900
 20
404.942060
 30
0.0
 10
48.193400
 20
404.461060
 30
0.0
 10
48.138000
 20
403.920060
 30
0.0
 10
48.157800
 20
403.581060
 30
0.0
 10
48.217300
 20
403.275060
 30
0.0
 10
48.316500
 20
403.001060
 30
0.0
 10
48.455400
 20
402.760060
 30
0.0
 10
48.608400
 20
402.562060
 30
0.0
 10
48.749600
 20
402.421060
 30
0.0
 10
48.879200
 20
402.337060
 30
0.0
 10
48.997100
 20
402.308060
 30
0.0
 10
49.084800
 20
402.323060
 30
0.0
 10
49.183800
 20
402.366060
 30
0.0
 10
49.294000
 20
402.439060
 30
0.0
 10
49.415400
 20
402.540060
 30
0.0
 10
49.526600
 20
402.649060
 30
0.0
 10
49.606000
 20
402.747060
 30
0.0
 10
49.653600
 20
402.832060
 30
0.0
 10
49.669500
 20
402.905060
 30
0.0
 10
49.655500
 20
402.951060
 30
0.0
 10
49.613600
 20
403.006060
 30
0.0
 10
49.543600
 20
403.070060
 30
0.0
 10
49.445800
 20
403.144060
 30
0.0
 10
49.181600
 20
403.372060
 30
0.0
 10
48.992900
 20
403.636060
 30
0.0
 10
48.879700
 20
403.939060
 30
0.0
 10
48.842000
 20
404.278060
 30
0.0
 10
48.871100
 20
404.587060
 30
0.0
 10
48.958400
 20
404.886060
 30
0.0
 10
49.104000
 20
405.176060
 30
0.0
 10
49.307800
 20
405.457060
 30
0.0
 10
49.564800
 20
405.698060
 30
0.0
 10
49.869700
 20
405.871060
 30
0.0
 10
50.222600
 20
405.974060
 30
0.0
 10
50.623500
 20
406.009060
 30
0.0
 10
51.038200
 20
405.971060
 30
0.0
 10
51.417500
 20
405.859060
 30
0.0
 10
51.761400
 20
405.671060
 30
0.0
 10
52.069800
 20
405.408060
 30
0.0
 10
52.324200
 20
405.066060
 30
0.0
 10
52.505900
 20
404.639060
 30
0.0
 10
52.614900
 20
404.128060
 30
0.0
 10
52.651300
 20
403.532060
 30
0.0
 10
52.615400
 20
403.000060
 30
0.0
 10
52.507700
 20
402.471060
 30
0.0
 10
52.328200
 20
401.944060
 30
0.0
 10
52.077000
 20
401.421060
 30
0.0
 10
51.744400
 20
400.874060
 30
0.0
 10
51.321000
 20
400.278060
 30
0.0
 10
50.806700
 20
399.634060
 30
0.0
 10
50.201500
 20
398.940060
 30
0.0
 10
49.579000
 20
398.270060
 30
0.0
 10
49.012900
 20
397.697060
 30
0.0
 10
48.503300
 20
397.220060
 30
0.0
 10
48.050000
 20
396.840060
 30
0.0
 10
48.050000
 20
396.378060
 30
0.0
 10
52.442500
 20
396.378060
 30
0.0
 10
52.634500
 20
396.376060
 30
0.0
 10
52.785500
 20
396.368060
 30
0.0
 10
52.895500
 20
396.355060
 30
0.0
 10
52.964500
 20
396.337060
 30
0.0
 10
53.007000
 20
396.305060
 30
0.0
 10
53.037300
 20
396.251060
 30
0.0
 10
53.055500
 20
396.173060
 30
0.0
 10
53.061600
 20
396.073060
 30
0.0
 10
53.060200
 20
396.013060
 30
0.0
 10
53.056000
 20
395.959060
 30
0.0
 10
53.048900
 20
395.912060
 30
0.0
 10
53.039100
 20
395.872060
 30
0.0
 10
53.019600
 20
395.805060
 30
0.0
 10
53.005600
 20
395.738060
 30
0.0
 10
52.997300
 20
395.671060
 30
0.0
 10
52.994500
 20
395.604060
 30
0.0
 10
53.345000
 20
395.604060
 30
0.0
  0
LWPOLYLINE
  5
137
100
AcDbEntity
  8
0
 62
7
100
AcDbPolyline
 90
101
 70
1
 10
355.546000
 20
395.646060
 30
0.0
 10
356.044000
 20
395.771060
 30
0.0
 10
356.520000
 20
395.979060
 30
0.0
 10
356.974000
 20
396.272060
 30
0.0
 10
357.363000
 20
396.635060
 30
0.0
 10
357.640000
 20
397.058060
 30
0.0
 10
357.807000
 20
397.539060
 30
0.0
 10
357.862000
 20
398.080060
 30
0.0
 10
357.842000
 20
398.419060
 30
0.0
 10
357.783000
 20
398.725060
 30
0.0
 10
357.683000
 20
398.999060
 30
0.0
 10
357.545000
 20
399.240060
 30
0.0
 10
357.392000
 20
399.438060
 30
0.0
 10
357.250000
 20
399.579060
 30
0.0
 10
357.121000
 20
399.663060
 30
0.0
 10
357.003000
 20
399.692060
 30
0.0
 10
356.915000
 20
399.677060
 30
0.0
 10
356.816000
 20
399.634060
 30
0.0
 10
356.706000
 20
399.561060
 30
0.0
 10
356.585000
 20
399.460060
 30
0.0
 10
356.473000
 20
399.351060
 30
0.0
 10
356.394000
 20
399.253060
 30
0.0
 10
356.346000
 20
399.168060
 30
0.0
 10
356.331000
 20
399.095060
 30
0.0
 10
356.344000
 20
399.049060
 30
0.0
 10
356.386000
 20
398.994060
 30
0.0
 10
356.456000
 20
398.930060
 30
0.0
 10
356.554000
 20
398.856060
 30
0.0
 10
356.818000
 20
398.628060
 30
0.0
 10
357.007000
 20
398.364060
 30
0.0
 10
357.120000
 20
398.061060
 30
0.0
 10
357.158000
 20
397.722060
 30
0.0
 10
357.129000
 20
397.413060
 30
0.0
 10
357.042000
 20
397.114060
 30
0.0
 10
356.896000
 20
396.824060
 30
0.0
 10
356.692000
 20
396.543060
 30
0.0
 10
356.435000
 20
396.302060
 30
0.0
 10
356.130000
 20
396.129060
 30
0.0
 10
355.777000
 20
396.026060
 30
0.0
 10
355.376000
 20
395.991060
 30
0.0
 10
354.962000
 20
396.029060
 30
0.0
 10
354.582000
 20
396.141060
 30
0.0
 10
354.239000
 20
396.329060
 30
0.0
 10
353.930000
 20
396.592060
 30
0.0
 10
353.676000
 20
396.934060
 30
0.0
 10
353.494000
 20
397.361060
 30
0.0
 10
353.385000
 20
397.872060
 30
0.0
 10
353.349000
 20
398.468060
 30
0.0
 10
353.385000
 20
399.000060
 30
0.0
 10
353.492000
 20
399.529060
 30
0.0
 10
353.672000
 20
400.056060
 30
0.0
 10
353.923000
 20
400.579060
 30
0.0
 10
354.256000
 20
401.126060
 30
0.0
 10
354.679000
 20
401.722060
 30
0.0
 10
355.193000
 20
402.366060
 30
0.0
 10
355.799000
 20
403.060060
 30
0.0
 10
356.421000
 20
403.730060
 30
0.0
 10
356.987000
 20
404.303060
 30
0.0
 10
357.497000
 20
404.780060
 30
0.0
 10
357.950000
 20
405.160060
 30
0.0
 10
357.950000
 20
405.622060
 30
0.0
 10
353.558000
 20
405.622060
 30
0.0
 10
353.365000
 20
405.624060
 30
0.0
 10
353.214000
 20
405.632060
 30
0.0
 10
353.104000
 20
405.645060
 30
0.0
 10
353.035000
 20
405.663060
 30
0.0
 10
352.993000
 20
405.695060
 30
0.0
 10
352.963000
 20
405.749060
 30
0.0
 10
352.944000
 20
405.827060
 30
0.0
 10
352.938000
 20
405.927060
 30
0.0
 10
352.940000
 20
405.987060
 30
0.0
 10
352.944000
 20
406.041060
 30
0.0
 10
352.951000
 20
406.088060
 30
0.0
 10
352.961000
 20
406.128060
 30
0.0
 10
352.980000
 20
406.195060
 30
0.0
 10
352.994000
 20
406.262060
 30
0.0
 10
353.003000
 20
406.329060
 30
0.0
 10
353.006000
 20
406.396060
 30
0.0
 10
352.655000
 20
406.396060
 30
0.0
 10
352.230000
 20
404.728060
 30
0.0
 10
356.972000
 20
404.728060
 30
0.0
 10
356.460000
 20
404.279060
 30
0.0
 10
355.873000
 20
403.733060
 30
0.0
 10
355.210000
 20
403.088060
 30
0.0
 10
354.470000
 20
402.344060
 30
0.0
 10
353.765000
 20
401.602060
 30
0.0
 10
353.204000
 20
400.962060
 30
0.0
 10
352.786000
 20
400.424060
 30
0.0
 10
352.513000
 20
399.987060
 30
0.0
 10
352.337000
 20
399.595060
 30
0.0
 10
352.211000
 20
399.193060
 30
0.0
 10
352.136000
 20
398.780060
 30
0.0
 10
352.110000
 20
398.357060
 30
0.0
 10
352.167000
 20
397.716060
 30
0.0
 10
352.335000
 20
397.159060
 30
0.0
 10
352.616000
 20
396.687060
 30
0.0
 10
353.009000
 20
396.298060
 30
0.0
 10
353.472000
 20
395.994060
 30
0.0
 10
353.963000
 20
395.777060
 30
0.0
 10
354.481000
 20
395.647060
 30
0.0
 10
355.027000
 20
395.604060
 30
0.0
  0
LWPOLYLINE
  5
138
100
AcDbEntity
  8
0
 62
7
100
AcDbPolyline
 90
4
 70
1
 10
165.150000
 20
362.000060
 30
0.0
 10
164.850000
 20
362.000060
 30
0.0
 10
164.850000
 20
302.000057
 30
0.0
 10
165.150000
 20
302.000057
 30
0.0
  0
LWPOLYLINE
  5
139
100
AcDbEntity
  8
0
 62
7
100
AcDbPolyline
 90
4
 70
1
 10
317.150000
 20
362.000060
 30
0.0
 10
316.850000
 20
362.000060
 30
0.0
 10
316.850000
 20
302.000057
 30
0.0
 10
317.150000
 20
302.000057
 30
0.0
  0
LWPOLYLINE
  5
13a
100
AcDbEntity
  8
0
 62
7
100
AcDbPolyline
 90
4
 70
1
 10
260.150000
 20
362.000060
 30
0.0
 10
259.850000
 20
362.000060
 30
0.0
 10
259.850000
 20
302.000057
 30
0.0
 10
260.150000
 20
302.000057
 30
0.0
  0
LWPOLYLINE
  5
13b
100
AcDbEntity
  8
0
 62
7
100
AcDbPolyline
 90
4
 70
1
 10
184.150000
 20
362.000060
 30
0.0
 10
183.850000
 20
362.000060
 30
0.0
 10
183.850000
 20
302.000057
 30
0.0
 10
184.150000
 20
302.000057
 30
0.0
  0
LWPOLYLINE
  5
13c
100
AcDbEntity
  8
0
 62
7
100
AcDbPolyline
 90
4
 70
1
 10
279.150000
 20
362.000060
 30
0.0
 10
278.850000
 20
362.000060
 30
0.0
 10
278.850000
 20
302.000057
 30
0.0
 10
279.150000
 20
302.000057
 30
0.0
  0
LWPOLYLINE
  5
13d
100
AcDbEntity
  8
0
 62
7
100
AcDbPolyline
 90
4
 70
1
 10
241.150000
 20
362.000060
 30
0.0
 10
240.850000
 20
362.000060
 30
0.0
 10
240.850000
 20
302.000057
 30
0.0
 10
241.150000
 20
302.000057
 30
0.0
  0
LWPOLYLINE
  5
13e
100
AcDbEntity
  8
0
 62
7
100
AcDbPolyline
 90
4
 70
1
 10
298.150000
 20
362.000060
 30
0.0
 10
297.850000
 20
362.000060
 30
0.0
 10
297.850000
 20
302.000057
 30
0.0
 10
298.150000
 20
302.000057
 30
0.0
  0
LWPOLYLINE
  5
13f
100
AcDbEntity
  8
0
 62
7
100
AcDbPolyline
 90
4
 70
1
 10
146.150000
 20
362.000060
 30
0.0
 10
145.850000
 20
362.000060
 30
0.0
 10
145.850000
 20
302.000057
 30
0.0
 10
146.150000
 20
302.000057
 30
0.0
  0
LWPOLYLINE
  5
140
100
AcDbEntity
  8
0
 62
7
100
AcDbPolyline
 90
4
 70
1
 10
70.150000
 20
362.000060
 30
0.0
 10
69.850000
 20
362.000060
 30
0.0
 10
69.850000
 20
302.000057
 30
0.0
 10
70.150000
 20
302.000057
 30
0.0
  0
LWPOLYLINE
  5
141
100
AcDbEntity
  8
0
 62
7
100
AcDbPolyline
 90
4
 70
1
 10
89.150000
 20
362.000060
 30
0.0
 10
88.850000
 20
362.000060
 30
0.0
 10
88.850000
 20
302.000057
 30
0.0
 10
89.150000
 20
302.000057
 30
0.0
  0
LWPOLYLINE
  5
142
100
AcDbEntity
  8
0
 62
7
100
AcDbPolyline
 90
4
 70
1
 10
127.150000
 20
362.000060
 30
0.0
 10
126.850000
 20
362.000060
 30
0.0
 10
126.850000
 20
302.000057
 30
0.0
 10
127.150000
 20
302.000057
 30
0.0
  0
LWPOLYLINE
  5
143
100
AcDbEntity
  8
0
 62
7
100
AcDbPolyline
 90
4
 70
1
 10
336.150000
 20
362.000060
 30
0.0
 10
335.850000
 20
362.000060
 30
0.0
 10
335.850000
 20
302.000057
 30
0.0
 10
336.150000
 20
302.000057
 30
0.0
  0
LWPOLYLINE
  5
144
100
AcDbEntity
  8
0
 62
7
100
AcDbPolyline
 90
4
 70
1
 10
203.150000
 20
362.000060
 30
0.0
 10
202.850000
 20
362.000060
 30
0.0
 10
202.850000
 20
302.000057
 30
0.0
 10
203.150000
 20
302.000057
 30
0.0
  0
LWPOLYLINE
  5
145
100
AcDbEntity
  8
0
 62
7
100
AcDbPolyline
 90
4
 70
1
 10
108.150000
 20
362.000060
 30
0.0
 10
107.850000
 20
362.000060
 30
0.0
 10
107.850000
 20
302.000057
 30
0.0
 10
108.150000
 20
302.000057
 30
0.0
  0
LWPOLYLINE
  5
146
100
AcDbEntity
  8
0
 62
7
100
AcDbPolyline
 90
4
 70
1
 10
222.150000
 20
362.000060
 30
0.0
 10
221.850000
 20
362.000060
 30
0.0
 10
221.850000
 20
302.000057
 30
0.0
 10
222.150000
 20
302.000057
 30
0.0
  0
LWPOLYLINE
  5
147
100
AcDbEntity
  8
0
 62
7
100
AcDbPolyline
 90
50
 70
1
 10
355.078000
 20
327.208157
 30
0.0
 10
355.512000
 20
327.366457
 30
0.0
 10
356.031000
 20
327.465857
 30
0.0
 10
356.634000
 20
327.506457
 30
0.0
 10
356.634000
 20
327.849957
 30
0.0
 10
356.313000
 20
327.849957
 30
0.0
 10
356.072000
 20
327.859957
 30
0.0
 10
355.875000
 20
327.890057
 30
0.0
 10
355.724000
 20
327.940157
 30
0.0
 10
355.617000
 20
328.010357
 30
0.0
 10
355.543000
 20
328.093857
 30
0.0
 10
355.486000
 20
328.183857
 30
0.0
 10
355.448000
 20
328.280357
 30
0.0
 10
355.427000
 20
328.383457
 30
0.0
 10
355.418000
 20
328.539457
 30
0.0
 10
355.411000
 20
328.794757
 30
0.0
 10
355.406000
 20
329.149357
 30
0.0
 10
355.405000
 20
329.603357
 30
0.0
 10
355.405000
 20
334.915857
 30
0.0
 10
355.407000
 20
335.376357
 30
0.0
 10
355.412000
 20
335.735657
 30
0.0
 10
355.420000
 20
335.993857
 30
0.0
 10
355.431000
 20
336.150757
 30
0.0
 10
355.453000
 20
336.253357
 30
0.0
 10
355.491000
 20
336.348557
 30
0.0
 10
355.546000
 20
336.436157
 30
0.0
 10
355.617000
 20
336.516457
 30
0.0
 10
355.721000
 20
336.583357
 30
0.0
 10
355.872000
 20
336.631157
 30
0.0
 10
356.069000
 20
336.659757
 30
0.0
 10
356.314000
 20
336.669357
 30
0.0
 10
356.560000
 20
336.669357
 30
0.0
 10
356.560000
 20
337.012557
 30
0.0
 10
353.202000
 20
337.012557
 30
0.0
 10
353.202000
 20
336.669357
 30
0.0
 10
353.493000
 20
336.669357
 30
0.0
 10
353.714000
 20
336.660957
 30
0.0
 10
353.899000
 20
336.635757
 30
0.0
 10
354.047000
 20
336.593757
 30
0.0
 10
354.159000
 20
336.535057
 30
0.0
 10
354.242000
 20
336.460357
 30
0.0
 10
354.306000
 20
336.370857
 30
0.0
 10
354.349000
 20
336.266357
 30
0.0
 10
354.372000
 20
336.146957
 30
0.0
 10
354.384000
 20
335.974857
 30
0.0
 10
354.392000
 20
335.712257
 30
0.0
 10
354.397000
 20
335.359257
 30
0.0
 10
354.398000
 20
334.915757
 30
0.0
 10
354.398000
 20
326.991057
 30
0.0
 10
354.726000
 20
326.991057
 30
0.0
  0
LWPOLYLINE
  5
148
100
AcDbEntity
  8
0
 62
7
100
AcDbPolyline
 90
50
 70
1
 10
52.798400
 20
327.330757
 30
0.0
 10
52.506700
 20
327.330757
 30
0.0
 10
52.285600
 20
327.339157
 30
0.0
 10
52.100900
 20
327.364357
 30
0.0
 10
51.952700
 20
327.406357
 30
0.0
 10
51.841000
 20
327.465057
 30
0.0
 10
51.757600
 20
327.539757
 30
0.0
 10
51.694200
 20
327.629257
 30
0.0
 10
51.651000
 20
327.733757
 30
0.0
 10
51.627800
 20
327.853157
 30
0.0
 10
51.616400
 20
328.025257
 30
0.0
 10
51.608200
 20
328.287857
 30
0.0
 10
51.603300
 20
328.640857
 30
0.0
 10
51.601600
 20
329.084357
 30
0.0
 10
51.601600
 20
337.009057
 30
0.0
 10
51.273500
 20
337.009057
 30
0.0
 10
50.922500
 20
336.791957
 30
0.0
 10
50.487600
 20
336.633657
 30
0.0
 10
49.969000
 20
336.534257
 30
0.0
 10
49.366400
 20
336.493657
 30
0.0
 10
49.366400
 20
336.150157
 30
0.0
 10
49.686500
 20
336.150157
 30
0.0
 10
49.928300
 20
336.140157
 30
0.0
 10
50.124900
 20
336.110057
 30
0.0
 10
50.276400
 20
336.059957
 30
0.0
 10
50.382700
 20
335.989757
 30
0.0
 10
50.457400
 20
335.906257
 30
0.0
 10
50.514000
 20
335.816257
 30
0.0
 10
50.552400
 20
335.719757
 30
0.0
 10
50.572600
 20
335.616657
 30
0.0
 10
50.582400
 20
335.460657
 30
0.0
 10
50.589300
 20
335.205357
 30
0.0
 10
50.593500
 20
334.850757
 30
0.0
 10
50.594900
 20
334.396757
 30
0.0
 10
50.594900
 20
329.084257
 30
0.0
 10
50.593300
 20
328.623757
 30
0.0
 10
50.588400
 20
328.264457
 30
0.0
 10
50.580300
 20
328.006257
 30
0.0
 10
50.568900
 20
327.849357
 30
0.0
 10
50.547400
 20
327.746757
 30
0.0
 10
50.509300
 20
327.651557
 30
0.0
 10
50.454300
 20
327.563957
 30
0.0
 10
50.382600
 20
327.483657
 30
0.0
 10
50.279000
 20
327.416757
 30
0.0
 10
50.128400
 20
327.368957
 30
0.0
 10
49.930800
 20
327.340357
 30
0.0
 10
49.686100
 20
327.330757
 30
0.0
 10
49.440400
 20
327.330757
 30
0.0
 10
49.440400
 20
326.987557
 30
0.0
 10
52.798400
 20
326.987557
 30
0.0
  0
LWPOLYLINE
  5
149
100
AcDbEntity
  8
0
 62
7
100
AcDbPolyline
 90
32
 70
1
 10
336.960000
 20
281.924657
 30
0.0
 10
337.826000
 20
282.147857
 30
0.0
 10
338.594000
 20
282.519857
 30
0.0
 10
339.264000
 20
283.040557
 30
0.0
 10
339.807000
 20
283.681457
 30
0.0
 10
340.195000
 20
284.413957
 30
0.0
 10
340.428000
 20
285.238057
 30
0.0
 10
340.506000
 20
286.153657
 30
0.0
 10
340.425000
 20
287.093257
 30
0.0
 10
340.182000
 20
287.928357
 30
0.0
 10
339.776000
 20
288.658957
 30
0.0
 10
339.209000
 20
289.285057
 30
0.0
 10
338.520000
 20
289.787157
 30
0.0
 10
337.752000
 20
290.145757
 30
0.0
 10
336.905000
 20
290.360957
 30
0.0
 10
335.977000
 20
290.432657
 30
0.0
 10
335.058000
 20
290.360257
 30
0.0
 10
334.219000
 20
290.142757
 30
0.0
 10
333.459000
 20
289.780257
 30
0.0
 10
332.779000
 20
289.272857
 30
0.0
 10
332.218000
 20
288.645657
 30
0.0
 10
331.818000
 20
287.923857
 30
0.0
 10
331.577000
 20
287.107457
 30
0.0
 10
331.497000
 20
286.196357
 30
0.0
 10
331.576000
 20
285.262057
 30
0.0
 10
331.813000
 20
284.424657
 30
0.0
 10
332.208000
 20
283.684157
 30
0.0
 10
332.761000
 20
283.040557
 30
0.0
 10
333.437000
 20
282.519857
 30
0.0
 10
334.201000
 20
282.147857
 30
0.0
 10
335.054000
 20
281.924657
 30
0.0
 10
335.995000
 20
281.850257
 30
0.0
  0
LWPOLYLINE
  5
14a
100
AcDbEntity
  8
0
 62
7
100
AcDbPolyline
 90
32
 70
1
 10
335.335000
 20
282.218157
 30
0.0
 10
334.688000
 20
282.405857
 30
0.0
 10
334.141000
 20
282.718657
 30
0.0
 10
333.693000
 20
283.156557
 30
0.0
 10
333.345000
 20
283.719257
 30
0.0
 10
333.096000
 20
284.406357
 30
0.0
 10
332.947000
 20
285.217857
 30
0.0
 10
332.897000
 20
286.153757
 30
0.0
 10
332.947000
 20
287.076357
 30
0.0
 10
333.096000
 20
287.878857
 30
0.0
 10
333.345000
 20
288.561157
 30
0.0
 10
333.693000
 20
289.123257
 30
0.0
 10
334.134000
 20
289.562557
 30
0.0
 10
334.663000
 20
289.876357
 30
0.0
 10
335.280000
 20
290.064657
 30
0.0
 10
335.983000
 20
290.127457
 30
0.0
 10
336.698000
 20
290.063157
 30
0.0
 10
337.322000
 20
289.870257
 30
0.0
 10
337.857000
 20
289.548857
 30
0.0
 10
338.301000
 20
289.098857
 30
0.0
 10
338.651000
 20
288.528357
 30
0.0
 10
338.901000
 20
287.845257
 30
0.0
 10
339.050000
 20
287.049657
 30
0.0
 10
339.100000
 20
286.141457
 30
0.0
 10
339.050000
 20
285.210957
 30
0.0
 10
338.898000
 20
284.403357
 30
0.0
 10
338.644000
 20
283.718557
 30
0.0
 10
338.289000
 20
283.156557
 30
0.0
 10
337.847000
 20
282.718657
 30
0.0
 10
337.331000
 20
282.405857
 30
0.0
 10
336.743000
 20
282.218157
 30
0.0
 10
336.081000
 20
282.155557
 30
0.0
  0
LWPOLYLINE
  5
14b
100
AcDbEntity
  8
0
 62
7
100
AcDbPolyline
 90
104
 70
1
 10
184.406000
 20
281.874757
 30
0.0
 10
184.877000
 20
281.947957
 30
0.0
 10
185.367000
 20
282.070157
 30
0.0
 10
185.876000
 20
282.241057
 30
0.0
 10
186.240000
 20
282.366557
 30
0.0
 10
186.566000
 20
282.456257
 30
0.0
 10
186.856000
 20
282.510057
 30
0.0
 10
187.110000
 20
282.527957
 30
0.0
 10
187.169000
 20
282.526457
 30
0.0
 10
187.233000
 20
282.521857
 30
0.0
 10
187.301000
 20
282.514257
 30
0.0
 10
187.372000
 20
282.503657
 30
0.0
 10
187.372000
 20
283.382157
 30
0.0
 10
187.376000
 20
283.866557
 30
0.0
 10
187.389000
 20
284.252257
 30
0.0
 10
187.410000
 20
284.539257
 30
0.0
 10
187.439000
 20
284.727457
 30
0.0
 10
187.482000
 20
284.856357
 30
0.0
 10
187.542000
 20
284.965357
 30
0.0
 10
187.620000
 20
285.054557
 30
0.0
 10
187.716000
 20
285.123957
 30
0.0
 10
187.845000
 20
285.176057
 30
0.0
 10
188.022000
 20
285.213157
 30
0.0
 10
188.246000
 20
285.235457
 30
0.0
 10
188.518000
 20
285.242957
 30
0.0
 10
188.518000
 20
285.536657
 30
0.0
 10
184.947000
 20
285.536657
 30
0.0
 10
184.947000
 20
285.242957
 30
0.0
 10
185.142000
 20
285.242957
 30
0.0
 10
185.367000
 20
285.238157
 30
0.0
 10
185.554000
 20
285.223857
 30
0.0
 10
185.703000
 20
285.200057
 30
0.0
 10
185.814000
 20
285.166657
 30
0.0
 10
185.899000
 20
285.119357
 30
0.0
 10
185.973000
 20
285.053757
 30
0.0
 10
186.035000
 20
284.969857
 30
0.0
 10
186.085000
 20
284.867757
 30
0.0
 10
186.124000
 20
284.728757
 30
0.0
 10
186.152000
 20
284.534457
 30
0.0
 10
186.168000
 20
284.284957
 30
0.0
 10
186.174000
 20
283.980057
 30
0.0
 10
186.162000
 20
283.708557
 30
0.0
 10
186.127000
 20
283.461457
 30
0.0
 10
186.068000
 20
283.238857
 30
0.0
 10
185.985000
 20
283.040557
 30
0.0
 10
185.870000
 20
282.861557
 30
0.0
 10
185.713000
 20
282.696657
 30
0.0
 10
185.516000
 20
282.545757
 30
0.0
 10
185.277000
 20
282.409157
 30
0.0
 10
185.011000
 20
282.295657
 30
0.0
 10
184.730000
 20
282.214657
 30
0.0
 10
184.434000
 20
282.166057
 30
0.0
 10
184.124000
 20
282.149857
 30
0.0
 10
183.530000
 20
282.207257
 30
0.0
 10
182.987000
 20
282.379457
 30
0.0
 10
182.493000
 20
282.666457
 30
0.0
 10
182.050000
 20
283.068357
 30
0.0
 10
181.685000
 20
283.607957
 30
0.0
 10
181.423000
 20
284.308157
 30
0.0
 10
181.267000
 20
285.168957
 30
0.0
 10
181.215000
 20
286.190257
 30
0.0
 10
181.269000
 20
287.211057
 30
0.0
 10
181.431000
 20
288.064057
 30
0.0
 10
181.702000
 20
288.749157
 30
0.0
 10
182.081000
 20
289.266457
 30
0.0
 10
182.533000
 20
289.645657
 30
0.0
 10
183.022000
 20
289.916457
 30
0.0
 10
183.549000
 20
290.079057
 30
0.0
 10
184.113000
 20
290.133157
 30
0.0
 10
184.656000
 20
290.086657
 30
0.0
 10
185.157000
 20
289.947057
 30
0.0
 10
185.616000
 20
289.714257
 30
0.0
 10
186.032000
 20
289.388557
 30
0.0
 10
186.389000
 20
288.983057
 30
0.0
 10
186.669000
 20
288.511157
 30
0.0
 10
186.872000
 20
287.972957
 30
0.0
 10
186.999000
 20
287.368357
 30
0.0
 10
187.293000
 20
287.368357
 30
0.0
 10
187.293000
 20
290.133157
 30
0.0
 10
186.999000
 20
290.133157
 30
0.0
 10
186.963000
 20
289.890257
 30
0.0
 10
186.908000
 20
289.655657
 30
0.0
 10
186.834000
 20
289.429457
 30
0.0
 10
186.742000
 20
289.211557
 30
0.0
 10
186.163000
 20
289.745857
 30
0.0
 10
185.513000
 20
290.127457
 30
0.0
 10
184.790000
 20
290.356357
 30
0.0
 10
183.996000
 20
290.432657
 30
0.0
 10
183.082000
 20
290.349157
 30
0.0
 10
182.268000
 20
290.098457
 30
0.0
 10
181.556000
 20
289.680757
 30
0.0
 10
180.944000
 20
289.095857
 30
0.0
 10
180.452000
 20
288.399957
 30
0.0
 10
180.101000
 20
287.649157
 30
0.0
 10
179.891000
 20
286.843457
 30
0.0
 10
179.821000
 20
285.982757
 30
0.0
 10
179.894000
 20
285.124557
 30
0.0
 10
180.115000
 20
284.344557
 30
0.0
 10
180.483000
 20
283.642757
 30
0.0
 10
180.999000
 20
283.019257
 30
0.0
 10
181.625000
 20
282.507857
 30
0.0
 10
182.327000
 20
282.142557
 30
0.0
 10
183.103000
 20
281.923357
 30
0.0
 10
183.953000
 20
281.850257
 30
0.0
  0
LWPOLYLINE
  5
14c
100
AcDbEntity
  8
0
 62
7
100
AcDbPolyline
 90
82
 70
1
 10
109.029100
 20
281.927457
 30
0.0
 10
109.764200
 20
282.159057
 30
0.0
 10
110.424000
 20
282.545057
 30
0.0
 10
111.008000
 20
283.085357
 30
0.0
 10
111.140000
 20
282.889057
 30
0.0
 10
111.250000
 20
282.678257
 30
0.0
 10
111.339000
 20
282.452957
 30
0.0
 10
111.405000
 20
282.213157
 30
0.0
 10
111.667000
 20
282.213157
 30
0.0
 10
111.667000
 20
285.110457
 30
0.0
 10
111.405000
 20
285.110457
 30
0.0
 10
111.347000
 20
284.746757
 30
0.0
 10
111.248000
 20
284.376457
 30
0.0
 10
111.108000
 20
283.999757
 30
0.0
 10
110.926000
 20
283.616457
 30
0.0
 10
110.705000
 20
283.258057
 30
0.0
 10
110.447000
 20
282.955857
 30
0.0
 10
110.154000
 20
282.709657
 30
0.0
 10
109.824100
 20
282.519757
 30
0.0
 10
109.478200
 20
282.378057
 30
0.0
 10
109.136200
 20
282.276857
 30
0.0
 10
108.797900
 20
282.216157
 30
0.0
 10
108.463500
 20
282.195857
 30
0.0
 10
107.866700
 20
282.257957
 30
0.0
 10
107.321000
 20
282.443957
 30
0.0
 10
106.826300
 20
282.754057
 30
0.0
 10
106.382800
 20
283.188157
 30
0.0
 10
106.017100
 20
283.738657
 30
0.0
 10
105.755900
 20
284.397957
 30
0.0
 10
105.599100
 20
285.165957
 30
0.0
 10
105.546900
 20
286.042757
 30
0.0
 10
105.594700
 20
286.969057
 30
0.0
 10
105.738300
 20
287.781557
 30
0.0
 10
105.977600
 20
288.480257
 30
0.0
 10
106.312600
 20
289.065357
 30
0.0
 10
106.728900
 20
289.527457
 30
0.0
 10
107.211900
 20
289.857557
 30
0.0
 10
107.761600
 20
290.055657
 30
0.0
 10
108.378100
 20
290.121657
 30
0.0
 10
108.895400
 20
290.080857
 30
0.0
 10
109.385600
 20
289.958357
 30
0.0
 10
109.848700
 20
289.754257
 30
0.0
 10
110.285000
 20
289.468557
 30
0.0
 10
110.672000
 20
289.078257
 30
0.0
 10
110.987000
 20
288.560557
 30
0.0
 10
111.232000
 20
287.915457
 30
0.0
 10
111.405000
 20
287.143057
 30
0.0
 10
111.667000
 20
287.143057
 30
0.0
 10
111.594000
 20
290.280257
 30
0.0
 10
111.325000
 20
290.280257
 30
0.0
 10
111.285000
 20
290.004857
 30
0.0
 10
111.218000
 20
289.733957
 30
0.0
 10
111.126000
 20
289.467757
 30
0.0
 10
111.008000
 20
289.206057
 30
0.0
 10
110.798000
 20
289.432857
 30
0.0
 10
110.540000
 20
289.649257
 30
0.0
 10
110.235000
 20
289.855457
 30
0.0
 10
109.881600
 20
290.051257
 30
0.0
 10
109.493900
 20
290.218157
 30
0.0
 10
109.084400
 20
290.337357
 30
0.0
 10
108.653100
 20
290.408857
 30
0.0
 10
108.200100
 20
290.432657
 30
0.0
 10
107.650000
 20
290.399857
 30
0.0
 10
107.122700
 20
290.301457
 30
0.0
 10
106.618400
 20
290.137357
 30
0.0
 10
106.137000
 20
289.907757
 30
0.0
 10
105.693000
 20
289.610357
 30
0.0
 10
105.300800
 20
289.243157
 30
0.0
 10
104.960500
 20
288.806057
 30
0.0
 10
104.672100
 20
288.299257
 30
0.0
 10
104.442400
 20
287.748557
 30
0.0
 10
104.278400
 20
287.179957
 30
0.0
 10
104.180000
 20
286.593357
 30
0.0
 10
104.147200
 20
285.988857
 30
0.0
 10
104.218300
 20
285.100757
 30
0.0
 10
104.431800
 20
284.304157
 30
0.0
 10
104.787500
 20
283.599057
 30
0.0
 10
105.285500
 20
282.985657
 30
0.0
 10
105.895700
 20
282.488957
 30
0.0
 10
106.587900
 20
282.134157
 30
0.0
 10
107.362100
 20
281.921257
 30
0.0
 10
108.218400
 20
281.850257
 30
0.0
  0
LWPOLYLINE
  5
14d
100
AcDbEntity
  8
0
 62
7
100
AcDbPolyline
 90
57
 70
1
 10
68.232500
 20
282.280857
 30
0.0
 10
68.043100
 20
282.292857
 30
0.0
 10
67.871600
 20
282.328857
 30
0.0
 10
67.718100
 20
282.388857
 30
0.0
 10
67.582500
 20
282.472857
 30
0.0
 10
67.471700
 20
282.580057
 30
0.0
 10
67.392600
 20
282.709657
 30
0.0
 10
67.345100
 20
282.861857
 30
0.0
 10
67.329300
 20
283.036357
 30
0.0
 10
67.359000
 20
283.259557
 30
0.0
 10
67.448300
 20
283.581757
 30
0.0
 10
67.597100
 20
284.002957
 30
0.0
 10
67.805300
 20
284.523157
 30
0.0
 10
68.018900
 20
285.047057
 30
0.0
 10
71.164400
 20
285.047057
 30
0.0
 10
71.799500
 20
283.517857
 30
0.0
 10
71.922300
 20
283.218857
 30
0.0
 10
72.010100
 20
282.986157
 30
0.0
 10
72.062800
 20
282.819757
 30
0.0
 10
72.080400
 20
282.719557
 30
0.0
 10
72.067200
 20
282.599457
 30
0.0
 10
72.027700
 20
282.500957
 30
0.0
 10
71.961800
 20
282.424157
 30
0.0
 10
71.869700
 20
282.369157
 30
0.0
 10
71.740100
 20
282.330557
 30
0.0
 10
71.562100
 20
282.302957
 30
0.0
 10
71.335600
 20
282.286357
 30
0.0
 10
71.060700
 20
282.280857
 30
0.0
 10
71.060700
 20
282.000057
 30
0.0
 10
74.315000
 20
282.000057
 30
0.0
 10
74.315000
 20
282.280857
 30
0.0
 10
74.111800
 20
282.310057
 30
0.0
 10
73.935700
 20
282.354857
 30
0.0
 10
73.786700
 20
282.415357
 30
0.0
 10
73.664700
 20
282.491457
 30
0.0
 10
73.561900
 20
282.583157
 30
0.0
 10
73.470100
 20
282.690557
 30
0.0
 10
73.389300
 20
282.813557
 30
0.0
 10
73.319700
 20
282.952257
 30
0.0
 10
72.941100
 20
283.818957
 30
0.0
 10
70.175000
 20
290.392357
 30
0.0
 10
69.936700
 20
290.392357
 30
0.0
 10
67.531200
 20
284.649057
 30
0.0
 10
67.414500
 20
284.373657
 30
0.0
 10
67.326700
 20
284.163857
 30
0.0
 10
67.268000
 20
284.019557
 30
0.0
 10
67.238200
 20
283.940957
 30
0.0
 10
67.055800
 20
283.497557
 30
0.0
 10
66.887100
 20
283.137657
 30
0.0
 10
66.732200
 20
282.861257
 30
0.0
 10
66.591000
 20
282.668357
 30
0.0
 10
66.439100
 20
282.530957
 30
0.0
 10
66.252200
 20
282.420457
 30
0.0
 10
66.030100
 20
282.337157
 30
0.0
 10
65.773000
 20
282.280857
 30
0.0
 10
65.773000
 20
282.000057
 30
0.0
 10
68.232500
 20
282.000057
 30
0.0
  0
LWPOLYLINE
  5
14e
100
AcDbEntity
  8
0
 62
7
100
AcDbPolyline
 90
3
 70
1
 10
68.134800
 20
285.323557
 30
0.0
 10
69.594600
 20
288.853357
 30
0.0
 10
71.060700
 20
285.323557
 30
0.0
  0
LWPOLYLINE
  5
14f
100
AcDbEntity
  8
0
 62
7
100
AcDbPolyline
 90
67
 70
1
 10
126.658000
 20
282.004057
 30
0.0
 10
127.087000
 20
282.016057
 30
0.0
 10
127.457000
 20
282.036057
 30
0.0
 10
127.770000
 20
282.064157
 30
0.0
 10
128.058000
 20
282.108357
 30
0.0
 10
128.353000
 20
282.177057
 30
0.0
 10
128.657000
 20
282.270157
 30
0.0
 10
128.969000
 20
282.387657
 30
0.0
 10
129.275000
 20
282.532357
 30
0.0
 10
129.562000
 20
282.706757
 30
0.0
 10
129.830000
 20
282.910957
 30
0.0
 10
130.079000
 20
283.144857
 30
0.0
 10
130.306000
 20
283.409757
 30
0.0
 10
130.507000
 20
283.706657
 30
0.0
 10
130.683000
 20
284.035557
 30
0.0
 10
130.833000
 20
284.396557
 30
0.0
 10
130.953000
 20
284.783357
 30
0.0
 10
131.039000
 20
285.189657
 30
0.0
 10
131.090000
 20
285.615357
 30
0.0
 10
131.107000
 20
286.060457
 30
0.0
 10
131.076000
 20
286.670857
 30
0.0
 10
130.981000
 20
287.244257
 30
0.0
 10
130.824000
 20
287.780557
 30
0.0
 10
130.604000
 20
288.279857
 30
0.0
 10
130.319000
 20
288.735757
 30
0.0
 10
129.969000
 20
289.141657
 30
0.0
 10
129.552000
 20
289.497457
 30
0.0
 10
129.070000
 20
289.803357
 30
0.0
 10
128.503000
 20
290.049057
 30
0.0
 10
127.836000
 20
290.224557
 30
0.0
 10
127.067000
 20
290.329957
 30
0.0
 10
126.196000
 20
290.365057
 30
0.0
 10
125.831000
 20
290.359657
 30
0.0
 10
125.326000
 20
290.343657
 30
0.0
 10
124.684000
 20
290.316957
 30
0.0
 10
123.902000
 20
290.279657
 30
0.0
 10
122.541000
 20
290.212457
 30
0.0
 10
122.541000
 20
289.931557
 30
0.0
 10
122.785000
 20
289.931557
 30
0.0
 10
123.072000
 20
289.924857
 30
0.0
 10
123.303000
 20
289.904857
 30
0.0
 10
123.479000
 20
289.871457
 30
0.0
 10
123.600000
 20
289.824757
 30
0.0
 10
123.685000
 20
289.759857
 30
0.0
 10
123.754000
 20
289.672057
 30
0.0
 10
123.807000
 20
289.561457
 30
0.0
 10
123.844000
 20
289.427857
 30
0.0
 10
123.869000
 20
289.239157
 30
0.0
 10
123.887000
 20
288.963157
 30
0.0
 10
123.898000
 20
288.599757
 30
0.0
 10
123.902000
 20
288.148957
 30
0.0
 10
123.902000
 20
284.156157
 30
0.0
 10
123.898000
 20
283.684357
 30
0.0
 10
123.887000
 20
283.306857
 30
0.0
 10
123.869000
 20
283.023457
 30
0.0
 10
123.844000
 20
282.834457
 30
0.0
 10
123.805000
 20
282.701857
 30
0.0
 10
123.749000
 20
282.587957
 30
0.0
 10
123.674000
 20
282.492757
 30
0.0
 10
123.581000
 20
282.416257
 30
0.0
 10
123.459000
 20
282.357457
 30
0.0
 10
123.295000
 20
282.315457
 30
0.0
 10
123.091000
 20
282.290357
 30
0.0
 10
122.846000
 20
282.281957
 30
0.0
 10
122.505000
 20
282.281957
 30
0.0
 10
122.505000
 20
282.000057
 30
0.0
 10
126.172000
 20
282.000057
 30
0.0
  0
LWPOLYLINE
  5
150
100
AcDbEntity
  8
0
 62
7
100
AcDbPolyline
 90
45
 70
1
 10
126.043000
 20
282.297057
 30
0.0
 10
125.770000
 20
282.323957
 30
0.0
 10
125.560000
 20
282.368757
 30
0.0
 10
125.414000
 20
282.431557
 30
0.0
 10
125.311000
 20
282.516457
 30
0.0
 10
125.231000
 20
282.627657
 30
0.0
 10
125.174000
 20
282.765257
 30
0.0
 10
125.140000
 20
282.929157
 30
0.0
 10
125.120000
 20
283.160757
 30
0.0
 10
125.105000
 20
283.501457
 30
0.0
 10
125.097000
 20
283.951357
 30
0.0
 10
125.094000
 20
284.510357
 30
0.0
 10
125.094000
 20
290.041457
 30
0.0
 10
125.331000
 20
290.054857
 30
0.0
 10
125.566000
 20
290.064457
 30
0.0
 10
125.800000
 20
290.070157
 30
0.0
 10
126.033000
 20
290.072057
 30
0.0
 10
126.493000
 20
290.060457
 30
0.0
 10
126.909000
 20
290.025557
 30
0.0
 10
127.282000
 20
289.967357
 30
0.0
 10
127.612000
 20
289.885857
 30
0.0
 10
127.913000
 20
289.772157
 30
0.0
 10
128.200000
 20
289.617157
 30
0.0
 10
128.474000
 20
289.421057
 30
0.0
 10
128.734000
 20
289.183657
 30
0.0
 10
128.972000
 20
288.906457
 30
0.0
 10
129.181000
 20
288.590757
 30
0.0
 10
129.361000
 20
288.236457
 30
0.0
 10
129.511000
 20
287.843557
 30
0.0
 10
129.630000
 20
287.417357
 30
0.0
 10
129.715000
 20
286.962957
 30
0.0
 10
129.766000
 20
286.480357
 30
0.0
 10
129.782000
 20
285.969457
 30
0.0
 10
129.753000
 20
285.324757
 30
0.0
 10
129.666000
 20
284.739957
 30
0.0
 10
129.520000
 20
284.215157
 30
0.0
 10
129.316000
 20
283.750157
 30
0.0
 10
129.069000
 20
283.351057
 30
0.0
 10
128.792000
 20
283.023757
 30
0.0
 10
128.488000
 20
282.768057
 30
0.0
 10
128.155000
 20
282.584157
 30
0.0
 10
127.783000
 20
282.454657
 30
0.0
 10
127.363000
 20
282.362057
 30
0.0
 10
126.896000
 20
282.306557
 30
0.0
 10
126.380000
 20
282.288057
 30
0.0
  0
LWPOLYLINE
  5
151
100
AcDbEntity
  8
0
 62
7
100
AcDbPolyline
 90
64
 70
1
 10
89.274700
 20
282.010957
 30
0.0
 10
89.790200
 20
282.043557
 30
0.0
 10
90.244200
 20
282.097957
 30
0.0
 10
90.636800
 20
282.174057
 30
0.0
 10
90.982400
 20
282.285457
 30
0.0
 10
91.295600
 20
282.445657
 30
0.0
 10
91.576300
 20
282.654757
 30
0.0
 10
91.824600
 20
282.912657
 30
0.0
 10
92.027700
 20
283.208557
 30
0.0
 10
92.172700
 20
283.531457
 30
0.0
 10
92.259700
 20
283.881457
 30
0.0
 10
92.288700
 20
284.258557
 30
0.0
 10
92.245900
 20
284.688657
 30
0.0
 10
92.117300
 20
285.081257
 30
0.0
 10
91.903100
 20
285.436457
 30
0.0
 10
91.603100
 20
285.754257
 30
0.0
 10
91.215000
 20
286.022457
 30
0.0
 10
90.736400
 20
286.228857
 30
0.0
 10
90.167300
 20
286.373457
 30
0.0
 10
89.507600
 20
286.456357
 30
0.0
 10
90.056700
 20
286.561657
 30
0.0
 10
90.532200
 20
286.706557
 30
0.0
 10
90.934000
 20
286.891257
 30
0.0
 10
91.262300
 20
287.115557
 30
0.0
 10
91.517300
 20
287.379557
 30
0.0
 10
91.699500
 20
287.683257
 30
0.0
 10
91.808800
 20
288.026657
 30
0.0
 10
91.845200
 20
288.409757
 30
0.0
 10
91.633100
 20
289.264357
 30
0.0
 10
90.996900
 20
289.874757
 30
0.0
 10
89.936400
 20
290.241057
 30
0.0
 10
88.451800
 20
290.363157
 30
0.0
 10
86.901500
 20
290.314357
 30
0.0
 10
85.540400
 20
290.277757
 30
0.0
 10
85.540400
 20
289.997857
 30
0.0
 10
85.699200
 20
289.997857
 30
0.0
 10
85.986000
 20
289.990957
 30
0.0
 10
86.217500
 20
289.970357
 30
0.0
 10
86.393600
 20
289.935957
 30
0.0
 10
86.514400
 20
289.887957
 30
0.0
 10
86.599600
 20
289.821557
 30
0.0
 10
86.668600
 20
289.732357
 30
0.0
 10
86.721700
 20
289.620157
 30
0.0
 10
86.758700
 20
289.485057
 30
0.0
 10
86.784100
 20
289.293957
 30
0.0
 10
86.802200
 20
289.013557
 30
0.0
 10
86.813100
 20
288.643857
 30
0.0
 10
86.816700
 20
288.184857
 30
0.0
 10
86.816700
 20
284.155957
 30
0.0
 10
86.813300
 20
283.684157
 30
0.0
 10
86.803000
 20
283.306657
 30
0.0
 10
86.785800
 20
283.023357
 30
0.0
 10
86.761700
 20
282.834357
 30
0.0
 10
86.724900
 20
282.701857
 30
0.0
 10
86.669400
 20
282.587957
 30
0.0
 10
86.595100
 20
282.492757
 30
0.0
 10
86.502200
 20
282.416257
 30
0.0
 10
86.379500
 20
282.357457
 30
0.0
 10
86.216000
 20
282.315457
 30
0.0
 10
86.011600
 20
282.290357
 30
0.0
 10
85.766300
 20
282.281957
 30
0.0
 10
85.448700
 20
282.281957
 30
0.0
 10
85.448700
 20
282.000057
 30
0.0
 10
88.697700
 20
282.000057
 30
0.0
  0
LWPOLYLINE
  5
152
100
AcDbEntity
  8
0
 62
7
100
AcDbPolyline
 90
26
 70
1
 10
88.014800
 20
286.567757
 30
0.0
 10
88.014800
 20
290.045957
 30
0.0
 10
88.139000
 20
290.053857
 30
0.0
 10
88.261600
 20
290.059557
 30
0.0
 10
88.382700
 20
290.062957
 30
0.0
 10
88.502300
 20
290.064057
 30
0.0
 10
88.925600
 20
290.052057
 30
0.0
 10
89.282000
 20
290.015957
 30
0.0
 10
89.571400
 20
289.955957
 30
0.0
 10
89.793800
 20
289.871857
 30
0.0
 10
89.970800
 20
289.765557
 30
0.0
 10
90.124300
 20
289.639157
 30
0.0
 10
90.254100
 20
289.492557
 30
0.0
 10
90.360300
 20
289.325657
 30
0.0
 10
90.443000
 20
289.130457
 30
0.0
 10
90.502000
 20
288.898557
 30
0.0
 10
90.537400
 20
288.630057
 30
0.0
 10
90.549200
 20
288.324957
 30
0.0
 10
90.519100
 20
287.893257
 30
0.0
 10
90.428900
 20
287.525657
 30
0.0
 10
90.278500
 20
287.222157
 30
0.0
 10
90.067900
 20
286.982657
 30
0.0
 10
89.775100
 20
286.801157
 30
0.0
 10
89.378000
 20
286.671457
 30
0.0
 10
88.876600
 20
286.593657
 30
0.0
 10
88.270800
 20
286.567757
 30
0.0
  0
LWPOLYLINE
  5
153
100
AcDbEntity
  8
0
 62
7
100
AcDbPolyline
 90
33
 70
1
 10
88.770100
 20
282.298357
 30
0.0
 10
88.563500
 20
282.329257
 30
0.0
 10
88.402300
 20
282.380757
 30
0.0
 10
88.286500
 20
282.452857
 30
0.0
 10
88.202400
 20
282.544857
 30
0.0
 10
88.136200
 20
282.655857
 30
0.0
 10
88.087900
 20
282.785957
 30
0.0
 10
88.057600
 20
282.935157
 30
0.0
 10
88.038900
 20
283.147657
 30
0.0
 10
88.025500
 20
283.467857
 30
0.0
 10
88.017500
 20
283.895557
 30
0.0
 10
88.014800
 20
284.430957
 30
0.0
 10
88.014800
 20
286.274657
 30
0.0
 10
88.135400
 20
286.280057
 30
0.0
 10
88.252900
 20
286.283857
 30
0.0
 10
88.367400
 20
286.286057
 30
0.0
 10
88.478800
 20
286.286857
 30
0.0
 10
89.122200
 20
286.256557
 30
0.0
 10
89.660800
 20
286.165457
 30
0.0
 10
90.094400
 20
286.013857
 30
0.0
 10
90.423000
 20
285.801457
 30
0.0
 10
90.664700
 20
285.525057
 30
0.0
 10
90.837400
 20
285.181057
 30
0.0
 10
90.940900
 20
284.769557
 30
0.0
 10
90.975500
 20
284.290557
 30
0.0
 10
90.944900
 20
283.821257
 30
0.0
 10
90.853400
 20
283.414457
 30
0.0
 10
90.700800
 20
283.070257
 30
0.0
 10
90.487100
 20
282.788657
 30
0.0
 10
90.212400
 20
282.569657
 30
0.0
 10
89.876700
 20
282.413157
 30
0.0
 10
89.479900
 20
282.319357
 30
0.0
 10
89.022000
 20
282.288057
 30
0.0
  0
LWPOLYLINE
  5
154
100
AcDbEntity
  8
0
 62
7
100
AcDbPolyline
 90
124
 70
1
 10
202.099000
 20
282.280857
 30
0.0
 10
201.885000
 20
282.280857
 30
0.0
 10
201.630000
 20
282.290057
 30
0.0
 10
201.420000
 20
282.317457
 30
0.0
 10
201.254000
 20
282.363257
 30
0.0
 10
201.133000
 20
282.427357
 30
0.0
 10
201.043000
 20
282.510457
 30
0.0
 10
200.972000
 20
282.612957
 30
0.0
 10
200.920000
 20
282.734857
 30
0.0
 10
200.886000
 20
282.876257
 30
0.0
 10
200.865000
 20
283.069657
 30
0.0
 10
200.849000
 20
283.347357
 30
0.0
 10
200.840000
 20
283.709357
 30
0.0
 10
200.837000
 20
284.155857
 30
0.0
 10
200.837000
 20
286.153057
 30
0.0
 10
205.158000
 20
286.153057
 30
0.0
 10
205.158000
 20
284.155857
 30
0.0
 10
205.154000
 20
283.683857
 30
0.0
 10
205.144000
 20
283.306157
 30
0.0
 10
205.127000
 20
283.022657
 30
0.0
 10
205.103000
 20
282.833557
 30
0.0
 10
205.066000
 20
282.700957
 30
0.0
 10
205.010000
 20
282.586957
 30
0.0
 10
204.936000
 20
282.491757
 30
0.0
 10
204.843000
 20
282.415257
 30
0.0
 10
204.721000
 20
282.356457
 30
0.0
 10
204.558000
 20
282.314457
 30
0.0
 10
204.356000
 20
282.289257
 30
0.0
 10
204.114000
 20
282.280857
 30
0.0
 10
203.827000
 20
282.280857
 30
0.0
 10
203.827000
 20
282.000057
 30
0.0
 10
207.594000
 20
282.000057
 30
0.0
 10
207.594000
 20
282.280857
 30
0.0
 10
207.404000
 20
282.280857
 30
0.0
 10
207.149000
 20
282.290057
 30
0.0
 10
206.938000
 20
282.317457
 30
0.0
 10
206.771000
 20
282.363257
 30
0.0
 10
206.648000
 20
282.427357
 30
0.0
 10
206.557000
 20
282.510357
 30
0.0
 10
206.486000
 20
282.612757
 30
0.0
 10
206.434000
 20
282.734657
 30
0.0
 10
206.401000
 20
282.876057
 30
0.0
 10
206.381000
 20
283.069257
 30
0.0
 10
206.367000
 20
283.346857
 30
0.0
 10
206.358000
 20
283.708757
 30
0.0
 10
206.355000
 20
284.155057
 30
0.0
 10
206.355000
 20
288.214757
 30
0.0
 10
206.359000
 20
288.683257
 30
0.0
 10
206.371000
 20
289.057157
 30
0.0
 10
206.391000
 20
289.336457
 30
0.0
 10
206.419000
 20
289.521057
 30
0.0
 10
206.459000
 20
289.647557
 30
0.0
 10
206.515000
 20
289.752357
 30
0.0
 10
206.586000
 20
289.835357
 30
0.0
 10
206.672000
 20
289.896557
 30
0.0
 10
206.793000
 20
289.940657
 30
0.0
 10
206.967000
 20
289.972157
 30
0.0
 10
207.193000
 20
289.991057
 30
0.0
 10
207.472000
 20
289.997357
 30
0.0
 10
207.594000
 20
289.997357
 30
0.0
 10
207.594000
 20
290.277157
 30
0.0
 10
203.827000
 20
290.277157
 30
0.0
 10
203.827000
 20
289.997357
 30
0.0
 10
204.046000
 20
289.997357
 30
0.0
 10
204.333000
 20
289.990457
 30
0.0
 10
204.565000
 20
289.969857
 30
0.0
 10
204.741000
 20
289.935557
 30
0.0
 10
204.861000
 20
289.887457
 30
0.0
 10
204.946000
 20
289.821557
 30
0.0
 10
205.015000
 20
289.733457
 30
0.0
 10
205.067000
 20
289.623157
 30
0.0
 10
205.103000
 20
289.490857
 30
0.0
 10
205.127000
 20
289.303557
 30
0.0
 10
205.144000
 20
289.028557
 30
0.0
 10
205.154000
 20
288.665757
 30
0.0
 10
205.158000
 20
288.215257
 30
0.0
 10
205.158000
 20
286.573457
 30
0.0
 10
200.837000
 20
286.573457
 30
0.0
 10
200.837000
 20
288.214757
 30
0.0
 10
200.841000
 20
288.683057
 30
0.0
 10
200.853000
 20
289.056757
 30
0.0
 10
200.873000
 20
289.335857
 30
0.0
 10
200.901000
 20
289.520357
 30
0.0
 10
200.941000
 20
289.646757
 30
0.0
 10
200.996000
 20
289.751457
 30
0.0
 10
201.067000
 20
289.834457
 30
0.0
 10
201.154000
 20
289.895657
 30
0.0
 10
201.274000
 20
289.939757
 30
0.0
 10
201.447000
 20
289.971157
 30
0.0
 10
201.670000
 20
289.990057
 30
0.0
 10
201.946000
 20
289.996357
 30
0.0
 10
202.099000
 20
289.996357
 30
0.0
 10
202.099000
 20
290.277157
 30
0.0
 10
198.378000
 20
290.277157
 30
0.0
 10
198.378000
 20
289.996357
 30
0.0
 10
198.530000
 20
289.996357
 30
0.0
 10
198.816000
 20
289.989557
 30
0.0
 10
199.047000
 20
289.968857
 30
0.0
 10
199.223000
 20
289.934557
 30
0.0
 10
199.343000
 20
289.886457
 30
0.0
 10
199.428000
 20
289.820557
 30
0.0
 10
199.497000
 20
289.732357
 30
0.0
 10
199.550000
 20
289.622157
 30
0.0
 10
199.587000
 20
289.489757
 30
0.0
 10
199.612000
 20
289.302457
 30
0.0
 10
199.630000
 20
289.027457
 30
0.0
 10
199.641000
 20
288.664557
 30
0.0
 10
199.645000
 20
288.214057
 30
0.0
 10
199.645000
 20
284.154757
 30
0.0
 10
199.641000
 20
283.683057
 30
0.0
 10
199.630000
 20
283.305557
 30
0.0
 10
199.612000
 20
283.022357
 30
0.0
 10
199.587000
 20
282.833257
 30
0.0
 10
199.549000
 20
282.700757
 30
0.0
 10
199.493000
 20
282.586857
 30
0.0
 10
199.418000
 20
282.491657
 30
0.0
 10
199.325000
 20
282.415157
 30
0.0
 10
199.203000
 20
282.356357
 30
0.0
 10
199.039000
 20
282.314457
 30
0.0
 10
198.836000
 20
282.289257
 30
0.0
 10
198.591000
 20
282.280857
 30
0.0
 10
198.378000
 20
282.280857
 30
0.0
 10
198.378000
 20
282.000057
 30
0.0
 10
202.099000
 20
282.000057
 30
0.0
  0
LWPOLYLINE
  5
155
100
AcDbEntity
  8
0
 62
7
100
AcDbPolyline
 90
73
 70
1
 10
282.670000
 20
284.435957
 30
0.0
 10
282.383000
 20
284.435957
 30
0.0
 10
282.242000
 20
283.977657
 30
0.0
 10
282.094000
 20
283.585757
 30
0.0
 10
281.938000
 20
283.260357
 30
0.0
 10
281.776000
 20
283.001257
 30
0.0
 10
281.607000
 20
282.795157
 30
0.0
 10
281.434000
 20
282.628857
 30
0.0
 10
281.257000
 20
282.502157
 30
0.0
 10
281.074000
 20
282.415157
 30
0.0
 10
280.865000
 20
282.356357
 30
0.0
 10
280.607000
 20
282.314457
 30
0.0
 10
280.300000
 20
282.289257
 30
0.0
 10
279.943000
 20
282.280857
 30
0.0
 10
279.315000
 20
282.280857
 30
0.0
 10
278.989000
 20
282.288657
 30
0.0
 10
278.725000
 20
282.312157
 30
0.0
 10
278.524000
 20
282.351257
 30
0.0
 10
278.384000
 20
282.405957
 30
0.0
 10
278.287000
 20
282.474857
 30
0.0
 10
278.210000
 20
282.556357
 30
0.0
 10
278.154000
 20
282.650357
 30
0.0
 10
278.119000
 20
282.757057
 30
0.0
 10
278.098000
 20
282.911957
 30
0.0
 10
278.083000
 20
283.150857
 30
0.0
 10
278.073000
 20
283.473657
 30
0.0
 10
278.070000
 20
283.880357
 30
0.0
 10
278.070000
 20
288.214757
 30
0.0
 10
278.074000
 20
288.683257
 30
0.0
 10
278.086000
 20
289.057157
 30
0.0
 10
278.106000
 20
289.336457
 30
0.0
 10
278.134000
 20
289.521057
 30
0.0
 10
278.174000
 20
289.647557
 30
0.0
 10
278.229000
 20
289.752357
 30
0.0
 10
278.300000
 20
289.835357
 30
0.0
 10
278.387000
 20
289.896557
 30
0.0
 10
278.508000
 20
289.940657
 30
0.0
 10
278.681000
 20
289.972157
 30
0.0
 10
278.907000
 20
289.991057
 30
0.0
 10
279.185000
 20
289.997357
 30
0.0
 10
279.551000
 20
289.997357
 30
0.0
 10
279.551000
 20
290.277157
 30
0.0
 10
275.576000
 20
290.277157
 30
0.0
 10
275.576000
 20
289.997357
 30
0.0
 10
275.760000
 20
289.997357
 30
0.0
 10
276.047000
 20
289.990457
 30
0.0
 10
276.278000
 20
289.969857
 30
0.0
 10
276.455000
 20
289.935557
 30
0.0
 10
276.576000
 20
289.887457
 30
0.0
 10
276.661000
 20
289.821457
 30
0.0
 10
276.730000
 20
289.733357
 30
0.0
 10
276.783000
 20
289.623057
 30
0.0
 10
276.820000
 20
289.490657
 30
0.0
 10
276.845000
 20
289.303357
 30
0.0
 10
276.864000
 20
289.028257
 30
0.0
 10
276.874000
 20
288.665357
 30
0.0
 10
276.878000
 20
288.214757
 30
0.0
 10
276.878000
 20
284.155057
 30
0.0
 10
276.874000
 20
283.683257
 30
0.0
 10
276.864000
 20
283.305757
 30
0.0
 10
276.845000
 20
283.022457
 30
0.0
 10
276.820000
 20
282.833357
 30
0.0
 10
276.782000
 20
282.700757
 30
0.0
 10
276.725000
 20
282.586857
 30
0.0
 10
276.650000
 20
282.491657
 30
0.0
 10
276.557000
 20
282.415157
 30
0.0
 10
276.434000
 20
282.356357
 30
0.0
 10
276.271000
 20
282.314457
 30
0.0
 10
276.066000
 20
282.289257
 30
0.0
 10
275.821000
 20
282.280857
 30
0.0
 10
275.576000
 20
282.280857
 30
0.0
 10
275.576000
 20
282.000057
 30
0.0
 10
282.609000
 20
282.000057
 30
0.0
  0
LWPOLYLINE
  5
156
100
AcDbEntity
  8
0
 62
7
100
AcDbPolyline
 90
60
 70
1
 10
223.894000
 20
282.280857
 30
0.0
 10
223.650000
 20
282.280857
 30
0.0
 10
223.391000
 20
282.290057
 30
0.0
 10
223.178000
 20
282.317457
 30
0.0
 10
223.011000
 20
282.363257
 30
0.0
 10
222.889000
 20
282.427357
 30
0.0
 10
222.799000
 20
282.510357
 30
0.0
 10
222.728000
 20
282.612757
 30
0.0
 10
222.677000
 20
282.734657
 30
0.0
 10
222.644000
 20
282.876057
 30
0.0
 10
222.624000
 20
283.069257
 30
0.0
 10
222.610000
 20
283.346857
 30
0.0
 10
222.601000
 20
283.708757
 30
0.0
 10
222.598000
 20
284.155057
 30
0.0
 10
222.598000
 20
288.214757
 30
0.0
 10
222.602000
 20
288.683257
 30
0.0
 10
222.614000
 20
289.057157
 30
0.0
 10
222.634000
 20
289.336457
 30
0.0
 10
222.663000
 20
289.521057
 30
0.0
 10
222.702000
 20
289.647557
 30
0.0
 10
222.758000
 20
289.752357
 30
0.0
 10
222.829000
 20
289.835357
 30
0.0
 10
222.916000
 20
289.896557
 30
0.0
 10
223.037000
 20
289.940657
 30
0.0
 10
223.211000
 20
289.972157
 30
0.0
 10
223.438000
 20
289.991057
 30
0.0
 10
223.717000
 20
289.997357
 30
0.0
 10
223.894000
 20
289.997357
 30
0.0
 10
223.894000
 20
290.277157
 30
0.0
 10
220.110000
 20
290.277157
 30
0.0
 10
220.110000
 20
289.997357
 30
0.0
 10
220.287000
 20
289.997357
 30
0.0
 10
220.573000
 20
289.990457
 30
0.0
 10
220.804000
 20
289.969857
 30
0.0
 10
220.980000
 20
289.935557
 30
0.0
 10
221.102000
 20
289.887457
 30
0.0
 10
221.188000
 20
289.821457
 30
0.0
 10
221.257000
 20
289.733357
 30
0.0
 10
221.310000
 20
289.623057
 30
0.0
 10
221.345000
 20
289.490657
 30
0.0
 10
221.369000
 20
289.303357
 30
0.0
 10
221.387000
 20
289.028257
 30
0.0
 10
221.397000
 20
288.665357
 30
0.0
 10
221.400000
 20
288.214757
 30
0.0
 10
221.400000
 20
284.155057
 30
0.0
 10
221.397000
 20
283.683257
 30
0.0
 10
221.387000
 20
283.305757
 30
0.0
 10
221.369000
 20
283.022457
 30
0.0
 10
221.345000
 20
282.833357
 30
0.0
 10
221.309000
 20
282.700757
 30
0.0
 10
221.253000
 20
282.586857
 30
0.0
 10
221.179000
 20
282.491657
 30
0.0
 10
221.087000
 20
282.415157
 30
0.0
 10
220.965000
 20
282.356357
 30
0.0
 10
220.802000
 20
282.314457
 30
0.0
 10
220.598000
 20
282.289257
 30
0.0
 10
220.353000
 20
282.280857
 30
0.0
 10
220.110000
 20
282.280857
 30
0.0
 10
220.110000
 20
282.000057
 30
0.0
 10
223.894000
 20
282.000057
 30
0.0
  0
LWPOLYLINE
  5
157
100
AcDbEntity
  8
0
 62
7
100
AcDbPolyline
 90
87
 70
1
 10
165.742000
 20
282.280857
 30
0.0
 10
165.461000
 20
282.280857
 30
0.0
 10
165.201000
 20
282.290057
 30
0.0
 10
164.986000
 20
282.317457
 30
0.0
 10
164.818000
 20
282.363257
 30
0.0
 10
164.696000
 20
282.427257
 30
0.0
 10
164.606000
 20
282.510257
 30
0.0
 10
164.535000
 20
282.612657
 30
0.0
 10
164.482000
 20
282.734557
 30
0.0
 10
164.448000
 20
282.875857
 30
0.0
 10
164.427000
 20
283.069057
 30
0.0
 10
164.412000
 20
283.346457
 30
0.0
 10
164.403000
 20
283.708157
 30
0.0
 10
164.400000
 20
284.154257
 30
0.0
 10
164.400000
 20
286.210657
 30
0.0
 10
165.173000
 20
286.210657
 30
0.0
 10
165.453000
 20
286.203557
 30
0.0
 10
165.682000
 20
286.182457
 30
0.0
 10
165.862000
 20
286.147257
 30
0.0
 10
165.992000
 20
286.097957
 30
0.0
 10
166.091000
 20
286.029457
 30
0.0
 10
166.177000
 20
285.936457
 30
0.0
 10
166.249000
 20
285.819257
 30
0.0
 10
166.309000
 20
285.677557
 30
0.0
 10
166.356000
 20
285.509757
 30
0.0
 10
166.389000
 20
285.314257
 30
0.0
 10
166.409000
 20
285.090857
 30
0.0
 10
166.416000
 20
284.839757
 30
0.0
 10
166.721000
 20
284.839757
 30
0.0
 10
166.721000
 20
287.760057
 30
0.0
 10
166.416000
 20
287.760057
 30
0.0
 10
166.400000
 20
287.409457
 30
0.0
 10
166.354000
 20
287.122857
 30
0.0
 10
166.277000
 20
286.899957
 30
0.0
 10
166.169000
 20
286.741057
 30
0.0
 10
166.014000
 20
286.629957
 30
0.0
 10
165.797000
 20
286.550557
 30
0.0
 10
165.516000
 20
286.502957
 30
0.0
 10
165.173000
 20
286.487057
 30
0.0
 10
164.400000
 20
286.487057
 30
0.0
 10
164.400000
 20
289.996357
 30
0.0
 10
166.015000
 20
289.996357
 30
0.0
 10
166.372000
 20
289.989557
 30
0.0
 10
166.672000
 20
289.968957
 30
0.0
 10
166.917000
 20
289.934657
 30
0.0
 10
167.106000
 20
289.886657
 30
0.0
 10
167.266000
 20
289.811057
 30
0.0
 10
167.423000
 20
289.693957
 30
0.0
 10
167.576000
 20
289.535357
 30
0.0
 10
167.725000
 20
289.335257
 30
0.0
 10
167.860000
 20
289.099657
 30
0.0
 10
167.968000
 20
288.834757
 30
0.0
 10
168.051000
 20
288.540557
 30
0.0
 10
168.106000
 20
288.217057
 30
0.0
 10
168.393000
 20
288.217057
 30
0.0
 10
168.326000
 20
290.277157
 30
0.0
 10
161.943000
 20
290.277157
 30
0.0
 10
161.943000
 20
289.996357
 30
0.0
 10
162.089000
 20
289.996357
 30
0.0
 10
162.376000
 20
289.989557
 30
0.0
 10
162.608000
 20
289.968857
 30
0.0
 10
162.784000
 20
289.934557
 30
0.0
 10
162.905000
 20
289.886457
 30
0.0
 10
162.990000
 20
289.820557
 30
0.0
 10
163.059000
 20
289.732357
 30
0.0
 10
163.112000
 20
289.622157
 30
0.0
 10
163.149000
 20
289.489757
 30
0.0
 10
163.175000
 20
289.302457
 30
0.0
 10
163.193000
 20
289.027457
 30
0.0
 10
163.204000
 20
288.664557
 30
0.0
 10
163.207000
 20
288.214057
 30
0.0
 10
163.207000
 20
284.154757
 30
0.0
 10
163.204000
 20
283.683057
 30
0.0
 10
163.193000
 20
283.305557
 30
0.0
 10
163.175000
 20
283.022357
 30
0.0
 10
163.149000
 20
282.833257
 30
0.0
 10
163.111000
 20
282.700757
 30
0.0
 10
163.055000
 20
282.586857
 30
0.0
 10
162.980000
 20
282.491657
 30
0.0
 10
162.887000
 20
282.415157
 30
0.0
 10
162.764000
 20
282.356357
 30
0.0
 10
162.600000
 20
282.314457
 30
0.0
 10
162.396000
 20
282.289257
 30
0.0
 10
162.151000
 20
282.280857
 30
0.0
 10
161.894000
 20
282.280857
 30
0.0
 10
161.894000
 20
282.000057
 30
0.0
 10
165.742000
 20
282.000057
 30
0.0
  0
LWPOLYLINE
  5
158
100
AcDbEntity
  8
0
 62
7
100
AcDbPolyline
 90
75
 70
1
 10
320.273000
 20
288.659557
 30
0.0
 10
320.278000
 20
288.905757
 30
0.0
 10
320.293000
 20
289.113557
 30
0.0
 10
320.319000
 20
289.282757
 30
0.0
 10
320.355000
 20
289.413457
 30
0.0
 10
320.410000
 20
289.520857
 30
0.0
 10
320.492000
 20
289.620257
 30
0.0
 10
320.601000
 20
289.711657
 30
0.0
 10
320.738000
 20
289.794957
 30
0.0
 10
320.903000
 20
289.867057
 30
0.0
 10
321.095000
 20
289.924657
 30
0.0
 10
321.315000
 20
289.967757
 30
0.0
 10
321.563000
 20
289.996357
 30
0.0
 10
321.563000
 20
290.277157
 30
0.0
 10
318.562000
 20
290.277157
 30
0.0
 10
318.562000
 20
289.996357
 30
0.0
 10
318.798000
 20
289.988357
 30
0.0
 10
319.016000
 20
289.964357
 30
0.0
 10
319.216000
 20
289.924257
 30
0.0
 10
319.399000
 20
289.868157
 30
0.0
 10
319.558000
 20
289.798357
 30
0.0
 10
319.688000
 20
289.717057
 30
0.0
 10
319.789000
 20
289.624357
 30
0.0
 10
319.860000
 20
289.520157
 30
0.0
 10
319.910000
 20
289.389757
 30
0.0
 10
319.945000
 20
289.218057
 30
0.0
 10
319.966000
 20
289.005157
 30
0.0
 10
319.973000
 20
288.751057
 30
0.0
 10
319.973000
 20
283.800757
 30
0.0
 10
315.070000
 20
290.277157
 30
0.0
 10
312.629000
 20
290.277157
 30
0.0
 10
312.629000
 20
289.996357
 30
0.0
 10
312.932000
 20
289.990657
 30
0.0
 10
313.176000
 20
289.973457
 30
0.0
 10
313.361000
 20
289.944857
 30
0.0
 10
313.487000
 20
289.904857
 30
0.0
 10
313.577000
 20
289.844557
 30
0.0
 10
313.653000
 20
289.755357
 30
0.0
 10
313.717000
 20
289.637057
 30
0.0
 10
313.768000
 20
289.489757
 30
0.0
 10
313.806000
 20
289.288757
 30
0.0
 10
313.834000
 20
289.009057
 30
0.0
 10
313.851000
 20
288.650857
 30
0.0
 10
313.856000
 20
288.214057
 30
0.0
 10
313.856000
 20
283.825157
 30
0.0
 10
313.853000
 20
283.484057
 30
0.0
 10
313.842000
 20
283.211657
 30
0.0
 10
313.824000
 20
283.007957
 30
0.0
 10
313.798000
 20
282.872857
 30
0.0
 10
313.753000
 20
282.773857
 30
0.0
 10
313.677000
 20
282.678357
 30
0.0
 10
313.569000
 20
282.586157
 30
0.0
 10
313.429000
 20
282.497457
 30
0.0
 10
313.256000
 20
282.418757
 30
0.0
 10
313.047000
 20
282.356357
 30
0.0
 10
312.804000
 20
282.310457
 30
0.0
 10
312.526000
 20
282.280857
 30
0.0
 10
312.526000
 20
282.000057
 30
0.0
 10
315.613000
 20
282.000057
 30
0.0
 10
315.613000
 20
282.280857
 30
0.0
 10
315.304000
 20
282.292657
 30
0.0
 10
315.037000
 20
282.328157
 30
0.0
 10
314.810000
 20
282.387257
 30
0.0
 10
314.625000
 20
282.470057
 30
0.0
 10
314.477000
 20
282.566957
 30
0.0
 10
314.361000
 20
282.668457
 30
0.0
 10
314.277000
 20
282.774457
 30
0.0
 10
314.226000
 20
282.885157
 30
0.0
 10
314.195000
 20
283.028557
 30
0.0
 10
314.173000
 20
283.233057
 30
0.0
 10
314.160000
 20
283.498657
 30
0.0
 10
314.156000
 20
283.825157
 30
0.0
 10
314.156000
 20
289.569057
 30
0.0
 10
320.010000
 20
281.809957
 30
0.0
 10
320.273000
 20
281.809957
 30
0.0
  0
LWPOLYLINE
  5
159
100
AcDbEntity
  8
0
 62
7
100
AcDbPolyline
 90
112
 70
1
 10
259.184000
 20
282.280857
 30
0.0
 10
259.026000
 20
282.280857
 30
0.0
 10
258.769000
 20
282.290057
 30
0.0
 10
258.557000
 20
282.317457
 30
0.0
 10
258.390000
 20
282.363257
 30
0.0
 10
258.269000
 20
282.427357
 30
0.0
 10
258.179000
 20
282.510357
 30
0.0
 10
258.109000
 20
282.612757
 30
0.0
 10
258.056000
 20
282.734657
 30
0.0
 10
258.023000
 20
282.876057
 30
0.0
 10
258.001000
 20
283.069257
 30
0.0
 10
257.986000
 20
283.346857
 30
0.0
 10
257.977000
 20
283.708757
 30
0.0
 10
257.974000
 20
284.155057
 30
0.0
 10
257.974000
 20
285.662957
 30
0.0
 10
258.564000
 20
286.181857
 30
0.0
 10
260.900000
 20
283.825357
 30
0.0
 10
261.287000
 20
283.422057
 30
0.0
 10
261.563000
 20
283.097357
 30
0.0
 10
261.729000
 20
282.851257
 30
0.0
 10
261.784000
 20
282.683757
 30
0.0
 10
261.774000
 20
282.601757
 30
0.0
 10
261.742000
 20
282.526557
 30
0.0
 10
261.688000
 20
282.458257
 30
0.0
 10
261.614000
 20
282.396857
 30
0.0
 10
261.496000
 20
282.346157
 30
0.0
 10
261.312000
 20
282.309857
 30
0.0
 10
261.063000
 20
282.288157
 30
0.0
 10
260.748000
 20
282.280857
 30
0.0
 10
260.583000
 20
282.280857
 30
0.0
 10
260.583000
 20
282.000057
 30
0.0
 10
264.880000
 20
282.000057
 30
0.0
 10
264.880000
 20
282.280857
 30
0.0
 10
264.607000
 20
282.294957
 30
0.0
 10
264.360000
 20
282.337357
 30
0.0
 10
264.140000
 20
282.407957
 30
0.0
 10
263.947000
 20
282.506757
 30
0.0
 10
263.723000
 20
282.673157
 30
0.0
 10
263.411000
 20
282.946357
 30
0.0
 10
263.012000
 20
283.326357
 30
0.0
 10
262.525000
 20
283.813157
 30
0.0
 10
259.424000
 20
286.944957
 30
0.0
 10
260.930000
 20
288.336857
 30
0.0
 10
261.335000
 20
288.713457
 30
0.0
 10
261.670000
 20
289.019057
 30
0.0
 10
261.935000
 20
289.253757
 30
0.0
 10
262.132000
 20
289.417357
 30
0.0
 10
262.297000
 20
289.539457
 30
0.0
 10
262.471000
 20
289.649357
 30
0.0
 10
262.652000
 20
289.747057
 30
0.0
 10
262.842000
 20
289.832457
 30
0.0
 10
263.035000
 20
289.901957
 30
0.0
 10
263.228000
 20
289.951557
 30
0.0
 10
263.421000
 20
289.981357
 30
0.0
 10
263.613000
 20
289.991257
 30
0.0
 10
263.613000
 20
290.277157
 30
0.0
 10
260.497000
 20
290.277157
 30
0.0
 10
260.497000
 20
289.997357
 30
0.0
 10
260.882000
 20
289.954957
 30
0.0
 10
261.156000
 20
289.852357
 30
0.0
 10
261.321000
 20
289.689357
 30
0.0
 10
261.376000
 20
289.466157
 30
0.0
 10
261.321000
 20
289.270057
 30
0.0
 10
261.156000
 20
289.017557
 30
0.0
 10
260.882000
 20
288.708457
 30
0.0
 10
260.498000
 20
288.342857
 30
0.0
 10
257.974000
 20
286.065857
 30
0.0
 10
257.974000
 20
288.214757
 30
0.0
 10
257.978000
 20
288.683257
 30
0.0
 10
257.990000
 20
289.057157
 30
0.0
 10
258.010000
 20
289.336457
 30
0.0
 10
258.038000
 20
289.521057
 30
0.0
 10
258.078000
 20
289.647557
 30
0.0
 10
258.133000
 20
289.752357
 30
0.0
 10
258.204000
 20
289.835357
 30
0.0
 10
258.291000
 20
289.896557
 30
0.0
 10
258.412000
 20
289.940657
 30
0.0
 10
258.585000
 20
289.972157
 30
0.0
 10
258.811000
 20
289.991057
 30
0.0
 10
259.089000
 20
289.997357
 30
0.0
 10
259.241000
 20
289.997357
 30
0.0
 10
259.241000
 20
290.277157
 30
0.0
 10
255.578000
 20
290.277157
 30
0.0
 10
255.578000
 20
289.997357
 30
0.0
 10
255.895000
 20
289.991257
 30
0.0
 10
256.148000
 20
289.972957
 30
0.0
 10
256.338000
 20
289.942357
 30
0.0
 10
256.464000
 20
289.899657
 30
0.0
 10
256.551000
 20
289.839357
 30
0.0
 10
256.622000
 20
289.756157
 30
0.0
 10
256.678000
 20
289.650157
 30
0.0
 10
256.718000
 20
289.521157
 30
0.0
 10
256.746000
 20
289.334257
 30
0.0
 10
256.766000
 20
289.054157
 30
0.0
 10
256.778000
 20
288.680957
 30
0.0
 10
256.782000
 20
288.214757
 30
0.0
 10
256.782000
 20
284.155057
 30
0.0
 10
256.778000
 20
283.683257
 30
0.0
 10
256.767000
 20
283.305757
 30
0.0
 10
256.749000
 20
283.022457
 30
0.0
 10
256.724000
 20
282.833357
 30
0.0
 10
256.686000
 20
282.700757
 30
0.0
 10
256.629000
 20
282.586857
 30
0.0
 10
256.554000
 20
282.491657
 30
0.0
 10
256.461000
 20
282.415157
 30
0.0
 10
256.338000
 20
282.356357
 30
0.0
 10
256.175000
 20
282.314457
 30
0.0
 10
255.970000
 20
282.289257
 30
0.0
 10
255.725000
 20
282.280857
 30
0.0
 10
255.469000
 20
282.280857
 30
0.0
 10
255.469000
 20
282.000057
 30
0.0
 10
259.184000
 20
282.000057
 30
0.0
  0
LWPOLYLINE
  5
15a
100
AcDbEntity
  8
0
 62
7
100
AcDbPolyline
 90
99
 70
1
 10
239.148000
 20
279.068457
 30
0.0
 10
239.528000
 20
279.121157
 30
0.0
 10
239.883000
 20
279.208857
 30
0.0
 10
240.211000
 20
279.331757
 30
0.0
 10
240.511000
 20
279.487157
 30
0.0
 10
240.780000
 20
279.672857
 30
0.0
 10
241.017000
 20
279.888557
 30
0.0
 10
241.222000
 20
280.134457
 30
0.0
 10
241.393000
 20
280.397157
 30
0.0
 10
241.526000
 20
280.663257
 30
0.0
 10
241.623000
 20
280.932757
 30
0.0
 10
241.683000
 20
281.205857
 30
0.0
 10
241.719000
 20
281.511857
 30
0.0
 10
241.745000
 20
281.880357
 30
0.0
 10
241.760000
 20
282.311557
 30
0.0
 10
241.765000
 20
282.805157
 30
0.0
 10
241.765000
 20
288.213757
 30
0.0
 10
241.769000
 20
288.682257
 30
0.0
 10
241.781000
 20
289.056157
 30
0.0
 10
241.800000
 20
289.335457
 30
0.0
 10
241.826000
 20
289.520057
 30
0.0
 10
241.865000
 20
289.646557
 30
0.0
 10
241.920000
 20
289.751357
 30
0.0
 10
241.990000
 20
289.834357
 30
0.0
 10
242.077000
 20
289.895557
 30
0.0
 10
242.198000
 20
289.939657
 30
0.0
 10
242.372000
 20
289.971157
 30
0.0
 10
242.598000
 20
289.990057
 30
0.0
 10
242.877000
 20
289.996357
 30
0.0
 10
243.084000
 20
289.996357
 30
0.0
 10
243.084000
 20
290.277157
 30
0.0
 10
239.237000
 20
290.277157
 30
0.0
 10
239.237000
 20
289.996357
 30
0.0
 10
239.432000
 20
289.996357
 30
0.0
 10
239.719000
 20
289.989557
 30
0.0
 10
239.951000
 20
289.968857
 30
0.0
 10
240.127000
 20
289.934557
 30
0.0
 10
240.248000
 20
289.886457
 30
0.0
 10
240.333000
 20
289.820457
 30
0.0
 10
240.402000
 20
289.732357
 30
0.0
 10
240.455000
 20
289.622057
 30
0.0
 10
240.492000
 20
289.489657
 30
0.0
 10
240.517000
 20
289.302357
 30
0.0
 10
240.536000
 20
289.027257
 30
0.0
 10
240.546000
 20
288.664357
 30
0.0
 10
240.550000
 20
288.213757
 30
0.0
 10
240.550000
 20
282.805157
 30
0.0
 10
240.544000
 20
282.161357
 30
0.0
 10
240.526000
 20
281.615557
 30
0.0
 10
240.495000
 20
281.167857
 30
0.0
 10
240.452000
 20
280.818157
 30
0.0
 10
240.380000
 20
280.527457
 30
0.0
 10
240.260000
 20
280.256557
 30
0.0
 10
240.093000
 20
280.005557
 30
0.0
 10
239.878000
 20
279.774357
 30
0.0
 10
239.626000
 20
279.580757
 30
0.0
 10
239.346000
 20
279.442357
 30
0.0
 10
239.039000
 20
279.359357
 30
0.0
 10
238.705000
 20
279.331757
 30
0.0
 10
238.541000
 20
279.338557
 30
0.0
 10
238.390000
 20
279.359257
 30
0.0
 10
238.254000
 20
279.393557
 30
0.0
 10
238.131000
 20
279.441657
 30
0.0
 10
238.029000
 20
279.501957
 30
0.0
 10
237.957000
 20
279.572857
 30
0.0
 10
237.913000
 20
279.654457
 30
0.0
 10
237.898000
 20
279.746857
 30
0.0
 10
237.903000
 20
279.788057
 30
0.0
 10
237.915000
 20
279.838357
 30
0.0
 10
237.936000
 20
279.897957
 30
0.0
 10
237.966000
 20
279.966557
 30
0.0
 10
237.998000
 20
280.048257
 30
0.0
 10
238.020000
 20
280.128357
 30
0.0
 10
238.034000
 20
280.206857
 30
0.0
 10
238.039000
 20
280.283957
 30
0.0
 10
238.027000
 20
280.407157
 30
0.0
 10
237.994000
 20
280.520557
 30
0.0
 10
237.937000
 20
280.623957
 30
0.0
 10
237.859000
 20
280.717457
 30
0.0
 10
237.763000
 20
280.794957
 30
0.0
 10
237.657000
 20
280.850257
 30
0.0
 10
237.539000
 20
280.883457
 30
0.0
 10
237.411000
 20
280.894457
 30
0.0
 10
237.285000
 20
280.882257
 30
0.0
 10
237.169000
 20
280.845657
 30
0.0
 10
237.064000
 20
280.784557
 30
0.0
 10
236.969000
 20
280.699057
 30
0.0
 10
236.890000
 20
280.595657
 30
0.0
 10
236.834000
 20
280.480857
 30
0.0
 10
236.800000
 20
280.354557
 30
0.0
 10
236.789000
 20
280.216757
 30
0.0
 10
236.820000
 20
279.986957
 30
0.0
 10
236.915000
 20
279.773557
 30
0.0
 10
237.074000
 20
279.576557
 30
0.0
 10
237.296000
 20
279.395857
 30
0.0
 10
237.576000
 20
279.244957
 30
0.0
 10
237.911000
 20
279.137157
 30
0.0
 10
238.300000
 20
279.072457
 30
0.0
 10
238.743000
 20
279.050957
 30
0.0
  0
LWPOLYLINE
  5
15b
100
AcDbEntity
  8
0
 62
7
100
AcDbPolyline
 90
95
 70
1
 10
295.407000
 20
282.280857
 30
0.0
 10
295.136000
 20
282.313857
 30
0.0
 10
294.898000
 20
282.376257
 30
0.0
 10
294.691000
 20
282.467957
 30
0.0
 10
294.516000
 20
282.589157
 30
0.0
 10
294.373000
 20
282.730457
 30
0.0
 10
294.263000
 20
282.882857
 30
0.0
 10
294.184000
 20
283.046257
 30
0.0
 10
294.138000
 20
283.220857
 30
0.0
 10
294.111000
 20
283.440557
 30
0.0
 10
294.092000
 20
283.739757
 30
0.0
 10
294.081000
 20
284.118157
 30
0.0
 10
294.077000
 20
284.576057
 30
0.0
 10
294.077000
 20
289.422657
 30
0.0
 10
297.379000
 20
282.000057
 30
0.0
 10
297.666000
 20
282.000057
 30
0.0
 10
300.943000
 20
289.422657
 30
0.0
 10
300.943000
 20
284.154857
 30
0.0
 10
300.939000
 20
283.683057
 30
0.0
 10
300.928000
 20
283.305557
 30
0.0
 10
300.910000
 20
283.022357
 30
0.0
 10
300.885000
 20
282.833257
 30
0.0
 10
300.847000
 20
282.700757
 30
0.0
 10
300.790000
 20
282.586857
 30
0.0
 10
300.715000
 20
282.491657
 30
0.0
 10
300.622000
 20
282.415157
 30
0.0
 10
300.500000
 20
282.356357
 30
0.0
 10
300.338000
 20
282.314457
 30
0.0
 10
300.136000
 20
282.289257
 30
0.0
 10
299.893000
 20
282.280857
 30
0.0
 10
299.601000
 20
282.280857
 30
0.0
 10
299.601000
 20
282.000057
 30
0.0
 10
303.558000
 20
282.000057
 30
0.0
 10
303.558000
 20
282.280857
 30
0.0
 10
303.191000
 20
282.280857
 30
0.0
 10
302.933000
 20
282.290057
 30
0.0
 10
302.720000
 20
282.317457
 30
0.0
 10
302.553000
 20
282.363257
 30
0.0
 10
302.431000
 20
282.427357
 30
0.0
 10
302.341000
 20
282.510357
 30
0.0
 10
302.270000
 20
282.612757
 30
0.0
 10
302.218000
 20
282.734657
 30
0.0
 10
302.184000
 20
282.876057
 30
0.0
 10
302.162000
 20
283.069257
 30
0.0
 10
302.147000
 20
283.346757
 30
0.0
 10
302.138000
 20
283.708557
 30
0.0
 10
302.135000
 20
284.154757
 30
0.0
 10
302.135000
 20
288.214057
 30
0.0
 10
302.139000
 20
288.682457
 30
0.0
 10
302.151000
 20
289.056357
 30
0.0
 10
302.171000
 20
289.335657
 30
0.0
 10
302.199000
 20
289.520257
 30
0.0
 10
302.239000
 20
289.646757
 30
0.0
 10
302.294000
 20
289.751457
 30
0.0
 10
302.365000
 20
289.834457
 30
0.0
 10
302.452000
 20
289.895657
 30
0.0
 10
302.573000
 20
289.939757
 30
0.0
 10
302.746000
 20
289.971157
 30
0.0
 10
302.972000
 20
289.990057
 30
0.0
 10
303.250000
 20
289.996357
 30
0.0
 10
303.555000
 20
289.996357
 30
0.0
 10
303.555000
 20
290.277157
 30
0.0
 10
301.016000
 20
290.277157
 30
0.0
 10
298.001000
 20
283.427557
 30
0.0
 10
294.968000
 20
290.277157
 30
0.0
 10
292.447000
 20
290.277157
 30
0.0
 10
292.447000
 20
289.996357
 30
0.0
 10
292.672000
 20
289.996357
 30
0.0
 10
292.959000
 20
289.989557
 30
0.0
 10
293.190000
 20
289.968857
 30
0.0
 10
293.366000
 20
289.934557
 30
0.0
 10
293.487000
 20
289.886457
 30
0.0
 10
293.572000
 20
289.820557
 30
0.0
 10
293.641000
 20
289.732357
 30
0.0
 10
293.694000
 20
289.622157
 30
0.0
 10
293.731000
 20
289.489757
 30
0.0
 10
293.756000
 20
289.302457
 30
0.0
 10
293.774000
 20
289.027457
 30
0.0
 10
293.785000
 20
288.664557
 30
0.0
 10
293.789000
 20
288.214057
 30
0.0
 10
293.789000
 20
284.612657
 30
0.0
 10
293.784000
 20
284.140357
 30
0.0
 10
293.770000
 20
283.748857
 30
0.0
 10
293.748000
 20
283.438357
 30
0.0
 10
293.716000
 20
283.208657
 30
0.0
 10
293.663000
 20
283.026857
 30
0.0
 10
293.578000
 20
282.859957
 30
0.0
 10
293.460000
 20
282.707957
 30
0.0
 10
293.310000
 20
282.570757
 30
0.0
 10
293.131000
 20
282.455357
 30
0.0
 10
292.928000
 20
282.368557
 30
0.0
 10
292.700000
 20
282.310457
 30
0.0
 10
292.447000
 20
282.280857
 30
0.0
 10
292.447000
 20
282.000057
 30
0.0
 10
295.407000
 20
282.000057
 30
0.0
  0
LWPOLYLINE
  5
15c
100
AcDbEntity
  8
0
 62
7
100
AcDbPolyline
 90
99
 70
1
 10
149.521000
 20
284.577657
 30
0.0
 10
149.228000
 20
284.577657
 30
0.0
 10
149.108000
 20
284.144157
 30
0.0
 10
148.968000
 20
283.759857
 30
0.0
 10
148.807000
 20
283.424857
 30
0.0
 10
148.627000
 20
283.139057
 30
0.0
 10
148.434000
 20
282.900057
 30
0.0
 10
148.236000
 20
282.705357
 30
0.0
 10
148.033000
 20
282.554957
 30
0.0
 10
147.825000
 20
282.448757
 30
0.0
 10
147.600000
 20
282.375357
 30
0.0
 10
147.346000
 20
282.322857
 30
0.0
 10
147.063000
 20
282.291357
 30
0.0
 10
146.751000
 20
282.280857
 30
0.0
 10
146.135000
 20
282.280857
 30
0.0
 10
145.761000
 20
282.297057
 30
0.0
 10
145.466000
 20
282.345657
 30
0.0
 10
145.251000
 20
282.426757
 30
0.0
 10
145.117000
 20
282.540157
 30
0.0
 10
145.034000
 20
282.745457
 30
0.0
 10
144.975000
 20
283.102157
 30
0.0
 10
144.939000
 20
283.610157
 30
0.0
 10
144.928000
 20
284.269557
 30
0.0
 10
144.928000
 20
286.227857
 30
0.0
 10
145.836000
 20
286.227857
 30
0.0
 10
146.082000
 20
286.223557
 30
0.0
 10
146.290000
 20
286.210357
 30
0.0
 10
146.459000
 20
286.188557
 30
0.0
 10
146.589000
 20
286.157857
 30
0.0
 10
146.694000
 20
286.112657
 30
0.0
 10
146.785000
 20
286.046857
 30
0.0
 10
146.863000
 20
285.960557
 30
0.0
 10
146.928000
 20
285.853657
 30
0.0
 10
146.979000
 20
285.708257
 30
0.0
 10
147.015000
 20
285.506157
 30
0.0
 10
147.036000
 20
285.247357
 30
0.0
 10
147.044000
 20
284.931857
 30
0.0
 10
147.330000
 20
284.931857
 30
0.0
 10
147.330000
 20
287.765857
 30
0.0
 10
147.044000
 20
287.765857
 30
0.0
 10
147.039000
 20
287.484457
 30
0.0
 10
147.025000
 20
287.253257
 30
0.0
 10
147.001000
 20
287.072257
 30
0.0
 10
146.968000
 20
286.941457
 30
0.0
 10
146.919000
 20
286.842457
 30
0.0
 10
146.850000
 20
286.756757
 30
0.0
 10
146.761000
 20
286.684557
 30
0.0
 10
146.650000
 20
286.625757
 30
0.0
 10
146.507000
 20
286.580257
 30
0.0
 10
146.319000
 20
286.547657
 30
0.0
 10
146.085000
 20
286.528157
 30
0.0
 10
145.806000
 20
286.521657
 30
0.0
 10
144.928000
 20
286.521657
 30
0.0
 10
144.928000
 20
289.997357
 30
0.0
 10
146.074000
 20
289.997357
 30
0.0
 10
146.478000
 20
289.991457
 30
0.0
 10
146.821000
 20
289.973757
 30
0.0
 10
147.106000
 20
289.944257
 30
0.0
 10
147.330000
 20
289.902857
 30
0.0
 10
147.519000
 20
289.838857
 30
0.0
 10
147.694000
 20
289.741257
 30
0.0
 10
147.856000
 20
289.610157
 30
0.0
 10
148.004000
 20
289.445557
 30
0.0
 10
148.141000
 20
289.232757
 30
0.0
 10
148.266000
 20
288.957057
 30
0.0
 10
148.380000
 20
288.618457
 30
0.0
 10
148.483000
 20
288.217057
 30
0.0
 10
148.770000
 20
288.217057
 30
0.0
 10
148.575000
 20
290.277157
 30
0.0
 10
142.662000
 20
290.277157
 30
0.0
 10
142.662000
 20
289.997357
 30
0.0
 10
142.935000
 20
289.989957
 30
0.0
 10
143.157000
 20
289.967557
 30
0.0
 10
143.327000
 20
289.930357
 30
0.0
 10
143.446000
 20
289.878257
 30
0.0
 10
143.530000
 20
289.807457
 30
0.0
 10
143.598000
 20
289.714157
 30
0.0
 10
143.649000
 20
289.598357
 30
0.0
 10
143.683000
 20
289.460057
 30
0.0
 10
143.706000
 20
289.270057
 30
0.0
 10
143.722000
 20
288.999157
 30
0.0
 10
143.732000
 20
288.647457
 30
0.0
 10
143.735000
 20
288.214757
 30
0.0
 10
143.735000
 20
284.155057
 30
0.0
 10
143.732000
 20
283.685157
 30
0.0
 10
143.723000
 20
283.313357
 30
0.0
 10
143.708000
 20
283.039557
 30
0.0
 10
143.687000
 20
282.863857
 30
0.0
 10
143.654000
 20
282.742757
 30
0.0
 10
143.605000
 20
282.632657
 30
0.0
 10
143.540000
 20
282.533657
 30
0.0
 10
143.458000
 20
282.445657
 30
0.0
 10
143.341000
 20
282.373557
 30
0.0
 10
143.169000
 20
282.322057
 30
0.0
 10
142.943000
 20
282.291157
 30
0.0
 10
142.662000
 20
282.280857
 30
0.0
 10
142.491000
 20
282.280857
 30
0.0
 10
142.491000
 20
282.000057
 30
0.0
 10
149.344000
 20
282.000057
 30
0.0
  0
ENDSEC
  0
SECTION
  2
OBJECTS
  0
DICTIONARY
  5
C
330
0
100
AcDbDictionary
  3
ACAD_GROUP
350
D
  3
ACAD_MLINESTYLE
350
17
  0
DICTIONARY
  5
D
330
C
100
AcDbDictionary
  0
DICTIONARY
  5
1A
330
C
100
AcDbDictionary
  0
DICTIONARY
  5
17
330
C
100
AcDbDictionary
  3
STANDARD
350
18
  0
DICTIONARY
  5
19
330
C
100
AcDbDictionary
  0
ENDSEC
  0
EOF
