  0
SECTION
  2
BLOCKS
  0
ENDSEC
  0
SECTION
  2
ENTITIES
  0
LINE
  8
0
 10
-52.235
 20
182.325
 11
-47.765
 21
182.325
  0
LINE
  8
0
 10
-47.765
 20
182.325
 11
-47.765
 21
178.825
  0
LINE
  8
0
 10
-47.765
 20
178.825
 11
-42.235
 21
178.825
  0
LINE
  8
0
 10
-42.235
 20
178.825
 11
-42.235
 21
182.325
  0
LINE
  8
0
 10
-42.235
 20
182.325
 11
-37.765
 21
182.325
  0
LINE
  8
0
 10
-37.765
 20
182.325
 11
-37.765
 21
178.825
  0
LINE
  8
0
 10
-37.765
 20
178.825
 11
-32.235
 21
178.825
  0
LINE
  8
0
 10
-32.235
 20
178.825
 11
-32.235
 21
182.325
  0
LINE
  8
0
 10
-32.235
 20
182.325
 11
-27.765
 21
182.325
  0
LINE
  8
0
 10
-27.765
 20
182.325
 11
-27.765
 21
178.825
  0
LINE
  8
0
 10
-27.765
 20
178.825
 11
-22.235
 21
178.825
  0
LINE
  8
0
 10
-22.235
 20
178.825
 11
-22.235
 21
182.325
  0
LINE
  8
0
 10
-22.235
 20
182.325
 11
-17.765
 21
182.325
  0
LINE
  8
0
 10
-17.765
 20
182.325
 11
-17.765
 21
178.825
  0
LINE
  8
0
 10
-17.765
 20
178.825
 11
-12.235
 21
178.825
  0
LINE
  8
0
 10
-12.235
 20
178.825
 11
-12.235
 21
182.325
  0
LINE
  8
0
 10
-12.235
 20
182.325
 11
-7.765
 21
182.325
  0
LINE
  8
0
 10
-7.765
 20
182.325
 11
-7.765
 21
178.825
  0
LINE
  8
0
 10
-7.765
 20
178.825
 11
-2.235
 21
178.825
  0
LINE
  8
0
 10
-2.235
 20
178.825
 11
-2.235
 21
182.325
  0
LINE
  8
0
 10
-2.235
 20
182.325
 11
2.23499
 21
182.325
  0
LINE
  8
0
 10
2.23499
 20
182.325
 11
2.23499
 21
178.825
  0
LINE
  8
0
 10
2.23499
 20
178.825
 11
7.76498
 21
178.825
  0
LINE
  8
0
 10
7.76498
 20
178.825
 11
7.76498
 21
182.325
  0
LINE
  8
0
 10
7.76498
 20
182.325
 11
12.235
 21
182.325
  0
LINE
  8
0
 10
12.235
 20
182.325
 11
12.235
 21
178.825
  0
LINE
  8
0
 10
12.235
 20
178.825
 11
17.765
 21
178.825
  0
LINE
  8
0
 10
17.765
 20
178.825
 11
17.765
 21
182.325
  0
LINE
  8
0
 10
17.765
 20
182.325
 11
22.235
 21
182.325
  0
LINE
  8
0
 10
22.235
 20
182.325
 11
22.235
 21
178.825
  0
LINE
  8
0
 10
22.235
 20
178.825
 11
27.765
 21
178.825
  0
LINE
  8
0
 10
27.765
 20
178.825
 11
27.765
 21
182.325
  0
LINE
  8
0
 10
27.765
 20
182.325
 11
32.235
 21
182.325
  0
LINE
  8
0
 10
32.235
 20
182.325
 11
32.235
 21
178.825
  0
LINE
  8
0
 10
32.235
 20
178.825
 11
37.765
 21
178.825
  0
LINE
  8
0
 10
37.765
 20
178.825
 11
37.765
 21
182.325
  0
LINE
  8
0
 10
37.765
 20
182.325
 11
42.235
 21
182.325
  0
LINE
  8
0
 10
42.235
 20
182.325
 11
42.235
 21
178.825
  0
LINE
  8
0
 10
42.235
 20
178.825
 11
47.765
 21
178.825
  0
LINE
  8
0
 10
47.765
 20
178.825
 11
47.765
 21
182.325
  0
LINE
  8
0
 10
47.765
 20
182.325
 11
52.235
 21
182.325
  0
LINE
  8
0
 10
52.235
 20
182.325
 11
52.235
 21
178.825
  0
LINE
  8
0
 10
52.235
 20
178.825
 11
57.765
 21
178.825
  0
LINE
  8
0
 10
57.765
 20
178.825
 11
57.765
 21
186.223
  0
LINE
  8
0
 10
57.765
 20
186.223
 11
54.265
 21
186.223
  0
LINE
  8
0
 10
54.265
 20
186.223
 11
54.265
 21
190.692
  0
LINE
  8
0
 10
54.265
 20
190.692
 11
57.765
 21
190.692
  0
LINE
  8
0
 10
57.765
 20
190.692
 11
57.765
 21
197.34
  0
LINE
  8
0
 10
57.765
 20
197.34
 11
39.51
 21
197.34
  0
LINE
  8
0
 10
39.51
 20
197.34
 11
39.51
 21
197.84
  0
LINE
  8
0
 10
39.51
 20
197.84
 11
57.765
 21
197.84
  0
LINE
  8
0
 10
57.765
 20
197.84
 11
57.765
 21
201.34
  0
LINE
  8
0
 10
57.765
 20
201.34
 11
39.51
 21
201.34
  0
LINE
  8
0
 10
39.51
 20
201.34
 11
39.51
 21
201.84
  0
LINE
  8
0
 10
39.51
 20
201.84
 11
57.765
 21
201.84
  0
LINE
  8
0
 10
57.765
 20
201.84
 11
57.765
 21
205.34
  0
LINE
  8
0
 10
57.765
 20
205.34
 11
39.51
 21
205.34
  0
LINE
  8
0
 10
39.51
 20
205.34
 11
39.51
 21
205.84
  0
LINE
  8
0
 10
39.51
 20
205.84
 11
57.765
 21
205.84
  0
LINE
  8
0
 10
57.765
 20
205.84
 11
57.765
 21
209.34
  0
LINE
  8
0
 10
57.765
 20
209.34
 11
39.51
 21
209.34
  0
LINE
  8
0
 10
39.51
 20
209.34
 11
39.51
 21
209.84
  0
LINE
  8
0
 10
39.51
 20
209.84
 11
57.765
 21
209.84
  0
LINE
  8
0
 10
57.765
 20
209.84
 11
57.765
 21
213.34
  0
LINE
  8
0
 10
57.765
 20
213.34
 11
39.51
 21
213.34
  0
LINE
  8
0
 10
39.51
 20
213.34
 11
39.51
 21
213.84
  0
LINE
  8
0
 10
39.51
 20
213.84
 11
57.765
 21
213.84
  0
LINE
  8
0
 10
57.765
 20
213.84
 11
57.765
 21
217.34
  0
LINE
  8
0
 10
57.765
 20
217.34
 11
39.51
 21
217.34
  0
LINE
  8
0
 10
39.51
 20
217.34
 11
39.51
 21
217.84
  0
LINE
  8
0
 10
39.51
 20
217.84
 11
57.765
 21
217.84
  0
LINE
  8
0
 10
57.765
 20
217.84
 11
57.765
 21
221.34
  0
LINE
  8
0
 10
57.765
 20
221.34
 11
39.51
 21
221.34
  0
LINE
  8
0
 10
39.51
 20
221.34
 11
39.51
 21
221.84
  0
LINE
  8
0
 10
39.51
 20
221.84
 11
57.765
 21
221.84
  0
LINE
  8
0
 10
57.765
 20
221.84
 11
57.765
 21
225.34
  0
LINE
  8
0
 10
57.765
 20
225.34
 11
39.51
 21
225.34
  0
LINE
  8
0
 10
39.51
 20
225.34
 11
39.51
 21
225.84
  0
LINE
  8
0
 10
39.51
 20
225.84
 11
57.765
 21
225.84
  0
LINE
  8
0
 10
57.765
 20
225.84
 11
57.765
 21
232.488
  0
LINE
  8
0
 10
57.765
 20
232.488
 11
54.265
 21
232.488
  0
LINE
  8
0
 10
54.265
 20
232.488
 11
54.265
 21
236.957
  0
LINE
  8
0
 10
54.265
 20
236.957
 11
57.765
 21
236.957
  0
LINE
  8
0
 10
57.765
 20
236.957
 11
57.765
 21
240.855
  0
LINE
  8
0
 10
57.765
 20
240.855
 11
52.765
 21
240.855
  0
LINE
  8
0
 10
52.765
 20
240.855
 11
52.765
 21
244.355
  0
LINE
  8
0
 10
52.765
 20
244.355
 11
47.235
 21
244.355
  0
LINE
  8
0
 10
47.235
 20
244.355
 11
47.235
 21
240.855
  0
LINE
  8
0
 10
47.235
 20
240.855
 11
42.765
 21
240.855
  0
LINE
  8
0
 10
42.765
 20
240.855
 11
42.765
 21
244.355
  0
LINE
  8
0
 10
42.765
 20
244.355
 11
37.235
 21
244.355
  0
LINE
  8
0
 10
37.235
 20
244.355
 11
37.235
 21
240.855
  0
LINE
  8
0
 10
37.235
 20
240.855
 11
32.765
 21
240.855
  0
LINE
  8
0
 10
32.765
 20
240.855
 11
32.765
 21
244.355
  0
LINE
  8
0
 10
32.765
 20
244.355
 11
27.235
 21
244.355
  0
LINE
  8
0
 10
27.235
 20
244.355
 11
27.235
 21
240.855
  0
LINE
  8
0
 10
27.235
 20
240.855
 11
22.765
 21
240.855
  0
LINE
  8
0
 10
22.765
 20
240.855
 11
22.765
 21
244.355
  0
LINE
  8
0
 10
22.765
 20
244.355
 11
17.235
 21
244.355
  0
LINE
  8
0
 10
17.235
 20
244.355
 11
17.235
 21
240.855
  0
LINE
  8
0
 10
17.235
 20
240.855
 11
12.765
 21
240.855
  0
LINE
  8
0
 10
12.765
 20
240.855
 11
12.765
 21
244.355
  0
LINE
  8
0
 10
12.765
 20
244.355
 11
7.23497
 21
244.355
  0
LINE
  8
0
 10
7.23497
 20
244.355
 11
7.23497
 21
240.855
  0
LINE
  8
0
 10
7.23497
 20
240.855
 11
2.76498
 21
240.855
  0
LINE
  8
0
 10
2.76498
 20
240.855
 11
2.76498
 21
244.355
  0
LINE
  8
0
 10
2.76498
 20
244.355
 11
-2.76501
 21
244.355
  0
LINE
  8
0
 10
-2.76501
 20
244.355
 11
-2.76501
 21
240.855
  0
LINE
  8
0
 10
-2.76501
 20
240.855
 11
-7.235
 21
240.855
  0
LINE
  8
0
 10
-7.235
 20
240.855
 11
-7.235
 21
244.355
  0
LINE
  8
0
 10
-7.235
 20
244.355
 11
-12.765
 21
244.355
  0
LINE
  8
0
 10
-12.765
 20
244.355
 11
-12.765
 21
240.855
  0
LINE
  8
0
 10
-12.765
 20
240.855
 11
-17.235
 21
240.855
  0
LINE
  8
0
 10
-17.235
 20
240.855
 11
-17.235
 21
244.355
  0
LINE
  8
0
 10
-17.235
 20
244.355
 11
-22.765
 21
244.355
  0
LINE
  8
0
 10
-22.765
 20
244.355
 11
-22.765
 21
240.855
  0
LINE
  8
0
 10
-22.765
 20
240.855
 11
-27.235
 21
240.855
  0
LINE
  8
0
 10
-27.235
 20
240.855
 11
-27.235
 21
244.355
  0
LINE
  8
0
 10
-27.235
 20
244.355
 11
-32.765
 21
244.355
  0
LINE
  8
0
 10
-32.765
 20
244.355
 11
-32.765
 21
240.855
  0
LINE
  8
0
 10
-32.765
 20
240.855
 11
-37.235
 21
240.855
  0
LINE
  8
0
 10
-37.235
 20
240.855
 11
-37.235
 21
244.355
  0
LINE
  8
0
 10
-37.235
 20
244.355
 11
-42.765
 21
244.355
  0
LINE
  8
0
 10
-42.765
 20
244.355
 11
-42.765
 21
240.855
  0
LINE
  8
0
 10
-42.765
 20
240.855
 11
-47.235
 21
240.855
  0
LINE
  8
0
 10
-47.235
 20
240.855
 11
-47.235
 21
244.355
  0
LINE
  8
0
 10
-47.235
 20
244.355
 11
-52.765
 21
244.355
  0
LINE
  8
0
 10
-52.765
 20
244.355
 11
-52.765
 21
240.855
  0
LINE
  8
0
 10
-52.765
 20
240.855
 11
-57.235
 21
240.855
  0
LINE
  8
0
 10
-57.235
 20
240.855
 11
-57.235
 21
244.355
  0
LINE
  8
0
 10
-57.235
 20
244.355
 11
-57.765
 21
244.355
  0
LINE
  8
0
 10
-57.765
 20
244.355
 11
-57.765
 21
236.957
  0
LINE
  8
0
 10
-57.765
 20
236.957
 11
-54.265
 21
236.957
  0
LINE
  8
0
 10
-54.265
 20
236.957
 11
-54.265
 21
232.487
  0
LINE
  8
0
 10
-54.265
 20
232.487
 11
-57.765
 21
232.487
  0
LINE
  8
0
 10
-57.765
 20
232.487
 11
-57.765
 21
227.84
  0
LINE
  8
0
 10
-57.765
 20
227.84
 11
-20.5883
 21
227.84
  0
LINE
  8
0
 10
-20.5883
 20
227.84
 11
-20.5883
 21
227.34
  0
LINE
  8
0
 10
-20.5883
 20
227.34
 11
-57.765
 21
227.34
  0
LINE
  8
0
 10
-57.765
 20
227.34
 11
-57.765
 21
225.84
  0
LINE
  8
0
 10
-57.765
 20
225.84
 11
-39.51
 21
225.84
  0
LINE
  8
0
 10
-39.51
 20
225.84
 11
-39.51
 21
225.34
  0
LINE
  8
0
 10
-39.51
 20
225.34
 11
-57.765
 21
225.34
  0
LINE
  8
0
 10
-57.765
 20
225.34
 11
-57.765
 21
223.84
  0
LINE
  8
0
 10
-57.765
 20
223.84
 11
-20.5883
 21
223.84
  0
LINE
  8
0
 10
-20.5883
 20
223.84
 11
-20.5883
 21
223.34
  0
LINE
  8
0
 10
-20.5883
 20
223.34
 11
-57.765
 21
223.34
  0
LINE
  8
0
 10
-57.765
 20
223.34
 11
-57.765
 21
221.84
  0
LINE
  8
0
 10
-57.765
 20
221.84
 11
-39.51
 21
221.84
  0
LINE
  8
0
 10
-39.51
 20
221.84
 11
-39.51
 21
221.34
  0
LINE
  8
0
 10
-39.51
 20
221.34
 11
-57.765
 21
221.34
  0
LINE
  8
0
 10
-57.765
 20
221.34
 11
-57.765
 21
219.84
  0
LINE
  8
0
 10
-57.765
 20
219.84
 11
-20.5883
 21
219.84
  0
LINE
  8
0
 10
-20.5883
 20
219.84
 11
-20.5883
 21
219.34
  0
LINE
  8
0
 10
-20.5883
 20
219.34
 11
-57.765
 21
219.34
  0
LINE
  8
0
 10
-57.765
 20
219.34
 11
-57.765
 21
217.84
  0
LINE
  8
0
 10
-57.765
 20
217.84
 11
-39.51
 21
217.84
  0
LINE
  8
0
 10
-39.51
 20
217.84
 11
-39.51
 21
217.34
  0
LINE
  8
0
 10
-39.51
 20
217.34
 11
-57.765
 21
217.34
  0
LINE
  8
0
 10
-57.765
 20
217.34
 11
-57.765
 21
215.84
  0
LINE
  8
0
 10
-57.765
 20
215.84
 11
-20.5883
 21
215.84
  0
LINE
  8
0
 10
-20.5883
 20
215.84
 11
-20.5883
 21
215.34
  0
LINE
  8
0
 10
-20.5883
 20
215.34
 11
-57.765
 21
215.34
  0
LINE
  8
0
 10
-57.765
 20
215.34
 11
-57.765
 21
213.84
  0
LINE
  8
0
 10
-57.765
 20
213.84
 11
-39.51
 21
213.84
  0
LINE
  8
0
 10
-39.51
 20
213.84
 11
-39.51
 21
213.34
  0
LINE
  8
0
 10
-39.51
 20
213.34
 11
-57.765
 21
213.34
  0
LINE
  8
0
 10
-57.765
 20
213.34
 11
-57.765
 21
211.84
  0
LINE
  8
0
 10
-57.765
 20
211.84
 11
-20.5883
 21
211.84
  0
LINE
  8
0
 10
-20.5883
 20
211.84
 11
-20.5883
 21
211.34
  0
LINE
  8
0
 10
-20.5883
 20
211.34
 11
-57.765
 21
211.34
  0
LINE
  8
0
 10
-57.765
 20
211.34
 11
-57.765
 21
209.84
  0
LINE
  8
0
 10
-57.765
 20
209.84
 11
-39.51
 21
209.84
  0
LINE
  8
0
 10
-39.51
 20
209.84
 11
-39.51
 21
209.34
  0
LINE
  8
0
 10
-39.51
 20
209.34
 11
-57.765
 21
209.34
  0
LINE
  8
0
 10
-57.765
 20
209.34
 11
-57.765
 21
207.84
  0
LINE
  8
0
 10
-57.765
 20
207.84
 11
-20.5883
 21
207.84
  0
LINE
  8
0
 10
-20.5883
 20
207.84
 11
-20.5883
 21
207.34
  0
LINE
  8
0
 10
-20.5883
 20
207.34
 11
-57.765
 21
207.34
  0
LINE
  8
0
 10
-57.765
 20
207.34
 11
-57.765
 21
205.84
  0
LINE
  8
0
 10
-57.765
 20
205.84
 11
-39.51
 21
205.84
  0
LINE
  8
0
 10
-39.51
 20
205.84
 11
-39.51
 21
205.34
  0
LINE
  8
0
 10
-39.51
 20
205.34
 11
-57.765
 21
205.34
  0
LINE
  8
0
 10
-57.765
 20
205.34
 11
-57.765
 21
203.84
  0
LINE
  8
0
 10
-57.765
 20
203.84
 11
-20.5883
 21
203.84
  0
LINE
  8
0
 10
-20.5883
 20
203.84
 11
-20.5883
 21
203.34
  0
LINE
  8
0
 10
-20.5883
 20
203.34
 11
-57.765
 21
203.34
  0
LINE
  8
0
 10
-57.765
 20
203.34
 11
-57.765
 21
201.84
  0
LINE
  8
0
 10
-57.765
 20
201.84
 11
-39.51
 21
201.84
  0
LINE
  8
0
 10
-39.51
 20
201.84
 11
-39.51
 21
201.34
  0
LINE
  8
0
 10
-39.51
 20
201.34
 11
-57.765
 21
201.34
  0
LINE
  8
0
 10
-57.765
 20
201.34
 11
-57.765
 21
199.84
  0
LINE
  8
0
 10
-57.765
 20
199.84
 11
-20.5883
 21
199.84
  0
LINE
  8
0
 10
-20.5883
 20
199.84
 11
-20.5883
 21
199.34
  0
LINE
  8
0
 10
-20.5883
 20
199.34
 11
-57.765
 21
199.34
  0
LINE
  8
0
 10
-57.765
 20
199.34
 11
-57.765
 21
197.84
  0
LINE
  8
0
 10
-57.765
 20
197.84
 11
-39.51
 21
197.84
  0
LINE
  8
0
 10
-39.51
 20
197.84
 11
-39.51
 21
197.34
  0
LINE
  8
0
 10
-39.51
 20
197.34
 11
-57.765
 21
197.34
  0
LINE
  8
0
 10
-57.765
 20
197.34
 11
-57.765
 21
195.84
  0
LINE
  8
0
 10
-57.765
 20
195.84
 11
-20.5883
 21
195.84
  0
LINE
  8
0
 10
-20.5883
 20
195.84
 11
-20.5883
 21
195.34
  0
LINE
  8
0
 10
-20.5883
 20
195.34
 11
-57.765
 21
195.34
  0
LINE
  8
0
 10
-57.765
 20
195.34
 11
-57.765
 21
190.693
  0
LINE
  8
0
 10
-57.765
 20
190.693
 11
-54.265
 21
190.693
  0
LINE
  8
0
 10
-54.265
 20
190.693
 11
-54.265
 21
186.223
  0
LINE
  8
0
 10
-54.265
 20
186.223
 11
-57.765
 21
186.223
  0
LINE
  8
0
 10
-57.765
 20
186.223
 11
-57.765
 21
178.825
  0
LINE
  8
0
 10
-57.765
 20
178.825
 11
-52.235
 21
178.825
  0
LINE
  8
0
 10
-52.235
 20
178.825
 11
-52.235
 21
182.325
  0
LINE
  8
0
 10
20.5883
 20
227.34
 11
20.5883
 21
227.84
  0
LINE
  8
0
 10
20.5883
 20
227.84
 11
57.765
 21
227.84
  0
LINE
  8
0
 10
57.765
 20
227.84
 11
57.765
 21
227.34
  0
LINE
  8
0
 10
57.765
 20
227.34
 11
20.5883
 21
227.34
  0
LINE
  8
0
 10
-18.5883
 20
227.34
 11
-18.5883
 21
227.84
  0
LINE
  8
0
 10
-18.5883
 20
227.84
 11
18.5883
 21
227.84
  0
LINE
  8
0
 10
18.5883
 20
227.84
 11
18.5883
 21
227.34
  0
LINE
  8
0
 10
18.5883
 20
227.34
 11
-18.5883
 21
227.34
  0
LINE
  8
0
 10
-37.51
 20
225.34
 11
-37.51
 21
225.84
  0
LINE
  8
0
 10
-37.51
 20
225.84
 11
-1.00002
 21
225.84
  0
LINE
  8
0
 10
-1.00002
 20
225.84
 11
-1.00002
 21
225.34
  0
LINE
  8
0
 10
-1.00002
 20
225.34
 11
-37.51
 21
225.34
  0
LINE
  8
0
 10
0.999969
 20
225.34
 11
0.999969
 21
225.84
  0
LINE
  8
0
 10
0.999969
 20
225.84
 11
37.51
 21
225.84
  0
LINE
  8
0
 10
37.51
 20
225.84
 11
37.51
 21
225.34
  0
LINE
  8
0
 10
37.51
 20
225.34
 11
0.999969
 21
225.34
  0
LINE
  8
0
 10
-18.5883
 20
223.34
 11
-18.5883
 21
223.84
  0
LINE
  8
0
 10
-18.5883
 20
223.84
 11
18.5883
 21
223.84
  0
LINE
  8
0
 10
18.5883
 20
223.84
 11
18.5883
 21
223.34
  0
LINE
  8
0
 10
18.5883
 20
223.34
 11
-18.5883
 21
223.34
  0
LINE
  8
0
 10
20.5883
 20
223.34
 11
20.5883
 21
223.84
  0
LINE
  8
0
 10
20.5883
 20
223.84
 11
57.765
 21
223.84
  0
LINE
  8
0
 10
57.765
 20
223.84
 11
57.765
 21
223.34
  0
LINE
  8
0
 10
57.765
 20
223.34
 11
20.5883
 21
223.34
  0
LINE
  8
0
 10
-37.51
 20
221.34
 11
-37.51
 21
221.84
  0
LINE
  8
0
 10
-37.51
 20
221.84
 11
-1.00002
 21
221.84
  0
LINE
  8
0
 10
-1.00002
 20
221.84
 11
-1.00002
 21
221.34
  0
LINE
  8
0
 10
-1.00002
 20
221.34
 11
-37.51
 21
221.34
  0
LINE
  8
0
 10
0.999969
 20
221.34
 11
0.999969
 21
221.84
  0
LINE
  8
0
 10
0.999969
 20
221.84
 11
37.51
 21
221.84
  0
LINE
  8
0
 10
37.51
 20
221.84
 11
37.51
 21
221.34
  0
LINE
  8
0
 10
37.51
 20
221.34
 11
0.999969
 21
221.34
  0
LINE
  8
0
 10
-18.5883
 20
219.34
 11
-18.5883
 21
219.84
  0
LINE
  8
0
 10
-18.5883
 20
219.84
 11
18.5883
 21
219.84
  0
LINE
  8
0
 10
18.5883
 20
219.84
 11
18.5883
 21
219.34
  0
LINE
  8
0
 10
18.5883
 20
219.34
 11
-18.5883
 21
219.34
  0
LINE
  8
0
 10
20.5883
 20
219.34
 11
20.5883
 21
219.84
  0
LINE
  8
0
 10
20.5883
 20
219.84
 11
57.765
 21
219.84
  0
LINE
  8
0
 10
57.765
 20
219.84
 11
57.765
 21
219.34
  0
LINE
  8
0
 10
57.765
 20
219.34
 11
20.5883
 21
219.34
  0
LINE
  8
0
 10
0.999969
 20
217.34
 11
0.999969
 21
217.84
  0
LINE
  8
0
 10
0.999969
 20
217.84
 11
37.51
 21
217.84
  0
LINE
  8
0
 10
37.51
 20
217.84
 11
37.51
 21
217.34
  0
LINE
  8
0
 10
37.51
 20
217.34
 11
0.999969
 21
217.34
  0
LINE
  8
0
 10
-37.51
 20
217.34
 11
-37.51
 21
217.84
  0
LINE
  8
0
 10
-37.51
 20
217.84
 11
-1.00002
 21
217.84
  0
LINE
  8
0
 10
-1.00002
 20
217.84
 11
-1.00002
 21
217.34
  0
LINE
  8
0
 10
-1.00002
 20
217.34
 11
-37.51
 21
217.34
  0
LINE
  8
0
 10
-18.5883
 20
215.34
 11
-18.5883
 21
215.84
  0
LINE
  8
0
 10
-18.5883
 20
215.84
 11
18.5883
 21
215.84
  0
LINE
  8
0
 10
18.5883
 20
215.84
 11
18.5883
 21
215.34
  0
LINE
  8
0
 10
18.5883
 20
215.34
 11
-18.5883
 21
215.34
  0
LINE
  8
0
 10
20.5883
 20
215.34
 11
20.5883
 21
215.84
  0
LINE
  8
0
 10
20.5883
 20
215.84
 11
57.765
 21
215.84
  0
LINE
  8
0
 10
57.765
 20
215.84
 11
57.765
 21
215.34
  0
LINE
  8
0
 10
57.765
 20
215.34
 11
20.5883
 21
215.34
  0
LINE
  8
0
 10
-37.51
 20
213.34
 11
-37.51
 21
213.84
  0
LINE
  8
0
 10
-37.51
 20
213.84
 11
-1.00002
 21
213.84
  0
LINE
  8
0
 10
-1.00002
 20
213.84
 11
-1.00002
 21
213.34
  0
LINE
  8
0
 10
-1.00002
 20
213.34
 11
-37.51
 21
213.34
  0
LINE
  8
0
 10
0.999969
 20
213.34
 11
0.999969
 21
213.84
  0
LINE
  8
0
 10
0.999969
 20
213.84
 11
37.51
 21
213.84
  0
LINE
  8
0
 10
37.51
 20
213.84
 11
37.51
 21
213.34
  0
LINE
  8
0
 10
37.51
 20
213.34
 11
0.999969
 21
213.34
  0
LINE
  8
0
 10
20.5883
 20
211.34
 11
20.5883
 21
211.84
  0
LINE
  8
0
 10
20.5883
 20
211.84
 11
57.765
 21
211.84
  0
LINE
  8
0
 10
57.765
 20
211.84
 11
57.765
 21
211.34
  0
LINE
  8
0
 10
57.765
 20
211.34
 11
20.5883
 21
211.34
  0
LINE
  8
0
 10
-18.5883
 20
211.34
 11
-18.5883
 21
211.84
  0
LINE
  8
0
 10
-18.5883
 20
211.84
 11
18.5883
 21
211.84
  0
LINE
  8
0
 10
18.5883
 20
211.84
 11
18.5883
 21
211.34
  0
LINE
  8
0
 10
18.5883
 20
211.34
 11
-18.5883
 21
211.34
  0
LINE
  8
0
 10
-37.51
 20
209.34
 11
-37.51
 21
209.84
  0
LINE
  8
0
 10
-37.51
 20
209.84
 11
-1.00002
 21
209.84
  0
LINE
  8
0
 10
-1.00002
 20
209.84
 11
-1.00002
 21
209.34
  0
LINE
  8
0
 10
-1.00002
 20
209.34
 11
-37.51
 21
209.34
  0
LINE
  8
0
 10
0.999969
 20
209.34
 11
0.999969
 21
209.84
  0
LINE
  8
0
 10
0.999969
 20
209.84
 11
37.51
 21
209.84
  0
LINE
  8
0
 10
37.51
 20
209.84
 11
37.51
 21
209.34
  0
LINE
  8
0
 10
37.51
 20
209.34
 11
0.999969
 21
209.34
  0
LINE
  8
0
 10
-18.5883
 20
207.34
 11
-18.5883
 21
207.84
  0
LINE
  8
0
 10
-18.5883
 20
207.84
 11
18.5883
 21
207.84
  0
LINE
  8
0
 10
18.5883
 20
207.84
 11
18.5883
 21
207.34
  0
LINE
  8
0
 10
18.5883
 20
207.34
 11
-18.5883
 21
207.34
  0
LINE
  8
0
 10
20.5883
 20
207.34
 11
20.5883
 21
207.84
  0
LINE
  8
0
 10
20.5883
 20
207.84
 11
57.765
 21
207.84
  0
LINE
  8
0
 10
57.765
 20
207.84
 11
57.765
 21
207.34
  0
LINE
  8
0
 10
57.765
 20
207.34
 11
20.5883
 21
207.34
  0
LINE
  8
0
 10
-37.51
 20
205.34
 11
-37.51
 21
205.84
  0
LINE
  8
0
 10
-37.51
 20
205.84
 11
-1.00002
 21
205.84
  0
LINE
  8
0
 10
-1.00002
 20
205.84
 11
-1.00002
 21
205.34
  0
LINE
  8
0
 10
-1.00002
 20
205.34
 11
-37.51
 21
205.34
  0
LINE
  8
0
 10
0.999969
 20
205.34
 11
0.999969
 21
205.84
  0
LINE
  8
0
 10
0.999969
 20
205.84
 11
37.51
 21
205.84
  0
LINE
  8
0
 10
37.51
 20
205.84
 11
37.51
 21
205.34
  0
LINE
  8
0
 10
37.51
 20
205.34
 11
0.999969
 21
205.34
  0
LINE
  8
0
 10
-18.5883
 20
203.34
 11
-18.5883
 21
203.84
  0
LINE
  8
0
 10
-18.5883
 20
203.84
 11
18.5883
 21
203.84
  0
LINE
  8
0
 10
18.5883
 20
203.84
 11
18.5883
 21
203.34
  0
LINE
  8
0
 10
18.5883
 20
203.34
 11
-18.5883
 21
203.34
  0
LINE
  8
0
 10
20.5883
 20
203.34
 11
20.5883
 21
203.84
  0
LINE
  8
0
 10
20.5883
 20
203.84
 11
57.765
 21
203.84
  0
LINE
  8
0
 10
57.765
 20
203.84
 11
57.765
 21
203.34
  0
LINE
  8
0
 10
57.765
 20
203.34
 11
20.5883
 21
203.34
  0
LINE
  8
0
 10
-37.51
 20
201.34
 11
-37.51
 21
201.84
  0
LINE
  8
0
 10
-37.51
 20
201.84
 11
-1.00002
 21
201.84
  0
LINE
  8
0
 10
-1.00002
 20
201.84
 11
-1.00002
 21
201.34
  0
LINE
  8
0
 10
-1.00002
 20
201.34
 11
-37.51
 21
201.34
  0
LINE
  8
0
 10
0.999969
 20
201.34
 11
0.999969
 21
201.84
  0
LINE
  8
0
 10
0.999969
 20
201.84
 11
37.51
 21
201.84
  0
LINE
  8
0
 10
37.51
 20
201.84
 11
37.51
 21
201.34
  0
LINE
  8
0
 10
37.51
 20
201.34
 11
0.999969
 21
201.34
  0
LINE
  8
0
 10
-18.5883
 20
199.34
 11
-18.5883
 21
199.84
  0
LINE
  8
0
 10
-18.5883
 20
199.84
 11
18.5883
 21
199.84
  0
LINE
  8
0
 10
18.5883
 20
199.84
 11
18.5883
 21
199.34
  0
LINE
  8
0
 10
18.5883
 20
199.34
 11
-18.5883
 21
199.34
  0
LINE
  8
0
 10
20.5883
 20
199.34
 11
20.5883
 21
199.84
  0
LINE
  8
0
 10
20.5883
 20
199.84
 11
57.765
 21
199.84
  0
LINE
  8
0
 10
57.765
 20
199.84
 11
57.765
 21
199.34
  0
LINE
  8
0
 10
57.765
 20
199.34
 11
20.5883
 21
199.34
  0
LINE
  8
0
 10
0.999969
 20
197.34
 11
0.999969
 21
197.84
  0
LINE
  8
0
 10
0.999969
 20
197.84
 11
37.51
 21
197.84
  0
LINE
  8
0
 10
37.51
 20
197.84
 11
37.51
 21
197.34
  0
LINE
  8
0
 10
37.51
 20
197.34
 11
0.999969
 21
197.34
  0
LINE
  8
0
 10
-37.51
 20
197.34
 11
-37.51
 21
197.84
  0
LINE
  8
0
 10
-37.51
 20
197.84
 11
-1.00002
 21
197.84
  0
LINE
  8
0
 10
-1.00002
 20
197.84
 11
-1.00002
 21
197.34
  0
LINE
  8
0
 10
-1.00002
 20
197.34
 11
-37.51
 21
197.34
  0
LINE
  8
0
 10
20.5883
 20
195.34
 11
20.5883
 21
195.84
  0
LINE
  8
0
 10
20.5883
 20
195.84
 11
57.765
 21
195.84
  0
LINE
  8
0
 10
57.765
 20
195.84
 11
57.765
 21
195.34
  0
LINE
  8
0
 10
57.765
 20
195.34
 11
20.5883
 21
195.34
  0
LINE
  8
0
 10
-18.5883
 20
195.34
 11
-18.5883
 21
195.84
  0
LINE
  8
0
 10
-18.5883
 20
195.84
 11
18.5883
 21
195.84
  0
LINE
  8
0
 10
18.5883
 20
195.84
 11
18.5883
 21
195.34
  0
LINE
  8
0
 10
18.5883
 20
195.34
 11
-18.5883
 21
195.34
  0
LINE
  8
0
 10
-52.235
 20
111.795
 11
-47.765
 21
111.795
  0
LINE
  8
0
 10
-47.765
 20
111.795
 11
-47.765
 21
108.295
  0
LINE
  8
0
 10
-47.765
 20
108.295
 11
-42.235
 21
108.295
  0
LINE
  8
0
 10
-42.235
 20
108.295
 11
-42.235
 21
111.795
  0
LINE
  8
0
 10
-42.235
 20
111.795
 11
-37.765
 21
111.795
  0
LINE
  8
0
 10
-37.765
 20
111.795
 11
-37.765
 21
108.295
  0
LINE
  8
0
 10
-37.765
 20
108.295
 11
-32.235
 21
108.295
  0
LINE
  8
0
 10
-32.235
 20
108.295
 11
-32.235
 21
111.795
  0
LINE
  8
0
 10
-32.235
 20
111.795
 11
-27.765
 21
111.795
  0
LINE
  8
0
 10
-27.765
 20
111.795
 11
-27.765
 21
108.295
  0
LINE
  8
0
 10
-27.765
 20
108.295
 11
-22.235
 21
108.295
  0
LINE
  8
0
 10
-22.235
 20
108.295
 11
-22.235
 21
111.795
  0
LINE
  8
0
 10
-22.235
 20
111.795
 11
-17.765
 21
111.795
  0
LINE
  8
0
 10
-17.765
 20
111.795
 11
-17.765
 21
108.295
  0
LINE
  8
0
 10
-17.765
 20
108.295
 11
-12.235
 21
108.295
  0
LINE
  8
0
 10
-12.235
 20
108.295
 11
-12.235
 21
111.795
  0
LINE
  8
0
 10
-12.235
 20
111.795
 11
-7.765
 21
111.795
  0
LINE
  8
0
 10
-7.765
 20
111.795
 11
-7.765
 21
108.295
  0
LINE
  8
0
 10
-7.765
 20
108.295
 11
-2.235
 21
108.295
  0
LINE
  8
0
 10
-2.235
 20
108.295
 11
-2.235
 21
111.795
  0
LINE
  8
0
 10
-2.235
 20
111.795
 11
2.23499
 21
111.795
  0
LINE
  8
0
 10
2.23499
 20
111.795
 11
2.23499
 21
108.295
  0
LINE
  8
0
 10
2.23499
 20
108.295
 11
7.76498
 21
108.295
  0
LINE
  8
0
 10
7.76498
 20
108.295
 11
7.76498
 21
111.795
  0
LINE
  8
0
 10
7.76498
 20
111.795
 11
12.235
 21
111.795
  0
LINE
  8
0
 10
12.235
 20
111.795
 11
12.235
 21
108.295
  0
LINE
  8
0
 10
12.235
 20
108.295
 11
17.765
 21
108.295
  0
LINE
  8
0
 10
17.765
 20
108.295
 11
17.765
 21
111.795
  0
LINE
  8
0
 10
17.765
 20
111.795
 11
22.235
 21
111.795
  0
LINE
  8
0
 10
22.235
 20
111.795
 11
22.235
 21
108.295
  0
LINE
  8
0
 10
22.235
 20
108.295
 11
27.765
 21
108.295
  0
LINE
  8
0
 10
27.765
 20
108.295
 11
27.765
 21
111.795
  0
LINE
  8
0
 10
27.765
 20
111.795
 11
32.235
 21
111.795
  0
LINE
  8
0
 10
32.235
 20
111.795
 11
32.235
 21
108.295
  0
LINE
  8
0
 10
32.235
 20
108.295
 11
37.765
 21
108.295
  0
LINE
  8
0
 10
37.765
 20
108.295
 11
37.765
 21
111.795
  0
LINE
  8
0
 10
37.765
 20
111.795
 11
42.235
 21
111.795
  0
LINE
  8
0
 10
42.235
 20
111.795
 11
42.235
 21
108.295
  0
LINE
  8
0
 10
42.235
 20
108.295
 11
47.765
 21
108.295
  0
LINE
  8
0
 10
47.765
 20
108.295
 11
47.765
 21
111.795
  0
LINE
  8
0
 10
47.765
 20
111.795
 11
52.235
 21
111.795
  0
LINE
  8
0
 10
52.235
 20
111.795
 11
52.235
 21
108.295
  0
LINE
  8
0
 10
52.235
 20
108.295
 11
57.765
 21
108.295
  0
LINE
  8
0
 10
57.765
 20
108.295
 11
57.765
 21
115.693
  0
LINE
  8
0
 10
57.765
 20
115.693
 11
54.265
 21
115.693
  0
LINE
  8
0
 10
54.265
 20
115.693
 11
54.265
 21
120.162
  0
LINE
  8
0
 10
54.265
 20
120.162
 11
57.765
 21
120.162
  0
LINE
  8
0
 10
57.765
 20
120.162
 11
57.765
 21
126.81
  0
LINE
  8
0
 10
57.765
 20
126.81
 11
39.51
 21
126.81
  0
LINE
  8
0
 10
39.51
 20
126.81
 11
39.51
 21
127.31
  0
LINE
  8
0
 10
39.51
 20
127.31
 11
57.765
 21
127.31
  0
LINE
  8
0
 10
57.765
 20
127.31
 11
57.765
 21
130.81
  0
LINE
  8
0
 10
57.765
 20
130.81
 11
39.51
 21
130.81
  0
LINE
  8
0
 10
39.51
 20
130.81
 11
39.51
 21
131.31
  0
LINE
  8
0
 10
39.51
 20
131.31
 11
57.765
 21
131.31
  0
LINE
  8
0
 10
57.765
 20
131.31
 11
57.765
 21
134.81
  0
LINE
  8
0
 10
57.765
 20
134.81
 11
39.51
 21
134.81
  0
LINE
  8
0
 10
39.51
 20
134.81
 11
39.51
 21
135.31
  0
LINE
  8
0
 10
39.51
 20
135.31
 11
57.765
 21
135.31
  0
LINE
  8
0
 10
57.765
 20
135.31
 11
57.765
 21
138.81
  0
LINE
  8
0
 10
57.765
 20
138.81
 11
39.51
 21
138.81
  0
LINE
  8
0
 10
39.51
 20
138.81
 11
39.51
 21
139.31
  0
LINE
  8
0
 10
39.51
 20
139.31
 11
57.765
 21
139.31
  0
LINE
  8
0
 10
57.765
 20
139.31
 11
57.765
 21
142.81
  0
LINE
  8
0
 10
57.765
 20
142.81
 11
39.51
 21
142.81
  0
LINE
  8
0
 10
39.51
 20
142.81
 11
39.51
 21
143.31
  0
LINE
  8
0
 10
39.51
 20
143.31
 11
57.765
 21
143.31
  0
LINE
  8
0
 10
57.765
 20
143.31
 11
57.765
 21
146.81
  0
LINE
  8
0
 10
57.765
 20
146.81
 11
39.51
 21
146.81
  0
LINE
  8
0
 10
39.51
 20
146.81
 11
39.51
 21
147.31
  0
LINE
  8
0
 10
39.51
 20
147.31
 11
57.765
 21
147.31
  0
LINE
  8
0
 10
57.765
 20
147.31
 11
57.765
 21
150.81
  0
LINE
  8
0
 10
57.765
 20
150.81
 11
39.51
 21
150.81
  0
LINE
  8
0
 10
39.51
 20
150.81
 11
39.51
 21
151.31
  0
LINE
  8
0
 10
39.51
 20
151.31
 11
57.765
 21
151.31
  0
LINE
  8
0
 10
57.765
 20
151.31
 11
57.765
 21
154.81
  0
LINE
  8
0
 10
57.765
 20
154.81
 11
39.51
 21
154.81
  0
LINE
  8
0
 10
39.51
 20
154.81
 11
39.51
 21
155.31
  0
LINE
  8
0
 10
39.51
 20
155.31
 11
57.765
 21
155.31
  0
LINE
  8
0
 10
57.765
 20
155.31
 11
57.765
 21
161.958
  0
LINE
  8
0
 10
57.765
 20
161.958
 11
54.265
 21
161.958
  0
LINE
  8
0
 10
54.265
 20
161.958
 11
54.265
 21
166.427
  0
LINE
  8
0
 10
54.265
 20
166.427
 11
57.765
 21
166.427
  0
LINE
  8
0
 10
57.765
 20
166.427
 11
57.765
 21
170.325
  0
LINE
  8
0
 10
57.765
 20
170.325
 11
52.765
 21
170.325
  0
LINE
  8
0
 10
52.765
 20
170.325
 11
52.765
 21
173.825
  0
LINE
  8
0
 10
52.765
 20
173.825
 11
47.235
 21
173.825
  0
LINE
  8
0
 10
47.235
 20
173.825
 11
47.235
 21
170.325
  0
LINE
  8
0
 10
47.235
 20
170.325
 11
42.765
 21
170.325
  0
LINE
  8
0
 10
42.765
 20
170.325
 11
42.765
 21
173.825
  0
LINE
  8
0
 10
42.765
 20
173.825
 11
37.235
 21
173.825
  0
LINE
  8
0
 10
37.235
 20
173.825
 11
37.235
 21
170.325
  0
LINE
  8
0
 10
37.235
 20
170.325
 11
32.765
 21
170.325
  0
LINE
  8
0
 10
32.765
 20
170.325
 11
32.765
 21
173.825
  0
LINE
  8
0
 10
32.765
 20
173.825
 11
27.235
 21
173.825
  0
LINE
  8
0
 10
27.235
 20
173.825
 11
27.235
 21
170.325
  0
LINE
  8
0
 10
27.235
 20
170.325
 11
22.765
 21
170.325
  0
LINE
  8
0
 10
22.765
 20
170.325
 11
22.765
 21
173.825
  0
LINE
  8
0
 10
22.765
 20
173.825
 11
17.235
 21
173.825
  0
LINE
  8
0
 10
17.235
 20
173.825
 11
17.235
 21
170.325
  0
LINE
  8
0
 10
17.235
 20
170.325
 11
12.765
 21
170.325
  0
LINE
  8
0
 10
12.765
 20
170.325
 11
12.765
 21
173.825
  0
LINE
  8
0
 10
12.765
 20
173.825
 11
7.23497
 21
173.825
  0
LINE
  8
0
 10
7.23497
 20
173.825
 11
7.23497
 21
170.325
  0
LINE
  8
0
 10
7.23497
 20
170.325
 11
2.76498
 21
170.325
  0
LINE
  8
0
 10
2.76498
 20
170.325
 11
2.76498
 21
173.825
  0
LINE
  8
0
 10
2.76498
 20
173.825
 11
-2.76501
 21
173.825
  0
LINE
  8
0
 10
-2.76501
 20
173.825
 11
-2.76501
 21
170.325
  0
LINE
  8
0
 10
-2.76501
 20
170.325
 11
-7.235
 21
170.325
  0
LINE
  8
0
 10
-7.235
 20
170.325
 11
-7.235
 21
173.825
  0
LINE
  8
0
 10
-7.235
 20
173.825
 11
-12.765
 21
173.825
  0
LINE
  8
0
 10
-12.765
 20
173.825
 11
-12.765
 21
170.325
  0
LINE
  8
0
 10
-12.765
 20
170.325
 11
-17.235
 21
170.325
  0
LINE
  8
0
 10
-17.235
 20
170.325
 11
-17.235
 21
173.825
  0
LINE
  8
0
 10
-17.235
 20
173.825
 11
-22.765
 21
173.825
  0
LINE
  8
0
 10
-22.765
 20
173.825
 11
-22.765
 21
170.325
  0
LINE
  8
0
 10
-22.765
 20
170.325
 11
-27.235
 21
170.325
  0
LINE
  8
0
 10
-27.235
 20
170.325
 11
-27.235
 21
173.825
  0
LINE
  8
0
 10
-27.235
 20
173.825
 11
-32.765
 21
173.825
  0
LINE
  8
0
 10
-32.765
 20
173.825
 11
-32.765
 21
170.325
  0
LINE
  8
0
 10
-32.765
 20
170.325
 11
-37.235
 21
170.325
  0
LINE
  8
0
 10
-37.235
 20
170.325
 11
-37.235
 21
173.825
  0
LINE
  8
0
 10
-37.235
 20
173.825
 11
-42.765
 21
173.825
  0
LINE
  8
0
 10
-42.765
 20
173.825
 11
-42.765
 21
170.325
  0
LINE
  8
0
 10
-42.765
 20
170.325
 11
-47.235
 21
170.325
  0
LINE
  8
0
 10
-47.235
 20
170.325
 11
-47.235
 21
173.825
  0
LINE
  8
0
 10
-47.235
 20
173.825
 11
-52.765
 21
173.825
  0
LINE
  8
0
 10
-52.765
 20
173.825
 11
-52.765
 21
170.325
  0
LINE
  8
0
 10
-52.765
 20
170.325
 11
-57.235
 21
170.325
  0
LINE
  8
0
 10
-57.235
 20
170.325
 11
-57.235
 21
173.825
  0
LINE
  8
0
 10
-57.235
 20
173.825
 11
-57.765
 21
173.825
  0
LINE
  8
0
 10
-57.765
 20
173.825
 11
-57.765
 21
166.427
  0
LINE
  8
0
 10
-57.765
 20
166.427
 11
-54.265
 21
166.427
  0
LINE
  8
0
 10
-54.265
 20
166.427
 11
-54.265
 21
161.957
  0
LINE
  8
0
 10
-54.265
 20
161.957
 11
-57.765
 21
161.957
  0
LINE
  8
0
 10
-57.765
 20
161.957
 11
-57.765
 21
157.31
  0
LINE
  8
0
 10
-57.765
 20
157.31
 11
-20.5883
 21
157.31
  0
LINE
  8
0
 10
-20.5883
 20
157.31
 11
-20.5883
 21
156.81
  0
LINE
  8
0
 10
-20.5883
 20
156.81
 11
-57.765
 21
156.81
  0
LINE
  8
0
 10
-57.765
 20
156.81
 11
-57.765
 21
155.31
  0
LINE
  8
0
 10
-57.765
 20
155.31
 11
-39.51
 21
155.31
  0
LINE
  8
0
 10
-39.51
 20
155.31
 11
-39.51
 21
154.81
  0
LINE
  8
0
 10
-39.51
 20
154.81
 11
-57.765
 21
154.81
  0
LINE
  8
0
 10
-57.765
 20
154.81
 11
-57.765
 21
153.31
  0
LINE
  8
0
 10
-57.765
 20
153.31
 11
-20.5883
 21
153.31
  0
LINE
  8
0
 10
-20.5883
 20
153.31
 11
-20.5883
 21
152.81
  0
LINE
  8
0
 10
-20.5883
 20
152.81
 11
-57.765
 21
152.81
  0
LINE
  8
0
 10
-57.765
 20
152.81
 11
-57.765
 21
151.31
  0
LINE
  8
0
 10
-57.765
 20
151.31
 11
-39.51
 21
151.31
  0
LINE
  8
0
 10
-39.51
 20
151.31
 11
-39.51
 21
150.81
  0
LINE
  8
0
 10
-39.51
 20
150.81
 11
-57.765
 21
150.81
  0
LINE
  8
0
 10
-57.765
 20
150.81
 11
-57.765
 21
149.31
  0
LINE
  8
0
 10
-57.765
 20
149.31
 11
-20.5883
 21
149.31
  0
LINE
  8
0
 10
-20.5883
 20
149.31
 11
-20.5883
 21
148.81
  0
LINE
  8
0
 10
-20.5883
 20
148.81
 11
-57.765
 21
148.81
  0
LINE
  8
0
 10
-57.765
 20
148.81
 11
-57.765
 21
147.31
  0
LINE
  8
0
 10
-57.765
 20
147.31
 11
-39.51
 21
147.31
  0
LINE
  8
0
 10
-39.51
 20
147.31
 11
-39.51
 21
146.81
  0
LINE
  8
0
 10
-39.51
 20
146.81
 11
-57.765
 21
146.81
  0
LINE
  8
0
 10
-57.765
 20
146.81
 11
-57.765
 21
145.31
  0
LINE
  8
0
 10
-57.765
 20
145.31
 11
-20.5883
 21
145.31
  0
LINE
  8
0
 10
-20.5883
 20
145.31
 11
-20.5883
 21
144.81
  0
LINE
  8
0
 10
-20.5883
 20
144.81
 11
-57.765
 21
144.81
  0
LINE
  8
0
 10
-57.765
 20
144.81
 11
-57.765
 21
143.31
  0
LINE
  8
0
 10
-57.765
 20
143.31
 11
-39.51
 21
143.31
  0
LINE
  8
0
 10
-39.51
 20
143.31
 11
-39.51
 21
142.81
  0
LINE
  8
0
 10
-39.51
 20
142.81
 11
-57.765
 21
142.81
  0
LINE
  8
0
 10
-57.765
 20
142.81
 11
-57.765
 21
141.31
  0
LINE
  8
0
 10
-57.765
 20
141.31
 11
-20.5883
 21
141.31
  0
LINE
  8
0
 10
-20.5883
 20
141.31
 11
-20.5883
 21
140.81
  0
LINE
  8
0
 10
-20.5883
 20
140.81
 11
-57.765
 21
140.81
  0
LINE
  8
0
 10
-57.765
 20
140.81
 11
-57.765
 21
139.31
  0
LINE
  8
0
 10
-57.765
 20
139.31
 11
-39.51
 21
139.31
  0
LINE
  8
0
 10
-39.51
 20
139.31
 11
-39.51
 21
138.81
  0
LINE
  8
0
 10
-39.51
 20
138.81
 11
-57.765
 21
138.81
  0
LINE
  8
0
 10
-57.765
 20
138.81
 11
-57.765
 21
137.31
  0
LINE
  8
0
 10
-57.765
 20
137.31
 11
-20.5883
 21
137.31
  0
LINE
  8
0
 10
-20.5883
 20
137.31
 11
-20.5883
 21
136.81
  0
LINE
  8
0
 10
-20.5883
 20
136.81
 11
-57.765
 21
136.81
  0
LINE
  8
0
 10
-57.765
 20
136.81
 11
-57.765
 21
135.31
  0
LINE
  8
0
 10
-57.765
 20
135.31
 11
-39.51
 21
135.31
  0
LINE
  8
0
 10
-39.51
 20
135.31
 11
-39.51
 21
134.81
  0
LINE
  8
0
 10
-39.51
 20
134.81
 11
-57.765
 21
134.81
  0
LINE
  8
0
 10
-57.765
 20
134.81
 11
-57.765
 21
133.31
  0
LINE
  8
0
 10
-57.765
 20
133.31
 11
-20.5883
 21
133.31
  0
LINE
  8
0
 10
-20.5883
 20
133.31
 11
-20.5883
 21
132.81
  0
LINE
  8
0
 10
-20.5883
 20
132.81
 11
-57.765
 21
132.81
  0
LINE
  8
0
 10
-57.765
 20
132.81
 11
-57.765
 21
131.31
  0
LINE
  8
0
 10
-57.765
 20
131.31
 11
-39.51
 21
131.31
  0
LINE
  8
0
 10
-39.51
 20
131.31
 11
-39.51
 21
130.81
  0
LINE
  8
0
 10
-39.51
 20
130.81
 11
-57.765
 21
130.81
  0
LINE
  8
0
 10
-57.765
 20
130.81
 11
-57.765
 21
129.31
  0
LINE
  8
0
 10
-57.765
 20
129.31
 11
-20.5883
 21
129.31
  0
LINE
  8
0
 10
-20.5883
 20
129.31
 11
-20.5883
 21
128.81
  0
LINE
  8
0
 10
-20.5883
 20
128.81
 11
-57.765
 21
128.81
  0
LINE
  8
0
 10
-57.765
 20
128.81
 11
-57.765
 21
127.31
  0
LINE
  8
0
 10
-57.765
 20
127.31
 11
-39.51
 21
127.31
  0
LINE
  8
0
 10
-39.51
 20
127.31
 11
-39.51
 21
126.81
  0
LINE
  8
0
 10
-39.51
 20
126.81
 11
-57.765
 21
126.81
  0
LINE
  8
0
 10
-57.765
 20
126.81
 11
-57.765
 21
125.31
  0
LINE
  8
0
 10
-57.765
 20
125.31
 11
-20.5883
 21
125.31
  0
LINE
  8
0
 10
-20.5883
 20
125.31
 11
-20.5883
 21
124.81
  0
LINE
  8
0
 10
-20.5883
 20
124.81
 11
-57.765
 21
124.81
  0
LINE
  8
0
 10
-57.765
 20
124.81
 11
-57.765
 21
120.163
  0
LINE
  8
0
 10
-57.765
 20
120.163
 11
-54.265
 21
120.163
  0
LINE
  8
0
 10
-54.265
 20
120.163
 11
-54.265
 21
115.693
  0
LINE
  8
0
 10
-54.265
 20
115.693
 11
-57.765
 21
115.693
  0
LINE
  8
0
 10
-57.765
 20
115.693
 11
-57.765
 21
108.295
  0
LINE
  8
0
 10
-57.765
 20
108.295
 11
-52.235
 21
108.295
  0
LINE
  8
0
 10
-52.235
 20
108.295
 11
-52.235
 21
111.795
  0
LINE
  8
0
 10
20.5883
 20
156.81
 11
20.5883
 21
157.31
  0
LINE
  8
0
 10
20.5883
 20
157.31
 11
57.765
 21
157.31
  0
LINE
  8
0
 10
57.765
 20
157.31
 11
57.765
 21
156.81
  0
LINE
  8
0
 10
57.765
 20
156.81
 11
20.5883
 21
156.81
  0
LINE
  8
0
 10
-18.5883
 20
156.81
 11
-18.5883
 21
157.31
  0
LINE
  8
0
 10
-18.5883
 20
157.31
 11
18.5883
 21
157.31
  0
LINE
  8
0
 10
18.5883
 20
157.31
 11
18.5883
 21
156.81
  0
LINE
  8
0
 10
18.5883
 20
156.81
 11
-18.5883
 21
156.81
  0
LINE
  8
0
 10
-37.51
 20
154.81
 11
-37.51
 21
155.31
  0
LINE
  8
0
 10
-37.51
 20
155.31
 11
-1.00002
 21
155.31
  0
LINE
  8
0
 10
-1.00002
 20
155.31
 11
-1.00002
 21
154.81
  0
LINE
  8
0
 10
-1.00002
 20
154.81
 11
-37.51
 21
154.81
  0
LINE
  8
0
 10
0.999969
 20
154.81
 11
0.999969
 21
155.31
  0
LINE
  8
0
 10
0.999969
 20
155.31
 11
37.51
 21
155.31
  0
LINE
  8
0
 10
37.51
 20
155.31
 11
37.51
 21
154.81
  0
LINE
  8
0
 10
37.51
 20
154.81
 11
0.999969
 21
154.81
  0
LINE
  8
0
 10
20.5883
 20
152.81
 11
20.5883
 21
153.31
  0
LINE
  8
0
 10
20.5883
 20
153.31
 11
57.765
 21
153.31
  0
LINE
  8
0
 10
57.765
 20
153.31
 11
57.765
 21
152.81
  0
LINE
  8
0
 10
57.765
 20
152.81
 11
20.5883
 21
152.81
  0
LINE
  8
0
 10
-18.5883
 20
152.81
 11
-18.5883
 21
153.31
  0
LINE
  8
0
 10
-18.5883
 20
153.31
 11
18.5883
 21
153.31
  0
LINE
  8
0
 10
18.5883
 20
153.31
 11
18.5883
 21
152.81
  0
LINE
  8
0
 10
18.5883
 20
152.81
 11
-18.5883
 21
152.81
  0
LINE
  8
0
 10
0.999969
 20
150.81
 11
0.999969
 21
151.31
  0
LINE
  8
0
 10
0.999969
 20
151.31
 11
37.51
 21
151.31
  0
LINE
  8
0
 10
37.51
 20
151.31
 11
37.51
 21
150.81
  0
LINE
  8
0
 10
37.51
 20
150.81
 11
0.999969
 21
150.81
  0
LINE
  8
0
 10
-37.51
 20
150.81
 11
-37.51
 21
151.31
  0
LINE
  8
0
 10
-37.51
 20
151.31
 11
-1.00002
 21
151.31
  0
LINE
  8
0
 10
-1.00002
 20
151.31
 11
-1.00002
 21
150.81
  0
LINE
  8
0
 10
-1.00002
 20
150.81
 11
-37.51
 21
150.81
  0
LINE
  8
0
 10
20.5883
 20
148.81
 11
20.5883
 21
149.31
  0
LINE
  8
0
 10
20.5883
 20
149.31
 11
57.765
 21
149.31
  0
LINE
  8
0
 10
57.765
 20
149.31
 11
57.765
 21
148.81
  0
LINE
  8
0
 10
57.765
 20
148.81
 11
20.5883
 21
148.81
  0
LINE
  8
0
 10
-18.5883
 20
148.81
 11
-18.5883
 21
149.31
  0
LINE
  8
0
 10
-18.5883
 20
149.31
 11
18.5883
 21
149.31
  0
LINE
  8
0
 10
18.5883
 20
149.31
 11
18.5883
 21
148.81
  0
LINE
  8
0
 10
18.5883
 20
148.81
 11
-18.5883
 21
148.81
  0
LINE
  8
0
 10
-37.51
 20
146.81
 11
-37.51
 21
147.31
  0
LINE
  8
0
 10
-37.51
 20
147.31
 11
-1.00002
 21
147.31
  0
LINE
  8
0
 10
-1.00002
 20
147.31
 11
-1.00002
 21
146.81
  0
LINE
  8
0
 10
-1.00002
 20
146.81
 11
-37.51
 21
146.81
  0
LINE
  8
0
 10
0.999969
 20
146.81
 11
0.999969
 21
147.31
  0
LINE
  8
0
 10
0.999969
 20
147.31
 11
37.51
 21
147.31
  0
LINE
  8
0
 10
37.51
 20
147.31
 11
37.51
 21
146.81
  0
LINE
  8
0
 10
37.51
 20
146.81
 11
0.999969
 21
146.81
  0
LINE
  8
0
 10
-18.5883
 20
144.81
 11
-18.5883
 21
145.31
  0
LINE
  8
0
 10
-18.5883
 20
145.31
 11
18.5883
 21
145.31
  0
LINE
  8
0
 10
18.5883
 20
145.31
 11
18.5883
 21
144.81
  0
LINE
  8
0
 10
18.5883
 20
144.81
 11
-18.5883
 21
144.81
  0
LINE
  8
0
 10
20.5883
 20
144.81
 11
20.5883
 21
145.31
  0
LINE
  8
0
 10
20.5883
 20
145.31
 11
57.765
 21
145.31
  0
LINE
  8
0
 10
57.765
 20
145.31
 11
57.765
 21
144.81
  0
LINE
  8
0
 10
57.765
 20
144.81
 11
20.5883
 21
144.81
  0
LINE
  8
0
 10
-37.51
 20
142.81
 11
-37.51
 21
143.31
  0
LINE
  8
0
 10
-37.51
 20
143.31
 11
-1.00002
 21
143.31
  0
LINE
  8
0
 10
-1.00002
 20
143.31
 11
-1.00002
 21
142.81
  0
LINE
  8
0
 10
-1.00002
 20
142.81
 11
-37.51
 21
142.81
  0
LINE
  8
0
 10
0.999969
 20
142.81
 11
0.999969
 21
143.31
  0
LINE
  8
0
 10
0.999969
 20
143.31
 11
37.51
 21
143.31
  0
LINE
  8
0
 10
37.51
 20
143.31
 11
37.51
 21
142.81
  0
LINE
  8
0
 10
37.51
 20
142.81
 11
0.999969
 21
142.81
  0
LINE
  8
0
 10
20.5883
 20
140.81
 11
20.5883
 21
141.31
  0
LINE
  8
0
 10
20.5883
 20
141.31
 11
57.765
 21
141.31
  0
LINE
  8
0
 10
57.765
 20
141.31
 11
57.765
 21
140.81
  0
LINE
  8
0
 10
57.765
 20
140.81
 11
20.5883
 21
140.81
  0
LINE
  8
0
 10
-18.5883
 20
140.81
 11
-18.5883
 21
141.31
  0
LINE
  8
0
 10
-18.5883
 20
141.31
 11
18.5883
 21
141.31
  0
LINE
  8
0
 10
18.5883
 20
141.31
 11
18.5883
 21
140.81
  0
LINE
  8
0
 10
18.5883
 20
140.81
 11
-18.5883
 21
140.81
  0
LINE
  8
0
 10
-37.51
 20
138.81
 11
-37.51
 21
139.31
  0
LINE
  8
0
 10
-37.51
 20
139.31
 11
-1.00002
 21
139.31
  0
LINE
  8
0
 10
-1.00002
 20
139.31
 11
-1.00002
 21
138.81
  0
LINE
  8
0
 10
-1.00002
 20
138.81
 11
-37.51
 21
138.81
  0
LINE
  8
0
 10
0.999969
 20
138.81
 11
0.999969
 21
139.31
  0
LINE
  8
0
 10
0.999969
 20
139.31
 11
37.51
 21
139.31
  0
LINE
  8
0
 10
37.51
 20
139.31
 11
37.51
 21
138.81
  0
LINE
  8
0
 10
37.51
 20
138.81
 11
0.999969
 21
138.81
  0
LINE
  8
0
 10
-18.5883
 20
136.81
 11
-18.5883
 21
137.31
  0
LINE
  8
0
 10
-18.5883
 20
137.31
 11
18.5883
 21
137.31
  0
LINE
  8
0
 10
18.5883
 20
137.31
 11
18.5883
 21
136.81
  0
LINE
  8
0
 10
18.5883
 20
136.81
 11
-18.5883
 21
136.81
  0
LINE
  8
0
 10
20.5883
 20
136.81
 11
20.5883
 21
137.31
  0
LINE
  8
0
 10
20.5883
 20
137.31
 11
57.765
 21
137.31
  0
LINE
  8
0
 10
57.765
 20
137.31
 11
57.765
 21
136.81
  0
LINE
  8
0
 10
57.765
 20
136.81
 11
20.5883
 21
136.81
  0
LINE
  8
0
 10
-37.51
 20
134.81
 11
-37.51
 21
135.31
  0
LINE
  8
0
 10
-37.51
 20
135.31
 11
-1.00002
 21
135.31
  0
LINE
  8
0
 10
-1.00002
 20
135.31
 11
-1.00002
 21
134.81
  0
LINE
  8
0
 10
-1.00002
 20
134.81
 11
-37.51
 21
134.81
  0
LINE
  8
0
 10
0.999969
 20
134.81
 11
0.999969
 21
135.31
  0
LINE
  8
0
 10
0.999969
 20
135.31
 11
37.51
 21
135.31
  0
LINE
  8
0
 10
37.51
 20
135.31
 11
37.51
 21
134.81
  0
LINE
  8
0
 10
37.51
 20
134.81
 11
0.999969
 21
134.81
  0
LINE
  8
0
 10
-18.5883
 20
132.81
 11
-18.5883
 21
133.31
  0
LINE
  8
0
 10
-18.5883
 20
133.31
 11
18.5883
 21
133.31
  0
LINE
  8
0
 10
18.5883
 20
133.31
 11
18.5883
 21
132.81
  0
LINE
  8
0
 10
18.5883
 20
132.81
 11
-18.5883
 21
132.81
  0
LINE
  8
0
 10
20.5883
 20
132.81
 11
20.5883
 21
133.31
  0
LINE
  8
0
 10
20.5883
 20
133.31
 11
57.765
 21
133.31
  0
LINE
  8
0
 10
57.765
 20
133.31
 11
57.765
 21
132.81
  0
LINE
  8
0
 10
57.765
 20
132.81
 11
20.5883
 21
132.81
  0
LINE
  8
0
 10
-37.51
 20
130.81
 11
-37.51
 21
131.31
  0
LINE
  8
0
 10
-37.51
 20
131.31
 11
-1.00002
 21
131.31
  0
LINE
  8
0
 10
-1.00002
 20
131.31
 11
-1.00002
 21
130.81
  0
LINE
  8
0
 10
-1.00002
 20
130.81
 11
-37.51
 21
130.81
  0
LINE
  8
0
 10
0.999969
 20
130.81
 11
0.999969
 21
131.31
  0
LINE
  8
0
 10
0.999969
 20
131.31
 11
37.51
 21
131.31
  0
LINE
  8
0
 10
37.51
 20
131.31
 11
37.51
 21
130.81
  0
LINE
  8
0
 10
37.51
 20
130.81
 11
0.999969
 21
130.81
  0
LINE
  8
0
 10
-18.5883
 20
128.81
 11
-18.5883
 21
129.31
  0
LINE
  8
0
 10
-18.5883
 20
129.31
 11
18.5883
 21
129.31
  0
LINE
  8
0
 10
18.5883
 20
129.31
 11
18.5883
 21
128.81
  0
LINE
  8
0
 10
18.5883
 20
128.81
 11
-18.5883
 21
128.81
  0
LINE
  8
0
 10
20.5883
 20
128.81
 11
20.5883
 21
129.31
  0
LINE
  8
0
 10
20.5883
 20
129.31
 11
57.765
 21
129.31
  0
LINE
  8
0
 10
57.765
 20
129.31
 11
57.765
 21
128.81
  0
LINE
  8
0
 10
57.765
 20
128.81
 11
20.5883
 21
128.81
  0
LINE
  8
0
 10
0.999969
 20
126.81
 11
0.999969
 21
127.31
  0
LINE
  8
0
 10
0.999969
 20
127.31
 11
37.51
 21
127.31
  0
LINE
  8
0
 10
37.51
 20
127.31
 11
37.51
 21
126.81
  0
LINE
  8
0
 10
37.51
 20
126.81
 11
0.999969
 21
126.81
  0
LINE
  8
0
 10
-37.51
 20
126.81
 11
-37.51
 21
127.31
  0
LINE
  8
0
 10
-37.51
 20
127.31
 11
-1.00002
 21
127.31
  0
LINE
  8
0
 10
-1.00002
 20
127.31
 11
-1.00002
 21
126.81
  0
LINE
  8
0
 10
-1.00002
 20
126.81
 11
-37.51
 21
126.81
  0
LINE
  8
0
 10
20.5883
 20
124.81
 11
20.5883
 21
125.31
  0
LINE
  8
0
 10
20.5883
 20
125.31
 11
57.765
 21
125.31
  0
LINE
  8
0
 10
57.765
 20
125.31
 11
57.765
 21
124.81
  0
LINE
  8
0
 10
57.765
 20
124.81
 11
20.5883
 21
124.81
  0
LINE
  8
0
 10
-18.5883
 20
124.81
 11
-18.5883
 21
125.31
  0
LINE
  8
0
 10
-18.5883
 20
125.31
 11
18.5883
 21
125.31
  0
LINE
  8
0
 10
18.5883
 20
125.31
 11
18.5883
 21
124.81
  0
LINE
  8
0
 10
18.5883
 20
124.81
 11
-18.5883
 21
124.81
  0
LINE
  8
0
 10
-52.235
 20
41.265
 11
-47.765
 21
41.265
  0
LINE
  8
0
 10
-47.765
 20
41.265
 11
-47.765
 21
37.765
  0
LINE
  8
0
 10
-47.765
 20
37.765
 11
-42.235
 21
37.765
  0
LINE
  8
0
 10
-42.235
 20
37.765
 11
-42.235
 21
41.265
  0
LINE
  8
0
 10
-42.235
 20
41.265
 11
-37.765
 21
41.265
  0
LINE
  8
0
 10
-37.765
 20
41.265
 11
-37.765
 21
37.765
  0
LINE
  8
0
 10
-37.765
 20
37.765
 11
-32.235
 21
37.765
  0
LINE
  8
0
 10
-32.235
 20
37.765
 11
-32.235
 21
41.265
  0
LINE
  8
0
 10
-32.235
 20
41.265
 11
-27.765
 21
41.265
  0
LINE
  8
0
 10
-27.765
 20
41.265
 11
-27.765
 21
37.765
  0
LINE
  8
0
 10
-27.765
 20
37.765
 11
-22.235
 21
37.765
  0
LINE
  8
0
 10
-22.235
 20
37.765
 11
-22.235
 21
41.265
  0
LINE
  8
0
 10
-22.235
 20
41.265
 11
-17.765
 21
41.265
  0
LINE
  8
0
 10
-17.765
 20
41.265
 11
-17.765
 21
37.765
  0
LINE
  8
0
 10
-17.765
 20
37.765
 11
-12.235
 21
37.765
  0
LINE
  8
0
 10
-12.235
 20
37.765
 11
-12.235
 21
41.265
  0
LINE
  8
0
 10
-12.235
 20
41.265
 11
-7.765
 21
41.265
  0
LINE
  8
0
 10
-7.765
 20
41.265
 11
-7.765
 21
37.765
  0
LINE
  8
0
 10
-7.765
 20
37.765
 11
-2.235
 21
37.765
  0
LINE
  8
0
 10
-2.235
 20
37.765
 11
-2.235
 21
41.265
  0
LINE
  8
0
 10
-2.235
 20
41.265
 11
2.23499
 21
41.265
  0
LINE
  8
0
 10
2.23499
 20
41.265
 11
2.23499
 21
37.765
  0
LINE
  8
0
 10
2.23499
 20
37.765
 11
7.76498
 21
37.765
  0
LINE
  8
0
 10
7.76498
 20
37.765
 11
7.76498
 21
41.265
  0
LINE
  8
0
 10
7.76498
 20
41.265
 11
12.235
 21
41.265
  0
LINE
  8
0
 10
12.235
 20
41.265
 11
12.235
 21
37.765
  0
LINE
  8
0
 10
12.235
 20
37.765
 11
17.765
 21
37.765
  0
LINE
  8
0
 10
17.765
 20
37.765
 11
17.765
 21
41.265
  0
LINE
  8
0
 10
17.765
 20
41.265
 11
22.235
 21
41.265
  0
LINE
  8
0
 10
22.235
 20
41.265
 11
22.235
 21
37.765
  0
LINE
  8
0
 10
22.235
 20
37.765
 11
27.765
 21
37.765
  0
LINE
  8
0
 10
27.765
 20
37.765
 11
27.765
 21
41.265
  0
LINE
  8
0
 10
27.765
 20
41.265
 11
32.235
 21
41.265
  0
LINE
  8
0
 10
32.235
 20
41.265
 11
32.235
 21
37.765
  0
LINE
  8
0
 10
32.235
 20
37.765
 11
37.765
 21
37.765
  0
LINE
  8
0
 10
37.765
 20
37.765
 11
37.765
 21
41.265
  0
LINE
  8
0
 10
37.765
 20
41.265
 11
42.235
 21
41.265
  0
LINE
  8
0
 10
42.235
 20
41.265
 11
42.235
 21
37.765
  0
LINE
  8
0
 10
42.235
 20
37.765
 11
47.765
 21
37.765
  0
LINE
  8
0
 10
47.765
 20
37.765
 11
47.765
 21
41.265
  0
LINE
  8
0
 10
47.765
 20
41.265
 11
52.235
 21
41.265
  0
LINE
  8
0
 10
52.235
 20
41.265
 11
52.235
 21
37.765
  0
LINE
  8
0
 10
52.235
 20
37.765
 11
57.765
 21
37.765
  0
LINE
  8
0
 10
57.765
 20
37.765
 11
57.765
 21
45.1625
  0
LINE
  8
0
 10
57.765
 20
45.1625
 11
54.265
 21
45.1625
  0
LINE
  8
0
 10
54.265
 20
45.1625
 11
54.265
 21
49.6325
  0
LINE
  8
0
 10
54.265
 20
49.6325
 11
57.765
 21
49.6325
  0
LINE
  8
0
 10
57.765
 20
49.6325
 11
57.765
 21
56.28
  0
LINE
  8
0
 10
57.765
 20
56.28
 11
39.51
 21
56.28
  0
LINE
  8
0
 10
39.51
 20
56.28
 11
39.51
 21
56.78
  0
LINE
  8
0
 10
39.51
 20
56.78
 11
57.765
 21
56.78
  0
LINE
  8
0
 10
57.765
 20
56.78
 11
57.765
 21
60.28
  0
LINE
  8
0
 10
57.765
 20
60.28
 11
39.51
 21
60.28
  0
LINE
  8
0
 10
39.51
 20
60.28
 11
39.51
 21
60.78
  0
LINE
  8
0
 10
39.51
 20
60.78
 11
57.765
 21
60.78
  0
LINE
  8
0
 10
57.765
 20
60.78
 11
57.765
 21
64.28
  0
LINE
  8
0
 10
57.765
 20
64.28
 11
39.51
 21
64.28
  0
LINE
  8
0
 10
39.51
 20
64.28
 11
39.51
 21
64.78
  0
LINE
  8
0
 10
39.51
 20
64.78
 11
57.765
 21
64.78
  0
LINE
  8
0
 10
57.765
 20
64.78
 11
57.765
 21
68.28
  0
LINE
  8
0
 10
57.765
 20
68.28
 11
39.51
 21
68.28
  0
LINE
  8
0
 10
39.51
 20
68.28
 11
39.51
 21
68.78
  0
LINE
  8
0
 10
39.51
 20
68.78
 11
57.765
 21
68.78
  0
LINE
  8
0
 10
57.765
 20
68.78
 11
57.765
 21
72.28
  0
LINE
  8
0
 10
57.765
 20
72.28
 11
39.51
 21
72.28
  0
LINE
  8
0
 10
39.51
 20
72.28
 11
39.51
 21
72.78
  0
LINE
  8
0
 10
39.51
 20
72.78
 11
57.765
 21
72.78
  0
LINE
  8
0
 10
57.765
 20
72.78
 11
57.765
 21
76.28
  0
LINE
  8
0
 10
57.765
 20
76.28
 11
39.51
 21
76.28
  0
LINE
  8
0
 10
39.51
 20
76.28
 11
39.51
 21
76.78
  0
LINE
  8
0
 10
39.51
 20
76.78
 11
57.765
 21
76.78
  0
LINE
  8
0
 10
57.765
 20
76.78
 11
57.765
 21
80.28
  0
LINE
  8
0
 10
57.765
 20
80.28
 11
39.51
 21
80.28
  0
LINE
  8
0
 10
39.51
 20
80.28
 11
39.51
 21
80.78
  0
LINE
  8
0
 10
39.51
 20
80.78
 11
57.765
 21
80.78
  0
LINE
  8
0
 10
57.765
 20
80.78
 11
57.765
 21
84.28
  0
LINE
  8
0
 10
57.765
 20
84.28
 11
39.51
 21
84.28
  0
LINE
  8
0
 10
39.51
 20
84.28
 11
39.51
 21
84.78
  0
LINE
  8
0
 10
39.51
 20
84.78
 11
57.765
 21
84.78
  0
LINE
  8
0
 10
57.765
 20
84.78
 11
57.765
 21
91.4275
  0
LINE
  8
0
 10
57.765
 20
91.4275
 11
54.265
 21
91.4275
  0
LINE
  8
0
 10
54.265
 20
91.4275
 11
54.265
 21
95.8975
  0
LINE
  8
0
 10
54.265
 20
95.8975
 11
57.765
 21
95.8975
  0
LINE
  8
0
 10
57.765
 20
95.8975
 11
57.765
 21
99.795
  0
LINE
  8
0
 10
57.765
 20
99.795
 11
52.765
 21
99.795
  0
LINE
  8
0
 10
52.765
 20
99.795
 11
52.765
 21
103.295
  0
LINE
  8
0
 10
52.765
 20
103.295
 11
47.235
 21
103.295
  0
LINE
  8
0
 10
47.235
 20
103.295
 11
47.235
 21
99.795
  0
LINE
  8
0
 10
47.235
 20
99.795
 11
42.765
 21
99.795
  0
LINE
  8
0
 10
42.765
 20
99.795
 11
42.765
 21
103.295
  0
LINE
  8
0
 10
42.765
 20
103.295
 11
37.235
 21
103.295
  0
LINE
  8
0
 10
37.235
 20
103.295
 11
37.235
 21
99.795
  0
LINE
  8
0
 10
37.235
 20
99.795
 11
32.765
 21
99.795
  0
LINE
  8
0
 10
32.765
 20
99.795
 11
32.765
 21
103.295
  0
LINE
  8
0
 10
32.765
 20
103.295
 11
27.235
 21
103.295
  0
LINE
  8
0
 10
27.235
 20
103.295
 11
27.235
 21
99.795
  0
LINE
  8
0
 10
27.235
 20
99.795
 11
22.765
 21
99.795
  0
LINE
  8
0
 10
22.765
 20
99.795
 11
22.765
 21
103.295
  0
LINE
  8
0
 10
22.765
 20
103.295
 11
17.235
 21
103.295
  0
LINE
  8
0
 10
17.235
 20
103.295
 11
17.235
 21
99.795
  0
LINE
  8
0
 10
17.235
 20
99.795
 11
12.765
 21
99.795
  0
LINE
  8
0
 10
12.765
 20
99.795
 11
12.765
 21
103.295
  0
LINE
  8
0
 10
12.765
 20
103.295
 11
7.23497
 21
103.295
  0
LINE
  8
0
 10
7.23497
 20
103.295
 11
7.23497
 21
99.795
  0
LINE
  8
0
 10
7.23497
 20
99.795
 11
2.76498
 21
99.795
  0
LINE
  8
0
 10
2.76498
 20
99.795
 11
2.76498
 21
103.295
  0
LINE
  8
0
 10
2.76498
 20
103.295
 11
-2.76501
 21
103.295
  0
LINE
  8
0
 10
-2.76501
 20
103.295
 11
-2.76501
 21
99.795
  0
LINE
  8
0
 10
-2.76501
 20
99.795
 11
-7.235
 21
99.795
  0
LINE
  8
0
 10
-7.235
 20
99.795
 11
-7.235
 21
103.295
  0
LINE
  8
0
 10
-7.235
 20
103.295
 11
-12.765
 21
103.295
  0
LINE
  8
0
 10
-12.765
 20
103.295
 11
-12.765
 21
99.795
  0
LINE
  8
0
 10
-12.765
 20
99.795
 11
-17.235
 21
99.795
  0
LINE
  8
0
 10
-17.235
 20
99.795
 11
-17.235
 21
103.295
  0
LINE
  8
0
 10
-17.235
 20
103.295
 11
-22.765
 21
103.295
  0
LINE
  8
0
 10
-22.765
 20
103.295
 11
-22.765
 21
99.795
  0
LINE
  8
0
 10
-22.765
 20
99.795
 11
-27.235
 21
99.795
  0
LINE
  8
0
 10
-27.235
 20
99.795
 11
-27.235
 21
103.295
  0
LINE
  8
0
 10
-27.235
 20
103.295
 11
-32.765
 21
103.295
  0
LINE
  8
0
 10
-32.765
 20
103.295
 11
-32.765
 21
99.795
  0
LINE
  8
0
 10
-32.765
 20
99.795
 11
-37.235
 21
99.795
  0
LINE
  8
0
 10
-37.235
 20
99.795
 11
-37.235
 21
103.295
  0
LINE
  8
0
 10
-37.235
 20
103.295
 11
-42.765
 21
103.295
  0
LINE
  8
0
 10
-42.765
 20
103.295
 11
-42.765
 21
99.795
  0
LINE
  8
0
 10
-42.765
 20
99.795
 11
-47.235
 21
99.795
  0
LINE
  8
0
 10
-47.235
 20
99.795
 11
-47.235
 21
103.295
  0
LINE
  8
0
 10
-47.235
 20
103.295
 11
-52.765
 21
103.295
  0
LINE
  8
0
 10
-52.765
 20
103.295
 11
-52.765
 21
99.795
  0
LINE
  8
0
 10
-52.765
 20
99.795
 11
-57.235
 21
99.795
  0
LINE
  8
0
 10
-57.235
 20
99.795
 11
-57.235
 21
103.295
  0
LINE
  8
0
 10
-57.235
 20
103.295
 11
-57.765
 21
103.295
  0
LINE
  8
0
 10
-57.765
 20
103.295
 11
-57.765
 21
95.8975
  0
LINE
  8
0
 10
-57.765
 20
95.8975
 11
-54.265
 21
95.8975
  0
LINE
  8
0
 10
-54.265
 20
95.8975
 11
-54.265
 21
91.4275
  0
LINE
  8
0
 10
-54.265
 20
91.4275
 11
-57.765
 21
91.4275
  0
LINE
  8
0
 10
-57.765
 20
91.4275
 11
-57.765
 21
86.78
  0
LINE
  8
0
 10
-57.765
 20
86.78
 11
-20.5883
 21
86.78
  0
LINE
  8
0
 10
-20.5883
 20
86.78
 11
-20.5883
 21
86.28
  0
LINE
  8
0
 10
-20.5883
 20
86.28
 11
-57.765
 21
86.28
  0
LINE
  8
0
 10
-57.765
 20
86.28
 11
-57.765
 21
84.78
  0
LINE
  8
0
 10
-57.765
 20
84.78
 11
-39.51
 21
84.78
  0
LINE
  8
0
 10
-39.51
 20
84.78
 11
-39.51
 21
84.28
  0
LINE
  8
0
 10
-39.51
 20
84.28
 11
-57.765
 21
84.28
  0
LINE
  8
0
 10
-57.765
 20
84.28
 11
-57.765
 21
82.78
  0
LINE
  8
0
 10
-57.765
 20
82.78
 11
-20.5883
 21
82.78
  0
LINE
  8
0
 10
-20.5883
 20
82.78
 11
-20.5883
 21
82.28
  0
LINE
  8
0
 10
-20.5883
 20
82.28
 11
-57.765
 21
82.28
  0
LINE
  8
0
 10
-57.765
 20
82.28
 11
-57.765
 21
80.78
  0
LINE
  8
0
 10
-57.765
 20
80.78
 11
-39.51
 21
80.78
  0
LINE
  8
0
 10
-39.51
 20
80.78
 11
-39.51
 21
80.28
  0
LINE
  8
0
 10
-39.51
 20
80.28
 11
-57.765
 21
80.28
  0
LINE
  8
0
 10
-57.765
 20
80.28
 11
-57.765
 21
78.78
  0
LINE
  8
0
 10
-57.765
 20
78.78
 11
-20.5883
 21
78.78
  0
LINE
  8
0
 10
-20.5883
 20
78.78
 11
-20.5883
 21
78.28
  0
LINE
  8
0
 10
-20.5883
 20
78.28
 11
-57.765
 21
78.28
  0
LINE
  8
0
 10
-57.765
 20
78.28
 11
-57.765
 21
76.78
  0
LINE
  8
0
 10
-57.765
 20
76.78
 11
-39.51
 21
76.78
  0
LINE
  8
0
 10
-39.51
 20
76.78
 11
-39.51
 21
76.28
  0
LINE
  8
0
 10
-39.51
 20
76.28
 11
-57.765
 21
76.28
  0
LINE
  8
0
 10
-57.765
 20
76.28
 11
-57.765
 21
74.78
  0
LINE
  8
0
 10
-57.765
 20
74.78
 11
-20.5883
 21
74.78
  0
LINE
  8
0
 10
-20.5883
 20
74.78
 11
-20.5883
 21
74.28
  0
LINE
  8
0
 10
-20.5883
 20
74.28
 11
-57.765
 21
74.28
  0
LINE
  8
0
 10
-57.765
 20
74.28
 11
-57.765
 21
72.78
  0
LINE
  8
0
 10
-57.765
 20
72.78
 11
-39.51
 21
72.78
  0
LINE
  8
0
 10
-39.51
 20
72.78
 11
-39.51
 21
72.28
  0
LINE
  8
0
 10
-39.51
 20
72.28
 11
-57.765
 21
72.28
  0
LINE
  8
0
 10
-57.765
 20
72.28
 11
-57.765
 21
70.78
  0
LINE
  8
0
 10
-57.765
 20
70.78
 11
-20.5883
 21
70.78
  0
LINE
  8
0
 10
-20.5883
 20
70.78
 11
-20.5883
 21
70.28
  0
LINE
  8
0
 10
-20.5883
 20
70.28
 11
-57.765
 21
70.28
  0
LINE
  8
0
 10
-57.765
 20
70.28
 11
-57.765
 21
68.78
  0
LINE
  8
0
 10
-57.765
 20
68.78
 11
-39.51
 21
68.78
  0
LINE
  8
0
 10
-39.51
 20
68.78
 11
-39.51
 21
68.28
  0
LINE
  8
0
 10
-39.51
 20
68.28
 11
-57.765
 21
68.28
  0
LINE
  8
0
 10
-57.765
 20
68.28
 11
-57.765
 21
66.78
  0
LINE
  8
0
 10
-57.765
 20
66.78
 11
-20.5883
 21
66.78
  0
LINE
  8
0
 10
-20.5883
 20
66.78
 11
-20.5883
 21
66.28
  0
LINE
  8
0
 10
-20.5883
 20
66.28
 11
-57.765
 21
66.28
  0
LINE
  8
0
 10
-57.765
 20
66.28
 11
-57.765
 21
64.78
  0
LINE
  8
0
 10
-57.765
 20
64.78
 11
-39.51
 21
64.78
  0
LINE
  8
0
 10
-39.51
 20
64.78
 11
-39.51
 21
64.28
  0
LINE
  8
0
 10
-39.51
 20
64.28
 11
-57.765
 21
64.28
  0
LINE
  8
0
 10
-57.765
 20
64.28
 11
-57.765
 21
62.78
  0
LINE
  8
0
 10
-57.765
 20
62.78
 11
-20.5883
 21
62.78
  0
LINE
  8
0
 10
-20.5883
 20
62.78
 11
-20.5883
 21
62.28
  0
LINE
  8
0
 10
-20.5883
 20
62.28
 11
-57.765
 21
62.28
  0
LINE
  8
0
 10
-57.765
 20
62.28
 11
-57.765
 21
60.78
  0
LINE
  8
0
 10
-57.765
 20
60.78
 11
-39.51
 21
60.78
  0
LINE
  8
0
 10
-39.51
 20
60.78
 11
-39.51
 21
60.28
  0
LINE
  8
0
 10
-39.51
 20
60.28
 11
-57.765
 21
60.28
  0
LINE
  8
0
 10
-57.765
 20
60.28
 11
-57.765
 21
58.78
  0
LINE
  8
0
 10
-57.765
 20
58.78
 11
-20.5883
 21
58.78
  0
LINE
  8
0
 10
-20.5883
 20
58.78
 11
-20.5883
 21
58.28
  0
LINE
  8
0
 10
-20.5883
 20
58.28
 11
-57.765
 21
58.28
  0
LINE
  8
0
 10
-57.765
 20
58.28
 11
-57.765
 21
56.78
  0
LINE
  8
0
 10
-57.765
 20
56.78
 11
-39.51
 21
56.78
  0
LINE
  8
0
 10
-39.51
 20
56.78
 11
-39.51
 21
56.28
  0
LINE
  8
0
 10
-39.51
 20
56.28
 11
-57.765
 21
56.28
  0
LINE
  8
0
 10
-57.765
 20
56.28
 11
-57.765
 21
54.78
  0
LINE
  8
0
 10
-57.765
 20
54.78
 11
-20.5883
 21
54.78
  0
LINE
  8
0
 10
-20.5883
 20
54.78
 11
-20.5883
 21
54.28
  0
LINE
  8
0
 10
-20.5883
 20
54.28
 11
-57.765
 21
54.28
  0
LINE
  8
0
 10
-57.765
 20
54.28
 11
-57.765
 21
49.6325
  0
LINE
  8
0
 10
-57.765
 20
49.6325
 11
-54.265
 21
49.6325
  0
LINE
  8
0
 10
-54.265
 20
49.6325
 11
-54.265
 21
45.1625
  0
LINE
  8
0
 10
-54.265
 20
45.1625
 11
-57.765
 21
45.1625
  0
LINE
  8
0
 10
-57.765
 20
45.1625
 11
-57.765
 21
37.765
  0
LINE
  8
0
 10
-57.765
 20
37.765
 11
-52.235
 21
37.765
  0
LINE
  8
0
 10
-52.235
 20
37.765
 11
-52.235
 21
41.265
  0
LINE
  8
0
 10
20.5883
 20
86.28
 11
20.5883
 21
86.78
  0
LINE
  8
0
 10
20.5883
 20
86.78
 11
57.765
 21
86.78
  0
LINE
  8
0
 10
57.765
 20
86.78
 11
57.765
 21
86.28
  0
LINE
  8
0
 10
57.765
 20
86.28
 11
20.5883
 21
86.28
  0
LINE
  8
0
 10
-18.5883
 20
86.28
 11
-18.5883
 21
86.78
  0
LINE
  8
0
 10
-18.5883
 20
86.78
 11
18.5883
 21
86.78
  0
LINE
  8
0
 10
18.5883
 20
86.78
 11
18.5883
 21
86.28
  0
LINE
  8
0
 10
18.5883
 20
86.28
 11
-18.5883
 21
86.28
  0
LINE
  8
0
 10
-37.51
 20
84.28
 11
-37.51
 21
84.78
  0
LINE
  8
0
 10
-37.51
 20
84.78
 11
-1.00002
 21
84.78
  0
LINE
  8
0
 10
-1.00002
 20
84.78
 11
-1.00002
 21
84.28
  0
LINE
  8
0
 10
-1.00002
 20
84.28
 11
-37.51
 21
84.28
  0
LINE
  8
0
 10
0.999969
 20
84.28
 11
0.999969
 21
84.78
  0
LINE
  8
0
 10
0.999969
 20
84.78
 11
37.51
 21
84.78
  0
LINE
  8
0
 10
37.51
 20
84.78
 11
37.51
 21
84.28
  0
LINE
  8
0
 10
37.51
 20
84.28
 11
0.999969
 21
84.28
  0
LINE
  8
0
 10
-18.5883
 20
82.28
 11
-18.5883
 21
82.78
  0
LINE
  8
0
 10
-18.5883
 20
82.78
 11
18.5883
 21
82.78
  0
LINE
  8
0
 10
18.5883
 20
82.78
 11
18.5883
 21
82.28
  0
LINE
  8
0
 10
18.5883
 20
82.28
 11
-18.5883
 21
82.28
  0
LINE
  8
0
 10
20.5883
 20
82.28
 11
20.5883
 21
82.78
  0
LINE
  8
0
 10
20.5883
 20
82.78
 11
57.765
 21
82.78
  0
LINE
  8
0
 10
57.765
 20
82.78
 11
57.765
 21
82.28
  0
LINE
  8
0
 10
57.765
 20
82.28
 11
20.5883
 21
82.28
  0
LINE
  8
0
 10
-37.51
 20
80.28
 11
-37.51
 21
80.78
  0
LINE
  8
0
 10
-37.51
 20
80.78
 11
-1.00002
 21
80.78
  0
LINE
  8
0
 10
-1.00002
 20
80.78
 11
-1.00002
 21
80.28
  0
LINE
  8
0
 10
-1.00002
 20
80.28
 11
-37.51
 21
80.28
  0
LINE
  8
0
 10
0.999969
 20
80.28
 11
0.999969
 21
80.78
  0
LINE
  8
0
 10
0.999969
 20
80.78
 11
37.51
 21
80.78
  0
LINE
  8
0
 10
37.51
 20
80.78
 11
37.51
 21
80.28
  0
LINE
  8
0
 10
37.51
 20
80.28
 11
0.999969
 21
80.28
  0
LINE
  8
0
 10
-18.5883
 20
78.28
 11
-18.5883
 21
78.78
  0
LINE
  8
0
 10
-18.5883
 20
78.78
 11
18.5883
 21
78.78
  0
LINE
  8
0
 10
18.5883
 20
78.78
 11
18.5883
 21
78.28
  0
LINE
  8
0
 10
18.5883
 20
78.28
 11
-18.5883
 21
78.28
  0
LINE
  8
0
 10
20.5883
 20
78.28
 11
20.5883
 21
78.78
  0
LINE
  8
0
 10
20.5883
 20
78.78
 11
57.765
 21
78.78
  0
LINE
  8
0
 10
57.765
 20
78.78
 11
57.765
 21
78.28
  0
LINE
  8
0
 10
57.765
 20
78.28
 11
20.5883
 21
78.28
  0
LINE
  8
0
 10
0.999969
 20
76.28
 11
0.999969
 21
76.78
  0
LINE
  8
0
 10
0.999969
 20
76.78
 11
37.51
 21
76.78
  0
LINE
  8
0
 10
37.51
 20
76.78
 11
37.51
 21
76.28
  0
LINE
  8
0
 10
37.51
 20
76.28
 11
0.999969
 21
76.28
  0
LINE
  8
0
 10
-37.51
 20
76.28
 11
-37.51
 21
76.78
  0
LINE
  8
0
 10
-37.51
 20
76.78
 11
-1.00002
 21
76.78
  0
LINE
  8
0
 10
-1.00002
 20
76.78
 11
-1.00002
 21
76.28
  0
LINE
  8
0
 10
-1.00002
 20
76.28
 11
-37.51
 21
76.28
  0
LINE
  8
0
 10
-18.5883
 20
74.28
 11
-18.5883
 21
74.78
  0
LINE
  8
0
 10
-18.5883
 20
74.78
 11
18.5883
 21
74.78
  0
LINE
  8
0
 10
18.5883
 20
74.78
 11
18.5883
 21
74.28
  0
LINE
  8
0
 10
18.5883
 20
74.28
 11
-18.5883
 21
74.28
  0
LINE
  8
0
 10
20.5883
 20
74.28
 11
20.5883
 21
74.78
  0
LINE
  8
0
 10
20.5883
 20
74.78
 11
57.765
 21
74.78
  0
LINE
  8
0
 10
57.765
 20
74.78
 11
57.765
 21
74.28
  0
LINE
  8
0
 10
57.765
 20
74.28
 11
20.5883
 21
74.28
  0
LINE
  8
0
 10
-37.51
 20
72.28
 11
-37.51
 21
72.78
  0
LINE
  8
0
 10
-37.51
 20
72.78
 11
-1.00002
 21
72.78
  0
LINE
  8
0
 10
-1.00002
 20
72.78
 11
-1.00002
 21
72.28
  0
LINE
  8
0
 10
-1.00002
 20
72.28
 11
-37.51
 21
72.28
  0
LINE
  8
0
 10
0.999969
 20
72.28
 11
0.999969
 21
72.78
  0
LINE
  8
0
 10
0.999969
 20
72.78
 11
37.51
 21
72.78
  0
LINE
  8
0
 10
37.51
 20
72.78
 11
37.51
 21
72.28
  0
LINE
  8
0
 10
37.51
 20
72.28
 11
0.999969
 21
72.28
  0
LINE
  8
0
 10
20.5883
 20
70.28
 11
20.5883
 21
70.78
  0
LINE
  8
0
 10
20.5883
 20
70.78
 11
57.765
 21
70.78
  0
LINE
  8
0
 10
57.765
 20
70.78
 11
57.765
 21
70.28
  0
LINE
  8
0
 10
57.765
 20
70.28
 11
20.5883
 21
70.28
  0
LINE
  8
0
 10
-18.5883
 20
70.28
 11
-18.5883
 21
70.78
  0
LINE
  8
0
 10
-18.5883
 20
70.78
 11
18.5883
 21
70.78
  0
LINE
  8
0
 10
18.5883
 20
70.78
 11
18.5883
 21
70.28
  0
LINE
  8
0
 10
18.5883
 20
70.28
 11
-18.5883
 21
70.28
  0
LINE
  8
0
 10
-37.51
 20
68.28
 11
-37.51
 21
68.78
  0
LINE
  8
0
 10
-37.51
 20
68.78
 11
-1.00002
 21
68.78
  0
LINE
  8
0
 10
-1.00002
 20
68.78
 11
-1.00002
 21
68.28
  0
LINE
  8
0
 10
-1.00002
 20
68.28
 11
-37.51
 21
68.28
  0
LINE
  8
0
 10
0.999969
 20
68.28
 11
0.999969
 21
68.78
  0
LINE
  8
0
 10
0.999969
 20
68.78
 11
37.51
 21
68.78
  0
LINE
  8
0
 10
37.51
 20
68.78
 11
37.51
 21
68.28
  0
LINE
  8
0
 10
37.51
 20
68.28
 11
0.999969
 21
68.28
  0
LINE
  8
0
 10
-18.5883
 20
66.28
 11
-18.5883
 21
66.78
  0
LINE
  8
0
 10
-18.5883
 20
66.78
 11
18.5883
 21
66.78
  0
LINE
  8
0
 10
18.5883
 20
66.78
 11
18.5883
 21
66.28
  0
LINE
  8
0
 10
18.5883
 20
66.28
 11
-18.5883
 21
66.28
  0
LINE
  8
0
 10
20.5883
 20
66.28
 11
20.5883
 21
66.78
  0
LINE
  8
0
 10
20.5883
 20
66.78
 11
57.765
 21
66.78
  0
LINE
  8
0
 10
57.765
 20
66.78
 11
57.765
 21
66.28
  0
LINE
  8
0
 10
57.765
 20
66.28
 11
20.5883
 21
66.28
  0
LINE
  8
0
 10
0.999969
 20
64.28
 11
0.999969
 21
64.78
  0
LINE
  8
0
 10
0.999969
 20
64.78
 11
37.51
 21
64.78
  0
LINE
  8
0
 10
37.51
 20
64.78
 11
37.51
 21
64.28
  0
LINE
  8
0
 10
37.51
 20
64.28
 11
0.999969
 21
64.28
  0
LINE
  8
0
 10
-37.51
 20
64.28
 11
-37.51
 21
64.78
  0
LINE
  8
0
 10
-37.51
 20
64.78
 11
-1.00002
 21
64.78
  0
LINE
  8
0
 10
-1.00002
 20
64.78
 11
-1.00002
 21
64.28
  0
LINE
  8
0
 10
-1.00002
 20
64.28
 11
-37.51
 21
64.28
  0
LINE
  8
0
 10
20.5883
 20
62.28
 11
20.5883
 21
62.78
  0
LINE
  8
0
 10
20.5883
 20
62.78
 11
57.765
 21
62.78
  0
LINE
  8
0
 10
57.765
 20
62.78
 11
57.765
 21
62.28
  0
LINE
  8
0
 10
57.765
 20
62.28
 11
20.5883
 21
62.28
  0
LINE
  8
0
 10
-18.5883
 20
62.28
 11
-18.5883
 21
62.78
  0
LINE
  8
0
 10
-18.5883
 20
62.78
 11
18.5883
 21
62.78
  0
LINE
  8
0
 10
18.5883
 20
62.78
 11
18.5883
 21
62.28
  0
LINE
  8
0
 10
18.5883
 20
62.28
 11
-18.5883
 21
62.28
  0
LINE
  8
0
 10
-37.51
 20
60.28
 11
-37.51
 21
60.78
  0
LINE
  8
0
 10
-37.51
 20
60.78
 11
-1.00002
 21
60.78
  0
LINE
  8
0
 10
-1.00002
 20
60.78
 11
-1.00002
 21
60.28
  0
LINE
  8
0
 10
-1.00002
 20
60.28
 11
-37.51
 21
60.28
  0
LINE
  8
0
 10
0.999969
 20
60.28
 11
0.999969
 21
60.78
  0
LINE
  8
0
 10
0.999969
 20
60.78
 11
37.51
 21
60.78
  0
LINE
  8
0
 10
37.51
 20
60.78
 11
37.51
 21
60.28
  0
LINE
  8
0
 10
37.51
 20
60.28
 11
0.999969
 21
60.28
  0
LINE
  8
0
 10
-18.5883
 20
58.28
 11
-18.5883
 21
58.78
  0
LINE
  8
0
 10
-18.5883
 20
58.78
 11
18.5883
 21
58.78
  0
LINE
  8
0
 10
18.5883
 20
58.78
 11
18.5883
 21
58.28
  0
LINE
  8
0
 10
18.5883
 20
58.28
 11
-18.5883
 21
58.28
  0
LINE
  8
0
 10
20.5883
 20
58.28
 11
20.5883
 21
58.78
  0
LINE
  8
0
 10
20.5883
 20
58.78
 11
57.765
 21
58.78
  0
LINE
  8
0
 10
57.765
 20
58.78
 11
57.765
 21
58.28
  0
LINE
  8
0
 10
57.765
 20
58.28
 11
20.5883
 21
58.28
  0
LINE
  8
0
 10
-37.51
 20
56.28
 11
-37.51
 21
56.78
  0
LINE
  8
0
 10
-37.51
 20
56.78
 11
-1.00002
 21
56.78
  0
LINE
  8
0
 10
-1.00002
 20
56.78
 11
-1.00002
 21
56.28
  0
LINE
  8
0
 10
-1.00002
 20
56.28
 11
-37.51
 21
56.28
  0
LINE
  8
0
 10
0.999969
 20
56.28
 11
0.999969
 21
56.78
  0
LINE
  8
0
 10
0.999969
 20
56.78
 11
37.51
 21
56.78
  0
LINE
  8
0
 10
37.51
 20
56.78
 11
37.51
 21
56.28
  0
LINE
  8
0
 10
37.51
 20
56.28
 11
0.999969
 21
56.28
  0
LINE
  8
0
 10
-18.5883
 20
54.28
 11
-18.5883
 21
54.78
  0
LINE
  8
0
 10
-18.5883
 20
54.78
 11
18.5883
 21
54.78
  0
LINE
  8
0
 10
18.5883
 20
54.78
 11
18.5883
 21
54.28
  0
LINE
  8
0
 10
18.5883
 20
54.28
 11
-18.5883
 21
54.28
  0
LINE
  8
0
 10
20.5883
 20
54.28
 11
20.5883
 21
54.78
  0
LINE
  8
0
 10
20.5883
 20
54.78
 11
57.765
 21
54.78
  0
LINE
  8
0
 10
57.765
 20
54.78
 11
57.765
 21
54.28
  0
LINE
  8
0
 10
57.765
 20
54.28
 11
20.5883
 21
54.28
  0
LINE
  8
0
 10
-104.073
 20
-8.67505
 11
-104.073
 21
-5.17505
  0
LINE
  8
0
 10
-104.073
 20
-5.17505
 11
-93.8376
 21
-5.17505
  0
LINE
  8
0
 10
-93.8376
 20
-5.17505
 11
-93.8376
 21
-8.67505
  0
LINE
  8
0
 10
-93.8376
 20
-8.67505
 11
-88.3076
 21
-8.67505
  0
LINE
  8
0
 10
-88.3076
 20
-8.67505
 11
-88.3076
 21
-5.17505
  0
LINE
  8
0
 10
-88.3076
 20
-5.17505
 11
-83.1901
 21
-5.17505
  0
LINE
  8
0
 10
-83.1901
 20
-5.17505
 11
-83.1901
 21
-5.06606
  0
LINE
  8
0
 10
-83.1901
 20
-5.06606
 11
-80.5805
 21
-5.06606
  0
LINE
  8
0
 10
-80.5805
 20
-5.06606
 11
-76.5122
 21
-4.20131
  0
LINE
  8
0
 10
-76.5122
 20
-4.20131
 11
-72.7125
 21
-2.50961
  0
LINE
  8
0
 10
-72.7125
 20
-2.50961
 11
-69.3477
 21
-0.0648956
  0
LINE
  8
0
 10
-69.3477
 20
-0.0648956
 11
-66.5646
 21
3.02597
  0
LINE
  8
0
 10
-66.5646
 20
3.02597
 11
-64.485
 21
6.62794
  0
LINE
  8
0
 10
-64.485
 20
6.62794
 11
-63.1998
 21
10.5836
  0
LINE
  8
0
 10
-63.1998
 20
10.5836
 11
-62.765
 21
14.72
  0
LINE
  8
0
 10
-62.765
 20
14.72
 11
-62.8207
 21
15.25
  0
LINE
  8
0
 10
-62.8207
 20
15.25
 11
-62.765
 21
15.25
  0
LINE
  8
0
 10
-62.765
 20
15.25
 11
-62.765
 21
20.3675
  0
LINE
  8
0
 10
-62.765
 20
20.3675
 11
-59.265
 21
20.3675
  0
LINE
  8
0
 10
-59.265
 20
20.3675
 11
-59.265
 21
25.8975
  0
LINE
  8
0
 10
-59.265
 20
25.8975
 11
-62.765
 21
25.8975
  0
LINE
  8
0
 10
-62.765
 20
25.8975
 11
-62.765
 21
36.1325
  0
LINE
  8
0
 10
-62.765
 20
36.1325
 11
-59.265
 21
36.1325
  0
LINE
  8
0
 10
-59.265
 20
36.1325
 11
-59.265
 21
41.6625
  0
LINE
  8
0
 10
-59.265
 20
41.6625
 11
-62.765
 21
41.6625
  0
LINE
  8
0
 10
-62.765
 20
41.6625
 11
-62.765
 21
46.78
  0
LINE
  8
0
 10
-62.765
 20
46.78
 11
-62.8207
 21
46.78
  0
LINE
  8
0
 10
-62.8207
 20
46.78
 11
-62.765
 21
47.31
  0
LINE
  8
0
 10
-62.765
 20
47.31
 11
-63.1998
 21
51.4464
  0
LINE
  8
0
 10
-63.1998
 20
51.4464
 11
-64.485
 21
55.4021
  0
LINE
  8
0
 10
-64.485
 20
55.4021
 11
-66.5646
 21
59.004
  0
LINE
  8
0
 10
-66.5646
 20
59.004
 11
-69.3477
 21
62.0949
  0
LINE
  8
0
 10
-69.3477
 20
62.0949
 11
-72.7125
 21
64.5396
  0
LINE
  8
0
 10
-72.7125
 20
64.5396
 11
-76.5122
 21
66.2313
  0
LINE
  8
0
 10
-76.5122
 20
66.2313
 11
-80.5805
 21
67.0961
  0
LINE
  8
0
 10
-80.5805
 20
67.0961
 11
-83.1901
 21
67.0961
  0
LINE
  8
0
 10
-83.1901
 20
67.0961
 11
-83.1901
 21
67.2051
  0
LINE
  8
0
 10
-83.1901
 20
67.2051
 11
-88.3076
 21
67.2051
  0
LINE
  8
0
 10
-88.3076
 20
67.2051
 11
-88.3076
 21
70.7051
  0
LINE
  8
0
 10
-88.3076
 20
70.7051
 11
-93.8376
 21
70.7051
  0
LINE
  8
0
 10
-93.8376
 20
70.7051
 11
-93.8376
 21
67.2051
  0
LINE
  8
0
 10
-93.8376
 20
67.2051
 11
-104.073
 21
67.2051
  0
LINE
  8
0
 10
-104.073
 20
67.2051
 11
-104.073
 21
70.7051
  0
LINE
  8
0
 10
-104.073
 20
70.7051
 11
-109.603
 21
70.7051
  0
LINE
  8
0
 10
-109.603
 20
70.7051
 11
-109.603
 21
67.2051
  0
LINE
  8
0
 10
-109.603
 20
67.2051
 11
-114.72
 21
67.2051
  0
LINE
  8
0
 10
-114.72
 20
67.2051
 11
-114.72
 21
67.0961
  0
LINE
  8
0
 10
-114.72
 20
67.0961
 11
-117.33
 21
67.0961
  0
LINE
  8
0
 10
-117.33
 20
67.0961
 11
-121.398
 21
66.2313
  0
LINE
  8
0
 10
-121.398
 20
66.2313
 11
-125.198
 21
64.5396
  0
LINE
  8
0
 10
-125.198
 20
64.5396
 11
-128.562
 21
62.0949
  0
LINE
  8
0
 10
-128.562
 20
62.0949
 11
-131.346
 21
59.004
  0
LINE
  8
0
 10
-131.346
 20
59.004
 11
-133.425
 21
55.4021
  0
LINE
  8
0
 10
-133.425
 20
55.4021
 11
-134.71
 21
51.4464
  0
LINE
  8
0
 10
-134.71
 20
51.4464
 11
-135.145
 21
47.31
  0
LINE
  8
0
 10
-135.145
 20
47.31
 11
-135.089
 21
46.78
  0
LINE
  8
0
 10
-135.089
 20
46.78
 11
-135.145
 21
46.78
  0
LINE
  8
0
 10
-135.145
 20
46.78
 11
-135.145
 21
41.6625
  0
LINE
  8
0
 10
-135.145
 20
41.6625
 11
-138.645
 21
41.6625
  0
LINE
  8
0
 10
-138.645
 20
41.6625
 11
-138.645
 21
36.1325
  0
LINE
  8
0
 10
-138.645
 20
36.1325
 11
-135.145
 21
36.1325
  0
LINE
  8
0
 10
-135.145
 20
36.1325
 11
-135.145
 21
25.8975
  0
LINE
  8
0
 10
-135.145
 20
25.8975
 11
-138.645
 21
25.8975
  0
LINE
  8
0
 10
-138.645
 20
25.8975
 11
-138.645
 21
20.3675
  0
LINE
  8
0
 10
-138.645
 20
20.3675
 11
-135.145
 21
20.3675
  0
LINE
  8
0
 10
-135.145
 20
20.3675
 11
-135.145
 21
15.25
  0
LINE
  8
0
 10
-135.145
 20
15.25
 11
-135.089
 21
15.25
  0
LINE
  8
0
 10
-135.089
 20
15.25
 11
-135.145
 21
14.72
  0
LINE
  8
0
 10
-135.145
 20
14.72
 11
-134.71
 21
10.5836
  0
LINE
  8
0
 10
-134.71
 20
10.5836
 11
-133.425
 21
6.62794
  0
LINE
  8
0
 10
-133.425
 20
6.62794
 11
-131.346
 21
3.02597
  0
LINE
  8
0
 10
-131.346
 20
3.02597
 11
-128.562
 21
-0.0648956
  0
LINE
  8
0
 10
-128.562
 20
-0.0648956
 11
-125.198
 21
-2.50961
  0
LINE
  8
0
 10
-125.198
 20
-2.50961
 11
-121.398
 21
-4.20131
  0
LINE
  8
0
 10
-121.398
 20
-4.20131
 11
-117.33
 21
-5.06606
  0
LINE
  8
0
 10
-117.33
 20
-5.06606
 11
-114.72
 21
-5.06606
  0
LINE
  8
0
 10
-114.72
 20
-5.06606
 11
-114.72
 21
-5.17505
  0
LINE
  8
0
 10
-114.72
 20
-5.17505
 11
-109.603
 21
-5.17505
  0
LINE
  8
0
 10
-109.603
 20
-5.17505
 11
-109.603
 21
-8.67505
  0
LINE
  8
0
 10
-109.603
 20
-8.67505
 11
-104.073
 21
-8.67505
  0
LINE
  8
0
 10
93.8376
 20
-5.17505
 11
104.073
 21
-5.17505
  0
LINE
  8
0
 10
104.073
 20
-5.17505
 11
104.073
 21
-8.67505
  0
LINE
  8
0
 10
104.073
 20
-8.67505
 11
109.603
 21
-8.67505
  0
LINE
  8
0
 10
109.603
 20
-8.67505
 11
109.603
 21
-5.17505
  0
LINE
  8
0
 10
109.603
 20
-5.17505
 11
114.72
 21
-5.17505
  0
LINE
  8
0
 10
114.72
 20
-5.17505
 11
114.72
 21
-5.06606
  0
LINE
  8
0
 10
114.72
 20
-5.06606
 11
117.33
 21
-5.06606
  0
LINE
  8
0
 10
117.33
 20
-5.06606
 11
121.398
 21
-4.20131
  0
LINE
  8
0
 10
121.398
 20
-4.20131
 11
125.198
 21
-2.50961
  0
LINE
  8
0
 10
125.198
 20
-2.50961
 11
128.562
 21
-0.0648956
  0
LINE
  8
0
 10
128.562
 20
-0.0648956
 11
131.346
 21
3.02597
  0
LINE
  8
0
 10
131.346
 20
3.02597
 11
133.425
 21
6.62794
  0
LINE
  8
0
 10
133.425
 20
6.62794
 11
134.71
 21
10.5836
  0
LINE
  8
0
 10
134.71
 20
10.5836
 11
135.145
 21
14.72
  0
LINE
  8
0
 10
135.145
 20
14.72
 11
135.089
 21
15.25
  0
LINE
  8
0
 10
135.089
 20
15.25
 11
135.145
 21
15.25
  0
LINE
  8
0
 10
135.145
 20
15.25
 11
135.145
 21
20.3675
  0
LINE
  8
0
 10
135.145
 20
20.3675
 11
138.645
 21
20.3675
  0
LINE
  8
0
 10
138.645
 20
20.3675
 11
138.645
 21
25.8975
  0
LINE
  8
0
 10
138.645
 20
25.8975
 11
135.145
 21
25.8975
  0
LINE
  8
0
 10
135.145
 20
25.8975
 11
135.145
 21
36.1325
  0
LINE
  8
0
 10
135.145
 20
36.1325
 11
138.645
 21
36.1325
  0
LINE
  8
0
 10
138.645
 20
36.1325
 11
138.645
 21
41.6625
  0
LINE
  8
0
 10
138.645
 20
41.6625
 11
135.145
 21
41.6625
  0
LINE
  8
0
 10
135.145
 20
41.6625
 11
135.145
 21
46.78
  0
LINE
  8
0
 10
135.145
 20
46.78
 11
135.089
 21
46.78
  0
LINE
  8
0
 10
135.089
 20
46.78
 11
135.145
 21
47.31
  0
LINE
  8
0
 10
135.145
 20
47.31
 11
134.71
 21
51.4464
  0
LINE
  8
0
 10
134.71
 20
51.4464
 11
133.425
 21
55.4021
  0
LINE
  8
0
 10
133.425
 20
55.4021
 11
131.346
 21
59.004
  0
LINE
  8
0
 10
131.346
 20
59.004
 11
128.562
 21
62.0949
  0
LINE
  8
0
 10
128.562
 20
62.0949
 11
125.198
 21
64.5396
  0
LINE
  8
0
 10
125.198
 20
64.5396
 11
121.398
 21
66.2313
  0
LINE
  8
0
 10
121.398
 20
66.2313
 11
117.33
 21
67.0961
  0
LINE
  8
0
 10
117.33
 20
67.0961
 11
114.72
 21
67.0961
  0
LINE
  8
0
 10
114.72
 20
67.0961
 11
114.72
 21
67.2051
  0
LINE
  8
0
 10
114.72
 20
67.2051
 11
109.603
 21
67.2051
  0
LINE
  8
0
 10
109.603
 20
67.2051
 11
109.603
 21
70.7051
  0
LINE
  8
0
 10
109.603
 20
70.7051
 11
104.073
 21
70.7051
  0
LINE
  8
0
 10
104.073
 20
70.7051
 11
104.073
 21
67.2051
  0
LINE
  8
0
 10
104.073
 20
67.2051
 11
93.8376
 21
67.2051
  0
LINE
  8
0
 10
93.8376
 20
67.2051
 11
93.8376
 21
70.7051
  0
LINE
  8
0
 10
93.8376
 20
70.7051
 11
88.3076
 21
70.7051
  0
LINE
  8
0
 10
88.3076
 20
70.7051
 11
88.3076
 21
67.2051
  0
LINE
  8
0
 10
88.3076
 20
67.2051
 11
83.1901
 21
67.2051
  0
LINE
  8
0
 10
83.1901
 20
67.2051
 11
83.1901
 21
67.0961
  0
LINE
  8
0
 10
83.1901
 20
67.0961
 11
80.5805
 21
67.0961
  0
LINE
  8
0
 10
80.5805
 20
67.0961
 11
76.5122
 21
66.2313
  0
LINE
  8
0
 10
76.5122
 20
66.2313
 11
72.7125
 21
64.5396
  0
LINE
  8
0
 10
72.7125
 20
64.5396
 11
69.3477
 21
62.0949
  0
LINE
  8
0
 10
69.3477
 20
62.0949
 11
66.5646
 21
59.004
  0
LINE
  8
0
 10
66.5646
 20
59.004
 11
64.485
 21
55.4021
  0
LINE
  8
0
 10
64.485
 20
55.4021
 11
63.1998
 21
51.4464
  0
LINE
  8
0
 10
63.1998
 20
51.4464
 11
62.765
 21
47.31
  0
LINE
  8
0
 10
62.765
 20
47.31
 11
62.8207
 21
46.78
  0
LINE
  8
0
 10
62.8207
 20
46.78
 11
62.765
 21
46.78
  0
LINE
  8
0
 10
62.765
 20
46.78
 11
62.765
 21
41.6625
  0
LINE
  8
0
 10
62.765
 20
41.6625
 11
59.265
 21
41.6625
  0
LINE
  8
0
 10
59.265
 20
41.6625
 11
59.265
 21
36.1325
  0
LINE
  8
0
 10
59.265
 20
36.1325
 11
62.765
 21
36.1325
  0
LINE
  8
0
 10
62.765
 20
36.1325
 11
62.765
 21
25.8975
  0
LINE
  8
0
 10
62.765
 20
25.8975
 11
59.265
 21
25.8975
  0
LINE
  8
0
 10
59.265
 20
25.8975
 11
59.265
 21
20.3675
  0
LINE
  8
0
 10
59.265
 20
20.3675
 11
62.765
 21
20.3675
  0
LINE
  8
0
 10
62.765
 20
20.3675
 11
62.765
 21
15.25
  0
LINE
  8
0
 10
62.765
 20
15.25
 11
62.8207
 21
15.25
  0
LINE
  8
0
 10
62.8207
 20
15.25
 11
62.765
 21
14.72
  0
LINE
  8
0
 10
62.765
 20
14.72
 11
63.1998
 21
10.5836
  0
LINE
  8
0
 10
63.1998
 20
10.5836
 11
64.485
 21
6.62794
  0
LINE
  8
0
 10
64.485
 20
6.62794
 11
66.5646
 21
3.02597
  0
LINE
  8
0
 10
66.5646
 20
3.02597
 11
69.3477
 21
-0.0648956
  0
LINE
  8
0
 10
69.3477
 20
-0.0648956
 11
72.7125
 21
-2.50961
  0
LINE
  8
0
 10
72.7125
 20
-2.50961
 11
76.5122
 21
-4.20131
  0
LINE
  8
0
 10
76.5122
 20
-4.20131
 11
80.5805
 21
-5.06606
  0
LINE
  8
0
 10
80.5805
 20
-5.06606
 11
83.1901
 21
-5.06606
  0
LINE
  8
0
 10
83.1901
 20
-5.06606
 11
83.1901
 21
-5.17505
  0
LINE
  8
0
 10
83.1901
 20
-5.17505
 11
88.3076
 21
-5.17505
  0
LINE
  8
0
 10
88.3076
 20
-5.17505
 11
88.3076
 21
-8.67505
  0
LINE
  8
0
 10
88.3076
 20
-8.67505
 11
93.8376
 21
-8.67505
  0
LINE
  8
0
 10
93.8376
 20
-8.67505
 11
93.8376
 21
-5.17505
  0
LINE
  8
0
 10
84.6901
 20
-1.67505
 11
84.6901
 21
-1.51802
  0
LINE
  8
0
 10
84.6901
 20
-1.51802
 11
84.3738
 21
-1.58524
  0
LINE
  8
0
 10
84.3738
 20
-1.58524
 11
80.9463
 21
-1.58524
  0
LINE
  8
0
 10
80.9463
 20
-1.58524
 11
77.5937
 21
-0.87262
  0
LINE
  8
0
 10
77.5937
 20
-0.87262
 11
74.4625
 21
0.521454
  0
LINE
  8
0
 10
74.4625
 20
0.521454
 11
71.6896
 21
2.53609
  0
LINE
  8
0
 10
71.6896
 20
2.53609
 11
69.3962
 21
5.08322
  0
LINE
  8
0
 10
69.3962
 20
5.08322
 11
67.6824
 21
8.05153
  0
LINE
  8
0
 10
67.6824
 20
8.05153
 11
66.6233
 21
11.3113
  0
LINE
  8
0
 10
66.6233
 20
11.3113
 11
66.265
 21
14.72
  0
LINE
  8
0
 10
66.265
 20
14.72
 11
66.4784
 21
16.75
  0
LINE
  8
0
 10
66.4784
 20
16.75
 11
66.265
 21
16.75
  0
LINE
  8
0
 10
66.265
 20
16.75
 11
66.265
 21
45.28
  0
LINE
  8
0
 10
66.265
 20
45.28
 11
66.4784
 21
45.28
  0
LINE
  8
0
 10
66.4784
 20
45.28
 11
66.265
 21
47.31
  0
LINE
  8
0
 10
66.265
 20
47.31
 11
66.6233
 21
50.7187
  0
LINE
  8
0
 10
66.6233
 20
50.7187
 11
67.6824
 21
53.9785
  0
LINE
  8
0
 10
67.6824
 20
53.9785
 11
69.3962
 21
56.9468
  0
LINE
  8
0
 10
69.3962
 20
56.9468
 11
71.6896
 21
59.4939
  0
LINE
  8
0
 10
71.6896
 20
59.4939
 11
74.4625
 21
61.5085
  0
LINE
  8
0
 10
74.4625
 20
61.5085
 11
77.5937
 21
62.9026
  0
LINE
  8
0
 10
77.5937
 20
62.9026
 11
80.9463
 21
63.6152
  0
LINE
  8
0
 10
80.9463
 20
63.6152
 11
84.3738
 21
63.6152
  0
LINE
  8
0
 10
84.3738
 20
63.6152
 11
84.6901
 21
63.548
  0
LINE
  8
0
 10
84.6901
 20
63.548
 11
84.6901
 21
63.7051
  0
LINE
  8
0
 10
84.6901
 20
63.7051
 11
113.22
 21
63.7051
  0
LINE
  8
0
 10
113.22
 20
63.7051
 11
113.22
 21
63.548
  0
LINE
  8
0
 10
113.22
 20
63.548
 11
113.536
 21
63.6152
  0
LINE
  8
0
 10
113.536
 20
63.6152
 11
116.964
 21
63.6152
  0
LINE
  8
0
 10
116.964
 20
63.6152
 11
120.316
 21
62.9026
  0
LINE
  8
0
 10
120.316
 20
62.9026
 11
123.448
 21
61.5085
  0
LINE
  8
0
 10
123.448
 20
61.5085
 11
126.221
 21
59.4939
  0
LINE
  8
0
 10
126.221
 20
59.4939
 11
128.514
 21
56.9468
  0
LINE
  8
0
 10
128.514
 20
56.9468
 11
130.228
 21
53.9785
  0
LINE
  8
0
 10
130.228
 20
53.9785
 11
131.287
 21
50.7187
  0
LINE
  8
0
 10
131.287
 20
50.7187
 11
131.645
 21
47.31
  0
LINE
  8
0
 10
131.645
 20
47.31
 11
131.432
 21
45.28
  0
LINE
  8
0
 10
131.432
 20
45.28
 11
131.645
 21
45.28
  0
LINE
  8
0
 10
131.645
 20
45.28
 11
131.645
 21
16.75
  0
LINE
  8
0
 10
131.645
 20
16.75
 11
131.432
 21
16.75
  0
LINE
  8
0
 10
131.432
 20
16.75
 11
131.645
 21
14.72
  0
LINE
  8
0
 10
131.645
 20
14.72
 11
131.287
 21
11.3113
  0
LINE
  8
0
 10
131.287
 20
11.3113
 11
130.228
 21
8.05153
  0
LINE
  8
0
 10
130.228
 20
8.05153
 11
128.514
 21
5.08322
  0
LINE
  8
0
 10
128.514
 20
5.08322
 11
126.221
 21
2.53609
  0
LINE
  8
0
 10
126.221
 20
2.53609
 11
123.448
 21
0.521454
  0
LINE
  8
0
 10
123.448
 20
0.521454
 11
120.316
 21
-0.87262
  0
LINE
  8
0
 10
120.316
 20
-0.87262
 11
116.964
 21
-1.58524
  0
LINE
  8
0
 10
116.964
 20
-1.58524
 11
113.536
 21
-1.58524
  0
LINE
  8
0
 10
113.536
 20
-1.58524
 11
113.22
 21
-1.51802
  0
LINE
  8
0
 10
113.22
 20
-1.51802
 11
113.22
 21
-1.67505
  0
LINE
  8
0
 10
113.22
 20
-1.67505
 11
84.6901
 21
-1.67505
  0
LINE
  8
0
 10
-52.235
 20
-29.265
 11
-47.765
 21
-29.265
  0
LINE
  8
0
 10
-47.765
 20
-29.265
 11
-47.765
 21
-32.765
  0
LINE
  8
0
 10
-47.765
 20
-32.765
 11
-42.235
 21
-32.765
  0
LINE
  8
0
 10
-42.235
 20
-32.765
 11
-42.235
 21
-29.265
  0
LINE
  8
0
 10
-42.235
 20
-29.265
 11
-37.765
 21
-29.265
  0
LINE
  8
0
 10
-37.765
 20
-29.265
 11
-37.765
 21
-32.765
  0
LINE
  8
0
 10
-37.765
 20
-32.765
 11
-32.235
 21
-32.765
  0
LINE
  8
0
 10
-32.235
 20
-32.765
 11
-32.235
 21
-29.265
  0
LINE
  8
0
 10
-32.235
 20
-29.265
 11
-27.765
 21
-29.265
  0
LINE
  8
0
 10
-27.765
 20
-29.265
 11
-27.765
 21
-32.765
  0
LINE
  8
0
 10
-27.765
 20
-32.765
 11
-22.235
 21
-32.765
  0
LINE
  8
0
 10
-22.235
 20
-32.765
 11
-22.235
 21
-29.265
  0
LINE
  8
0
 10
-22.235
 20
-29.265
 11
-17.765
 21
-29.265
  0
LINE
  8
0
 10
-17.765
 20
-29.265
 11
-17.765
 21
-32.765
  0
LINE
  8
0
 10
-17.765
 20
-32.765
 11
-12.235
 21
-32.765
  0
LINE
  8
0
 10
-12.235
 20
-32.765
 11
-12.235
 21
-29.265
  0
LINE
  8
0
 10
-12.235
 20
-29.265
 11
-7.765
 21
-29.265
  0
LINE
  8
0
 10
-7.765
 20
-29.265
 11
-7.765
 21
-32.765
  0
LINE
  8
0
 10
-7.765
 20
-32.765
 11
-2.235
 21
-32.765
  0
LINE
  8
0
 10
-2.235
 20
-32.765
 11
-2.235
 21
-29.265
  0
LINE
  8
0
 10
-2.235
 20
-29.265
 11
2.23499
 21
-29.265
  0
LINE
  8
0
 10
2.23499
 20
-29.265
 11
2.23499
 21
-32.765
  0
LINE
  8
0
 10
2.23499
 20
-32.765
 11
7.76498
 21
-32.765
  0
LINE
  8
0
 10
7.76498
 20
-32.765
 11
7.76498
 21
-29.265
  0
LINE
  8
0
 10
7.76498
 20
-29.265
 11
12.235
 21
-29.265
  0
LINE
  8
0
 10
12.235
 20
-29.265
 11
12.235
 21
-32.765
  0
LINE
  8
0
 10
12.235
 20
-32.765
 11
17.765
 21
-32.765
  0
LINE
  8
0
 10
17.765
 20
-32.765
 11
17.765
 21
-29.265
  0
LINE
  8
0
 10
17.765
 20
-29.265
 11
22.235
 21
-29.265
  0
LINE
  8
0
 10
22.235
 20
-29.265
 11
22.235
 21
-32.765
  0
LINE
  8
0
 10
22.235
 20
-32.765
 11
27.765
 21
-32.765
  0
LINE
  8
0
 10
27.765
 20
-32.765
 11
27.765
 21
-29.265
  0
LINE
  8
0
 10
27.765
 20
-29.265
 11
32.235
 21
-29.265
  0
LINE
  8
0
 10
32.235
 20
-29.265
 11
32.235
 21
-32.765
  0
LINE
  8
0
 10
32.235
 20
-32.765
 11
37.765
 21
-32.765
  0
LINE
  8
0
 10
37.765
 20
-32.765
 11
37.765
 21
-29.265
  0
LINE
  8
0
 10
37.765
 20
-29.265
 11
42.235
 21
-29.265
  0
LINE
  8
0
 10
42.235
 20
-29.265
 11
42.235
 21
-32.765
  0
LINE
  8
0
 10
42.235
 20
-32.765
 11
47.765
 21
-32.765
  0
LINE
  8
0
 10
47.765
 20
-32.765
 11
47.765
 21
-29.265
  0
LINE
  8
0
 10
47.765
 20
-29.265
 11
52.235
 21
-29.265
  0
LINE
  8
0
 10
52.235
 20
-29.265
 11
52.235
 21
-32.765
  0
LINE
  8
0
 10
52.235
 20
-32.765
 11
57.765
 21
-32.765
  0
LINE
  8
0
 10
57.765
 20
-32.765
 11
57.765
 21
-25.3675
  0
LINE
  8
0
 10
57.765
 20
-25.3675
 11
54.265
 21
-25.3675
  0
LINE
  8
0
 10
54.265
 20
-25.3675
 11
54.265
 21
-20.8975
  0
LINE
  8
0
 10
54.265
 20
-20.8975
 11
57.765
 21
-20.8975
  0
LINE
  8
0
 10
57.765
 20
-20.8975
 11
57.765
 21
-14.25
  0
LINE
  8
0
 10
57.765
 20
-14.25
 11
39.51
 21
-14.25
  0
LINE
  8
0
 10
39.51
 20
-14.25
 11
39.51
 21
-13.75
  0
LINE
  8
0
 10
39.51
 20
-13.75
 11
57.765
 21
-13.75
  0
LINE
  8
0
 10
57.765
 20
-13.75
 11
57.765
 21
-10.25
  0
LINE
  8
0
 10
57.765
 20
-10.25
 11
39.51
 21
-10.25
  0
LINE
  8
0
 10
39.51
 20
-10.25
 11
39.51
 21
-9.75
  0
LINE
  8
0
 10
39.51
 20
-9.75
 11
57.765
 21
-9.75
  0
LINE
  8
0
 10
57.765
 20
-9.75
 11
57.765
 21
-6.25
  0
LINE
  8
0
 10
57.765
 20
-6.25
 11
39.51
 21
-6.25
  0
LINE
  8
0
 10
39.51
 20
-6.25
 11
39.51
 21
-5.75
  0
LINE
  8
0
 10
39.51
 20
-5.75
 11
57.765
 21
-5.75
  0
LINE
  8
0
 10
57.765
 20
-5.75
 11
57.765
 21
-2.25
  0
LINE
  8
0
 10
57.765
 20
-2.25
 11
39.51
 21
-2.25
  0
LINE
  8
0
 10
39.51
 20
-2.25
 11
39.51
 21
-1.75
  0
LINE
  8
0
 10
39.51
 20
-1.75
 11
57.765
 21
-1.75
  0
LINE
  8
0
 10
57.765
 20
-1.75
 11
57.765
 21
1.75
  0
LINE
  8
0
 10
57.765
 20
1.75
 11
39.51
 21
1.75
  0
LINE
  8
0
 10
39.51
 20
1.75
 11
39.51
 21
2.25
  0
LINE
  8
0
 10
39.51
 20
2.25
 11
57.765
 21
2.25
  0
LINE
  8
0
 10
57.765
 20
2.25
 11
57.765
 21
5.75
  0
LINE
  8
0
 10
57.765
 20
5.75
 11
39.51
 21
5.75
  0
LINE
  8
0
 10
39.51
 20
5.75
 11
39.51
 21
6.25
  0
LINE
  8
0
 10
39.51
 20
6.25
 11
57.765
 21
6.25
  0
LINE
  8
0
 10
57.765
 20
6.25
 11
57.765
 21
9.75
  0
LINE
  8
0
 10
57.765
 20
9.75
 11
39.51
 21
9.75
  0
LINE
  8
0
 10
39.51
 20
9.75
 11
39.51
 21
10.25
  0
LINE
  8
0
 10
39.51
 20
10.25
 11
57.765
 21
10.25
  0
LINE
  8
0
 10
57.765
 20
10.25
 11
57.765
 21
13.75
  0
LINE
  8
0
 10
57.765
 20
13.75
 11
39.51
 21
13.75
  0
LINE
  8
0
 10
39.51
 20
13.75
 11
39.51
 21
14.25
  0
LINE
  8
0
 10
39.51
 20
14.25
 11
57.765
 21
14.25
  0
LINE
  8
0
 10
57.765
 20
14.25
 11
57.765
 21
20.8975
  0
LINE
  8
0
 10
57.765
 20
20.8975
 11
54.265
 21
20.8975
  0
LINE
  8
0
 10
54.265
 20
20.8975
 11
54.265
 21
25.3675
  0
LINE
  8
0
 10
54.265
 20
25.3675
 11
57.765
 21
25.3675
  0
LINE
  8
0
 10
57.765
 20
25.3675
 11
57.765
 21
29.265
  0
LINE
  8
0
 10
57.765
 20
29.265
 11
52.765
 21
29.265
  0
LINE
  8
0
 10
52.765
 20
29.265
 11
52.765
 21
32.765
  0
LINE
  8
0
 10
52.765
 20
32.765
 11
47.235
 21
32.765
  0
LINE
  8
0
 10
47.235
 20
32.765
 11
47.235
 21
29.265
  0
LINE
  8
0
 10
47.235
 20
29.265
 11
42.765
 21
29.265
  0
LINE
  8
0
 10
42.765
 20
29.265
 11
42.765
 21
32.765
  0
LINE
  8
0
 10
42.765
 20
32.765
 11
37.235
 21
32.765
  0
LINE
  8
0
 10
37.235
 20
32.765
 11
37.235
 21
29.265
  0
LINE
  8
0
 10
37.235
 20
29.265
 11
32.765
 21
29.265
  0
LINE
  8
0
 10
32.765
 20
29.265
 11
32.765
 21
32.765
  0
LINE
  8
0
 10
32.765
 20
32.765
 11
27.235
 21
32.765
  0
LINE
  8
0
 10
27.235
 20
32.765
 11
27.235
 21
29.265
  0
LINE
  8
0
 10
27.235
 20
29.265
 11
22.765
 21
29.265
  0
LINE
  8
0
 10
22.765
 20
29.265
 11
22.765
 21
32.765
  0
LINE
  8
0
 10
22.765
 20
32.765
 11
17.235
 21
32.765
  0
LINE
  8
0
 10
17.235
 20
32.765
 11
17.235
 21
29.265
  0
LINE
  8
0
 10
17.235
 20
29.265
 11
12.765
 21
29.265
  0
LINE
  8
0
 10
12.765
 20
29.265
 11
12.765
 21
32.765
  0
LINE
  8
0
 10
12.765
 20
32.765
 11
7.23497
 21
32.765
  0
LINE
  8
0
 10
7.23497
 20
32.765
 11
7.23497
 21
29.265
  0
LINE
  8
0
 10
7.23497
 20
29.265
 11
2.76498
 21
29.265
  0
LINE
  8
0
 10
2.76498
 20
29.265
 11
2.76498
 21
32.765
  0
LINE
  8
0
 10
2.76498
 20
32.765
 11
-2.76501
 21
32.765
  0
LINE
  8
0
 10
-2.76501
 20
32.765
 11
-2.76501
 21
29.265
  0
LINE
  8
0
 10
-2.76501
 20
29.265
 11
-7.235
 21
29.265
  0
LINE
  8
0
 10
-7.235
 20
29.265
 11
-7.235
 21
32.765
  0
LINE
  8
0
 10
-7.235
 20
32.765
 11
-12.765
 21
32.765
  0
LINE
  8
0
 10
-12.765
 20
32.765
 11
-12.765
 21
29.265
  0
LINE
  8
0
 10
-12.765
 20
29.265
 11
-17.235
 21
29.265
  0
LINE
  8
0
 10
-17.235
 20
29.265
 11
-17.235
 21
32.765
  0
LINE
  8
0
 10
-17.235
 20
32.765
 11
-22.765
 21
32.765
  0
LINE
  8
0
 10
-22.765
 20
32.765
 11
-22.765
 21
29.265
  0
LINE
  8
0
 10
-22.765
 20
29.265
 11
-27.235
 21
29.265
  0
LINE
  8
0
 10
-27.235
 20
29.265
 11
-27.235
 21
32.765
  0
LINE
  8
0
 10
-27.235
 20
32.765
 11
-32.765
 21
32.765
  0
LINE
  8
0
 10
-32.765
 20
32.765
 11
-32.765
 21
29.265
  0
LINE
  8
0
 10
-32.765
 20
29.265
 11
-37.235
 21
29.265
  0
LINE
  8
0
 10
-37.235
 20
29.265
 11
-37.235
 21
32.765
  0
LINE
  8
0
 10
-37.235
 20
32.765
 11
-42.765
 21
32.765
  0
LINE
  8
0
 10
-42.765
 20
32.765
 11
-42.765
 21
29.265
  0
LINE
  8
0
 10
-42.765
 20
29.265
 11
-47.235
 21
29.265
  0
LINE
  8
0
 10
-47.235
 20
29.265
 11
-47.235
 21
32.765
  0
LINE
  8
0
 10
-47.235
 20
32.765
 11
-52.765
 21
32.765
  0
LINE
  8
0
 10
-52.765
 20
32.765
 11
-52.765
 21
29.265
  0
LINE
  8
0
 10
-52.765
 20
29.265
 11
-57.235
 21
29.265
  0
LINE
  8
0
 10
-57.235
 20
29.265
 11
-57.235
 21
32.765
  0
LINE
  8
0
 10
-57.235
 20
32.765
 11
-57.765
 21
32.765
  0
LINE
  8
0
 10
-57.765
 20
32.765
 11
-57.765
 21
25.3675
  0
LINE
  8
0
 10
-57.765
 20
25.3675
 11
-54.265
 21
25.3675
  0
LINE
  8
0
 10
-54.265
 20
25.3675
 11
-54.265
 21
20.8975
  0
LINE
  8
0
 10
-54.265
 20
20.8975
 11
-57.765
 21
20.8975
  0
LINE
  8
0
 10
-57.765
 20
20.8975
 11
-57.765
 21
16.25
  0
LINE
  8
0
 10
-57.765
 20
16.25
 11
-20.5883
 21
16.25
  0
LINE
  8
0
 10
-20.5883
 20
16.25
 11
-20.5883
 21
15.75
  0
LINE
  8
0
 10
-20.5883
 20
15.75
 11
-57.765
 21
15.75
  0
LINE
  8
0
 10
-57.765
 20
15.75
 11
-57.765
 21
14.25
  0
LINE
  8
0
 10
-57.765
 20
14.25
 11
-39.51
 21
14.25
  0
LINE
  8
0
 10
-39.51
 20
14.25
 11
-39.51
 21
13.75
  0
LINE
  8
0
 10
-39.51
 20
13.75
 11
-57.765
 21
13.75
  0
LINE
  8
0
 10
-57.765
 20
13.75
 11
-57.765
 21
12.25
  0
LINE
  8
0
 10
-57.765
 20
12.25
 11
-20.5883
 21
12.25
  0
LINE
  8
0
 10
-20.5883
 20
12.25
 11
-20.5883
 21
11.75
  0
LINE
  8
0
 10
-20.5883
 20
11.75
 11
-57.765
 21
11.75
  0
LINE
  8
0
 10
-57.765
 20
11.75
 11
-57.765
 21
10.25
  0
LINE
  8
0
 10
-57.765
 20
10.25
 11
-39.51
 21
10.25
  0
LINE
  8
0
 10
-39.51
 20
10.25
 11
-39.51
 21
9.75
  0
LINE
  8
0
 10
-39.51
 20
9.75
 11
-57.765
 21
9.75
  0
LINE
  8
0
 10
-57.765
 20
9.75
 11
-57.765
 21
8.25
  0
LINE
  8
0
 10
-57.765
 20
8.25
 11
-20.5883
 21
8.25
  0
LINE
  8
0
 10
-20.5883
 20
8.25
 11
-20.5883
 21
7.75
  0
LINE
  8
0
 10
-20.5883
 20
7.75
 11
-57.765
 21
7.75
  0
LINE
  8
0
 10
-57.765
 20
7.75
 11
-57.765
 21
6.25
  0
LINE
  8
0
 10
-57.765
 20
6.25
 11
-39.51
 21
6.25
  0
LINE
  8
0
 10
-39.51
 20
6.25
 11
-39.51
 21
5.75
  0
LINE
  8
0
 10
-39.51
 20
5.75
 11
-57.765
 21
5.75
  0
LINE
  8
0
 10
-57.765
 20
5.75
 11
-57.765
 21
4.25
  0
LINE
  8
0
 10
-57.765
 20
4.25
 11
-20.5883
 21
4.25
  0
LINE
  8
0
 10
-20.5883
 20
4.25
 11
-20.5883
 21
3.75
  0
LINE
  8
0
 10
-20.5883
 20
3.75
 11
-57.765
 21
3.75
  0
LINE
  8
0
 10
-57.765
 20
3.75
 11
-57.765
 21
2.25
  0
LINE
  8
0
 10
-57.765
 20
2.25
 11
-39.51
 21
2.25
  0
LINE
  8
0
 10
-39.51
 20
2.25
 11
-39.51
 21
1.75
  0
LINE
  8
0
 10
-39.51
 20
1.75
 11
-57.765
 21
1.75
  0
LINE
  8
0
 10
-57.765
 20
1.75
 11
-57.765
 21
0.25
  0
LINE
  8
0
 10
-57.765
 20
0.25
 11
-20.5883
 21
0.25
  0
LINE
  8
0
 10
-20.5883
 20
0.25
 11
-20.5883
 21
-0.25
  0
LINE
  8
0
 10
-20.5883
 20
-0.25
 11
-57.765
 21
-0.25
  0
LINE
  8
0
 10
-57.765
 20
-0.25
 11
-57.765
 21
-1.75
  0
LINE
  8
0
 10
-57.765
 20
-1.75
 11
-39.51
 21
-1.75
  0
LINE
  8
0
 10
-39.51
 20
-1.75
 11
-39.51
 21
-2.25
  0
LINE
  8
0
 10
-39.51
 20
-2.25
 11
-57.765
 21
-2.25
  0
LINE
  8
0
 10
-57.765
 20
-2.25
 11
-57.765
 21
-3.75
  0
LINE
  8
0
 10
-57.765
 20
-3.75
 11
-20.5883
 21
-3.75
  0
LINE
  8
0
 10
-20.5883
 20
-3.75
 11
-20.5883
 21
-4.25
  0
LINE
  8
0
 10
-20.5883
 20
-4.25
 11
-57.765
 21
-4.25
  0
LINE
  8
0
 10
-57.765
 20
-4.25
 11
-57.765
 21
-5.75
  0
LINE
  8
0
 10
-57.765
 20
-5.75
 11
-39.51
 21
-5.75
  0
LINE
  8
0
 10
-39.51
 20
-5.75
 11
-39.51
 21
-6.25
  0
LINE
  8
0
 10
-39.51
 20
-6.25
 11
-57.765
 21
-6.25
  0
LINE
  8
0
 10
-57.765
 20
-6.25
 11
-57.765
 21
-7.75
  0
LINE
  8
0
 10
-57.765
 20
-7.75
 11
-20.5883
 21
-7.75
  0
LINE
  8
0
 10
-20.5883
 20
-7.75
 11
-20.5883
 21
-8.25
  0
LINE
  8
0
 10
-20.5883
 20
-8.25
 11
-57.765
 21
-8.25
  0
LINE
  8
0
 10
-57.765
 20
-8.25
 11
-57.765
 21
-9.75
  0
LINE
  8
0
 10
-57.765
 20
-9.75
 11
-39.51
 21
-9.75
  0
LINE
  8
0
 10
-39.51
 20
-9.75
 11
-39.51
 21
-10.25
  0
LINE
  8
0
 10
-39.51
 20
-10.25
 11
-57.765
 21
-10.25
  0
LINE
  8
0
 10
-57.765
 20
-10.25
 11
-57.765
 21
-11.75
  0
LINE
  8
0
 10
-57.765
 20
-11.75
 11
-20.5883
 21
-11.75
  0
LINE
  8
0
 10
-20.5883
 20
-11.75
 11
-20.5883
 21
-12.25
  0
LINE
  8
0
 10
-20.5883
 20
-12.25
 11
-57.765
 21
-12.25
  0
LINE
  8
0
 10
-57.765
 20
-12.25
 11
-57.765
 21
-13.75
  0
LINE
  8
0
 10
-57.765
 20
-13.75
 11
-39.51
 21
-13.75
  0
LINE
  8
0
 10
-39.51
 20
-13.75
 11
-39.51
 21
-14.25
  0
LINE
  8
0
 10
-39.51
 20
-14.25
 11
-57.765
 21
-14.25
  0
LINE
  8
0
 10
-57.765
 20
-14.25
 11
-57.765
 21
-15.75
  0
LINE
  8
0
 10
-57.765
 20
-15.75
 11
-20.5883
 21
-15.75
  0
LINE
  8
0
 10
-20.5883
 20
-15.75
 11
-20.5883
 21
-16.25
  0
LINE
  8
0
 10
-20.5883
 20
-16.25
 11
-57.765
 21
-16.25
  0
LINE
  8
0
 10
-57.765
 20
-16.25
 11
-57.765
 21
-20.8975
  0
LINE
  8
0
 10
-57.765
 20
-20.8975
 11
-54.265
 21
-20.8975
  0
LINE
  8
0
 10
-54.265
 20
-20.8975
 11
-54.265
 21
-25.3675
  0
LINE
  8
0
 10
-54.265
 20
-25.3675
 11
-57.765
 21
-25.3675
  0
LINE
  8
0
 10
-57.765
 20
-25.3675
 11
-57.765
 21
-32.765
  0
LINE
  8
0
 10
-57.765
 20
-32.765
 11
-52.235
 21
-32.765
  0
LINE
  8
0
 10
-52.235
 20
-32.765
 11
-52.235
 21
-29.265
  0
LINE
  8
0
 10
20.5883
 20
15.75
 11
20.5883
 21
16.25
  0
LINE
  8
0
 10
20.5883
 20
16.25
 11
57.765
 21
16.25
  0
LINE
  8
0
 10
57.765
 20
16.25
 11
57.765
 21
15.75
  0
LINE
  8
0
 10
57.765
 20
15.75
 11
20.5883
 21
15.75
  0
LINE
  8
0
 10
-18.5883
 20
15.75
 11
-18.5883
 21
16.25
  0
LINE
  8
0
 10
-18.5883
 20
16.25
 11
18.5883
 21
16.25
  0
LINE
  8
0
 10
18.5883
 20
16.25
 11
18.5883
 21
15.75
  0
LINE
  8
0
 10
18.5883
 20
15.75
 11
-18.5883
 21
15.75
  0
LINE
  8
0
 10
-37.51
 20
13.75
 11
-37.51
 21
14.25
  0
LINE
  8
0
 10
-37.51
 20
14.25
 11
-1.00002
 21
14.25
  0
LINE
  8
0
 10
-1.00002
 20
14.25
 11
-1.00002
 21
13.75
  0
LINE
  8
0
 10
-1.00002
 20
13.75
 11
-37.51
 21
13.75
  0
LINE
  8
0
 10
0.999969
 20
13.75
 11
0.999969
 21
14.25
  0
LINE
  8
0
 10
0.999969
 20
14.25
 11
37.51
 21
14.25
  0
LINE
  8
0
 10
37.51
 20
14.25
 11
37.51
 21
13.75
  0
LINE
  8
0
 10
37.51
 20
13.75
 11
0.999969
 21
13.75
  0
LINE
  8
0
 10
-18.5883
 20
11.75
 11
-18.5883
 21
12.25
  0
LINE
  8
0
 10
-18.5883
 20
12.25
 11
18.5883
 21
12.25
  0
LINE
  8
0
 10
18.5883
 20
12.25
 11
18.5883
 21
11.75
  0
LINE
  8
0
 10
18.5883
 20
11.75
 11
-18.5883
 21
11.75
  0
LINE
  8
0
 10
20.5883
 20
11.75
 11
20.5883
 21
12.25
  0
LINE
  8
0
 10
20.5883
 20
12.25
 11
57.765
 21
12.25
  0
LINE
  8
0
 10
57.765
 20
12.25
 11
57.765
 21
11.75
  0
LINE
  8
0
 10
57.765
 20
11.75
 11
20.5883
 21
11.75
  0
LINE
  8
0
 10
-37.51
 20
9.75
 11
-37.51
 21
10.25
  0
LINE
  8
0
 10
-37.51
 20
10.25
 11
-1.00002
 21
10.25
  0
LINE
  8
0
 10
-1.00002
 20
10.25
 11
-1.00002
 21
9.75
  0
LINE
  8
0
 10
-1.00002
 20
9.75
 11
-37.51
 21
9.75
  0
LINE
  8
0
 10
0.999969
 20
9.75
 11
0.999969
 21
10.25
  0
LINE
  8
0
 10
0.999969
 20
10.25
 11
37.51
 21
10.25
  0
LINE
  8
0
 10
37.51
 20
10.25
 11
37.51
 21
9.75
  0
LINE
  8
0
 10
37.51
 20
9.75
 11
0.999969
 21
9.75
  0
LINE
  8
0
 10
-18.5883
 20
7.75
 11
-18.5883
 21
8.25
  0
LINE
  8
0
 10
-18.5883
 20
8.25
 11
18.5883
 21
8.25
  0
LINE
  8
0
 10
18.5883
 20
8.25
 11
18.5883
 21
7.75
  0
LINE
  8
0
 10
18.5883
 20
7.75
 11
-18.5883
 21
7.75
  0
LINE
  8
0
 10
20.5883
 20
7.75
 11
20.5883
 21
8.25
  0
LINE
  8
0
 10
20.5883
 20
8.25
 11
57.765
 21
8.25
  0
LINE
  8
0
 10
57.765
 20
8.25
 11
57.765
 21
7.75
  0
LINE
  8
0
 10
57.765
 20
7.75
 11
20.5883
 21
7.75
  0
LINE
  8
0
 10
0.999969
 20
5.75
 11
0.999969
 21
6.25
  0
LINE
  8
0
 10
0.999969
 20
6.25
 11
37.51
 21
6.25
  0
LINE
  8
0
 10
37.51
 20
6.25
 11
37.51
 21
5.75
  0
LINE
  8
0
 10
37.51
 20
5.75
 11
0.999969
 21
5.75
  0
LINE
  8
0
 10
-37.51
 20
5.75
 11
-37.51
 21
6.25
  0
LINE
  8
0
 10
-37.51
 20
6.25
 11
-1.00002
 21
6.25
  0
LINE
  8
0
 10
-1.00002
 20
6.25
 11
-1.00002
 21
5.75
  0
LINE
  8
0
 10
-1.00002
 20
5.75
 11
-37.51
 21
5.75
  0
LINE
  8
0
 10
-18.5883
 20
3.75
 11
-18.5883
 21
4.25
  0
LINE
  8
0
 10
-18.5883
 20
4.25
 11
18.5883
 21
4.25
  0
LINE
  8
0
 10
18.5883
 20
4.25
 11
18.5883
 21
3.75
  0
LINE
  8
0
 10
18.5883
 20
3.75
 11
-18.5883
 21
3.75
  0
LINE
  8
0
 10
20.5883
 20
3.75
 11
20.5883
 21
4.25
  0
LINE
  8
0
 10
20.5883
 20
4.25
 11
57.765
 21
4.25
  0
LINE
  8
0
 10
57.765
 20
4.25
 11
57.765
 21
3.75
  0
LINE
  8
0
 10
57.765
 20
3.75
 11
20.5883
 21
3.75
  0
LINE
  8
0
 10
0.999969
 20
1.75
 11
0.999969
 21
2.25
  0
LINE
  8
0
 10
0.999969
 20
2.25
 11
37.51
 21
2.25
  0
LINE
  8
0
 10
37.51
 20
2.25
 11
37.51
 21
1.75
  0
LINE
  8
0
 10
37.51
 20
1.75
 11
0.999969
 21
1.75
  0
LINE
  8
0
 10
-37.51
 20
1.75
 11
-37.51
 21
2.25
  0
LINE
  8
0
 10
-37.51
 20
2.25
 11
-1.00002
 21
2.25
  0
LINE
  8
0
 10
-1.00002
 20
2.25
 11
-1.00002
 21
1.75
  0
LINE
  8
0
 10
-1.00002
 20
1.75
 11
-37.51
 21
1.75
  0
LINE
  8
0
 10
-18.5883
 20
-0.25
 11
-18.5883
 21
0.25
  0
LINE
  8
0
 10
-18.5883
 20
0.25
 11
18.5883
 21
0.25
  0
LINE
  8
0
 10
18.5883
 20
0.25
 11
18.5883
 21
-0.25
  0
LINE
  8
0
 10
18.5883
 20
-0.25
 11
-18.5883
 21
-0.25
  0
LINE
  8
0
 10
20.5883
 20
-0.25
 11
20.5883
 21
0.25
  0
LINE
  8
0
 10
20.5883
 20
0.25
 11
57.765
 21
0.25
  0
LINE
  8
0
 10
57.765
 20
0.25
 11
57.765
 21
-0.25
  0
LINE
  8
0
 10
57.765
 20
-0.25
 11
20.5883
 21
-0.25
  0
LINE
  8
0
 10
-37.51
 20
-2.25
 11
-37.51
 21
-1.75
  0
LINE
  8
0
 10
-37.51
 20
-1.75
 11
-1.00002
 21
-1.75
  0
LINE
  8
0
 10
-1.00002
 20
-1.75
 11
-1.00002
 21
-2.25
  0
LINE
  8
0
 10
-1.00002
 20
-2.25
 11
-37.51
 21
-2.25
  0
LINE
  8
0
 10
0.999969
 20
-2.25
 11
0.999969
 21
-1.75
  0
LINE
  8
0
 10
0.999969
 20
-1.75
 11
37.51
 21
-1.75
  0
LINE
  8
0
 10
37.51
 20
-1.75
 11
37.51
 21
-2.25
  0
LINE
  8
0
 10
37.51
 20
-2.25
 11
0.999969
 21
-2.25
  0
LINE
  8
0
 10
-18.5883
 20
-4.25
 11
-18.5883
 21
-3.75
  0
LINE
  8
0
 10
-18.5883
 20
-3.75
 11
18.5883
 21
-3.75
  0
LINE
  8
0
 10
18.5883
 20
-3.75
 11
18.5883
 21
-4.25
  0
LINE
  8
0
 10
18.5883
 20
-4.25
 11
-18.5883
 21
-4.25
  0
LINE
  8
0
 10
20.5883
 20
-4.25
 11
20.5883
 21
-3.75
  0
LINE
  8
0
 10
20.5883
 20
-3.75
 11
57.765
 21
-3.75
  0
LINE
  8
0
 10
57.765
 20
-3.75
 11
57.765
 21
-4.25
  0
LINE
  8
0
 10
57.765
 20
-4.25
 11
20.5883
 21
-4.25
  0
LINE
  8
0
 10
-37.51
 20
-6.25
 11
-37.51
 21
-5.75
  0
LINE
  8
0
 10
-37.51
 20
-5.75
 11
-1.00002
 21
-5.75
  0
LINE
  8
0
 10
-1.00002
 20
-5.75
 11
-1.00002
 21
-6.25
  0
LINE
  8
0
 10
-1.00002
 20
-6.25
 11
-37.51
 21
-6.25
  0
LINE
  8
0
 10
0.999969
 20
-6.25
 11
0.999969
 21
-5.75
  0
LINE
  8
0
 10
0.999969
 20
-5.75
 11
37.51
 21
-5.75
  0
LINE
  8
0
 10
37.51
 20
-5.75
 11
37.51
 21
-6.25
  0
LINE
  8
0
 10
37.51
 20
-6.25
 11
0.999969
 21
-6.25
  0
LINE
  8
0
 10
20.5883
 20
-8.25
 11
20.5883
 21
-7.75
  0
LINE
  8
0
 10
20.5883
 20
-7.75
 11
57.765
 21
-7.75
  0
LINE
  8
0
 10
57.765
 20
-7.75
 11
57.765
 21
-8.25
  0
LINE
  8
0
 10
57.765
 20
-8.25
 11
20.5883
 21
-8.25
  0
LINE
  8
0
 10
-18.5883
 20
-8.25
 11
-18.5883
 21
-7.75
  0
LINE
  8
0
 10
-18.5883
 20
-7.75
 11
18.5883
 21
-7.75
  0
LINE
  8
0
 10
18.5883
 20
-7.75
 11
18.5883
 21
-8.25
  0
LINE
  8
0
 10
18.5883
 20
-8.25
 11
-18.5883
 21
-8.25
  0
LINE
  8
0
 10
-37.51
 20
-10.25
 11
-37.51
 21
-9.75
  0
LINE
  8
0
 10
-37.51
 20
-9.75
 11
-1.00002
 21
-9.75
  0
LINE
  8
0
 10
-1.00002
 20
-9.75
 11
-1.00002
 21
-10.25
  0
LINE
  8
0
 10
-1.00002
 20
-10.25
 11
-37.51
 21
-10.25
  0
LINE
  8
0
 10
0.999969
 20
-10.25
 11
0.999969
 21
-9.75
  0
LINE
  8
0
 10
0.999969
 20
-9.75
 11
37.51
 21
-9.75
  0
LINE
  8
0
 10
37.51
 20
-9.75
 11
37.51
 21
-10.25
  0
LINE
  8
0
 10
37.51
 20
-10.25
 11
0.999969
 21
-10.25
  0
LINE
  8
0
 10
-18.5883
 20
-12.25
 11
-18.5883
 21
-11.75
  0
LINE
  8
0
 10
-18.5883
 20
-11.75
 11
18.5883
 21
-11.75
  0
LINE
  8
0
 10
18.5883
 20
-11.75
 11
18.5883
 21
-12.25
  0
LINE
  8
0
 10
18.5883
 20
-12.25
 11
-18.5883
 21
-12.25
  0
LINE
  8
0
 10
20.5883
 20
-12.25
 11
20.5883
 21
-11.75
  0
LINE
  8
0
 10
20.5883
 20
-11.75
 11
57.765
 21
-11.75
  0
LINE
  8
0
 10
57.765
 20
-11.75
 11
57.765
 21
-12.25
  0
LINE
  8
0
 10
57.765
 20
-12.25
 11
20.5883
 21
-12.25
  0
LINE
  8
0
 10
0.999969
 20
-14.25
 11
0.999969
 21
-13.75
  0
LINE
  8
0
 10
0.999969
 20
-13.75
 11
37.51
 21
-13.75
  0
LINE
  8
0
 10
37.51
 20
-13.75
 11
37.51
 21
-14.25
  0
LINE
  8
0
 10
37.51
 20
-14.25
 11
0.999969
 21
-14.25
  0
LINE
  8
0
 10
-37.51
 20
-14.25
 11
-37.51
 21
-13.75
  0
LINE
  8
0
 10
-37.51
 20
-13.75
 11
-1.00002
 21
-13.75
  0
LINE
  8
0
 10
-1.00002
 20
-13.75
 11
-1.00002
 21
-14.25
  0
LINE
  8
0
 10
-1.00002
 20
-14.25
 11
-37.51
 21
-14.25
  0
LINE
  8
0
 10
20.5883
 20
-16.25
 11
20.5883
 21
-15.75
  0
LINE
  8
0
 10
20.5883
 20
-15.75
 11
57.765
 21
-15.75
  0
LINE
  8
0
 10
57.765
 20
-15.75
 11
57.765
 21
-16.25
  0
LINE
  8
0
 10
57.765
 20
-16.25
 11
20.5883
 21
-16.25
  0
LINE
  8
0
 10
-18.5883
 20
-16.25
 11
-18.5883
 21
-15.75
  0
LINE
  8
0
 10
-18.5883
 20
-15.75
 11
18.5883
 21
-15.75
  0
LINE
  8
0
 10
18.5883
 20
-15.75
 11
18.5883
 21
-16.25
  0
LINE
  8
0
 10
18.5883
 20
-16.25
 11
-18.5883
 21
-16.25
  0
ENDSEC
  0
SECTION
  2
OBJECTS
  0
DICTIONARY
  0
ENDSEC
  0
EOF
