<?xml version="1.0" standalone="no"?>
<!DOCTYPE svg PUBLIC "-//W3C//DTD SVG 1.1//EN" "http://www.w3.org/Graphics/SVG/1.1/DTD/svg11.dtd">
<svg width="276" height="277" viewBox="-138 -244 276 277" xmlns="http://www.w3.org/2000/svg" version="1.1">
<title>OpenSCAD Model</title>
<path d="
M -52.345,-181.775 L -47.655,-181.775 L -47.655,-178.275 L -42.345,-178.275 L -42.345,-181.775 L -37.655,-181.775
 L -37.655,-178.275 L -32.345,-178.275 L -32.345,-181.775 L -27.655,-181.775 L -27.655,-178.275 L -22.345,-178.275
 L -22.345,-181.775 L -17.655,-181.775 L -17.655,-178.275 L -12.345,-178.275 L -12.345,-181.775 L -7.655,-181.775
 L -7.655,-178.275 L -2.345,-178.275 L -2.345,-181.775 L 2.34499,-181.775 L 2.34499,-178.275 L 7.65498,-178.275
 L 7.65498,-181.775 L 12.345,-181.775 L 12.345,-178.275 L 17.655,-178.275 L 17.655,-181.775 L 22.345,-181.775
 L 22.345,-178.275 L 27.655,-178.275 L 27.655,-181.775 L 32.345,-181.775 L 32.345,-178.275 L 37.655,-178.275
 L 37.655,-181.775 L 42.345,-181.775 L 42.345,-178.275 L 47.655,-178.275 L 47.655,-181.775 L 52.345,-181.775
 L 52.345,-178.275 L 57.655,-178.275 L 57.655,-185.508 L 54.155,-185.508 L 54.155,-190.197 L 57.655,-190.197
 L 57.655,-196.68 L 39.4366,-196.68 L 39.4366,-197.18 L 57.655,-197.18 L 57.655,-200.68 L 39.4366,-200.68
 L 39.4366,-201.18 L 57.655,-201.18 L 57.655,-204.68 L 39.4366,-204.68 L 39.4366,-205.18 L 57.655,-205.18
 L 57.655,-208.68 L 39.4366,-208.68 L 39.4366,-209.18 L 57.655,-209.18 L 57.655,-212.68 L 39.4366,-212.68
 L 39.4366,-213.18 L 57.655,-213.18 L 57.655,-216.68 L 39.4366,-216.68 L 39.4366,-217.18 L 57.655,-217.18
 L 57.655,-220.68 L 39.4366,-220.68 L 39.4366,-221.18 L 57.655,-221.18 L 57.655,-224.68 L 39.4366,-224.68
 L 39.4366,-225.18 L 57.655,-225.18 L 57.655,-231.663 L 54.155,-231.663 L 54.155,-236.352 L 57.655,-236.352
 L 57.655,-240.085 L 52.655,-240.085 L 52.655,-243.585 L 47.345,-243.585 L 47.345,-240.085 L 42.655,-240.085
 L 42.655,-243.585 L 37.345,-243.585 L 37.345,-240.085 L 32.655,-240.085 L 32.655,-243.585 L 27.345,-243.585
 L 27.345,-240.085 L 22.655,-240.085 L 22.655,-243.585 L 17.345,-243.585 L 17.345,-240.085 L 12.655,-240.085
 L 12.655,-243.585 L 7.34497,-243.585 L 7.34497,-240.085 L 2.65498,-240.085 L 2.65498,-243.585 L -2.65501,-243.585
 L -2.65501,-240.085 L -7.345,-240.085 L -7.345,-243.585 L -12.655,-243.585 L -12.655,-240.085 L -17.345,-240.085
 L -17.345,-243.585 L -22.655,-243.585 L -22.655,-240.085 L -27.345,-240.085 L -27.345,-243.585 L -32.655,-243.585
 L -32.655,-240.085 L -37.345,-240.085 L -37.345,-243.585 L -42.655,-243.585 L -42.655,-240.085 L -47.345,-240.085
 L -47.345,-243.585 L -52.655,-243.585 L -52.655,-240.085 L -57.345,-240.085 L -57.345,-243.585 L -57.655,-243.585
 L -57.655,-236.352 L -54.155,-236.352 L -54.155,-231.662 L -57.655,-231.662 L -57.655,-227.18 L -20.5517,-227.18
 L -20.5517,-226.68 L -57.655,-226.68 L -57.655,-225.18 L -39.4367,-225.18 L -39.4367,-224.68 L -57.655,-224.68
 L -57.655,-223.18 L -20.5517,-223.18 L -20.5517,-222.68 L -57.655,-222.68 L -57.655,-221.18 L -39.4367,-221.18
 L -39.4367,-220.68 L -57.655,-220.68 L -57.655,-219.18 L -20.5517,-219.18 L -20.5517,-218.68 L -57.655,-218.68
 L -57.655,-217.18 L -39.4367,-217.18 L -39.4367,-216.68 L -57.655,-216.68 L -57.655,-215.18 L -20.5517,-215.18
 L -20.5517,-214.68 L -57.655,-214.68 L -57.655,-213.18 L -39.4367,-213.18 L -39.4367,-212.68 L -57.655,-212.68
 L -57.655,-211.18 L -20.5517,-211.18 L -20.5517,-210.68 L -57.655,-210.68 L -57.655,-209.18 L -39.4367,-209.18
 L -39.4367,-208.68 L -57.655,-208.68 L -57.655,-207.18 L -20.5517,-207.18 L -20.5517,-206.68 L -57.655,-206.68
 L -57.655,-205.18 L -39.4367,-205.18 L -39.4367,-204.68 L -57.655,-204.68 L -57.655,-203.18 L -20.5517,-203.18
 L -20.5517,-202.68 L -57.655,-202.68 L -57.655,-201.18 L -39.4367,-201.18 L -39.4367,-200.68 L -57.655,-200.68
 L -57.655,-199.18 L -20.5517,-199.18 L -20.5517,-198.68 L -57.655,-198.68 L -57.655,-197.18 L -39.4367,-197.18
 L -39.4367,-196.68 L -57.655,-196.68 L -57.655,-195.18 L -20.5517,-195.18 L -20.5517,-194.68 L -57.655,-194.68
 L -57.655,-190.197 L -54.155,-190.197 L -54.155,-185.508 L -57.655,-185.508 L -57.655,-178.275 L -52.345,-178.275
 z
M 20.5517,-226.68 L 20.5517,-227.18 L 57.655,-227.18 L 57.655,-226.68 z
M -18.5517,-226.68 L -18.5517,-227.18 L 18.5517,-227.18 L 18.5517,-226.68 z
M -37.4367,-224.68 L -37.4367,-225.18 L -1.00002,-225.18 L -1.00002,-224.68 z
M 0.999969,-224.68 L 0.999969,-225.18 L 37.4366,-225.18 L 37.4366,-224.68 z
M -18.5517,-222.68 L -18.5517,-223.18 L 18.5517,-223.18 L 18.5517,-222.68 z
M 20.5517,-222.68 L 20.5517,-223.18 L 57.655,-223.18 L 57.655,-222.68 z
M -37.4367,-220.68 L -37.4367,-221.18 L -1.00002,-221.18 L -1.00002,-220.68 z
M 0.999969,-220.68 L 0.999969,-221.18 L 37.4366,-221.18 L 37.4366,-220.68 z
M -18.5517,-218.68 L -18.5517,-219.18 L 18.5517,-219.18 L 18.5517,-218.68 z
M 20.5517,-218.68 L 20.5517,-219.18 L 57.655,-219.18 L 57.655,-218.68 z
M 0.999969,-216.68 L 0.999969,-217.18 L 37.4366,-217.18 L 37.4366,-216.68 z
M -37.4367,-216.68 L -37.4367,-217.18 L -1.00002,-217.18 L -1.00002,-216.68 z
M -18.5517,-214.68 L -18.5517,-215.18 L 18.5517,-215.18 L 18.5517,-214.68 z
M 20.5517,-214.68 L 20.5517,-215.18 L 57.655,-215.18 L 57.655,-214.68 z
M -37.4367,-212.68 L -37.4367,-213.18 L -1.00002,-213.18 L -1.00002,-212.68 z
M 0.999969,-212.68 L 0.999969,-213.18 L 37.4366,-213.18 L 37.4366,-212.68 z
M 20.5517,-210.68 L 20.5517,-211.18 L 57.655,-211.18 L 57.655,-210.68 z
M -18.5517,-210.68 L -18.5517,-211.18 L 18.5517,-211.18 L 18.5517,-210.68 z
M -37.4367,-208.68 L -37.4367,-209.18 L -1.00002,-209.18 L -1.00002,-208.68 z
M 0.999969,-208.68 L 0.999969,-209.18 L 37.4366,-209.18 L 37.4366,-208.68 z
M -18.5517,-206.68 L -18.5517,-207.18 L 18.5517,-207.18 L 18.5517,-206.68 z
M 20.5517,-206.68 L 20.5517,-207.18 L 57.655,-207.18 L 57.655,-206.68 z
M -37.4367,-204.68 L -37.4367,-205.18 L -1.00002,-205.18 L -1.00002,-204.68 z
M 0.999969,-204.68 L 0.999969,-205.18 L 37.4366,-205.18 L 37.4366,-204.68 z
M -18.5517,-202.68 L -18.5517,-203.18 L 18.5517,-203.18 L 18.5517,-202.68 z
M 20.5517,-202.68 L 20.5517,-203.18 L 57.655,-203.18 L 57.655,-202.68 z
M -37.4367,-200.68 L -37.4367,-201.18 L -1.00002,-201.18 L -1.00002,-200.68 z
M 0.999969,-200.68 L 0.999969,-201.18 L 37.4366,-201.18 L 37.4366,-200.68 z
M -18.5517,-198.68 L -18.5517,-199.18 L 18.5517,-199.18 L 18.5517,-198.68 z
M 20.5517,-198.68 L 20.5517,-199.18 L 57.655,-199.18 L 57.655,-198.68 z
M 0.999969,-196.68 L 0.999969,-197.18 L 37.4366,-197.18 L 37.4366,-196.68 z
M -37.4367,-196.68 L -37.4367,-197.18 L -1.00002,-197.18 L -1.00002,-196.68 z
M 20.5517,-194.68 L 20.5517,-195.18 L 57.655,-195.18 L 57.655,-194.68 z
M -18.5517,-194.68 L -18.5517,-195.18 L 18.5517,-195.18 L 18.5517,-194.68 z
M -52.345,-111.465 L -47.655,-111.465 L -47.655,-107.965 L -42.345,-107.965 L -42.345,-111.465 L -37.655,-111.465
 L -37.655,-107.965 L -32.345,-107.965 L -32.345,-111.465 L -27.655,-111.465 L -27.655,-107.965 L -22.345,-107.965
 L -22.345,-111.465 L -17.655,-111.465 L -17.655,-107.965 L -12.345,-107.965 L -12.345,-111.465 L -7.655,-111.465
 L -7.655,-107.965 L -2.345,-107.965 L -2.345,-111.465 L 2.34499,-111.465 L 2.34499,-107.965 L 7.65498,-107.965
 L 7.65498,-111.465 L 12.345,-111.465 L 12.345,-107.965 L 17.655,-107.965 L 17.655,-111.465 L 22.345,-111.465
 L 22.345,-107.965 L 27.655,-107.965 L 27.655,-111.465 L 32.345,-111.465 L 32.345,-107.965 L 37.655,-107.965
 L 37.655,-111.465 L 42.345,-111.465 L 42.345,-107.965 L 47.655,-107.965 L 47.655,-111.465 L 52.345,-111.465
 L 52.345,-107.965 L 57.655,-107.965 L 57.655,-115.198 L 54.155,-115.198 L 54.155,-119.887 L 57.655,-119.887
 L 57.655,-126.37 L 39.4366,-126.37 L 39.4366,-126.87 L 57.655,-126.87 L 57.655,-130.37 L 39.4366,-130.37
 L 39.4366,-130.87 L 57.655,-130.87 L 57.655,-134.37 L 39.4366,-134.37 L 39.4366,-134.87 L 57.655,-134.87
 L 57.655,-138.37 L 39.4366,-138.37 L 39.4366,-138.87 L 57.655,-138.87 L 57.655,-142.37 L 39.4366,-142.37
 L 39.4366,-142.87 L 57.655,-142.87 L 57.655,-146.37 L 39.4366,-146.37 L 39.4366,-146.87 L 57.655,-146.87
 L 57.655,-150.37 L 39.4366,-150.37 L 39.4366,-150.87 L 57.655,-150.87 L 57.655,-154.37 L 39.4366,-154.37
 L 39.4366,-154.87 L 57.655,-154.87 L 57.655,-161.353 L 54.155,-161.353 L 54.155,-166.042 L 57.655,-166.042
 L 57.655,-169.775 L 52.655,-169.775 L 52.655,-173.275 L 47.345,-173.275 L 47.345,-169.775 L 42.655,-169.775
 L 42.655,-173.275 L 37.345,-173.275 L 37.345,-169.775 L 32.655,-169.775 L 32.655,-173.275 L 27.345,-173.275
 L 27.345,-169.775 L 22.655,-169.775 L 22.655,-173.275 L 17.345,-173.275 L 17.345,-169.775 L 12.655,-169.775
 L 12.655,-173.275 L 7.34497,-173.275 L 7.34497,-169.775 L 2.65498,-169.775 L 2.65498,-173.275 L -2.65501,-173.275
 L -2.65501,-169.775 L -7.345,-169.775 L -7.345,-173.275 L -12.655,-173.275 L -12.655,-169.775 L -17.345,-169.775
 L -17.345,-173.275 L -22.655,-173.275 L -22.655,-169.775 L -27.345,-169.775 L -27.345,-173.275 L -32.655,-173.275
 L -32.655,-169.775 L -37.345,-169.775 L -37.345,-173.275 L -42.655,-173.275 L -42.655,-169.775 L -47.345,-169.775
 L -47.345,-173.275 L -52.655,-173.275 L -52.655,-169.775 L -57.345,-169.775 L -57.345,-173.275 L -57.655,-173.275
 L -57.655,-166.042 L -54.155,-166.042 L -54.155,-161.352 L -57.655,-161.352 L -57.655,-156.87 L -20.5517,-156.87
 L -20.5517,-156.37 L -57.655,-156.37 L -57.655,-154.87 L -39.4367,-154.87 L -39.4367,-154.37 L -57.655,-154.37
 L -57.655,-152.87 L -20.5517,-152.87 L -20.5517,-152.37 L -57.655,-152.37 L -57.655,-150.87 L -39.4367,-150.87
 L -39.4367,-150.37 L -57.655,-150.37 L -57.655,-148.87 L -20.5517,-148.87 L -20.5517,-148.37 L -57.655,-148.37
 L -57.655,-146.87 L -39.4367,-146.87 L -39.4367,-146.37 L -57.655,-146.37 L -57.655,-144.87 L -20.5517,-144.87
 L -20.5517,-144.37 L -57.655,-144.37 L -57.655,-142.87 L -39.4367,-142.87 L -39.4367,-142.37 L -57.655,-142.37
 L -57.655,-140.87 L -20.5517,-140.87 L -20.5517,-140.37 L -57.655,-140.37 L -57.655,-138.87 L -39.4367,-138.87
 L -39.4367,-138.37 L -57.655,-138.37 L -57.655,-136.87 L -20.5517,-136.87 L -20.5517,-136.37 L -57.655,-136.37
 L -57.655,-134.87 L -39.4367,-134.87 L -39.4367,-134.37 L -57.655,-134.37 L -57.655,-132.87 L -20.5517,-132.87
 L -20.5517,-132.37 L -57.655,-132.37 L -57.655,-130.87 L -39.4367,-130.87 L -39.4367,-130.37 L -57.655,-130.37
 L -57.655,-128.87 L -20.5517,-128.87 L -20.5517,-128.37 L -57.655,-128.37 L -57.655,-126.87 L -39.4367,-126.87
 L -39.4367,-126.37 L -57.655,-126.37 L -57.655,-124.87 L -20.5517,-124.87 L -20.5517,-124.37 L -57.655,-124.37
 L -57.655,-119.887 L -54.155,-119.887 L -54.155,-115.198 L -57.655,-115.198 L -57.655,-107.965 L -52.345,-107.965
 z
M 20.5517,-156.37 L 20.5517,-156.87 L 57.655,-156.87 L 57.655,-156.37 z
M -18.5517,-156.37 L -18.5517,-156.87 L 18.5517,-156.87 L 18.5517,-156.37 z
M -37.4367,-154.37 L -37.4367,-154.87 L -1.00002,-154.87 L -1.00002,-154.37 z
M 0.999969,-154.37 L 0.999969,-154.87 L 37.4366,-154.87 L 37.4366,-154.37 z
M 20.5517,-152.37 L 20.5517,-152.87 L 57.655,-152.87 L 57.655,-152.37 z
M -18.5517,-152.37 L -18.5517,-152.87 L 18.5517,-152.87 L 18.5517,-152.37 z
M 0.999969,-150.37 L 0.999969,-150.87 L 37.4366,-150.87 L 37.4366,-150.37 z
M -37.4367,-150.37 L -37.4367,-150.87 L -1.00002,-150.87 L -1.00002,-150.37 z
M 20.5517,-148.37 L 20.5517,-148.87 L 57.655,-148.87 L 57.655,-148.37 z
M -18.5517,-148.37 L -18.5517,-148.87 L 18.5517,-148.87 L 18.5517,-148.37 z
M -37.4367,-146.37 L -37.4367,-146.87 L -1.00002,-146.87 L -1.00002,-146.37 z
M 0.999969,-146.37 L 0.999969,-146.87 L 37.4366,-146.87 L 37.4366,-146.37 z
M -18.5517,-144.37 L -18.5517,-144.87 L 18.5517,-144.87 L 18.5517,-144.37 z
M 20.5517,-144.37 L 20.5517,-144.87 L 57.655,-144.87 L 57.655,-144.37 z
M -37.4367,-142.37 L -37.4367,-142.87 L -1.00002,-142.87 L -1.00002,-142.37 z
M 0.999969,-142.37 L 0.999969,-142.87 L 37.4366,-142.87 L 37.4366,-142.37 z
M 20.5517,-140.37 L 20.5517,-140.87 L 57.655,-140.87 L 57.655,-140.37 z
M -18.5517,-140.37 L -18.5517,-140.87 L 18.5517,-140.87 L 18.5517,-140.37 z
M -37.4367,-138.37 L -37.4367,-138.87 L -1.00002,-138.87 L -1.00002,-138.37 z
M 0.999969,-138.37 L 0.999969,-138.87 L 37.4366,-138.87 L 37.4366,-138.37 z
M -18.5517,-136.37 L -18.5517,-136.87 L 18.5517,-136.87 L 18.5517,-136.37 z
M 20.5517,-136.37 L 20.5517,-136.87 L 57.655,-136.87 L 57.655,-136.37 z
M -37.4367,-134.37 L -37.4367,-134.87 L -1.00002,-134.87 L -1.00002,-134.37 z
M 0.999969,-134.37 L 0.999969,-134.87 L 37.4366,-134.87 L 37.4366,-134.37 z
M -18.5517,-132.37 L -18.5517,-132.87 L 18.5517,-132.87 L 18.5517,-132.37 z
M 20.5517,-132.37 L 20.5517,-132.87 L 57.655,-132.87 L 57.655,-132.37 z
M -37.4367,-130.37 L -37.4367,-130.87 L -1.00002,-130.87 L -1.00002,-130.37 z
M 0.999969,-130.37 L 0.999969,-130.87 L 37.4366,-130.87 L 37.4366,-130.37 z
M -18.5517,-128.37 L -18.5517,-128.87 L 18.5517,-128.87 L 18.5517,-128.37 z
M 20.5517,-128.37 L 20.5517,-128.87 L 57.655,-128.87 L 57.655,-128.37 z
M 0.999969,-126.37 L 0.999969,-126.87 L 37.4366,-126.87 L 37.4366,-126.37 z
M -37.4367,-126.37 L -37.4367,-126.87 L -1.00002,-126.87 L -1.00002,-126.37 z
M 20.5517,-124.37 L 20.5517,-124.87 L 57.655,-124.87 L 57.655,-124.37 z
M -18.5517,-124.37 L -18.5517,-124.87 L 18.5517,-124.87 L 18.5517,-124.37 z
M -52.345,-41.155 L -47.655,-41.155 L -47.655,-37.655 L -42.345,-37.655 L -42.345,-41.155 L -37.655,-41.155
 L -37.655,-37.655 L -32.345,-37.655 L -32.345,-41.155 L -27.655,-41.155 L -27.655,-37.655 L -22.345,-37.655
 L -22.345,-41.155 L -17.655,-41.155 L -17.655,-37.655 L -12.345,-37.655 L -12.345,-41.155 L -7.655,-41.155
 L -7.655,-37.655 L -2.345,-37.655 L -2.345,-41.155 L 2.34499,-41.155 L 2.34499,-37.655 L 7.65498,-37.655
 L 7.65498,-41.155 L 12.345,-41.155 L 12.345,-37.655 L 17.655,-37.655 L 17.655,-41.155 L 22.345,-41.155
 L 22.345,-37.655 L 27.655,-37.655 L 27.655,-41.155 L 32.345,-41.155 L 32.345,-37.655 L 37.655,-37.655
 L 37.655,-41.155 L 42.345,-41.155 L 42.345,-37.655 L 47.655,-37.655 L 47.655,-41.155 L 52.345,-41.155
 L 52.345,-37.655 L 57.655,-37.655 L 57.655,-44.8875 L 54.155,-44.8875 L 54.155,-49.5775 L 57.655,-49.5775
 L 57.655,-56.06 L 39.4366,-56.06 L 39.4366,-56.56 L 57.655,-56.56 L 57.655,-60.06 L 39.4366,-60.06
 L 39.4366,-60.56 L 57.655,-60.56 L 57.655,-64.06 L 39.4366,-64.06 L 39.4366,-64.56 L 57.655,-64.56
 L 57.655,-68.06 L 39.4366,-68.06 L 39.4366,-68.56 L 57.655,-68.56 L 57.655,-72.06 L 39.4366,-72.06
 L 39.4366,-72.56 L 57.655,-72.56 L 57.655,-76.06 L 39.4366,-76.06 L 39.4366,-76.56 L 57.655,-76.56
 L 57.655,-80.06 L 39.4366,-80.06 L 39.4366,-80.56 L 57.655,-80.56 L 57.655,-84.06 L 39.4366,-84.06
 L 39.4366,-84.56 L 57.655,-84.56 L 57.655,-91.0425 L 54.155,-91.0425 L 54.155,-95.7325 L 57.655,-95.7325
 L 57.655,-99.465 L 52.655,-99.465 L 52.655,-102.965 L 47.345,-102.965 L 47.345,-99.465 L 42.655,-99.465
 L 42.655,-102.965 L 37.345,-102.965 L 37.345,-99.465 L 32.655,-99.465 L 32.655,-102.965 L 27.345,-102.965
 L 27.345,-99.465 L 22.655,-99.465 L 22.655,-102.965 L 17.345,-102.965 L 17.345,-99.465 L 12.655,-99.465
 L 12.655,-102.965 L 7.34497,-102.965 L 7.34497,-99.465 L 2.65498,-99.465 L 2.65498,-102.965 L -2.65501,-102.965
 L -2.65501,-99.465 L -7.345,-99.465 L -7.345,-102.965 L -12.655,-102.965 L -12.655,-99.465 L -17.345,-99.465
 L -17.345,-102.965 L -22.655,-102.965 L -22.655,-99.465 L -27.345,-99.465 L -27.345,-102.965 L -32.655,-102.965
 L -32.655,-99.465 L -37.345,-99.465 L -37.345,-102.965 L -42.655,-102.965 L -42.655,-99.465 L -47.345,-99.465
 L -47.345,-102.965 L -52.655,-102.965 L -52.655,-99.465 L -57.345,-99.465 L -57.345,-102.965 L -57.655,-102.965
 L -57.655,-95.7325 L -54.155,-95.7325 L -54.155,-91.0425 L -57.655,-91.0425 L -57.655,-86.56 L -20.5517,-86.56
 L -20.5517,-86.06 L -57.655,-86.06 L -57.655,-84.56 L -39.4367,-84.56 L -39.4367,-84.06 L -57.655,-84.06
 L -57.655,-82.56 L -20.5517,-82.56 L -20.5517,-82.06 L -57.655,-82.06 L -57.655,-80.56 L -39.4367,-80.56
 L -39.4367,-80.06 L -57.655,-80.06 L -57.655,-78.56 L -20.5517,-78.56 L -20.5517,-78.06 L -57.655,-78.06
 L -57.655,-76.56 L -39.4367,-76.56 L -39.4367,-76.06 L -57.655,-76.06 L -57.655,-74.56 L -20.5517,-74.56
 L -20.5517,-74.06 L -57.655,-74.06 L -57.655,-72.56 L -39.4367,-72.56 L -39.4367,-72.06 L -57.655,-72.06
 L -57.655,-70.56 L -20.5517,-70.56 L -20.5517,-70.06 L -57.655,-70.06 L -57.655,-68.56 L -39.4367,-68.56
 L -39.4367,-68.06 L -57.655,-68.06 L -57.655,-66.56 L -20.5517,-66.56 L -20.5517,-66.06 L -57.655,-66.06
 L -57.655,-64.56 L -39.4367,-64.56 L -39.4367,-64.06 L -57.655,-64.06 L -57.655,-62.56 L -20.5517,-62.56
 L -20.5517,-62.06 L -57.655,-62.06 L -57.655,-60.56 L -39.4367,-60.56 L -39.4367,-60.06 L -57.655,-60.06
 L -57.655,-58.56 L -20.5517,-58.56 L -20.5517,-58.06 L -57.655,-58.06 L -57.655,-56.56 L -39.4367,-56.56
 L -39.4367,-56.06 L -57.655,-56.06 L -57.655,-54.56 L -20.5517,-54.56 L -20.5517,-54.06 L -57.655,-54.06
 L -57.655,-49.5775 L -54.155,-49.5775 L -54.155,-44.8875 L -57.655,-44.8875 L -57.655,-37.655 L -52.345,-37.655
 z
M 20.5517,-86.06 L 20.5517,-86.56 L 57.655,-86.56 L 57.655,-86.06 z
M -18.5517,-86.06 L -18.5517,-86.56 L 18.5517,-86.56 L 18.5517,-86.06 z
M -37.4367,-84.06 L -37.4367,-84.56 L -1.00002,-84.56 L -1.00002,-84.06 z
M 0.999969,-84.06 L 0.999969,-84.56 L 37.4366,-84.56 L 37.4366,-84.06 z
M -18.5517,-82.06 L -18.5517,-82.56 L 18.5517,-82.56 L 18.5517,-82.06 z
M 20.5517,-82.06 L 20.5517,-82.56 L 57.655,-82.56 L 57.655,-82.06 z
M -37.4367,-80.06 L -37.4367,-80.56 L -1.00002,-80.56 L -1.00002,-80.06 z
M 0.999969,-80.06 L 0.999969,-80.56 L 37.4366,-80.56 L 37.4366,-80.06 z
M -18.5517,-78.06 L -18.5517,-78.56 L 18.5517,-78.56 L 18.5517,-78.06 z
M 20.5517,-78.06 L 20.5517,-78.56 L 57.655,-78.56 L 57.655,-78.06 z
M 0.999969,-76.06 L 0.999969,-76.56 L 37.4366,-76.56 L 37.4366,-76.06 z
M -37.4367,-76.06 L -37.4367,-76.56 L -1.00002,-76.56 L -1.00002,-76.06 z
M -18.5517,-74.06 L -18.5517,-74.56 L 18.5517,-74.56 L 18.5517,-74.06 z
M 20.5517,-74.06 L 20.5517,-74.56 L 57.655,-74.56 L 57.655,-74.06 z
M -37.4367,-72.06 L -37.4367,-72.56 L -1.00002,-72.56 L -1.00002,-72.06 z
M 0.999969,-72.06 L 0.999969,-72.56 L 37.4366,-72.56 L 37.4366,-72.06 z
M 20.5517,-70.06 L 20.5517,-70.56 L 57.655,-70.56 L 57.655,-70.06 z
M -18.5517,-70.06 L -18.5517,-70.56 L 18.5517,-70.56 L 18.5517,-70.06 z
M -37.4367,-68.06 L -37.4367,-68.56 L -1.00002,-68.56 L -1.00002,-68.06 z
M 0.999969,-68.06 L 0.999969,-68.56 L 37.4366,-68.56 L 37.4366,-68.06 z
M -18.5517,-66.06 L -18.5517,-66.56 L 18.5517,-66.56 L 18.5517,-66.06 z
M 20.5517,-66.06 L 20.5517,-66.56 L 57.655,-66.56 L 57.655,-66.06 z
M 0.999969,-64.06 L 0.999969,-64.56 L 37.4366,-64.56 L 37.4366,-64.06 z
M -37.4367,-64.06 L -37.4367,-64.56 L -1.00002,-64.56 L -1.00002,-64.06 z
M 20.5517,-62.06 L 20.5517,-62.56 L 57.655,-62.56 L 57.655,-62.06 z
M -18.5517,-62.06 L -18.5517,-62.56 L 18.5517,-62.56 L 18.5517,-62.06 z
M -37.4367,-60.06 L -37.4367,-60.56 L -1.00002,-60.56 L -1.00002,-60.06 z
M 0.999969,-60.06 L 0.999969,-60.56 L 37.4366,-60.56 L 37.4366,-60.06 z
M -18.5517,-58.06 L -18.5517,-58.56 L 18.5517,-58.56 L 18.5517,-58.06 z
M 20.5517,-58.06 L 20.5517,-58.56 L 57.655,-58.56 L 57.655,-58.06 z
M -37.4367,-56.06 L -37.4367,-56.56 L -1.00002,-56.56 L -1.00002,-56.06 z
M 0.999969,-56.06 L 0.999969,-56.56 L 37.4366,-56.56 L 37.4366,-56.06 z
M -18.5517,-54.06 L -18.5517,-54.56 L 18.5517,-54.56 L 18.5517,-54.06 z
M 20.5517,-54.06 L 20.5517,-54.56 L 57.655,-54.56 L 57.655,-54.06 z
M -103.688,8.45505 L -103.688,4.95505 L -93.3426,4.95505 L -93.3426,8.45505 L -88.0326,8.45505 L -88.0326,4.95505
 L -82.8601,4.95505 L -82.8601,4.84607 L -80.4705,4.84607 L -76.4021,3.98132 L -72.6025,2.28961 L -69.2377,-0.15509
 L -66.4546,-3.24597 L -64.375,-6.84795 L -63.0898,-10.8036 L -62.655,-14.94 L -62.6876,-15.25 L -62.655,-15.25
 L -62.655,-20.4225 L -59.155,-20.4225 L -59.155,-25.7325 L -62.655,-25.7325 L -62.655,-36.0775 L -59.155,-36.0775
 L -59.155,-41.3875 L -62.655,-41.3875 L -62.655,-46.56 L -62.6876,-46.56 L -62.655,-46.87 L -63.0898,-51.0064
 L -64.375,-54.9621 L -66.4546,-58.564 L -69.2377,-61.6549 L -72.6025,-64.0996 L -76.4021,-65.7913 L -80.4705,-66.6561
 L -82.8601,-66.6561 L -82.8601,-66.7651 L -88.0326,-66.7651 L -88.0326,-70.2651 L -93.3426,-70.2651 L -93.3426,-66.7651
 L -103.688,-66.7651 L -103.688,-70.2651 L -108.998,-70.2651 L -108.998,-66.7651 L -114.17,-66.7651 L -114.17,-66.6561
 L -116.56,-66.6561 L -120.628,-65.7913 L -124.428,-64.0996 L -127.792,-61.6549 L -130.576,-58.564 L -132.655,-54.9621
 L -133.94,-51.0064 L -134.375,-46.87 L -134.343,-46.56 L -134.375,-46.56 L -134.375,-41.3875 L -137.875,-41.3875
 L -137.875,-36.0775 L -134.375,-36.0775 L -134.375,-25.7325 L -137.875,-25.7325 L -137.875,-20.4225 L -134.375,-20.4225
 L -134.375,-15.25 L -134.343,-15.25 L -134.375,-14.94 L -133.94,-10.8036 L -132.655,-6.84795 L -130.576,-3.24597
 L -127.792,-0.15509 L -124.428,2.28961 L -120.628,3.98132 L -116.56,4.84607 L -114.17,4.84607 L -114.17,4.95505
 L -108.998,4.95505 L -108.998,8.45505 z
M 93.3426,4.95505 L 103.688,4.95505 L 103.688,8.45505 L 108.998,8.45505 L 108.998,4.95505 L 114.17,4.95505
 L 114.17,4.84607 L 116.56,4.84607 L 120.628,3.98132 L 124.428,2.28961 L 127.792,-0.15509 L 130.576,-3.24597
 L 132.655,-6.84795 L 133.94,-10.8036 L 134.375,-14.94 L 134.343,-15.25 L 134.375,-15.25 L 134.375,-20.4225
 L 137.875,-20.4225 L 137.875,-25.7325 L 134.375,-25.7325 L 134.375,-36.0775 L 137.875,-36.0775 L 137.875,-41.3875
 L 134.375,-41.3875 L 134.375,-46.56 L 134.343,-46.56 L 134.375,-46.87 L 133.94,-51.0064 L 132.655,-54.9621
 L 130.576,-58.564 L 127.792,-61.6549 L 124.428,-64.0996 L 120.628,-65.7913 L 116.56,-66.6561 L 114.17,-66.6561
 L 114.17,-66.7651 L 108.998,-66.7651 L 108.998,-70.2651 L 103.688,-70.2651 L 103.688,-66.7651 L 93.3426,-66.7651
 L 93.3426,-70.2651 L 88.0326,-70.2651 L 88.0326,-66.7651 L 82.8601,-66.7651 L 82.8601,-66.6561 L 80.4705,-66.6561
 L 76.4021,-65.7913 L 72.6025,-64.0996 L 69.2377,-61.6549 L 66.4546,-58.564 L 64.375,-54.9621 L 63.0898,-51.0064
 L 62.655,-46.87 L 62.6876,-46.56 L 62.655,-46.56 L 62.655,-41.3875 L 59.155,-41.3875 L 59.155,-36.0775
 L 62.655,-36.0775 L 62.655,-25.7325 L 59.155,-25.7325 L 59.155,-20.4225 L 62.655,-20.4225 L 62.655,-15.25
 L 62.6876,-15.25 L 62.655,-14.94 L 63.0898,-10.8036 L 64.375,-6.84795 L 66.4546,-3.24597 L 69.2377,-0.15509
 L 72.6025,2.28961 L 76.4021,3.98132 L 80.4705,4.84607 L 82.8601,4.84607 L 82.8601,4.95505 L 88.0326,4.95505
 L 88.0326,8.45505 L 93.3426,8.45505 z
M 84.3601,1.45505 L 84.3601,1.34477 L 84.2638,1.36523 L 80.8363,1.36523 L 77.4837,0.652618 L 74.3525,-0.741455
 L 71.5796,-2.75609 L 69.2862,-5.30322 L 67.5724,-8.27153 L 66.5133,-11.5313 L 66.155,-14.94 L 66.3452,-16.75
 L 66.155,-16.75 L 66.155,-45.06 L 66.3452,-45.06 L 66.155,-46.87 L 66.5133,-50.2787 L 67.5724,-53.5385
 L 69.2862,-56.5068 L 71.5796,-59.0539 L 74.3525,-61.0685 L 77.4837,-62.4626 L 80.8363,-63.1752 L 84.2638,-63.1752
 L 84.3601,-63.1548 L 84.3601,-63.2651 L 112.67,-63.2651 L 112.67,-63.1548 L 112.766,-63.1752 L 116.194,-63.1752
 L 119.546,-62.4626 L 122.678,-61.0685 L 125.451,-59.0539 L 127.744,-56.5068 L 129.458,-53.5385 L 130.517,-50.2787
 L 130.875,-46.87 L 130.685,-45.06 L 130.875,-45.06 L 130.875,-16.75 L 130.685,-16.75 L 130.875,-14.94
 L 130.517,-11.5313 L 129.458,-8.27153 L 127.744,-5.30322 L 125.451,-2.75609 L 122.678,-0.741455 L 119.546,0.652618
 L 116.194,1.36523 L 112.766,1.36523 L 112.67,1.34477 L 112.67,1.45505 z
M -52.345,29.155 L -47.655,29.155 L -47.655,32.655 L -42.345,32.655 L -42.345,29.155 L -37.655,29.155
 L -37.655,32.655 L -32.345,32.655 L -32.345,29.155 L -27.655,29.155 L -27.655,32.655 L -22.345,32.655
 L -22.345,29.155 L -17.655,29.155 L -17.655,32.655 L -12.345,32.655 L -12.345,29.155 L -7.655,29.155
 L -7.655,32.655 L -2.345,32.655 L -2.345,29.155 L 2.34499,29.155 L 2.34499,32.655 L 7.65498,32.655
 L 7.65498,29.155 L 12.345,29.155 L 12.345,32.655 L 17.655,32.655 L 17.655,29.155 L 22.345,29.155
 L 22.345,32.655 L 27.655,32.655 L 27.655,29.155 L 32.345,29.155 L 32.345,32.655 L 37.655,32.655
 L 37.655,29.155 L 42.345,29.155 L 42.345,32.655 L 47.655,32.655 L 47.655,29.155 L 52.345,29.155
 L 52.345,32.655 L 57.655,32.655 L 57.655,25.4225 L 54.155,25.4225 L 54.155,20.7325 L 57.655,20.7325
 L 57.655,14.25 L 39.4366,14.25 L 39.4366,13.75 L 57.655,13.75 L 57.655,10.25 L 39.4366,10.25
 L 39.4366,9.75 L 57.655,9.75 L 57.655,6.25 L 39.4366,6.25 L 39.4366,5.75 L 57.655,5.75
 L 57.655,2.25 L 39.4366,2.25 L 39.4366,1.75 L 57.655,1.75 L 57.655,-1.75 L 39.4366,-1.75
 L 39.4366,-2.25 L 57.655,-2.25 L 57.655,-5.75 L 39.4366,-5.75 L 39.4366,-6.25 L 57.655,-6.25
 L 57.655,-9.75 L 39.4366,-9.75 L 39.4366,-10.25 L 57.655,-10.25 L 57.655,-13.75 L 39.4366,-13.75
 L 39.4366,-14.25 L 57.655,-14.25 L 57.655,-20.7325 L 54.155,-20.7325 L 54.155,-25.4225 L 57.655,-25.4225
 L 57.655,-29.155 L 52.655,-29.155 L 52.655,-32.655 L 47.345,-32.655 L 47.345,-29.155 L 42.655,-29.155
 L 42.655,-32.655 L 37.345,-32.655 L 37.345,-29.155 L 32.655,-29.155 L 32.655,-32.655 L 27.345,-32.655
 L 27.345,-29.155 L 22.655,-29.155 L 22.655,-32.655 L 17.345,-32.655 L 17.345,-29.155 L 12.655,-29.155
 L 12.655,-32.655 L 7.34497,-32.655 L 7.34497,-29.155 L 2.65498,-29.155 L 2.65498,-32.655 L -2.65501,-32.655
 L -2.65501,-29.155 L -7.345,-29.155 L -7.345,-32.655 L -12.655,-32.655 L -12.655,-29.155 L -17.345,-29.155
 L -17.345,-32.655 L -22.655,-32.655 L -22.655,-29.155 L -27.345,-29.155 L -27.345,-32.655 L -32.655,-32.655
 L -32.655,-29.155 L -37.345,-29.155 L -37.345,-32.655 L -42.655,-32.655 L -42.655,-29.155 L -47.345,-29.155
 L -47.345,-32.655 L -52.655,-32.655 L -52.655,-29.155 L -57.345,-29.155 L -57.345,-32.655 L -57.655,-32.655
 L -57.655,-25.4225 L -54.155,-25.4225 L -54.155,-20.7325 L -57.655,-20.7325 L -57.655,-16.25 L -20.5517,-16.25
 L -20.5517,-15.75 L -57.655,-15.75 L -57.655,-14.25 L -39.4367,-14.25 L -39.4367,-13.75 L -57.655,-13.75
 L -57.655,-12.25 L -20.5517,-12.25 L -20.5517,-11.75 L -57.655,-11.75 L -57.655,-10.25 L -39.4367,-10.25
 L -39.4367,-9.75 L -57.655,-9.75 L -57.655,-8.25 L -20.5517,-8.25 L -20.5517,-7.75 L -57.655,-7.75
 L -57.655,-6.25 L -39.4367,-6.25 L -39.4367,-5.75 L -57.655,-5.75 L -57.655,-4.25 L -20.5517,-4.25
 L -20.5517,-3.75 L -57.655,-3.75 L -57.655,-2.25 L -39.4367,-2.25 L -39.4367,-1.75 L -57.655,-1.75
 L -57.655,-0.25 L -20.5517,-0.25 L -20.5517,0.25 L -57.655,0.25 L -57.655,1.75 L -39.4367,1.75
 L -39.4367,2.25 L -57.655,2.25 L -57.655,3.75 L -20.5517,3.75 L -20.5517,4.25 L -57.655,4.25
 L -57.655,5.75 L -39.4367,5.75 L -39.4367,6.25 L -57.655,6.25 L -57.655,7.75 L -20.5517,7.75
 L -20.5517,8.25 L -57.655,8.25 L -57.655,9.75 L -39.4367,9.75 L -39.4367,10.25 L -57.655,10.25
 L -57.655,11.75 L -20.5517,11.75 L -20.5517,12.25 L -57.655,12.25 L -57.655,13.75 L -39.4367,13.75
 L -39.4367,14.25 L -57.655,14.25 L -57.655,15.75 L -20.5517,15.75 L -20.5517,16.25 L -57.655,16.25
 L -57.655,20.7325 L -54.155,20.7325 L -54.155,25.4225 L -57.655,25.4225 L -57.655,32.655 L -52.345,32.655
 z
M 20.5517,-15.75 L 20.5517,-16.25 L 57.655,-16.25 L 57.655,-15.75 z
M -18.5517,-15.75 L -18.5517,-16.25 L 18.5517,-16.25 L 18.5517,-15.75 z
M -37.4367,-13.75 L -37.4367,-14.25 L -1.00002,-14.25 L -1.00002,-13.75 z
M 0.999969,-13.75 L 0.999969,-14.25 L 37.4366,-14.25 L 37.4366,-13.75 z
M -18.5517,-11.75 L -18.5517,-12.25 L 18.5517,-12.25 L 18.5517,-11.75 z
M 20.5517,-11.75 L 20.5517,-12.25 L 57.655,-12.25 L 57.655,-11.75 z
M -37.4367,-9.75 L -37.4367,-10.25 L -1.00002,-10.25 L -1.00002,-9.75 z
M 0.999969,-9.75 L 0.999969,-10.25 L 37.4366,-10.25 L 37.4366,-9.75 z
M -18.5517,-7.75 L -18.5517,-8.25 L 18.5517,-8.25 L 18.5517,-7.75 z
M 20.5517,-7.75 L 20.5517,-8.25 L 57.655,-8.25 L 57.655,-7.75 z
M 0.999969,-5.75 L 0.999969,-6.25 L 37.4366,-6.25 L 37.4366,-5.75 z
M -37.4367,-5.75 L -37.4367,-6.25 L -1.00002,-6.25 L -1.00002,-5.75 z
M -18.5517,-3.75 L -18.5517,-4.25 L 18.5517,-4.25 L 18.5517,-3.75 z
M 20.5517,-3.75 L 20.5517,-4.25 L 57.655,-4.25 L 57.655,-3.75 z
M 0.999969,-1.75 L 0.999969,-2.25 L 37.4366,-2.25 L 37.4366,-1.75 z
M -37.4367,-1.75 L -37.4367,-2.25 L -1.00002,-2.25 L -1.00002,-1.75 z
M -18.5517,0.25 L -18.5517,-0.25 L 18.5517,-0.25 L 18.5517,0.25 z
M 20.5517,0.25 L 20.5517,-0.25 L 57.655,-0.25 L 57.655,0.25 z
M -37.4367,2.25 L -37.4367,1.75 L -1.00002,1.75 L -1.00002,2.25 z
M 0.999969,2.25 L 0.999969,1.75 L 37.4366,1.75 L 37.4366,2.25 z
M -18.5517,4.25 L -18.5517,3.75 L 18.5517,3.75 L 18.5517,4.25 z
M 20.5517,4.25 L 20.5517,3.75 L 57.655,3.75 L 57.655,4.25 z
M -37.4367,6.25 L -37.4367,5.75 L -1.00002,5.75 L -1.00002,6.25 z
M 0.999969,6.25 L 0.999969,5.75 L 37.4366,5.75 L 37.4366,6.25 z
M 20.5517,8.25 L 20.5517,7.75 L 57.655,7.75 L 57.655,8.25 z
M -18.5517,8.25 L -18.5517,7.75 L 18.5517,7.75 L 18.5517,8.25 z
M -37.4367,10.25 L -37.4367,9.75 L -1.00002,9.75 L -1.00002,10.25 z
M 0.999969,10.25 L 0.999969,9.75 L 37.4366,9.75 L 37.4366,10.25 z
M -18.5517,12.25 L -18.5517,11.75 L 18.5517,11.75 L 18.5517,12.25 z
M 20.5517,12.25 L 20.5517,11.75 L 57.655,11.75 L 57.655,12.25 z
M 0.999969,14.25 L 0.999969,13.75 L 37.4366,13.75 L 37.4366,14.25 z
M -37.4367,14.25 L -37.4367,13.75 L -1.00002,13.75 L -1.00002,14.25 z
M 20.5517,16.25 L 20.5517,15.75 L 57.655,15.75 L 57.655,16.25 z
M -18.5517,16.25 L -18.5517,15.75 L 18.5517,15.75 L 18.5517,16.25 z
" stroke="black" fill="lightgray" stroke-width="0.5"/></svg>
