  0
SECTION
  2
BLOCKS
  0
ENDSEC
  0
SECTION
  2
ENTITIES
  0
LINE
  8
0
 10
-137.595
 11
-137.595
 20
20.592
 21
25.822
  0
LINE
  8
0
 10
-137.595
 11
-134.395
 20
25.822
 21
25.822
  0
LINE
  8
0
 10
-134.395
 11
-134.395
 20
25.822
 21
36.208
  0
LINE
  8
0
 10
-134.395
 11
-137.595
 20
36.208
 21
36.208
  0
LINE
  8
0
 10
-137.595
 11
-137.595
 20
36.208
 21
41.438
  0
LINE
  8
0
 10
-137.595
 11
-134.395
 20
41.438
 21
41.438
  0
LINE
  8
0
 10
-134.395
 11
-134.395
 20
41.438
 21
46.63
  0
LINE
  8
0
 10
-134.395
 11
-134.371
 20
46.63
 21
46.63
  0
LINE
  8
0
 10
-134.371
 11
-134.395
 20
46.63
 21
46.86
  0
LINE
  8
0
 10
-134.395
 11
-133.957
 20
46.86
 21
51.028
  0
LINE
  8
0
 10
-133.957
 11
-132.662
 20
51.028
 21
55.013
  0
LINE
  8
0
 10
-132.662
 11
-130.567
 20
55.013
 21
58.642
  0
LINE
  8
0
 10
-130.567
 11
-127.763
 20
58.642
 21
61.756
  0
LINE
  8
0
 10
-127.763
 11
-124.373
 20
61.756
 21
64.22
  0
LINE
  8
0
 10
-124.373
 11
-120.544
 20
64.22
 21
65.924
  0
LINE
  8
0
 10
-120.544
 11
-116.445
 20
65.924
 21
66.795
  0
LINE
  8
0
 10
-116.445
 11
-114.12
 20
66.795
 21
66.795
  0
LINE
  8
0
 10
-114.12
 11
-114.12
 20
66.795
 21
66.905
  0
LINE
  8
0
 10
-114.12
 11
-108.928
 20
66.905
 21
66.905
  0
LINE
  8
0
 10
-108.928
 11
-108.928
 20
66.905
 21
70.105
  0
LINE
  8
0
 10
-108.928
 11
-103.698
 20
70.105
 21
70.105
  0
LINE
  8
0
 10
-103.698
 11
-103.698
 20
70.105
 21
66.905
  0
LINE
  8
0
 10
-103.698
 11
-93.312
 20
66.905
 21
66.905
  0
LINE
  8
0
 10
-93.312
 11
-93.312
 20
66.905
 21
70.105
  0
LINE
  8
0
 10
-93.312
 11
-88.082
 20
70.105
 21
70.105
  0
LINE
  8
0
 10
-88.082
 11
-88.082
 20
70.105
 21
66.905
  0
LINE
  8
0
 10
-88.082
 11
-82.89
 20
66.905
 21
66.905
  0
LINE
  8
0
 10
-82.89
 11
-82.89
 20
66.905
 21
66.795
  0
LINE
  8
0
 10
-82.89
 11
-80.565
 20
66.795
 21
66.795
  0
LINE
  8
0
 10
-80.565
 11
-76.466
 20
66.795
 21
65.924
  0
LINE
  8
0
 10
-76.466
 11
-72.637
 20
65.924
 21
64.22
  0
LINE
  8
0
 10
-72.637
 11
-69.247
 20
64.22
 21
61.756
  0
LINE
  8
0
 10
-69.247
 11
-66.443
 20
61.756
 21
58.642
  0
LINE
  8
0
 10
-66.443
 11
-64.348
 20
58.642
 21
55.013
  0
LINE
  8
0
 10
-64.348
 11
-63.053
 20
55.013
 21
51.028
  0
LINE
  8
0
 10
-63.053
 11
-62.615
 20
51.028
 21
46.86
  0
LINE
  8
0
 10
-62.615
 11
-62.639
 20
46.86
 21
46.63
  0
LINE
  8
0
 10
-62.639
 11
-62.615
 20
46.63
 21
46.63
  0
LINE
  8
0
 10
-62.615
 11
-62.615
 20
46.63
 21
41.438
  0
LINE
  8
0
 10
-62.615
 11
-59.415
 20
41.438
 21
41.438
  0
LINE
  8
0
 10
-59.415
 11
-59.415
 20
41.438
 21
36.208
  0
LINE
  8
0
 10
-59.415
 11
-62.615
 20
36.208
 21
36.208
  0
LINE
  8
0
 10
-62.615
 11
-62.615
 20
36.208
 21
25.822
  0
LINE
  8
0
 10
-62.615
 11
-59.415
 20
25.822
 21
25.822
  0
LINE
  8
0
 10
-59.415
 11
-59.415
 20
25.822
 21
20.592
  0
LINE
  8
0
 10
-59.415
 11
-62.615
 20
20.592
 21
20.592
  0
LINE
  8
0
 10
-62.615
 11
-62.615
 20
20.592
 21
15.4
  0
LINE
  8
0
 10
-62.615
 11
-62.639
 20
15.4
 21
15.4
  0
LINE
  8
0
 10
-62.639
 11
-62.615
 20
15.4
 21
15.17
  0
LINE
  8
0
 10
-62.615
 11
-63.053
 20
15.17
 21
11.002
  0
LINE
  8
0
 10
-63.053
 11
-64.348
 20
11.002
 21
7.017
  0
LINE
  8
0
 10
-64.348
 11
-66.443
 20
7.017
 21
3.388
  0
LINE
  8
0
 10
-66.443
 11
-69.247
 20
3.388
 21
0.274
  0
LINE
  8
0
 10
-69.247
 11
-72.637
 20
0.274
 21
-2.19
  0
LINE
  8
0
 10
-72.637
 11
-76.466
 20
-2.19
 21
-3.894
  0
LINE
  8
0
 10
-76.466
 11
-80.565
 20
-3.894
 21
-4.765
  0
LINE
  8
0
 10
-80.565
 11
-82.89
 20
-4.765
 21
-4.765
  0
LINE
  8
0
 10
-82.89
 11
-82.89
 20
-4.765
 21
-4.875
  0
LINE
  8
0
 10
-82.89
 11
-88.082
 20
-4.875
 21
-4.875
  0
LINE
  8
0
 10
-88.082
 11
-88.082
 20
-4.875
 21
-8.075
  0
LINE
  8
0
 10
-88.082
 11
-93.312
 20
-8.075
 21
-8.075
  0
LINE
  8
0
 10
-93.312
 11
-93.312
 20
-8.075
 21
-4.875
  0
LINE
  8
0
 10
-93.312
 11
-103.698
 20
-4.875
 21
-4.875
  0
LINE
  8
0
 10
-103.698
 11
-103.698
 20
-4.875
 21
-8.075
  0
LINE
  8
0
 10
-103.698
 11
-108.928
 20
-8.075
 21
-8.075
  0
LINE
  8
0
 10
-108.928
 11
-108.928
 20
-8.075
 21
-4.875
  0
LINE
  8
0
 10
-108.928
 11
-114.12
 20
-4.875
 21
-4.875
  0
LINE
  8
0
 10
-114.12
 11
-114.12
 20
-4.875
 21
-4.765
  0
LINE
  8
0
 10
-114.12
 11
-116.445
 20
-4.765
 21
-4.765
  0
LINE
  8
0
 10
-116.445
 11
-120.544
 20
-4.765
 21
-3.894
  0
LINE
  8
0
 10
-120.544
 11
-124.373
 20
-3.894
 21
-2.19
  0
LINE
  8
0
 10
-124.373
 11
-127.763
 20
-2.19
 21
0.274
  0
LINE
  8
0
 10
-127.763
 11
-130.567
 20
0.274
 21
3.388
  0
LINE
  8
0
 10
-130.567
 11
-132.662
 20
3.388
 21
7.017
  0
LINE
  8
0
 10
-132.662
 11
-133.957
 20
7.017
 21
11.002
  0
LINE
  8
0
 10
-133.957
 11
-134.395
 20
11.002
 21
15.17
  0
LINE
  8
0
 10
-134.395
 11
-134.371
 20
15.17
 21
15.4
  0
LINE
  8
0
 10
-134.371
 11
-134.395
 20
15.4
 21
15.4
  0
LINE
  8
0
 10
-134.395
 11
-134.395
 20
15.4
 21
20.592
  0
LINE
  8
0
 10
-134.395
 11
-137.595
 20
20.592
 21
20.592
  0
LINE
  8
0
 10
-57.615
 11
-57.615
 20
-32.615
 21
-25.592
  0
LINE
  8
0
 10
-57.615
 11
-54.415
 20
-25.592
 21
-25.592
  0
LINE
  8
0
 10
-54.415
 11
-54.415
 20
-25.592
 21
-20.822
  0
LINE
  8
0
 10
-54.415
 11
-57.615
 20
-20.822
 21
-20.822
  0
LINE
  8
0
 10
-57.615
 11
-57.615
 20
-20.822
 21
-16.25
  0
LINE
  8
0
 10
-57.615
 11
-20.538
 20
-16.25
 21
-16.25
  0
LINE
  8
0
 10
-20.538
 11
-20.538
 20
-16.25
 21
-15.75
  0
LINE
  8
0
 10
-20.538
 11
-57.615
 20
-15.75
 21
-15.75
  0
LINE
  8
0
 10
-57.615
 11
-57.615
 20
-15.75
 21
-14.25
  0
LINE
  8
0
 10
-57.615
 11
-39.41
 20
-14.25
 21
-14.25
  0
LINE
  8
0
 10
-39.41
 11
-39.41
 20
-14.25
 21
-13.75
  0
LINE
  8
0
 10
-39.41
 11
-57.615
 20
-13.75
 21
-13.75
  0
LINE
  8
0
 10
-57.615
 11
-57.615
 20
-13.75
 21
-12.25
  0
LINE
  8
0
 10
-57.615
 11
-20.538
 20
-12.25
 21
-12.25
  0
LINE
  8
0
 10
-20.538
 11
-20.538
 20
-12.25
 21
-11.75
  0
LINE
  8
0
 10
-20.538
 11
-57.615
 20
-11.75
 21
-11.75
  0
LINE
  8
0
 10
-57.615
 11
-57.615
 20
-11.75
 21
-10.25
  0
LINE
  8
0
 10
-57.615
 11
-39.41
 20
-10.25
 21
-10.25
  0
LINE
  8
0
 10
-39.41
 11
-39.41
 20
-10.25
 21
-9.75
  0
LINE
  8
0
 10
-39.41
 11
-57.615
 20
-9.75
 21
-9.75
  0
LINE
  8
0
 10
-57.615
 11
-57.615
 20
-9.75
 21
-8.25
  0
LINE
  8
0
 10
-57.615
 11
-20.538
 20
-8.25
 21
-8.25
  0
LINE
  8
0
 10
-20.538
 11
-20.538
 20
-8.25
 21
-7.75
  0
LINE
  8
0
 10
-20.538
 11
-57.615
 20
-7.75
 21
-7.75
  0
LINE
  8
0
 10
-57.615
 11
-57.615
 20
-7.75
 21
-6.25
  0
LINE
  8
0
 10
-57.615
 11
-39.41
 20
-6.25
 21
-6.25
  0
LINE
  8
0
 10
-39.41
 11
-39.41
 20
-6.25
 21
-5.75
  0
LINE
  8
0
 10
-39.41
 11
-57.615
 20
-5.75
 21
-5.75
  0
LINE
  8
0
 10
-57.615
 11
-57.615
 20
-5.75
 21
-4.25
  0
LINE
  8
0
 10
-57.615
 11
-20.538
 20
-4.25
 21
-4.25
  0
LINE
  8
0
 10
-20.538
 11
-20.538
 20
-4.25
 21
-3.75
  0
LINE
  8
0
 10
-20.538
 11
-57.615
 20
-3.75
 21
-3.75
  0
LINE
  8
0
 10
-57.615
 11
-57.615
 20
-3.75
 21
-2.25
  0
LINE
  8
0
 10
-57.615
 11
-39.41
 20
-2.25
 21
-2.25
  0
LINE
  8
0
 10
-39.41
 11
-39.41
 20
-2.25
 21
-1.75
  0
LINE
  8
0
 10
-39.41
 11
-57.615
 20
-1.75
 21
-1.75
  0
LINE
  8
0
 10
-57.615
 11
-57.615
 20
-1.75
 21
-0.25
  0
LINE
  8
0
 10
-57.615
 11
-20.538
 20
-0.25
 21
-0.25
  0
LINE
  8
0
 10
-20.538
 11
-20.538
 20
-0.25
 21
0.25
  0
LINE
  8
0
 10
-20.538
 11
-57.615
 20
0.25
 21
0.25
  0
LINE
  8
0
 10
-57.615
 11
-57.615
 20
0.25
 21
1.75
  0
LINE
  8
0
 10
-57.615
 11
-39.41
 20
1.75
 21
1.75
  0
LINE
  8
0
 10
-39.41
 11
-39.41
 20
1.75
 21
2.25
  0
LINE
  8
0
 10
-39.41
 11
-57.615
 20
2.25
 21
2.25
  0
LINE
  8
0
 10
-57.615
 11
-57.615
 20
2.25
 21
3.75
  0
LINE
  8
0
 10
-57.615
 11
-20.538
 20
3.75
 21
3.75
  0
LINE
  8
0
 10
-20.538
 11
-20.538
 20
3.75
 21
4.25
  0
LINE
  8
0
 10
-20.538
 11
-57.615
 20
4.25
 21
4.25
  0
LINE
  8
0
 10
-57.615
 11
-57.615
 20
4.25
 21
5.75
  0
LINE
  8
0
 10
-57.615
 11
-39.41
 20
5.75
 21
5.75
  0
LINE
  8
0
 10
-39.41
 11
-39.41
 20
5.75
 21
6.25
  0
LINE
  8
0
 10
-39.41
 11
-57.615
 20
6.25
 21
6.25
  0
LINE
  8
0
 10
-57.615
 11
-57.615
 20
6.25
 21
7.75
  0
LINE
  8
0
 10
-57.615
 11
-20.538
 20
7.75
 21
7.75
  0
LINE
  8
0
 10
-20.538
 11
-20.538
 20
7.75
 21
8.25
  0
LINE
  8
0
 10
-20.538
 11
-57.615
 20
8.25
 21
8.25
  0
LINE
  8
0
 10
-57.615
 11
-57.615
 20
8.25
 21
9.75
  0
LINE
  8
0
 10
-57.615
 11
-39.41
 20
9.75
 21
9.75
  0
LINE
  8
0
 10
-39.41
 11
-39.41
 20
9.75
 21
10.25
  0
LINE
  8
0
 10
-39.41
 11
-57.615
 20
10.25
 21
10.25
  0
LINE
  8
0
 10
-57.615
 11
-57.615
 20
10.25
 21
11.75
  0
LINE
  8
0
 10
-57.615
 11
-20.538
 20
11.75
 21
11.75
  0
LINE
  8
0
 10
-20.538
 11
-20.538
 20
11.75
 21
12.25
  0
LINE
  8
0
 10
-20.538
 11
-57.615
 20
12.25
 21
12.25
  0
LINE
  8
0
 10
-57.615
 11
-57.615
 20
12.25
 21
13.75
  0
LINE
  8
0
 10
-57.615
 11
-39.41
 20
13.75
 21
13.75
  0
LINE
  8
0
 10
-39.41
 11
-39.41
 20
13.75
 21
14.25
  0
LINE
  8
0
 10
-39.41
 11
-57.615
 20
14.25
 21
14.25
  0
LINE
  8
0
 10
-57.615
 11
-57.615
 20
14.25
 21
15.75
  0
LINE
  8
0
 10
-57.615
 11
-20.538
 20
15.75
 21
15.75
  0
LINE
  8
0
 10
-20.538
 11
-20.538
 20
15.75
 21
16.25
  0
LINE
  8
0
 10
-20.538
 11
-57.615
 20
16.25
 21
16.25
  0
LINE
  8
0
 10
-57.615
 11
-57.615
 20
16.25
 21
20.822
  0
LINE
  8
0
 10
-57.615
 11
-54.415
 20
20.822
 21
20.822
  0
LINE
  8
0
 10
-54.415
 11
-54.415
 20
20.822
 21
25.592
  0
LINE
  8
0
 10
-54.415
 11
-57.615
 20
25.592
 21
25.592
  0
LINE
  8
0
 10
-57.615
 11
-57.615
 20
25.592
 21
32.615
  0
LINE
  8
0
 10
-57.615
 11
-57.385
 20
32.615
 21
32.615
  0
LINE
  8
0
 10
-57.385
 11
-57.385
 20
32.615
 21
29.415
  0
LINE
  8
0
 10
-57.385
 11
-52.615
 20
29.415
 21
29.415
  0
LINE
  8
0
 10
-52.615
 11
-52.615
 20
29.415
 21
32.615
  0
LINE
  8
0
 10
-52.615
 11
-47.385
 20
32.615
 21
32.615
  0
LINE
  8
0
 10
-47.385
 11
-47.385
 20
32.615
 21
29.415
  0
LINE
  8
0
 10
-47.385
 11
-42.615
 20
29.415
 21
29.415
  0
LINE
  8
0
 10
-42.615
 11
-42.615
 20
29.415
 21
32.615
  0
LINE
  8
0
 10
-42.615
 11
-37.385
 20
32.615
 21
32.615
  0
LINE
  8
0
 10
-37.385
 11
-37.385
 20
32.615
 21
29.415
  0
LINE
  8
0
 10
-37.385
 11
-32.615
 20
29.415
 21
29.415
  0
LINE
  8
0
 10
-32.615
 11
-32.615
 20
29.415
 21
32.615
  0
LINE
  8
0
 10
-32.615
 11
-27.385
 20
32.615
 21
32.615
  0
LINE
  8
0
 10
-27.385
 11
-27.385
 20
32.615
 21
29.415
  0
LINE
  8
0
 10
-27.385
 11
-22.615
 20
29.415
 21
29.415
  0
LINE
  8
0
 10
-22.615
 11
-22.615
 20
29.415
 21
32.615
  0
LINE
  8
0
 10
-22.615
 11
-17.385
 20
32.615
 21
32.615
  0
LINE
  8
0
 10
-17.385
 11
-17.385
 20
32.615
 21
29.415
  0
LINE
  8
0
 10
-17.385
 11
-12.615
 20
29.415
 21
29.415
  0
LINE
  8
0
 10
-12.615
 11
-12.615
 20
29.415
 21
32.615
  0
LINE
  8
0
 10
-12.615
 11
-7.385
 20
32.615
 21
32.615
  0
LINE
  8
0
 10
-7.385
 11
-7.385
 20
32.615
 21
29.415
  0
LINE
  8
0
 10
-7.385
 11
-2.615
 20
29.415
 21
29.415
  0
LINE
  8
0
 10
-2.615
 11
-2.615
 20
29.415
 21
32.615
  0
LINE
  8
0
 10
-2.615
 11
2.615
 20
32.615
 21
32.615
  0
LINE
  8
0
 10
2.615
 11
2.615
 20
32.615
 21
29.415
  0
LINE
  8
0
 10
2.615
 11
7.385
 20
29.415
 21
29.415
  0
LINE
  8
0
 10
7.385
 11
7.385
 20
29.415
 21
32.615
  0
LINE
  8
0
 10
7.385
 11
12.615
 20
32.615
 21
32.615
  0
LINE
  8
0
 10
12.615
 11
12.615
 20
32.615
 21
29.415
  0
LINE
  8
0
 10
12.615
 11
17.385
 20
29.415
 21
29.415
  0
LINE
  8
0
 10
17.385
 11
17.385
 20
29.415
 21
32.615
  0
LINE
  8
0
 10
17.385
 11
22.615
 20
32.615
 21
32.615
  0
LINE
  8
0
 10
22.615
 11
22.615
 20
32.615
 21
29.415
  0
LINE
  8
0
 10
22.615
 11
27.385
 20
29.415
 21
29.415
  0
LINE
  8
0
 10
27.385
 11
27.385
 20
29.415
 21
32.615
  0
LINE
  8
0
 10
27.385
 11
32.615
 20
32.615
 21
32.615
  0
LINE
  8
0
 10
32.615
 11
32.615
 20
32.615
 21
29.415
  0
LINE
  8
0
 10
32.615
 11
37.385
 20
29.415
 21
29.415
  0
LINE
  8
0
 10
37.385
 11
37.385
 20
29.415
 21
32.615
  0
LINE
  8
0
 10
37.385
 11
42.615
 20
32.615
 21
32.615
  0
LINE
  8
0
 10
42.615
 11
42.615
 20
32.615
 21
29.415
  0
LINE
  8
0
 10
42.615
 11
47.385
 20
29.415
 21
29.415
  0
LINE
  8
0
 10
47.385
 11
47.385
 20
29.415
 21
32.615
  0
LINE
  8
0
 10
47.385
 11
52.615
 20
32.615
 21
32.615
  0
LINE
  8
0
 10
52.615
 11
52.615
 20
32.615
 21
29.415
  0
LINE
  8
0
 10
52.615
 11
57.615
 20
29.415
 21
29.415
  0
LINE
  8
0
 10
57.615
 11
57.615
 20
29.415
 21
25.592
  0
LINE
  8
0
 10
57.615
 11
54.415
 20
25.592
 21
25.592
  0
LINE
  8
0
 10
54.415
 11
54.415
 20
25.592
 21
20.822
  0
LINE
  8
0
 10
54.415
 11
57.615
 20
20.822
 21
20.822
  0
LINE
  8
0
 10
57.615
 11
57.615
 20
20.822
 21
16.25
  0
LINE
  8
0
 10
57.615
 11
20.538
 20
16.25
 21
16.25
  0
LINE
  8
0
 10
20.538
 11
20.538
 20
16.25
 21
15.75
  0
LINE
  8
0
 10
20.538
 11
57.615
 20
15.75
 21
15.75
  0
LINE
  8
0
 10
57.615
 11
57.615
 20
15.75
 21
14.25
  0
LINE
  8
0
 10
57.615
 11
39.41
 20
14.25
 21
14.25
  0
LINE
  8
0
 10
39.41
 11
39.41
 20
14.25
 21
13.75
  0
LINE
  8
0
 10
39.41
 11
57.615
 20
13.75
 21
13.75
  0
LINE
  8
0
 10
57.615
 11
57.615
 20
13.75
 21
12.25
  0
LINE
  8
0
 10
57.615
 11
20.538
 20
12.25
 21
12.25
  0
LINE
  8
0
 10
20.538
 11
20.538
 20
12.25
 21
11.75
  0
LINE
  8
0
 10
20.538
 11
57.615
 20
11.75
 21
11.75
  0
LINE
  8
0
 10
57.615
 11
57.615
 20
11.75
 21
10.25
  0
LINE
  8
0
 10
57.615
 11
39.41
 20
10.25
 21
10.25
  0
LINE
  8
0
 10
39.41
 11
39.41
 20
10.25
 21
9.75
  0
LINE
  8
0
 10
39.41
 11
57.615
 20
9.75
 21
9.75
  0
LINE
  8
0
 10
57.615
 11
57.615
 20
9.75
 21
8.25
  0
LINE
  8
0
 10
57.615
 11
20.538
 20
8.25
 21
8.25
  0
LINE
  8
0
 10
20.538
 11
20.538
 20
8.25
 21
7.75
  0
LINE
  8
0
 10
20.538
 11
57.615
 20
7.75
 21
7.75
  0
LINE
  8
0
 10
57.615
 11
57.615
 20
7.75
 21
6.25
  0
LINE
  8
0
 10
57.615
 11
39.41
 20
6.25
 21
6.25
  0
LINE
  8
0
 10
39.41
 11
39.41
 20
6.25
 21
5.75
  0
LINE
  8
0
 10
39.41
 11
57.615
 20
5.75
 21
5.75
  0
LINE
  8
0
 10
57.615
 11
57.615
 20
5.75
 21
4.25
  0
LINE
  8
0
 10
57.615
 11
20.538
 20
4.25
 21
4.25
  0
LINE
  8
0
 10
20.538
 11
20.538
 20
4.25
 21
3.75
  0
LINE
  8
0
 10
20.538
 11
57.615
 20
3.75
 21
3.75
  0
LINE
  8
0
 10
57.615
 11
57.615
 20
3.75
 21
2.25
  0
LINE
  8
0
 10
57.615
 11
39.41
 20
2.25
 21
2.25
  0
LINE
  8
0
 10
39.41
 11
39.41
 20
2.25
 21
1.75
  0
LINE
  8
0
 10
39.41
 11
57.615
 20
1.75
 21
1.75
  0
LINE
  8
0
 10
57.615
 11
57.615
 20
1.75
 21
0.25
  0
LINE
  8
0
 10
57.615
 11
20.538
 20
0.25
 21
0.25
  0
LINE
  8
0
 10
20.538
 11
20.538
 20
0.25
 21
-0.25
  0
LINE
  8
0
 10
20.538
 11
57.615
 20
-0.25
 21
-0.25
  0
LINE
  8
0
 10
57.615
 11
57.615
 20
-0.25
 21
-1.75
  0
LINE
  8
0
 10
57.615
 11
39.41
 20
-1.75
 21
-1.75
  0
LINE
  8
0
 10
39.41
 11
39.41
 20
-1.75
 21
-2.25
  0
LINE
  8
0
 10
39.41
 11
57.615
 20
-2.25
 21
-2.25
  0
LINE
  8
0
 10
57.615
 11
57.615
 20
-2.25
 21
-3.75
  0
LINE
  8
0
 10
57.615
 11
20.538
 20
-3.75
 21
-3.75
  0
LINE
  8
0
 10
20.538
 11
20.538
 20
-3.75
 21
-4.25
  0
LINE
  8
0
 10
20.538
 11
57.615
 20
-4.25
 21
-4.25
  0
LINE
  8
0
 10
57.615
 11
57.615
 20
-4.25
 21
-5.75
  0
LINE
  8
0
 10
57.615
 11
39.41
 20
-5.75
 21
-5.75
  0
LINE
  8
0
 10
39.41
 11
39.41
 20
-5.75
 21
-6.25
  0
LINE
  8
0
 10
39.41
 11
57.615
 20
-6.25
 21
-6.25
  0
LINE
  8
0
 10
57.615
 11
57.615
 20
-6.25
 21
-7.75
  0
LINE
  8
0
 10
57.615
 11
20.538
 20
-7.75
 21
-7.75
  0
LINE
  8
0
 10
20.538
 11
20.538
 20
-7.75
 21
-8.25
  0
LINE
  8
0
 10
20.538
 11
57.615
 20
-8.25
 21
-8.25
  0
LINE
  8
0
 10
57.615
 11
57.615
 20
-8.25
 21
-9.75
  0
LINE
  8
0
 10
57.615
 11
39.41
 20
-9.75
 21
-9.75
  0
LINE
  8
0
 10
39.41
 11
39.41
 20
-9.75
 21
-10.25
  0
LINE
  8
0
 10
39.41
 11
57.615
 20
-10.25
 21
-10.25
  0
LINE
  8
0
 10
57.615
 11
57.615
 20
-10.25
 21
-11.75
  0
LINE
  8
0
 10
57.615
 11
20.538
 20
-11.75
 21
-11.75
  0
LINE
  8
0
 10
20.538
 11
20.538
 20
-11.75
 21
-12.25
  0
LINE
  8
0
 10
20.538
 11
57.615
 20
-12.25
 21
-12.25
  0
LINE
  8
0
 10
57.615
 11
57.615
 20
-12.25
 21
-13.75
  0
LINE
  8
0
 10
57.615
 11
39.41
 20
-13.75
 21
-13.75
  0
LINE
  8
0
 10
39.41
 11
39.41
 20
-13.75
 21
-14.25
  0
LINE
  8
0
 10
39.41
 11
57.615
 20
-14.25
 21
-14.25
  0
LINE
  8
0
 10
57.615
 11
57.615
 20
-14.25
 21
-15.75
  0
LINE
  8
0
 10
57.615
 11
20.538
 20
-15.75
 21
-15.75
  0
LINE
  8
0
 10
20.538
 11
20.538
 20
-15.75
 21
-16.25
  0
LINE
  8
0
 10
20.538
 11
57.615
 20
-16.25
 21
-16.25
  0
LINE
  8
0
 10
57.615
 11
57.615
 20
-16.25
 21
-20.822
  0
LINE
  8
0
 10
57.615
 11
54.415
 20
-20.822
 21
-20.822
  0
LINE
  8
0
 10
54.415
 11
54.415
 20
-20.822
 21
-25.592
  0
LINE
  8
0
 10
54.415
 11
57.615
 20
-25.592
 21
-25.592
  0
LINE
  8
0
 10
57.615
 11
57.615
 20
-25.592
 21
-32.615
  0
LINE
  8
0
 10
57.615
 11
52.385
 20
-32.615
 21
-32.615
  0
LINE
  8
0
 10
52.385
 11
52.385
 20
-32.615
 21
-29.415
  0
LINE
  8
0
 10
52.385
 11
47.615
 20
-29.415
 21
-29.415
  0
LINE
  8
0
 10
47.615
 11
47.615
 20
-29.415
 21
-32.615
  0
LINE
  8
0
 10
47.615
 11
42.385
 20
-32.615
 21
-32.615
  0
LINE
  8
0
 10
42.385
 11
42.385
 20
-32.615
 21
-29.415
  0
LINE
  8
0
 10
42.385
 11
37.615
 20
-29.415
 21
-29.415
  0
LINE
  8
0
 10
37.615
 11
37.615
 20
-29.415
 21
-32.615
  0
LINE
  8
0
 10
37.615
 11
32.385
 20
-32.615
 21
-32.615
  0
LINE
  8
0
 10
32.385
 11
32.385
 20
-32.615
 21
-29.415
  0
LINE
  8
0
 10
32.385
 11
27.615
 20
-29.415
 21
-29.415
  0
LINE
  8
0
 10
27.615
 11
27.615
 20
-29.415
 21
-32.615
  0
LINE
  8
0
 10
27.615
 11
22.385
 20
-32.615
 21
-32.615
  0
LINE
  8
0
 10
22.385
 11
22.385
 20
-32.615
 21
-29.415
  0
LINE
  8
0
 10
22.385
 11
17.615
 20
-29.415
 21
-29.415
  0
LINE
  8
0
 10
17.615
 11
17.615
 20
-29.415
 21
-32.615
  0
LINE
  8
0
 10
17.615
 11
12.385
 20
-32.615
 21
-32.615
  0
LINE
  8
0
 10
12.385
 11
12.385
 20
-32.615
 21
-29.415
  0
LINE
  8
0
 10
12.385
 11
7.615
 20
-29.415
 21
-29.415
  0
LINE
  8
0
 10
7.615
 11
7.615
 20
-29.415
 21
-32.615
  0
LINE
  8
0
 10
7.615
 11
2.385
 20
-32.615
 21
-32.615
  0
LINE
  8
0
 10
2.385
 11
2.385
 20
-32.615
 21
-29.415
  0
LINE
  8
0
 10
2.385
 11
-2.385
 20
-29.415
 21
-29.415
  0
LINE
  8
0
 10
-2.385
 11
-2.385
 20
-29.415
 21
-32.615
  0
LINE
  8
0
 10
-2.385
 11
-7.615
 20
-32.615
 21
-32.615
  0
LINE
  8
0
 10
-7.615
 11
-7.615
 20
-32.615
 21
-29.415
  0
LINE
  8
0
 10
-7.615
 11
-12.385
 20
-29.415
 21
-29.415
  0
LINE
  8
0
 10
-12.385
 11
-12.385
 20
-29.415
 21
-32.615
  0
LINE
  8
0
 10
-12.385
 11
-17.615
 20
-32.615
 21
-32.615
  0
LINE
  8
0
 10
-17.615
 11
-17.615
 20
-32.615
 21
-29.415
  0
LINE
  8
0
 10
-17.615
 11
-22.385
 20
-29.415
 21
-29.415
  0
LINE
  8
0
 10
-22.385
 11
-22.385
 20
-29.415
 21
-32.615
  0
LINE
  8
0
 10
-22.385
 11
-27.615
 20
-32.615
 21
-32.615
  0
LINE
  8
0
 10
-27.615
 11
-27.615
 20
-32.615
 21
-29.415
  0
LINE
  8
0
 10
-27.615
 11
-32.385
 20
-29.415
 21
-29.415
  0
LINE
  8
0
 10
-32.385
 11
-32.385
 20
-29.415
 21
-32.615
  0
LINE
  8
0
 10
-32.385
 11
-37.615
 20
-32.615
 21
-32.615
  0
LINE
  8
0
 10
-37.615
 11
-37.615
 20
-32.615
 21
-29.415
  0
LINE
  8
0
 10
-37.615
 11
-42.385
 20
-29.415
 21
-29.415
  0
LINE
  8
0
 10
-42.385
 11
-42.385
 20
-29.415
 21
-32.615
  0
LINE
  8
0
 10
-42.385
 11
-47.615
 20
-32.615
 21
-32.615
  0
LINE
  8
0
 10
-47.615
 11
-47.615
 20
-32.615
 21
-29.415
  0
LINE
  8
0
 10
-47.615
 11
-52.385
 20
-29.415
 21
-29.415
  0
LINE
  8
0
 10
-52.385
 11
-52.385
 20
-29.415
 21
-32.615
  0
LINE
  8
0
 10
-52.385
 11
-57.615
 20
-32.615
 21
-32.615
  0
LINE
  8
0
 10
-57.615
 11
-57.615
 20
37.615
 21
44.638
  0
LINE
  8
0
 10
-57.615
 11
-54.415
 20
44.638
 21
44.638
  0
LINE
  8
0
 10
-54.415
 11
-54.415
 20
44.638
 21
49.408
  0
LINE
  8
0
 10
-54.415
 11
-57.615
 20
49.408
 21
49.408
  0
LINE
  8
0
 10
-57.615
 11
-57.615
 20
49.408
 21
53.98
  0
LINE
  8
0
 10
-57.615
 11
-20.538
 20
53.98
 21
53.98
  0
LINE
  8
0
 10
-20.538
 11
-20.538
 20
53.98
 21
54.48
  0
LINE
  8
0
 10
-20.538
 11
-57.615
 20
54.48
 21
54.48
  0
LINE
  8
0
 10
-57.615
 11
-57.615
 20
54.48
 21
55.98
  0
LINE
  8
0
 10
-57.615
 11
-39.41
 20
55.98
 21
55.98
  0
LINE
  8
0
 10
-39.41
 11
-39.41
 20
55.98
 21
56.48
  0
LINE
  8
0
 10
-39.41
 11
-57.615
 20
56.48
 21
56.48
  0
LINE
  8
0
 10
-57.615
 11
-57.615
 20
56.48
 21
57.98
  0
LINE
  8
0
 10
-57.615
 11
-20.538
 20
57.98
 21
57.98
  0
LINE
  8
0
 10
-20.538
 11
-20.538
 20
57.98
 21
58.48
  0
LINE
  8
0
 10
-20.538
 11
-57.615
 20
58.48
 21
58.48
  0
LINE
  8
0
 10
-57.615
 11
-57.615
 20
58.48
 21
59.98
  0
LINE
  8
0
 10
-57.615
 11
-39.41
 20
59.98
 21
59.98
  0
LINE
  8
0
 10
-39.41
 11
-39.41
 20
59.98
 21
60.48
  0
LINE
  8
0
 10
-39.41
 11
-57.615
 20
60.48
 21
60.48
  0
LINE
  8
0
 10
-57.615
 11
-57.615
 20
60.48
 21
61.98
  0
LINE
  8
0
 10
-57.615
 11
-20.538
 20
61.98
 21
61.98
  0
LINE
  8
0
 10
-20.538
 11
-20.538
 20
61.98
 21
62.48
  0
LINE
  8
0
 10
-20.538
 11
-57.615
 20
62.48
 21
62.48
  0
LINE
  8
0
 10
-57.615
 11
-57.615
 20
62.48
 21
63.98
  0
LINE
  8
0
 10
-57.615
 11
-39.41
 20
63.98
 21
63.98
  0
LINE
  8
0
 10
-39.41
 11
-39.41
 20
63.98
 21
64.48
  0
LINE
  8
0
 10
-39.41
 11
-57.615
 20
64.48
 21
64.48
  0
LINE
  8
0
 10
-57.615
 11
-57.615
 20
64.48
 21
65.98
  0
LINE
  8
0
 10
-57.615
 11
-20.538
 20
65.98
 21
65.98
  0
LINE
  8
0
 10
-20.538
 11
-20.538
 20
65.98
 21
66.48
  0
LINE
  8
0
 10
-20.538
 11
-57.615
 20
66.48
 21
66.48
  0
LINE
  8
0
 10
-57.615
 11
-57.615
 20
66.48
 21
67.98
  0
LINE
  8
0
 10
-57.615
 11
-39.41
 20
67.98
 21
67.98
  0
LINE
  8
0
 10
-39.41
 11
-39.41
 20
67.98
 21
68.48
  0
LINE
  8
0
 10
-39.41
 11
-57.615
 20
68.48
 21
68.48
  0
LINE
  8
0
 10
-57.615
 11
-57.615
 20
68.48
 21
69.98
  0
LINE
  8
0
 10
-57.615
 11
-20.538
 20
69.98
 21
69.98
  0
LINE
  8
0
 10
-20.538
 11
-20.538
 20
69.98
 21
70.48
  0
LINE
  8
0
 10
-20.538
 11
-57.615
 20
70.48
 21
70.48
  0
LINE
  8
0
 10
-57.615
 11
-57.615
 20
70.48
 21
71.98
  0
LINE
  8
0
 10
-57.615
 11
-39.41
 20
71.98
 21
71.98
  0
LINE
  8
0
 10
-39.41
 11
-39.41
 20
71.98
 21
72.48
  0
LINE
  8
0
 10
-39.41
 11
-57.615
 20
72.48
 21
72.48
  0
LINE
  8
0
 10
-57.615
 11
-57.615
 20
72.48
 21
73.98
  0
LINE
  8
0
 10
-57.615
 11
-20.538
 20
73.98
 21
73.98
  0
LINE
  8
0
 10
-20.538
 11
-20.538
 20
73.98
 21
74.48
  0
LINE
  8
0
 10
-20.538
 11
-57.615
 20
74.48
 21
74.48
  0
LINE
  8
0
 10
-57.615
 11
-57.615
 20
74.48
 21
75.98
  0
LINE
  8
0
 10
-57.615
 11
-39.41
 20
75.98
 21
75.98
  0
LINE
  8
0
 10
-39.41
 11
-39.41
 20
75.98
 21
76.48
  0
LINE
  8
0
 10
-39.41
 11
-57.615
 20
76.48
 21
76.48
  0
LINE
  8
0
 10
-57.615
 11
-57.615
 20
76.48
 21
77.98
  0
LINE
  8
0
 10
-57.615
 11
-20.538
 20
77.98
 21
77.98
  0
LINE
  8
0
 10
-20.538
 11
-20.538
 20
77.98
 21
78.48
  0
LINE
  8
0
 10
-20.538
 11
-57.615
 20
78.48
 21
78.48
  0
LINE
  8
0
 10
-57.615
 11
-57.615
 20
78.48
 21
79.98
  0
LINE
  8
0
 10
-57.615
 11
-39.41
 20
79.98
 21
79.98
  0
LINE
  8
0
 10
-39.41
 11
-39.41
 20
79.98
 21
80.48
  0
LINE
  8
0
 10
-39.41
 11
-57.615
 20
80.48
 21
80.48
  0
LINE
  8
0
 10
-57.615
 11
-57.615
 20
80.48
 21
81.98
  0
LINE
  8
0
 10
-57.615
 11
-20.538
 20
81.98
 21
81.98
  0
LINE
  8
0
 10
-20.538
 11
-20.538
 20
81.98
 21
82.48
  0
LINE
  8
0
 10
-20.538
 11
-57.615
 20
82.48
 21
82.48
  0
LINE
  8
0
 10
-57.615
 11
-57.615
 20
82.48
 21
83.98
  0
LINE
  8
0
 10
-57.615
 11
-39.41
 20
83.98
 21
83.98
  0
LINE
  8
0
 10
-39.41
 11
-39.41
 20
83.98
 21
84.48
  0
LINE
  8
0
 10
-39.41
 11
-57.615
 20
84.48
 21
84.48
  0
LINE
  8
0
 10
-57.615
 11
-57.615
 20
84.48
 21
85.98
  0
LINE
  8
0
 10
-57.615
 11
-20.538
 20
85.98
 21
85.98
  0
LINE
  8
0
 10
-20.538
 11
-20.538
 20
85.98
 21
86.48
  0
LINE
  8
0
 10
-20.538
 11
-57.615
 20
86.48
 21
86.48
  0
LINE
  8
0
 10
-57.615
 11
-57.615
 20
86.48
 21
91.052
  0
LINE
  8
0
 10
-57.615
 11
-54.415
 20
91.052
 21
91.052
  0
LINE
  8
0
 10
-54.415
 11
-54.415
 20
91.052
 21
95.822
  0
LINE
  8
0
 10
-54.415
 11
-57.615
 20
95.822
 21
95.822
  0
LINE
  8
0
 10
-57.615
 11
-57.615
 20
95.822
 21
102.845
  0
LINE
  8
0
 10
-57.615
 11
-57.385
 20
102.845
 21
102.845
  0
LINE
  8
0
 10
-57.385
 11
-57.385
 20
102.845
 21
99.645
  0
LINE
  8
0
 10
-57.385
 11
-52.615
 20
99.645
 21
99.645
  0
LINE
  8
0
 10
-52.615
 11
-52.615
 20
99.645
 21
102.845
  0
LINE
  8
0
 10
-52.615
 11
-47.385
 20
102.845
 21
102.845
  0
LINE
  8
0
 10
-47.385
 11
-47.385
 20
102.845
 21
99.645
  0
LINE
  8
0
 10
-47.385
 11
-42.615
 20
99.645
 21
99.645
  0
LINE
  8
0
 10
-42.615
 11
-42.615
 20
99.645
 21
102.845
  0
LINE
  8
0
 10
-42.615
 11
-37.385
 20
102.845
 21
102.845
  0
LINE
  8
0
 10
-37.385
 11
-37.385
 20
102.845
 21
99.645
  0
LINE
  8
0
 10
-37.385
 11
-32.615
 20
99.645
 21
99.645
  0
LINE
  8
0
 10
-32.615
 11
-32.615
 20
99.645
 21
102.845
  0
LINE
  8
0
 10
-32.615
 11
-27.385
 20
102.845
 21
102.845
  0
LINE
  8
0
 10
-27.385
 11
-27.385
 20
102.845
 21
99.645
  0
LINE
  8
0
 10
-27.385
 11
-22.615
 20
99.645
 21
99.645
  0
LINE
  8
0
 10
-22.615
 11
-22.615
 20
99.645
 21
102.845
  0
LINE
  8
0
 10
-22.615
 11
-17.385
 20
102.845
 21
102.845
  0
LINE
  8
0
 10
-17.385
 11
-17.385
 20
102.845
 21
99.645
  0
LINE
  8
0
 10
-17.385
 11
-12.615
 20
99.645
 21
99.645
  0
LINE
  8
0
 10
-12.615
 11
-12.615
 20
99.645
 21
102.845
  0
LINE
  8
0
 10
-12.615
 11
-7.385
 20
102.845
 21
102.845
  0
LINE
  8
0
 10
-7.385
 11
-7.385
 20
102.845
 21
99.645
  0
LINE
  8
0
 10
-7.385
 11
-2.615
 20
99.645
 21
99.645
  0
LINE
  8
0
 10
-2.615
 11
-2.615
 20
99.645
 21
102.845
  0
LINE
  8
0
 10
-2.615
 11
2.615
 20
102.845
 21
102.845
  0
LINE
  8
0
 10
2.615
 11
2.615
 20
102.845
 21
99.645
  0
LINE
  8
0
 10
2.615
 11
7.385
 20
99.645
 21
99.645
  0
LINE
  8
0
 10
7.385
 11
7.385
 20
99.645
 21
102.845
  0
LINE
  8
0
 10
7.385
 11
12.615
 20
102.845
 21
102.845
  0
LINE
  8
0
 10
12.615
 11
12.615
 20
102.845
 21
99.645
  0
LINE
  8
0
 10
12.615
 11
17.385
 20
99.645
 21
99.645
  0
LINE
  8
0
 10
17.385
 11
17.385
 20
99.645
 21
102.845
  0
LINE
  8
0
 10
17.385
 11
22.615
 20
102.845
 21
102.845
  0
LINE
  8
0
 10
22.615
 11
22.615
 20
102.845
 21
99.645
  0
LINE
  8
0
 10
22.615
 11
27.385
 20
99.645
 21
99.645
  0
LINE
  8
0
 10
27.385
 11
27.385
 20
99.645
 21
102.845
  0
LINE
  8
0
 10
27.385
 11
32.615
 20
102.845
 21
102.845
  0
LINE
  8
0
 10
32.615
 11
32.615
 20
102.845
 21
99.645
  0
LINE
  8
0
 10
32.615
 11
37.385
 20
99.645
 21
99.645
  0
LINE
  8
0
 10
37.385
 11
37.385
 20
99.645
 21
102.845
  0
LINE
  8
0
 10
37.385
 11
42.615
 20
102.845
 21
102.845
  0
LINE
  8
0
 10
42.615
 11
42.615
 20
102.845
 21
99.645
  0
LINE
  8
0
 10
42.615
 11
47.385
 20
99.645
 21
99.645
  0
LINE
  8
0
 10
47.385
 11
47.385
 20
99.645
 21
102.845
  0
LINE
  8
0
 10
47.385
 11
52.615
 20
102.845
 21
102.845
  0
LINE
  8
0
 10
52.615
 11
52.615
 20
102.845
 21
99.645
  0
LINE
  8
0
 10
52.615
 11
57.615
 20
99.645
 21
99.645
  0
LINE
  8
0
 10
57.615
 11
57.615
 20
99.645
 21
95.822
  0
LINE
  8
0
 10
57.615
 11
54.415
 20
95.822
 21
95.822
  0
LINE
  8
0
 10
54.415
 11
54.415
 20
95.822
 21
91.052
  0
LINE
  8
0
 10
54.415
 11
57.615
 20
91.052
 21
91.052
  0
LINE
  8
0
 10
57.615
 11
57.615
 20
91.052
 21
86.48
  0
LINE
  8
0
 10
57.615
 11
20.538
 20
86.48
 21
86.48
  0
LINE
  8
0
 10
20.538
 11
20.538
 20
86.48
 21
85.98
  0
LINE
  8
0
 10
20.538
 11
57.615
 20
85.98
 21
85.98
  0
LINE
  8
0
 10
57.615
 11
57.615
 20
85.98
 21
84.48
  0
LINE
  8
0
 10
57.615
 11
39.41
 20
84.48
 21
84.48
  0
LINE
  8
0
 10
39.41
 11
39.41
 20
84.48
 21
83.98
  0
LINE
  8
0
 10
39.41
 11
57.615
 20
83.98
 21
83.98
  0
LINE
  8
0
 10
57.615
 11
57.615
 20
83.98
 21
82.48
  0
LINE
  8
0
 10
57.615
 11
20.538
 20
82.48
 21
82.48
  0
LINE
  8
0
 10
20.538
 11
20.538
 20
82.48
 21
81.98
  0
LINE
  8
0
 10
20.538
 11
57.615
 20
81.98
 21
81.98
  0
LINE
  8
0
 10
57.615
 11
57.615
 20
81.98
 21
80.48
  0
LINE
  8
0
 10
57.615
 11
39.41
 20
80.48
 21
80.48
  0
LINE
  8
0
 10
39.41
 11
39.41
 20
80.48
 21
79.98
  0
LINE
  8
0
 10
39.41
 11
57.615
 20
79.98
 21
79.98
  0
LINE
  8
0
 10
57.615
 11
57.615
 20
79.98
 21
78.48
  0
LINE
  8
0
 10
57.615
 11
20.538
 20
78.48
 21
78.48
  0
LINE
  8
0
 10
20.538
 11
20.538
 20
78.48
 21
77.98
  0
LINE
  8
0
 10
20.538
 11
57.615
 20
77.98
 21
77.98
  0
LINE
  8
0
 10
57.615
 11
57.615
 20
77.98
 21
76.48
  0
LINE
  8
0
 10
57.615
 11
39.41
 20
76.48
 21
76.48
  0
LINE
  8
0
 10
39.41
 11
39.41
 20
76.48
 21
75.98
  0
LINE
  8
0
 10
39.41
 11
57.615
 20
75.98
 21
75.98
  0
LINE
  8
0
 10
57.615
 11
57.615
 20
75.98
 21
74.48
  0
LINE
  8
0
 10
57.615
 11
20.538
 20
74.48
 21
74.48
  0
LINE
  8
0
 10
20.538
 11
20.538
 20
74.48
 21
73.98
  0
LINE
  8
0
 10
20.538
 11
57.615
 20
73.98
 21
73.98
  0
LINE
  8
0
 10
57.615
 11
57.615
 20
73.98
 21
72.48
  0
LINE
  8
0
 10
57.615
 11
39.41
 20
72.48
 21
72.48
  0
LINE
  8
0
 10
39.41
 11
39.41
 20
72.48
 21
71.98
  0
LINE
  8
0
 10
39.41
 11
57.615
 20
71.98
 21
71.98
  0
LINE
  8
0
 10
57.615
 11
57.615
 20
71.98
 21
70.48
  0
LINE
  8
0
 10
57.615
 11
20.538
 20
70.48
 21
70.48
  0
LINE
  8
0
 10
20.538
 11
20.538
 20
70.48
 21
69.98
  0
LINE
  8
0
 10
20.538
 11
57.615
 20
69.98
 21
69.98
  0
LINE
  8
0
 10
57.615
 11
57.615
 20
69.98
 21
68.48
  0
LINE
  8
0
 10
57.615
 11
39.41
 20
68.48
 21
68.48
  0
LINE
  8
0
 10
39.41
 11
39.41
 20
68.48
 21
67.98
  0
LINE
  8
0
 10
39.41
 11
57.615
 20
67.98
 21
67.98
  0
LINE
  8
0
 10
57.615
 11
57.615
 20
67.98
 21
66.48
  0
LINE
  8
0
 10
57.615
 11
20.538
 20
66.48
 21
66.48
  0
LINE
  8
0
 10
20.538
 11
20.538
 20
66.48
 21
65.98
  0
LINE
  8
0
 10
20.538
 11
57.615
 20
65.98
 21
65.98
  0
LINE
  8
0
 10
57.615
 11
57.615
 20
65.98
 21
64.48
  0
LINE
  8
0
 10
57.615
 11
39.41
 20
64.48
 21
64.48
  0
LINE
  8
0
 10
39.41
 11
39.41
 20
64.48
 21
63.98
  0
LINE
  8
0
 10
39.41
 11
57.615
 20
63.98
 21
63.98
  0
LINE
  8
0
 10
57.615
 11
57.615
 20
63.98
 21
62.48
  0
LINE
  8
0
 10
57.615
 11
20.538
 20
62.48
 21
62.48
  0
LINE
  8
0
 10
20.538
 11
20.538
 20
62.48
 21
61.98
  0
LINE
  8
0
 10
20.538
 11
57.615
 20
61.98
 21
61.98
  0
LINE
  8
0
 10
57.615
 11
57.615
 20
61.98
 21
60.48
  0
LINE
  8
0
 10
57.615
 11
39.41
 20
60.48
 21
60.48
  0
LINE
  8
0
 10
39.41
 11
39.41
 20
60.48
 21
59.98
  0
LINE
  8
0
 10
39.41
 11
57.615
 20
59.98
 21
59.98
  0
LINE
  8
0
 10
57.615
 11
57.615
 20
59.98
 21
58.48
  0
LINE
  8
0
 10
57.615
 11
20.538
 20
58.48
 21
58.48
  0
LINE
  8
0
 10
20.538
 11
20.538
 20
58.48
 21
57.98
  0
LINE
  8
0
 10
20.538
 11
57.615
 20
57.98
 21
57.98
  0
LINE
  8
0
 10
57.615
 11
57.615
 20
57.98
 21
56.48
  0
LINE
  8
0
 10
57.615
 11
39.41
 20
56.48
 21
56.48
  0
LINE
  8
0
 10
39.41
 11
39.41
 20
56.48
 21
55.98
  0
LINE
  8
0
 10
39.41
 11
57.615
 20
55.98
 21
55.98
  0
LINE
  8
0
 10
57.615
 11
57.615
 20
55.98
 21
54.48
  0
LINE
  8
0
 10
57.615
 11
20.538
 20
54.48
 21
54.48
  0
LINE
  8
0
 10
20.538
 11
20.538
 20
54.48
 21
53.98
  0
LINE
  8
0
 10
20.538
 11
57.615
 20
53.98
 21
53.98
  0
LINE
  8
0
 10
57.615
 11
57.615
 20
53.98
 21
49.408
  0
LINE
  8
0
 10
57.615
 11
54.415
 20
49.408
 21
49.408
  0
LINE
  8
0
 10
54.415
 11
54.415
 20
49.408
 21
44.638
  0
LINE
  8
0
 10
54.415
 11
57.615
 20
44.638
 21
44.638
  0
LINE
  8
0
 10
57.615
 11
57.615
 20
44.638
 21
37.615
  0
LINE
  8
0
 10
57.615
 11
52.385
 20
37.615
 21
37.615
  0
LINE
  8
0
 10
52.385
 11
52.385
 20
37.615
 21
40.815
  0
LINE
  8
0
 10
52.385
 11
47.615
 20
40.815
 21
40.815
  0
LINE
  8
0
 10
47.615
 11
47.615
 20
40.815
 21
37.615
  0
LINE
  8
0
 10
47.615
 11
42.385
 20
37.615
 21
37.615
  0
LINE
  8
0
 10
42.385
 11
42.385
 20
37.615
 21
40.815
  0
LINE
  8
0
 10
42.385
 11
37.615
 20
40.815
 21
40.815
  0
LINE
  8
0
 10
37.615
 11
37.615
 20
40.815
 21
37.615
  0
LINE
  8
0
 10
37.615
 11
32.385
 20
37.615
 21
37.615
  0
LINE
  8
0
 10
32.385
 11
32.385
 20
37.615
 21
40.815
  0
LINE
  8
0
 10
32.385
 11
27.615
 20
40.815
 21
40.815
  0
LINE
  8
0
 10
27.615
 11
27.615
 20
40.815
 21
37.615
  0
LINE
  8
0
 10
27.615
 11
22.385
 20
37.615
 21
37.615
  0
LINE
  8
0
 10
22.385
 11
22.385
 20
37.615
 21
40.815
  0
LINE
  8
0
 10
22.385
 11
17.615
 20
40.815
 21
40.815
  0
LINE
  8
0
 10
17.615
 11
17.615
 20
40.815
 21
37.615
  0
LINE
  8
0
 10
17.615
 11
12.385
 20
37.615
 21
37.615
  0
LINE
  8
0
 10
12.385
 11
12.385
 20
37.615
 21
40.815
  0
LINE
  8
0
 10
12.385
 11
7.615
 20
40.815
 21
40.815
  0
LINE
  8
0
 10
7.615
 11
7.615
 20
40.815
 21
37.615
  0
LINE
  8
0
 10
7.615
 11
2.385
 20
37.615
 21
37.615
  0
LINE
  8
0
 10
2.385
 11
2.385
 20
37.615
 21
40.815
  0
LINE
  8
0
 10
2.385
 11
-2.385
 20
40.815
 21
40.815
  0
LINE
  8
0
 10
-2.385
 11
-2.385
 20
40.815
 21
37.615
  0
LINE
  8
0
 10
-2.385
 11
-7.615
 20
37.615
 21
37.615
  0
LINE
  8
0
 10
-7.615
 11
-7.615
 20
37.615
 21
40.815
  0
LINE
  8
0
 10
-7.615
 11
-12.385
 20
40.815
 21
40.815
  0
LINE
  8
0
 10
-12.385
 11
-12.385
 20
40.815
 21
37.615
  0
LINE
  8
0
 10
-12.385
 11
-17.615
 20
37.615
 21
37.615
  0
LINE
  8
0
 10
-17.615
 11
-17.615
 20
37.615
 21
40.815
  0
LINE
  8
0
 10
-17.615
 11
-22.385
 20
40.815
 21
40.815
  0
LINE
  8
0
 10
-22.385
 11
-22.385
 20
40.815
 21
37.615
  0
LINE
  8
0
 10
-22.385
 11
-27.615
 20
37.615
 21
37.615
  0
LINE
  8
0
 10
-27.615
 11
-27.615
 20
37.615
 21
40.815
  0
LINE
  8
0
 10
-27.615
 11
-32.385
 20
40.815
 21
40.815
  0
LINE
  8
0
 10
-32.385
 11
-32.385
 20
40.815
 21
37.615
  0
LINE
  8
0
 10
-32.385
 11
-37.615
 20
37.615
 21
37.615
  0
LINE
  8
0
 10
-37.615
 11
-37.615
 20
37.615
 21
40.815
  0
LINE
  8
0
 10
-37.615
 11
-42.385
 20
40.815
 21
40.815
  0
LINE
  8
0
 10
-42.385
 11
-42.385
 20
40.815
 21
37.615
  0
LINE
  8
0
 10
-42.385
 11
-47.615
 20
37.615
 21
37.615
  0
LINE
  8
0
 10
-47.615
 11
-47.615
 20
37.615
 21
40.815
  0
LINE
  8
0
 10
-47.615
 11
-52.385
 20
40.815
 21
40.815
  0
LINE
  8
0
 10
-52.385
 11
-52.385
 20
40.815
 21
37.615
  0
LINE
  8
0
 10
-52.385
 11
-57.615
 20
37.615
 21
37.615
  0
LINE
  8
0
 10
-57.615
 11
-57.615
 20
107.845
 21
114.868
  0
LINE
  8
0
 10
-57.615
 11
-54.415
 20
114.868
 21
114.868
  0
LINE
  8
0
 10
-54.415
 11
-54.415
 20
114.868
 21
119.638
  0
LINE
  8
0
 10
-54.415
 11
-57.615
 20
119.638
 21
119.638
  0
LINE
  8
0
 10
-57.615
 11
-57.615
 20
119.638
 21
124.21
  0
LINE
  8
0
 10
-57.615
 11
-20.538
 20
124.21
 21
124.21
  0
LINE
  8
0
 10
-20.538
 11
-20.538
 20
124.21
 21
124.71
  0
LINE
  8
0
 10
-20.538
 11
-57.615
 20
124.71
 21
124.71
  0
LINE
  8
0
 10
-57.615
 11
-57.615
 20
124.71
 21
126.21
  0
LINE
  8
0
 10
-57.615
 11
-39.41
 20
126.21
 21
126.21
  0
LINE
  8
0
 10
-39.41
 11
-39.41
 20
126.21
 21
126.71
  0
LINE
  8
0
 10
-39.41
 11
-57.615
 20
126.71
 21
126.71
  0
LINE
  8
0
 10
-57.615
 11
-57.615
 20
126.71
 21
128.21
  0
LINE
  8
0
 10
-57.615
 11
-20.538
 20
128.21
 21
128.21
  0
LINE
  8
0
 10
-20.538
 11
-20.538
 20
128.21
 21
128.71
  0
LINE
  8
0
 10
-20.538
 11
-57.615
 20
128.71
 21
128.71
  0
LINE
  8
0
 10
-57.615
 11
-57.615
 20
128.71
 21
130.21
  0
LINE
  8
0
 10
-57.615
 11
-39.41
 20
130.21
 21
130.21
  0
LINE
  8
0
 10
-39.41
 11
-39.41
 20
130.21
 21
130.71
  0
LINE
  8
0
 10
-39.41
 11
-57.615
 20
130.71
 21
130.71
  0
LINE
  8
0
 10
-57.615
 11
-57.615
 20
130.71
 21
132.21
  0
LINE
  8
0
 10
-57.615
 11
-20.538
 20
132.21
 21
132.21
  0
LINE
  8
0
 10
-20.538
 11
-20.538
 20
132.21
 21
132.71
  0
LINE
  8
0
 10
-20.538
 11
-57.615
 20
132.71
 21
132.71
  0
LINE
  8
0
 10
-57.615
 11
-57.615
 20
132.71
 21
134.21
  0
LINE
  8
0
 10
-57.615
 11
-39.41
 20
134.21
 21
134.21
  0
LINE
  8
0
 10
-39.41
 11
-39.41
 20
134.21
 21
134.71
  0
LINE
  8
0
 10
-39.41
 11
-57.615
 20
134.71
 21
134.71
  0
LINE
  8
0
 10
-57.615
 11
-57.615
 20
134.71
 21
136.21
  0
LINE
  8
0
 10
-57.615
 11
-20.538
 20
136.21
 21
136.21
  0
LINE
  8
0
 10
-20.538
 11
-20.538
 20
136.21
 21
136.71
  0
LINE
  8
0
 10
-20.538
 11
-57.615
 20
136.71
 21
136.71
  0
LINE
  8
0
 10
-57.615
 11
-57.615
 20
136.71
 21
138.21
  0
LINE
  8
0
 10
-57.615
 11
-39.41
 20
138.21
 21
138.21
  0
LINE
  8
0
 10
-39.41
 11
-39.41
 20
138.21
 21
138.71
  0
LINE
  8
0
 10
-39.41
 11
-57.615
 20
138.71
 21
138.71
  0
LINE
  8
0
 10
-57.615
 11
-57.615
 20
138.71
 21
140.21
  0
LINE
  8
0
 10
-57.615
 11
-20.538
 20
140.21
 21
140.21
  0
LINE
  8
0
 10
-20.538
 11
-20.538
 20
140.21
 21
140.71
  0
LINE
  8
0
 10
-20.538
 11
-57.615
 20
140.71
 21
140.71
  0
LINE
  8
0
 10
-57.615
 11
-57.615
 20
140.71
 21
142.21
  0
LINE
  8
0
 10
-57.615
 11
-39.41
 20
142.21
 21
142.21
  0
LINE
  8
0
 10
-39.41
 11
-39.41
 20
142.21
 21
142.71
  0
LINE
  8
0
 10
-39.41
 11
-57.615
 20
142.71
 21
142.71
  0
LINE
  8
0
 10
-57.615
 11
-57.615
 20
142.71
 21
144.21
  0
LINE
  8
0
 10
-57.615
 11
-20.538
 20
144.21
 21
144.21
  0
LINE
  8
0
 10
-20.538
 11
-20.538
 20
144.21
 21
144.71
  0
LINE
  8
0
 10
-20.538
 11
-57.615
 20
144.71
 21
144.71
  0
LINE
  8
0
 10
-57.615
 11
-57.615
 20
144.71
 21
146.21
  0
LINE
  8
0
 10
-57.615
 11
-39.41
 20
146.21
 21
146.21
  0
LINE
  8
0
 10
-39.41
 11
-39.41
 20
146.21
 21
146.71
  0
LINE
  8
0
 10
-39.41
 11
-57.615
 20
146.71
 21
146.71
  0
LINE
  8
0
 10
-57.615
 11
-57.615
 20
146.71
 21
148.21
  0
LINE
  8
0
 10
-57.615
 11
-20.538
 20
148.21
 21
148.21
  0
LINE
  8
0
 10
-20.538
 11
-20.538
 20
148.21
 21
148.71
  0
LINE
  8
0
 10
-20.538
 11
-57.615
 20
148.71
 21
148.71
  0
LINE
  8
0
 10
-57.615
 11
-57.615
 20
148.71
 21
150.21
  0
LINE
  8
0
 10
-57.615
 11
-39.41
 20
150.21
 21
150.21
  0
LINE
  8
0
 10
-39.41
 11
-39.41
 20
150.21
 21
150.71
  0
LINE
  8
0
 10
-39.41
 11
-57.615
 20
150.71
 21
150.71
  0
LINE
  8
0
 10
-57.615
 11
-57.615
 20
150.71
 21
152.21
  0
LINE
  8
0
 10
-57.615
 11
-20.538
 20
152.21
 21
152.21
  0
LINE
  8
0
 10
-20.538
 11
-20.538
 20
152.21
 21
152.71
  0
LINE
  8
0
 10
-20.538
 11
-57.615
 20
152.71
 21
152.71
  0
LINE
  8
0
 10
-57.615
 11
-57.615
 20
152.71
 21
154.21
  0
LINE
  8
0
 10
-57.615
 11
-39.41
 20
154.21
 21
154.21
  0
LINE
  8
0
 10
-39.41
 11
-39.41
 20
154.21
 21
154.71
  0
LINE
  8
0
 10
-39.41
 11
-57.615
 20
154.71
 21
154.71
  0
LINE
  8
0
 10
-57.615
 11
-57.615
 20
154.71
 21
156.21
  0
LINE
  8
0
 10
-57.615
 11
-20.538
 20
156.21
 21
156.21
  0
LINE
  8
0
 10
-20.538
 11
-20.538
 20
156.21
 21
156.71
  0
LINE
  8
0
 10
-20.538
 11
-57.615
 20
156.71
 21
156.71
  0
LINE
  8
0
 10
-57.615
 11
-57.615
 20
156.71
 21
161.282
  0
LINE
  8
0
 10
-57.615
 11
-54.415
 20
161.282
 21
161.282
  0
LINE
  8
0
 10
-54.415
 11
-54.415
 20
161.282
 21
166.052
  0
LINE
  8
0
 10
-54.415
 11
-57.615
 20
166.052
 21
166.052
  0
LINE
  8
0
 10
-57.615
 11
-57.615
 20
166.052
 21
173.075
  0
LINE
  8
0
 10
-57.615
 11
-57.385
 20
173.075
 21
173.075
  0
LINE
  8
0
 10
-57.385
 11
-57.385
 20
173.075
 21
169.875
  0
LINE
  8
0
 10
-57.385
 11
-52.615
 20
169.875
 21
169.875
  0
LINE
  8
0
 10
-52.615
 11
-52.615
 20
169.875
 21
173.075
  0
LINE
  8
0
 10
-52.615
 11
-47.385
 20
173.075
 21
173.075
  0
LINE
  8
0
 10
-47.385
 11
-47.385
 20
173.075
 21
169.875
  0
LINE
  8
0
 10
-47.385
 11
-42.615
 20
169.875
 21
169.875
  0
LINE
  8
0
 10
-42.615
 11
-42.615
 20
169.875
 21
173.075
  0
LINE
  8
0
 10
-42.615
 11
-37.385
 20
173.075
 21
173.075
  0
LINE
  8
0
 10
-37.385
 11
-37.385
 20
173.075
 21
169.875
  0
LINE
  8
0
 10
-37.385
 11
-32.615
 20
169.875
 21
169.875
  0
LINE
  8
0
 10
-32.615
 11
-32.615
 20
169.875
 21
173.075
  0
LINE
  8
0
 10
-32.615
 11
-27.385
 20
173.075
 21
173.075
  0
LINE
  8
0
 10
-27.385
 11
-27.385
 20
173.075
 21
169.875
  0
LINE
  8
0
 10
-27.385
 11
-22.615
 20
169.875
 21
169.875
  0
LINE
  8
0
 10
-22.615
 11
-22.615
 20
169.875
 21
173.075
  0
LINE
  8
0
 10
-22.615
 11
-17.385
 20
173.075
 21
173.075
  0
LINE
  8
0
 10
-17.385
 11
-17.385
 20
173.075
 21
169.875
  0
LINE
  8
0
 10
-17.385
 11
-12.615
 20
169.875
 21
169.875
  0
LINE
  8
0
 10
-12.615
 11
-12.615
 20
169.875
 21
173.075
  0
LINE
  8
0
 10
-12.615
 11
-7.385
 20
173.075
 21
173.075
  0
LINE
  8
0
 10
-7.385
 11
-7.385
 20
173.075
 21
169.875
  0
LINE
  8
0
 10
-7.385
 11
-2.615
 20
169.875
 21
169.875
  0
LINE
  8
0
 10
-2.615
 11
-2.615
 20
169.875
 21
173.075
  0
LINE
  8
0
 10
-2.615
 11
2.615
 20
173.075
 21
173.075
  0
LINE
  8
0
 10
2.615
 11
2.615
 20
173.075
 21
169.875
  0
LINE
  8
0
 10
2.615
 11
7.385
 20
169.875
 21
169.875
  0
LINE
  8
0
 10
7.385
 11
7.385
 20
169.875
 21
173.075
  0
LINE
  8
0
 10
7.385
 11
12.615
 20
173.075
 21
173.075
  0
LINE
  8
0
 10
12.615
 11
12.615
 20
173.075
 21
169.875
  0
LINE
  8
0
 10
12.615
 11
17.385
 20
169.875
 21
169.875
  0
LINE
  8
0
 10
17.385
 11
17.385
 20
169.875
 21
173.075
  0
LINE
  8
0
 10
17.385
 11
22.615
 20
173.075
 21
173.075
  0
LINE
  8
0
 10
22.615
 11
22.615
 20
173.075
 21
169.875
  0
LINE
  8
0
 10
22.615
 11
27.385
 20
169.875
 21
169.875
  0
LINE
  8
0
 10
27.385
 11
27.385
 20
169.875
 21
173.075
  0
LINE
  8
0
 10
27.385
 11
32.615
 20
173.075
 21
173.075
  0
LINE
  8
0
 10
32.615
 11
32.615
 20
173.075
 21
169.875
  0
LINE
  8
0
 10
32.615
 11
37.385
 20
169.875
 21
169.875
  0
LINE
  8
0
 10
37.385
 11
37.385
 20
169.875
 21
173.075
  0
LINE
  8
0
 10
37.385
 11
42.615
 20
173.075
 21
173.075
  0
LINE
  8
0
 10
42.615
 11
42.615
 20
173.075
 21
169.875
  0
LINE
  8
0
 10
42.615
 11
47.385
 20
169.875
 21
169.875
  0
LINE
  8
0
 10
47.385
 11
47.385
 20
169.875
 21
173.075
  0
LINE
  8
0
 10
47.385
 11
52.615
 20
173.075
 21
173.075
  0
LINE
  8
0
 10
52.615
 11
52.615
 20
173.075
 21
169.875
  0
LINE
  8
0
 10
52.615
 11
57.615
 20
169.875
 21
169.875
  0
LINE
  8
0
 10
57.615
 11
57.615
 20
169.875
 21
166.052
  0
LINE
  8
0
 10
57.615
 11
54.415
 20
166.052
 21
166.052
  0
LINE
  8
0
 10
54.415
 11
54.415
 20
166.052
 21
161.282
  0
LINE
  8
0
 10
54.415
 11
57.615
 20
161.282
 21
161.282
  0
LINE
  8
0
 10
57.615
 11
57.615
 20
161.282
 21
156.71
  0
LINE
  8
0
 10
57.615
 11
20.538
 20
156.71
 21
156.71
  0
LINE
  8
0
 10
20.538
 11
20.538
 20
156.71
 21
156.21
  0
LINE
  8
0
 10
20.538
 11
57.615
 20
156.21
 21
156.21
  0
LINE
  8
0
 10
57.615
 11
57.615
 20
156.21
 21
154.71
  0
LINE
  8
0
 10
57.615
 11
39.41
 20
154.71
 21
154.71
  0
LINE
  8
0
 10
39.41
 11
39.41
 20
154.71
 21
154.21
  0
LINE
  8
0
 10
39.41
 11
57.615
 20
154.21
 21
154.21
  0
LINE
  8
0
 10
57.615
 11
57.615
 20
154.21
 21
152.71
  0
LINE
  8
0
 10
57.615
 11
20.538
 20
152.71
 21
152.71
  0
LINE
  8
0
 10
20.538
 11
20.538
 20
152.71
 21
152.21
  0
LINE
  8
0
 10
20.538
 11
57.615
 20
152.21
 21
152.21
  0
LINE
  8
0
 10
57.615
 11
57.615
 20
152.21
 21
150.71
  0
LINE
  8
0
 10
57.615
 11
39.41
 20
150.71
 21
150.71
  0
LINE
  8
0
 10
39.41
 11
39.41
 20
150.71
 21
150.21
  0
LINE
  8
0
 10
39.41
 11
57.615
 20
150.21
 21
150.21
  0
LINE
  8
0
 10
57.615
 11
57.615
 20
150.21
 21
148.71
  0
LINE
  8
0
 10
57.615
 11
20.538
 20
148.71
 21
148.71
  0
LINE
  8
0
 10
20.538
 11
20.538
 20
148.71
 21
148.21
  0
LINE
  8
0
 10
20.538
 11
57.615
 20
148.21
 21
148.21
  0
LINE
  8
0
 10
57.615
 11
57.615
 20
148.21
 21
146.71
  0
LINE
  8
0
 10
57.615
 11
39.41
 20
146.71
 21
146.71
  0
LINE
  8
0
 10
39.41
 11
39.41
 20
146.71
 21
146.21
  0
LINE
  8
0
 10
39.41
 11
57.615
 20
146.21
 21
146.21
  0
LINE
  8
0
 10
57.615
 11
57.615
 20
146.21
 21
144.71
  0
LINE
  8
0
 10
57.615
 11
20.538
 20
144.71
 21
144.71
  0
LINE
  8
0
 10
20.538
 11
20.538
 20
144.71
 21
144.21
  0
LINE
  8
0
 10
20.538
 11
57.615
 20
144.21
 21
144.21
  0
LINE
  8
0
 10
57.615
 11
57.615
 20
144.21
 21
142.71
  0
LINE
  8
0
 10
57.615
 11
39.41
 20
142.71
 21
142.71
  0
LINE
  8
0
 10
39.41
 11
39.41
 20
142.71
 21
142.21
  0
LINE
  8
0
 10
39.41
 11
57.615
 20
142.21
 21
142.21
  0
LINE
  8
0
 10
57.615
 11
57.615
 20
142.21
 21
140.71
  0
LINE
  8
0
 10
57.615
 11
20.538
 20
140.71
 21
140.71
  0
LINE
  8
0
 10
20.538
 11
20.538
 20
140.71
 21
140.21
  0
LINE
  8
0
 10
20.538
 11
57.615
 20
140.21
 21
140.21
  0
LINE
  8
0
 10
57.615
 11
57.615
 20
140.21
 21
138.71
  0
LINE
  8
0
 10
57.615
 11
39.41
 20
138.71
 21
138.71
  0
LINE
  8
0
 10
39.41
 11
39.41
 20
138.71
 21
138.21
  0
LINE
  8
0
 10
39.41
 11
57.615
 20
138.21
 21
138.21
  0
LINE
  8
0
 10
57.615
 11
57.615
 20
138.21
 21
136.71
  0
LINE
  8
0
 10
57.615
 11
20.538
 20
136.71
 21
136.71
  0
LINE
  8
0
 10
20.538
 11
20.538
 20
136.71
 21
136.21
  0
LINE
  8
0
 10
20.538
 11
57.615
 20
136.21
 21
136.21
  0
LINE
  8
0
 10
57.615
 11
57.615
 20
136.21
 21
134.71
  0
LINE
  8
0
 10
57.615
 11
39.41
 20
134.71
 21
134.71
  0
LINE
  8
0
 10
39.41
 11
39.41
 20
134.71
 21
134.21
  0
LINE
  8
0
 10
39.41
 11
57.615
 20
134.21
 21
134.21
  0
LINE
  8
0
 10
57.615
 11
57.615
 20
134.21
 21
132.71
  0
LINE
  8
0
 10
57.615
 11
20.538
 20
132.71
 21
132.71
  0
LINE
  8
0
 10
20.538
 11
20.538
 20
132.71
 21
132.21
  0
LINE
  8
0
 10
20.538
 11
57.615
 20
132.21
 21
132.21
  0
LINE
  8
0
 10
57.615
 11
57.615
 20
132.21
 21
130.71
  0
LINE
  8
0
 10
57.615
 11
39.41
 20
130.71
 21
130.71
  0
LINE
  8
0
 10
39.41
 11
39.41
 20
130.71
 21
130.21
  0
LINE
  8
0
 10
39.41
 11
57.615
 20
130.21
 21
130.21
  0
LINE
  8
0
 10
57.615
 11
57.615
 20
130.21
 21
128.71
  0
LINE
  8
0
 10
57.615
 11
20.538
 20
128.71
 21
128.71
  0
LINE
  8
0
 10
20.538
 11
20.538
 20
128.71
 21
128.21
  0
LINE
  8
0
 10
20.538
 11
57.615
 20
128.21
 21
128.21
  0
LINE
  8
0
 10
57.615
 11
57.615
 20
128.21
 21
126.71
  0
LINE
  8
0
 10
57.615
 11
39.41
 20
126.71
 21
126.71
  0
LINE
  8
0
 10
39.41
 11
39.41
 20
126.71
 21
126.21
  0
LINE
  8
0
 10
39.41
 11
57.615
 20
126.21
 21
126.21
  0
LINE
  8
0
 10
57.615
 11
57.615
 20
126.21
 21
124.71
  0
LINE
  8
0
 10
57.615
 11
20.538
 20
124.71
 21
124.71
  0
LINE
  8
0
 10
20.538
 11
20.538
 20
124.71
 21
124.21
  0
LINE
  8
0
 10
20.538
 11
57.615
 20
124.21
 21
124.21
  0
LINE
  8
0
 10
57.615
 11
57.615
 20
124.21
 21
119.638
  0
LINE
  8
0
 10
57.615
 11
54.415
 20
119.638
 21
119.638
  0
LINE
  8
0
 10
54.415
 11
54.415
 20
119.638
 21
114.868
  0
LINE
  8
0
 10
54.415
 11
57.615
 20
114.868
 21
114.868
  0
LINE
  8
0
 10
57.615
 11
57.615
 20
114.868
 21
107.845
  0
LINE
  8
0
 10
57.615
 11
52.385
 20
107.845
 21
107.845
  0
LINE
  8
0
 10
52.385
 11
52.385
 20
107.845
 21
111.045
  0
LINE
  8
0
 10
52.385
 11
47.615
 20
111.045
 21
111.045
  0
LINE
  8
0
 10
47.615
 11
47.615
 20
111.045
 21
107.845
  0
LINE
  8
0
 10
47.615
 11
42.385
 20
107.845
 21
107.845
  0
LINE
  8
0
 10
42.385
 11
42.385
 20
107.845
 21
111.045
  0
LINE
  8
0
 10
42.385
 11
37.615
 20
111.045
 21
111.045
  0
LINE
  8
0
 10
37.615
 11
37.615
 20
111.045
 21
107.845
  0
LINE
  8
0
 10
37.615
 11
32.385
 20
107.845
 21
107.845
  0
LINE
  8
0
 10
32.385
 11
32.385
 20
107.845
 21
111.045
  0
LINE
  8
0
 10
32.385
 11
27.615
 20
111.045
 21
111.045
  0
LINE
  8
0
 10
27.615
 11
27.615
 20
111.045
 21
107.845
  0
LINE
  8
0
 10
27.615
 11
22.385
 20
107.845
 21
107.845
  0
LINE
  8
0
 10
22.385
 11
22.385
 20
107.845
 21
111.045
  0
LINE
  8
0
 10
22.385
 11
17.615
 20
111.045
 21
111.045
  0
LINE
  8
0
 10
17.615
 11
17.615
 20
111.045
 21
107.845
  0
LINE
  8
0
 10
17.615
 11
12.385
 20
107.845
 21
107.845
  0
LINE
  8
0
 10
12.385
 11
12.385
 20
107.845
 21
111.045
  0
LINE
  8
0
 10
12.385
 11
7.615
 20
111.045
 21
111.045
  0
LINE
  8
0
 10
7.615
 11
7.615
 20
111.045
 21
107.845
  0
LINE
  8
0
 10
7.615
 11
2.385
 20
107.845
 21
107.845
  0
LINE
  8
0
 10
2.385
 11
2.385
 20
107.845
 21
111.045
  0
LINE
  8
0
 10
2.385
 11
-2.385
 20
111.045
 21
111.045
  0
LINE
  8
0
 10
-2.385
 11
-2.385
 20
111.045
 21
107.845
  0
LINE
  8
0
 10
-2.385
 11
-7.615
 20
107.845
 21
107.845
  0
LINE
  8
0
 10
-7.615
 11
-7.615
 20
107.845
 21
111.045
  0
LINE
  8
0
 10
-7.615
 11
-12.385
 20
111.045
 21
111.045
  0
LINE
  8
0
 10
-12.385
 11
-12.385
 20
111.045
 21
107.845
  0
LINE
  8
0
 10
-12.385
 11
-17.615
 20
107.845
 21
107.845
  0
LINE
  8
0
 10
-17.615
 11
-17.615
 20
107.845
 21
111.045
  0
LINE
  8
0
 10
-17.615
 11
-22.385
 20
111.045
 21
111.045
  0
LINE
  8
0
 10
-22.385
 11
-22.385
 20
111.045
 21
107.845
  0
LINE
  8
0
 10
-22.385
 11
-27.615
 20
107.845
 21
107.845
  0
LINE
  8
0
 10
-27.615
 11
-27.615
 20
107.845
 21
111.045
  0
LINE
  8
0
 10
-27.615
 11
-32.385
 20
111.045
 21
111.045
  0
LINE
  8
0
 10
-32.385
 11
-32.385
 20
111.045
 21
107.845
  0
LINE
  8
0
 10
-32.385
 11
-37.615
 20
107.845
 21
107.845
  0
LINE
  8
0
 10
-37.615
 11
-37.615
 20
107.845
 21
111.045
  0
LINE
  8
0
 10
-37.615
 11
-42.385
 20
111.045
 21
111.045
  0
LINE
  8
0
 10
-42.385
 11
-42.385
 20
111.045
 21
107.845
  0
LINE
  8
0
 10
-42.385
 11
-47.615
 20
107.845
 21
107.845
  0
LINE
  8
0
 10
-47.615
 11
-47.615
 20
107.845
 21
111.045
  0
LINE
  8
0
 10
-47.615
 11
-52.385
 20
111.045
 21
111.045
  0
LINE
  8
0
 10
-52.385
 11
-52.385
 20
111.045
 21
107.845
  0
LINE
  8
0
 10
-52.385
 11
-57.615
 20
107.845
 21
107.845
  0
LINE
  8
0
 10
-57.615
 11
-57.615
 20
178.075
 21
185.098
  0
LINE
  8
0
 10
-57.615
 11
-54.415
 20
185.098
 21
185.098
  0
LINE
  8
0
 10
-54.415
 11
-54.415
 20
185.098
 21
189.868
  0
LINE
  8
0
 10
-54.415
 11
-57.615
 20
189.868
 21
189.868
  0
LINE
  8
0
 10
-57.615
 11
-57.615
 20
189.868
 21
194.44
  0
LINE
  8
0
 10
-57.615
 11
-20.538
 20
194.44
 21
194.44
  0
LINE
  8
0
 10
-20.538
 11
-20.538
 20
194.44
 21
194.94
  0
LINE
  8
0
 10
-20.538
 11
-57.615
 20
194.94
 21
194.94
  0
LINE
  8
0
 10
-57.615
 11
-57.615
 20
194.94
 21
196.44
  0
LINE
  8
0
 10
-57.615
 11
-39.41
 20
196.44
 21
196.44
  0
LINE
  8
0
 10
-39.41
 11
-39.41
 20
196.44
 21
196.94
  0
LINE
  8
0
 10
-39.41
 11
-57.615
 20
196.94
 21
196.94
  0
LINE
  8
0
 10
-57.615
 11
-57.615
 20
196.94
 21
198.44
  0
LINE
  8
0
 10
-57.615
 11
-20.538
 20
198.44
 21
198.44
  0
LINE
  8
0
 10
-20.538
 11
-20.538
 20
198.44
 21
198.94
  0
LINE
  8
0
 10
-20.538
 11
-57.615
 20
198.94
 21
198.94
  0
LINE
  8
0
 10
-57.615
 11
-57.615
 20
198.94
 21
200.44
  0
LINE
  8
0
 10
-57.615
 11
-39.41
 20
200.44
 21
200.44
  0
LINE
  8
0
 10
-39.41
 11
-39.41
 20
200.44
 21
200.94
  0
LINE
  8
0
 10
-39.41
 11
-57.615
 20
200.94
 21
200.94
  0
LINE
  8
0
 10
-57.615
 11
-57.615
 20
200.94
 21
202.44
  0
LINE
  8
0
 10
-57.615
 11
-20.538
 20
202.44
 21
202.44
  0
LINE
  8
0
 10
-20.538
 11
-20.538
 20
202.44
 21
202.94
  0
LINE
  8
0
 10
-20.538
 11
-57.615
 20
202.94
 21
202.94
  0
LINE
  8
0
 10
-57.615
 11
-57.615
 20
202.94
 21
204.44
  0
LINE
  8
0
 10
-57.615
 11
-39.41
 20
204.44
 21
204.44
  0
LINE
  8
0
 10
-39.41
 11
-39.41
 20
204.44
 21
204.94
  0
LINE
  8
0
 10
-39.41
 11
-57.615
 20
204.94
 21
204.94
  0
LINE
  8
0
 10
-57.615
 11
-57.615
 20
204.94
 21
206.44
  0
LINE
  8
0
 10
-57.615
 11
-20.538
 20
206.44
 21
206.44
  0
LINE
  8
0
 10
-20.538
 11
-20.538
 20
206.44
 21
206.94
  0
LINE
  8
0
 10
-20.538
 11
-57.615
 20
206.94
 21
206.94
  0
LINE
  8
0
 10
-57.615
 11
-57.615
 20
206.94
 21
208.44
  0
LINE
  8
0
 10
-57.615
 11
-39.41
 20
208.44
 21
208.44
  0
LINE
  8
0
 10
-39.41
 11
-39.41
 20
208.44
 21
208.94
  0
LINE
  8
0
 10
-39.41
 11
-57.615
 20
208.94
 21
208.94
  0
LINE
  8
0
 10
-57.615
 11
-57.615
 20
208.94
 21
210.44
  0
LINE
  8
0
 10
-57.615
 11
-20.538
 20
210.44
 21
210.44
  0
LINE
  8
0
 10
-20.538
 11
-20.538
 20
210.44
 21
210.94
  0
LINE
  8
0
 10
-20.538
 11
-57.615
 20
210.94
 21
210.94
  0
LINE
  8
0
 10
-57.615
 11
-57.615
 20
210.94
 21
212.44
  0
LINE
  8
0
 10
-57.615
 11
-39.41
 20
212.44
 21
212.44
  0
LINE
  8
0
 10
-39.41
 11
-39.41
 20
212.44
 21
212.94
  0
LINE
  8
0
 10
-39.41
 11
-57.615
 20
212.94
 21
212.94
  0
LINE
  8
0
 10
-57.615
 11
-57.615
 20
212.94
 21
214.44
  0
LINE
  8
0
 10
-57.615
 11
-20.538
 20
214.44
 21
214.44
  0
LINE
  8
0
 10
-20.538
 11
-20.538
 20
214.44
 21
214.94
  0
LINE
  8
0
 10
-20.538
 11
-57.615
 20
214.94
 21
214.94
  0
LINE
  8
0
 10
-57.615
 11
-57.615
 20
214.94
 21
216.44
  0
LINE
  8
0
 10
-57.615
 11
-39.41
 20
216.44
 21
216.44
  0
LINE
  8
0
 10
-39.41
 11
-39.41
 20
216.44
 21
216.94
  0
LINE
  8
0
 10
-39.41
 11
-57.615
 20
216.94
 21
216.94
  0
LINE
  8
0
 10
-57.615
 11
-57.615
 20
216.94
 21
218.44
  0
LINE
  8
0
 10
-57.615
 11
-20.538
 20
218.44
 21
218.44
  0
LINE
  8
0
 10
-20.538
 11
-20.538
 20
218.44
 21
218.94
  0
LINE
  8
0
 10
-20.538
 11
-57.615
 20
218.94
 21
218.94
  0
LINE
  8
0
 10
-57.615
 11
-57.615
 20
218.94
 21
220.44
  0
LINE
  8
0
 10
-57.615
 11
-39.41
 20
220.44
 21
220.44
  0
LINE
  8
0
 10
-39.41
 11
-39.41
 20
220.44
 21
220.94
  0
LINE
  8
0
 10
-39.41
 11
-57.615
 20
220.94
 21
220.94
  0
LINE
  8
0
 10
-57.615
 11
-57.615
 20
220.94
 21
222.44
  0
LINE
  8
0
 10
-57.615
 11
-20.538
 20
222.44
 21
222.44
  0
LINE
  8
0
 10
-20.538
 11
-20.538
 20
222.44
 21
222.94
  0
LINE
  8
0
 10
-20.538
 11
-57.615
 20
222.94
 21
222.94
  0
LINE
  8
0
 10
-57.615
 11
-57.615
 20
222.94
 21
224.44
  0
LINE
  8
0
 10
-57.615
 11
-39.41
 20
224.44
 21
224.44
  0
LINE
  8
0
 10
-39.41
 11
-39.41
 20
224.44
 21
224.94
  0
LINE
  8
0
 10
-39.41
 11
-57.615
 20
224.94
 21
224.94
  0
LINE
  8
0
 10
-57.615
 11
-57.615
 20
224.94
 21
226.44
  0
LINE
  8
0
 10
-57.615
 11
-20.538
 20
226.44
 21
226.44
  0
LINE
  8
0
 10
-20.538
 11
-20.538
 20
226.44
 21
226.94
  0
LINE
  8
0
 10
-20.538
 11
-57.615
 20
226.94
 21
226.94
  0
LINE
  8
0
 10
-57.615
 11
-57.615
 20
226.94
 21
231.512
  0
LINE
  8
0
 10
-57.615
 11
-54.415
 20
231.512
 21
231.512
  0
LINE
  8
0
 10
-54.415
 11
-54.415
 20
231.512
 21
236.282
  0
LINE
  8
0
 10
-54.415
 11
-57.615
 20
236.282
 21
236.282
  0
LINE
  8
0
 10
-57.615
 11
-57.615
 20
236.282
 21
243.305
  0
LINE
  8
0
 10
-57.615
 11
-57.385
 20
243.305
 21
243.305
  0
LINE
  8
0
 10
-57.385
 11
-57.385
 20
243.305
 21
240.105
  0
LINE
  8
0
 10
-57.385
 11
-52.615
 20
240.105
 21
240.105
  0
LINE
  8
0
 10
-52.615
 11
-52.615
 20
240.105
 21
243.305
  0
LINE
  8
0
 10
-52.615
 11
-47.385
 20
243.305
 21
243.305
  0
LINE
  8
0
 10
-47.385
 11
-47.385
 20
243.305
 21
240.105
  0
LINE
  8
0
 10
-47.385
 11
-42.615
 20
240.105
 21
240.105
  0
LINE
  8
0
 10
-42.615
 11
-42.615
 20
240.105
 21
243.305
  0
LINE
  8
0
 10
-42.615
 11
-37.385
 20
243.305
 21
243.305
  0
LINE
  8
0
 10
-37.385
 11
-37.385
 20
243.305
 21
240.105
  0
LINE
  8
0
 10
-37.385
 11
-32.615
 20
240.105
 21
240.105
  0
LINE
  8
0
 10
-32.615
 11
-32.615
 20
240.105
 21
243.305
  0
LINE
  8
0
 10
-32.615
 11
-27.385
 20
243.305
 21
243.305
  0
LINE
  8
0
 10
-27.385
 11
-27.385
 20
243.305
 21
240.105
  0
LINE
  8
0
 10
-27.385
 11
-22.615
 20
240.105
 21
240.105
  0
LINE
  8
0
 10
-22.615
 11
-22.615
 20
240.105
 21
243.305
  0
LINE
  8
0
 10
-22.615
 11
-17.385
 20
243.305
 21
243.305
  0
LINE
  8
0
 10
-17.385
 11
-17.385
 20
243.305
 21
240.105
  0
LINE
  8
0
 10
-17.385
 11
-12.615
 20
240.105
 21
240.105
  0
LINE
  8
0
 10
-12.615
 11
-12.615
 20
240.105
 21
243.305
  0
LINE
  8
0
 10
-12.615
 11
-7.385
 20
243.305
 21
243.305
  0
LINE
  8
0
 10
-7.385
 11
-7.385
 20
243.305
 21
240.105
  0
LINE
  8
0
 10
-7.385
 11
-2.615
 20
240.105
 21
240.105
  0
LINE
  8
0
 10
-2.615
 11
-2.615
 20
240.105
 21
243.305
  0
LINE
  8
0
 10
-2.615
 11
2.615
 20
243.305
 21
243.305
  0
LINE
  8
0
 10
2.615
 11
2.615
 20
243.305
 21
240.105
  0
LINE
  8
0
 10
2.615
 11
7.385
 20
240.105
 21
240.105
  0
LINE
  8
0
 10
7.385
 11
7.385
 20
240.105
 21
243.305
  0
LINE
  8
0
 10
7.385
 11
12.615
 20
243.305
 21
243.305
  0
LINE
  8
0
 10
12.615
 11
12.615
 20
243.305
 21
240.105
  0
LINE
  8
0
 10
12.615
 11
17.385
 20
240.105
 21
240.105
  0
LINE
  8
0
 10
17.385
 11
17.385
 20
240.105
 21
243.305
  0
LINE
  8
0
 10
17.385
 11
22.615
 20
243.305
 21
243.305
  0
LINE
  8
0
 10
22.615
 11
22.615
 20
243.305
 21
240.105
  0
LINE
  8
0
 10
22.615
 11
27.385
 20
240.105
 21
240.105
  0
LINE
  8
0
 10
27.385
 11
27.385
 20
240.105
 21
243.305
  0
LINE
  8
0
 10
27.385
 11
32.615
 20
243.305
 21
243.305
  0
LINE
  8
0
 10
32.615
 11
32.615
 20
243.305
 21
240.105
  0
LINE
  8
0
 10
32.615
 11
37.385
 20
240.105
 21
240.105
  0
LINE
  8
0
 10
37.385
 11
37.385
 20
240.105
 21
243.305
  0
LINE
  8
0
 10
37.385
 11
42.615
 20
243.305
 21
243.305
  0
LINE
  8
0
 10
42.615
 11
42.615
 20
243.305
 21
240.105
  0
LINE
  8
0
 10
42.615
 11
47.385
 20
240.105
 21
240.105
  0
LINE
  8
0
 10
47.385
 11
47.385
 20
240.105
 21
243.305
  0
LINE
  8
0
 10
47.385
 11
52.615
 20
243.305
 21
243.305
  0
LINE
  8
0
 10
52.615
 11
52.615
 20
243.305
 21
240.105
  0
LINE
  8
0
 10
52.615
 11
57.615
 20
240.105
 21
240.105
  0
LINE
  8
0
 10
57.615
 11
57.615
 20
240.105
 21
236.282
  0
LINE
  8
0
 10
57.615
 11
54.415
 20
236.282
 21
236.282
  0
LINE
  8
0
 10
54.415
 11
54.415
 20
236.282
 21
231.512
  0
LINE
  8
0
 10
54.415
 11
57.615
 20
231.512
 21
231.512
  0
LINE
  8
0
 10
57.615
 11
57.615
 20
231.512
 21
226.94
  0
LINE
  8
0
 10
57.615
 11
20.538
 20
226.94
 21
226.94
  0
LINE
  8
0
 10
20.538
 11
20.538
 20
226.94
 21
226.44
  0
LINE
  8
0
 10
20.538
 11
57.615
 20
226.44
 21
226.44
  0
LINE
  8
0
 10
57.615
 11
57.615
 20
226.44
 21
224.94
  0
LINE
  8
0
 10
57.615
 11
39.41
 20
224.94
 21
224.94
  0
LINE
  8
0
 10
39.41
 11
39.41
 20
224.94
 21
224.44
  0
LINE
  8
0
 10
39.41
 11
57.615
 20
224.44
 21
224.44
  0
LINE
  8
0
 10
57.615
 11
57.615
 20
224.44
 21
222.94
  0
LINE
  8
0
 10
57.615
 11
20.538
 20
222.94
 21
222.94
  0
LINE
  8
0
 10
20.538
 11
20.538
 20
222.94
 21
222.44
  0
LINE
  8
0
 10
20.538
 11
57.615
 20
222.44
 21
222.44
  0
LINE
  8
0
 10
57.615
 11
57.615
 20
222.44
 21
220.94
  0
LINE
  8
0
 10
57.615
 11
39.41
 20
220.94
 21
220.94
  0
LINE
  8
0
 10
39.41
 11
39.41
 20
220.94
 21
220.44
  0
LINE
  8
0
 10
39.41
 11
57.615
 20
220.44
 21
220.44
  0
LINE
  8
0
 10
57.615
 11
57.615
 20
220.44
 21
218.94
  0
LINE
  8
0
 10
57.615
 11
20.538
 20
218.94
 21
218.94
  0
LINE
  8
0
 10
20.538
 11
20.538
 20
218.94
 21
218.44
  0
LINE
  8
0
 10
20.538
 11
57.615
 20
218.44
 21
218.44
  0
LINE
  8
0
 10
57.615
 11
57.615
 20
218.44
 21
216.94
  0
LINE
  8
0
 10
57.615
 11
39.41
 20
216.94
 21
216.94
  0
LINE
  8
0
 10
39.41
 11
39.41
 20
216.94
 21
216.44
  0
LINE
  8
0
 10
39.41
 11
57.615
 20
216.44
 21
216.44
  0
LINE
  8
0
 10
57.615
 11
57.615
 20
216.44
 21
214.94
  0
LINE
  8
0
 10
57.615
 11
20.538
 20
214.94
 21
214.94
  0
LINE
  8
0
 10
20.538
 11
20.538
 20
214.94
 21
214.44
  0
LINE
  8
0
 10
20.538
 11
57.615
 20
214.44
 21
214.44
  0
LINE
  8
0
 10
57.615
 11
57.615
 20
214.44
 21
212.94
  0
LINE
  8
0
 10
57.615
 11
39.41
 20
212.94
 21
212.94
  0
LINE
  8
0
 10
39.41
 11
39.41
 20
212.94
 21
212.44
  0
LINE
  8
0
 10
39.41
 11
57.615
 20
212.44
 21
212.44
  0
LINE
  8
0
 10
57.615
 11
57.615
 20
212.44
 21
210.94
  0
LINE
  8
0
 10
57.615
 11
20.538
 20
210.94
 21
210.94
  0
LINE
  8
0
 10
20.538
 11
20.538
 20
210.94
 21
210.44
  0
LINE
  8
0
 10
20.538
 11
57.615
 20
210.44
 21
210.44
  0
LINE
  8
0
 10
57.615
 11
57.615
 20
210.44
 21
208.94
  0
LINE
  8
0
 10
57.615
 11
39.41
 20
208.94
 21
208.94
  0
LINE
  8
0
 10
39.41
 11
39.41
 20
208.94
 21
208.44
  0
LINE
  8
0
 10
39.41
 11
57.615
 20
208.44
 21
208.44
  0
LINE
  8
0
 10
57.615
 11
57.615
 20
208.44
 21
206.94
  0
LINE
  8
0
 10
57.615
 11
20.538
 20
206.94
 21
206.94
  0
LINE
  8
0
 10
20.538
 11
20.538
 20
206.94
 21
206.44
  0
LINE
  8
0
 10
20.538
 11
57.615
 20
206.44
 21
206.44
  0
LINE
  8
0
 10
57.615
 11
57.615
 20
206.44
 21
204.94
  0
LINE
  8
0
 10
57.615
 11
39.41
 20
204.94
 21
204.94
  0
LINE
  8
0
 10
39.41
 11
39.41
 20
204.94
 21
204.44
  0
LINE
  8
0
 10
39.41
 11
57.615
 20
204.44
 21
204.44
  0
LINE
  8
0
 10
57.615
 11
57.615
 20
204.44
 21
202.94
  0
LINE
  8
0
 10
57.615
 11
20.538
 20
202.94
 21
202.94
  0
LINE
  8
0
 10
20.538
 11
20.538
 20
202.94
 21
202.44
  0
LINE
  8
0
 10
20.538
 11
57.615
 20
202.44
 21
202.44
  0
LINE
  8
0
 10
57.615
 11
57.615
 20
202.44
 21
200.94
  0
LINE
  8
0
 10
57.615
 11
39.41
 20
200.94
 21
200.94
  0
LINE
  8
0
 10
39.41
 11
39.41
 20
200.94
 21
200.44
  0
LINE
  8
0
 10
39.41
 11
57.615
 20
200.44
 21
200.44
  0
LINE
  8
0
 10
57.615
 11
57.615
 20
200.44
 21
198.94
  0
LINE
  8
0
 10
57.615
 11
20.538
 20
198.94
 21
198.94
  0
LINE
  8
0
 10
20.538
 11
20.538
 20
198.94
 21
198.44
  0
LINE
  8
0
 10
20.538
 11
57.615
 20
198.44
 21
198.44
  0
LINE
  8
0
 10
57.615
 11
57.615
 20
198.44
 21
196.94
  0
LINE
  8
0
 10
57.615
 11
39.41
 20
196.94
 21
196.94
  0
LINE
  8
0
 10
39.41
 11
39.41
 20
196.94
 21
196.44
  0
LINE
  8
0
 10
39.41
 11
57.615
 20
196.44
 21
196.44
  0
LINE
  8
0
 10
57.615
 11
57.615
 20
196.44
 21
194.94
  0
LINE
  8
0
 10
57.615
 11
20.538
 20
194.94
 21
194.94
  0
LINE
  8
0
 10
20.538
 11
20.538
 20
194.94
 21
194.44
  0
LINE
  8
0
 10
20.538
 11
57.615
 20
194.44
 21
194.44
  0
LINE
  8
0
 10
57.615
 11
57.615
 20
194.44
 21
189.868
  0
LINE
  8
0
 10
57.615
 11
54.415
 20
189.868
 21
189.868
  0
LINE
  8
0
 10
54.415
 11
54.415
 20
189.868
 21
185.098
  0
LINE
  8
0
 10
54.415
 11
57.615
 20
185.098
 21
185.098
  0
LINE
  8
0
 10
57.615
 11
57.615
 20
185.098
 21
178.075
  0
LINE
  8
0
 10
57.615
 11
52.385
 20
178.075
 21
178.075
  0
LINE
  8
0
 10
52.385
 11
52.385
 20
178.075
 21
181.275
  0
LINE
  8
0
 10
52.385
 11
47.615
 20
181.275
 21
181.275
  0
LINE
  8
0
 10
47.615
 11
47.615
 20
181.275
 21
178.075
  0
LINE
  8
0
 10
47.615
 11
42.385
 20
178.075
 21
178.075
  0
LINE
  8
0
 10
42.385
 11
42.385
 20
178.075
 21
181.275
  0
LINE
  8
0
 10
42.385
 11
37.615
 20
181.275
 21
181.275
  0
LINE
  8
0
 10
37.615
 11
37.615
 20
181.275
 21
178.075
  0
LINE
  8
0
 10
37.615
 11
32.385
 20
178.075
 21
178.075
  0
LINE
  8
0
 10
32.385
 11
32.385
 20
178.075
 21
181.275
  0
LINE
  8
0
 10
32.385
 11
27.615
 20
181.275
 21
181.275
  0
LINE
  8
0
 10
27.615
 11
27.615
 20
181.275
 21
178.075
  0
LINE
  8
0
 10
27.615
 11
22.385
 20
178.075
 21
178.075
  0
LINE
  8
0
 10
22.385
 11
22.385
 20
178.075
 21
181.275
  0
LINE
  8
0
 10
22.385
 11
17.615
 20
181.275
 21
181.275
  0
LINE
  8
0
 10
17.615
 11
17.615
 20
181.275
 21
178.075
  0
LINE
  8
0
 10
17.615
 11
12.385
 20
178.075
 21
178.075
  0
LINE
  8
0
 10
12.385
 11
12.385
 20
178.075
 21
181.275
  0
LINE
  8
0
 10
12.385
 11
7.615
 20
181.275
 21
181.275
  0
LINE
  8
0
 10
7.615
 11
7.615
 20
181.275
 21
178.075
  0
LINE
  8
0
 10
7.615
 11
2.385
 20
178.075
 21
178.075
  0
LINE
  8
0
 10
2.385
 11
2.385
 20
178.075
 21
181.275
  0
LINE
  8
0
 10
2.385
 11
-2.385
 20
181.275
 21
181.275
  0
LINE
  8
0
 10
-2.385
 11
-2.385
 20
181.275
 21
178.075
  0
LINE
  8
0
 10
-2.385
 11
-7.615
 20
178.075
 21
178.075
  0
LINE
  8
0
 10
-7.615
 11
-7.615
 20
178.075
 21
181.275
  0
LINE
  8
0
 10
-7.615
 11
-12.385
 20
181.275
 21
181.275
  0
LINE
  8
0
 10
-12.385
 11
-12.385
 20
181.275
 21
178.075
  0
LINE
  8
0
 10
-12.385
 11
-17.615
 20
178.075
 21
178.075
  0
LINE
  8
0
 10
-17.615
 11
-17.615
 20
178.075
 21
181.275
  0
LINE
  8
0
 10
-17.615
 11
-22.385
 20
181.275
 21
181.275
  0
LINE
  8
0
 10
-22.385
 11
-22.385
 20
181.275
 21
178.075
  0
LINE
  8
0
 10
-22.385
 11
-27.615
 20
178.075
 21
178.075
  0
LINE
  8
0
 10
-27.615
 11
-27.615
 20
178.075
 21
181.275
  0
LINE
  8
0
 10
-27.615
 11
-32.385
 20
181.275
 21
181.275
  0
LINE
  8
0
 10
-32.385
 11
-32.385
 20
181.275
 21
178.075
  0
LINE
  8
0
 10
-32.385
 11
-37.615
 20
178.075
 21
178.075
  0
LINE
  8
0
 10
-37.615
 11
-37.615
 20
178.075
 21
181.275
  0
LINE
  8
0
 10
-37.615
 11
-42.385
 20
181.275
 21
181.275
  0
LINE
  8
0
 10
-42.385
 11
-42.385
 20
181.275
 21
178.075
  0
LINE
  8
0
 10
-42.385
 11
-47.615
 20
178.075
 21
178.075
  0
LINE
  8
0
 10
-47.615
 11
-47.615
 20
178.075
 21
181.275
  0
LINE
  8
0
 10
-47.615
 11
-52.385
 20
181.275
 21
181.275
  0
LINE
  8
0
 10
-52.385
 11
-52.385
 20
181.275
 21
178.075
  0
LINE
  8
0
 10
-52.385
 11
-57.615
 20
178.075
 21
178.075
  0
LINE
  8
0
 10
-37.41
 11
-37.41
 20
-14.25
 21
-13.75
  0
LINE
  8
0
 10
-37.41
 11
-1
 20
-13.75
 21
-13.75
  0
LINE
  8
0
 10
-1
 11
-1
 20
-13.75
 21
-14.25
  0
LINE
  8
0
 10
-1
 11
-37.41
 20
-14.25
 21
-14.25
  0
LINE
  8
0
 10
-37.41
 11
-37.41
 20
-10.25
 21
-9.75
  0
LINE
  8
0
 10
-37.41
 11
-1
 20
-9.75
 21
-9.75
  0
LINE
  8
0
 10
-1
 11
-1
 20
-9.75
 21
-10.25
  0
LINE
  8
0
 10
-1
 11
-37.41
 20
-10.25
 21
-10.25
  0
LINE
  8
0
 10
-37.41
 11
-37.41
 20
-6.25
 21
-5.75
  0
LINE
  8
0
 10
-37.41
 11
-1
 20
-5.75
 21
-5.75
  0
LINE
  8
0
 10
-1
 11
-1
 20
-5.75
 21
-6.25
  0
LINE
  8
0
 10
-1
 11
-37.41
 20
-6.25
 21
-6.25
  0
LINE
  8
0
 10
-37.41
 11
-37.41
 20
-2.25
 21
-1.75
  0
LINE
  8
0
 10
-37.41
 11
-1
 20
-1.75
 21
-1.75
  0
LINE
  8
0
 10
-1
 11
-1
 20
-1.75
 21
-2.25
  0
LINE
  8
0
 10
-1
 11
-37.41
 20
-2.25
 21
-2.25
  0
LINE
  8
0
 10
-37.41
 11
-37.41
 20
1.75
 21
2.25
  0
LINE
  8
0
 10
-37.41
 11
-1
 20
2.25
 21
2.25
  0
LINE
  8
0
 10
-1
 11
-1
 20
2.25
 21
1.75
  0
LINE
  8
0
 10
-1
 11
-37.41
 20
1.75
 21
1.75
  0
LINE
  8
0
 10
-37.41
 11
-37.41
 20
5.75
 21
6.25
  0
LINE
  8
0
 10
-37.41
 11
-1
 20
6.25
 21
6.25
  0
LINE
  8
0
 10
-1
 11
-1
 20
6.25
 21
5.75
  0
LINE
  8
0
 10
-1
 11
-37.41
 20
5.75
 21
5.75
  0
LINE
  8
0
 10
-37.41
 11
-37.41
 20
9.75
 21
10.25
  0
LINE
  8
0
 10
-37.41
 11
-1
 20
10.25
 21
10.25
  0
LINE
  8
0
 10
-1
 11
-1
 20
10.25
 21
9.75
  0
LINE
  8
0
 10
-1
 11
-37.41
 20
9.75
 21
9.75
  0
LINE
  8
0
 10
-37.41
 11
-37.41
 20
13.75
 21
14.25
  0
LINE
  8
0
 10
-37.41
 11
-1
 20
14.25
 21
14.25
  0
LINE
  8
0
 10
-1
 11
-1
 20
14.25
 21
13.75
  0
LINE
  8
0
 10
-1
 11
-37.41
 20
13.75
 21
13.75
  0
LINE
  8
0
 10
-37.41
 11
-37.41
 20
55.98
 21
56.48
  0
LINE
  8
0
 10
-37.41
 11
-1
 20
56.48
 21
56.48
  0
LINE
  8
0
 10
-1
 11
-1
 20
56.48
 21
55.98
  0
LINE
  8
0
 10
-1
 11
-37.41
 20
55.98
 21
55.98
  0
LINE
  8
0
 10
-37.41
 11
-37.41
 20
59.98
 21
60.48
  0
LINE
  8
0
 10
-37.41
 11
-1
 20
60.48
 21
60.48
  0
LINE
  8
0
 10
-1
 11
-1
 20
60.48
 21
59.98
  0
LINE
  8
0
 10
-1
 11
-37.41
 20
59.98
 21
59.98
  0
LINE
  8
0
 10
-37.41
 11
-37.41
 20
63.98
 21
64.48
  0
LINE
  8
0
 10
-37.41
 11
-1
 20
64.48
 21
64.48
  0
LINE
  8
0
 10
-1
 11
-1
 20
64.48
 21
63.98
  0
LINE
  8
0
 10
-1
 11
-37.41
 20
63.98
 21
63.98
  0
LINE
  8
0
 10
-37.41
 11
-37.41
 20
67.98
 21
68.48
  0
LINE
  8
0
 10
-37.41
 11
-1
 20
68.48
 21
68.48
  0
LINE
  8
0
 10
-1
 11
-1
 20
68.48
 21
67.98
  0
LINE
  8
0
 10
-1
 11
-37.41
 20
67.98
 21
67.98
  0
LINE
  8
0
 10
-37.41
 11
-37.41
 20
71.98
 21
72.48
  0
LINE
  8
0
 10
-37.41
 11
-1
 20
72.48
 21
72.48
  0
LINE
  8
0
 10
-1
 11
-1
 20
72.48
 21
71.98
  0
LINE
  8
0
 10
-1
 11
-37.41
 20
71.98
 21
71.98
  0
LINE
  8
0
 10
-37.41
 11
-37.41
 20
75.98
 21
76.48
  0
LINE
  8
0
 10
-37.41
 11
-1
 20
76.48
 21
76.48
  0
LINE
  8
0
 10
-1
 11
-1
 20
76.48
 21
75.98
  0
LINE
  8
0
 10
-1
 11
-37.41
 20
75.98
 21
75.98
  0
LINE
  8
0
 10
-37.41
 11
-37.41
 20
79.98
 21
80.48
  0
LINE
  8
0
 10
-37.41
 11
-1
 20
80.48
 21
80.48
  0
LINE
  8
0
 10
-1
 11
-1
 20
80.48
 21
79.98
  0
LINE
  8
0
 10
-1
 11
-37.41
 20
79.98
 21
79.98
  0
LINE
  8
0
 10
-37.41
 11
-37.41
 20
83.98
 21
84.48
  0
LINE
  8
0
 10
-37.41
 11
-1
 20
84.48
 21
84.48
  0
LINE
  8
0
 10
-1
 11
-1
 20
84.48
 21
83.98
  0
LINE
  8
0
 10
-1
 11
-37.41
 20
83.98
 21
83.98
  0
LINE
  8
0
 10
-37.41
 11
-37.41
 20
126.21
 21
126.71
  0
LINE
  8
0
 10
-37.41
 11
-1
 20
126.71
 21
126.71
  0
LINE
  8
0
 10
-1
 11
-1
 20
126.71
 21
126.21
  0
LINE
  8
0
 10
-1
 11
-37.41
 20
126.21
 21
126.21
  0
LINE
  8
0
 10
-37.41
 11
-37.41
 20
130.21
 21
130.71
  0
LINE
  8
0
 10
-37.41
 11
-1
 20
130.71
 21
130.71
  0
LINE
  8
0
 10
-1
 11
-1
 20
130.71
 21
130.21
  0
LINE
  8
0
 10
-1
 11
-37.41
 20
130.21
 21
130.21
  0
LINE
  8
0
 10
-37.41
 11
-37.41
 20
134.21
 21
134.71
  0
LINE
  8
0
 10
-37.41
 11
-1
 20
134.71
 21
134.71
  0
LINE
  8
0
 10
-1
 11
-1
 20
134.71
 21
134.21
  0
LINE
  8
0
 10
-1
 11
-37.41
 20
134.21
 21
134.21
  0
LINE
  8
0
 10
-37.41
 11
-37.41
 20
138.21
 21
138.71
  0
LINE
  8
0
 10
-37.41
 11
-1
 20
138.71
 21
138.71
  0
LINE
  8
0
 10
-1
 11
-1
 20
138.71
 21
138.21
  0
LINE
  8
0
 10
-1
 11
-37.41
 20
138.21
 21
138.21
  0
LINE
  8
0
 10
-37.41
 11
-37.41
 20
142.21
 21
142.71
  0
LINE
  8
0
 10
-37.41
 11
-1
 20
142.71
 21
142.71
  0
LINE
  8
0
 10
-1
 11
-1
 20
142.71
 21
142.21
  0
LINE
  8
0
 10
-1
 11
-37.41
 20
142.21
 21
142.21
  0
LINE
  8
0
 10
-37.41
 11
-37.41
 20
146.21
 21
146.71
  0
LINE
  8
0
 10
-37.41
 11
-1
 20
146.71
 21
146.71
  0
LINE
  8
0
 10
-1
 11
-1
 20
146.71
 21
146.21
  0
LINE
  8
0
 10
-1
 11
-37.41
 20
146.21
 21
146.21
  0
LINE
  8
0
 10
-37.41
 11
-37.41
 20
150.21
 21
150.71
  0
LINE
  8
0
 10
-37.41
 11
-1
 20
150.71
 21
150.71
  0
LINE
  8
0
 10
-1
 11
-1
 20
150.71
 21
150.21
  0
LINE
  8
0
 10
-1
 11
-37.41
 20
150.21
 21
150.21
  0
LINE
  8
0
 10
-37.41
 11
-37.41
 20
154.21
 21
154.71
  0
LINE
  8
0
 10
-37.41
 11
-1
 20
154.71
 21
154.71
  0
LINE
  8
0
 10
-1
 11
-1
 20
154.71
 21
154.21
  0
LINE
  8
0
 10
-1
 11
-37.41
 20
154.21
 21
154.21
  0
LINE
  8
0
 10
-37.41
 11
-37.41
 20
196.44
 21
196.94
  0
LINE
  8
0
 10
-37.41
 11
-1
 20
196.94
 21
196.94
  0
LINE
  8
0
 10
-1
 11
-1
 20
196.94
 21
196.44
  0
LINE
  8
0
 10
-1
 11
-37.41
 20
196.44
 21
196.44
  0
LINE
  8
0
 10
-37.41
 11
-37.41
 20
200.44
 21
200.94
  0
LINE
  8
0
 10
-37.41
 11
-1
 20
200.94
 21
200.94
  0
LINE
  8
0
 10
-1
 11
-1
 20
200.94
 21
200.44
  0
LINE
  8
0
 10
-1
 11
-37.41
 20
200.44
 21
200.44
  0
LINE
  8
0
 10
-37.41
 11
-37.41
 20
204.44
 21
204.94
  0
LINE
  8
0
 10
-37.41
 11
-1
 20
204.94
 21
204.94
  0
LINE
  8
0
 10
-1
 11
-1
 20
204.94
 21
204.44
  0
LINE
  8
0
 10
-1
 11
-37.41
 20
204.44
 21
204.44
  0
LINE
  8
0
 10
-37.41
 11
-37.41
 20
208.44
 21
208.94
  0
LINE
  8
0
 10
-37.41
 11
-1
 20
208.94
 21
208.94
  0
LINE
  8
0
 10
-1
 11
-1
 20
208.94
 21
208.44
  0
LINE
  8
0
 10
-1
 11
-37.41
 20
208.44
 21
208.44
  0
LINE
  8
0
 10
-37.41
 11
-37.41
 20
212.44
 21
212.94
  0
LINE
  8
0
 10
-37.41
 11
-1
 20
212.94
 21
212.94
  0
LINE
  8
0
 10
-1
 11
-1
 20
212.94
 21
212.44
  0
LINE
  8
0
 10
-1
 11
-37.41
 20
212.44
 21
212.44
  0
LINE
  8
0
 10
-37.41
 11
-37.41
 20
216.44
 21
216.94
  0
LINE
  8
0
 10
-37.41
 11
-1
 20
216.94
 21
216.94
  0
LINE
  8
0
 10
-1
 11
-1
 20
216.94
 21
216.44
  0
LINE
  8
0
 10
-1
 11
-37.41
 20
216.44
 21
216.44
  0
LINE
  8
0
 10
-37.41
 11
-37.41
 20
220.44
 21
220.94
  0
LINE
  8
0
 10
-37.41
 11
-1
 20
220.94
 21
220.94
  0
LINE
  8
0
 10
-1
 11
-1
 20
220.94
 21
220.44
  0
LINE
  8
0
 10
-1
 11
-37.41
 20
220.44
 21
220.44
  0
LINE
  8
0
 10
-37.41
 11
-37.41
 20
224.44
 21
224.94
  0
LINE
  8
0
 10
-37.41
 11
-1
 20
224.94
 21
224.94
  0
LINE
  8
0
 10
-1
 11
-1
 20
224.94
 21
224.44
  0
LINE
  8
0
 10
-1
 11
-37.41
 20
224.44
 21
224.44
  0
LINE
  8
0
 10
-18.538
 11
-18.538
 20
-16.25
 21
-15.75
  0
LINE
  8
0
 10
-18.538
 11
18.539
 20
-15.75
 21
-15.75
  0
LINE
  8
0
 10
18.539
 11
18.539
 20
-15.75
 21
-16.25
  0
LINE
  8
0
 10
18.539
 11
-18.538
 20
-16.25
 21
-16.25
  0
LINE
  8
0
 10
-18.538
 11
-18.538
 20
-12.25
 21
-11.75
  0
LINE
  8
0
 10
-18.538
 11
18.539
 20
-11.75
 21
-11.75
  0
LINE
  8
0
 10
18.539
 11
18.539
 20
-11.75
 21
-12.25
  0
LINE
  8
0
 10
18.539
 11
-18.538
 20
-12.25
 21
-12.25
  0
LINE
  8
0
 10
-18.538
 11
-18.538
 20
-8.25
 21
-7.75
  0
LINE
  8
0
 10
-18.538
 11
18.539
 20
-7.75
 21
-7.75
  0
LINE
  8
0
 10
18.539
 11
18.539
 20
-7.75
 21
-8.25
  0
LINE
  8
0
 10
18.539
 11
-18.538
 20
-8.25
 21
-8.25
  0
LINE
  8
0
 10
-18.538
 11
-18.538
 20
-4.25
 21
-3.75
  0
LINE
  8
0
 10
-18.538
 11
18.539
 20
-3.75
 21
-3.75
  0
LINE
  8
0
 10
18.539
 11
18.539
 20
-3.75
 21
-4.25
  0
LINE
  8
0
 10
18.539
 11
-18.538
 20
-4.25
 21
-4.25
  0
LINE
  8
0
 10
-18.538
 11
-18.538
 20
-0.25
 21
0.25
  0
LINE
  8
0
 10
-18.538
 11
18.539
 20
0.25
 21
0.25
  0
LINE
  8
0
 10
18.539
 11
18.539
 20
0.25
 21
-0.25
  0
LINE
  8
0
 10
18.539
 11
-18.538
 20
-0.25
 21
-0.25
  0
LINE
  8
0
 10
-18.538
 11
-18.538
 20
3.75
 21
4.25
  0
LINE
  8
0
 10
-18.538
 11
18.539
 20
4.25
 21
4.25
  0
LINE
  8
0
 10
18.539
 11
18.539
 20
4.25
 21
3.75
  0
LINE
  8
0
 10
18.539
 11
-18.538
 20
3.75
 21
3.75
  0
LINE
  8
0
 10
-18.538
 11
-18.538
 20
7.75
 21
8.25
  0
LINE
  8
0
 10
-18.538
 11
18.539
 20
8.25
 21
8.25
  0
LINE
  8
0
 10
18.539
 11
18.539
 20
8.25
 21
7.75
  0
LINE
  8
0
 10
18.539
 11
-18.538
 20
7.75
 21
7.75
  0
LINE
  8
0
 10
-18.538
 11
-18.538
 20
11.75
 21
12.25
  0
LINE
  8
0
 10
-18.538
 11
18.539
 20
12.25
 21
12.25
  0
LINE
  8
0
 10
18.539
 11
18.539
 20
12.25
 21
11.75
  0
LINE
  8
0
 10
18.539
 11
-18.538
 20
11.75
 21
11.75
  0
LINE
  8
0
 10
-18.538
 11
-18.538
 20
15.75
 21
16.25
  0
LINE
  8
0
 10
-18.538
 11
18.539
 20
16.25
 21
16.25
  0
LINE
  8
0
 10
18.539
 11
18.539
 20
16.25
 21
15.75
  0
LINE
  8
0
 10
18.539
 11
-18.538
 20
15.75
 21
15.75
  0
LINE
  8
0
 10
-18.538
 11
-18.538
 20
53.98
 21
54.48
  0
LINE
  8
0
 10
-18.538
 11
18.539
 20
54.48
 21
54.48
  0
LINE
  8
0
 10
18.539
 11
18.539
 20
54.48
 21
53.98
  0
LINE
  8
0
 10
18.539
 11
-18.538
 20
53.98
 21
53.98
  0
LINE
  8
0
 10
-18.538
 11
-18.538
 20
57.98
 21
58.48
  0
LINE
  8
0
 10
-18.538
 11
18.539
 20
58.48
 21
58.48
  0
LINE
  8
0
 10
18.539
 11
18.539
 20
58.48
 21
57.98
  0
LINE
  8
0
 10
18.539
 11
-18.538
 20
57.98
 21
57.98
  0
LINE
  8
0
 10
-18.538
 11
-18.538
 20
61.98
 21
62.48
  0
LINE
  8
0
 10
-18.538
 11
18.539
 20
62.48
 21
62.48
  0
LINE
  8
0
 10
18.539
 11
18.539
 20
62.48
 21
61.98
  0
LINE
  8
0
 10
18.539
 11
-18.538
 20
61.98
 21
61.98
  0
LINE
  8
0
 10
-18.538
 11
-18.538
 20
65.98
 21
66.48
  0
LINE
  8
0
 10
-18.538
 11
18.539
 20
66.48
 21
66.48
  0
LINE
  8
0
 10
18.539
 11
18.539
 20
66.48
 21
65.98
  0
LINE
  8
0
 10
18.539
 11
-18.538
 20
65.98
 21
65.98
  0
LINE
  8
0
 10
-18.538
 11
-18.538
 20
69.98
 21
70.48
  0
LINE
  8
0
 10
-18.538
 11
18.539
 20
70.48
 21
70.48
  0
LINE
  8
0
 10
18.539
 11
18.539
 20
70.48
 21
69.98
  0
LINE
  8
0
 10
18.539
 11
-18.538
 20
69.98
 21
69.98
  0
LINE
  8
0
 10
-18.538
 11
-18.538
 20
73.98
 21
74.48
  0
LINE
  8
0
 10
-18.538
 11
18.539
 20
74.48
 21
74.48
  0
LINE
  8
0
 10
18.539
 11
18.539
 20
74.48
 21
73.98
  0
LINE
  8
0
 10
18.539
 11
-18.538
 20
73.98
 21
73.98
  0
LINE
  8
0
 10
-18.538
 11
-18.538
 20
77.98
 21
78.48
  0
LINE
  8
0
 10
-18.538
 11
18.539
 20
78.48
 21
78.48
  0
LINE
  8
0
 10
18.539
 11
18.539
 20
78.48
 21
77.98
  0
LINE
  8
0
 10
18.539
 11
-18.538
 20
77.98
 21
77.98
  0
LINE
  8
0
 10
-18.538
 11
-18.538
 20
81.98
 21
82.48
  0
LINE
  8
0
 10
-18.538
 11
18.539
 20
82.48
 21
82.48
  0
LINE
  8
0
 10
18.539
 11
18.539
 20
82.48
 21
81.98
  0
LINE
  8
0
 10
18.539
 11
-18.538
 20
81.98
 21
81.98
  0
LINE
  8
0
 10
-18.538
 11
-18.538
 20
85.98
 21
86.48
  0
LINE
  8
0
 10
-18.538
 11
18.539
 20
86.48
 21
86.48
  0
LINE
  8
0
 10
18.539
 11
18.539
 20
86.48
 21
85.98
  0
LINE
  8
0
 10
18.539
 11
-18.538
 20
85.98
 21
85.98
  0
LINE
  8
0
 10
-18.538
 11
-18.538
 20
124.21
 21
124.71
  0
LINE
  8
0
 10
-18.538
 11
18.539
 20
124.71
 21
124.71
  0
LINE
  8
0
 10
18.539
 11
18.539
 20
124.71
 21
124.21
  0
LINE
  8
0
 10
18.539
 11
-18.538
 20
124.21
 21
124.21
  0
LINE
  8
0
 10
-18.538
 11
-18.538
 20
128.21
 21
128.71
  0
LINE
  8
0
 10
-18.538
 11
18.539
 20
128.71
 21
128.71
  0
LINE
  8
0
 10
18.539
 11
18.539
 20
128.71
 21
128.21
  0
LINE
  8
0
 10
18.539
 11
-18.538
 20
128.21
 21
128.21
  0
LINE
  8
0
 10
-18.538
 11
-18.538
 20
132.21
 21
132.71
  0
LINE
  8
0
 10
-18.538
 11
18.539
 20
132.71
 21
132.71
  0
LINE
  8
0
 10
18.539
 11
18.539
 20
132.71
 21
132.21
  0
LINE
  8
0
 10
18.539
 11
-18.538
 20
132.21
 21
132.21
  0
LINE
  8
0
 10
-18.538
 11
-18.538
 20
136.21
 21
136.71
  0
LINE
  8
0
 10
-18.538
 11
18.539
 20
136.71
 21
136.71
  0
LINE
  8
0
 10
18.539
 11
18.539
 20
136.71
 21
136.21
  0
LINE
  8
0
 10
18.539
 11
-18.538
 20
136.21
 21
136.21
  0
LINE
  8
0
 10
-18.538
 11
-18.538
 20
140.21
 21
140.71
  0
LINE
  8
0
 10
-18.538
 11
18.539
 20
140.71
 21
140.71
  0
LINE
  8
0
 10
18.539
 11
18.539
 20
140.71
 21
140.21
  0
LINE
  8
0
 10
18.539
 11
-18.538
 20
140.21
 21
140.21
  0
LINE
  8
0
 10
-18.538
 11
-18.538
 20
144.21
 21
144.71
  0
LINE
  8
0
 10
-18.538
 11
18.539
 20
144.71
 21
144.71
  0
LINE
  8
0
 10
18.539
 11
18.539
 20
144.71
 21
144.21
  0
LINE
  8
0
 10
18.539
 11
-18.538
 20
144.21
 21
144.21
  0
LINE
  8
0
 10
-18.538
 11
-18.538
 20
148.21
 21
148.71
  0
LINE
  8
0
 10
-18.538
 11
18.539
 20
148.71
 21
148.71
  0
LINE
  8
0
 10
18.539
 11
18.539
 20
148.71
 21
148.21
  0
LINE
  8
0
 10
18.539
 11
-18.538
 20
148.21
 21
148.21
  0
LINE
  8
0
 10
-18.538
 11
-18.538
 20
152.21
 21
152.71
  0
LINE
  8
0
 10
-18.538
 11
18.539
 20
152.71
 21
152.71
  0
LINE
  8
0
 10
18.539
 11
18.539
 20
152.71
 21
152.21
  0
LINE
  8
0
 10
18.539
 11
-18.538
 20
152.21
 21
152.21
  0
LINE
  8
0
 10
-18.538
 11
-18.538
 20
156.21
 21
156.71
  0
LINE
  8
0
 10
-18.538
 11
18.539
 20
156.71
 21
156.71
  0
LINE
  8
0
 10
18.539
 11
18.539
 20
156.71
 21
156.21
  0
LINE
  8
0
 10
18.539
 11
-18.538
 20
156.21
 21
156.21
  0
LINE
  8
0
 10
-18.538
 11
-18.538
 20
194.44
 21
194.94
  0
LINE
  8
0
 10
-18.538
 11
18.539
 20
194.94
 21
194.94
  0
LINE
  8
0
 10
18.539
 11
18.539
 20
194.94
 21
194.44
  0
LINE
  8
0
 10
18.539
 11
-18.538
 20
194.44
 21
194.44
  0
LINE
  8
0
 10
-18.538
 11
-18.538
 20
198.44
 21
198.94
  0
LINE
  8
0
 10
-18.538
 11
18.539
 20
198.94
 21
198.94
  0
LINE
  8
0
 10
18.539
 11
18.539
 20
198.94
 21
198.44
  0
LINE
  8
0
 10
18.539
 11
-18.538
 20
198.44
 21
198.44
  0
LINE
  8
0
 10
-18.538
 11
-18.538
 20
202.44
 21
202.94
  0
LINE
  8
0
 10
-18.538
 11
18.539
 20
202.94
 21
202.94
  0
LINE
  8
0
 10
18.539
 11
18.539
 20
202.94
 21
202.44
  0
LINE
  8
0
 10
18.539
 11
-18.538
 20
202.44
 21
202.44
  0
LINE
  8
0
 10
-18.538
 11
-18.538
 20
206.44
 21
206.94
  0
LINE
  8
0
 10
-18.538
 11
18.539
 20
206.94
 21
206.94
  0
LINE
  8
0
 10
18.539
 11
18.539
 20
206.94
 21
206.44
  0
LINE
  8
0
 10
18.539
 11
-18.538
 20
206.44
 21
206.44
  0
LINE
  8
0
 10
-18.538
 11
-18.538
 20
210.44
 21
210.94
  0
LINE
  8
0
 10
-18.538
 11
18.539
 20
210.94
 21
210.94
  0
LINE
  8
0
 10
18.539
 11
18.539
 20
210.94
 21
210.44
  0
LINE
  8
0
 10
18.539
 11
-18.538
 20
210.44
 21
210.44
  0
LINE
  8
0
 10
-18.538
 11
-18.538
 20
214.44
 21
214.94
  0
LINE
  8
0
 10
-18.538
 11
18.539
 20
214.94
 21
214.94
  0
LINE
  8
0
 10
18.539
 11
18.539
 20
214.94
 21
214.44
  0
LINE
  8
0
 10
18.539
 11
-18.538
 20
214.44
 21
214.44
  0
LINE
  8
0
 10
-18.538
 11
-18.538
 20
218.44
 21
218.94
  0
LINE
  8
0
 10
-18.538
 11
18.539
 20
218.94
 21
218.94
  0
LINE
  8
0
 10
18.539
 11
18.539
 20
218.94
 21
218.44
  0
LINE
  8
0
 10
18.539
 11
-18.538
 20
218.44
 21
218.44
  0
LINE
  8
0
 10
-18.538
 11
-18.538
 20
222.44
 21
222.94
  0
LINE
  8
0
 10
-18.538
 11
18.539
 20
222.94
 21
222.94
  0
LINE
  8
0
 10
18.539
 11
18.539
 20
222.94
 21
222.44
  0
LINE
  8
0
 10
18.539
 11
-18.538
 20
222.44
 21
222.44
  0
LINE
  8
0
 10
-18.538
 11
-18.538
 20
226.44
 21
226.94
  0
LINE
  8
0
 10
-18.538
 11
18.539
 20
226.94
 21
226.94
  0
LINE
  8
0
 10
18.539
 11
18.539
 20
226.94
 21
226.44
  0
LINE
  8
0
 10
18.539
 11
-18.538
 20
226.44
 21
226.44
  0
LINE
  8
0
 10
1
 11
1
 20
-14.25
 21
-13.75
  0
LINE
  8
0
 10
1
 11
37.41
 20
-13.75
 21
-13.75
  0
LINE
  8
0
 10
37.41
 11
37.41
 20
-13.75
 21
-14.25
  0
LINE
  8
0
 10
37.41
 11
1
 20
-14.25
 21
-14.25
  0
LINE
  8
0
 10
1
 11
1
 20
-10.25
 21
-9.75
  0
LINE
  8
0
 10
1
 11
37.41
 20
-9.75
 21
-9.75
  0
LINE
  8
0
 10
37.41
 11
37.41
 20
-9.75
 21
-10.25
  0
LINE
  8
0
 10
37.41
 11
1
 20
-10.25
 21
-10.25
  0
LINE
  8
0
 10
1
 11
1
 20
-6.25
 21
-5.75
  0
LINE
  8
0
 10
1
 11
37.41
 20
-5.75
 21
-5.75
  0
LINE
  8
0
 10
37.41
 11
37.41
 20
-5.75
 21
-6.25
  0
LINE
  8
0
 10
37.41
 11
1
 20
-6.25
 21
-6.25
  0
LINE
  8
0
 10
1
 11
1
 20
-2.25
 21
-1.75
  0
LINE
  8
0
 10
1
 11
37.41
 20
-1.75
 21
-1.75
  0
LINE
  8
0
 10
37.41
 11
37.41
 20
-1.75
 21
-2.25
  0
LINE
  8
0
 10
37.41
 11
1
 20
-2.25
 21
-2.25
  0
LINE
  8
0
 10
1
 11
1
 20
1.75
 21
2.25
  0
LINE
  8
0
 10
1
 11
37.41
 20
2.25
 21
2.25
  0
LINE
  8
0
 10
37.41
 11
37.41
 20
2.25
 21
1.75
  0
LINE
  8
0
 10
37.41
 11
1
 20
1.75
 21
1.75
  0
LINE
  8
0
 10
1
 11
1
 20
5.75
 21
6.25
  0
LINE
  8
0
 10
1
 11
37.41
 20
6.25
 21
6.25
  0
LINE
  8
0
 10
37.41
 11
37.41
 20
6.25
 21
5.75
  0
LINE
  8
0
 10
37.41
 11
1
 20
5.75
 21
5.75
  0
LINE
  8
0
 10
1
 11
1
 20
9.75
 21
10.25
  0
LINE
  8
0
 10
1
 11
37.41
 20
10.25
 21
10.25
  0
LINE
  8
0
 10
37.41
 11
37.41
 20
10.25
 21
9.75
  0
LINE
  8
0
 10
37.41
 11
1
 20
9.75
 21
9.75
  0
LINE
  8
0
 10
1
 11
1
 20
13.75
 21
14.25
  0
LINE
  8
0
 10
1
 11
37.41
 20
14.25
 21
14.25
  0
LINE
  8
0
 10
37.41
 11
37.41
 20
14.25
 21
13.75
  0
LINE
  8
0
 10
37.41
 11
1
 20
13.75
 21
13.75
  0
LINE
  8
0
 10
1
 11
1
 20
55.98
 21
56.48
  0
LINE
  8
0
 10
1
 11
37.41
 20
56.48
 21
56.48
  0
LINE
  8
0
 10
37.41
 11
37.41
 20
56.48
 21
55.98
  0
LINE
  8
0
 10
37.41
 11
1
 20
55.98
 21
55.98
  0
LINE
  8
0
 10
1
 11
1
 20
59.98
 21
60.48
  0
LINE
  8
0
 10
1
 11
37.41
 20
60.48
 21
60.48
  0
LINE
  8
0
 10
37.41
 11
37.41
 20
60.48
 21
59.98
  0
LINE
  8
0
 10
37.41
 11
1
 20
59.98
 21
59.98
  0
LINE
  8
0
 10
1
 11
1
 20
63.98
 21
64.48
  0
LINE
  8
0
 10
1
 11
37.41
 20
64.48
 21
64.48
  0
LINE
  8
0
 10
37.41
 11
37.41
 20
64.48
 21
63.98
  0
LINE
  8
0
 10
37.41
 11
1
 20
63.98
 21
63.98
  0
LINE
  8
0
 10
1
 11
1
 20
67.98
 21
68.48
  0
LINE
  8
0
 10
1
 11
37.41
 20
68.48
 21
68.48
  0
LINE
  8
0
 10
37.41
 11
37.41
 20
68.48
 21
67.98
  0
LINE
  8
0
 10
37.41
 11
1
 20
67.98
 21
67.98
  0
LINE
  8
0
 10
1
 11
1
 20
71.98
 21
72.48
  0
LINE
  8
0
 10
1
 11
37.41
 20
72.48
 21
72.48
  0
LINE
  8
0
 10
37.41
 11
37.41
 20
72.48
 21
71.98
  0
LINE
  8
0
 10
37.41
 11
1
 20
71.98
 21
71.98
  0
LINE
  8
0
 10
1
 11
1
 20
75.98
 21
76.48
  0
LINE
  8
0
 10
1
 11
37.41
 20
76.48
 21
76.48
  0
LINE
  8
0
 10
37.41
 11
37.41
 20
76.48
 21
75.98
  0
LINE
  8
0
 10
37.41
 11
1
 20
75.98
 21
75.98
  0
LINE
  8
0
 10
1
 11
1
 20
79.98
 21
80.48
  0
LINE
  8
0
 10
1
 11
37.41
 20
80.48
 21
80.48
  0
LINE
  8
0
 10
37.41
 11
37.41
 20
80.48
 21
79.98
  0
LINE
  8
0
 10
37.41
 11
1
 20
79.98
 21
79.98
  0
LINE
  8
0
 10
1
 11
1
 20
83.98
 21
84.48
  0
LINE
  8
0
 10
1
 11
37.41
 20
84.48
 21
84.48
  0
LINE
  8
0
 10
37.41
 11
37.41
 20
84.48
 21
83.98
  0
LINE
  8
0
 10
37.41
 11
1
 20
83.98
 21
83.98
  0
LINE
  8
0
 10
1
 11
1
 20
126.21
 21
126.71
  0
LINE
  8
0
 10
1
 11
37.41
 20
126.71
 21
126.71
  0
LINE
  8
0
 10
37.41
 11
37.41
 20
126.71
 21
126.21
  0
LINE
  8
0
 10
37.41
 11
1
 20
126.21
 21
126.21
  0
LINE
  8
0
 10
1
 11
1
 20
130.21
 21
130.71
  0
LINE
  8
0
 10
1
 11
37.41
 20
130.71
 21
130.71
  0
LINE
  8
0
 10
37.41
 11
37.41
 20
130.71
 21
130.21
  0
LINE
  8
0
 10
37.41
 11
1
 20
130.21
 21
130.21
  0
LINE
  8
0
 10
1
 11
1
 20
134.21
 21
134.71
  0
LINE
  8
0
 10
1
 11
37.41
 20
134.71
 21
134.71
  0
LINE
  8
0
 10
37.41
 11
37.41
 20
134.71
 21
134.21
  0
LINE
  8
0
 10
37.41
 11
1
 20
134.21
 21
134.21
  0
LINE
  8
0
 10
1
 11
1
 20
138.21
 21
138.71
  0
LINE
  8
0
 10
1
 11
37.41
 20
138.71
 21
138.71
  0
LINE
  8
0
 10
37.41
 11
37.41
 20
138.71
 21
138.21
  0
LINE
  8
0
 10
37.41
 11
1
 20
138.21
 21
138.21
  0
LINE
  8
0
 10
1
 11
1
 20
142.21
 21
142.71
  0
LINE
  8
0
 10
1
 11
37.41
 20
142.71
 21
142.71
  0
LINE
  8
0
 10
37.41
 11
37.41
 20
142.71
 21
142.21
  0
LINE
  8
0
 10
37.41
 11
1
 20
142.21
 21
142.21
  0
LINE
  8
0
 10
1
 11
1
 20
146.21
 21
146.71
  0
LINE
  8
0
 10
1
 11
37.41
 20
146.71
 21
146.71
  0
LINE
  8
0
 10
37.41
 11
37.41
 20
146.71
 21
146.21
  0
LINE
  8
0
 10
37.41
 11
1
 20
146.21
 21
146.21
  0
LINE
  8
0
 10
1
 11
1
 20
150.21
 21
150.71
  0
LINE
  8
0
 10
1
 11
37.41
 20
150.71
 21
150.71
  0
LINE
  8
0
 10
37.41
 11
37.41
 20
150.71
 21
150.21
  0
LINE
  8
0
 10
37.41
 11
1
 20
150.21
 21
150.21
  0
LINE
  8
0
 10
1
 11
1
 20
154.21
 21
154.71
  0
LINE
  8
0
 10
1
 11
37.41
 20
154.71
 21
154.71
  0
LINE
  8
0
 10
37.41
 11
37.41
 20
154.71
 21
154.21
  0
LINE
  8
0
 10
37.41
 11
1
 20
154.21
 21
154.21
  0
LINE
  8
0
 10
1
 11
1
 20
196.44
 21
196.94
  0
LINE
  8
0
 10
1
 11
37.41
 20
196.94
 21
196.94
  0
LINE
  8
0
 10
37.41
 11
37.41
 20
196.94
 21
196.44
  0
LINE
  8
0
 10
37.41
 11
1
 20
196.44
 21
196.44
  0
LINE
  8
0
 10
1
 11
1
 20
200.44
 21
200.94
  0
LINE
  8
0
 10
1
 11
37.41
 20
200.94
 21
200.94
  0
LINE
  8
0
 10
37.41
 11
37.41
 20
200.94
 21
200.44
  0
LINE
  8
0
 10
37.41
 11
1
 20
200.44
 21
200.44
  0
LINE
  8
0
 10
1
 11
1
 20
204.44
 21
204.94
  0
LINE
  8
0
 10
1
 11
37.41
 20
204.94
 21
204.94
  0
LINE
  8
0
 10
37.41
 11
37.41
 20
204.94
 21
204.44
  0
LINE
  8
0
 10
37.41
 11
1
 20
204.44
 21
204.44
  0
LINE
  8
0
 10
1
 11
1
 20
208.44
 21
208.94
  0
LINE
  8
0
 10
1
 11
37.41
 20
208.94
 21
208.94
  0
LINE
  8
0
 10
37.41
 11
37.41
 20
208.94
 21
208.44
  0
LINE
  8
0
 10
37.41
 11
1
 20
208.44
 21
208.44
  0
LINE
  8
0
 10
1
 11
1
 20
212.44
 21
212.94
  0
LINE
  8
0
 10
1
 11
37.41
 20
212.94
 21
212.94
  0
LINE
  8
0
 10
37.41
 11
37.41
 20
212.94
 21
212.44
  0
LINE
  8
0
 10
37.41
 11
1
 20
212.44
 21
212.44
  0
LINE
  8
0
 10
1
 11
1
 20
216.44
 21
216.94
  0
LINE
  8
0
 10
1
 11
37.41
 20
216.94
 21
216.94
  0
LINE
  8
0
 10
37.41
 11
37.41
 20
216.94
 21
216.44
  0
LINE
  8
0
 10
37.41
 11
1
 20
216.44
 21
216.44
  0
LINE
  8
0
 10
1
 11
1
 20
220.44
 21
220.94
  0
LINE
  8
0
 10
1
 11
37.41
 20
220.94
 21
220.94
  0
LINE
  8
0
 10
37.41
 11
37.41
 20
220.94
 21
220.44
  0
LINE
  8
0
 10
37.41
 11
1
 20
220.44
 21
220.44
  0
LINE
  8
0
 10
1
 11
1
 20
224.44
 21
224.94
  0
LINE
  8
0
 10
1
 11
37.41
 20
224.94
 21
224.94
  0
LINE
  8
0
 10
37.41
 11
37.41
 20
224.94
 21
224.44
  0
LINE
  8
0
 10
37.41
 11
1
 20
224.44
 21
224.44
  0
LINE
  8
0
 10
59.415
 11
59.415
 20
20.592
 21
25.822
  0
LINE
  8
0
 10
59.415
 11
62.615
 20
25.822
 21
25.822
  0
LINE
  8
0
 10
62.615
 11
62.615
 20
25.822
 21
36.208
  0
LINE
  8
0
 10
62.615
 11
59.415
 20
36.208
 21
36.208
  0
LINE
  8
0
 10
59.415
 11
59.415
 20
36.208
 21
41.438
  0
LINE
  8
0
 10
59.415
 11
62.615
 20
41.438
 21
41.438
  0
LINE
  8
0
 10
62.615
 11
62.615
 20
41.438
 21
46.63
  0
LINE
  8
0
 10
62.615
 11
62.639
 20
46.63
 21
46.63
  0
LINE
  8
0
 10
62.639
 11
62.615
 20
46.63
 21
46.86
  0
LINE
  8
0
 10
62.615
 11
63.053
 20
46.86
 21
51.028
  0
LINE
  8
0
 10
63.053
 11
64.348
 20
51.028
 21
55.013
  0
LINE
  8
0
 10
64.348
 11
66.443
 20
55.013
 21
58.642
  0
LINE
  8
0
 10
66.443
 11
69.247
 20
58.642
 21
61.756
  0
LINE
  8
0
 10
69.247
 11
72.637
 20
61.756
 21
64.22
  0
LINE
  8
0
 10
72.637
 11
76.466
 20
64.22
 21
65.924
  0
LINE
  8
0
 10
76.466
 11
80.565
 20
65.924
 21
66.795
  0
LINE
  8
0
 10
80.565
 11
82.89
 20
66.795
 21
66.795
  0
LINE
  8
0
 10
82.89
 11
82.89
 20
66.795
 21
66.905
  0
LINE
  8
0
 10
82.89
 11
88.082
 20
66.905
 21
66.905
  0
LINE
  8
0
 10
88.082
 11
88.082
 20
66.905
 21
70.105
  0
LINE
  8
0
 10
88.082
 11
93.312
 20
70.105
 21
70.105
  0
LINE
  8
0
 10
93.312
 11
93.312
 20
70.105
 21
66.905
  0
LINE
  8
0
 10
93.312
 11
103.698
 20
66.905
 21
66.905
  0
LINE
  8
0
 10
103.698
 11
103.698
 20
66.905
 21
70.105
  0
LINE
  8
0
 10
103.698
 11
108.928
 20
70.105
 21
70.105
  0
LINE
  8
0
 10
108.928
 11
108.928
 20
70.105
 21
66.905
  0
LINE
  8
0
 10
108.928
 11
114.12
 20
66.905
 21
66.905
  0
LINE
  8
0
 10
114.12
 11
114.12
 20
66.905
 21
66.795
  0
LINE
  8
0
 10
114.12
 11
116.445
 20
66.795
 21
66.795
  0
LINE
  8
0
 10
116.445
 11
120.544
 20
66.795
 21
65.924
  0
LINE
  8
0
 10
120.544
 11
124.373
 20
65.924
 21
64.22
  0
LINE
  8
0
 10
124.373
 11
127.763
 20
64.22
 21
61.756
  0
LINE
  8
0
 10
127.763
 11
130.567
 20
61.756
 21
58.642
  0
LINE
  8
0
 10
130.567
 11
132.662
 20
58.642
 21
55.013
  0
LINE
  8
0
 10
132.662
 11
133.957
 20
55.013
 21
51.028
  0
LINE
  8
0
 10
133.957
 11
134.395
 20
51.028
 21
46.86
  0
LINE
  8
0
 10
134.395
 11
134.371
 20
46.86
 21
46.63
  0
LINE
  8
0
 10
134.371
 11
134.395
 20
46.63
 21
46.63
  0
LINE
  8
0
 10
134.395
 11
134.395
 20
46.63
 21
41.438
  0
LINE
  8
0
 10
134.395
 11
137.595
 20
41.438
 21
41.438
  0
LINE
  8
0
 10
137.595
 11
137.595
 20
41.438
 21
36.208
  0
LINE
  8
0
 10
137.595
 11
134.395
 20
36.208
 21
36.208
  0
LINE
  8
0
 10
134.395
 11
134.395
 20
36.208
 21
25.822
  0
LINE
  8
0
 10
134.395
 11
137.595
 20
25.822
 21
25.822
  0
LINE
  8
0
 10
137.595
 11
137.595
 20
25.822
 21
20.592
  0
LINE
  8
0
 10
137.595
 11
134.395
 20
20.592
 21
20.592
  0
LINE
  8
0
 10
134.395
 11
134.395
 20
20.592
 21
15.4
  0
LINE
  8
0
 10
134.395
 11
134.371
 20
15.4
 21
15.4
  0
LINE
  8
0
 10
134.371
 11
134.395
 20
15.4
 21
15.17
  0
LINE
  8
0
 10
134.395
 11
133.957
 20
15.17
 21
11.002
  0
LINE
  8
0
 10
133.957
 11
132.662
 20
11.002
 21
7.017
  0
LINE
  8
0
 10
132.662
 11
130.567
 20
7.017
 21
3.388
  0
LINE
  8
0
 10
130.567
 11
127.763
 20
3.388
 21
0.274
  0
LINE
  8
0
 10
127.763
 11
124.373
 20
0.274
 21
-2.19
  0
LINE
  8
0
 10
124.373
 11
120.544
 20
-2.19
 21
-3.894
  0
LINE
  8
0
 10
120.544
 11
116.445
 20
-3.894
 21
-4.765
  0
LINE
  8
0
 10
116.445
 11
114.12
 20
-4.765
 21
-4.765
  0
LINE
  8
0
 10
114.12
 11
114.12
 20
-4.765
 21
-4.875
  0
LINE
  8
0
 10
114.12
 11
108.928
 20
-4.875
 21
-4.875
  0
LINE
  8
0
 10
108.928
 11
108.928
 20
-4.875
 21
-8.075
  0
LINE
  8
0
 10
108.928
 11
103.698
 20
-8.075
 21
-8.075
  0
LINE
  8
0
 10
103.698
 11
103.698
 20
-8.075
 21
-4.875
  0
LINE
  8
0
 10
103.698
 11
93.312
 20
-4.875
 21
-4.875
  0
LINE
  8
0
 10
93.312
 11
93.312
 20
-4.875
 21
-8.075
  0
LINE
  8
0
 10
93.312
 11
88.082
 20
-8.075
 21
-8.075
  0
LINE
  8
0
 10
88.082
 11
88.082
 20
-8.075
 21
-4.875
  0
LINE
  8
0
 10
88.082
 11
82.89
 20
-4.875
 21
-4.875
  0
LINE
  8
0
 10
82.89
 11
82.89
 20
-4.875
 21
-4.765
  0
LINE
  8
0
 10
82.89
 11
80.565
 20
-4.765
 21
-4.765
  0
LINE
  8
0
 10
80.565
 11
76.466
 20
-4.765
 21
-3.894
  0
LINE
  8
0
 10
76.466
 11
72.637
 20
-3.894
 21
-2.19
  0
LINE
  8
0
 10
72.637
 11
69.247
 20
-2.19
 21
0.274
  0
LINE
  8
0
 10
69.247
 11
66.443
 20
0.274
 21
3.388
  0
LINE
  8
0
 10
66.443
 11
64.348
 20
3.388
 21
7.017
  0
LINE
  8
0
 10
64.348
 11
63.053
 20
7.017
 21
11.002
  0
LINE
  8
0
 10
63.053
 11
62.615
 20
11.002
 21
15.17
  0
LINE
  8
0
 10
62.615
 11
62.639
 20
15.17
 21
15.4
  0
LINE
  8
0
 10
62.639
 11
62.615
 20
15.4
 21
15.4
  0
LINE
  8
0
 10
62.615
 11
62.615
 20
15.4
 21
20.592
  0
LINE
  8
0
 10
62.615
 11
59.415
 20
20.592
 21
20.592
  0
LINE
  8
0
 10
65.815
 11
65.965
 20
15.17
 21
16.6
  0
LINE
  8
0
 10
65.965
 11
65.815
 20
16.6
 21
16.6
  0
LINE
  8
0
 10
65.815
 11
65.815
 20
16.6
 21
45.43
  0
LINE
  8
0
 10
65.815
 11
65.965
 20
45.43
 21
45.43
  0
LINE
  8
0
 10
65.965
 11
65.815
 20
45.43
 21
46.86
  0
LINE
  8
0
 10
65.815
 11
66.183
 20
46.86
 21
50.362
  0
LINE
  8
0
 10
66.183
 11
67.271
 20
50.362
 21
53.712
  0
LINE
  8
0
 10
67.271
 11
69.032
 20
53.712
 21
56.761
  0
LINE
  8
0
 10
69.032
 11
71.388
 20
56.761
 21
59.378
  0
LINE
  8
0
 10
71.388
 11
74.237
 20
59.378
 21
61.448
  0
LINE
  8
0
 10
74.237
 11
77.455
 20
61.448
 21
62.881
  0
LINE
  8
0
 10
77.455
 11
80.899
 20
62.881
 21
63.613
  0
LINE
  8
0
 10
80.899
 11
84.09
 20
63.613
 21
63.613
  0
LINE
  8
0
 10
84.09
 11
84.09
 20
63.613
 21
63.705
  0
LINE
  8
0
 10
84.09
 11
112.92
 20
63.705
 21
63.705
  0
LINE
  8
0
 10
112.92
 11
112.92
 20
63.705
 21
63.613
  0
LINE
  8
0
 10
112.92
 11
116.111
 20
63.613
 21
63.613
  0
LINE
  8
0
 10
116.111
 11
119.555
 20
63.613
 21
62.881
  0
LINE
  8
0
 10
119.555
 11
122.773
 20
62.881
 21
61.448
  0
LINE
  8
0
 10
122.773
 11
125.622
 20
61.448
 21
59.378
  0
LINE
  8
0
 10
125.622
 11
127.978
 20
59.378
 21
56.761
  0
LINE
  8
0
 10
127.978
 11
129.739
 20
56.761
 21
53.712
  0
LINE
  8
0
 10
129.739
 11
130.827
 20
53.712
 21
50.362
  0
LINE
  8
0
 10
130.827
 11
131.195
 20
50.362
 21
46.86
  0
LINE
  8
0
 10
131.195
 11
131.045
 20
46.86
 21
45.43
  0
LINE
  8
0
 10
131.045
 11
131.195
 20
45.43
 21
45.43
  0
LINE
  8
0
 10
131.195
 11
131.195
 20
45.43
 21
16.6
  0
LINE
  8
0
 10
131.195
 11
131.045
 20
16.6
 21
16.6
  0
LINE
  8
0
 10
131.045
 11
131.195
 20
16.6
 21
15.17
  0
LINE
  8
0
 10
131.195
 11
130.827
 20
15.17
 21
11.668
  0
LINE
  8
0
 10
130.827
 11
129.739
 20
11.668
 21
8.318
  0
LINE
  8
0
 10
129.739
 11
127.978
 20
8.318
 21
5.269
  0
LINE
  8
0
 10
127.978
 11
125.622
 20
5.269
 21
2.652
  0
LINE
  8
0
 10
125.622
 11
122.773
 20
2.652
 21
0.582
  0
LINE
  8
0
 10
122.773
 11
119.555
 20
0.582
 21
-0.851
  0
LINE
  8
0
 10
119.555
 11
116.111
 20
-0.851
 21
-1.583
  0
LINE
  8
0
 10
116.111
 11
112.92
 20
-1.583
 21
-1.583
  0
LINE
  8
0
 10
112.92
 11
112.92
 20
-1.583
 21
-1.675
  0
LINE
  8
0
 10
112.92
 11
84.09
 20
-1.675
 21
-1.675
  0
LINE
  8
0
 10
84.09
 11
84.09
 20
-1.675
 21
-1.583
  0
LINE
  8
0
 10
84.09
 11
80.899
 20
-1.583
 21
-1.583
  0
LINE
  8
0
 10
80.899
 11
77.455
 20
-1.583
 21
-0.851
  0
LINE
  8
0
 10
77.455
 11
74.237
 20
-0.851
 21
0.582
  0
LINE
  8
0
 10
74.237
 11
71.388
 20
0.582
 21
2.652
  0
LINE
  8
0
 10
71.388
 11
69.032
 20
2.652
 21
5.269
  0
LINE
  8
0
 10
69.032
 11
67.271
 20
5.269
 21
8.318
  0
LINE
  8
0
 10
67.271
 11
66.183
 20
8.318
 21
11.668
  0
LINE
  8
0
 10
66.183
 11
65.815
 20
11.668
 21
15.17
  0
ENDSEC
  0
SECTION
  2
OBJECTS
  0
DICTIONARY
  0
ENDSEC
  0
EOF
