solid OpenSCAD_Model
  facet normal 1 -0 0
    outer loop
      vertex 23.6 0 30
      vertex 23.6 12.2 0
      vertex 23.6 12.2 30
    endloop
  endfacet
  facet normal 1 0 0
    outer loop
      vertex 23.6 12.2 0
      vertex 23.6 0 30
      vertex 23.6 0 0
    endloop
  endfacet
  facet normal 0 0 1
    outer loop
      vertex 23.5798 0 30
      vertex 21.3822 0.791019 30
      vertex 21.3999 0.36737 30
    endloop
  endfacet
  facet normal 0 0 1
    outer loop
      vertex 23.5798 0 30
      vertex 21.3229 1.21087 30
      vertex 21.3822 0.791019 30
    endloop
  endfacet
  facet normal 0 0 1
    outer loop
      vertex 19.8389 3.71487 30
      vertex 21.4 5.26499 30
      vertex 21.2402 5.41085 30
    endloop
  endfacet
  facet normal 0 0 1
    outer loop
      vertex 23.5798 0 30
      vertex 21.2225 1.62283 30
      vertex 21.3229 1.21087 30
    endloop
  endfacet
  facet normal 0 0 1
    outer loop
      vertex 23.6 0 30
      vertex 21.2225 1.62283 30
      vertex 23.5798 0 30
    endloop
  endfacet
  facet normal 0 0 1
    outer loop
      vertex 21.4 5.26499 30
      vertex 20.9028 2.40719 30
      vertex 21.082 2.0229 30
    endloop
  endfacet
  facet normal 0 0 1
    outer loop
      vertex 19.8389 3.71487 30
      vertex 21.2402 5.41085 30
      vertex 20.7266 5.79425 30
    endloop
  endfacet
  facet normal 0 0 1
    outer loop
      vertex 21.4 5.26499 30
      vertex 20.6866 2.77197 30
      vertex 20.9028 2.40719 30
    endloop
  endfacet
  facet normal 0 0 1
    outer loop
      vertex 21.4 5.26499 30
      vertex 20.4356 3.11368 30
      vertex 20.6866 2.77197 30
    endloop
  endfacet
  facet normal 0 0 1
    outer loop
      vertex 19.4991 3.96851 30
      vertex 20.7266 5.79425 30
      vertex 20.1777 6.12521 30
    endloop
  endfacet
  facet normal 0 0 1
    outer loop
      vertex 21.4 5.26499 30
      vertex 20.1521 3.429 30
      vertex 20.4356 3.11368 30
    endloop
  endfacet
  facet normal 0 0 1
    outer loop
      vertex 21.4 5.26499 30
      vertex 19.8389 3.71487 30
      vertex 20.1521 3.429 30
    endloop
  endfacet
  facet normal 0 0 1
    outer loop
      vertex 19.136 4.18744 30
      vertex 20.1777 6.12521 30
      vertex 19.5988 6.40049 30
    endloop
  endfacet
  facet normal 0 0 1
    outer loop
      vertex 20.7266 5.79425 30
      vertex 19.4991 3.96851 30
      vertex 19.8389 3.71487 30
    endloop
  endfacet
  facet normal 0 0 1
    outer loop
      vertex 20.1777 6.12521 30
      vertex 19.136 4.18744 30
      vertex 19.4991 3.96851 30
    endloop
  endfacet
  facet normal 0 0 1
    outer loop
      vertex 18.7531 4.36955 30
      vertex 19.5988 6.40049 30
      vertex 18.9957 6.61742 30
    endloop
  endfacet
  facet normal 0 0 1
    outer loop
      vertex 19.5988 6.40049 30
      vertex 18.7531 4.36955 30
      vertex 19.136 4.18744 30
    endloop
  endfacet
  facet normal 0 0 1
    outer loop
      vertex 18.3541 4.51306 30
      vertex 18.9957 6.61742 30
      vertex 18.3741 6.7739 30
    endloop
  endfacet
  facet normal 0 0 1
    outer loop
      vertex 18.9957 6.61742 30
      vertex 18.3541 4.51306 30
      vertex 18.7531 4.36955 30
    endloop
  endfacet
  facet normal 0 0 1
    outer loop
      vertex 18.3741 6.7739 30
      vertex 17.9429 4.61658 30
      vertex 18.3541 4.51306 30
    endloop
  endfacet
  facet normal 0 0 1
    outer loop
      vertex 17.7402 6.8684 30
      vertex 17.9429 4.61658 30
      vertex 18.3741 6.7739 30
    endloop
  endfacet
  facet normal 0 0 1
    outer loop
      vertex 17.7402 6.8684 30
      vertex 17.5235 4.67909 30
      vertex 17.9429 4.61658 30
    endloop
  endfacet
  facet normal 0 0 1
    outer loop
      vertex 17.1 6.9 30
      vertex 17.5235 4.67909 30
      vertex 17.7402 6.8684 30
    endloop
  endfacet
  facet normal 0 0 1
    outer loop
      vertex 17.1 6.9 30
      vertex 17.1 4.7 30
      vertex 17.5235 4.67909 30
    endloop
  endfacet
  facet normal -0 0 1
    outer loop
      vertex 4.7 6.9 30
      vertex 17.1 4.7 30
      vertex 17.1 6.9 30
    endloop
  endfacet
  facet normal 0 0 1
    outer loop
      vertex 4.7 6.9 30
      vertex 4.7 4.7 30
      vertex 17.1 4.7 30
    endloop
  endfacet
  facet normal 0 0 1
    outer loop
      vertex 4.7 6.9 30
      vertex 4.23932 4.67737 30
      vertex 4.7 4.7 30
    endloop
  endfacet
  facet normal -0 0 1
    outer loop
      vertex 4.02368 6.86677 30
      vertex 4.23932 4.67737 30
      vertex 4.7 6.9 30
    endloop
  endfacet
  facet normal 0 0 1
    outer loop
      vertex 4.02368 6.86677 30
      vertex 3.78308 4.60969 30
      vertex 4.23932 4.67737 30
    endloop
  endfacet
  facet normal -0 0 1
    outer loop
      vertex 3.35388 6.76742 30
      vertex 3.78308 4.60969 30
      vertex 4.02368 6.86677 30
    endloop
  endfacet
  facet normal 0 0 1
    outer loop
      vertex 3.35388 6.76742 30
      vertex 3.33566 4.49762 30
      vertex 3.78308 4.60969 30
    endloop
  endfacet
  facet normal -0 0 1
    outer loop
      vertex 2.69704 6.60289 30
      vertex 3.33566 4.49762 30
      vertex 3.35388 6.76742 30
    endloop
  endfacet
  facet normal 0 0 1
    outer loop
      vertex 3.33566 4.49762 30
      vertex 2.69704 6.60289 30
      vertex 2.90139 4.34223 30
    endloop
  endfacet
  facet normal -0 0 1
    outer loop
      vertex 2.05948 6.37477 30
      vertex 2.90139 4.34223 30
      vertex 2.69704 6.60289 30
    endloop
  endfacet
  facet normal 0 0 1
    outer loop
      vertex 2.90139 4.34223 30
      vertex 2.05948 6.37477 30
      vertex 2.48444 4.14503 30
    endloop
  endfacet
  facet normal -0 0 1
    outer loop
      vertex 1.44736 6.08526 30
      vertex 2.48444 4.14503 30
      vertex 2.05948 6.37477 30
    endloop
  endfacet
  facet normal 0 0 1
    outer loop
      vertex 2.48444 4.14503 30
      vertex 1.44736 6.08526 30
      vertex 2.08882 3.90791 30
    endloop
  endfacet
  facet normal -0 0 1
    outer loop
      vertex 0.866566 5.73714 30
      vertex 2.08882 3.90791 30
      vertex 1.44736 6.08526 30
    endloop
  endfacet
  facet normal 0 0 1
    outer loop
      vertex 2.08882 3.90791 30
      vertex 0.866566 5.73714 30
      vertex 1.71835 3.63315 30
    endloop
  endfacet
  facet normal -0 0 1
    outer loop
      vertex 0.322686 5.33377 30
      vertex 1.71835 3.63315 30
      vertex 0.866566 5.73714 30
    endloop
  endfacet
  facet normal 0 0 1
    outer loop
      vertex 1.71835 3.63315 30
      vertex 0.322686 5.33377 30
      vertex 1.3766 3.3234 30
    endloop
  endfacet
  facet normal -0 0 1
    outer loop
      vertex -0.179037 4.87904 30
      vertex 1.3766 3.3234 30
      vertex 0.322686 5.33377 30
    endloop
  endfacet
  facet normal 0 0 1
    outer loop
      vertex 1.3766 3.3234 30
      vertex -0.179037 4.87904 30
      vertex 1.06685 2.98165 30
    endloop
  endfacet
  facet normal -0 0 1
    outer loop
      vertex -0.633772 4.37731 30
      vertex 1.06685 2.98165 30
      vertex -0.179037 4.87904 30
    endloop
  endfacet
  facet normal 0 0 1
    outer loop
      vertex 1.06685 2.98165 30
      vertex -0.633772 4.37731 30
      vertex 0.792093 2.61118 30
    endloop
  endfacet
  facet normal -0 0 1
    outer loop
      vertex -1.03714 3.83343 30
      vertex 0.792093 2.61118 30
      vertex -0.633772 4.37731 30
    endloop
  endfacet
  facet normal 0 0 1
    outer loop
      vertex 0.792093 2.61118 30
      vertex -1.03714 3.83343 30
      vertex 0.55497 2.21556 30
    endloop
  endfacet
  facet normal -0 0 1
    outer loop
      vertex -1.38526 3.25264 30
      vertex 0.55497 2.21556 30
      vertex -1.03714 3.83343 30
    endloop
  endfacet
  facet normal -0 0 1
    outer loop
      vertex -1.67477 2.64052 30
      vertex 0.357766 1.79861 30
      vertex -1.38526 3.25264 30
    endloop
  endfacet
  facet normal 0 0 1
    outer loop
      vertex 0.55497 2.21556 30
      vertex -1.38526 3.25264 30
      vertex 0.357766 1.79861 30
    endloop
  endfacet
  facet normal 0 0 1
    outer loop
      vertex 23.5677 12.8472 30
      vertex 21.3786 12.6281 30
      vertex 21.4 12.2 30
    endloop
  endfacet
  facet normal 0 0 1
    outer loop
      vertex 22.0793 16.3781 30
      vertex 21.3147 13.052 30
      vertex 21.3786 12.6281 30
    endloop
  endfacet
  facet normal 0 0 1
    outer loop
      vertex 22.0793 16.3781 30
      vertex 21.209 13.4674 30
      vertex 21.3147 13.052 30
    endloop
  endfacet
  facet normal 0 0 1
    outer loop
      vertex 20.1024 15.2782 30
      vertex 21.6385 16.8531 30
      vertex 21.1527 17.2819 30
    endloop
  endfacet
  facet normal 0 0 1
    outer loop
      vertex 22.0793 16.3781 30
      vertex 21.0623 13.8703 30
      vertex 21.209 13.4674 30
    endloop
  endfacet
  facet normal 0 0 1
    outer loop
      vertex 22.0793 16.3781 30
      vertex 20.8764 14.2565 30
      vertex 21.0623 13.8703 30
    endloop
  endfacet
  facet normal 0 0 1
    outer loop
      vertex 22.0793 16.3781 30
      vertex 20.6528 14.6223 30
      vertex 20.8764 14.2565 30
    endloop
  endfacet
  facet normal 0 0 1
    outer loop
      vertex 19.781 15.5619 30
      vertex 21.1527 17.2819 30
      vertex 20.6266 17.6602 30
    endloop
  endfacet
  facet normal 0 0 1
    outer loop
      vertex 22.0793 16.3781 30
      vertex 20.394 14.964 30
      vertex 20.6528 14.6223 30
    endloop
  endfacet
  facet normal 0 0 1
    outer loop
      vertex 21.6385 16.8531 30
      vertex 20.1024 15.2782 30
      vertex 20.394 14.964 30
    endloop
  endfacet
  facet normal 0 0 1
    outer loop
      vertex 19.4329 15.8121 30
      vertex 20.6266 17.6602 30
      vertex 20.0654 17.9842 30
    endloop
  endfacet
  facet normal 0 0 1
    outer loop
      vertex 21.1527 17.2819 30
      vertex 19.781 15.5619 30
      vertex 20.1024 15.2782 30
    endloop
  endfacet
  facet normal 0 0 1
    outer loop
      vertex 19.0617 16.0264 30
      vertex 20.0654 17.9842 30
      vertex 19.4747 18.2507 30
    endloop
  endfacet
  facet normal 0 0 1
    outer loop
      vertex 20.6266 17.6602 30
      vertex 19.4329 15.8121 30
      vertex 19.781 15.5619 30
    endloop
  endfacet
  facet normal 0 0 1
    outer loop
      vertex 20.0654 17.9842 30
      vertex 19.0617 16.0264 30
      vertex 19.4329 15.8121 30
    endloop
  endfacet
  facet normal 0 0 1
    outer loop
      vertex 18.671 16.2028 30
      vertex 19.4747 18.2507 30
      vertex 18.8605 18.4571 30
    endloop
  endfacet
  facet normal 0 0 1
    outer loop
      vertex 19.4747 18.2507 30
      vertex 18.671 16.2028 30
      vertex 19.0617 16.0264 30
    endloop
  endfacet
  facet normal 0 0 1
    outer loop
      vertex 18.8605 18.4571 30
      vertex 18.2646 16.3393 30
      vertex 18.671 16.2028 30
    endloop
  endfacet
  facet normal 0 0 1
    outer loop
      vertex 18.2287 18.6012 30
      vertex 18.2646 16.3393 30
      vertex 18.8605 18.4571 30
    endloop
  endfacet
  facet normal 0 0 1
    outer loop
      vertex 18.2287 18.6012 30
      vertex 17.8467 16.4347 30
      vertex 18.2646 16.3393 30
    endloop
  endfacet
  facet normal 0 0 1
    outer loop
      vertex 17.5857 18.6818 30
      vertex 17.8467 16.4347 30
      vertex 18.2287 18.6012 30
    endloop
  endfacet
  facet normal 0 0 1
    outer loop
      vertex 17.5857 18.6818 30
      vertex 17.4213 16.488 30
      vertex 17.8467 16.4347 30
    endloop
  endfacet
  facet normal 0 0 1
    outer loop
      vertex 17.5857 18.6818 30
      vertex 16.9928 16.4987 30
      vertex 17.4213 16.488 30
    endloop
  endfacet
  facet normal 0 0 1
    outer loop
      vertex 16.938 18.698 30
      vertex 16.9928 16.4987 30
      vertex 17.5857 18.6818 30
    endloop
  endfacet
  facet normal 0 0 1
    outer loop
      vertex 16.938 18.698 30
      vertex 16.5653 16.4666 30
      vertex 16.9928 16.4987 30
    endloop
  endfacet
  facet normal -0 0 1
    outer loop
      vertex 16.2918 18.6496 30
      vertex 16.5653 16.4666 30
      vertex 16.938 18.698 30
    endloop
  endfacet
  facet normal 0 0 1
    outer loop
      vertex 16.2918 18.6496 30
      vertex 16.1432 16.3922 30
      vertex 16.5653 16.4666 30
    endloop
  endfacet
  facet normal -0 0 1
    outer loop
      vertex 15.6536 18.537 30
      vertex 16.1432 16.3922 30
      vertex 16.2918 18.6496 30
    endloop
  endfacet
  facet normal 0 0 1
    outer loop
      vertex 16.1432 16.3922 30
      vertex 15.6536 18.537 30
      vertex 15.7305 16.2761 30
    endloop
  endfacet
  facet normal -0 0 1
    outer loop
      vertex 15.0298 18.3615 30
      vertex 15.7305 16.2761 30
      vertex 15.6536 18.537 30
    endloop
  endfacet
  facet normal 0 0 1
    outer loop
      vertex 15.7305 16.2761 30
      vertex 15.0298 18.3615 30
      vertex 15.3315 16.1195 30
    endloop
  endfacet
  facet normal -0 0 1
    outer loop
      vertex 14.4266 18.1248 30
      vertex 15.3315 16.1195 30
      vertex 15.0298 18.3615 30
    endloop
  endfacet
  facet normal 0 0 1
    outer loop
      vertex 15.3315 16.1195 30
      vertex 14.4266 18.1248 30
      vertex 14.95 15.9239 30
    endloop
  endfacet
  facet normal 0 0 1
    outer loop
      vertex 14.95 15.9239 30
      vertex 14.4266 18.1248 30
      vertex 13.85 17.8292 30
    endloop
  endfacet
  facet normal -0 0 1
    outer loop
      vertex 21.4 5.26499 30
      vertex 23.6 0 30
      vertex 23.6 12.2 30
    endloop
  endfacet
  facet normal 0 0 1
    outer loop
      vertex 21.4 12.2 30
      vertex 23.6 12.2 30
      vertex 23.5677 12.8472 30
    endloop
  endfacet
  facet normal -0 0 1
    outer loop
      vertex 21.082 2.0229 30
      vertex 23.6 0 30
      vertex 21.4 5.26499 30
    endloop
  endfacet
  facet normal 0 0 1
    outer loop
      vertex 21.3786 12.6281 30
      vertex 23.5677 12.8472 30
      vertex 23.4711 13.4879 30
    endloop
  endfacet
  facet normal -0 -0 1
    outer loop
      vertex 21.2225 1.62283 30
      vertex 23.6 0 30
      vertex 21.082 2.0229 30
    endloop
  endfacet
  facet normal 0 0 1
    outer loop
      vertex 21.3786 12.6281 30
      vertex 23.4711 13.4879 30
      vertex 23.3112 14.1159 30
    endloop
  endfacet
  facet normal 0 0 1
    outer loop
      vertex 21.3758 -0.0559616 30
      vertex 23.5798 0 30
      vertex 21.3999 0.36737 30
    endloop
  endfacet
  facet normal 0 0 1
    outer loop
      vertex 21.3786 12.6281 30
      vertex 23.3112 14.1159 30
      vertex 23.0896 14.7248 30
    endloop
  endfacet
  facet normal 0 0 1
    outer loop
      vertex 23.5798 0 30
      vertex 21.3758 -0.0559616 30
      vertex 23.5634 -0.289245 30
    endloop
  endfacet
  facet normal 0 0 1
    outer loop
      vertex 21.3786 12.6281 30
      vertex 23.0896 14.7248 30
      vertex 22.8084 15.3087 30
    endloop
  endfacet
  facet normal 0 0 1
    outer loop
      vertex 23.5634 -0.289245 30
      vertex 21.3758 -0.0559616 30
      vertex 23.464 -0.922463 30
    endloop
  endfacet
  facet normal 0 0 1
    outer loop
      vertex 21.3786 12.6281 30
      vertex 22.8084 15.3087 30
      vertex 22.4706 15.8616 30
    endloop
  endfacet
  facet normal -0 0 1
    outer loop
      vertex 21.3101 -0.47486 30
      vertex 23.464 -0.922463 30
      vertex 21.3758 -0.0559616 30
    endloop
  endfacet
  facet normal 0 0 1
    outer loop
      vertex 21.3786 12.6281 30
      vertex 22.4706 15.8616 30
      vertex 22.0793 16.3781 30
    endloop
  endfacet
  facet normal 0 0 1
    outer loop
      vertex 23.464 -0.922463 30
      vertex 21.3101 -0.47486 30
      vertex 23.3029 -1.54282 30
    endloop
  endfacet
  facet normal 0 0 1
    outer loop
      vertex 20.394 14.964 30
      vertex 22.0793 16.3781 30
      vertex 21.6385 16.8531 30
    endloop
  endfacet
  facet normal 0 0 1
    outer loop
      vertex 23.6 12.2 30
      vertex 21.4 12.2 30
      vertex 21.4 5.26499 30
    endloop
  endfacet
  facet normal -0 0 1
    outer loop
      vertex 21.2034 -0.885252 30
      vertex 23.3029 -1.54282 30
      vertex 21.3101 -0.47486 30
    endloop
  endfacet
  facet normal 0 0 1
    outer loop
      vertex 23.3029 -1.54282 30
      vertex 21.2034 -0.885252 30
      vertex 23.0814 -2.14429 30
    endloop
  endfacet
  facet normal -0 0 1
    outer loop
      vertex 21.0569 -1.28315 30
      vertex 23.0814 -2.14429 30
      vertex 21.2034 -0.885252 30
    endloop
  endfacet
  facet normal 0 0 1
    outer loop
      vertex 23.0814 -2.14429 30
      vertex 21.0569 -1.28315 30
      vertex 22.8017 -2.72102 30
    endloop
  endfacet
  facet normal -0 0 1
    outer loop
      vertex 20.8719 -1.66467 30
      vertex 22.8017 -2.72102 30
      vertex 21.0569 -1.28315 30
    endloop
  endfacet
  facet normal 0 0 1
    outer loop
      vertex 22.8017 -2.72102 30
      vertex 20.8719 -1.66467 30
      vertex 22.4666 -3.2674 30
    endloop
  endfacet
  facet normal -0 0 1
    outer loop
      vertex 20.6502 -2.02613 30
      vertex 22.4666 -3.2674 30
      vertex 20.8719 -1.66467 30
    endloop
  endfacet
  facet normal 0 0 1
    outer loop
      vertex 22.4666 -3.2674 30
      vertex 20.6502 -2.02613 30
      vertex 22.0793 -3.77812 30
    endloop
  endfacet
  facet normal 0 0 1
    outer loop
      vertex 22.0793 -3.77812 30
      vertex 20.6502 -2.02613 30
      vertex 20.394 -2.36399 30
    endloop
  endfacet
  facet normal 0 0 1
    outer loop
      vertex 4.23932 -4.67737 30
      vertex 4.7 -6.9 30
      vertex 4.7 -4.7 30
    endloop
  endfacet
  facet normal 0 0 1
    outer loop
      vertex 4.23932 -4.67737 30
      vertex 4.02368 -6.86677 30
      vertex 4.7 -6.9 30
    endloop
  endfacet
  facet normal 0 0 1
    outer loop
      vertex 3.78308 -4.60969 30
      vertex 4.02368 -6.86677 30
      vertex 4.23932 -4.67737 30
    endloop
  endfacet
  facet normal 0 0 1
    outer loop
      vertex 3.78308 -4.60969 30
      vertex 3.35388 -6.76742 30
      vertex 4.02368 -6.86677 30
    endloop
  endfacet
  facet normal 0 0 1
    outer loop
      vertex 3.33566 -4.49762 30
      vertex 3.35388 -6.76742 30
      vertex 3.78308 -4.60969 30
    endloop
  endfacet
  facet normal 0 0 1
    outer loop
      vertex 2.69704 -6.60289 30
      vertex 3.33566 -4.49762 30
      vertex 2.90139 -4.34223 30
    endloop
  endfacet
  facet normal 0 0 1
    outer loop
      vertex 3.33566 -4.49762 30
      vertex 2.69704 -6.60289 30
      vertex 3.35388 -6.76742 30
    endloop
  endfacet
  facet normal 0 0 1
    outer loop
      vertex 2.05948 -6.37477 30
      vertex 2.90139 -4.34223 30
      vertex 2.48444 -4.14503 30
    endloop
  endfacet
  facet normal 0 0 1
    outer loop
      vertex 1.44736 -6.08526 30
      vertex 2.48444 -4.14503 30
      vertex 2.08882 -3.90791 30
    endloop
  endfacet
  facet normal 0 0 1
    outer loop
      vertex 2.90139 -4.34223 30
      vertex 2.05948 -6.37477 30
      vertex 2.69704 -6.60289 30
    endloop
  endfacet
  facet normal 0 0 1
    outer loop
      vertex 0.866566 -5.73714 30
      vertex 2.08882 -3.90791 30
      vertex 1.71835 -3.63315 30
    endloop
  endfacet
  facet normal 0 0 1
    outer loop
      vertex 2.48444 -4.14503 30
      vertex 1.44736 -6.08526 30
      vertex 2.05948 -6.37477 30
    endloop
  endfacet
  facet normal 0 0 1
    outer loop
      vertex 0.322686 -5.33377 30
      vertex 1.71835 -3.63315 30
      vertex 1.3766 -3.3234 30
    endloop
  endfacet
  facet normal 0 0 1
    outer loop
      vertex -0.179037 -4.87904 30
      vertex 1.3766 -3.3234 30
      vertex 1.06685 -2.98165 30
    endloop
  endfacet
  facet normal 0 0 1
    outer loop
      vertex 2.08882 -3.90791 30
      vertex 0.866566 -5.73714 30
      vertex 1.44736 -6.08526 30
    endloop
  endfacet
  facet normal 0 0 1
    outer loop
      vertex -0.633772 -4.37731 30
      vertex 1.06685 -2.98165 30
      vertex 0.792093 -2.61118 30
    endloop
  endfacet
  facet normal 0 0 1
    outer loop
      vertex -1.03714 -3.83343 30
      vertex 0.792093 -2.61118 30
      vertex 0.55497 -2.21556 30
    endloop
  endfacet
  facet normal 0 0 1
    outer loop
      vertex -1.38526 -3.25264 30
      vertex 0.55497 -2.21556 30
      vertex 0.357766 -1.79861 30
    endloop
  endfacet
  facet normal 0 0 1
    outer loop
      vertex 1.71835 -3.63315 30
      vertex 0.322686 -5.33377 30
      vertex 0.866566 -5.73714 30
    endloop
  endfacet
  facet normal 0 0 1
    outer loop
      vertex -1.67477 -2.64052 30
      vertex 0.357766 -1.79861 30
      vertex 0.20238 -1.36434 30
    endloop
  endfacet
  facet normal 0 0 1
    outer loop
      vertex -1.90289 -2.00296 30
      vertex 0.20238 -1.36434 30
      vertex 0.0903093 -0.916924 30
    endloop
  endfacet
  facet normal 0 0 1
    outer loop
      vertex -2.06742 -1.34612 30
      vertex 0.0903093 -0.916924 30
      vertex 0.0226318 -0.46068 30
    endloop
  endfacet
  facet normal 0 0 1
    outer loop
      vertex 1.3766 -3.3234 30
      vertex -0.179037 -4.87904 30
      vertex 0.322686 -5.33377 30
    endloop
  endfacet
  facet normal 0 0 1
    outer loop
      vertex -2.16677 -0.676318 30
      vertex 0.0226318 -0.46068 30
      vertex 1.90735e-07 0 30
    endloop
  endfacet
  facet normal 0 0 1
    outer loop
      vertex 0.357766 1.79861 30
      vertex -1.67477 2.64052 30
      vertex 0.20238 1.36434 30
    endloop
  endfacet
  facet normal -0 0 1
    outer loop
      vertex -1.90289 2.00296 30
      vertex 0.20238 1.36434 30
      vertex -1.67477 2.64052 30
    endloop
  endfacet
  facet normal 0 0 1
    outer loop
      vertex 1.06685 -2.98165 30
      vertex -0.633772 -4.37731 30
      vertex -0.179037 -4.87904 30
    endloop
  endfacet
  facet normal 0 0 1
    outer loop
      vertex 0.20238 1.36434 30
      vertex -1.90289 2.00296 30
      vertex 0.0903093 0.916924 30
    endloop
  endfacet
  facet normal 0 0 1
    outer loop
      vertex 0.792093 -2.61118 30
      vertex -1.03714 -3.83343 30
      vertex -0.633772 -4.37731 30
    endloop
  endfacet
  facet normal -0 0 1
    outer loop
      vertex -2.06742 1.34612 30
      vertex 0.0903093 0.916924 30
      vertex -1.90289 2.00296 30
    endloop
  endfacet
  facet normal 0 0 1
    outer loop
      vertex 0.55497 -2.21556 30
      vertex -1.38526 -3.25264 30
      vertex -1.03714 -3.83343 30
    endloop
  endfacet
  facet normal 0 0 1
    outer loop
      vertex 0.0903093 0.916924 30
      vertex -2.06742 1.34612 30
      vertex 0.0226318 0.46068 30
    endloop
  endfacet
  facet normal 0 0 1
    outer loop
      vertex 0.357766 -1.79861 30
      vertex -1.67477 -2.64052 30
      vertex -1.38526 -3.25264 30
    endloop
  endfacet
  facet normal -0 0 1
    outer loop
      vertex -2.16677 0.676318 30
      vertex 0.0226318 0.46068 30
      vertex -2.06742 1.34612 30
    endloop
  endfacet
  facet normal 0 0 1
    outer loop
      vertex 0.20238 -1.36434 30
      vertex -1.90289 -2.00296 30
      vertex -1.67477 -2.64052 30
    endloop
  endfacet
  facet normal 0 0 1
    outer loop
      vertex 0.0226318 0.46068 30
      vertex -2.16677 0.676318 30
      vertex 1.90735e-07 0 30
    endloop
  endfacet
  facet normal 0 0 1
    outer loop
      vertex 0.0903093 -0.916924 30
      vertex -2.06742 -1.34612 30
      vertex -1.90289 -2.00296 30
    endloop
  endfacet
  facet normal 0 0 1
    outer loop
      vertex -2.2 0 30
      vertex 1.90735e-07 0 30
      vertex -2.16677 0.676318 30
    endloop
  endfacet
  facet normal 0 0 1
    outer loop
      vertex 0.0226318 -0.46068 30
      vertex -2.16677 -0.676318 30
      vertex -2.06742 -1.34612 30
    endloop
  endfacet
  facet normal 0 0 1
    outer loop
      vertex 1.90735e-07 0 30
      vertex -2.2 0 30
      vertex -2.16677 -0.676318 30
    endloop
  endfacet
  facet normal 0 0 -1
    outer loop
      vertex 4.7 -6.9 0
      vertex 4.23932 -4.67737 0
      vertex 4.7 -4.7 0
    endloop
  endfacet
  facet normal 0 0 -1
    outer loop
      vertex 4.02368 -6.86677 0
      vertex 4.23932 -4.67737 0
      vertex 4.7 -6.9 0
    endloop
  endfacet
  facet normal 0 0 -1
    outer loop
      vertex 4.02368 -6.86677 0
      vertex 3.78308 -4.60969 0
      vertex 4.23932 -4.67737 0
    endloop
  endfacet
  facet normal 0 0 -1
    outer loop
      vertex 3.35388 -6.76742 0
      vertex 3.78308 -4.60969 0
      vertex 4.02368 -6.86677 0
    endloop
  endfacet
  facet normal 0 0 -1
    outer loop
      vertex 3.35388 -6.76742 0
      vertex 3.33566 -4.49762 0
      vertex 3.78308 -4.60969 0
    endloop
  endfacet
  facet normal 0 0 -1
    outer loop
      vertex 2.69704 -6.60289 0
      vertex 3.33566 -4.49762 0
      vertex 3.35388 -6.76742 0
    endloop
  endfacet
  facet normal -0 0 -1
    outer loop
      vertex 3.33566 -4.49762 0
      vertex 2.69704 -6.60289 0
      vertex 2.90139 -4.34223 0
    endloop
  endfacet
  facet normal 0 0 -1
    outer loop
      vertex 2.05948 -6.37477 0
      vertex 2.90139 -4.34223 0
      vertex 2.69704 -6.60289 0
    endloop
  endfacet
  facet normal -0 0 -1
    outer loop
      vertex 2.90139 -4.34223 0
      vertex 2.05948 -6.37477 0
      vertex 2.48444 -4.14503 0
    endloop
  endfacet
  facet normal 0 0 -1
    outer loop
      vertex 1.44736 -6.08526 0
      vertex 2.48444 -4.14503 0
      vertex 2.05948 -6.37477 0
    endloop
  endfacet
  facet normal -0 0 -1
    outer loop
      vertex 2.48444 -4.14503 0
      vertex 1.44736 -6.08526 0
      vertex 2.08882 -3.90791 0
    endloop
  endfacet
  facet normal 0 0 -1
    outer loop
      vertex 0.866566 -5.73714 0
      vertex 2.08882 -3.90791 0
      vertex 1.44736 -6.08526 0
    endloop
  endfacet
  facet normal -0 0 -1
    outer loop
      vertex 2.08882 -3.90791 0
      vertex 0.866566 -5.73714 0
      vertex 1.71835 -3.63315 0
    endloop
  endfacet
  facet normal 0 0 -1
    outer loop
      vertex 0.322686 -5.33377 0
      vertex 1.71835 -3.63315 0
      vertex 0.866566 -5.73714 0
    endloop
  endfacet
  facet normal -0 0 -1
    outer loop
      vertex 1.71835 -3.63315 0
      vertex 0.322686 -5.33377 0
      vertex 1.3766 -3.3234 0
    endloop
  endfacet
  facet normal 0 0 -1
    outer loop
      vertex -0.179037 -4.87904 0
      vertex 1.3766 -3.3234 0
      vertex 0.322686 -5.33377 0
    endloop
  endfacet
  facet normal -0 0 -1
    outer loop
      vertex 1.3766 -3.3234 0
      vertex -0.179037 -4.87904 0
      vertex 1.06685 -2.98165 0
    endloop
  endfacet
  facet normal 0 0 -1
    outer loop
      vertex -0.633772 -4.37731 0
      vertex 1.06685 -2.98165 0
      vertex -0.179037 -4.87904 0
    endloop
  endfacet
  facet normal -0 0 -1
    outer loop
      vertex 1.06685 -2.98165 0
      vertex -0.633772 -4.37731 0
      vertex 0.792093 -2.61118 0
    endloop
  endfacet
  facet normal 0 0 -1
    outer loop
      vertex -1.03714 -3.83343 0
      vertex 0.792093 -2.61118 0
      vertex -0.633772 -4.37731 0
    endloop
  endfacet
  facet normal -0 0 -1
    outer loop
      vertex 0.792093 -2.61118 0
      vertex -1.03714 -3.83343 0
      vertex 0.55497 -2.21556 0
    endloop
  endfacet
  facet normal 0 0 -1
    outer loop
      vertex -1.38526 -3.25264 0
      vertex 0.55497 -2.21556 0
      vertex -1.03714 -3.83343 0
    endloop
  endfacet
  facet normal 0 0 -1
    outer loop
      vertex -1.67477 -2.64052 0
      vertex 0.357766 -1.79861 0
      vertex -1.38526 -3.25264 0
    endloop
  endfacet
  facet normal -0 0 -1
    outer loop
      vertex 0.55497 -2.21556 0
      vertex -1.38526 -3.25264 0
      vertex 0.357766 -1.79861 0
    endloop
  endfacet
  facet normal 0 0 -1
    outer loop
      vertex 21.2225 1.62283 0
      vertex 23.6 0 0
      vertex 23.5798 0 0
    endloop
  endfacet
  facet normal 0 0 -1
    outer loop
      vertex 23.6 0 0
      vertex 21.4 5.26499 0
      vertex 23.6 12.2 0
    endloop
  endfacet
  facet normal 0 0 -1
    outer loop
      vertex 21.3758 -0.0559616 0
      vertex 23.5798 0 0
      vertex 23.5634 -0.289245 0
    endloop
  endfacet
  facet normal 0 0 -1
    outer loop
      vertex 21.4 12.2 0
      vertex 23.6 12.2 0
      vertex 21.4 5.26499 0
    endloop
  endfacet
  facet normal 0 0 -1
    outer loop
      vertex 21.3758 -0.0559616 0
      vertex 23.5634 -0.289245 0
      vertex 23.464 -0.922463 0
    endloop
  endfacet
  facet normal 0 0 -1
    outer loop
      vertex 23.6 12.2 0
      vertex 21.4 12.2 0
      vertex 23.5677 12.8472 0
    endloop
  endfacet
  facet normal 0 0 -1
    outer loop
      vertex 21.3101 -0.47486 0
      vertex 23.464 -0.922463 0
      vertex 23.3029 -1.54282 0
    endloop
  endfacet
  facet normal 0 0 -1
    outer loop
      vertex 21.3786 12.6281 0
      vertex 23.5677 12.8472 0
      vertex 21.4 12.2 0
    endloop
  endfacet
  facet normal 0 0 -1
    outer loop
      vertex 21.2034 -0.885252 0
      vertex 23.3029 -1.54282 0
      vertex 23.0814 -2.14429 0
    endloop
  endfacet
  facet normal -0 0 -1
    outer loop
      vertex 23.5677 12.8472 0
      vertex 21.3786 12.6281 0
      vertex 23.4711 13.4879 0
    endloop
  endfacet
  facet normal 0 0 -1
    outer loop
      vertex 21.0569 -1.28315 0
      vertex 23.0814 -2.14429 0
      vertex 22.8017 -2.72102 0
    endloop
  endfacet
  facet normal 0 0 -1
    outer loop
      vertex 21.3147 13.052 0
      vertex 23.4711 13.4879 0
      vertex 21.3786 12.6281 0
    endloop
  endfacet
  facet normal 0 0 -1
    outer loop
      vertex 20.8719 -1.66467 0
      vertex 22.8017 -2.72102 0
      vertex 22.4666 -3.2674 0
    endloop
  endfacet
  facet normal 0 0 -1
    outer loop
      vertex 20.6502 -2.02613 0
      vertex 22.4666 -3.2674 0
      vertex 22.0793 -3.77812 0
    endloop
  endfacet
  facet normal -0 0 -1
    outer loop
      vertex 23.4711 13.4879 0
      vertex 21.3147 13.052 0
      vertex 23.3112 14.1159 0
    endloop
  endfacet
  facet normal 0 0 -1
    outer loop
      vertex 21.209 13.4674 0
      vertex 23.3112 14.1159 0
      vertex 21.3147 13.052 0
    endloop
  endfacet
  facet normal -0 0 -1
    outer loop
      vertex 23.3112 14.1159 0
      vertex 21.209 13.4674 0
      vertex 23.0896 14.7248 0
    endloop
  endfacet
  facet normal 0 0 -1
    outer loop
      vertex 23.5798 0 0
      vertex 21.3999 0.36737 0
      vertex 21.3822 0.791019 0
    endloop
  endfacet
  facet normal -0 0 -1
    outer loop
      vertex 23.5798 0 0
      vertex 21.3758 -0.0559616 0
      vertex 21.3999 0.36737 0
    endloop
  endfacet
  facet normal 0 0 -1
    outer loop
      vertex 23.464 -0.922463 0
      vertex 21.3101 -0.47486 0
      vertex 21.3758 -0.0559616 0
    endloop
  endfacet
  facet normal 0 0 -1
    outer loop
      vertex 23.3029 -1.54282 0
      vertex 21.2034 -0.885252 0
      vertex 21.3101 -0.47486 0
    endloop
  endfacet
  facet normal 0 0 -1
    outer loop
      vertex 23.0814 -2.14429 0
      vertex 21.0569 -1.28315 0
      vertex 21.2034 -0.885252 0
    endloop
  endfacet
  facet normal 0 0 -1
    outer loop
      vertex 22.8017 -2.72102 0
      vertex 20.8719 -1.66467 0
      vertex 21.0569 -1.28315 0
    endloop
  endfacet
  facet normal 0 0 -1
    outer loop
      vertex 22.4666 -3.2674 0
      vertex 20.6502 -2.02613 0
      vertex 20.8719 -1.66467 0
    endloop
  endfacet
  facet normal 0 -0 -1
    outer loop
      vertex 20.6502 -2.02613 0
      vertex 22.0793 -3.77812 0
      vertex 20.394 -2.36399 0
    endloop
  endfacet
  facet normal 0 0 -1
    outer loop
      vertex 21.0623 13.8703 0
      vertex 23.0896 14.7248 0
      vertex 21.209 13.4674 0
    endloop
  endfacet
  facet normal -0 0 -1
    outer loop
      vertex 23.0896 14.7248 0
      vertex 21.0623 13.8703 0
      vertex 22.8084 15.3087 0
    endloop
  endfacet
  facet normal 0 0 -1
    outer loop
      vertex 20.8764 14.2565 0
      vertex 22.8084 15.3087 0
      vertex 21.0623 13.8703 0
    endloop
  endfacet
  facet normal -0 0 -1
    outer loop
      vertex 22.8084 15.3087 0
      vertex 20.8764 14.2565 0
      vertex 22.4706 15.8616 0
    endloop
  endfacet
  facet normal 0 0 -1
    outer loop
      vertex 20.6528 14.6223 0
      vertex 22.4706 15.8616 0
      vertex 20.8764 14.2565 0
    endloop
  endfacet
  facet normal -0 0 -1
    outer loop
      vertex 22.4706 15.8616 0
      vertex 20.6528 14.6223 0
      vertex 22.0793 16.3781 0
    endloop
  endfacet
  facet normal 0 0 -1
    outer loop
      vertex 20.394 14.964 0
      vertex 22.0793 16.3781 0
      vertex 20.6528 14.6223 0
    endloop
  endfacet
  facet normal -0 0 -1
    outer loop
      vertex 22.0793 16.3781 0
      vertex 20.394 14.964 0
      vertex 21.6385 16.8531 0
    endloop
  endfacet
  facet normal 0 0 -1
    outer loop
      vertex 20.1024 15.2782 0
      vertex 21.6385 16.8531 0
      vertex 20.394 14.964 0
    endloop
  endfacet
  facet normal -0 0 -1
    outer loop
      vertex 21.6385 16.8531 0
      vertex 20.1024 15.2782 0
      vertex 21.1527 17.2819 0
    endloop
  endfacet
  facet normal 0 0 -1
    outer loop
      vertex 19.781 15.5619 0
      vertex 21.1527 17.2819 0
      vertex 20.1024 15.2782 0
    endloop
  endfacet
  facet normal -0 0 -1
    outer loop
      vertex 21.1527 17.2819 0
      vertex 19.781 15.5619 0
      vertex 20.6266 17.6602 0
    endloop
  endfacet
  facet normal 0 0 -1
    outer loop
      vertex 19.4329 15.8121 0
      vertex 20.6266 17.6602 0
      vertex 19.781 15.5619 0
    endloop
  endfacet
  facet normal -0 0 -1
    outer loop
      vertex 20.6266 17.6602 0
      vertex 19.4329 15.8121 0
      vertex 20.0654 17.9842 0
    endloop
  endfacet
  facet normal 0 0 -1
    outer loop
      vertex 19.0617 16.0264 0
      vertex 20.0654 17.9842 0
      vertex 19.4329 15.8121 0
    endloop
  endfacet
  facet normal -0 0 -1
    outer loop
      vertex 20.0654 17.9842 0
      vertex 19.0617 16.0264 0
      vertex 19.4747 18.2507 0
    endloop
  endfacet
  facet normal 0 0 -1
    outer loop
      vertex 18.671 16.2028 0
      vertex 19.4747 18.2507 0
      vertex 19.0617 16.0264 0
    endloop
  endfacet
  facet normal -0 0 -1
    outer loop
      vertex 19.4747 18.2507 0
      vertex 18.671 16.2028 0
      vertex 18.8605 18.4571 0
    endloop
  endfacet
  facet normal 0 0 -1
    outer loop
      vertex 18.2646 16.3393 0
      vertex 18.8605 18.4571 0
      vertex 18.671 16.2028 0
    endloop
  endfacet
  facet normal 0 0 -1
    outer loop
      vertex 18.2646 16.3393 0
      vertex 18.2287 18.6012 0
      vertex 18.8605 18.4571 0
    endloop
  endfacet
  facet normal 0 0 -1
    outer loop
      vertex 17.8467 16.4347 0
      vertex 18.2287 18.6012 0
      vertex 18.2646 16.3393 0
    endloop
  endfacet
  facet normal 0 0 -1
    outer loop
      vertex 17.8467 16.4347 0
      vertex 17.5857 18.6818 0
      vertex 18.2287 18.6012 0
    endloop
  endfacet
  facet normal 0 0 -1
    outer loop
      vertex 17.4213 16.488 0
      vertex 17.5857 18.6818 0
      vertex 17.8467 16.4347 0
    endloop
  endfacet
  facet normal 0 0 -1
    outer loop
      vertex 16.9928 16.4987 0
      vertex 17.5857 18.6818 0
      vertex 17.4213 16.488 0
    endloop
  endfacet
  facet normal 0 0 -1
    outer loop
      vertex 16.9928 16.4987 0
      vertex 16.938 18.698 0
      vertex 17.5857 18.6818 0
    endloop
  endfacet
  facet normal 0 0 -1
    outer loop
      vertex 16.5653 16.4666 0
      vertex 16.938 18.698 0
      vertex 16.9928 16.4987 0
    endloop
  endfacet
  facet normal 0 0 -1
    outer loop
      vertex 16.5653 16.4666 0
      vertex 16.2918 18.6496 0
      vertex 16.938 18.698 0
    endloop
  endfacet
  facet normal 0 0 -1
    outer loop
      vertex 16.1432 16.3922 0
      vertex 16.2918 18.6496 0
      vertex 16.5653 16.4666 0
    endloop
  endfacet
  facet normal 0 0 -1
    outer loop
      vertex 15.6536 18.537 0
      vertex 16.1432 16.3922 0
      vertex 15.7305 16.2761 0
    endloop
  endfacet
  facet normal 0 0 -1
    outer loop
      vertex 16.1432 16.3922 0
      vertex 15.6536 18.537 0
      vertex 16.2918 18.6496 0
    endloop
  endfacet
  facet normal 0 0 -1
    outer loop
      vertex 15.0298 18.3615 0
      vertex 15.7305 16.2761 0
      vertex 15.3315 16.1195 0
    endloop
  endfacet
  facet normal 0 0 -1
    outer loop
      vertex 15.7305 16.2761 0
      vertex 15.0298 18.3615 0
      vertex 15.6536 18.537 0
    endloop
  endfacet
  facet normal 0 0 -1
    outer loop
      vertex 14.4266 18.1248 0
      vertex 15.3315 16.1195 0
      vertex 14.95 15.9239 0
    endloop
  endfacet
  facet normal 0 0 -1
    outer loop
      vertex 15.3315 16.1195 0
      vertex 14.4266 18.1248 0
      vertex 15.0298 18.3615 0
    endloop
  endfacet
  facet normal 0 -0 -1
    outer loop
      vertex 14.4266 18.1248 0
      vertex 14.95 15.9239 0
      vertex 13.85 17.8292 0
    endloop
  endfacet
  facet normal 0 0 -1
    outer loop
      vertex 23.5798 0 0
      vertex 21.3822 0.791019 0
      vertex 21.3229 1.21087 0
    endloop
  endfacet
  facet normal 0 0 -1
    outer loop
      vertex 23.5798 0 0
      vertex 21.3229 1.21087 0
      vertex 21.2225 1.62283 0
    endloop
  endfacet
  facet normal 0 0 -1
    outer loop
      vertex 23.6 0 0
      vertex 21.2225 1.62283 0
      vertex 21.082 2.0229 0
    endloop
  endfacet
  facet normal 0 0 -1
    outer loop
      vertex 23.6 0 0
      vertex 21.082 2.0229 0
      vertex 21.4 5.26499 0
    endloop
  endfacet
  facet normal 0 0 -1
    outer loop
      vertex 20.9028 2.40719 0
      vertex 21.4 5.26499 0
      vertex 21.082 2.0229 0
    endloop
  endfacet
  facet normal 0 0 -1
    outer loop
      vertex 20.6866 2.77197 0
      vertex 21.4 5.26499 0
      vertex 20.9028 2.40719 0
    endloop
  endfacet
  facet normal 0 0 -1
    outer loop
      vertex 20.4356 3.11368 0
      vertex 21.4 5.26499 0
      vertex 20.6866 2.77197 0
    endloop
  endfacet
  facet normal 0 0 -1
    outer loop
      vertex 20.1521 3.429 0
      vertex 21.4 5.26499 0
      vertex 20.4356 3.11368 0
    endloop
  endfacet
  facet normal 0 0 -1
    outer loop
      vertex 19.8389 3.71487 0
      vertex 21.4 5.26499 0
      vertex 20.1521 3.429 0
    endloop
  endfacet
  facet normal -0 0 -1
    outer loop
      vertex 21.4 5.26499 0
      vertex 19.8389 3.71487 0
      vertex 21.2402 5.41085 0
    endloop
  endfacet
  facet normal -0 0 -1
    outer loop
      vertex 21.2402 5.41085 0
      vertex 19.8389 3.71487 0
      vertex 20.7266 5.79425 0
    endloop
  endfacet
  facet normal 0 0 -1
    outer loop
      vertex 19.4991 3.96851 0
      vertex 20.7266 5.79425 0
      vertex 19.8389 3.71487 0
    endloop
  endfacet
  facet normal -0 0 -1
    outer loop
      vertex 20.7266 5.79425 0
      vertex 19.4991 3.96851 0
      vertex 20.1777 6.12521 0
    endloop
  endfacet
  facet normal 0 0 -1
    outer loop
      vertex 19.136 4.18744 0
      vertex 20.1777 6.12521 0
      vertex 19.4991 3.96851 0
    endloop
  endfacet
  facet normal -0 0 -1
    outer loop
      vertex 20.1777 6.12521 0
      vertex 19.136 4.18744 0
      vertex 19.5988 6.40049 0
    endloop
  endfacet
  facet normal 0 0 -1
    outer loop
      vertex 18.7531 4.36955 0
      vertex 19.5988 6.40049 0
      vertex 19.136 4.18744 0
    endloop
  endfacet
  facet normal -0 0 -1
    outer loop
      vertex 19.5988 6.40049 0
      vertex 18.7531 4.36955 0
      vertex 18.9957 6.61742 0
    endloop
  endfacet
  facet normal 0 0 -1
    outer loop
      vertex 18.3541 4.51306 0
      vertex 18.9957 6.61742 0
      vertex 18.7531 4.36955 0
    endloop
  endfacet
  facet normal -0 0 -1
    outer loop
      vertex 18.9957 6.61742 0
      vertex 18.3541 4.51306 0
      vertex 18.3741 6.7739 0
    endloop
  endfacet
  facet normal 0 0 -1
    outer loop
      vertex 17.9429 4.61658 0
      vertex 18.3741 6.7739 0
      vertex 18.3541 4.51306 0
    endloop
  endfacet
  facet normal 0 0 -1
    outer loop
      vertex 17.9429 4.61658 0
      vertex 17.7402 6.8684 0
      vertex 18.3741 6.7739 0
    endloop
  endfacet
  facet normal 0 0 -1
    outer loop
      vertex 17.5235 4.67909 0
      vertex 17.7402 6.8684 0
      vertex 17.9429 4.61658 0
    endloop
  endfacet
  facet normal 0 0 -1
    outer loop
      vertex 17.1 4.7 0
      vertex 17.7402 6.8684 0
      vertex 17.5235 4.67909 0
    endloop
  endfacet
  facet normal 0 0 -1
    outer loop
      vertex 17.1 4.7 0
      vertex 17.1 6.9 0
      vertex 17.7402 6.8684 0
    endloop
  endfacet
  facet normal 0 0 -1
    outer loop
      vertex 4.7 4.7 0
      vertex 17.1 6.9 0
      vertex 17.1 4.7 0
    endloop
  endfacet
  facet normal 0 0 -1
    outer loop
      vertex 4.7 4.7 0
      vertex 4.7 6.9 0
      vertex 17.1 6.9 0
    endloop
  endfacet
  facet normal 0 0 -1
    outer loop
      vertex 4.23932 4.67737 0
      vertex 4.7 6.9 0
      vertex 4.7 4.7 0
    endloop
  endfacet
  facet normal 0 0 -1
    outer loop
      vertex 4.23932 4.67737 0
      vertex 4.02368 6.86677 0
      vertex 4.7 6.9 0
    endloop
  endfacet
  facet normal 0 0 -1
    outer loop
      vertex 3.78308 4.60969 0
      vertex 4.02368 6.86677 0
      vertex 4.23932 4.67737 0
    endloop
  endfacet
  facet normal 0 0 -1
    outer loop
      vertex 3.78308 4.60969 0
      vertex 3.35388 6.76742 0
      vertex 4.02368 6.86677 0
    endloop
  endfacet
  facet normal 0 0 -1
    outer loop
      vertex 3.33566 4.49762 0
      vertex 3.35388 6.76742 0
      vertex 3.78308 4.60969 0
    endloop
  endfacet
  facet normal 0 0 -1
    outer loop
      vertex 2.69704 6.60289 0
      vertex 3.33566 4.49762 0
      vertex 2.90139 4.34223 0
    endloop
  endfacet
  facet normal 0 0 -1
    outer loop
      vertex 3.33566 4.49762 0
      vertex 2.69704 6.60289 0
      vertex 3.35388 6.76742 0
    endloop
  endfacet
  facet normal 0 0 -1
    outer loop
      vertex 2.05948 6.37477 0
      vertex 2.90139 4.34223 0
      vertex 2.48444 4.14503 0
    endloop
  endfacet
  facet normal 0 0 -1
    outer loop
      vertex 1.44736 6.08526 0
      vertex 2.48444 4.14503 0
      vertex 2.08882 3.90791 0
    endloop
  endfacet
  facet normal 0 0 -1
    outer loop
      vertex 2.90139 4.34223 0
      vertex 2.05948 6.37477 0
      vertex 2.69704 6.60289 0
    endloop
  endfacet
  facet normal 0 0 -1
    outer loop
      vertex 0.866566 5.73714 0
      vertex 2.08882 3.90791 0
      vertex 1.71835 3.63315 0
    endloop
  endfacet
  facet normal 0 0 -1
    outer loop
      vertex 2.48444 4.14503 0
      vertex 1.44736 6.08526 0
      vertex 2.05948 6.37477 0
    endloop
  endfacet
  facet normal 0 0 -1
    outer loop
      vertex 0.322686 5.33377 0
      vertex 1.71835 3.63315 0
      vertex 1.3766 3.3234 0
    endloop
  endfacet
  facet normal 0 0 -1
    outer loop
      vertex -0.179037 4.87904 0
      vertex 1.3766 3.3234 0
      vertex 1.06685 2.98165 0
    endloop
  endfacet
  facet normal 0 0 -1
    outer loop
      vertex 2.08882 3.90791 0
      vertex 0.866566 5.73714 0
      vertex 1.44736 6.08526 0
    endloop
  endfacet
  facet normal 0 0 -1
    outer loop
      vertex -0.633772 4.37731 0
      vertex 1.06685 2.98165 0
      vertex 0.792093 2.61118 0
    endloop
  endfacet
  facet normal 0 0 -1
    outer loop
      vertex -1.03714 3.83343 0
      vertex 0.792093 2.61118 0
      vertex 0.55497 2.21556 0
    endloop
  endfacet
  facet normal 0 0 -1
    outer loop
      vertex -1.38526 3.25264 0
      vertex 0.55497 2.21556 0
      vertex 0.357766 1.79861 0
    endloop
  endfacet
  facet normal 0 0 -1
    outer loop
      vertex 1.71835 3.63315 0
      vertex 0.322686 5.33377 0
      vertex 0.866566 5.73714 0
    endloop
  endfacet
  facet normal 0 0 -1
    outer loop
      vertex -1.67477 2.64052 0
      vertex 0.357766 1.79861 0
      vertex 0.20238 1.36434 0
    endloop
  endfacet
  facet normal 0 0 -1
    outer loop
      vertex -1.90289 2.00296 0
      vertex 0.20238 1.36434 0
      vertex 0.0903093 0.916924 0
    endloop
  endfacet
  facet normal 0 0 -1
    outer loop
      vertex -2.06742 1.34612 0
      vertex 0.0903093 0.916924 0
      vertex 0.0226318 0.46068 0
    endloop
  endfacet
  facet normal 0 0 -1
    outer loop
      vertex 1.3766 3.3234 0
      vertex -0.179037 4.87904 0
      vertex 0.322686 5.33377 0
    endloop
  endfacet
  facet normal 0 0 -1
    outer loop
      vertex -2.16677 0.676318 0
      vertex 0.0226318 0.46068 0
      vertex 1.90735e-07 0 0
    endloop
  endfacet
  facet normal -0 0 -1
    outer loop
      vertex 0.357766 -1.79861 0
      vertex -1.67477 -2.64052 0
      vertex 0.20238 -1.36434 0
    endloop
  endfacet
  facet normal 0 0 -1
    outer loop
      vertex -1.90289 -2.00296 0
      vertex 0.20238 -1.36434 0
      vertex -1.67477 -2.64052 0
    endloop
  endfacet
  facet normal 0 0 -1
    outer loop
      vertex 1.06685 2.98165 0
      vertex -0.633772 4.37731 0
      vertex -0.179037 4.87904 0
    endloop
  endfacet
  facet normal -0 0 -1
    outer loop
      vertex 0.20238 -1.36434 0
      vertex -1.90289 -2.00296 0
      vertex 0.0903093 -0.916924 0
    endloop
  endfacet
  facet normal 0 0 -1
    outer loop
      vertex 0.792093 2.61118 0
      vertex -1.03714 3.83343 0
      vertex -0.633772 4.37731 0
    endloop
  endfacet
  facet normal 0 0 -1
    outer loop
      vertex -2.06742 -1.34612 0
      vertex 0.0903093 -0.916924 0
      vertex -1.90289 -2.00296 0
    endloop
  endfacet
  facet normal 0 0 -1
    outer loop
      vertex 0.55497 2.21556 0
      vertex -1.38526 3.25264 0
      vertex -1.03714 3.83343 0
    endloop
  endfacet
  facet normal -0 0 -1
    outer loop
      vertex 0.0903093 -0.916924 0
      vertex -2.06742 -1.34612 0
      vertex 0.0226318 -0.46068 0
    endloop
  endfacet
  facet normal 0 0 -1
    outer loop
      vertex 0.357766 1.79861 0
      vertex -1.67477 2.64052 0
      vertex -1.38526 3.25264 0
    endloop
  endfacet
  facet normal 0 0 -1
    outer loop
      vertex -2.16677 -0.676318 0
      vertex 0.0226318 -0.46068 0
      vertex -2.06742 -1.34612 0
    endloop
  endfacet
  facet normal 0 0 -1
    outer loop
      vertex 0.20238 1.36434 0
      vertex -1.90289 2.00296 0
      vertex -1.67477 2.64052 0
    endloop
  endfacet
  facet normal -0 0 -1
    outer loop
      vertex 0.0226318 -0.46068 0
      vertex -2.16677 -0.676318 0
      vertex 1.90735e-07 0 0
    endloop
  endfacet
  facet normal 0 0 -1
    outer loop
      vertex 0.0903093 0.916924 0
      vertex -2.06742 1.34612 0
      vertex -1.90289 2.00296 0
    endloop
  endfacet
  facet normal 0 0 -1
    outer loop
      vertex -2.2 0 0
      vertex 1.90735e-07 0 0
      vertex -2.16677 -0.676318 0
    endloop
  endfacet
  facet normal 0 0 -1
    outer loop
      vertex 0.0226318 0.46068 0
      vertex -2.16677 0.676318 0
      vertex -2.06742 1.34612 0
    endloop
  endfacet
  facet normal 0 0 -1
    outer loop
      vertex 1.90735e-07 0 0
      vertex -2.2 0 0
      vertex -2.16677 0.676318 0
    endloop
  endfacet
  facet normal -1 0 0
    outer loop
      vertex 21.4 5.26499 0
      vertex 21.4 12.2 30
      vertex 21.4 12.2 0
    endloop
  endfacet
  facet normal -1 -0 0
    outer loop
      vertex 21.4 12.2 30
      vertex 21.4 5.26499 0
      vertex 21.4 5.26499 30
    endloop
  endfacet
  facet normal 0 -1 0
    outer loop
      vertex 23.5798 0 0
      vertex 23.6 0 30
      vertex 23.5798 0 30
    endloop
  endfacet
  facet normal 0 -1 -0
    outer loop
      vertex 23.6 0 30
      vertex 23.5798 0 0
      vertex 23.6 0 0
    endloop
  endfacet
  facet normal -0.86603 -0.499991 0
    outer loop
      vertex 14.95 15.9239 0
      vertex 13.85 17.8292 30
      vertex 13.85 17.8292 0
    endloop
  endfacet
  facet normal -0.86603 -0.499991 0
    outer loop
      vertex 13.85 17.8292 30
      vertex 14.95 15.9239 0
      vertex 14.95 15.9239 30
    endloop
  endfacet
  facet normal 0.998757 0.0498453 0
    outer loop
      vertex 23.6 12.2 30
      vertex 23.5677 12.8472 0
      vertex 23.5677 12.8472 30
    endloop
  endfacet
  facet normal 0.998757 0.0498453 0
    outer loop
      vertex 23.5677 12.8472 0
      vertex 23.6 12.2 30
      vertex 23.6 12.2 0
    endloop
  endfacet
  facet normal -0.998753 -0.049926 0
    outer loop
      vertex 21.4 12.2 0
      vertex 21.3786 12.6281 30
      vertex 21.3786 12.6281 0
    endloop
  endfacet
  facet normal -0.998753 -0.049926 0
    outer loop
      vertex 21.3786 12.6281 30
      vertex 21.4 12.2 0
      vertex 21.4 12.2 30
    endloop
  endfacet
  facet normal 0.988824 0.149088 0
    outer loop
      vertex 23.5677 12.8472 30
      vertex 23.4711 13.4879 0
      vertex 23.4711 13.4879 30
    endloop
  endfacet
  facet normal 0.988824 0.149088 0
    outer loop
      vertex 23.4711 13.4879 0
      vertex 23.5677 12.8472 30
      vertex 23.5677 12.8472 0
    endloop
  endfacet
  facet normal -0.988828 -0.149059 0
    outer loop
      vertex 21.3786 12.6281 0
      vertex 21.3147 13.052 30
      vertex 21.3147 13.052 0
    endloop
  endfacet
  facet normal -0.988828 -0.149059 0
    outer loop
      vertex 21.3147 13.052 30
      vertex 21.3786 12.6281 0
      vertex 21.3786 12.6281 30
    endloop
  endfacet
  facet normal 0.96908 0.246745 0
    outer loop
      vertex 23.4711 13.4879 30
      vertex 23.3112 14.1159 0
      vertex 23.3112 14.1159 30
    endloop
  endfacet
  facet normal 0.96908 0.246745 0
    outer loop
      vertex 23.3112 14.1159 0
      vertex 23.4711 13.4879 30
      vertex 23.4711 13.4879 0
    endloop
  endfacet
  facet normal -0.969118 -0.246596 0
    outer loop
      vertex 21.3147 13.052 0
      vertex 21.209 13.4674 30
      vertex 21.209 13.4674 0
    endloop
  endfacet
  facet normal -0.969118 -0.246596 0
    outer loop
      vertex 21.209 13.4674 30
      vertex 21.3147 13.052 0
      vertex 21.3147 13.052 30
    endloop
  endfacet
  facet normal 0.939703 0.341991 0
    outer loop
      vertex 23.3112 14.1159 30
      vertex 23.0896 14.7248 0
      vertex 23.0896 14.7248 30
    endloop
  endfacet
  facet normal 0.939703 0.341991 0
    outer loop
      vertex 23.0896 14.7248 0
      vertex 23.3112 14.1159 30
      vertex 23.3112 14.1159 0
    endloop
  endfacet
  facet normal -0.93965 -0.342136 0
    outer loop
      vertex 21.209 13.4674 0
      vertex 21.0623 13.8703 30
      vertex 21.0623 13.8703 0
    endloop
  endfacet
  facet normal -0.93965 -0.342136 0
    outer loop
      vertex 21.0623 13.8703 30
      vertex 21.209 13.4674 0
      vertex 21.209 13.4674 30
    endloop
  endfacet
  facet normal 0.900964 0.433894 0
    outer loop
      vertex 23.0896 14.7248 30
      vertex 22.8084 15.3087 0
      vertex 22.8084 15.3087 30
    endloop
  endfacet
  facet normal 0.900964 0.433894 0
    outer loop
      vertex 22.8084 15.3087 0
      vertex 23.0896 14.7248 30
      vertex 23.0896 14.7248 0
    endloop
  endfacet
  facet normal -0.901046 -0.433724 0
    outer loop
      vertex 21.0623 13.8703 0
      vertex 20.8764 14.2565 30
      vertex 20.8764 14.2565 0
    endloop
  endfacet
  facet normal -0.901046 -0.433724 0
    outer loop
      vertex 20.8764 14.2565 30
      vertex 21.0623 13.8703 0
      vertex 21.0623 13.8703 30
    endloop
  endfacet
  facet normal 0.853339 0.521356 0
    outer loop
      vertex 22.8084 15.3087 30
      vertex 22.4706 15.8616 0
      vertex 22.4706 15.8616 30
    endloop
  endfacet
  facet normal 0.853339 0.521356 0
    outer loop
      vertex 22.4706 15.8616 0
      vertex 22.8084 15.3087 30
      vertex 22.8084 15.3087 0
    endloop
  endfacet
  facet normal -0.853224 -0.521544 0
    outer loop
      vertex 20.8764 14.2565 0
      vertex 20.6528 14.6223 30
      vertex 20.6528 14.6223 0
    endloop
  endfacet
  facet normal -0.853224 -0.521544 0
    outer loop
      vertex 20.6528 14.6223 30
      vertex 20.8764 14.2565 0
      vertex 20.8764 14.2565 30
    endloop
  endfacet
  facet normal 0.797083 0.60387 0
    outer loop
      vertex 22.4706 15.8616 30
      vertex 22.0793 16.3781 0
      vertex 22.0793 16.3781 30
    endloop
  endfacet
  facet normal 0.797083 0.60387 0
    outer loop
      vertex 22.0793 16.3781 0
      vertex 22.4706 15.8616 30
      vertex 22.4706 15.8616 0
    endloop
  endfacet
  facet normal -0.797164 -0.603763 0
    outer loop
      vertex 20.6528 14.6223 0
      vertex 20.394 14.964 30
      vertex 20.394 14.964 0
    endloop
  endfacet
  facet normal -0.797164 -0.603763 0
    outer loop
      vertex 20.394 14.964 30
      vertex 20.6528 14.6223 0
      vertex 20.6528 14.6223 30
    endloop
  endfacet
  facet normal 0.733002 0.680226 0
    outer loop
      vertex 22.0793 16.3781 30
      vertex 21.6385 16.8531 0
      vertex 21.6385 16.8531 30
    endloop
  endfacet
  facet normal 0.733002 0.680226 0
    outer loop
      vertex 21.6385 16.8531 0
      vertex 22.0793 16.3781 30
      vertex 22.0793 16.3781 0
    endloop
  endfacet
  facet normal -0.732976 -0.680254 0
    outer loop
      vertex 20.394 14.964 0
      vertex 20.1024 15.2782 30
      vertex 20.1024 15.2782 0
    endloop
  endfacet
  facet normal -0.732976 -0.680254 0
    outer loop
      vertex 20.1024 15.2782 30
      vertex 20.394 14.964 0
      vertex 20.394 14.964 30
    endloop
  endfacet
  facet normal 0.661754 0.749721 -0
    outer loop
      vertex 21.6385 16.8531 0
      vertex 21.1527 17.2819 30
      vertex 21.6385 16.8531 30
    endloop
  endfacet
  facet normal 0.661754 0.749721 0
    outer loop
      vertex 21.1527 17.2819 30
      vertex 21.6385 16.8531 0
      vertex 21.1527 17.2819 0
    endloop
  endfacet
  facet normal -0.661768 -0.749709 0
    outer loop
      vertex 19.781 15.5619 0
      vertex 20.1024 15.2782 30
      vertex 19.781 15.5619 30
    endloop
  endfacet
  facet normal -0.661768 -0.749709 -0
    outer loop
      vertex 20.1024 15.2782 30
      vertex 19.781 15.5619 0
      vertex 20.1024 15.2782 0
    endloop
  endfacet
  facet normal 0.583805 0.811894 -0
    outer loop
      vertex 21.1527 17.2819 0
      vertex 20.6266 17.6602 30
      vertex 21.1527 17.2819 30
    endloop
  endfacet
  facet normal 0.583805 0.811894 0
    outer loop
      vertex 20.6266 17.6602 30
      vertex 21.1527 17.2819 0
      vertex 20.6266 17.6602 0
    endloop
  endfacet
  facet normal -0.583641 -0.812012 0
    outer loop
      vertex 19.4329 15.8121 0
      vertex 19.781 15.5619 30
      vertex 19.4329 15.8121 30
    endloop
  endfacet
  facet normal -0.583641 -0.812012 -0
    outer loop
      vertex 19.781 15.5619 30
      vertex 19.4329 15.8121 0
      vertex 19.781 15.5619 0
    endloop
  endfacet
  facet normal 0.49999 0.866031 -0
    outer loop
      vertex 20.6266 17.6602 0
      vertex 20.0654 17.9842 30
      vertex 20.6266 17.6602 30
    endloop
  endfacet
  facet normal 0.49999 0.866031 0
    outer loop
      vertex 20.0654 17.9842 30
      vertex 20.6266 17.6602 0
      vertex 20.0654 17.9842 0
    endloop
  endfacet
  facet normal -0.499978 -0.866038 0
    outer loop
      vertex 19.0617 16.0264 0
      vertex 19.4329 15.8121 30
      vertex 19.0617 16.0264 30
    endloop
  endfacet
  facet normal -0.499978 -0.866038 -0
    outer loop
      vertex 19.4329 15.8121 30
      vertex 19.0617 16.0264 0
      vertex 19.4329 15.8121 0
    endloop
  endfacet
  facet normal 0.411244 0.911526 -0
    outer loop
      vertex 20.0654 17.9842 0
      vertex 19.4747 18.2507 30
      vertex 20.0654 17.9842 30
    endloop
  endfacet
  facet normal 0.411244 0.911526 0
    outer loop
      vertex 19.4747 18.2507 30
      vertex 20.0654 17.9842 0
      vertex 19.4747 18.2507 0
    endloop
  endfacet
  facet normal -0.411499 -0.91141 0
    outer loop
      vertex 18.671 16.2028 0
      vertex 19.0617 16.0264 30
      vertex 18.671 16.2028 30
    endloop
  endfacet
  facet normal -0.411499 -0.91141 -0
    outer loop
      vertex 19.0617 16.0264 30
      vertex 18.671 16.2028 0
      vertex 19.0617 16.0264 0
    endloop
  endfacet
  facet normal 0.318542 0.947909 -0
    outer loop
      vertex 19.4747 18.2507 0
      vertex 18.8605 18.4571 30
      vertex 19.4747 18.2507 30
    endloop
  endfacet
  facet normal 0.318542 0.947909 0
    outer loop
      vertex 18.8605 18.4571 30
      vertex 19.4747 18.2507 0
      vertex 18.8605 18.4571 0
    endloop
  endfacet
  facet normal -0.318396 -0.947958 0
    outer loop
      vertex 18.2646 16.3393 0
      vertex 18.671 16.2028 30
      vertex 18.2646 16.3393 30
    endloop
  endfacet
  facet normal -0.318396 -0.947958 -0
    outer loop
      vertex 18.671 16.2028 30
      vertex 18.2646 16.3393 0
      vertex 18.671 16.2028 0
    endloop
  endfacet
  facet normal 0.222368 0.974963 -0
    outer loop
      vertex 18.8605 18.4571 0
      vertex 18.2287 18.6012 30
      vertex 18.8605 18.4571 30
    endloop
  endfacet
  facet normal 0.222368 0.974963 0
    outer loop
      vertex 18.2287 18.6012 30
      vertex 18.8605 18.4571 0
      vertex 18.2287 18.6012 0
    endloop
  endfacet
  facet normal -0.222559 -0.974919 0
    outer loop
      vertex 17.8467 16.4347 0
      vertex 18.2646 16.3393 30
      vertex 17.8467 16.4347 30
    endloop
  endfacet
  facet normal -0.222559 -0.974919 -0
    outer loop
      vertex 18.2646 16.3393 30
      vertex 17.8467 16.4347 0
      vertex 18.2646 16.3393 0
    endloop
  endfacet
  facet normal 0.124377 0.992235 -0
    outer loop
      vertex 18.2287 18.6012 0
      vertex 17.5857 18.6818 30
      vertex 18.2287 18.6012 30
    endloop
  endfacet
  facet normal 0.124377 0.992235 0
    outer loop
      vertex 17.5857 18.6818 30
      vertex 18.2287 18.6012 0
      vertex 17.5857 18.6818 0
    endloop
  endfacet
  facet normal -0.124322 -0.992242 0
    outer loop
      vertex 17.4213 16.488 0
      vertex 17.8467 16.4347 30
      vertex 17.4213 16.488 30
    endloop
  endfacet
  facet normal -0.124322 -0.992242 -0
    outer loop
      vertex 17.8467 16.4347 30
      vertex 17.4213 16.488 0
      vertex 17.8467 16.4347 0
    endloop
  endfacet
  facet normal 0.0250038 0.999687 -0
    outer loop
      vertex 17.5857 18.6818 0
      vertex 16.938 18.698 30
      vertex 17.5857 18.6818 30
    endloop
  endfacet
  facet normal 0.0250038 0.999687 0
    outer loop
      vertex 16.938 18.698 30
      vertex 17.5857 18.6818 0
      vertex 16.938 18.698 0
    endloop
  endfacet
  facet normal -0.024963 -0.999688 0
    outer loop
      vertex 16.9928 16.4987 0
      vertex 17.4213 16.488 30
      vertex 16.9928 16.4987 30
    endloop
  endfacet
  facet normal -0.024963 -0.999688 -0
    outer loop
      vertex 17.4213 16.488 30
      vertex 16.9928 16.4987 0
      vertex 17.4213 16.488 0
    endloop
  endfacet
  facet normal -0.0746902 0.997207 0
    outer loop
      vertex 16.938 18.698 0
      vertex 16.2918 18.6496 30
      vertex 16.938 18.698 30
    endloop
  endfacet
  facet normal -0.0746902 0.997207 0
    outer loop
      vertex 16.2918 18.6496 30
      vertex 16.938 18.698 0
      vertex 16.2918 18.6496 0
    endloop
  endfacet
  facet normal 0.0748769 -0.997193 0
    outer loop
      vertex 16.5653 16.4666 0
      vertex 16.9928 16.4987 30
      vertex 16.5653 16.4666 30
    endloop
  endfacet
  facet normal 0.0748769 -0.997193 0
    outer loop
      vertex 16.9928 16.4987 30
      vertex 16.5653 16.4666 0
      vertex 16.9928 16.4987 0
    endloop
  endfacet
  facet normal -0.17375 0.98479 0
    outer loop
      vertex 16.2918 18.6496 0
      vertex 15.6536 18.537 30
      vertex 16.2918 18.6496 30
    endloop
  endfacet
  facet normal -0.17375 0.98479 0
    outer loop
      vertex 15.6536 18.537 30
      vertex 16.2918 18.6496 0
      vertex 15.6536 18.537 0
    endloop
  endfacet
  facet normal 0.173586 -0.984819 0
    outer loop
      vertex 16.1432 16.3922 0
      vertex 16.5653 16.4666 30
      vertex 16.1432 16.3922 30
    endloop
  endfacet
  facet normal 0.173586 -0.984819 0
    outer loop
      vertex 16.5653 16.4666 30
      vertex 16.1432 16.3922 0
      vertex 16.5653 16.4666 0
    endloop
  endfacet
  facet normal -0.270826 0.962628 0
    outer loop
      vertex 15.6536 18.537 0
      vertex 15.0298 18.3615 30
      vertex 15.6536 18.537 30
    endloop
  endfacet
  facet normal -0.270826 0.962628 0
    outer loop
      vertex 15.0298 18.3615 30
      vertex 15.6536 18.537 0
      vertex 15.0298 18.3615 0
    endloop
  endfacet
  facet normal 0.270806 -0.962634 0
    outer loop
      vertex 15.7305 16.2761 0
      vertex 16.1432 16.3922 30
      vertex 15.7305 16.2761 30
    endloop
  endfacet
  facet normal 0.270806 -0.962634 0
    outer loop
      vertex 16.1432 16.3922 30
      vertex 15.7305 16.2761 0
      vertex 16.1432 16.3922 0
    endloop
  endfacet
  facet normal -0.365289 0.930894 0
    outer loop
      vertex 15.0298 18.3615 0
      vertex 14.4266 18.1248 30
      vertex 15.0298 18.3615 30
    endloop
  endfacet
  facet normal -0.365289 0.930894 0
    outer loop
      vertex 14.4266 18.1248 30
      vertex 15.0298 18.3615 0
      vertex 14.4266 18.1248 0
    endloop
  endfacet
  facet normal 0.365349 -0.930871 0
    outer loop
      vertex 15.3315 16.1195 0
      vertex 15.7305 16.2761 30
      vertex 15.3315 16.1195 30
    endloop
  endfacet
  facet normal 0.365349 -0.930871 0
    outer loop
      vertex 15.7305 16.2761 30
      vertex 15.3315 16.1195 0
      vertex 15.7305 16.2761 0
    endloop
  endfacet
  facet normal -0.456204 0.889875 0
    outer loop
      vertex 14.4266 18.1248 0
      vertex 13.85 17.8292 30
      vertex 14.4266 18.1248 30
    endloop
  endfacet
  facet normal -0.456204 0.889875 0
    outer loop
      vertex 13.85 17.8292 30
      vertex 14.4266 18.1248 0
      vertex 13.85 17.8292 0
    endloop
  endfacet
  facet normal 0.456241 -0.889856 0
    outer loop
      vertex 14.95 15.9239 0
      vertex 15.3315 16.1195 30
      vertex 14.95 15.9239 30
    endloop
  endfacet
  facet normal 0.456241 -0.889856 0
    outer loop
      vertex 15.3315 16.1195 30
      vertex 14.95 15.9239 0
      vertex 15.3315 16.1195 0
    endloop
  endfacet
  facet normal 1 -0 0
    outer loop
      vertex 4.7 -6.9 30
      vertex 4.7 -4.7 0
      vertex 4.7 -4.7 30
    endloop
  endfacet
  facet normal 1 0 0
    outer loop
      vertex 4.7 -4.7 0
      vertex 4.7 -6.9 30
      vertex 4.7 -6.9 0
    endloop
  endfacet
  facet normal -0.0490743 0.998795 0
    outer loop
      vertex 4.7 6.9 0
      vertex 4.02368 6.86677 30
      vertex 4.7 6.9 30
    endloop
  endfacet
  facet normal -0.0490743 0.998795 0
    outer loop
      vertex 4.02368 6.86677 30
      vertex 4.7 6.9 0
      vertex 4.02368 6.86677 0
    endloop
  endfacet
  facet normal 0.0490639 -0.998796 0
    outer loop
      vertex 4.23932 4.67737 0
      vertex 4.7 4.7 30
      vertex 4.23932 4.67737 30
    endloop
  endfacet
  facet normal 0.0490639 -0.998796 0
    outer loop
      vertex 4.7 4.7 30
      vertex 4.23932 4.67737 0
      vertex 4.7 4.7 0
    endloop
  endfacet
  facet normal -0.146723 0.989178 0
    outer loop
      vertex 4.02368 6.86677 0
      vertex 3.35388 6.76742 30
      vertex 4.02368 6.86677 30
    endloop
  endfacet
  facet normal -0.146723 0.989178 0
    outer loop
      vertex 3.35388 6.76742 30
      vertex 4.02368 6.86677 0
      vertex 3.35388 6.76742 0
    endloop
  endfacet
  facet normal 0.146737 -0.989176 0
    outer loop
      vertex 3.78308 4.60969 0
      vertex 4.23932 4.67737 30
      vertex 3.78308 4.60969 30
    endloop
  endfacet
  facet normal 0.146737 -0.989176 0
    outer loop
      vertex 4.23932 4.67737 30
      vertex 3.78308 4.60969 0
      vertex 4.23932 4.67737 0
    endloop
  endfacet
  facet normal -0.24298 0.970031 0
    outer loop
      vertex 3.35388 6.76742 0
      vertex 2.69704 6.60289 30
      vertex 3.35388 6.76742 30
    endloop
  endfacet
  facet normal -0.24298 0.970031 0
    outer loop
      vertex 2.69704 6.60289 30
      vertex 3.35388 6.76742 0
      vertex 2.69704 6.60289 0
    endloop
  endfacet
  facet normal 0.242974 -0.970033 0
    outer loop
      vertex 3.33566 4.49762 0
      vertex 3.78308 4.60969 30
      vertex 3.33566 4.49762 30
    endloop
  endfacet
  facet normal 0.242974 -0.970033 0
    outer loop
      vertex 3.78308 4.60969 30
      vertex 3.33566 4.49762 0
      vertex 3.78308 4.60969 0
    endloop
  endfacet
  facet normal -0.336886 0.941545 0
    outer loop
      vertex 2.69704 6.60289 0
      vertex 2.05948 6.37477 30
      vertex 2.69704 6.60289 30
    endloop
  endfacet
  facet normal -0.336886 0.941545 0
    outer loop
      vertex 2.05948 6.37477 30
      vertex 2.69704 6.60289 0
      vertex 2.05948 6.37477 0
    endloop
  endfacet
  facet normal 0.336901 -0.94154 0
    outer loop
      vertex 2.90139 4.34223 0
      vertex 3.33566 4.49762 30
      vertex 2.90139 4.34223 30
    endloop
  endfacet
  facet normal 0.336901 -0.94154 0
    outer loop
      vertex 3.33566 4.49762 30
      vertex 2.90139 4.34223 0
      vertex 3.33566 4.49762 0
    endloop
  endfacet
  facet normal -0.427554 0.90399 0
    outer loop
      vertex 2.05948 6.37477 0
      vertex 1.44736 6.08526 30
      vertex 2.05948 6.37477 30
    endloop
  endfacet
  facet normal -0.427554 0.90399 0
    outer loop
      vertex 1.44736 6.08526 30
      vertex 2.05948 6.37477 0
      vertex 1.44736 6.08526 0
    endloop
  endfacet
  facet normal 0.42755 -0.903992 0
    outer loop
      vertex 2.48444 4.14503 0
      vertex 2.90139 4.34223 30
      vertex 2.48444 4.14503 30
    endloop
  endfacet
  facet normal 0.42755 -0.903992 0
    outer loop
      vertex 2.90139 4.34223 30
      vertex 2.48444 4.14503 0
      vertex 2.90139 4.34223 0
    endloop
  endfacet
  facet normal -0.514109 0.857725 0
    outer loop
      vertex 1.44736 6.08526 0
      vertex 0.866566 5.73714 30
      vertex 1.44736 6.08526 30
    endloop
  endfacet
  facet normal -0.514109 0.857725 0
    outer loop
      vertex 0.866566 5.73714 30
      vertex 1.44736 6.08526 0
      vertex 0.866566 5.73714 0
    endloop
  endfacet
  facet normal 0.514094 -0.857734 0
    outer loop
      vertex 2.08882 3.90791 0
      vertex 2.48444 4.14503 30
      vertex 2.08882 3.90791 30
    endloop
  endfacet
  facet normal 0.514094 -0.857734 0
    outer loop
      vertex 2.48444 4.14503 30
      vertex 2.08882 3.90791 0
      vertex 2.48444 4.14503 0
    endloop
  endfacet
  facet normal -0.5957 0.803207 0
    outer loop
      vertex 0.866566 5.73714 0
      vertex 0.322686 5.33377 30
      vertex 0.866566 5.73714 30
    endloop
  endfacet
  facet normal -0.5957 0.803207 0
    outer loop
      vertex 0.322686 5.33377 30
      vertex 0.866566 5.73714 0
      vertex 0.322686 5.33377 0
    endloop
  endfacet
  facet normal 0.5957 -0.803207 0
    outer loop
      vertex 1.71835 3.63315 0
      vertex 2.08882 3.90791 30
      vertex 1.71835 3.63315 30
    endloop
  endfacet
  facet normal 0.5957 -0.803207 0
    outer loop
      vertex 2.08882 3.90791 30
      vertex 1.71835 3.63315 0
      vertex 2.08882 3.90791 0
    endloop
  endfacet
  facet normal -0.671555 0.740955 0
    outer loop
      vertex 0.322686 5.33377 0
      vertex -0.179037 4.87904 30
      vertex 0.322686 5.33377 30
    endloop
  endfacet
  facet normal -0.671555 0.740955 0
    outer loop
      vertex -0.179037 4.87904 30
      vertex 0.322686 5.33377 0
      vertex -0.179037 4.87904 0
    endloop
  endfacet
  facet normal 0.671566 -0.740945 0
    outer loop
      vertex 1.3766 3.3234 0
      vertex 1.71835 3.63315 30
      vertex 1.3766 3.3234 30
    endloop
  endfacet
  facet normal 0.671566 -0.740945 0
    outer loop
      vertex 1.71835 3.63315 30
      vertex 1.3766 3.3234 0
      vertex 1.71835 3.63315 0
    endloop
  endfacet
  facet normal -0.740956 0.671554 0
    outer loop
      vertex -0.633772 4.37731 0
      vertex -0.179037 4.87904 30
      vertex -0.179037 4.87904 0
    endloop
  endfacet
  facet normal -0.740956 0.671554 0
    outer loop
      vertex -0.179037 4.87904 30
      vertex -0.633772 4.37731 0
      vertex -0.633772 4.37731 30
    endloop
  endfacet
  facet normal 0.740945 -0.671566 0
    outer loop
      vertex 1.06685 2.98165 30
      vertex 1.3766 3.3234 0
      vertex 1.3766 3.3234 30
    endloop
  endfacet
  facet normal 0.740945 -0.671566 0
    outer loop
      vertex 1.3766 3.3234 0
      vertex 1.06685 2.98165 30
      vertex 1.06685 2.98165 0
    endloop
  endfacet
  facet normal -0.803208 0.595698 0
    outer loop
      vertex -1.03714 3.83343 0
      vertex -0.633772 4.37731 30
      vertex -0.633772 4.37731 0
    endloop
  endfacet
  facet normal -0.803208 0.595698 0
    outer loop
      vertex -0.633772 4.37731 30
      vertex -1.03714 3.83343 0
      vertex -1.03714 3.83343 30
    endloop
  endfacet
  facet normal 0.80321 -0.595696 0
    outer loop
      vertex 0.792093 2.61118 30
      vertex 1.06685 2.98165 0
      vertex 1.06685 2.98165 30
    endloop
  endfacet
  facet normal 0.80321 -0.595696 0
    outer loop
      vertex 1.06685 2.98165 0
      vertex 0.792093 2.61118 30
      vertex 0.792093 2.61118 0
    endloop
  endfacet
  facet normal -0.857723 0.514111 0
    outer loop
      vertex -1.38526 3.25264 0
      vertex -1.03714 3.83343 30
      vertex -1.03714 3.83343 0
    endloop
  endfacet
  facet normal -0.857723 0.514111 0
    outer loop
      vertex -1.03714 3.83343 30
      vertex -1.38526 3.25264 0
      vertex -1.38526 3.25264 30
    endloop
  endfacet
  facet normal 0.857731 -0.514099 0
    outer loop
      vertex 0.55497 2.21556 30
      vertex 0.792093 2.61118 0
      vertex 0.792093 2.61118 30
    endloop
  endfacet
  facet normal 0.857731 -0.514099 0
    outer loop
      vertex 0.792093 2.61118 0
      vertex 0.55497 2.21556 30
      vertex 0.55497 2.21556 0
    endloop
  endfacet
  facet normal -0.90399 0.427554 0
    outer loop
      vertex -1.67477 2.64052 0
      vertex -1.38526 3.25264 30
      vertex -1.38526 3.25264 0
    endloop
  endfacet
  facet normal -0.90399 0.427554 0
    outer loop
      vertex -1.38526 3.25264 30
      vertex -1.67477 2.64052 0
      vertex -1.67477 2.64052 30
    endloop
  endfacet
  facet normal 0.903988 -0.427557 0
    outer loop
      vertex 0.357766 1.79861 30
      vertex 0.55497 2.21556 0
      vertex 0.55497 2.21556 30
    endloop
  endfacet
  facet normal 0.903988 -0.427557 0
    outer loop
      vertex 0.55497 2.21556 0
      vertex 0.357766 1.79861 30
      vertex 0.357766 1.79861 0
    endloop
  endfacet
  facet normal -0.941545 0.336886 0
    outer loop
      vertex -1.90289 2.00296 0
      vertex -1.67477 2.64052 30
      vertex -1.67477 2.64052 0
    endloop
  endfacet
  facet normal -0.941545 0.336886 0
    outer loop
      vertex -1.67477 2.64052 30
      vertex -1.90289 2.00296 0
      vertex -1.90289 2.00296 30
    endloop
  endfacet
  facet normal 0.941543 -0.336893 0
    outer loop
      vertex 0.20238 1.36434 30
      vertex 0.357766 1.79861 0
      vertex 0.357766 1.79861 30
    endloop
  endfacet
  facet normal 0.941543 -0.336893 0
    outer loop
      vertex 0.357766 1.79861 0
      vertex 0.20238 1.36434 30
      vertex 0.20238 1.36434 0
    endloop
  endfacet
  facet normal -0.970031 0.24298 0
    outer loop
      vertex -2.06742 1.34612 0
      vertex -1.90289 2.00296 30
      vertex -1.90289 2.00296 0
    endloop
  endfacet
  facet normal -0.970031 0.24298 0
    outer loop
      vertex -1.90289 2.00296 30
      vertex -2.06742 1.34612 0
      vertex -2.06742 1.34612 30
    endloop
  endfacet
  facet normal 0.970032 -0.242978 0
    outer loop
      vertex 0.0903093 0.916924 30
      vertex 0.20238 1.36434 0
      vertex 0.20238 1.36434 30
    endloop
  endfacet
  facet normal 0.970032 -0.242978 0
    outer loop
      vertex 0.20238 1.36434 0
      vertex 0.0903093 0.916924 30
      vertex 0.0903093 0.916924 0
    endloop
  endfacet
  facet normal -0.989178 0.146722 0
    outer loop
      vertex -2.16677 0.676318 0
      vertex -2.06742 1.34612 30
      vertex -2.06742 1.34612 0
    endloop
  endfacet
  facet normal -0.989178 0.146722 0
    outer loop
      vertex -2.06742 1.34612 30
      vertex -2.16677 0.676318 0
      vertex -2.16677 0.676318 30
    endloop
  endfacet
  facet normal 0.989176 -0.146731 0
    outer loop
      vertex 0.0226318 0.46068 30
      vertex 0.0903093 0.916924 0
      vertex 0.0903093 0.916924 30
    endloop
  endfacet
  facet normal 0.989176 -0.146731 0
    outer loop
      vertex 0.0903093 0.916924 0
      vertex 0.0226318 0.46068 30
      vertex 0.0226318 0.46068 0
    endloop
  endfacet
  facet normal -0.998795 0.0490745 0
    outer loop
      vertex -2.2 0 0
      vertex -2.16677 0.676318 30
      vertex -2.16677 0.676318 0
    endloop
  endfacet
  facet normal -0.998795 0.0490745 0
    outer loop
      vertex -2.16677 0.676318 30
      vertex -2.2 0 0
      vertex -2.2 0 30
    endloop
  endfacet
  facet normal 0.998795 -0.0490674 0
    outer loop
      vertex 1.90735e-07 0 30
      vertex 0.0226318 0.46068 0
      vertex 0.0226318 0.46068 30
    endloop
  endfacet
  facet normal 0.998795 -0.0490674 0
    outer loop
      vertex 0.0226318 0.46068 0
      vertex 1.90735e-07 0 30
      vertex 1.90735e-07 0 0
    endloop
  endfacet
  facet normal -0.998795 -0.0490745 0
    outer loop
      vertex -2.16677 -0.676318 0
      vertex -2.2 0 30
      vertex -2.2 0 0
    endloop
  endfacet
  facet normal -0.998795 -0.0490745 0
    outer loop
      vertex -2.2 0 30
      vertex -2.16677 -0.676318 0
      vertex -2.16677 -0.676318 30
    endloop
  endfacet
  facet normal 0.998795 0.0490674 0
    outer loop
      vertex 0.0226318 -0.46068 30
      vertex 1.90735e-07 0 0
      vertex 1.90735e-07 0 30
    endloop
  endfacet
  facet normal 0.998795 0.0490674 0
    outer loop
      vertex 1.90735e-07 0 0
      vertex 0.0226318 -0.46068 30
      vertex 0.0226318 -0.46068 0
    endloop
  endfacet
  facet normal -0.989178 -0.146722 0
    outer loop
      vertex -2.06742 -1.34612 0
      vertex -2.16677 -0.676318 30
      vertex -2.16677 -0.676318 0
    endloop
  endfacet
  facet normal -0.989178 -0.146722 0
    outer loop
      vertex -2.16677 -0.676318 30
      vertex -2.06742 -1.34612 0
      vertex -2.06742 -1.34612 30
    endloop
  endfacet
  facet normal 0.989176 0.146731 0
    outer loop
      vertex 0.0903093 -0.916924 30
      vertex 0.0226318 -0.46068 0
      vertex 0.0226318 -0.46068 30
    endloop
  endfacet
  facet normal 0.989176 0.146731 0
    outer loop
      vertex 0.0226318 -0.46068 0
      vertex 0.0903093 -0.916924 30
      vertex 0.0903093 -0.916924 0
    endloop
  endfacet
  facet normal -0.970031 -0.24298 0
    outer loop
      vertex -1.90289 -2.00296 0
      vertex -2.06742 -1.34612 30
      vertex -2.06742 -1.34612 0
    endloop
  endfacet
  facet normal -0.970031 -0.24298 0
    outer loop
      vertex -2.06742 -1.34612 30
      vertex -1.90289 -2.00296 0
      vertex -1.90289 -2.00296 30
    endloop
  endfacet
  facet normal 0.970032 0.242978 0
    outer loop
      vertex 0.20238 -1.36434 30
      vertex 0.0903093 -0.916924 0
      vertex 0.0903093 -0.916924 30
    endloop
  endfacet
  facet normal 0.970032 0.242978 0
    outer loop
      vertex 0.0903093 -0.916924 0
      vertex 0.20238 -1.36434 30
      vertex 0.20238 -1.36434 0
    endloop
  endfacet
  facet normal -0.941545 -0.336886 0
    outer loop
      vertex -1.67477 -2.64052 0
      vertex -1.90289 -2.00296 30
      vertex -1.90289 -2.00296 0
    endloop
  endfacet
  facet normal -0.941545 -0.336886 0
    outer loop
      vertex -1.90289 -2.00296 30
      vertex -1.67477 -2.64052 0
      vertex -1.67477 -2.64052 30
    endloop
  endfacet
  facet normal 0.941543 0.336893 0
    outer loop
      vertex 0.357766 -1.79861 30
      vertex 0.20238 -1.36434 0
      vertex 0.20238 -1.36434 30
    endloop
  endfacet
  facet normal 0.941543 0.336893 0
    outer loop
      vertex 0.20238 -1.36434 0
      vertex 0.357766 -1.79861 30
      vertex 0.357766 -1.79861 0
    endloop
  endfacet
  facet normal -0.90399 -0.427554 0
    outer loop
      vertex -1.38526 -3.25264 0
      vertex -1.67477 -2.64052 30
      vertex -1.67477 -2.64052 0
    endloop
  endfacet
  facet normal -0.90399 -0.427554 0
    outer loop
      vertex -1.67477 -2.64052 30
      vertex -1.38526 -3.25264 0
      vertex -1.38526 -3.25264 30
    endloop
  endfacet
  facet normal 0.903988 0.427557 0
    outer loop
      vertex 0.55497 -2.21556 30
      vertex 0.357766 -1.79861 0
      vertex 0.357766 -1.79861 30
    endloop
  endfacet
  facet normal 0.903988 0.427557 0
    outer loop
      vertex 0.357766 -1.79861 0
      vertex 0.55497 -2.21556 30
      vertex 0.55497 -2.21556 0
    endloop
  endfacet
  facet normal -0.857723 -0.514111 0
    outer loop
      vertex -1.03714 -3.83343 0
      vertex -1.38526 -3.25264 30
      vertex -1.38526 -3.25264 0
    endloop
  endfacet
  facet normal -0.857723 -0.514111 0
    outer loop
      vertex -1.38526 -3.25264 30
      vertex -1.03714 -3.83343 0
      vertex -1.03714 -3.83343 30
    endloop
  endfacet
  facet normal 0.857731 0.514099 0
    outer loop
      vertex 0.792093 -2.61118 30
      vertex 0.55497 -2.21556 0
      vertex 0.55497 -2.21556 30
    endloop
  endfacet
  facet normal 0.857731 0.514099 0
    outer loop
      vertex 0.55497 -2.21556 0
      vertex 0.792093 -2.61118 30
      vertex 0.792093 -2.61118 0
    endloop
  endfacet
  facet normal -0.803208 -0.595698 0
    outer loop
      vertex -0.633772 -4.37731 0
      vertex -1.03714 -3.83343 30
      vertex -1.03714 -3.83343 0
    endloop
  endfacet
  facet normal -0.803208 -0.595698 0
    outer loop
      vertex -1.03714 -3.83343 30
      vertex -0.633772 -4.37731 0
      vertex -0.633772 -4.37731 30
    endloop
  endfacet
  facet normal 0.80321 0.595696 0
    outer loop
      vertex 1.06685 -2.98165 30
      vertex 0.792093 -2.61118 0
      vertex 0.792093 -2.61118 30
    endloop
  endfacet
  facet normal 0.80321 0.595696 0
    outer loop
      vertex 0.792093 -2.61118 0
      vertex 1.06685 -2.98165 30
      vertex 1.06685 -2.98165 0
    endloop
  endfacet
  facet normal -0.740956 -0.671554 0
    outer loop
      vertex -0.179037 -4.87904 0
      vertex -0.633772 -4.37731 30
      vertex -0.633772 -4.37731 0
    endloop
  endfacet
  facet normal -0.740956 -0.671554 0
    outer loop
      vertex -0.633772 -4.37731 30
      vertex -0.179037 -4.87904 0
      vertex -0.179037 -4.87904 30
    endloop
  endfacet
  facet normal 0.740945 0.671566 0
    outer loop
      vertex 1.3766 -3.3234 30
      vertex 1.06685 -2.98165 0
      vertex 1.06685 -2.98165 30
    endloop
  endfacet
  facet normal 0.740945 0.671566 0
    outer loop
      vertex 1.06685 -2.98165 0
      vertex 1.3766 -3.3234 30
      vertex 1.3766 -3.3234 0
    endloop
  endfacet
  facet normal -0.671555 -0.740955 0
    outer loop
      vertex -0.179037 -4.87904 0
      vertex 0.322686 -5.33377 30
      vertex -0.179037 -4.87904 30
    endloop
  endfacet
  facet normal -0.671555 -0.740955 -0
    outer loop
      vertex 0.322686 -5.33377 30
      vertex -0.179037 -4.87904 0
      vertex 0.322686 -5.33377 0
    endloop
  endfacet
  facet normal 0.671566 0.740945 -0
    outer loop
      vertex 1.71835 -3.63315 0
      vertex 1.3766 -3.3234 30
      vertex 1.71835 -3.63315 30
    endloop
  endfacet
  facet normal 0.671566 0.740945 0
    outer loop
      vertex 1.3766 -3.3234 30
      vertex 1.71835 -3.63315 0
      vertex 1.3766 -3.3234 0
    endloop
  endfacet
  facet normal -0.5957 -0.803207 0
    outer loop
      vertex 0.322686 -5.33377 0
      vertex 0.866566 -5.73714 30
      vertex 0.322686 -5.33377 30
    endloop
  endfacet
  facet normal -0.5957 -0.803207 -0
    outer loop
      vertex 0.866566 -5.73714 30
      vertex 0.322686 -5.33377 0
      vertex 0.866566 -5.73714 0
    endloop
  endfacet
  facet normal 0.5957 0.803207 -0
    outer loop
      vertex 2.08882 -3.90791 0
      vertex 1.71835 -3.63315 30
      vertex 2.08882 -3.90791 30
    endloop
  endfacet
  facet normal 0.5957 0.803207 0
    outer loop
      vertex 1.71835 -3.63315 30
      vertex 2.08882 -3.90791 0
      vertex 1.71835 -3.63315 0
    endloop
  endfacet
  facet normal -0.514109 -0.857725 0
    outer loop
      vertex 0.866566 -5.73714 0
      vertex 1.44736 -6.08526 30
      vertex 0.866566 -5.73714 30
    endloop
  endfacet
  facet normal -0.514109 -0.857725 -0
    outer loop
      vertex 1.44736 -6.08526 30
      vertex 0.866566 -5.73714 0
      vertex 1.44736 -6.08526 0
    endloop
  endfacet
  facet normal 0.514094 0.857734 -0
    outer loop
      vertex 2.48444 -4.14503 0
      vertex 2.08882 -3.90791 30
      vertex 2.48444 -4.14503 30
    endloop
  endfacet
  facet normal 0.514094 0.857734 0
    outer loop
      vertex 2.08882 -3.90791 30
      vertex 2.48444 -4.14503 0
      vertex 2.08882 -3.90791 0
    endloop
  endfacet
  facet normal -0.427554 -0.90399 0
    outer loop
      vertex 1.44736 -6.08526 0
      vertex 2.05948 -6.37477 30
      vertex 1.44736 -6.08526 30
    endloop
  endfacet
  facet normal -0.427554 -0.90399 -0
    outer loop
      vertex 2.05948 -6.37477 30
      vertex 1.44736 -6.08526 0
      vertex 2.05948 -6.37477 0
    endloop
  endfacet
  facet normal 0.42755 0.903992 -0
    outer loop
      vertex 2.90139 -4.34223 0
      vertex 2.48444 -4.14503 30
      vertex 2.90139 -4.34223 30
    endloop
  endfacet
  facet normal 0.42755 0.903992 0
    outer loop
      vertex 2.48444 -4.14503 30
      vertex 2.90139 -4.34223 0
      vertex 2.48444 -4.14503 0
    endloop
  endfacet
  facet normal -0.336886 -0.941545 0
    outer loop
      vertex 2.05948 -6.37477 0
      vertex 2.69704 -6.60289 30
      vertex 2.05948 -6.37477 30
    endloop
  endfacet
  facet normal -0.336886 -0.941545 -0
    outer loop
      vertex 2.69704 -6.60289 30
      vertex 2.05948 -6.37477 0
      vertex 2.69704 -6.60289 0
    endloop
  endfacet
  facet normal 0.336901 0.94154 -0
    outer loop
      vertex 3.33566 -4.49762 0
      vertex 2.90139 -4.34223 30
      vertex 3.33566 -4.49762 30
    endloop
  endfacet
  facet normal 0.336901 0.94154 0
    outer loop
      vertex 2.90139 -4.34223 30
      vertex 3.33566 -4.49762 0
      vertex 2.90139 -4.34223 0
    endloop
  endfacet
  facet normal -0.24298 -0.970031 0
    outer loop
      vertex 2.69704 -6.60289 0
      vertex 3.35388 -6.76742 30
      vertex 2.69704 -6.60289 30
    endloop
  endfacet
  facet normal -0.24298 -0.970031 -0
    outer loop
      vertex 3.35388 -6.76742 30
      vertex 2.69704 -6.60289 0
      vertex 3.35388 -6.76742 0
    endloop
  endfacet
  facet normal 0.242974 0.970033 -0
    outer loop
      vertex 3.78308 -4.60969 0
      vertex 3.33566 -4.49762 30
      vertex 3.78308 -4.60969 30
    endloop
  endfacet
  facet normal 0.242974 0.970033 0
    outer loop
      vertex 3.33566 -4.49762 30
      vertex 3.78308 -4.60969 0
      vertex 3.33566 -4.49762 0
    endloop
  endfacet
  facet normal -0.146723 -0.989178 0
    outer loop
      vertex 3.35388 -6.76742 0
      vertex 4.02368 -6.86677 30
      vertex 3.35388 -6.76742 30
    endloop
  endfacet
  facet normal -0.146723 -0.989178 -0
    outer loop
      vertex 4.02368 -6.86677 30
      vertex 3.35388 -6.76742 0
      vertex 4.02368 -6.86677 0
    endloop
  endfacet
  facet normal 0.146737 0.989176 -0
    outer loop
      vertex 4.23932 -4.67737 0
      vertex 3.78308 -4.60969 30
      vertex 4.23932 -4.67737 30
    endloop
  endfacet
  facet normal 0.146737 0.989176 0
    outer loop
      vertex 3.78308 -4.60969 30
      vertex 4.23932 -4.67737 0
      vertex 3.78308 -4.60969 0
    endloop
  endfacet
  facet normal -0.0490743 -0.998795 0
    outer loop
      vertex 4.02368 -6.86677 0
      vertex 4.7 -6.9 30
      vertex 4.02368 -6.86677 30
    endloop
  endfacet
  facet normal -0.0490743 -0.998795 -0
    outer loop
      vertex 4.7 -6.9 30
      vertex 4.02368 -6.86677 0
      vertex 4.7 -6.9 0
    endloop
  endfacet
  facet normal 0.0490639 0.998796 -0
    outer loop
      vertex 4.7 -4.7 0
      vertex 4.23932 -4.67737 30
      vertex 4.7 -4.7 30
    endloop
  endfacet
  facet normal 0.0490639 0.998796 0
    outer loop
      vertex 4.23932 -4.67737 30
      vertex 4.7 -4.7 0
      vertex 4.23932 -4.67737 0
    endloop
  endfacet
  facet normal 0 1 -0
    outer loop
      vertex 17.1 6.9 0
      vertex 4.7 6.9 30
      vertex 17.1 6.9 30
    endloop
  endfacet
  facet normal 0 1 0
    outer loop
      vertex 4.7 6.9 30
      vertex 17.1 6.9 0
      vertex 4.7 6.9 0
    endloop
  endfacet
  facet normal 0 -1 0
    outer loop
      vertex 4.7 4.7 0
      vertex 17.1 4.7 30
      vertex 4.7 4.7 30
    endloop
  endfacet
  facet normal 0 -1 -0
    outer loop
      vertex 17.1 4.7 30
      vertex 4.7 4.7 0
      vertex 17.1 4.7 0
    endloop
  endfacet
  facet normal -0.642786 -0.766045 0
    outer loop
      vertex 20.394 -2.36399 0
      vertex 22.0793 -3.77812 30
      vertex 20.394 -2.36399 30
    endloop
  endfacet
  facet normal -0.642786 -0.766045 -0
    outer loop
      vertex 22.0793 -3.77812 30
      vertex 20.394 -2.36399 0
      vertex 22.0793 -3.77812 0
    endloop
  endfacet
  facet normal 0.796799 -0.604245 0
    outer loop
      vertex 22.0793 -3.77812 30
      vertex 22.4666 -3.2674 0
      vertex 22.4666 -3.2674 30
    endloop
  endfacet
  facet normal 0.796799 -0.604245 0
    outer loop
      vertex 22.4666 -3.2674 0
      vertex 22.0793 -3.77812 30
      vertex 22.0793 -3.77812 0
    endloop
  endfacet
  facet normal -0.796813 0.604225 0
    outer loop
      vertex 20.394 -2.36399 0
      vertex 20.6502 -2.02613 30
      vertex 20.6502 -2.02613 0
    endloop
  endfacet
  facet normal -0.796813 0.604225 0
    outer loop
      vertex 20.6502 -2.02613 30
      vertex 20.394 -2.36399 0
      vertex 20.394 -2.36399 30
    endloop
  endfacet
  facet normal 0.852447 -0.522814 0
    outer loop
      vertex 22.4666 -3.2674 30
      vertex 22.8017 -2.72102 0
      vertex 22.8017 -2.72102 30
    endloop
  endfacet
  facet normal 0.852447 -0.522814 0
    outer loop
      vertex 22.8017 -2.72102 0
      vertex 22.4666 -3.2674 30
      vertex 22.4666 -3.2674 0
    endloop
  endfacet
  facet normal -0.852433 0.522836 0
    outer loop
      vertex 20.6502 -2.02613 0
      vertex 20.8719 -1.66467 30
      vertex 20.8719 -1.66467 0
    endloop
  endfacet
  facet normal -0.852433 0.522836 0
    outer loop
      vertex 20.8719 -1.66467 30
      vertex 20.6502 -2.02613 0
      vertex 20.6502 -2.02613 30
    endloop
  endfacet
  facet normal 0.899769 -0.436366 0
    outer loop
      vertex 22.8017 -2.72102 30
      vertex 23.0814 -2.14429 0
      vertex 23.0814 -2.14429 30
    endloop
  endfacet
  facet normal 0.899769 -0.436366 0
    outer loop
      vertex 23.0814 -2.14429 0
      vertex 22.8017 -2.72102 30
      vertex 22.8017 -2.72102 0
    endloop
  endfacet
  facet normal -0.899795 0.436313 0
    outer loop
      vertex 20.8719 -1.66467 0
      vertex 21.0569 -1.28315 30
      vertex 21.0569 -1.28315 0
    endloop
  endfacet
  facet normal -0.899795 0.436313 0
    outer loop
      vertex 21.0569 -1.28315 30
      vertex 20.8719 -1.66467 0
      vertex 20.8719 -1.66467 30
    endloop
  endfacet
  facet normal 0.938391 -0.345576 0
    outer loop
      vertex 23.0814 -2.14429 30
      vertex 23.3029 -1.54282 0
      vertex 23.3029 -1.54282 30
    endloop
  endfacet
  facet normal 0.938391 -0.345576 0
    outer loop
      vertex 23.3029 -1.54282 0
      vertex 23.0814 -2.14429 30
      vertex 23.0814 -2.14429 0
    endloop
  endfacet
  facet normal -0.938415 0.34551 0
    outer loop
      vertex 21.0569 -1.28315 0
      vertex 21.2034 -0.885252 30
      vertex 21.2034 -0.885252 0
    endloop
  endfacet
  facet normal -0.938415 0.34551 0
    outer loop
      vertex 21.2034 -0.885252 30
      vertex 21.0569 -1.28315 0
      vertex 21.0569 -1.28315 30
    endloop
  endfacet
  facet normal 0.967896 -0.251352 0
    outer loop
      vertex 23.3029 -1.54282 30
      vertex 23.464 -0.922463 0
      vertex 23.464 -0.922463 30
    endloop
  endfacet
  facet normal 0.967896 -0.251352 0
    outer loop
      vertex 23.464 -0.922463 0
      vertex 23.3029 -1.54282 30
      vertex 23.3029 -1.54282 0
    endloop
  endfacet
  facet normal -0.967824 0.25163 0
    outer loop
      vertex 21.2034 -0.885252 0
      vertex 21.3101 -0.47486 30
      vertex 21.3101 -0.47486 0
    endloop
  endfacet
  facet normal -0.967824 0.25163 0
    outer loop
      vertex 21.3101 -0.47486 30
      vertex 21.2034 -0.885252 0
      vertex 21.2034 -0.885252 30
    endloop
  endfacet
  facet normal 0.987902 -0.155077 0
    outer loop
      vertex 23.464 -0.922463 30
      vertex 23.5634 -0.289245 0
      vertex 23.5634 -0.289245 30
    endloop
  endfacet
  facet normal 0.987902 -0.155077 0
    outer loop
      vertex 23.5634 -0.289245 0
      vertex 23.464 -0.922463 30
      vertex 23.464 -0.922463 0
    endloop
  endfacet
  facet normal -0.987923 0.154946 0
    outer loop
      vertex 21.3101 -0.47486 0
      vertex 21.3758 -0.0559616 30
      vertex 21.3758 -0.0559616 0
    endloop
  endfacet
  facet normal -0.987923 0.154946 0
    outer loop
      vertex 21.3758 -0.0559616 30
      vertex 21.3101 -0.47486 0
      vertex 21.3101 -0.47486 30
    endloop
  endfacet
  facet normal 0.998396 -0.0566084 0
    outer loop
      vertex 23.5634 -0.289245 30
      vertex 23.5798 0 0
      vertex 23.5798 0 30
    endloop
  endfacet
  facet normal 0.998396 -0.0566084 0
    outer loop
      vertex 23.5798 0 0
      vertex 23.5634 -0.289245 30
      vertex 23.5634 -0.289245 0
    endloop
  endfacet
  facet normal -0.998383 0.0568373 0
    outer loop
      vertex 21.3758 -0.0559616 0
      vertex 21.3999 0.36737 30
      vertex 21.3999 0.36737 0
    endloop
  endfacet
  facet normal -0.998383 0.0568373 0
    outer loop
      vertex 21.3999 0.36737 30
      vertex 21.3758 -0.0559616 0
      vertex 21.3758 -0.0559616 30
    endloop
  endfacet
  facet normal -0.999128 -0.0417435 0
    outer loop
      vertex 21.3999 0.36737 0
      vertex 21.3822 0.791019 30
      vertex 21.3822 0.791019 0
    endloop
  endfacet
  facet normal -0.999128 -0.0417435 0
    outer loop
      vertex 21.3822 0.791019 30
      vertex 21.3999 0.36737 0
      vertex 21.3999 0.36737 30
    endloop
  endfacet
  facet normal -0.990172 -0.139853 0
    outer loop
      vertex 21.3822 0.791019 0
      vertex 21.3229 1.21087 30
      vertex 21.3229 1.21087 0
    endloop
  endfacet
  facet normal -0.990172 -0.139853 0
    outer loop
      vertex 21.3229 1.21087 30
      vertex 21.3822 0.791019 0
      vertex 21.3822 0.791019 30
    endloop
  endfacet
  facet normal -0.971563 -0.236782 0
    outer loop
      vertex 21.3229 1.21087 0
      vertex 21.2225 1.62283 30
      vertex 21.2225 1.62283 0
    endloop
  endfacet
  facet normal -0.971563 -0.236782 0
    outer loop
      vertex 21.2225 1.62283 30
      vertex 21.3229 1.21087 0
      vertex 21.3229 1.21087 30
    endloop
  endfacet
  facet normal -0.943508 -0.331349 0
    outer loop
      vertex 21.2225 1.62283 0
      vertex 21.082 2.0229 30
      vertex 21.082 2.0229 0
    endloop
  endfacet
  facet normal -0.943508 -0.331349 0
    outer loop
      vertex 21.082 2.0229 30
      vertex 21.2225 1.62283 0
      vertex 21.2225 1.62283 30
    endloop
  endfacet
  facet normal -0.906305 -0.422623 0
    outer loop
      vertex 21.082 2.0229 0
      vertex 20.9028 2.40719 30
      vertex 20.9028 2.40719 0
    endloop
  endfacet
  facet normal -0.906305 -0.422623 0
    outer loop
      vertex 20.9028 2.40719 30
      vertex 21.082 2.0229 0
      vertex 21.082 2.0229 30
    endloop
  endfacet
  facet normal -0.860256 -0.509862 0
    outer loop
      vertex 20.9028 2.40719 0
      vertex 20.6866 2.77197 30
      vertex 20.6866 2.77197 0
    endloop
  endfacet
  facet normal -0.860256 -0.509862 0
    outer loop
      vertex 20.6866 2.77197 30
      vertex 20.9028 2.40719 0
      vertex 20.9028 2.40719 30
    endloop
  endfacet
  facet normal -0.805941 -0.591996 0
    outer loop
      vertex 20.6866 2.77197 0
      vertex 20.4356 3.11368 30
      vertex 20.4356 3.11368 0
    endloop
  endfacet
  facet normal -0.805941 -0.591996 0
    outer loop
      vertex 20.4356 3.11368 30
      vertex 20.6866 2.77197 0
      vertex 20.6866 2.77197 30
    endloop
  endfacet
  facet normal -0.743632 -0.668589 0
    outer loop
      vertex 20.4356 3.11368 0
      vertex 20.1521 3.429 30
      vertex 20.1521 3.429 0
    endloop
  endfacet
  facet normal -0.743632 -0.668589 0
    outer loop
      vertex 20.1521 3.429 30
      vertex 20.4356 3.11368 0
      vertex 20.4356 3.11368 30
    endloop
  endfacet
  facet normal 0.674158 0.738588 -0
    outer loop
      vertex 21.4 5.26499 0
      vertex 21.2402 5.41085 30
      vertex 21.4 5.26499 30
    endloop
  endfacet
  facet normal 0.674158 0.738588 0
    outer loop
      vertex 21.2402 5.41085 30
      vertex 21.4 5.26499 0
      vertex 21.2402 5.41085 0
    endloop
  endfacet
  facet normal -0.674147 -0.738597 0
    outer loop
      vertex 19.8389 3.71487 0
      vertex 20.1521 3.429 30
      vertex 19.8389 3.71487 30
    endloop
  endfacet
  facet normal -0.674147 -0.738597 -0
    outer loop
      vertex 20.1521 3.429 30
      vertex 19.8389 3.71487 0
      vertex 20.1521 3.429 0
    endloop
  endfacet
  facet normal 0.598201 0.801346 -0
    outer loop
      vertex 21.2402 5.41085 0
      vertex 20.7266 5.79425 30
      vertex 21.2402 5.41085 30
    endloop
  endfacet
  facet normal 0.598201 0.801346 0
    outer loop
      vertex 20.7266 5.79425 30
      vertex 21.2402 5.41085 0
      vertex 20.7266 5.79425 0
    endloop
  endfacet
  facet normal -0.598172 -0.801368 0
    outer loop
      vertex 19.4991 3.96851 0
      vertex 19.8389 3.71487 30
      vertex 19.4991 3.96851 30
    endloop
  endfacet
  facet normal -0.598172 -0.801368 -0
    outer loop
      vertex 19.8389 3.71487 30
      vertex 19.4991 3.96851 0
      vertex 19.8389 3.71487 0
    endloop
  endfacet
  facet normal 0.516353 0.856376 -0
    outer loop
      vertex 20.7266 5.79425 0
      vertex 20.1777 6.12521 30
      vertex 20.7266 5.79425 30
    endloop
  endfacet
  facet normal 0.516353 0.856376 0
    outer loop
      vertex 20.1777 6.12521 30
      vertex 20.7266 5.79425 0
      vertex 20.1777 6.12521 0
    endloop
  endfacet
  facet normal -0.51635 -0.856378 0
    outer loop
      vertex 19.136 4.18744 0
      vertex 19.4991 3.96851 30
      vertex 19.136 4.18744 30
    endloop
  endfacet
  facet normal -0.51635 -0.856378 -0
    outer loop
      vertex 19.4991 3.96851 30
      vertex 19.136 4.18744 0
      vertex 19.4991 3.96851 0
    endloop
  endfacet
  facet normal 0.429442 0.903095 -0
    outer loop
      vertex 20.1777 6.12521 0
      vertex 19.5988 6.40049 30
      vertex 20.1777 6.12521 30
    endloop
  endfacet
  facet normal 0.429442 0.903095 0
    outer loop
      vertex 19.5988 6.40049 30
      vertex 20.1777 6.12521 0
      vertex 19.5988 6.40049 0
    endloop
  endfacet
  facet normal -0.429504 -0.903065 0
    outer loop
      vertex 18.7531 4.36955 0
      vertex 19.136 4.18744 30
      vertex 18.7531 4.36955 30
    endloop
  endfacet
  facet normal -0.429504 -0.903065 -0
    outer loop
      vertex 19.136 4.18744 30
      vertex 18.7531 4.36955 0
      vertex 19.136 4.18744 0
    endloop
  endfacet
  facet normal 0.338463 0.94098 -0
    outer loop
      vertex 19.5988 6.40049 0
      vertex 18.9957 6.61742 30
      vertex 19.5988 6.40049 30
    endloop
  endfacet
  facet normal 0.338463 0.94098 0
    outer loop
      vertex 18.9957 6.61742 30
      vertex 19.5988 6.40049 0
      vertex 18.9957 6.61742 0
    endloop
  endfacet
  facet normal -0.338448 -0.940985 0
    outer loop
      vertex 18.3541 4.51306 0
      vertex 18.7531 4.36955 30
      vertex 18.3541 4.51306 30
    endloop
  endfacet
  facet normal -0.338448 -0.940985 -0
    outer loop
      vertex 18.7531 4.36955 30
      vertex 18.3541 4.51306 0
      vertex 18.7531 4.36955 0
    endloop
  endfacet
  facet normal 0.244121 0.969745 -0
    outer loop
      vertex 18.9957 6.61742 0
      vertex 18.3741 6.7739 30
      vertex 18.9957 6.61742 30
    endloop
  endfacet
  facet normal 0.244121 0.969745 0
    outer loop
      vertex 18.3741 6.7739 30
      vertex 18.9957 6.61742 0
      vertex 18.3741 6.7739 0
    endloop
  endfacet
  facet normal -0.244133 -0.969742 0
    outer loop
      vertex 17.9429 4.61658 0
      vertex 18.3541 4.51306 30
      vertex 17.9429 4.61658 30
    endloop
  endfacet
  facet normal -0.244133 -0.969742 -0
    outer loop
      vertex 18.3541 4.51306 30
      vertex 17.9429 4.61658 0
      vertex 18.3541 4.51306 0
    endloop
  endfacet
  facet normal 0.147448 0.98907 -0
    outer loop
      vertex 18.3741 6.7739 0
      vertex 17.7402 6.8684 30
      vertex 18.3741 6.7739 30
    endloop
  endfacet
  facet normal 0.147448 0.98907 0
    outer loop
      vertex 17.7402 6.8684 30
      vertex 18.3741 6.7739 0
      vertex 17.7402 6.8684 0
    endloop
  endfacet
  facet normal -0.147418 -0.989074 0
    outer loop
      vertex 17.5235 4.67909 0
      vertex 17.9429 4.61658 30
      vertex 17.5235 4.67909 30
    endloop
  endfacet
  facet normal -0.147418 -0.989074 -0
    outer loop
      vertex 17.9429 4.61658 30
      vertex 17.5235 4.67909 0
      vertex 17.9429 4.61658 0
    endloop
  endfacet
  facet normal 0.0492996 0.998784 -0
    outer loop
      vertex 17.7402 6.8684 0
      vertex 17.1 6.9 30
      vertex 17.7402 6.8684 30
    endloop
  endfacet
  facet normal 0.0492996 0.998784 0
    outer loop
      vertex 17.1 6.9 30
      vertex 17.7402 6.8684 0
      vertex 17.1 6.9 0
    endloop
  endfacet
  facet normal -0.0493142 -0.998783 0
    outer loop
      vertex 17.1 4.7 0
      vertex 17.5235 4.67909 30
      vertex 17.1 4.7 30
    endloop
  endfacet
  facet normal -0.0493142 -0.998783 -0
    outer loop
      vertex 17.5235 4.67909 30
      vertex 17.1 4.7 0
      vertex 17.5235 4.67909 0
    endloop
  endfacet
endsolid OpenSCAD_Model
