<?xml version="1.0" encoding="UTF-8" standalone="no"?>
<svg
   xmlns:dc="http://purl.org/dc/elements/1.1/"
   xmlns:cc="http://creativecommons.org/ns#"
   xmlns:rdf="http://www.w3.org/1999/02/22-rdf-syntax-ns#"
   xmlns:svg="http://www.w3.org/2000/svg"
   xmlns="http://www.w3.org/2000/svg"
   viewBox="0 0 639.91626 447.12125"
   height="447.12125"
   width="639.91626"
   xml:space="preserve"
   version="1.1"
   id="svg2"><metadata
     id="metadata8"><rdf:RDF><cc:Work
         rdf:about=""><dc:format>image/svg+xml</dc:format><dc:type
           rdf:resource="http://purl.org/dc/dcmitype/StillImage" /><dc:title></dc:title></cc:Work></rdf:RDF></metadata><defs
     id="defs6"><clipPath
       id="clipPath16"
       clipPathUnits="userSpaceOnUse"><path
         id="path18"
         d="m 0,357.697 511.933,0 L 511.933,0 0,0 0,357.697 Z" /></clipPath><clipPath
       id="clipPath52"
       clipPathUnits="userSpaceOnUse"><path
         id="path54"
         d="m 0,357.697 511.933,0 L 511.933,0 0,0 0,357.697 Z" /></clipPath><clipPath
       id="clipPath108"
       clipPathUnits="userSpaceOnUse"><path
         id="path110"
         d="m 0,357.697 511.933,0 L 511.933,0 0,0 0,357.697 Z" /></clipPath><clipPath
       id="clipPath124"
       clipPathUnits="userSpaceOnUse"><path
         id="path126"
         d="m 0,357.697 511.933,0 L 511.933,0 0,0 0,357.697 Z" /></clipPath><clipPath
       id="clipPath140"
       clipPathUnits="userSpaceOnUse"><path
         id="path142"
         d="m 0,357.697 511.933,0 L 511.933,0 0,0 0,357.697 Z" /></clipPath><clipPath
       id="clipPath156"
       clipPathUnits="userSpaceOnUse"><path
         id="path158"
         d="m 0,357.697 511.933,0 L 511.933,0 0,0 0,357.697 Z" /></clipPath><clipPath
       id="clipPath172"
       clipPathUnits="userSpaceOnUse"><path
         id="path174"
         d="m 0,357.697 511.933,0 L 511.933,0 0,0 0,357.697 Z" /></clipPath><clipPath
       id="clipPath188"
       clipPathUnits="userSpaceOnUse"><path
         id="path190"
         d="m 0,357.697 511.933,0 L 511.933,0 0,0 0,357.697 Z" /></clipPath></defs><g
     transform="matrix(1.25,0,0,-1.25,0,447.12125)"
     id="g10"><g
       id="g12"><g
         clip-path="url(#clipPath16)"
         id="g14"><g
           transform="translate(124.2688,124.3724)"
           id="g20"><path
             id="path22"
             style="fill:#030000;fill-opacity:1;fill-rule:nonzero;stroke:none"
             d="m 0,0 c -8.538,8.538 -20.808,8.896 -28.555,1.147 -8.036,-8.036 -7.534,-20.159 1.004,-28.697 8.54,-8.54 20.664,-9.042 28.699,-1.007 C 8.968,-20.737 8.54,-8.54 0,0 M -39.463,-39.462 C -54.171,-24.754 -54.456,-2.8 -39.532,12.124 -24.824,26.832 -2.799,26.618 11.909,11.91 26.617,-2.798 26.834,-24.825 12.126,-39.533 -2.87,-54.529 -24.755,-54.17 -39.463,-39.462" /></g><g
           transform="translate(186.508,134.9525)"
           id="g24"><path
             id="path26"
             style="fill:#030000;fill-opacity:1;fill-rule:nonzero;stroke:none"
             d="m 0,0 c -11.91,-11.909 -26.189,-11.407 -36.45,-1.146 l 11.122,11.122 c 4.809,-4.81 10.618,-5.312 16,0.071 3.226,3.226 4.447,7.602 1.219,10.831 -3.444,3.443 -8.895,1.866 -16.643,-1.579 -9.471,-3.874 -21.095,-8.179 -29.418,0.144 -9.542,9.542 -7.46,22.243 1.865,31.568 10.979,10.979 24.395,10.189 32.862,1.722 L -29.847,42.33 c -3.66,3.084 -8.466,3.445 -12.771,-0.859 -3.157,-3.158 -3.731,-7.033 -1.004,-9.761 2.653,-2.653 6.31,-1.575 13.92,1.58 13.056,5.166 24.248,8.181 33.361,-0.933 C 13.201,22.815 10.403,10.403 0,0" /></g><g
           transform="translate(260.7512,261.0121)"
           id="g28"><path
             id="path30"
             style="fill:#030000;fill-opacity:1;fill-rule:nonzero;stroke:none"
             d="m 0,0 c -8.538,8.538 -20.807,8.895 -28.555,1.147 -8.036,-8.036 -7.534,-20.16 1.004,-28.697 8.54,-8.54 20.664,-9.043 28.699,-1.007 C 8.968,-20.737 8.54,-8.54 0,0 m -39.46,-39.46 c -14.708,14.708 -14.994,36.662 -0.072,51.584 14.708,14.708 36.733,14.494 51.441,-0.214 14.708,-14.708 14.925,-36.735 0.217,-51.443 -14.996,-14.996 -36.878,-14.635 -51.586,0.073" /></g><g
           transform="translate(230.5139,202.6956)"
           id="g32"><path
             id="path34"
             style="fill:#030000;fill-opacity:1;fill-rule:nonzero;stroke:none"
             d="m 0,0 10.948,-10.948 -28.501,-28.5 -49.889,49.889 11.122,11.122 38.941,-38.942 L 0,0 Z" /></g><g
           transform="translate(427.9543,95.8275)"
           id="g36"><path
             id="path38"
             style="fill:#030000;fill-opacity:1;fill-rule:nonzero;stroke:none"
             d="m 0,0 -11.115,11.115 -38.739,-38.738 -11.335,11.336 38.738,38.738 -11.123,11.123 10.32,10.32 L 10.319,10.32 0,0 Z" /></g><g
           transform="translate(358.3567,108.5003)"
           id="g40"><path
             id="path42"
             style="fill:#030000;fill-opacity:1;fill-rule:nonzero;stroke:none"
             d="M 0,0 -10.332,-10.332 -39.552,18.888 9.562,68.002 38.756,38.809 28.424,28.477 10.278,46.622 1.291,37.635 17.746,21.179 7.987,11.421 -8.468,27.876 -18.172,18.172 0,0 Z" /></g><g
           transform="translate(309.7649,136.4281)"
           id="g44"><path
             id="path46"
             style="fill:#030000;fill-opacity:1;fill-rule:nonzero;stroke:none"
             d="M 0,0 -10.977,10.977 16.037,38.151 -20.413,20.401 -30.547,30.535 -12.829,67.326 -40.013,40.013 -50.989,50.989 -1.875,100.104 12.76,85.469 -9.667,41.139 34.406,63.822 49.114,49.114 0,0 Z" /></g></g></g><g
       id="g48"><g
         clip-path="url(#clipPath52)"
         id="g50"><g
           transform="translate(511.9328,0.5003)"
           id="g56"><path
             id="path58"
             style="fill:none;stroke:#ffdc00;stroke-width:0.5;stroke-linecap:butt;stroke-linejoin:miter;stroke-miterlimit:10;stroke-dasharray:none;stroke-opacity:1"
             d="m 0,0 0,-0.5 -0.5,0" /></g><g
           transform="translate(510.4328,3e-4)"
           id="g60"><path
             id="path62"
             style="fill:none;stroke:#ffdc00;stroke-width:0.5;stroke-linecap:butt;stroke-linejoin:miter;stroke-miterlimit:10;stroke-dasharray:1, 1;stroke-dashoffset:0;stroke-opacity:1"
             d="M 0,0 -509.433,0" /></g><g
           transform="translate(0.5002,3e-4)"
           id="g64"><path
             id="path66"
             style="fill:none;stroke:#ffdc00;stroke-width:0.5;stroke-linecap:butt;stroke-linejoin:miter;stroke-miterlimit:10;stroke-dasharray:none;stroke-opacity:1"
             d="m 0,0 -0.5,0 0,0.5" /></g><g
           transform="translate(2e-4,1.4994)"
           id="g68"><path
             id="path70"
             style="fill:none;stroke:#ffdc00;stroke-width:0.5;stroke-linecap:butt;stroke-linejoin:miter;stroke-miterlimit:10;stroke-dasharray:0.999, 0.999;stroke-dashoffset:0;stroke-opacity:1"
             d="M 0,0 0,355.198" /></g><g
           transform="translate(2e-4,357.1966)"
           id="g72"><path
             id="path74"
             style="fill:none;stroke:#ffdc00;stroke-width:0.5;stroke-linecap:butt;stroke-linejoin:miter;stroke-miterlimit:10;stroke-dasharray:none;stroke-opacity:1"
             d="m 0,0 0,0.5 0.5,0" /></g><g
           transform="translate(1.5002,357.6966)"
           id="g76"><path
             id="path78"
             style="fill:none;stroke:#ffdc00;stroke-width:0.5;stroke-linecap:butt;stroke-linejoin:miter;stroke-miterlimit:10;stroke-dasharray:1, 1;stroke-dashoffset:0;stroke-opacity:1"
             d="M 0,0 509.433,0" /></g><g
           transform="translate(511.4328,357.6966)"
           id="g80"><path
             id="path82"
             style="fill:none;stroke:#ffdc00;stroke-width:0.5;stroke-linecap:butt;stroke-linejoin:miter;stroke-miterlimit:10;stroke-dasharray:none;stroke-opacity:1"
             d="m 0,0 0.5,0 0,-0.5" /></g><g
           transform="translate(511.9328,356.1976)"
           id="g84"><path
             id="path86"
             style="fill:none;stroke:#ffdc00;stroke-width:0.5;stroke-linecap:butt;stroke-linejoin:miter;stroke-miterlimit:10;stroke-dasharray:0.999, 0.999;stroke-dashoffset:0;stroke-opacity:1"
             d="M 0,0 0,-355.198" /></g></g></g><g
       transform="translate(246.9729,283.3607)"
       id="g88"><path
         id="path90"
         style="fill:none;stroke:#ffdc00;stroke-width:0.5;stroke-linecap:butt;stroke-linejoin:miter;stroke-miterlimit:10;stroke-dasharray:none;stroke-opacity:1"
         d="M 0,0 0,-72.584" /></g><g
       transform="translate(243.2863,280.0833)"
       id="g92"><path
         id="path94"
         style="fill:none;stroke:#ffdc00;stroke-width:0.5;stroke-linecap:butt;stroke-linejoin:miter;stroke-miterlimit:10;stroke-dasharray:none;stroke-opacity:1"
         d="M 0,0 3.66,3.66 7.372,-0.052" /></g><g
       transform="translate(250.6584,214.4369)"
       id="g96"><path
         id="path98"
         style="fill:none;stroke:#ffdc00;stroke-width:0.5;stroke-linecap:butt;stroke-linejoin:miter;stroke-miterlimit:10;stroke-dasharray:none;stroke-opacity:1"
         d="M 0,0 -3.66,-3.66 -7.372,0.051" /></g><g
       transform="translate(246.9729,356.8763)"
       id="g100"><path
         id="path102"
         style="fill:none;stroke:#ffdc00;stroke-width:0.5;stroke-linecap:butt;stroke-linejoin:miter;stroke-miterlimit:10;stroke-dasharray:none;stroke-opacity:1"
         d="M 0,0 0,-72.584" /></g><g
       id="g104"><g
         clip-path="url(#clipPath108)"
         id="g106"><g
           transform="translate(243.2863,353.599)"
           id="g112"><path
             id="path114"
             style="fill:none;stroke:#ffdc00;stroke-width:0.5;stroke-linecap:butt;stroke-linejoin:miter;stroke-miterlimit:10;stroke-dasharray:none;stroke-opacity:1"
             d="M 0,0 3.66,3.659 7.372,-0.052" /></g></g></g><g
       transform="translate(250.6584,287.9515)"
       id="g116"><path
         id="path118"
         style="fill:none;stroke:#ffdc00;stroke-width:0.5;stroke-linecap:butt;stroke-linejoin:miter;stroke-miterlimit:10;stroke-dasharray:none;stroke-opacity:1"
         d="M 0,0 -3.66,-3.659 -7.372,0.052" /></g><g
       id="g120"><g
         clip-path="url(#clipPath124)"
         id="g122"><g
           transform="translate(246.9729,72.8529)"
           id="g128"><path
             id="path130"
             style="fill:none;stroke:#ffdc00;stroke-width:0.5;stroke-linecap:butt;stroke-linejoin:miter;stroke-miterlimit:10;stroke-dasharray:none;stroke-opacity:1"
             d="M 0,0 0,-72.584" /></g></g></g><g
       transform="translate(243.2863,69.5755)"
       id="g132"><path
         id="path134"
         style="fill:none;stroke:#ffdc00;stroke-width:0.5;stroke-linecap:butt;stroke-linejoin:miter;stroke-miterlimit:10;stroke-dasharray:none;stroke-opacity:1"
         d="M 0,0 3.66,3.66 7.372,-0.052" /></g><g
       id="g136"><g
         clip-path="url(#clipPath140)"
         id="g138"><g
           transform="translate(250.6584,3.9281)"
           id="g144"><path
             id="path146"
             style="fill:none;stroke:#ffdc00;stroke-width:0.5;stroke-linecap:butt;stroke-linejoin:miter;stroke-miterlimit:10;stroke-dasharray:none;stroke-opacity:1"
             d="M 0,0 -3.66,-3.659 -7.372,0.052" /></g></g></g><g
       transform="translate(510.8987,186.4798)"
       id="g148"><path
         id="path150"
         style="fill:none;stroke:#ffdc00;stroke-width:0.5;stroke-linecap:butt;stroke-linejoin:miter;stroke-miterlimit:10;stroke-dasharray:none;stroke-opacity:1"
         d="M 0,0 -72.584,0" /></g><g
       id="g152"><g
         clip-path="url(#clipPath156)"
         id="g154"><g
           transform="translate(507.6223,190.1654)"
           id="g160"><path
             id="path162"
             style="fill:none;stroke:#ffdc00;stroke-width:0.5;stroke-linecap:butt;stroke-linejoin:miter;stroke-miterlimit:10;stroke-dasharray:none;stroke-opacity:1"
             d="M 0,0 3.659,-3.66 -0.052,-7.371" /></g></g></g><g
       transform="translate(441.9748,182.7943)"
       id="g164"><path
         id="path166"
         style="fill:none;stroke:#ffdc00;stroke-width:0.5;stroke-linecap:butt;stroke-linejoin:miter;stroke-miterlimit:10;stroke-dasharray:none;stroke-opacity:1"
         d="M 0,0 -3.66,3.659 0.052,7.371" /></g><g
       id="g168"><g
         clip-path="url(#clipPath172)"
         id="g170"><g
           transform="translate(73.1838,186.4798)"
           id="g176"><path
             id="path178"
             style="fill:none;stroke:#ffdc00;stroke-width:0.5;stroke-linecap:butt;stroke-linejoin:miter;stroke-miterlimit:10;stroke-dasharray:none;stroke-opacity:1"
             d="M 0,0 -72.584,0" /></g></g></g><g
       transform="translate(69.9065,190.1654)"
       id="g180"><path
         id="path182"
         style="fill:none;stroke:#ffdc00;stroke-width:0.5;stroke-linecap:butt;stroke-linejoin:miter;stroke-miterlimit:10;stroke-dasharray:none;stroke-opacity:1"
         d="M 0,0 3.66,-3.66 -0.051,-7.371" /></g><g
       id="g184"><g
         clip-path="url(#clipPath188)"
         id="g186"><g
           transform="translate(4.26,182.7943)"
           id="g192"><path
             id="path194"
             style="fill:none;stroke:#ffdc00;stroke-width:0.5;stroke-linecap:butt;stroke-linejoin:miter;stroke-miterlimit:10;stroke-dasharray:none;stroke-opacity:1"
             d="M 0,0 -3.66,3.659 0.052,7.371" /></g></g></g><g
       transform="translate(437.6721,74.2347)"
       id="g196"><path
         id="path198"
         style="fill:none;stroke:#ffdc00;stroke-width:0.5;stroke-linecap:butt;stroke-linejoin:miter;stroke-miterlimit:10;stroke-dasharray:none;stroke-opacity:1"
         d="m 0,0 0,-0.499 -0.499,0" /></g><g
       transform="translate(436.174,73.7357)"
       id="g200"><path
         id="path202"
         style="fill:none;stroke:#ffdc00;stroke-width:0.5;stroke-linecap:butt;stroke-linejoin:miter;stroke-miterlimit:10;stroke-dasharray:0.998, 0.998;stroke-dashoffset:0;stroke-opacity:1"
         d="M 0,0 -360.915,0" /></g><g
       transform="translate(74.76,73.7357)"
       id="g204"><path
         id="path206"
         style="fill:none;stroke:#ffdc00;stroke-width:0.5;stroke-linecap:butt;stroke-linejoin:miter;stroke-miterlimit:10;stroke-dasharray:none;stroke-opacity:1"
         d="m 0,0 -0.5,0 0,0.499" /></g><g
       transform="translate(74.26,75.2367)"
       id="g208"><path
         id="path210"
         style="fill:none;stroke:#ffdc00;stroke-width:0.5;stroke-linecap:butt;stroke-linejoin:miter;stroke-miterlimit:10;stroke-dasharray:1.002, 1.002;stroke-dashoffset:0;stroke-opacity:1"
         d="M 0,0 0,207.823" /></g><g
       transform="translate(74.26,283.5609)"
       id="g212"><path
         id="path214"
         style="fill:none;stroke:#ffdc00;stroke-width:0.5;stroke-linecap:butt;stroke-linejoin:miter;stroke-miterlimit:10;stroke-dasharray:none;stroke-opacity:1"
         d="m 0,0 0,0.5 0.5,0" /></g><g
       transform="translate(75.758,284.0609)"
       id="g216"><path
         id="path218"
         style="fill:none;stroke:#ffdc00;stroke-width:0.5;stroke-linecap:butt;stroke-linejoin:miter;stroke-miterlimit:10;stroke-dasharray:0.998, 0.998;stroke-dashoffset:0;stroke-opacity:1"
         d="M 0,0 360.916,0" /></g><g
       transform="translate(437.1731,284.0609)"
       id="g220"><path
         id="path222"
         style="fill:none;stroke:#ffdc00;stroke-width:0.5;stroke-linecap:butt;stroke-linejoin:miter;stroke-miterlimit:10;stroke-dasharray:none;stroke-opacity:1"
         d="m 0,0 0.499,0 0,-0.5" /></g><g
       transform="translate(437.6721,282.5599)"
       id="g224"><path
         id="path226"
         style="fill:none;stroke:#ffdc00;stroke-width:0.5;stroke-linecap:butt;stroke-linejoin:miter;stroke-miterlimit:10;stroke-dasharray:1.002, 1.002;stroke-dashoffset:0;stroke-opacity:1"
         d="M 0,0 0,-207.824" /></g></g></svg>