  0
SECTION
  2
HEADER
  9
$ACADVER
  1
AC1014
  9
$HANDSEED
  5
FFFF
  9
$MEASUREMENT
 70
     1
  0
ENDSEC
  0
SECTION
  2
TABLES
  0
TABLE
  2
VPORT
  5
8
330
0
100
AcDbSymbolTable
 70
     4
  0
VPORT
  5
2E
330
8
100
AcDbSymbolTableRecord
100
AcDbViewportTableRecord
  2
*ACTIVE
 70
     0
 10
0.0
 20
0.0
 11
1.0
 21
1.0
 12
210.0
 22
148.5
 13
0.0
 23
0.0
 14
10.0
 24
10.0
 15
10.0
 25
10.0
 16
0.0
 26
0.0
 36
1.0
 17
0.0
 27
0.0
 37
0.0
 40
341.0
 41
1.24
 42
50.0
 43
0.0
 44
0.0
 50
0.0
 51
0.0
 71
     0
 72
   100
 73
     1
 74
     3
 75
     0
 76
     0
 77
     0
 78
     0
  0
ENDTAB
  0
TABLE
  2
LTYPE
  5
5
330
0
100
AcDbSymbolTable
 70
     1
  0
LTYPE
  5
14
330
5
100
AcDbSymbolTableRecord
100
AcDbLinetypeTableRecord
  2
BYBLOCK
 70
     0
  3

 72
    65
 73
     0
 40
0.0
  0
LTYPE
  5
15
330
5
100
AcDbSymbolTableRecord
100
AcDbLinetypeTableRecord
  2
BYLAYER
 70
     0
  3

 72
    65
 73
     0
 40
0.0
  0
LTYPE
  5
16
330
5
100
AcDbSymbolTableRecord
100
AcDbLinetypeTableRecord
  2
CONTINUOUS
 70
     0
  3
Solid line
 72
    65
 73
     0
 40
0.0
  0
ENDTAB
  0
TABLE
  2
LAYER
  5
2
100
AcDbSymbolTable
 70
2
  0
LAYER
  5
50
100
AcDbSymbolTableRecord
100
AcDbLayerTableRecord
  2
0
 70
0
  6
CONTINUOUS
  0
LAYER
  5
51
100
AcDbSymbolTableRecord
100
AcDbLayerTableRecord
  2
OsloMet_Logosymbol_CMYK_medguides
 70
0
  6
CONTINUOUS
  0
ENDTAB
  0
TABLE
  2
STYLE
  5
3
330
0
100
AcDbSymbolTable
 70
     1
  0
STYLE
  5
11
330
3
100
AcDbSymbolTableRecord
100
AcDbTextStyleTableRecord
  2
STANDARD
 70
     0
 40
0.0
 41
1.0
 50
0.0
 71
     0
 42
2.5
  3
txt
  4

  0
ENDTAB
  0
TABLE
  2
VIEW
  5
6
330
0
100
AcDbSymbolTable
 70
     0
  0
ENDTAB
  0
TABLE
  2
UCS
  5
7
330
0
100
AcDbSymbolTable
 70
     0
  0
ENDTAB
  0
TABLE
  2
APPID
  5
9
330
0
100
AcDbSymbolTable
 70
     2
  0
APPID
  5
12
330
9
100
AcDbSymbolTableRecord
100
AcDbRegAppTableRecord
  2
ACAD
 70
     0
  0
ENDTAB
  0
TABLE
  2
DIMSTYLE
  5
A
330
0
100
AcDbSymbolTable
 70
     1
  0
DIMSTYLE
105
27
330
A
100
AcDbSymbolTableRecord
100
AcDbDimStyleTableRecord
  2
ISO-25
 70
     0
  3

  4

  5

  6

  7

 40
1.0
 41
2.5
 42
0.625
 43
3.75
 44
1.25
 45
0.0
 46
0.0
 47
0.0
 48
0.0
140
2.5
141
2.5
142
0.0
143
0.03937007874016
144
1.0
145
0.0
146
1.0
147
0.625
 71
     0
 72
     0
 73
     0
 74
     0
 75
     0
 76
     0
 77
     1
 78
     8
170
     0
171
     3
172
     1
173
     0
174
     0
175
     0
176
     0
177
     0
178
     0
270
     2
271
     2
272
     2
273
     2
274
     3
340
11
275
     0
280
     0
281
     0
282
     0
283
     0
284
     8
285
     0
286
     0
287
     3
288
     0
  0
ENDTAB
  0
TABLE
  2
BLOCK_RECORD
  5
1
330
0
100
AcDbSymbolTable
 70
     1
  0
BLOCK_RECORD
  5
1F
330
1
100
AcDbSymbolTableRecord
100
AcDbBlockTableRecord
  2
*MODEL_SPACE
  0
BLOCK_RECORD
  5
1B
330
1
100
AcDbSymbolTableRecord
100
AcDbBlockTableRecord
  2
*PAPER_SPACE
  0
ENDTAB
  0
ENDSEC
  0
SECTION
  2
BLOCKS
  0
BLOCK
  5
20
330
1F
100
AcDbEntity
  8
0
100
AcDbBlockBegin
  2
*MODEL_SPACE
 70
     0
 10
0.0
 20
0.0
 30
0.0
  3
*MODEL_SPACE
  1

  0
ENDBLK
  5
21
330
1F
100
AcDbEntity
  8
0
100
AcDbBlockEnd
  0
BLOCK
  5
1C
330
1B
100
AcDbEntity
 67
     1
  8
0
100
AcDbBlockBegin
  2
*PAPER_SPACE
  1

  0
ENDBLK
  5
1D
330
1B
100
AcDbEntity
 67
     1
  8
0
100
AcDbBlockEnd
  0
ENDSEC
  0
SECTION
  2
ENTITIES
  0
SPLINE
  5
100
100
AcDbEntity
  8
OsloMet_Logosymbol_CMYK_medguides
 62
7
100
AcDbSpline
 70
8
 71
3
 72
8
 73
4
 74
0
 40
0
 40
0
 40
0
 40
0
 40
1
 40
1
 40
1
 40
1
 10
43.839271
 20
43.875819
 30
0.0
 10
40.827254
 20
46.887836
 30
0.0
 10
36.498671
 20
47.014130
 30
0.0
 10
33.765702
 20
44.280455
 30
0.0
  0
SPLINE
  5
101
100
AcDbEntity
  8
OsloMet_Logosymbol_CMYK_medguides
 62
7
100
AcDbSpline
 70
8
 71
3
 72
8
 73
4
 74
0
 40
0
 40
0
 40
0
 40
0
 40
1
 40
1
 40
1
 40
1
 10
33.765702
 20
44.280455
 30
0.0
 10
30.930779
 20
41.445533
 30
0.0
 10
31.107874
 20
37.168808
 30
0.0
 10
34.119891
 20
34.156791
 30
0.0
  0
SPLINE
  5
102
100
AcDbEntity
  8
OsloMet_Logosymbol_CMYK_medguides
 62
7
100
AcDbSpline
 70
8
 71
3
 72
8
 73
4
 74
0
 40
0
 40
0
 40
0
 40
0
 40
1
 40
1
 40
1
 40
1
 10
34.119891
 20
34.156791
 30
0.0
 10
37.132613
 20
31.144069
 30
0.0
 10
41.409691
 20
30.966974
 30
0.0
 10
44.244260
 20
33.801544
 30
0.0
  0
SPLINE
  5
103
100
AcDbEntity
  8
OsloMet_Logosymbol_CMYK_medguides
 62
7
100
AcDbSpline
 70
8
 71
3
 72
8
 73
4
 74
0
 40
0
 40
0
 40
0
 40
0
 40
1
 40
1
 40
1
 40
1
 10
44.244260
 20
33.801544
 30
0.0
 10
47.002982
 20
36.560266
 30
0.0
 10
46.851993
 20
40.863097
 30
0.0
 10
43.839271
 20
43.875819
 30
0.0
  0
SPLINE
  5
104
100
AcDbEntity
  8
OsloMet_Logosymbol_CMYK_medguides
 62
7
100
AcDbSpline
 70
8
 71
3
 72
8
 73
4
 74
0
 40
0
 40
0
 40
0
 40
0
 40
1
 40
1
 40
1
 40
1
 10
29.917602
 20
29.954502
 30
0.0
 10
24.728946
 20
35.143158
 30
0.0
 10
24.628404
 20
42.888041
 30
0.0
 10
29.893260
 20
48.152897
 30
0.0
  0
SPLINE
  5
105
100
AcDbEntity
  8
OsloMet_Logosymbol_CMYK_medguides
 62
7
100
AcDbSpline
 70
8
 71
3
 72
8
 73
4
 74
0
 40
0
 40
0
 40
0
 40
0
 40
1
 40
1
 40
1
 40
1
 10
29.893260
 20
48.152897
 30
0.0
 10
35.081916
 20
53.341552
 30
0.0
 10
42.851846
 20
53.266058
 30
0.0
 10
48.040502
 20
48.077402
 30
0.0
  0
SPLINE
  5
106
100
AcDbEntity
  8
OsloMet_Logosymbol_CMYK_medguides
 62
7
100
AcDbSpline
 70
8
 71
3
 72
8
 73
4
 74
0
 40
0
 40
0
 40
0
 40
0
 40
1
 40
1
 40
1
 40
1
 10
48.040502
 20
48.077402
 30
0.0
 10
53.229157
 20
42.888747
 30
0.0
 10
53.305710
 20
35.118111
 30
0.0
 10
48.117054
 20
29.929455
 30
0.0
  0
SPLINE
  5
107
100
AcDbEntity
  8
OsloMet_Logosymbol_CMYK_medguides
 62
7
100
AcDbSpline
 70
8
 71
3
 72
8
 73
4
 74
0
 40
0
 40
0
 40
0
 40
0
 40
1
 40
1
 40
1
 40
1
 10
48.117054
 20
29.929455
 30
0.0
 10
42.826799
 20
24.639199
 30
0.0
 10
35.106257
 20
24.765847
 30
0.0
 10
29.917602
 20
29.954502
 30
0.0
  0
SPLINE
  5
108
100
AcDbEntity
  8
OsloMet_Logosymbol_CMYK_medguides
 62
7
100
AcDbSpline
 70
8
 71
3
 72
8
 73
4
 74
0
 40
0
 40
0
 40
0
 40
0
 40
1
 40
1
 40
1
 40
1
 10
65.795878
 20
47.608243
 30
0.0
 10
61.594294
 20
43.407012
 30
0.0
 10
56.556981
 20
43.584107
 30
0.0
 10
52.937128
 20
47.203960
 30
0.0
  0
SPLINE
  5
109
100
AcDbEntity
  8
OsloMet_Logosymbol_CMYK_medguides
 62
7
100
AcDbSpline
 70
8
 71
3
 72
8
 73
4
 74
0
 40
0
 40
0
 40
0
 40
0
 40
1
 40
1
 40
1
 40
1
 10
56.860722
 20
51.127554
 30
0.0
 10
58.557231
 20
49.430693
 30
0.0
 10
60.606517
 20
49.253599
 30
0.0
 10
62.505167
 20
51.152601
 30
0.0
  0
SPLINE
  5
10a
100
AcDbEntity
  8
OsloMet_Logosymbol_CMYK_medguides
 62
7
100
AcDbSpline
 70
8
 71
3
 72
8
 73
4
 74
0
 40
0
 40
0
 40
0
 40
0
 40
1
 40
1
 40
1
 40
1
 10
62.505167
 20
51.152601
 30
0.0
 10
63.643228
 20
52.290662
 30
0.0
 10
64.073969
 20
53.834418
 30
0.0
 10
62.935203
 20
54.973537
 30
0.0
  0
SPLINE
  5
10b
100
AcDbEntity
  8
OsloMet_Logosymbol_CMYK_medguides
 62
7
100
AcDbSpline
 70
8
 71
3
 72
8
 73
4
 74
0
 40
0
 40
0
 40
0
 40
0
 40
1
 40
1
 40
1
 40
1
 10
62.935203
 20
54.973537
 30
0.0
 10
61.720236
 20
56.188151
 30
0.0
 10
59.797244
 20
55.631821
 30
0.0
 10
57.063922
 20
54.416501
 30
0.0
  0
SPLINE
  5
10c
100
AcDbEntity
  8
OsloMet_Logosymbol_CMYK_medguides
 62
7
100
AcDbSpline
 70
8
 71
3
 72
8
 73
4
 74
0
 40
0
 40
0
 40
0
 40
0
 40
1
 40
1
 40
1
 40
1
 10
57.063922
 20
54.416501
 30
0.0
 10
53.722764
 20
53.049840
 30
0.0
 10
49.622075
 20
51.531132
 30
0.0
 10
46.685906
 20
54.467301
 30
0.0
  0
SPLINE
  5
10d
100
AcDbEntity
  8
OsloMet_Logosymbol_CMYK_medguides
 62
7
100
AcDbSpline
 70
8
 71
3
 72
8
 73
4
 74
0
 40
0
 40
0
 40
0
 40
0
 40
1
 40
1
 40
1
 40
1
 10
46.685906
 20
54.467301
 30
0.0
 10
43.319700
 20
57.833507
 30
0.0
 10
44.054183
 20
62.314137
 30
0.0
 10
47.343836
 20
65.603790
 30
0.0
  0
SPLINE
  5
10e
100
AcDbEntity
  8
OsloMet_Logosymbol_CMYK_medguides
 62
7
100
AcDbSpline
 70
8
 71
3
 72
8
 73
4
 74
0
 40
0
 40
0
 40
0
 40
0
 40
1
 40
1
 40
1
 40
1
 10
47.343836
 20
65.603790
 30
0.0
 10
51.216983
 20
69.476937
 30
0.0
 10
55.949850
 20
69.198243
 30
0.0
 10
58.936819
 20
66.211274
 30
0.0
  0
LWPOLYLINE
  5
10f
100
AcDbEntity
  8
OsloMet_Logosymbol_CMYK_medguides
 62
7
100
AcDbPolyline
 90
2
 70
0
 10
52.937128
 20
47.203960
 30
0.0
 10
56.860722
 20
51.127554
 30
0.0
  0
SPLINE
  5
110
100
AcDbEntity
  8
OsloMet_Logosymbol_CMYK_medguides
 62
7
100
AcDbSpline
 70
8
 71
3
 72
8
 73
4
 74
0
 40
0
 40
0
 40
0
 40
0
 40
1
 40
1
 40
1
 40
1
 10
55.266519
 20
62.541326
 30
0.0
 10
53.975353
 20
63.629293
 30
0.0
 10
52.279903
 20
63.756646
 30
0.0
 10
50.761194
 20
62.238290
 30
0.0
  0
SPLINE
  5
111
100
AcDbEntity
  8
OsloMet_Logosymbol_CMYK_medguides
 62
7
100
AcDbSpline
 70
8
 71
3
 72
8
 73
4
 74
0
 40
0
 40
0
 40
0
 40
0
 40
1
 40
1
 40
1
 40
1
 10
50.761194
 20
62.238290
 30
0.0
 10
49.647475
 20
61.124218
 30
0.0
 10
49.444981
 20
59.757204
 30
0.0
 10
50.407006
 20
58.794826
 30
0.0
  0
SPLINE
  5
112
100
AcDbEntity
  8
OsloMet_Logosymbol_CMYK_medguides
 62
7
100
AcDbSpline
 70
8
 71
3
 72
8
 73
4
 74
0
 40
0
 40
0
 40
0
 40
0
 40
1
 40
1
 40
1
 40
1
 10
50.407006
 20
58.794826
 30
0.0
 10
51.342925
 20
57.858907
 30
0.0
 10
52.633033
 20
58.239201
 30
0.0
 10
55.317672
 20
59.352215
 30
0.0
  0
SPLINE
  5
113
100
AcDbEntity
  8
OsloMet_Logosymbol_CMYK_medguides
 62
7
100
AcDbSpline
 70
8
 71
3
 72
8
 73
4
 74
0
 40
0
 40
0
 40
0
 40
0
 40
1
 40
1
 40
1
 40
1
 10
55.317672
 20
59.352215
 30
0.0
 10
59.923539
 20
61.174665
 30
0.0
 10
63.871828
 20
62.238290
 30
0.0
 10
67.086692
 20
59.023074
 30
0.0
  0
SPLINE
  5
114
100
AcDbEntity
  8
OsloMet_Logosymbol_CMYK_medguides
 62
7
100
AcDbSpline
 70
8
 71
3
 72
8
 73
4
 74
0
 40
0
 40
0
 40
0
 40
0
 40
1
 40
1
 40
1
 40
1
 10
67.086692
 20
59.023074
 30
0.0
 10
70.452897
 20
55.656868
 30
0.0
 10
69.465825
 20
51.278190
 30
0.0
 10
65.795878
 20
47.608243
 30
0.0
  0
SPLINE
  5
115
100
AcDbEntity
  8
OsloMet_Logosymbol_CMYK_medguides
 62
7
100
AcDbSpline
 70
8
 71
3
 72
8
 73
4
 74
0
 40
0
 40
0
 40
0
 40
0
 40
1
 40
1
 40
1
 40
1
 10
91.987229
 20
92.079269
 30
0.0
 10
88.975212
 20
95.091285
 30
0.0
 10
84.646982
 20
95.217227
 30
0.0
 10
81.913659
 20
92.483905
 30
0.0
  0
SPLINE
  5
116
100
AcDbEntity
  8
OsloMet_Logosymbol_CMYK_medguides
 62
7
100
AcDbSpline
 70
8
 71
3
 72
8
 73
4
 74
0
 40
0
 40
0
 40
0
 40
0
 40
1
 40
1
 40
1
 40
1
 10
81.913659
 20
92.483905
 30
0.0
 10
79.078737
 20
89.648982
 30
0.0
 10
79.255832
 20
85.371905
 30
0.0
 10
82.267848
 20
82.360241
 30
0.0
  0
SPLINE
  5
117
100
AcDbEntity
  8
OsloMet_Logosymbol_CMYK_medguides
 62
7
100
AcDbSpline
 70
8
 71
3
 72
8
 73
4
 74
0
 40
0
 40
0
 40
0
 40
0
 40
1
 40
1
 40
1
 40
1
 10
82.267848
 20
82.360241
 30
0.0
 10
85.280571
 20
79.347519
 30
0.0
 10
89.557648
 20
79.170071
 30
0.0
 10
92.392218
 20
82.004994
 30
0.0
  0
SPLINE
  5
118
100
AcDbEntity
  8
OsloMet_Logosymbol_CMYK_medguides
 62
7
100
AcDbSpline
 70
8
 71
3
 72
8
 73
4
 74
0
 40
0
 40
0
 40
0
 40
0
 40
1
 40
1
 40
1
 40
1
 10
92.392218
 20
82.004994
 30
0.0
 10
95.150940
 20
84.763716
 30
0.0
 10
94.999951
 20
89.066546
 30
0.0
 10
91.987229
 20
92.079269
 30
0.0
  0
SPLINE
  5
119
100
AcDbEntity
  8
OsloMet_Logosymbol_CMYK_medguides
 62
7
100
AcDbSpline
 70
8
 71
3
 72
8
 73
4
 74
0
 40
0
 40
0
 40
0
 40
0
 40
1
 40
1
 40
1
 40
1
 10
78.066618
 20
78.158657
 30
0.0
 10
72.877962
 20
83.347313
 30
0.0
 10
72.777068
 20
91.092196
 30
0.0
 10
78.041218
 20
96.356346
 30
0.0
  0
SPLINE
  5
11a
100
AcDbEntity
  8
OsloMet_Logosymbol_CMYK_medguides
 62
7
100
AcDbSpline
 70
8
 71
3
 72
8
 73
4
 74
0
 40
0
 40
0
 40
0
 40
0
 40
1
 40
1
 40
1
 40
1
 10
78.041218
 20
96.356346
 30
0.0
 10
83.229873
 20
101.545002
 30
0.0
 10
90.999804
 20
101.469507
 30
0.0
 10
96.188459
 20
96.280852
 30
0.0
  0
SPLINE
  5
11b
100
AcDbEntity
  8
OsloMet_Logosymbol_CMYK_medguides
 62
7
100
AcDbSpline
 70
8
 71
3
 72
8
 73
4
 74
0
 40
0
 40
0
 40
0
 40
0
 40
1
 40
1
 40
1
 40
1
 10
96.188459
 20
96.280852
 30
0.0
 10
101.377115
 20
91.092196
 30
0.0
 10
101.453668
 20
83.321560
 30
0.0
 10
96.265012
 20
78.132905
 30
0.0
  0
SPLINE
  5
11c
100
AcDbEntity
  8
OsloMet_Logosymbol_CMYK_medguides
 62
7
100
AcDbSpline
 70
8
 71
3
 72
8
 73
4
 74
0
 40
0
 40
0
 40
0
 40
0
 40
1
 40
1
 40
1
 40
1
 10
96.265012
 20
78.132905
 30
0.0
 10
90.974757
 20
72.842649
 30
0.0
 10
83.255273
 20
72.970002
 30
0.0
 10
78.066618
 20
78.158657
 30
0.0
  0
LWPOLYLINE
  5
11d
100
AcDbEntity
  8
OsloMet_Logosymbol_CMYK_medguides
 62
7
100
AcDbPolyline
 90
2
 70
0
 10
58.936819
 20
66.211274
 30
0.0
 10
55.266519
 20
62.541326
 30
0.0
  0
LWPOLYLINE
  5
11e
100
AcDbEntity
  8
OsloMet_Logosymbol_CMYK_medguides
 62
7
100
AcDbPolyline
 90
8
 70
1
 10
81.320181
 20
71.506503
 30
0.0
 10
85.182392
 20
67.644292
 30
0.0
 10
75.127873
 20
57.590126
 30
0.0
 10
57.528142
 20
75.189856
 30
0.0
 10
61.451737
 20
79.113451
 30
0.0
 10
75.189256
 20
65.375578
 30
0.0
 10
81.320181
 20
71.506503
 30
0.0
 10
81.320181
 20
71.506503
 30
0.0
  0
LWPOLYLINE
  5
11f
100
AcDbEntity
  8
OsloMet_Logosymbol_CMYK_medguides
 62
7
100
AcDbPolyline
 90
10
 70
1
 10
150.972767
 20
33.805812
 30
0.0
 10
147.051642
 20
37.726937
 30
0.0
 10
133.385384
 20
24.061032
 30
0.0
 10
129.386647
 20
28.060121
 30
0.0
 10
143.052553
 20
41.726026
 30
0.0
 10
139.128606
 20
45.649974
 30
0.0
 10
142.769272
 20
49.290640
 30
0.0
 10
154.613081
 20
37.446479
 30
0.0
 10
150.972767
 20
33.805812
 30
0.0
 10
150.972767
 20
33.805812
 30
0.0
  0
LWPOLYLINE
  5
120
100
AcDbEntity
  8
OsloMet_Logosymbol_CMYK_medguides
 62
7
100
AcDbPolyline
 90
14
 70
1
 10
126.420280
 20
38.276495
 30
0.0
 10
122.775380
 20
34.631595
 30
0.0
 10
112.467214
 20
44.939761
 30
0.0
 10
129.793541
 20
62.266089
 30
0.0
 10
140.092536
 20
51.967447
 30
0.0
 10
136.447636
 20
48.322547
 30
0.0
 10
130.046130
 20
54.723700
 30
0.0
 10
126.875716
 20
51.553286
 30
0.0
 10
132.680675
 20
45.747975
 30
0.0
 10
129.237916
 20
42.305570
 30
0.0
 10
123.432958
 20
48.110528
 30
0.0
 10
120.009602
 20
44.687172
 30
0.0
 10
126.420280
 20
38.276495
 30
0.0
 10
126.420280
 20
38.276495
 30
0.0
  0
LWPOLYLINE
  5
121
100
AcDbEntity
  8
OsloMet_Logosymbol_CMYK_medguides
 62
7
100
AcDbPolyline
 90
15
 70
1
 10
109.278173
 20
48.128802
 30
0.0
 10
105.405731
 20
52.001244
 30
0.0
 10
114.935670
 20
61.587627
 30
0.0
 10
102.076920
 20
55.325821
 30
0.0
 10
98.501870
 20
58.900871
 30
0.0
 10
104.752387
 20
71.879919
 30
0.0
 10
95.162476
 20
62.244499
 30
0.0
 10
91.290387
 20
66.116588
 30
0.0
 10
108.616715
 20
83.443269
 30
0.0
 10
113.779618
 20
78.280366
 30
0.0
 10
105.867870
 20
62.641727
 30
0.0
 10
121.415845
 20
70.643785
 30
0.0
 10
126.604501
 20
65.455130
 30
0.0
 10
109.278173
 20
48.128802
 30
0.0
 10
109.278173
 20
48.128802
 30
0.0
  0
LWPOLYLINE
  5
122
100
AcDbEntity
  8
OsloMet_Logosymbol_CMYK_medguides
 62
2
100
AcDbPolyline
 90
3
 70
0
 10
180.598516
 20
0.176495
 30
0.0
 10
180.598516
 20
0.000106
 30
0.0
 10
180.422127
 20
0.000106
 30
0.0
  0
LWPOLYLINE
  5
123
100
AcDbEntity
  8
OsloMet_Logosymbol_CMYK_medguides
 62
2
100
AcDbPolyline
 90
2
 70
0
 10
180.069349
 20
0.000106
 30
0.0
 10
0.352707
 20
0.000106
 30
0.0
  0
LWPOLYLINE
  5
124
100
AcDbEntity
  8
OsloMet_Logosymbol_CMYK_medguides
 62
2
100
AcDbPolyline
 90
3
 70
0
 10
0.176459
 20
0.000106
 30
0.0
 10
0.000071
 20
0.000106
 30
0.0
 10
0.000071
 20
0.176495
 30
0.0
  0
LWPOLYLINE
  5
125
100
AcDbEntity
  8
OsloMet_Logosymbol_CMYK_medguides
 62
2
100
AcDbPolyline
 90
2
 70
0
 10
0.000071
 20
0.528955
 30
0.0
 10
0.000071
 20
125.834916
 30
0.0
  0
LWPOLYLINE
  5
126
100
AcDbEntity
  8
OsloMet_Logosymbol_CMYK_medguides
 62
2
100
AcDbPolyline
 90
3
 70
0
 10
0.000071
 20
126.011023
 30
0.0
 10
0.000071
 20
126.187412
 30
0.0
 10
0.176459
 20
126.187412
 30
0.0
  0
LWPOLYLINE
  5
127
100
AcDbEntity
  8
OsloMet_Logosymbol_CMYK_medguides
 62
2
100
AcDbPolyline
 90
2
 70
0
 10
0.529237
 20
126.187412
 30
0.0
 10
180.245879
 20
126.187412
 30
0.0
  0
LWPOLYLINE
  5
128
100
AcDbEntity
  8
OsloMet_Logosymbol_CMYK_medguides
 62
2
100
AcDbPolyline
 90
3
 70
0
 10
180.422127
 20
126.187412
 30
0.0
 10
180.598516
 20
126.187412
 30
0.0
 10
180.598516
 20
126.011023
 30
0.0
  0
LWPOLYLINE
  5
129
100
AcDbEntity
  8
OsloMet_Logosymbol_CMYK_medguides
 62
2
100
AcDbPolyline
 90
2
 70
0
 10
180.598516
 20
125.658598
 30
0.0
 10
180.598516
 20
0.352637
 30
0.0
  0
LWPOLYLINE
  5
12a
100
AcDbEntity
  8
OsloMet_Logosymbol_CMYK_medguides
 62
2
100
AcDbPolyline
 90
2
 70
0
 10
87.126551
 20
99.963358
 30
0.0
 10
87.126551
 20
74.357336
 30
0.0
  0
LWPOLYLINE
  5
12b
100
AcDbEntity
  8
OsloMet_Logosymbol_CMYK_medguides
 62
2
100
AcDbPolyline
 90
3
 70
0
 10
85.826000
 20
98.807164
 30
0.0
 10
87.117167
 20
100.098331
 30
0.0
 10
88.426678
 20
98.788820
 30
0.0
  0
LWPOLYLINE
  5
12c
100
AcDbEntity
  8
OsloMet_Logosymbol_CMYK_medguides
 62
2
100
AcDbPolyline
 90
3
 70
0
 10
88.426713
 20
75.648573
 30
0.0
 10
87.135547
 20
74.357406
 30
0.0
 10
85.826036
 20
75.666565
 30
0.0
  0
LWPOLYLINE
  5
12d
100
AcDbEntity
  8
OsloMet_Logosymbol_CMYK_medguides
 62
2
100
AcDbPolyline
 90
2
 70
0
 10
87.126551
 20
125.898028
 30
0.0
 10
87.126551
 20
100.292006
 30
0.0
  0
LWPOLYLINE
  5
12e
100
AcDbEntity
  8
OsloMet_Logosymbol_CMYK_medguides
 62
2
100
AcDbPolyline
 90
3
 70
0
 10
85.826000
 20
124.741869
 30
0.0
 10
87.117167
 20
126.032683
 30
0.0
 10
88.426678
 20
124.723525
 30
0.0
  0
LWPOLYLINE
  5
12f
100
AcDbEntity
  8
OsloMet_Logosymbol_CMYK_medguides
 62
2
100
AcDbPolyline
 90
3
 70
0
 10
88.426713
 20
101.582890
 30
0.0
 10
87.135547
 20
100.292076
 30
0.0
 10
85.826036
 20
101.601235
 30
0.0
  0
LWPOLYLINE
  5
130
100
AcDbEntity
  8
OsloMet_Logosymbol_CMYK_medguides
 62
2
100
AcDbPolyline
 90
2
 70
0
 10
87.126551
 20
25.700884
 30
0.0
 10
87.126551
 20
0.094862
 30
0.0
  0
LWPOLYLINE
  5
131
100
AcDbEntity
  8
OsloMet_Logosymbol_CMYK_medguides
 62
2
100
AcDbPolyline
 90
3
 70
0
 10
85.826000
 20
24.544690
 30
0.0
 10
87.117167
 20
25.835857
 30
0.0
 10
88.426678
 20
24.526346
 30
0.0
  0
LWPOLYLINE
  5
132
100
AcDbEntity
  8
OsloMet_Logosymbol_CMYK_medguides
 62
2
100
AcDbPolyline
 90
3
 70
0
 10
88.426713
 20
1.385746
 30
0.0
 10
87.135547
 20
0.094933
 30
0.0
 10
85.826036
 20
1.404091
 30
0.0
  0
LWPOLYLINE
  5
133
100
AcDbEntity
  8
OsloMet_Logosymbol_CMYK_medguides
 62
2
100
AcDbPolyline
 90
2
 70
0
 10
180.233708
 20
65.785929
 30
0.0
 10
154.627686
 20
65.785929
 30
0.0
  0
LWPOLYLINE
  5
134
100
AcDbEntity
  8
OsloMet_Logosymbol_CMYK_medguides
 62
2
100
AcDbPolyline
 90
3
 70
0
 10
179.077867
 20
67.086127
 30
0.0
 10
180.368681
 20
65.794961
 30
0.0
 10
179.059522
 20
64.485802
 30
0.0
  0
LWPOLYLINE
  5
135
100
AcDbEntity
  8
OsloMet_Logosymbol_CMYK_medguides
 62
2
100
AcDbPolyline
 90
3
 70
0
 10
155.918888
 20
64.485767
 30
0.0
 10
154.627721
 20
65.776581
 30
0.0
 10
155.937232
 20
67.086092
 30
0.0
  0
LWPOLYLINE
  5
136
100
AcDbEntity
  8
OsloMet_Logosymbol_CMYK_medguides
 62
2
100
AcDbPolyline
 90
2
 70
0
 10
25.817618
 20
65.785929
 30
0.0
 10
0.211596
 20
65.785929
 30
0.0
  0
LWPOLYLINE
  5
137
100
AcDbEntity
  8
OsloMet_Logosymbol_CMYK_medguides
 62
2
100
AcDbPolyline
 90
3
 70
0
 10
24.661460
 20
67.086127
 30
0.0
 10
25.952626
 20
65.794961
 30
0.0
 10
24.643468
 20
64.485802
 30
0.0
  0
LWPOLYLINE
  5
138
100
AcDbEntity
  8
OsloMet_Logosymbol_CMYK_medguides
 62
2
100
AcDbPolyline
 90
3
 70
0
 10
1.502833
 20
64.485767
 30
0.0
 10
0.211667
 20
65.776581
 30
0.0
 10
1.521178
 20
67.086092
 30
0.0
  0
LWPOLYLINE
  5
139
100
AcDbEntity
  8
OsloMet_Logosymbol_CMYK_medguides
 62
2
100
AcDbPolyline
 90
3
 70
0
 10
154.400991
 20
26.188353
 30
0.0
 10
154.400991
 20
26.012316
 30
0.0
 10
154.224955
 20
26.012316
 30
0.0
  0
LWPOLYLINE
  5
13a
100
AcDbEntity
  8
OsloMet_Logosymbol_CMYK_medguides
 62
2
100
AcDbPolyline
 90
2
 70
0
 10
153.872494
 20
26.012316
 30
0.0
 10
26.549703
 20
26.012316
 30
0.0
  0
LWPOLYLINE
  5
13b
100
AcDbEntity
  8
OsloMet_Logosymbol_CMYK_medguides
 62
2
100
AcDbPolyline
 90
3
 70
0
 10
26.373667
 20
26.012316
 30
0.0
 10
26.197278
 20
26.012316
 30
0.0
 10
26.197278
 20
26.188352
 30
0.0
  0
LWPOLYLINE
  5
13c
100
AcDbEntity
  8
OsloMet_Logosymbol_CMYK_medguides
 62
2
100
AcDbPolyline
 90
2
 70
0
 10
26.197278
 20
26.541836
 30
0.0
 10
26.197278
 20
99.857172
 30
0.0
  0
LWPOLYLINE
  5
13d
100
AcDbEntity
  8
OsloMet_Logosymbol_CMYK_medguides
 62
2
100
AcDbPolyline
 90
3
 70
0
 10
26.197278
 20
100.033984
 30
0.0
 10
26.197278
 20
100.210373
 30
0.0
 10
26.373667
 20
100.210373
 30
0.0
  0
LWPOLYLINE
  5
13e
100
AcDbEntity
  8
OsloMet_Logosymbol_CMYK_medguides
 62
2
100
AcDbPolyline
 90
2
 70
0
 10
26.725739
 20
100.210373
 30
0.0
 10
154.048883
 20
100.210373
 30
0.0
  0
LWPOLYLINE
  5
13f
100
AcDbEntity
  8
OsloMet_Logosymbol_CMYK_medguides
 62
2
100
AcDbPolyline
 90
3
 70
0
 10
154.224955
 20
100.210373
 30
0.0
 10
154.400991
 20
100.210373
 30
0.0
 10
154.400991
 20
100.033984
 30
0.0
  0
LWPOLYLINE
  5
140
100
AcDbEntity
  8
OsloMet_Logosymbol_CMYK_medguides
 62
2
100
AcDbPolyline
 90
2
 70
0
 10
154.400991
 20
99.680854
 30
0.0
 10
154.400991
 20
26.365165
 30
0.0
  0
ENDSEC
  0
SECTION
  2
OBJECTS
  0
DICTIONARY
  5
C
330
0
100
AcDbDictionary
  3
ACAD_GROUP
350
D
  3
ACAD_MLINESTYLE
350
17
  0
DICTIONARY
  5
D
330
C
100
AcDbDictionary
  0
DICTIONARY
  5
1A
330
C
100
AcDbDictionary
  0
DICTIONARY
  5
17
330
C
100
AcDbDictionary
  3
STANDARD
350
18
  0
DICTIONARY
  5
19
330
C
100
AcDbDictionary
  0
ENDSEC
  0
EOF
