  0
SECTION
  2
BLOCKS
  0
ENDSEC
  0
SECTION
  2
ENTITIES
  0
LINE
  8
0
 10
37.8308
 20
106.613
 11
38.1556
 21
106.948
  0
LINE
  8
0
 10
38.1556
 20
106.948
 11
38.4642
 21
107.297
  0
LINE
  8
0
 10
38.4642
 20
107.297
 11
38.7562
 21
107.659
  0
LINE
  8
0
 10
38.7562
 20
107.659
 11
39.0312
 21
108.034
  0
LINE
  8
0
 10
39.0312
 20
108.034
 11
39.2887
 21
108.42
  0
LINE
  8
0
 10
39.2887
 20
108.42
 11
39.5283
 21
108.817
  0
LINE
  8
0
 10
39.5283
 20
108.817
 11
39.7496
 21
109.224
  0
LINE
  8
0
 10
39.7496
 20
109.224
 11
39.9521
 21
109.641
  0
LINE
  8
0
 10
39.9521
 20
109.641
 11
40.1353
 21
110.066
  0
LINE
  8
0
 10
40.1353
 20
110.066
 11
40.2989
 21
110.499
  0
LINE
  8
0
 10
40.2989
 20
110.499
 11
40.4424
 21
110.939
  0
LINE
  8
0
 10
40.4424
 20
110.939
 11
40.5653
 21
111.385
  0
LINE
  8
0
 10
40.5653
 20
111.385
 11
40.6673
 21
111.837
  0
LINE
  8
0
 10
40.6673
 20
111.837
 11
40.7478
 21
112.294
  0
LINE
  8
0
 10
40.7478
 20
112.294
 11
40.8065
 21
112.754
  0
LINE
  8
0
 10
40.8065
 20
112.754
 11
40.8429
 21
113.218
  0
LINE
  8
0
 10
40.8429
 20
113.218
 11
40.8566
 21
113.685
  0
LINE
  8
0
 10
40.8566
 20
113.685
 11
40.847
 21
114.152
  0
LINE
  8
0
 10
40.847
 20
114.152
 11
40.8139
 21
114.621
  0
LINE
  8
0
 10
40.8139
 20
114.621
 11
40.7567
 21
115.09
  0
LINE
  8
0
 10
40.7567
 20
115.09
 11
40.675
 21
115.559
  0
LINE
  8
0
 10
40.675
 20
115.559
 11
40.5685
 21
116.026
  0
LINE
  8
0
 10
40.5685
 20
116.026
 11
40.415
 21
116.569
  0
LINE
  8
0
 10
40.415
 20
116.569
 11
40.2369
 21
117.097
  0
LINE
  8
0
 10
40.2369
 20
117.097
 11
40.0343
 21
117.608
  0
LINE
  8
0
 10
40.0343
 20
117.608
 11
39.8077
 21
118.103
  0
LINE
  8
0
 10
39.8077
 20
118.103
 11
39.5573
 21
118.581
  0
LINE
  8
0
 10
39.5573
 20
118.581
 11
39.2836
 21
119.041
  0
LINE
  8
0
 10
39.2836
 20
119.041
 11
38.9867
 21
119.483
  0
LINE
  8
0
 10
38.9867
 20
119.483
 11
38.6671
 21
119.908
  0
LINE
  8
0
 10
38.6671
 20
119.908
 11
38.3252
 21
120.313
  0
LINE
  8
0
 10
38.3252
 20
120.313
 11
37.9611
 21
120.7
  0
LINE
  8
0
 10
37.9611
 20
120.7
 11
37.5754
 21
121.066
  0
LINE
  8
0
 10
37.5754
 20
121.066
 11
37.1682
 21
121.413
  0
LINE
  8
0
 10
37.1682
 20
121.413
 11
36.7399
 21
121.74
  0
LINE
  8
0
 10
36.7399
 20
121.74
 11
36.2909
 21
122.046
  0
LINE
  8
0
 10
36.2909
 20
122.046
 11
35.8215
 21
122.33
  0
LINE
  8
0
 10
35.8215
 20
122.33
 11
35.3321
 21
122.593
  0
LINE
  8
0
 10
35.3321
 20
122.593
 11
35.0539
 21
122.73
  0
LINE
  8
0
 10
35.0539
 20
122.73
 11
34.7857
 21
122.855
  0
LINE
  8
0
 10
34.7857
 20
122.855
 11
34.5253
 21
122.968
  0
LINE
  8
0
 10
34.5253
 20
122.968
 11
34.2708
 21
123.07
  0
LINE
  8
0
 10
34.2708
 20
123.07
 11
33.7703
 21
123.24
  0
LINE
  8
0
 10
33.7703
 20
123.24
 11
33.2672
 21
123.371
  0
LINE
  8
0
 10
33.2672
 20
123.371
 11
32.7444
 21
123.466
  0
LINE
  8
0
 10
32.7444
 20
123.466
 11
32.4704
 21
123.501
  0
LINE
  8
0
 10
32.4704
 20
123.501
 11
32.185
 21
123.528
  0
LINE
  8
0
 10
32.185
 20
123.528
 11
31.8862
 21
123.548
  0
LINE
  8
0
 10
31.8862
 20
123.548
 11
31.5718
 21
123.562
  0
LINE
  8
0
 10
31.5718
 20
123.562
 11
31.2398
 21
123.569
  0
LINE
  8
0
 10
31.2398
 20
123.569
 11
30.8879
 21
123.571
  0
LINE
  8
0
 10
30.8879
 20
123.571
 11
30.6191
 21
123.569
  0
LINE
  8
0
 10
30.6191
 20
123.569
 11
30.3722
 21
123.566
  0
LINE
  8
0
 10
30.3722
 20
123.566
 11
30.1447
 21
123.56
  0
LINE
  8
0
 10
30.1447
 20
123.56
 11
29.9343
 21
123.552
  0
LINE
  8
0
 10
29.9343
 20
123.552
 11
29.7385
 21
123.542
  0
LINE
  8
0
 10
29.7385
 20
123.542
 11
29.5549
 21
123.528
  0
LINE
  8
0
 10
29.5549
 20
123.528
 11
29.2148
 21
123.49
  0
LINE
  8
0
 10
29.2148
 20
123.49
 11
28.8947
 21
123.436
  0
LINE
  8
0
 10
28.8947
 20
123.436
 11
28.5755
 21
123.363
  0
LINE
  8
0
 10
28.5755
 20
123.363
 11
28.2377
 21
123.268
  0
LINE
  8
0
 10
28.2377
 20
123.268
 11
28.0559
 21
123.212
  0
LINE
  8
0
 10
28.0559
 20
123.212
 11
27.8622
 21
123.149
  0
LINE
  8
0
 10
27.8622
 20
123.149
 11
27.4077
 21
122.987
  0
LINE
  8
0
 10
27.4077
 20
122.987
 11
26.9626
 21
122.802
  0
LINE
  8
0
 10
26.9626
 20
122.802
 11
26.5276
 21
122.597
  0
LINE
  8
0
 10
26.5276
 20
122.597
 11
26.1036
 21
122.37
  0
LINE
  8
0
 10
26.1036
 20
122.37
 11
25.6913
 21
122.124
  0
LINE
  8
0
 10
25.6913
 20
122.124
 11
25.2914
 21
121.859
  0
LINE
  8
0
 10
25.2914
 20
121.859
 11
24.9047
 21
121.575
  0
LINE
  8
0
 10
24.9047
 20
121.575
 11
24.5319
 21
121.272
  0
LINE
  8
0
 10
24.5319
 20
121.272
 11
24.174
 21
120.953
  0
LINE
  8
0
 10
24.174
 20
120.953
 11
23.8314
 21
120.617
  0
LINE
  8
0
 10
23.8314
 20
120.617
 11
23.5052
 21
120.264
  0
LINE
  8
0
 10
23.5052
 20
120.264
 11
23.1959
 21
119.897
  0
LINE
  8
0
 10
23.1959
 20
119.897
 11
22.9044
 21
119.514
  0
LINE
  8
0
 10
22.9044
 20
119.514
 11
22.6315
 21
119.117
  0
LINE
  8
0
 10
22.6315
 20
119.117
 11
22.3779
 21
118.707
  0
LINE
  8
0
 10
22.3779
 20
118.707
 11
22.1442
 21
118.284
  0
LINE
  8
0
 10
22.1442
 20
118.284
 11
21.8751
 21
117.731
  0
LINE
  8
0
 10
21.8751
 20
117.731
 11
21.6466
 21
117.18
  0
LINE
  8
0
 10
21.6466
 20
117.18
 11
21.4574
 21
116.627
  0
LINE
  8
0
 10
21.4574
 20
116.627
 11
21.306
 21
116.066
  0
LINE
  8
0
 10
21.306
 20
116.066
 11
21.1913
 21
115.491
  0
LINE
  8
0
 10
21.1913
 20
115.491
 11
21.1117
 21
114.897
  0
LINE
  8
0
 10
21.1117
 20
114.897
 11
21.066
 21
114.277
  0
LINE
  8
0
 10
21.066
 20
114.277
 11
21.0528
 21
113.626
  0
LINE
  8
0
 10
21.0528
 20
113.626
 11
21.0621
 21
113.205
  0
LINE
  8
0
 10
21.0621
 20
113.205
 11
21.0866
 21
112.792
  0
LINE
  8
0
 10
21.0866
 20
112.792
 11
21.1266
 21
112.386
  0
LINE
  8
0
 10
21.1266
 20
112.386
 11
21.1821
 21
111.988
  0
LINE
  8
0
 10
21.1821
 20
111.988
 11
21.2534
 21
111.596
  0
LINE
  8
0
 10
21.2534
 20
111.596
 11
21.3405
 21
111.211
  0
LINE
  8
0
 10
21.3405
 20
111.211
 11
21.4438
 21
110.831
  0
LINE
  8
0
 10
21.4438
 20
110.831
 11
21.5632
 21
110.457
  0
LINE
  8
0
 10
21.5632
 20
110.457
 11
21.6991
 21
110.087
  0
LINE
  8
0
 10
21.6991
 20
110.087
 11
21.8515
 21
109.721
  0
LINE
  8
0
 10
21.8515
 20
109.721
 11
22.0205
 21
109.36
  0
LINE
  8
0
 10
22.0205
 20
109.36
 11
22.2065
 21
109.002
  0
LINE
  8
0
 10
22.2065
 20
109.002
 11
22.4094
 21
108.646
  0
LINE
  8
0
 10
22.4094
 20
108.646
 11
22.6295
 21
108.294
  0
LINE
  8
0
 10
22.6295
 20
108.294
 11
22.867
 21
107.943
  0
LINE
  8
0
 10
22.867
 20
107.943
 11
23.122
 21
107.594
  0
LINE
  8
0
 10
23.122
 20
107.594
 11
23.4874
 21
107.142
  0
LINE
  8
0
 10
23.4874
 20
107.142
 11
23.8798
 21
106.717
  0
LINE
  8
0
 10
23.8798
 20
106.717
 11
24.2991
 21
106.319
  0
LINE
  8
0
 10
24.2991
 20
106.319
 11
24.7451
 21
105.947
  0
LINE
  8
0
 10
24.7451
 20
105.947
 11
25.0619
 21
105.712
  0
LINE
  8
0
 10
25.0619
 20
105.712
 11
25.5743
 21
105.371
  0
LINE
  8
0
 10
25.5743
 20
105.371
 11
26.1155
 21
105.06
  0
LINE
  8
0
 10
26.1155
 20
105.06
 11
26.6856
 21
104.777
  0
LINE
  8
0
 10
26.6856
 20
104.777
 11
27.2845
 21
104.523
  0
LINE
  8
0
 10
27.2845
 20
104.523
 11
27.9121
 21
104.299
  0
LINE
  8
0
 10
27.9121
 20
104.299
 11
28.5684
 21
104.103
  0
LINE
  8
0
 10
28.5684
 20
104.103
 11
29.2534
 21
103.937
  0
LINE
  8
0
 10
29.2534
 20
103.937
 11
29.967
 21
103.801
  0
LINE
  8
0
 10
29.967
 20
103.801
 11
30.0856
 21
103.785
  0
LINE
  8
0
 10
30.0856
 20
103.785
 11
30.2219
 21
103.774
  0
LINE
  8
0
 10
30.2219
 20
103.774
 11
30.3743
 21
103.768
  0
LINE
  8
0
 10
30.3743
 20
103.768
 11
30.5409
 21
103.766
  0
LINE
  8
0
 10
30.5409
 20
103.766
 11
30.9101
 21
103.774
  0
LINE
  8
0
 10
30.9101
 20
103.774
 11
31.3153
 21
103.798
  0
LINE
  8
0
 10
31.3153
 20
103.798
 11
31.7075
 21
103.832
  0
LINE
  8
0
 10
31.7075
 20
103.832
 11
32.2812
 21
103.899
  0
LINE
  8
0
 10
32.2812
 20
103.899
 11
32.8405
 21
103.984
  0
LINE
  8
0
 10
32.8405
 20
103.984
 11
33.105
 21
104.033
  0
LINE
  8
0
 10
33.105
 20
104.033
 11
33.3542
 21
104.085
  0
LINE
  8
0
 10
33.3542
 20
104.085
 11
33.5842
 21
104.14
  0
LINE
  8
0
 10
33.5842
 20
104.14
 11
33.7911
 21
104.198
  0
LINE
  8
0
 10
33.7911
 20
104.198
 11
34.2533
 21
104.351
  0
LINE
  8
0
 10
34.2533
 20
104.351
 11
34.7037
 21
104.526
  0
LINE
  8
0
 10
34.7037
 20
104.526
 11
35.1419
 21
104.722
  0
LINE
  8
0
 10
35.1419
 20
104.722
 11
35.5675
 21
104.938
  0
LINE
  8
0
 10
35.5675
 20
104.938
 11
35.98
 21
105.174
  0
LINE
  8
0
 10
35.98
 20
105.174
 11
36.3789
 21
105.428
  0
LINE
  8
0
 10
36.3789
 20
105.428
 11
36.7639
 21
105.699
  0
LINE
  8
0
 10
36.7639
 20
105.699
 11
37.1346
 21
105.988
  0
LINE
  8
0
 10
37.1346
 20
105.988
 11
37.4903
 21
106.293
  0
LINE
  8
0
 10
37.4903
 20
106.293
 11
37.8308
 21
106.613
  0
LINE
  8
0
 10
23.8634
 20
77.5545
 11
23.3333
 21
78.4282
  0
LINE
  8
0
 10
23.3333
 20
78.4282
 11
23.2261
 21
78.6383
  0
LINE
  8
0
 10
23.2261
 20
78.6383
 11
23.1882
 21
78.711
  0
LINE
  8
0
 10
23.1882
 20
78.711
 11
23.1421
 21
78.7991
  0
LINE
  8
0
 10
23.1421
 20
78.7991
 11
23.1031
 21
78.8733
  0
LINE
  8
0
 10
23.1031
 20
78.8733
 11
23.0308
 21
79.009
  0
LINE
  8
0
 10
23.0308
 20
79.009
 11
22.9785
 21
79.1073
  0
LINE
  8
0
 10
22.9785
 20
79.1073
 11
22.9635
 21
79.1353
  0
LINE
  8
0
 10
22.9635
 20
79.1353
 11
22.8134
 21
79.413
  0
LINE
  8
0
 10
22.8134
 20
79.413
 11
22.8061
 21
79.4264
  0
LINE
  8
0
 10
22.8061
 20
79.4264
 11
22.645
 21
79.7213
  0
LINE
  8
0
 10
22.645
 20
79.7213
 11
22.6301
 21
79.7486
  0
LINE
  8
0
 10
22.6301
 20
79.7486
 11
22.4344
 21
80.1039
  0
LINE
  8
0
 10
22.4344
 20
80.1039
 11
22.3539
 21
80.2494
  0
LINE
  8
0
 10
22.3539
 20
80.2494
 11
22.2727
 21
80.3959
  0
LINE
  8
0
 10
22.2727
 20
80.3959
 11
22.218
 21
80.4946
  0
LINE
  8
0
 10
22.218
 20
80.4946
 11
22.1668
 21
80.5868
  0
LINE
  8
0
 10
22.1668
 20
80.5868
 11
21.9799
 21
80.9226
  0
LINE
  8
0
 10
21.9799
 20
80.9226
 11
21.6608
 21
81.4964
  0
LINE
  8
0
 10
21.6608
 20
81.4964
 11
21.3483
 21
82.0605
  0
LINE
  8
0
 10
21.3483
 20
82.0605
 11
21.0491
 21
82.6028
  0
LINE
  8
0
 10
21.0491
 20
82.6028
 11
20.7623
 21
83.1251
  0
LINE
  8
0
 10
20.7623
 20
83.1251
 11
20.4862
 21
83.6308
  0
LINE
  8
0
 10
20.4862
 20
83.6308
 11
20.2273
 21
84.1076
  0
LINE
  8
0
 10
20.2273
 20
84.1076
 11
19.979
 21
84.568
  0
LINE
  8
0
 10
19.979
 20
84.568
 11
19.9693
 21
84.5861
  0
LINE
  8
0
 10
19.9693
 20
84.5861
 11
19.743
 21
85.0088
  0
LINE
  8
0
 10
19.743
 20
85.0088
 11
19.5141
 21
85.4399
  0
LINE
  8
0
 10
19.5141
 20
85.4399
 11
19.3036
 21
85.8399
  0
LINE
  8
0
 10
19.3036
 20
85.8399
 11
19.2954
 21
85.8555
  0
LINE
  8
0
 10
19.2954
 20
85.8555
 11
19.1022
 21
86.2263
  0
LINE
  8
0
 10
19.1022
 20
86.2263
 11
19.0911
 21
86.2477
  0
LINE
  8
0
 10
19.0911
 20
86.2477
 11
18.9131
 21
86.5935
  0
LINE
  8
0
 10
18.9131
 20
86.5935
 11
18.8958
 21
86.6272
  0
LINE
  8
0
 10
18.8958
 20
86.6272
 11
18.7333
 21
86.9467
  0
LINE
  8
0
 10
18.7333
 20
86.9467
 11
18.717
 21
86.979
  0
LINE
  8
0
 10
18.717
 20
86.979
 11
18.5643
 21
87.2832
  0
LINE
  8
0
 10
18.5643
 20
87.2832
 11
18.5426
 21
87.327
  0
LINE
  8
0
 10
18.5426
 20
87.327
 11
18.4048
 21
87.606
  0
LINE
  8
0
 10
18.4048
 20
87.606
 11
18.3823
 21
87.652
  0
LINE
  8
0
 10
18.3823
 20
87.652
 11
18.2575
 21
87.9091
  0
LINE
  8
0
 10
18.2575
 20
87.9091
 11
18.2299
 21
87.9664
  0
LINE
  8
0
 10
18.2299
 20
87.9664
 11
18.1189
 21
88.1995
  0
LINE
  8
0
 10
18.1189
 20
88.1995
 11
18.0889
 21
88.2632
  0
LINE
  8
0
 10
18.0889
 20
88.2632
 11
17.9891
 21
88.4777
  0
LINE
  8
0
 10
17.9891
 20
88.4777
 11
17.9581
 21
88.545
  0
LINE
  8
0
 10
17.9581
 20
88.545
 11
17.8682
 21
88.7428
  0
LINE
  8
0
 10
17.8682
 20
88.7428
 11
17.8369
 21
88.8126
  0
LINE
  8
0
 10
17.8369
 20
88.8126
 11
17.7558
 21
88.9961
  0
LINE
  8
0
 10
17.7558
 20
88.9961
 11
17.7252
 21
89.0662
  0
LINE
  8
0
 10
17.7252
 20
89.0662
 11
17.6513
 21
89.2387
  0
LINE
  8
0
 10
17.6513
 20
89.2387
 11
17.6227
 21
89.3065
  0
LINE
  8
0
 10
17.6227
 20
89.3065
 11
17.5664
 21
89.4425
  0
LINE
  8
0
 10
17.5664
 20
89.4425
 11
17.4643
 21
89.6981
  0
LINE
  8
0
 10
17.4643
 20
89.6981
 11
17.4397
 21
89.7601
  0
LINE
  8
0
 10
17.4397
 20
89.7601
 11
17.3942
 21
89.8802
  0
LINE
  8
0
 10
17.3942
 20
89.8802
 11
17.3093
 21
90.1148
  0
LINE
  8
0
 10
17.3093
 20
90.1148
 11
17.2905
 21
90.167
  0
LINE
  8
0
 10
17.2905
 20
90.167
 11
17.252
 21
90.2809
  0
LINE
  8
0
 10
17.252
 20
90.2809
 11
17.2106
 21
90.4124
  0
LINE
  8
0
 10
17.2106
 20
90.4124
 11
17.1375
 21
90.654
  0
LINE
  8
0
 10
17.1375
 20
90.654
 11
17.1047
 21
90.7813
  0
LINE
  8
0
 10
17.1047
 20
90.7813
 11
17.0553
 21
90.9811
  0
LINE
  8
0
 10
17.0553
 20
90.9811
 11
17.0194
 21
91.1718
  0
LINE
  8
0
 10
17.0194
 20
91.1718
 11
16.9993
 21
91.2812
  0
LINE
  8
0
 10
16.9993
 20
91.2812
 11
16.9927
 21
91.3417
  0
LINE
  8
0
 10
16.9927
 20
91.3417
 11
16.98
 21
91.4899
  0
LINE
  8
0
 10
16.98
 20
91.4899
 11
16.9772
 21
91.5755
  0
LINE
  8
0
 10
16.9772
 20
91.5755
 11
16.9793
 21
91.6207
  0
LINE
  8
0
 10
16.9793
 20
91.6207
 11
16.9871
 21
91.7738
  0
LINE
  8
0
 10
16.9871
 20
91.7738
 11
16.9974
 21
91.8508
  0
LINE
  8
0
 10
16.9974
 20
91.8508
 11
17.0291
 21
91.9996
  0
LINE
  8
0
 10
17.0291
 20
91.9996
 11
17.0385
 21
92.0409
  0
LINE
  8
0
 10
17.0385
 20
92.0409
 11
17.0657
 21
92.1239
  0
LINE
  8
0
 10
17.0657
 20
92.1239
 11
17.0796
 21
92.1622
  0
LINE
  8
0
 10
17.0796
 20
92.1622
 11
17.1148
 21
92.2417
  0
LINE
  8
0
 10
17.1148
 20
92.2417
 11
17.1334
 21
92.2798
  0
LINE
  8
0
 10
17.1334
 20
92.2798
 11
17.1749
 21
92.3519
  0
LINE
  8
0
 10
17.1749
 20
92.3519
 11
17.1984
 21
92.3887
  0
LINE
  8
0
 10
17.1984
 20
92.3887
 11
17.2459
 21
92.4532
  0
LINE
  8
0
 10
17.2459
 20
92.4532
 11
17.2743
 21
92.4876
  0
LINE
  8
0
 10
17.2743
 20
92.4876
 11
17.3276
 21
92.5445
  0
LINE
  8
0
 10
17.3276
 20
92.5445
 11
17.3611
 21
92.5756
  0
LINE
  8
0
 10
17.3611
 20
92.5756
 11
17.4198
 21
92.6244
  0
LINE
  8
0
 10
17.4198
 20
92.6244
 11
17.4578
 21
92.6509
  0
LINE
  8
0
 10
17.4578
 20
92.6509
 11
17.521
 21
92.6912
  0
LINE
  8
0
 10
17.521
 20
92.6912
 11
17.565
 21
92.7134
  0
LINE
  8
0
 10
17.565
 20
92.7134
 11
17.6309
 21
92.7442
  0
LINE
  8
0
 10
17.6309
 20
92.7442
 11
17.6823
 21
92.7615
  0
LINE
  8
0
 10
17.6823
 20
92.7615
 11
17.7482
 21
92.7826
  0
LINE
  8
0
 10
17.7482
 20
92.7826
 11
17.8094
 21
92.7942
  0
LINE
  8
0
 10
17.8094
 20
92.7942
 11
17.8715
 21
92.8056
  0
LINE
  8
0
 10
17.8715
 20
92.8056
 11
17.9523
 21
92.8105
  0
LINE
  8
0
 10
17.9523
 20
92.8105
 11
18.0003
 21
92.8134
  0
LINE
  8
0
 10
18.0003
 20
92.8134
 11
18.1633
 21
92.8015
  0
LINE
  8
0
 10
18.1633
 20
92.8015
 11
18.1777
 21
92.7996
  0
LINE
  8
0
 10
18.1777
 20
92.7996
 11
18.2308
 21
92.7888
  0
LINE
  8
0
 10
18.2308
 20
92.7888
 11
18.2646
 21
92.7809
  0
LINE
  8
0
 10
18.2646
 20
92.7809
 11
18.3184
 21
92.7643
  0
LINE
  8
0
 10
18.3184
 20
92.7643
 11
18.3507
 21
92.7528
  0
LINE
  8
0
 10
18.3507
 20
92.7528
 11
18.405
 21
92.7297
  0
LINE
  8
0
 10
18.405
 20
92.7297
 11
18.4368
 21
92.7143
  0
LINE
  8
0
 10
18.4368
 20
92.7143
 11
18.4918
 21
92.6841
  0
LINE
  8
0
 10
18.4918
 20
92.6841
 11
18.5245
 21
92.6635
  0
LINE
  8
0
 10
18.5245
 20
92.6635
 11
18.5794
 21
92.6262
  0
LINE
  8
0
 10
18.5794
 20
92.6262
 11
18.6138
 21
92.5995
  0
LINE
  8
0
 10
18.6138
 20
92.5995
 11
18.6687
 21
92.5549
  0
LINE
  8
0
 10
18.6687
 20
92.5549
 11
18.707
 21
92.5194
  0
LINE
  8
0
 10
18.707
 20
92.5194
 11
18.7599
 21
92.4693
  0
LINE
  8
0
 10
18.7599
 20
92.4693
 11
18.8025
 21
92.4238
  0
LINE
  8
0
 10
18.8025
 20
92.4238
 11
18.8537
 21
92.3685
  0
LINE
  8
0
 10
18.8537
 20
92.3685
 11
18.9485
 21
92.2543
  0
LINE
  8
0
 10
18.9485
 20
92.2543
 11
19.0322
 21
92.1431
  0
LINE
  8
0
 10
19.0322
 20
92.1431
 11
19.0471
 21
92.1232
  0
LINE
  8
0
 10
19.0471
 20
92.1232
 11
19.1407
 21
91.9883
  0
LINE
  8
0
 10
19.1407
 20
91.9883
 11
19.1495
 21
91.9754
  0
LINE
  8
0
 10
19.1495
 20
91.9754
 11
19.2448
 21
91.8279
  0
LINE
  8
0
 10
19.2448
 20
91.8279
 11
19.2574
 21
91.8082
  0
LINE
  8
0
 10
19.2574
 20
91.8082
 11
19.3582
 21
91.6424
  0
LINE
  8
0
 10
19.3582
 20
91.6424
 11
19.37
 21
91.6228
  0
LINE
  8
0
 10
19.37
 20
91.6228
 11
19.4882
 21
91.418
  0
LINE
  8
0
 10
19.4882
 20
91.418
 11
19.6112
 21
91.1948
  0
LINE
  8
0
 10
19.6112
 20
91.1948
 11
19.6388
 21
91.143
  0
LINE
  8
0
 10
19.6388
 20
91.143
 11
19.7428
 21
90.9471
  0
LINE
  8
0
 10
19.7428
 20
90.9471
 11
19.7692
 21
90.8958
  0
LINE
  8
0
 10
19.7692
 20
90.8958
 11
19.8818
 21
90.6765
  0
LINE
  8
0
 10
19.8818
 20
90.6765
 11
19.909
 21
90.6222
  0
LINE
  8
0
 10
19.909
 20
90.6222
 11
20.0297
 21
90.3805
  0
LINE
  8
0
 10
20.0297
 20
90.3805
 11
20.0551
 21
90.3286
  0
LINE
  8
0
 10
20.0551
 20
90.3286
 11
20.1863
 21
90.0594
  0
LINE
  8
0
 10
20.1863
 20
90.0594
 11
20.2115
 21
90.0069
  0
LINE
  8
0
 10
20.2115
 20
90.0069
 11
20.352
 21
89.7127
  0
LINE
  8
0
 10
20.352
 20
89.7127
 11
20.3784
 21
89.6568
  0
LINE
  8
0
 10
20.3784
 20
89.6568
 11
20.5273
 21
89.3393
  0
LINE
  8
0
 10
20.5273
 20
89.3393
 11
20.5545
 21
89.2809
  0
LINE
  8
0
 10
20.5545
 20
89.2809
 11
20.7148
 21
88.9341
  0
LINE
  8
0
 10
20.7148
 20
88.9341
 11
20.7396
 21
88.88
  0
LINE
  8
0
 10
20.7396
 20
88.88
 11
20.9102
 21
88.5065
  0
LINE
  8
0
 10
20.9102
 20
88.5065
 11
20.9396
 21
88.4416
  0
LINE
  8
0
 10
20.9396
 20
88.4416
 11
21.1198
 21
88.0428
  0
LINE
  8
0
 10
21.1198
 20
88.0428
 11
21.1482
 21
87.9797
  0
LINE
  8
0
 10
21.1482
 20
87.9797
 11
21.3415
 21
87.5481
  0
LINE
  8
0
 10
21.3415
 20
87.5481
 11
21.3692
 21
87.486
  0
LINE
  8
0
 10
21.3692
 20
87.486
 11
21.5715
 21
87.0312
  0
LINE
  8
0
 10
21.5715
 20
87.0312
 11
21.6049
 21
86.9558
  0
LINE
  8
0
 10
21.6049
 20
86.9558
 11
21.8156
 21
86.479
  0
LINE
  8
0
 10
21.8156
 20
86.479
 11
21.8564
 21
86.3865
  0
LINE
  8
0
 10
21.8564
 20
86.3865
 11
22.0946
 21
85.8449
  0
LINE
  8
0
 10
22.0946
 20
85.8449
 11
22.1153
 21
85.7978
  0
LINE
  8
0
 10
22.1153
 20
85.7978
 11
22.3895
 21
85.1718
  0
LINE
  8
0
 10
22.3895
 20
85.1718
 11
22.9062
 21
83.9886
  0
LINE
  8
0
 10
22.9062
 20
83.9886
 11
23.1292
 21
83.4797
  0
LINE
  8
0
 10
23.1292
 20
83.4797
 11
23.3327
 21
83.0164
  0
LINE
  8
0
 10
23.3327
 20
83.0164
 11
23.5379
 21
82.5507
  0
LINE
  8
0
 10
23.5379
 20
82.5507
 11
23.5546
 21
82.513
  0
LINE
  8
0
 10
23.5546
 20
82.513
 11
23.7348
 21
82.1054
  0
LINE
  8
0
 10
23.7348
 20
82.1054
 11
23.7547
 21
82.0605
  0
LINE
  8
0
 10
23.7547
 20
82.0605
 11
23.9221
 21
81.6831
  0
LINE
  8
0
 10
23.9221
 20
81.6831
 11
23.9447
 21
81.6323
  0
LINE
  8
0
 10
23.9447
 20
81.6323
 11
24.0988
 21
81.2863
  0
LINE
  8
0
 10
24.0988
 20
81.2863
 11
24.1235
 21
81.231
  0
LINE
  8
0
 10
24.1235
 20
81.231
 11
24.2637
 21
80.9175
  0
LINE
  8
0
 10
24.2637
 20
80.9175
 11
24.2898
 21
80.8593
  0
LINE
  8
0
 10
24.2898
 20
80.8593
 11
24.4156
 21
80.5792
  0
LINE
  8
0
 10
24.4156
 20
80.5792
 11
24.4425
 21
80.5198
  0
LINE
  8
0
 10
24.4425
 20
80.5198
 11
24.5536
 21
80.2741
  0
LINE
  8
0
 10
24.5536
 20
80.2741
 11
24.5803
 21
80.2153
  0
LINE
  8
0
 10
24.5803
 20
80.2153
 11
24.6763
 21
80.0045
  0
LINE
  8
0
 10
24.6763
 20
80.0045
 11
24.7021
 21
79.9484
  0
LINE
  8
0
 10
24.7021
 20
79.9484
 11
24.7828
 21
79.7731
  0
LINE
  8
0
 10
24.7828
 20
79.7731
 11
24.8065
 21
79.7218
  0
LINE
  8
0
 10
24.8065
 20
79.7218
 11
24.8717
 21
79.5823
  0
LINE
  8
0
 10
24.8717
 20
79.5823
 11
24.8926
 21
79.5383
  0
LINE
  8
0
 10
24.8926
 20
79.5383
 11
24.9283
 21
79.4635
  0
LINE
  8
0
 10
24.9283
 20
79.4635
 11
24.9422
 21
79.4348
  0
LINE
  8
0
 10
24.9422
 20
79.4348
 11
24.9589
 21
79.4004
  0
LINE
  8
0
 10
24.9589
 20
79.4004
 11
24.9704
 21
79.3773
  0
LINE
  8
0
 10
24.9704
 20
79.3773
 11
24.9843
 21
79.3495
  0
LINE
  8
0
 10
24.9843
 20
79.3495
 11
24.9934
 21
79.3318
  0
LINE
  8
0
 10
24.9934
 20
79.3318
 11
25.0044
 21
79.311
  0
LINE
  8
0
 10
25.0044
 20
79.311
 11
25.0136
 21
79.2943
  0
LINE
  8
0
 10
25.0136
 20
79.2943
 11
25.0189
 21
79.2852
  0
LINE
  8
0
 10
25.0189
 20
79.2852
 11
25.0215
 21
79.2811
  0
LINE
  8
0
 10
25.0215
 20
79.2811
 11
25.0241
 21
79.2773
  0
LINE
  8
0
 10
25.0241
 20
79.2773
 11
25.0248
 21
79.2763
  0
LINE
  8
0
 10
25.0248
 20
79.2763
 11
25.0278
 21
79.2726
  0
LINE
  8
0
 10
25.0278
 20
79.2726
 11
25.0286
 21
79.2719
  0
LINE
  8
0
 10
25.0286
 20
79.2719
 11
25.0295
 21
79.2714
  0
LINE
  8
0
 10
25.0295
 20
79.2714
 11
25.0308
 21
79.2709
  0
LINE
  8
0
 10
25.0308
 20
79.2709
 11
25.0318
 21
79.2708
  0
LINE
  8
0
 10
25.0318
 20
79.2708
 11
25.0327
 21
79.2708
  0
LINE
  8
0
 10
25.0327
 20
79.2708
 11
25.0339
 21
79.2708
  0
LINE
  8
0
 10
25.0339
 20
79.2708
 11
25.0353
 21
79.2711
  0
LINE
  8
0
 10
25.0353
 20
79.2711
 11
25.0367
 21
79.2715
  0
LINE
  8
0
 10
25.0367
 20
79.2715
 11
25.0378
 21
79.2719
  0
LINE
  8
0
 10
25.0378
 20
79.2719
 11
25.0399
 21
79.2727
  0
LINE
  8
0
 10
25.0399
 20
79.2727
 11
25.0414
 21
79.2735
  0
LINE
  8
0
 10
25.0414
 20
79.2735
 11
25.0434
 21
79.2745
  0
LINE
  8
0
 10
25.0434
 20
79.2745
 11
25.0494
 21
79.2784
  0
LINE
  8
0
 10
25.0494
 20
79.2784
 11
25.0514
 21
79.2799
  0
LINE
  8
0
 10
25.0514
 20
79.2799
 11
25.058
 21
79.2852
  0
LINE
  8
0
 10
25.058
 20
79.2852
 11
25.0718
 21
79.2977
  0
LINE
  8
0
 10
25.0718
 20
79.2977
 11
25.0954
 21
79.3222
  0
LINE
  8
0
 10
25.0954
 20
79.3222
 11
25.0976
 21
79.3246
  0
LINE
  8
0
 10
25.0976
 20
79.3246
 11
25.1305
 21
79.3625
  0
LINE
  8
0
 10
25.1305
 20
79.3625
 11
25.1651
 21
79.4048
  0
LINE
  8
0
 10
25.1651
 20
79.4048
 11
25.1722
 21
79.4137
  0
LINE
  8
0
 10
25.1722
 20
79.4137
 11
25.2441
 21
79.5072
  0
LINE
  8
0
 10
25.2441
 20
79.5072
 11
25.2528
 21
79.5188
  0
LINE
  8
0
 10
25.2528
 20
79.5188
 11
25.3288
 21
79.6222
  0
LINE
  8
0
 10
25.3288
 20
79.6222
 11
25.3593
 21
79.6645
  0
LINE
  8
0
 10
25.3593
 20
79.6645
 11
25.4017
 21
79.7241
  0
LINE
  8
0
 10
25.4017
 20
79.7241
 11
25.4834
 21
79.8403
  0
LINE
  8
0
 10
25.4834
 20
79.8403
 11
25.5677
 21
79.9622
  0
LINE
  8
0
 10
25.5677
 20
79.9622
 11
25.6239
 21
80.0443
  0
LINE
  8
0
 10
25.6239
 20
80.0443
 11
25.66
 21
80.0974
  0
LINE
  8
0
 10
25.66
 20
80.0974
 11
25.7796
 21
80.2747
  0
LINE
  8
0
 10
25.7796
 20
80.2747
 11
25.8081
 21
80.3171
  0
LINE
  8
0
 10
25.8081
 20
80.3171
 11
25.9498
 21
80.5302
  0
LINE
  8
0
 10
25.9498
 20
80.5302
 11
26.0924
 21
80.747
  0
LINE
  8
0
 10
26.0924
 20
80.747
 11
26.1317
 21
80.8071
  0
LINE
  8
0
 10
26.1317
 20
80.8071
 11
26.2422
 21
80.9769
  0
LINE
  8
0
 10
26.2422
 20
80.9769
 11
26.3256
 21
81.1056
  0
LINE
  8
0
 10
26.3256
 20
81.1056
 11
26.5332
 21
81.4284
  0
LINE
  8
0
 10
26.5332
 20
81.4284
 11
26.743
 21
81.7577
  0
LINE
  8
0
 10
26.743
 20
81.7577
 11
26.8429
 21
81.9155
  0
LINE
  8
0
 10
26.8429
 20
81.9155
 11
26.964
 21
82.1077
  0
LINE
  8
0
 10
26.964
 20
82.1077
 11
27.1391
 21
82.3871
  0
LINE
  8
0
 10
27.1391
 20
82.3871
 11
27.1916
 21
82.4713
  0
LINE
  8
0
 10
27.1916
 20
82.4713
 11
27.4245
 21
82.8465
  0
LINE
  8
0
 10
27.4245
 20
82.8465
 11
27.6374
 21
83.1904
  0
LINE
  8
0
 10
27.6374
 20
83.1904
 11
27.8388
 21
83.5148
  0
LINE
  8
0
 10
27.8388
 20
83.5148
 11
28.0294
 21
83.8203
  0
LINE
  8
0
 10
28.0294
 20
83.8203
 11
28.2095
 21
84.1076
  0
LINE
  8
0
 10
28.2095
 20
84.1076
 11
28.3797
 21
84.377
  0
LINE
  8
0
 10
28.3797
 20
84.377
 11
28.5404
 21
84.6293
  0
LINE
  8
0
 10
28.5404
 20
84.6293
 11
28.6921
 21
84.8649
  0
LINE
  8
0
 10
28.6921
 20
84.8649
 11
28.8331
 21
85.0812
  0
LINE
  8
0
 10
28.8331
 20
85.0812
 11
28.9686
 21
85.2857
  0
LINE
  8
0
 10
28.9686
 20
85.2857
 11
29.0959
 21
85.4744
  0
LINE
  8
0
 10
29.0959
 20
85.4744
 11
29.1356
 21
85.532
  0
LINE
  8
0
 10
29.1356
 20
85.532
 11
29.2166
 21
85.6494
  0
LINE
  8
0
 10
29.2166
 20
85.6494
 11
29.331
 21
85.8111
  0
LINE
  8
0
 10
29.331
 20
85.8111
 11
29.4395
 21
85.9597
  0
LINE
  8
0
 10
29.4395
 20
85.9597
 11
29.5415
 21
86.0944
  0
LINE
  8
0
 10
29.5415
 20
86.0944
 11
29.6385
 21
86.2171
  0
LINE
  8
0
 10
29.6385
 20
86.2171
 11
29.7309
 21
86.3284
  0
LINE
  8
0
 10
29.7309
 20
86.3284
 11
29.9036
 21
86.5183
  0
LINE
  8
0
 10
29.9036
 20
86.5183
 11
30.063
 21
86.668
  0
LINE
  8
0
 10
30.063
 20
86.668
 11
30.1572
 21
86.7399
  0
LINE
  8
0
 10
30.1572
 20
86.7399
 11
30.2131
 21
86.7825
  0
LINE
  8
0
 10
30.2131
 20
86.7825
 11
30.3108
 21
86.8389
  0
LINE
  8
0
 10
30.3108
 20
86.8389
 11
30.3577
 21
86.866
  0
LINE
  8
0
 10
30.3577
 20
86.866
 11
30.4583
 21
86.9062
  0
LINE
  8
0
 10
30.4583
 20
86.9062
 11
30.5006
 21
86.9231
  0
LINE
  8
0
 10
30.5006
 20
86.9231
 11
30.609
 21
86.9495
  0
LINE
  8
0
 10
30.609
 20
86.9495
 11
30.6455
 21
86.9583
  0
LINE
  8
0
 10
30.6455
 20
86.9583
 11
30.7964
 21
86.9762
  0
LINE
  8
0
 10
30.7964
 20
86.9762
 11
30.9572
 21
86.9812
  0
LINE
  8
0
 10
30.9572
 20
86.9812
 11
30.9958
 21
86.979
  0
LINE
  8
0
 10
30.9958
 20
86.979
 11
31.0609
 21
86.9752
  0
LINE
  8
0
 10
31.0609
 20
86.9752
 11
31.1159
 21
86.9657
  0
LINE
  8
0
 10
31.1159
 20
86.9657
 11
31.162
 21
86.9575
  0
LINE
  8
0
 10
31.162
 20
86.9575
 11
31.2207
 21
86.9405
  0
LINE
  8
0
 10
31.2207
 20
86.9405
 11
31.2598
 21
86.9287
  0
LINE
  8
0
 10
31.2598
 20
86.9287
 11
31.3181
 21
86.9046
  0
LINE
  8
0
 10
31.3181
 20
86.9046
 11
31.3537
 21
86.8893
  0
LINE
  8
0
 10
31.3537
 20
86.8893
 11
31.411
 21
86.858
  0
LINE
  8
0
 10
31.411
 20
86.858
 11
31.4426
 21
86.84
  0
LINE
  8
0
 10
31.4426
 20
86.84
 11
31.4975
 21
86.8022
  0
LINE
  8
0
 10
31.4975
 20
86.8022
 11
31.5262
 21
86.7815
  0
LINE
  8
0
 10
31.5262
 20
86.7815
 11
31.578
 21
86.7375
  0
LINE
  8
0
 10
31.578
 20
86.7375
 11
31.6037
 21
86.7145
  0
LINE
  8
0
 10
31.6037
 20
86.7145
 11
31.6521
 21
86.6646
  0
LINE
  8
0
 10
31.6521
 20
86.6646
 11
31.6749
 21
86.6398
  0
LINE
  8
0
 10
31.6749
 20
86.6398
 11
31.7191
 21
86.5845
  0
LINE
  8
0
 10
31.7191
 20
86.5845
 11
31.7392
 21
86.5578
  0
LINE
  8
0
 10
31.7392
 20
86.5578
 11
31.7791
 21
86.4972
  0
LINE
  8
0
 10
31.7791
 20
86.4972
 11
31.7961
 21
86.4697
  0
LINE
  8
0
 10
31.7961
 20
86.4697
 11
31.8308
 21
86.4046
  0
LINE
  8
0
 10
31.8308
 20
86.4046
 11
31.8454
 21
86.3754
  0
LINE
  8
0
 10
31.8454
 20
86.3754
 11
31.8748
 21
86.3059
  0
LINE
  8
0
 10
31.8748
 20
86.3059
 11
31.8864
 21
86.2763
  0
LINE
  8
0
 10
31.8864
 20
86.2763
 11
31.905
 21
86.2183
  0
LINE
  8
0
 10
31.905
 20
86.2183
 11
31.9347
 21
86.0999
  0
LINE
  8
0
 10
31.9347
 20
86.0999
 11
31.9429
 21
86.0639
  0
LINE
  8
0
 10
31.9429
 20
86.0639
 11
31.9504
 21
86.0075
  0
LINE
  8
0
 10
31.9504
 20
86.0075
 11
31.9603
 21
85.8845
  0
LINE
  8
0
 10
31.9603
 20
85.8845
 11
31.9622
 21
85.8407
  0
LINE
  8
0
 10
31.9622
 20
85.8407
 11
31.9614
 21
85.8246
  0
LINE
  8
0
 10
31.9614
 20
85.8246
 11
31.9586
 21
85.7871
  0
LINE
  8
0
 10
31.9586
 20
85.7871
 11
31.9547
 21
85.7594
  0
LINE
  8
0
 10
31.9547
 20
85.7594
 11
31.9504
 21
85.738
  0
LINE
  8
0
 10
31.9504
 20
85.738
 11
31.9281
 21
85.65
  0
LINE
  8
0
 10
31.9281
 20
85.65
 11
31.9214
 21
85.6282
  0
LINE
  8
0
 10
31.9214
 20
85.6282
 11
31.8753
 21
85.5025
  0
LINE
  8
0
 10
31.8753
 20
85.5025
 11
31.8742
 21
85.4996
  0
LINE
  8
0
 10
31.8742
 20
85.4996
 11
31.8422
 21
85.4286
  0
LINE
  8
0
 10
31.8422
 20
85.4286
 11
31.7877
 21
85.3102
  0
LINE
  8
0
 10
31.7877
 20
85.3102
 11
31.7229
 21
85.1829
  0
LINE
  8
0
 10
31.7229
 20
85.1829
 11
31.6617
 21
85.0665
  0
LINE
  8
0
 10
31.6617
 20
85.0665
 11
31.6333
 21
85.0142
  0
LINE
  8
0
 10
31.6333
 20
85.0142
 11
31.609
 21
84.9709
  0
LINE
  8
0
 10
31.609
 20
84.9709
 11
31.5082
 21
84.7939
  0
LINE
  8
0
 10
31.5082
 20
84.7939
 11
31.4811
 21
84.7469
  0
LINE
  8
0
 10
31.4811
 20
84.7469
 11
31.4393
 21
84.6761
  0
LINE
  8
0
 10
31.4393
 20
84.6761
 11
31.3308
 21
84.4943
  0
LINE
  8
0
 10
31.3308
 20
84.4943
 11
31.2955
 21
84.4358
  0
LINE
  8
0
 10
31.2955
 20
84.4358
 11
31.2509
 21
84.3628
  0
LINE
  8
0
 10
31.2509
 20
84.3628
 11
31.134
 21
84.1732
  0
LINE
  8
0
 10
31.134
 20
84.1732
 11
31.0797
 21
84.0858
  0
LINE
  8
0
 10
31.0797
 20
84.0858
 11
31.0365
 21
84.0168
  0
LINE
  8
0
 10
31.0365
 20
84.0168
 11
30.9606
 21
83.896
  0
LINE
  8
0
 10
30.9606
 20
83.896
 11
30.9109
 21
83.8176
  0
LINE
  8
0
 10
30.9109
 20
83.8176
 11
30.83
 21
83.69
  0
LINE
  8
0
 10
30.83
 20
83.69
 11
30.7744
 21
83.6029
  0
LINE
  8
0
 10
30.7744
 20
83.6029
 11
30.6972
 21
83.4824
  0
LINE
  8
0
 10
30.6972
 20
83.4824
 11
30.6279
 21
83.3746
  0
LINE
  8
0
 10
30.6279
 20
83.3746
 11
30.5554
 21
83.2623
  0
LINE
  8
0
 10
30.5554
 20
83.2623
 11
30.4749
 21
83.1377
  0
LINE
  8
0
 10
30.4749
 20
83.1377
 11
30.3916
 21
83.0096
  0
LINE
  8
0
 10
30.3916
 20
83.0096
 11
30.3149
 21
82.8915
  0
LINE
  8
0
 10
30.3149
 20
82.8915
 11
30.1476
 21
82.6354
  0
LINE
  8
0
 10
30.1476
 20
82.6354
 11
29.9668
 21
82.3599
  0
LINE
  8
0
 10
29.9668
 20
82.3599
 11
29.9157
 21
82.2823
  0
LINE
  8
0
 10
29.9157
 20
82.2823
 11
29.759
 21
82.0445
  0
LINE
  8
0
 10
29.759
 20
82.0445
 11
29.7262
 21
81.9949
  0
LINE
  8
0
 10
29.7262
 20
81.9949
 11
29.5172
 21
81.6788
  0
LINE
  8
0
 10
29.5172
 20
81.6788
 11
29.2935
 21
81.3417
  0
LINE
  8
0
 10
29.2935
 20
81.3417
 11
29.0466
 21
80.9705
  0
LINE
  8
0
 10
29.0466
 20
80.9705
 11
28.7858
 21
80.5793
  0
LINE
  8
0
 10
28.7858
 20
80.5793
 11
28.5106
 21
80.1673
  0
LINE
  8
0
 10
28.5106
 20
80.1673
 11
28.2515
 21
79.7801
  0
LINE
  8
0
 10
28.2515
 20
79.7801
 11
28.2012
 21
79.7049
  0
LINE
  8
0
 10
28.2012
 20
79.7049
 11
27.5534
 21
78.7381
  0
LINE
  8
0
 10
27.5534
 20
78.7381
 11
27.1994
 21
78.209
  0
LINE
  8
0
 10
27.1994
 20
78.209
 11
26.8539
 21
77.6917
  0
LINE
  8
0
 10
26.8539
 20
77.6917
 11
26.5553
 21
77.244
  0
LINE
  8
0
 10
26.5553
 20
77.244
 11
26.3473
 21
76.9315
  0
LINE
  8
0
 10
26.3473
 20
76.9315
 11
26.1876
 21
76.6915
  0
LINE
  8
0
 10
26.1876
 20
76.6915
 11
25.8664
 21
76.2081
  0
LINE
  8
0
 10
25.8664
 20
76.2081
 11
25.5531
 21
75.7355
  0
LINE
  8
0
 10
25.5531
 20
75.7355
 11
25.2474
 21
75.2733
  0
LINE
  8
0
 10
25.2474
 20
75.2733
 11
25.0195
 21
74.9256
  0
LINE
  8
0
 10
25.0195
 20
74.9256
 11
24.6701
 21
74.3949
  0
LINE
  8
0
 10
24.6701
 20
74.3949
 11
24.5456
 21
74.2052
  0
LINE
  8
0
 10
24.5456
 20
74.2052
 11
24.4185
 21
74.0117
  0
LINE
  8
0
 10
24.4185
 20
74.0117
 11
24.3314
 21
73.8786
  0
LINE
  8
0
 10
24.3314
 20
73.8786
 11
24.0031
 21
73.3768
  0
LINE
  8
0
 10
24.0031
 20
73.3768
 11
23.9474
 21
73.2914
  0
LINE
  8
0
 10
23.9474
 20
73.2914
 11
23.8282
 21
73.1084
  0
LINE
  8
0
 10
23.8282
 20
73.1084
 11
23.6853
 21
72.8889
  0
LINE
  8
0
 10
23.6853
 20
72.8889
 11
23.3779
 21
72.4151
  0
LINE
  8
0
 10
23.3779
 20
72.4151
 11
23.0806
 21
71.9549
  0
LINE
  8
0
 10
23.0806
 20
71.9549
 11
22.7935
 21
71.5082
  0
LINE
  8
0
 10
22.7935
 20
71.5082
 11
22.5163
 21
71.0748
  0
LINE
  8
0
 10
22.5163
 20
71.0748
 11
22.2612
 21
70.6737
  0
LINE
  8
0
 10
22.2612
 20
70.6737
 11
22.2491
 21
70.6546
  0
LINE
  8
0
 10
22.2491
 20
70.6546
 11
21.9917
 21
70.2473
  0
LINE
  8
0
 10
21.9917
 20
70.2473
 11
21.744
 21
69.8527
  0
LINE
  8
0
 10
21.744
 20
69.8527
 11
21.7298
 21
69.83
  0
LINE
  8
0
 10
21.7298
 20
69.83
 11
21.5058
 21
69.4706
  0
LINE
  8
0
 10
21.5058
 20
69.4706
 11
21.2772
 21
69.1008
  0
LINE
  8
0
 10
21.2772
 20
69.1008
 11
21.2136
 21
68.9972
  0
LINE
  8
0
 10
21.2136
 20
68.9972
 11
21.1313
 21
68.8631
  0
LINE
  8
0
 10
21.1313
 20
68.8631
 11
21.058
 21
68.7432
  0
LINE
  8
0
 10
21.058
 20
68.7432
 11
20.848
 21
68.3974
  0
LINE
  8
0
 10
20.848
 20
68.3974
 11
20.6472
 21
68.0634
  0
LINE
  8
0
 10
20.6472
 20
68.0634
 11
20.4405
 21
67.7136
  0
LINE
  8
0
 10
20.4405
 20
67.7136
 11
20.2553
 21
67.397
  0
LINE
  8
0
 10
20.2553
 20
67.397
 11
20.1313
 21
67.1846
  0
LINE
  8
0
 10
20.1313
 20
67.1846
 11
20.1098
 21
67.1472
  0
LINE
  8
0
 10
20.1098
 20
67.1472
 11
19.9573
 21
66.8804
  0
LINE
  8
0
 10
19.9573
 20
66.8804
 11
19.8438
 21
66.6811
  0
LINE
  8
0
 10
19.8438
 20
66.6811
 11
19.8071
 21
66.6156
  0
LINE
  8
0
 10
19.8071
 20
66.6156
 11
19.6812
 21
66.3892
  0
LINE
  8
0
 10
19.6812
 20
66.3892
 11
19.5778
 21
66.2022
  0
LINE
  8
0
 10
19.5778
 20
66.2022
 11
19.5315
 21
66.117
  0
LINE
  8
0
 10
19.5315
 20
66.117
 11
19.4268
 21
65.9226
  0
LINE
  8
0
 10
19.4268
 20
65.9226
 11
19.3332
 21
65.7474
  0
LINE
  8
0
 10
19.3332
 20
65.7474
 11
19.2821
 21
65.6499
  0
LINE
  8
0
 10
19.2821
 20
65.6499
 11
19.1939
 21
65.4797
  0
LINE
  8
0
 10
19.1939
 20
65.4797
 11
19.1098
 21
65.3158
  0
LINE
  8
0
 10
19.1098
 20
65.3158
 11
19.0579
 21
65.2126
  0
LINE
  8
0
 10
19.0579
 20
65.2126
 11
18.9824
 21
65.06
  0
LINE
  8
0
 10
18.9824
 20
65.06
 11
18.9075
 21
64.9066
  0
LINE
  8
0
 10
18.9075
 20
64.9066
 11
18.8581
 21
64.8035
  0
LINE
  8
0
 10
18.8581
 20
64.8035
 11
18.7921
 21
64.6625
  0
LINE
  8
0
 10
18.7921
 20
64.6625
 11
18.726
 21
64.5191
  0
LINE
  8
0
 10
18.726
 20
64.5191
 11
18.6817
 21
64.421
  0
LINE
  8
0
 10
18.6817
 20
64.421
 11
18.623
 21
64.2866
  0
LINE
  8
0
 10
18.623
 20
64.2866
 11
18.5652
 21
64.1525
  0
LINE
  8
0
 10
18.5652
 20
64.1525
 11
18.5278
 21
64.0634
  0
LINE
  8
0
 10
18.5278
 20
64.0634
 11
18.4747
 21
63.9315
  0
LINE
  8
0
 10
18.4747
 20
63.9315
 11
18.425
 21
63.8061
  0
LINE
  8
0
 10
18.425
 20
63.8061
 11
18.3954
 21
63.729
  0
LINE
  8
0
 10
18.3954
 20
63.729
 11
18.3471
 21
63.5964
  0
LINE
  8
0
 10
18.3471
 20
63.5964
 11
18.3053
 21
63.4792
  0
LINE
  8
0
 10
18.3053
 20
63.4792
 11
18.2837
 21
63.4164
  0
LINE
  8
0
 10
18.2837
 20
63.4164
 11
18.2403
 21
63.2811
  0
LINE
  8
0
 10
18.2403
 20
63.2811
 11
18.2058
 21
63.1714
  0
LINE
  8
0
 10
18.2058
 20
63.1714
 11
18.1917
 21
63.1238
  0
LINE
  8
0
 10
18.1917
 20
63.1238
 11
18.1544
 21
62.9868
  0
LINE
  8
0
 10
18.1544
 20
62.9868
 11
18.1269
 21
62.884
  0
LINE
  8
0
 10
18.1269
 20
62.884
 11
18.1185
 21
62.8497
  0
LINE
  8
0
 10
18.1185
 20
62.8497
 11
18.0883
 21
62.7121
  0
LINE
  8
0
 10
18.0883
 20
62.7121
 11
18.0675
 21
62.6156
  0
LINE
  8
0
 10
18.0675
 20
62.6156
 11
18.0631
 21
62.5923
  0
LINE
  8
0
 10
18.0631
 20
62.5923
 11
18.041
 21
62.455
  0
LINE
  8
0
 10
18.041
 20
62.455
 11
18.0266
 21
62.3642
  0
LINE
  8
0
 10
18.0266
 20
62.3642
 11
18.0247
 21
62.3501
  0
LINE
  8
0
 10
18.0247
 20
62.3501
 11
18.0112
 21
62.2136
  0
LINE
  8
0
 10
18.0112
 20
62.2136
 11
18.0028
 21
62.1279
  0
LINE
  8
0
 10
18.0028
 20
62.1279
 11
18.0024
 21
62.1214
  0
LINE
  8
0
 10
18.0024
 20
62.1214
 11
17.9951
 21
61.9046
  0
LINE
  8
0
 10
17.9951
 20
61.9046
 11
18.0016
 21
61.7295
  0
LINE
  8
0
 10
18.0016
 20
61.7295
 11
18.0133
 21
61.6207
  0
LINE
  8
0
 10
18.0133
 20
61.6207
 11
18.0204
 21
61.5547
  0
LINE
  8
0
 10
18.0204
 20
61.5547
 11
18.0206
 21
61.5534
  0
LINE
  8
0
 10
18.0206
 20
61.5534
 11
18.0652
 21
61.3392
  0
LINE
  8
0
 10
18.0652
 20
61.3392
 11
18.0927
 21
61.2077
  0
LINE
  8
0
 10
18.0927
 20
61.2077
 11
18.0941
 21
61.2027
  0
LINE
  8
0
 10
18.0941
 20
61.2027
 11
18.1628
 21
60.9998
  0
LINE
  8
0
 10
18.1628
 20
60.9998
 11
18.2068
 21
60.8714
  0
LINE
  8
0
 10
18.2068
 20
60.8714
 11
18.2113
 21
60.8603
  0
LINE
  8
0
 10
18.2113
 20
60.8603
 11
18.3004
 21
60.6722
  0
LINE
  8
0
 10
18.3004
 20
60.6722
 11
18.3591
 21
60.5499
  0
LINE
  8
0
 10
18.3591
 20
60.5499
 11
18.3678
 21
60.5341
  0
LINE
  8
0
 10
18.3678
 20
60.5341
 11
18.4752
 21
60.3623
  0
LINE
  8
0
 10
18.4752
 20
60.3623
 11
18.547
 21
60.249
  0
LINE
  8
0
 10
18.547
 20
60.249
 11
18.5592
 21
60.2319
  0
LINE
  8
0
 10
18.5592
 20
60.2319
 11
18.684
 21
60.0782
  0
LINE
  8
0
 10
18.684
 20
60.0782
 11
18.7673
 21
59.9769
  0
LINE
  8
0
 10
18.7673
 20
59.9769
 11
18.7813
 21
59.9617
  0
LINE
  8
0
 10
18.7813
 20
59.9617
 11
18.8437
 21
59.8987
  0
LINE
  8
0
 10
18.8437
 20
59.8987
 11
18.8892
 21
59.8535
  0
LINE
  8
0
 10
18.8892
 20
59.8535
 11
18.9025
 21
59.841
  0
LINE
  8
0
 10
18.9025
 20
59.841
 11
18.9712
 21
59.781
  0
LINE
  8
0
 10
18.9712
 20
59.781
 11
19.0189
 21
59.7399
  0
LINE
  8
0
 10
19.0189
 20
59.7399
 11
19.0297
 21
59.7312
  0
LINE
  8
0
 10
19.0297
 20
59.7312
 11
19.1062
 21
59.6743
  0
LINE
  8
0
 10
19.1062
 20
59.6743
 11
19.156
 21
59.6376
  0
LINE
  8
0
 10
19.156
 20
59.6376
 11
19.1624
 21
59.6332
  0
LINE
  8
0
 10
19.1624
 20
59.6332
 11
19.3
 21
59.5482
  0
LINE
  8
0
 10
19.3
 20
59.5482
 11
19.4805
 21
59.4561
  0
LINE
  8
0
 10
19.4805
 20
59.4561
 11
19.4879
 21
59.4527
  0
LINE
  8
0
 10
19.4879
 20
59.4527
 11
19.5583
 21
59.4232
  0
LINE
  8
0
 10
19.5583
 20
59.4232
 11
19.6682
 21
59.3774
  0
LINE
  8
0
 10
19.6682
 20
59.3774
 11
19.6827
 21
59.3721
  0
LINE
  8
0
 10
19.6827
 20
59.3721
 11
19.7556
 21
59.3476
  0
LINE
  8
0
 10
19.7556
 20
59.3476
 11
19.8627
 21
59.3121
  0
LINE
  8
0
 10
19.8627
 20
59.3121
 11
19.8836
 21
59.3061
  0
LINE
  8
0
 10
19.8836
 20
59.3061
 11
19.9588
 21
59.2866
  0
LINE
  8
0
 10
19.9588
 20
59.2866
 11
20.0632
 21
59.2602
  0
LINE
  8
0
 10
20.0632
 20
59.2602
 11
20.0898
 21
59.2545
  0
LINE
  8
0
 10
20.0898
 20
59.2545
 11
20.1671
 21
59.2401
  0
LINE
  8
0
 10
20.1671
 20
59.2401
 11
20.2693
 21
59.2217
  0
LINE
  8
0
 10
20.2693
 20
59.2217
 11
20.3003
 21
59.2172
  0
LINE
  8
0
 10
20.3003
 20
59.2172
 11
20.3794
 21
59.2078
  0
LINE
  8
0
 10
20.3794
 20
59.2078
 11
20.4803
 21
59.1965
  0
LINE
  8
0
 10
20.4803
 20
59.1965
 11
20.5138
 21
59.1939
  0
LINE
  8
0
 10
20.5138
 20
59.1939
 11
20.5946
 21
59.1894
  0
LINE
  8
0
 10
20.5946
 20
59.1894
 11
20.6956
 21
59.1846
  0
LINE
  8
0
 10
20.6956
 20
59.1846
 11
20.7296
 21
59.1841
  0
LINE
  8
0
 10
20.7296
 20
59.1841
 11
20.8118
 21
59.1846
  0
LINE
  8
0
 10
20.8118
 20
59.1846
 11
20.9147
 21
59.1861
  0
LINE
  8
0
 10
20.9147
 20
59.1861
 11
20.9471
 21
59.1875
  0
LINE
  8
0
 10
20.9471
 20
59.1875
 11
21.0304
 21
59.193
  0
LINE
  8
0
 10
21.0304
 20
59.193
 11
21.1369
 21
59.2008
  0
LINE
  8
0
 10
21.1369
 20
59.2008
 11
21.1658
 21
59.2037
  0
LINE
  8
0
 10
21.1658
 20
59.2037
 11
21.2501
 21
59.2142
  0
LINE
  8
0
 10
21.2501
 20
59.2142
 11
21.3618
 21
59.2288
  0
LINE
  8
0
 10
21.3618
 20
59.2288
 11
21.3868
 21
59.2327
  0
LINE
  8
0
 10
21.3868
 20
59.2327
 11
21.4718
 21
59.2481
  0
LINE
  8
0
 10
21.4718
 20
59.2481
 11
21.5886
 21
59.27
  0
LINE
  8
0
 10
21.5886
 20
59.27
 11
21.6096
 21
59.2744
  0
LINE
  8
0
 10
21.6096
 20
59.2744
 11
21.6951
 21
59.2948
  0
LINE
  8
0
 10
21.6951
 20
59.2948
 11
21.8169
 21
59.3244
  0
LINE
  8
0
 10
21.8169
 20
59.3244
 11
21.8336
 21
59.3288
  0
LINE
  8
0
 10
21.8336
 20
59.3288
 11
21.9195
 21
59.3542
  0
LINE
  8
0
 10
21.9195
 20
59.3542
 11
22.046
 21
59.392
  0
LINE
  8
0
 10
22.046
 20
59.392
 11
22.0585
 21
59.396
  0
LINE
  8
0
 10
22.0585
 20
59.396
 11
22.1445
 21
59.4263
  0
LINE
  8
0
 10
22.1445
 20
59.4263
 11
22.2753
 21
59.4728
  0
LINE
  8
0
 10
22.2753
 20
59.4728
 11
22.2836
 21
59.4759
  0
LINE
  8
0
 10
22.2836
 20
59.4759
 11
22.3694
 21
59.5111
  0
LINE
  8
0
 10
22.3694
 20
59.5111
 11
22.5043
 21
59.5667
  0
LINE
  8
0
 10
22.5043
 20
59.5667
 11
22.5083
 21
59.5685
  0
LINE
  8
0
 10
22.5083
 20
59.5685
 11
22.5939
 21
59.6086
  0
LINE
  8
0
 10
22.5939
 20
59.6086
 11
22.7323
 21
59.6738
  0
LINE
  8
0
 10
22.7323
 20
59.6738
 11
22.9004
 21
59.7619
  0
LINE
  8
0
 10
22.9004
 20
59.7619
 11
23.0026
 21
59.8155
  0
LINE
  8
0
 10
23.0026
 20
59.8155
 11
23.0048
 21
59.8168
  0
LINE
  8
0
 10
23.0048
 20
59.8168
 11
23.1518
 21
59.9041
  0
LINE
  8
0
 10
23.1518
 20
59.9041
 11
23.2419
 21
59.9579
  0
LINE
  8
0
 10
23.2419
 20
59.9579
 11
23.2452
 21
59.9601
  0
LINE
  8
0
 10
23.2452
 20
59.9601
 11
23.3782
 21
60.0527
  0
LINE
  8
0
 10
23.3782
 20
60.0527
 11
23.4601
 21
60.1099
  0
LINE
  8
0
 10
23.4601
 20
60.1099
 11
23.4635
 21
60.1125
  0
LINE
  8
0
 10
23.4635
 20
60.1125
 11
23.5894
 21
60.2167
  0
LINE
  8
0
 10
23.5894
 20
60.2167
 11
23.6667
 21
60.2806
  0
LINE
  8
0
 10
23.6667
 20
60.2806
 11
23.6695
 21
60.2831
  0
LINE
  8
0
 10
23.6695
 20
60.2831
 11
23.7948
 21
60.4045
  0
LINE
  8
0
 10
23.7948
 20
60.4045
 11
23.8712
 21
60.4786
  0
LINE
  8
0
 10
23.8712
 20
60.4786
 11
23.8731
 21
60.4806
  0
LINE
  8
0
 10
23.8731
 20
60.4806
 11
24.0038
 21
60.625
  0
LINE
  8
0
 10
24.0038
 20
60.625
 11
24.083
 21
60.7125
  0
LINE
  8
0
 10
24.083
 20
60.7125
 11
24.1949
 21
60.8457
  0
LINE
  8
0
 10
24.1949
 20
60.8457
 11
24.313
 21
60.9921
  0
LINE
  8
0
 10
24.313
 20
60.9921
 11
24.4369
 21
61.1507
  0
LINE
  8
0
 10
24.4369
 20
61.1507
 11
24.5689
 21
61.3238
  0
LINE
  8
0
 10
24.5689
 20
61.3238
 11
25.0123
 21
61.916
  0
LINE
  8
0
 10
25.0123
 20
61.916
 11
25.0522
 21
61.9699
  0
LINE
  8
0
 10
25.0522
 20
61.9699
 11
25.2222
 21
62.2006
  0
LINE
  8
0
 10
25.2222
 20
62.2006
 11
25.4655
 21
62.5312
  0
LINE
  8
0
 10
25.4655
 20
62.5312
 11
25.5408
 21
62.6343
  0
LINE
  8
0
 10
25.5408
 20
62.6343
 11
25.7141
 21
62.873
  0
LINE
  8
0
 10
25.7141
 20
62.873
 11
25.9276
 21
63.1676
  0
LINE
  8
0
 10
25.9276
 20
63.1676
 11
26.3977
 21
63.8237
  0
LINE
  8
0
 10
26.3977
 20
63.8237
 11
26.5262
 21
64.0046
  0
LINE
  8
0
 10
26.5262
 20
64.0046
 11
26.7051
 21
64.2575
  0
LINE
  8
0
 10
26.7051
 20
64.2575
 11
26.8747
 21
64.498
  0
LINE
  8
0
 10
26.8747
 20
64.498
 11
27.3578
 21
65.1887
  0
LINE
  8
0
 10
27.3578
 20
65.1887
 11
27.5102
 21
65.4085
  0
LINE
  8
0
 10
27.5102
 20
65.4085
 11
27.6932
 21
65.6731
  0
LINE
  8
0
 10
27.6932
 20
65.6731
 11
27.8458
 21
65.8944
  0
LINE
  8
0
 10
27.8458
 20
65.8944
 11
27.997
 21
66.1147
  0
LINE
  8
0
 10
27.997
 20
66.1147
 11
28.1816
 21
66.3844
  0
LINE
  8
0
 10
28.1816
 20
66.3844
 11
28.3379
 21
66.6134
  0
LINE
  8
0
 10
28.3379
 20
66.6134
 11
28.4789
 21
66.821
  0
LINE
  8
0
 10
28.4789
 20
66.821
 11
28.8511
 21
67.3728
  0
LINE
  8
0
 10
28.8511
 20
67.3728
 11
29.3304
 21
68.085
  0
LINE
  8
0
 10
29.3304
 20
68.085
 11
29.444
 21
68.2554
  0
LINE
  8
0
 10
29.444
 20
68.2554
 11
29.8179
 21
68.8201
  0
LINE
  8
0
 10
29.8179
 20
68.8201
 11
30.3274
 21
69.5909
  0
LINE
  8
0
 10
30.3274
 20
69.5909
 11
30.4079
 21
69.7138
  0
LINE
  8
0
 10
30.4079
 20
69.7138
 11
30.7806
 21
70.2865
  0
LINE
  8
0
 10
30.7806
 20
70.2865
 11
31.3211
 21
71.1183
  0
LINE
  8
0
 10
31.3211
 20
71.1183
 11
31.3636
 21
71.1841
  0
LINE
  8
0
 10
31.3636
 20
71.1841
 11
31.7321
 21
71.7601
  0
LINE
  8
0
 10
31.7321
 20
71.7601
 11
32.3038
 21
72.6544
  0
LINE
  8
0
 10
32.3038
 20
72.6544
 11
32.6506
 21
73.2006
  0
LINE
  8
0
 10
32.6506
 20
73.2006
 11
33.3188
 21
74.2665
  0
LINE
  8
0
 10
33.3188
 20
74.2665
 11
33.9737
 21
75.324
  0
LINE
  8
0
 10
33.9737
 20
75.324
 11
34.6128
 21
76.3686
  0
LINE
  8
0
 10
34.6128
 20
76.3686
 11
35.2333
 21
77.3961
  0
LINE
  8
0
 10
35.2333
 20
77.3961
 11
35.8326
 21
78.4023
  0
LINE
  8
0
 10
35.8326
 20
78.4023
 11
36.4079
 21
79.3827
  0
LINE
  8
0
 10
36.4079
 20
79.3827
 11
36.9568
 21
80.333
  0
LINE
  8
0
 10
36.9568
 20
80.333
 11
37.4764
 21
81.249
  0
LINE
  8
0
 10
37.4764
 20
81.249
 11
37.7245
 21
81.6927
  0
LINE
  8
0
 10
37.7245
 20
81.6927
 11
37.9642
 21
82.1263
  0
LINE
  8
0
 10
37.9642
 20
82.1263
 11
38.1953
 21
82.5491
  0
LINE
  8
0
 10
38.1953
 20
82.5491
 11
38.4175
 21
82.9606
  0
LINE
  8
0
 10
38.4175
 20
82.9606
 11
38.6303
 21
83.3603
  0
LINE
  8
0
 10
38.6303
 20
83.3603
 11
38.8335
 21
83.7476
  0
LINE
  8
0
 10
38.8335
 20
83.7476
 11
39.0268
 21
84.122
  0
LINE
  8
0
 10
39.0268
 20
84.122
 11
39.2098
 21
84.483
  0
LINE
  8
0
 10
39.2098
 20
84.483
 11
39.3821
 21
84.83
  0
LINE
  8
0
 10
39.3821
 20
84.83
 11
39.5435
 21
85.1624
  0
LINE
  8
0
 10
39.5435
 20
85.1624
 11
39.6936
 21
85.4798
  0
LINE
  8
0
 10
39.6936
 20
85.4798
 11
39.832
 21
85.7816
  0
LINE
  8
0
 10
39.832
 20
85.7816
 11
39.9586
 21
86.0673
  0
LINE
  8
0
 10
39.9586
 20
86.0673
 11
40.0728
 21
86.3363
  0
LINE
  8
0
 10
40.0728
 20
86.3363
 11
40.1744
 21
86.588
  0
LINE
  8
0
 10
40.1744
 20
86.588
 11
40.263
 21
86.822
  0
LINE
  8
0
 10
40.263
 20
86.822
 11
40.4518
 21
87.346
  0
LINE
  8
0
 10
40.4518
 20
87.346
 11
40.6217
 21
87.8328
  0
LINE
  8
0
 10
40.6217
 20
87.8328
 11
40.7735
 21
88.2873
  0
LINE
  8
0
 10
40.7735
 20
88.2873
 11
40.9084
 21
88.7145
  0
LINE
  8
0
 10
40.9084
 20
88.7145
 11
41.0271
 21
89.1194
  0
LINE
  8
0
 10
41.0271
 20
89.1194
 11
41.1307
 21
89.5067
  0
LINE
  8
0
 10
41.1307
 20
89.5067
 11
41.2201
 21
89.8816
  0
LINE
  8
0
 10
41.2201
 20
89.8816
 11
41.2963
 21
90.2488
  0
LINE
  8
0
 10
41.2963
 20
90.2488
 11
41.4125
 21
90.9801
  0
LINE
  8
0
 10
41.4125
 20
90.9801
 11
41.4545
 21
91.3541
  0
LINE
  8
0
 10
41.4545
 20
91.3541
 11
41.487
 21
91.7402
  0
LINE
  8
0
 10
41.487
 20
91.7402
 11
41.511
 21
92.1433
  0
LINE
  8
0
 10
41.511
 20
92.1433
 11
41.5273
 21
92.5684
  0
LINE
  8
0
 10
41.5273
 20
92.5684
 11
41.537
 21
93.0204
  0
LINE
  8
0
 10
41.537
 20
93.0204
 11
41.541
 21
93.5043
  0
LINE
  8
0
 10
41.541
 20
93.5043
 11
41.5417
 21
93.9086
  0
LINE
  8
0
 10
41.5417
 20
93.9086
 11
41.5411
 21
94.27
  0
LINE
  8
0
 10
41.5411
 20
94.27
 11
41.5387
 21
94.5927
  0
LINE
  8
0
 10
41.5387
 20
94.5927
 11
41.534
 21
94.8808
  0
LINE
  8
0
 10
41.534
 20
94.8808
 11
41.5266
 21
95.1388
  0
LINE
  8
0
 10
41.5266
 20
95.1388
 11
41.5161
 21
95.3707
  0
LINE
  8
0
 10
41.5161
 20
95.3707
 11
41.5018
 21
95.5807
  0
LINE
  8
0
 10
41.5018
 20
95.5807
 11
41.4834
 21
95.7732
  0
LINE
  8
0
 10
41.4834
 20
95.7732
 11
41.4323
 21
96.1224
  0
LINE
  8
0
 10
41.4323
 20
96.1224
 11
41.359
 21
96.452
  0
LINE
  8
0
 10
41.359
 20
96.452
 11
41.2597
 21
96.7959
  0
LINE
  8
0
 10
41.2597
 20
96.7959
 11
41.1991
 21
96.9837
  0
LINE
  8
0
 10
41.1991
 20
96.9837
 11
41.1307
 21
97.1878
  0
LINE
  8
0
 10
41.1307
 20
97.1878
 11
40.9944
 21
97.563
  0
LINE
  8
0
 10
40.9944
 20
97.563
 11
40.841
 21
97.9366
  0
LINE
  8
0
 10
40.841
 20
97.9366
 11
40.6709
 21
98.308
  0
LINE
  8
0
 10
40.6709
 20
98.308
 11
40.4844
 21
98.6768
  0
LINE
  8
0
 10
40.4844
 20
98.6768
 11
40.2818
 21
99.0426
  0
LINE
  8
0
 10
40.2818
 20
99.0426
 11
40.0636
 21
99.4049
  0
LINE
  8
0
 10
40.0636
 20
99.4049
 11
39.83
 21
99.7632
  0
LINE
  8
0
 10
39.83
 20
99.7632
 11
39.5814
 21
100.117
  0
LINE
  8
0
 10
39.5814
 20
100.117
 11
39.3182
 21
100.466
  0
LINE
  8
0
 10
39.3182
 20
100.466
 11
39.0405
 21
100.809
  0
LINE
  8
0
 10
39.0405
 20
100.809
 11
38.7489
 21
101.147
  0
LINE
  8
0
 10
38.7489
 20
101.147
 11
38.4436
 21
101.478
  0
LINE
  8
0
 10
38.4436
 20
101.478
 11
38.125
 21
101.803
  0
LINE
  8
0
 10
38.125
 20
101.803
 11
37.7934
 21
102.12
  0
LINE
  8
0
 10
37.7934
 20
102.12
 11
37.4492
 21
102.43
  0
LINE
  8
0
 10
37.4492
 20
102.43
 11
37.0927
 21
102.731
  0
LINE
  8
0
 10
37.0927
 20
102.731
 11
36.983
 21
102.82
  0
LINE
  8
0
 10
36.983
 20
102.82
 11
36.8848
 21
102.899
  0
LINE
  8
0
 10
36.8848
 20
102.899
 11
36.7964
 21
102.967
  0
LINE
  8
0
 10
36.7964
 20
102.967
 11
36.716
 21
103.024
  0
LINE
  8
0
 10
36.716
 20
103.024
 11
36.5725
 21
103.111
  0
LINE
  8
0
 10
36.5725
 20
103.111
 11
36.5059
 21
103.141
  0
LINE
  8
0
 10
36.5059
 20
103.141
 11
36.4404
 21
103.163
  0
LINE
  8
0
 10
36.4404
 20
103.163
 11
36.3744
 21
103.178
  0
LINE
  8
0
 10
36.3744
 20
103.178
 11
36.306
 21
103.185
  0
LINE
  8
0
 10
36.306
 20
103.185
 11
36.1554
 21
103.18
  0
LINE
  8
0
 10
36.1554
 20
103.18
 11
35.9749
 21
103.151
  0
LINE
  8
0
 10
35.9749
 20
103.151
 11
35.8691
 21
103.129
  0
LINE
  8
0
 10
35.8691
 20
103.129
 11
35.7507
 21
103.103
  0
LINE
  8
0
 10
35.7507
 20
103.103
 11
35.1434
 21
102.971
  0
LINE
  8
0
 10
35.1434
 20
102.971
 11
34.5587
 21
102.851
  0
LINE
  8
0
 10
34.5587
 20
102.851
 11
33.994
 21
102.744
  0
LINE
  8
0
 10
33.994
 20
102.744
 11
33.4472
 21
102.652
  0
LINE
  8
0
 10
33.4472
 20
102.652
 11
32.9158
 21
102.574
  0
LINE
  8
0
 10
32.9158
 20
102.574
 11
32.3977
 21
102.511
  0
LINE
  8
0
 10
32.3977
 20
102.511
 11
31.8904
 21
102.463
  0
LINE
  8
0
 10
31.8904
 20
102.463
 11
31.3917
 21
102.432
  0
LINE
  8
0
 10
31.3917
 20
102.432
 11
31.0042
 21
102.417
  0
LINE
  8
0
 10
31.0042
 20
102.417
 11
30.8492
 21
102.417
  0
LINE
  8
0
 10
30.8492
 20
102.417
 11
30.5886
 21
102.416
  0
LINE
  8
0
 10
30.5886
 20
102.416
 11
30.3479
 21
102.422
  0
LINE
  8
0
 10
30.3479
 20
102.422
 11
30.1747
 21
102.426
  0
LINE
  8
0
 10
30.1747
 20
102.426
 11
29.9147
 21
102.442
  0
LINE
  8
0
 10
29.9147
 20
102.442
 11
29.7611
 21
102.451
  0
LINE
  8
0
 10
29.7611
 20
102.451
 11
29.4963
 21
102.475
  0
LINE
  8
0
 10
29.4963
 20
102.475
 11
29.3464
 21
102.489
  0
LINE
  8
0
 10
29.3464
 20
102.489
 11
29.0665
 21
102.523
  0
LINE
  8
0
 10
29.0665
 20
102.523
 11
28.9311
 21
102.54
  0
LINE
  8
0
 10
28.9311
 20
102.54
 11
28.6366
 21
102.586
  0
LINE
  8
0
 10
28.6366
 20
102.586
 11
28.5141
 21
102.605
  0
LINE
  8
0
 10
28.5141
 20
102.605
 11
28.1969
 21
102.665
  0
LINE
  8
0
 10
28.1969
 20
102.665
 11
28.0939
 21
102.685
  0
LINE
  8
0
 10
28.0939
 20
102.685
 11
27.67
 21
102.778
  0
LINE
  8
0
 10
27.67
 20
102.778
 11
27.2476
 21
102.887
  0
LINE
  8
0
 10
27.2476
 20
102.887
 11
27.1333
 21
102.923
  0
LINE
  8
0
 10
27.1333
 20
102.923
 11
26.8346
 21
103.014
  0
LINE
  8
0
 10
26.8346
 20
103.014
 11
26.6921
 21
103.066
  0
LINE
  8
0
 10
26.6921
 20
103.066
 11
26.4313
 21
103.16
  0
LINE
  8
0
 10
26.4313
 20
103.16
 11
26.2296
 21
103.244
  0
LINE
  8
0
 10
26.2296
 20
103.244
 11
26.0367
 21
103.325
  0
LINE
  8
0
 10
26.0367
 20
103.325
 11
25.8934
 21
103.394
  0
LINE
  8
0
 10
25.8934
 20
103.394
 11
25.652
 21
103.511
  0
LINE
  8
0
 10
25.652
 20
103.511
 11
25.4204
 21
103.638
  0
LINE
  8
0
 10
25.4204
 20
103.638
 11
25.2774
 21
103.717
  0
LINE
  8
0
 10
25.2774
 20
103.717
 11
25.0087
 21
103.884
  0
LINE
  8
0
 10
25.0087
 20
103.884
 11
24.9122
 21
103.944
  0
LINE
  8
0
 10
24.9122
 20
103.944
 11
24.5555
 21
104.193
  0
LINE
  8
0
 10
24.5555
 20
104.193
 11
24.2418
 21
104.436
  0
LINE
  8
0
 10
24.2418
 20
104.436
 11
24.001
 21
104.639
  0
LINE
  8
0
 10
24.001
 20
104.639
 11
23.7632
 21
104.855
  0
LINE
  8
0
 10
23.7632
 20
104.855
 11
23.5281
 21
105.082
  0
LINE
  8
0
 10
23.5281
 20
105.082
 11
23.2957
 21
105.322
  0
LINE
  8
0
 10
23.2957
 20
105.322
 11
23.0657
 21
105.576
  0
LINE
  8
0
 10
23.0657
 20
105.576
 11
22.8379
 21
105.843
  0
LINE
  8
0
 10
22.8379
 20
105.843
 11
22.6121
 21
106.123
  0
LINE
  8
0
 10
22.6121
 20
106.123
 11
22.3882
 21
106.418
  0
LINE
  8
0
 10
22.3882
 20
106.418
 11
22.173
 21
106.697
  0
LINE
  8
0
 10
22.173
 20
106.697
 11
21.9619
 21
106.945
  0
LINE
  8
0
 10
21.9619
 20
106.945
 11
21.7533
 21
107.165
  0
LINE
  8
0
 10
21.7533
 20
107.165
 11
21.5463
 21
107.36
  0
LINE
  8
0
 10
21.5463
 20
107.36
 11
21.3396
 21
107.532
  0
LINE
  8
0
 10
21.3396
 20
107.532
 11
21.1318
 21
107.683
  0
LINE
  8
0
 10
21.1318
 20
107.683
 11
20.9219
 21
107.815
  0
LINE
  8
0
 10
20.9219
 20
107.815
 11
20.7086
 21
107.931
  0
LINE
  8
0
 10
20.7086
 20
107.931
 11
20.4907
 21
108.034
  0
LINE
  8
0
 10
20.4907
 20
108.034
 11
20.267
 21
108.125
  0
LINE
  8
0
 10
20.267
 20
108.125
 11
19.7972
 21
108.283
  0
LINE
  8
0
 10
19.7972
 20
108.283
 11
19.2895
 21
108.424
  0
LINE
  8
0
 10
19.2895
 20
108.424
 11
19.0184
 21
108.493
  0
LINE
  8
0
 10
19.0184
 20
108.493
 11
18.7341
 21
108.566
  0
LINE
  8
0
 10
18.7341
 20
108.566
 11
18.371
 21
108.645
  0
LINE
  8
0
 10
18.371
 20
108.645
 11
17.991
 21
108.702
  0
LINE
  8
0
 10
17.991
 20
108.702
 11
17.5953
 21
108.735
  0
LINE
  8
0
 10
17.5953
 20
108.735
 11
17.1849
 21
108.745
  0
LINE
  8
0
 10
17.1849
 20
108.745
 11
16.8323
 21
108.736
  0
LINE
  8
0
 10
16.8323
 20
108.736
 11
16.471
 21
108.71
  0
LINE
  8
0
 10
16.471
 20
108.71
 11
16.1013
 21
108.67
  0
LINE
  8
0
 10
16.1013
 20
108.67
 11
15.724
 21
108.613
  0
LINE
  8
0
 10
15.724
 20
108.613
 11
15.3397
 21
108.54
  0
LINE
  8
0
 10
15.3397
 20
108.54
 11
14.9489
 21
108.452
  0
LINE
  8
0
 10
14.9489
 20
108.452
 11
14.5523
 21
108.348
  0
LINE
  8
0
 10
14.5523
 20
108.348
 11
14.1504
 21
108.229
  0
LINE
  8
0
 10
14.1504
 20
108.229
 11
13.3671
 21
107.965
  0
LINE
  8
0
 10
13.3671
 20
107.965
 11
12.6218
 21
107.68
  0
LINE
  8
0
 10
12.6218
 20
107.68
 11
11.9146
 21
107.373
  0
LINE
  8
0
 10
11.9146
 20
107.373
 11
11.2454
 21
107.044
  0
LINE
  8
0
 10
11.2454
 20
107.044
 11
10.6141
 21
106.694
  0
LINE
  8
0
 10
10.6141
 20
106.694
 11
10.0206
 21
106.321
  0
LINE
  8
0
 10
10.0206
 20
106.321
 11
9.46509
 21
105.927
  0
LINE
  8
0
 10
9.46509
 20
105.927
 11
8.94733
 21
105.51
  0
LINE
  8
0
 10
8.94733
 20
105.51
 11
8.46735
 21
105.072
  0
LINE
  8
0
 10
8.46735
 20
105.072
 11
8.02509
 21
104.611
  0
LINE
  8
0
 10
8.02509
 20
104.611
 11
7.6205
 21
104.128
  0
LINE
  8
0
 10
7.6205
 20
104.128
 11
7.25356
 21
103.624
  0
LINE
  8
0
 10
7.25356
 20
103.624
 11
6.92419
 21
103.097
  0
LINE
  8
0
 10
6.92419
 20
103.097
 11
6.63239
 21
102.547
  0
LINE
  8
0
 10
6.63239
 20
102.547
 11
6.37808
 21
101.976
  0
LINE
  8
0
 10
6.37808
 20
101.976
 11
6.16124
 21
101.382
  0
LINE
  8
0
 10
6.16124
 20
101.382
 11
6.10307
 21
101.201
  0
LINE
  8
0
 10
6.10307
 20
101.201
 11
6.05133
 21
101.031
  0
LINE
  8
0
 10
6.05133
 20
101.031
 11
5.9657
 21
100.71
  0
LINE
  8
0
 10
5.9657
 20
100.71
 11
5.90158
 21
100.392
  0
LINE
  8
0
 10
5.90158
 20
100.392
 11
5.85616
 21
100.049
  0
LINE
  8
0
 10
5.85616
 20
100.049
 11
5.83958
 21
99.8599
  0
LINE
  8
0
 10
5.83958
 20
99.8599
 11
5.82664
 21
99.654
  0
LINE
  8
0
 10
5.82664
 20
99.654
 11
5.81699
 21
99.4281
  0
LINE
  8
0
 10
5.81699
 20
99.4281
 11
5.81026
 21
99.1788
  0
LINE
  8
0
 10
5.81026
 20
99.1788
 11
5.80612
 21
98.9026
  0
LINE
  8
0
 10
5.80612
 20
98.9026
 11
5.80421
 21
98.5962
  0
LINE
  8
0
 10
5.80421
 20
98.5962
 11
5.8042
 21
98.256
  0
LINE
  8
0
 10
5.8042
 20
98.256
 11
5.80571
 21
97.8787
  0
LINE
  8
0
 10
5.80571
 20
97.8787
 11
5.80841
 21
97.4949
  0
LINE
  8
0
 10
5.80841
 20
97.4949
 11
5.81244
 21
97.1479
  0
LINE
  8
0
 10
5.81244
 20
97.1479
 11
5.81833
 21
96.8335
  0
LINE
  8
0
 10
5.81833
 20
96.8335
 11
5.82655
 21
96.5472
  0
LINE
  8
0
 10
5.82655
 20
96.5472
 11
5.83766
 21
96.2847
  0
LINE
  8
0
 10
5.83766
 20
96.2847
 11
5.85213
 21
96.0416
  0
LINE
  8
0
 10
5.85213
 20
96.0416
 11
5.89326
 21
95.5965
  0
LINE
  8
0
 10
5.89326
 20
95.5965
 11
5.95403
 21
95.177
  0
LINE
  8
0
 10
5.95403
 20
95.177
 11
6.03853
 21
94.7483
  0
LINE
  8
0
 10
6.03853
 20
94.7483
 11
6.09096
 21
94.5196
  0
LINE
  8
0
 10
6.09096
 20
94.5196
 11
6.15085
 21
94.2755
  0
LINE
  8
0
 10
6.15085
 20
94.2755
 11
6.21872
 21
94.0117
  0
LINE
  8
0
 10
6.21872
 20
94.0117
 11
6.29509
 21
93.7239
  0
LINE
  8
0
 10
6.29509
 20
93.7239
 11
6.51732
 21
92.9337
  0
LINE
  8
0
 10
6.51732
 20
92.9337
 11
6.75705
 21
92.1648
  0
LINE
  8
0
 10
6.75705
 20
92.1648
 11
7.02435
 21
91.3933
  0
LINE
  8
0
 10
7.02435
 20
91.3933
 11
7.17149
 21
90.9992
  0
LINE
  8
0
 10
7.17149
 20
90.9992
 11
7.32928
 21
90.5956
  0
LINE
  8
0
 10
7.32928
 20
90.5956
 11
7.49901
 21
90.1793
  0
LINE
  8
0
 10
7.49901
 20
90.1793
 11
7.6819
 21
89.7476
  0
LINE
  8
0
 10
7.6819
 20
89.7476
 11
7.87923
 21
89.2973
  0
LINE
  8
0
 10
7.87923
 20
89.2973
 11
8.09225
 21
88.8255
  0
LINE
  8
0
 10
8.09225
 20
88.8255
 11
8.32224
 21
88.3293
  0
LINE
  8
0
 10
8.32224
 20
88.3293
 11
8.57042
 21
87.8056
  0
LINE
  8
0
 10
8.57042
 20
87.8056
 11
8.83807
 21
87.2514
  0
LINE
  8
0
 10
8.83807
 20
87.2514
 11
9.12643
 21
86.6639
  0
LINE
  8
0
 10
9.12643
 20
86.6639
 11
9.46336
 21
85.9833
  0
LINE
  8
0
 10
9.46336
 20
85.9833
 11
9.66197
 21
85.588
  0
LINE
  8
0
 10
9.66197
 20
85.588
 11
9.85437
 21
85.2069
  0
LINE
  8
0
 10
9.85437
 20
85.2069
 11
10.0696
 21
84.7827
  0
LINE
  8
0
 10
10.0696
 20
84.7827
 11
10.2793
 21
84.3715
  0
LINE
  8
0
 10
10.2793
 20
84.3715
 11
10.4725
 21
83.9946
  0
LINE
  8
0
 10
10.4725
 20
83.9946
 11
10.6258
 21
83.6956
  0
LINE
  8
0
 10
10.6258
 20
83.6956
 11
10.6883
 21
83.5741
  0
LINE
  8
0
 10
10.6883
 20
83.5741
 11
10.8236
 21
83.3117
  0
LINE
  8
0
 10
10.8236
 20
83.3117
 11
10.9713
 21
83.0259
  0
LINE
  8
0
 10
10.9713
 20
83.0259
 11
11.082
 21
82.812
  0
LINE
  8
0
 10
11.082
 20
82.812
 11
11.4617
 21
82.0828
  0
LINE
  8
0
 10
11.4617
 20
82.0828
 11
11.5204
 21
81.9708
  0
LINE
  8
0
 10
11.5204
 20
81.9708
 11
11.6579
 21
81.709
  0
LINE
  8
0
 10
11.6579
 20
81.709
 11
11.8285
 21
81.3845
  0
LINE
  8
0
 10
11.8285
 20
81.3845
 11
12.1837
 21
80.7148
  0
LINE
  8
0
 10
12.1837
 20
80.7148
 11
12.5284
 21
80.0717
  0
LINE
  8
0
 10
12.5284
 20
80.0717
 11
12.8639
 21
79.453
  0
LINE
  8
0
 10
12.8639
 20
79.453
 11
12.8835
 21
79.4172
  0
LINE
  8
0
 10
12.8835
 20
79.4172
 11
13.0063
 21
79.1936
  0
LINE
  8
0
 10
13.0063
 20
79.1936
 11
13.1913
 21
78.8565
  0
LINE
  8
0
 10
13.1913
 20
78.8565
 11
13.5119
 21
78.2801
  0
LINE
  8
0
 10
13.5119
 20
78.2801
 11
13.5464
 21
78.2185
  0
LINE
  8
0
 10
13.5464
 20
78.2185
 11
13.6645
 21
78.0091
  0
LINE
  8
0
 10
13.6645
 20
78.0091
 11
13.8268
 21
77.7216
  0
LINE
  8
0
 10
13.8268
 20
77.7216
 11
14.1371
 21
77.1788
  0
LINE
  8
0
 10
14.1371
 20
77.1788
 11
14.2045
 21
77.0623
  0
LINE
  8
0
 10
14.2045
 20
77.0623
 11
14.3196
 21
76.8638
  0
LINE
  8
0
 10
14.3196
 20
76.8638
 11
14.4442
 21
76.6495
  0
LINE
  8
0
 10
14.4442
 20
76.6495
 11
14.754
 21
76.1261
  0
LINE
  8
0
 10
14.754
 20
76.1261
 11
14.9824
 21
75.7413
  0
LINE
  8
0
 10
14.9824
 20
75.7413
 11
15.0533
 21
75.6232
  0
LINE
  8
0
 10
15.0533
 20
75.6232
 11
15.6635
 21
74.6253
  0
LINE
  8
0
 10
15.6635
 20
74.6253
 11
15.8314
 21
74.3562
  0
LINE
  8
0
 10
15.8314
 20
74.3562
 11
15.8398
 21
74.3428
  0
LINE
  8
0
 10
15.8398
 20
74.3428
 11
16.0089
 21
74.0745
  0
LINE
  8
0
 10
16.0089
 20
74.0745
 11
16.0249
 21
74.0491
  0
LINE
  8
0
 10
16.0249
 20
74.0491
 11
16.1659
 21
73.8279
  0
LINE
  8
0
 10
16.1659
 20
73.8279
 11
16.3849
 21
73.4847
  0
LINE
  8
0
 10
16.3849
 20
73.4847
 11
16.4126
 21
73.4415
  0
LINE
  8
0
 10
16.4126
 20
73.4415
 11
16.6621
 21
73.0559
  0
LINE
  8
0
 10
16.6621
 20
73.0559
 11
16.9557
 21
72.6041
  0
LINE
  8
0
 10
16.9557
 20
72.6041
 11
17.1678
 21
72.2799
  0
LINE
  8
0
 10
17.1678
 20
72.2799
 11
17.1962
 21
72.2367
  0
LINE
  8
0
 10
17.1962
 20
72.2367
 11
17.3373
 21
72.0233
  0
LINE
  8
0
 10
17.3373
 20
72.0233
 11
17.5441
 21
71.7108
  0
LINE
  8
0
 10
17.5441
 20
71.7108
 11
17.5638
 21
71.6811
  0
LINE
  8
0
 10
17.5638
 20
71.6811
 11
17.6305
 21
71.5813
  0
LINE
  8
0
 10
17.6305
 20
71.5813
 11
17.7372
 21
71.4215
  0
LINE
  8
0
 10
17.7372
 20
71.4215
 11
17.8003
 21
71.3278
  0
LINE
  8
0
 10
17.8003
 20
71.3278
 11
17.9013
 21
71.1777
  0
LINE
  8
0
 10
17.9013
 20
71.1777
 11
17.9601
 21
71.091
  0
LINE
  8
0
 10
17.9601
 20
71.091
 11
18.0543
 21
70.9522
  0
LINE
  8
0
 10
18.0543
 20
70.9522
 11
18.108
 21
70.8736
  0
LINE
  8
0
 10
18.108
 20
70.8736
 11
18.1944
 21
70.7476
  0
LINE
  8
0
 10
18.1944
 20
70.7476
 11
18.32
 21
70.5667
  0
LINE
  8
0
 10
18.32
 20
70.5667
 11
18.4292
 21
70.4121
  0
LINE
  8
0
 10
18.4292
 20
70.4121
 11
18.4256
 21
70.4096
  0
LINE
  8
0
 10
18.4256
 20
70.4096
 11
18.5667
 21
70.2209
  0
LINE
  8
0
 10
18.5667
 20
70.2209
 11
18.672
 21
70.0801
  0
LINE
  8
0
 10
18.672
 20
70.0801
 11
18.9031
 21
70.3977
  0
LINE
  8
0
 10
18.9031
 20
70.3977
 11
18.9967
 21
70.5269
  0
LINE
  8
0
 10
18.9967
 20
70.5269
 11
19.0326
 21
70.5766
  0
LINE
  8
0
 10
19.0326
 20
70.5766
 11
19.104
 21
70.676
  0
LINE
  8
0
 10
19.104
 20
70.676
 11
19.1828
 21
70.7859
  0
LINE
  8
0
 10
19.1828
 20
70.7859
 11
19.224
 21
70.8436
  0
LINE
  8
0
 10
19.224
 20
70.8436
 11
19.3556
 21
71.0282
  0
LINE
  8
0
 10
19.3556
 20
71.0282
 11
19.4978
 21
71.2283
  0
LINE
  8
0
 10
19.4978
 20
71.2283
 11
19.5365
 21
71.2829
  0
LINE
  8
0
 10
19.5365
 20
71.2829
 11
19.6497
 21
71.4425
  0
LINE
  8
0
 10
19.6497
 20
71.4425
 11
19.7357
 21
71.5642
  0
LINE
  8
0
 10
19.7357
 20
71.5642
 11
19.8101
 21
71.6694
  0
LINE
  8
0
 10
19.8101
 20
71.6694
 11
19.9781
 21
71.9074
  0
LINE
  8
0
 10
19.9781
 20
71.9074
 11
20.1677
 21
72.1765
  0
LINE
  8
0
 10
20.1677
 20
72.1765
 11
20.3328
 21
72.4113
  0
LINE
  8
0
 10
20.3328
 20
72.4113
 11
20.3961
 21
72.5012
  0
LINE
  8
0
 10
20.3961
 20
72.5012
 11
20.7056
 21
72.9424
  0
LINE
  8
0
 10
20.7056
 20
72.9424
 11
20.863
 21
73.167
  0
LINE
  8
0
 10
20.863
 20
73.167
 11
21.3402
 21
73.8496
  0
LINE
  8
0
 10
21.3402
 20
73.8496
 11
21.4731
 21
74.0401
  0
LINE
  8
0
 10
21.4731
 20
74.0401
 11
21.5728
 21
74.1832
  0
LINE
  8
0
 10
21.5728
 20
74.1832
 11
21.8164
 21
74.533
  0
LINE
  8
0
 10
21.8164
 20
74.533
 11
21.9719
 21
74.7567
  0
LINE
  8
0
 10
21.9719
 20
74.7567
 11
22.077
 21
74.9079
  0
LINE
  8
0
 10
22.077
 20
74.9079
 11
22.2155
 21
75.1076
  0
LINE
  8
0
 10
22.2155
 20
75.1076
 11
22.3266
 21
75.2679
  0
LINE
  8
0
 10
22.3266
 20
75.2679
 11
22.4652
 21
75.4682
  0
LINE
  8
0
 10
22.4652
 20
75.4682
 11
22.5569
 21
75.6008
  0
LINE
  8
0
 10
22.5569
 20
75.6008
 11
22.7166
 21
75.8323
  0
LINE
  8
0
 10
22.7166
 20
75.8323
 11
22.755
 21
75.8879
  0
LINE
  8
0
 10
22.755
 20
75.8879
 11
22.8677
 21
76.0517
  0
LINE
  8
0
 10
22.8677
 20
76.0517
 11
22.9032
 21
76.1033
  0
LINE
  8
0
 10
22.9032
 20
76.1033
 11
23.009
 21
76.2575
  0
LINE
  8
0
 10
23.009
 20
76.2575
 11
23.0415
 21
76.3049
  0
LINE
  8
0
 10
23.0415
 20
76.3049
 11
23.1396
 21
76.4484
  0
LINE
  8
0
 10
23.1396
 20
76.4484
 11
23.176
 21
76.5016
  0
LINE
  8
0
 10
23.176
 20
76.5016
 11
23.2585
 21
76.6228
  0
LINE
  8
0
 10
23.2585
 20
76.6228
 11
23.3007
 21
76.6849
  0
LINE
  8
0
 10
23.3007
 20
76.6849
 11
23.3646
 21
76.7794
  0
LINE
  8
0
 10
23.3646
 20
76.7794
 11
23.4125
 21
76.8504
  0
LINE
  8
0
 10
23.4125
 20
76.8504
 11
23.457
 21
76.9166
  0
LINE
  8
0
 10
23.457
 20
76.9166
 11
23.5086
 21
76.9939
  0
LINE
  8
0
 10
23.5086
 20
76.9939
 11
23.5346
 21
77.0331
  0
LINE
  8
0
 10
23.5346
 20
77.0331
 11
23.5865
 21
77.1121
  0
LINE
  8
0
 10
23.5865
 20
77.1121
 11
23.5963
 21
77.1273
  0
LINE
  8
0
 10
23.5963
 20
77.1273
 11
23.6413
 21
77.1978
  0
LINE
  8
0
 10
23.6413
 20
77.1978
 11
23.8634
 21
77.5545
  0
LINE
  8
0
 10
17.1642
 20
66.5121
 11
17.8784
 21
67.9156
  0
LINE
  8
0
 10
17.8784
 20
67.9156
 11
13.7391
 21
75.1845
  0
LINE
  8
0
 10
13.7391
 20
75.1845
 11
13.3162
 21
75.9272
  0
LINE
  8
0
 10
13.3162
 20
75.9272
 11
12.9027
 21
76.6538
  0
LINE
  8
0
 10
12.9027
 20
76.6538
 11
12.501
 21
77.3601
  0
LINE
  8
0
 10
12.501
 20
77.3601
 11
12.1133
 21
78.0423
  0
LINE
  8
0
 10
12.1133
 20
78.0423
 11
11.7417
 21
78.6963
  0
LINE
  8
0
 10
11.7417
 20
78.6963
 11
11.3886
 21
79.3183
  0
LINE
  8
0
 10
11.3886
 20
79.3183
 11
11.0561
 21
79.9043
  0
LINE
  8
0
 10
11.0561
 20
79.9043
 11
10.7466
 21
80.4502
  0
LINE
  8
0
 10
10.7466
 20
80.4502
 11
10.6012
 21
80.707
  0
LINE
  8
0
 10
10.6012
 20
80.707
 11
10.4623
 21
80.9522
  0
LINE
  8
0
 10
10.4623
 20
80.9522
 11
10.2054
 21
81.4063
  0
LINE
  8
0
 10
10.2054
 20
81.4063
 11
10.0879
 21
81.6142
  0
LINE
  8
0
 10
10.0879
 20
81.6142
 11
9.97809
 21
81.8086
  0
LINE
  8
0
 10
9.97809
 20
81.8086
 11
9.87627
 21
81.989
  0
LINE
  8
0
 10
9.87627
 20
81.989
 11
9.78271
 21
82.155
  0
LINE
  8
0
 10
9.78271
 20
82.155
 11
9.69771
 21
82.306
  0
LINE
  8
0
 10
9.69771
 20
82.306
 11
9.62151
 21
82.4417
  0
LINE
  8
0
 10
9.62151
 20
82.4417
 11
9.55441
 21
82.5613
  0
LINE
  8
0
 10
9.55441
 20
82.5613
 11
9.49669
 21
82.6646
  0
LINE
  8
0
 10
9.49669
 20
82.6646
 11
9.44862
 21
82.7509
  0
LINE
  8
0
 10
9.44862
 20
82.7509
 11
9.41049
 21
82.8198
  0
LINE
  8
0
 10
9.41049
 20
82.8198
 11
9.38258
 21
82.8708
  0
LINE
  8
0
 10
9.38258
 20
82.8708
 11
9.36519
 21
82.9034
  0
LINE
  8
0
 10
9.36519
 20
82.9034
 11
9.32668
 21
82.9729
  0
LINE
  8
0
 10
9.32668
 20
82.9729
 11
9.29335
 21
83.03
  0
LINE
  8
0
 10
9.29335
 20
83.03
 11
8.95273
 21
83.638
  0
LINE
  8
0
 10
8.95273
 20
83.638
 11
8.82516
 21
81.4161
  0
LINE
  8
0
 10
8.82516
 20
81.4161
 11
8.79652
 21
81.0518
  0
LINE
  8
0
 10
8.79652
 20
81.0518
 11
8.76926
 21
80.6618
  0
LINE
  8
0
 10
8.76926
 20
80.6618
 11
8.74344
 21
80.248
  0
LINE
  8
0
 10
8.74344
 20
80.248
 11
8.71906
 21
79.8123
  0
LINE
  8
0
 10
8.71906
 20
79.8123
 11
8.69617
 21
79.3563
  0
LINE
  8
0
 10
8.69617
 20
79.3563
 11
8.67479
 21
78.8821
  0
LINE
  8
0
 10
8.67479
 20
78.8821
 11
8.65497
 21
78.3913
  0
LINE
  8
0
 10
8.65497
 20
78.3913
 11
8.63672
 21
77.8859
  0
LINE
  8
0
 10
8.63672
 20
77.8859
 11
8.6051
 21
76.8383
  0
LINE
  8
0
 10
8.6051
 20
76.8383
 11
8.58018
 21
75.7539
  0
LINE
  8
0
 10
8.58018
 20
75.7539
 11
8.55148
 21
73.5335
  0
LINE
  8
0
 10
8.55148
 20
73.5335
 11
8.5482
 21
72.4266
  0
LINE
  8
0
 10
8.5482
 20
72.4266
 11
8.55263
 21
71.3415
  0
LINE
  8
0
 10
8.55263
 20
71.3415
 11
8.56502
 21
70.2928
  0
LINE
  8
0
 10
8.56502
 20
70.2928
 11
8.5743
 21
69.7866
  0
LINE
  8
0
 10
8.5743
 20
69.7866
 11
8.58565
 21
69.295
  0
LINE
  8
0
 10
8.58565
 20
69.295
 11
8.59912
 21
68.8198
  0
LINE
  8
0
 10
8.59912
 20
68.8198
 11
8.61475
 21
68.3629
  0
LINE
  8
0
 10
8.61475
 20
68.3629
 11
8.63254
 21
67.926
  0
LINE
  8
0
 10
8.63254
 20
67.926
 11
8.65256
 21
67.511
  0
LINE
  8
0
 10
8.65256
 20
67.511
 11
8.67482
 21
67.1197
  0
LINE
  8
0
 10
8.67482
 20
67.1197
 11
8.69937
 21
66.754
  0
LINE
  8
0
 10
8.69937
 20
66.754
 11
8.72621
 21
66.4156
  0
LINE
  8
0
 10
8.72621
 20
66.4156
 11
8.7554
 21
66.1065
  0
LINE
  8
0
 10
8.7554
 20
66.1065
 11
8.89299
 21
64.8488
  0
LINE
  8
0
 10
8.89299
 20
64.8488
 11
9.04498
 21
63.5997
  0
LINE
  8
0
 10
9.04498
 20
63.5997
 11
9.21126
 21
62.3598
  0
LINE
  8
0
 10
9.21126
 20
62.3598
 11
9.39171
 21
61.1296
  0
LINE
  8
0
 10
9.39171
 20
61.1296
 11
9.58621
 21
59.9095
  0
LINE
  8
0
 10
9.58621
 20
59.9095
 11
9.79468
 21
58.7002
  0
LINE
  8
0
 10
9.79468
 20
58.7002
 11
10.017
 21
57.5022
  0
LINE
  8
0
 10
10.017
 20
57.5022
 11
10.2531
 21
56.316
  0
LINE
  8
0
 10
10.2531
 20
56.316
 11
10.5027
 21
55.1421
  0
LINE
  8
0
 10
10.5027
 20
55.1421
 11
10.7659
 21
53.9811
  0
LINE
  8
0
 10
10.7659
 20
53.9811
 11
11.0425
 21
52.8335
  0
LINE
  8
0
 10
11.0425
 20
52.8335
 11
11.3324
 21
51.6998
  0
LINE
  8
0
 10
11.3324
 20
51.6998
 11
11.6355
 21
50.5805
  0
LINE
  8
0
 10
11.6355
 20
50.5805
 11
11.9517
 21
49.4763
  0
LINE
  8
0
 10
11.9517
 20
49.4763
 11
12.2809
 21
48.3875
  0
LINE
  8
0
 10
12.2809
 20
48.3875
 11
12.6229
 21
47.3148
  0
LINE
  8
0
 10
12.6229
 20
47.3148
 11
12.8132
 21
46.7241
  0
LINE
  8
0
 10
12.8132
 20
46.7241
 11
12.9845
 21
46.1719
  0
LINE
  8
0
 10
12.9845
 20
46.1719
 11
13.1373
 21
45.6533
  0
LINE
  8
0
 10
13.1373
 20
45.6533
 11
13.2725
 21
45.1633
  0
LINE
  8
0
 10
13.2725
 20
45.1633
 11
13.3909
 21
44.697
  0
LINE
  8
0
 10
13.3909
 20
44.697
 11
13.4931
 21
44.2494
  0
LINE
  8
0
 10
13.4931
 20
44.2494
 11
13.5801
 21
43.8155
  0
LINE
  8
0
 10
13.5801
 20
43.8155
 11
13.6525
 21
43.3903
  0
LINE
  8
0
 10
13.6525
 20
43.3903
 11
13.7111
 21
42.9689
  0
LINE
  8
0
 10
13.7111
 20
42.9689
 11
13.7567
 21
42.5463
  0
LINE
  8
0
 10
13.7567
 20
42.5463
 11
13.7901
 21
42.1175
  0
LINE
  8
0
 10
13.7901
 20
42.1175
 11
13.812
 21
41.6776
  0
LINE
  8
0
 10
13.812
 20
41.6776
 11
13.8231
 21
41.2216
  0
LINE
  8
0
 10
13.8231
 20
41.2216
 11
13.8244
 21
40.7445
  0
LINE
  8
0
 10
13.8244
 20
40.7445
 11
13.8164
 21
40.2413
  0
LINE
  8
0
 10
13.8164
 20
40.2413
 11
13.8
 21
39.707
  0
LINE
  8
0
 10
13.8
 20
39.707
 11
13.7775
 21
39.1994
  0
LINE
  8
0
 10
13.7775
 20
39.1994
 11
13.7467
 21
38.6682
  0
LINE
  8
0
 10
13.7467
 20
38.6682
 11
13.6664
 21
37.5984
  0
LINE
  8
0
 10
13.6664
 20
37.5984
 11
13.6195
 21
37.0912
  0
LINE
  8
0
 10
13.6195
 20
37.0912
 11
13.5699
 21
36.6235
  0
LINE
  8
0
 10
13.5699
 20
36.6235
 11
13.5446
 21
36.4094
  0
LINE
  8
0
 10
13.5446
 20
36.4094
 11
13.5191
 21
36.211
  0
LINE
  8
0
 10
13.5191
 20
36.211
 11
13.4936
 21
36.0304
  0
LINE
  8
0
 10
13.4936
 20
36.0304
 11
13.4683
 21
35.8696
  0
LINE
  8
0
 10
13.4683
 20
35.8696
 11
13.3523
 21
35.2137
  0
LINE
  8
0
 10
13.3523
 20
35.2137
 11
13.2181
 21
34.5239
  0
LINE
  8
0
 10
13.2181
 20
34.5239
 11
13.0653
 21
33.7991
  0
LINE
  8
0
 10
13.0653
 20
33.7991
 11
12.8936
 21
33.0382
  0
LINE
  8
0
 10
12.8936
 20
33.0382
 11
12.7029
 21
32.2403
  0
LINE
  8
0
 10
12.7029
 20
32.2403
 11
12.4928
 21
31.4044
  0
LINE
  8
0
 10
12.4928
 20
31.4044
 11
12.263
 21
30.5296
  0
LINE
  8
0
 10
12.263
 20
30.5296
 11
12.0132
 21
29.6148
  0
LINE
  8
0
 10
12.0132
 20
29.6148
 11
11.7433
 21
28.659
  0
LINE
  8
0
 10
11.7433
 20
28.659
 11
11.4529
 21
27.6613
  0
LINE
  8
0
 10
11.4529
 20
27.6613
 11
11.1417
 21
26.6206
  0
LINE
  8
0
 10
11.1417
 20
26.6206
 11
10.9783
 21
26.0839
  0
LINE
  8
0
 10
10.9783
 20
26.0839
 11
10.8095
 21
25.5361
  0
LINE
  8
0
 10
10.8095
 20
25.5361
 11
10.6355
 21
24.977
  0
LINE
  8
0
 10
10.6355
 20
24.977
 11
10.456
 21
24.4066
  0
LINE
  8
0
 10
10.456
 20
24.4066
 11
10.2712
 21
23.8247
  0
LINE
  8
0
 10
10.2712
 20
23.8247
 11
10.0809
 21
23.2312
  0
LINE
  8
0
 10
10.0809
 20
23.2312
 11
9.88521
 21
22.6259
  0
LINE
  8
0
 10
9.88521
 20
22.6259
 11
9.68399
 21
22.0089
  0
LINE
  8
0
 10
9.68399
 20
22.0089
 11
9.47725
 21
21.3798
  0
LINE
  8
0
 10
9.47725
 20
21.3798
 11
9.26492
 21
20.7387
  0
LINE
  8
0
 10
9.26492
 20
20.7387
 11
9.01614
 21
19.9809
  0
LINE
  8
0
 10
9.01614
 20
19.9809
 11
8.77698
 21
19.2346
  0
LINE
  8
0
 10
8.77698
 20
19.2346
 11
8.55316
 21
18.5191
  0
LINE
  8
0
 10
8.55316
 20
18.5191
 11
8.44879
 21
18.1789
  0
LINE
  8
0
 10
8.44879
 20
18.1789
 11
8.35042
 21
17.8535
  0
LINE
  8
0
 10
8.35042
 20
17.8535
 11
8.25874
 21
17.5453
  0
LINE
  8
0
 10
8.25874
 20
17.5453
 11
8.1745
 21
17.2568
  0
LINE
  8
0
 10
8.1745
 20
17.2568
 11
8.09839
 21
16.9904
  0
LINE
  8
0
 10
8.09839
 20
16.9904
 11
8.03113
 21
16.7483
  0
LINE
  8
0
 10
8.03113
 20
16.7483
 11
7.97345
 21
16.5331
  0
LINE
  8
0
 10
7.97345
 20
16.5331
 11
7.92606
 21
16.3471
  0
LINE
  8
0
 10
7.92606
 20
16.3471
 11
7.88968
 21
16.1927
  0
LINE
  8
0
 10
7.88968
 20
16.1927
 11
7.86502
 21
16.0723
  0
LINE
  8
0
 10
7.86502
 20
16.0723
 11
7.81496
 21
15.756
  0
LINE
  8
0
 10
7.81496
 20
15.756
 11
7.78008
 21
15.4456
  0
LINE
  8
0
 10
7.78008
 20
15.4456
 11
7.76006
 21
15.1418
  0
LINE
  8
0
 10
7.76006
 20
15.1418
 11
7.75456
 21
14.8447
  0
LINE
  8
0
 10
7.75456
 20
14.8447
 11
7.76331
 21
14.5548
  0
LINE
  8
0
 10
7.76331
 20
14.5548
 11
7.78596
 21
14.2725
  0
LINE
  8
0
 10
7.78596
 20
14.2725
 11
7.82222
 21
13.9981
  0
LINE
  8
0
 10
7.82222
 20
13.9981
 11
7.87177
 21
13.732
  0
LINE
  8
0
 10
7.87177
 20
13.732
 11
7.93428
 21
13.4746
  0
LINE
  8
0
 10
7.93428
 20
13.4746
 11
8.00945
 21
13.2263
  0
LINE
  8
0
 10
8.00945
 20
13.2263
 11
8.09695
 21
12.9875
  0
LINE
  8
0
 10
8.09695
 20
12.9875
 11
8.1965
 21
12.7584
  0
LINE
  8
0
 10
8.1965
 20
12.7584
 11
8.30777
 21
12.5396
  0
LINE
  8
0
 10
8.30777
 20
12.5396
 11
8.43042
 21
12.3313
  0
LINE
  8
0
 10
8.43042
 20
12.3313
 11
8.56418
 21
12.1341
  0
LINE
  8
0
 10
8.56418
 20
12.1341
 11
8.70869
 21
11.9481
  0
LINE
  8
0
 10
8.70869
 20
11.9481
 11
8.86368
 21
11.7739
  0
LINE
  8
0
 10
8.86368
 20
11.7739
 11
9.02881
 21
11.6118
  0
LINE
  8
0
 10
9.02881
 20
11.6118
 11
9.20377
 21
11.4621
  0
LINE
  8
0
 10
9.20377
 20
11.4621
 11
9.38824
 21
11.3253
  0
LINE
  8
0
 10
9.38824
 20
11.3253
 11
9.58194
 21
11.2017
  0
LINE
  8
0
 10
9.58194
 20
11.2017
 11
9.7845
 21
11.0917
  0
LINE
  8
0
 10
9.7845
 20
11.0917
 11
9.99565
 21
10.9957
  0
LINE
  8
0
 10
9.99565
 20
10.9957
 11
10.2151
 21
10.914
  0
LINE
  8
0
 10
10.2151
 20
10.914
 11
10.4424
 21
10.8471
  0
LINE
  8
0
 10
10.4424
 20
10.8471
 11
10.6774
 21
10.7953
  0
LINE
  8
0
 10
10.6774
 20
10.7953
 11
10.9197
 21
10.759
  0
LINE
  8
0
 10
10.9197
 20
10.759
 11
11.1691
 21
10.7385
  0
LINE
  8
0
 10
11.1691
 20
10.7385
 11
11.4251
 21
10.7343
  0
LINE
  8
0
 10
11.4251
 20
10.7343
 11
11.6875
 21
10.7468
  0
LINE
  8
0
 10
11.6875
 20
10.7468
 11
11.9559
 21
10.7762
  0
LINE
  8
0
 10
11.9559
 20
10.7762
 11
12.2301
 21
10.823
  0
LINE
  8
0
 10
12.2301
 20
10.823
 11
12.583
 21
10.9033
  0
LINE
  8
0
 10
12.583
 20
10.9033
 11
12.928
 21
11.0009
  0
LINE
  8
0
 10
12.928
 20
11.0009
 11
13.2653
 21
11.116
  0
LINE
  8
0
 10
13.2653
 20
11.116
 11
13.5951
 21
11.2486
  0
LINE
  8
0
 10
13.5951
 20
11.2486
 11
13.9175
 21
11.3989
  0
LINE
  8
0
 10
13.9175
 20
11.3989
 11
14.2328
 21
11.5671
  0
LINE
  8
0
 10
14.2328
 20
11.5671
 11
14.5411
 21
11.7532
  0
LINE
  8
0
 10
14.5411
 20
11.7532
 11
14.8427
 21
11.9574
  0
LINE
  8
0
 10
14.8427
 20
11.9574
 11
15.1376
 21
12.1799
  0
LINE
  8
0
 10
15.1376
 20
12.1799
 11
15.4261
 21
12.4207
  0
LINE
  8
0
 10
15.4261
 20
12.4207
 11
15.7084
 21
12.68
  0
LINE
  8
0
 10
15.7084
 20
12.68
 11
15.9846
 21
12.958
  0
LINE
  8
0
 10
15.9846
 20
12.958
 11
16.2549
 21
13.2546
  0
LINE
  8
0
 10
16.2549
 20
13.2546
 11
16.5195
 21
13.5702
  0
LINE
  8
0
 10
16.5195
 20
13.5702
 11
16.7786
 21
13.9048
  0
LINE
  8
0
 10
16.7786
 20
13.9048
 11
17.0324
 21
14.2585
  0
LINE
  8
0
 10
17.0324
 20
14.2585
 11
17.3371
 21
14.7143
  0
LINE
  8
0
 10
17.3371
 20
14.7143
 11
17.6363
 21
15.192
  0
LINE
  8
0
 10
17.6363
 20
15.192
 11
17.9297
 21
15.6912
  0
LINE
  8
0
 10
17.9297
 20
15.6912
 11
18.2173
 21
16.2116
  0
LINE
  8
0
 10
18.2173
 20
16.2116
 11
18.4991
 21
16.7529
  0
LINE
  8
0
 10
18.4991
 20
16.7529
 11
18.7748
 21
17.3147
  0
LINE
  8
0
 10
18.7748
 20
17.3147
 11
19.0446
 21
17.8966
  0
LINE
  8
0
 10
19.0446
 20
17.8966
 11
19.3081
 21
18.4984
  0
LINE
  8
0
 10
19.3081
 20
18.4984
 11
19.5654
 21
19.1196
  0
LINE
  8
0
 10
19.5654
 20
19.1196
 11
19.8164
 21
19.7601
  0
LINE
  8
0
 10
19.8164
 20
19.7601
 11
20.0609
 21
20.4193
  0
LINE
  8
0
 10
20.0609
 20
20.4193
 11
20.2989
 21
21.0971
  0
LINE
  8
0
 10
20.2989
 20
21.0971
 11
20.5303
 21
21.793
  0
LINE
  8
0
 10
20.5303
 20
21.793
 11
20.755
 21
22.5068
  0
LINE
  8
0
 10
20.755
 20
22.5068
 11
20.9729
 21
23.238
  0
LINE
  8
0
 10
20.9729
 20
23.238
 11
21.1838
 21
23.9864
  0
LINE
  8
0
 10
21.1838
 20
23.9864
 11
21.3878
 21
24.7516
  0
LINE
  8
0
 10
21.3878
 20
24.7516
 11
21.5847
 21
25.5332
  0
LINE
  8
0
 10
21.5847
 20
25.5332
 11
21.7745
 21
26.331
  0
LINE
  8
0
 10
21.7745
 20
26.331
 11
21.957
 21
27.1446
  0
LINE
  8
0
 10
21.957
 20
27.1446
 11
22.1321
 21
27.9737
  0
LINE
  8
0
 10
22.1321
 20
27.9737
 11
22.2998
 21
28.8179
  0
LINE
  8
0
 10
22.2998
 20
28.8179
 11
22.4599
 21
29.6769
  0
LINE
  8
0
 10
22.4599
 20
29.6769
 11
22.6124
 21
30.5504
  0
LINE
  8
0
 10
22.6124
 20
30.5504
 11
22.7572
 21
31.438
  0
LINE
  8
0
 10
22.7572
 20
31.438
 11
22.8942
 21
32.3393
  0
LINE
  8
0
 10
22.8942
 20
32.3393
 11
23.0233
 21
33.2542
  0
LINE
  8
0
 10
23.0233
 20
33.2542
 11
23.1443
 21
34.1821
  0
LINE
  8
0
 10
23.1443
 20
34.1821
 11
23.2573
 21
35.1228
  0
LINE
  8
0
 10
23.2573
 20
35.1228
 11
23.3621
 21
36.076
  0
LINE
  8
0
 10
23.3621
 20
36.076
 11
23.4586
 21
37.0412
  0
LINE
  8
0
 10
23.4586
 20
37.0412
 11
23.5468
 21
38.0182
  0
LINE
  8
0
 10
23.5468
 20
38.0182
 11
23.5661
 21
38.2704
  0
LINE
  8
0
 10
23.5661
 20
38.2704
 11
23.5851
 21
38.5656
  0
LINE
  8
0
 10
23.5851
 20
38.5656
 11
23.6035
 21
38.9
  0
LINE
  8
0
 10
23.6035
 20
38.9
 11
23.6212
 21
39.27
  0
LINE
  8
0
 10
23.6212
 20
39.27
 11
23.6381
 21
39.672
  0
LINE
  8
0
 10
23.6381
 20
39.672
 11
23.6541
 21
40.1023
  0
LINE
  8
0
 10
23.6541
 20
40.1023
 11
23.6692
 21
40.5572
  0
LINE
  8
0
 10
23.6692
 20
40.5572
 11
23.6832
 21
41.033
  0
LINE
  8
0
 10
23.6832
 20
41.033
 11
23.696
 21
41.5262
  0
LINE
  8
0
 10
23.696
 20
41.5262
 11
23.7076
 21
42.0331
  0
LINE
  8
0
 10
23.7076
 20
42.0331
 11
23.7264
 21
43.073
  0
LINE
  8
0
 10
23.7264
 20
43.073
 11
23.7388
 21
44.1237
  0
LINE
  8
0
 10
23.7388
 20
44.1237
 11
23.7442
 21
45.1558
  0
LINE
  8
0
 10
23.7442
 20
45.1558
 11
23.7446
 21
45.5607
  0
LINE
  8
0
 10
23.7446
 20
45.5607
 11
23.7449
 21
45.9435
  0
LINE
  8
0
 10
23.7449
 20
45.9435
 11
23.7449
 21
46.3051
  0
LINE
  8
0
 10
23.7449
 20
46.3051
 11
23.7446
 21
46.6462
  0
LINE
  8
0
 10
23.7446
 20
46.6462
 11
23.7439
 21
46.9676
  0
LINE
  8
0
 10
23.7439
 20
46.9676
 11
23.7428
 21
47.2699
  0
LINE
  8
0
 10
23.7428
 20
47.2699
 11
23.7413
 21
47.5539
  0
LINE
  8
0
 10
23.7413
 20
47.5539
 11
23.7394
 21
47.8204
  0
LINE
  8
0
 10
23.7394
 20
47.8204
 11
23.737
 21
48.0702
  0
LINE
  8
0
 10
23.737
 20
48.0702
 11
23.734
 21
48.304
  0
LINE
  8
0
 10
23.734
 20
48.304
 11
23.7305
 21
48.5224
  0
LINE
  8
0
 10
23.7305
 20
48.5224
 11
23.7263
 21
48.7264
  0
LINE
  8
0
 10
23.7263
 20
48.7264
 11
23.7216
 21
48.9166
  0
LINE
  8
0
 10
23.7216
 20
48.9166
 11
23.7161
 21
49.0938
  0
LINE
  8
0
 10
23.7161
 20
49.0938
 11
23.703
 21
49.4121
  0
LINE
  8
0
 10
23.703
 20
49.4121
 11
23.6868
 21
49.6873
  0
LINE
  8
0
 10
23.6868
 20
49.6873
 11
23.667
 21
49.9255
  0
LINE
  8
0
 10
23.667
 20
49.9255
 11
23.6436
 21
50.1326
  0
LINE
  8
0
 10
23.6436
 20
50.1326
 11
23.616
 21
50.3145
  0
LINE
  8
0
 10
23.616
 20
50.3145
 11
23.5841
 21
50.4774
  0
LINE
  8
0
 10
23.5841
 20
50.4774
 11
23.5476
 21
50.6272
  0
LINE
  8
0
 10
23.5476
 20
50.6272
 11
23.4594
 21
50.9115
  0
LINE
  8
0
 10
23.4594
 20
50.9115
 11
23.3203
 21
51.2775
  0
LINE
  8
0
 10
23.3203
 20
51.2775
 11
23.1574
 21
51.65
  0
LINE
  8
0
 10
23.1574
 20
51.65
 11
23.0732
 21
51.825
  0
LINE
  8
0
 10
23.0732
 20
51.825
 11
22.9908
 21
51.9854
  0
LINE
  8
0
 10
22.9908
 20
51.9854
 11
22.9124
 21
52.1255
  0
LINE
  8
0
 10
22.9124
 20
52.1255
 11
22.8409
 21
52.2401
  0
LINE
  8
0
 10
22.8409
 20
52.2401
 11
22.7598
 21
52.3516
  0
LINE
  8
0
 10
22.7598
 20
52.3516
 11
22.6609
 21
52.4728
  0
LINE
  8
0
 10
22.6609
 20
52.4728
 11
22.5459
 21
52.6022
  0
LINE
  8
0
 10
22.5459
 20
52.6022
 11
22.4166
 21
52.7383
  0
LINE
  8
0
 10
22.4166
 20
52.7383
 11
22.1225
 21
53.0243
  0
LINE
  8
0
 10
22.1225
 20
53.0243
 11
21.793
 21
53.3182
  0
LINE
  8
0
 10
21.793
 20
53.3182
 11
21.4428
 21
53.6076
  0
LINE
  8
0
 10
21.4428
 20
53.6076
 11
21.0863
 21
53.8801
  0
LINE
  8
0
 10
21.0863
 20
53.8801
 11
20.7381
 21
54.1231
  0
LINE
  8
0
 10
20.7381
 20
54.1231
 11
20.5716
 21
54.2297
  0
LINE
  8
0
 10
20.5716
 20
54.2297
 11
20.4126
 21
54.3242
  0
LINE
  8
0
 10
20.4126
 20
54.3242
 11
20.1891
 21
54.4613
  0
LINE
  8
0
 10
20.1891
 20
54.4613
 11
20.0913
 21
54.5285
  0
LINE
  8
0
 10
20.0913
 20
54.5285
 11
20.006
 21
54.5923
  0
LINE
  8
0
 10
20.006
 20
54.5923
 11
19.9356
 21
54.6509
  0
LINE
  8
0
 10
19.9356
 20
54.6509
 11
19.8823
 21
54.7025
  0
LINE
  8
0
 10
19.8823
 20
54.7025
 11
19.8629
 21
54.725
  0
LINE
  8
0
 10
19.8629
 20
54.725
 11
19.8486
 21
54.7451
  0
LINE
  8
0
 10
19.8486
 20
54.7451
 11
19.8436
 21
54.7541
  0
LINE
  8
0
 10
19.8436
 20
54.7541
 11
19.8399
 21
54.7625
  0
LINE
  8
0
 10
19.8399
 20
54.7625
 11
19.8376
 21
54.7701
  0
LINE
  8
0
 10
19.8376
 20
54.7701
 11
19.8371
 21
54.7736
  0
LINE
  8
0
 10
19.8371
 20
54.7736
 11
19.8369
 21
54.7769
  0
LINE
  8
0
 10
19.8369
 20
54.7769
 11
19.837
 21
54.7785
  0
LINE
  8
0
 10
19.837
 20
54.7785
 11
19.8372
 21
54.7801
  0
LINE
  8
0
 10
19.8372
 20
54.7801
 11
19.8377
 21
54.7817
  0
LINE
  8
0
 10
19.8377
 20
54.7817
 11
19.8383
 21
54.7833
  0
LINE
  8
0
 10
19.8383
 20
54.7833
 11
19.8399
 21
54.7865
  0
LINE
  8
0
 10
19.8399
 20
54.7865
 11
19.8423
 21
54.7897
  0
LINE
  8
0
 10
19.8423
 20
54.7897
 11
19.8453
 21
54.7928
  0
LINE
  8
0
 10
19.8453
 20
54.7928
 11
19.8489
 21
54.796
  0
LINE
  8
0
 10
19.8489
 20
54.796
 11
19.858
 21
54.8021
  0
LINE
  8
0
 10
19.858
 20
54.8021
 11
19.8837
 21
54.8142
  0
LINE
  8
0
 10
19.8837
 20
54.8142
 11
19.9187
 21
54.8258
  0
LINE
  8
0
 10
19.9187
 20
54.8258
 11
20.0145
 21
54.8473
  0
LINE
  8
0
 10
20.0145
 20
54.8473
 11
20.1413
 21
54.8662
  0
LINE
  8
0
 10
20.1413
 20
54.8662
 11
20.2948
 21
54.8819
  0
LINE
  8
0
 10
20.2948
 20
54.8819
 11
20.4707
 21
54.8939
  0
LINE
  8
0
 10
20.4707
 20
54.8939
 11
20.6649
 21
54.9016
  0
LINE
  8
0
 10
20.6649
 20
54.9016
 11
20.873
 21
54.9046
  0
LINE
  8
0
 10
20.873
 20
54.9046
 11
21.3401
 21
54.9202
  0
LINE
  8
0
 10
21.3401
 20
54.9202
 11
21.8228
 21
54.9637
  0
LINE
  8
0
 10
21.8228
 20
54.9637
 11
22.3106
 21
55.0327
  0
LINE
  8
0
 10
22.3106
 20
55.0327
 11
22.7935
 21
55.1251
  0
LINE
  8
0
 10
22.7935
 20
55.1251
 11
23.2609
 21
55.2385
  0
LINE
  8
0
 10
23.2609
 20
55.2385
 11
23.7027
 21
55.3709
  0
LINE
  8
0
 10
23.7027
 20
55.3709
 11
24.1086
 21
55.5199
  0
LINE
  8
0
 10
24.1086
 20
55.5199
 11
24.2948
 21
55.6
  0
LINE
  8
0
 10
24.2948
 20
55.6
 11
24.4681
 21
55.6833
  0
LINE
  8
0
 10
24.4681
 20
55.6833
 11
24.6326
 21
55.7733
  0
LINE
  8
0
 10
24.6326
 20
55.7733
 11
24.8034
 21
55.8783
  0
LINE
  8
0
 10
24.8034
 20
55.8783
 11
24.9795
 21
55.9974
  0
LINE
  8
0
 10
24.9795
 20
55.9974
 11
25.1597
 21
56.1294
  0
LINE
  8
0
 10
25.1597
 20
56.1294
 11
25.5282
 21
56.4282
  0
LINE
  8
0
 10
25.5282
 20
56.4282
 11
25.9003
 21
56.7665
  0
LINE
  8
0
 10
25.9003
 20
56.7665
 11
26.2672
 21
57.1357
  0
LINE
  8
0
 10
26.2672
 20
57.1357
 11
26.6202
 21
57.5278
  0
LINE
  8
0
 10
26.6202
 20
57.5278
 11
26.9507
 21
57.9342
  0
LINE
  8
0
 10
26.9507
 20
57.9342
 11
27.2499
 21
58.3467
  0
LINE
  8
0
 10
27.2499
 20
58.3467
 11
27.3449
 21
58.4856
  0
LINE
  8
0
 10
27.3449
 20
58.4856
 11
27.4305
 21
58.6087
  0
LINE
  8
0
 10
27.4305
 20
58.6087
 11
27.5072
 21
58.7164
  0
LINE
  8
0
 10
27.5072
 20
58.7164
 11
27.5757
 21
58.8094
  0
LINE
  8
0
 10
27.5757
 20
58.8094
 11
27.6367
 21
58.8881
  0
LINE
  8
0
 10
27.6367
 20
58.8881
 11
27.6908
 21
58.9531
  0
LINE
  8
0
 10
27.6908
 20
58.9531
 11
27.7385
 21
59.0048
  0
LINE
  8
0
 10
27.7385
 20
59.0048
 11
27.7806
 21
59.0438
  0
LINE
  8
0
 10
27.7806
 20
59.0438
 11
27.8175
 21
59.0706
  0
LINE
  8
0
 10
27.8175
 20
59.0706
 11
27.8343
 21
59.0796
  0
LINE
  8
0
 10
27.8343
 20
59.0796
 11
27.8501
 21
59.0858
  0
LINE
  8
0
 10
27.8501
 20
59.0858
 11
27.8648
 21
59.0891
  0
LINE
  8
0
 10
27.8648
 20
59.0891
 11
27.8719
 21
59.0898
  0
LINE
  8
0
 10
27.8719
 20
59.0898
 11
27.8788
 21
59.0897
  0
LINE
  8
0
 10
27.8788
 20
59.0897
 11
27.8854
 21
59.0891
  0
LINE
  8
0
 10
27.8854
 20
59.0891
 11
27.8919
 21
59.0877
  0
LINE
  8
0
 10
27.8919
 20
59.0877
 11
27.8981
 21
59.0857
  0
LINE
  8
0
 10
27.8981
 20
59.0857
 11
27.9043
 21
59.0831
  0
LINE
  8
0
 10
27.9043
 20
59.0831
 11
27.9102
 21
59.0798
  0
LINE
  8
0
 10
27.9102
 20
59.0798
 11
27.916
 21
59.076
  0
LINE
  8
0
 10
27.916
 20
59.076
 11
27.9272
 21
59.0664
  0
LINE
  8
0
 10
27.9272
 20
59.0664
 11
27.9379
 21
59.0544
  0
LINE
  8
0
 10
27.9379
 20
59.0544
 11
27.9482
 21
59.04
  0
LINE
  8
0
 10
27.9482
 20
59.04
 11
27.9678
 21
59.0046
  0
LINE
  8
0
 10
27.9678
 20
59.0046
 11
27.9868
 21
58.9606
  0
LINE
  8
0
 10
27.9868
 20
58.9606
 11
28.0555
 21
58.7269
  0
LINE
  8
0
 10
28.0555
 20
58.7269
 11
28.088
 21
58.4736
  0
LINE
  8
0
 10
28.088
 20
58.4736
 11
28.0859
 21
58.2034
  0
LINE
  8
0
 10
28.0859
 20
58.2034
 11
28.0506
 21
57.9191
  0
LINE
  8
0
 10
28.0506
 20
57.9191
 11
27.9837
 21
57.6237
  0
LINE
  8
0
 10
27.9837
 20
57.6237
 11
27.8865
 21
57.3197
  0
LINE
  8
0
 10
27.8865
 20
57.3197
 11
27.7607
 21
57.0102
  0
LINE
  8
0
 10
27.7607
 20
57.0102
 11
27.6076
 21
56.6979
  0
LINE
  8
0
 10
27.6076
 20
56.6979
 11
27.4289
 21
56.3856
  0
LINE
  8
0
 10
27.4289
 20
56.3856
 11
27.2259
 21
56.076
  0
LINE
  8
0
 10
27.2259
 20
56.076
 11
27.0002
 21
55.7721
  0
LINE
  8
0
 10
27.0002
 20
55.7721
 11
26.7532
 21
55.4766
  0
LINE
  8
0
 10
26.7532
 20
55.4766
 11
26.4865
 21
55.1923
  0
LINE
  8
0
 10
26.4865
 20
55.1923
 11
26.2016
 21
54.922
  0
LINE
  8
0
 10
26.2016
 20
54.922
 11
25.8998
 21
54.6686
  0
LINE
  8
0
 10
25.8998
 20
54.6686
 11
25.5828
 21
54.4348
  0
LINE
  8
0
 10
25.5828
 20
54.4348
 11
25.4142
 21
54.3126
  0
LINE
  8
0
 10
25.4142
 20
54.3126
 11
25.2673
 21
54.1922
  0
LINE
  8
0
 10
25.2673
 20
54.1922
 11
25.1405
 21
54.0717
  0
LINE
  8
0
 10
25.1405
 20
54.0717
 11
25.0324
 21
53.9493
  0
LINE
  8
0
 10
25.0324
 20
53.9493
 11
24.9413
 21
53.8231
  0
LINE
  8
0
 10
24.9413
 20
53.8231
 11
24.8659
 21
53.6912
  0
LINE
  8
0
 10
24.8659
 20
53.6912
 11
24.8046
 21
53.5517
  0
LINE
  8
0
 10
24.8046
 20
53.5517
 11
24.756
 21
53.4028
  0
LINE
  8
0
 10
24.756
 20
53.4028
 11
24.7135
 21
53.2228
  0
LINE
  8
0
 10
24.7135
 20
53.2228
 11
24.6779
 21
53.015
  0
LINE
  8
0
 10
24.6779
 20
53.015
 11
24.6494
 21
52.7804
  0
LINE
  8
0
 10
24.6494
 20
52.7804
 11
24.6278
 21
52.5202
  0
LINE
  8
0
 10
24.6278
 20
52.5202
 11
24.6131
 21
52.2356
  0
LINE
  8
0
 10
24.6131
 20
52.2356
 11
24.6053
 21
51.9277
  0
LINE
  8
0
 10
24.6053
 20
51.9277
 11
24.6044
 21
51.5976
  0
LINE
  8
0
 10
24.6044
 20
51.5976
 11
24.6103
 21
51.2464
  0
LINE
  8
0
 10
24.6103
 20
51.2464
 11
24.623
 21
50.8753
  0
LINE
  8
0
 10
24.623
 20
50.8753
 11
24.6424
 21
50.4854
  0
LINE
  8
0
 10
24.6424
 20
50.4854
 11
24.6686
 21
50.0777
  0
LINE
  8
0
 10
24.6686
 20
50.0777
 11
24.7015
 21
49.6536
  0
LINE
  8
0
 10
24.7015
 20
49.6536
 11
24.7411
 21
49.214
  0
LINE
  8
0
 10
24.7411
 20
49.214
 11
24.7873
 21
48.7601
  0
LINE
  8
0
 10
24.7873
 20
48.7601
 11
24.8402
 21
48.2931
  0
LINE
  8
0
 10
24.8402
 20
48.2931
 11
25.0428
 21
46.6597
  0
LINE
  8
0
 10
25.0428
 20
46.6597
 11
25.1717
 21
45.5211
  0
LINE
  8
0
 10
25.1717
 20
45.5211
 11
25.2862
 21
44.4002
  0
LINE
  8
0
 10
25.2862
 20
44.4002
 11
25.3862
 21
43.2988
  0
LINE
  8
0
 10
25.3862
 20
43.2988
 11
25.4716
 21
42.2186
  0
LINE
  8
0
 10
25.4716
 20
42.2186
 11
25.5425
 21
41.1615
  0
LINE
  8
0
 10
25.5425
 20
41.1615
 11
25.5988
 21
40.1293
  0
LINE
  8
0
 10
25.5988
 20
40.1293
 11
25.6403
 21
39.1239
  0
LINE
  8
0
 10
25.6403
 20
39.1239
 11
25.667
 21
38.1471
  0
LINE
  8
0
 10
25.667
 20
38.1471
 11
25.6789
 21
37.2007
  0
LINE
  8
0
 10
25.6789
 20
37.2007
 11
25.6759
 21
36.2865
  0
LINE
  8
0
 10
25.6759
 20
36.2865
 11
25.6579
 21
35.4063
  0
LINE
  8
0
 10
25.6579
 20
35.4063
 11
25.6249
 21
34.562
  0
LINE
  8
0
 10
25.6249
 20
34.562
 11
25.5768
 21
33.7554
  0
LINE
  8
0
 10
25.5768
 20
33.7554
 11
25.5135
 21
32.9883
  0
LINE
  8
0
 10
25.5135
 20
32.9883
 11
25.435
 21
32.2625
  0
LINE
  8
0
 10
25.435
 20
32.2625
 11
25.375
 21
31.7652
  0
LINE
  8
0
 10
25.375
 20
31.7652
 11
25.319
 21
31.2859
  0
LINE
  8
0
 10
25.319
 20
31.2859
 11
25.267
 21
30.8238
  0
LINE
  8
0
 10
25.267
 20
30.8238
 11
25.2189
 21
30.3779
  0
LINE
  8
0
 10
25.2189
 20
30.3779
 11
25.1747
 21
29.9473
  0
LINE
  8
0
 10
25.1747
 20
29.9473
 11
25.1346
 21
29.531
  0
LINE
  8
0
 10
25.1346
 20
29.531
 11
25.0984
 21
29.1281
  0
LINE
  8
0
 10
25.0984
 20
29.1281
 11
25.0663
 21
28.7377
  0
LINE
  8
0
 10
25.0663
 20
28.7377
 11
25.0139
 21
27.9905
  0
LINE
  8
0
 10
25.0139
 20
27.9905
 11
24.9775
 21
27.282
  0
LINE
  8
0
 10
24.9775
 20
27.282
 11
24.9572
 21
26.6046
  0
LINE
  8
0
 10
24.9572
 20
26.6046
 11
24.953
 21
25.951
  0
LINE
  8
0
 10
24.953
 20
25.951
 11
24.965
 21
25.3134
  0
LINE
  8
0
 10
24.965
 20
25.3134
 11
24.9932
 21
24.6846
  0
LINE
  8
0
 10
24.9932
 20
24.6846
 11
25.0377
 21
24.057
  0
LINE
  8
0
 10
25.0377
 20
24.057
 11
25.0984
 21
23.423
  0
LINE
  8
0
 10
25.0984
 20
23.423
 11
25.1755
 21
22.7753
  0
LINE
  8
0
 10
25.1755
 20
22.7753
 11
25.269
 21
22.1064
  0
LINE
  8
0
 10
25.269
 20
22.1064
 11
25.3789
 21
21.4086
  0
LINE
  8
0
 10
25.3789
 20
21.4086
 11
25.5053
 21
20.6746
  0
LINE
  8
0
 10
25.5053
 20
20.6746
 11
25.6294
 21
19.996
  0
LINE
  8
0
 10
25.6294
 20
19.996
 11
25.7567
 21
19.3342
  0
LINE
  8
0
 10
25.7567
 20
19.3342
 11
25.887
 21
18.6893
  0
LINE
  8
0
 10
25.887
 20
18.6893
 11
26.0204
 21
18.0614
  0
LINE
  8
0
 10
26.0204
 20
18.0614
 11
26.1567
 21
17.4506
  0
LINE
  8
0
 10
26.1567
 20
17.4506
 11
26.2961
 21
16.857
  0
LINE
  8
0
 10
26.2961
 20
16.857
 11
26.4383
 21
16.2805
  0
LINE
  8
0
 10
26.4383
 20
16.2805
 11
26.5835
 21
15.7214
  0
LINE
  8
0
 10
26.5835
 20
15.7214
 11
26.7315
 21
15.1797
  0
LINE
  8
0
 10
26.7315
 20
15.1797
 11
26.8824
 21
14.6554
  0
LINE
  8
0
 10
26.8824
 20
14.6554
 11
27.036
 21
14.1487
  0
LINE
  8
0
 10
27.036
 20
14.1487
 11
27.1925
 21
13.6596
  0
LINE
  8
0
 10
27.1925
 20
13.6596
 11
27.3516
 21
13.1883
  0
LINE
  8
0
 10
27.3516
 20
13.1883
 11
27.5135
 21
12.7347
  0
LINE
  8
0
 10
27.5135
 20
12.7347
 11
27.678
 21
12.299
  0
LINE
  8
0
 10
27.678
 20
12.299
 11
27.8452
 21
11.8812
  0
LINE
  8
0
 10
27.8452
 20
11.8812
 11
28.015
 21
11.4815
  0
LINE
  8
0
 10
28.015
 20
11.4815
 11
28.1873
 21
11.0999
  0
LINE
  8
0
 10
28.1873
 20
11.0999
 11
28.3622
 21
10.7365
  0
LINE
  8
0
 10
28.3622
 20
10.7365
 11
28.5396
 21
10.3913
  0
LINE
  8
0
 10
28.5396
 20
10.3913
 11
28.7195
 21
10.0645
  0
LINE
  8
0
 10
28.7195
 20
10.0645
 11
28.9018
 21
9.75618
  0
LINE
  8
0
 10
28.9018
 20
9.75618
 11
29.0865
 21
9.46632
  0
LINE
  8
0
 10
29.0865
 20
9.46632
 11
29.2736
 21
9.19507
  0
LINE
  8
0
 10
29.2736
 20
9.19507
 11
29.463
 21
8.94247
  0
LINE
  8
0
 10
29.463
 20
8.94247
 11
29.6547
 21
8.70863
  0
LINE
  8
0
 10
29.6547
 20
8.70863
 11
29.8488
 21
8.49362
  0
LINE
  8
0
 10
29.8488
 20
8.49362
 11
30.045
 21
8.29752
  0
LINE
  8
0
 10
30.045
 20
8.29752
 11
30.2435
 21
8.12041
  0
LINE
  8
0
 10
30.2435
 20
8.12041
 11
30.4441
 21
7.96237
  0
LINE
  8
0
 10
30.4441
 20
7.96237
 11
30.6469
 21
7.82349
  0
LINE
  8
0
 10
30.6469
 20
7.82349
 11
30.8517
 21
7.70383
  0
LINE
  8
0
 10
30.8517
 20
7.70383
 11
31.1299
 21
7.57361
  0
LINE
  8
0
 10
31.1299
 20
7.57361
 11
31.4189
 21
7.47375
  0
LINE
  8
0
 10
31.4189
 20
7.47375
 11
31.7174
 21
7.40392
  0
LINE
  8
0
 10
31.7174
 20
7.40392
 11
32.0241
 21
7.36372
  0
LINE
  8
0
 10
32.0241
 20
7.36372
 11
32.3377
 21
7.35286
  0
LINE
  8
0
 10
32.3377
 20
7.35286
 11
32.657
 21
7.37096
  0
LINE
  8
0
 10
32.657
 20
7.37096
 11
32.9807
 21
7.41765
  0
LINE
  8
0
 10
32.9807
 20
7.41765
 11
33.3074
 21
7.49263
  0
LINE
  8
0
 10
33.3074
 20
7.49263
 11
33.636
 21
7.5955
  0
LINE
  8
0
 10
33.636
 20
7.5955
 11
33.965
 21
7.72597
  0
LINE
  8
0
 10
33.965
 20
7.72597
 11
34.2933
 21
7.88364
  0
LINE
  8
0
 10
34.2933
 20
7.88364
 11
34.6196
 21
8.06818
  0
LINE
  8
0
 10
34.6196
 20
8.06818
 11
34.9425
 21
8.27925
  0
LINE
  8
0
 10
34.9425
 20
8.27925
 11
35.2607
 21
8.51648
  0
LINE
  8
0
 10
35.2607
 20
8.51648
 11
35.5731
 21
8.77954
  0
LINE
  8
0
 10
35.5731
 20
8.77954
 11
35.8783
 21
9.06808
  0
LINE
  8
0
 10
35.8783
 20
9.06808
 11
36.0433
 21
9.24179
  0
LINE
  8
0
 10
36.0433
 20
9.24179
 11
36.1998
 21
9.42444
  0
LINE
  8
0
 10
36.1998
 20
9.42444
 11
36.3478
 21
9.61618
  0
LINE
  8
0
 10
36.3478
 20
9.61618
 11
36.4873
 21
9.81721
  0
LINE
  8
0
 10
36.4873
 20
9.81721
 11
36.6183
 21
10.0277
  0
LINE
  8
0
 10
36.6183
 20
10.0277
 11
36.7409
 21
10.2479
  0
LINE
  8
0
 10
36.7409
 20
10.2479
 11
36.855
 21
10.4779
  0
LINE
  8
0
 10
36.855
 20
10.4779
 11
36.9607
 21
10.718
  0
LINE
  8
0
 10
36.9607
 20
10.718
 11
37.0581
 21
10.9683
  0
LINE
  8
0
 10
37.0581
 20
10.9683
 11
37.147
 21
11.229
  0
LINE
  8
0
 10
37.147
 20
11.229
 11
37.2276
 21
11.5002
  0
LINE
  8
0
 10
37.2276
 20
11.5002
 11
37.2998
 21
11.7823
  0
LINE
  8
0
 10
37.2998
 20
11.7823
 11
37.3637
 21
12.0753
  0
LINE
  8
0
 10
37.3637
 20
12.0753
 11
37.4193
 21
12.3795
  0
LINE
  8
0
 10
37.4193
 20
12.3795
 11
37.4666
 21
12.695
  0
LINE
  8
0
 10
37.4666
 20
12.695
 11
37.5057
 21
13.022
  0
LINE
  8
0
 10
37.5057
 20
13.022
 11
37.5365
 21
13.3608
  0
LINE
  8
0
 10
37.5365
 20
13.3608
 11
37.5591
 21
13.7114
  0
LINE
  8
0
 10
37.5591
 20
13.7114
 11
37.5735
 21
14.0741
  0
LINE
  8
0
 10
37.5735
 20
14.0741
 11
37.5797
 21
14.4491
  0
LINE
  8
0
 10
37.5797
 20
14.4491
 11
37.5777
 21
14.8365
  0
LINE
  8
0
 10
37.5777
 20
14.8365
 11
37.5676
 21
15.2365
  0
LINE
  8
0
 10
37.5676
 20
15.2365
 11
37.5494
 21
15.6494
  0
LINE
  8
0
 10
37.5494
 20
15.6494
 11
37.5231
 21
16.0753
  0
LINE
  8
0
 10
37.5231
 20
16.0753
 11
37.4887
 21
16.5144
  0
LINE
  8
0
 10
37.4887
 20
16.5144
 11
37.4462
 21
16.9668
  0
LINE
  8
0
 10
37.4462
 20
16.9668
 11
37.3956
 21
17.4328
  0
LINE
  8
0
 10
37.3956
 20
17.4328
 11
37.3371
 21
17.9126
  0
LINE
  8
0
 10
37.3371
 20
17.9126
 11
37.2705
 21
18.4063
  0
LINE
  8
0
 10
37.2705
 20
18.4063
 11
37.1959
 21
18.9141
  0
LINE
  8
0
 10
37.1959
 20
18.9141
 11
37.1134
 21
19.4362
  0
LINE
  8
0
 10
37.1134
 20
19.4362
 11
37.0229
 21
19.9728
  0
LINE
  8
0
 10
37.0229
 20
19.9728
 11
36.9973
 21
20.1164
  0
LINE
  8
0
 10
36.9973
 20
20.1164
 11
36.966
 21
20.2842
  0
LINE
  8
0
 10
36.966
 20
20.2842
 11
36.9294
 21
20.4747
  0
LINE
  8
0
 10
36.9294
 20
20.4747
 11
36.8878
 21
20.6866
  0
LINE
  8
0
 10
36.8878
 20
20.6866
 11
36.8415
 21
20.9185
  0
LINE
  8
0
 10
36.8415
 20
20.9185
 11
36.7909
 21
21.1689
  0
LINE
  8
0
 10
36.7909
 20
21.1689
 11
36.7362
 21
21.4363
  0
LINE
  8
0
 10
36.7362
 20
21.4363
 11
36.6777
 21
21.7194
  0
LINE
  8
0
 10
36.6777
 20
21.7194
 11
36.6157
 21
22.0167
  0
LINE
  8
0
 10
36.6157
 20
22.0167
 11
36.5507
 21
22.3268
  0
LINE
  8
0
 10
36.5507
 20
22.3268
 11
36.4123
 21
22.9798
  0
LINE
  8
0
 10
36.4123
 20
22.9798
 11
36.2652
 21
23.6668
  0
LINE
  8
0
 10
36.2652
 20
23.6668
 11
36.1116
 21
24.3765
  0
LINE
  8
0
 10
36.1116
 20
24.3765
 11
35.7954
 21
25.8182
  0
LINE
  8
0
 10
35.7954
 20
25.8182
 11
35.6377
 21
26.5273
  0
LINE
  8
0
 10
35.6377
 20
26.5273
 11
35.4836
 21
27.2135
  0
LINE
  8
0
 10
35.4836
 20
27.2135
 11
35.3355
 21
27.8653
  0
LINE
  8
0
 10
35.3355
 20
27.8653
 11
35.2645
 21
28.1747
  0
LINE
  8
0
 10
35.2645
 20
28.1747
 11
35.1959
 21
28.4712
  0
LINE
  8
0
 10
35.1959
 20
28.4712
 11
35.1301
 21
28.7534
  0
LINE
  8
0
 10
35.1301
 20
28.7534
 11
35.0673
 21
29.0199
  0
LINE
  8
0
 10
35.0673
 20
29.0199
 11
35.0079
 21
29.2692
  0
LINE
  8
0
 10
35.0079
 20
29.2692
 11
34.9523
 21
29.4999
  0
LINE
  8
0
 10
34.9523
 20
29.4999
 11
34.9504
 21
29.5127
  0
LINE
  8
0
 10
34.9504
 20
29.5127
 11
34.9479
 21
29.5387
  0
LINE
  8
0
 10
34.9479
 20
29.5387
 11
34.9448
 21
29.5776
  0
LINE
  8
0
 10
34.9448
 20
29.5776
 11
34.9409
 21
29.6294
  0
LINE
  8
0
 10
34.9409
 20
29.6294
 11
34.9365
 21
29.6937
  0
LINE
  8
0
 10
34.9365
 20
29.6937
 11
34.9314
 21
29.7704
  0
LINE
  8
0
 10
34.9314
 20
29.7704
 11
34.9194
 21
29.9602
  0
LINE
  8
0
 10
34.9194
 20
29.9602
 11
34.9049
 21
30.1971
  0
LINE
  8
0
 10
34.9049
 20
30.1971
 11
34.8882
 21
30.4794
  0
LINE
  8
0
 10
34.8882
 20
30.4794
 11
34.8692
 21
30.8056
  0
LINE
  8
0
 10
34.8692
 20
30.8056
 11
34.8481
 21
31.1741
  0
LINE
  8
0
 10
34.8481
 20
31.1741
 11
34.825
 21
31.5832
  0
LINE
  8
0
 10
34.825
 20
31.5832
 11
34.7998
 21
32.0313
  0
LINE
  8
0
 10
34.7998
 20
32.0313
 11
34.7728
 21
32.5168
  0
LINE
  8
0
 10
34.7728
 20
32.5168
 11
34.744
 21
33.038
  0
LINE
  8
0
 10
34.744
 20
33.038
 11
34.7134
 21
33.5934
  0
LINE
  8
0
 10
34.7134
 20
33.5934
 11
34.6812
 21
34.1813
  0
LINE
  8
0
 10
34.6812
 20
34.1813
 11
34.6475
 21
34.8001
  0
LINE
  8
0
 10
34.6475
 20
34.8001
 11
34.6123
 21
35.4482
  0
LINE
  8
0
 10
34.6123
 20
35.4482
 11
34.5757
 21
36.1239
  0
LINE
  8
0
 10
34.5757
 20
36.1239
 11
34.5379
 21
36.8257
  0
LINE
  8
0
 10
34.5379
 20
36.8257
 11
34.4988
 21
37.552
  0
LINE
  8
0
 10
34.4988
 20
37.552
 11
34.4586
 21
38.301
  0
LINE
  8
0
 10
34.4586
 20
38.301
 11
34.4174
 21
39.0712
  0
LINE
  8
0
 10
34.4174
 20
39.0712
 11
34.3752
 21
39.861
  0
LINE
  8
0
 10
34.3752
 20
39.861
 11
34.3322
 21
40.6688
  0
LINE
  8
0
 10
34.3322
 20
40.6688
 11
34.2883
 21
41.4928
  0
LINE
  8
0
 10
34.2883
 20
41.4928
 11
34.2438
 21
42.3316
  0
LINE
  8
0
 10
34.2438
 20
42.3316
 11
34.1987
 21
43.1835
  0
LINE
  8
0
 10
34.1987
 20
43.1835
 11
34.1069
 21
44.92
  0
LINE
  8
0
 10
34.1069
 20
44.92
 11
34.0136
 21
46.6895
  0
LINE
  8
0
 10
34.0136
 20
46.6895
 11
33.9196
 21
48.4789
  0
LINE
  8
0
 10
33.9196
 20
48.4789
 11
33.7321
 21
52.0659
  0
LINE
  8
0
 10
33.7321
 20
52.0659
 11
33.64
 21
53.8375
  0
LINE
  8
0
 10
33.64
 20
53.8375
 11
33.5497
 21
55.5772
  0
LINE
  8
0
 10
33.5497
 20
55.5772
 11
33.5056
 21
56.4311
  0
LINE
  8
0
 10
33.5056
 20
56.4311
 11
33.4622
 21
57.2721
  0
LINE
  8
0
 10
33.4622
 20
57.2721
 11
33.4196
 21
58.0987
  0
LINE
  8
0
 10
33.4196
 20
58.0987
 11
33.3779
 21
58.9093
  0
LINE
  8
0
 10
33.3779
 20
58.9093
 11
33.3373
 21
59.7022
  0
LINE
  8
0
 10
33.3373
 20
59.7022
 11
33.2977
 21
60.4757
  0
LINE
  8
0
 10
33.2977
 20
60.4757
 11
33.2593
 21
61.2284
  0
LINE
  8
0
 10
33.2593
 20
61.2284
 11
33.2221
 21
61.9585
  0
LINE
  8
0
 10
33.2221
 20
61.9585
 11
33.1863
 21
62.6644
  0
LINE
  8
0
 10
33.1863
 20
62.6644
 11
33.1519
 21
63.3446
  0
LINE
  8
0
 10
33.1519
 20
63.3446
 11
33.119
 21
63.9973
  0
LINE
  8
0
 10
33.119
 20
63.9973
 11
33.0878
 21
64.6211
  0
LINE
  8
0
 10
33.0878
 20
64.6211
 11
33.0582
 21
65.2142
  0
LINE
  8
0
 10
33.0582
 20
65.2142
 11
33.0303
 21
65.775
  0
LINE
  8
0
 10
33.0303
 20
65.775
 11
33.0043
 21
66.302
  0
LINE
  8
0
 10
33.0043
 20
66.302
 11
32.9803
 21
66.7935
  0
LINE
  8
0
 10
32.9803
 20
66.7935
 11
32.9582
 21
67.2478
  0
LINE
  8
0
 10
32.9582
 20
67.2478
 11
32.9383
 21
67.6635
  0
LINE
  8
0
 10
32.9383
 20
67.6635
 11
32.9205
 21
68.0387
  0
LINE
  8
0
 10
32.9205
 20
68.0387
 11
32.9051
 21
68.372
  0
LINE
  8
0
 10
32.9051
 20
68.372
 11
32.892
 21
68.6617
  0
LINE
  8
0
 10
32.892
 20
68.6617
 11
32.8813
 21
68.9062
  0
LINE
  8
0
 10
32.8813
 20
68.9062
 11
32.8732
 21
69.1039
  0
LINE
  8
0
 10
32.8732
 20
69.1039
 11
32.8701
 21
69.1846
  0
LINE
  8
0
 10
32.8701
 20
69.1846
 11
32.8676
 21
69.253
  0
LINE
  8
0
 10
32.8676
 20
69.253
 11
32.8577
 21
69.4874
  0
LINE
  8
0
 10
32.8577
 20
69.4874
 11
32.8445
 21
69.7049
  0
LINE
  8
0
 10
32.8445
 20
69.7049
 11
32.8291
 21
69.8991
  0
LINE
  8
0
 10
32.8291
 20
69.8991
 11
32.8123
 21
70.0638
  0
LINE
  8
0
 10
32.8123
 20
70.0638
 11
32.7932
 21
70.4339
  0
LINE
  8
0
 10
32.7932
 20
70.4339
 11
32.4496
 21
69.822
  0
LINE
  8
0
 10
32.4496
 20
69.822
 11
32.3426
 21
69.628
  0
LINE
  8
0
 10
32.3426
 20
69.628
 11
32.227
 21
69.4106
  0
LINE
  8
0
 10
32.227
 20
69.4106
 11
32.1038
 21
69.171
  0
LINE
  8
0
 10
32.1038
 20
69.171
 11
31.9741
 21
68.9104
  0
LINE
  8
0
 10
31.9741
 20
68.9104
 11
31.673
 21
68.3086
  0
LINE
  8
0
 10
31.673
 20
68.3086
 11
31.3589
 21
67.7065
  0
LINE
  8
0
 10
31.3589
 20
67.7065
 11
30.698
 21
66.5105
  0
LINE
  8
0
 10
30.698
 20
66.5105
 11
30.0035
 21
65.3408
  0
LINE
  8
0
 10
30.0035
 20
65.3408
 11
29.6474
 21
64.7714
  0
LINE
  8
0
 10
29.6474
 20
64.7714
 11
29.2874
 21
64.2155
  0
LINE
  8
0
 10
29.2874
 20
64.2155
 11
28.9251
 21
63.6752
  0
LINE
  8
0
 10
28.9251
 20
63.6752
 11
28.5619
 21
63.1529
  0
LINE
  8
0
 10
28.5619
 20
63.1529
 11
28.1992
 21
62.6508
  0
LINE
  8
0
 10
28.1992
 20
62.6508
 11
27.8388
 21
62.1713
  0
LINE
  8
0
 10
27.8388
 20
62.1713
 11
27.482
 21
61.7166
  0
LINE
  8
0
 10
27.482
 20
61.7166
 11
27.1303
 21
61.2891
  0
LINE
  8
0
 10
27.1303
 20
61.2891
 11
26.7852
 21
60.8909
  0
LINE
  8
0
 10
26.7852
 20
60.8909
 11
26.4484
 21
60.5244
  0
LINE
  8
0
 10
26.4484
 20
60.5244
 11
26.0081
 21
60.0785
  0
LINE
  8
0
 10
26.0081
 20
60.0785
 11
25.5615
 21
59.6609
  0
LINE
  8
0
 10
25.5615
 20
59.6609
 11
25.1102
 21
59.2723
  0
LINE
  8
0
 10
25.1102
 20
59.2723
 11
24.6558
 21
58.9135
  0
LINE
  8
0
 10
24.6558
 20
58.9135
 11
24.1999
 21
58.5852
  0
LINE
  8
0
 10
24.1999
 20
58.5852
 11
23.7442
 21
58.2883
  0
LINE
  8
0
 10
23.7442
 20
58.2883
 11
23.2903
 21
58.0236
  0
LINE
  8
0
 10
23.2903
 20
58.0236
 11
22.8398
 21
57.7917
  0
LINE
  8
0
 10
22.8398
 20
57.7917
 11
22.3943
 21
57.5935
  0
LINE
  8
0
 10
22.3943
 20
57.5935
 11
21.9556
 21
57.4298
  0
LINE
  8
0
 10
21.9556
 20
57.4298
 11
21.5251
 21
57.3014
  0
LINE
  8
0
 10
21.5251
 20
57.3014
 11
21.1046
 21
57.209
  0
LINE
  8
0
 10
21.1046
 20
57.209
 11
20.6956
 21
57.1535
  0
LINE
  8
0
 10
20.6956
 20
57.1535
 11
20.2998
 21
57.1355
  0
LINE
  8
0
 10
20.2998
 20
57.1355
 11
19.9188
 21
57.1559
  0
LINE
  8
0
 10
19.9188
 20
57.1559
 11
19.5542
 21
57.2155
  0
LINE
  8
0
 10
19.5542
 20
57.2155
 11
19.2358
 21
57.2983
  0
LINE
  8
0
 10
19.2358
 20
57.2983
 11
18.9314
 21
57.4007
  0
LINE
  8
0
 10
18.9314
 20
57.4007
 11
18.6413
 21
57.5223
  0
LINE
  8
0
 10
18.6413
 20
57.5223
 11
18.3656
 21
57.6623
  0
LINE
  8
0
 10
18.3656
 20
57.6623
 11
18.1046
 21
57.8202
  0
LINE
  8
0
 10
18.1046
 20
57.8202
 11
17.8582
 21
57.9952
  0
LINE
  8
0
 10
17.8582
 20
57.9952
 11
17.6268
 21
58.1868
  0
LINE
  8
0
 10
17.6268
 20
58.1868
 11
17.4105
 21
58.3944
  0
LINE
  8
0
 10
17.4105
 20
58.3944
 11
17.2094
 21
58.6172
  0
LINE
  8
0
 10
17.2094
 20
58.6172
 11
17.0237
 21
58.8548
  0
LINE
  8
0
 10
17.0237
 20
58.8548
 11
16.8536
 21
59.1063
  0
LINE
  8
0
 10
16.8536
 20
59.1063
 11
16.6992
 21
59.3713
  0
LINE
  8
0
 10
16.6992
 20
59.3713
 11
16.5607
 21
59.649
  0
LINE
  8
0
 10
16.5607
 20
59.649
 11
16.4382
 21
59.9389
  0
LINE
  8
0
 10
16.4382
 20
59.9389
 11
16.332
 21
60.2402
  0
LINE
  8
0
 10
16.332
 20
60.2402
 11
16.2421
 21
60.5525
  0
LINE
  8
0
 10
16.2421
 20
60.5525
 11
16.1688
 21
60.875
  0
LINE
  8
0
 10
16.1688
 20
60.875
 11
16.1122
 21
61.2071
  0
LINE
  8
0
 10
16.1122
 20
61.2071
 11
16.0724
 21
61.5482
  0
LINE
  8
0
 10
16.0724
 20
61.5482
 11
16.0497
 21
61.8977
  0
LINE
  8
0
 10
16.0497
 20
61.8977
 11
16.0441
 21
62.2548
  0
LINE
  8
0
 10
16.0441
 20
62.2548
 11
16.0559
 21
62.6191
  0
LINE
  8
0
 10
16.0559
 20
62.6191
 11
16.0853
 21
62.9898
  0
LINE
  8
0
 10
16.0853
 20
62.9898
 11
16.1322
 21
63.3663
  0
LINE
  8
0
 10
16.1322
 20
63.3663
 11
16.1971
 21
63.748
  0
LINE
  8
0
 10
16.1971
 20
63.748
 11
16.28
 21
64.1343
  0
LINE
  8
0
 10
16.28
 20
64.1343
 11
16.381
 21
64.5244
  0
LINE
  8
0
 10
16.381
 20
64.5244
 11
16.5003
 21
64.9179
  0
LINE
  8
0
 10
16.5003
 20
64.9179
 11
16.6381
 21
65.3141
  0
LINE
  8
0
 10
16.6381
 20
65.3141
 11
16.7946
 21
65.7122
  0
LINE
  8
0
 10
16.7946
 20
65.7122
 11
16.9699
 21
66.1118
  0
LINE
  8
0
 10
16.9699
 20
66.1118
 11
17.1642
 21
66.5121
  0
ENDSEC
  0
SECTION
  2
OBJECTS
  0
DICTIONARY
  0
ENDSEC
  0
EOF
