  0
SECTION
  2
BLOCKS
  0
ENDSEC
  0
SECTION
  2
ENTITIES
  0
LINE
  8
0
 10
33.6326
 20
96.1318
 11
34.1195
 21
96.1555
  0
LINE
  8
0
 10
34.1195
 20
96.1555
 11
34.5809
 21
96.1961
  0
LINE
  8
0
 10
34.5809
 20
96.1961
 11
34.9633
 21
96.2437
  0
LINE
  8
0
 10
34.9633
 20
96.2437
 11
35.2158
 21
96.2889
  0
LINE
  8
0
 10
35.2158
 20
96.2889
 11
35.4449
 21
96.3414
  0
LINE
  8
0
 10
35.4449
 20
96.3414
 11
35.7736
 21
96.432
  0
LINE
  8
0
 10
35.7736
 20
96.432
 11
36.0926
 21
96.5303
  0
LINE
  8
0
 10
36.0926
 20
96.5303
 11
36.4024
 21
96.6367
  0
LINE
  8
0
 10
36.4024
 20
96.6367
 11
36.7038
 21
96.7515
  0
LINE
  8
0
 10
36.7038
 20
96.7515
 11
37.2837
 21
97.0081
  0
LINE
  8
0
 10
37.2837
 20
97.0081
 11
37.8376
 21
97.303
  0
LINE
  8
0
 10
37.8376
 20
97.303
 11
38.3707
 21
97.6393
  0
LINE
  8
0
 10
38.3707
 20
97.6393
 11
38.631
 21
97.8239
  0
LINE
  8
0
 10
38.631
 20
97.8239
 11
38.8882
 21
98.02
  0
LINE
  8
0
 10
38.8882
 20
98.02
 11
39.1427
 21
98.2279
  0
LINE
  8
0
 10
39.1427
 20
98.2279
 11
39.3953
 21
98.4481
  0
LINE
  8
0
 10
39.3953
 20
98.4481
 11
39.6466
 21
98.6809
  0
LINE
  8
0
 10
39.6466
 20
98.6809
 11
39.8973
 21
98.9267
  0
LINE
  8
0
 10
39.8973
 20
98.9267
 11
40.2573
 21
99.3033
  0
LINE
  8
0
 10
40.2573
 20
99.3033
 11
40.5918
 21
99.6826
  0
LINE
  8
0
 10
40.5918
 20
99.6826
 11
40.9012
 21
100.065
  0
LINE
  8
0
 10
40.9012
 20
100.065
 11
41.1858
 21
100.452
  0
LINE
  8
0
 10
41.1858
 20
100.452
 11
41.446
 21
100.844
  0
LINE
  8
0
 10
41.446
 20
100.844
 11
41.682
 21
101.242
  0
LINE
  8
0
 10
41.682
 20
101.242
 11
41.8942
 21
101.646
  0
LINE
  8
0
 10
41.8942
 20
101.646
 11
42.0828
 21
102.057
  0
LINE
  8
0
 10
42.0828
 20
102.057
 11
42.2483
 21
102.476
  0
LINE
  8
0
 10
42.2483
 20
102.476
 11
42.3909
 21
102.904
  0
LINE
  8
0
 10
42.3909
 20
102.904
 11
42.511
 21
103.341
  0
LINE
  8
0
 10
42.511
 20
103.341
 11
42.6089
 21
103.789
  0
LINE
  8
0
 10
42.6089
 20
103.789
 11
42.6848
 21
104.247
  0
LINE
  8
0
 10
42.6848
 20
104.247
 11
42.7392
 21
104.718
  0
LINE
  8
0
 10
42.7392
 20
104.718
 11
42.7723
 21
105.2
  0
LINE
  8
0
 10
42.7723
 20
105.2
 11
42.7845
 21
105.696
  0
LINE
  8
0
 10
42.7845
 20
105.696
 11
42.7755
 21
106.199
  0
LINE
  8
0
 10
42.7755
 20
106.199
 11
42.7448
 21
106.69
  0
LINE
  8
0
 10
42.7448
 20
106.69
 11
42.6924
 21
107.171
  0
LINE
  8
0
 10
42.6924
 20
107.171
 11
42.618
 21
107.64
  0
LINE
  8
0
 10
42.618
 20
107.64
 11
42.5217
 21
108.099
  0
LINE
  8
0
 10
42.5217
 20
108.099
 11
42.4033
 21
108.548
  0
LINE
  8
0
 10
42.4033
 20
108.548
 11
42.2626
 21
108.987
  0
LINE
  8
0
 10
42.2626
 20
108.987
 11
42.0997
 21
109.417
  0
LINE
  8
0
 10
42.0997
 20
109.417
 11
41.9145
 21
109.837
  0
LINE
  8
0
 10
41.9145
 20
109.837
 11
41.7067
 21
110.247
  0
LINE
  8
0
 10
41.7067
 20
110.247
 11
41.4764
 21
110.649
  0
LINE
  8
0
 10
41.4764
 20
110.649
 11
41.2234
 21
111.041
  0
LINE
  8
0
 10
41.2234
 20
111.041
 11
40.9476
 21
111.426
  0
LINE
  8
0
 10
40.9476
 20
111.426
 11
40.6489
 21
111.802
  0
LINE
  8
0
 10
40.6489
 20
111.802
 11
40.3273
 21
112.169
  0
LINE
  8
0
 10
40.3273
 20
112.169
 11
39.9826
 21
112.53
  0
LINE
  8
0
 10
39.9826
 20
112.53
 11
39.6203
 21
112.875
  0
LINE
  8
0
 10
39.6203
 20
112.875
 11
39.2477
 21
113.197
  0
LINE
  8
0
 10
39.2477
 20
113.197
 11
38.8654
 21
113.497
  0
LINE
  8
0
 10
38.8654
 20
113.497
 11
38.4741
 21
113.775
  0
LINE
  8
0
 10
38.4741
 20
113.775
 11
38.0746
 21
114.03
  0
LINE
  8
0
 10
38.0746
 20
114.03
 11
37.6675
 21
114.263
  0
LINE
  8
0
 10
37.6675
 20
114.263
 11
37.2537
 21
114.474
  0
LINE
  8
0
 10
37.2537
 20
114.474
 11
36.8338
 21
114.663
  0
LINE
  8
0
 10
36.8338
 20
114.663
 11
36.4086
 21
114.831
  0
LINE
  8
0
 10
36.4086
 20
114.831
 11
35.9788
 21
114.977
  0
LINE
  8
0
 10
35.9788
 20
114.977
 11
35.545
 21
115.101
  0
LINE
  8
0
 10
35.545
 20
115.101
 11
35.1081
 21
115.205
  0
LINE
  8
0
 10
35.1081
 20
115.205
 11
34.6687
 21
115.287
  0
LINE
  8
0
 10
34.6687
 20
115.287
 11
34.2277
 21
115.348
  0
LINE
  8
0
 10
34.2277
 20
115.348
 11
33.7856
 21
115.389
  0
LINE
  8
0
 10
33.7856
 20
115.389
 11
33.3432
 21
115.408
  0
LINE
  8
0
 10
33.3432
 20
115.408
 11
32.8719
 21
115.407
  0
LINE
  8
0
 10
32.8719
 20
115.407
 11
32.5283
 21
115.391
  0
LINE
  8
0
 10
32.5283
 20
115.391
 11
32.1857
 21
115.363
  0
LINE
  8
0
 10
32.1857
 20
115.363
 11
31.8446
 21
115.323
  0
LINE
  8
0
 10
31.8446
 20
115.323
 11
31.5053
 21
115.271
  0
LINE
  8
0
 10
31.5053
 20
115.271
 11
31.168
 21
115.207
  0
LINE
  8
0
 10
31.168
 20
115.207
 11
30.8333
 21
115.13
  0
LINE
  8
0
 10
30.8333
 20
115.13
 11
30.5013
 21
115.042
  0
LINE
  8
0
 10
30.5013
 20
115.042
 11
30.1724
 21
114.942
  0
LINE
  8
0
 10
30.1724
 20
114.942
 11
29.8471
 21
114.831
  0
LINE
  8
0
 10
29.8471
 20
114.831
 11
29.5255
 21
114.707
  0
LINE
  8
0
 10
29.5255
 20
114.707
 11
29.2082
 21
114.572
  0
LINE
  8
0
 10
29.2082
 20
114.572
 11
28.8953
 21
114.425
  0
LINE
  8
0
 10
28.8953
 20
114.425
 11
28.5873
 21
114.267
  0
LINE
  8
0
 10
28.5873
 20
114.267
 11
28.2845
 21
114.098
  0
LINE
  8
0
 10
28.2845
 20
114.098
 11
27.9872
 21
113.917
  0
LINE
  8
0
 10
27.9872
 20
113.917
 11
27.6958
 21
113.725
  0
LINE
  8
0
 10
27.6958
 20
113.725
 11
27.4106
 21
113.522
  0
LINE
  8
0
 10
27.4106
 20
113.522
 11
27.132
 21
113.307
  0
LINE
  8
0
 10
27.132
 20
113.307
 11
26.8603
 21
113.082
  0
LINE
  8
0
 10
26.8603
 20
113.082
 11
26.5959
 21
112.845
  0
LINE
  8
0
 10
26.5959
 20
112.845
 11
26.339
 21
112.598
  0
LINE
  8
0
 10
26.339
 20
112.598
 11
26.0901
 21
112.34
  0
LINE
  8
0
 10
26.0901
 20
112.34
 11
25.8494
 21
112.071
  0
LINE
  8
0
 10
25.8494
 20
112.071
 11
25.6174
 21
111.792
  0
LINE
  8
0
 10
25.6174
 20
111.792
 11
25.3944
 21
111.501
  0
LINE
  8
0
 10
25.3944
 20
111.501
 11
25.1806
 21
111.201
  0
LINE
  8
0
 10
25.1806
 20
111.201
 11
24.9765
 21
110.89
  0
LINE
  8
0
 10
24.9765
 20
110.89
 11
24.7824
 21
110.568
  0
LINE
  8
0
 10
24.7824
 20
110.568
 11
24.5986
 21
110.236
  0
LINE
  8
0
 10
24.5986
 20
110.236
 11
24.4256
 21
109.894
  0
LINE
  8
0
 10
24.4256
 20
109.894
 11
24.2635
 21
109.542
  0
LINE
  8
0
 10
24.2635
 20
109.542
 11
24.1128
 21
109.179
  0
LINE
  8
0
 10
24.1128
 20
109.179
 11
24.042
 21
108.997
  0
LINE
  8
0
 10
24.042
 20
108.997
 11
23.9782
 21
108.825
  0
LINE
  8
0
 10
23.9782
 20
108.825
 11
23.87
 21
108.506
  0
LINE
  8
0
 10
23.87
 20
108.506
 11
23.7847
 21
108.201
  0
LINE
  8
0
 10
23.7847
 20
108.201
 11
23.7186
 21
107.893
  0
LINE
  8
0
 10
23.7186
 20
107.893
 11
23.6684
 21
107.56
  0
LINE
  8
0
 10
23.6684
 20
107.56
 11
23.6482
 21
107.379
  0
LINE
  8
0
 10
23.6482
 20
107.379
 11
23.6306
 21
107.185
  0
LINE
  8
0
 10
23.6306
 20
107.185
 11
23.6152
 21
106.976
  0
LINE
  8
0
 10
23.6152
 20
106.976
 11
23.6016
 21
106.748
  0
LINE
  8
0
 10
23.6016
 20
106.748
 11
23.5893
 21
106.5
  0
LINE
  8
0
 10
23.5893
 20
106.5
 11
23.5779
 21
106.23
  0
LINE
  8
0
 10
23.5779
 20
106.23
 11
23.5694
 21
105.99
  0
LINE
  8
0
 10
23.5694
 20
105.99
 11
23.5632
 21
105.764
  0
LINE
  8
0
 10
23.5632
 20
105.764
 11
23.5582
 21
105.347
  0
LINE
  8
0
 10
23.5582
 20
105.347
 11
23.5633
 21
104.972
  0
LINE
  8
0
 10
23.5633
 20
104.972
 11
23.579
 21
104.632
  0
LINE
  8
0
 10
23.579
 20
104.632
 11
23.6058
 21
104.319
  0
LINE
  8
0
 10
23.6058
 20
104.319
 11
23.6442
 21
104.025
  0
LINE
  8
0
 10
23.6442
 20
104.025
 11
23.6947
 21
103.744
  0
LINE
  8
0
 10
23.6947
 20
103.744
 11
23.7577
 21
103.467
  0
LINE
  8
0
 10
23.7577
 20
103.467
 11
23.8912
 21
102.99
  0
LINE
  8
0
 10
23.8912
 20
102.99
 11
24.0495
 21
102.522
  0
LINE
  8
0
 10
24.0495
 20
102.522
 11
24.2318
 21
102.063
  0
LINE
  8
0
 10
24.2318
 20
102.063
 11
24.4373
 21
101.615
  0
LINE
  8
0
 10
24.4373
 20
101.615
 11
24.6651
 21
101.177
  0
LINE
  8
0
 10
24.6651
 20
101.177
 11
24.9142
 21
100.752
  0
LINE
  8
0
 10
24.9142
 20
100.752
 11
25.1838
 21
100.339
  0
LINE
  8
0
 10
25.1838
 20
100.339
 11
25.473
 21
99.94
  0
LINE
  8
0
 10
25.473
 20
99.94
 11
25.7809
 21
99.5558
  0
LINE
  8
0
 10
25.7809
 20
99.5558
 11
26.1067
 21
99.1871
  0
LINE
  8
0
 10
26.1067
 20
99.1871
 11
26.4493
 21
98.8348
  0
LINE
  8
0
 10
26.4493
 20
98.8348
 11
26.8081
 21
98.4998
  0
LINE
  8
0
 10
26.8081
 20
98.4998
 11
27.182
 21
98.183
  0
LINE
  8
0
 10
27.182
 20
98.183
 11
27.5702
 21
97.8853
  0
LINE
  8
0
 10
27.5702
 20
97.8853
 11
27.9718
 21
97.6075
  0
LINE
  8
0
 10
27.9718
 20
97.6075
 11
28.3859
 21
97.3506
  0
LINE
  8
0
 10
28.3859
 20
97.3506
 11
28.7285
 21
97.1635
  0
LINE
  8
0
 10
28.7285
 20
97.1635
 11
29.2368
 21
96.9113
  0
LINE
  8
0
 10
29.2368
 20
96.9113
 11
29.7582
 21
96.6903
  0
LINE
  8
0
 10
29.7582
 20
96.6903
 11
30.2917
 21
96.5028
  0
LINE
  8
0
 10
30.2917
 20
96.5028
 11
30.8364
 21
96.3512
  0
LINE
  8
0
 10
30.8364
 20
96.3512
 11
31.0261
 21
96.3091
  0
LINE
  8
0
 10
31.0261
 20
96.3091
 11
31.2286
 21
96.2714
  0
LINE
  8
0
 10
31.2286
 20
96.2714
 11
31.6661
 21
96.209
  0
LINE
  8
0
 10
31.6661
 20
96.209
 11
32.137
 21
96.1639
  0
LINE
  8
0
 10
32.137
 20
96.1639
 11
32.6296
 21
96.136
  0
LINE
  8
0
 10
32.6296
 20
96.136
 11
33.132
 21
96.1254
  0
LINE
  8
0
 10
33.132
 20
96.1254
 11
33.6326
 21
96.1318
  0
LINE
  8
0
 10
27.0294
 20
49.891
 11
27.2817
 21
49.8993
  0
LINE
  8
0
 10
27.2817
 20
49.8993
 11
27.5307
 21
49.9254
  0
LINE
  8
0
 10
27.5307
 20
49.9254
 11
27.7756
 21
49.9685
  0
LINE
  8
0
 10
27.7756
 20
49.9685
 11
28.0157
 21
50.028
  0
LINE
  8
0
 10
28.0157
 20
50.028
 11
28.2505
 21
50.1032
  0
LINE
  8
0
 10
28.2505
 20
50.1032
 11
28.4793
 21
50.1936
  0
LINE
  8
0
 10
28.4793
 20
50.1936
 11
28.7015
 21
50.2984
  0
LINE
  8
0
 10
28.7015
 20
50.2984
 11
28.9164
 21
50.4171
  0
LINE
  8
0
 10
28.9164
 20
50.4171
 11
29.1233
 21
50.5491
  0
LINE
  8
0
 10
29.1233
 20
50.5491
 11
29.3217
 21
50.6935
  0
LINE
  8
0
 10
29.3217
 20
50.6935
 11
29.5109
 21
50.8499
  0
LINE
  8
0
 10
29.5109
 20
50.8499
 11
29.6902
 21
51.0176
  0
LINE
  8
0
 10
29.6902
 20
51.0176
 11
29.859
 21
51.1959
  0
LINE
  8
0
 10
29.859
 20
51.1959
 11
30.0167
 21
51.3843
  0
LINE
  8
0
 10
30.0167
 20
51.3843
 11
30.1626
 21
51.582
  0
LINE
  8
0
 10
30.1626
 20
51.582
 11
30.296
 21
51.7884
  0
LINE
  8
0
 10
30.296
 20
51.7884
 11
30.4164
 21
52.003
  0
LINE
  8
0
 10
30.4164
 20
52.003
 11
30.5231
 21
52.225
  0
LINE
  8
0
 10
30.5231
 20
52.225
 11
30.6154
 21
52.4538
  0
LINE
  8
0
 10
30.6154
 20
52.4538
 11
30.6927
 21
52.6888
  0
LINE
  8
0
 10
30.6927
 20
52.6888
 11
30.7544
 21
52.9293
  0
LINE
  8
0
 10
30.7544
 20
52.9293
 11
30.7998
 21
53.1747
  0
LINE
  8
0
 10
30.7998
 20
53.1747
 11
30.8283
 21
53.4244
  0
LINE
  8
0
 10
30.8283
 20
53.4244
 11
30.8392
 21
53.6777
  0
LINE
  8
0
 10
30.8392
 20
53.6777
 11
30.8319
 21
53.934
  0
LINE
  8
0
 10
30.8319
 20
53.934
 11
30.8057
 21
54.1927
  0
LINE
  8
0
 10
30.8057
 20
54.1927
 11
30.7601
 21
54.453
  0
LINE
  8
0
 10
30.7601
 20
54.453
 11
30.6943
 21
54.7144
  0
LINE
  8
0
 10
30.6943
 20
54.7144
 11
30.6375
 21
54.8984
  0
LINE
  8
0
 10
30.6375
 20
54.8984
 11
30.5723
 21
55.0909
  0
LINE
  8
0
 10
30.5723
 20
55.0909
 11
30.4256
 21
55.4787
  0
LINE
  8
0
 10
30.4256
 20
55.4787
 11
30.3486
 21
55.6626
  0
LINE
  8
0
 10
30.3486
 20
55.6626
 11
30.2725
 21
55.8322
  0
LINE
  8
0
 10
30.2725
 20
55.8322
 11
30.1993
 21
55.9817
  0
LINE
  8
0
 10
30.1993
 20
55.9817
 11
30.1315
 21
56.1056
  0
LINE
  8
0
 10
30.1315
 20
56.1056
 11
29.8209
 21
56.6332
  0
LINE
  8
0
 10
29.8209
 20
56.6332
 11
29.8199
 21
56.6347
  0
LINE
  8
0
 10
29.8199
 20
56.6347
 11
29.5832
 21
56.398
  0
LINE
  8
0
 10
29.5832
 20
56.398
 11
28.4086
 21
55.226
  0
LINE
  8
0
 10
28.4086
 20
55.226
 11
28.1326
 21
54.9547
  0
LINE
  8
0
 10
28.1326
 20
54.9547
 11
27.8647
 21
54.7003
  0
LINE
  8
0
 10
27.8647
 20
54.7003
 11
27.6039
 21
54.4618
  0
LINE
  8
0
 10
27.6039
 20
54.4618
 11
27.3488
 21
54.2386
  0
LINE
  8
0
 10
27.3488
 20
54.2386
 11
27.0982
 21
54.0297
  0
LINE
  8
0
 10
27.0982
 20
54.0297
 11
26.8508
 21
53.8343
  0
LINE
  8
0
 10
26.8508
 20
53.8343
 11
26.6055
 21
53.6516
  0
LINE
  8
0
 10
26.6055
 20
53.6516
 11
26.361
 21
53.4806
  0
LINE
  8
0
 10
26.361
 20
53.4806
 11
25.8694
 21
53.1709
  0
LINE
  8
0
 10
25.8694
 20
53.1709
 11
25.3661
 21
52.8985
  0
LINE
  8
0
 10
25.3661
 20
52.8985
 11
24.8412
 21
52.6566
  0
LINE
  8
0
 10
24.8412
 20
52.6566
 11
24.2848
 21
52.4386
  0
LINE
  8
0
 10
24.2848
 20
52.4386
 11
23.3459
 21
52.0981
  0
LINE
  8
0
 10
23.3459
 20
52.0981
 11
23.3459
 21
52.0981
  0
LINE
  8
0
 10
23.3459
 20
52.0981
 11
23.3428
 21
52.097
  0
LINE
  8
0
 10
23.3428
 20
52.097
 11
24.011
 21
51.3725
  0
LINE
  8
0
 10
24.011
 20
51.3725
 11
24.254
 21
51.1202
  0
LINE
  8
0
 10
24.254
 20
51.1202
 11
24.4922
 21
50.8969
  0
LINE
  8
0
 10
24.4922
 20
50.8969
 11
24.7288
 21
50.7005
  0
LINE
  8
0
 10
24.7288
 20
50.7005
 11
24.9669
 21
50.5288
  0
LINE
  8
0
 10
24.9669
 20
50.5288
 11
25.2097
 21
50.3797
  0
LINE
  8
0
 10
25.2097
 20
50.3797
 11
25.4604
 21
50.2511
  0
LINE
  8
0
 10
25.4604
 20
50.2511
 11
25.7223
 21
50.1409
  0
LINE
  8
0
 10
25.7223
 20
50.1409
 11
25.9984
 21
50.047
  0
LINE
  8
0
 10
25.9984
 20
50.047
 11
26.2581
 21
49.9783
  0
LINE
  8
0
 10
26.2581
 20
49.9783
 11
26.5169
 21
49.9298
  0
LINE
  8
0
 10
26.5169
 20
49.9298
 11
26.7742
 21
49.9009
  0
LINE
  8
0
 10
26.7742
 20
49.9009
 11
27.0294
 21
49.891
  0
LINE
  8
0
 10
21.3186
 20
6.67741
 11
21.7172
 21
6.68881
  0
LINE
  8
0
 10
21.7172
 20
6.68881
 11
22.1168
 21
6.73351
  0
LINE
  8
0
 10
22.1168
 20
6.73351
 11
22.5046
 21
6.81062
  0
LINE
  8
0
 10
22.5046
 20
6.81062
 11
22.8676
 21
6.91924
  0
LINE
  8
0
 10
22.8676
 20
6.91924
 11
23.0358
 21
6.98505
  0
LINE
  8
0
 10
23.0358
 20
6.98505
 11
23.1929
 21
7.05843
  0
LINE
  8
0
 10
23.1929
 20
7.05843
 11
23.3457
 21
7.14288
  0
LINE
  8
0
 10
23.3457
 20
7.14288
 11
23.4982
 21
7.23969
  0
LINE
  8
0
 10
23.4982
 20
7.23969
 11
23.7979
 21
7.46588
  0
LINE
  8
0
 10
23.7979
 20
7.46588
 11
24.0848
 21
7.72824
  0
LINE
  8
0
 10
24.0848
 20
7.72824
 11
24.3514
 21
8.01794
  0
LINE
  8
0
 10
24.3514
 20
8.01794
 11
24.5902
 21
8.3262
  0
LINE
  8
0
 10
24.5902
 20
8.3262
 11
24.7938
 21
8.64423
  0
LINE
  8
0
 10
24.7938
 20
8.64423
 11
24.9548
 21
8.96318
  0
LINE
  8
0
 10
24.9548
 20
8.96318
 11
25.017
 21
9.12027
  0
LINE
  8
0
 10
25.017
 20
9.12027
 11
25.0657
 21
9.27431
  0
LINE
  8
0
 10
25.0657
 20
9.27431
 11
25.0879
 21
9.37756
  0
LINE
  8
0
 10
25.0879
 20
9.37756
 11
25.1081
 21
9.51889
  0
LINE
  8
0
 10
25.1081
 20
9.51889
 11
25.1265
 21
9.69922
  0
LINE
  8
0
 10
25.1265
 20
9.69922
 11
25.1429
 21
9.91948
  0
LINE
  8
0
 10
25.1429
 20
9.91948
 11
25.1575
 21
10.1806
  0
LINE
  8
0
 10
25.1575
 20
10.1806
 11
25.1702
 21
10.4835
  0
LINE
  8
0
 10
25.1702
 20
10.4835
 11
25.1811
 21
10.8291
  0
LINE
  8
0
 10
25.1811
 20
10.8291
 11
25.1901
 21
11.2183
  0
LINE
  8
0
 10
25.1901
 20
11.2183
 11
25.1973
 21
11.6521
  0
LINE
  8
0
 10
25.1973
 20
11.6521
 11
25.2028
 21
12.1313
  0
LINE
  8
0
 10
25.2028
 20
12.1313
 11
25.2065
 21
12.657
  0
LINE
  8
0
 10
25.2065
 20
12.657
 11
25.2077
 21
12.9376
  0
LINE
  8
0
 10
25.2077
 20
12.9376
 11
25.2084
 21
13.23
  0
LINE
  8
0
 10
25.2084
 20
13.23
 11
25.2087
 21
13.5346
  0
LINE
  8
0
 10
25.2087
 20
13.5346
 11
25.2086
 21
13.8513
  0
LINE
  8
0
 10
25.2086
 20
13.8513
 11
25.2081
 21
14.1803
  0
LINE
  8
0
 10
25.2081
 20
14.1803
 11
25.2071
 21
14.5218
  0
LINE
  8
0
 10
25.2071
 20
14.5218
 11
25.2057
 21
14.8757
  0
LINE
  8
0
 10
25.2057
 20
14.8757
 11
25.2039
 21
15.2423
  0
LINE
  8
0
 10
25.2039
 20
15.2423
 11
25.2016
 21
15.6217
  0
LINE
  8
0
 10
25.2016
 20
15.6217
 11
25.199
 21
16.0139
  0
LINE
  8
0
 10
25.199
 20
16.0139
 11
25.1571
 21
21.8508
  0
LINE
  8
0
 10
25.1571
 20
21.8508
 11
25.1643
 21
22.1169
  0
LINE
  8
0
 10
25.1643
 20
22.1169
 11
18.0831
 21
15.0827
  0
LINE
  8
0
 10
18.0831
 20
15.0827
 11
17.7116
 21
14.7138
  0
LINE
  8
0
 10
17.7116
 20
14.7138
 11
17.7121
 21
14.6616
  0
LINE
  8
0
 10
17.7121
 20
14.6616
 11
17.7126
 21
14.6616
  0
LINE
  8
0
 10
17.7126
 20
14.6616
 11
17.7498
 21
12.1635
  0
LINE
  8
0
 10
17.7498
 20
12.1635
 11
17.7533
 21
11.9405
  0
LINE
  8
0
 10
17.7533
 20
11.9405
 11
17.7566
 21
11.7305
  0
LINE
  8
0
 10
17.7566
 20
11.7305
 11
17.76
 21
11.5329
  0
LINE
  8
0
 10
17.76
 20
11.5329
 11
17.7636
 21
11.3473
  0
LINE
  8
0
 10
17.7636
 20
11.3473
 11
17.7713
 21
11.0095
  0
LINE
  8
0
 10
17.7713
 20
11.0095
 11
17.7805
 21
10.7126
  0
LINE
  8
0
 10
17.7805
 20
10.7126
 11
17.7917
 21
10.4523
  0
LINE
  8
0
 10
17.7917
 20
10.4523
 11
17.8055
 21
10.2241
  0
LINE
  8
0
 10
17.8055
 20
10.2241
 11
17.8225
 21
10.0235
  0
LINE
  8
0
 10
17.8225
 20
10.0235
 11
17.8434
 21
9.84613
  0
LINE
  8
0
 10
17.8434
 20
9.84613
 11
17.8688
 21
9.68752
  0
LINE
  8
0
 10
17.8688
 20
9.68752
 11
17.8992
 21
9.54323
  0
LINE
  8
0
 10
17.8992
 20
9.54323
 11
17.9776
 21
9.27985
  0
LINE
  8
0
 10
17.9776
 20
9.27985
 11
18.0836
 21
9.02049
  0
LINE
  8
0
 10
18.0836
 20
9.02049
 11
18.1485
 21
8.88121
  0
LINE
  8
0
 10
18.1485
 20
8.88121
 11
18.2222
 21
8.72964
  0
LINE
  8
0
 10
18.2222
 20
8.72964
 11
18.4038
 21
8.39198
  0
LINE
  8
0
 10
18.4038
 20
8.39198
 11
18.6015
 21
8.08815
  0
LINE
  8
0
 10
18.6015
 20
8.08815
 11
18.8176
 21
7.81593
  0
LINE
  8
0
 10
18.8176
 20
7.81593
 11
19.0544
 21
7.57314
  0
LINE
  8
0
 10
19.0544
 20
7.57314
 11
19.3144
 21
7.35757
  0
LINE
  8
0
 10
19.3144
 20
7.35757
 11
19.6001
 21
7.16704
  0
LINE
  8
0
 10
19.6001
 20
7.16704
 11
19.9137
 21
6.99931
  0
LINE
  8
0
 10
19.9137
 20
6.99931
 11
20.2577
 21
6.85223
  0
LINE
  8
0
 10
20.2577
 20
6.85223
 11
20.411
 21
6.80066
  0
LINE
  8
0
 10
20.411
 20
6.80066
 11
20.5759
 21
6.75822
  0
LINE
  8
0
 10
20.5759
 20
6.75822
 11
20.7507
 21
6.72479
  0
LINE
  8
0
 10
20.7507
 20
6.72479
 11
20.9339
 21
6.70026
  0
LINE
  8
0
 10
20.9339
 20
6.70026
 11
21.3186
 21
6.67741
  0
LINE
  8
0
 10
29.6179
 20
58.9732
 11
30.1112
 21
59.5921
  0
LINE
  8
0
 10
30.1112
 20
59.5921
 11
30.6055
 21
60.2283
  0
LINE
  8
0
 10
30.6055
 20
60.2283
 11
31.1043
 21
60.887
  0
LINE
  8
0
 10
31.1043
 20
60.887
 11
31.611
 21
61.5728
  0
LINE
  8
0
 10
31.611
 20
61.5728
 11
32.1289
 21
62.2909
  0
LINE
  8
0
 10
32.1289
 20
62.2909
 11
32.6615
 21
63.046
  0
LINE
  8
0
 10
32.6615
 20
63.046
 11
32.9344
 21
63.439
  0
LINE
  8
0
 10
32.9344
 20
63.439
 11
33.2121
 21
63.8431
  0
LINE
  8
0
 10
33.2121
 20
63.8431
 11
33.4953
 21
64.259
  0
LINE
  8
0
 10
33.4953
 20
64.259
 11
33.7842
 21
64.6872
  0
LINE
  8
0
 10
33.7842
 20
64.6872
 11
34.0794
 21
65.1283
  0
LINE
  8
0
 10
34.0794
 20
65.1283
 11
34.3812
 21
65.583
  0
LINE
  8
0
 10
34.3812
 20
65.583
 11
34.6901
 21
66.0519
  0
LINE
  8
0
 10
34.6901
 20
66.0519
 11
35.0065
 21
66.5356
  0
LINE
  8
0
 10
35.0065
 20
66.5356
 11
35.3307
 21
67.0346
  0
LINE
  8
0
 10
35.3307
 20
67.0346
 11
35.6634
 21
67.5498
  0
LINE
  8
0
 10
35.6634
 20
67.5498
 11
36.0047
 21
68.0815
  0
LINE
  8
0
 10
36.0047
 20
68.0815
 11
36.3553
 21
68.6305
  0
LINE
  8
0
 10
36.3553
 20
68.6305
 11
36.7155
 21
69.1974
  0
LINE
  8
0
 10
36.7155
 20
69.1974
 11
37.0858
 21
69.7827
  0
LINE
  8
0
 10
37.0858
 20
69.7827
 11
37.4665
 21
70.3871
  0
LINE
  8
0
 10
37.4665
 20
70.3871
 11
37.8581
 21
71.0113
  0
LINE
  8
0
 10
37.8581
 20
71.0113
 11
38.261
 21
71.6557
  0
LINE
  8
0
 10
38.261
 20
71.6557
 11
38.6757
 21
72.3211
  0
LINE
  8
0
 10
38.6757
 20
72.3211
 11
38.9558
 21
72.7724
  0
LINE
  8
0
 10
38.9558
 20
72.7724
 11
39.2204
 21
73.1996
  0
LINE
  8
0
 10
39.2204
 20
73.1996
 11
39.5104
 21
73.6697
  0
LINE
  8
0
 10
39.5104
 20
73.6697
 11
39.7879
 21
74.122
  0
LINE
  8
0
 10
39.7879
 20
74.122
 11
40.0535
 21
74.5574
  0
LINE
  8
0
 10
40.0535
 20
74.5574
 11
40.3077
 21
74.977
  0
LINE
  8
0
 10
40.3077
 20
74.977
 11
40.551
 21
75.3817
  0
LINE
  8
0
 10
40.551
 20
75.3817
 11
40.7838
 21
75.7724
  0
LINE
  8
0
 10
40.7838
 20
75.7724
 11
41.0067
 21
76.15
  0
LINE
  8
0
 10
41.0067
 20
76.15
 11
41.2202
 21
76.5156
  0
LINE
  8
0
 10
41.2202
 20
76.5156
 11
41.4246
 21
76.8701
  0
LINE
  8
0
 10
41.4246
 20
76.8701
 11
41.6207
 21
77.2144
  0
LINE
  8
0
 10
41.6207
 20
77.2144
 11
41.8087
 21
77.5494
  0
LINE
  8
0
 10
41.8087
 20
77.5494
 11
42.1629
 21
78.1958
  0
LINE
  8
0
 10
42.1629
 20
78.1958
 11
42.4912
 21
78.8167
  0
LINE
  8
0
 10
42.4912
 20
78.8167
 11
42.7976
 21
79.4198
  0
LINE
  8
0
 10
42.7976
 20
79.4198
 11
43.0859
 21
80.0127
  0
LINE
  8
0
 10
43.0859
 20
80.0127
 11
43.6244
 21
81.1985
  0
LINE
  8
0
 10
43.6244
 20
81.1985
 11
43.8824
 21
81.8067
  0
LINE
  8
0
 10
43.8824
 20
81.8067
 11
44.1383
 21
82.4351
  0
LINE
  8
0
 10
44.1383
 20
82.4351
 11
44.3959
 21
83.0915
  0
LINE
  8
0
 10
44.3959
 20
83.0915
 11
44.6593
 21
83.7835
  0
LINE
  8
0
 10
44.6593
 20
83.7835
 11
44.9398
 21
84.5725
  0
LINE
  8
0
 10
44.9398
 20
84.5725
 11
45.1799
 21
85.3393
  0
LINE
  8
0
 10
45.1799
 20
85.3393
 11
45.3795
 21
86.0843
  0
LINE
  8
0
 10
45.3795
 20
86.0843
 11
45.5387
 21
86.8083
  0
LINE
  8
0
 10
45.5387
 20
86.8083
 11
45.6573
 21
87.5118
  0
LINE
  8
0
 10
45.6573
 20
87.5118
 11
45.7355
 21
88.1955
  0
LINE
  8
0
 10
45.7355
 20
88.1955
 11
45.7731
 21
88.86
  0
LINE
  8
0
 10
45.7731
 20
88.86
 11
45.7701
 21
89.5059
  0
LINE
  8
0
 10
45.7701
 20
89.5059
 11
45.7266
 21
90.1339
  0
LINE
  8
0
 10
45.7266
 20
90.1339
 11
45.6424
 21
90.7445
  0
LINE
  8
0
 10
45.6424
 20
90.7445
 11
45.5177
 21
91.3385
  0
LINE
  8
0
 10
45.5177
 20
91.3385
 11
45.3522
 21
91.9164
  0
LINE
  8
0
 10
45.3522
 20
91.9164
 11
45.1462
 21
92.4789
  0
LINE
  8
0
 10
45.1462
 20
92.4789
 11
44.8994
 21
93.0266
  0
LINE
  8
0
 10
44.8994
 20
93.0266
 11
44.6119
 21
93.56
  0
LINE
  8
0
 10
44.6119
 20
93.56
 11
44.2836
 21
94.08
  0
LINE
  8
0
 10
44.2836
 20
94.08
 11
44.161
 21
94.2493
  0
LINE
  8
0
 10
44.161
 20
94.2493
 11
44.0072
 21
94.4439
  0
LINE
  8
0
 10
44.0072
 20
94.4439
 11
43.827
 21
94.6588
  0
LINE
  8
0
 10
43.827
 20
94.6588
 11
43.6255
 21
94.8889
  0
LINE
  8
0
 10
43.6255
 20
94.8889
 11
43.4077
 21
95.1293
  0
LINE
  8
0
 10
43.4077
 20
95.1293
 11
43.1784
 21
95.375
  0
LINE
  8
0
 10
43.1784
 20
95.375
 11
42.7056
 21
95.8623
  0
LINE
  8
0
 10
42.7056
 20
95.8623
 11
42.472
 21
96.0939
  0
LINE
  8
0
 10
42.472
 20
96.0939
 11
42.2469
 21
96.3109
  0
LINE
  8
0
 10
42.2469
 20
96.3109
 11
42.0352
 21
96.5081
  0
LINE
  8
0
 10
42.0352
 20
96.5081
 11
41.8419
 21
96.6807
  0
LINE
  8
0
 10
41.8419
 20
96.6807
 11
41.6721
 21
96.8236
  0
LINE
  8
0
 10
41.6721
 20
96.8236
 11
41.5975
 21
96.8824
  0
LINE
  8
0
 10
41.5975
 20
96.8824
 11
41.5306
 21
96.9319
  0
LINE
  8
0
 10
41.5306
 20
96.9319
 11
41.472
 21
96.9715
  0
LINE
  8
0
 10
41.472
 20
96.9715
 11
41.4224
 21
97.0005
  0
LINE
  8
0
 10
41.4224
 20
97.0005
 11
41.3824
 21
97.0184
  0
LINE
  8
0
 10
41.3824
 20
97.0184
 11
41.3661
 21
97.023
  0
LINE
  8
0
 10
41.3661
 20
97.023
 11
41.359
 21
97.0241
  0
LINE
  8
0
 10
41.359
 20
97.0241
 11
41.3525
 21
97.0245
  0
LINE
  8
0
 10
41.3525
 20
97.0245
 11
41.3493
 21
97.0243
  0
LINE
  8
0
 10
41.3493
 20
97.0243
 11
41.3454
 21
97.0236
  0
LINE
  8
0
 10
41.3454
 20
97.0236
 11
41.3356
 21
97.0209
  0
LINE
  8
0
 10
41.3356
 20
97.0209
 11
41.3085
 21
97.0104
  0
LINE
  8
0
 10
41.3085
 20
97.0104
 11
41.2258
 21
96.9698
  0
LINE
  8
0
 10
41.2258
 20
96.9698
 11
41.1092
 21
96.9057
  0
LINE
  8
0
 10
41.1092
 20
96.9057
 11
40.9635
 21
96.8209
  0
LINE
  8
0
 10
40.9635
 20
96.8209
 11
40.7936
 21
96.7182
  0
LINE
  8
0
 10
40.7936
 20
96.7182
 11
40.6041
 21
96.6006
  0
LINE
  8
0
 10
40.6041
 20
96.6006
 11
40.3999
 21
96.4707
  0
LINE
  8
0
 10
40.3999
 20
96.4707
 11
40.1857
 21
96.3315
  0
LINE
  8
0
 10
40.1857
 20
96.3315
 11
39.7858
 21
96.0735
  0
LINE
  8
0
 10
39.7858
 20
96.0735
 11
39.3807
 21
95.8269
  0
LINE
  8
0
 10
39.3807
 20
95.8269
 11
38.9573
 21
95.5915
  0
LINE
  8
0
 10
38.9573
 20
95.5915
 11
38.5026
 21
95.3672
  0
LINE
  8
0
 10
38.5026
 20
95.3672
 11
38.2593
 21
95.2591
  0
LINE
  8
0
 10
38.2593
 20
95.2591
 11
38.0033
 21
95.1537
  0
LINE
  8
0
 10
38.0033
 20
95.1537
 11
37.733
 21
95.051
  0
LINE
  8
0
 10
37.733
 20
95.051
 11
37.4465
 21
94.951
  0
LINE
  8
0
 10
37.4465
 20
94.951
 11
37.1425
 21
94.8535
  0
LINE
  8
0
 10
37.1425
 20
94.8535
 11
36.8191
 21
94.7586
  0
LINE
  8
0
 10
36.8191
 20
94.7586
 11
36.4748
 21
94.6663
  0
LINE
  8
0
 10
36.4748
 20
94.6663
 11
36.1079
 21
94.5766
  0
LINE
  8
0
 10
36.1079
 20
94.5766
 11
35.7768
 21
94.5064
  0
LINE
  8
0
 10
35.7768
 20
94.5064
 11
35.4421
 21
94.4488
  0
LINE
  8
0
 10
35.4421
 20
94.4488
 11
34.7664
 21
94.3678
  0
LINE
  8
0
 10
34.7664
 20
94.3678
 11
34.386
 21
94.3399
  0
LINE
  8
0
 10
34.386
 20
94.3399
 11
33.7773
 21
94.322
  0
LINE
  8
0
 10
33.7773
 20
94.322
 11
33.6253
 21
94.3241
  0
LINE
  8
0
 10
33.6253
 20
94.3241
 11
33.1745
 21
94.3323
  0
LINE
  8
0
 10
33.1745
 20
94.3323
 11
32.9962
 21
94.3424
  0
LINE
  8
0
 10
32.9962
 20
94.3424
 11
32.5837
 21
94.3678
  0
LINE
  8
0
 10
32.5837
 20
94.3678
 11
32.3952
 21
94.3861
  0
LINE
  8
0
 10
32.3952
 20
94.3861
 11
32.0122
 21
94.4253
  0
LINE
  8
0
 10
32.0122
 20
94.4253
 11
31.8158
 21
94.4522
  0
LINE
  8
0
 10
31.8158
 20
94.4522
 11
31.4696
 21
94.5011
  0
LINE
  8
0
 10
31.4696
 20
94.5011
 11
31.2752
 21
94.5356
  0
LINE
  8
0
 10
31.2752
 20
94.5356
 11
30.9629
 21
94.5918
  0
LINE
  8
0
 10
30.9629
 20
94.5918
 11
30.8805
 21
94.609
  0
LINE
  8
0
 10
30.8805
 20
94.609
 11
30.7316
 21
94.6403
  0
LINE
  8
0
 10
30.7316
 20
94.6403
 11
30.6455
 21
94.6601
  0
LINE
  8
0
 10
30.6455
 20
94.6601
 11
30.5091
 21
94.6916
  0
LINE
  8
0
 10
30.5091
 20
94.6916
 11
30.4191
 21
94.7143
  0
LINE
  8
0
 10
30.4191
 20
94.7143
 11
30.3006
 21
94.7444
  0
LINE
  8
0
 10
30.3006
 20
94.7444
 11
30.1062
 21
94.7983
  0
LINE
  8
0
 10
30.1062
 20
94.7983
 11
29.6561
 21
94.9414
  0
LINE
  8
0
 10
29.6561
 20
94.9414
 11
29.5225
 21
94.9911
  0
LINE
  8
0
 10
29.5225
 20
94.9911
 11
29.2228
 21
95.1033
  0
LINE
  8
0
 10
29.2228
 20
95.1033
 11
29.0464
 21
95.1792
  0
LINE
  8
0
 10
29.0464
 20
95.1792
 11
28.8029
 21
95.2842
  0
LINE
  8
0
 10
28.8029
 20
95.2842
 11
28.545
 21
95.4095
  0
LINE
  8
0
 10
28.545
 20
95.4095
 11
28.3916
 21
95.484
  0
LINE
  8
0
 10
28.3916
 20
95.484
 11
28.0438
 21
95.6685
  0
LINE
  8
0
 10
28.0438
 20
95.6685
 11
27.6783
 21
95.8806
  0
LINE
  8
0
 10
27.6783
 20
95.8806
 11
27.3073
 21
96.1112
  0
LINE
  8
0
 10
27.3073
 20
96.1112
 11
26.9264
 21
96.3613
  0
LINE
  8
0
 10
26.9264
 20
96.3613
 11
26.5313
 21
96.6321
  0
LINE
  8
0
 10
26.5313
 20
96.6321
 11
26.1178
 21
96.9247
  0
LINE
  8
0
 10
26.1178
 20
96.9247
 11
25.6816
 21
97.2402
  0
LINE
  8
0
 10
25.6816
 20
97.2402
 11
25.2185
 21
97.5797
  0
LINE
  8
0
 10
25.2185
 20
97.5797
 11
24.7241
 21
97.9444
  0
LINE
  8
0
 10
24.7241
 20
97.9444
 11
24.3919
 21
98.1873
  0
LINE
  8
0
 10
24.3919
 20
98.1873
 11
24.0752
 21
98.4136
  0
LINE
  8
0
 10
24.0752
 20
98.4136
 11
23.7731
 21
98.6234
  0
LINE
  8
0
 10
23.7731
 20
98.6234
 11
23.4843
 21
98.8168
  0
LINE
  8
0
 10
23.4843
 20
98.8168
 11
23.2078
 21
98.994
  0
LINE
  8
0
 10
23.2078
 20
98.994
 11
22.9425
 21
99.1552
  0
LINE
  8
0
 10
22.9425
 20
99.1552
 11
22.6872
 21
99.3003
  0
LINE
  8
0
 10
22.6872
 20
99.3003
 11
22.441
 21
99.4297
  0
LINE
  8
0
 10
22.441
 20
99.4297
 11
22.2026
 21
99.5433
  0
LINE
  8
0
 10
22.2026
 20
99.5433
 11
21.971
 21
99.6414
  0
LINE
  8
0
 10
21.971
 20
99.6414
 11
21.7451
 21
99.7241
  0
LINE
  8
0
 10
21.7451
 20
99.7241
 11
21.5238
 21
99.7914
  0
LINE
  8
0
 10
21.5238
 20
99.7914
 11
21.3059
 21
99.8436
  0
LINE
  8
0
 10
21.3059
 20
99.8436
 11
21.0905
 21
99.8808
  0
LINE
  8
0
 10
21.0905
 20
99.8808
 11
20.8763
 21
99.9031
  0
LINE
  8
0
 10
20.8763
 20
99.9031
 11
20.6623
 21
99.9106
  0
LINE
  8
0
 10
20.6623
 20
99.9106
 11
20.4043
 21
99.9004
  0
LINE
  8
0
 10
20.4043
 20
99.9004
 11
20.143
 21
99.8693
  0
LINE
  8
0
 10
20.143
 20
99.8693
 11
19.8766
 21
99.8176
  0
LINE
  8
0
 10
19.8766
 20
99.8176
 11
19.6033
 21
99.7455
  0
LINE
  8
0
 10
19.6033
 20
99.7455
 11
19.321
 21
99.6533
  0
LINE
  8
0
 10
19.321
 20
99.6533
 11
19.028
 21
99.5411
  0
LINE
  8
0
 10
19.028
 20
99.5411
 11
18.7223
 21
99.4093
  0
LINE
  8
0
 10
18.7223
 20
99.4093
 11
18.402
 21
99.258
  0
LINE
  8
0
 10
18.402
 20
99.258
 11
17.9125
 21
99.0014
  0
LINE
  8
0
 10
17.9125
 20
99.0014
 11
17.4384
 21
98.7198
  0
LINE
  8
0
 10
17.4384
 20
98.7198
 11
16.9807
 21
98.4144
  0
LINE
  8
0
 10
16.9807
 20
98.4144
 11
16.5405
 21
98.0864
  0
LINE
  8
0
 10
16.5405
 20
98.0864
 11
16.1188
 21
97.7371
  0
LINE
  8
0
 10
16.1188
 20
97.7371
 11
15.7167
 21
97.3678
  0
LINE
  8
0
 10
15.7167
 20
97.3678
 11
15.3351
 21
96.9795
  0
LINE
  8
0
 10
15.3351
 20
96.9795
 11
14.9752
 21
96.5736
  0
LINE
  8
0
 10
14.9752
 20
96.5736
 11
14.6379
 21
96.1513
  0
LINE
  8
0
 10
14.6379
 20
96.1513
 11
14.3243
 21
95.7138
  0
LINE
  8
0
 10
14.3243
 20
95.7138
 11
14.0354
 21
95.2624
  0
LINE
  8
0
 10
14.0354
 20
95.2624
 11
13.7723
 21
94.7983
  0
LINE
  8
0
 10
13.7723
 20
94.7983
 11
13.536
 21
94.3227
  0
LINE
  8
0
 10
13.536
 20
94.3227
 11
13.3275
 21
93.8368
  0
LINE
  8
0
 10
13.3275
 20
93.8368
 11
13.1479
 21
93.3419
  0
LINE
  8
0
 10
13.1479
 20
93.3419
 11
12.9982
 21
92.8392
  0
LINE
  8
0
 10
12.9982
 20
92.8392
 11
12.9386
 21
92.5838
  0
LINE
  8
0
 10
12.9386
 20
92.5838
 11
12.8872
 21
92.2996
  0
LINE
  8
0
 10
12.8872
 20
92.2996
 11
12.8441
 21
91.9899
  0
LINE
  8
0
 10
12.8441
 20
91.9899
 11
12.8091
 21
91.6583
  0
LINE
  8
0
 10
12.8091
 20
91.6583
 11
12.7822
 21
91.3082
  0
LINE
  8
0
 10
12.7822
 20
91.3082
 11
12.7635
 21
90.9429
  0
LINE
  8
0
 10
12.7635
 20
90.9429
 11
12.7505
 21
90.1807
  0
LINE
  8
0
 10
12.7505
 20
90.1807
 11
12.7699
 21
89.3994
  0
LINE
  8
0
 10
12.7699
 20
89.3994
 11
12.8216
 21
88.6263
  0
LINE
  8
0
 10
12.8216
 20
88.6263
 11
12.8596
 21
88.2514
  0
LINE
  8
0
 10
12.8596
 20
88.2514
 11
12.9055
 21
87.8889
  0
LINE
  8
0
 10
12.9055
 20
87.8889
 11
12.9595
 21
87.5422
  0
LINE
  8
0
 10
12.9595
 20
87.5422
 11
13.0214
 21
87.2148
  0
LINE
  8
0
 10
13.0214
 20
87.2148
 11
13.0581
 21
87.0434
  0
LINE
  8
0
 10
13.0581
 20
87.0434
 11
13.0998
 21
86.8571
  0
LINE
  8
0
 10
13.0998
 20
86.8571
 11
13.1463
 21
86.6564
  0
LINE
  8
0
 10
13.1463
 20
86.6564
 11
13.1976
 21
86.4416
  0
LINE
  8
0
 10
13.1976
 20
86.4416
 11
13.2535
 21
86.2133
  0
LINE
  8
0
 10
13.2535
 20
86.2133
 11
13.3138
 21
85.972
  0
LINE
  8
0
 10
13.3138
 20
85.972
 11
13.3785
 21
85.7181
  0
LINE
  8
0
 10
13.3785
 20
85.7181
 11
13.4473
 21
85.452
  0
LINE
  8
0
 10
13.4473
 20
85.452
 11
13.5202
 21
85.1742
  0
LINE
  8
0
 10
13.5202
 20
85.1742
 11
13.597
 21
84.8852
  0
LINE
  8
0
 10
13.597
 20
84.8852
 11
13.7618
 21
84.2753
  0
LINE
  8
0
 10
13.7618
 20
84.2753
 11
13.9406
 21
83.626
  0
LINE
  8
0
 10
13.9406
 20
83.626
 11
14.1322
 21
82.9411
  0
LINE
  8
0
 10
14.1322
 20
82.9411
 11
14.3357
 21
82.2241
  0
LINE
  8
0
 10
14.3357
 20
82.2241
 11
14.5499
 21
81.4788
  0
LINE
  8
0
 10
14.5499
 20
81.4788
 11
14.7736
 21
80.7088
  0
LINE
  8
0
 10
14.7736
 20
80.7088
 11
15.0058
 21
79.918
  0
LINE
  8
0
 10
15.0058
 20
79.918
 11
15.2454
 21
79.1098
  0
LINE
  8
0
 10
15.2454
 20
79.1098
 11
15.4913
 21
78.288
  0
LINE
  8
0
 10
15.4913
 20
78.288
 11
15.9975
 21
76.6185
  0
LINE
  8
0
 10
15.9975
 20
76.6185
 11
16.1758
 21
76.0387
  0
LINE
  8
0
 10
16.1758
 20
76.0387
 11
16.7886
 21
74.0668
  0
LINE
  8
0
 10
16.7886
 20
74.0668
 11
17.0952
 21
73.0957
  0
LINE
  8
0
 10
17.0952
 20
73.0957
 11
17.3996
 21
72.1425
  0
LINE
  8
0
 10
17.3996
 20
72.1425
 11
17.6999
 21
71.2132
  0
LINE
  8
0
 10
17.6999
 20
71.2132
 11
17.9944
 21
70.3139
  0
LINE
  8
0
 10
17.9944
 20
70.3139
 11
18.2814
 21
69.4506
  0
LINE
  8
0
 10
18.2814
 20
69.4506
 11
18.5591
 21
68.6293
  0
LINE
  8
0
 10
18.5591
 20
68.6293
 11
18.9814
 21
67.3913
  0
LINE
  8
0
 10
18.9814
 20
67.3913
 11
19.1849
 21
66.794
  0
LINE
  8
0
 10
19.1849
 20
66.794
 11
19.376
 21
66.2329
  0
LINE
  8
0
 10
19.376
 20
66.2329
 11
19.5492
 21
65.7242
  0
LINE
  8
0
 10
19.5492
 20
65.7242
 11
19.6989
 21
65.2841
  0
LINE
  8
0
 10
19.6989
 20
65.2841
 11
19.8196
 21
64.9288
  0
LINE
  8
0
 10
19.8196
 20
64.9288
 11
19.8673
 21
64.788
  0
LINE
  8
0
 10
19.8673
 20
64.788
 11
19.9058
 21
64.6745
  0
LINE
  8
0
 10
19.9058
 20
64.6745
 11
19.9768
 21
64.4745
  0
LINE
  8
0
 10
19.9768
 20
64.4745
 11
20.0479
 21
64.2906
  0
LINE
  8
0
 10
20.0479
 20
64.2906
 11
20.0458
 21
64.2901
  0
LINE
  8
0
 10
20.0458
 20
64.2901
 11
20.2338
 21
63.5955
  0
LINE
  8
0
 10
20.2338
 20
63.5955
 11
20.4386
 21
63.8519
  0
LINE
  8
0
 10
20.4386
 20
63.8519
 11
20.4954
 21
63.9247
  0
LINE
  8
0
 10
20.4954
 20
63.9247
 11
20.5651
 21
64.017
  0
LINE
  8
0
 10
20.5651
 20
64.017
 11
20.6471
 21
64.1278
  0
LINE
  8
0
 10
20.6471
 20
64.1278
 11
20.7428
 21
64.259
  0
LINE
  8
0
 10
20.7428
 20
64.259
 11
20.8452
 21
64.4011
  0
LINE
  8
0
 10
20.8452
 20
64.4011
 11
20.9599
 21
64.5616
  0
LINE
  8
0
 10
20.9599
 20
64.5616
 11
21.084
 21
64.7369
  0
LINE
  8
0
 10
21.084
 20
64.7369
 11
21.2171
 21
64.9258
  0
LINE
  8
0
 10
21.2171
 20
64.9258
 11
21.3589
 21
65.1283
  0
LINE
  8
0
 10
21.3589
 20
65.1283
 11
21.507
 21
65.3408
  0
LINE
  8
0
 10
21.507
 20
65.3408
 11
21.8241
 21
65.7991
  0
LINE
  8
0
 10
21.8241
 20
65.7991
 11
22.1629
 21
66.2929
  0
LINE
  8
0
 10
22.1629
 20
66.2929
 11
22.518
 21
66.8145
  0
LINE
  8
0
 10
22.518
 20
66.8145
 11
24.305
 21
69.4489
  0
LINE
  8
0
 10
24.305
 20
69.4489
 11
24.5592
 21
69.8236
  0
LINE
  8
0
 10
24.5592
 20
69.8236
 11
24.5665
 21
69.8339
  0
LINE
  8
0
 10
24.5665
 20
69.8339
 11
23.9769
 21
73.2606
  0
LINE
  8
0
 10
23.9769
 20
73.2606
 11
23.9148
 21
73.6232
  0
LINE
  8
0
 10
23.9148
 20
73.6232
 11
23.8506
 21
74.0022
  0
LINE
  8
0
 10
23.8506
 20
74.0022
 11
23.7178
 21
74.7969
  0
LINE
  8
0
 10
23.7178
 20
74.7969
 11
23.4485
 21
76.4471
  0
LINE
  8
0
 10
23.4485
 20
76.4471
 11
23.3198
 21
77.2529
  0
LINE
  8
0
 10
23.3198
 20
77.2529
 11
23.2588
 21
77.6402
  0
LINE
  8
0
 10
23.2588
 20
77.6402
 11
23.2005
 21
78.0129
  0
LINE
  8
0
 10
23.2005
 20
78.0129
 11
23.1456
 21
78.368
  0
LINE
  8
0
 10
23.1456
 20
78.368
 11
23.0945
 21
78.7023
  0
LINE
  8
0
 10
23.0945
 20
78.7023
 11
23.0478
 21
79.0128
  0
LINE
  8
0
 10
23.0478
 20
79.0128
 11
23.0058
 21
79.2964
  0
LINE
  8
0
 10
23.0058
 20
79.2964
 11
22.9544
 21
79.6533
  0
LINE
  8
0
 10
22.9544
 20
79.6533
 11
22.9068
 21
79.9944
  0
LINE
  8
0
 10
22.9068
 20
79.9944
 11
22.863
 21
80.3195
  0
LINE
  8
0
 10
22.863
 20
80.3195
 11
22.8231
 21
80.6286
  0
LINE
  8
0
 10
22.8231
 20
80.6286
 11
22.787
 21
80.9216
  0
LINE
  8
0
 10
22.787
 20
80.9216
 11
22.7547
 21
81.1984
  0
LINE
  8
0
 10
22.7547
 20
81.1984
 11
22.7263
 21
81.459
  0
LINE
  8
0
 10
22.7263
 20
81.459
 11
22.7016
 21
81.7033
  0
LINE
  8
0
 10
22.7016
 20
81.7033
 11
22.6808
 21
81.9312
  0
LINE
  8
0
 10
22.6808
 20
81.9312
 11
22.6637
 21
82.1426
  0
LINE
  8
0
 10
22.6637
 20
82.1426
 11
22.6505
 21
82.3376
  0
LINE
  8
0
 10
22.6505
 20
82.3376
 11
22.641
 21
82.5159
  0
LINE
  8
0
 10
22.641
 20
82.5159
 11
22.6353
 21
82.6775
  0
LINE
  8
0
 10
22.6353
 20
82.6775
 11
22.6334
 21
82.8224
  0
LINE
  8
0
 10
22.6334
 20
82.8224
 11
22.6353
 21
82.9504
  0
LINE
  8
0
 10
22.6353
 20
82.9504
 11
22.6409
 21
83.0616
  0
LINE
  8
0
 10
22.6409
 20
83.0616
 11
22.6503
 21
83.1557
  0
LINE
  8
0
 10
22.6503
 20
83.1557
 11
22.6635
 21
83.2328
  0
LINE
  8
0
 10
22.6635
 20
83.2328
 11
22.6804
 21
83.2928
  0
LINE
  8
0
 10
22.6804
 20
83.2928
 11
22.6903
 21
83.3164
  0
LINE
  8
0
 10
22.6903
 20
83.3164
 11
22.7011
 21
83.3356
  0
LINE
  8
0
 10
22.7011
 20
83.3356
 11
22.7068
 21
83.3437
  0
LINE
  8
0
 10
22.7068
 20
83.3437
 11
22.7128
 21
83.3506
  0
LINE
  8
0
 10
22.7128
 20
83.3506
 11
22.7191
 21
83.3564
  0
LINE
  8
0
 10
22.7191
 20
83.3564
 11
22.7255
 21
83.3612
  0
LINE
  8
0
 10
22.7255
 20
83.3612
 11
22.7322
 21
83.3649
  0
LINE
  8
0
 10
22.7322
 20
83.3649
 11
22.7391
 21
83.3674
  0
LINE
  8
0
 10
22.7391
 20
83.3674
 11
22.7463
 21
83.369
  0
LINE
  8
0
 10
22.7463
 20
83.369
 11
22.7536
 21
83.3694
  0
LINE
  8
0
 10
22.7536
 20
83.3694
 11
22.7613
 21
83.3687
  0
LINE
  8
0
 10
22.7613
 20
83.3687
 11
22.7691
 21
83.3669
  0
LINE
  8
0
 10
22.7691
 20
83.3669
 11
22.7772
 21
83.3641
  0
LINE
  8
0
 10
22.7772
 20
83.3641
 11
22.7855
 21
83.3602
  0
LINE
  8
0
 10
22.7855
 20
83.3602
 11
22.8029
 21
83.349
  0
LINE
  8
0
 10
22.8029
 20
83.349
 11
22.8211
 21
83.3334
  0
LINE
  8
0
 10
22.8211
 20
83.3334
 11
22.8604
 21
83.2892
  0
LINE
  8
0
 10
22.8604
 20
83.2892
 11
22.9035
 21
83.2272
  0
LINE
  8
0
 10
22.9035
 20
83.2272
 11
22.9502
 21
83.1476
  0
LINE
  8
0
 10
22.9502
 20
83.1476
 11
23.0007
 21
83.0502
  0
LINE
  8
0
 10
23.0007
 20
83.0502
 11
23.0548
 21
82.9349
  0
LINE
  8
0
 10
23.0548
 20
82.9349
 11
23.1127
 21
82.8017
  0
LINE
  8
0
 10
23.1127
 20
82.8017
 11
23.1742
 21
82.6505
  0
LINE
  8
0
 10
23.1742
 20
82.6505
 11
23.2394
 21
82.4812
  0
LINE
  8
0
 10
23.2394
 20
82.4812
 11
23.2772
 21
82.3765
  0
LINE
  8
0
 10
23.2772
 20
82.3765
 11
23.3224
 21
82.2433
  0
LINE
  8
0
 10
23.3224
 20
82.2433
 11
23.3746
 21
82.0835
  0
LINE
  8
0
 10
23.3746
 20
82.0835
 11
23.4334
 21
81.8986
  0
LINE
  8
0
 10
23.4334
 20
81.8986
 11
23.4983
 21
81.6904
  0
LINE
  8
0
 10
23.4983
 20
81.6904
 11
23.5687
 21
81.4607
  0
LINE
  8
0
 10
23.5687
 20
81.4607
 11
23.6442
 21
81.2111
  0
LINE
  8
0
 10
23.6442
 20
81.2111
 11
23.7243
 21
80.9433
  0
LINE
  8
0
 10
23.7243
 20
80.9433
 11
23.8085
 21
80.6591
  0
LINE
  8
0
 10
23.8085
 20
80.6591
 11
23.8963
 21
80.3601
  0
LINE
  8
0
 10
23.8963
 20
80.3601
 11
24.0811
 21
79.7246
  0
LINE
  8
0
 10
24.0811
 20
79.7246
 11
24.2746
 21
79.0506
  0
LINE
  8
0
 10
24.2746
 20
79.0506
 11
24.473
 21
78.3517
  0
LINE
  8
0
 10
24.473
 20
78.3517
 11
24.8692
 21
76.9338
  0
LINE
  8
0
 10
24.8692
 20
76.9338
 11
25.0593
 21
76.2421
  0
LINE
  8
0
 10
25.0593
 20
76.2421
 11
25.2389
 21
75.5801
  0
LINE
  8
0
 10
25.2389
 20
75.5801
 11
25.3236
 21
75.2645
  0
LINE
  8
0
 10
25.3236
 20
75.2645
 11
25.4041
 21
74.9615
  0
LINE
  8
0
 10
25.4041
 20
74.9615
 11
25.4802
 21
74.6727
  0
LINE
  8
0
 10
25.4802
 20
74.6727
 11
25.5512
 21
74.3999
  0
LINE
  8
0
 10
25.5512
 20
74.3999
 11
25.6167
 21
74.1448
  0
LINE
  8
0
 10
25.6167
 20
74.1448
 11
25.6761
 21
73.909
  0
LINE
  8
0
 10
25.6761
 20
73.909
 11
25.7291
 21
73.6943
  0
LINE
  8
0
 10
25.7291
 20
73.6943
 11
25.7752
 21
73.5024
  0
LINE
  8
0
 10
25.7752
 20
73.5024
 11
25.8339
 21
73.2635
  0
LINE
  8
0
 10
25.8339
 20
73.2635
 11
25.8932
 21
73.0405
  0
LINE
  8
0
 10
25.8932
 20
73.0405
 11
25.9515
 21
72.8385
  0
LINE
  8
0
 10
25.9515
 20
72.8385
 11
26.0072
 21
72.6623
  0
LINE
  8
0
 10
26.0072
 20
72.6623
 11
26.0587
 21
72.5167
  0
LINE
  8
0
 10
26.0587
 20
72.5167
 11
26.1044
 21
72.4067
  0
LINE
  8
0
 10
26.1044
 20
72.4067
 11
26.1245
 21
72.3666
  0
LINE
  8
0
 10
26.1245
 20
72.3666
 11
26.1425
 21
72.3371
  0
LINE
  8
0
 10
26.1425
 20
72.3371
 11
26.1507
 21
72.3266
  0
LINE
  8
0
 10
26.1507
 20
72.3266
 11
26.1583
 21
72.319
  0
LINE
  8
0
 10
26.1583
 20
72.319
 11
26.1618
 21
72.3163
  0
LINE
  8
0
 10
26.1618
 20
72.3163
 11
26.1652
 21
72.3144
  0
LINE
  8
0
 10
26.1652
 20
72.3144
 11
26.1669
 21
72.3137
  0
LINE
  8
0
 10
26.1669
 20
72.3137
 11
26.1685
 21
72.3132
  0
LINE
  8
0
 10
26.1685
 20
72.3132
 11
26.17
 21
72.3129
  0
LINE
  8
0
 10
26.17
 20
72.3129
 11
26.1716
 21
72.3128
  0
LINE
  8
0
 10
26.1716
 20
72.3128
 11
26.1724
 21
72.313
  0
LINE
  8
0
 10
26.1724
 20
72.313
 11
26.1734
 21
72.3133
  0
LINE
  8
0
 10
26.1734
 20
72.3133
 11
26.1745
 21
72.3139
  0
LINE
  8
0
 10
26.1745
 20
72.3139
 11
26.1758
 21
72.3147
  0
LINE
  8
0
 10
26.1758
 20
72.3147
 11
26.1825
 21
72.3201
  0
LINE
  8
0
 10
26.1825
 20
72.3201
 11
26.2031
 21
72.3417
  0
LINE
  8
0
 10
26.2031
 20
72.3417
 11
26.2332
 21
72.3772
  0
LINE
  8
0
 10
26.2332
 20
72.3772
 11
26.2726
 21
72.4262
  0
LINE
  8
0
 10
26.2726
 20
72.4262
 11
26.3209
 21
72.4885
  0
LINE
  8
0
 10
26.3209
 20
72.4885
 11
26.3779
 21
72.5637
  0
LINE
  8
0
 10
26.3779
 20
72.5637
 11
26.4434
 21
72.6513
  0
LINE
  8
0
 10
26.4434
 20
72.6513
 11
26.5171
 21
72.7512
  0
LINE
  8
0
 10
26.5171
 20
72.7512
 11
26.5988
 21
72.8628
  0
LINE
  8
0
 10
26.5988
 20
72.8628
 11
26.6881
 21
72.9858
  0
LINE
  8
0
 10
26.6881
 20
72.9858
 11
26.785
 21
73.12
  0
LINE
  8
0
 10
26.785
 20
73.12
 11
26.889
 21
73.2649
  0
LINE
  8
0
 10
26.889
 20
73.2649
 11
27
 21
73.4201
  0
LINE
  8
0
 10
27
 20
73.4201
 11
27.1177
 21
73.5854
  0
LINE
  8
0
 10
27.1177
 20
73.5854
 11
27.3722
 21
73.9446
  0
LINE
  8
0
 10
27.3722
 20
73.9446
 11
27.6505
 21
74.3395
  0
LINE
  8
0
 10
27.6505
 20
74.3395
 11
27.9506
 21
74.7675
  0
LINE
  8
0
 10
27.9506
 20
74.7675
 11
28.2704
 21
75.2255
  0
LINE
  8
0
 10
28.2704
 20
75.2255
 11
28.608
 21
75.7108
  0
LINE
  8
0
 10
28.608
 20
75.7108
 11
28.9614
 21
76.2205
  0
LINE
  8
0
 10
28.9614
 20
76.2205
 11
29.3285
 21
76.7517
  0
LINE
  8
0
 10
29.3285
 20
76.7517
 11
29.7073
 21
77.3017
  0
LINE
  8
0
 10
29.7073
 20
77.3017
 11
30.0997
 21
77.8731
  0
LINE
  8
0
 10
30.0997
 20
77.8731
 11
30.4287
 21
78.3526
  0
LINE
  8
0
 10
30.4287
 20
78.3526
 11
30.7479
 21
78.8167
  0
LINE
  8
0
 10
30.7479
 20
78.8167
 11
31.051
 21
79.2563
  0
LINE
  8
0
 10
31.051
 20
79.2563
 11
31.3412
 21
79.676
  0
LINE
  8
0
 10
31.3412
 20
79.676
 11
31.6177
 21
80.0747
  0
LINE
  8
0
 10
31.6177
 20
80.0747
 11
31.8811
 21
80.453
  0
LINE
  8
0
 10
31.8811
 20
80.453
 11
32.1316
 21
80.8111
  0
LINE
  8
0
 10
32.1316
 20
80.8111
 11
32.3695
 21
81.1496
  0
LINE
  8
0
 10
32.3695
 20
81.1496
 11
32.5952
 21
81.469
  0
LINE
  8
0
 10
32.5952
 20
81.469
 11
32.809
 21
81.7695
  0
LINE
  8
0
 10
32.809
 20
81.7695
 11
33.0113
 21
82.0517
  0
LINE
  8
0
 10
33.0113
 20
82.0517
 11
33.2023
 21
82.3159
  0
LINE
  8
0
 10
33.2023
 20
82.3159
 11
33.3825
 21
82.5627
  0
LINE
  8
0
 10
33.3825
 20
82.5627
 11
33.5521
 21
82.7923
  0
LINE
  8
0
 10
33.5521
 20
82.7923
 11
33.7115
 21
83.0054
  0
LINE
  8
0
 10
33.7115
 20
83.0054
 11
33.8611
 21
83.2022
  0
LINE
  8
0
 10
33.8611
 20
83.2022
 11
34.0011
 21
83.3833
  0
LINE
  8
0
 10
34.0011
 20
83.3833
 11
34.1319
 21
83.549
  0
LINE
  8
0
 10
34.1319
 20
83.549
 11
34.2538
 21
83.6997
  0
LINE
  8
0
 10
34.2538
 20
83.6997
 11
34.3672
 21
83.836
  0
LINE
  8
0
 10
34.3672
 20
83.836
 11
34.4724
 21
83.9582
  0
LINE
  8
0
 10
34.4724
 20
83.9582
 11
34.5698
 21
84.0668
  0
LINE
  8
0
 10
34.5698
 20
84.0668
 11
34.6596
 21
84.1622
  0
LINE
  8
0
 10
34.6596
 20
84.1622
 11
34.7422
 21
84.2447
  0
LINE
  8
0
 10
34.7422
 20
84.2447
 11
34.818
 21
84.3149
  0
LINE
  8
0
 10
34.818
 20
84.3149
 11
34.8872
 21
84.3732
  0
LINE
  8
0
 10
34.8872
 20
84.3732
 11
34.9503
 21
84.42
  0
LINE
  8
0
 10
34.9503
 20
84.42
 11
35.0074
 21
84.4558
  0
LINE
  8
0
 10
35.0074
 20
84.4558
 11
35.0591
 21
84.4809
  0
LINE
  8
0
 10
35.0591
 20
84.4809
 11
35.1056
 21
84.4957
  0
LINE
  8
0
 10
35.1056
 20
84.4957
 11
35.127
 21
84.4995
  0
LINE
  8
0
 10
35.127
 20
84.4995
 11
35.1473
 21
84.5009
  0
LINE
  8
0
 10
35.1473
 20
84.5009
 11
35.1664
 21
84.4999
  0
LINE
  8
0
 10
35.1664
 20
84.4999
 11
35.1844
 21
84.4966
  0
LINE
  8
0
 10
35.1844
 20
84.4966
 11
35.2025
 21
84.4907
  0
LINE
  8
0
 10
35.2025
 20
84.4907
 11
35.2194
 21
84.4823
  0
LINE
  8
0
 10
35.2194
 20
84.4823
 11
35.2352
 21
84.4715
  0
LINE
  8
0
 10
35.2352
 20
84.4715
 11
35.2501
 21
84.4584
  0
LINE
  8
0
 10
35.2501
 20
84.4584
 11
35.2699
 21
84.4348
  0
LINE
  8
0
 10
35.2699
 20
84.4348
 11
35.2864
 21
84.4072
  0
LINE
  8
0
 10
35.2864
 20
84.4072
 11
35.2997
 21
84.3755
  0
LINE
  8
0
 10
35.2997
 20
84.3755
 11
35.3098
 21
84.3398
  0
LINE
  8
0
 10
35.3098
 20
84.3398
 11
35.3204
 21
84.2567
  0
LINE
  8
0
 10
35.3204
 20
84.2567
 11
35.3185
 21
84.1583
  0
LINE
  8
0
 10
35.3185
 20
84.1583
 11
35.304
 21
84.045
  0
LINE
  8
0
 10
35.304
 20
84.045
 11
35.2774
 21
83.9175
  0
LINE
  8
0
 10
35.2774
 20
83.9175
 11
35.2386
 21
83.776
  0
LINE
  8
0
 10
35.2386
 20
83.776
 11
35.1879
 21
83.6212
  0
LINE
  8
0
 10
35.1879
 20
83.6212
 11
35.1255
 21
83.4535
  0
LINE
  8
0
 10
35.1255
 20
83.4535
 11
35.0514
 21
83.2734
  0
LINE
  8
0
 10
35.0514
 20
83.2734
 11
34.966
 21
83.0813
  0
LINE
  8
0
 10
34.966
 20
83.0813
 11
34.8692
 21
82.8777
  0
LINE
  8
0
 10
34.8692
 20
82.8777
 11
34.7614
 21
82.6632
  0
LINE
  8
0
 10
34.7614
 20
82.6632
 11
34.6427
 21
82.4381
  0
LINE
  8
0
 10
34.6427
 20
82.4381
 11
34.5132
 21
82.2029
  0
LINE
  8
0
 10
34.5132
 20
82.2029
 11
34.3731
 21
81.9583
  0
LINE
  8
0
 10
34.3731
 20
81.9583
 11
34.3371
 21
81.8974
  0
LINE
  8
0
 10
34.3371
 20
81.8974
 11
34.2934
 21
81.8254
  0
LINE
  8
0
 10
34.2934
 20
81.8254
 11
34.2422
 21
81.7425
  0
LINE
  8
0
 10
34.2422
 20
81.7425
 11
34.1838
 21
81.649
  0
LINE
  8
0
 10
34.1838
 20
81.649
 11
34.1185
 21
81.5455
  0
LINE
  8
0
 10
34.1185
 20
81.5455
 11
34.0465
 21
81.4322
  0
LINE
  8
0
 10
34.0465
 20
81.4322
 11
33.8832
 21
81.1777
  0
LINE
  8
0
 10
33.8832
 20
81.1777
 11
33.696
 21
80.8886
  0
LINE
  8
0
 10
33.696
 20
80.8886
 11
33.4866
 21
80.5677
  0
LINE
  8
0
 10
33.4866
 20
80.5677
 11
33.2572
 21
80.218
  0
LINE
  8
0
 10
33.2572
 20
80.218
 11
33.0096
 21
79.8424
  0
LINE
  8
0
 10
33.0096
 20
79.8424
 11
32.7458
 21
79.4438
  0
LINE
  8
0
 10
32.7458
 20
79.4438
 11
32.4676
 21
79.0251
  0
LINE
  8
0
 10
32.4676
 20
79.0251
 11
32.177
 21
78.5893
  0
LINE
  8
0
 10
32.177
 20
78.5893
 11
31.876
 21
78.1393
  0
LINE
  8
0
 10
31.876
 20
78.1393
 11
31.2503
 21
77.2084
  0
LINE
  8
0
 10
31.2503
 20
77.2084
 11
30.6059
 21
76.2558
  0
LINE
  8
0
 10
30.6059
 20
76.2558
 11
30.2016
 21
75.6594
  0
LINE
  8
0
 10
30.2016
 20
75.6594
 11
29.8073
 21
75.0767
  0
LINE
  8
0
 10
29.8073
 20
75.0767
 11
29.4227
 21
74.5072
  0
LINE
  8
0
 10
29.4227
 20
74.5072
 11
29.0477
 21
73.9507
  0
LINE
  8
0
 10
29.0477
 20
73.9507
 11
28.6821
 21
73.4069
  0
LINE
  8
0
 10
28.6821
 20
73.4069
 11
28.3255
 21
72.8755
  0
LINE
  8
0
 10
28.3255
 20
72.8755
 11
27.978
 21
72.3562
  0
LINE
  8
0
 10
27.978
 20
72.3562
 11
27.6392
 21
71.8488
  0
LINE
  8
0
 10
27.6392
 20
71.8488
 11
27.3089
 21
71.3528
  0
LINE
  8
0
 10
27.3089
 20
71.3528
 11
26.987
 21
70.8681
  0
LINE
  8
0
 10
26.987
 20
70.8681
 11
26.6733
 21
70.3944
  0
LINE
  8
0
 10
26.6733
 20
70.3944
 11
26.3675
 21
69.9313
  0
LINE
  8
0
 10
26.3675
 20
69.9313
 11
26.0694
 21
69.4786
  0
LINE
  8
0
 10
26.0694
 20
69.4786
 11
25.7789
 21
69.036
  0
LINE
  8
0
 10
25.7789
 20
69.036
 11
25.4957
 21
68.6031
  0
LINE
  8
0
 10
25.4957
 20
68.6031
 11
25.2197
 21
68.1798
  0
LINE
  8
0
 10
25.2197
 20
68.1798
 11
24.9701
 21
67.7948
  0
LINE
  8
0
 10
24.9701
 20
67.7948
 11
24.6434
 21
67.2898
  0
LINE
  8
0
 10
24.6434
 20
67.2898
 11
24.3282
 21
66.7998
  0
LINE
  8
0
 10
24.3282
 20
66.7998
 11
24.0242
 21
66.3247
  0
LINE
  8
0
 10
24.0242
 20
66.3247
 11
23.7316
 21
65.8644
  0
LINE
  8
0
 10
23.7316
 20
65.8644
 11
23.4501
 21
65.4188
  0
LINE
  8
0
 10
23.4501
 20
65.4188
 11
23.1799
 21
64.9879
  0
LINE
  8
0
 10
23.1799
 20
64.9879
 11
22.9209
 21
64.5714
  0
LINE
  8
0
 10
22.9209
 20
64.5714
 11
22.673
 21
64.1693
  0
LINE
  8
0
 10
22.673
 20
64.1693
 11
22.4362
 21
63.7816
  0
LINE
  8
0
 10
22.4362
 20
63.7816
 11
22.2105
 21
63.4081
  0
LINE
  8
0
 10
22.2105
 20
63.4081
 11
21.9958
 21
63.0486
  0
LINE
  8
0
 10
21.9958
 20
63.0486
 11
21.792
 21
62.7032
  0
LINE
  8
0
 10
21.792
 20
62.7032
 11
21.5992
 21
62.3717
  0
LINE
  8
0
 10
21.5992
 20
62.3717
 11
21.4173
 21
62.054
  0
LINE
  8
0
 10
21.4173
 20
62.054
 11
21.2463
 21
61.7501
  0
LINE
  8
0
 10
21.2463
 20
61.7501
 11
21.0861
 21
61.4597
  0
LINE
  8
0
 10
21.0861
 20
61.4597
 11
20.9042
 21
61.1192
  0
LINE
  8
0
 10
20.9042
 20
61.1192
 11
20.7062
 21
60.7403
  0
LINE
  8
0
 10
20.7062
 20
60.7403
 11
20.5278
 21
60.3855
  0
LINE
  8
0
 10
20.5278
 20
60.3855
 11
20.3685
 21
60.054
  0
LINE
  8
0
 10
20.3685
 20
60.054
 11
20.2281
 21
59.7455
  0
LINE
  8
0
 10
20.2281
 20
59.7455
 11
20.1064
 21
59.4592
  0
LINE
  8
0
 10
20.1064
 20
59.4592
 11
20.0029
 21
59.1948
  0
LINE
  8
0
 10
20.0029
 20
59.1948
 11
19.9176
 21
58.9516
  0
LINE
  8
0
 10
19.9176
 20
58.9516
 11
19.85
 21
58.7292
  0
LINE
  8
0
 10
19.85
 20
58.7292
 11
19.7982
 21
58.5181
  0
LINE
  8
0
 10
19.7982
 20
58.5181
 11
19.7538
 21
58.288
  0
LINE
  8
0
 10
19.7538
 20
58.288
 11
19.7168
 21
58.0424
  0
LINE
  8
0
 10
19.7168
 20
58.0424
 11
19.6871
 21
57.7849
  0
LINE
  8
0
 10
19.6871
 20
57.7849
 11
19.6497
 21
57.2481
  0
LINE
  8
0
 10
19.6497
 20
57.2481
 11
19.6412
 21
56.7058
  0
LINE
  8
0
 10
19.6412
 20
56.7058
 11
19.6613
 21
56.1862
  0
LINE
  8
0
 10
19.6613
 20
56.1862
 11
19.682
 21
55.9437
  0
LINE
  8
0
 10
19.682
 20
55.9437
 11
19.7097
 21
55.7175
  0
LINE
  8
0
 10
19.7097
 20
55.7175
 11
19.7445
 21
55.5111
  0
LINE
  8
0
 10
19.7445
 20
55.5111
 11
19.7862
 21
55.3279
  0
LINE
  8
0
 10
19.7862
 20
55.3279
 11
19.8348
 21
55.1716
  0
LINE
  8
0
 10
19.8348
 20
55.1716
 11
19.8903
 21
55.0457
  0
LINE
  8
0
 10
19.8903
 20
55.0457
 11
20.0145
 21
54.8369
  0
LINE
  8
0
 10
20.0145
 20
54.8369
 11
20.1575
 21
54.6357
  0
LINE
  8
0
 10
20.1575
 20
54.6357
 11
20.3164
 21
54.4449
  0
LINE
  8
0
 10
20.3164
 20
54.4449
 11
20.4881
 21
54.2675
  0
LINE
  8
0
 10
20.4881
 20
54.2675
 11
20.6695
 21
54.1064
  0
LINE
  8
0
 10
20.6695
 20
54.1064
 11
20.8575
 21
53.9645
  0
LINE
  8
0
 10
20.8575
 20
53.9645
 11
21.0493
 21
53.8448
  0
LINE
  8
0
 10
21.0493
 20
53.8448
 11
21.2416
 21
53.7502
  0
LINE
  8
0
 10
21.2416
 20
53.7502
 11
21.3874
 21
53.7004
  0
LINE
  8
0
 10
21.3874
 20
53.7004
 11
21.5576
 21
53.663
  0
LINE
  8
0
 10
21.5576
 20
53.663
 11
21.7492
 21
53.6376
  0
LINE
  8
0
 10
21.7492
 20
53.6376
 11
21.959
 21
53.6238
  0
LINE
  8
0
 10
21.959
 20
53.6238
 11
22.1839
 21
53.6211
  0
LINE
  8
0
 10
22.1839
 20
53.6211
 11
22.4209
 21
53.6291
  0
LINE
  8
0
 10
22.4209
 20
53.6291
 11
22.9185
 21
53.6757
  0
LINE
  8
0
 10
22.9185
 20
53.6757
 11
23.1821
 21
53.7135
  0
LINE
  8
0
 10
23.1821
 20
53.7135
 11
23.5473
 21
53.7849
  0
LINE
  8
0
 10
23.5473
 20
53.7849
 11
23.9024
 21
53.8748
  0
LINE
  8
0
 10
23.9024
 20
53.8748
 11
24.2381
 21
53.9823
  0
LINE
  8
0
 10
24.2381
 20
53.9823
 11
24.5453
 21
54.1067
  0
LINE
  8
0
 10
24.5453
 20
54.1067
 11
24.9861
 21
54.3239
  0
LINE
  8
0
 10
24.9861
 20
54.3239
 11
25.3981
 21
54.5635
  0
LINE
  8
0
 10
25.3981
 20
54.5635
 11
25.7989
 21
54.8406
  0
LINE
  8
0
 10
25.7989
 20
54.8406
 11
26.0004
 21
54.998
  0
LINE
  8
0
 10
26.0004
 20
54.998
 11
26.2057
 21
55.1703
  0
LINE
  8
0
 10
26.2057
 20
55.1703
 11
26.4167
 21
55.3596
  0
LINE
  8
0
 10
26.4167
 20
55.3596
 11
26.6358
 21
55.5677
  0
LINE
  8
0
 10
26.6358
 20
55.5677
 11
26.8651
 21
55.7964
  0
LINE
  8
0
 10
26.8651
 20
55.7964
 11
27.1067
 21
56.0477
  0
LINE
  8
0
 10
27.1067
 20
56.0477
 11
27.3629
 21
56.3235
  0
LINE
  8
0
 10
27.3629
 20
56.3235
 11
27.6357
 21
56.6256
  0
LINE
  8
0
 10
27.6357
 20
56.6256
 11
27.9274
 21
56.9559
  0
LINE
  8
0
 10
27.9274
 20
56.9559
 11
28.2402
 21
57.3163
  0
LINE
  8
0
 10
28.2402
 20
57.3163
 11
28.8494
 21
58.0419
  0
LINE
  8
0
 10
28.8494
 20
58.0419
 11
29.1223
 21
58.3669
  0
LINE
  8
0
 10
29.1223
 20
58.3669
 11
29.6179
 21
58.9732
  0
LINE
  8
0
 10
37.8382
 20
37.1413
 11
38.1508
 21
37.5555
  0
LINE
  8
0
 10
38.1508
 20
37.5555
 11
38.4425
 21
37.956
  0
LINE
  8
0
 10
38.4425
 20
37.956
 11
38.7137
 21
38.3434
  0
LINE
  8
0
 10
38.7137
 20
38.3434
 11
38.9647
 21
38.7184
  0
LINE
  8
0
 10
38.9647
 20
38.7184
 11
39.1959
 21
39.0815
  0
LINE
  8
0
 10
39.1959
 20
39.0815
 11
39.4077
 21
39.4335
  0
LINE
  8
0
 10
39.4077
 20
39.4335
 11
39.6003
 21
39.7749
  0
LINE
  8
0
 10
39.6003
 20
39.7749
 11
39.7741
 21
40.1063
  0
LINE
  8
0
 10
39.7741
 20
40.1063
 11
39.9294
 21
40.4285
  0
LINE
  8
0
 10
39.9294
 20
40.4285
 11
40.0667
 21
40.7419
  0
LINE
  8
0
 10
40.0667
 20
40.7419
 11
40.1861
 21
41.0473
  0
LINE
  8
0
 10
40.1861
 20
41.0473
 11
40.2882
 21
41.3453
  0
LINE
  8
0
 10
40.2882
 20
41.3453
 11
40.3731
 21
41.6364
  0
LINE
  8
0
 10
40.3731
 20
41.6364
 11
40.4413
 21
41.9214
  0
LINE
  8
0
 10
40.4413
 20
41.9214
 11
40.4931
 21
42.2009
  0
LINE
  8
0
 10
40.4931
 20
42.2009
 11
40.5288
 21
42.4754
  0
LINE
  8
0
 10
40.5288
 20
42.4754
 11
40.5488
 21
42.7456
  0
LINE
  8
0
 10
40.5488
 20
42.7456
 11
40.5535
 21
43.0122
  0
LINE
  8
0
 10
40.5535
 20
43.0122
 11
40.543
 21
43.2757
  0
LINE
  8
0
 10
40.543
 20
43.2757
 11
40.5179
 21
43.5368
  0
LINE
  8
0
 10
40.5179
 20
43.5368
 11
40.4784
 21
43.7962
  0
LINE
  8
0
 10
40.4784
 20
43.7962
 11
40.4249
 21
44.0543
  0
LINE
  8
0
 10
40.4249
 20
44.0543
 11
40.3578
 21
44.312
  0
LINE
  8
0
 10
40.3578
 20
44.312
 11
40.3256
 21
44.4152
  0
LINE
  8
0
 10
40.3256
 20
44.4152
 11
40.2836
 21
44.5361
  0
LINE
  8
0
 10
40.2836
 20
44.5361
 11
40.2323
 21
44.6731
  0
LINE
  8
0
 10
40.2323
 20
44.6731
 11
40.1725
 21
44.8249
  0
LINE
  8
0
 10
40.1725
 20
44.8249
 11
40.1047
 21
44.9898
  0
LINE
  8
0
 10
40.1047
 20
44.9898
 11
40.0298
 21
45.1663
  0
LINE
  8
0
 10
40.0298
 20
45.1663
 11
39.8611
 21
45.5485
  0
LINE
  8
0
 10
39.8611
 20
45.5485
 11
39.6716
 21
45.9592
  0
LINE
  8
0
 10
39.6716
 20
45.9592
 11
39.467
 21
46.3866
  0
LINE
  8
0
 10
39.467
 20
46.3866
 11
39.0338
 21
47.243
  0
LINE
  8
0
 10
39.0338
 20
47.243
 11
38.8204
 21
47.6523
  0
LINE
  8
0
 10
38.8204
 20
47.6523
 11
38.6213
 21
48.0407
  0
LINE
  8
0
 10
38.6213
 20
48.0407
 11
38.4408
 21
48.3991
  0
LINE
  8
0
 10
38.4408
 20
48.3991
 11
38.359
 21
48.5643
  0
LINE
  8
0
 10
38.359
 20
48.5643
 11
38.2834
 21
48.7186
  0
LINE
  8
0
 10
38.2834
 20
48.7186
 11
38.2148
 21
48.861
  0
LINE
  8
0
 10
38.2148
 20
48.861
 11
38.1534
 21
48.9902
  0
LINE
  8
0
 10
38.1534
 20
48.9902
 11
38.1001
 21
49.1053
  0
LINE
  8
0
 10
38.1001
 20
49.1053
 11
38.0552
 21
49.2051
  0
LINE
  8
0
 10
38.0552
 20
49.2051
 11
38.0193
 21
49.2884
  0
LINE
  8
0
 10
38.0193
 20
49.2884
 11
37.993
 21
49.3541
  0
LINE
  8
0
 10
37.993
 20
49.3541
 11
37.9769
 21
49.4012
  0
LINE
  8
0
 10
37.9769
 20
49.4012
 11
37.9727
 21
49.4174
  0
LINE
  8
0
 10
37.9727
 20
49.4174
 11
37.9715
 21
49.4259
  0
LINE
  8
0
 10
37.9715
 20
49.4259
 11
37.9713
 21
49.4285
  0
LINE
  8
0
 10
37.9713
 20
49.4285
 11
37.9714
 21
49.4298
  0
LINE
  8
0
 10
37.9714
 20
49.4298
 11
37.9717
 21
49.4311
  0
LINE
  8
0
 10
37.9717
 20
49.4311
 11
37.9721
 21
49.4324
  0
LINE
  8
0
 10
37.9721
 20
49.4324
 11
37.9727
 21
49.4337
  0
LINE
  8
0
 10
37.9727
 20
49.4337
 11
37.9735
 21
49.435
  0
LINE
  8
0
 10
37.9735
 20
49.435
 11
37.9744
 21
49.4364
  0
LINE
  8
0
 10
37.9744
 20
49.4364
 11
37.9768
 21
49.4389
  0
LINE
  8
0
 10
37.9768
 20
49.4389
 11
37.9798
 21
49.4415
  0
LINE
  8
0
 10
37.9798
 20
49.4415
 11
37.9836
 21
49.4441
  0
LINE
  8
0
 10
37.9836
 20
49.4441
 11
37.9931
 21
49.4492
  0
LINE
  8
0
 10
37.9931
 20
49.4492
 11
38.0204
 21
49.4591
  0
LINE
  8
0
 10
38.0204
 20
49.4591
 11
38.0588
 21
49.4688
  0
LINE
  8
0
 10
38.0588
 20
49.4688
 11
38.169
 21
49.4872
  0
LINE
  8
0
 10
38.169
 20
49.4872
 11
38.3244
 21
49.5045
  0
LINE
  8
0
 10
38.3244
 20
49.5045
 11
38.5256
 21
49.5208
  0
LINE
  8
0
 10
38.5256
 20
49.5208
 11
38.7732
 21
49.536
  0
LINE
  8
0
 10
38.7732
 20
49.536
 11
38.9146
 21
49.5432
  0
LINE
  8
0
 10
38.9146
 20
49.5432
 11
39.0679
 21
49.5501
  0
LINE
  8
0
 10
39.0679
 20
49.5501
 11
39.233
 21
49.5568
  0
LINE
  8
0
 10
39.233
 20
49.5568
 11
39.4102
 21
49.5632
  0
LINE
  8
0
 10
39.4102
 20
49.5632
 11
39.5994
 21
49.5694
  0
LINE
  8
0
 10
39.5994
 20
49.5694
 11
39.8007
 21
49.5753
  0
LINE
  8
0
 10
39.8007
 20
49.5753
 11
40.0143
 21
49.581
  0
LINE
  8
0
 10
40.0143
 20
49.581
 11
40.2402
 21
49.5865
  0
LINE
  8
0
 10
40.2402
 20
49.5865
 11
40.4785
 21
49.5917
  0
LINE
  8
0
 10
40.4785
 20
49.5917
 11
40.7292
 21
49.5966
  0
LINE
  8
0
 10
40.7292
 20
49.5966
 11
40.9924
 21
49.6013
  0
LINE
  8
0
 10
40.9924
 20
49.6013
 11
41.2683
 21
49.6058
  0
LINE
  8
0
 10
41.2683
 20
49.6058
 11
41.5568
 21
49.6101
  0
LINE
  8
0
 10
41.5568
 20
49.6101
 11
41.8581
 21
49.6141
  0
LINE
  8
0
 10
41.8581
 20
49.6141
 11
42.1723
 21
49.6179
  0
LINE
  8
0
 10
42.1723
 20
49.6179
 11
42.4994
 21
49.6215
  0
LINE
  8
0
 10
42.4994
 20
49.6215
 11
42.8394
 21
49.6248
  0
LINE
  8
0
 10
42.8394
 20
49.6248
 11
43.1926
 21
49.628
  0
LINE
  8
0
 10
43.1926
 20
49.628
 11
43.5589
 21
49.6309
  0
LINE
  8
0
 10
43.5589
 20
49.6309
 11
43.9384
 21
49.6336
  0
LINE
  8
0
 10
43.9384
 20
49.6336
 11
49.9055
 21
49.6734
  0
LINE
  8
0
 10
49.9055
 20
49.6734
 11
45.3187
 21
59.1896
  0
LINE
  8
0
 10
45.3187
 20
59.1896
 11
44.8482
 21
60.166
  0
LINE
  8
0
 10
44.8482
 20
60.166
 11
43.9298
 21
62.0722
  0
LINE
  8
0
 10
43.9298
 20
62.0722
 11
43.4874
 21
62.9908
  0
LINE
  8
0
 10
43.4874
 20
62.9908
 11
43.0596
 21
63.8791
  0
LINE
  8
0
 10
43.0596
 20
63.8791
 11
42.4515
 21
65.1424
  0
LINE
  8
0
 10
42.4515
 20
65.1424
 11
41.8915
 21
66.306
  0
LINE
  8
0
 10
41.8915
 20
66.306
 11
41.7171
 21
66.6685
  0
LINE
  8
0
 10
41.7171
 20
66.6685
 11
41.2355
 21
67.67
  0
LINE
  8
0
 10
41.2355
 20
67.67
 11
40.9523
 21
68.259
  0
LINE
  8
0
 10
40.9523
 20
68.259
 11
40.5912
 21
69.0108
  0
LINE
  8
0
 10
40.5912
 20
69.0108
 11
40.3967
 21
69.416
  0
LINE
  8
0
 10
40.3967
 20
69.416
 11
40.3144
 21
69.5878
  0
LINE
  8
0
 10
40.3144
 20
69.5878
 11
40.2424
 21
69.738
  0
LINE
  8
0
 10
40.2424
 20
69.738
 11
40.1812
 21
69.866
  0
LINE
  8
0
 10
40.1812
 20
69.866
 11
40.131
 21
69.971
  0
LINE
  8
0
 10
40.131
 20
69.971
 11
40.0921
 21
70.0525
  0
LINE
  8
0
 10
40.0921
 20
70.0525
 11
39.9316
 21
70.3783
  0
LINE
  8
0
 10
39.9316
 20
70.3783
 11
39.7774
 21
70.6716
  0
LINE
  8
0
 10
39.7774
 20
70.6716
 11
39.7816
 21
70.6731
  0
LINE
  8
0
 10
39.7816
 20
70.6731
 11
39.4238
 21
71.5169
  0
LINE
  8
0
 10
39.4238
 20
71.5169
 11
39.1661
 21
71.1636
  0
LINE
  8
0
 10
39.1661
 20
71.1636
 11
39.1149
 21
71.0927
  0
LINE
  8
0
 10
39.1149
 20
71.0927
 11
39.086
 21
71.0524
  0
LINE
  8
0
 10
39.086
 20
71.0524
 11
39.0564
 21
71.0108
  0
LINE
  8
0
 10
39.0564
 20
71.0108
 11
39.042
 21
70.9906
  0
LINE
  8
0
 10
39.042
 20
70.9906
 11
38.9908
 21
70.9181
  0
LINE
  8
0
 10
38.9908
 20
70.9181
 11
38.9183
 21
70.8148
  0
LINE
  8
0
 10
38.9183
 20
70.8148
 11
38.8595
 21
70.7306
  0
LINE
  8
0
 10
38.8595
 20
70.7306
 11
38.8391
 21
70.7012
  0
LINE
  8
0
 10
38.8391
 20
70.7012
 11
38.7533
 21
70.5775
  0
LINE
  8
0
 10
38.7533
 20
70.5775
 11
38.7134
 21
70.5199
  0
LINE
  8
0
 10
38.7134
 20
70.5199
 11
38.642
 21
70.4163
  0
LINE
  8
0
 10
38.642
 20
70.4163
 11
38.5629
 21
70.3013
  0
LINE
  8
0
 10
38.5629
 20
70.3013
 11
38.52
 21
70.2388
  0
LINE
  8
0
 10
38.52
 20
70.2388
 11
38.4396
 21
70.1214
  0
LINE
  8
0
 10
38.4396
 20
70.1214
 11
38.3484
 21
69.9881
  0
LINE
  8
0
 10
38.3484
 20
69.9881
 11
38.1114
 21
69.6402
  0
LINE
  8
0
 10
38.1114
 20
69.6402
 11
37.8892
 21
69.3127
  0
LINE
  8
0
 10
37.8892
 20
69.3127
 11
37.8533
 21
69.2596
  0
LINE
  8
0
 10
37.8533
 20
69.2596
 11
37.7847
 21
69.1583
  0
LINE
  8
0
 10
37.7847
 20
69.1583
 11
37.6343
 21
68.9356
  0
LINE
  8
0
 10
37.6343
 20
68.9356
 11
37.5754
 21
68.8484
  0
LINE
  8
0
 10
37.5754
 20
68.8484
 11
37.5196
 21
68.7656
  0
LINE
  8
0
 10
37.5196
 20
68.7656
 11
37.2613
 21
68.382
  0
LINE
  8
0
 10
37.2613
 20
68.382
 11
36.9665
 21
67.9431
  0
LINE
  8
0
 10
36.9665
 20
67.9431
 11
36.8428
 21
67.7586
  0
LINE
  8
0
 10
36.8428
 20
67.7586
 11
36.7198
 21
67.5749
  0
LINE
  8
0
 10
36.7198
 20
67.5749
 11
36.6383
 21
67.4531
  0
LINE
  8
0
 10
36.6383
 20
67.4531
 11
36.2962
 21
66.9412
  0
LINE
  8
0
 10
36.2962
 20
66.9412
 11
35.9416
 21
66.4094
  0
LINE
  8
0
 10
35.9416
 20
66.4094
 11
35.844
 21
66.2627
  0
LINE
  8
0
 10
35.844
 20
66.2627
 11
35.7069
 21
66.0566
  0
LINE
  8
0
 10
35.7069
 20
66.0566
 11
35.576
 21
65.8598
  0
LINE
  8
0
 10
35.576
 20
65.8598
 11
35.4013
 21
65.5966
  0
LINE
  8
0
 10
35.4013
 20
65.5966
 11
35.2008
 21
65.2946
  0
LINE
  8
0
 10
35.2008
 20
65.2946
 11
34.8175
 21
64.7159
  0
LINE
  8
0
 10
34.8175
 20
64.7159
 11
30.4555
 21
58.1235
  0
LINE
  8
0
 10
30.4555
 20
58.1235
 11
30.9769
 21
57.582
  0
LINE
  8
0
 10
30.9769
 20
57.582
 11
31.1868
 21
57.3496
  0
LINE
  8
0
 10
31.1868
 20
57.3496
 11
31.228
 21
57.2983
  0
LINE
  8
0
 10
31.228
 20
57.2983
 11
31.3797
 21
57.1068
  0
LINE
  8
0
 10
31.3797
 20
57.1068
 11
31.4253
 21
57.0424
  0
LINE
  8
0
 10
31.4253
 20
57.0424
 11
31.5557
 21
56.8542
  0
LINE
  8
0
 10
31.5557
 20
56.8542
 11
31.6
 21
56.783
  0
LINE
  8
0
 10
31.6
 20
56.783
 11
31.715
 21
56.5923
  0
LINE
  8
0
 10
31.715
 20
56.5923
 11
31.7562
 21
56.5164
  0
LINE
  8
0
 10
31.7562
 20
56.5164
 11
31.8575
 21
56.3221
  0
LINE
  8
0
 10
31.8575
 20
56.3221
 11
31.895
 21
56.2422
  0
LINE
  8
0
 10
31.895
 20
56.2422
 11
31.9834
 21
56.0441
  0
LINE
  8
0
 10
31.9834
 20
56.0441
 11
32.0163
 21
55.9617
  0
LINE
  8
0
 10
32.0163
 20
55.9617
 11
32.0923
 21
55.7597
  0
LINE
  8
0
 10
32.0923
 20
55.7597
 11
32.1206
 21
55.6754
  0
LINE
  8
0
 10
32.1206
 20
55.6754
 11
32.1845
 21
55.4699
  0
LINE
  8
0
 10
32.1845
 20
55.4699
 11
32.2081
 21
55.3838
  0
LINE
  8
0
 10
32.2081
 20
55.3838
 11
32.26
 21
55.1752
  0
LINE
  8
0
 10
32.26
 20
55.1752
 11
32.2789
 21
55.0876
  0
LINE
  8
0
 10
32.2789
 20
55.0876
 11
32.3188
 21
54.877
  0
LINE
  8
0
 10
32.3188
 20
54.877
 11
32.3331
 21
54.788
  0
LINE
  8
0
 10
32.3331
 20
54.788
 11
32.3613
 21
54.5752
  0
LINE
  8
0
 10
32.3613
 20
54.5752
 11
32.3708
 21
54.4863
  0
LINE
  8
0
 10
32.3708
 20
54.4863
 11
32.3874
 21
54.2716
  0
LINE
  8
0
 10
32.3874
 20
54.2716
 11
32.3922
 21
54.1823
  0
LINE
  8
0
 10
32.3922
 20
54.1823
 11
32.3974
 21
53.9662
  0
LINE
  8
0
 10
32.3974
 20
53.9662
 11
32.3975
 21
53.8773
  0
LINE
  8
0
 10
32.3975
 20
53.8773
 11
32.3912
 21
53.6606
  0
LINE
  8
0
 10
32.3912
 20
53.6606
 11
32.3869
 21
53.5723
  0
LINE
  8
0
 10
32.3869
 20
53.5723
 11
32.3691
 21
53.3555
  0
LINE
  8
0
 10
32.3691
 20
53.3555
 11
32.3603
 21
53.2677
  0
LINE
  8
0
 10
32.3603
 20
53.2677
 11
32.3311
 21
53.051
  0
LINE
  8
0
 10
32.3311
 20
53.051
 11
32.3181
 21
52.9648
  0
LINE
  8
0
 10
32.3181
 20
52.9648
 11
32.2776
 21
52.7492
  0
LINE
  8
0
 10
32.2776
 20
52.7492
 11
32.2604
 21
52.6639
  0
LINE
  8
0
 10
32.2604
 20
52.6639
 11
32.2083
 21
52.4492
  0
LINE
  8
0
 10
32.2083
 20
52.4492
 11
32.1871
 21
52.3661
  0
LINE
  8
0
 10
32.1871
 20
52.3661
 11
32.1234
 21
52.1523
  0
LINE
  8
0
 10
32.1234
 20
52.1523
 11
32.0988
 21
52.0726
  0
LINE
  8
0
 10
32.0988
 20
52.0726
 11
32.0228
 21
51.8594
  0
LINE
  8
0
 10
32.0228
 20
51.8594
 11
31.9952
 21
51.7836
  0
LINE
  8
0
 10
31.9952
 20
51.7836
 11
31.9049
 21
51.5668
  0
LINE
  8
0
 10
31.9049
 20
51.5668
 11
31.8768
 21
51.5004
  0
LINE
  8
0
 10
31.8768
 20
51.5004
 11
31.7655
 21
51.2687
  0
LINE
  8
0
 10
31.7655
 20
51.2687
 11
31.7435
 21
51.2233
  0
LINE
  8
0
 10
31.7435
 20
51.2233
 11
31.5957
 21
50.9539
  0
LINE
  8
0
 10
31.5957
 20
50.9539
 11
31.5704
 21
50.913
  0
LINE
  8
0
 10
31.5704
 20
50.913
 11
31.4332
 21
50.6924
  0
LINE
  8
0
 10
31.4332
 20
50.6924
 11
31.3926
 21
50.6338
  0
LINE
  8
0
 10
31.3926
 20
50.6338
 11
31.2563
 21
50.4396
  0
LINE
  8
0
 10
31.2563
 20
50.4396
 11
31.2081
 21
50.3775
  0
LINE
  8
0
 10
31.2081
 20
50.3775
 11
31.0651
 21
50.1963
  0
LINE
  8
0
 10
31.0651
 20
50.1963
 11
31.0117
 21
50.1347
  0
LINE
  8
0
 10
31.0117
 20
50.1347
 11
30.8602
 21
49.9638
  0
LINE
  8
0
 10
30.8602
 20
49.9638
 11
30.8025
 21
49.9042
  0
LINE
  8
0
 10
30.8025
 20
49.9042
 11
30.6416
 21
49.7427
  0
LINE
  8
0
 10
30.6416
 20
49.7427
 11
30.5798
 21
49.6855
  0
LINE
  8
0
 10
30.5798
 20
49.6855
 11
30.4096
 21
49.5339
  0
LINE
  8
0
 10
30.4096
 20
49.5339
 11
30.344
 21
49.4795
  0
LINE
  8
0
 10
30.344
 20
49.4795
 11
30.1638
 21
49.3374
  0
LINE
  8
0
 10
30.1638
 20
49.3374
 11
30.0957
 21
49.2872
  0
LINE
  8
0
 10
30.0957
 20
49.2872
 11
29.8915
 21
49.1455
  0
LINE
  8
0
 10
29.8915
 20
49.1455
 11
29.8515
 21
49.119
  0
LINE
  8
0
 10
29.8515
 20
49.119
 11
29.5853
 21
48.9577
  0
LINE
  8
0
 10
29.5853
 20
48.9577
 11
29.2657
 21
48.7722
  0
LINE
  8
0
 10
29.2657
 20
48.7722
 11
29.1259
 21
48.6872
  0
LINE
  8
0
 10
29.1259
 20
48.6872
 11
29.0039
 21
48.6104
  0
LINE
  8
0
 10
29.0039
 20
48.6104
 11
28.9032
 21
48.544
  0
LINE
  8
0
 10
28.9032
 20
48.544
 11
28.827
 21
48.4899
  0
LINE
  8
0
 10
28.827
 20
48.4899
 11
28.7789
 21
48.4506
  0
LINE
  8
0
 10
28.7789
 20
48.4506
 11
28.7664
 21
48.437
  0
LINE
  8
0
 10
28.7664
 20
48.437
 11
28.7645
 21
48.4343
  0
LINE
  8
0
 10
28.7645
 20
48.4343
 11
28.7632
 21
48.4319
  0
LINE
  8
0
 10
28.7632
 20
48.4319
 11
28.7627
 21
48.4308
  0
LINE
  8
0
 10
28.7627
 20
48.4308
 11
28.7624
 21
48.4298
  0
LINE
  8
0
 10
28.7624
 20
48.4298
 11
28.7621
 21
48.4289
  0
LINE
  8
0
 10
28.7621
 20
48.4289
 11
28.7621
 21
48.428
  0
LINE
  8
0
 10
28.7621
 20
48.428
 11
28.7622
 21
48.4261
  0
LINE
  8
0
 10
28.7622
 20
48.4261
 11
28.7626
 21
48.4238
  0
LINE
  8
0
 10
28.7626
 20
48.4238
 11
28.7642
 21
48.4181
  0
LINE
  8
0
 10
28.7642
 20
48.4181
 11
28.7703
 21
48.4019
  0
LINE
  8
0
 10
28.7703
 20
48.4019
 11
28.7938
 21
48.3525
  0
LINE
  8
0
 10
28.7938
 20
48.3525
 11
28.8309
 21
48.2827
  0
LINE
  8
0
 10
28.8309
 20
48.2827
 11
28.8801
 21
48.1953
  0
LINE
  8
0
 10
28.8801
 20
48.1953
 11
28.9396
 21
48.0931
  0
LINE
  8
0
 10
28.9396
 20
48.0931
 11
29.0078
 21
47.9792
  0
LINE
  8
0
 10
29.0078
 20
47.9792
 11
29.1636
 21
47.7273
  0
LINE
  8
0
 10
29.1636
 20
47.7273
 11
29.384
 21
47.3648
  0
LINE
  8
0
 10
29.384
 20
47.3648
 11
29.5879
 21
47.002
  0
LINE
  8
0
 10
29.5879
 20
47.002
 11
29.7753
 21
46.6393
  0
LINE
  8
0
 10
29.7753
 20
46.6393
 11
29.946
 21
46.2774
  0
LINE
  8
0
 10
29.946
 20
46.2774
 11
30.0997
 21
45.9169
  0
LINE
  8
0
 10
30.0997
 20
45.9169
 11
30.2364
 21
45.5585
  0
LINE
  8
0
 10
30.2364
 20
45.5585
 11
30.3559
 21
45.2028
  0
LINE
  8
0
 10
30.3559
 20
45.2028
 11
30.4579
 21
44.8504
  0
LINE
  8
0
 10
30.4579
 20
44.8504
 11
30.5424
 21
44.502
  0
LINE
  8
0
 10
30.5424
 20
44.502
 11
30.6091
 21
44.1581
  0
LINE
  8
0
 10
30.6091
 20
44.1581
 11
30.6579
 21
43.8195
  0
LINE
  8
0
 10
30.6579
 20
43.8195
 11
30.6887
 21
43.4867
  0
LINE
  8
0
 10
30.6887
 20
43.4867
 11
30.7012
 21
43.1603
  0
LINE
  8
0
 10
30.7012
 20
43.1603
 11
30.6953
 21
42.841
  0
LINE
  8
0
 10
30.6953
 20
42.841
 11
30.6708
 21
42.5295
  0
LINE
  8
0
 10
30.6708
 20
42.5295
 11
30.6276
 21
42.2263
  0
LINE
  8
0
 10
30.6276
 20
42.2263
 11
30.5523
 21
41.8532
  0
LINE
  8
0
 10
30.5523
 20
41.8532
 11
30.4556
 21
41.4746
  0
LINE
  8
0
 10
30.4556
 20
41.4746
 11
30.3349
 21
41.0871
  0
LINE
  8
0
 10
30.3349
 20
41.0871
 11
30.188
 21
40.6873
  0
LINE
  8
0
 10
30.188
 20
40.6873
 11
30.0123
 21
40.2718
  0
LINE
  8
0
 10
30.0123
 20
40.2718
 11
29.8053
 21
39.8371
  0
LINE
  8
0
 10
29.8053
 20
39.8371
 11
29.5645
 21
39.38
  0
LINE
  8
0
 10
29.5645
 20
39.38
 11
29.2876
 21
38.897
  0
LINE
  8
0
 10
29.2876
 20
38.897
 11
29.1348
 21
38.6447
  0
LINE
  8
0
 10
29.1348
 20
38.6447
 11
28.9721
 21
38.3847
  0
LINE
  8
0
 10
28.9721
 20
38.3847
 11
28.7991
 21
38.1164
  0
LINE
  8
0
 10
28.7991
 20
38.1164
 11
28.6154
 21
37.8396
  0
LINE
  8
0
 10
28.6154
 20
37.8396
 11
28.4209
 21
37.5538
  0
LINE
  8
0
 10
28.4209
 20
37.5538
 11
28.2152
 21
37.2585
  0
LINE
  8
0
 10
28.2152
 20
37.2585
 11
27.998
 21
36.9533
  0
LINE
  8
0
 10
27.998
 20
36.9533
 11
27.769
 21
36.6379
  0
LINE
  8
0
 10
27.769
 20
36.6379
 11
27.5278
 21
36.3117
  0
LINE
  8
0
 10
27.5278
 20
36.3117
 11
27.2742
 21
35.9744
  0
LINE
  8
0
 10
27.2742
 20
35.9744
 11
27.0079
 21
35.6255
  0
LINE
  8
0
 10
27.0079
 20
35.6255
 11
26.7285
 21
35.2646
  0
LINE
  8
0
 10
26.7285
 20
35.2646
 11
26.4358
 21
34.8912
  0
LINE
  8
0
 10
26.4358
 20
34.8912
 11
26.1294
 21
34.5051
  0
LINE
  8
0
 10
26.1294
 20
34.5051
 11
25.8091
 21
34.1056
  0
LINE
  8
0
 10
25.8091
 20
34.1056
 11
25.4744
 21
33.6925
  0
LINE
  8
0
 10
25.4744
 20
33.6925
 11
25.0863
 21
33.2191
  0
LINE
  8
0
 10
25.0863
 20
33.2191
 11
24.9671
 21
33.0745
  0
LINE
  8
0
 10
24.9671
 20
33.0745
 11
24.4621
 21
32.4647
  0
LINE
  8
0
 10
24.4621
 20
32.4647
 11
24.3619
 21
32.3439
  0
LINE
  8
0
 10
24.3619
 20
32.3439
 11
24.187
 21
32.1343
  0
LINE
  8
0
 10
24.187
 20
32.1343
 11
24.0786
 21
32.0052
  0
LINE
  8
0
 10
24.0786
 20
32.0052
 11
23.5797
 21
31.4112
  0
LINE
  8
0
 10
23.5797
 20
31.4112
 11
23.4109
 21
31.2112
  0
LINE
  8
0
 10
23.4109
 20
31.2112
 11
23.2848
 21
31.0624
  0
LINE
  8
0
 10
23.2848
 20
31.0624
 11
22.7772
 21
30.4647
  0
LINE
  8
0
 10
22.7772
 20
30.4647
 11
22.6189
 21
30.2787
  0
LINE
  8
0
 10
22.6189
 20
30.2787
 11
22.4726
 21
30.1077
  0
LINE
  8
0
 10
22.4726
 20
30.1077
 11
21.9725
 21
29.5238
  0
LINE
  8
0
 10
21.9725
 20
29.5238
 11
21.8003
 21
29.3233
  0
LINE
  8
0
 10
21.8003
 20
29.3233
 11
21.6484
 21
29.1469
  0
LINE
  8
0
 10
21.6484
 20
29.1469
 11
21.4826
 21
28.955
  0
LINE
  8
0
 10
21.4826
 20
28.955
 11
20.4444
 21
27.7546
  0
LINE
  8
0
 10
20.4444
 20
27.7546
 11
20.2947
 21
27.582
  0
LINE
  8
0
 10
20.2947
 20
27.582
 11
20.0676
 21
27.3206
  0
LINE
  8
0
 10
20.0676
 20
27.3206
 11
19.434
 21
26.5935
  0
LINE
  8
0
 10
19.434
 20
26.5935
 11
19.1539
 21
26.2727
  0
LINE
  8
0
 10
19.1539
 20
26.2727
 11
18.6968
 21
25.7501
  0
LINE
  8
0
 10
18.6968
 20
25.7501
 11
18.5043
 21
25.5302
  0
LINE
  8
0
 10
18.5043
 20
25.5302
 11
18.3519
 21
25.3544
  0
LINE
  8
0
 10
18.3519
 20
25.3544
 11
18.1574
 21
25.1295
  0
LINE
  8
0
 10
18.1574
 20
25.1295
 11
17.9855
 21
24.9302
  0
LINE
  8
0
 10
17.9855
 20
24.9302
 11
17.6144
 21
24.5013
  0
LINE
  8
0
 10
17.6144
 20
24.5013
 11
17.2744
 21
24.1063
  0
LINE
  8
0
 10
17.2744
 20
24.1063
 11
16.9465
 21
23.723
  0
LINE
  8
0
 10
16.9465
 20
23.723
 11
16.6316
 21
23.3527
  0
LINE
  8
0
 10
16.6316
 20
23.3527
 11
16.3309
 21
22.9968
  0
LINE
  8
0
 10
16.3309
 20
22.9968
 11
16.0454
 21
22.6564
  0
LINE
  8
0
 10
16.0454
 20
22.6564
 11
15.7763
 21
22.3329
  0
LINE
  8
0
 10
15.7763
 20
22.3329
 11
15.5247
 21
22.0276
  0
LINE
  8
0
 10
15.5247
 20
22.0276
 11
15.2915
 21
21.7418
  0
LINE
  8
0
 10
15.2915
 20
21.7418
 11
15.0779
 21
21.4768
  0
LINE
  8
0
 10
15.0779
 20
21.4768
 11
14.8849
 21
21.2338
  0
LINE
  8
0
 10
14.8849
 20
21.2338
 11
14.7137
 21
21.0141
  0
LINE
  8
0
 10
14.7137
 20
21.0141
 11
14.5653
 21
20.8191
  0
LINE
  8
0
 10
14.5653
 20
20.8191
 11
14.4408
 21
20.6501
  0
LINE
  8
0
 10
14.4408
 20
20.6501
 11
14.3412
 21
20.5082
  0
LINE
  8
0
 10
14.3412
 20
20.5082
 11
14.2677
 21
20.3949
  0
LINE
  8
0
 10
14.2677
 20
20.3949
 11
14.2214
 21
20.3114
  0
LINE
  8
0
 10
14.2214
 20
20.3114
 11
14.1056
 21
20.0413
  0
LINE
  8
0
 10
14.1056
 20
20.0413
 11
14.0128
 21
19.7675
  0
LINE
  8
0
 10
14.0128
 20
19.7675
 11
13.9426
 21
19.4917
  0
LINE
  8
0
 10
13.9426
 20
19.4917
 11
13.8948
 21
19.2155
  0
LINE
  8
0
 10
13.8948
 20
19.2155
 11
13.869
 21
18.9406
  0
LINE
  8
0
 10
13.869
 20
18.9406
 11
13.865
 21
18.6687
  0
LINE
  8
0
 10
13.865
 20
18.6687
 11
13.8823
 21
18.4015
  0
LINE
  8
0
 10
13.8823
 20
18.4015
 11
13.9207
 21
18.1406
  0
LINE
  8
0
 10
13.9207
 20
18.1406
 11
13.9799
 21
17.8877
  0
LINE
  8
0
 10
13.9799
 20
17.8877
 11
14.0595
 21
17.6445
  0
LINE
  8
0
 10
14.0595
 20
17.6445
 11
14.1592
 21
17.4126
  0
LINE
  8
0
 10
14.1592
 20
17.4126
 11
14.2787
 21
17.1937
  0
LINE
  8
0
 10
14.2787
 20
17.1937
 11
14.4177
 21
16.9895
  0
LINE
  8
0
 10
14.4177
 20
16.9895
 11
14.5759
 21
16.8016
  0
LINE
  8
0
 10
14.5759
 20
16.8016
 11
14.7529
 21
16.6318
  0
LINE
  8
0
 10
14.7529
 20
16.6318
 11
14.9485
 21
16.4816
  0
LINE
  8
0
 10
14.9485
 20
16.4816
 11
15.0706
 21
16.4068
  0
LINE
  8
0
 10
15.0706
 20
16.4068
 11
15.2039
 21
16.341
  0
LINE
  8
0
 10
15.2039
 20
16.341
 11
15.347
 21
16.2843
  0
LINE
  8
0
 10
15.347
 20
16.2843
 11
15.4987
 21
16.2368
  0
LINE
  8
0
 10
15.4987
 20
16.2368
 11
15.823
 21
16.1691
  0
LINE
  8
0
 10
15.823
 20
16.1691
 11
16.1667
 21
16.1383
  0
LINE
  8
0
 10
16.1667
 20
16.1383
 11
16.5197
 21
16.1449
  0
LINE
  8
0
 10
16.5197
 20
16.1449
 11
16.872
 21
16.1891
  0
LINE
  8
0
 10
16.872
 20
16.1891
 11
17.2136
 21
16.2712
  0
LINE
  8
0
 10
17.2136
 20
16.2712
 11
17.5343
 21
16.3917
  0
LINE
  8
0
 10
17.5343
 20
16.3917
 11
17.5608
 21
16.4069
  0
LINE
  8
0
 10
17.5608
 20
16.4069
 11
17.5974
 21
16.4322
  0
LINE
  8
0
 10
17.5974
 20
16.4322
 11
17.694
 21
16.5069
  0
LINE
  8
0
 10
17.694
 20
16.5069
 11
18.0656
 21
16.8294
  0
LINE
  8
0
 10
18.0656
 20
16.8294
 11
18.1745
 21
16.927
  0
LINE
  8
0
 10
18.1745
 20
16.927
 11
18.2926
 21
17.0338
  0
LINE
  8
0
 10
18.2926
 20
17.0338
 11
18.4194
 21
17.1496
  0
LINE
  8
0
 10
18.4194
 20
17.1496
 11
18.5548
 21
17.2742
  0
LINE
  8
0
 10
18.5548
 20
17.2742
 11
18.8503
 21
17.5489
  0
LINE
  8
0
 10
18.8503
 20
17.5489
 11
19.1772
 21
17.8557
  0
LINE
  8
0
 10
19.1772
 20
17.8557
 11
19.5333
 21
18.1928
  0
LINE
  8
0
 10
19.5333
 20
18.1928
 11
19.9168
 21
18.5582
  0
LINE
  8
0
 10
19.9168
 20
18.5582
 11
20.3257
 21
18.95
  0
LINE
  8
0
 10
20.3257
 20
18.95
 11
20.758
 21
19.3662
  0
LINE
  8
0
 10
20.758
 20
19.3662
 11
21.2118
 21
19.8049
  0
LINE
  8
0
 10
21.2118
 20
19.8049
 11
21.6849
 21
20.264
  0
LINE
  8
0
 10
21.6849
 20
20.264
 11
22.1756
 21
20.7418
  0
LINE
  8
0
 10
22.1756
 20
20.7418
 11
22.6817
 21
21.2361
  0
LINE
  8
0
 10
22.6817
 20
21.2361
 11
23.2014
 21
21.7451
  0
LINE
  8
0
 10
23.2014
 20
21.7451
 11
23.7326
 21
22.2668
  0
LINE
  8
0
 10
23.7326
 20
22.2668
 11
24.8218
 21
23.3406
  0
LINE
  8
0
 10
24.8218
 20
23.3406
 11
25.2073
 21
23.7236
  0
LINE
  8
0
 10
25.2073
 20
23.7236
 11
27.8492
 21
26.3532
  0
LINE
  8
0
 10
27.8492
 20
26.3532
 11
28.496
 21
27.0016
  0
LINE
  8
0
 10
28.496
 20
27.0016
 11
29.1304
 21
27.6396
  0
LINE
  8
0
 10
29.1304
 20
27.6396
 11
29.749
 21
28.2638
  0
LINE
  8
0
 10
29.749
 20
28.2638
 11
30.3483
 21
28.8707
  0
LINE
  8
0
 10
30.3483
 20
28.8707
 11
30.9248
 21
29.4568
  0
LINE
  8
0
 10
30.9248
 20
29.4568
 11
31.475
 21
30.0189
  0
LINE
  8
0
 10
31.475
 20
30.0189
 11
31.9955
 21
30.5535
  0
LINE
  8
0
 10
31.9955
 20
30.5535
 11
32.2436
 21
30.8094
  0
LINE
  8
0
 10
32.2436
 20
30.8094
 11
32.4829
 21
31.0571
  0
LINE
  8
0
 10
32.4829
 20
31.0571
 11
32.713
 21
31.2962
  0
LINE
  8
0
 10
32.713
 20
31.2962
 11
32.9335
 21
31.5263
  0
LINE
  8
0
 10
32.9335
 20
31.5263
 11
33.1441
 21
31.7469
  0
LINE
  8
0
 10
33.1441
 20
31.7469
 11
33.3441
 21
31.9577
  0
LINE
  8
0
 10
33.3441
 20
31.9577
 11
33.5332
 21
32.1582
  0
LINE
  8
0
 10
33.5332
 20
32.1582
 11
33.7111
 21
32.348
  0
LINE
  8
0
 10
33.7111
 20
32.348
 11
33.8772
 21
32.5266
  0
LINE
  8
0
 10
33.8772
 20
32.5266
 11
34.031
 21
32.6935
  0
LINE
  8
0
 10
34.031
 20
32.6935
 11
34.5465
 21
33.2593
  0
LINE
  8
0
 10
34.5465
 20
33.2593
 11
35.0381
 21
33.8057
  0
LINE
  8
0
 10
35.0381
 20
33.8057
 11
35.5061
 21
34.3333
  0
LINE
  8
0
 10
35.5061
 20
34.3333
 11
35.9509
 21
34.8429
  0
LINE
  8
0
 10
35.9509
 20
34.8429
 11
36.3728
 21
35.335
  0
LINE
  8
0
 10
36.3728
 20
35.335
 11
36.7721
 21
35.8103
  0
LINE
  8
0
 10
36.7721
 20
35.8103
 11
37.1492
 21
36.2693
  0
LINE
  8
0
 10
37.1492
 20
36.2693
 11
37.5045
 21
36.7128
  0
LINE
  8
0
 10
37.5045
 20
36.7128
 11
37.8382
 21
37.1413
  0
LINE
  8
0
 10
24.0425
 20
34.1539
 11
25.1447
 21
35.3936
  0
LINE
  8
0
 10
25.1447
 20
35.3936
 11
25.5318
 21
35.8289
  0
LINE
  8
0
 10
25.5318
 20
35.8289
 11
25.5318
 21
35.8293
  0
LINE
  8
0
 10
25.5318
 20
35.8293
 11
25.539
 21
35.837
  0
LINE
  8
0
 10
25.539
 20
35.837
 11
25.539
 21
48.3463
  0
LINE
  8
0
 10
25.539
 20
48.3463
 11
24.7148
 21
48.7236
  0
LINE
  8
0
 10
24.7148
 20
48.7236
 11
24.337
 21
48.9149
  0
LINE
  8
0
 10
24.337
 20
48.9149
 11
24.2764
 21
48.9503
  0
LINE
  8
0
 10
24.2764
 20
48.9503
 11
23.98
 21
49.1313
  0
LINE
  8
0
 10
23.98
 20
49.1313
 11
23.9026
 21
49.1834
  0
LINE
  8
0
 10
23.9026
 20
49.1834
 11
23.6315
 21
49.3797
  0
LINE
  8
0
 10
23.6315
 20
49.3797
 11
23.559
 21
49.4357
  0
LINE
  8
0
 10
23.559
 20
49.4357
 11
23.2864
 21
49.6672
  0
LINE
  8
0
 10
23.2864
 20
49.6672
 11
23.234
 21
49.7132
  0
LINE
  8
0
 10
23.234
 20
49.7132
 11
22.9269
 21
50.0166
  0
LINE
  8
0
 10
22.9269
 20
50.0166
 11
22.8909
 21
50.0567
  0
LINE
  8
0
 10
22.8909
 20
50.0567
 11
22.6358
 21
50.3481
  0
LINE
  8
0
 10
22.6358
 20
50.3481
 11
22.5812
 21
50.416
  0
LINE
  8
0
 10
22.5812
 20
50.416
 11
22.3555
 21
50.7129
  0
LINE
  8
0
 10
22.3555
 20
50.7129
 11
22.3067
 21
50.7805
  0
LINE
  8
0
 10
22.3067
 20
50.7805
 11
22.0529
 21
51.1643
  0
LINE
  8
0
 10
22.0529
 20
51.1643
 11
21.9683
 21
51.296
  0
LINE
  8
0
 10
21.9683
 20
51.296
 11
21.9142
 21
51.3799
  0
LINE
  8
0
 10
21.9142
 20
51.3799
 11
21.9088
 21
51.3879
  0
LINE
  8
0
 10
21.9088
 20
51.3879
 11
21.8284
 21
51.5018
  0
LINE
  8
0
 10
21.8284
 20
51.5018
 11
21.7747
 21
51.5775
  0
LINE
  8
0
 10
21.7747
 20
51.5775
 11
21.7657
 21
51.5895
  0
LINE
  8
0
 10
21.7657
 20
51.5895
 11
21.6872
 21
51.6895
  0
LINE
  8
0
 10
21.6872
 20
51.6895
 11
21.6337
 21
51.7571
  0
LINE
  8
0
 10
21.6337
 20
51.7571
 11
21.623
 21
51.7699
  0
LINE
  8
0
 10
21.623
 20
51.7699
 11
21.5439
 21
51.859
  0
LINE
  8
0
 10
21.5439
 20
51.859
 11
21.4901
 21
51.9191
  0
LINE
  8
0
 10
21.4901
 20
51.9191
 11
21.4797
 21
51.9301
  0
LINE
  8
0
 10
21.4797
 20
51.9301
 11
21.3981
 21
52.01
  0
LINE
  8
0
 10
21.3981
 20
52.01
 11
21.3438
 21
52.0628
  0
LINE
  8
0
 10
21.3438
 20
52.0628
 11
21.335
 21
52.0708
  0
LINE
  8
0
 10
21.335
 20
52.0708
 11
21.2498
 21
52.1421
  0
LINE
  8
0
 10
21.2498
 20
52.1421
 11
21.1947
 21
52.1879
  0
LINE
  8
0
 10
21.1947
 20
52.1879
 11
21.1881
 21
52.193
  0
LINE
  8
0
 10
21.1881
 20
52.193
 11
21.0981
 21
52.256
  0
LINE
  8
0
 10
21.0981
 20
52.256
 11
21.0418
 21
52.2952
  0
LINE
  8
0
 10
21.0418
 20
52.2952
 11
21.038
 21
52.2976
  0
LINE
  8
0
 10
21.038
 20
52.2976
 11
20.884
 21
52.3854
  0
LINE
  8
0
 10
20.884
 20
52.3854
 11
20.7337
 21
52.4688
  0
LINE
  8
0
 10
20.7337
 20
52.4688
 11
20.5752
 21
52.5693
  0
LINE
  8
0
 10
20.5752
 20
52.5693
 11
20.4103
 21
52.6852
  0
LINE
  8
0
 10
20.4103
 20
52.6852
 11
20.2406
 21
52.8146
  0
LINE
  8
0
 10
20.2406
 20
52.8146
 11
19.8948
 21
53.1067
  0
LINE
  8
0
 10
19.8948
 20
53.1067
 11
19.5524
 21
53.4309
  0
LINE
  8
0
 10
19.5524
 20
53.4309
 11
19.2279
 21
53.7727
  0
LINE
  8
0
 10
19.2279
 20
53.7727
 11
18.9355
 21
54.1182
  0
LINE
  8
0
 10
18.9355
 20
54.1182
 11
18.8062
 21
54.2874
  0
LINE
  8
0
 10
18.8062
 20
54.2874
 11
18.6903
 21
54.452
  0
LINE
  8
0
 10
18.6903
 20
54.452
 11
18.5896
 21
54.6105
  0
LINE
  8
0
 10
18.5896
 20
54.6105
 11
18.5064
 21
54.7604
  0
LINE
  8
0
 10
18.5064
 20
54.7604
 11
18.4476
 21
54.8875
  0
LINE
  8
0
 10
18.4476
 20
54.8875
 11
18.347
 21
55.106
  0
LINE
  8
0
 10
18.347
 20
55.106
 11
18.2696
 21
55.3136
  0
LINE
  8
0
 10
18.2696
 20
55.3136
 11
18.2154
 21
55.462
  0
LINE
  8
0
 10
18.2154
 20
55.462
 11
18.1495
 21
55.69
  0
LINE
  8
0
 10
18.1495
 20
55.69
 11
18.1113
 21
55.828
  0
LINE
  8
0
 10
18.1113
 20
55.828
 11
18.061
 21
56.0684
  0
LINE
  8
0
 10
18.061
 20
56.0684
 11
18.0348
 21
56.2034
  0
LINE
  8
0
 10
18.0348
 20
56.2034
 11
18.001
 21
56.4551
  0
LINE
  8
0
 10
18.001
 20
56.4551
 11
17.9857
 21
56.5861
  0
LINE
  8
0
 10
17.9857
 20
56.5861
 11
17.9693
 21
56.8482
  0
LINE
  8
0
 10
17.9693
 20
56.8482
 11
17.9637
 21
56.9753
  0
LINE
  8
0
 10
17.9637
 20
56.9753
 11
17.9652
 21
57.2471
  0
LINE
  8
0
 10
17.9652
 20
57.2471
 11
17.9681
 21
57.3703
  0
LINE
  8
0
 10
17.9681
 20
57.3703
 11
17.988
 21
57.6515
  0
LINE
  8
0
 10
17.988
 20
57.6515
 11
17.9984
 21
57.7708
  0
LINE
  8
0
 10
17.9984
 20
57.7708
 11
18.037
 21
58.0604
  0
LINE
  8
0
 10
18.037
 20
58.0604
 11
18.0544
 21
58.1782
  0
LINE
  8
0
 10
18.0544
 20
58.1782
 11
18.1119
 21
58.4745
  0
LINE
  8
0
 10
18.1119
 20
58.4745
 11
18.1363
 21
58.5929
  0
LINE
  8
0
 10
18.1363
 20
58.5929
 11
18.2132
 21
58.8976
  0
LINE
  8
0
 10
18.2132
 20
58.8976
 11
18.2438
 21
59.0141
  0
LINE
  8
0
 10
18.2438
 20
59.0141
 11
18.3408
 21
59.3278
  0
LINE
  8
0
 10
18.3408
 20
59.3278
 11
18.3771
 21
59.442
  0
LINE
  8
0
 10
18.3771
 20
59.442
 11
18.4947
 21
59.7646
  0
LINE
  8
0
 10
18.4947
 20
59.7646
 11
18.5361
 21
59.8762
  0
LINE
  8
0
 10
18.5361
 20
59.8762
 11
18.6758
 21
60.2097
  0
LINE
  8
0
 10
18.6758
 20
60.2097
 11
18.7208
 21
60.316
  0
LINE
  8
0
 10
18.7208
 20
60.316
 11
18.8893
 21
60.6731
  0
LINE
  8
0
 10
18.8893
 20
60.6731
 11
18.931
 21
60.7611
  0
LINE
  8
0
 10
18.931
 20
60.7611
 11
19.1668
 21
61.2112
  0
LINE
  8
0
 10
19.1668
 20
61.2112
 11
19.6887
 21
62.1615
  0
LINE
  8
0
 10
19.6887
 20
62.1615
 11
17.5834
 21
68.4764
  0
LINE
  8
0
 10
17.5834
 20
68.4764
 11
17.2517
 21
69.4661
  0
LINE
  8
0
 10
17.2517
 20
69.4661
 11
17.1029
 21
69.9069
  0
LINE
  8
0
 10
17.1029
 20
69.9069
 11
16.9332
 21
70.4067
  0
LINE
  8
0
 10
16.9332
 20
70.4067
 11
16.7802
 21
70.855
  0
LINE
  8
0
 10
16.7802
 20
70.855
 11
16.6292
 21
71.2949
  0
LINE
  8
0
 10
16.6292
 20
71.2949
 11
16.4892
 21
71.7002
  0
LINE
  8
0
 10
16.4892
 20
71.7002
 11
16.4268
 21
71.88
  0
LINE
  8
0
 10
16.4268
 20
71.88
 11
16.3755
 21
72.0277
  0
LINE
  8
0
 10
16.3755
 20
72.0277
 11
16.3385
 21
72.1339
  0
LINE
  8
0
 10
16.3385
 20
72.1339
 11
16.2495
 21
72.3882
  0
LINE
  8
0
 10
16.2495
 20
72.3882
 11
16.2218
 21
72.4671
  0
LINE
  8
0
 10
16.2218
 20
72.4671
 11
16.1606
 21
72.641
  0
LINE
  8
0
 10
16.1606
 20
72.641
 11
16.1143
 21
72.7724
  0
LINE
  8
0
 10
16.1143
 20
72.7724
 11
16.0983
 21
72.8177
  0
LINE
  8
0
 10
16.0983
 20
72.8177
 11
15.9821
 21
73.1443
  0
LINE
  8
0
 10
15.9821
 20
73.1443
 11
15.874
 21
73.4455
  0
LINE
  8
0
 10
15.874
 20
73.4455
 11
15.8366
 21
73.5488
  0
LINE
  8
0
 10
15.8366
 20
73.5488
 11
15.7992
 21
73.6517
  0
LINE
  8
0
 10
15.7992
 20
73.6517
 11
15.7743
 21
73.7199
  0
LINE
  8
0
 10
15.7743
 20
73.7199
 11
15.6836
 21
73.966
  0
LINE
  8
0
 10
15.6836
 20
73.966
 11
15.6719
 21
73.9976
  0
LINE
  8
0
 10
15.6719
 20
73.9976
 11
15.6415
 21
74.0787
  0
LINE
  8
0
 10
15.6415
 20
74.0787
 11
15.6025
 21
74.1823
  0
LINE
  8
0
 10
15.6025
 20
74.1823
 11
15.5982
 21
74.1937
  0
LINE
  8
0
 10
15.5982
 20
74.1937
 11
15.5715
 21
74.2632
  0
LINE
  8
0
 10
15.5715
 20
74.2632
 11
15.5314
 21
74.3675
  0
LINE
  8
0
 10
15.5314
 20
74.3675
 11
15.3292
 21
74.886
  0
LINE
  8
0
 10
15.3292
 20
74.886
 11
15.1061
 21
74.3076
  0
LINE
  8
0
 10
15.1061
 20
74.3076
 11
15.0542
 21
74.1925
  0
LINE
  8
0
 10
15.0542
 20
74.1925
 11
14.9975
 21
74.0653
  0
LINE
  8
0
 10
14.9975
 20
74.0653
 11
14.936
 21
73.9263
  0
LINE
  8
0
 10
14.936
 20
73.9263
 11
14.8699
 21
73.7757
  0
LINE
  8
0
 10
14.8699
 20
73.7757
 11
14.7993
 21
73.6138
  0
LINE
  8
0
 10
14.7993
 20
73.6138
 11
14.7243
 21
73.441
  0
LINE
  8
0
 10
14.7243
 20
73.441
 11
14.5616
 21
73.0634
  0
LINE
  8
0
 10
14.5616
 20
73.0634
 11
14.3828
 21
72.6451
  0
LINE
  8
0
 10
14.3828
 20
72.6451
 11
14.1888
 21
72.1883
  0
LINE
  8
0
 10
14.1888
 20
72.1883
 11
13.9806
 21
71.6952
  0
LINE
  8
0
 10
13.9806
 20
71.6952
 11
13.759
 21
71.1681
  0
LINE
  8
0
 10
13.759
 20
71.1681
 11
13.5251
 21
70.6091
  0
LINE
  8
0
 10
13.5251
 20
70.6091
 11
13.2797
 21
70.0206
  0
LINE
  8
0
 10
13.2797
 20
70.0206
 11
13.0239
 21
69.4046
  0
LINE
  8
0
 10
13.0239
 20
69.4046
 11
12.7585
 21
68.7634
  0
LINE
  8
0
 10
12.7585
 20
68.7634
 11
12.4844
 21
68.0992
  0
LINE
  8
0
 10
12.4844
 20
68.0992
 11
12.2027
 21
67.4142
  0
LINE
  8
0
 10
12.2027
 20
67.4142
 11
11.9142
 21
66.7106
  0
LINE
  8
0
 10
11.9142
 20
66.7106
 11
11.62
 21
65.9907
  0
LINE
  8
0
 10
11.62
 20
65.9907
 11
10.8865
 21
64.194
  0
LINE
  8
0
 10
10.8865
 20
64.194
 11
10.5283
 21
63.3166
  0
LINE
  8
0
 10
10.5283
 20
63.3166
 11
10.1785
 21
62.4602
  0
LINE
  8
0
 10
10.1785
 20
62.4602
 11
9.83946
 21
61.6301
  0
LINE
  8
0
 10
9.83946
 20
61.6301
 11
9.51318
 21
60.8315
  0
LINE
  8
0
 10
9.51318
 20
60.8315
 11
9.05252
 21
59.7042
  0
LINE
  8
0
 10
9.05252
 20
59.7042
 11
8.50317
 21
58.3606
  0
LINE
  8
0
 10
8.50317
 20
58.3606
 11
8.14926
 21
57.4954
  0
LINE
  8
0
 10
8.14926
 20
57.4954
 11
7.94499
 21
56.9964
  0
LINE
  8
0
 10
7.94499
 20
56.9964
 11
7.76859
 21
56.5656
  0
LINE
  8
0
 10
7.76859
 20
56.5656
 11
7.67969
 21
56.3487
  0
LINE
  8
0
 10
7.67969
 20
56.3487
 11
7.5609
 21
56.0592
  0
LINE
  8
0
 10
7.5609
 20
56.0592
 11
7.50793
 21
55.9303
  0
LINE
  8
0
 10
7.50793
 20
55.9303
 11
7.46353
 21
55.8223
  0
LINE
  8
0
 10
7.46353
 20
55.8223
 11
7.35857
 21
55.5677
  0
LINE
  8
0
 10
7.35857
 20
55.5677
 11
7.2854
 21
55.3899
  0
LINE
  8
0
 10
7.2854
 20
55.3899
 11
7.20155
 21
55.1859
  0
LINE
  8
0
 10
7.20155
 20
55.1859
 11
7.11047
 21
54.964
  0
LINE
  8
0
 10
7.11047
 20
54.964
 11
7.01303
 21
54.7264
  0
LINE
  8
0
 10
7.01303
 20
54.7264
 11
6.90465
 21
54.4618
  0
LINE
  8
0
 10
6.90465
 20
54.4618
 11
6.69095
 21
53.9398
  0
LINE
  8
0
 10
6.69095
 20
53.9398
 11
6.45998
 21
53.3748
  0
LINE
  8
0
 10
6.45998
 20
53.3748
 11
6.22395
 21
52.7968
  0
LINE
  8
0
 10
6.22395
 20
52.7968
 11
5.98969
 21
52.2225
  0
LINE
  8
0
 10
5.98969
 20
52.2225
 11
5.76401
 21
51.6686
  0
LINE
  8
0
 10
5.76401
 20
51.6686
 11
4.70154
 21
49.0595
  0
LINE
  8
0
 10
4.70154
 20
49.0595
 11
11.2448
 21
48.983
  0
LINE
  8
0
 10
11.2448
 20
48.983
 11
17.7881
 21
48.906
  0
LINE
  8
0
 10
17.7881
 20
48.906
 11
17.7881
 21
46.1434
  0
LINE
  8
0
 10
17.7881
 20
46.1434
 11
17.7879
 21
45.9911
  0
LINE
  8
0
 10
17.7879
 20
45.9911
 11
17.7874
 21
45.8195
  0
LINE
  8
0
 10
17.7874
 20
45.8195
 11
17.7866
 21
45.6295
  0
LINE
  8
0
 10
17.7866
 20
45.6295
 11
17.7855
 21
45.4216
  0
LINE
  8
0
 10
17.7855
 20
45.4216
 11
17.784
 21
45.1965
  0
LINE
  8
0
 10
17.784
 20
45.1965
 11
17.7823
 21
44.9551
  0
LINE
  8
0
 10
17.7823
 20
44.9551
 11
17.7803
 21
44.6979
  0
LINE
  8
0
 10
17.7803
 20
44.6979
 11
17.778
 21
44.4257
  0
LINE
  8
0
 10
17.778
 20
44.4257
 11
17.7755
 21
44.1391
  0
LINE
  8
0
 10
17.7755
 20
44.1391
 11
17.7726
 21
43.839
  0
LINE
  8
0
 10
17.7726
 20
43.839
 11
17.7695
 21
43.5259
  0
LINE
  8
0
 10
17.7695
 20
43.5259
 11
17.7662
 21
43.2006
  0
LINE
  8
0
 10
17.7662
 20
43.2006
 11
17.7589
 21
42.5161
  0
LINE
  8
0
 10
17.7589
 20
42.5161
 11
17.7506
 21
41.7911
  0
LINE
  8
0
 10
17.7506
 20
41.7911
 11
17.7415
 21
41.0313
  0
LINE
  8
0
 10
17.7415
 20
41.0313
 11
17.7317
 21
40.2422
  0
LINE
  8
0
 10
17.7317
 20
40.2422
 11
17.7212
 21
39.4294
  0
LINE
  8
0
 10
17.7212
 20
39.4294
 11
17.71
 21
38.5986
  0
LINE
  8
0
 10
17.71
 20
38.5986
 11
17.6604
 21
35.2071
  0
LINE
  8
0
 10
17.6604
 20
35.2071
 11
17.6504
 21
34.5482
  0
LINE
  8
0
 10
17.6504
 20
34.5482
 11
17.641
 21
33.9041
  0
LINE
  8
0
 10
17.641
 20
33.9041
 11
17.6322
 21
33.2765
  0
LINE
  8
0
 10
17.6322
 20
33.2765
 11
17.6242
 21
32.6675
  0
LINE
  8
0
 10
17.6242
 20
32.6675
 11
17.6169
 21
32.0791
  0
LINE
  8
0
 10
17.6169
 20
32.0791
 11
17.6103
 21
31.5133
  0
LINE
  8
0
 10
17.6103
 20
31.5133
 11
17.6044
 21
30.9719
  0
LINE
  8
0
 10
17.6044
 20
30.9719
 11
17.5993
 21
30.457
  0
LINE
  8
0
 10
17.5993
 20
30.457
 11
17.595
 21
29.9706
  0
LINE
  8
0
 10
17.595
 20
29.9706
 11
17.5914
 21
29.5146
  0
LINE
  8
0
 10
17.5914
 20
29.5146
 11
17.5886
 21
29.0909
  0
LINE
  8
0
 10
17.5886
 20
29.0909
 11
17.5867
 21
28.7016
  0
LINE
  8
0
 10
17.5867
 20
28.7016
 11
17.5855
 21
28.3487
  0
LINE
  8
0
 10
17.5855
 20
28.3487
 11
17.5852
 21
28.034
  0
LINE
  8
0
 10
17.5852
 20
28.034
 11
17.5857
 21
27.7596
  0
LINE
  8
0
 10
17.5857
 20
27.7596
 11
17.5871
 21
27.5275
  0
LINE
  8
0
 10
17.5871
 20
27.5275
 11
17.5845
 21
27.5275
  0
LINE
  8
0
 10
17.5845
 20
27.5275
 11
17.5897
 21
27.0019
  0
LINE
  8
0
 10
17.5897
 20
27.0019
 11
17.9612
 21
27.3972
  0
LINE
  8
0
 10
17.9612
 20
27.3972
 11
18.0432
 21
27.4848
  0
LINE
  8
0
 10
18.0432
 20
27.4848
 11
18.1337
 21
27.582
  0
LINE
  8
0
 10
18.1337
 20
27.582
 11
18.2323
 21
27.6885
  0
LINE
  8
0
 10
18.2323
 20
27.6885
 11
18.339
 21
27.8042
  0
LINE
  8
0
 10
18.339
 20
27.8042
 11
18.4537
 21
27.9289
  0
LINE
  8
0
 10
18.4537
 20
27.9289
 11
18.5761
 21
28.0625
  0
LINE
  8
0
 10
18.5761
 20
28.0625
 11
18.8439
 21
28.3559
  0
LINE
  8
0
 10
18.8439
 20
28.3559
 11
19.1413
 21
28.6829
  0
LINE
  8
0
 10
19.1413
 20
28.6829
 11
19.467
 21
29.0425
  0
LINE
  8
0
 10
19.467
 20
29.0425
 11
19.8201
 21
29.4333
  0
LINE
  8
0
 10
19.8201
 20
29.4333
 11
20.1994
 21
29.8541
  0
LINE
  8
0
 10
20.1994
 20
29.8541
 11
20.6037
 21
30.3038
  0
LINE
  8
0
 10
20.6037
 20
30.3038
 11
21.032
 21
30.781
  0
LINE
  8
0
 10
21.032
 20
30.781
 11
21.4832
 21
31.2845
  0
LINE
  8
0
 10
21.4832
 20
31.2845
 11
21.9561
 21
31.8132
  0
LINE
  8
0
 10
21.9561
 20
31.8132
 11
22.4496
 21
32.3656
  0
LINE
  8
0
 10
22.4496
 20
32.3656
 11
22.9625
 21
32.9408
  0
LINE
  8
0
 10
22.9625
 20
32.9408
 11
23.4939
 21
33.5373
  0
LINE
  8
0
 10
23.4939
 20
33.5373
 11
24.0425
 21
34.1539
  0
ENDSEC
  0
SECTION
  2
OBJECTS
  0
DICTIONARY
  0
ENDSEC
  0
EOF
