999
DXF from OpenSCAD
  0
SECTION
  2
HEADER
  9
$ACADVER
  1
AC1006
  9
$INSBASE
 10
0.0
 20
0.0
 30
0.0
  9
$EXTMIN
 10
0
 20
0
  9
$EXTMAX
 10
270
 20
100
  9
$LINMIN
 10
0
 20
0
  9
$LINMAX
 10
270
 20
100
  0
ENDSEC
  0
SECTION
  2
TABLES
  0
TABLE
  2
LTYPE
 70
1
  0
LTYPE
  2
CONTINUOUS
 70
64
  3
Solid line
 72
65
 73
0
 40
0.000000
  0
ENDTAB
  0
TABLE
  2
LAYER
 70
6
  0
LAYER
  2
0
 70
64
 62
7
  6
CONTINUOUS
  0
ENDTAB
  0
TABLE
  2
STYLE
 70
0
  0
ENDTAB
  0
ENDSEC
  0
SECTION
  2
BLOCKS
  0
ENDSEC
  0
SECTION
  2
ENTITIES
  0
LWPOLYLINE
100
AcDbEntity
  8
0
100
AcDbPolyline
 90
96
 70
1
 10
170
 20
100
 10
161
 20
100
 10
161
 20
65
 10
160
 20
65
 10
160
 20
100
 10
154
 20
100
 10
154
 20
65
 10
153
 20
65
 10
153
 20
100
 10
147
 20
100
 10
147
 20
65
 10
146
 20
65
 10
146
 20
100
 10
140
 20
100
 10
140
 20
65
 10
139
 20
65
 10
139
 20
100
 10
133
 20
100
 10
133
 20
65
 10
132
 20
65
 10
132
 20
100
 10
126
 20
100
 10
126
 20
65
 10
125
 20
65
 10
125
 20
100
 10
119
 20
100
 10
119
 20
65
 10
118
 20
65
 10
118
 20
100
 10
112
 20
100
 10
112
 20
65
 10
111
 20
65
 10
111
 20
100
 10
105
 20
100
 10
105
 20
65
 10
104
 20
65
 10
104
 20
100
 10
98
 20
100
 10
98
 20
65
 10
97
 20
65
 10
97
 20
100
 10
91
 20
100
 10
91
 20
65
 10
90
 20
65
 10
90
 20
100
 10
84
 20
100
 10
84
 20
65
 10
83
 20
65
 10
83
 20
100
 10
77
 20
100
 10
77
 20
65
 10
76
 20
65
 10
76
 20
100
 10
70
 20
100
 10
70
 20
65
 10
69
 20
65
 10
69
 20
100
 10
63
 20
100
 10
63
 20
65
 10
62
 20
65
 10
62
 20
100
 10
56
 20
100
 10
56
 20
65
 10
55
 20
65
 10
55
 20
100
 10
49
 20
100
 10
49
 20
65
 10
48
 20
65
 10
48
 20
100
 10
42
 20
100
 10
42
 20
65
 10
41
 20
65
 10
41
 20
100
 10
35
 20
100
 10
35
 20
65
 10
34
 20
65
 10
34
 20
100
 10
28
 20
100
 10
28
 20
65
 10
27
 20
65
 10
27
 20
100
 10
21
 20
100
 10
21
 20
65
 10
20
 20
65
 10
20
 20
100
 10
14
 20
100
 10
14
 20
65
 10
13
 20
65
 10
13
 20
100
 10
7
 20
100
 10
7
 20
65
 10
6
 20
65
 10
6
 20
100
 10
0
 20
100
 10
0
 20
40
 10
170
 20
40
  0
LWPOLYLINE
100
AcDbEntity
  8
0
100
AcDbPolyline
 90
13
 70
1
 10
150.582
 20
48.2599
 10
149.006
 20
49.3475
 10
148.116
 20
51.0427
 10
148.116
 20
52.9573
 10
149.006
 20
54.6525
 10
150.582
 20
55.7401
 10
152.482
 20
55.9708
 10
154.272
 20
55.2919
 10
155.542
 20
53.8589
 10
156
 20
52
 10
155.542
 20
50.1411
 10
154.272
 20
48.7081
 10
152.482
 20
48.0292
  0
LWPOLYLINE
100
AcDbEntity
  8
0
100
AcDbPolyline
 90
13
 70
1
 10
115.582
 20
48.2599
 10
114.006
 20
49.3475
 10
113.116
 20
51.0427
 10
113.116
 20
52.9573
 10
114.006
 20
54.6525
 10
115.582
 20
55.7401
 10
117.482
 20
55.9708
 10
119.272
 20
55.2919
 10
120.542
 20
53.8589
 10
121
 20
52
 10
120.542
 20
50.1411
 10
119.272
 20
48.7081
 10
117.482
 20
48.0292
  0
LWPOLYLINE
100
AcDbEntity
  8
0
100
AcDbPolyline
 90
13
 70
1
 10
80.5816
 20
48.2599
 10
79.006
 20
49.3475
 10
78.1162
 20
51.0427
 10
78.1162
 20
52.9573
 10
79.006
 20
54.6525
 10
80.5816
 20
55.7401
 10
82.4821
 20
55.9708
 10
84.2723
 20
55.2919
 10
85.5418
 20
53.8589
 10
86
 20
52
 10
85.5418
 20
50.1411
 10
84.2723
 20
48.7081
 10
82.4821
 20
48.0292
  0
LWPOLYLINE
100
AcDbEntity
  8
0
100
AcDbPolyline
 90
13
 70
1
 10
45.5816
 20
48.2599
 10
44.006
 20
49.3475
 10
43.1162
 20
51.0427
 10
43.1162
 20
52.9573
 10
44.006
 20
54.6525
 10
45.5816
 20
55.7401
 10
47.4821
 20
55.9708
 10
49.2723
 20
55.2919
 10
50.5418
 20
53.8589
 10
51
 20
52
 10
50.5418
 20
50.1411
 10
49.2723
 20
48.7081
 10
47.4821
 20
48.0292
  0
LWPOLYLINE
100
AcDbEntity
  8
0
100
AcDbPolyline
 90
13
 70
1
 10
10.5816
 20
48.2599
 10
9.00596
 20
49.3475
 10
8.11623
 20
51.0427
 10
8.11623
 20
52.9573
 10
9.00596
 20
54.6525
 10
10.5816
 20
55.7401
 10
12.4821
 20
55.9708
 10
14.2723
 20
55.2919
 10
15.5418
 20
53.8589
 10
16
 20
52
 10
15.5418
 20
50.1411
 10
14.2723
 20
48.7081
 10
12.4821
 20
48.0292
  0
LWPOLYLINE
100
AcDbEntity
  8
0
100
AcDbPolyline
 90
160
 70
1
 10
270
 20
33
 10
259
 20
33
 10
259
 20
22
 10
258
 20
22
 10
258
 20
33
 10
252
 20
33
 10
252
 20
22
 10
251
 20
22
 10
251
 20
33
 10
245
 20
33
 10
245
 20
22
 10
244
 20
22
 10
244
 20
33
 10
238
 20
33
 10
238
 20
22
 10
237
 20
22
 10
237
 20
33
 10
231
 20
33
 10
231
 20
22
 10
230
 20
22
 10
230
 20
33
 10
224
 20
33
 10
224
 20
22
 10
223
 20
22
 10
223
 20
33
 10
217
 20
33
 10
217
 20
22
 10
216
 20
22
 10
216
 20
33
 10
210
 20
33
 10
210
 20
22
 10
209
 20
22
 10
209
 20
33
 10
203
 20
33
 10
203
 20
22
 10
202
 20
22
 10
202
 20
33
 10
196
 20
33
 10
196
 20
22
 10
195
 20
22
 10
195
 20
33
 10
189
 20
33
 10
189
 20
22
 10
188
 20
22
 10
188
 20
33
 10
182
 20
33
 10
182
 20
22
 10
181
 20
22
 10
181
 20
33
 10
175
 20
33
 10
175
 20
22
 10
174
 20
22
 10
174
 20
33
 10
168
 20
33
 10
168
 20
22
 10
167
 20
22
 10
167
 20
33
 10
161
 20
33
 10
161
 20
22
 10
160
 20
22
 10
160
 20
33
 10
154
 20
33
 10
154
 20
22
 10
153
 20
22
 10
153
 20
33
 10
147
 20
33
 10
147
 20
22
 10
146
 20
22
 10
146
 20
33
 10
140
 20
33
 10
140
 20
22
 10
139
 20
22
 10
139
 20
33
 10
133
 20
33
 10
133
 20
22
 10
132
 20
22
 10
132
 20
33
 10
126
 20
33
 10
126
 20
22
 10
125
 20
22
 10
125
 20
33
 10
119
 20
33
 10
119
 20
22
 10
118
 20
22
 10
118
 20
33
 10
112
 20
33
 10
112
 20
22
 10
111
 20
22
 10
111
 20
33
 10
105
 20
33
 10
105
 20
22
 10
104
 20
22
 10
104
 20
33
 10
98
 20
33
 10
98
 20
22
 10
97
 20
22
 10
97
 20
33
 10
91
 20
33
 10
91
 20
22
 10
90
 20
22
 10
90
 20
33
 10
84
 20
33
 10
84
 20
22
 10
83
 20
22
 10
83
 20
33
 10
77
 20
33
 10
77
 20
22
 10
76
 20
22
 10
76
 20
33
 10
70
 20
33
 10
70
 20
22
 10
69
 20
22
 10
69
 20
33
 10
63
 20
33
 10
63
 20
22
 10
62
 20
22
 10
62
 20
33
 10
56
 20
33
 10
56
 20
22
 10
55
 20
22
 10
55
 20
33
 10
49
 20
33
 10
49
 20
22
 10
48
 20
22
 10
48
 20
33
 10
42
 20
33
 10
42
 20
22
 10
41
 20
22
 10
41
 20
33
 10
35
 20
33
 10
35
 20
22
 10
34
 20
22
 10
34
 20
33
 10
28
 20
33
 10
28
 20
22
 10
27
 20
22
 10
27
 20
33
 10
21
 20
33
 10
21
 20
22
 10
20
 20
22
 10
20
 20
33
 10
14
 20
33
 10
14
 20
22
 10
13
 20
22
 10
13
 20
33
 10
7
 20
33
 10
7
 20
22
 10
6
 20
22
 10
6
 20
20.3923
 10
3.97043
 20
18.9177
 10
2.2918
 20
17.0534
 10
1.03745
 20
14.8808
 10
0.262229
 20
12.4949
 10
0
 20
10
 10
0.262229
 20
7.50506
 10
1.03745
 20
5.11916
 10
2.2918
 20
2.94658
 10
3.97043
 20
1.08226
 10
5.46004
 20
0
 10
270
 20
0
  0
LWPOLYLINE
100
AcDbEntity
  8
0
100
AcDbPolyline
 90
13
 70
1
 10
10.5816
 20
8.25994
 10
9.00596
 20
9.34751
 10
8.11623
 20
11.0427
 10
8.11623
 20
12.9573
 10
9.00596
 20
14.6525
 10
10.5816
 20
15.7401
 10
12.4821
 20
15.9708
 10
14.2723
 20
15.2919
 10
15.5418
 20
13.8589
 10
16
 20
12
 10
15.5418
 20
10.1411
 10
14.2723
 20
8.70806
 10
12.4821
 20
8.02916
  0
LWPOLYLINE
100
AcDbEntity
  8
0
100
AcDbPolyline
 90
13
 70
1
 10
45.5816
 20
8.25994
 10
44.006
 20
9.34751
 10
43.1162
 20
11.0427
 10
43.1162
 20
12.9573
 10
44.006
 20
14.6525
 10
45.5816
 20
15.7401
 10
47.4821
 20
15.9708
 10
49.2723
 20
15.2919
 10
50.5418
 20
13.8589
 10
51
 20
12
 10
50.5418
 20
10.1411
 10
49.2723
 20
8.70806
 10
47.4821
 20
8.02916
  0
LWPOLYLINE
100
AcDbEntity
  8
0
100
AcDbPolyline
 90
13
 70
1
 10
80.5816
 20
8.25994
 10
79.006
 20
9.34751
 10
78.1162
 20
11.0427
 10
78.1162
 20
12.9573
 10
79.006
 20
14.6525
 10
80.5816
 20
15.7401
 10
82.4821
 20
15.9708
 10
84.2723
 20
15.2919
 10
85.5418
 20
13.8589
 10
86
 20
12
 10
85.5418
 20
10.1411
 10
84.2723
 20
8.70806
 10
82.4821
 20
8.02916
  0
LWPOLYLINE
100
AcDbEntity
  8
0
100
AcDbPolyline
 90
13
 70
1
 10
115.582
 20
8.25994
 10
114.006
 20
9.34751
 10
113.116
 20
11.0427
 10
113.116
 20
12.9573
 10
114.006
 20
14.6525
 10
115.582
 20
15.7401
 10
117.482
 20
15.9708
 10
119.272
 20
15.2919
 10
120.542
 20
13.8589
 10
121
 20
12
 10
120.542
 20
10.1411
 10
119.272
 20
8.70806
 10
117.482
 20
8.02916
  0
LWPOLYLINE
100
AcDbEntity
  8
0
100
AcDbPolyline
 90
13
 70
1
 10
150.582
 20
8.25994
 10
149.006
 20
9.34751
 10
148.116
 20
11.0427
 10
148.116
 20
12.9573
 10
149.006
 20
14.6525
 10
150.582
 20
15.7401
 10
152.482
 20
15.9708
 10
154.272
 20
15.2919
 10
155.542
 20
13.8589
 10
156
 20
12
 10
155.542
 20
10.1411
 10
154.272
 20
8.70806
 10
152.482
 20
8.02916
  0
LWPOLYLINE
100
AcDbEntity
  8
0
100
AcDbPolyline
 90
13
 70
1
 10
185.582
 20
8.25994
 10
184.006
 20
9.34751
 10
183.116
 20
11.0427
 10
183.116
 20
12.9573
 10
184.006
 20
14.6525
 10
185.582
 20
15.7401
 10
187.482
 20
15.9708
 10
189.272
 20
15.2919
 10
190.542
 20
13.8589
 10
191
 20
12
 10
190.542
 20
10.1411
 10
189.272
 20
8.70806
 10
187.482
 20
8.02916
  0
LWPOLYLINE
100
AcDbEntity
  8
0
100
AcDbPolyline
 90
13
 70
1
 10
220.582
 20
8.25994
 10
219.006
 20
9.34751
 10
218.116
 20
11.0427
 10
218.116
 20
12.9573
 10
219.006
 20
14.6525
 10
220.582
 20
15.7401
 10
222.482
 20
15.9708
 10
224.272
 20
15.2919
 10
225.542
 20
13.8589
 10
226
 20
12
 10
225.542
 20
10.1411
 10
224.272
 20
8.70806
 10
222.482
 20
8.02916
  0
LWPOLYLINE
100
AcDbEntity
  8
0
100
AcDbPolyline
 90
13
 70
1
 10
255.582
 20
8.25994
 10
254.006
 20
9.34751
 10
253.116
 20
11.0427
 10
253.116
 20
12.9573
 10
254.006
 20
14.6525
 10
255.582
 20
15.7401
 10
257.482
 20
15.9708
 10
259.272
 20
15.2919
 10
260.542
 20
13.8589
 10
261
 20
12
 10
260.542
 20
10.1411
 10
259.272
 20
8.70806
 10
257.482
 20
8.02916
  0
ENDSEC
  0
EOF
