<?xml version="1.0" standalone="no"?>
<!DOCTYPE svg PUBLIC "-//W3C//DTD SVG 1.1//EN" "http://www.w3.org/Graphics/SVG/1.1/DTD/svg11.dtd">
<svg width="276mm" height="100mm" viewBox="-1 -100 276 100" xmlns="http://www.w3.org/2000/svg" version="1.1">
<title>OpenSCAD Model</title>
<path d="
M 170,-100 L 161,-100 L 161,-65 L 160,-65 L 160,-100 L 154,-100
 L 154,-65 L 153,-65 L 153,-100 L 147,-100 L 147,-65 L 146,-65
 L 146,-100 L 140,-100 L 140,-65 L 139,-65 L 139,-100 L 133,-100
 L 133,-65 L 132,-65 L 132,-100 L 126,-100 L 126,-65 L 125,-65
 L 125,-100 L 119,-100 L 119,-65 L 118,-65 L 118,-100 L 112,-100
 L 112,-65 L 111,-65 L 111,-100 L 105,-100 L 105,-65 L 104,-65
 L 104,-100 L 98,-100 L 98,-65 L 97,-65 L 97,-100 L 91,-100
 L 91,-65 L 90,-65 L 90,-100 L 84,-100 L 84,-65 L 83,-65
 L 83,-100 L 77,-100 L 77,-65 L 76,-65 L 76,-100 L 70,-100
 L 70,-65 L 69,-65 L 69,-100 L 63,-100 L 63,-65 L 62,-65
 L 62,-100 L 56,-100 L 56,-65 L 55,-65 L 55,-100 L 49,-100
 L 49,-65 L 48,-65 L 48,-100 L 42,-100 L 42,-65 L 41,-65
 L 41,-100 L 35,-100 L 35,-65 L 34,-65 L 34,-100 L 28,-100
 L 28,-65 L 27,-65 L 27,-100 L 21,-100 L 21,-65 L 20,-65
 L 20,-100 L 14,-100 L 14,-65 L 13,-65 L 13,-100 L 7,-100
 L 7,-65 L 6,-65 L 6,-100 L 0,-100 L 0,-40 L 170,-40
 z
M 153.582,-47.2599 L 152.006,-48.3475 L 151.116,-50.0427 L 151.116,-51.9573 L 152.006,-53.6525 L 153.582,-54.7401
 L 155.482,-54.9708 L 157.272,-54.2919 L 158.542,-52.8589 L 159,-51 L 158.542,-49.1411 L 157.272,-47.7081
 L 155.482,-47.0292 z
M 117.582,-47.2599 L 116.006,-48.3475 L 115.116,-50.0427 L 115.116,-51.9573 L 116.006,-53.6525 L 117.582,-54.7401
 L 119.482,-54.9708 L 121.272,-54.2919 L 122.542,-52.8589 L 123,-51 L 122.542,-49.1411 L 121.272,-47.7081
 L 119.482,-47.0292 z
M 81.5816,-47.2599 L 80.006,-48.3475 L 79.1162,-50.0427 L 79.1162,-51.9573 L 80.006,-53.6525 L 81.5816,-54.7401
 L 83.4821,-54.9708 L 85.2723,-54.2919 L 86.5418,-52.8589 L 87,-51 L 86.5418,-49.1411 L 85.2723,-47.7081
 L 83.4821,-47.0292 z
M 45.5816,-47.2599 L 44.006,-48.3475 L 43.1162,-50.0427 L 43.1162,-51.9573 L 44.006,-53.6525 L 45.5816,-54.7401
 L 47.4821,-54.9708 L 49.2723,-54.2919 L 50.5418,-52.8589 L 51,-51 L 50.5418,-49.1411 L 49.2723,-47.7081
 L 47.4821,-47.0292 z
M 9.58158,-47.2599 L 8.00596,-48.3475 L 7.11623,-50.0427 L 7.11623,-51.9573 L 8.00596,-53.6525 L 9.58158,-54.7401
 L 11.4821,-54.9708 L 13.2723,-54.2919 L 14.5418,-52.8589 L 15,-51 L 14.5418,-49.1411 L 13.2723,-47.7081
 L 11.4821,-47.0292 z
M 275,-33 L 266,-33 L 266,-22 L 265,-22 L 265,-33 L 259,-33
 L 259,-22 L 258,-22 L 258,-33 L 252,-33 L 252,-22 L 251,-22
 L 251,-33 L 245,-33 L 245,-22 L 244,-22 L 244,-33 L 238,-33
 L 238,-22 L 237,-22 L 237,-33 L 231,-33 L 231,-22 L 230,-22
 L 230,-33 L 224,-33 L 224,-22 L 223,-22 L 223,-33 L 217,-33
 L 217,-22 L 216,-22 L 216,-33 L 210,-33 L 210,-22 L 209,-22
 L 209,-33 L 203,-33 L 203,-22 L 202,-22 L 202,-33 L 196,-33
 L 196,-22 L 195,-22 L 195,-33 L 189,-33 L 189,-22 L 188,-22
 L 188,-33 L 182,-33 L 182,-22 L 181,-22 L 181,-33 L 175,-33
 L 175,-22 L 174,-22 L 174,-33 L 168,-33 L 168,-22 L 167,-22
 L 167,-33 L 161,-33 L 161,-22 L 160,-22 L 160,-33 L 154,-33
 L 154,-22 L 153,-22 L 153,-33 L 147,-33 L 147,-22 L 146,-22
 L 146,-33 L 140,-33 L 140,-22 L 139,-22 L 139,-33 L 133,-33
 L 133,-22 L 132,-22 L 132,-33 L 126,-33 L 126,-22 L 125,-22
 L 125,-33 L 119,-33 L 119,-22 L 118,-22 L 118,-33 L 112,-33
 L 112,-22 L 111,-22 L 111,-33 L 105,-33 L 105,-22 L 104,-22
 L 104,-33 L 98,-33 L 98,-22 L 97,-22 L 97,-33 L 91,-33
 L 91,-22 L 90,-22 L 90,-33 L 84,-33 L 84,-22 L 83,-22
 L 83,-33 L 77,-33 L 77,-22 L 76,-22 L 76,-33 L 70,-33
 L 70,-22 L 69,-22 L 69,-33 L 63,-33 L 63,-22 L 62,-22
 L 62,-33 L 56,-33 L 56,-22 L 55,-22 L 55,-33 L 49,-33
 L 49,-22 L 48,-22 L 48,-33 L 42,-33 L 42,-22 L 41,-22
 L 41,-33 L 35,-33 L 35,-22 L 34,-22 L 34,-33 L 28,-33
 L 28,-22 L 27,-22 L 27,-33 L 21,-33 L 21,-22 L 20,-22
 L 20,-33 L 14,-33 L 14,-22 L 13,-22 L 13,-33 L 7,-33
 L 7,-22 L 6,-22 L 6,-19.8375 L 5,-19.3923 L 2.97043,-17.9177 L 1.2918,-16.0534
 L 0.0374545,-13.8808 L -0.737771,-11.4949 L -1,-9 L -0.737771,-6.50506 L 0.0374545,-4.11916 L 1.2918,-1.94658
 L 2.97043,-0.0822621 L 3.08366,-0 L 275,-0 z
M 9.58158,-7.25994 L 8.00596,-8.34751 L 7.11623,-10.0427 L 7.11623,-11.9573 L 8.00596,-13.6525 L 9.58158,-14.7401
 L 11.4821,-14.9708 L 13.2723,-14.2919 L 14.5418,-12.8589 L 15,-11 L 14.5418,-9.14111 L 13.2723,-7.70806
 L 11.4821,-7.02916 z
M 45.5816,-7.25994 L 44.006,-8.34751 L 43.1162,-10.0427 L 43.1162,-11.9573 L 44.006,-13.6525 L 45.5816,-14.7401
 L 47.4821,-14.9708 L 49.2723,-14.2919 L 50.5418,-12.8589 L 51,-11 L 50.5418,-9.14111 L 49.2723,-7.70806
 L 47.4821,-7.02916 z
M 81.5816,-7.25994 L 80.006,-8.34751 L 79.1162,-10.0427 L 79.1162,-11.9573 L 80.006,-13.6525 L 81.5816,-14.7401
 L 83.4821,-14.9708 L 85.2723,-14.2919 L 86.5418,-12.8589 L 87,-11 L 86.5418,-9.14111 L 85.2723,-7.70806
 L 83.4821,-7.02916 z
M 117.582,-7.25994 L 116.006,-8.34751 L 115.116,-10.0427 L 115.116,-11.9573 L 116.006,-13.6525 L 117.582,-14.7401
 L 119.482,-14.9708 L 121.272,-14.2919 L 122.542,-12.8589 L 123,-11 L 122.542,-9.14111 L 121.272,-7.70806
 L 119.482,-7.02916 z
M 153.582,-7.25994 L 152.006,-8.34751 L 151.116,-10.0427 L 151.116,-11.9573 L 152.006,-13.6525 L 153.582,-14.7401
 L 155.482,-14.9708 L 157.272,-14.2919 L 158.542,-12.8589 L 159,-11 L 158.542,-9.14111 L 157.272,-7.70806
 L 155.482,-7.02916 z
M 189.582,-7.25994 L 188.006,-8.34751 L 187.116,-10.0427 L 187.116,-11.9573 L 188.006,-13.6525 L 189.582,-14.7401
 L 191.482,-14.9708 L 193.272,-14.2919 L 194.542,-12.8589 L 195,-11 L 194.542,-9.14111 L 193.272,-7.70806
 L 191.482,-7.02916 z
M 225.582,-7.25994 L 224.006,-8.34751 L 223.116,-10.0427 L 223.116,-11.9573 L 224.006,-13.6525 L 225.582,-14.7401
 L 227.482,-14.9708 L 229.272,-14.2919 L 230.542,-12.8589 L 231,-11 L 230.542,-9.14111 L 229.272,-7.70806
 L 227.482,-7.02916 z
M 261.582,-7.25994 L 260.006,-8.34751 L 259.116,-10.0427 L 259.116,-11.9573 L 260.006,-13.6525 L 261.582,-14.7401
 L 263.482,-14.9708 L 265.272,-14.2919 L 266.542,-12.8589 L 267,-11 L 266.542,-9.14111 L 265.272,-7.70806
 L 263.482,-7.02916 z
" stroke="black" fill="lightgray" stroke-width="0.5"/>
</svg>
