<?xml version="1.0" standalone="no"?>
<!DOCTYPE svg PUBLIC "-//W3C//DTD SVG 1.1//EN" "http://www.w3.org/Graphics/SVG/1.1/DTD/svg11.dtd">
<svg width="270mm" height="100mm" viewBox="0 -100 270 100" xmlns="http://www.w3.org/2000/svg" version="1.1">
<title>OpenSCAD Model</title>
<path d="
M 170,-100 L 161,-100 L 161,-65 L 160,-65 L 160,-100 L 154,-100
 L 154,-65 L 153,-65 L 153,-100 L 147,-100 L 147,-65 L 146,-65
 L 146,-100 L 140,-100 L 140,-65 L 139,-65 L 139,-100 L 133,-100
 L 133,-65 L 132,-65 L 132,-100 L 126,-100 L 126,-65 L 125,-65
 L 125,-100 L 119,-100 L 119,-65 L 118,-65 L 118,-100 L 112,-100
 L 112,-65 L 111,-65 L 111,-100 L 105,-100 L 105,-65 L 104,-65
 L 104,-100 L 98,-100 L 98,-65 L 97,-65 L 97,-100 L 91,-100
 L 91,-65 L 90,-65 L 90,-100 L 84,-100 L 84,-65 L 83,-65
 L 83,-100 L 77,-100 L 77,-65 L 76,-65 L 76,-100 L 70,-100
 L 70,-65 L 69,-65 L 69,-100 L 63,-100 L 63,-65 L 62,-65
 L 62,-100 L 56,-100 L 56,-65 L 55,-65 L 55,-100 L 49,-100
 L 49,-65 L 48,-65 L 48,-100 L 42,-100 L 42,-65 L 41,-65
 L 41,-100 L 35,-100 L 35,-65 L 34,-65 L 34,-100 L 28,-100
 L 28,-65 L 27,-65 L 27,-100 L 21,-100 L 21,-65 L 20,-65
 L 20,-100 L 14,-100 L 14,-65 L 13,-65 L 13,-100 L 7,-100
 L 7,-65 L 6,-65 L 6,-100 L 0,-100 L 0,-40 L 170,-40
 z
M 150.582,-48.2599 L 149.006,-49.3475 L 148.116,-51.0427 L 148.116,-52.9573 L 149.006,-54.6525 L 150.582,-55.7401
 L 152.482,-55.9708 L 154.272,-55.2919 L 155.542,-53.8589 L 156,-52 L 155.542,-50.1411 L 154.272,-48.7081
 L 152.482,-48.0292 z
M 115.582,-48.2599 L 114.006,-49.3475 L 113.116,-51.0427 L 113.116,-52.9573 L 114.006,-54.6525 L 115.582,-55.7401
 L 117.482,-55.9708 L 119.272,-55.2919 L 120.542,-53.8589 L 121,-52 L 120.542,-50.1411 L 119.272,-48.7081
 L 117.482,-48.0292 z
M 80.5816,-48.2599 L 79.006,-49.3475 L 78.1162,-51.0427 L 78.1162,-52.9573 L 79.006,-54.6525 L 80.5816,-55.7401
 L 82.4821,-55.9708 L 84.2723,-55.2919 L 85.5418,-53.8589 L 86,-52 L 85.5418,-50.1411 L 84.2723,-48.7081
 L 82.4821,-48.0292 z
M 45.5816,-48.2599 L 44.006,-49.3475 L 43.1162,-51.0427 L 43.1162,-52.9573 L 44.006,-54.6525 L 45.5816,-55.7401
 L 47.4821,-55.9708 L 49.2723,-55.2919 L 50.5418,-53.8589 L 51,-52 L 50.5418,-50.1411 L 49.2723,-48.7081
 L 47.4821,-48.0292 z
M 10.5816,-48.2599 L 9.00596,-49.3475 L 8.11623,-51.0427 L 8.11623,-52.9573 L 9.00596,-54.6525 L 10.5816,-55.7401
 L 12.4821,-55.9708 L 14.2723,-55.2919 L 15.5418,-53.8589 L 16,-52 L 15.5418,-50.1411 L 14.2723,-48.7081
 L 12.4821,-48.0292 z
M 270,-33 L 259,-33 L 259,-22 L 258,-22 L 258,-33 L 252,-33
 L 252,-22 L 251,-22 L 251,-33 L 245,-33 L 245,-22 L 244,-22
 L 244,-33 L 238,-33 L 238,-22 L 237,-22 L 237,-33 L 231,-33
 L 231,-22 L 230,-22 L 230,-33 L 224,-33 L 224,-22 L 223,-22
 L 223,-33 L 217,-33 L 217,-22 L 216,-22 L 216,-33 L 210,-33
 L 210,-22 L 209,-22 L 209,-33 L 203,-33 L 203,-22 L 202,-22
 L 202,-33 L 196,-33 L 196,-22 L 195,-22 L 195,-33 L 189,-33
 L 189,-22 L 188,-22 L 188,-33 L 182,-33 L 182,-22 L 181,-22
 L 181,-33 L 175,-33 L 175,-22 L 174,-22 L 174,-33 L 168,-33
 L 168,-22 L 167,-22 L 167,-33 L 161,-33 L 161,-22 L 160,-22
 L 160,-33 L 154,-33 L 154,-22 L 153,-22 L 153,-33 L 147,-33
 L 147,-22 L 146,-22 L 146,-33 L 140,-33 L 140,-22 L 139,-22
 L 139,-33 L 133,-33 L 133,-22 L 132,-22 L 132,-33 L 126,-33
 L 126,-22 L 125,-22 L 125,-33 L 119,-33 L 119,-22 L 118,-22
 L 118,-33 L 112,-33 L 112,-22 L 111,-22 L 111,-33 L 105,-33
 L 105,-22 L 104,-22 L 104,-33 L 98,-33 L 98,-22 L 97,-22
 L 97,-33 L 91,-33 L 91,-22 L 90,-22 L 90,-33 L 84,-33
 L 84,-22 L 83,-22 L 83,-33 L 77,-33 L 77,-22 L 76,-22
 L 76,-33 L 70,-33 L 70,-22 L 69,-22 L 69,-33 L 63,-33
 L 63,-22 L 62,-22 L 62,-33 L 56,-33 L 56,-22 L 55,-22
 L 55,-33 L 49,-33 L 49,-22 L 48,-22 L 48,-33 L 42,-33
 L 42,-22 L 41,-22 L 41,-33 L 35,-33 L 35,-22 L 34,-22
 L 34,-33 L 28,-33 L 28,-22 L 27,-22 L 27,-33 L 21,-33
 L 21,-22 L 20,-22 L 20,-33 L 14,-33 L 14,-22 L 13,-22
 L 13,-33 L 7,-33 L 7,-22 L 6,-22 L 6,-20.3923 L 3.97043,-18.9177
 L 2.2918,-17.0534 L 1.03745,-14.8808 L 0.262229,-12.4949 L 0,-10 L 0.262229,-7.50506 L 1.03745,-5.11916
 L 2.2918,-2.94658 L 3.97043,-1.08226 L 5.46004,-0 L 270,-0 z
M 10.5816,-8.25994 L 9.00596,-9.34751 L 8.11623,-11.0427 L 8.11623,-12.9573 L 9.00596,-14.6525 L 10.5816,-15.7401
 L 12.4821,-15.9708 L 14.2723,-15.2919 L 15.5418,-13.8589 L 16,-12 L 15.5418,-10.1411 L 14.2723,-8.70806
 L 12.4821,-8.02916 z
M 45.5816,-8.25994 L 44.006,-9.34751 L 43.1162,-11.0427 L 43.1162,-12.9573 L 44.006,-14.6525 L 45.5816,-15.7401
 L 47.4821,-15.9708 L 49.2723,-15.2919 L 50.5418,-13.8589 L 51,-12 L 50.5418,-10.1411 L 49.2723,-8.70806
 L 47.4821,-8.02916 z
M 80.5816,-8.25994 L 79.006,-9.34751 L 78.1162,-11.0427 L 78.1162,-12.9573 L 79.006,-14.6525 L 80.5816,-15.7401
 L 82.4821,-15.9708 L 84.2723,-15.2919 L 85.5418,-13.8589 L 86,-12 L 85.5418,-10.1411 L 84.2723,-8.70806
 L 82.4821,-8.02916 z
M 115.582,-8.25994 L 114.006,-9.34751 L 113.116,-11.0427 L 113.116,-12.9573 L 114.006,-14.6525 L 115.582,-15.7401
 L 117.482,-15.9708 L 119.272,-15.2919 L 120.542,-13.8589 L 121,-12 L 120.542,-10.1411 L 119.272,-8.70806
 L 117.482,-8.02916 z
M 150.582,-8.25994 L 149.006,-9.34751 L 148.116,-11.0427 L 148.116,-12.9573 L 149.006,-14.6525 L 150.582,-15.7401
 L 152.482,-15.9708 L 154.272,-15.2919 L 155.542,-13.8589 L 156,-12 L 155.542,-10.1411 L 154.272,-8.70806
 L 152.482,-8.02916 z
M 185.582,-8.25994 L 184.006,-9.34751 L 183.116,-11.0427 L 183.116,-12.9573 L 184.006,-14.6525 L 185.582,-15.7401
 L 187.482,-15.9708 L 189.272,-15.2919 L 190.542,-13.8589 L 191,-12 L 190.542,-10.1411 L 189.272,-8.70806
 L 187.482,-8.02916 z
M 220.582,-8.25994 L 219.006,-9.34751 L 218.116,-11.0427 L 218.116,-12.9573 L 219.006,-14.6525 L 220.582,-15.7401
 L 222.482,-15.9708 L 224.272,-15.2919 L 225.542,-13.8589 L 226,-12 L 225.542,-10.1411 L 224.272,-8.70806
 L 222.482,-8.02916 z
M 255.582,-8.25994 L 254.006,-9.34751 L 253.116,-11.0427 L 253.116,-12.9573 L 254.006,-14.6525 L 255.582,-15.7401
 L 257.482,-15.9708 L 259.272,-15.2919 L 260.542,-13.8589 L 261,-12 L 260.542,-10.1411 L 259.272,-8.70806
 L 257.482,-8.02916 z
" stroke="black" fill="lightgray" stroke-width="0.5"/>
</svg>
