<?xml version="1.0" standalone="no"?>
<!DOCTYPE svg PUBLIC "-//W3C//DTD SVG 1.1//EN" "http://www.w3.org/Graphics/SVG/1.1/DTD/svg11.dtd">
<svg width="188mm" height="116mm" viewBox="0 -116 188 116" xmlns="http://www.w3.org/2000/svg" version="1.1">
<title>OpenSCAD Model</title>
<path d="
M 13.0902,-96.4894 L 15,-97.3397 L 16.6913,-98.5686 L 18.0902,-100.122 L 19.1355,-101.933 L 19.7815,-103.921
 L 20,-106 L 19.7815,-108.079 L 19.1355,-110.067 L 18.0902,-111.878 L 16.6913,-113.431 L 15,-114.66
 L 13.0902,-115.511 L 11.0453,-115.945 L 8.95472,-115.945 L 6.90983,-115.511 L 5,-114.66 L 3.30869,-113.431
 L 1.90983,-111.878 L 0.864545,-110.067 L 0.218524,-108.079 L 0,-106 L 0.218524,-103.921 L 0.864545,-101.933
 L 1.90983,-100.122 L 3.30869,-98.5686 L 5,-97.3397 L 6.90983,-96.4894 L 8.95472,-96.0548 L 11.0453,-96.0548
 z
M 181.09,-96.4894 L 183,-97.3397 L 184.691,-98.5686 L 186.09,-100.122 L 187.135,-101.933 L 187.781,-103.921
 L 188,-106 L 187.781,-108.079 L 187.135,-110.067 L 186.09,-111.878 L 184.691,-113.431 L 183,-114.66
 L 181.09,-115.511 L 179.045,-115.945 L 176.955,-115.945 L 174.91,-115.511 L 173,-114.66 L 171.309,-113.431
 L 169.91,-111.878 L 168.865,-110.067 L 168.219,-108.079 L 168,-106 L 168.219,-103.921 L 168.865,-101.933
 L 169.91,-100.122 L 171.309,-98.5686 L 173,-97.3397 L 174.91,-96.4894 L 176.955,-96.0548 L 179.045,-96.0548
 z
M 157.09,-96.4894 L 159,-97.3397 L 160.691,-98.5686 L 162.09,-100.122 L 163.135,-101.933 L 163.781,-103.921
 L 164,-106 L 163.781,-108.079 L 163.135,-110.067 L 162.09,-111.878 L 160.691,-113.431 L 159,-114.66
 L 157.09,-115.511 L 155.045,-115.945 L 152.955,-115.945 L 150.91,-115.511 L 149,-114.66 L 147.309,-113.431
 L 145.91,-111.878 L 144.865,-110.067 L 144.219,-108.079 L 144,-106 L 144.219,-103.921 L 144.865,-101.933
 L 145.91,-100.122 L 147.309,-98.5686 L 149,-97.3397 L 150.91,-96.4894 L 152.955,-96.0548 L 155.045,-96.0548
 z
M 133.09,-96.4894 L 135,-97.3397 L 136.691,-98.5686 L 138.09,-100.122 L 139.135,-101.933 L 139.781,-103.921
 L 140,-106 L 139.781,-108.079 L 139.135,-110.067 L 138.09,-111.878 L 136.691,-113.431 L 135,-114.66
 L 133.09,-115.511 L 131.045,-115.945 L 128.955,-115.945 L 126.91,-115.511 L 125,-114.66 L 123.309,-113.431
 L 121.91,-111.878 L 120.865,-110.067 L 120.219,-108.079 L 120,-106 L 120.219,-103.921 L 120.865,-101.933
 L 121.91,-100.122 L 123.309,-98.5686 L 125,-97.3397 L 126.91,-96.4894 L 128.955,-96.0548 L 131.045,-96.0548
 z
M 109.09,-96.4894 L 111,-97.3397 L 112.691,-98.5686 L 114.09,-100.122 L 115.135,-101.933 L 115.781,-103.921
 L 116,-106 L 115.781,-108.079 L 115.135,-110.067 L 114.09,-111.878 L 112.691,-113.431 L 111,-114.66
 L 109.09,-115.511 L 107.045,-115.945 L 104.955,-115.945 L 102.91,-115.511 L 101,-114.66 L 99.3087,-113.431
 L 97.9098,-111.878 L 96.8645,-110.067 L 96.2185,-108.079 L 96,-106 L 96.2185,-103.921 L 96.8645,-101.933
 L 97.9098,-100.122 L 99.3087,-98.5686 L 101,-97.3397 L 102.91,-96.4894 L 104.955,-96.0548 L 107.045,-96.0548
 z
M 37.0902,-96.4894 L 39,-97.3397 L 40.6913,-98.5686 L 42.0902,-100.122 L 43.1355,-101.933 L 43.7815,-103.921
 L 44,-106 L 43.7815,-108.079 L 43.1355,-110.067 L 42.0902,-111.878 L 40.6913,-113.431 L 39,-114.66
 L 37.0902,-115.511 L 35.0453,-115.945 L 32.9547,-115.945 L 30.9098,-115.511 L 29,-114.66 L 27.3087,-113.431
 L 25.9098,-111.878 L 24.8645,-110.067 L 24.2185,-108.079 L 24,-106 L 24.2185,-103.921 L 24.8645,-101.933
 L 25.9098,-100.122 L 27.3087,-98.5686 L 29,-97.3397 L 30.9098,-96.4894 L 32.9547,-96.0548 L 35.0453,-96.0548
 z
M 85.0902,-96.4894 L 87,-97.3397 L 88.6913,-98.5686 L 90.0902,-100.122 L 91.1355,-101.933 L 91.7815,-103.921
 L 92,-106 L 91.7815,-108.079 L 91.1355,-110.067 L 90.0902,-111.878 L 88.6913,-113.431 L 87,-114.66
 L 85.0902,-115.511 L 83.0453,-115.945 L 80.9547,-115.945 L 78.9098,-115.511 L 77,-114.66 L 75.3087,-113.431
 L 73.9098,-111.878 L 72.8645,-110.067 L 72.2185,-108.079 L 72,-106 L 72.2185,-103.921 L 72.8645,-101.933
 L 73.9098,-100.122 L 75.3087,-98.5686 L 77,-97.3397 L 78.9098,-96.4894 L 80.9547,-96.0548 L 83.0453,-96.0548
 z
M 61.0902,-96.4894 L 63,-97.3397 L 64.6913,-98.5686 L 66.0902,-100.122 L 67.1355,-101.933 L 67.7815,-103.921
 L 68,-106 L 67.7815,-108.079 L 67.1355,-110.067 L 66.0902,-111.878 L 64.6913,-113.431 L 63,-114.66
 L 61.0902,-115.511 L 59.0453,-115.945 L 56.9547,-115.945 L 54.9098,-115.511 L 53,-114.66 L 51.3087,-113.431
 L 49.9098,-111.878 L 48.8645,-110.067 L 48.2185,-108.079 L 48,-106 L 48.2185,-103.921 L 48.8645,-101.933
 L 49.9098,-100.122 L 51.3087,-98.5686 L 53,-97.3397 L 54.9098,-96.4894 L 56.9547,-96.0548 L 59.0453,-96.0548
 z
M 61.0902,-72.4894 L 63,-73.3397 L 64.6913,-74.5686 L 66.0902,-76.1221 L 67.1355,-77.9326 L 67.7815,-79.9209
 L 68,-82 L 67.7815,-84.0791 L 67.1355,-86.0674 L 66.0902,-87.8779 L 64.6913,-89.4314 L 63,-90.6603
 L 61.0902,-91.5106 L 59.0453,-91.9452 L 56.9547,-91.9452 L 54.9098,-91.5106 L 53,-90.6603 L 51.3087,-89.4314
 L 49.9098,-87.8779 L 48.8645,-86.0674 L 48.2185,-84.0791 L 48,-82 L 48.2185,-79.9209 L 48.8645,-77.9326
 L 49.9098,-76.1221 L 51.3087,-74.5686 L 53,-73.3397 L 54.9098,-72.4894 L 56.9547,-72.0548 L 59.0453,-72.0548
 z
M 37.0902,-72.4894 L 39,-73.3397 L 40.6913,-74.5686 L 42.0902,-76.1221 L 43.1355,-77.9326 L 43.7815,-79.9209
 L 44,-82 L 43.7815,-84.0791 L 43.1355,-86.0674 L 42.0902,-87.8779 L 40.6913,-89.4314 L 39,-90.6603
 L 37.0902,-91.5106 L 35.0453,-91.9452 L 32.9547,-91.9452 L 30.9098,-91.5106 L 29,-90.6603 L 27.3087,-89.4314
 L 25.9098,-87.8779 L 24.8645,-86.0674 L 24.2185,-84.0791 L 24,-82 L 24.2185,-79.9209 L 24.8645,-77.9326
 L 25.9098,-76.1221 L 27.3087,-74.5686 L 29,-73.3397 L 30.9098,-72.4894 L 32.9547,-72.0548 L 35.0453,-72.0548
 z
M 85.0902,-72.4894 L 87,-73.3397 L 88.6913,-74.5686 L 90.0902,-76.1221 L 91.1355,-77.9326 L 91.7815,-79.9209
 L 92,-82 L 91.7815,-84.0791 L 91.1355,-86.0674 L 90.0902,-87.8779 L 88.6913,-89.4314 L 87,-90.6603
 L 85.0902,-91.5106 L 83.0453,-91.9452 L 80.9547,-91.9452 L 78.9098,-91.5106 L 77,-90.6603 L 75.3087,-89.4314
 L 73.9098,-87.8779 L 72.8645,-86.0674 L 72.2185,-84.0791 L 72,-82 L 72.2185,-79.9209 L 72.8645,-77.9326
 L 73.9098,-76.1221 L 75.3087,-74.5686 L 77,-73.3397 L 78.9098,-72.4894 L 80.9547,-72.0548 L 83.0453,-72.0548
 z
M 181.09,-72.4894 L 183,-73.3397 L 184.691,-74.5686 L 186.09,-76.1221 L 187.135,-77.9326 L 187.781,-79.9209
 L 188,-82 L 187.781,-84.0791 L 187.135,-86.0674 L 186.09,-87.8779 L 184.691,-89.4314 L 183,-90.6603
 L 181.09,-91.5106 L 179.045,-91.9452 L 176.955,-91.9452 L 174.91,-91.5106 L 173,-90.6603 L 171.309,-89.4314
 L 169.91,-87.8779 L 168.865,-86.0674 L 168.219,-84.0791 L 168,-82 L 168.219,-79.9209 L 168.865,-77.9326
 L 169.91,-76.1221 L 171.309,-74.5686 L 173,-73.3397 L 174.91,-72.4894 L 176.955,-72.0548 L 179.045,-72.0548
 z
M 13.0902,-72.4894 L 15,-73.3397 L 16.6913,-74.5686 L 18.0902,-76.1221 L 19.1355,-77.9326 L 19.7815,-79.9209
 L 20,-82 L 19.7815,-84.0791 L 19.1355,-86.0674 L 18.0902,-87.8779 L 16.6913,-89.4314 L 15,-90.6603
 L 13.0902,-91.5106 L 11.0453,-91.9452 L 8.95472,-91.9452 L 6.90983,-91.5106 L 5,-90.6603 L 3.30869,-89.4314
 L 1.90983,-87.8779 L 0.864545,-86.0674 L 0.218524,-84.0791 L 0,-82 L 0.218524,-79.9209 L 0.864545,-77.9326
 L 1.90983,-76.1221 L 3.30869,-74.5686 L 5,-73.3397 L 6.90983,-72.4894 L 8.95472,-72.0548 L 11.0453,-72.0548
 z
M 109.09,-72.4894 L 111,-73.3397 L 112.691,-74.5686 L 114.09,-76.1221 L 115.135,-77.9326 L 115.781,-79.9209
 L 116,-82 L 115.781,-84.0791 L 115.135,-86.0674 L 114.09,-87.8779 L 112.691,-89.4314 L 111,-90.6603
 L 109.09,-91.5106 L 107.045,-91.9452 L 104.955,-91.9452 L 102.91,-91.5106 L 101,-90.6603 L 99.3087,-89.4314
 L 97.9098,-87.8779 L 96.8645,-86.0674 L 96.2185,-84.0791 L 96,-82 L 96.2185,-79.9209 L 96.8645,-77.9326
 L 97.9098,-76.1221 L 99.3087,-74.5686 L 101,-73.3397 L 102.91,-72.4894 L 104.955,-72.0548 L 107.045,-72.0548
 z
M 133.09,-72.4894 L 135,-73.3397 L 136.691,-74.5686 L 138.09,-76.1221 L 139.135,-77.9326 L 139.781,-79.9209
 L 140,-82 L 139.781,-84.0791 L 139.135,-86.0674 L 138.09,-87.8779 L 136.691,-89.4314 L 135,-90.6603
 L 133.09,-91.5106 L 131.045,-91.9452 L 128.955,-91.9452 L 126.91,-91.5106 L 125,-90.6603 L 123.309,-89.4314
 L 121.91,-87.8779 L 120.865,-86.0674 L 120.219,-84.0791 L 120,-82 L 120.219,-79.9209 L 120.865,-77.9326
 L 121.91,-76.1221 L 123.309,-74.5686 L 125,-73.3397 L 126.91,-72.4894 L 128.955,-72.0548 L 131.045,-72.0548
 z
M 157.09,-72.4894 L 159,-73.3397 L 160.691,-74.5686 L 162.09,-76.1221 L 163.135,-77.9326 L 163.781,-79.9209
 L 164,-82 L 163.781,-84.0791 L 163.135,-86.0674 L 162.09,-87.8779 L 160.691,-89.4314 L 159,-90.6603
 L 157.09,-91.5106 L 155.045,-91.9452 L 152.955,-91.9452 L 150.91,-91.5106 L 149,-90.6603 L 147.309,-89.4314
 L 145.91,-87.8779 L 144.865,-86.0674 L 144.219,-84.0791 L 144,-82 L 144.219,-79.9209 L 144.865,-77.9326
 L 145.91,-76.1221 L 147.309,-74.5686 L 149,-73.3397 L 150.91,-72.4894 L 152.955,-72.0548 L 155.045,-72.0548
 z
M 37.0902,-48.4894 L 39,-49.3397 L 40.6913,-50.5686 L 42.0902,-52.1221 L 43.1355,-53.9326 L 43.7815,-55.9209
 L 44,-58 L 43.7815,-60.0791 L 43.1355,-62.0674 L 42.0902,-63.8779 L 40.6913,-65.4314 L 39,-66.6603
 L 37.0902,-67.5106 L 35.0453,-67.9452 L 32.9547,-67.9452 L 30.9098,-67.5106 L 29,-66.6603 L 27.3087,-65.4314
 L 25.9098,-63.8779 L 24.8645,-62.0674 L 24.2185,-60.0791 L 24,-58 L 24.2185,-55.9209 L 24.8645,-53.9326
 L 25.9098,-52.1221 L 27.3087,-50.5686 L 29,-49.3397 L 30.9098,-48.4894 L 32.9547,-48.0548 L 35.0453,-48.0548
 z
M 61.0902,-48.4894 L 63,-49.3397 L 64.6913,-50.5686 L 66.0902,-52.1221 L 67.1355,-53.9326 L 67.7815,-55.9209
 L 68,-58 L 67.7815,-60.0791 L 67.1355,-62.0674 L 66.0902,-63.8779 L 64.6913,-65.4314 L 63,-66.6603
 L 61.0902,-67.5106 L 59.0453,-67.9452 L 56.9547,-67.9452 L 54.9098,-67.5106 L 53,-66.6603 L 51.3087,-65.4314
 L 49.9098,-63.8779 L 48.8645,-62.0674 L 48.2185,-60.0791 L 48,-58 L 48.2185,-55.9209 L 48.8645,-53.9326
 L 49.9098,-52.1221 L 51.3087,-50.5686 L 53,-49.3397 L 54.9098,-48.4894 L 56.9547,-48.0548 L 59.0453,-48.0548
 z
M 181.09,-48.4894 L 183,-49.3397 L 184.691,-50.5686 L 186.09,-52.1221 L 187.135,-53.9326 L 187.781,-55.9209
 L 188,-58 L 187.781,-60.0791 L 187.135,-62.0674 L 186.09,-63.8779 L 184.691,-65.4314 L 183,-66.6603
 L 181.09,-67.5106 L 179.045,-67.9452 L 176.955,-67.9452 L 174.91,-67.5106 L 173,-66.6603 L 171.309,-65.4314
 L 169.91,-63.8779 L 168.865,-62.0674 L 168.219,-60.0791 L 168,-58 L 168.219,-55.9209 L 168.865,-53.9326
 L 169.91,-52.1221 L 171.309,-50.5686 L 173,-49.3397 L 174.91,-48.4894 L 176.955,-48.0548 L 179.045,-48.0548
 z
M 85.0902,-48.4894 L 87,-49.3397 L 88.6913,-50.5686 L 90.0902,-52.1221 L 91.1355,-53.9326 L 91.7815,-55.9209
 L 92,-58 L 91.7815,-60.0791 L 91.1355,-62.0674 L 90.0902,-63.8779 L 88.6913,-65.4314 L 87,-66.6603
 L 85.0902,-67.5106 L 83.0453,-67.9452 L 80.9547,-67.9452 L 78.9098,-67.5106 L 77,-66.6603 L 75.3087,-65.4314
 L 73.9098,-63.8779 L 72.8645,-62.0674 L 72.2185,-60.0791 L 72,-58 L 72.2185,-55.9209 L 72.8645,-53.9326
 L 73.9098,-52.1221 L 75.3087,-50.5686 L 77,-49.3397 L 78.9098,-48.4894 L 80.9547,-48.0548 L 83.0453,-48.0548
 z
M 109.09,-48.4894 L 111,-49.3397 L 112.691,-50.5686 L 114.09,-52.1221 L 115.135,-53.9326 L 115.781,-55.9209
 L 116,-58 L 115.781,-60.0791 L 115.135,-62.0674 L 114.09,-63.8779 L 112.691,-65.4314 L 111,-66.6603
 L 109.09,-67.5106 L 107.045,-67.9452 L 104.955,-67.9452 L 102.91,-67.5106 L 101,-66.6603 L 99.3087,-65.4314
 L 97.9098,-63.8779 L 96.8645,-62.0674 L 96.2185,-60.0791 L 96,-58 L 96.2185,-55.9209 L 96.8645,-53.9326
 L 97.9098,-52.1221 L 99.3087,-50.5686 L 101,-49.3397 L 102.91,-48.4894 L 104.955,-48.0548 L 107.045,-48.0548
 z
M 133.09,-48.4894 L 135,-49.3397 L 136.691,-50.5686 L 138.09,-52.1221 L 139.135,-53.9326 L 139.781,-55.9209
 L 140,-58 L 139.781,-60.0791 L 139.135,-62.0674 L 138.09,-63.8779 L 136.691,-65.4314 L 135,-66.6603
 L 133.09,-67.5106 L 131.045,-67.9452 L 128.955,-67.9452 L 126.91,-67.5106 L 125,-66.6603 L 123.309,-65.4314
 L 121.91,-63.8779 L 120.865,-62.0674 L 120.219,-60.0791 L 120,-58 L 120.219,-55.9209 L 120.865,-53.9326
 L 121.91,-52.1221 L 123.309,-50.5686 L 125,-49.3397 L 126.91,-48.4894 L 128.955,-48.0548 L 131.045,-48.0548
 z
M 157.09,-48.4894 L 159,-49.3397 L 160.691,-50.5686 L 162.09,-52.1221 L 163.135,-53.9326 L 163.781,-55.9209
 L 164,-58 L 163.781,-60.0791 L 163.135,-62.0674 L 162.09,-63.8779 L 160.691,-65.4314 L 159,-66.6603
 L 157.09,-67.5106 L 155.045,-67.9452 L 152.955,-67.9452 L 150.91,-67.5106 L 149,-66.6603 L 147.309,-65.4314
 L 145.91,-63.8779 L 144.865,-62.0674 L 144.219,-60.0791 L 144,-58 L 144.219,-55.9209 L 144.865,-53.9326
 L 145.91,-52.1221 L 147.309,-50.5686 L 149,-49.3397 L 150.91,-48.4894 L 152.955,-48.0548 L 155.045,-48.0548
 z
M 13.0902,-48.4894 L 15,-49.3397 L 16.6913,-50.5686 L 18.0902,-52.1221 L 19.1355,-53.9326 L 19.7815,-55.9209
 L 20,-58 L 19.7815,-60.0791 L 19.1355,-62.0674 L 18.0902,-63.8779 L 16.6913,-65.4314 L 15,-66.6603
 L 13.0902,-67.5106 L 11.0453,-67.9452 L 8.95472,-67.9452 L 6.90983,-67.5106 L 5,-66.6603 L 3.30869,-65.4314
 L 1.90983,-63.8779 L 0.864545,-62.0674 L 0.218524,-60.0791 L 0,-58 L 0.218524,-55.9209 L 0.864545,-53.9326
 L 1.90983,-52.1221 L 3.30869,-50.5686 L 5,-49.3397 L 6.90983,-48.4894 L 8.95472,-48.0548 L 11.0453,-48.0548
 z
M 37.0902,-24.4894 L 39,-25.3397 L 40.6913,-26.5686 L 42.0902,-28.1221 L 43.1355,-29.9326 L 43.7815,-31.9209
 L 44,-34 L 43.7815,-36.0791 L 43.1355,-38.0674 L 42.0902,-39.8779 L 40.6913,-41.4314 L 39,-42.6603
 L 37.0902,-43.5106 L 35.0453,-43.9452 L 32.9547,-43.9452 L 30.9098,-43.5106 L 29,-42.6603 L 27.3087,-41.4314
 L 25.9098,-39.8779 L 24.8645,-38.0674 L 24.2185,-36.0791 L 24,-34 L 24.2185,-31.9209 L 24.8645,-29.9326
 L 25.9098,-28.1221 L 27.3087,-26.5686 L 29,-25.3397 L 30.9098,-24.4894 L 32.9547,-24.0548 L 35.0453,-24.0548
 z
M 181.09,-24.4894 L 183,-25.3397 L 184.691,-26.5686 L 186.09,-28.1221 L 187.135,-29.9326 L 187.781,-31.9209
 L 188,-34 L 187.781,-36.0791 L 187.135,-38.0674 L 186.09,-39.8779 L 184.691,-41.4314 L 183,-42.6603
 L 181.09,-43.5106 L 179.045,-43.9452 L 176.955,-43.9452 L 174.91,-43.5106 L 173,-42.6603 L 171.309,-41.4314
 L 169.91,-39.8779 L 168.865,-38.0674 L 168.219,-36.0791 L 168,-34 L 168.219,-31.9209 L 168.865,-29.9326
 L 169.91,-28.1221 L 171.309,-26.5686 L 173,-25.3397 L 174.91,-24.4894 L 176.955,-24.0548 L 179.045,-24.0548
 z
M 61.0902,-24.4894 L 63,-25.3397 L 64.6913,-26.5686 L 66.0902,-28.1221 L 67.1355,-29.9326 L 67.7815,-31.9209
 L 68,-34 L 67.7815,-36.0791 L 67.1355,-38.0674 L 66.0902,-39.8779 L 64.6913,-41.4314 L 63,-42.6603
 L 61.0902,-43.5106 L 59.0453,-43.9452 L 56.9547,-43.9452 L 54.9098,-43.5106 L 53,-42.6603 L 51.3087,-41.4314
 L 49.9098,-39.8779 L 48.8645,-38.0674 L 48.2185,-36.0791 L 48,-34 L 48.2185,-31.9209 L 48.8645,-29.9326
 L 49.9098,-28.1221 L 51.3087,-26.5686 L 53,-25.3397 L 54.9098,-24.4894 L 56.9547,-24.0548 L 59.0453,-24.0548
 z
M 85.0902,-24.4894 L 87,-25.3397 L 88.6913,-26.5686 L 90.0902,-28.1221 L 91.1355,-29.9326 L 91.7815,-31.9209
 L 92,-34 L 91.7815,-36.0791 L 91.1355,-38.0674 L 90.0902,-39.8779 L 88.6913,-41.4314 L 87,-42.6603
 L 85.0902,-43.5106 L 83.0453,-43.9452 L 80.9547,-43.9452 L 78.9098,-43.5106 L 77,-42.6603 L 75.3087,-41.4314
 L 73.9098,-39.8779 L 72.8645,-38.0674 L 72.2185,-36.0791 L 72,-34 L 72.2185,-31.9209 L 72.8645,-29.9326
 L 73.9098,-28.1221 L 75.3087,-26.5686 L 77,-25.3397 L 78.9098,-24.4894 L 80.9547,-24.0548 L 83.0453,-24.0548
 z
M 109.09,-24.4894 L 111,-25.3397 L 112.691,-26.5686 L 114.09,-28.1221 L 115.135,-29.9326 L 115.781,-31.9209
 L 116,-34 L 115.781,-36.0791 L 115.135,-38.0674 L 114.09,-39.8779 L 112.691,-41.4314 L 111,-42.6603
 L 109.09,-43.5106 L 107.045,-43.9452 L 104.955,-43.9452 L 102.91,-43.5106 L 101,-42.6603 L 99.3087,-41.4314
 L 97.9098,-39.8779 L 96.8645,-38.0674 L 96.2185,-36.0791 L 96,-34 L 96.2185,-31.9209 L 96.8645,-29.9326
 L 97.9098,-28.1221 L 99.3087,-26.5686 L 101,-25.3397 L 102.91,-24.4894 L 104.955,-24.0548 L 107.045,-24.0548
 z
M 157.09,-24.4894 L 159,-25.3397 L 160.691,-26.5686 L 162.09,-28.1221 L 163.135,-29.9326 L 163.781,-31.9209
 L 164,-34 L 163.781,-36.0791 L 163.135,-38.0674 L 162.09,-39.8779 L 160.691,-41.4314 L 159,-42.6603
 L 157.09,-43.5106 L 155.045,-43.9452 L 152.955,-43.9452 L 150.91,-43.5106 L 149,-42.6603 L 147.309,-41.4314
 L 145.91,-39.8779 L 144.865,-38.0674 L 144.219,-36.0791 L 144,-34 L 144.219,-31.9209 L 144.865,-29.9326
 L 145.91,-28.1221 L 147.309,-26.5686 L 149,-25.3397 L 150.91,-24.4894 L 152.955,-24.0548 L 155.045,-24.0548
 z
M 13.0902,-24.4894 L 15,-25.3397 L 16.6913,-26.5686 L 18.0902,-28.1221 L 19.1355,-29.9326 L 19.7815,-31.9209
 L 20,-34 L 19.7815,-36.0791 L 19.1355,-38.0674 L 18.0902,-39.8779 L 16.6913,-41.4314 L 15,-42.6603
 L 13.0902,-43.5106 L 11.0453,-43.9452 L 8.95472,-43.9452 L 6.90983,-43.5106 L 5,-42.6603 L 3.30869,-41.4314
 L 1.90983,-39.8779 L 0.864545,-38.0674 L 0.218524,-36.0791 L 0,-34 L 0.218524,-31.9209 L 0.864545,-29.9326
 L 1.90983,-28.1221 L 3.30869,-26.5686 L 5,-25.3397 L 6.90983,-24.4894 L 8.95472,-24.0548 L 11.0453,-24.0548
 z
M 133.09,-24.4894 L 135,-25.3397 L 136.691,-26.5686 L 138.09,-28.1221 L 139.135,-29.9326 L 139.781,-31.9209
 L 140,-34 L 139.781,-36.0791 L 139.135,-38.0674 L 138.09,-39.8779 L 136.691,-41.4314 L 135,-42.6603
 L 133.09,-43.5106 L 131.045,-43.9452 L 128.955,-43.9452 L 126.91,-43.5106 L 125,-42.6603 L 123.309,-41.4314
 L 121.91,-39.8779 L 120.865,-38.0674 L 120.219,-36.0791 L 120,-34 L 120.219,-31.9209 L 120.865,-29.9326
 L 121.91,-28.1221 L 123.309,-26.5686 L 125,-25.3397 L 126.91,-24.4894 L 128.955,-24.0548 L 131.045,-24.0548
 z
M 133.09,-0.489435 L 135,-1.33975 L 136.691,-2.56855 L 138.09,-4.12215 L 139.135,-5.93263 L 139.781,-7.92088
 L 140,-10 L 139.781,-12.0791 L 139.135,-14.0674 L 138.09,-15.8779 L 136.691,-17.4314 L 135,-18.6603
 L 133.09,-19.5106 L 131.045,-19.9452 L 128.955,-19.9452 L 126.91,-19.5106 L 125,-18.6603 L 123.309,-17.4314
 L 121.91,-15.8779 L 120.865,-14.0674 L 120.219,-12.0791 L 120,-10 L 120.219,-7.92088 L 120.865,-5.93263
 L 121.91,-4.12215 L 123.309,-2.56855 L 125,-1.33975 L 126.91,-0.489435 L 128.955,-0.054781 L 131.045,-0.054781
 z
M 109.09,-0.489435 L 111,-1.33975 L 112.691,-2.56855 L 114.09,-4.12215 L 115.135,-5.93263 L 115.781,-7.92088
 L 116,-10 L 115.781,-12.0791 L 115.135,-14.0674 L 114.09,-15.8779 L 112.691,-17.4314 L 111,-18.6603
 L 109.09,-19.5106 L 107.045,-19.9452 L 104.955,-19.9452 L 102.91,-19.5106 L 101,-18.6603 L 99.3087,-17.4314
 L 97.9098,-15.8779 L 96.8645,-14.0674 L 96.2185,-12.0791 L 96,-10 L 96.2185,-7.92088 L 96.8645,-5.93263
 L 97.9098,-4.12215 L 99.3087,-2.56855 L 101,-1.33975 L 102.91,-0.489435 L 104.955,-0.054781 L 107.045,-0.054781
 z
M 157.09,-0.489435 L 159,-1.33975 L 160.691,-2.56855 L 162.09,-4.12215 L 163.135,-5.93263 L 163.781,-7.92088
 L 164,-10 L 163.781,-12.0791 L 163.135,-14.0674 L 162.09,-15.8779 L 160.691,-17.4314 L 159,-18.6603
 L 157.09,-19.5106 L 155.045,-19.9452 L 152.955,-19.9452 L 150.91,-19.5106 L 149,-18.6603 L 147.309,-17.4314
 L 145.91,-15.8779 L 144.865,-14.0674 L 144.219,-12.0791 L 144,-10 L 144.219,-7.92088 L 144.865,-5.93263
 L 145.91,-4.12215 L 147.309,-2.56855 L 149,-1.33975 L 150.91,-0.489435 L 152.955,-0.054781 L 155.045,-0.054781
 z
M 13.0902,-0.489435 L 15,-1.33975 L 16.6913,-2.56855 L 18.0902,-4.12215 L 19.1355,-5.93263 L 19.7815,-7.92088
 L 20,-10 L 19.7815,-12.0791 L 19.1355,-14.0674 L 18.0902,-15.8779 L 16.6913,-17.4314 L 15,-18.6603
 L 13.0902,-19.5106 L 11.0453,-19.9452 L 8.95472,-19.9452 L 6.90983,-19.5106 L 5,-18.6603 L 3.30869,-17.4314
 L 1.90983,-15.8779 L 0.864545,-14.0674 L 0.218524,-12.0791 L 0,-10 L 0.218524,-7.92088 L 0.864545,-5.93263
 L 1.90983,-4.12215 L 3.30869,-2.56855 L 5,-1.33975 L 6.90983,-0.489435 L 8.95472,-0.054781 L 11.0453,-0.054781
 z
M 85.0902,-0.489435 L 87,-1.33975 L 88.6913,-2.56855 L 90.0902,-4.12215 L 91.1355,-5.93263 L 91.7815,-7.92088
 L 92,-10 L 91.7815,-12.0791 L 91.1355,-14.0674 L 90.0902,-15.8779 L 88.6913,-17.4314 L 87,-18.6603
 L 85.0902,-19.5106 L 83.0453,-19.9452 L 80.9547,-19.9452 L 78.9098,-19.5106 L 77,-18.6603 L 75.3087,-17.4314
 L 73.9098,-15.8779 L 72.8645,-14.0674 L 72.2185,-12.0791 L 72,-10 L 72.2185,-7.92088 L 72.8645,-5.93263
 L 73.9098,-4.12215 L 75.3087,-2.56855 L 77,-1.33975 L 78.9098,-0.489435 L 80.9547,-0.054781 L 83.0453,-0.054781
 z
M 61.0902,-0.489435 L 63,-1.33975 L 64.6913,-2.56855 L 66.0902,-4.12215 L 67.1355,-5.93263 L 67.7815,-7.92088
 L 68,-10 L 67.7815,-12.0791 L 67.1355,-14.0674 L 66.0902,-15.8779 L 64.6913,-17.4314 L 63,-18.6603
 L 61.0902,-19.5106 L 59.0453,-19.9452 L 56.9547,-19.9452 L 54.9098,-19.5106 L 53,-18.6603 L 51.3087,-17.4314
 L 49.9098,-15.8779 L 48.8645,-14.0674 L 48.2185,-12.0791 L 48,-10 L 48.2185,-7.92088 L 48.8645,-5.93263
 L 49.9098,-4.12215 L 51.3087,-2.56855 L 53,-1.33975 L 54.9098,-0.489435 L 56.9547,-0.054781 L 59.0453,-0.054781
 z
M 37.0902,-0.489435 L 39,-1.33975 L 40.6913,-2.56855 L 42.0902,-4.12215 L 43.1355,-5.93263 L 43.7815,-7.92088
 L 44,-10 L 43.7815,-12.0791 L 43.1355,-14.0674 L 42.0902,-15.8779 L 40.6913,-17.4314 L 39,-18.6603
 L 37.0902,-19.5106 L 35.0453,-19.9452 L 32.9547,-19.9452 L 30.9098,-19.5106 L 29,-18.6603 L 27.3087,-17.4314
 L 25.9098,-15.8779 L 24.8645,-14.0674 L 24.2185,-12.0791 L 24,-10 L 24.2185,-7.92088 L 24.8645,-5.93263
 L 25.9098,-4.12215 L 27.3087,-2.56855 L 29,-1.33975 L 30.9098,-0.489435 L 32.9547,-0.054781 L 35.0453,-0.054781
 z
M 181.09,-0.489435 L 183,-1.33975 L 184.691,-2.56855 L 186.09,-4.12215 L 187.135,-5.93263 L 187.781,-7.92088
 L 188,-10 L 187.781,-12.0791 L 187.135,-14.0674 L 186.09,-15.8779 L 184.691,-17.4314 L 183,-18.6603
 L 181.09,-19.5106 L 179.045,-19.9452 L 176.955,-19.9452 L 174.91,-19.5106 L 173,-18.6603 L 171.309,-17.4314
 L 169.91,-15.8779 L 168.865,-14.0674 L 168.219,-12.0791 L 168,-10 L 168.219,-7.92088 L 168.865,-5.93263
 L 169.91,-4.12215 L 171.309,-2.56855 L 173,-1.33975 L 174.91,-0.489435 L 176.955,-0.054781 L 179.045,-0.054781
 z
" stroke="black" fill="lightgray" stroke-width="0.5"/>
</svg>
