<?xml version="1.0" encoding="UTF-8" standalone="no"?>
<svg
   xmlns:dc="http://purl.org/dc/elements/1.1/"
   xmlns:cc="http://creativecommons.org/ns#"
   xmlns:rdf="http://www.w3.org/1999/02/22-rdf-syntax-ns#"
   xmlns:svg="http://www.w3.org/2000/svg"
   xmlns="http://www.w3.org/2000/svg"
   xmlns:sodipodi="http://sodipodi.sourceforge.net/DTD/sodipodi-0.dtd"
   xmlns:inkscape="http://www.inkscape.org/namespaces/inkscape"
   width="210mm"
   height="297mm"
   viewBox="0 0 210 297"
   version="1.1"
   id="svg1484"
   inkscape:version="1.0.1 (c497b03c, 2020-09-10)"
   sodipodi:docname="oslomet-nytest.svg">
  <defs
     id="defs1478">
    <clipPath
       clipPathUnits="userSpaceOnUse"
       id="clipPath1242">
      <path
         d="M 0,357.697 H 511.933 V 0 H 0 Z"
         id="path1240" />
    </clipPath>
  </defs>
  <sodipodi:namedview
     id="base"
     pagecolor="#ffffff"
     bordercolor="#666666"
     borderopacity="1.0"
     inkscape:pageopacity="0.0"
     inkscape:pageshadow="2"
     inkscape:zoom="0.34078737"
     inkscape:cx="198.34899"
     inkscape:cy="452.43463"
     inkscape:document-units="mm"
     inkscape:current-layer="layer1"
     inkscape:document-rotation="0"
     showgrid="false"
     inkscape:window-width="1248"
     inkscape:window-height="943"
     inkscape:window-x="0"
     inkscape:window-y="23"
     inkscape:window-maximized="0" />
  <metadata
     id="metadata1481">
    <rdf:RDF>
      <cc:Work
         rdf:about="">
        <dc:format>image/svg+xml</dc:format>
        <dc:type
           rdf:resource="http://purl.org/dc/dcmitype/StillImage" />
        <dc:title></dc:title>
      </cc:Work>
    </rdf:RDF>
  </metadata>
  <g
     inkscape:label="Lag 1"
     inkscape:groupmode="layer"
     id="layer1">
    <g
       id="g1236"
       transform="matrix(0.35277777,0,0,-0.35277777,-2.6086697,125.63566)"
       inkscape:export-xdpi="96"
       inkscape:export-ydpi="96"
       style="fill:#ffff00">
      <g
         id="g1238"
         clip-path="url(#clipPath1242)"
         style="fill:#ffff00">
        <g
           id="g1244"
           transform="translate(124.2688,124.3724)"
           style="fill:#ffff00">
          <path
             d="m 0,0 c -8.538,8.538 -20.808,8.896 -28.555,1.147 -8.036,-8.036 -7.534,-20.159 1.004,-28.697 8.54,-8.54 20.664,-9.042 28.699,-1.007 C 8.968,-20.737 8.54,-8.54 0,0 M -39.463,-39.462 C -54.171,-24.754 -54.456,-2.8 -39.532,12.124 -24.824,26.832 -2.799,26.618 11.909,11.91 26.617,-2.798 26.834,-24.825 12.126,-39.533 -2.87,-54.529 -24.755,-54.17 -39.463,-39.462"
             style="fill:#ffff00;fill-opacity:1;fill-rule:nonzero;stroke:none"
             id="path1246" />
        </g>
        <g
           id="g1248"
           transform="translate(186.508,134.9525)"
           style="fill:#ffff00">
          <path
             d="m 0,0 c -11.91,-11.909 -26.189,-11.407 -36.45,-1.146 l 11.122,11.122 c 4.809,-4.81 10.618,-5.312 16,0.071 3.226,3.226 4.447,7.602 1.219,10.831 -3.444,3.443 -8.895,1.866 -16.643,-1.579 -9.471,-3.874 -21.095,-8.179 -29.418,0.144 -9.542,9.542 -7.46,22.243 1.865,31.568 10.979,10.979 24.395,10.189 32.862,1.722 L -29.847,42.33 c -3.66,3.084 -8.466,3.445 -12.771,-0.859 -3.157,-3.158 -3.731,-7.033 -1.004,-9.761 2.653,-2.653 6.31,-1.575 13.92,1.58 13.056,5.166 24.248,8.181 33.361,-0.933 C 13.201,22.815 10.403,10.403 0,0"
             style="fill:#ffff00;fill-opacity:1;fill-rule:nonzero;stroke:none"
             id="path1250" />
        </g>
        <g
           id="g1252"
           transform="translate(260.7512,261.0121)"
           style="fill:#ffff00">
          <path
             d="m 0,0 c -8.538,8.538 -20.807,8.895 -28.555,1.147 -8.036,-8.036 -7.534,-20.16 1.004,-28.697 8.54,-8.54 20.664,-9.043 28.699,-1.007 C 8.968,-20.737 8.54,-8.54 0,0 m -39.46,-39.46 c -14.708,14.708 -14.994,36.662 -0.072,51.584 14.708,14.708 36.733,14.494 51.441,-0.214 14.708,-14.708 14.925,-36.735 0.217,-51.443 -14.996,-14.996 -36.878,-14.635 -51.586,0.073"
             style="fill:#ffff00;fill-opacity:1;fill-rule:nonzero;stroke:none"
             id="path1254" />
        </g>
        <g
           id="g1256"
           transform="translate(230.5139,202.6956)"
           style="fill:#ffff00">
          <path
             d="m 0,0 10.948,-10.948 -28.501,-28.5 -49.889,49.889 11.122,11.122 38.941,-38.942 z"
             style="fill:#ffff00;fill-opacity:1;fill-rule:nonzero;stroke:none"
             id="path1258" />
        </g>
        <g
           id="g1260"
           transform="translate(427.9543,95.8275)"
           style="fill:#ffff00">
          <path
             d="m 0,0 -11.115,11.115 -38.739,-38.738 -11.335,11.336 38.738,38.738 -11.123,11.123 10.32,10.32 33.573,-33.574 z"
             style="fill:#ffff00;fill-opacity:1;fill-rule:nonzero;stroke:none"
             id="path1262" />
        </g>
        <g
           id="g1264"
           transform="translate(358.3567,108.5003)"
           style="fill:#ffff00">
          <path
             d="M 0,0 -10.332,-10.332 -39.552,18.888 9.562,68.002 38.756,38.809 28.424,28.477 10.278,46.622 1.291,37.635 17.746,21.179 7.987,11.421 -8.468,27.876 -18.172,18.172 Z"
             style="fill:#ffff00;fill-opacity:1;fill-rule:nonzero;stroke:none"
             id="path1266" />
        </g>
        <g
           id="g1268"
           transform="translate(309.7649,136.4281)"
           style="fill:#ffff00">
          <path
             d="M 0,0 -10.977,10.977 16.037,38.151 -20.413,20.401 -30.547,30.535 -12.829,67.326 -40.013,40.013 -50.989,50.989 -1.875,100.104 12.76,85.469 -9.667,41.139 34.406,63.822 49.114,49.114 Z"
             style="fill:#ffff00;fill-opacity:1;fill-rule:nonzero;stroke:none"
             id="path1270" />
        </g>
      </g>
    </g>
  </g>
</svg>
