<?xml version="1.0" standalone="no"?>
<!DOCTYPE svg PUBLIC "-//W3C//DTD SVG 1.1//EN" "http://www.w3.org/Graphics/SVG/1.1/DTD/svg11.dtd">
<svg width="310mm" height="244mm" viewBox="38 -271 310 244" xmlns="http://www.w3.org/2000/svg" version="1.1">
<title>OpenSCAD Model</title>
<path d="
M 232.763,-260.004 L 232.568,-260.004 L 232.281,-260.011 L 232.049,-260.031 L 231.873,-260.065 L 231.752,-260.114
 L 231.667,-260.18 L 231.598,-260.268 L 231.545,-260.378 L 231.508,-260.51 L 231.483,-260.698 L 231.464,-260.973
 L 231.454,-261.336 L 231.45,-261.786 L 231.45,-267.195 L 231.456,-267.839 L 231.474,-268.384 L 231.505,-268.832
 L 231.548,-269.182 L 231.62,-269.473 L 231.74,-269.743 L 231.907,-269.995 L 232.122,-270.226 L 232.374,-270.419
 L 232.654,-270.558 L 232.961,-270.641 L 233.295,-270.668 L 233.459,-270.661 L 233.61,-270.641 L 233.746,-270.607
 L 233.869,-270.558 L 233.971,-270.498 L 234.043,-270.427 L 234.087,-270.346 L 234.102,-270.253 L 234.097,-270.212
 L 234.085,-270.162 L 234.064,-270.102 L 234.034,-270.033 L 234.002,-269.952 L 233.98,-269.872 L 233.966,-269.793
 L 233.961,-269.716 L 233.973,-269.593 L 234.006,-269.48 L 234.063,-269.376 L 234.141,-269.283 L 234.237,-269.205
 L 234.343,-269.15 L 234.461,-269.117 L 234.589,-269.106 L 234.715,-269.118 L 234.831,-269.154 L 234.936,-269.215
 L 235.031,-269.301 L 235.11,-269.404 L 235.166,-269.519 L 235.2,-269.646 L 235.211,-269.783 L 235.18,-270.013
 L 235.085,-270.226 L 234.926,-270.424 L 234.704,-270.604 L 234.424,-270.755 L 234.089,-270.863 L 233.7,-270.928
 L 233.257,-270.949 L 232.852,-270.932 L 232.472,-270.879 L 232.117,-270.791 L 231.789,-270.668 L 231.489,-270.513
 L 231.22,-270.327 L 230.983,-270.111 L 230.778,-269.866 L 230.607,-269.603 L 230.474,-269.337 L 230.377,-269.067
 L 230.317,-268.794 L 230.281,-268.488 L 230.255,-268.12 L 230.24,-267.689 L 230.235,-267.195 L 230.235,-261.786
 L 230.231,-261.318 L 230.219,-260.944 L 230.2,-260.665 L 230.174,-260.48 L 230.135,-260.353 L 230.08,-260.249
 L 230.01,-260.166 L 229.923,-260.104 L 229.802,-260.06 L 229.628,-260.029 L 229.402,-260.01 L 229.123,-260.004
 L 228.916,-260.004 L 228.916,-259.723 L 232.763,-259.723 z
M 305.438,-260.004 L 305.202,-260.012 L 304.984,-260.036 L 304.784,-260.076 L 304.601,-260.132 L 304.442,-260.202
 L 304.312,-260.283 L 304.211,-260.376 L 304.14,-260.48 L 304.09,-260.61 L 304.055,-260.782 L 304.034,-260.995
 L 304.027,-261.249 L 304.027,-266.199 L 308.93,-259.723 L 311.371,-259.723 L 311.371,-260.004 L 311.068,-260.009
 L 310.824,-260.027 L 310.639,-260.055 L 310.513,-260.095 L 310.423,-260.155 L 310.347,-260.245 L 310.283,-260.363
 L 310.232,-260.51 L 310.194,-260.711 L 310.166,-260.991 L 310.149,-261.349 L 310.144,-261.786 L 310.144,-266.175
 L 310.147,-266.516 L 310.158,-266.788 L 310.176,-266.992 L 310.202,-267.127 L 310.247,-267.226 L 310.323,-267.322
 L 310.431,-267.414 L 310.571,-267.503 L 310.744,-267.581 L 310.953,-267.644 L 311.196,-267.69 L 311.474,-267.719
 L 311.474,-268 L 308.387,-268 L 308.387,-267.719 L 308.696,-267.707 L 308.963,-267.672 L 309.19,-267.613
 L 309.375,-267.53 L 309.523,-267.433 L 309.639,-267.332 L 309.723,-267.226 L 309.774,-267.115 L 309.805,-266.971
 L 309.827,-266.767 L 309.84,-266.501 L 309.844,-266.175 L 309.844,-260.431 L 303.99,-268.19 L 303.727,-268.19
 L 303.727,-261.341 L 303.722,-261.094 L 303.707,-260.887 L 303.681,-260.717 L 303.645,-260.587 L 303.59,-260.479
 L 303.508,-260.38 L 303.399,-260.288 L 303.262,-260.205 L 303.097,-260.133 L 302.905,-260.075 L 302.685,-260.032
 L 302.437,-260.004 L 302.437,-259.723 L 305.438,-259.723 z
M 98.35,-259.6 L 98.8773,-259.699 L 99.3816,-259.863 L 99.863,-260.092 L 100.307,-260.39 L 100.699,-260.757
 L 101.04,-261.194 L 101.328,-261.701 L 101.558,-262.251 L 101.722,-262.82 L 101.82,-263.407 L 101.853,-264.011
 L 101.782,-264.899 L 101.568,-265.696 L 101.213,-266.401 L 100.714,-267.014 L 100.104,-267.511 L 99.4121,-267.866
 L 98.6379,-268.079 L 97.7816,-268.15 L 96.9709,-268.073 L 96.2358,-267.841 L 95.5762,-267.455 L 94.9921,-266.915
 L 94.8598,-267.111 L 94.7496,-267.322 L 94.6615,-267.547 L 94.5955,-267.787 L 94.3331,-267.787 L 94.3331,-264.89
 L 94.5955,-264.89 L 94.6529,-265.253 L 94.7519,-265.624 L 94.8924,-266 L 95.0745,-266.384 L 95.2954,-266.742
 L 95.5527,-267.044 L 95.8462,-267.29 L 96.1759,-267.48 L 96.5218,-267.622 L 96.8638,-267.723 L 97.2021,-267.784
 L 97.5365,-267.804 L 98.1333,-267.742 L 98.679,-267.556 L 99.1737,-267.246 L 99.6172,-266.812 L 99.9829,-266.261
 L 100.244,-265.602 L 100.401,-264.834 L 100.453,-263.957 L 100.405,-263.031 L 100.262,-262.219 L 100.022,-261.52
 L 99.6874,-260.935 L 99.2711,-260.473 L 98.7881,-260.142 L 98.2384,-259.944 L 97.6219,-259.878 L 97.1046,-259.919
 L 96.6144,-260.042 L 96.1513,-260.246 L 95.7152,-260.532 L 95.3283,-260.922 L 95.0127,-261.439 L 94.7684,-262.085
 L 94.5955,-262.857 L 94.3331,-262.857 L 94.4064,-259.72 L 94.6749,-259.72 L 94.7153,-259.995 L 94.7816,-260.266
 L 94.8739,-260.532 L 94.9921,-260.794 L 95.2022,-260.567 L 95.4599,-260.351 L 95.7653,-260.145 L 96.1184,-259.949
 L 96.5061,-259.782 L 96.9156,-259.663 L 97.3469,-259.591 L 97.7999,-259.567 z
M 174.918,-259.651 L 175.732,-259.902 L 176.444,-260.319 L 177.056,-260.904 L 177.548,-261.6 L 177.899,-262.351
 L 178.109,-263.157 L 178.179,-264.017 L 178.106,-264.876 L 177.885,-265.656 L 177.517,-266.357 L 177.001,-266.981
 L 176.375,-267.492 L 175.673,-267.858 L 174.897,-268.077 L 174.047,-268.15 L 173.594,-268.125 L 173.123,-268.052
 L 172.633,-267.93 L 172.124,-267.759 L 171.76,-267.633 L 171.434,-267.544 L 171.144,-267.49 L 170.89,-267.472
 L 170.831,-267.474 L 170.767,-267.478 L 170.699,-267.486 L 170.628,-267.496 L 170.628,-266.618 L 170.624,-266.133
 L 170.611,-265.748 L 170.59,-265.461 L 170.561,-265.273 L 170.518,-265.144 L 170.458,-265.035 L 170.38,-264.945
 L 170.284,-264.876 L 170.155,-264.824 L 169.978,-264.787 L 169.754,-264.765 L 169.482,-264.757 L 169.482,-264.463
 L 173.053,-264.463 L 173.053,-264.757 L 172.858,-264.757 L 172.633,-264.762 L 172.446,-264.776 L 172.297,-264.8
 L 172.186,-264.833 L 172.101,-264.881 L 172.027,-264.946 L 171.965,-265.03 L 171.915,-265.132 L 171.876,-265.271
 L 171.848,-265.466 L 171.832,-265.715 L 171.826,-266.02 L 171.838,-266.291 L 171.873,-266.539 L 171.932,-266.761
 L 172.015,-266.96 L 172.13,-267.139 L 172.287,-267.303 L 172.484,-267.454 L 172.723,-267.591 L 172.989,-267.704
 L 173.27,-267.785 L 173.566,-267.834 L 173.876,-267.85 L 174.47,-267.793 L 175.013,-267.621 L 175.507,-267.334
 L 175.95,-266.932 L 176.315,-266.392 L 176.577,-265.692 L 176.733,-264.831 L 176.785,-263.81 L 176.731,-262.789
 L 176.569,-261.936 L 176.298,-261.251 L 175.919,-260.734 L 175.467,-260.354 L 174.978,-260.084 L 174.451,-259.921
 L 173.887,-259.867 L 173.344,-259.913 L 172.843,-260.053 L 172.384,-260.286 L 171.968,-260.612 L 171.611,-261.017
 L 171.331,-261.489 L 171.128,-262.027 L 171.001,-262.632 L 170.707,-262.632 L 170.707,-259.867 L 171.001,-259.867
 L 171.037,-260.11 L 171.092,-260.344 L 171.166,-260.571 L 171.258,-260.788 L 171.837,-260.254 L 172.487,-259.873
 L 173.21,-259.644 L 174.004,-259.567 z
M 326.942,-259.64 L 327.781,-259.857 L 328.541,-260.22 L 329.221,-260.727 L 329.782,-261.354 L 330.182,-262.076
 L 330.423,-262.893 L 330.503,-263.804 L 330.424,-264.738 L 330.187,-265.575 L 329.792,-266.316 L 329.239,-266.96
 L 328.563,-267.48 L 327.799,-267.852 L 326.946,-268.075 L 326.005,-268.15 L 325.04,-268.075 L 324.174,-267.852
 L 323.406,-267.48 L 322.736,-266.96 L 322.193,-266.319 L 321.805,-265.586 L 321.572,-264.762 L 321.494,-263.846
 L 321.575,-262.907 L 321.818,-262.072 L 322.224,-261.341 L 322.791,-260.715 L 323.48,-260.213 L 324.248,-259.854
 L 325.095,-259.639 L 326.023,-259.567 z
M 325.302,-259.937 L 324.678,-260.13 L 324.143,-260.451 L 323.699,-260.901 L 323.349,-261.472 L 323.099,-262.155
 L 322.95,-262.95 L 322.9,-263.859 L 322.95,-264.789 L 323.102,-265.597 L 323.356,-266.282 L 323.711,-266.844
 L 324.153,-267.281 L 324.669,-267.594 L 325.257,-267.782 L 325.919,-267.844 L 326.665,-267.782 L 327.312,-267.594
 L 327.859,-267.281 L 328.307,-266.844 L 328.655,-266.281 L 328.904,-265.594 L 329.053,-264.782 L 329.103,-263.846
 L 329.053,-262.924 L 328.904,-262.121 L 328.655,-261.439 L 328.307,-260.877 L 327.866,-260.437 L 327.337,-260.124
 L 326.72,-259.935 L 326.017,-259.873 z
M 272.424,-260.003 L 272.24,-260.003 L 271.953,-260.01 L 271.722,-260.03 L 271.545,-260.065 L 271.424,-260.113
 L 271.339,-260.179 L 271.27,-260.267 L 271.217,-260.377 L 271.18,-260.509 L 271.155,-260.697 L 271.136,-260.972
 L 271.126,-261.335 L 271.122,-261.785 L 271.122,-265.845 L 271.126,-266.317 L 271.136,-266.694 L 271.155,-266.978
 L 271.18,-267.167 L 271.218,-267.299 L 271.275,-267.413 L 271.35,-267.508 L 271.443,-267.585 L 271.566,-267.644
 L 271.729,-267.686 L 271.934,-267.711 L 272.179,-267.719 L 272.424,-267.719 L 272.424,-268 L 265.391,-268
 L 265.33,-265.564 L 265.617,-265.564 L 265.758,-266.022 L 265.906,-266.414 L 266.062,-266.74 L 266.224,-266.999
 L 266.393,-267.205 L 266.566,-267.371 L 266.743,-267.498 L 266.926,-267.585 L 267.135,-267.644 L 267.393,-267.686
 L 267.7,-267.711 L 268.057,-267.719 L 268.685,-267.719 L 269.011,-267.711 L 269.275,-267.688 L 269.476,-267.649
 L 269.616,-267.594 L 269.713,-267.525 L 269.79,-267.444 L 269.846,-267.35 L 269.881,-267.243 L 269.902,-267.088
 L 269.917,-266.849 L 269.927,-266.526 L 269.93,-266.12 L 269.93,-261.785 L 269.926,-261.317 L 269.914,-260.943
 L 269.894,-260.664 L 269.866,-260.479 L 269.826,-260.352 L 269.771,-260.248 L 269.7,-260.165 L 269.613,-260.103
 L 269.492,-260.059 L 269.319,-260.028 L 269.093,-260.009 L 268.815,-260.003 L 268.449,-260.003 L 268.449,-259.723
 L 272.424,-259.723 z
M 139.338,-260.003 L 139.065,-260.01 L 138.843,-260.032 L 138.673,-260.07 L 138.554,-260.122 L 138.47,-260.193
 L 138.402,-260.286 L 138.351,-260.402 L 138.317,-260.54 L 138.294,-260.73 L 138.278,-261.001 L 138.268,-261.353
 L 138.265,-261.785 L 138.265,-265.845 L 138.268,-266.315 L 138.277,-266.687 L 138.292,-266.96 L 138.313,-267.136
 L 138.346,-267.257 L 138.395,-267.367 L 138.46,-267.466 L 138.542,-267.554 L 138.659,-267.627 L 138.831,-267.678
 L 139.057,-267.709 L 139.338,-267.719 L 139.509,-267.719 L 139.509,-268 L 132.656,-268 L 132.479,-265.422
 L 132.772,-265.422 L 132.892,-265.856 L 133.032,-266.24 L 133.193,-266.575 L 133.373,-266.861 L 133.566,-267.1
 L 133.764,-267.295 L 133.967,-267.445 L 134.175,-267.551 L 134.4,-267.625 L 134.654,-267.677 L 134.937,-267.709
 L 135.249,-267.719 L 135.865,-267.719 L 136.239,-267.703 L 136.534,-267.654 L 136.749,-267.573 L 136.883,-267.46
 L 136.966,-267.255 L 137.025,-266.898 L 137.061,-266.39 L 137.072,-265.73 L 137.072,-263.772 L 136.164,-263.772
 L 135.918,-263.777 L 135.71,-263.79 L 135.541,-263.812 L 135.411,-263.842 L 135.306,-263.887 L 135.215,-263.953
 L 135.137,-264.04 L 135.072,-264.146 L 135.021,-264.292 L 134.985,-264.494 L 134.964,-264.753 L 134.956,-265.068
 L 134.67,-265.068 L 134.67,-262.234 L 134.956,-262.234 L 134.961,-262.516 L 134.975,-262.747 L 134.999,-262.928
 L 135.032,-263.059 L 135.081,-263.158 L 135.15,-263.243 L 135.239,-263.315 L 135.35,-263.374 L 135.493,-263.42
 L 135.681,-263.452 L 135.915,-263.472 L 136.194,-263.478 L 137.072,-263.478 L 137.072,-260.003 L 135.926,-260.003
 L 135.522,-260.009 L 135.179,-260.026 L 134.894,-260.056 L 134.67,-260.097 L 134.481,-260.161 L 134.306,-260.259
 L 134.144,-260.39 L 133.996,-260.554 L 133.859,-260.767 L 133.734,-261.043 L 133.62,-261.382 L 133.517,-261.783
 L 133.23,-261.783 L 133.425,-259.723 L 139.338,-259.723 z
M 192.173,-260.003 L 191.954,-260.003 L 191.667,-260.01 L 191.435,-260.03 L 191.259,-260.065 L 191.139,-260.113
 L 191.054,-260.179 L 190.985,-260.267 L 190.933,-260.377 L 190.897,-260.509 L 190.873,-260.696 L 190.856,-260.972
 L 190.846,-261.334 L 190.842,-261.785 L 190.842,-263.427 L 195.163,-263.427 L 195.163,-261.785 L 195.159,-261.317
 L 195.147,-260.943 L 195.127,-260.664 L 195.099,-260.48 L 195.059,-260.353 L 195.004,-260.249 L 194.933,-260.166
 L 194.846,-260.104 L 194.726,-260.06 L 194.553,-260.029 L 194.33,-260.01 L 194.054,-260.004 L 193.901,-260.004
 L 193.901,-259.723 L 197.622,-259.723 L 197.622,-260.004 L 197.47,-260.004 L 197.184,-260.011 L 196.953,-260.031
 L 196.777,-260.065 L 196.657,-260.114 L 196.572,-260.18 L 196.503,-260.268 L 196.45,-260.378 L 196.413,-260.51
 L 196.388,-260.698 L 196.37,-260.973 L 196.359,-261.335 L 196.355,-261.786 L 196.355,-265.845 L 196.359,-266.317
 L 196.37,-266.694 L 196.388,-266.978 L 196.413,-267.167 L 196.451,-267.299 L 196.507,-267.413 L 196.582,-267.508
 L 196.675,-267.585 L 196.797,-267.644 L 196.961,-267.686 L 197.164,-267.711 L 197.409,-267.719 L 197.622,-267.719
 L 197.622,-268 L 193.901,-268 L 193.901,-267.719 L 194.115,-267.719 L 194.37,-267.71 L 194.58,-267.683
 L 194.746,-267.637 L 194.867,-267.573 L 194.957,-267.49 L 195.028,-267.387 L 195.08,-267.265 L 195.114,-267.124
 L 195.135,-266.93 L 195.151,-266.653 L 195.16,-266.291 L 195.163,-265.844 L 195.163,-263.847 L 190.842,-263.847
 L 190.842,-265.844 L 190.846,-266.316 L 190.856,-266.694 L 190.873,-266.977 L 190.897,-267.167 L 190.934,-267.299
 L 190.99,-267.413 L 191.064,-267.508 L 191.157,-267.585 L 191.279,-267.644 L 191.442,-267.686 L 191.644,-267.711
 L 191.886,-267.719 L 192.173,-267.719 L 192.173,-268 L 188.406,-268 L 188.406,-267.719 L 188.596,-267.719
 L 188.851,-267.71 L 189.062,-267.683 L 189.229,-267.637 L 189.352,-267.573 L 189.443,-267.49 L 189.514,-267.387
 L 189.566,-267.265 L 189.599,-267.124 L 189.619,-266.931 L 189.633,-266.653 L 189.642,-266.291 L 189.645,-265.845
 L 189.645,-261.785 L 189.641,-261.317 L 189.629,-260.943 L 189.609,-260.664 L 189.581,-260.479 L 189.541,-260.352
 L 189.485,-260.248 L 189.414,-260.165 L 189.328,-260.103 L 189.207,-260.059 L 189.033,-260.028 L 188.807,-260.009
 L 188.528,-260.003 L 188.406,-260.003 L 188.406,-259.723 L 192.173,-259.723 z
M 213.89,-260.003 L 213.713,-260.003 L 213.427,-260.01 L 213.196,-260.03 L 213.02,-260.065 L 212.898,-260.113
 L 212.812,-260.179 L 212.743,-260.267 L 212.69,-260.377 L 212.655,-260.509 L 212.631,-260.697 L 212.613,-260.972
 L 212.603,-261.335 L 212.6,-261.785 L 212.6,-265.845 L 212.603,-266.317 L 212.613,-266.694 L 212.631,-266.978
 L 212.655,-267.167 L 212.691,-267.299 L 212.747,-267.413 L 212.821,-267.508 L 212.913,-267.585 L 213.035,-267.644
 L 213.198,-267.686 L 213.402,-267.711 L 213.647,-267.719 L 213.89,-267.719 L 213.89,-268 L 210.106,-268
 L 210.106,-267.719 L 210.35,-267.719 L 210.609,-267.71 L 210.822,-267.683 L 210.989,-267.637 L 211.111,-267.573
 L 211.201,-267.49 L 211.272,-267.387 L 211.323,-267.265 L 211.356,-267.124 L 211.376,-266.931 L 211.39,-266.653
 L 211.399,-266.291 L 211.402,-265.845 L 211.402,-261.785 L 211.398,-261.317 L 211.386,-260.943 L 211.366,-260.664
 L 211.337,-260.479 L 211.298,-260.352 L 211.242,-260.248 L 211.171,-260.165 L 211.084,-260.103 L 210.963,-260.059
 L 210.789,-260.028 L 210.562,-260.009 L 210.283,-260.003 L 210.106,-260.003 L 210.106,-259.723 L 213.89,-259.723
 z
M 287.999,-266.573 L 291.032,-259.723 L 293.553,-259.723 L 293.553,-260.004 L 293.328,-260.004 L 293.041,-260.011
 L 292.81,-260.031 L 292.634,-260.065 L 292.513,-260.114 L 292.428,-260.18 L 292.359,-260.268 L 292.306,-260.378
 L 292.269,-260.51 L 292.244,-260.698 L 292.226,-260.973 L 292.215,-261.335 L 292.211,-261.786 L 292.211,-265.387
 L 292.216,-265.86 L 292.23,-266.251 L 292.252,-266.562 L 292.284,-266.791 L 292.337,-266.973 L 292.422,-267.14
 L 292.54,-267.292 L 292.69,-267.429 L 292.869,-267.545 L 293.072,-267.631 L 293.3,-267.69 L 293.553,-267.719
 L 293.553,-268 L 290.593,-268 L 290.593,-267.719 L 290.864,-267.686 L 291.102,-267.624 L 291.309,-267.532
 L 291.484,-267.411 L 291.627,-267.27 L 291.737,-267.117 L 291.816,-266.954 L 291.862,-266.779 L 291.889,-266.559
 L 291.908,-266.26 L 291.919,-265.882 L 291.923,-265.424 L 291.923,-260.577 L 288.621,-268 L 288.334,-268
 L 285.057,-260.577 L 285.057,-265.845 L 285.061,-266.317 L 285.072,-266.694 L 285.09,-266.978 L 285.115,-267.167
 L 285.153,-267.299 L 285.21,-267.413 L 285.285,-267.508 L 285.378,-267.585 L 285.5,-267.644 L 285.662,-267.686
 L 285.864,-267.711 L 286.107,-267.719 L 286.399,-267.719 L 286.399,-268 L 282.442,-268 L 282.442,-267.719
 L 282.809,-267.719 L 283.067,-267.71 L 283.28,-267.683 L 283.447,-267.637 L 283.569,-267.573 L 283.659,-267.49
 L 283.73,-267.387 L 283.782,-267.265 L 283.816,-267.124 L 283.838,-266.931 L 283.853,-266.653 L 283.862,-266.291
 L 283.865,-265.845 L 283.865,-261.786 L 283.861,-261.318 L 283.849,-260.944 L 283.829,-260.664 L 283.801,-260.48
 L 283.761,-260.353 L 283.706,-260.249 L 283.635,-260.166 L 283.548,-260.104 L 283.427,-260.06 L 283.254,-260.029
 L 283.028,-260.01 L 282.75,-260.004 L 282.445,-260.004 L 282.445,-259.723 L 284.984,-259.723 z
M 81.0985,-259.686 L 82.4596,-259.722 L 82.4596,-260.002 L 82.3008,-260.002 L 82.014,-260.009 L 81.7825,-260.03
 L 81.6064,-260.064 L 81.4856,-260.112 L 81.4004,-260.178 L 81.3314,-260.268 L 81.2783,-260.38 L 81.2413,-260.515
 L 81.2159,-260.706 L 81.1978,-260.987 L 81.1869,-261.356 L 81.1833,-261.815 L 81.1833,-265.844 L 81.1867,-266.316
 L 81.197,-266.693 L 81.2142,-266.977 L 81.2383,-267.166 L 81.2751,-267.298 L 81.3306,-267.412 L 81.4049,-267.507
 L 81.4978,-267.584 L 81.6205,-267.643 L 81.784,-267.685 L 81.9884,-267.71 L 82.2337,-267.718 L 82.5513,-267.718
 L 82.5513,-268 L 79.3023,-268 L 78.7253,-267.989 L 78.2098,-267.957 L 77.7558,-267.902 L 77.3632,-267.826
 L 77.0176,-267.715 L 76.7044,-267.554 L 76.4237,-267.345 L 76.1754,-267.087 L 75.9723,-266.792 L 75.8273,-266.469
 L 75.7403,-266.119 L 75.7113,-265.741 L 75.7541,-265.311 L 75.8827,-264.919 L 76.0969,-264.564 L 76.3969,-264.246
 L 76.785,-263.978 L 77.2636,-263.771 L 77.8327,-263.627 L 78.4924,-263.544 L 77.9433,-263.438 L 77.4678,-263.293
 L 77.066,-263.109 L 76.7377,-262.884 L 76.4827,-262.62 L 76.3005,-262.317 L 76.1912,-261.973 L 76.1548,-261.59
 L 76.3669,-260.736 L 77.0031,-260.125 L 78.0636,-259.759 L 79.5482,-259.637 z
M 78.8778,-263.744 L 78.3392,-263.835 L 77.9056,-263.986 L 77.577,-264.199 L 77.3353,-264.475 L 77.1626,-264.819
 L 77.0591,-265.23 L 77.0245,-265.709 L 77.0551,-266.179 L 77.1466,-266.586 L 77.2992,-266.93 L 77.5129,-267.211
 L 77.7876,-267.43 L 78.1233,-267.587 L 78.5201,-267.681 L 78.978,-267.712 L 79.2299,-267.702 L 79.4365,-267.671
 L 79.5977,-267.619 L 79.7135,-267.547 L 79.7976,-267.455 L 79.8638,-267.344 L 79.9121,-267.214 L 79.9424,-267.065
 L 79.9611,-266.852 L 79.9745,-266.532 L 79.9825,-266.104 L 79.9852,-265.569 L 79.9852,-263.725 L 79.8646,-263.72
 L 79.7471,-263.716 L 79.6326,-263.714 L 79.5212,-263.713 z
M 79.0744,-259.948 L 78.718,-259.984 L 78.4286,-260.044 L 78.2062,-260.128 L 78.0292,-260.234 L 77.8757,-260.361
 L 77.7459,-260.508 L 77.6397,-260.674 L 77.557,-260.87 L 77.498,-261.101 L 77.4626,-261.37 L 77.4508,-261.675
 L 77.4809,-262.107 L 77.5711,-262.474 L 77.7215,-262.778 L 77.9321,-263.017 L 78.2249,-263.199 L 78.622,-263.329
 L 79.1234,-263.406 L 79.7292,-263.432 L 79.9852,-263.432 L 79.9852,-259.954 L 79.861,-259.946 L 79.7384,-259.941
 L 79.6173,-259.937 L 79.4977,-259.936 z
M 158.057,-260.004 L 157.911,-260.004 L 157.624,-260.011 L 157.392,-260.031 L 157.216,-260.065 L 157.095,-260.114
 L 157.01,-260.18 L 156.941,-260.268 L 156.888,-260.378 L 156.851,-260.51 L 156.825,-260.698 L 156.807,-260.973
 L 156.796,-261.335 L 156.793,-261.786 L 156.793,-265.845 L 156.796,-266.317 L 156.807,-266.694 L 156.825,-266.978
 L 156.851,-267.167 L 156.889,-267.299 L 156.945,-267.413 L 157.02,-267.508 L 157.113,-267.585 L 157.236,-267.644
 L 157.4,-267.686 L 157.604,-267.711 L 157.849,-267.719 L 158.106,-267.719 L 158.106,-268 L 154.258,-268
 L 154.258,-267.719 L 154.539,-267.719 L 154.799,-267.71 L 155.014,-267.683 L 155.182,-267.637 L 155.304,-267.573
 L 155.394,-267.49 L 155.465,-267.387 L 155.518,-267.266 L 155.552,-267.124 L 155.573,-266.931 L 155.588,-266.654
 L 155.597,-266.292 L 155.6,-265.846 L 155.6,-263.789 L 154.827,-263.789 L 154.547,-263.796 L 154.318,-263.818
 L 154.138,-263.853 L 154.008,-263.902 L 153.909,-263.971 L 153.823,-264.064 L 153.751,-264.181 L 153.691,-264.323
 L 153.644,-264.49 L 153.611,-264.686 L 153.591,-264.909 L 153.584,-265.16 L 153.279,-265.16 L 153.279,-262.24
 L 153.584,-262.24 L 153.6,-262.591 L 153.646,-262.877 L 153.723,-263.1 L 153.831,-263.259 L 153.986,-263.37
 L 154.203,-263.449 L 154.484,-263.497 L 154.827,-263.513 L 155.6,-263.513 L 155.6,-260.004 L 153.985,-260.004
 L 153.628,-260.011 L 153.328,-260.031 L 153.083,-260.065 L 152.894,-260.113 L 152.734,-260.189 L 152.577,-260.306
 L 152.424,-260.465 L 152.275,-260.665 L 152.14,-260.9 L 152.032,-261.165 L 151.949,-261.459 L 151.894,-261.783
 L 151.607,-261.783 L 151.674,-259.723 L 158.057,-259.723 z
M 249.503,-260.003 L 249.118,-260.045 L 248.844,-260.148 L 248.679,-260.311 L 248.624,-260.534 L 248.679,-260.73
 L 248.844,-260.983 L 249.118,-261.292 L 249.502,-261.657 L 252.026,-263.934 L 252.026,-261.785 L 252.022,-261.317
 L 252.01,-260.943 L 251.99,-260.664 L 251.962,-260.479 L 251.922,-260.352 L 251.867,-260.248 L 251.796,-260.165
 L 251.709,-260.103 L 251.588,-260.059 L 251.415,-260.028 L 251.189,-260.009 L 250.911,-260.003 L 250.759,-260.003
 L 250.759,-259.723 L 254.422,-259.723 L 254.422,-260.003 L 254.105,-260.009 L 253.852,-260.027 L 253.662,-260.058
 L 253.536,-260.1 L 253.449,-260.161 L 253.378,-260.244 L 253.322,-260.35 L 253.282,-260.479 L 253.254,-260.666
 L 253.234,-260.946 L 253.222,-261.319 L 253.218,-261.785 L 253.218,-265.845 L 253.222,-266.317 L 253.233,-266.694
 L 253.251,-266.978 L 253.276,-267.167 L 253.314,-267.299 L 253.371,-267.413 L 253.446,-267.508 L 253.539,-267.585
 L 253.662,-267.644 L 253.825,-267.686 L 254.03,-267.711 L 254.275,-267.719 L 254.531,-267.719 L 254.531,-268
 L 250.816,-268 L 250.816,-267.719 L 250.974,-267.719 L 251.231,-267.71 L 251.443,-267.683 L 251.61,-267.637
 L 251.731,-267.573 L 251.821,-267.49 L 251.891,-267.387 L 251.944,-267.265 L 251.977,-267.124 L 251.999,-266.931
 L 252.014,-266.653 L 252.023,-266.291 L 252.026,-265.845 L 252.026,-264.337 L 251.436,-263.818 L 249.1,-266.175
 L 248.713,-266.578 L 248.437,-266.903 L 248.271,-267.149 L 248.216,-267.316 L 248.226,-267.398 L 248.258,-267.473
 L 248.312,-267.542 L 248.386,-267.603 L 248.504,-267.654 L 248.688,-267.69 L 248.937,-267.712 L 249.252,-267.719
 L 249.417,-267.719 L 249.417,-268 L 245.12,-268 L 245.12,-267.719 L 245.393,-267.705 L 245.64,-267.663
 L 245.86,-267.592 L 246.053,-267.493 L 246.277,-267.327 L 246.589,-267.054 L 246.988,-266.674 L 247.475,-266.187
 L 250.576,-263.055 L 249.07,-261.663 L 248.665,-261.287 L 248.33,-260.981 L 248.065,-260.746 L 247.868,-260.583
 L 247.703,-260.461 L 247.529,-260.351 L 247.348,-260.253 L 247.158,-260.168 L 246.965,-260.098 L 246.772,-260.048
 L 246.579,-260.019 L 246.387,-260.009 L 246.387,-259.723 L 249.503,-259.723 z
M 62.4688,-265.351 L 62.5855,-265.626 L 62.6733,-265.836 L 62.732,-265.98 L 62.7618,-266.059 L 62.9442,-266.503
 L 63.1129,-266.862 L 63.2678,-267.139 L 63.409,-267.332 L 63.5609,-267.469 L 63.7478,-267.58 L 63.9699,-267.663
 L 64.227,-267.719 L 64.227,-268 L 61.7675,-268 L 61.7675,-267.719 L 61.9569,-267.707 L 62.1284,-267.671
 L 62.2819,-267.611 L 62.4175,-267.527 L 62.5283,-267.42 L 62.6074,-267.29 L 62.6549,-267.138 L 62.6707,-266.964
 L 62.641,-266.74 L 62.5517,-266.418 L 62.4029,-265.997 L 62.1947,-265.477 L 61.9811,-264.953 L 58.8356,-264.953
 L 58.2005,-266.482 L 58.0777,-266.781 L 57.9899,-267.014 L 57.9372,-267.18 L 57.9196,-267.28 L 57.9328,-267.401
 L 57.9723,-267.499 L 58.0382,-267.576 L 58.1303,-267.631 L 58.2599,-267.67 L 58.4379,-267.697 L 58.6644,-267.714
 L 58.9393,-267.719 L 58.9393,-268 L 55.685,-268 L 55.685,-267.719 L 55.8882,-267.69 L 56.0643,-267.645
 L 56.2133,-267.585 L 56.3353,-267.509 L 56.4381,-267.417 L 56.5299,-267.309 L 56.6107,-267.186 L 56.6803,-267.048
 L 57.0589,-266.181 L 59.825,-259.608 L 60.0633,-259.608 z
M 58.9393,-264.676 L 61.8652,-264.676 L 60.4054,-261.147 z
M 118.169,-259.64 L 118.674,-259.656 L 119.316,-259.683 L 120.098,-259.72 L 121.459,-259.788 L 121.459,-260.068
 L 121.215,-260.068 L 120.928,-260.075 L 120.697,-260.095 L 120.521,-260.129 L 120.4,-260.175 L 120.315,-260.24
 L 120.246,-260.328 L 120.193,-260.439 L 120.156,-260.572 L 120.131,-260.761 L 120.113,-261.037 L 120.102,-261.4
 L 120.098,-261.851 L 120.098,-265.844 L 120.102,-266.316 L 120.113,-266.693 L 120.131,-266.977 L 120.156,-267.166
 L 120.195,-267.298 L 120.251,-267.412 L 120.326,-267.507 L 120.419,-267.584 L 120.541,-267.643 L 120.705,-267.685
 L 120.909,-267.71 L 121.154,-267.718 L 121.495,-267.718 L 121.495,-268 L 117.828,-268 L 117.342,-267.996
 L 116.913,-267.984 L 116.543,-267.964 L 116.23,-267.936 L 115.942,-267.892 L 115.647,-267.823 L 115.343,-267.73
 L 115.031,-267.612 L 114.725,-267.468 L 114.438,-267.293 L 114.17,-267.089 L 113.921,-266.855 L 113.694,-266.59
 L 113.493,-266.293 L 113.317,-265.964 L 113.167,-265.603 L 113.047,-265.217 L 112.961,-264.81 L 112.91,-264.385
 L 112.893,-263.94 L 112.924,-263.329 L 113.019,-262.756 L 113.176,-262.219 L 113.396,-261.72 L 113.681,-261.264
 L 114.031,-260.858 L 114.448,-260.503 L 114.93,-260.197 L 115.497,-259.951 L 116.164,-259.775 L 116.933,-259.67
 L 117.804,-259.635 z
M 117.507,-259.94 L 117.091,-259.975 L 116.718,-260.033 L 116.388,-260.114 L 116.087,-260.228 L 115.8,-260.383
 L 115.526,-260.579 L 115.266,-260.816 L 115.028,-261.094 L 114.819,-261.409 L 114.639,-261.764 L 114.489,-262.156
 L 114.37,-262.583 L 114.285,-263.037 L 114.234,-263.52 L 114.218,-264.031 L 114.247,-264.675 L 114.334,-265.26
 L 114.48,-265.785 L 114.684,-266.25 L 114.931,-266.649 L 115.208,-266.976 L 115.512,-267.232 L 115.845,-267.416
 L 116.217,-267.545 L 116.637,-267.638 L 117.104,-267.693 L 117.62,-267.712 L 117.957,-267.703 L 118.23,-267.676
 L 118.44,-267.631 L 118.586,-267.569 L 118.689,-267.484 L 118.769,-267.372 L 118.826,-267.235 L 118.86,-267.071
 L 118.88,-266.839 L 118.895,-266.499 L 118.903,-266.049 L 118.906,-265.49 L 118.906,-259.959 L 118.669,-259.945
 L 118.434,-259.936 L 118.2,-259.93 L 117.967,-259.928 z
M 79.15,-248 L 78.85,-248 L 78.85,-188 L 79.15,-188 z
M 212.15,-248 L 211.85,-248 L 211.85,-188 L 212.15,-188 z
M 98.15,-248 L 97.85,-248 L 97.85,-188 L 98.15,-188 z
M 269.15,-248 L 268.85,-248 L 268.85,-188 L 269.15,-188 z
M 288.15,-248 L 287.85,-248 L 287.85,-188 L 288.15,-188 z
M 155.15,-248 L 154.85,-248 L 154.85,-188 L 155.15,-188 z
M 307.15,-248 L 306.85,-248 L 306.85,-188 L 307.15,-188 z
M 193.15,-248 L 192.85,-248 L 192.85,-188 L 193.15,-188 z
M 60.15,-248 L 59.85,-248 L 59.85,-188 L 60.15,-188 z
M 117.15,-248 L 116.85,-248 L 116.85,-188 L 117.15,-188 z
M 231.15,-248 L 230.85,-248 L 230.85,-188 L 231.15,-188 z
M 326.15,-248 L 325.85,-248 L 325.85,-188 L 326.15,-188 z
M 174.15,-248 L 173.85,-248 L 173.85,-188 L 174.15,-188 z
M 250.15,-248 L 249.85,-248 L 249.85,-188 L 250.15,-188 z
M 136.15,-248 L 135.85,-248 L 135.85,-188 L 136.15,-188 z
M 41.164,-212.922 L 41.7981,-213.086 L 42.3651,-213.359 L 42.8649,-213.741 L 43.2729,-214.208 L 43.5643,-214.737
 L 43.7392,-215.327 L 43.7975,-215.979 L 43.758,-216.522 L 43.6397,-217.017 L 43.4424,-217.464 L 43.1663,-217.863
 L 42.8216,-218.191 L 42.4188,-218.425 L 41.9578,-218.566 L 41.4385,-218.612 L 41.3229,-218.608 L 41.2073,-218.596
 L 41.0917,-218.575 L 40.9761,-218.545 L 41.5803,-218.963 L 42.0542,-219.296 L 42.454,-219.609 L 42.7797,-219.902
 L 43.0312,-220.175 L 43.2189,-220.443 L 43.353,-220.722 L 43.4334,-221.012 L 43.4602,-221.312 L 43.4208,-221.651
 L 43.3026,-221.973 L 43.1056,-222.279 L 42.8298,-222.569 L 42.4771,-222.815 L 42.0493,-222.991 L 41.5464,-223.097
 L 40.9685,-223.132 L 40.3982,-223.09 L 39.8886,-222.964 L 39.4396,-222.755 L 39.0512,-222.461 L 38.7379,-222.115
 L 38.5141,-221.75 L 38.3798,-221.366 L 38.3351,-220.962 L 38.3477,-220.76 L 38.3855,-220.566 L 38.4486,-220.38
 L 38.5368,-220.201 L 38.6396,-220.047 L 38.746,-219.938 L 38.8562,-219.872 L 38.9701,-219.85 L 39.0345,-219.857
 L 39.1156,-219.878 L 39.2136,-219.913 L 39.3283,-219.962 L 39.436,-220.017 L 39.5129,-220.07 L 39.5591,-220.121
 L 39.5745,-220.171 L 39.5712,-220.19 L 39.5614,-220.212 L 39.5451,-220.235 L 39.5223,-220.26 L 39.3232,-220.496
 L 39.181,-220.739 L 39.0957,-220.992 L 39.0672,-221.252 L 39.0996,-221.569 L 39.1968,-221.857 L 39.3587,-222.115
 L 39.5855,-222.344 L 39.8542,-222.532 L 40.142,-222.666 L 40.449,-222.746 L 40.7751,-222.773 L 41.0869,-222.747
 L 41.3661,-222.668 L 41.6127,-222.536 L 41.8266,-222.351 L 41.9995,-222.119 L 42.123,-221.843 L 42.1971,-221.524
 L 42.2218,-221.162 L 42.1981,-220.776 L 42.1268,-220.425 L 42.0079,-220.108 L 41.8416,-219.826 L 41.6015,-219.544
 L 41.2617,-219.229 L 40.8221,-218.88 L 40.2829,-218.498 L 40.0407,-218.331 L 39.8512,-218.195 L 39.7144,-218.09
 L 39.6302,-218.016 L 39.5797,-217.959 L 39.5436,-217.904 L 39.5219,-217.849 L 39.5147,-217.796 L 39.5287,-217.692
 L 39.5707,-217.618 L 39.6406,-217.573 L 39.7386,-217.558 L 39.794,-217.565 L 39.8486,-217.586 L 39.9022,-217.621
 L 39.9549,-217.67 L 40.2581,-217.944 L 40.5481,-218.139 L 40.8252,-218.257 L 41.0892,-218.296 L 41.3776,-218.26
 L 41.6459,-218.154 L 41.8942,-217.977 L 42.1225,-217.729 L 42.3135,-217.409 L 42.4499,-217.016 L 42.5318,-216.549
 L 42.5591,-216.008 L 42.5225,-215.336 L 42.4127,-214.758 L 42.2297,-214.274 L 41.9734,-213.884 L 41.6585,-213.584
 L 41.2992,-213.37 L 40.8957,-213.242 L 40.4479,-213.199 L 40.2609,-213.211 L 40.073,-213.249 L 39.8841,-213.312
 L 39.6944,-213.4 L 39.5116,-213.527 L 39.3512,-213.715 L 39.2132,-213.963 L 39.0975,-214.272 L 39.0014,-214.503
 L 38.8774,-214.669 L 38.7254,-214.768 L 38.5454,-214.801 L 38.4424,-214.791 L 38.3496,-214.763 L 38.2671,-214.715
 L 38.1948,-214.648 L 38.1361,-214.567 L 38.0941,-214.479 L 38.0689,-214.383 L 38.0605,-214.278 L 38.1048,-214.025
 L 38.2377,-213.78 L 38.4592,-213.544 L 38.7693,-213.316 L 39.1409,-213.12 L 39.547,-212.98 L 39.9876,-212.896
 L 40.4627,-212.868 z
M 345.602,-212.91 L 346.111,-213.036 L 346.56,-213.245 L 346.949,-213.539 L 347.262,-213.885 L 347.486,-214.25
 L 347.62,-214.634 L 347.665,-215.038 L 347.652,-215.24 L 347.614,-215.434 L 347.551,-215.62 L 347.463,-215.799
 L 347.36,-215.953 L 347.254,-216.062 L 347.144,-216.128 L 347.03,-216.15 L 346.966,-216.143 L 346.884,-216.122
 L 346.786,-216.087 L 346.672,-216.038 L 346.564,-215.983 L 346.487,-215.93 L 346.441,-215.879 L 346.426,-215.829
 L 346.429,-215.81 L 346.439,-215.788 L 346.455,-215.765 L 346.478,-215.74 L 346.677,-215.504 L 346.819,-215.261
 L 346.904,-215.008 L 346.933,-214.748 L 346.9,-214.431 L 346.803,-214.143 L 346.641,-213.885 L 346.415,-213.656
 L 346.146,-213.468 L 345.858,-213.334 L 345.551,-213.254 L 345.225,-213.227 L 344.913,-213.253 L 344.634,-213.332
 L 344.387,-213.464 L 344.173,-213.649 L 344,-213.881 L 343.877,-214.157 L 343.803,-214.476 L 343.778,-214.838
 L 343.802,-215.224 L 343.873,-215.575 L 343.992,-215.892 L 344.158,-216.174 L 344.399,-216.456 L 344.738,-216.771
 L 345.178,-217.12 L 345.717,-217.502 L 345.959,-217.669 L 346.149,-217.805 L 346.286,-217.91 L 346.37,-217.984
 L 346.42,-218.041 L 346.456,-218.096 L 346.478,-218.151 L 346.485,-218.204 L 346.471,-218.308 L 346.429,-218.382
 L 346.359,-218.427 L 346.261,-218.442 L 346.206,-218.435 L 346.151,-218.414 L 346.098,-218.379 L 346.045,-218.33
 L 345.742,-218.056 L 345.452,-217.861 L 345.175,-217.743 L 344.911,-217.704 L 344.622,-217.74 L 344.354,-217.846
 L 344.106,-218.023 L 343.878,-218.271 L 343.686,-218.591 L 343.55,-218.984 L 343.468,-219.451 L 343.441,-219.992
 L 343.478,-220.664 L 343.587,-221.242 L 343.77,-221.726 L 344.027,-222.116 L 344.342,-222.416 L 344.701,-222.63
 L 345.104,-222.758 L 345.552,-222.801 L 345.739,-222.789 L 345.927,-222.751 L 346.116,-222.688 L 346.306,-222.6
 L 346.488,-222.473 L 346.649,-222.285 L 346.787,-222.037 L 346.903,-221.728 L 346.999,-221.497 L 347.123,-221.331
 L 347.275,-221.232 L 347.455,-221.199 L 347.558,-221.209 L 347.65,-221.237 L 347.733,-221.285 L 347.805,-221.352
 L 347.864,-221.433 L 347.906,-221.521 L 347.931,-221.617 L 347.939,-221.722 L 347.895,-221.975 L 347.762,-222.22
 L 347.541,-222.456 L 347.231,-222.684 L 346.859,-222.88 L 346.453,-223.02 L 346.012,-223.104 L 345.537,-223.132
 L 344.836,-223.078 L 344.202,-222.914 L 343.635,-222.641 L 343.135,-222.259 L 342.727,-221.792 L 342.436,-221.263
 L 342.261,-220.673 L 342.203,-220.021 L 342.242,-219.478 L 342.36,-218.983 L 342.558,-218.536 L 342.834,-218.137
 L 343.178,-217.809 L 343.581,-217.575 L 344.042,-217.434 L 344.561,-217.388 L 344.677,-217.392 L 344.793,-217.404
 L 344.908,-217.425 L 345.024,-217.455 L 344.42,-217.037 L 343.946,-216.704 L 343.546,-216.391 L 343.22,-216.098
 L 342.969,-215.825 L 342.781,-215.557 L 342.647,-215.278 L 342.567,-214.988 L 342.54,-214.688 L 342.579,-214.349
 L 342.697,-214.027 L 342.894,-213.721 L 343.17,-213.431 L 343.523,-213.185 L 343.951,-213.009 L 344.454,-212.903
 L 345.032,-212.868 z
M 136.15,-179 L 135.85,-179 L 135.85,-119 L 136.15,-119 z
M 212.15,-179 L 211.85,-179 L 211.85,-119 L 212.15,-119 z
M 326.15,-179 L 325.85,-179 L 325.85,-119 L 326.15,-119 z
M 307.15,-179 L 306.85,-179 L 306.85,-119 L 307.15,-119 z
M 79.15,-179 L 78.85,-179 L 78.85,-119 L 79.15,-119 z
M 117.15,-149.656 L 126.452,-140.354 L 126.664,-140.566 L 117.224,-150.006 L 126.664,-159.446 L 126.452,-159.658
 L 117.15,-150.356 L 117.15,-179 L 116.85,-179 L 116.85,-150.38 L 107.572,-159.658 L 107.36,-159.446
 L 116.8,-150.006 L 107.36,-140.566 L 107.572,-140.354 L 116.85,-149.632 L 116.85,-119 L 117.15,-119
 z
M 98.15,-179 L 97.85,-179 L 97.85,-119 L 98.15,-119 z
M 288.15,-179 L 287.85,-179 L 287.85,-119 L 288.15,-119 z
M 250.15,-179 L 249.85,-179 L 249.85,-119 L 250.15,-119 z
M 231.15,-179 L 230.85,-179 L 230.85,-119 L 231.15,-119 z
M 269.15,-149.656 L 278.452,-140.354 L 278.664,-140.566 L 269.224,-150.006 L 278.664,-159.446 L 278.452,-159.658
 L 269.15,-150.356 L 269.15,-179 L 268.85,-179 L 268.85,-150.38 L 259.572,-159.658 L 259.36,-159.446
 L 268.8,-150.006 L 259.36,-140.566 L 259.572,-140.354 L 268.85,-149.632 L 268.85,-119 L 269.15,-119
 z
M 155.15,-179 L 154.85,-179 L 154.85,-119 L 155.15,-119 z
M 174.15,-179 L 173.85,-179 L 173.85,-119 L 174.15,-119 z
M 193.15,-135.438 L 206.712,-149 L 193.15,-162.562 L 193.15,-179 L 192.85,-179 L 192.85,-162.562
 L 179.288,-149 L 192.85,-135.438 L 192.85,-119 L 193.15,-119 z
M 193.15,-162.138 L 206.288,-149 L 193.15,-135.862 z
M 179.712,-149 L 192.85,-162.138 L 192.85,-135.862 z
M 60.15,-179 L 59.85,-179 L 59.85,-119 L 60.15,-119 z
M 43.7703,-145.272 L 39.0283,-145.272 L 39.5397,-145.721 L 40.1271,-146.267 L 40.7904,-146.912 L 41.5297,-147.656
 L 42.235,-148.398 L 42.7963,-149.038 L 43.2136,-149.576 L 43.4869,-150.013 L 43.6631,-150.405 L 43.789,-150.807
 L 43.8645,-151.22 L 43.8896,-151.643 L 43.8335,-152.284 L 43.6649,-152.841 L 43.384,-153.313 L 42.9907,-153.702
 L 42.5275,-154.006 L 42.0368,-154.223 L 41.5185,-154.353 L 40.9728,-154.396 L 40.4538,-154.354 L 39.9563,-154.229
 L 39.4803,-154.021 L 39.0257,-153.728 L 38.6373,-153.365 L 38.3599,-152.942 L 38.1934,-152.461 L 38.138,-151.92
 L 38.1578,-151.581 L 38.2173,-151.275 L 38.3165,-151.001 L 38.4554,-150.76 L 38.6084,-150.562 L 38.7496,-150.421
 L 38.8792,-150.337 L 38.9971,-150.308 L 39.0848,-150.323 L 39.1838,-150.366 L 39.294,-150.439 L 39.4154,-150.54
 L 39.5266,-150.649 L 39.606,-150.747 L 39.6536,-150.832 L 39.6695,-150.905 L 39.6555,-150.951 L 39.6136,-151.006
 L 39.5436,-151.07 L 39.4458,-151.144 L 39.1816,-151.372 L 38.9929,-151.636 L 38.8797,-151.939 L 38.842,-152.278
 L 38.8711,-152.587 L 38.9584,-152.886 L 39.104,-153.176 L 39.3078,-153.457 L 39.5648,-153.698 L 39.8697,-153.871
 L 40.2226,-153.974 L 40.6235,-154.009 L 41.0382,-153.971 L 41.4175,-153.859 L 41.7614,-153.671 L 42.0698,-153.408
 L 42.3242,-153.066 L 42.5059,-152.639 L 42.6149,-152.128 L 42.6513,-151.532 L 42.6154,-151 L 42.5077,-150.471
 L 42.3282,-149.944 L 42.077,-149.421 L 41.7444,-148.874 L 41.321,-148.278 L 40.8067,-147.634 L 40.2015,-146.94
 L 39.579,-146.27 L 39.0129,-145.697 L 38.5033,-145.22 L 38.05,-144.84 L 38.05,-144.378 L 42.4425,-144.378
 L 42.6345,-144.376 L 42.7855,-144.368 L 42.8955,-144.355 L 42.9645,-144.337 L 43.007,-144.305 L 43.0373,-144.251
 L 43.0555,-144.173 L 43.0616,-144.073 L 43.0602,-144.013 L 43.056,-143.959 L 43.0489,-143.912 L 43.0391,-143.872
 L 43.0196,-143.805 L 43.0056,-143.738 L 42.9973,-143.671 L 42.9945,-143.604 L 43.345,-143.604 z
M 345.546,-143.646 L 346.044,-143.771 L 346.52,-143.979 L 346.974,-144.272 L 347.363,-144.635 L 347.64,-145.058
 L 347.807,-145.539 L 347.862,-146.08 L 347.842,-146.419 L 347.783,-146.725 L 347.683,-146.999 L 347.545,-147.24
 L 347.392,-147.438 L 347.25,-147.579 L 347.121,-147.663 L 347.003,-147.692 L 346.915,-147.677 L 346.816,-147.634
 L 346.706,-147.561 L 346.585,-147.46 L 346.473,-147.351 L 346.394,-147.253 L 346.346,-147.168 L 346.331,-147.095
 L 346.344,-147.049 L 346.386,-146.994 L 346.456,-146.93 L 346.554,-146.856 L 346.818,-146.628 L 347.007,-146.364
 L 347.12,-146.061 L 347.158,-145.722 L 347.129,-145.413 L 347.042,-145.114 L 346.896,-144.824 L 346.692,-144.543
 L 346.435,-144.302 L 346.13,-144.129 L 345.777,-144.026 L 345.376,-143.991 L 344.962,-144.029 L 344.582,-144.141
 L 344.239,-144.329 L 343.93,-144.592 L 343.676,-144.934 L 343.494,-145.361 L 343.385,-145.872 L 343.349,-146.468
 L 343.385,-147 L 343.492,-147.529 L 343.672,-148.056 L 343.923,-148.579 L 344.256,-149.126 L 344.679,-149.722
 L 345.193,-150.366 L 345.799,-151.06 L 346.421,-151.73 L 346.987,-152.303 L 347.497,-152.78 L 347.95,-153.16
 L 347.95,-153.622 L 343.558,-153.622 L 343.365,-153.624 L 343.214,-153.632 L 343.104,-153.645 L 343.035,-153.663
 L 342.993,-153.695 L 342.963,-153.749 L 342.944,-153.827 L 342.938,-153.927 L 342.94,-153.987 L 342.944,-154.041
 L 342.951,-154.088 L 342.961,-154.128 L 342.98,-154.195 L 342.994,-154.262 L 343.003,-154.329 L 343.006,-154.396
 L 342.655,-154.396 L 342.23,-152.728 L 346.972,-152.728 L 346.46,-152.279 L 345.873,-151.733 L 345.21,-151.088
 L 344.47,-150.344 L 343.765,-149.602 L 343.204,-148.962 L 342.786,-148.424 L 342.513,-147.987 L 342.337,-147.595
 L 342.211,-147.193 L 342.136,-146.78 L 342.11,-146.357 L 342.167,-145.716 L 342.335,-145.159 L 342.616,-144.687
 L 343.009,-144.298 L 343.472,-143.994 L 343.963,-143.777 L 344.481,-143.647 L 345.027,-143.604 z
M 155.15,-110 L 154.85,-110 L 154.85,-50 L 155.15,-50 z
M 307.15,-110 L 306.85,-110 L 306.85,-50 L 307.15,-50 z
M 250.15,-110 L 249.85,-110 L 249.85,-50 L 250.15,-50 z
M 174.15,-110 L 173.85,-110 L 173.85,-50 L 174.15,-50 z
M 269.15,-110 L 268.85,-110 L 268.85,-50 L 269.15,-50 z
M 231.15,-110 L 230.85,-110 L 230.85,-50 L 231.15,-50 z
M 288.15,-110 L 287.85,-110 L 287.85,-50 L 288.15,-50 z
M 136.15,-110 L 135.85,-110 L 135.85,-50 L 136.15,-50 z
M 60.15,-110 L 59.85,-110 L 59.85,-50 L 60.15,-50 z
M 79.15,-110 L 78.85,-110 L 78.85,-50 L 79.15,-50 z
M 117.15,-110 L 116.85,-110 L 116.85,-50 L 117.15,-50 z
M 326.15,-110 L 325.85,-110 L 325.85,-50 L 326.15,-50 z
M 193.15,-110 L 192.85,-110 L 192.85,-50 L 193.15,-50 z
M 98.15,-110 L 97.85,-110 L 97.85,-50 L 98.15,-50 z
M 212.15,-110 L 211.85,-110 L 211.85,-50 L 212.15,-50 z
M 345.078,-75.2081 L 345.512,-75.3664 L 346.031,-75.4658 L 346.634,-75.5064 L 346.634,-75.8499 L 346.313,-75.8499
 L 346.072,-75.8599 L 345.875,-75.89 L 345.724,-75.9401 L 345.617,-76.0103 L 345.543,-76.0938 L 345.486,-76.1838
 L 345.448,-76.2803 L 345.427,-76.3834 L 345.418,-76.5394 L 345.411,-76.7947 L 345.406,-77.1493 L 345.405,-77.6033
 L 345.405,-82.9158 L 345.407,-83.3763 L 345.412,-83.7356 L 345.42,-83.9938 L 345.431,-84.1507 L 345.453,-84.2533
 L 345.491,-84.3485 L 345.546,-84.4361 L 345.617,-84.5164 L 345.721,-84.5833 L 345.872,-84.6311 L 346.069,-84.6597
 L 346.314,-84.6693 L 346.56,-84.6693 L 346.56,-85.0125 L 343.202,-85.0125 L 343.202,-84.6693 L 343.493,-84.6693
 L 343.714,-84.6609 L 343.899,-84.6357 L 344.047,-84.5937 L 344.159,-84.535 L 344.242,-84.4603 L 344.306,-84.3708
 L 344.349,-84.2663 L 344.372,-84.1469 L 344.384,-83.9748 L 344.392,-83.7122 L 344.397,-83.3592 L 344.398,-82.9157
 L 344.398,-74.991 L 344.726,-74.991 z
M 42.7984,-75.3307 L 42.5067,-75.3307 L 42.2856,-75.3391 L 42.1009,-75.3643 L 41.9527,-75.4063 L 41.841,-75.465
 L 41.7576,-75.5397 L 41.6942,-75.6292 L 41.651,-75.7337 L 41.6278,-75.8531 L 41.6164,-76.0252 L 41.6082,-76.2878
 L 41.6033,-76.6408 L 41.6016,-77.0843 L 41.6016,-85.009 L 41.2735,-85.009 L 40.9225,-84.7919 L 40.4876,-84.6336
 L 39.969,-84.5342 L 39.3664,-84.4936 L 39.3664,-84.1501 L 39.6865,-84.1501 L 39.9283,-84.1401 L 40.1249,-84.11
 L 40.2764,-84.0599 L 40.3827,-83.9897 L 40.4574,-83.9062 L 40.514,-83.8162 L 40.5524,-83.7197 L 40.5726,-83.6166
 L 40.5824,-83.4606 L 40.5893,-83.2053 L 40.5935,-82.8507 L 40.5949,-82.3967 L 40.5949,-77.0842 L 40.5933,-76.6237
 L 40.5884,-76.2644 L 40.5803,-76.0062 L 40.5689,-75.8493 L 40.5474,-75.7467 L 40.5093,-75.6515 L 40.4543,-75.5639
 L 40.3826,-75.4836 L 40.279,-75.4167 L 40.1284,-75.3689 L 39.9308,-75.3403 L 39.6861,-75.3307 L 39.4404,-75.3307
 L 39.4404,-74.9875 L 42.7984,-74.9875 z
M 326.96,-29.9246 L 327.826,-30.1478 L 328.594,-30.5198 L 329.264,-31.0405 L 329.807,-31.6814 L 330.195,-32.4139
 L 330.428,-33.238 L 330.506,-34.1536 L 330.425,-35.0932 L 330.182,-35.9283 L 329.776,-36.6589 L 329.209,-37.285
 L 328.52,-37.7871 L 327.752,-38.1457 L 326.905,-38.3609 L 325.977,-38.4326 L 325.058,-38.3602 L 324.219,-38.1427
 L 323.459,-37.7802 L 322.779,-37.2728 L 322.218,-36.6456 L 321.818,-35.9238 L 321.577,-35.1074 L 321.497,-34.1963
 L 321.576,-33.262 L 321.813,-32.4246 L 322.208,-31.6841 L 322.761,-31.0405 L 323.437,-30.5198 L 324.201,-30.1478
 L 325.054,-29.9246 L 325.995,-29.8502 z
M 325.335,-30.2181 L 324.688,-30.4058 L 324.141,-30.7186 L 323.693,-31.1565 L 323.345,-31.7192 L 323.096,-32.4063
 L 322.947,-33.2178 L 322.897,-34.1537 L 322.947,-35.0763 L 323.096,-35.8788 L 323.345,-36.5611 L 323.693,-37.1232
 L 324.134,-37.5625 L 324.663,-37.8763 L 325.28,-38.0646 L 325.983,-38.1274 L 326.698,-38.0631 L 327.322,-37.8702
 L 327.857,-37.5488 L 328.301,-37.0988 L 328.651,-36.5283 L 328.901,-35.8452 L 329.05,-35.0496 L 329.1,-34.1414
 L 329.05,-33.2109 L 328.898,-32.4033 L 328.644,-31.7185 L 328.289,-31.1565 L 327.847,-30.7186 L 327.331,-30.4058
 L 326.743,-30.2181 L 326.081,-30.1555 z
M 174.406,-29.8747 L 174.877,-29.9479 L 175.367,-30.0701 L 175.876,-30.241 L 176.24,-30.3665 L 176.566,-30.4562
 L 176.856,-30.51 L 177.11,-30.5279 L 177.169,-30.5264 L 177.233,-30.5218 L 177.301,-30.5142 L 177.372,-30.5036
 L 177.372,-31.3821 L 177.376,-31.8665 L 177.389,-32.2522 L 177.41,-32.5392 L 177.439,-32.7274 L 177.482,-32.8563
 L 177.542,-32.9653 L 177.62,-33.0545 L 177.716,-33.1239 L 177.845,-33.176 L 178.022,-33.2131 L 178.246,-33.2354
 L 178.518,-33.2429 L 178.518,-33.5366 L 174.947,-33.5366 L 174.947,-33.2429 L 175.142,-33.2429 L 175.367,-33.2381
 L 175.554,-33.2238 L 175.703,-33.2 L 175.814,-33.1666 L 175.899,-33.1193 L 175.973,-33.0537 L 176.035,-32.9698
 L 176.085,-32.8677 L 176.124,-32.7287 L 176.152,-32.5344 L 176.168,-32.2849 L 176.174,-31.98 L 176.162,-31.7085
 L 176.127,-31.4614 L 176.068,-31.2388 L 175.985,-31.0405 L 175.87,-30.8615 L 175.713,-30.6966 L 175.516,-30.5457
 L 175.277,-30.4091 L 175.011,-30.2956 L 174.73,-30.2146 L 174.434,-30.166 L 174.124,-30.1498 L 173.53,-30.2072
 L 172.987,-30.3794 L 172.493,-30.6664 L 172.05,-31.0683 L 171.685,-31.6079 L 171.423,-32.3081 L 171.267,-33.1689
 L 171.215,-34.1902 L 171.269,-35.211 L 171.431,-36.064 L 171.702,-36.7491 L 172.081,-37.2664 L 172.533,-37.6456
 L 173.022,-37.9164 L 173.549,-38.079 L 174.113,-38.1331 L 174.656,-38.0866 L 175.157,-37.947 L 175.616,-37.7142
 L 176.032,-37.3885 L 176.389,-36.983 L 176.669,-36.5111 L 176.872,-35.9729 L 176.999,-35.3683 L 177.293,-35.3683
 L 177.293,-38.1331 L 176.999,-38.1331 L 176.963,-37.8902 L 176.908,-37.6556 L 176.834,-37.4294 L 176.742,-37.2115
 L 176.163,-37.7458 L 175.513,-38.1274 L 174.79,-38.3563 L 173.996,-38.4326 L 173.082,-38.3491 L 172.268,-38.0984
 L 171.556,-37.6807 L 170.944,-37.0958 L 170.452,-36.3999 L 170.101,-35.6491 L 169.891,-34.8434 L 169.821,-33.9827
 L 169.894,-33.1245 L 170.115,-32.3445 L 170.483,-31.6427 L 170.999,-31.0192 L 171.625,-30.5078 L 172.327,-30.1425
 L 173.103,-29.9233 L 173.953,-29.8502 z
M 99.0291,-29.9274 L 99.7642,-30.159 L 100.424,-30.545 L 101.008,-31.0853 L 101.14,-30.889 L 101.25,-30.6782
 L 101.339,-30.4529 L 101.405,-30.2131 L 101.667,-30.2131 L 101.667,-33.1104 L 101.405,-33.1104 L 101.347,-32.7467
 L 101.248,-32.3764 L 101.108,-31.9997 L 100.926,-31.6164 L 100.705,-31.258 L 100.447,-30.9558 L 100.154,-30.7096
 L 99.8241,-30.5197 L 99.4782,-30.378 L 99.1362,-30.2768 L 98.7979,-30.2161 L 98.4635,-30.1958 L 97.8667,-30.2579
 L 97.321,-30.4439 L 96.8263,-30.754 L 96.3828,-31.1881 L 96.0171,-31.7386 L 95.7559,-32.3979 L 95.5991,-33.1659
 L 95.5469,-34.0427 L 95.5947,-34.969 L 95.7383,-35.7815 L 95.9776,-36.4802 L 96.3126,-37.0653 L 96.7289,-37.5274
 L 97.2119,-37.8575 L 97.7616,-38.0556 L 98.3781,-38.1216 L 98.8954,-38.0808 L 99.3856,-37.9583 L 99.8487,-37.7542
 L 100.285,-37.4685 L 100.672,-37.0782 L 100.987,-36.5605 L 101.232,-35.9154 L 101.405,-35.143 L 101.667,-35.143
 L 101.594,-38.2802 L 101.325,-38.2802 L 101.285,-38.0048 L 101.218,-37.7339 L 101.126,-37.4677 L 101.008,-37.206
 L 100.798,-37.4328 L 100.54,-37.6492 L 100.235,-37.8554 L 99.8816,-38.0512 L 99.4939,-38.2181 L 99.0844,-38.3373
 L 98.6531,-38.4088 L 98.2001,-38.4326 L 97.65,-38.3998 L 97.1227,-38.3014 L 96.6184,-38.1373 L 96.137,-37.9077
 L 95.693,-37.6103 L 95.3008,-37.2431 L 94.9605,-36.806 L 94.6721,-36.2992 L 94.4424,-35.7485 L 94.2784,-35.1799
 L 94.18,-34.5933 L 94.1472,-33.9888 L 94.2183,-33.1007 L 94.4318,-32.3041 L 94.7875,-31.599 L 95.2855,-30.9856
 L 95.8957,-30.4889 L 96.5879,-30.1341 L 97.3621,-29.9212 L 98.2184,-29.8502 z
M 58.2325,-30.2808 L 58.0431,-30.2928 L 57.8716,-30.3288 L 57.7181,-30.3888 L 57.5825,-30.4728 L 57.4717,-30.58
 L 57.3926,-30.7096 L 57.3451,-30.8618 L 57.3293,-31.0363 L 57.359,-31.2595 L 57.4483,-31.5817 L 57.5971,-32.0029
 L 57.8053,-32.5231 L 58.0189,-33.047 L 61.1644,-33.047 L 61.7995,-31.5178 L 61.9223,-31.2188 L 62.0101,-30.9861
 L 62.0628,-30.8197 L 62.0804,-30.7195 L 62.0672,-30.5994 L 62.0277,-30.5009 L 61.9618,-30.4241 L 61.8697,-30.3691
 L 61.7401,-30.3305 L 61.5621,-30.3029 L 61.3356,-30.2863 L 61.0607,-30.2808 L 61.0607,-30 L 64.315,-30
 L 64.315,-30.2808 L 64.1118,-30.31 L 63.9357,-30.3548 L 63.7867,-30.4153 L 63.6647,-30.4914 L 63.5619,-30.5831
 L 63.4701,-30.6905 L 63.3893,-30.8135 L 63.3197,-30.9522 L 62.9411,-31.8189 L 60.175,-38.3923 L 59.9367,-38.3923
 L 57.5312,-32.649 L 57.4145,-32.3736 L 57.3267,-32.1638 L 57.268,-32.0195 L 57.2382,-31.9409 L 57.0558,-31.4975
 L 56.8871,-31.1376 L 56.7322,-30.8612 L 56.591,-30.6683 L 56.4391,-30.5309 L 56.2522,-30.4204 L 56.0301,-30.3371
 L 55.773,-30.2808 L 55.773,-30 L 58.2325,-30 z
M 58.1348,-33.3235 L 59.5946,-36.8533 L 61.0607,-33.3235 z
M 116.658,-30.004 L 117.087,-30.016 L 117.457,-30.036 L 117.77,-30.0641 L 118.058,-30.1083 L 118.353,-30.177
 L 118.657,-30.2701 L 118.969,-30.3876 L 119.275,-30.5323 L 119.562,-30.7067 L 119.83,-30.9109 L 120.079,-31.1448
 L 120.306,-31.4097 L 120.507,-31.7066 L 120.683,-32.0355 L 120.833,-32.3965 L 120.953,-32.7833 L 121.039,-33.1896
 L 121.09,-33.6153 L 121.107,-34.0604 L 121.076,-34.6708 L 120.981,-35.2442 L 120.824,-35.7805 L 120.604,-36.2798
 L 120.319,-36.7357 L 119.969,-37.1416 L 119.552,-37.4974 L 119.07,-37.8033 L 118.503,-38.049 L 117.836,-38.2245
 L 117.067,-38.3299 L 116.196,-38.365 L 115.831,-38.3596 L 115.326,-38.3436 L 114.684,-38.3169 L 113.902,-38.2796
 L 112.541,-38.2124 L 112.541,-37.9315 L 112.785,-37.9315 L 113.072,-37.9248 L 113.303,-37.9048 L 113.479,-37.8714
 L 113.6,-37.8247 L 113.685,-37.7598 L 113.754,-37.672 L 113.807,-37.5614 L 113.844,-37.4278 L 113.869,-37.2391
 L 113.887,-36.9631 L 113.898,-36.5997 L 113.902,-36.1489 L 113.902,-32.1561 L 113.898,-31.6843 L 113.887,-31.3068
 L 113.869,-31.0234 L 113.844,-30.8344 L 113.805,-30.7018 L 113.749,-30.5879 L 113.674,-30.4927 L 113.581,-30.4162
 L 113.459,-30.3574 L 113.295,-30.3154 L 113.091,-30.2903 L 112.846,-30.2819 L 112.505,-30.2819 L 112.505,-30
 L 116.172,-30 z
M 116.043,-30.297 L 115.77,-30.3239 L 115.56,-30.3687 L 115.414,-30.4315 L 115.311,-30.5164 L 115.231,-30.6276
 L 115.174,-30.7652 L 115.14,-30.9291 L 115.12,-31.1607 L 115.105,-31.5014 L 115.097,-31.9513 L 115.094,-32.5103
 L 115.094,-38.0414 L 115.331,-38.0548 L 115.566,-38.0644 L 115.8,-38.0701 L 116.033,-38.072 L 116.493,-38.0604
 L 116.909,-38.0255 L 117.282,-37.9673 L 117.612,-37.8858 L 117.913,-37.7721 L 118.2,-37.6171 L 118.474,-37.421
 L 118.734,-37.1836 L 118.972,-36.9064 L 119.181,-36.5907 L 119.361,-36.2364 L 119.511,-35.8435 L 119.63,-35.4173
 L 119.715,-34.9629 L 119.766,-34.4803 L 119.782,-33.9694 L 119.753,-33.3247 L 119.666,-32.7399 L 119.52,-32.2151
 L 119.316,-31.7501 L 119.069,-31.351 L 118.792,-31.0237 L 118.488,-30.768 L 118.155,-30.5841 L 117.783,-30.4546
 L 117.363,-30.362 L 116.896,-30.3065 L 116.38,-30.288 z
M 79.2747,-30.0109 L 79.7902,-30.0435 L 80.2442,-30.0979 L 80.6368,-30.174 L 80.9824,-30.2854 L 81.2956,-30.4456
 L 81.5763,-30.6547 L 81.8246,-30.9126 L 82.0277,-31.2085 L 82.1727,-31.5314 L 82.2597,-31.8814 L 82.2887,-32.2585
 L 82.2459,-32.6886 L 82.1173,-33.0812 L 81.9031,-33.4364 L 81.6031,-33.7542 L 81.215,-34.0224 L 80.7364,-34.2288
 L 80.1673,-34.3734 L 79.5076,-34.4563 L 80.0567,-34.5616 L 80.5322,-34.7065 L 80.934,-34.8912 L 81.2623,-35.1155
 L 81.5173,-35.3795 L 81.6995,-35.6832 L 81.8088,-36.0266 L 81.8452,-36.4097 L 81.6331,-37.2643 L 80.9969,-37.8747
 L 79.9364,-38.241 L 78.4518,-38.3631 L 76.9015,-38.3143 L 75.5404,-38.2777 L 75.5404,-37.9978 L 75.6992,-37.9978
 L 75.986,-37.9909 L 76.2175,-37.9703 L 76.3936,-37.9359 L 76.5144,-37.8879 L 76.5996,-37.8215 L 76.6686,-37.7323
 L 76.7217,-37.6201 L 76.7587,-37.485 L 76.7841,-37.2939 L 76.8022,-37.0135 L 76.8131,-36.6438 L 76.8167,-36.1848
 L 76.8167,-32.1559 L 76.8133,-31.6841 L 76.803,-31.3066 L 76.7858,-31.0233 L 76.7617,-30.8343 L 76.7249,-30.7018
 L 76.6694,-30.5879 L 76.5951,-30.4927 L 76.5022,-30.4162 L 76.3795,-30.3574 L 76.216,-30.3154 L 76.0116,-30.2903
 L 75.7663,-30.2819 L 75.4487,-30.2819 L 75.4487,-30 L 78.6977,-30 z
M 78.0148,-34.5677 L 78.0148,-38.0459 L 78.139,-38.0538 L 78.2616,-38.0595 L 78.3827,-38.0629 L 78.5023,-38.064
 L 78.9256,-38.052 L 79.282,-38.0159 L 79.5714,-37.9559 L 79.7938,-37.8718 L 79.9708,-37.7655 L 80.1243,-37.6391
 L 80.2541,-37.4925 L 80.3603,-37.3256 L 80.443,-37.1304 L 80.502,-36.8985 L 80.5374,-36.63 L 80.5492,-36.3249
 L 80.5191,-35.8932 L 80.4289,-35.5256 L 80.2785,-35.2221 L 80.0679,-34.9826 L 79.7751,-34.8011 L 79.378,-34.6714
 L 78.8766,-34.5936 L 78.2708,-34.5677 z
M 78.7701,-30.2983 L 78.5635,-30.3292 L 78.4023,-30.3807 L 78.2865,-30.4528 L 78.2024,-30.5448 L 78.1362,-30.6558
 L 78.0879,-30.7859 L 78.0576,-30.9351 L 78.0389,-31.1476 L 78.0255,-31.4678 L 78.0175,-31.8955 L 78.0148,-32.4309
 L 78.0148,-34.2746 L 78.1354,-34.28 L 78.2529,-34.2838 L 78.3674,-34.286 L 78.4788,-34.2868 L 79.1222,-34.2565
 L 79.6608,-34.1654 L 80.0944,-34.0138 L 80.423,-33.8014 L 80.6647,-33.525 L 80.8374,-33.181 L 80.9409,-32.7695
 L 80.9755,-32.2905 L 80.9449,-31.8212 L 80.8534,-31.4144 L 80.7008,-31.0702 L 80.4871,-30.7886 L 80.2124,-30.5696
 L 79.8767,-30.4131 L 79.4799,-30.3193 L 79.022,-30.288 z
M 192.099,-30.2808 L 191.885,-30.2808 L 191.63,-30.29 L 191.42,-30.3174 L 191.254,-30.3632 L 191.133,-30.4273
 L 191.043,-30.5104 L 190.972,-30.6129 L 190.92,-30.7348 L 190.886,-30.8762 L 190.865,-31.0696 L 190.849,-31.3473
 L 190.84,-31.7093 L 190.837,-32.1558 L 190.837,-34.153 L 195.158,-34.153 L 195.158,-32.1558 L 195.154,-31.6838
 L 195.144,-31.3061 L 195.127,-31.0226 L 195.103,-30.8335 L 195.066,-30.7009 L 195.01,-30.5869 L 194.936,-30.4917
 L 194.843,-30.4152 L 194.721,-30.3564 L 194.558,-30.3144 L 194.356,-30.2892 L 194.114,-30.2808 L 193.827,-30.2808
 L 193.827,-30 L 197.594,-30 L 197.594,-30.2808 L 197.404,-30.2808 L 197.149,-30.29 L 196.938,-30.3174
 L 196.771,-30.3632 L 196.648,-30.4273 L 196.557,-30.5103 L 196.486,-30.6127 L 196.434,-30.7346 L 196.401,-30.876
 L 196.381,-31.0692 L 196.367,-31.3468 L 196.358,-31.7087 L 196.355,-32.155 L 196.355,-36.2147 L 196.359,-36.6832
 L 196.371,-37.0571 L 196.391,-37.3364 L 196.419,-37.521 L 196.459,-37.6475 L 196.515,-37.7523 L 196.586,-37.8353
 L 196.672,-37.8965 L 196.793,-37.9406 L 196.967,-37.9721 L 197.193,-37.991 L 197.472,-37.9973 L 197.594,-37.9973
 L 197.594,-38.2771 L 193.827,-38.2771 L 193.827,-37.9973 L 194.046,-37.9973 L 194.333,-37.9904 L 194.565,-37.9698
 L 194.741,-37.9355 L 194.861,-37.8874 L 194.946,-37.8215 L 195.015,-37.7334 L 195.067,-37.6231 L 195.103,-37.4908
 L 195.127,-37.3035 L 195.144,-37.0285 L 195.154,-36.6657 L 195.158,-36.2152 L 195.158,-34.5734 L 190.837,-34.5734
 L 190.837,-36.2147 L 190.841,-36.683 L 190.853,-37.0567 L 190.873,-37.3358 L 190.901,-37.5203 L 190.941,-37.6467
 L 190.996,-37.7514 L 191.067,-37.8344 L 191.154,-37.8956 L 191.274,-37.9397 L 191.447,-37.9711 L 191.67,-37.99
 L 191.946,-37.9963 L 192.099,-37.9963 L 192.099,-38.2771 L 188.378,-38.2771 L 188.378,-37.9963 L 188.53,-37.9963
 L 188.816,-37.9895 L 189.047,-37.9688 L 189.223,-37.9345 L 189.343,-37.8864 L 189.428,-37.8205 L 189.497,-37.7323
 L 189.55,-37.6221 L 189.587,-37.4897 L 189.612,-37.3024 L 189.63,-37.0274 L 189.641,-36.6645 L 189.645,-36.214
 L 189.645,-32.1547 L 189.641,-31.683 L 189.63,-31.3055 L 189.612,-31.0223 L 189.587,-30.8332 L 189.549,-30.7007
 L 189.493,-30.5868 L 189.418,-30.4916 L 189.325,-30.4151 L 189.203,-30.3563 L 189.039,-30.3144 L 188.836,-30.2892
 L 188.591,-30.2808 L 188.378,-30.2808 L 188.378,-30 L 192.099,-30 z
M 272.67,-32.4359 L 272.383,-32.4359 L 272.242,-31.9776 L 272.094,-31.5857 L 271.938,-31.2603 L 271.776,-31.0012
 L 271.607,-30.7951 L 271.434,-30.6288 L 271.257,-30.5021 L 271.074,-30.4151 L 270.865,-30.3563 L 270.607,-30.3144
 L 270.3,-30.2892 L 269.943,-30.2808 L 269.315,-30.2808 L 268.989,-30.2886 L 268.725,-30.3121 L 268.524,-30.3512
 L 268.384,-30.4059 L 268.287,-30.4748 L 268.21,-30.5563 L 268.154,-30.6503 L 268.119,-30.757 L 268.098,-30.9119
 L 268.083,-31.1508 L 268.073,-31.4736 L 268.07,-31.8803 L 268.07,-36.2147 L 268.074,-36.6832 L 268.086,-37.0571
 L 268.106,-37.3364 L 268.134,-37.521 L 268.174,-37.6475 L 268.229,-37.7523 L 268.3,-37.8353 L 268.387,-37.8965
 L 268.508,-37.9406 L 268.681,-37.9721 L 268.907,-37.991 L 269.185,-37.9973 L 269.551,-37.9973 L 269.551,-38.2771
 L 265.576,-38.2771 L 265.576,-37.9973 L 265.76,-37.9973 L 266.047,-37.9904 L 266.278,-37.9698 L 266.455,-37.9355
 L 266.576,-37.8874 L 266.661,-37.8214 L 266.73,-37.7333 L 266.783,-37.623 L 266.82,-37.4906 L 266.845,-37.3033
 L 266.864,-37.0282 L 266.874,-36.6653 L 266.878,-36.2147 L 266.878,-32.155 L 266.874,-31.6832 L 266.864,-31.3057
 L 266.845,-31.0224 L 266.82,-30.8333 L 266.782,-30.7007 L 266.725,-30.5868 L 266.65,-30.4916 L 266.557,-30.4151
 L 266.434,-30.3563 L 266.271,-30.3144 L 266.066,-30.2892 L 265.821,-30.2808 L 265.576,-30.2808 L 265.576,-30
 L 272.609,-30 z
M 213.894,-30.2808 L 213.65,-30.2808 L 213.391,-30.29 L 213.178,-30.3174 L 213.011,-30.3632 L 212.889,-30.4273
 L 212.799,-30.5103 L 212.728,-30.6127 L 212.677,-30.7346 L 212.644,-30.876 L 212.624,-31.0692 L 212.61,-31.3468
 L 212.601,-31.7087 L 212.598,-32.155 L 212.598,-36.2147 L 212.602,-36.6832 L 212.614,-37.0571 L 212.634,-37.3364
 L 212.663,-37.521 L 212.702,-37.6475 L 212.758,-37.7523 L 212.829,-37.8353 L 212.916,-37.8965 L 213.037,-37.9406
 L 213.211,-37.9721 L 213.438,-37.991 L 213.717,-37.9973 L 213.894,-37.9973 L 213.894,-38.2771 L 210.11,-38.2771
 L 210.11,-37.9973 L 210.287,-37.9973 L 210.573,-37.9904 L 210.804,-37.9698 L 210.98,-37.9355 L 211.102,-37.8874
 L 211.188,-37.8214 L 211.257,-37.7333 L 211.31,-37.623 L 211.345,-37.4906 L 211.369,-37.3033 L 211.387,-37.0282
 L 211.397,-36.6653 L 211.4,-36.2147 L 211.4,-32.155 L 211.397,-31.6832 L 211.387,-31.3057 L 211.369,-31.0224
 L 211.345,-30.8333 L 211.309,-30.7007 L 211.253,-30.5868 L 211.179,-30.4916 L 211.087,-30.4151 L 210.965,-30.3563
 L 210.802,-30.3144 L 210.598,-30.2892 L 210.353,-30.2808 L 210.11,-30.2808 L 210.11,-30 L 213.894,-30
 z
M 155.742,-30.2808 L 155.461,-30.2808 L 155.201,-30.29 L 154.986,-30.3174 L 154.818,-30.3632 L 154.696,-30.4272
 L 154.606,-30.5102 L 154.535,-30.6126 L 154.482,-30.7345 L 154.448,-30.8758 L 154.427,-31.069 L 154.412,-31.3464
 L 154.403,-31.7081 L 154.4,-32.1542 L 154.4,-34.2106 L 155.173,-34.2106 L 155.453,-34.2035 L 155.682,-34.1824
 L 155.862,-34.1472 L 155.992,-34.0979 L 156.091,-34.0294 L 156.177,-33.9364 L 156.249,-33.8192 L 156.309,-33.6775
 L 156.356,-33.5097 L 156.389,-33.3142 L 156.409,-33.0908 L 156.416,-32.8397 L 156.721,-32.8397 L 156.721,-35.76
 L 156.416,-35.76 L 156.4,-35.4094 L 156.354,-35.1228 L 156.277,-34.8999 L 156.169,-34.741 L 156.014,-34.6299
 L 155.797,-34.5505 L 155.516,-34.5029 L 155.173,-34.487 L 154.4,-34.487 L 154.4,-37.9963 L 156.015,-37.9963
 L 156.372,-37.9895 L 156.672,-37.9689 L 156.917,-37.9346 L 157.106,-37.8866 L 157.266,-37.811 L 157.423,-37.6939
 L 157.576,-37.5353 L 157.725,-37.3352 L 157.86,-37.0996 L 157.968,-36.8347 L 158.051,-36.5405 L 158.106,-36.217
 L 158.393,-36.217 L 158.326,-38.2771 L 151.943,-38.2771 L 151.943,-37.9963 L 152.089,-37.9963 L 152.376,-37.9895
 L 152.608,-37.9688 L 152.784,-37.9345 L 152.905,-37.8864 L 152.99,-37.8205 L 153.059,-37.7323 L 153.112,-37.6221
 L 153.149,-37.4897 L 153.175,-37.3024 L 153.193,-37.0274 L 153.204,-36.6645 L 153.207,-36.214 L 153.207,-32.1547
 L 153.204,-31.683 L 153.193,-31.3055 L 153.175,-31.0223 L 153.149,-30.8332 L 153.111,-30.7007 L 153.055,-30.5868
 L 152.98,-30.4916 L 152.887,-30.4151 L 152.764,-30.3563 L 152.6,-30.3144 L 152.396,-30.2892 L 152.151,-30.2808
 L 151.894,-30.2808 L 151.894,-30 L 155.742,-30 z
M 310.273,-36.6595 L 310.278,-36.9057 L 310.293,-37.1135 L 310.319,-37.2827 L 310.355,-37.4134 L 310.41,-37.5208
 L 310.492,-37.6202 L 310.601,-37.7116 L 310.738,-37.7949 L 310.903,-37.867 L 311.095,-37.9246 L 311.315,-37.9677
 L 311.563,-37.9963 L 311.563,-38.2771 L 308.562,-38.2771 L 308.562,-37.9963 L 308.798,-37.9883 L 309.016,-37.9643
 L 309.216,-37.9242 L 309.399,-37.8681 L 309.558,-37.7983 L 309.688,-37.717 L 309.789,-37.6243 L 309.86,-37.5201
 L 309.91,-37.3897 L 309.945,-37.218 L 309.966,-37.0051 L 309.973,-36.751 L 309.973,-31.8007 L 305.07,-38.2771
 L 302.629,-38.2771 L 302.629,-37.9963 L 302.932,-37.9906 L 303.176,-37.9734 L 303.361,-37.9448 L 303.487,-37.9048
 L 303.577,-37.8445 L 303.653,-37.7553 L 303.717,-37.637 L 303.768,-37.4897 L 303.806,-37.2887 L 303.834,-37.009
 L 303.851,-36.6508 L 303.856,-36.214 L 303.856,-31.8251 L 303.853,-31.484 L 303.842,-31.2116 L 303.824,-31.0079
 L 303.798,-30.8728 L 303.753,-30.7738 L 303.677,-30.6783 L 303.569,-30.5861 L 303.429,-30.4974 L 303.256,-30.4187
 L 303.047,-30.3563 L 302.804,-30.3104 L 302.526,-30.2808 L 302.526,-30 L 305.613,-30 L 305.613,-30.2808
 L 305.304,-30.2926 L 305.037,-30.3281 L 304.81,-30.3872 L 304.625,-30.47 L 304.477,-30.5669 L 304.361,-30.6684
 L 304.277,-30.7744 L 304.226,-30.8851 L 304.195,-31.0285 L 304.173,-31.233 L 304.16,-31.4986 L 304.156,-31.8251
 L 304.156,-37.569 L 310.01,-29.8099 L 310.273,-29.8099 z
M 249.184,-30.2808 L 249.026,-30.2808 L 248.769,-30.29 L 248.557,-30.3174 L 248.39,-30.3632 L 248.269,-30.4273
 L 248.179,-30.5103 L 248.109,-30.6127 L 248.056,-30.7346 L 248.023,-30.876 L 248.001,-31.0692 L 247.986,-31.3468
 L 247.977,-31.7087 L 247.974,-32.155 L 247.974,-33.6629 L 248.564,-34.1818 L 250.9,-31.8253 L 251.287,-31.422
 L 251.563,-31.0973 L 251.729,-30.8512 L 251.784,-30.6837 L 251.774,-30.6017 L 251.742,-30.5265 L 251.688,-30.4582
 L 251.614,-30.3968 L 251.496,-30.3461 L 251.312,-30.3098 L 251.063,-30.2881 L 250.748,-30.2808 L 250.583,-30.2808
 L 250.583,-30 L 254.88,-30 L 254.88,-30.2808 L 254.607,-30.2949 L 254.36,-30.3373 L 254.14,-30.4079
 L 253.947,-30.5067 L 253.723,-30.6731 L 253.411,-30.9463 L 253.012,-31.3263 L 252.525,-31.8131 L 249.424,-34.9449
 L 250.93,-36.3368 L 251.335,-36.7134 L 251.67,-37.019 L 251.935,-37.2537 L 252.132,-37.4173 L 252.297,-37.5394
 L 252.471,-37.6493 L 252.652,-37.747 L 252.842,-37.8324 L 253.035,-37.9019 L 253.228,-37.9515 L 253.421,-37.9813
 L 253.613,-37.9912 L 253.613,-38.2771 L 250.497,-38.2771 L 250.497,-37.9973 L 250.882,-37.9549 L 251.156,-37.8523
 L 251.321,-37.6893 L 251.376,-37.4661 L 251.321,-37.27 L 251.156,-37.0175 L 250.882,-36.7084 L 250.498,-36.3428
 L 247.974,-34.0658 L 247.974,-36.2147 L 247.978,-36.6832 L 247.99,-37.0571 L 248.01,-37.3364 L 248.038,-37.521
 L 248.078,-37.6475 L 248.133,-37.7523 L 248.204,-37.8353 L 248.291,-37.8965 L 248.412,-37.9406 L 248.585,-37.9721
 L 248.811,-37.991 L 249.089,-37.9973 L 249.241,-37.9973 L 249.241,-38.2771 L 245.578,-38.2771 L 245.578,-37.9973
 L 245.895,-37.9912 L 246.148,-37.9729 L 246.338,-37.9423 L 246.464,-37.8996 L 246.551,-37.8393 L 246.622,-37.7561
 L 246.678,-37.6501 L 246.718,-37.5211 L 246.746,-37.3342 L 246.766,-37.0541 L 246.778,-36.6809 L 246.782,-36.2147
 L 246.782,-32.155 L 246.778,-31.6832 L 246.767,-31.3057 L 246.749,-31.0224 L 246.724,-30.8333 L 246.686,-30.7007
 L 246.629,-30.5868 L 246.554,-30.4916 L 246.461,-30.4151 L 246.338,-30.3563 L 246.175,-30.3144 L 245.97,-30.2892
 L 245.725,-30.2808 L 245.469,-30.2808 L 245.469,-30 L 249.184,-30 z
M 229.148,-27.0684 L 229.528,-27.1211 L 229.883,-27.2088 L 230.211,-27.3317 L 230.511,-27.4871 L 230.78,-27.6728
 L 231.017,-27.8885 L 231.222,-28.1344 L 231.393,-28.3971 L 231.526,-28.6632 L 231.623,-28.9327 L 231.683,-29.2058
 L 231.719,-29.5118 L 231.745,-29.8803 L 231.76,-30.3115 L 231.765,-30.8051 L 231.765,-36.2137 L 231.769,-36.6822
 L 231.781,-37.0561 L 231.8,-37.3354 L 231.826,-37.52 L 231.865,-37.6465 L 231.92,-37.7513 L 231.99,-37.8343
 L 232.077,-37.8955 L 232.198,-37.9396 L 232.372,-37.9711 L 232.598,-37.99 L 232.877,-37.9963 L 233.084,-37.9963
 L 233.084,-38.2771 L 229.237,-38.2771 L 229.237,-37.9963 L 229.432,-37.9963 L 229.719,-37.9895 L 229.951,-37.9688
 L 230.127,-37.9345 L 230.248,-37.8864 L 230.333,-37.8204 L 230.402,-37.7323 L 230.455,-37.622 L 230.492,-37.4896
 L 230.517,-37.3023 L 230.536,-37.0272 L 230.546,-36.6643 L 230.55,-36.2137 L 230.55,-30.8051 L 230.544,-30.1613
 L 230.526,-29.6155 L 230.495,-29.1678 L 230.452,-28.8181 L 230.38,-28.5274 L 230.26,-28.2565 L 230.093,-28.0055
 L 229.878,-27.7743 L 229.626,-27.5807 L 229.346,-27.4423 L 229.039,-27.3593 L 228.705,-27.3317 L 228.541,-27.3385
 L 228.39,-27.3592 L 228.254,-27.3935 L 228.131,-27.4416 L 228.029,-27.5019 L 227.957,-27.5728 L 227.913,-27.6544
 L 227.898,-27.7468 L 227.903,-27.788 L 227.915,-27.8383 L 227.936,-27.8979 L 227.966,-27.9665 L 227.998,-28.0482
 L 228.02,-28.1283 L 228.034,-28.2068 L 228.039,-28.2839 L 228.027,-28.4071 L 227.994,-28.5205 L 227.937,-28.6239
 L 227.859,-28.7174 L 227.763,-28.7949 L 227.657,-28.8502 L 227.539,-28.8834 L 227.411,-28.8944 L 227.285,-28.8822
 L 227.169,-28.8456 L 227.064,-28.7845 L 226.969,-28.699 L 226.89,-28.5956 L 226.834,-28.4808 L 226.8,-28.3545
 L 226.789,-28.2167 L 226.82,-27.9869 L 226.915,-27.7735 L 227.074,-27.5765 L 227.296,-27.3958 L 227.576,-27.2449
 L 227.911,-27.1371 L 228.3,-27.0724 L 228.743,-27.0509 z
M 285.407,-30.2808 L 285.136,-30.3138 L 284.898,-30.3762 L 284.691,-30.4679 L 284.516,-30.5891 L 284.373,-30.7304
 L 284.263,-30.8828 L 284.184,-31.0462 L 284.138,-31.2208 L 284.111,-31.4405 L 284.092,-31.7397 L 284.081,-32.1181
 L 284.077,-32.576 L 284.077,-37.4226 L 287.379,-30 L 287.666,-30 L 290.943,-37.4226 L 290.943,-32.1548
 L 290.939,-31.683 L 290.928,-31.3055 L 290.91,-31.0223 L 290.885,-30.8332 L 290.847,-30.7007 L 290.79,-30.5868
 L 290.715,-30.4916 L 290.622,-30.4151 L 290.5,-30.3563 L 290.338,-30.3144 L 290.136,-30.2892 L 289.893,-30.2808
 L 289.601,-30.2808 L 289.601,-30 L 293.558,-30 L 293.558,-30.2808 L 293.191,-30.2808 L 292.933,-30.29
 L 292.72,-30.3174 L 292.553,-30.3632 L 292.431,-30.4273 L 292.341,-30.5103 L 292.27,-30.6127 L 292.218,-30.7346
 L 292.184,-30.876 L 292.162,-31.0692 L 292.147,-31.3467 L 292.138,-31.7085 L 292.135,-32.1547 L 292.135,-36.214
 L 292.139,-36.6824 L 292.151,-37.0563 L 292.171,-37.3356 L 292.199,-37.5202 L 292.239,-37.6467 L 292.294,-37.7514
 L 292.365,-37.8344 L 292.452,-37.8956 L 292.573,-37.9397 L 292.746,-37.9711 L 292.972,-37.99 L 293.25,-37.9963
 L 293.555,-37.9963 L 293.555,-38.2771 L 291.016,-38.2771 L 288.001,-31.4275 L 284.968,-38.2771 L 282.447,-38.2771
 L 282.447,-37.9963 L 282.672,-37.9963 L 282.959,-37.9895 L 283.19,-37.9688 L 283.366,-37.9345 L 283.487,-37.8864
 L 283.572,-37.8205 L 283.641,-37.7323 L 283.694,-37.6221 L 283.731,-37.4897 L 283.756,-37.3024 L 283.774,-37.0274
 L 283.785,-36.6645 L 283.789,-36.214 L 283.789,-32.6126 L 283.784,-32.1403 L 283.77,-31.7488 L 283.748,-31.4383
 L 283.716,-31.2086 L 283.663,-31.0268 L 283.578,-30.8599 L 283.46,-30.7079 L 283.31,-30.5707 L 283.131,-30.4553
 L 282.928,-30.3685 L 282.7,-30.3104 L 282.447,-30.2808 L 282.447,-30 L 285.407,-30 z
M 139.521,-32.5776 L 139.228,-32.5776 L 139.108,-32.1441 L 138.968,-31.7598 L 138.807,-31.4248 L 138.627,-31.139
 L 138.434,-30.9 L 138.236,-30.7053 L 138.033,-30.5549 L 137.825,-30.4487 L 137.6,-30.3753 L 137.346,-30.3228
 L 137.063,-30.2913 L 136.751,-30.2808 L 136.135,-30.2808 L 135.761,-30.297 L 135.466,-30.3456 L 135.251,-30.4267
 L 135.117,-30.5401 L 135.034,-30.7454 L 134.975,-31.1021 L 134.939,-31.6101 L 134.928,-32.2695 L 134.928,-34.2278
 L 135.836,-34.2278 L 136.082,-34.2235 L 136.29,-34.2103 L 136.459,-34.1885 L 136.589,-34.1578 L 136.694,-34.1126
 L 136.785,-34.0468 L 136.863,-33.9605 L 136.928,-33.8536 L 136.979,-33.7082 L 137.015,-33.5061 L 137.036,-33.2473
 L 137.044,-32.9318 L 137.33,-32.9318 L 137.33,-35.7658 L 137.044,-35.7658 L 137.039,-35.4844 L 137.025,-35.2532
 L 137.001,-35.0722 L 136.968,-34.9414 L 136.919,-34.8424 L 136.85,-34.7567 L 136.761,-34.6845 L 136.65,-34.6257
 L 136.507,-34.5802 L 136.319,-34.5476 L 136.085,-34.5281 L 135.806,-34.5216 L 134.928,-34.5216 L 134.928,-37.9973
 L 136.074,-37.9973 L 136.478,-37.9914 L 136.821,-37.9737 L 137.106,-37.9442 L 137.33,-37.9028 L 137.519,-37.8388
 L 137.694,-37.7412 L 137.856,-37.6101 L 138.004,-37.4455 L 138.141,-37.2327 L 138.266,-36.957 L 138.38,-36.6184
 L 138.483,-36.217 L 138.77,-36.217 L 138.575,-38.2771 L 132.662,-38.2771 L 132.662,-37.9973 L 132.935,-37.9899
 L 133.157,-37.9675 L 133.327,-37.9303 L 133.446,-37.8782 L 133.53,-37.8074 L 133.598,-37.7141 L 133.649,-37.5983
 L 133.683,-37.46 L 133.706,-37.27 L 133.722,-36.9991 L 133.732,-36.6474 L 133.735,-36.2147 L 133.735,-32.155
 L 133.732,-31.6851 L 133.723,-31.3133 L 133.708,-31.0395 L 133.687,-30.8638 L 133.654,-30.7427 L 133.605,-30.6326
 L 133.54,-30.5336 L 133.458,-30.4456 L 133.341,-30.3735 L 133.169,-30.322 L 132.943,-30.2911 L 132.662,-30.2808
 L 132.491,-30.2808 L 132.491,-30 L 139.344,-30 z
" stroke="black" fill="lightgray" stroke-width="0.5"/>
</svg>
