<?xml version="1.0" standalone="no"?>
<!DOCTYPE svg PUBLIC "-//W3C//DTD SVG 1.1//EN" "http://www.w3.org/Graphics/SVG/1.1/DTD/svg11.dtd">
<svg width="268mm" height="198mm" viewBox="-1 -198 268 198" xmlns="http://www.w3.org/2000/svg" version="1.1">
<title>OpenSCAD Model</title>
<path d="
M 266.65,-198 L 265.35,-198 L 265.35,-138 L 266.65,-138 z
M 247.65,-198 L 246.35,-198 L 246.35,-138 L 247.65,-138 z
M 228.65,-198 L 227.35,-198 L 227.35,-138 L 228.65,-138 z
M 209.65,-198 L 208.35,-198 L 208.35,-138 L 209.65,-138 z
M 190.65,-198 L 189.35,-198 L 189.35,-138 L 190.65,-138 z
M 171.65,-198 L 170.35,-198 L 170.35,-138 L 171.65,-138 z
M 152.65,-198 L 151.35,-198 L 151.35,-138 L 152.65,-138 z
M 133.65,-198 L 132.35,-198 L 132.35,-138 L 133.65,-138 z
M 114.65,-198 L 113.35,-198 L 113.35,-138 L 114.65,-138 z
M 95.65,-198 L 94.35,-198 L 94.35,-138 L 95.65,-138 z
M 76.65,-198 L 75.35,-198 L 75.35,-138 L 76.65,-138 z
M 57.65,-198 L 56.35,-198 L 56.35,-138 L 57.65,-138 z
M 38.65,-198 L 37.35,-198 L 37.35,-138 L 38.65,-138 z
M 19.65,-198 L 18.35,-198 L 18.35,-138 L 19.65,-138 z
M 0.65,-198 L -0.65,-198 L -0.65,-138 L 0.65,-138 z
M 133.65,-129 L 132.35,-129 L 132.35,-69 L 133.65,-69 z
M 247.65,-129 L 246.35,-129 L 246.35,-69 L 247.65,-69 z
M 38.65,-129 L 37.35,-129 L 37.35,-69 L 38.65,-69 z
M 57.65,-95.332 L 67.8365,-88.4611 L 68.5635,-89.5389 L 58.1704,-96.5491 L 68.5635,-103.559 L 67.8365,-104.637
 L 57.65,-97.7662 L 57.65,-129 L 56.35,-129 L 56.35,-97.777 L 46.1795,-104.637 L 45.4525,-103.559
 L 55.8456,-96.5491 L 45.4525,-89.5389 L 46.1795,-88.4611 L 56.35,-95.3212 L 56.35,-69 L 57.65,-69
 z
M 266.65,-129 L 265.35,-129 L 265.35,-69 L 266.65,-69 z
M 76.65,-129 L 75.35,-129 L 75.35,-69 L 76.65,-69 z
M 95.65,-129 L 94.35,-129 L 94.35,-69 L 95.65,-69 z
M 114.65,-129 L 113.35,-129 L 113.35,-69 L 114.65,-69 z
M 0.65,-129 L -0.65,-129 L -0.65,-69 L 0.65,-69 z
M 152.65,-129 L 151.35,-129 L 151.35,-69 L 152.65,-69 z
M 171.65,-129 L 170.35,-129 L 170.35,-69 L 171.65,-69 z
M 190.65,-129 L 189.35,-129 L 189.35,-69 L 190.65,-69 z
M 209.65,-95.332 L 219.837,-88.4611 L 220.563,-89.5389 L 210.17,-96.5491 L 220.563,-103.559 L 219.837,-104.637
 L 209.65,-97.7662 L 209.65,-129 L 208.35,-129 L 208.35,-97.777 L 198.179,-104.637 L 197.453,-103.559
 L 207.846,-96.5491 L 197.453,-89.5389 L 198.179,-88.4611 L 208.35,-95.3212 L 208.35,-69 L 209.65,-69
 z
M 19.65,-129 L 18.35,-129 L 18.35,-69 L 19.65,-69 z
M 228.65,-129 L 227.35,-129 L 227.35,-69 L 228.65,-69 z
M 266.65,-60 L 265.35,-60 L 265.35,-0 L 266.65,-0 z
M 247.65,-60 L 246.35,-60 L 246.35,-0 L 247.65,-0 z
M 228.65,-60 L 227.35,-60 L 227.35,-0 L 228.65,-0 z
M 209.65,-60 L 208.35,-60 L 208.35,-0 L 209.65,-0 z
M 190.65,-60 L 189.35,-60 L 189.35,-0 L 190.65,-0 z
M 171.65,-60 L 170.35,-60 L 170.35,-0 L 171.65,-0 z
M 152.65,-60 L 151.35,-60 L 151.35,-0 L 152.65,-0 z
M 133.65,-60 L 132.35,-60 L 132.35,-0 L 133.65,-0 z
M 114.65,-60 L 113.35,-60 L 113.35,-0 L 114.65,-0 z
M 95.65,-60 L 94.35,-60 L 94.35,-0 L 95.65,-0 z
M 76.65,-60 L 75.35,-60 L 75.35,-0 L 76.65,-0 z
M 57.65,-60 L 56.35,-60 L 56.35,-0 L 57.65,-0 z
M 38.65,-60 L 37.35,-60 L 37.35,-0 L 38.65,-0 z
M 19.65,-60 L 18.35,-60 L 18.35,-0 L 19.65,-0 z
M 0.65,-60 L -0.65,-60 L -0.65,-0 L 0.65,-0 z
" stroke="black" fill="lightgray" stroke-width="0.5"/>
</svg>
