  0
SECTION
  2
BLOCKS
  0
ENDSEC
  0
SECTION
  2
ENTITIES
  0
LINE
  8
0
 10
103.01
 20
52
 11
109.01
 21
52
  0
LINE
  8
0
 10
109.01
 20
52
 11
109.01
 21
49.01
  0
LINE
  8
0
 10
109.01
 20
49.01
 11
200.01
 21
49.01
  0
LINE
  8
0
 10
200.01
 20
49.01
 11
200.01
 21
199.01
  0
LINE
  8
0
 10
200.01
 20
199.01
 11
109.01
 21
199.01
  0
LINE
  8
0
 10
109.01
 20
199.01
 11
109.01
 21
196.02
  0
LINE
  8
0
 10
109.01
 20
196.02
 11
103.01
 21
196.02
  0
LINE
  8
0
 10
103.01
 20
196.02
 11
103.01
 21
199.01
  0
LINE
  8
0
 10
103.01
 20
199.01
 11
100.01
 21
199.01
  0
LINE
  8
0
 10
100.01
 20
199.01
 11
100.01
 21
49.01
  0
LINE
  8
0
 10
100.01
 20
49.01
 11
103.01
 21
49.01
  0
LINE
  8
0
 10
103.01
 20
49.01
 11
103.01
 21
52
  0
LINE
  8
0
 10
15.3077
 20
52.01
 11
21.6154
 21
52.01
  0
LINE
  8
0
 10
21.6154
 20
52.01
 11
21.6154
 21
49.01
  0
LINE
  8
0
 10
21.6154
 20
49.01
 11
27.9231
 21
49.01
  0
LINE
  8
0
 10
27.9231
 20
49.01
 11
27.9231
 21
52.01
  0
LINE
  8
0
 10
27.9231
 20
52.01
 11
34.2308
 21
52.01
  0
LINE
  8
0
 10
34.2308
 20
52.01
 11
34.2308
 21
49.01
  0
LINE
  8
0
 10
34.2308
 20
49.01
 11
40.5385
 21
49.01
  0
LINE
  8
0
 10
40.5385
 20
49.01
 11
40.5385
 21
52.01
  0
LINE
  8
0
 10
40.5385
 20
52.01
 11
46.8461
 21
52.01
  0
LINE
  8
0
 10
46.8461
 20
52.01
 11
46.8461
 21
49.01
  0
LINE
  8
0
 10
46.8461
 20
49.01
 11
53.1538
 21
49.01
  0
LINE
  8
0
 10
53.1538
 20
49.01
 11
53.1538
 21
52.01
  0
LINE
  8
0
 10
53.1538
 20
52.01
 11
59.4615
 21
52.01
  0
LINE
  8
0
 10
59.4615
 20
52.01
 11
59.4615
 21
49.01
  0
LINE
  8
0
 10
59.4615
 20
49.01
 11
65.7692
 21
49.01
  0
LINE
  8
0
 10
65.7692
 20
49.01
 11
65.7692
 21
52.01
  0
LINE
  8
0
 10
65.7692
 20
52.01
 11
72.0769
 21
52.01
  0
LINE
  8
0
 10
72.0769
 20
52.01
 11
72.0769
 21
49.01
  0
LINE
  8
0
 10
72.0769
 20
49.01
 11
78.3846
 21
49.01
  0
LINE
  8
0
 10
78.3846
 20
49.01
 11
78.3846
 21
52.01
  0
LINE
  8
0
 10
78.3846
 20
52.01
 11
84.6923
 21
52.01
  0
LINE
  8
0
 10
84.6923
 20
52.01
 11
84.6923
 21
49.01
  0
LINE
  8
0
 10
84.6923
 20
49.01
 11
91
 21
49.01
  0
LINE
  8
0
 10
91
 20
49.01
 11
91
 21
52.01
  0
LINE
  8
0
 10
91
 20
52.01
 11
97
 21
52.01
  0
LINE
  8
0
 10
97
 20
52.01
 11
97
 21
61.01
  0
LINE
  8
0
 10
97
 20
61.01
 11
100
 21
61.01
  0
LINE
  8
0
 10
100
 20
61.01
 11
100
 21
67.01
  0
LINE
  8
0
 10
100
 20
67.01
 11
97
 21
67.01
  0
LINE
  8
0
 10
97
 20
67.01
 11
97
 21
73.01
  0
LINE
  8
0
 10
97
 20
73.01
 11
100
 21
73.01
  0
LINE
  8
0
 10
100
 20
73.01
 11
100
 21
79.01
  0
LINE
  8
0
 10
100
 20
79.01
 11
97
 21
79.01
  0
LINE
  8
0
 10
97
 20
79.01
 11
97
 21
85.01
  0
LINE
  8
0
 10
97
 20
85.01
 11
100
 21
85.01
  0
LINE
  8
0
 10
100
 20
85.01
 11
100
 21
91.01
  0
LINE
  8
0
 10
100
 20
91.01
 11
97
 21
91.01
  0
LINE
  8
0
 10
97
 20
91.01
 11
97
 21
97.01
  0
LINE
  8
0
 10
97
 20
97.01
 11
100
 21
97.01
  0
LINE
  8
0
 10
100
 20
97.01
 11
100
 21
103.01
  0
LINE
  8
0
 10
100
 20
103.01
 11
97
 21
103.01
  0
LINE
  8
0
 10
97
 20
103.01
 11
97
 21
109.01
  0
LINE
  8
0
 10
97
 20
109.01
 11
100
 21
109.01
  0
LINE
  8
0
 10
100
 20
109.01
 11
100
 21
115.01
  0
LINE
  8
0
 10
100
 20
115.01
 11
97
 21
115.01
  0
LINE
  8
0
 10
97
 20
115.01
 11
97
 21
121.01
  0
LINE
  8
0
 10
97
 20
121.01
 11
100
 21
121.01
  0
LINE
  8
0
 10
100
 20
121.01
 11
100
 21
127.01
  0
LINE
  8
0
 10
100
 20
127.01
 11
97
 21
127.01
  0
LINE
  8
0
 10
97
 20
127.01
 11
97
 21
133.01
  0
LINE
  8
0
 10
97
 20
133.01
 11
100
 21
133.01
  0
LINE
  8
0
 10
100
 20
133.01
 11
100
 21
139.01
  0
LINE
  8
0
 10
100
 20
139.01
 11
97
 21
139.01
  0
LINE
  8
0
 10
97
 20
139.01
 11
97
 21
145.01
  0
LINE
  8
0
 10
97
 20
145.01
 11
100
 21
145.01
  0
LINE
  8
0
 10
100
 20
145.01
 11
100
 21
151.01
  0
LINE
  8
0
 10
100
 20
151.01
 11
97
 21
151.01
  0
LINE
  8
0
 10
97
 20
151.01
 11
97
 21
157.01
  0
LINE
  8
0
 10
97
 20
157.01
 11
100
 21
157.01
  0
LINE
  8
0
 10
100
 20
157.01
 11
100
 21
163.01
  0
LINE
  8
0
 10
100
 20
163.01
 11
97
 21
163.01
  0
LINE
  8
0
 10
97
 20
163.01
 11
97
 21
169.01
  0
LINE
  8
0
 10
97
 20
169.01
 11
100
 21
169.01
  0
LINE
  8
0
 10
100
 20
169.01
 11
100
 21
175.01
  0
LINE
  8
0
 10
100
 20
175.01
 11
97
 21
175.01
  0
LINE
  8
0
 10
97
 20
175.01
 11
97
 21
181.01
  0
LINE
  8
0
 10
97
 20
181.01
 11
100
 21
181.01
  0
LINE
  8
0
 10
100
 20
181.01
 11
100
 21
187.01
  0
LINE
  8
0
 10
100
 20
187.01
 11
97
 21
187.01
  0
LINE
  8
0
 10
97
 20
187.01
 11
97
 21
196.01
  0
LINE
  8
0
 10
97
 20
196.01
 11
91
 21
196.01
  0
LINE
  8
0
 10
91
 20
196.01
 11
91
 21
199.01
  0
LINE
  8
0
 10
91
 20
199.01
 11
84.6923
 21
199.01
  0
LINE
  8
0
 10
84.6923
 20
199.01
 11
84.6923
 21
196.01
  0
LINE
  8
0
 10
84.6923
 20
196.01
 11
78.3846
 21
196.01
  0
LINE
  8
0
 10
78.3846
 20
196.01
 11
78.3846
 21
199.01
  0
LINE
  8
0
 10
78.3846
 20
199.01
 11
72.0769
 21
199.01
  0
LINE
  8
0
 10
72.0769
 20
199.01
 11
72.0769
 21
196.01
  0
LINE
  8
0
 10
72.0769
 20
196.01
 11
65.7692
 21
196.01
  0
LINE
  8
0
 10
65.7692
 20
196.01
 11
65.7692
 21
199.01
  0
LINE
  8
0
 10
65.7692
 20
199.01
 11
59.4615
 21
199.01
  0
LINE
  8
0
 10
59.4615
 20
199.01
 11
59.4615
 21
196.01
  0
LINE
  8
0
 10
59.4615
 20
196.01
 11
53.1539
 21
196.01
  0
LINE
  8
0
 10
53.1539
 20
196.01
 11
53.1539
 21
199.01
  0
LINE
  8
0
 10
53.1539
 20
199.01
 11
46.8462
 21
199.01
  0
LINE
  8
0
 10
46.8462
 20
199.01
 11
46.8462
 21
196.01
  0
LINE
  8
0
 10
46.8462
 20
196.01
 11
40.5385
 21
196.01
  0
LINE
  8
0
 10
40.5385
 20
196.01
 11
40.5385
 21
199.01
  0
LINE
  8
0
 10
40.5385
 20
199.01
 11
34.2308
 21
199.01
  0
LINE
  8
0
 10
34.2308
 20
199.01
 11
34.2308
 21
196.01
  0
LINE
  8
0
 10
34.2308
 20
196.01
 11
27.9231
 21
196.01
  0
LINE
  8
0
 10
27.9231
 20
196.01
 11
27.9231
 21
199.01
  0
LINE
  8
0
 10
27.9231
 20
199.01
 11
21.6154
 21
199.01
  0
LINE
  8
0
 10
21.6154
 20
199.01
 11
21.6154
 21
196.01
  0
LINE
  8
0
 10
21.6154
 20
196.01
 11
15.3077
 21
196.01
  0
LINE
  8
0
 10
15.3077
 20
196.01
 11
15.3077
 21
199.01
  0
LINE
  8
0
 10
15.3077
 20
199.01
 11
9
 21
199.01
  0
LINE
  8
0
 10
9
 20
199.01
 11
9
 21
196.01
  0
LINE
  8
0
 10
9
 20
196.01
 11
2.99998
 21
196.01
  0
LINE
  8
0
 10
2.99998
 20
196.01
 11
2.99998
 21
187.01
  0
LINE
  8
0
 10
2.99998
 20
187.01
 11
0
 21
187.01
  0
LINE
  8
0
 10
0
 20
187.01
 11
0
 21
181.01
  0
LINE
  8
0
 10
0
 20
181.01
 11
2.99998
 21
181.01
  0
LINE
  8
0
 10
2.99998
 20
181.01
 11
2.99998
 21
175.01
  0
LINE
  8
0
 10
2.99998
 20
175.01
 11
0
 21
175.01
  0
LINE
  8
0
 10
0
 20
175.01
 11
0
 21
169.01
  0
LINE
  8
0
 10
0
 20
169.01
 11
2.99998
 21
169.01
  0
LINE
  8
0
 10
2.99998
 20
169.01
 11
2.99998
 21
163.01
  0
LINE
  8
0
 10
2.99998
 20
163.01
 11
0
 21
163.01
  0
LINE
  8
0
 10
0
 20
163.01
 11
0
 21
157.01
  0
LINE
  8
0
 10
0
 20
157.01
 11
2.99998
 21
157.01
  0
LINE
  8
0
 10
2.99998
 20
157.01
 11
2.99998
 21
151.01
  0
LINE
  8
0
 10
2.99998
 20
151.01
 11
0
 21
151.01
  0
LINE
  8
0
 10
0
 20
151.01
 11
0
 21
145.01
  0
LINE
  8
0
 10
0
 20
145.01
 11
2.99998
 21
145.01
  0
LINE
  8
0
 10
2.99998
 20
145.01
 11
2.99998
 21
139.01
  0
LINE
  8
0
 10
2.99998
 20
139.01
 11
0
 21
139.01
  0
LINE
  8
0
 10
0
 20
139.01
 11
0
 21
133.01
  0
LINE
  8
0
 10
0
 20
133.01
 11
2.99998
 21
133.01
  0
LINE
  8
0
 10
2.99998
 20
133.01
 11
3
 21
127.01
  0
LINE
  8
0
 10
3
 20
127.01
 11
0
 21
127.01
  0
LINE
  8
0
 10
0
 20
127.01
 11
0
 21
121.01
  0
LINE
  8
0
 10
0
 20
121.01
 11
3
 21
121.01
  0
LINE
  8
0
 10
3
 20
121.01
 11
3
 21
115.01
  0
LINE
  8
0
 10
3
 20
115.01
 11
0
 21
115.01
  0
LINE
  8
0
 10
0
 20
115.01
 11
0
 21
109.01
  0
LINE
  8
0
 10
0
 20
109.01
 11
3
 21
109.01
  0
LINE
  8
0
 10
3
 20
109.01
 11
3
 21
103.01
  0
LINE
  8
0
 10
3
 20
103.01
 11
0
 21
103.01
  0
LINE
  8
0
 10
0
 20
103.01
 11
0
 21
97.01
  0
LINE
  8
0
 10
0
 20
97.01
 11
3
 21
97.01
  0
LINE
  8
0
 10
3
 20
97.01
 11
3
 21
91.01
  0
LINE
  8
0
 10
3
 20
91.01
 11
0
 21
91.01
  0
LINE
  8
0
 10
0
 20
91.01
 11
0
 21
85.01
  0
LINE
  8
0
 10
0
 20
85.01
 11
3
 21
85.01
  0
LINE
  8
0
 10
3
 20
85.01
 11
3
 21
79.01
  0
LINE
  8
0
 10
3
 20
79.01
 11
0
 21
79.01
  0
LINE
  8
0
 10
0
 20
79.01
 11
0
 21
73.01
  0
LINE
  8
0
 10
0
 20
73.01
 11
3
 21
73.01
  0
LINE
  8
0
 10
3
 20
73.01
 11
3
 21
67.01
  0
LINE
  8
0
 10
3
 20
67.01
 11
0
 21
67.01
  0
LINE
  8
0
 10
0
 20
67.01
 11
0
 21
61.01
  0
LINE
  8
0
 10
0
 20
61.01
 11
3
 21
61.01
  0
LINE
  8
0
 10
3
 20
61.01
 11
3
 21
52.01
  0
LINE
  8
0
 10
3
 20
52.01
 11
9
 21
52.01
  0
LINE
  8
0
 10
9
 20
52.01
 11
9
 21
49.01
  0
LINE
  8
0
 10
9
 20
49.01
 11
15.3077
 21
49.01
  0
LINE
  8
0
 10
15.3077
 20
49.01
 11
15.3077
 21
52.01
  0
LINE
  8
0
 10
109.01
 20
3
 11
115.318
 21
3
  0
LINE
  8
0
 10
115.318
 20
3
 11
115.318
 21
0
  0
LINE
  8
0
 10
115.318
 20
0
 11
121.625
 21
0
  0
LINE
  8
0
 10
121.625
 20
0
 11
121.625
 21
3
  0
LINE
  8
0
 10
121.625
 20
3
 11
127.933
 21
3
  0
LINE
  8
0
 10
127.933
 20
3
 11
127.933
 21
0
  0
LINE
  8
0
 10
127.933
 20
0
 11
134.241
 21
0
  0
LINE
  8
0
 10
134.241
 20
0
 11
134.241
 21
3
  0
LINE
  8
0
 10
134.241
 20
3
 11
140.548
 21
3
  0
LINE
  8
0
 10
140.548
 20
3
 11
140.548
 21
0
  0
LINE
  8
0
 10
140.548
 20
0
 11
146.856
 21
0
  0
LINE
  8
0
 10
146.856
 20
0
 11
146.856
 21
3
  0
LINE
  8
0
 10
146.856
 20
3
 11
153.164
 21
3
  0
LINE
  8
0
 10
153.164
 20
3
 11
153.164
 21
0
  0
LINE
  8
0
 10
153.164
 20
0
 11
159.472
 21
0
  0
LINE
  8
0
 10
159.472
 20
0
 11
159.472
 21
3
  0
LINE
  8
0
 10
159.472
 20
3
 11
165.779
 21
3
  0
LINE
  8
0
 10
165.779
 20
3
 11
165.779
 21
0
  0
LINE
  8
0
 10
165.779
 20
0
 11
172.087
 21
0
  0
LINE
  8
0
 10
172.087
 20
0
 11
172.087
 21
3
  0
LINE
  8
0
 10
172.087
 20
3
 11
178.395
 21
3
  0
LINE
  8
0
 10
178.395
 20
3
 11
178.395
 21
0
  0
LINE
  8
0
 10
178.395
 20
0
 11
184.702
 21
0
  0
LINE
  8
0
 10
184.702
 20
0
 11
184.702
 21
3
  0
LINE
  8
0
 10
184.702
 20
3
 11
191.01
 21
3
  0
LINE
  8
0
 10
191.01
 20
3
 11
191.01
 21
0
  0
LINE
  8
0
 10
191.01
 20
0
 11
200.01
 21
0
  0
LINE
  8
0
 10
200.01
 20
0
 11
200.01
 21
9
  0
LINE
  8
0
 10
200.01
 20
9
 11
197.01
 21
9
  0
LINE
  8
0
 10
197.01
 20
9
 11
197.01
 21
16.3333
  0
LINE
  8
0
 10
197.01
 20
16.3333
 11
200.01
 21
16.3333
  0
LINE
  8
0
 10
200.01
 20
16.3333
 11
200.01
 21
23.6667
  0
LINE
  8
0
 10
200.01
 20
23.6667
 11
197.01
 21
23.6667
  0
LINE
  8
0
 10
197.01
 20
23.6667
 11
197.01
 21
31
  0
LINE
  8
0
 10
197.01
 20
31
 11
200.01
 21
31
  0
LINE
  8
0
 10
200.01
 20
31
 11
200.01
 21
31.0177
  0
LINE
  8
0
 10
200.01
 20
31.0177
 11
200.575
 21
31.0177
  0
LINE
  8
0
 10
200.575
 20
31.0177
 11
201.696
 21
31.1594
  0
LINE
  8
0
 10
201.696
 20
31.1594
 11
202.791
 21
31.4405
  0
LINE
  8
0
 10
202.791
 20
31.4405
 11
203.842
 21
31.8566
  0
LINE
  8
0
 10
203.842
 20
31.8566
 11
204.832
 21
32.401
  0
LINE
  8
0
 10
204.832
 20
32.401
 11
205.747
 21
33.0654
  0
LINE
  8
0
 10
205.747
 20
33.0654
 11
206.571
 21
33.8391
  0
LINE
  8
0
 10
206.571
 20
33.8391
 11
207.291
 21
34.7099
  0
LINE
  8
0
 10
207.291
 20
34.7099
 11
207.897
 21
35.6642
  0
LINE
  8
0
 10
207.897
 20
35.6642
 11
208.378
 21
36.6869
  0
LINE
  8
0
 10
208.378
 20
36.6869
 11
208.727
 21
37.7618
  0
LINE
  8
0
 10
208.727
 20
37.7618
 11
208.939
 21
38.872
  0
LINE
  8
0
 10
208.939
 20
38.872
 11
209.01
 21
40
  0
LINE
  8
0
 10
209.01
 20
40
 11
208.939
 21
41.128
  0
LINE
  8
0
 10
208.939
 20
41.128
 11
208.727
 21
42.2382
  0
LINE
  8
0
 10
208.727
 20
42.2382
 11
208.378
 21
43.3131
  0
LINE
  8
0
 10
208.378
 20
43.3131
 11
207.897
 21
44.3358
  0
LINE
  8
0
 10
207.897
 20
44.3358
 11
207.291
 21
45.2901
  0
LINE
  8
0
 10
207.291
 20
45.2901
 11
206.571
 21
46.1609
  0
LINE
  8
0
 10
206.571
 20
46.1609
 11
205.747
 21
46.9346
  0
LINE
  8
0
 10
205.747
 20
46.9346
 11
204.832
 21
47.5989
  0
LINE
  8
0
 10
204.832
 20
47.5989
 11
203.842
 21
48.1434
  0
LINE
  8
0
 10
203.842
 20
48.1434
 11
202.791
 21
48.5595
  0
LINE
  8
0
 10
202.791
 20
48.5595
 11
201.696
 21
48.8406
  0
LINE
  8
0
 10
201.696
 20
48.8406
 11
200.575
 21
48.9822
  0
LINE
  8
0
 10
200.575
 20
48.9822
 11
199.445
 21
48.9822
  0
LINE
  8
0
 10
199.445
 20
48.9822
 11
198.324
 21
48.8406
  0
LINE
  8
0
 10
198.324
 20
48.8406
 11
197.229
 21
48.5595
  0
LINE
  8
0
 10
197.229
 20
48.5595
 11
196.178
 21
48.1434
  0
LINE
  8
0
 10
196.178
 20
48.1434
 11
195.188
 21
47.5989
  0
LINE
  8
0
 10
195.188
 20
47.5989
 11
194.273
 21
46.9346
  0
LINE
  8
0
 10
194.273
 20
46.9346
 11
193.449
 21
46.1609
  0
LINE
  8
0
 10
193.449
 20
46.1609
 11
192.729
 21
45.2901
  0
LINE
  8
0
 10
192.729
 20
45.2901
 11
192.123
 21
44.3358
  0
LINE
  8
0
 10
192.123
 20
44.3358
 11
191.642
 21
43.3131
  0
LINE
  8
0
 10
191.642
 20
43.3131
 11
191.293
 21
42.2382
  0
LINE
  8
0
 10
191.293
 20
42.2382
 11
191.081
 21
41.128
  0
LINE
  8
0
 10
191.081
 20
41.128
 11
191.01
 21
40
  0
LINE
  8
0
 10
191.01
 20
40
 11
100.01
 21
40
  0
LINE
  8
0
 10
100.01
 20
40
 11
100.01
 21
31
  0
LINE
  8
0
 10
100.01
 20
31
 11
103.01
 21
31
  0
LINE
  8
0
 10
103.01
 20
31
 11
103.01
 21
23.6667
  0
LINE
  8
0
 10
103.01
 20
23.6667
 11
100.01
 21
23.6667
  0
LINE
  8
0
 10
100.01
 20
23.6667
 11
100.01
 21
16.3333
  0
LINE
  8
0
 10
100.01
 20
16.3333
 11
103.01
 21
16.3333
  0
LINE
  8
0
 10
103.01
 20
16.3333
 11
103.01
 21
9.00002
  0
LINE
  8
0
 10
103.01
 20
9.00002
 11
100.01
 21
9.00002
  0
LINE
  8
0
 10
100.01
 20
9.00002
 11
100.01
 21
0
  0
LINE
  8
0
 10
100.01
 20
0
 11
109.01
 21
0
  0
LINE
  8
0
 10
109.01
 20
0
 11
109.01
 21
3
  0
LINE
  8
0
 10
199.633
 20
34.0118
 11
198.886
 21
34.1063
  0
LINE
  8
0
 10
198.886
 20
34.1063
 11
198.156
 21
34.2937
  0
LINE
  8
0
 10
198.156
 20
34.2937
 11
197.455
 21
34.571
  0
LINE
  8
0
 10
197.455
 20
34.571
 11
196.795
 21
34.934
  0
LINE
  8
0
 10
196.795
 20
34.934
 11
196.185
 21
35.3769
  0
LINE
  8
0
 10
196.185
 20
35.3769
 11
195.636
 21
35.8927
  0
LINE
  8
0
 10
195.636
 20
35.8927
 11
195.156
 21
36.4733
  0
LINE
  8
0
 10
195.156
 20
36.4733
 11
194.752
 21
37.1095
  0
LINE
  8
0
 10
194.752
 20
37.1095
 11
194.431
 21
37.7913
  0
LINE
  8
0
 10
194.431
 20
37.7913
 11
194.199
 21
38.5079
  0
LINE
  8
0
 10
194.199
 20
38.5079
 11
194.057
 21
39.248
  0
LINE
  8
0
 10
194.057
 20
39.248
 11
194.01
 21
40
  0
LINE
  8
0
 10
194.01
 20
40
 11
194.057
 21
40.752
  0
LINE
  8
0
 10
194.057
 20
40.752
 11
194.199
 21
41.4921
  0
LINE
  8
0
 10
194.199
 20
41.4921
 11
194.431
 21
42.2087
  0
LINE
  8
0
 10
194.431
 20
42.2087
 11
194.752
 21
42.8905
  0
LINE
  8
0
 10
194.752
 20
42.8905
 11
195.156
 21
43.5267
  0
LINE
  8
0
 10
195.156
 20
43.5267
 11
195.636
 21
44.1073
  0
LINE
  8
0
 10
195.636
 20
44.1073
 11
196.185
 21
44.6231
  0
LINE
  8
0
 10
196.185
 20
44.6231
 11
196.795
 21
45.066
  0
LINE
  8
0
 10
196.795
 20
45.066
 11
197.455
 21
45.429
  0
LINE
  8
0
 10
197.455
 20
45.429
 11
198.156
 21
45.7063
  0
LINE
  8
0
 10
198.156
 20
45.7063
 11
198.886
 21
45.8937
  0
LINE
  8
0
 10
198.886
 20
45.8937
 11
199.633
 21
45.9882
  0
LINE
  8
0
 10
199.633
 20
45.9882
 11
200.387
 21
45.9882
  0
LINE
  8
0
 10
200.387
 20
45.9882
 11
201.134
 21
45.8937
  0
LINE
  8
0
 10
201.134
 20
45.8937
 11
201.864
 21
45.7063
  0
LINE
  8
0
 10
201.864
 20
45.7063
 11
202.565
 21
45.429
  0
LINE
  8
0
 10
202.565
 20
45.429
 11
203.225
 21
45.066
  0
LINE
  8
0
 10
203.225
 20
45.066
 11
203.835
 21
44.6231
  0
LINE
  8
0
 10
203.835
 20
44.6231
 11
204.384
 21
44.1073
  0
LINE
  8
0
 10
204.384
 20
44.1073
 11
204.864
 21
43.5267
  0
LINE
  8
0
 10
204.864
 20
43.5267
 11
205.268
 21
42.8905
  0
LINE
  8
0
 10
205.268
 20
42.8905
 11
205.589
 21
42.2087
  0
LINE
  8
0
 10
205.589
 20
42.2087
 11
205.821
 21
41.4921
  0
LINE
  8
0
 10
205.821
 20
41.4921
 11
205.963
 21
40.752
  0
LINE
  8
0
 10
205.963
 20
40.752
 11
206.01
 21
40
  0
LINE
  8
0
 10
206.01
 20
40
 11
205.963
 21
39.248
  0
LINE
  8
0
 10
205.963
 20
39.248
 11
205.821
 21
38.5079
  0
LINE
  8
0
 10
205.821
 20
38.5079
 11
205.589
 21
37.7913
  0
LINE
  8
0
 10
205.589
 20
37.7913
 11
205.268
 21
37.1095
  0
LINE
  8
0
 10
205.268
 20
37.1095
 11
204.864
 21
36.4733
  0
LINE
  8
0
 10
204.864
 20
36.4733
 11
204.384
 21
35.8927
  0
LINE
  8
0
 10
204.384
 20
35.8927
 11
203.835
 21
35.3769
  0
LINE
  8
0
 10
203.835
 20
35.3769
 11
203.225
 21
34.934
  0
LINE
  8
0
 10
203.225
 20
34.934
 11
202.565
 21
34.571
  0
LINE
  8
0
 10
202.565
 20
34.571
 11
201.864
 21
34.2937
  0
LINE
  8
0
 10
201.864
 20
34.2937
 11
201.134
 21
34.1063
  0
LINE
  8
0
 10
201.134
 20
34.1063
 11
200.387
 21
34.0118
  0
LINE
  8
0
 10
200.387
 20
34.0118
 11
199.633
 21
34.0118
  0
LINE
  8
0
 10
203.01
 20
43
 11
200.01
 21
43
  0
LINE
  8
0
 10
200.01
 20
43
 11
200.01
 21
40
  0
LINE
  8
0
 10
200.01
 20
40
 11
203.01
 21
40
  0
LINE
  8
0
 10
203.01
 20
40
 11
203.01
 21
43
  0
LINE
  8
0
 10
9
 20
3
 11
15.3077
 21
3
  0
LINE
  8
0
 10
15.3077
 20
3
 11
15.3077
 21
0
  0
LINE
  8
0
 10
15.3077
 20
0
 11
21.6154
 21
0
  0
LINE
  8
0
 10
21.6154
 20
0
 11
21.6154
 21
3
  0
LINE
  8
0
 10
21.6154
 20
3
 11
27.9231
 21
3
  0
LINE
  8
0
 10
27.9231
 20
3
 11
27.9231
 21
0
  0
LINE
  8
0
 10
27.9231
 20
0
 11
34.2308
 21
0
  0
LINE
  8
0
 10
34.2308
 20
0
 11
34.2308
 21
3
  0
LINE
  8
0
 10
34.2308
 20
3
 11
40.5385
 21
3
  0
LINE
  8
0
 10
40.5385
 20
3
 11
40.5385
 21
0
  0
LINE
  8
0
 10
40.5385
 20
0
 11
46.8461
 21
0
  0
LINE
  8
0
 10
46.8461
 20
0
 11
46.8461
 21
3
  0
LINE
  8
0
 10
46.8461
 20
3
 11
53.1538
 21
3
  0
LINE
  8
0
 10
53.1538
 20
3
 11
53.1538
 21
0
  0
LINE
  8
0
 10
53.1538
 20
0
 11
59.4615
 21
0
  0
LINE
  8
0
 10
59.4615
 20
0
 11
59.4615
 21
3
  0
LINE
  8
0
 10
59.4615
 20
3
 11
65.7692
 21
3
  0
LINE
  8
0
 10
65.7692
 20
3
 11
65.7692
 21
0
  0
LINE
  8
0
 10
65.7692
 20
0
 11
72.0769
 21
0
  0
LINE
  8
0
 10
72.0769
 20
0
 11
72.0769
 21
3
  0
LINE
  8
0
 10
72.0769
 20
3
 11
78.3846
 21
3
  0
LINE
  8
0
 10
78.3846
 20
3
 11
78.3846
 21
0
  0
LINE
  8
0
 10
78.3846
 20
0
 11
84.6923
 21
0
  0
LINE
  8
0
 10
84.6923
 20
0
 11
84.6923
 21
3
  0
LINE
  8
0
 10
84.6923
 20
3
 11
91
 21
3
  0
LINE
  8
0
 10
91
 20
3
 11
91
 21
0
  0
LINE
  8
0
 10
91
 20
0
 11
100
 21
0
  0
LINE
  8
0
 10
100
 20
0
 11
100
 21
9
  0
LINE
  8
0
 10
100
 20
9
 11
97
 21
9
  0
LINE
  8
0
 10
97
 20
9
 11
97
 21
16.3333
  0
LINE
  8
0
 10
97
 20
16.3333
 11
100
 21
16.3333
  0
LINE
  8
0
 10
100
 20
16.3333
 11
100
 21
23.6667
  0
LINE
  8
0
 10
100
 20
23.6667
 11
97
 21
23.6667
  0
LINE
  8
0
 10
97
 20
23.6667
 11
97
 21
31
  0
LINE
  8
0
 10
97
 20
31
 11
100
 21
31
  0
LINE
  8
0
 10
100
 20
31
 11
100
 21
40
  0
LINE
  8
0
 10
100
 20
40
 11
9
 21
40
  0
LINE
  8
0
 10
9
 20
40
 11
8.92903
 21
41.128
  0
LINE
  8
0
 10
8.92903
 20
41.128
 11
8.71724
 21
42.2382
  0
LINE
  8
0
 10
8.71724
 20
42.2382
 11
8.36798
 21
43.3131
  0
LINE
  8
0
 10
8.36798
 20
43.3131
 11
7.88675
 21
44.3358
  0
LINE
  8
0
 10
7.88675
 20
44.3358
 11
7.28114
 21
45.2901
  0
LINE
  8
0
 10
7.28114
 20
45.2901
 11
6.56071
 21
46.1609
  0
LINE
  8
0
 10
6.56071
 20
46.1609
 11
5.7368
 21
46.9346
  0
LINE
  8
0
 10
5.7368
 20
46.9346
 11
4.82243
 21
47.5989
  0
LINE
  8
0
 10
4.82243
 20
47.5989
 11
3.832
 21
48.1434
  0
LINE
  8
0
 10
3.832
 20
48.1434
 11
2.78114
 21
48.5595
  0
LINE
  8
0
 10
2.78114
 20
48.5595
 11
1.68642
 21
48.8406
  0
LINE
  8
0
 10
1.68642
 20
48.8406
 11
0.565109
 21
48.9822
  0
LINE
  8
0
 10
0.565109
 20
48.9822
 11
-0.565109
 21
48.9822
  0
LINE
  8
0
 10
-0.565109
 20
48.9822
 11
-1.68642
 21
48.8406
  0
LINE
  8
0
 10
-1.68642
 20
48.8406
 11
-2.78114
 21
48.5595
  0
LINE
  8
0
 10
-2.78114
 20
48.5595
 11
-3.832
 21
48.1434
  0
LINE
  8
0
 10
-3.832
 20
48.1434
 11
-4.82243
 21
47.5989
  0
LINE
  8
0
 10
-4.82243
 20
47.5989
 11
-5.7368
 21
46.9346
  0
LINE
  8
0
 10
-5.7368
 20
46.9346
 11
-6.56071
 21
46.1609
  0
LINE
  8
0
 10
-6.56071
 20
46.1609
 11
-7.28114
 21
45.2901
  0
LINE
  8
0
 10
-7.28114
 20
45.2901
 11
-7.88675
 21
44.3358
  0
LINE
  8
0
 10
-7.88675
 20
44.3358
 11
-8.36798
 21
43.3131
  0
LINE
  8
0
 10
-8.36798
 20
43.3131
 11
-8.71724
 21
42.2382
  0
LINE
  8
0
 10
-8.71724
 20
42.2382
 11
-8.92903
 21
41.128
  0
LINE
  8
0
 10
-8.92903
 20
41.128
 11
-9
 21
40
  0
LINE
  8
0
 10
-9
 20
40
 11
-8.92903
 21
38.872
  0
LINE
  8
0
 10
-8.92903
 20
38.872
 11
-8.71724
 21
37.7618
  0
LINE
  8
0
 10
-8.71724
 20
37.7618
 11
-8.36798
 21
36.6869
  0
LINE
  8
0
 10
-8.36798
 20
36.6869
 11
-7.88675
 21
35.6642
  0
LINE
  8
0
 10
-7.88675
 20
35.6642
 11
-7.28114
 21
34.7099
  0
LINE
  8
0
 10
-7.28114
 20
34.7099
 11
-6.56071
 21
33.8391
  0
LINE
  8
0
 10
-6.56071
 20
33.8391
 11
-5.7368
 21
33.0654
  0
LINE
  8
0
 10
-5.7368
 20
33.0654
 11
-4.82243
 21
32.401
  0
LINE
  8
0
 10
-4.82243
 20
32.401
 11
-3.832
 21
31.8566
  0
LINE
  8
0
 10
-3.832
 20
31.8566
 11
-2.78114
 21
31.4405
  0
LINE
  8
0
 10
-2.78114
 20
31.4405
 11
-1.68642
 21
31.1594
  0
LINE
  8
0
 10
-1.68642
 20
31.1594
 11
-0.565109
 21
31.0177
  0
LINE
  8
0
 10
-0.565109
 20
31.0177
 11
0
 21
31.0177
  0
LINE
  8
0
 10
0
 20
31.0177
 11
0
 21
31
  0
LINE
  8
0
 10
0
 20
31
 11
2.99998
 21
31
  0
LINE
  8
0
 10
2.99998
 20
31
 11
2.99998
 21
23.6667
  0
LINE
  8
0
 10
2.99998
 20
23.6667
 11
0
 21
23.6667
  0
LINE
  8
0
 10
0
 20
23.6667
 11
0
 21
16.3333
  0
LINE
  8
0
 10
0
 20
16.3333
 11
3
 21
16.3333
  0
LINE
  8
0
 10
3
 20
16.3333
 11
3
 21
9.00002
  0
LINE
  8
0
 10
3
 20
9.00002
 11
0
 21
9.00002
  0
LINE
  8
0
 10
0
 20
9.00002
 11
0
 21
0
  0
LINE
  8
0
 10
0
 20
0
 11
9
 21
0
  0
LINE
  8
0
 10
9
 20
0
 11
9
 21
3
  0
LINE
  8
0
 10
-0.37674
 20
34.0118
 11
-1.12428
 21
34.1063
  0
LINE
  8
0
 10
-1.12428
 20
34.1063
 11
-1.8541
 21
34.2937
  0
LINE
  8
0
 10
-1.8541
 20
34.2937
 11
-2.55467
 21
34.571
  0
LINE
  8
0
 10
-2.55467
 20
34.571
 11
-3.21495
 21
34.934
  0
LINE
  8
0
 10
-3.21495
 20
34.934
 11
-3.82454
 21
35.3769
  0
LINE
  8
0
 10
-3.82454
 20
35.3769
 11
-4.37381
 21
35.8927
  0
LINE
  8
0
 10
-4.37381
 20
35.8927
 11
-4.8541
 21
36.4733
  0
LINE
  8
0
 10
-4.8541
 20
36.4733
 11
-5.25783
 21
37.1095
  0
LINE
  8
0
 10
-5.25783
 20
37.1095
 11
-5.57864
 21
37.7913
  0
LINE
  8
0
 10
-5.57864
 20
37.7913
 11
-5.81149
 21
38.5079
  0
LINE
  8
0
 10
-5.81149
 20
38.5079
 11
-5.95268
 21
39.248
  0
LINE
  8
0
 10
-5.95268
 20
39.248
 11
-6
 21
40
  0
LINE
  8
0
 10
-6
 20
40
 11
-5.95268
 21
40.752
  0
LINE
  8
0
 10
-5.95268
 20
40.752
 11
-5.81149
 21
41.4921
  0
LINE
  8
0
 10
-5.81149
 20
41.4921
 11
-5.57864
 21
42.2087
  0
LINE
  8
0
 10
-5.57864
 20
42.2087
 11
-5.25783
 21
42.8905
  0
LINE
  8
0
 10
-5.25783
 20
42.8905
 11
-4.8541
 21
43.5267
  0
LINE
  8
0
 10
-4.8541
 20
43.5267
 11
-4.37381
 21
44.1073
  0
LINE
  8
0
 10
-4.37381
 20
44.1073
 11
-3.82454
 21
44.6231
  0
LINE
  8
0
 10
-3.82454
 20
44.6231
 11
-3.21495
 21
45.066
  0
LINE
  8
0
 10
-3.21495
 20
45.066
 11
-2.55467
 21
45.429
  0
LINE
  8
0
 10
-2.55467
 20
45.429
 11
-1.8541
 21
45.7063
  0
LINE
  8
0
 10
-1.8541
 20
45.7063
 11
-1.12428
 21
45.8937
  0
LINE
  8
0
 10
-1.12428
 20
45.8937
 11
-0.37674
 21
45.9882
  0
LINE
  8
0
 10
-0.37674
 20
45.9882
 11
0.37674
 21
45.9882
  0
LINE
  8
0
 10
0.37674
 20
45.9882
 11
1.12428
 21
45.8937
  0
LINE
  8
0
 10
1.12428
 20
45.8937
 11
1.8541
 21
45.7063
  0
LINE
  8
0
 10
1.8541
 20
45.7063
 11
2.55467
 21
45.429
  0
LINE
  8
0
 10
2.55467
 20
45.429
 11
3.21495
 21
45.066
  0
LINE
  8
0
 10
3.21495
 20
45.066
 11
3.82454
 21
44.6231
  0
LINE
  8
0
 10
3.82454
 20
44.6231
 11
4.37381
 21
44.1073
  0
LINE
  8
0
 10
4.37381
 20
44.1073
 11
4.8541
 21
43.5267
  0
LINE
  8
0
 10
4.8541
 20
43.5267
 11
5.25783
 21
42.8905
  0
LINE
  8
0
 10
5.25783
 20
42.8905
 11
5.57864
 21
42.2087
  0
LINE
  8
0
 10
5.57864
 20
42.2087
 11
5.81149
 21
41.4921
  0
LINE
  8
0
 10
5.81149
 20
41.4921
 11
5.95268
 21
40.752
  0
LINE
  8
0
 10
5.95268
 20
40.752
 11
6
 21
40
  0
LINE
  8
0
 10
6
 20
40
 11
5.95268
 21
39.248
  0
LINE
  8
0
 10
5.95268
 20
39.248
 11
5.81149
 21
38.5079
  0
LINE
  8
0
 10
5.81149
 20
38.5079
 11
5.57864
 21
37.7913
  0
LINE
  8
0
 10
5.57864
 20
37.7913
 11
5.25783
 21
37.1095
  0
LINE
  8
0
 10
5.25783
 20
37.1095
 11
4.8541
 21
36.4733
  0
LINE
  8
0
 10
4.8541
 20
36.4733
 11
4.37381
 21
35.8927
  0
LINE
  8
0
 10
4.37381
 20
35.8927
 11
3.82454
 21
35.3769
  0
LINE
  8
0
 10
3.82454
 20
35.3769
 11
3.21495
 21
34.934
  0
LINE
  8
0
 10
3.21495
 20
34.934
 11
2.55467
 21
34.571
  0
LINE
  8
0
 10
2.55467
 20
34.571
 11
1.8541
 21
34.2937
  0
LINE
  8
0
 10
1.8541
 20
34.2937
 11
1.12428
 21
34.1063
  0
LINE
  8
0
 10
1.12428
 20
34.1063
 11
0.37674
 21
34.0118
  0
LINE
  8
0
 10
0.37674
 20
34.0118
 11
-0.37674
 21
34.0118
  0
LINE
  8
0
 10
3
 20
43
 11
0
 21
43
  0
LINE
  8
0
 10
0
 20
43
 11
0
 21
40
  0
LINE
  8
0
 10
0
 20
40
 11
3
 21
40
  0
LINE
  8
0
 10
3
 20
40
 11
3
 21
43
  0
LINE
  8
0
 10
371.03
 20
3
 11
377.03
 21
3
  0
LINE
  8
0
 10
377.03
 20
3
 11
377.03
 21
0
  0
LINE
  8
0
 10
377.03
 20
0
 11
383.03
 21
0
  0
LINE
  8
0
 10
383.03
 20
0
 11
383.03
 21
3
  0
LINE
  8
0
 10
383.03
 20
3
 11
389.03
 21
3
  0
LINE
  8
0
 10
389.03
 20
3
 11
389.03
 21
0
  0
LINE
  8
0
 10
389.03
 20
0
 11
395.03
 21
0
  0
LINE
  8
0
 10
395.03
 20
0
 11
395.03
 21
3
  0
LINE
  8
0
 10
395.03
 20
3
 11
401.03
 21
3
  0
LINE
  8
0
 10
401.03
 20
3
 11
401.03
 21
0
  0
LINE
  8
0
 10
401.03
 20
0
 11
407.03
 21
0
  0
LINE
  8
0
 10
407.03
 20
0
 11
407.03
 21
3
  0
LINE
  8
0
 10
407.03
 20
3
 11
413.03
 21
3
  0
LINE
  8
0
 10
413.03
 20
3
 11
413.03
 21
0
  0
LINE
  8
0
 10
413.03
 20
0
 11
419.03
 21
0
  0
LINE
  8
0
 10
419.03
 20
0
 11
419.03
 21
3
  0
LINE
  8
0
 10
419.03
 20
3
 11
425.03
 21
3
  0
LINE
  8
0
 10
425.03
 20
3
 11
425.03
 21
0
  0
LINE
  8
0
 10
425.03
 20
0
 11
431.03
 21
0
  0
LINE
  8
0
 10
431.03
 20
0
 11
431.03
 21
3
  0
LINE
  8
0
 10
431.03
 20
3
 11
437.03
 21
3
  0
LINE
  8
0
 10
437.03
 20
3
 11
437.03
 21
0
  0
LINE
  8
0
 10
437.03
 20
0
 11
443.03
 21
0
  0
LINE
  8
0
 10
443.03
 20
0
 11
443.03
 21
3
  0
LINE
  8
0
 10
443.03
 20
3
 11
449.03
 21
3
  0
LINE
  8
0
 10
449.03
 20
3
 11
449.03
 21
0
  0
LINE
  8
0
 10
449.03
 20
0
 11
455.03
 21
0
  0
LINE
  8
0
 10
455.03
 20
0
 11
455.03
 21
3
  0
LINE
  8
0
 10
455.03
 20
3
 11
461.03
 21
3
  0
LINE
  8
0
 10
461.03
 20
3
 11
461.03
 21
0
  0
LINE
  8
0
 10
461.03
 20
0
 11
467.03
 21
0
  0
LINE
  8
0
 10
467.03
 20
0
 11
467.03
 21
3
  0
LINE
  8
0
 10
467.03
 20
3
 11
473.03
 21
3
  0
LINE
  8
0
 10
473.03
 20
3
 11
473.03
 21
0
  0
LINE
  8
0
 10
473.03
 20
0
 11
479.03
 21
0
  0
LINE
  8
0
 10
479.03
 20
0
 11
479.03
 21
3
  0
LINE
  8
0
 10
479.03
 20
3
 11
485.03
 21
3
  0
LINE
  8
0
 10
485.03
 20
3
 11
485.03
 21
0
  0
LINE
  8
0
 10
485.03
 20
0
 11
491.03
 21
0
  0
LINE
  8
0
 10
491.03
 20
0
 11
491.03
 21
3
  0
LINE
  8
0
 10
491.03
 20
3
 11
497.03
 21
3
  0
LINE
  8
0
 10
497.03
 20
3
 11
497.03
 21
0
  0
LINE
  8
0
 10
497.03
 20
0
 11
506.03
 21
0
  0
LINE
  8
0
 10
506.03
 20
0
 11
506.03
 21
9
  0
LINE
  8
0
 10
506.03
 20
9
 11
509.03
 21
9
  0
LINE
  8
0
 10
509.03
 20
9
 11
509.03
 21
16.3333
  0
LINE
  8
0
 10
509.03
 20
16.3333
 11
506.03
 21
16.3333
  0
LINE
  8
0
 10
506.03
 20
16.3333
 11
506.03
 21
23.6667
  0
LINE
  8
0
 10
506.03
 20
23.6667
 11
509.03
 21
23.6667
  0
LINE
  8
0
 10
509.03
 20
23.6667
 11
509.03
 21
31
  0
LINE
  8
0
 10
509.03
 20
31
 11
506.03
 21
31
  0
LINE
  8
0
 10
506.03
 20
31
 11
506.03
 21
40
  0
LINE
  8
0
 10
506.03
 20
40
 11
362.03
 21
40
  0
LINE
  8
0
 10
362.03
 20
40
 11
362.03
 21
31
  0
LINE
  8
0
 10
362.03
 20
31
 11
359.03
 21
31
  0
LINE
  8
0
 10
359.03
 20
31
 11
359.03
 21
23.6667
  0
LINE
  8
0
 10
359.03
 20
23.6667
 11
362.03
 21
23.6667
  0
LINE
  8
0
 10
362.03
 20
23.6667
 11
362.03
 21
16.3333
  0
LINE
  8
0
 10
362.03
 20
16.3333
 11
359.03
 21
16.3333
  0
LINE
  8
0
 10
359.03
 20
16.3333
 11
359.03
 21
9.00002
  0
LINE
  8
0
 10
359.03
 20
9.00002
 11
362.03
 21
9.00002
  0
LINE
  8
0
 10
362.03
 20
9.00002
 11
362.03
 21
0
  0
LINE
  8
0
 10
362.03
 20
0
 11
371.03
 21
0
  0
LINE
  8
0
 10
371.03
 20
0
 11
371.03
 21
3
  0
LINE
  8
0
 10
221.02
 20
3
 11
227.02
 21
3
  0
LINE
  8
0
 10
227.02
 20
3
 11
227.02
 21
0
  0
LINE
  8
0
 10
227.02
 20
0
 11
233.02
 21
0
  0
LINE
  8
0
 10
233.02
 20
0
 11
233.02
 21
3
  0
LINE
  8
0
 10
233.02
 20
3
 11
239.02
 21
3
  0
LINE
  8
0
 10
239.02
 20
3
 11
239.02
 21
0
  0
LINE
  8
0
 10
239.02
 20
0
 11
245.02
 21
0
  0
LINE
  8
0
 10
245.02
 20
0
 11
245.02
 21
3
  0
LINE
  8
0
 10
245.02
 20
3
 11
251.02
 21
3
  0
LINE
  8
0
 10
251.02
 20
3
 11
251.02
 21
0
  0
LINE
  8
0
 10
251.02
 20
0
 11
257.02
 21
0
  0
LINE
  8
0
 10
257.02
 20
0
 11
257.02
 21
3
  0
LINE
  8
0
 10
257.02
 20
3
 11
263.02
 21
3
  0
LINE
  8
0
 10
263.02
 20
3
 11
263.02
 21
0
  0
LINE
  8
0
 10
263.02
 20
0
 11
269.02
 21
0
  0
LINE
  8
0
 10
269.02
 20
0
 11
269.02
 21
3
  0
LINE
  8
0
 10
269.02
 20
3
 11
275.02
 21
3
  0
LINE
  8
0
 10
275.02
 20
3
 11
275.02
 21
0
  0
LINE
  8
0
 10
275.02
 20
0
 11
281.02
 21
0
  0
LINE
  8
0
 10
281.02
 20
0
 11
281.02
 21
3
  0
LINE
  8
0
 10
281.02
 20
3
 11
287.02
 21
3
  0
LINE
  8
0
 10
287.02
 20
3
 11
287.02
 21
0
  0
LINE
  8
0
 10
287.02
 20
0
 11
293.02
 21
0
  0
LINE
  8
0
 10
293.02
 20
0
 11
293.02
 21
3
  0
LINE
  8
0
 10
293.02
 20
3
 11
299.02
 21
3
  0
LINE
  8
0
 10
299.02
 20
3
 11
299.02
 21
0
  0
LINE
  8
0
 10
299.02
 20
0
 11
305.02
 21
0
  0
LINE
  8
0
 10
305.02
 20
0
 11
305.02
 21
3
  0
LINE
  8
0
 10
305.02
 20
3
 11
311.02
 21
3
  0
LINE
  8
0
 10
311.02
 20
3
 11
311.02
 21
0
  0
LINE
  8
0
 10
311.02
 20
0
 11
317.02
 21
0
  0
LINE
  8
0
 10
317.02
 20
0
 11
317.02
 21
3
  0
LINE
  8
0
 10
317.02
 20
3
 11
323.02
 21
3
  0
LINE
  8
0
 10
323.02
 20
3
 11
323.02
 21
0
  0
LINE
  8
0
 10
323.02
 20
0
 11
329.02
 21
0
  0
LINE
  8
0
 10
329.02
 20
0
 11
329.02
 21
3
  0
LINE
  8
0
 10
329.02
 20
3
 11
335.02
 21
3
  0
LINE
  8
0
 10
335.02
 20
3
 11
335.02
 21
0
  0
LINE
  8
0
 10
335.02
 20
0
 11
341.02
 21
0
  0
LINE
  8
0
 10
341.02
 20
0
 11
341.02
 21
3
  0
LINE
  8
0
 10
341.02
 20
3
 11
347.02
 21
3
  0
LINE
  8
0
 10
347.02
 20
3
 11
347.02
 21
0
  0
LINE
  8
0
 10
347.02
 20
0
 11
356.02
 21
0
  0
LINE
  8
0
 10
356.02
 20
0
 11
356.02
 21
9
  0
LINE
  8
0
 10
356.02
 20
9
 11
359.02
 21
9
  0
LINE
  8
0
 10
359.02
 20
9
 11
359.02
 21
16.3333
  0
LINE
  8
0
 10
359.02
 20
16.3333
 11
356.02
 21
16.3333
  0
LINE
  8
0
 10
356.02
 20
16.3333
 11
356.02
 21
23.6667
  0
LINE
  8
0
 10
356.02
 20
23.6667
 11
359.02
 21
23.6667
  0
LINE
  8
0
 10
359.02
 20
23.6667
 11
359.02
 21
31
  0
LINE
  8
0
 10
359.02
 20
31
 11
356.02
 21
31
  0
LINE
  8
0
 10
356.02
 20
31
 11
356.02
 21
40
  0
LINE
  8
0
 10
356.02
 20
40
 11
212.02
 21
40
  0
LINE
  8
0
 10
212.02
 20
40
 11
212.02
 21
31
  0
LINE
  8
0
 10
212.02
 20
31
 11
209.02
 21
31
  0
LINE
  8
0
 10
209.02
 20
31
 11
209.02
 21
23.6667
  0
LINE
  8
0
 10
209.02
 20
23.6667
 11
212.02
 21
23.6667
  0
LINE
  8
0
 10
212.02
 20
23.6667
 11
212.02
 21
16.3333
  0
LINE
  8
0
 10
212.02
 20
16.3333
 11
209.02
 21
16.3333
  0
LINE
  8
0
 10
209.02
 20
16.3333
 11
209.02
 21
9.00002
  0
LINE
  8
0
 10
209.02
 20
9.00002
 11
212.02
 21
9.00002
  0
LINE
  8
0
 10
212.02
 20
9.00002
 11
212.02
 21
0
  0
LINE
  8
0
 10
212.02
 20
0
 11
221.02
 21
0
  0
LINE
  8
0
 10
221.02
 20
0
 11
221.02
 21
3
  0
ENDSEC
  0
SECTION
  2
OBJECTS
  0
DICTIONARY
  0
ENDSEC
  0
EOF
