  0
SECTION
  2
BLOCKS
  0
ENDSEC
  0
SECTION
  2
ENTITIES
  0
LINE
  8
0
 10
12.5
 20
50.01
 11
17.5
 21
50.01
  0
LINE
  8
0
 10
17.5
 20
50.01
 11
17.5
 21
47.51
  0
LINE
  8
0
 10
17.5
 20
47.51
 11
22.5
 21
47.51
  0
LINE
  8
0
 10
22.5
 20
47.51
 11
22.5
 21
50.01
  0
LINE
  8
0
 10
22.5
 20
50.01
 11
27.5
 21
50.01
  0
LINE
  8
0
 10
27.5
 20
50.01
 11
27.5
 21
47.51
  0
LINE
  8
0
 10
27.5
 20
47.51
 11
32.5
 21
47.51
  0
LINE
  8
0
 10
32.5
 20
47.51
 11
32.5
 21
50.01
  0
LINE
  8
0
 10
32.5
 20
50.01
 11
37.5
 21
50.01
  0
LINE
  8
0
 10
37.5
 20
50.01
 11
37.5
 21
47.51
  0
LINE
  8
0
 10
37.5
 20
47.51
 11
42.5
 21
47.51
  0
LINE
  8
0
 10
42.5
 20
47.51
 11
42.5
 21
50.01
  0
LINE
  8
0
 10
42.5
 20
50.01
 11
47.5
 21
50.01
  0
LINE
  8
0
 10
47.5
 20
50.01
 11
47.5
 21
47.51
  0
LINE
  8
0
 10
47.5
 20
47.51
 11
52.5
 21
47.51
  0
LINE
  8
0
 10
52.5
 20
47.51
 11
52.5
 21
50.01
  0
LINE
  8
0
 10
52.5
 20
50.01
 11
57.5
 21
50.01
  0
LINE
  8
0
 10
57.5
 20
50.01
 11
57.5
 21
47.51
  0
LINE
  8
0
 10
57.5
 20
47.51
 11
62.5
 21
47.51
  0
LINE
  8
0
 10
62.5
 20
47.51
 11
62.5
 21
50.01
  0
LINE
  8
0
 10
62.5
 20
50.01
 11
67.5
 21
50.01
  0
LINE
  8
0
 10
67.5
 20
50.01
 11
67.5
 21
47.51
  0
LINE
  8
0
 10
67.5
 20
47.51
 11
72.5
 21
47.51
  0
LINE
  8
0
 10
72.5
 20
47.51
 11
72.5
 21
50.01
  0
LINE
  8
0
 10
72.5
 20
50.01
 11
77.5
 21
50.01
  0
LINE
  8
0
 10
77.5
 20
50.01
 11
77.5
 21
47.51
  0
LINE
  8
0
 10
77.5
 20
47.51
 11
82.5
 21
47.51
  0
LINE
  8
0
 10
82.5
 20
47.51
 11
82.5
 21
50.01
  0
LINE
  8
0
 10
82.5
 20
50.01
 11
87.5
 21
50.01
  0
LINE
  8
0
 10
87.5
 20
50.01
 11
87.5
 21
47.51
  0
LINE
  8
0
 10
87.5
 20
47.51
 11
92.5
 21
47.51
  0
LINE
  8
0
 10
92.5
 20
47.51
 11
92.5
 21
50.01
  0
LINE
  8
0
 10
92.5
 20
50.01
 11
97.5
 21
50.01
  0
LINE
  8
0
 10
97.5
 20
50.01
 11
97.5
 21
57.51
  0
LINE
  8
0
 10
97.5
 20
57.51
 11
100
 21
57.51
  0
LINE
  8
0
 10
100
 20
57.51
 11
100
 21
62.71
  0
LINE
  8
0
 10
100
 20
62.71
 11
97.5
 21
62.71
  0
LINE
  8
0
 10
97.5
 20
62.71
 11
97.5
 21
67.91
  0
LINE
  8
0
 10
97.5
 20
67.91
 11
100
 21
67.91
  0
LINE
  8
0
 10
100
 20
67.91
 11
100
 21
73.11
  0
LINE
  8
0
 10
100
 20
73.11
 11
97.5
 21
73.11
  0
LINE
  8
0
 10
97.5
 20
73.11
 11
97.5
 21
78.31
  0
LINE
  8
0
 10
97.5
 20
78.31
 11
100
 21
78.31
  0
LINE
  8
0
 10
100
 20
78.31
 11
100
 21
83.51
  0
LINE
  8
0
 10
100
 20
83.51
 11
97.5
 21
83.51
  0
LINE
  8
0
 10
97.5
 20
83.51
 11
97.5
 21
88.71
  0
LINE
  8
0
 10
97.5
 20
88.71
 11
100
 21
88.71
  0
LINE
  8
0
 10
100
 20
88.71
 11
100
 21
93.91
  0
LINE
  8
0
 10
100
 20
93.91
 11
97.5
 21
93.91
  0
LINE
  8
0
 10
97.5
 20
93.91
 11
97.5
 21
99.11
  0
LINE
  8
0
 10
97.5
 20
99.11
 11
100
 21
99.11
  0
LINE
  8
0
 10
100
 20
99.11
 11
100
 21
104.31
  0
LINE
  8
0
 10
100
 20
104.31
 11
97.5
 21
104.31
  0
LINE
  8
0
 10
97.5
 20
104.31
 11
97.5
 21
109.51
  0
LINE
  8
0
 10
97.5
 20
109.51
 11
100
 21
109.51
  0
LINE
  8
0
 10
100
 20
109.51
 11
100
 21
114.71
  0
LINE
  8
0
 10
100
 20
114.71
 11
97.5
 21
114.71
  0
LINE
  8
0
 10
97.5
 20
114.71
 11
97.5
 21
119.91
  0
LINE
  8
0
 10
97.5
 20
119.91
 11
100
 21
119.91
  0
LINE
  8
0
 10
100
 20
119.91
 11
100
 21
125.11
  0
LINE
  8
0
 10
100
 20
125.11
 11
97.5
 21
125.11
  0
LINE
  8
0
 10
97.5
 20
125.11
 11
97.5
 21
130.31
  0
LINE
  8
0
 10
97.5
 20
130.31
 11
100
 21
130.31
  0
LINE
  8
0
 10
100
 20
130.31
 11
100
 21
135.51
  0
LINE
  8
0
 10
100
 20
135.51
 11
97.5
 21
135.51
  0
LINE
  8
0
 10
97.5
 20
135.51
 11
97.5
 21
140.71
  0
LINE
  8
0
 10
97.5
 20
140.71
 11
100
 21
140.71
  0
LINE
  8
0
 10
100
 20
140.71
 11
100
 21
145.91
  0
LINE
  8
0
 10
100
 20
145.91
 11
97.5
 21
145.91
  0
LINE
  8
0
 10
97.5
 20
145.91
 11
97.5
 21
151.11
  0
LINE
  8
0
 10
97.5
 20
151.11
 11
100
 21
151.11
  0
LINE
  8
0
 10
100
 20
151.11
 11
100
 21
156.31
  0
LINE
  8
0
 10
100
 20
156.31
 11
97.5
 21
156.31
  0
LINE
  8
0
 10
97.5
 20
156.31
 11
97.5
 21
161.51
  0
LINE
  8
0
 10
97.5
 20
161.51
 11
100
 21
161.51
  0
LINE
  8
0
 10
100
 20
161.51
 11
100
 21
166.71
  0
LINE
  8
0
 10
100
 20
166.71
 11
97.5
 21
166.71
  0
LINE
  8
0
 10
97.5
 20
166.71
 11
97.5
 21
171.91
  0
LINE
  8
0
 10
97.5
 20
171.91
 11
100
 21
171.91
  0
LINE
  8
0
 10
100
 20
171.91
 11
100
 21
177.11
  0
LINE
  8
0
 10
100
 20
177.11
 11
97.5
 21
177.11
  0
LINE
  8
0
 10
97.5
 20
177.11
 11
97.5
 21
182.31
  0
LINE
  8
0
 10
97.5
 20
182.31
 11
100
 21
182.31
  0
LINE
  8
0
 10
100
 20
182.31
 11
100
 21
187.51
  0
LINE
  8
0
 10
100
 20
187.51
 11
97.5
 21
187.51
  0
LINE
  8
0
 10
97.5
 20
187.51
 11
97.5
 21
195.01
  0
LINE
  8
0
 10
97.5
 20
195.01
 11
92.5
 21
195.01
  0
LINE
  8
0
 10
92.5
 20
195.01
 11
92.5
 21
197.51
  0
LINE
  8
0
 10
92.5
 20
197.51
 11
87.5
 21
197.51
  0
LINE
  8
0
 10
87.5
 20
197.51
 11
87.5
 21
195.01
  0
LINE
  8
0
 10
87.5
 20
195.01
 11
82.5
 21
195.01
  0
LINE
  8
0
 10
82.5
 20
195.01
 11
82.5
 21
197.51
  0
LINE
  8
0
 10
82.5
 20
197.51
 11
77.5
 21
197.51
  0
LINE
  8
0
 10
77.5
 20
197.51
 11
77.5
 21
195.01
  0
LINE
  8
0
 10
77.5
 20
195.01
 11
72.5
 21
195.01
  0
LINE
  8
0
 10
72.5
 20
195.01
 11
72.5
 21
197.51
  0
LINE
  8
0
 10
72.5
 20
197.51
 11
67.5
 21
197.51
  0
LINE
  8
0
 10
67.5
 20
197.51
 11
67.5
 21
195.01
  0
LINE
  8
0
 10
67.5
 20
195.01
 11
62.5
 21
195.01
  0
LINE
  8
0
 10
62.5
 20
195.01
 11
62.5
 21
197.51
  0
LINE
  8
0
 10
62.5
 20
197.51
 11
57.5
 21
197.51
  0
LINE
  8
0
 10
57.5
 20
197.51
 11
57.5
 21
195.01
  0
LINE
  8
0
 10
57.5
 20
195.01
 11
52.5
 21
195.01
  0
LINE
  8
0
 10
52.5
 20
195.01
 11
52.5
 21
197.51
  0
LINE
  8
0
 10
52.5
 20
197.51
 11
47.5
 21
197.51
  0
LINE
  8
0
 10
47.5
 20
197.51
 11
47.5
 21
195.01
  0
LINE
  8
0
 10
47.5
 20
195.01
 11
42.5
 21
195.01
  0
LINE
  8
0
 10
42.5
 20
195.01
 11
42.5
 21
197.51
  0
LINE
  8
0
 10
42.5
 20
197.51
 11
37.5
 21
197.51
  0
LINE
  8
0
 10
37.5
 20
197.51
 11
37.5
 21
195.01
  0
LINE
  8
0
 10
37.5
 20
195.01
 11
32.5
 21
195.01
  0
LINE
  8
0
 10
32.5
 20
195.01
 11
32.5
 21
197.51
  0
LINE
  8
0
 10
32.5
 20
197.51
 11
27.5
 21
197.51
  0
LINE
  8
0
 10
27.5
 20
197.51
 11
27.5
 21
195.01
  0
LINE
  8
0
 10
27.5
 20
195.01
 11
22.5
 21
195.01
  0
LINE
  8
0
 10
22.5
 20
195.01
 11
22.5
 21
197.51
  0
LINE
  8
0
 10
22.5
 20
197.51
 11
17.5
 21
197.51
  0
LINE
  8
0
 10
17.5
 20
197.51
 11
17.5
 21
195.01
  0
LINE
  8
0
 10
17.5
 20
195.01
 11
12.5
 21
195.01
  0
LINE
  8
0
 10
12.5
 20
195.01
 11
12.5
 21
197.51
  0
LINE
  8
0
 10
12.5
 20
197.51
 11
7.5
 21
197.51
  0
LINE
  8
0
 10
7.5
 20
197.51
 11
7.5
 21
195.01
  0
LINE
  8
0
 10
7.5
 20
195.01
 11
2.49998
 21
195.01
  0
LINE
  8
0
 10
2.49998
 20
195.01
 11
2.49998
 21
187.51
  0
LINE
  8
0
 10
2.49998
 20
187.51
 11
0
 21
187.51
  0
LINE
  8
0
 10
0
 20
187.51
 11
0
 21
182.31
  0
LINE
  8
0
 10
0
 20
182.31
 11
2.49998
 21
182.31
  0
LINE
  8
0
 10
2.49998
 20
182.31
 11
2.49998
 21
177.11
  0
LINE
  8
0
 10
2.49998
 20
177.11
 11
0
 21
177.11
  0
LINE
  8
0
 10
0
 20
177.11
 11
0
 21
171.91
  0
LINE
  8
0
 10
0
 20
171.91
 11
2.49998
 21
171.91
  0
LINE
  8
0
 10
2.49998
 20
171.91
 11
2.49998
 21
166.71
  0
LINE
  8
0
 10
2.49998
 20
166.71
 11
0
 21
166.71
  0
LINE
  8
0
 10
0
 20
166.71
 11
0
 21
161.51
  0
LINE
  8
0
 10
0
 20
161.51
 11
2.49998
 21
161.51
  0
LINE
  8
0
 10
2.49998
 20
161.51
 11
2.49998
 21
156.31
  0
LINE
  8
0
 10
2.49998
 20
156.31
 11
0
 21
156.31
  0
LINE
  8
0
 10
0
 20
156.31
 11
0
 21
151.11
  0
LINE
  8
0
 10
0
 20
151.11
 11
2.49998
 21
151.11
  0
LINE
  8
0
 10
2.49998
 20
151.11
 11
2.49998
 21
145.91
  0
LINE
  8
0
 10
2.49998
 20
145.91
 11
0
 21
145.91
  0
LINE
  8
0
 10
0
 20
145.91
 11
0
 21
140.71
  0
LINE
  8
0
 10
0
 20
140.71
 11
2.49998
 21
140.71
  0
LINE
  8
0
 10
2.49998
 20
140.71
 11
2.49998
 21
135.51
  0
LINE
  8
0
 10
2.49998
 20
135.51
 11
0
 21
135.51
  0
LINE
  8
0
 10
0
 20
135.51
 11
0
 21
130.31
  0
LINE
  8
0
 10
0
 20
130.31
 11
2.49998
 21
130.31
  0
LINE
  8
0
 10
2.49998
 20
130.31
 11
2.5
 21
125.11
  0
LINE
  8
0
 10
2.5
 20
125.11
 11
0
 21
125.11
  0
LINE
  8
0
 10
0
 20
125.11
 11
0
 21
119.91
  0
LINE
  8
0
 10
0
 20
119.91
 11
2.5
 21
119.91
  0
LINE
  8
0
 10
2.5
 20
119.91
 11
2.5
 21
114.71
  0
LINE
  8
0
 10
2.5
 20
114.71
 11
0
 21
114.71
  0
LINE
  8
0
 10
0
 20
114.71
 11
0
 21
109.51
  0
LINE
  8
0
 10
0
 20
109.51
 11
2.5
 21
109.51
  0
LINE
  8
0
 10
2.5
 20
109.51
 11
2.5
 21
104.31
  0
LINE
  8
0
 10
2.5
 20
104.31
 11
0
 21
104.31
  0
LINE
  8
0
 10
0
 20
104.31
 11
0
 21
99.11
  0
LINE
  8
0
 10
0
 20
99.11
 11
2.5
 21
99.11
  0
LINE
  8
0
 10
2.5
 20
99.11
 11
2.5
 21
93.91
  0
LINE
  8
0
 10
2.5
 20
93.91
 11
0
 21
93.91
  0
LINE
  8
0
 10
0
 20
93.91
 11
0
 21
88.71
  0
LINE
  8
0
 10
0
 20
88.71
 11
2.5
 21
88.71
  0
LINE
  8
0
 10
2.5
 20
88.71
 11
2.5
 21
83.51
  0
LINE
  8
0
 10
2.5
 20
83.51
 11
0
 21
83.51
  0
LINE
  8
0
 10
0
 20
83.51
 11
0
 21
78.31
  0
LINE
  8
0
 10
0
 20
78.31
 11
2.5
 21
78.31
  0
LINE
  8
0
 10
2.5
 20
78.31
 11
2.5
 21
73.11
  0
LINE
  8
0
 10
2.5
 20
73.11
 11
0
 21
73.11
  0
LINE
  8
0
 10
0
 20
73.11
 11
0
 21
67.91
  0
LINE
  8
0
 10
0
 20
67.91
 11
2.5
 21
67.91
  0
LINE
  8
0
 10
2.5
 20
67.91
 11
2.5
 21
62.71
  0
LINE
  8
0
 10
2.5
 20
62.71
 11
0
 21
62.71
  0
LINE
  8
0
 10
0
 20
62.71
 11
0
 21
57.51
  0
LINE
  8
0
 10
0
 20
57.51
 11
2.5
 21
57.51
  0
LINE
  8
0
 10
2.5
 20
57.51
 11
2.5
 21
50.01
  0
LINE
  8
0
 10
2.5
 20
50.01
 11
7.5
 21
50.01
  0
LINE
  8
0
 10
7.5
 20
50.01
 11
7.5
 21
47.51
  0
LINE
  8
0
 10
7.5
 20
47.51
 11
12.5
 21
47.51
  0
LINE
  8
0
 10
12.5
 20
47.51
 11
12.5
 21
50.01
  0
LINE
  8
0
 10
102.51
 20
50
 11
107.51
 21
50
  0
LINE
  8
0
 10
107.51
 20
50
 11
107.51
 21
47.51
  0
LINE
  8
0
 10
107.51
 20
47.51
 11
200.01
 21
47.51
  0
LINE
  8
0
 10
200.01
 20
47.51
 11
200.01
 21
197.51
  0
LINE
  8
0
 10
200.01
 20
197.51
 11
107.51
 21
197.51
  0
LINE
  8
0
 10
107.51
 20
197.51
 11
107.51
 21
195.02
  0
LINE
  8
0
 10
107.51
 20
195.02
 11
102.51
 21
195.02
  0
LINE
  8
0
 10
102.51
 20
195.02
 11
102.51
 21
197.51
  0
LINE
  8
0
 10
102.51
 20
197.51
 11
100.01
 21
197.51
  0
LINE
  8
0
 10
100.01
 20
197.51
 11
100.01
 21
47.51
  0
LINE
  8
0
 10
100.01
 20
47.51
 11
102.51
 21
47.51
  0
LINE
  8
0
 10
102.51
 20
47.51
 11
102.51
 21
50
  0
LINE
  8
0
 10
107.51
 20
2.5
 11
112.51
 21
2.5
  0
LINE
  8
0
 10
112.51
 20
2.5
 11
112.51
 21
0
  0
LINE
  8
0
 10
112.51
 20
0
 11
117.51
 21
0
  0
LINE
  8
0
 10
117.51
 20
0
 11
117.51
 21
2.5
  0
LINE
  8
0
 10
117.51
 20
2.5
 11
122.51
 21
2.5
  0
LINE
  8
0
 10
122.51
 20
2.5
 11
122.51
 21
0
  0
LINE
  8
0
 10
122.51
 20
0
 11
127.51
 21
0
  0
LINE
  8
0
 10
127.51
 20
0
 11
127.51
 21
2.5
  0
LINE
  8
0
 10
127.51
 20
2.5
 11
132.51
 21
2.5
  0
LINE
  8
0
 10
132.51
 20
2.5
 11
132.51
 21
0
  0
LINE
  8
0
 10
132.51
 20
0
 11
137.51
 21
0
  0
LINE
  8
0
 10
137.51
 20
0
 11
137.51
 21
2.5
  0
LINE
  8
0
 10
137.51
 20
2.5
 11
142.51
 21
2.5
  0
LINE
  8
0
 10
142.51
 20
2.5
 11
142.51
 21
0
  0
LINE
  8
0
 10
142.51
 20
0
 11
147.51
 21
0
  0
LINE
  8
0
 10
147.51
 20
0
 11
147.51
 21
2.5
  0
LINE
  8
0
 10
147.51
 20
2.5
 11
152.51
 21
2.5
  0
LINE
  8
0
 10
152.51
 20
2.5
 11
152.51
 21
0
  0
LINE
  8
0
 10
152.51
 20
0
 11
157.51
 21
0
  0
LINE
  8
0
 10
157.51
 20
0
 11
157.51
 21
2.5
  0
LINE
  8
0
 10
157.51
 20
2.5
 11
162.51
 21
2.5
  0
LINE
  8
0
 10
162.51
 20
2.5
 11
162.51
 21
0
  0
LINE
  8
0
 10
162.51
 20
0
 11
167.51
 21
0
  0
LINE
  8
0
 10
167.51
 20
0
 11
167.51
 21
2.5
  0
LINE
  8
0
 10
167.51
 20
2.5
 11
172.51
 21
2.5
  0
LINE
  8
0
 10
172.51
 20
2.5
 11
172.51
 21
0
  0
LINE
  8
0
 10
172.51
 20
0
 11
177.51
 21
0
  0
LINE
  8
0
 10
177.51
 20
0
 11
177.51
 21
2.5
  0
LINE
  8
0
 10
177.51
 20
2.5
 11
182.51
 21
2.5
  0
LINE
  8
0
 10
182.51
 20
2.5
 11
182.51
 21
0
  0
LINE
  8
0
 10
182.51
 20
0
 11
187.51
 21
0
  0
LINE
  8
0
 10
187.51
 20
0
 11
187.51
 21
2.5
  0
LINE
  8
0
 10
187.51
 20
2.5
 11
192.51
 21
2.5
  0
LINE
  8
0
 10
192.51
 20
2.5
 11
192.51
 21
0
  0
LINE
  8
0
 10
192.51
 20
0
 11
200.01
 21
0
  0
LINE
  8
0
 10
200.01
 20
0
 11
200.01
 21
7.5
  0
LINE
  8
0
 10
200.01
 20
7.5
 11
197.51
 21
7.5
  0
LINE
  8
0
 10
197.51
 20
7.5
 11
197.51
 21
12.5
  0
LINE
  8
0
 10
197.51
 20
12.5
 11
200.01
 21
12.5
  0
LINE
  8
0
 10
200.01
 20
12.5
 11
200.01
 21
17.5
  0
LINE
  8
0
 10
200.01
 20
17.5
 11
197.51
 21
17.5
  0
LINE
  8
0
 10
197.51
 20
17.5
 11
197.51
 21
22.5
  0
LINE
  8
0
 10
197.51
 20
22.5
 11
200.01
 21
22.5
  0
LINE
  8
0
 10
200.01
 20
22.5
 11
200.01
 21
27.5
  0
LINE
  8
0
 10
200.01
 20
27.5
 11
197.51
 21
27.5
  0
LINE
  8
0
 10
197.51
 20
27.5
 11
197.51
 21
32.5
  0
LINE
  8
0
 10
197.51
 20
32.5
 11
200.01
 21
32.5
  0
LINE
  8
0
 10
200.01
 20
32.5
 11
200.01
 21
32.5148
  0
LINE
  8
0
 10
200.01
 20
32.5148
 11
200.481
 21
32.5148
  0
LINE
  8
0
 10
200.481
 20
32.5148
 11
201.415
 21
32.6328
  0
LINE
  8
0
 10
201.415
 20
32.6328
 11
202.328
 21
32.8671
  0
LINE
  8
0
 10
202.328
 20
32.8671
 11
203.203
 21
33.2138
  0
LINE
  8
0
 10
203.203
 20
33.2138
 11
204.029
 21
33.6675
  0
LINE
  8
0
 10
204.029
 20
33.6675
 11
204.791
 21
34.2211
  0
LINE
  8
0
 10
204.791
 20
34.2211
 11
205.477
 21
34.8659
  0
LINE
  8
0
 10
205.477
 20
34.8659
 11
206.078
 21
35.5916
  0
LINE
  8
0
 10
206.078
 20
35.5916
 11
206.582
 21
36.3868
  0
LINE
  8
0
 10
206.582
 20
36.3868
 11
206.983
 21
37.2391
  0
LINE
  8
0
 10
206.983
 20
37.2391
 11
207.274
 21
38.1348
  0
LINE
  8
0
 10
207.274
 20
38.1348
 11
207.451
 21
39.06
  0
LINE
  8
0
 10
207.451
 20
39.06
 11
207.51
 21
40
  0
LINE
  8
0
 10
207.51
 20
40
 11
207.451
 21
40.94
  0
LINE
  8
0
 10
207.451
 20
40.94
 11
207.274
 21
41.8652
  0
LINE
  8
0
 10
207.274
 20
41.8652
 11
206.983
 21
42.7609
  0
LINE
  8
0
 10
206.983
 20
42.7609
 11
206.582
 21
43.6131
  0
LINE
  8
0
 10
206.582
 20
43.6131
 11
206.078
 21
44.4084
  0
LINE
  8
0
 10
206.078
 20
44.4084
 11
205.477
 21
45.1341
  0
LINE
  8
0
 10
205.477
 20
45.1341
 11
204.791
 21
45.7788
  0
LINE
  8
0
 10
204.791
 20
45.7788
 11
204.029
 21
46.3325
  0
LINE
  8
0
 10
204.029
 20
46.3325
 11
203.203
 21
46.7862
  0
LINE
  8
0
 10
203.203
 20
46.7862
 11
202.328
 21
47.1329
  0
LINE
  8
0
 10
202.328
 20
47.1329
 11
201.415
 21
47.3671
  0
LINE
  8
0
 10
201.415
 20
47.3671
 11
200.481
 21
47.4852
  0
LINE
  8
0
 10
200.481
 20
47.4852
 11
199.539
 21
47.4852
  0
LINE
  8
0
 10
199.539
 20
47.4852
 11
198.605
 21
47.3671
  0
LINE
  8
0
 10
198.605
 20
47.3671
 11
197.692
 21
47.1329
  0
LINE
  8
0
 10
197.692
 20
47.1329
 11
196.817
 21
46.7862
  0
LINE
  8
0
 10
196.817
 20
46.7862
 11
195.991
 21
46.3325
  0
LINE
  8
0
 10
195.991
 20
46.3325
 11
195.229
 21
45.7788
  0
LINE
  8
0
 10
195.229
 20
45.7788
 11
194.543
 21
45.1341
  0
LINE
  8
0
 10
194.543
 20
45.1341
 11
193.942
 21
44.4084
  0
LINE
  8
0
 10
193.942
 20
44.4084
 11
193.438
 21
43.6131
  0
LINE
  8
0
 10
193.438
 20
43.6131
 11
193.037
 21
42.7609
  0
LINE
  8
0
 10
193.037
 20
42.7609
 11
192.746
 21
41.8652
  0
LINE
  8
0
 10
192.746
 20
41.8652
 11
192.569
 21
40.94
  0
LINE
  8
0
 10
192.569
 20
40.94
 11
192.51
 21
40
  0
LINE
  8
0
 10
192.51
 20
40
 11
100.01
 21
40
  0
LINE
  8
0
 10
100.01
 20
40
 11
100.01
 21
32.5
  0
LINE
  8
0
 10
100.01
 20
32.5
 11
102.51
 21
32.5
  0
LINE
  8
0
 10
102.51
 20
32.5
 11
102.51
 21
27.5
  0
LINE
  8
0
 10
102.51
 20
27.5
 11
100.01
 21
27.5
  0
LINE
  8
0
 10
100.01
 20
27.5
 11
100.01
 21
22.5
  0
LINE
  8
0
 10
100.01
 20
22.5
 11
102.51
 21
22.5
  0
LINE
  8
0
 10
102.51
 20
22.5
 11
102.51
 21
17.5
  0
LINE
  8
0
 10
102.51
 20
17.5
 11
100.01
 21
17.5
  0
LINE
  8
0
 10
100.01
 20
17.5
 11
100.01
 21
12.5
  0
LINE
  8
0
 10
100.01
 20
12.5
 11
102.51
 21
12.5
  0
LINE
  8
0
 10
102.51
 20
12.5
 11
102.51
 21
7.5
  0
LINE
  8
0
 10
102.51
 20
7.5
 11
100.01
 21
7.5
  0
LINE
  8
0
 10
100.01
 20
7.5
 11
100.01
 21
0
  0
LINE
  8
0
 10
100.01
 20
0
 11
107.51
 21
0
  0
LINE
  8
0
 10
107.51
 20
0
 11
107.51
 21
2.5
  0
LINE
  8
0
 10
199.727
 20
35.5089
 11
199.167
 21
35.5797
  0
LINE
  8
0
 10
199.167
 20
35.5797
 11
198.619
 21
35.7203
  0
LINE
  8
0
 10
198.619
 20
35.7203
 11
198.094
 21
35.9283
  0
LINE
  8
0
 10
198.094
 20
35.9283
 11
197.599
 21
36.2005
  0
LINE
  8
0
 10
197.599
 20
36.2005
 11
197.142
 21
36.5327
  0
LINE
  8
0
 10
197.142
 20
36.5327
 11
196.73
 21
36.9195
  0
LINE
  8
0
 10
196.73
 20
36.9195
 11
196.369
 21
37.355
  0
LINE
  8
0
 10
196.369
 20
37.355
 11
196.067
 21
37.8321
  0
LINE
  8
0
 10
196.067
 20
37.8321
 11
195.826
 21
38.3434
  0
LINE
  8
0
 10
195.826
 20
38.3434
 11
195.651
 21
38.8809
  0
LINE
  8
0
 10
195.651
 20
38.8809
 11
195.545
 21
39.436
  0
LINE
  8
0
 10
195.545
 20
39.436
 11
195.51
 21
40
  0
LINE
  8
0
 10
195.51
 20
40
 11
195.545
 21
40.564
  0
LINE
  8
0
 10
195.545
 20
40.564
 11
195.651
 21
41.1191
  0
LINE
  8
0
 10
195.651
 20
41.1191
 11
195.826
 21
41.6566
  0
LINE
  8
0
 10
195.826
 20
41.6566
 11
196.067
 21
42.1679
  0
LINE
  8
0
 10
196.067
 20
42.1679
 11
196.369
 21
42.645
  0
LINE
  8
0
 10
196.369
 20
42.645
 11
196.73
 21
43.0805
  0
LINE
  8
0
 10
196.73
 20
43.0805
 11
197.142
 21
43.4673
  0
LINE
  8
0
 10
197.142
 20
43.4673
 11
197.599
 21
43.7995
  0
LINE
  8
0
 10
197.599
 20
43.7995
 11
198.094
 21
44.0717
  0
LINE
  8
0
 10
198.094
 20
44.0717
 11
198.619
 21
44.2797
  0
LINE
  8
0
 10
198.619
 20
44.2797
 11
199.167
 21
44.4203
  0
LINE
  8
0
 10
199.167
 20
44.4203
 11
199.727
 21
44.4911
  0
LINE
  8
0
 10
199.727
 20
44.4911
 11
200.293
 21
44.4911
  0
LINE
  8
0
 10
200.293
 20
44.4911
 11
200.853
 21
44.4203
  0
LINE
  8
0
 10
200.853
 20
44.4203
 11
201.401
 21
44.2797
  0
LINE
  8
0
 10
201.401
 20
44.2797
 11
201.926
 21
44.0717
  0
LINE
  8
0
 10
201.926
 20
44.0717
 11
202.421
 21
43.7995
  0
LINE
  8
0
 10
202.421
 20
43.7995
 11
202.878
 21
43.4673
  0
LINE
  8
0
 10
202.878
 20
43.4673
 11
203.29
 21
43.0805
  0
LINE
  8
0
 10
203.29
 20
43.0805
 11
203.651
 21
42.645
  0
LINE
  8
0
 10
203.651
 20
42.645
 11
203.953
 21
42.1679
  0
LINE
  8
0
 10
203.953
 20
42.1679
 11
204.194
 21
41.6566
  0
LINE
  8
0
 10
204.194
 20
41.6566
 11
204.369
 21
41.1191
  0
LINE
  8
0
 10
204.369
 20
41.1191
 11
204.475
 21
40.564
  0
LINE
  8
0
 10
204.475
 20
40.564
 11
204.51
 21
40
  0
LINE
  8
0
 10
204.51
 20
40
 11
204.475
 21
39.436
  0
LINE
  8
0
 10
204.475
 20
39.436
 11
204.369
 21
38.8809
  0
LINE
  8
0
 10
204.369
 20
38.8809
 11
204.194
 21
38.3434
  0
LINE
  8
0
 10
204.194
 20
38.3434
 11
203.953
 21
37.8321
  0
LINE
  8
0
 10
203.953
 20
37.8321
 11
203.651
 21
37.355
  0
LINE
  8
0
 10
203.651
 20
37.355
 11
203.29
 21
36.9195
  0
LINE
  8
0
 10
203.29
 20
36.9195
 11
202.878
 21
36.5327
  0
LINE
  8
0
 10
202.878
 20
36.5327
 11
202.421
 21
36.2005
  0
LINE
  8
0
 10
202.421
 20
36.2005
 11
201.926
 21
35.9283
  0
LINE
  8
0
 10
201.926
 20
35.9283
 11
201.401
 21
35.7203
  0
LINE
  8
0
 10
201.401
 20
35.7203
 11
200.853
 21
35.5797
  0
LINE
  8
0
 10
200.853
 20
35.5797
 11
200.293
 21
35.5089
  0
LINE
  8
0
 10
200.293
 20
35.5089
 11
199.727
 21
35.5089
  0
LINE
  8
0
 10
202.51
 20
42.5
 11
200.01
 21
42.5
  0
LINE
  8
0
 10
200.01
 20
42.5
 11
200.01
 21
40
  0
LINE
  8
0
 10
200.01
 20
40
 11
202.51
 21
40
  0
LINE
  8
0
 10
202.51
 20
40
 11
202.51
 21
42.5
  0
LINE
  8
0
 10
7.5
 20
2.5
 11
12.5
 21
2.5
  0
LINE
  8
0
 10
12.5
 20
2.5
 11
12.5
 21
0
  0
LINE
  8
0
 10
12.5
 20
0
 11
17.5
 21
0
  0
LINE
  8
0
 10
17.5
 20
0
 11
17.5
 21
2.5
  0
LINE
  8
0
 10
17.5
 20
2.5
 11
22.5
 21
2.5
  0
LINE
  8
0
 10
22.5
 20
2.5
 11
22.5
 21
0
  0
LINE
  8
0
 10
22.5
 20
0
 11
27.5
 21
0
  0
LINE
  8
0
 10
27.5
 20
0
 11
27.5
 21
2.5
  0
LINE
  8
0
 10
27.5
 20
2.5
 11
32.5
 21
2.5
  0
LINE
  8
0
 10
32.5
 20
2.5
 11
32.5
 21
0
  0
LINE
  8
0
 10
32.5
 20
0
 11
37.5
 21
0
  0
LINE
  8
0
 10
37.5
 20
0
 11
37.5
 21
2.5
  0
LINE
  8
0
 10
37.5
 20
2.5
 11
42.5
 21
2.5
  0
LINE
  8
0
 10
42.5
 20
2.5
 11
42.5
 21
0
  0
LINE
  8
0
 10
42.5
 20
0
 11
47.5
 21
0
  0
LINE
  8
0
 10
47.5
 20
0
 11
47.5
 21
2.5
  0
LINE
  8
0
 10
47.5
 20
2.5
 11
52.5
 21
2.5
  0
LINE
  8
0
 10
52.5
 20
2.5
 11
52.5
 21
0
  0
LINE
  8
0
 10
52.5
 20
0
 11
57.5
 21
0
  0
LINE
  8
0
 10
57.5
 20
0
 11
57.5
 21
2.5
  0
LINE
  8
0
 10
57.5
 20
2.5
 11
62.5
 21
2.5
  0
LINE
  8
0
 10
62.5
 20
2.5
 11
62.5
 21
0
  0
LINE
  8
0
 10
62.5
 20
0
 11
67.5
 21
0
  0
LINE
  8
0
 10
67.5
 20
0
 11
67.5
 21
2.5
  0
LINE
  8
0
 10
67.5
 20
2.5
 11
72.5
 21
2.5
  0
LINE
  8
0
 10
72.5
 20
2.5
 11
72.5
 21
0
  0
LINE
  8
0
 10
72.5
 20
0
 11
77.5
 21
0
  0
LINE
  8
0
 10
77.5
 20
0
 11
77.5
 21
2.5
  0
LINE
  8
0
 10
77.5
 20
2.5
 11
82.5
 21
2.5
  0
LINE
  8
0
 10
82.5
 20
2.5
 11
82.5
 21
0
  0
LINE
  8
0
 10
82.5
 20
0
 11
87.5
 21
0
  0
LINE
  8
0
 10
87.5
 20
0
 11
87.5
 21
2.5
  0
LINE
  8
0
 10
87.5
 20
2.5
 11
92.5
 21
2.5
  0
LINE
  8
0
 10
92.5
 20
2.5
 11
92.5
 21
0
  0
LINE
  8
0
 10
92.5
 20
0
 11
100
 21
0
  0
LINE
  8
0
 10
100
 20
0
 11
100
 21
7.5
  0
LINE
  8
0
 10
100
 20
7.5
 11
97.5
 21
7.5
  0
LINE
  8
0
 10
97.5
 20
7.5
 11
97.5
 21
12.5
  0
LINE
  8
0
 10
97.5
 20
12.5
 11
100
 21
12.5
  0
LINE
  8
0
 10
100
 20
12.5
 11
100
 21
17.5
  0
LINE
  8
0
 10
100
 20
17.5
 11
97.5
 21
17.5
  0
LINE
  8
0
 10
97.5
 20
17.5
 11
97.5
 21
22.5
  0
LINE
  8
0
 10
97.5
 20
22.5
 11
100
 21
22.5
  0
LINE
  8
0
 10
100
 20
22.5
 11
100
 21
27.5
  0
LINE
  8
0
 10
100
 20
27.5
 11
97.5
 21
27.5
  0
LINE
  8
0
 10
97.5
 20
27.5
 11
97.5
 21
32.5
  0
LINE
  8
0
 10
97.5
 20
32.5
 11
100
 21
32.5
  0
LINE
  8
0
 10
100
 20
32.5
 11
100
 21
40
  0
LINE
  8
0
 10
100
 20
40
 11
7.5
 21
40
  0
LINE
  8
0
 10
7.5
 20
40
 11
7.44086
 21
40.94
  0
LINE
  8
0
 10
7.44086
 20
40.94
 11
7.26436
 21
41.8652
  0
LINE
  8
0
 10
7.26436
 20
41.8652
 11
6.97331
 21
42.7609
  0
LINE
  8
0
 10
6.97331
 20
42.7609
 11
6.5723
 21
43.6131
  0
LINE
  8
0
 10
6.5723
 20
43.6131
 11
6.06763
 21
44.4084
  0
LINE
  8
0
 10
6.06763
 20
44.4084
 11
5.46725
 21
45.1341
  0
LINE
  8
0
 10
5.46725
 20
45.1341
 11
4.78067
 21
45.7788
  0
LINE
  8
0
 10
4.78067
 20
45.7788
 11
4.01869
 21
46.3325
  0
LINE
  8
0
 10
4.01869
 20
46.3325
 11
3.19334
 21
46.7862
  0
LINE
  8
0
 10
3.19334
 20
46.7862
 11
2.31763
 21
47.1329
  0
LINE
  8
0
 10
2.31763
 20
47.1329
 11
1.40535
 21
47.3671
  0
LINE
  8
0
 10
1.40535
 20
47.3671
 11
0.470917
 21
47.4852
  0
LINE
  8
0
 10
0.470917
 20
47.4852
 11
-0.470917
 21
47.4852
  0
LINE
  8
0
 10
-0.470917
 20
47.4852
 11
-1.40535
 21
47.3671
  0
LINE
  8
0
 10
-1.40535
 20
47.3671
 11
-2.31763
 21
47.1329
  0
LINE
  8
0
 10
-2.31763
 20
47.1329
 11
-3.19334
 21
46.7862
  0
LINE
  8
0
 10
-3.19334
 20
46.7862
 11
-4.01869
 21
46.3325
  0
LINE
  8
0
 10
-4.01869
 20
46.3325
 11
-4.78067
 21
45.7788
  0
LINE
  8
0
 10
-4.78067
 20
45.7788
 11
-5.46725
 21
45.1341
  0
LINE
  8
0
 10
-5.46725
 20
45.1341
 11
-6.06763
 21
44.4084
  0
LINE
  8
0
 10
-6.06763
 20
44.4084
 11
-6.5723
 21
43.6131
  0
LINE
  8
0
 10
-6.5723
 20
43.6131
 11
-6.97331
 21
42.7609
  0
LINE
  8
0
 10
-6.97331
 20
42.7609
 11
-7.26436
 21
41.8652
  0
LINE
  8
0
 10
-7.26436
 20
41.8652
 11
-7.44086
 21
40.94
  0
LINE
  8
0
 10
-7.44086
 20
40.94
 11
-7.5
 21
40
  0
LINE
  8
0
 10
-7.5
 20
40
 11
-7.44086
 21
39.06
  0
LINE
  8
0
 10
-7.44086
 20
39.06
 11
-7.26436
 21
38.1348
  0
LINE
  8
0
 10
-7.26436
 20
38.1348
 11
-6.97331
 21
37.2391
  0
LINE
  8
0
 10
-6.97331
 20
37.2391
 11
-6.5723
 21
36.3868
  0
LINE
  8
0
 10
-6.5723
 20
36.3868
 11
-6.06763
 21
35.5916
  0
LINE
  8
0
 10
-6.06763
 20
35.5916
 11
-5.46725
 21
34.8659
  0
LINE
  8
0
 10
-5.46725
 20
34.8659
 11
-4.78067
 21
34.2211
  0
LINE
  8
0
 10
-4.78067
 20
34.2211
 11
-4.01869
 21
33.6675
  0
LINE
  8
0
 10
-4.01869
 20
33.6675
 11
-3.19334
 21
33.2138
  0
LINE
  8
0
 10
-3.19334
 20
33.2138
 11
-2.31763
 21
32.8671
  0
LINE
  8
0
 10
-2.31763
 20
32.8671
 11
-1.40535
 21
32.6328
  0
LINE
  8
0
 10
-1.40535
 20
32.6328
 11
-0.470917
 21
32.5148
  0
LINE
  8
0
 10
-0.470917
 20
32.5148
 11
0
 21
32.5148
  0
LINE
  8
0
 10
0
 20
32.5148
 11
0
 21
32.5
  0
LINE
  8
0
 10
0
 20
32.5
 11
2.49998
 21
32.5
  0
LINE
  8
0
 10
2.49998
 20
32.5
 11
2.49998
 21
27.5
  0
LINE
  8
0
 10
2.49998
 20
27.5
 11
0
 21
27.5
  0
LINE
  8
0
 10
0
 20
27.5
 11
0
 21
22.5
  0
LINE
  8
0
 10
0
 20
22.5
 11
2.5
 21
22.5
  0
LINE
  8
0
 10
2.5
 20
22.5
 11
2.5
 21
17.5
  0
LINE
  8
0
 10
2.5
 20
17.5
 11
0
 21
17.5
  0
LINE
  8
0
 10
0
 20
17.5
 11
0
 21
12.5
  0
LINE
  8
0
 10
0
 20
12.5
 11
2.5
 21
12.5
  0
LINE
  8
0
 10
2.5
 20
12.5
 11
2.5
 21
7.5
  0
LINE
  8
0
 10
2.5
 20
7.5
 11
0
 21
7.5
  0
LINE
  8
0
 10
0
 20
7.5
 11
0
 21
0
  0
LINE
  8
0
 10
0
 20
0
 11
7.5
 21
0
  0
LINE
  8
0
 10
7.5
 20
0
 11
7.5
 21
2.5
  0
LINE
  8
0
 10
-0.282547
 20
35.5089
 11
-0.843201
 21
35.5797
  0
LINE
  8
0
 10
-0.843201
 20
35.5797
 11
-1.39056
 21
35.7203
  0
LINE
  8
0
 10
-1.39056
 20
35.7203
 11
-1.916
 21
35.9283
  0
LINE
  8
0
 10
-1.916
 20
35.9283
 11
-2.41121
 21
36.2005
  0
LINE
  8
0
 10
-2.41121
 20
36.2005
 11
-2.86839
 21
36.5327
  0
LINE
  8
0
 10
-2.86839
 20
36.5327
 11
-3.28035
 21
36.9195
  0
LINE
  8
0
 10
-3.28035
 20
36.9195
 11
-3.64056
 21
37.355
  0
LINE
  8
0
 10
-3.64056
 20
37.355
 11
-3.94337
 21
37.8321
  0
LINE
  8
0
 10
-3.94337
 20
37.8321
 11
-4.18399
 21
38.3434
  0
LINE
  8
0
 10
-4.18399
 20
38.3434
 11
-4.35861
 21
38.8809
  0
LINE
  8
0
 10
-4.35861
 20
38.8809
 11
-4.46451
 21
39.436
  0
LINE
  8
0
 10
-4.46451
 20
39.436
 11
-4.5
 21
40
  0
LINE
  8
0
 10
-4.5
 20
40
 11
-4.46451
 21
40.564
  0
LINE
  8
0
 10
-4.46451
 20
40.564
 11
-4.35861
 21
41.1191
  0
LINE
  8
0
 10
-4.35861
 20
41.1191
 11
-4.18399
 21
41.6566
  0
LINE
  8
0
 10
-4.18399
 20
41.6566
 11
-3.94337
 21
42.1679
  0
LINE
  8
0
 10
-3.94337
 20
42.1679
 11
-3.64056
 21
42.645
  0
LINE
  8
0
 10
-3.64056
 20
42.645
 11
-3.28035
 21
43.0805
  0
LINE
  8
0
 10
-3.28035
 20
43.0805
 11
-2.86839
 21
43.4673
  0
LINE
  8
0
 10
-2.86839
 20
43.4673
 11
-2.41121
 21
43.7995
  0
LINE
  8
0
 10
-2.41121
 20
43.7995
 11
-1.916
 21
44.0717
  0
LINE
  8
0
 10
-1.916
 20
44.0717
 11
-1.39056
 21
44.2797
  0
LINE
  8
0
 10
-1.39056
 20
44.2797
 11
-0.843201
 21
44.4203
  0
LINE
  8
0
 10
-0.843201
 20
44.4203
 11
-0.282547
 21
44.4911
  0
LINE
  8
0
 10
-0.282547
 20
44.4911
 11
0.282547
 21
44.4911
  0
LINE
  8
0
 10
0.282547
 20
44.4911
 11
0.843201
 21
44.4203
  0
LINE
  8
0
 10
0.843201
 20
44.4203
 11
1.39056
 21
44.2797
  0
LINE
  8
0
 10
1.39056
 20
44.2797
 11
1.916
 21
44.0717
  0
LINE
  8
0
 10
1.916
 20
44.0717
 11
2.41121
 21
43.7995
  0
LINE
  8
0
 10
2.41121
 20
43.7995
 11
2.86839
 21
43.4673
  0
LINE
  8
0
 10
2.86839
 20
43.4673
 11
3.28035
 21
43.0805
  0
LINE
  8
0
 10
3.28035
 20
43.0805
 11
3.64056
 21
42.645
  0
LINE
  8
0
 10
3.64056
 20
42.645
 11
3.94337
 21
42.1679
  0
LINE
  8
0
 10
3.94337
 20
42.1679
 11
4.18399
 21
41.6566
  0
LINE
  8
0
 10
4.18399
 20
41.6566
 11
4.35861
 21
41.1191
  0
LINE
  8
0
 10
4.35861
 20
41.1191
 11
4.46451
 21
40.564
  0
LINE
  8
0
 10
4.46451
 20
40.564
 11
4.5
 21
40
  0
LINE
  8
0
 10
4.5
 20
40
 11
4.46451
 21
39.436
  0
LINE
  8
0
 10
4.46451
 20
39.436
 11
4.35861
 21
38.8809
  0
LINE
  8
0
 10
4.35861
 20
38.8809
 11
4.18399
 21
38.3434
  0
LINE
  8
0
 10
4.18399
 20
38.3434
 11
3.94337
 21
37.8321
  0
LINE
  8
0
 10
3.94337
 20
37.8321
 11
3.64056
 21
37.355
  0
LINE
  8
0
 10
3.64056
 20
37.355
 11
3.28035
 21
36.9195
  0
LINE
  8
0
 10
3.28035
 20
36.9195
 11
2.86839
 21
36.5327
  0
LINE
  8
0
 10
2.86839
 20
36.5327
 11
2.41121
 21
36.2005
  0
LINE
  8
0
 10
2.41121
 20
36.2005
 11
1.916
 21
35.9283
  0
LINE
  8
0
 10
1.916
 20
35.9283
 11
1.39056
 21
35.7203
  0
LINE
  8
0
 10
1.39056
 20
35.7203
 11
0.843201
 21
35.5797
  0
LINE
  8
0
 10
0.843201
 20
35.5797
 11
0.282547
 21
35.5089
  0
LINE
  8
0
 10
0.282547
 20
35.5089
 11
-0.282547
 21
35.5089
  0
LINE
  8
0
 10
2.5
 20
42.5
 11
0
 21
42.5
  0
LINE
  8
0
 10
0
 20
42.5
 11
0
 21
40
  0
LINE
  8
0
 10
0
 20
40
 11
2.5
 21
40
  0
LINE
  8
0
 10
2.5
 20
40
 11
2.5
 21
42.5
  0
LINE
  8
0
 10
367.53
 20
2.5
 11
372.73
 21
2.5
  0
LINE
  8
0
 10
372.73
 20
2.5
 11
372.73
 21
0
  0
LINE
  8
0
 10
372.73
 20
0
 11
377.93
 21
0
  0
LINE
  8
0
 10
377.93
 20
0
 11
377.93
 21
2.5
  0
LINE
  8
0
 10
377.93
 20
2.5
 11
383.13
 21
2.5
  0
LINE
  8
0
 10
383.13
 20
2.5
 11
383.13
 21
0
  0
LINE
  8
0
 10
383.13
 20
0
 11
388.33
 21
0
  0
LINE
  8
0
 10
388.33
 20
0
 11
388.33
 21
2.5
  0
LINE
  8
0
 10
388.33
 20
2.5
 11
393.53
 21
2.5
  0
LINE
  8
0
 10
393.53
 20
2.5
 11
393.53
 21
0
  0
LINE
  8
0
 10
393.53
 20
0
 11
398.73
 21
0
  0
LINE
  8
0
 10
398.73
 20
0
 11
398.73
 21
2.5
  0
LINE
  8
0
 10
398.73
 20
2.5
 11
403.93
 21
2.5
  0
LINE
  8
0
 10
403.93
 20
2.5
 11
403.93
 21
0
  0
LINE
  8
0
 10
403.93
 20
0
 11
409.13
 21
0
  0
LINE
  8
0
 10
409.13
 20
0
 11
409.13
 21
2.5
  0
LINE
  8
0
 10
409.13
 20
2.5
 11
414.33
 21
2.5
  0
LINE
  8
0
 10
414.33
 20
2.5
 11
414.33
 21
0
  0
LINE
  8
0
 10
414.33
 20
0
 11
419.53
 21
0
  0
LINE
  8
0
 10
419.53
 20
0
 11
419.53
 21
2.5
  0
LINE
  8
0
 10
419.53
 20
2.5
 11
424.73
 21
2.5
  0
LINE
  8
0
 10
424.73
 20
2.5
 11
424.73
 21
0
  0
LINE
  8
0
 10
424.73
 20
0
 11
429.93
 21
0
  0
LINE
  8
0
 10
429.93
 20
0
 11
429.93
 21
2.5
  0
LINE
  8
0
 10
429.93
 20
2.5
 11
435.13
 21
2.5
  0
LINE
  8
0
 10
435.13
 20
2.5
 11
435.13
 21
0
  0
LINE
  8
0
 10
435.13
 20
0
 11
440.33
 21
0
  0
LINE
  8
0
 10
440.33
 20
0
 11
440.33
 21
2.5
  0
LINE
  8
0
 10
440.33
 20
2.5
 11
445.53
 21
2.5
  0
LINE
  8
0
 10
445.53
 20
2.5
 11
445.53
 21
0
  0
LINE
  8
0
 10
445.53
 20
0
 11
450.73
 21
0
  0
LINE
  8
0
 10
450.73
 20
0
 11
450.73
 21
2.5
  0
LINE
  8
0
 10
450.73
 20
2.5
 11
455.93
 21
2.5
  0
LINE
  8
0
 10
455.93
 20
2.5
 11
455.93
 21
0
  0
LINE
  8
0
 10
455.93
 20
0
 11
461.13
 21
0
  0
LINE
  8
0
 10
461.13
 20
0
 11
461.13
 21
2.5
  0
LINE
  8
0
 10
461.13
 20
2.5
 11
466.33
 21
2.5
  0
LINE
  8
0
 10
466.33
 20
2.5
 11
466.33
 21
0
  0
LINE
  8
0
 10
466.33
 20
0
 11
471.53
 21
0
  0
LINE
  8
0
 10
471.53
 20
0
 11
471.53
 21
2.5
  0
LINE
  8
0
 10
471.53
 20
2.5
 11
476.73
 21
2.5
  0
LINE
  8
0
 10
476.73
 20
2.5
 11
476.73
 21
0
  0
LINE
  8
0
 10
476.73
 20
0
 11
481.93
 21
0
  0
LINE
  8
0
 10
481.93
 20
0
 11
481.93
 21
2.5
  0
LINE
  8
0
 10
481.93
 20
2.5
 11
487.13
 21
2.5
  0
LINE
  8
0
 10
487.13
 20
2.5
 11
487.13
 21
0
  0
LINE
  8
0
 10
487.13
 20
0
 11
492.33
 21
0
  0
LINE
  8
0
 10
492.33
 20
0
 11
492.33
 21
2.5
  0
LINE
  8
0
 10
492.33
 20
2.5
 11
497.53
 21
2.5
  0
LINE
  8
0
 10
497.53
 20
2.5
 11
497.53
 21
0
  0
LINE
  8
0
 10
497.53
 20
0
 11
505.03
 21
0
  0
LINE
  8
0
 10
505.03
 20
0
 11
505.03
 21
7.5
  0
LINE
  8
0
 10
505.03
 20
7.5
 11
507.53
 21
7.5
  0
LINE
  8
0
 10
507.53
 20
7.5
 11
507.53
 21
12.5
  0
LINE
  8
0
 10
507.53
 20
12.5
 11
505.03
 21
12.5
  0
LINE
  8
0
 10
505.03
 20
12.5
 11
505.03
 21
17.5
  0
LINE
  8
0
 10
505.03
 20
17.5
 11
507.53
 21
17.5
  0
LINE
  8
0
 10
507.53
 20
17.5
 11
507.53
 21
22.5
  0
LINE
  8
0
 10
507.53
 20
22.5
 11
505.03
 21
22.5
  0
LINE
  8
0
 10
505.03
 20
22.5
 11
505.03
 21
27.5
  0
LINE
  8
0
 10
505.03
 20
27.5
 11
507.53
 21
27.5
  0
LINE
  8
0
 10
507.53
 20
27.5
 11
507.53
 21
32.5
  0
LINE
  8
0
 10
507.53
 20
32.5
 11
505.03
 21
32.5
  0
LINE
  8
0
 10
505.03
 20
32.5
 11
505.03
 21
40
  0
LINE
  8
0
 10
505.03
 20
40
 11
360.03
 21
40
  0
LINE
  8
0
 10
360.03
 20
40
 11
360.03
 21
32.5
  0
LINE
  8
0
 10
360.03
 20
32.5
 11
357.53
 21
32.5
  0
LINE
  8
0
 10
357.53
 20
32.5
 11
357.53
 21
27.5
  0
LINE
  8
0
 10
357.53
 20
27.5
 11
360.03
 21
27.5
  0
LINE
  8
0
 10
360.03
 20
27.5
 11
360.03
 21
22.5
  0
LINE
  8
0
 10
360.03
 20
22.5
 11
357.53
 21
22.5
  0
LINE
  8
0
 10
357.53
 20
22.5
 11
357.53
 21
17.5
  0
LINE
  8
0
 10
357.53
 20
17.5
 11
360.03
 21
17.5
  0
LINE
  8
0
 10
360.03
 20
17.5
 11
360.03
 21
12.5
  0
LINE
  8
0
 10
360.03
 20
12.5
 11
357.53
 21
12.5
  0
LINE
  8
0
 10
357.53
 20
12.5
 11
357.53
 21
7.5
  0
LINE
  8
0
 10
357.53
 20
7.5
 11
360.03
 21
7.5
  0
LINE
  8
0
 10
360.03
 20
7.5
 11
360.03
 21
0
  0
LINE
  8
0
 10
360.03
 20
0
 11
367.53
 21
0
  0
LINE
  8
0
 10
367.53
 20
0
 11
367.53
 21
2.5
  0
LINE
  8
0
 10
217.52
 20
2.5
 11
222.72
 21
2.5
  0
LINE
  8
0
 10
222.72
 20
2.5
 11
222.72
 21
0
  0
LINE
  8
0
 10
222.72
 20
0
 11
227.92
 21
0
  0
LINE
  8
0
 10
227.92
 20
0
 11
227.92
 21
2.5
  0
LINE
  8
0
 10
227.92
 20
2.5
 11
233.12
 21
2.5
  0
LINE
  8
0
 10
233.12
 20
2.5
 11
233.12
 21
0
  0
LINE
  8
0
 10
233.12
 20
0
 11
238.32
 21
0
  0
LINE
  8
0
 10
238.32
 20
0
 11
238.32
 21
2.5
  0
LINE
  8
0
 10
238.32
 20
2.5
 11
243.52
 21
2.5
  0
LINE
  8
0
 10
243.52
 20
2.5
 11
243.52
 21
0
  0
LINE
  8
0
 10
243.52
 20
0
 11
248.72
 21
0
  0
LINE
  8
0
 10
248.72
 20
0
 11
248.72
 21
2.5
  0
LINE
  8
0
 10
248.72
 20
2.5
 11
253.92
 21
2.5
  0
LINE
  8
0
 10
253.92
 20
2.5
 11
253.92
 21
0
  0
LINE
  8
0
 10
253.92
 20
0
 11
259.12
 21
0
  0
LINE
  8
0
 10
259.12
 20
0
 11
259.12
 21
2.5
  0
LINE
  8
0
 10
259.12
 20
2.5
 11
264.32
 21
2.5
  0
LINE
  8
0
 10
264.32
 20
2.5
 11
264.32
 21
0
  0
LINE
  8
0
 10
264.32
 20
0
 11
269.52
 21
0
  0
LINE
  8
0
 10
269.52
 20
0
 11
269.52
 21
2.5
  0
LINE
  8
0
 10
269.52
 20
2.5
 11
274.72
 21
2.5
  0
LINE
  8
0
 10
274.72
 20
2.5
 11
274.72
 21
0
  0
LINE
  8
0
 10
274.72
 20
0
 11
279.92
 21
0
  0
LINE
  8
0
 10
279.92
 20
0
 11
279.92
 21
2.5
  0
LINE
  8
0
 10
279.92
 20
2.5
 11
285.12
 21
2.5
  0
LINE
  8
0
 10
285.12
 20
2.5
 11
285.12
 21
0
  0
LINE
  8
0
 10
285.12
 20
0
 11
290.32
 21
0
  0
LINE
  8
0
 10
290.32
 20
0
 11
290.32
 21
2.5
  0
LINE
  8
0
 10
290.32
 20
2.5
 11
295.52
 21
2.5
  0
LINE
  8
0
 10
295.52
 20
2.5
 11
295.52
 21
0
  0
LINE
  8
0
 10
295.52
 20
0
 11
300.72
 21
0
  0
LINE
  8
0
 10
300.72
 20
0
 11
300.72
 21
2.5
  0
LINE
  8
0
 10
300.72
 20
2.5
 11
305.92
 21
2.5
  0
LINE
  8
0
 10
305.92
 20
2.5
 11
305.92
 21
0
  0
LINE
  8
0
 10
305.92
 20
0
 11
311.12
 21
0
  0
LINE
  8
0
 10
311.12
 20
0
 11
311.12
 21
2.5
  0
LINE
  8
0
 10
311.12
 20
2.5
 11
316.32
 21
2.5
  0
LINE
  8
0
 10
316.32
 20
2.5
 11
316.32
 21
0
  0
LINE
  8
0
 10
316.32
 20
0
 11
321.52
 21
0
  0
LINE
  8
0
 10
321.52
 20
0
 11
321.52
 21
2.5
  0
LINE
  8
0
 10
321.52
 20
2.5
 11
326.72
 21
2.5
  0
LINE
  8
0
 10
326.72
 20
2.5
 11
326.72
 21
0
  0
LINE
  8
0
 10
326.72
 20
0
 11
331.92
 21
0
  0
LINE
  8
0
 10
331.92
 20
0
 11
331.92
 21
2.5
  0
LINE
  8
0
 10
331.92
 20
2.5
 11
337.12
 21
2.5
  0
LINE
  8
0
 10
337.12
 20
2.5
 11
337.12
 21
0
  0
LINE
  8
0
 10
337.12
 20
0
 11
342.32
 21
0
  0
LINE
  8
0
 10
342.32
 20
0
 11
342.32
 21
2.5
  0
LINE
  8
0
 10
342.32
 20
2.5
 11
347.52
 21
2.5
  0
LINE
  8
0
 10
347.52
 20
2.5
 11
347.52
 21
0
  0
LINE
  8
0
 10
347.52
 20
0
 11
355.02
 21
0
  0
LINE
  8
0
 10
355.02
 20
0
 11
355.02
 21
7.5
  0
LINE
  8
0
 10
355.02
 20
7.5
 11
357.52
 21
7.5
  0
LINE
  8
0
 10
357.52
 20
7.5
 11
357.52
 21
12.5
  0
LINE
  8
0
 10
357.52
 20
12.5
 11
355.02
 21
12.5
  0
LINE
  8
0
 10
355.02
 20
12.5
 11
355.02
 21
17.5
  0
LINE
  8
0
 10
355.02
 20
17.5
 11
357.52
 21
17.5
  0
LINE
  8
0
 10
357.52
 20
17.5
 11
357.52
 21
22.5
  0
LINE
  8
0
 10
357.52
 20
22.5
 11
355.02
 21
22.5
  0
LINE
  8
0
 10
355.02
 20
22.5
 11
355.02
 21
27.5
  0
LINE
  8
0
 10
355.02
 20
27.5
 11
357.52
 21
27.5
  0
LINE
  8
0
 10
357.52
 20
27.5
 11
357.52
 21
32.5
  0
LINE
  8
0
 10
357.52
 20
32.5
 11
355.02
 21
32.5
  0
LINE
  8
0
 10
355.02
 20
32.5
 11
355.02
 21
40
  0
LINE
  8
0
 10
355.02
 20
40
 11
210.02
 21
40
  0
LINE
  8
0
 10
210.02
 20
40
 11
210.02
 21
32.5
  0
LINE
  8
0
 10
210.02
 20
32.5
 11
207.52
 21
32.5
  0
LINE
  8
0
 10
207.52
 20
32.5
 11
207.52
 21
27.5
  0
LINE
  8
0
 10
207.52
 20
27.5
 11
210.02
 21
27.5
  0
LINE
  8
0
 10
210.02
 20
27.5
 11
210.02
 21
22.5
  0
LINE
  8
0
 10
210.02
 20
22.5
 11
207.52
 21
22.5
  0
LINE
  8
0
 10
207.52
 20
22.5
 11
207.52
 21
17.5
  0
LINE
  8
0
 10
207.52
 20
17.5
 11
210.02
 21
17.5
  0
LINE
  8
0
 10
210.02
 20
17.5
 11
210.02
 21
12.5
  0
LINE
  8
0
 10
210.02
 20
12.5
 11
207.52
 21
12.5
  0
LINE
  8
0
 10
207.52
 20
12.5
 11
207.52
 21
7.5
  0
LINE
  8
0
 10
207.52
 20
7.5
 11
210.02
 21
7.5
  0
LINE
  8
0
 10
210.02
 20
7.5
 11
210.02
 21
0
  0
LINE
  8
0
 10
210.02
 20
0
 11
217.52
 21
0
  0
LINE
  8
0
 10
217.52
 20
0
 11
217.52
 21
2.5
  0
ENDSEC
  0
SECTION
  2
OBJECTS
  0
DICTIONARY
  0
ENDSEC
  0
EOF
