  0
SECTION
  2
BLOCKS
  0
ENDSEC
  0
SECTION
  2
ENTITIES
  0
LINE
  8
0
 10
19.5391
 20
67.81
 11
27.6783
 21
67.81
  0
LINE
  8
0
 10
27.6783
 20
67.81
 11
27.6783
 21
64.01
  0
LINE
  8
0
 10
27.6783
 20
64.01
 11
35.8174
 21
64.01
  0
LINE
  8
0
 10
35.8174
 20
64.01
 11
35.8174
 21
67.81
  0
LINE
  8
0
 10
35.8174
 20
67.81
 11
43.9565
 21
67.81
  0
LINE
  8
0
 10
43.9565
 20
67.81
 11
43.9565
 21
64.01
  0
LINE
  8
0
 10
43.9565
 20
64.01
 11
52.0956
 21
64.01
  0
LINE
  8
0
 10
52.0956
 20
64.01
 11
52.0956
 21
67.81
  0
LINE
  8
0
 10
52.0956
 20
67.81
 11
60.2348
 21
67.81
  0
LINE
  8
0
 10
60.2348
 20
67.81
 11
60.2348
 21
64.01
  0
LINE
  8
0
 10
60.2348
 20
64.01
 11
68.3739
 21
64.01
  0
LINE
  8
0
 10
68.3739
 20
64.01
 11
68.3739
 21
67.81
  0
LINE
  8
0
 10
68.3739
 20
67.81
 11
76.513
 21
67.81
  0
LINE
  8
0
 10
76.513
 20
67.81
 11
76.513
 21
64.01
  0
LINE
  8
0
 10
76.513
 20
64.01
 11
84.6522
 21
64.01
  0
LINE
  8
0
 10
84.6522
 20
64.01
 11
84.6522
 21
67.81
  0
LINE
  8
0
 10
84.6522
 20
67.81
 11
92.7913
 21
67.81
  0
LINE
  8
0
 10
92.7913
 20
67.81
 11
92.7913
 21
64.01
  0
LINE
  8
0
 10
92.7913
 20
64.01
 11
100.93
 21
64.01
  0
LINE
  8
0
 10
100.93
 20
64.01
 11
100.93
 21
67.81
  0
LINE
  8
0
 10
100.93
 20
67.81
 11
109.07
 21
67.81
  0
LINE
  8
0
 10
109.07
 20
67.81
 11
109.07
 21
64.01
  0
LINE
  8
0
 10
109.07
 20
64.01
 11
117.209
 21
64.01
  0
LINE
  8
0
 10
117.209
 20
64.01
 11
117.209
 21
67.81
  0
LINE
  8
0
 10
117.209
 20
67.81
 11
125.348
 21
67.81
  0
LINE
  8
0
 10
125.348
 20
67.81
 11
125.348
 21
64.01
  0
LINE
  8
0
 10
125.348
 20
64.01
 11
133.487
 21
64.01
  0
LINE
  8
0
 10
133.487
 20
64.01
 11
133.487
 21
67.81
  0
LINE
  8
0
 10
133.487
 20
67.81
 11
141.626
 21
67.81
  0
LINE
  8
0
 10
141.626
 20
67.81
 11
141.626
 21
64.01
  0
LINE
  8
0
 10
141.626
 20
64.01
 11
149.765
 21
64.01
  0
LINE
  8
0
 10
149.765
 20
64.01
 11
149.765
 21
67.81
  0
LINE
  8
0
 10
149.765
 20
67.81
 11
157.904
 21
67.81
  0
LINE
  8
0
 10
157.904
 20
67.81
 11
157.904
 21
64.01
  0
LINE
  8
0
 10
157.904
 20
64.01
 11
166.043
 21
64.01
  0
LINE
  8
0
 10
166.043
 20
64.01
 11
166.043
 21
67.81
  0
LINE
  8
0
 10
166.043
 20
67.81
 11
174.183
 21
67.81
  0
LINE
  8
0
 10
174.183
 20
67.81
 11
174.183
 21
64.01
  0
LINE
  8
0
 10
174.183
 20
64.01
 11
182.322
 21
64.01
  0
LINE
  8
0
 10
182.322
 20
64.01
 11
182.322
 21
67.81
  0
LINE
  8
0
 10
182.322
 20
67.81
 11
190.461
 21
67.81
  0
LINE
  8
0
 10
190.461
 20
67.81
 11
190.461
 21
64.01
  0
LINE
  8
0
 10
190.461
 20
64.01
 11
198.6
 21
64.01
  0
LINE
  8
0
 10
198.6
 20
64.01
 11
198.6
 21
67.81
  0
LINE
  8
0
 10
198.6
 20
67.81
 11
206.2
 21
67.81
  0
LINE
  8
0
 10
206.2
 20
67.81
 11
206.2
 21
79.21
  0
LINE
  8
0
 10
206.2
 20
79.21
 11
210
 21
79.21
  0
LINE
  8
0
 10
210
 20
79.21
 11
210
 21
86.8271
  0
LINE
  8
0
 10
210
 20
86.8271
 11
206.2
 21
86.8271
  0
LINE
  8
0
 10
206.2
 20
86.8271
 11
206.2
 21
94.4443
  0
LINE
  8
0
 10
206.2
 20
94.4443
 11
210
 21
94.4443
  0
LINE
  8
0
 10
210
 20
94.4443
 11
210
 21
102.061
  0
LINE
  8
0
 10
210
 20
102.061
 11
206.2
 21
102.061
  0
LINE
  8
0
 10
206.2
 20
102.061
 11
206.2
 21
109.679
  0
LINE
  8
0
 10
206.2
 20
109.679
 11
210
 21
109.679
  0
LINE
  8
0
 10
210
 20
109.679
 11
210
 21
117.296
  0
LINE
  8
0
 10
210
 20
117.296
 11
206.2
 21
117.296
  0
LINE
  8
0
 10
206.2
 20
117.296
 11
206.2
 21
124.913
  0
LINE
  8
0
 10
206.2
 20
124.913
 11
210
 21
124.913
  0
LINE
  8
0
 10
210
 20
124.913
 11
210
 21
132.53
  0
LINE
  8
0
 10
210
 20
132.53
 11
206.2
 21
132.53
  0
LINE
  8
0
 10
206.2
 20
132.53
 11
206.2
 21
140.147
  0
LINE
  8
0
 10
206.2
 20
140.147
 11
210
 21
140.147
  0
LINE
  8
0
 10
210
 20
140.147
 11
210
 21
147.764
  0
LINE
  8
0
 10
210
 20
147.764
 11
206.2
 21
147.764
  0
LINE
  8
0
 10
206.2
 20
147.764
 11
206.2
 21
155.381
  0
LINE
  8
0
 10
206.2
 20
155.381
 11
210
 21
155.381
  0
LINE
  8
0
 10
210
 20
155.381
 11
210
 21
162.999
  0
LINE
  8
0
 10
210
 20
162.999
 11
206.2
 21
162.999
  0
LINE
  8
0
 10
206.2
 20
162.999
 11
206.2
 21
170.616
  0
LINE
  8
0
 10
206.2
 20
170.616
 11
210
 21
170.616
  0
LINE
  8
0
 10
210
 20
170.616
 11
210
 21
178.233
  0
LINE
  8
0
 10
210
 20
178.233
 11
206.2
 21
178.233
  0
LINE
  8
0
 10
206.2
 20
178.233
 11
206.2
 21
185.85
  0
LINE
  8
0
 10
206.2
 20
185.85
 11
210
 21
185.85
  0
LINE
  8
0
 10
210
 20
185.85
 11
210
 21
193.467
  0
LINE
  8
0
 10
210
 20
193.467
 11
206.2
 21
193.467
  0
LINE
  8
0
 10
206.2
 20
193.467
 11
206.2
 21
201.084
  0
LINE
  8
0
 10
206.2
 20
201.084
 11
210
 21
201.084
  0
LINE
  8
0
 10
210
 20
201.084
 11
210
 21
208.701
  0
LINE
  8
0
 10
210
 20
208.701
 11
206.2
 21
208.701
  0
LINE
  8
0
 10
206.2
 20
208.701
 11
206.2
 21
216.319
  0
LINE
  8
0
 10
206.2
 20
216.319
 11
210
 21
216.319
  0
LINE
  8
0
 10
210
 20
216.319
 11
210
 21
223.936
  0
LINE
  8
0
 10
210
 20
223.936
 11
206.2
 21
223.936
  0
LINE
  8
0
 10
206.2
 20
223.936
 11
206.2
 21
231.553
  0
LINE
  8
0
 10
206.2
 20
231.553
 11
210
 21
231.553
  0
LINE
  8
0
 10
210
 20
231.553
 11
210
 21
239.17
  0
LINE
  8
0
 10
210
 20
239.17
 11
206.2
 21
239.17
  0
LINE
  8
0
 10
206.2
 20
239.17
 11
206.2
 21
246.787
  0
LINE
  8
0
 10
206.2
 20
246.787
 11
210
 21
246.787
  0
LINE
  8
0
 10
210
 20
246.787
 11
210
 21
254.404
  0
LINE
  8
0
 10
210
 20
254.404
 11
206.2
 21
254.404
  0
LINE
  8
0
 10
206.2
 20
254.404
 11
206.2
 21
262.021
  0
LINE
  8
0
 10
206.2
 20
262.021
 11
210
 21
262.021
  0
LINE
  8
0
 10
210
 20
262.021
 11
210
 21
269.639
  0
LINE
  8
0
 10
210
 20
269.639
 11
206.2
 21
269.639
  0
LINE
  8
0
 10
206.2
 20
269.639
 11
206.2
 21
277.256
  0
LINE
  8
0
 10
206.2
 20
277.256
 11
210
 21
277.256
  0
LINE
  8
0
 10
210
 20
277.256
 11
210
 21
284.873
  0
LINE
  8
0
 10
210
 20
284.873
 11
206.2
 21
284.873
  0
LINE
  8
0
 10
206.2
 20
284.873
 11
206.2
 21
292.49
  0
LINE
  8
0
 10
206.2
 20
292.49
 11
210
 21
292.49
  0
LINE
  8
0
 10
210
 20
292.49
 11
210
 21
300.107
  0
LINE
  8
0
 10
210
 20
300.107
 11
206.2
 21
300.107
  0
LINE
  8
0
 10
206.2
 20
300.107
 11
206.2
 21
307.724
  0
LINE
  8
0
 10
206.2
 20
307.724
 11
210
 21
307.724
  0
LINE
  8
0
 10
210
 20
307.724
 11
210
 21
315.341
  0
LINE
  8
0
 10
210
 20
315.341
 11
206.2
 21
315.341
  0
LINE
  8
0
 10
206.2
 20
315.341
 11
206.2
 21
322.959
  0
LINE
  8
0
 10
206.2
 20
322.959
 11
210
 21
322.959
  0
LINE
  8
0
 10
210
 20
322.959
 11
210
 21
330.576
  0
LINE
  8
0
 10
210
 20
330.576
 11
206.2
 21
330.576
  0
LINE
  8
0
 10
206.2
 20
330.576
 11
206.2
 21
338.193
  0
LINE
  8
0
 10
206.2
 20
338.193
 11
210
 21
338.193
  0
LINE
  8
0
 10
210
 20
338.193
 11
210
 21
345.81
  0
LINE
  8
0
 10
210
 20
345.81
 11
206.2
 21
345.81
  0
LINE
  8
0
 10
206.2
 20
345.81
 11
206.2
 21
357.21
  0
LINE
  8
0
 10
206.2
 20
357.21
 11
198.6
 21
357.21
  0
LINE
  8
0
 10
198.6
 20
357.21
 11
198.6
 21
361.01
  0
LINE
  8
0
 10
198.6
 20
361.01
 11
190.461
 21
361.01
  0
LINE
  8
0
 10
190.461
 20
361.01
 11
190.461
 21
357.21
  0
LINE
  8
0
 10
190.461
 20
357.21
 11
182.322
 21
357.21
  0
LINE
  8
0
 10
182.322
 20
357.21
 11
182.322
 21
361.01
  0
LINE
  8
0
 10
182.322
 20
361.01
 11
174.183
 21
361.01
  0
LINE
  8
0
 10
174.183
 20
361.01
 11
174.183
 21
357.21
  0
LINE
  8
0
 10
174.183
 20
357.21
 11
166.043
 21
357.21
  0
LINE
  8
0
 10
166.043
 20
357.21
 11
166.043
 21
361.01
  0
LINE
  8
0
 10
166.043
 20
361.01
 11
157.904
 21
361.01
  0
LINE
  8
0
 10
157.904
 20
361.01
 11
157.904
 21
357.21
  0
LINE
  8
0
 10
157.904
 20
357.21
 11
149.765
 21
357.21
  0
LINE
  8
0
 10
149.765
 20
357.21
 11
149.765
 21
361.01
  0
LINE
  8
0
 10
149.765
 20
361.01
 11
141.626
 21
361.01
  0
LINE
  8
0
 10
141.626
 20
361.01
 11
141.626
 21
357.21
  0
LINE
  8
0
 10
141.626
 20
357.21
 11
133.487
 21
357.21
  0
LINE
  8
0
 10
133.487
 20
357.21
 11
133.487
 21
361.01
  0
LINE
  8
0
 10
133.487
 20
361.01
 11
125.348
 21
361.01
  0
LINE
  8
0
 10
125.348
 20
361.01
 11
125.348
 21
357.21
  0
LINE
  8
0
 10
125.348
 20
357.21
 11
117.209
 21
357.21
  0
LINE
  8
0
 10
117.209
 20
357.21
 11
117.209
 21
361.01
  0
LINE
  8
0
 10
117.209
 20
361.01
 11
109.07
 21
361.01
  0
LINE
  8
0
 10
109.07
 20
361.01
 11
109.07
 21
357.21
  0
LINE
  8
0
 10
109.07
 20
357.21
 11
100.93
 21
357.21
  0
LINE
  8
0
 10
100.93
 20
357.21
 11
100.93
 21
361.01
  0
LINE
  8
0
 10
100.93
 20
361.01
 11
92.7913
 21
361.01
  0
LINE
  8
0
 10
92.7913
 20
361.01
 11
92.7913
 21
357.21
  0
LINE
  8
0
 10
92.7913
 20
357.21
 11
84.6522
 21
357.21
  0
LINE
  8
0
 10
84.6522
 20
357.21
 11
84.6522
 21
361.01
  0
LINE
  8
0
 10
84.6522
 20
361.01
 11
76.513
 21
361.01
  0
LINE
  8
0
 10
76.513
 20
361.01
 11
76.513
 21
357.21
  0
LINE
  8
0
 10
76.513
 20
357.21
 11
68.3739
 21
357.21
  0
LINE
  8
0
 10
68.3739
 20
357.21
 11
68.3739
 21
361.01
  0
LINE
  8
0
 10
68.3739
 20
361.01
 11
60.2348
 21
361.01
  0
LINE
  8
0
 10
60.2348
 20
361.01
 11
60.2348
 21
357.21
  0
LINE
  8
0
 10
60.2348
 20
357.21
 11
52.0957
 21
357.21
  0
LINE
  8
0
 10
52.0957
 20
357.21
 11
52.0957
 21
361.01
  0
LINE
  8
0
 10
52.0957
 20
361.01
 11
43.9565
 21
361.01
  0
LINE
  8
0
 10
43.9565
 20
361.01
 11
43.9565
 21
357.21
  0
LINE
  8
0
 10
43.9565
 20
357.21
 11
35.8174
 21
357.21
  0
LINE
  8
0
 10
35.8174
 20
357.21
 11
35.8174
 21
361.01
  0
LINE
  8
0
 10
35.8174
 20
361.01
 11
27.6783
 21
361.01
  0
LINE
  8
0
 10
27.6783
 20
361.01
 11
27.6783
 21
357.21
  0
LINE
  8
0
 10
27.6783
 20
357.21
 11
19.5391
 21
357.21
  0
LINE
  8
0
 10
19.5391
 20
357.21
 11
19.5391
 21
361.01
  0
LINE
  8
0
 10
19.5391
 20
361.01
 11
11.4
 21
361.01
  0
LINE
  8
0
 10
11.4
 20
361.01
 11
11.4
 21
357.21
  0
LINE
  8
0
 10
11.4
 20
357.21
 11
3.79997
 21
357.21
  0
LINE
  8
0
 10
3.79997
 20
357.21
 11
3.79997
 21
345.81
  0
LINE
  8
0
 10
3.79997
 20
345.81
 11
0
 21
345.81
  0
LINE
  8
0
 10
0
 20
345.81
 11
0
 21
338.193
  0
LINE
  8
0
 10
0
 20
338.193
 11
3.79997
 21
338.193
  0
LINE
  8
0
 10
3.79997
 20
338.193
 11
3.79997
 21
330.576
  0
LINE
  8
0
 10
3.79997
 20
330.576
 11
0
 21
330.576
  0
LINE
  8
0
 10
0
 20
330.576
 11
0
 21
322.959
  0
LINE
  8
0
 10
0
 20
322.959
 11
3.79997
 21
322.959
  0
LINE
  8
0
 10
3.79997
 20
322.959
 11
3.79997
 21
315.341
  0
LINE
  8
0
 10
3.79997
 20
315.341
 11
0
 21
315.341
  0
LINE
  8
0
 10
0
 20
315.341
 11
0
 21
307.724
  0
LINE
  8
0
 10
0
 20
307.724
 11
3.79997
 21
307.724
  0
LINE
  8
0
 10
3.79997
 20
307.724
 11
3.79997
 21
300.107
  0
LINE
  8
0
 10
3.79997
 20
300.107
 11
0
 21
300.107
  0
LINE
  8
0
 10
0
 20
300.107
 11
0
 21
292.49
  0
LINE
  8
0
 10
0
 20
292.49
 11
3.79997
 21
292.49
  0
LINE
  8
0
 10
3.79997
 20
292.49
 11
3.79997
 21
284.873
  0
LINE
  8
0
 10
3.79997
 20
284.873
 11
0
 21
284.873
  0
LINE
  8
0
 10
0
 20
284.873
 11
0
 21
277.256
  0
LINE
  8
0
 10
0
 20
277.256
 11
3.79997
 21
277.256
  0
LINE
  8
0
 10
3.79997
 20
277.256
 11
3.79997
 21
269.639
  0
LINE
  8
0
 10
3.79997
 20
269.639
 11
0
 21
269.639
  0
LINE
  8
0
 10
0
 20
269.639
 11
0
 21
262.021
  0
LINE
  8
0
 10
0
 20
262.021
 11
3.79997
 21
262.021
  0
LINE
  8
0
 10
3.79997
 20
262.021
 11
3.79997
 21
254.404
  0
LINE
  8
0
 10
3.79997
 20
254.404
 11
0
 21
254.404
  0
LINE
  8
0
 10
0
 20
254.404
 11
0
 21
246.787
  0
LINE
  8
0
 10
0
 20
246.787
 11
3.79997
 21
246.787
  0
LINE
  8
0
 10
3.79997
 20
246.787
 11
3.79997
 21
239.17
  0
LINE
  8
0
 10
3.79997
 20
239.17
 11
0
 21
239.17
  0
LINE
  8
0
 10
0
 20
239.17
 11
0
 21
231.553
  0
LINE
  8
0
 10
0
 20
231.553
 11
3.79997
 21
231.553
  0
LINE
  8
0
 10
3.79997
 20
231.553
 11
3.79997
 21
223.936
  0
LINE
  8
0
 10
3.79997
 20
223.936
 11
0
 21
223.936
  0
LINE
  8
0
 10
0
 20
223.936
 11
0
 21
216.319
  0
LINE
  8
0
 10
0
 20
216.319
 11
3.79997
 21
216.319
  0
LINE
  8
0
 10
3.79997
 20
216.319
 11
3.79999
 21
208.701
  0
LINE
  8
0
 10
3.79999
 20
208.701
 11
0
 21
208.701
  0
LINE
  8
0
 10
0
 20
208.701
 11
0
 21
201.084
  0
LINE
  8
0
 10
0
 20
201.084
 11
3.79999
 21
201.084
  0
LINE
  8
0
 10
3.79999
 20
201.084
 11
3.79999
 21
193.467
  0
LINE
  8
0
 10
3.79999
 20
193.467
 11
0
 21
193.467
  0
LINE
  8
0
 10
0
 20
193.467
 11
0
 21
185.85
  0
LINE
  8
0
 10
0
 20
185.85
 11
3.79999
 21
185.85
  0
LINE
  8
0
 10
3.79999
 20
185.85
 11
3.79999
 21
178.233
  0
LINE
  8
0
 10
3.79999
 20
178.233
 11
0
 21
178.233
  0
LINE
  8
0
 10
0
 20
178.233
 11
0
 21
170.616
  0
LINE
  8
0
 10
0
 20
170.616
 11
3.79999
 21
170.616
  0
LINE
  8
0
 10
3.79999
 20
170.616
 11
3.79999
 21
162.999
  0
LINE
  8
0
 10
3.79999
 20
162.999
 11
0
 21
162.999
  0
LINE
  8
0
 10
0
 20
162.999
 11
0
 21
155.381
  0
LINE
  8
0
 10
0
 20
155.381
 11
3.79999
 21
155.381
  0
LINE
  8
0
 10
3.79999
 20
155.381
 11
3.79999
 21
147.764
  0
LINE
  8
0
 10
3.79999
 20
147.764
 11
0
 21
147.764
  0
LINE
  8
0
 10
0
 20
147.764
 11
0
 21
140.147
  0
LINE
  8
0
 10
0
 20
140.147
 11
3.79999
 21
140.147
  0
LINE
  8
0
 10
3.79999
 20
140.147
 11
3.79999
 21
132.53
  0
LINE
  8
0
 10
3.79999
 20
132.53
 11
0
 21
132.53
  0
LINE
  8
0
 10
0
 20
132.53
 11
0
 21
124.913
  0
LINE
  8
0
 10
0
 20
124.913
 11
3.79999
 21
124.913
  0
LINE
  8
0
 10
3.79999
 20
124.913
 11
3.79999
 21
117.296
  0
LINE
  8
0
 10
3.79999
 20
117.296
 11
0
 21
117.296
  0
LINE
  8
0
 10
0
 20
117.296
 11
0
 21
109.679
  0
LINE
  8
0
 10
0
 20
109.679
 11
3.79999
 21
109.679
  0
LINE
  8
0
 10
3.79999
 20
109.679
 11
3.79999
 21
102.061
  0
LINE
  8
0
 10
3.79999
 20
102.061
 11
0
 21
102.061
  0
LINE
  8
0
 10
0
 20
102.061
 11
0
 21
94.4443
  0
LINE
  8
0
 10
0
 20
94.4443
 11
3.79999
 21
94.4443
  0
LINE
  8
0
 10
3.79999
 20
94.4443
 11
3.79999
 21
86.8271
  0
LINE
  8
0
 10
3.79999
 20
86.8271
 11
0
 21
86.8271
  0
LINE
  8
0
 10
0
 20
86.8271
 11
0
 21
79.21
  0
LINE
  8
0
 10
0
 20
79.21
 11
3.79999
 21
79.21
  0
LINE
  8
0
 10
3.79999
 20
79.21
 11
3.79999
 21
67.81
  0
LINE
  8
0
 10
3.79999
 20
67.81
 11
11.4
 21
67.81
  0
LINE
  8
0
 10
11.4
 20
67.81
 11
11.4
 21
64.01
  0
LINE
  8
0
 10
11.4
 20
64.01
 11
19.5391
 21
64.01
  0
LINE
  8
0
 10
19.5391
 20
64.01
 11
19.5391
 21
67.81
  0
LINE
  8
0
 10
215.81
 20
67.8
 11
223.41
 21
67.8
  0
LINE
  8
0
 10
223.41
 20
67.8
 11
223.41
 21
64.01
  0
LINE
  8
0
 10
223.41
 20
64.01
 11
422.01
 21
64.01
  0
LINE
  8
0
 10
422.01
 20
64.01
 11
422.01
 21
361.01
  0
LINE
  8
0
 10
422.01
 20
361.01
 11
223.41
 21
361.01
  0
LINE
  8
0
 10
223.41
 20
361.01
 11
223.41
 21
357.22
  0
LINE
  8
0
 10
223.41
 20
357.22
 11
215.81
 21
357.22
  0
LINE
  8
0
 10
215.81
 20
357.22
 11
215.81
 21
361.01
  0
LINE
  8
0
 10
215.81
 20
361.01
 11
212.01
 21
361.01
  0
LINE
  8
0
 10
212.01
 20
361.01
 11
212.01
 21
64.01
  0
LINE
  8
0
 10
212.01
 20
64.01
 11
215.81
 21
64.01
  0
LINE
  8
0
 10
215.81
 20
64.01
 11
215.81
 21
67.8
  0
LINE
  8
0
 10
496.37
 20
153.02
 11
500.17
 21
153.02
  0
LINE
  8
0
 10
500.17
 20
153.02
 11
500.17
 21
131.82
  0
LINE
  8
0
 10
500.17
 20
131.82
 11
570.62
 21
131.82
  0
LINE
  8
0
 10
570.62
 20
131.82
 11
570.62
 21
153.02
  0
LINE
  8
0
 10
570.62
 20
153.02
 11
574.42
 21
153.02
  0
LINE
  8
0
 10
574.42
 20
153.02
 11
574.42
 21
131.82
  0
LINE
  8
0
 10
574.42
 20
131.82
 11
644.87
 21
131.82
  0
LINE
  8
0
 10
644.87
 20
131.82
 11
644.87
 21
153.02
  0
LINE
  8
0
 10
644.87
 20
153.02
 11
648.67
 21
153.02
  0
LINE
  8
0
 10
648.67
 20
153.02
 11
648.67
 21
131.82
  0
LINE
  8
0
 10
648.67
 20
131.82
 11
717.22
 21
131.82
  0
LINE
  8
0
 10
717.22
 20
131.82
 11
717.22
 21
147.02
  0
LINE
  8
0
 10
717.22
 20
147.02
 11
721.02
 21
147.02
  0
LINE
  8
0
 10
721.02
 20
147.02
 11
721.02
 21
166.62
  0
LINE
  8
0
 10
721.02
 20
166.62
 11
717.22
 21
166.62
  0
LINE
  8
0
 10
717.22
 20
166.62
 11
717.22
 21
178.02
  0
LINE
  8
0
 10
717.22
 20
178.02
 11
427.82
 21
178.02
  0
LINE
  8
0
 10
427.82
 20
178.02
 11
427.82
 21
166.62
  0
LINE
  8
0
 10
427.82
 20
166.62
 11
424.02
 21
166.62
  0
LINE
  8
0
 10
424.02
 20
166.62
 11
424.02
 21
147.02
  0
LINE
  8
0
 10
424.02
 20
147.02
 11
427.82
 21
147.02
  0
LINE
  8
0
 10
427.82
 20
147.02
 11
427.82
 21
131.82
  0
LINE
  8
0
 10
427.82
 20
131.82
 11
496.37
 21
131.82
  0
LINE
  8
0
 10
496.37
 20
131.82
 11
496.37
 21
153.02
  0
LINE
  8
0
 10
630.22
 20
83.01
 11
634.02
 21
83.01
  0
LINE
  8
0
 10
634.02
 20
83.01
 11
634.02
 21
102.61
  0
LINE
  8
0
 10
634.02
 20
102.61
 11
630.22
 21
102.61
  0
LINE
  8
0
 10
630.22
 20
102.61
 11
630.22
 21
114.01
  0
LINE
  8
0
 10
630.22
 20
114.01
 11
530.92
 21
114.01
  0
LINE
  8
0
 10
530.92
 20
114.01
 11
530.92
 21
89.01
  0
LINE
  8
0
 10
530.92
 20
89.01
 11
527.12
 21
89.01
  0
LINE
  8
0
 10
527.12
 20
89.01
 11
527.12
 21
114.01
  0
LINE
  8
0
 10
527.12
 20
114.01
 11
427.82
 21
114.01
  0
LINE
  8
0
 10
427.82
 20
114.01
 11
427.82
 21
102.61
  0
LINE
  8
0
 10
427.82
 20
102.61
 11
424.02
 21
102.61
  0
LINE
  8
0
 10
424.02
 20
102.61
 11
424.02
 21
83.01
  0
LINE
  8
0
 10
424.02
 20
83.01
 11
427.82
 21
83.01
  0
LINE
  8
0
 10
427.82
 20
83.01
 11
427.82
 21
67.81
  0
LINE
  8
0
 10
427.82
 20
67.81
 11
630.22
 21
67.81
  0
LINE
  8
0
 10
630.22
 20
67.81
 11
630.22
 21
83.01
  0
LINE
  8
0
 10
842.23
 20
83.01
 11
846.03
 21
83.01
  0
LINE
  8
0
 10
846.03
 20
83.01
 11
846.03
 21
102.61
  0
LINE
  8
0
 10
846.03
 20
102.61
 11
842.23
 21
102.61
  0
LINE
  8
0
 10
842.23
 20
102.61
 11
842.23
 21
114.01
  0
LINE
  8
0
 10
842.23
 20
114.01
 11
742.93
 21
114.01
  0
LINE
  8
0
 10
742.93
 20
114.01
 11
742.93
 21
89.01
  0
LINE
  8
0
 10
742.93
 20
89.01
 11
739.13
 21
89.01
  0
LINE
  8
0
 10
739.13
 20
89.01
 11
739.13
 21
114.01
  0
LINE
  8
0
 10
739.13
 20
114.01
 11
639.83
 21
114.01
  0
LINE
  8
0
 10
639.83
 20
114.01
 11
639.83
 21
102.61
  0
LINE
  8
0
 10
639.83
 20
102.61
 11
636.03
 21
102.61
  0
LINE
  8
0
 10
636.03
 20
102.61
 11
636.03
 21
83.01
  0
LINE
  8
0
 10
636.03
 20
83.01
 11
639.83
 21
83.01
  0
LINE
  8
0
 10
639.83
 20
83.01
 11
639.83
 21
67.81
  0
LINE
  8
0
 10
639.83
 20
67.81
 11
842.23
 21
67.81
  0
LINE
  8
0
 10
842.23
 20
67.81
 11
842.23
 21
83.01
  0
LINE
  8
0
 10
1054.24
 20
83.01
 11
1058.04
 21
83.01
  0
LINE
  8
0
 10
1058.04
 20
83.01
 11
1058.04
 21
102.61
  0
LINE
  8
0
 10
1058.04
 20
102.61
 11
1054.24
 21
102.61
  0
LINE
  8
0
 10
1054.24
 20
102.61
 11
1054.24
 21
114.01
  0
LINE
  8
0
 10
1054.24
 20
114.01
 11
954.94
 21
114.01
  0
LINE
  8
0
 10
954.94
 20
114.01
 11
954.94
 21
89.01
  0
LINE
  8
0
 10
954.94
 20
89.01
 11
951.14
 21
89.01
  0
LINE
  8
0
 10
951.14
 20
89.01
 11
951.14
 21
114.01
  0
LINE
  8
0
 10
951.14
 20
114.01
 11
851.84
 21
114.01
  0
LINE
  8
0
 10
851.84
 20
114.01
 11
851.84
 21
102.61
  0
LINE
  8
0
 10
851.84
 20
102.61
 11
848.04
 21
102.61
  0
LINE
  8
0
 10
848.04
 20
102.61
 11
848.04
 21
83.01
  0
LINE
  8
0
 10
848.04
 20
83.01
 11
851.84
 21
83.01
  0
LINE
  8
0
 10
851.84
 20
83.01
 11
851.84
 21
67.81
  0
LINE
  8
0
 10
851.84
 20
67.81
 11
1054.24
 21
67.81
  0
LINE
  8
0
 10
1054.24
 20
67.81
 11
1054.24
 21
83.01
  0
LINE
  8
0
 10
11.4
 20
3.79999
 11
19.5391
 21
3.79999
  0
LINE
  8
0
 10
19.5391
 20
3.79999
 11
19.5391
 21
0
  0
LINE
  8
0
 10
19.5391
 20
0
 11
27.6783
 21
0
  0
LINE
  8
0
 10
27.6783
 20
0
 11
27.6783
 21
3.79999
  0
LINE
  8
0
 10
27.6783
 20
3.79999
 11
35.8174
 21
3.79999
  0
LINE
  8
0
 10
35.8174
 20
3.79999
 11
35.8174
 21
0
  0
LINE
  8
0
 10
35.8174
 20
0
 11
43.9565
 21
0
  0
LINE
  8
0
 10
43.9565
 20
0
 11
43.9565
 21
3.79999
  0
LINE
  8
0
 10
43.9565
 20
3.79999
 11
52.0956
 21
3.79999
  0
LINE
  8
0
 10
52.0956
 20
3.79999
 11
52.0956
 21
0
  0
LINE
  8
0
 10
52.0956
 20
0
 11
60.2348
 21
0
  0
LINE
  8
0
 10
60.2348
 20
0
 11
60.2348
 21
3.79999
  0
LINE
  8
0
 10
60.2348
 20
3.79999
 11
68.3739
 21
3.79999
  0
LINE
  8
0
 10
68.3739
 20
3.79999
 11
68.3739
 21
0
  0
LINE
  8
0
 10
68.3739
 20
0
 11
76.513
 21
0
  0
LINE
  8
0
 10
76.513
 20
0
 11
76.513
 21
3.79999
  0
LINE
  8
0
 10
76.513
 20
3.79999
 11
84.6522
 21
3.79999
  0
LINE
  8
0
 10
84.6522
 20
3.79999
 11
84.6522
 21
0
  0
LINE
  8
0
 10
84.6522
 20
0
 11
92.7913
 21
0
  0
LINE
  8
0
 10
92.7913
 20
0
 11
92.7913
 21
3.79999
  0
LINE
  8
0
 10
92.7913
 20
3.79999
 11
100.93
 21
3.79999
  0
LINE
  8
0
 10
100.93
 20
3.79999
 11
100.93
 21
0
  0
LINE
  8
0
 10
100.93
 20
0
 11
109.07
 21
0
  0
LINE
  8
0
 10
109.07
 20
0
 11
109.07
 21
3.79999
  0
LINE
  8
0
 10
109.07
 20
3.79999
 11
117.209
 21
3.79999
  0
LINE
  8
0
 10
117.209
 20
3.79999
 11
117.209
 21
0
  0
LINE
  8
0
 10
117.209
 20
0
 11
125.348
 21
0
  0
LINE
  8
0
 10
125.348
 20
0
 11
125.348
 21
3.79999
  0
LINE
  8
0
 10
125.348
 20
3.79999
 11
133.487
 21
3.79999
  0
LINE
  8
0
 10
133.487
 20
3.79999
 11
133.487
 21
0
  0
LINE
  8
0
 10
133.487
 20
0
 11
141.626
 21
0
  0
LINE
  8
0
 10
141.626
 20
0
 11
141.626
 21
3.79999
  0
LINE
  8
0
 10
141.626
 20
3.79999
 11
149.765
 21
3.79999
  0
LINE
  8
0
 10
149.765
 20
3.79999
 11
149.765
 21
0
  0
LINE
  8
0
 10
149.765
 20
0
 11
157.904
 21
0
  0
LINE
  8
0
 10
157.904
 20
0
 11
157.904
 21
3.79999
  0
LINE
  8
0
 10
157.904
 20
3.79999
 11
166.043
 21
3.79999
  0
LINE
  8
0
 10
166.043
 20
3.79999
 11
166.043
 21
0
  0
LINE
  8
0
 10
166.043
 20
0
 11
174.183
 21
0
  0
LINE
  8
0
 10
174.183
 20
0
 11
174.183
 21
3.79999
  0
LINE
  8
0
 10
174.183
 20
3.79999
 11
182.322
 21
3.79999
  0
LINE
  8
0
 10
182.322
 20
3.79999
 11
182.322
 21
0
  0
LINE
  8
0
 10
182.322
 20
0
 11
190.461
 21
0
  0
LINE
  8
0
 10
190.461
 20
0
 11
190.461
 21
3.79999
  0
LINE
  8
0
 10
190.461
 20
3.79999
 11
198.6
 21
3.79999
  0
LINE
  8
0
 10
198.6
 20
3.79999
 11
198.6
 21
0
  0
LINE
  8
0
 10
198.6
 20
0
 11
210
 21
0
  0
LINE
  8
0
 10
210
 20
0
 11
210
 21
11.4
  0
LINE
  8
0
 10
210
 20
11.4
 11
206.2
 21
11.4
  0
LINE
  8
0
 10
206.2
 20
11.4
 11
206.2
 21
20.4667
  0
LINE
  8
0
 10
206.2
 20
20.4667
 11
210
 21
20.4667
  0
LINE
  8
0
 10
210
 20
20.4667
 11
210
 21
29.5333
  0
LINE
  8
0
 10
210
 20
29.5333
 11
206.2
 21
29.5333
  0
LINE
  8
0
 10
206.2
 20
29.5333
 11
206.2
 21
38.6
  0
LINE
  8
0
 10
206.2
 20
38.6
 11
210
 21
38.6
  0
LINE
  8
0
 10
210
 20
38.6
 11
210
 21
50
  0
LINE
  8
0
 10
210
 20
50
 11
12
 21
50
  0
LINE
  8
0
 10
12
 20
50
 11
11.9054
 21
51.504
  0
LINE
  8
0
 10
11.9054
 20
51.504
 11
11.623
 21
52.9843
  0
LINE
  8
0
 10
11.623
 20
52.9843
 11
11.1573
 21
54.4175
  0
LINE
  8
0
 10
11.1573
 20
54.4175
 11
10.5157
 21
55.781
  0
LINE
  8
0
 10
10.5157
 20
55.781
 11
9.70819
 21
57.0534
  0
LINE
  8
0
 10
9.70819
 20
57.0534
 11
8.74762
 21
58.2146
  0
LINE
  8
0
 10
8.74762
 20
58.2146
 11
7.64908
 21
59.2462
  0
LINE
  8
0
 10
7.64908
 20
59.2462
 11
6.42992
 21
60.1319
  0
LINE
  8
0
 10
6.42992
 20
60.1319
 11
5.10934
 21
60.8579
  0
LINE
  8
0
 10
5.10934
 20
60.8579
 11
3.70819
 21
61.4127
  0
LINE
  8
0
 10
3.70819
 20
61.4127
 11
2.24857
 21
61.7874
  0
LINE
  8
0
 10
2.24857
 20
61.7874
 11
0.753479
 21
61.9763
  0
LINE
  8
0
 10
0.753479
 20
61.9763
 11
-0.753479
 21
61.9763
  0
LINE
  8
0
 10
-0.753479
 20
61.9763
 11
-2.24857
 21
61.7874
  0
LINE
  8
0
 10
-2.24857
 20
61.7874
 11
-3.70819
 21
61.4127
  0
LINE
  8
0
 10
-3.70819
 20
61.4127
 11
-5.10934
 21
60.8579
  0
LINE
  8
0
 10
-5.10934
 20
60.8579
 11
-6.42992
 21
60.1319
  0
LINE
  8
0
 10
-6.42992
 20
60.1319
 11
-7.64908
 21
59.2462
  0
LINE
  8
0
 10
-7.64908
 20
59.2462
 11
-8.74762
 21
58.2146
  0
LINE
  8
0
 10
-8.74762
 20
58.2146
 11
-9.70819
 21
57.0534
  0
LINE
  8
0
 10
-9.70819
 20
57.0534
 11
-10.5157
 21
55.781
  0
LINE
  8
0
 10
-10.5157
 20
55.781
 11
-11.1573
 21
54.4175
  0
LINE
  8
0
 10
-11.1573
 20
54.4175
 11
-11.623
 21
52.9843
  0
LINE
  8
0
 10
-11.623
 20
52.9843
 11
-11.9054
 21
51.504
  0
LINE
  8
0
 10
-11.9054
 20
51.504
 11
-12
 21
50
  0
LINE
  8
0
 10
-12
 20
50
 11
-11.9054
 21
48.496
  0
LINE
  8
0
 10
-11.9054
 20
48.496
 11
-11.623
 21
47.0157
  0
LINE
  8
0
 10
-11.623
 20
47.0157
 11
-11.1573
 21
45.5825
  0
LINE
  8
0
 10
-11.1573
 20
45.5825
 11
-10.5157
 21
44.2189
  0
LINE
  8
0
 10
-10.5157
 20
44.2189
 11
-9.70819
 21
42.9466
  0
LINE
  8
0
 10
-9.70819
 20
42.9466
 11
-8.74762
 21
41.7854
  0
LINE
  8
0
 10
-8.74762
 20
41.7854
 11
-7.64908
 21
40.7538
  0
LINE
  8
0
 10
-7.64908
 20
40.7538
 11
-6.42992
 21
39.8681
  0
LINE
  8
0
 10
-6.42992
 20
39.8681
 11
-5.10934
 21
39.1421
  0
LINE
  8
0
 10
-5.10934
 20
39.1421
 11
-3.70819
 21
38.5873
  0
LINE
  8
0
 10
-3.70819
 20
38.5873
 11
-2.24857
 21
38.2125
  0
LINE
  8
0
 10
-2.24857
 20
38.2125
 11
-0.753479
 21
38.0237
  0
LINE
  8
0
 10
-0.753479
 20
38.0237
 11
-0.00999451
 21
38.0237
  0
LINE
  8
0
 10
-0.00999451
 20
38.0237
 11
-0.00999451
 21
38.6
  0
LINE
  8
0
 10
-0.00999451
 20
38.6
 11
3.79997
 21
38.6
  0
LINE
  8
0
 10
3.79997
 20
38.6
 11
3.79997
 21
29.5333
  0
LINE
  8
0
 10
3.79997
 20
29.5333
 11
0
 21
29.5333
  0
LINE
  8
0
 10
0
 20
29.5333
 11
0
 21
20.4667
  0
LINE
  8
0
 10
0
 20
20.4667
 11
3.79999
 21
20.4667
  0
LINE
  8
0
 10
3.79999
 20
20.4667
 11
3.79999
 21
11.4
  0
LINE
  8
0
 10
3.79999
 20
11.4
 11
0
 21
11.4
  0
LINE
  8
0
 10
0
 20
11.4
 11
0
 21
0
  0
LINE
  8
0
 10
0
 20
0
 11
11.4
 21
0
  0
LINE
  8
0
 10
11.4
 20
0
 11
11.4
 21
3.79999
  0
LINE
  8
0
 10
-0.565109
 20
41.0178
 11
-1.68642
 21
41.1594
  0
LINE
  8
0
 10
-1.68642
 20
41.1594
 11
-2.78114
 21
41.4405
  0
LINE
  8
0
 10
-2.78114
 20
41.4405
 11
-3.832
 21
41.8566
  0
LINE
  8
0
 10
-3.832
 20
41.8566
 11
-4.82243
 21
42.4011
  0
LINE
  8
0
 10
-4.82243
 20
42.4011
 11
-5.7368
 21
43.0654
  0
LINE
  8
0
 10
-5.7368
 20
43.0654
 11
-6.56071
 21
43.8391
  0
LINE
  8
0
 10
-6.56071
 20
43.8391
 11
-7.28114
 21
44.7099
  0
LINE
  8
0
 10
-7.28114
 20
44.7099
 11
-7.88675
 21
45.6642
  0
LINE
  8
0
 10
-7.88675
 20
45.6642
 11
-8.36798
 21
46.6869
  0
LINE
  8
0
 10
-8.36798
 20
46.6869
 11
-8.71724
 21
47.7618
  0
LINE
  8
0
 10
-8.71724
 20
47.7618
 11
-8.92903
 21
48.872
  0
LINE
  8
0
 10
-8.92903
 20
48.872
 11
-9
 21
50
  0
LINE
  8
0
 10
-9
 20
50
 11
-8.92903
 21
51.128
  0
LINE
  8
0
 10
-8.92903
 20
51.128
 11
-8.71724
 21
52.2382
  0
LINE
  8
0
 10
-8.71724
 20
52.2382
 11
-8.36798
 21
53.3131
  0
LINE
  8
0
 10
-8.36798
 20
53.3131
 11
-7.88675
 21
54.3358
  0
LINE
  8
0
 10
-7.88675
 20
54.3358
 11
-7.28114
 21
55.2901
  0
LINE
  8
0
 10
-7.28114
 20
55.2901
 11
-6.56071
 21
56.1609
  0
LINE
  8
0
 10
-6.56071
 20
56.1609
 11
-5.7368
 21
56.9346
  0
LINE
  8
0
 10
-5.7368
 20
56.9346
 11
-4.82243
 21
57.5989
  0
LINE
  8
0
 10
-4.82243
 20
57.5989
 11
-3.832
 21
58.1434
  0
LINE
  8
0
 10
-3.832
 20
58.1434
 11
-2.78114
 21
58.5595
  0
LINE
  8
0
 10
-2.78114
 20
58.5595
 11
-1.68642
 21
58.8406
  0
LINE
  8
0
 10
-1.68642
 20
58.8406
 11
-0.565109
 21
58.9822
  0
LINE
  8
0
 10
-0.565109
 20
58.9822
 11
0.565109
 21
58.9822
  0
LINE
  8
0
 10
0.565109
 20
58.9822
 11
1.68642
 21
58.8406
  0
LINE
  8
0
 10
1.68642
 20
58.8406
 11
2.78114
 21
58.5595
  0
LINE
  8
0
 10
2.78114
 20
58.5595
 11
3.832
 21
58.1434
  0
LINE
  8
0
 10
3.832
 20
58.1434
 11
4.82243
 21
57.5989
  0
LINE
  8
0
 10
4.82243
 20
57.5989
 11
5.7368
 21
56.9346
  0
LINE
  8
0
 10
5.7368
 20
56.9346
 11
6.56071
 21
56.1609
  0
LINE
  8
0
 10
6.56071
 20
56.1609
 11
7.28114
 21
55.2901
  0
LINE
  8
0
 10
7.28114
 20
55.2901
 11
7.88675
 21
54.3358
  0
LINE
  8
0
 10
7.88675
 20
54.3358
 11
8.36798
 21
53.3131
  0
LINE
  8
0
 10
8.36798
 20
53.3131
 11
8.71724
 21
52.2382
  0
LINE
  8
0
 10
8.71724
 20
52.2382
 11
8.92903
 21
51.128
  0
LINE
  8
0
 10
8.92903
 20
51.128
 11
9
 21
50
  0
LINE
  8
0
 10
9
 20
50
 11
8.92903
 21
48.872
  0
LINE
  8
0
 10
8.92903
 20
48.872
 11
8.71724
 21
47.7618
  0
LINE
  8
0
 10
8.71724
 20
47.7618
 11
8.36798
 21
46.6869
  0
LINE
  8
0
 10
8.36798
 20
46.6869
 11
7.88675
 21
45.6642
  0
LINE
  8
0
 10
7.88675
 20
45.6642
 11
7.28114
 21
44.7099
  0
LINE
  8
0
 10
7.28114
 20
44.7099
 11
6.56071
 21
43.8391
  0
LINE
  8
0
 10
6.56071
 20
43.8391
 11
5.7368
 21
43.0654
  0
LINE
  8
0
 10
5.7368
 20
43.0654
 11
4.82243
 21
42.4011
  0
LINE
  8
0
 10
4.82243
 20
42.4011
 11
3.832
 21
41.8566
  0
LINE
  8
0
 10
3.832
 20
41.8566
 11
2.78114
 21
41.4405
  0
LINE
  8
0
 10
2.78114
 20
41.4405
 11
1.68642
 21
41.1594
  0
LINE
  8
0
 10
1.68642
 20
41.1594
 11
0.565109
 21
41.0178
  0
LINE
  8
0
 10
0.565109
 20
41.0178
 11
-0.565109
 21
41.0178
  0
LINE
  8
0
 10
3.79999
 20
53.8
 11
0
 21
53.8
  0
LINE
  8
0
 10
0
 20
53.8
 11
0
 21
50
  0
LINE
  8
0
 10
0
 20
50
 11
3.79999
 21
50
  0
LINE
  8
0
 10
3.79999
 20
50
 11
3.79999
 21
53.8
  0
LINE
  8
0
 10
103.1
 20
19
 11
103.1
 21
38.6
  0
LINE
  8
0
 10
103.1
 20
38.6
 11
106.91
 21
38.6
  0
LINE
  8
0
 10
106.91
 20
38.6
 11
106.91
 21
19
  0
LINE
  8
0
 10
106.91
 20
19
 11
103.1
 21
19
  0
LINE
  8
0
 10
223.41
 20
3.79999
 11
231.549
 21
3.79999
  0
LINE
  8
0
 10
231.549
 20
3.79999
 11
231.549
 21
0
  0
LINE
  8
0
 10
231.549
 20
0
 11
239.688
 21
0
  0
LINE
  8
0
 10
239.688
 20
0
 11
239.688
 21
3.79999
  0
LINE
  8
0
 10
239.688
 20
3.79999
 11
247.827
 21
3.79999
  0
LINE
  8
0
 10
247.827
 20
3.79999
 11
247.827
 21
0
  0
LINE
  8
0
 10
247.827
 20
0
 11
255.967
 21
0
  0
LINE
  8
0
 10
255.967
 20
0
 11
255.967
 21
3.79999
  0
LINE
  8
0
 10
255.967
 20
3.79999
 11
264.106
 21
3.79999
  0
LINE
  8
0
 10
264.106
 20
3.79999
 11
264.106
 21
0
  0
LINE
  8
0
 10
264.106
 20
0
 11
272.245
 21
0
  0
LINE
  8
0
 10
272.245
 20
0
 11
272.245
 21
3.79999
  0
LINE
  8
0
 10
272.245
 20
3.79999
 11
280.384
 21
3.79999
  0
LINE
  8
0
 10
280.384
 20
3.79999
 11
280.384
 21
0
  0
LINE
  8
0
 10
280.384
 20
0
 11
288.523
 21
0
  0
LINE
  8
0
 10
288.523
 20
0
 11
288.523
 21
3.79999
  0
LINE
  8
0
 10
288.523
 20
3.79999
 11
296.662
 21
3.79999
  0
LINE
  8
0
 10
296.662
 20
3.79999
 11
296.662
 21
0
  0
LINE
  8
0
 10
296.662
 20
0
 11
304.801
 21
0
  0
LINE
  8
0
 10
304.801
 20
0
 11
304.801
 21
3.79999
  0
LINE
  8
0
 10
304.801
 20
3.79999
 11
312.94
 21
3.79999
  0
LINE
  8
0
 10
312.94
 20
3.79999
 11
312.94
 21
0
  0
LINE
  8
0
 10
312.94
 20
0
 11
321.08
 21
0
  0
LINE
  8
0
 10
321.08
 20
0
 11
321.08
 21
3.79999
  0
LINE
  8
0
 10
321.08
 20
3.79999
 11
329.219
 21
3.79999
  0
LINE
  8
0
 10
329.219
 20
3.79999
 11
329.219
 21
0
  0
LINE
  8
0
 10
329.219
 20
0
 11
337.358
 21
0
  0
LINE
  8
0
 10
337.358
 20
0
 11
337.358
 21
3.79999
  0
LINE
  8
0
 10
337.358
 20
3.79999
 11
345.497
 21
3.79999
  0
LINE
  8
0
 10
345.497
 20
3.79999
 11
345.497
 21
0
  0
LINE
  8
0
 10
345.497
 20
0
 11
353.636
 21
0
  0
LINE
  8
0
 10
353.636
 20
0
 11
353.636
 21
3.79999
  0
LINE
  8
0
 10
353.636
 20
3.79999
 11
361.775
 21
3.79999
  0
LINE
  8
0
 10
361.775
 20
3.79999
 11
361.775
 21
0
  0
LINE
  8
0
 10
361.775
 20
0
 11
369.914
 21
0
  0
LINE
  8
0
 10
369.914
 20
0
 11
369.914
 21
3.79999
  0
LINE
  8
0
 10
369.914
 20
3.79999
 11
378.053
 21
3.79999
  0
LINE
  8
0
 10
378.053
 20
3.79999
 11
378.053
 21
0
  0
LINE
  8
0
 10
378.053
 20
0
 11
386.193
 21
0
  0
LINE
  8
0
 10
386.193
 20
0
 11
386.193
 21
3.79999
  0
LINE
  8
0
 10
386.193
 20
3.79999
 11
394.332
 21
3.79999
  0
LINE
  8
0
 10
394.332
 20
3.79999
 11
394.332
 21
0
  0
LINE
  8
0
 10
394.332
 20
0
 11
402.471
 21
0
  0
LINE
  8
0
 10
402.471
 20
0
 11
402.471
 21
3.79999
  0
LINE
  8
0
 10
402.471
 20
3.79999
 11
410.61
 21
3.79999
  0
LINE
  8
0
 10
410.61
 20
3.79999
 11
410.61
 21
0
  0
LINE
  8
0
 10
410.61
 20
0
 11
422.01
 21
0
  0
LINE
  8
0
 10
422.01
 20
0
 11
422.01
 21
11.4
  0
LINE
  8
0
 10
422.01
 20
11.4
 11
418.21
 21
11.4
  0
LINE
  8
0
 10
418.21
 20
11.4
 11
418.21
 21
20.4667
  0
LINE
  8
0
 10
418.21
 20
20.4667
 11
422.01
 21
20.4667
  0
LINE
  8
0
 10
422.01
 20
20.4667
 11
422.01
 21
29.5333
  0
LINE
  8
0
 10
422.01
 20
29.5333
 11
418.21
 21
29.5333
  0
LINE
  8
0
 10
418.21
 20
29.5333
 11
418.21
 21
38.6
  0
LINE
  8
0
 10
418.21
 20
38.6
 11
422.02
 21
38.6
  0
LINE
  8
0
 10
422.02
 20
38.6
 11
422.02
 21
38.0237
  0
LINE
  8
0
 10
422.02
 20
38.0237
 11
422.763
 21
38.0237
  0
LINE
  8
0
 10
422.763
 20
38.0237
 11
424.259
 21
38.2125
  0
LINE
  8
0
 10
424.259
 20
38.2125
 11
425.718
 21
38.5873
  0
LINE
  8
0
 10
425.718
 20
38.5873
 11
427.119
 21
39.1421
  0
LINE
  8
0
 10
427.119
 20
39.1421
 11
428.44
 21
39.8681
  0
LINE
  8
0
 10
428.44
 20
39.8681
 11
429.659
 21
40.7538
  0
LINE
  8
0
 10
429.659
 20
40.7538
 11
430.758
 21
41.7854
  0
LINE
  8
0
 10
430.758
 20
41.7854
 11
431.718
 21
42.9466
  0
LINE
  8
0
 10
431.718
 20
42.9466
 11
432.526
 21
44.2189
  0
LINE
  8
0
 10
432.526
 20
44.2189
 11
433.167
 21
45.5825
  0
LINE
  8
0
 10
433.167
 20
45.5825
 11
433.633
 21
47.0157
  0
LINE
  8
0
 10
433.633
 20
47.0157
 11
433.915
 21
48.496
  0
LINE
  8
0
 10
433.915
 20
48.496
 11
434.01
 21
50
  0
LINE
  8
0
 10
434.01
 20
50
 11
433.915
 21
51.504
  0
LINE
  8
0
 10
433.915
 20
51.504
 11
433.633
 21
52.9843
  0
LINE
  8
0
 10
433.633
 20
52.9843
 11
433.167
 21
54.4175
  0
LINE
  8
0
 10
433.167
 20
54.4175
 11
432.526
 21
55.781
  0
LINE
  8
0
 10
432.526
 20
55.781
 11
431.718
 21
57.0534
  0
LINE
  8
0
 10
431.718
 20
57.0534
 11
430.758
 21
58.2146
  0
LINE
  8
0
 10
430.758
 20
58.2146
 11
429.659
 21
59.2462
  0
LINE
  8
0
 10
429.659
 20
59.2462
 11
428.44
 21
60.1319
  0
LINE
  8
0
 10
428.44
 20
60.1319
 11
427.119
 21
60.8579
  0
LINE
  8
0
 10
427.119
 20
60.8579
 11
425.718
 21
61.4127
  0
LINE
  8
0
 10
425.718
 20
61.4127
 11
424.259
 21
61.7874
  0
LINE
  8
0
 10
424.259
 20
61.7874
 11
422.763
 21
61.9763
  0
LINE
  8
0
 10
422.763
 20
61.9763
 11
421.257
 21
61.9763
  0
LINE
  8
0
 10
421.257
 20
61.9763
 11
419.761
 21
61.7874
  0
LINE
  8
0
 10
419.761
 20
61.7874
 11
418.302
 21
61.4127
  0
LINE
  8
0
 10
418.302
 20
61.4127
 11
416.901
 21
60.8579
  0
LINE
  8
0
 10
416.901
 20
60.8579
 11
415.58
 21
60.1319
  0
LINE
  8
0
 10
415.58
 20
60.1319
 11
414.361
 21
59.2462
  0
LINE
  8
0
 10
414.361
 20
59.2462
 11
413.262
 21
58.2146
  0
LINE
  8
0
 10
413.262
 20
58.2146
 11
412.302
 21
57.0534
  0
LINE
  8
0
 10
412.302
 20
57.0534
 11
411.494
 21
55.781
  0
LINE
  8
0
 10
411.494
 20
55.781
 11
410.853
 21
54.4175
  0
LINE
  8
0
 10
410.853
 20
54.4175
 11
410.387
 21
52.9843
  0
LINE
  8
0
 10
410.387
 20
52.9843
 11
410.105
 21
51.504
  0
LINE
  8
0
 10
410.105
 20
51.504
 11
410.01
 21
50
  0
LINE
  8
0
 10
410.01
 20
50
 11
212.01
 21
50
  0
LINE
  8
0
 10
212.01
 20
50
 11
212.01
 21
38.6
  0
LINE
  8
0
 10
212.01
 20
38.6
 11
215.81
 21
38.6
  0
LINE
  8
0
 10
215.81
 20
38.6
 11
215.81
 21
29.5333
  0
LINE
  8
0
 10
215.81
 20
29.5333
 11
212.01
 21
29.5333
  0
LINE
  8
0
 10
212.01
 20
29.5333
 11
212.01
 21
20.4667
  0
LINE
  8
0
 10
212.01
 20
20.4667
 11
215.81
 21
20.4667
  0
LINE
  8
0
 10
215.81
 20
20.4667
 11
215.81
 21
11.4
  0
LINE
  8
0
 10
215.81
 20
11.4
 11
212.01
 21
11.4
  0
LINE
  8
0
 10
212.01
 20
11.4
 11
212.01
 21
0
  0
LINE
  8
0
 10
212.01
 20
0
 11
223.41
 21
0
  0
LINE
  8
0
 10
223.41
 20
0
 11
223.41
 21
3.79999
  0
LINE
  8
0
 10
421.445
 20
41.0178
 11
420.324
 21
41.1594
  0
LINE
  8
0
 10
420.324
 20
41.1594
 11
419.229
 21
41.4405
  0
LINE
  8
0
 10
419.229
 20
41.4405
 11
418.178
 21
41.8566
  0
LINE
  8
0
 10
418.178
 20
41.8566
 11
417.188
 21
42.4011
  0
LINE
  8
0
 10
417.188
 20
42.4011
 11
416.273
 21
43.0654
  0
LINE
  8
0
 10
416.273
 20
43.0654
 11
415.449
 21
43.8391
  0
LINE
  8
0
 10
415.449
 20
43.8391
 11
414.729
 21
44.7099
  0
LINE
  8
0
 10
414.729
 20
44.7099
 11
414.123
 21
45.6642
  0
LINE
  8
0
 10
414.123
 20
45.6642
 11
413.642
 21
46.6869
  0
LINE
  8
0
 10
413.642
 20
46.6869
 11
413.293
 21
47.7618
  0
LINE
  8
0
 10
413.293
 20
47.7618
 11
413.081
 21
48.872
  0
LINE
  8
0
 10
413.081
 20
48.872
 11
413.01
 21
50
  0
LINE
  8
0
 10
413.01
 20
50
 11
413.081
 21
51.128
  0
LINE
  8
0
 10
413.081
 20
51.128
 11
413.293
 21
52.2382
  0
LINE
  8
0
 10
413.293
 20
52.2382
 11
413.642
 21
53.3131
  0
LINE
  8
0
 10
413.642
 20
53.3131
 11
414.123
 21
54.3358
  0
LINE
  8
0
 10
414.123
 20
54.3358
 11
414.729
 21
55.2901
  0
LINE
  8
0
 10
414.729
 20
55.2901
 11
415.449
 21
56.1609
  0
LINE
  8
0
 10
415.449
 20
56.1609
 11
416.273
 21
56.9346
  0
LINE
  8
0
 10
416.273
 20
56.9346
 11
417.188
 21
57.5989
  0
LINE
  8
0
 10
417.188
 20
57.5989
 11
418.178
 21
58.1434
  0
LINE
  8
0
 10
418.178
 20
58.1434
 11
419.229
 21
58.5595
  0
LINE
  8
0
 10
419.229
 20
58.5595
 11
420.324
 21
58.8406
  0
LINE
  8
0
 10
420.324
 20
58.8406
 11
421.445
 21
58.9822
  0
LINE
  8
0
 10
421.445
 20
58.9822
 11
422.575
 21
58.9822
  0
LINE
  8
0
 10
422.575
 20
58.9822
 11
423.696
 21
58.8406
  0
LINE
  8
0
 10
423.696
 20
58.8406
 11
424.791
 21
58.5595
  0
LINE
  8
0
 10
424.791
 20
58.5595
 11
425.842
 21
58.1434
  0
LINE
  8
0
 10
425.842
 20
58.1434
 11
426.832
 21
57.5989
  0
LINE
  8
0
 10
426.832
 20
57.5989
 11
427.747
 21
56.9346
  0
LINE
  8
0
 10
427.747
 20
56.9346
 11
428.571
 21
56.1609
  0
LINE
  8
0
 10
428.571
 20
56.1609
 11
429.291
 21
55.2901
  0
LINE
  8
0
 10
429.291
 20
55.2901
 11
429.897
 21
54.3358
  0
LINE
  8
0
 10
429.897
 20
54.3358
 11
430.378
 21
53.3131
  0
LINE
  8
0
 10
430.378
 20
53.3131
 11
430.727
 21
52.2382
  0
LINE
  8
0
 10
430.727
 20
52.2382
 11
430.939
 21
51.128
  0
LINE
  8
0
 10
430.939
 20
51.128
 11
431.01
 21
50
  0
LINE
  8
0
 10
431.01
 20
50
 11
430.939
 21
48.872
  0
LINE
  8
0
 10
430.939
 20
48.872
 11
430.727
 21
47.7618
  0
LINE
  8
0
 10
430.727
 20
47.7618
 11
430.378
 21
46.6869
  0
LINE
  8
0
 10
430.378
 20
46.6869
 11
429.897
 21
45.6642
  0
LINE
  8
0
 10
429.897
 20
45.6642
 11
429.291
 21
44.7099
  0
LINE
  8
0
 10
429.291
 20
44.7099
 11
428.571
 21
43.8391
  0
LINE
  8
0
 10
428.571
 20
43.8391
 11
427.747
 21
43.0654
  0
LINE
  8
0
 10
427.747
 20
43.0654
 11
426.832
 21
42.4011
  0
LINE
  8
0
 10
426.832
 20
42.4011
 11
425.842
 21
41.8566
  0
LINE
  8
0
 10
425.842
 20
41.8566
 11
424.791
 21
41.4405
  0
LINE
  8
0
 10
424.791
 20
41.4405
 11
423.696
 21
41.1594
  0
LINE
  8
0
 10
423.696
 20
41.1594
 11
422.575
 21
41.0178
  0
LINE
  8
0
 10
422.575
 20
41.0178
 11
421.445
 21
41.0178
  0
LINE
  8
0
 10
425.81
 20
53.8
 11
422.01
 21
53.8
  0
LINE
  8
0
 10
422.01
 20
53.8
 11
422.01
 21
50
  0
LINE
  8
0
 10
422.01
 20
50
 11
425.81
 21
50
  0
LINE
  8
0
 10
425.81
 20
50
 11
425.81
 21
53.8
  0
LINE
  8
0
 10
315.11
 20
19
 11
315.11
 21
38.6
  0
LINE
  8
0
 10
315.11
 20
38.6
 11
318.92
 21
38.6
  0
LINE
  8
0
 10
318.92
 20
38.6
 11
318.92
 21
19
  0
LINE
  8
0
 10
318.92
 20
19
 11
315.11
 21
19
  0
LINE
  8
0
 10
750.23
 20
3.79999
 11
757.847
 21
3.79999
  0
LINE
  8
0
 10
757.847
 20
3.79999
 11
757.847
 21
0
  0
LINE
  8
0
 10
757.847
 20
0
 11
765.464
 21
0
  0
LINE
  8
0
 10
765.464
 20
0
 11
765.464
 21
3.79999
  0
LINE
  8
0
 10
765.464
 20
3.79999
 11
773.081
 21
3.79999
  0
LINE
  8
0
 10
773.081
 20
3.79999
 11
773.081
 21
0
  0
LINE
  8
0
 10
773.081
 20
0
 11
780.699
 21
0
  0
LINE
  8
0
 10
780.699
 20
0
 11
780.699
 21
3.79999
  0
LINE
  8
0
 10
780.699
 20
3.79999
 11
788.316
 21
3.79999
  0
LINE
  8
0
 10
788.316
 20
3.79999
 11
788.316
 21
0
  0
LINE
  8
0
 10
788.316
 20
0
 11
795.933
 21
0
  0
LINE
  8
0
 10
795.933
 20
0
 11
795.933
 21
3.79999
  0
LINE
  8
0
 10
795.933
 20
3.79999
 11
803.55
 21
3.79999
  0
LINE
  8
0
 10
803.55
 20
3.79999
 11
803.55
 21
0
  0
LINE
  8
0
 10
803.55
 20
0
 11
811.167
 21
0
  0
LINE
  8
0
 10
811.167
 20
0
 11
811.167
 21
3.79999
  0
LINE
  8
0
 10
811.167
 20
3.79999
 11
818.784
 21
3.79999
  0
LINE
  8
0
 10
818.784
 20
3.79999
 11
818.784
 21
0
  0
LINE
  8
0
 10
818.784
 20
0
 11
826.401
 21
0
  0
LINE
  8
0
 10
826.401
 20
0
 11
826.401
 21
3.79999
  0
LINE
  8
0
 10
826.401
 20
3.79999
 11
834.019
 21
3.79999
  0
LINE
  8
0
 10
834.019
 20
3.79999
 11
834.019
 21
0
  0
LINE
  8
0
 10
834.019
 20
0
 11
841.636
 21
0
  0
LINE
  8
0
 10
841.636
 20
0
 11
841.636
 21
3.79999
  0
LINE
  8
0
 10
841.636
 20
3.79999
 11
849.253
 21
3.79999
  0
LINE
  8
0
 10
849.253
 20
3.79999
 11
849.253
 21
0
  0
LINE
  8
0
 10
849.253
 20
0
 11
856.87
 21
0
  0
LINE
  8
0
 10
856.87
 20
0
 11
856.87
 21
3.79999
  0
LINE
  8
0
 10
856.87
 20
3.79999
 11
864.487
 21
3.79999
  0
LINE
  8
0
 10
864.487
 20
3.79999
 11
864.487
 21
0
  0
LINE
  8
0
 10
864.487
 20
0
 11
872.104
 21
0
  0
LINE
  8
0
 10
872.104
 20
0
 11
872.104
 21
3.79999
  0
LINE
  8
0
 10
872.104
 20
3.79999
 11
879.721
 21
3.79999
  0
LINE
  8
0
 10
879.721
 20
3.79999
 11
879.721
 21
0
  0
LINE
  8
0
 10
879.721
 20
0
 11
887.339
 21
0
  0
LINE
  8
0
 10
887.339
 20
0
 11
887.339
 21
3.79999
  0
LINE
  8
0
 10
887.339
 20
3.79999
 11
894.956
 21
3.79999
  0
LINE
  8
0
 10
894.956
 20
3.79999
 11
894.956
 21
0
  0
LINE
  8
0
 10
894.956
 20
0
 11
902.573
 21
0
  0
LINE
  8
0
 10
902.573
 20
0
 11
902.573
 21
3.79999
  0
LINE
  8
0
 10
902.573
 20
3.79999
 11
910.19
 21
3.79999
  0
LINE
  8
0
 10
910.19
 20
3.79999
 11
910.19
 21
0
  0
LINE
  8
0
 10
910.19
 20
0
 11
917.807
 21
0
  0
LINE
  8
0
 10
917.807
 20
0
 11
917.807
 21
3.79999
  0
LINE
  8
0
 10
917.807
 20
3.79999
 11
925.424
 21
3.79999
  0
LINE
  8
0
 10
925.424
 20
3.79999
 11
925.424
 21
0
  0
LINE
  8
0
 10
925.424
 20
0
 11
933.041
 21
0
  0
LINE
  8
0
 10
933.041
 20
0
 11
933.041
 21
3.79999
  0
LINE
  8
0
 10
933.041
 20
3.79999
 11
940.659
 21
3.79999
  0
LINE
  8
0
 10
940.659
 20
3.79999
 11
940.659
 21
0
  0
LINE
  8
0
 10
940.659
 20
0
 11
948.276
 21
0
  0
LINE
  8
0
 10
948.276
 20
0
 11
948.276
 21
3.79999
  0
LINE
  8
0
 10
948.276
 20
3.79999
 11
955.893
 21
3.79999
  0
LINE
  8
0
 10
955.893
 20
3.79999
 11
955.893
 21
0
  0
LINE
  8
0
 10
955.893
 20
0
 11
963.51
 21
0
  0
LINE
  8
0
 10
963.51
 20
0
 11
963.51
 21
3.79999
  0
LINE
  8
0
 10
963.51
 20
3.79999
 11
971.127
 21
3.79999
  0
LINE
  8
0
 10
971.127
 20
3.79999
 11
971.127
 21
0
  0
LINE
  8
0
 10
971.127
 20
0
 11
978.744
 21
0
  0
LINE
  8
0
 10
978.744
 20
0
 11
978.744
 21
3.79999
  0
LINE
  8
0
 10
978.744
 20
3.79999
 11
986.361
 21
3.79999
  0
LINE
  8
0
 10
986.361
 20
3.79999
 11
986.361
 21
0
  0
LINE
  8
0
 10
986.361
 20
0
 11
993.979
 21
0
  0
LINE
  8
0
 10
993.979
 20
0
 11
993.979
 21
3.79999
  0
LINE
  8
0
 10
993.979
 20
3.79999
 11
1001.6
 21
3.79999
  0
LINE
  8
0
 10
1001.6
 20
3.79999
 11
1001.6
 21
0
  0
LINE
  8
0
 10
1001.6
 20
0
 11
1009.21
 21
0
  0
LINE
  8
0
 10
1009.21
 20
0
 11
1009.21
 21
3.79999
  0
LINE
  8
0
 10
1009.21
 20
3.79999
 11
1016.83
 21
3.79999
  0
LINE
  8
0
 10
1016.83
 20
3.79999
 11
1016.83
 21
0
  0
LINE
  8
0
 10
1016.83
 20
0
 11
1028.23
 21
0
  0
LINE
  8
0
 10
1028.23
 20
0
 11
1028.23
 21
11.4
  0
LINE
  8
0
 10
1028.23
 20
11.4
 11
1032.03
 21
11.4
  0
LINE
  8
0
 10
1032.03
 20
11.4
 11
1032.03
 21
20.4667
  0
LINE
  8
0
 10
1032.03
 20
20.4667
 11
1028.23
 21
20.4667
  0
LINE
  8
0
 10
1028.23
 20
20.4667
 11
1028.23
 21
29.5333
  0
LINE
  8
0
 10
1028.23
 20
29.5333
 11
1032.03
 21
29.5333
  0
LINE
  8
0
 10
1032.03
 20
29.5333
 11
1032.03
 21
38.6
  0
LINE
  8
0
 10
1032.03
 20
38.6
 11
1028.23
 21
38.6
  0
LINE
  8
0
 10
1028.23
 20
38.6
 11
1028.23
 21
50
  0
LINE
  8
0
 10
1028.23
 20
50
 11
738.83
 21
50
  0
LINE
  8
0
 10
738.83
 20
50
 11
738.83
 21
38.6
  0
LINE
  8
0
 10
738.83
 20
38.6
 11
735.03
 21
38.6
  0
LINE
  8
0
 10
735.03
 20
38.6
 11
735.03
 21
29.5333
  0
LINE
  8
0
 10
735.03
 20
29.5333
 11
738.83
 21
29.5333
  0
LINE
  8
0
 10
738.83
 20
29.5333
 11
738.83
 21
20.4667
  0
LINE
  8
0
 10
738.83
 20
20.4667
 11
735.03
 21
20.4667
  0
LINE
  8
0
 10
735.03
 20
20.4667
 11
735.03
 21
11.4
  0
LINE
  8
0
 10
735.03
 20
11.4
 11
738.83
 21
11.4
  0
LINE
  8
0
 10
738.83
 20
11.4
 11
738.83
 21
0
  0
LINE
  8
0
 10
738.83
 20
0
 11
750.23
 21
0
  0
LINE
  8
0
 10
750.23
 20
0
 11
750.23
 21
3.79999
  0
LINE
  8
0
 10
955.88
 20
19
 11
955.88
 21
38.6
  0
LINE
  8
0
 10
955.88
 20
38.6
 11
959.69
 21
38.6
  0
LINE
  8
0
 10
959.69
 20
38.6
 11
959.69
 21
19
  0
LINE
  8
0
 10
959.69
 20
19
 11
955.88
 21
19
  0
LINE
  8
0
 10
881.63
 20
19
 11
881.63
 21
38.6
  0
LINE
  8
0
 10
881.63
 20
38.6
 11
885.44
 21
38.6
  0
LINE
  8
0
 10
885.44
 20
38.6
 11
885.44
 21
19
  0
LINE
  8
0
 10
885.44
 20
19
 11
881.63
 21
19
  0
LINE
  8
0
 10
807.38
 20
19
 11
807.38
 21
38.6
  0
LINE
  8
0
 10
807.38
 20
38.6
 11
811.19
 21
38.6
  0
LINE
  8
0
 10
811.19
 20
38.6
 11
811.19
 21
19
  0
LINE
  8
0
 10
811.19
 20
19
 11
807.38
 21
19
  0
LINE
  8
0
 10
451.22
 20
3.79999
 11
458.837
 21
3.79999
  0
LINE
  8
0
 10
458.837
 20
3.79999
 11
458.837
 21
0
  0
LINE
  8
0
 10
458.837
 20
0
 11
466.454
 21
0
  0
LINE
  8
0
 10
466.454
 20
0
 11
466.454
 21
3.79999
  0
LINE
  8
0
 10
466.454
 20
3.79999
 11
474.071
 21
3.79999
  0
LINE
  8
0
 10
474.071
 20
3.79999
 11
474.071
 21
0
  0
LINE
  8
0
 10
474.071
 20
0
 11
481.689
 21
0
  0
LINE
  8
0
 10
481.689
 20
0
 11
481.689
 21
3.79999
  0
LINE
  8
0
 10
481.689
 20
3.79999
 11
489.306
 21
3.79999
  0
LINE
  8
0
 10
489.306
 20
3.79999
 11
489.306
 21
0
  0
LINE
  8
0
 10
489.306
 20
0
 11
496.923
 21
0
  0
LINE
  8
0
 10
496.923
 20
0
 11
496.923
 21
3.79999
  0
LINE
  8
0
 10
496.923
 20
3.79999
 11
504.54
 21
3.79999
  0
LINE
  8
0
 10
504.54
 20
3.79999
 11
504.54
 21
0
  0
LINE
  8
0
 10
504.54
 20
0
 11
512.157
 21
0
  0
LINE
  8
0
 10
512.157
 20
0
 11
512.157
 21
3.79999
  0
LINE
  8
0
 10
512.157
 20
3.79999
 11
519.774
 21
3.79999
  0
LINE
  8
0
 10
519.774
 20
3.79999
 11
519.774
 21
0
  0
LINE
  8
0
 10
519.774
 20
0
 11
527.391
 21
0
  0
LINE
  8
0
 10
527.391
 20
0
 11
527.391
 21
3.79999
  0
LINE
  8
0
 10
527.391
 20
3.79999
 11
535.009
 21
3.79999
  0
LINE
  8
0
 10
535.009
 20
3.79999
 11
535.009
 21
0
  0
LINE
  8
0
 10
535.009
 20
0
 11
542.626
 21
0
  0
LINE
  8
0
 10
542.626
 20
0
 11
542.626
 21
3.79999
  0
LINE
  8
0
 10
542.626
 20
3.79999
 11
550.243
 21
3.79999
  0
LINE
  8
0
 10
550.243
 20
3.79999
 11
550.243
 21
0
  0
LINE
  8
0
 10
550.243
 20
0
 11
557.86
 21
0
  0
LINE
  8
0
 10
557.86
 20
0
 11
557.86
 21
3.79999
  0
LINE
  8
0
 10
557.86
 20
3.79999
 11
565.477
 21
3.79999
  0
LINE
  8
0
 10
565.477
 20
3.79999
 11
565.477
 21
0
  0
LINE
  8
0
 10
565.477
 20
0
 11
573.094
 21
0
  0
LINE
  8
0
 10
573.094
 20
0
 11
573.094
 21
3.79999
  0
LINE
  8
0
 10
573.094
 20
3.79999
 11
580.711
 21
3.79999
  0
LINE
  8
0
 10
580.711
 20
3.79999
 11
580.711
 21
0
  0
LINE
  8
0
 10
580.711
 20
0
 11
588.329
 21
0
  0
LINE
  8
0
 10
588.329
 20
0
 11
588.329
 21
3.79999
  0
LINE
  8
0
 10
588.329
 20
3.79999
 11
595.946
 21
3.79999
  0
LINE
  8
0
 10
595.946
 20
3.79999
 11
595.946
 21
0
  0
LINE
  8
0
 10
595.946
 20
0
 11
603.563
 21
0
  0
LINE
  8
0
 10
603.563
 20
0
 11
603.563
 21
3.79999
  0
LINE
  8
0
 10
603.563
 20
3.79999
 11
611.18
 21
3.79999
  0
LINE
  8
0
 10
611.18
 20
3.79999
 11
611.18
 21
0
  0
LINE
  8
0
 10
611.18
 20
0
 11
618.797
 21
0
  0
LINE
  8
0
 10
618.797
 20
0
 11
618.797
 21
3.79999
  0
LINE
  8
0
 10
618.797
 20
3.79999
 11
626.414
 21
3.79999
  0
LINE
  8
0
 10
626.414
 20
3.79999
 11
626.414
 21
0
  0
LINE
  8
0
 10
626.414
 20
0
 11
634.031
 21
0
  0
LINE
  8
0
 10
634.031
 20
0
 11
634.031
 21
3.79999
  0
LINE
  8
0
 10
634.031
 20
3.79999
 11
641.649
 21
3.79999
  0
LINE
  8
0
 10
641.649
 20
3.79999
 11
641.649
 21
0
  0
LINE
  8
0
 10
641.649
 20
0
 11
649.266
 21
0
  0
LINE
  8
0
 10
649.266
 20
0
 11
649.266
 21
3.79999
  0
LINE
  8
0
 10
649.266
 20
3.79999
 11
656.883
 21
3.79999
  0
LINE
  8
0
 10
656.883
 20
3.79999
 11
656.883
 21
0
  0
LINE
  8
0
 10
656.883
 20
0
 11
664.5
 21
0
  0
LINE
  8
0
 10
664.5
 20
0
 11
664.5
 21
3.79999
  0
LINE
  8
0
 10
664.5
 20
3.79999
 11
672.117
 21
3.79999
  0
LINE
  8
0
 10
672.117
 20
3.79999
 11
672.117
 21
0
  0
LINE
  8
0
 10
672.117
 20
0
 11
679.734
 21
0
  0
LINE
  8
0
 10
679.734
 20
0
 11
679.734
 21
3.79999
  0
LINE
  8
0
 10
679.734
 20
3.79999
 11
687.351
 21
3.79999
  0
LINE
  8
0
 10
687.351
 20
3.79999
 11
687.351
 21
0
  0
LINE
  8
0
 10
687.351
 20
0
 11
694.969
 21
0
  0
LINE
  8
0
 10
694.969
 20
0
 11
694.969
 21
3.79999
  0
LINE
  8
0
 10
694.969
 20
3.79999
 11
702.586
 21
3.79999
  0
LINE
  8
0
 10
702.586
 20
3.79999
 11
702.586
 21
0
  0
LINE
  8
0
 10
702.586
 20
0
 11
710.203
 21
0
  0
LINE
  8
0
 10
710.203
 20
0
 11
710.203
 21
3.79999
  0
LINE
  8
0
 10
710.203
 20
3.79999
 11
717.82
 21
3.79999
  0
LINE
  8
0
 10
717.82
 20
3.79999
 11
717.82
 21
0
  0
LINE
  8
0
 10
717.82
 20
0
 11
729.22
 21
0
  0
LINE
  8
0
 10
729.22
 20
0
 11
729.22
 21
11.4
  0
LINE
  8
0
 10
729.22
 20
11.4
 11
733.02
 21
11.4
  0
LINE
  8
0
 10
733.02
 20
11.4
 11
733.02
 21
20.4667
  0
LINE
  8
0
 10
733.02
 20
20.4667
 11
729.22
 21
20.4667
  0
LINE
  8
0
 10
729.22
 20
20.4667
 11
729.22
 21
29.5333
  0
LINE
  8
0
 10
729.22
 20
29.5333
 11
733.02
 21
29.5333
  0
LINE
  8
0
 10
733.02
 20
29.5333
 11
733.02
 21
38.6
  0
LINE
  8
0
 10
733.02
 20
38.6
 11
729.22
 21
38.6
  0
LINE
  8
0
 10
729.22
 20
38.6
 11
729.22
 21
50
  0
LINE
  8
0
 10
729.22
 20
50
 11
439.82
 21
50
  0
LINE
  8
0
 10
439.82
 20
50
 11
439.82
 21
38.6
  0
LINE
  8
0
 10
439.82
 20
38.6
 11
436.02
 21
38.6
  0
LINE
  8
0
 10
436.02
 20
38.6
 11
436.02
 21
29.5333
  0
LINE
  8
0
 10
436.02
 20
29.5333
 11
439.82
 21
29.5333
  0
LINE
  8
0
 10
439.82
 20
29.5333
 11
439.82
 21
20.4667
  0
LINE
  8
0
 10
439.82
 20
20.4667
 11
436.02
 21
20.4667
  0
LINE
  8
0
 10
436.02
 20
20.4667
 11
436.02
 21
11.4
  0
LINE
  8
0
 10
436.02
 20
11.4
 11
439.82
 21
11.4
  0
LINE
  8
0
 10
439.82
 20
11.4
 11
439.82
 21
0
  0
LINE
  8
0
 10
439.82
 20
0
 11
451.22
 21
0
  0
LINE
  8
0
 10
451.22
 20
0
 11
451.22
 21
3.79999
  0
LINE
  8
0
 10
656.87
 20
19
 11
656.87
 21
38.6
  0
LINE
  8
0
 10
656.87
 20
38.6
 11
660.68
 21
38.6
  0
LINE
  8
0
 10
660.68
 20
38.6
 11
660.68
 21
19
  0
LINE
  8
0
 10
660.68
 20
19
 11
656.87
 21
19
  0
LINE
  8
0
 10
582.62
 20
19
 11
582.62
 21
38.6
  0
LINE
  8
0
 10
582.62
 20
38.6
 11
586.43
 21
38.6
  0
LINE
  8
0
 10
586.43
 20
38.6
 11
586.43
 21
19
  0
LINE
  8
0
 10
586.43
 20
19
 11
582.62
 21
19
  0
LINE
  8
0
 10
508.37
 20
19
 11
508.37
 21
38.6
  0
LINE
  8
0
 10
508.37
 20
38.6
 11
512.18
 21
38.6
  0
LINE
  8
0
 10
512.18
 20
38.6
 11
512.18
 21
19
  0
LINE
  8
0
 10
512.18
 20
19
 11
508.37
 21
19
  0
ENDSEC
  0
SECTION
  2
OBJECTS
  0
DICTIONARY
  0
ENDSEC
  0
EOF
