  0
SECTION
  2
BLOCKS
  0
ENDSEC
  0
SECTION
  2
ENTITIES
  0
LINE
  8
0
 10
19.7467
 20
57.81
 11
28.0933
 21
57.81
  0
LINE
  8
0
 10
28.0933
 20
57.81
 11
28.0933
 21
54.01
  0
LINE
  8
0
 10
28.0933
 20
54.01
 11
36.44
 21
54.01
  0
LINE
  8
0
 10
36.44
 20
54.01
 11
36.44
 21
57.81
  0
LINE
  8
0
 10
36.44
 20
57.81
 11
44.7867
 21
57.81
  0
LINE
  8
0
 10
44.7867
 20
57.81
 11
44.7867
 21
54.01
  0
LINE
  8
0
 10
44.7867
 20
54.01
 11
53.1333
 21
54.01
  0
LINE
  8
0
 10
53.1333
 20
54.01
 11
53.1333
 21
57.81
  0
LINE
  8
0
 10
53.1333
 20
57.81
 11
61.48
 21
57.81
  0
LINE
  8
0
 10
61.48
 20
57.81
 11
61.48
 21
54.01
  0
LINE
  8
0
 10
61.48
 20
54.01
 11
69.8267
 21
54.01
  0
LINE
  8
0
 10
69.8267
 20
54.01
 11
69.8267
 21
57.81
  0
LINE
  8
0
 10
69.8267
 20
57.81
 11
78.1733
 21
57.81
  0
LINE
  8
0
 10
78.1733
 20
57.81
 11
78.1733
 21
54.01
  0
LINE
  8
0
 10
78.1733
 20
54.01
 11
86.52
 21
54.01
  0
LINE
  8
0
 10
86.52
 20
54.01
 11
86.52
 21
57.81
  0
LINE
  8
0
 10
86.52
 20
57.81
 11
94.8667
 21
57.81
  0
LINE
  8
0
 10
94.8667
 20
57.81
 11
94.8667
 21
54.01
  0
LINE
  8
0
 10
94.8667
 20
54.01
 11
103.213
 21
54.01
  0
LINE
  8
0
 10
103.213
 20
54.01
 11
103.213
 21
57.81
  0
LINE
  8
0
 10
103.213
 20
57.81
 11
111.56
 21
57.81
  0
LINE
  8
0
 10
111.56
 20
57.81
 11
111.56
 21
54.01
  0
LINE
  8
0
 10
111.56
 20
54.01
 11
119.907
 21
54.01
  0
LINE
  8
0
 10
119.907
 20
54.01
 11
119.907
 21
57.81
  0
LINE
  8
0
 10
119.907
 20
57.81
 11
128.253
 21
57.81
  0
LINE
  8
0
 10
128.253
 20
57.81
 11
128.253
 21
54.01
  0
LINE
  8
0
 10
128.253
 20
54.01
 11
136.6
 21
54.01
  0
LINE
  8
0
 10
136.6
 20
54.01
 11
136.6
 21
57.81
  0
LINE
  8
0
 10
136.6
 20
57.81
 11
144.2
 21
57.81
  0
LINE
  8
0
 10
144.2
 20
57.81
 11
144.2
 21
69.21
  0
LINE
  8
0
 10
144.2
 20
69.21
 11
148
 21
69.21
  0
LINE
  8
0
 10
148
 20
69.21
 11
148
 21
77.0187
  0
LINE
  8
0
 10
148
 20
77.0187
 11
144.2
 21
77.0187
  0
LINE
  8
0
 10
144.2
 20
77.0187
 11
144.2
 21
84.8274
  0
LINE
  8
0
 10
144.2
 20
84.8274
 11
148
 21
84.8274
  0
LINE
  8
0
 10
148
 20
84.8274
 11
148
 21
92.6361
  0
LINE
  8
0
 10
148
 20
92.6361
 11
144.2
 21
92.6361
  0
LINE
  8
0
 10
144.2
 20
92.6361
 11
144.2
 21
100.445
  0
LINE
  8
0
 10
144.2
 20
100.445
 11
148
 21
100.445
  0
LINE
  8
0
 10
148
 20
100.445
 11
148
 21
108.253
  0
LINE
  8
0
 10
148
 20
108.253
 11
144.2
 21
108.253
  0
LINE
  8
0
 10
144.2
 20
108.253
 11
144.2
 21
116.062
  0
LINE
  8
0
 10
144.2
 20
116.062
 11
148
 21
116.062
  0
LINE
  8
0
 10
148
 20
116.062
 11
148
 21
123.871
  0
LINE
  8
0
 10
148
 20
123.871
 11
144.2
 21
123.871
  0
LINE
  8
0
 10
144.2
 20
123.871
 11
144.2
 21
131.68
  0
LINE
  8
0
 10
144.2
 20
131.68
 11
148
 21
131.68
  0
LINE
  8
0
 10
148
 20
131.68
 11
148
 21
139.488
  0
LINE
  8
0
 10
148
 20
139.488
 11
144.2
 21
139.488
  0
LINE
  8
0
 10
144.2
 20
139.488
 11
144.2
 21
147.297
  0
LINE
  8
0
 10
144.2
 20
147.297
 11
148
 21
147.297
  0
LINE
  8
0
 10
148
 20
147.297
 11
148
 21
155.106
  0
LINE
  8
0
 10
148
 20
155.106
 11
144.2
 21
155.106
  0
LINE
  8
0
 10
144.2
 20
155.106
 11
144.2
 21
162.914
  0
LINE
  8
0
 10
144.2
 20
162.914
 11
148
 21
162.914
  0
LINE
  8
0
 10
148
 20
162.914
 11
148
 21
170.723
  0
LINE
  8
0
 10
148
 20
170.723
 11
144.2
 21
170.723
  0
LINE
  8
0
 10
144.2
 20
170.723
 11
144.2
 21
178.532
  0
LINE
  8
0
 10
144.2
 20
178.532
 11
148
 21
178.532
  0
LINE
  8
0
 10
148
 20
178.532
 11
148
 21
186.34
  0
LINE
  8
0
 10
148
 20
186.34
 11
144.2
 21
186.34
  0
LINE
  8
0
 10
144.2
 20
186.34
 11
144.2
 21
194.149
  0
LINE
  8
0
 10
144.2
 20
194.149
 11
148
 21
194.149
  0
LINE
  8
0
 10
148
 20
194.149
 11
148
 21
201.958
  0
LINE
  8
0
 10
148
 20
201.958
 11
144.2
 21
201.958
  0
LINE
  8
0
 10
144.2
 20
201.958
 11
144.2
 21
209.766
  0
LINE
  8
0
 10
144.2
 20
209.766
 11
148
 21
209.766
  0
LINE
  8
0
 10
148
 20
209.766
 11
148
 21
217.575
  0
LINE
  8
0
 10
148
 20
217.575
 11
144.2
 21
217.575
  0
LINE
  8
0
 10
144.2
 20
217.575
 11
144.2
 21
225.384
  0
LINE
  8
0
 10
144.2
 20
225.384
 11
148
 21
225.384
  0
LINE
  8
0
 10
148
 20
225.384
 11
148
 21
233.193
  0
LINE
  8
0
 10
148
 20
233.193
 11
144.2
 21
233.193
  0
LINE
  8
0
 10
144.2
 20
233.193
 11
144.2
 21
241.001
  0
LINE
  8
0
 10
144.2
 20
241.001
 11
148
 21
241.001
  0
LINE
  8
0
 10
148
 20
241.001
 11
148
 21
248.81
  0
LINE
  8
0
 10
148
 20
248.81
 11
144.2
 21
248.81
  0
LINE
  8
0
 10
144.2
 20
248.81
 11
144.2
 21
260.21
  0
LINE
  8
0
 10
144.2
 20
260.21
 11
136.6
 21
260.21
  0
LINE
  8
0
 10
136.6
 20
260.21
 11
136.6
 21
264.01
  0
LINE
  8
0
 10
136.6
 20
264.01
 11
128.253
 21
264.01
  0
LINE
  8
0
 10
128.253
 20
264.01
 11
128.253
 21
260.21
  0
LINE
  8
0
 10
128.253
 20
260.21
 11
119.907
 21
260.21
  0
LINE
  8
0
 10
119.907
 20
260.21
 11
119.907
 21
264.01
  0
LINE
  8
0
 10
119.907
 20
264.01
 11
111.56
 21
264.01
  0
LINE
  8
0
 10
111.56
 20
264.01
 11
111.56
 21
260.21
  0
LINE
  8
0
 10
111.56
 20
260.21
 11
103.213
 21
260.21
  0
LINE
  8
0
 10
103.213
 20
260.21
 11
103.213
 21
264.01
  0
LINE
  8
0
 10
103.213
 20
264.01
 11
94.8667
 21
264.01
  0
LINE
  8
0
 10
94.8667
 20
264.01
 11
94.8667
 21
260.21
  0
LINE
  8
0
 10
94.8667
 20
260.21
 11
86.52
 21
260.21
  0
LINE
  8
0
 10
86.52
 20
260.21
 11
86.52
 21
264.01
  0
LINE
  8
0
 10
86.52
 20
264.01
 11
78.1733
 21
264.01
  0
LINE
  8
0
 10
78.1733
 20
264.01
 11
78.1733
 21
260.21
  0
LINE
  8
0
 10
78.1733
 20
260.21
 11
69.8267
 21
260.21
  0
LINE
  8
0
 10
69.8267
 20
260.21
 11
69.8267
 21
264.01
  0
LINE
  8
0
 10
69.8267
 20
264.01
 11
61.48
 21
264.01
  0
LINE
  8
0
 10
61.48
 20
264.01
 11
61.48
 21
260.21
  0
LINE
  8
0
 10
61.48
 20
260.21
 11
53.1333
 21
260.21
  0
LINE
  8
0
 10
53.1333
 20
260.21
 11
53.1333
 21
264.01
  0
LINE
  8
0
 10
53.1333
 20
264.01
 11
44.7867
 21
264.01
  0
LINE
  8
0
 10
44.7867
 20
264.01
 11
44.7867
 21
260.21
  0
LINE
  8
0
 10
44.7867
 20
260.21
 11
36.44
 21
260.21
  0
LINE
  8
0
 10
36.44
 20
260.21
 11
36.44
 21
264.01
  0
LINE
  8
0
 10
36.44
 20
264.01
 11
28.0933
 21
264.01
  0
LINE
  8
0
 10
28.0933
 20
264.01
 11
28.0933
 21
260.21
  0
LINE
  8
0
 10
28.0933
 20
260.21
 11
19.7467
 21
260.21
  0
LINE
  8
0
 10
19.7467
 20
260.21
 11
19.7467
 21
264.01
  0
LINE
  8
0
 10
19.7467
 20
264.01
 11
11.4
 21
264.01
  0
LINE
  8
0
 10
11.4
 20
264.01
 11
11.4
 21
260.21
  0
LINE
  8
0
 10
11.4
 20
260.21
 11
3.79997
 21
260.21
  0
LINE
  8
0
 10
3.79997
 20
260.21
 11
3.79997
 21
248.81
  0
LINE
  8
0
 10
3.79997
 20
248.81
 11
0
 21
248.81
  0
LINE
  8
0
 10
0
 20
248.81
 11
0
 21
241.001
  0
LINE
  8
0
 10
0
 20
241.001
 11
3.79997
 21
241.001
  0
LINE
  8
0
 10
3.79997
 20
241.001
 11
3.79997
 21
233.193
  0
LINE
  8
0
 10
3.79997
 20
233.193
 11
0
 21
233.193
  0
LINE
  8
0
 10
0
 20
233.193
 11
0
 21
225.384
  0
LINE
  8
0
 10
0
 20
225.384
 11
3.79997
 21
225.384
  0
LINE
  8
0
 10
3.79997
 20
225.384
 11
3.79997
 21
217.575
  0
LINE
  8
0
 10
3.79997
 20
217.575
 11
0
 21
217.575
  0
LINE
  8
0
 10
0
 20
217.575
 11
0
 21
209.767
  0
LINE
  8
0
 10
0
 20
209.767
 11
3.79997
 21
209.767
  0
LINE
  8
0
 10
3.79997
 20
209.767
 11
3.79997
 21
201.958
  0
LINE
  8
0
 10
3.79997
 20
201.958
 11
0
 21
201.958
  0
LINE
  8
0
 10
0
 20
201.958
 11
0
 21
194.149
  0
LINE
  8
0
 10
0
 20
194.149
 11
3.79997
 21
194.149
  0
LINE
  8
0
 10
3.79997
 20
194.149
 11
3.79997
 21
186.34
  0
LINE
  8
0
 10
3.79997
 20
186.34
 11
0
 21
186.34
  0
LINE
  8
0
 10
0
 20
186.34
 11
0
 21
178.532
  0
LINE
  8
0
 10
0
 20
178.532
 11
3.79997
 21
178.532
  0
LINE
  8
0
 10
3.79997
 20
178.532
 11
3.79997
 21
170.723
  0
LINE
  8
0
 10
3.79997
 20
170.723
 11
0
 21
170.723
  0
LINE
  8
0
 10
0
 20
170.723
 11
0
 21
162.914
  0
LINE
  8
0
 10
0
 20
162.914
 11
3.79997
 21
162.914
  0
LINE
  8
0
 10
3.79997
 20
162.914
 11
3.79999
 21
155.106
  0
LINE
  8
0
 10
3.79999
 20
155.106
 11
0
 21
155.106
  0
LINE
  8
0
 10
0
 20
155.106
 11
0
 21
147.297
  0
LINE
  8
0
 10
0
 20
147.297
 11
3.79999
 21
147.297
  0
LINE
  8
0
 10
3.79999
 20
147.297
 11
3.79999
 21
139.488
  0
LINE
  8
0
 10
3.79999
 20
139.488
 11
0
 21
139.488
  0
LINE
  8
0
 10
0
 20
139.488
 11
0
 21
131.68
  0
LINE
  8
0
 10
0
 20
131.68
 11
3.79999
 21
131.68
  0
LINE
  8
0
 10
3.79999
 20
131.68
 11
3.79999
 21
123.871
  0
LINE
  8
0
 10
3.79999
 20
123.871
 11
0
 21
123.871
  0
LINE
  8
0
 10
0
 20
123.871
 11
0
 21
116.062
  0
LINE
  8
0
 10
0
 20
116.062
 11
3.79999
 21
116.062
  0
LINE
  8
0
 10
3.79999
 20
116.062
 11
3.79999
 21
108.253
  0
LINE
  8
0
 10
3.79999
 20
108.253
 11
0
 21
108.253
  0
LINE
  8
0
 10
0
 20
108.253
 11
0
 21
100.445
  0
LINE
  8
0
 10
0
 20
100.445
 11
3.79999
 21
100.445
  0
LINE
  8
0
 10
3.79999
 20
100.445
 11
3.79999
 21
92.6361
  0
LINE
  8
0
 10
3.79999
 20
92.6361
 11
0
 21
92.6361
  0
LINE
  8
0
 10
0
 20
92.6361
 11
0
 21
84.8274
  0
LINE
  8
0
 10
0
 20
84.8274
 11
3.79999
 21
84.8274
  0
LINE
  8
0
 10
3.79999
 20
84.8274
 11
3.79999
 21
77.0187
  0
LINE
  8
0
 10
3.79999
 20
77.0187
 11
0
 21
77.0187
  0
LINE
  8
0
 10
0
 20
77.0187
 11
0
 21
69.21
  0
LINE
  8
0
 10
0
 20
69.21
 11
3.79999
 21
69.21
  0
LINE
  8
0
 10
3.79999
 20
69.21
 11
3.79999
 21
57.81
  0
LINE
  8
0
 10
3.79999
 20
57.81
 11
11.4
 21
57.81
  0
LINE
  8
0
 10
11.4
 20
57.81
 11
11.4
 21
54.01
  0
LINE
  8
0
 10
11.4
 20
54.01
 11
19.7467
 21
54.01
  0
LINE
  8
0
 10
19.7467
 20
54.01
 11
19.7467
 21
57.81
  0
LINE
  8
0
 10
153.81
 20
57.8
 11
161.41
 21
57.8
  0
LINE
  8
0
 10
161.41
 20
57.8
 11
161.41
 21
54.01
  0
LINE
  8
0
 10
161.41
 20
54.01
 11
298.01
 21
54.01
  0
LINE
  8
0
 10
298.01
 20
54.01
 11
298.01
 21
264.01
  0
LINE
  8
0
 10
298.01
 20
264.01
 11
161.41
 21
264.01
  0
LINE
  8
0
 10
161.41
 20
264.01
 11
161.41
 21
260.22
  0
LINE
  8
0
 10
161.41
 20
260.22
 11
153.81
 21
260.22
  0
LINE
  8
0
 10
153.81
 20
260.22
 11
153.81
 21
264.01
  0
LINE
  8
0
 10
153.81
 20
264.01
 11
150.01
 21
264.01
  0
LINE
  8
0
 10
150.01
 20
264.01
 11
150.01
 21
54.01
  0
LINE
  8
0
 10
150.01
 20
54.01
 11
153.81
 21
54.01
  0
LINE
  8
0
 10
153.81
 20
54.01
 11
153.81
 21
57.8
  0
LINE
  8
0
 10
368.12
 20
128.02
 11
371.92
 21
128.02
  0
LINE
  8
0
 10
371.92
 20
128.02
 11
371.92
 21
111.82
  0
LINE
  8
0
 10
371.92
 20
111.82
 11
438.12
 21
111.82
  0
LINE
  8
0
 10
438.12
 20
111.82
 11
438.12
 21
128.02
  0
LINE
  8
0
 10
438.12
 20
128.02
 11
441.92
 21
128.02
  0
LINE
  8
0
 10
441.92
 20
128.02
 11
441.92
 21
111.82
  0
LINE
  8
0
 10
441.92
 20
111.82
 11
506.22
 21
111.82
  0
LINE
  8
0
 10
506.22
 20
111.82
 11
506.22
 21
127.02
  0
LINE
  8
0
 10
506.22
 20
127.02
 11
510.02
 21
127.02
  0
LINE
  8
0
 10
510.02
 20
127.02
 11
510.02
 21
136.62
  0
LINE
  8
0
 10
510.02
 20
136.62
 11
506.22
 21
136.62
  0
LINE
  8
0
 10
506.22
 20
136.62
 11
506.22
 21
148.02
  0
LINE
  8
0
 10
506.22
 20
148.02
 11
303.82
 21
148.02
  0
LINE
  8
0
 10
303.82
 20
148.02
 11
303.82
 21
136.62
  0
LINE
  8
0
 10
303.82
 20
136.62
 11
300.02
 21
136.62
  0
LINE
  8
0
 10
300.02
 20
136.62
 11
300.02
 21
127.02
  0
LINE
  8
0
 10
300.02
 20
127.02
 11
303.82
 21
127.02
  0
LINE
  8
0
 10
303.82
 20
127.02
 11
303.82
 21
111.82
  0
LINE
  8
0
 10
303.82
 20
111.82
 11
368.12
 21
111.82
  0
LINE
  8
0
 10
368.12
 20
111.82
 11
368.12
 21
128.02
  0
LINE
  8
0
 10
444.22
 20
73.01
 11
448.02
 21
73.01
  0
LINE
  8
0
 10
448.02
 20
73.01
 11
448.02
 21
82.61
  0
LINE
  8
0
 10
448.02
 20
82.61
 11
444.22
 21
82.61
  0
LINE
  8
0
 10
444.22
 20
82.61
 11
444.22
 21
94.01
  0
LINE
  8
0
 10
444.22
 20
94.01
 11
375.92
 21
94.01
  0
LINE
  8
0
 10
375.92
 20
94.01
 11
375.92
 21
74.01
  0
LINE
  8
0
 10
375.92
 20
74.01
 11
372.12
 21
74.01
  0
LINE
  8
0
 10
372.12
 20
74.01
 11
372.12
 21
94.01
  0
LINE
  8
0
 10
372.12
 20
94.01
 11
303.82
 21
94.01
  0
LINE
  8
0
 10
303.82
 20
94.01
 11
303.82
 21
82.61
  0
LINE
  8
0
 10
303.82
 20
82.61
 11
300.02
 21
82.61
  0
LINE
  8
0
 10
300.02
 20
82.61
 11
300.02
 21
73.01
  0
LINE
  8
0
 10
300.02
 20
73.01
 11
303.82
 21
73.01
  0
LINE
  8
0
 10
303.82
 20
73.01
 11
303.82
 21
57.81
  0
LINE
  8
0
 10
303.82
 20
57.81
 11
444.22
 21
57.81
  0
LINE
  8
0
 10
444.22
 20
57.81
 11
444.22
 21
73.01
  0
LINE
  8
0
 10
594.23
 20
73.01
 11
598.03
 21
73.01
  0
LINE
  8
0
 10
598.03
 20
73.01
 11
598.03
 21
82.61
  0
LINE
  8
0
 10
598.03
 20
82.61
 11
594.23
 21
82.61
  0
LINE
  8
0
 10
594.23
 20
82.61
 11
594.23
 21
94.01
  0
LINE
  8
0
 10
594.23
 20
94.01
 11
525.93
 21
94.01
  0
LINE
  8
0
 10
525.93
 20
94.01
 11
525.93
 21
74.01
  0
LINE
  8
0
 10
525.93
 20
74.01
 11
522.13
 21
74.01
  0
LINE
  8
0
 10
522.13
 20
74.01
 11
522.13
 21
94.01
  0
LINE
  8
0
 10
522.13
 20
94.01
 11
453.83
 21
94.01
  0
LINE
  8
0
 10
453.83
 20
94.01
 11
453.83
 21
82.61
  0
LINE
  8
0
 10
453.83
 20
82.61
 11
450.03
 21
82.61
  0
LINE
  8
0
 10
450.03
 20
82.61
 11
450.03
 21
73.01
  0
LINE
  8
0
 10
450.03
 20
73.01
 11
453.83
 21
73.01
  0
LINE
  8
0
 10
453.83
 20
73.01
 11
453.83
 21
57.81
  0
LINE
  8
0
 10
453.83
 20
57.81
 11
594.23
 21
57.81
  0
LINE
  8
0
 10
594.23
 20
57.81
 11
594.23
 21
73.01
  0
LINE
  8
0
 10
11.4
 20
3.79999
 11
19.7467
 21
3.79999
  0
LINE
  8
0
 10
19.7467
 20
3.79999
 11
19.7467
 21
0
  0
LINE
  8
0
 10
19.7467
 20
0
 11
28.0933
 21
0
  0
LINE
  8
0
 10
28.0933
 20
0
 11
28.0933
 21
3.79999
  0
LINE
  8
0
 10
28.0933
 20
3.79999
 11
36.44
 21
3.79999
  0
LINE
  8
0
 10
36.44
 20
3.79999
 11
36.44
 21
0
  0
LINE
  8
0
 10
36.44
 20
0
 11
44.7867
 21
0
  0
LINE
  8
0
 10
44.7867
 20
0
 11
44.7867
 21
3.79999
  0
LINE
  8
0
 10
44.7867
 20
3.79999
 11
53.1333
 21
3.79999
  0
LINE
  8
0
 10
53.1333
 20
3.79999
 11
53.1333
 21
0
  0
LINE
  8
0
 10
53.1333
 20
0
 11
61.48
 21
0
  0
LINE
  8
0
 10
61.48
 20
0
 11
61.48
 21
3.79999
  0
LINE
  8
0
 10
61.48
 20
3.79999
 11
69.8267
 21
3.79999
  0
LINE
  8
0
 10
69.8267
 20
3.79999
 11
69.8267
 21
0
  0
LINE
  8
0
 10
69.8267
 20
0
 11
78.1733
 21
0
  0
LINE
  8
0
 10
78.1733
 20
0
 11
78.1733
 21
3.79999
  0
LINE
  8
0
 10
78.1733
 20
3.79999
 11
86.52
 21
3.79999
  0
LINE
  8
0
 10
86.52
 20
3.79999
 11
86.52
 21
0
  0
LINE
  8
0
 10
86.52
 20
0
 11
94.8667
 21
0
  0
LINE
  8
0
 10
94.8667
 20
0
 11
94.8667
 21
3.79999
  0
LINE
  8
0
 10
94.8667
 20
3.79999
 11
103.213
 21
3.79999
  0
LINE
  8
0
 10
103.213
 20
3.79999
 11
103.213
 21
0
  0
LINE
  8
0
 10
103.213
 20
0
 11
111.56
 21
0
  0
LINE
  8
0
 10
111.56
 20
0
 11
111.56
 21
3.79999
  0
LINE
  8
0
 10
111.56
 20
3.79999
 11
119.907
 21
3.79999
  0
LINE
  8
0
 10
119.907
 20
3.79999
 11
119.907
 21
0
  0
LINE
  8
0
 10
119.907
 20
0
 11
128.253
 21
0
  0
LINE
  8
0
 10
128.253
 20
0
 11
128.253
 21
3.79999
  0
LINE
  8
0
 10
128.253
 20
3.79999
 11
136.6
 21
3.79999
  0
LINE
  8
0
 10
136.6
 20
3.79999
 11
136.6
 21
0
  0
LINE
  8
0
 10
136.6
 20
0
 11
148
 21
0
  0
LINE
  8
0
 10
148
 20
0
 11
148
 21
11.4
  0
LINE
  8
0
 10
148
 20
11.4
 11
144.2
 21
11.4
  0
LINE
  8
0
 10
144.2
 20
11.4
 11
144.2
 21
28.6
  0
LINE
  8
0
 10
144.2
 20
28.6
 11
148
 21
28.6
  0
LINE
  8
0
 10
148
 20
28.6
 11
148
 21
40
  0
LINE
  8
0
 10
148
 20
40
 11
12
 21
40
  0
LINE
  8
0
 10
12
 20
40
 11
11.9054
 21
41.504
  0
LINE
  8
0
 10
11.9054
 20
41.504
 11
11.623
 21
42.9843
  0
LINE
  8
0
 10
11.623
 20
42.9843
 11
11.1573
 21
44.4175
  0
LINE
  8
0
 10
11.1573
 20
44.4175
 11
10.5157
 21
45.781
  0
LINE
  8
0
 10
10.5157
 20
45.781
 11
9.70819
 21
47.0534
  0
LINE
  8
0
 10
9.70819
 20
47.0534
 11
8.74762
 21
48.2146
  0
LINE
  8
0
 10
8.74762
 20
48.2146
 11
7.64908
 21
49.2462
  0
LINE
  8
0
 10
7.64908
 20
49.2462
 11
6.42992
 21
50.1319
  0
LINE
  8
0
 10
6.42992
 20
50.1319
 11
5.10934
 21
50.8579
  0
LINE
  8
0
 10
5.10934
 20
50.8579
 11
3.70819
 21
51.4127
  0
LINE
  8
0
 10
3.70819
 20
51.4127
 11
2.24857
 21
51.7874
  0
LINE
  8
0
 10
2.24857
 20
51.7874
 11
0.753479
 21
51.9763
  0
LINE
  8
0
 10
0.753479
 20
51.9763
 11
-0.753479
 21
51.9763
  0
LINE
  8
0
 10
-0.753479
 20
51.9763
 11
-2.24857
 21
51.7874
  0
LINE
  8
0
 10
-2.24857
 20
51.7874
 11
-3.70819
 21
51.4127
  0
LINE
  8
0
 10
-3.70819
 20
51.4127
 11
-5.10934
 21
50.8579
  0
LINE
  8
0
 10
-5.10934
 20
50.8579
 11
-6.42992
 21
50.1319
  0
LINE
  8
0
 10
-6.42992
 20
50.1319
 11
-7.64908
 21
49.2462
  0
LINE
  8
0
 10
-7.64908
 20
49.2462
 11
-8.74762
 21
48.2146
  0
LINE
  8
0
 10
-8.74762
 20
48.2146
 11
-9.70819
 21
47.0534
  0
LINE
  8
0
 10
-9.70819
 20
47.0534
 11
-10.5157
 21
45.781
  0
LINE
  8
0
 10
-10.5157
 20
45.781
 11
-11.1573
 21
44.4175
  0
LINE
  8
0
 10
-11.1573
 20
44.4175
 11
-11.623
 21
42.9843
  0
LINE
  8
0
 10
-11.623
 20
42.9843
 11
-11.9054
 21
41.504
  0
LINE
  8
0
 10
-11.9054
 20
41.504
 11
-12
 21
40
  0
LINE
  8
0
 10
-12
 20
40
 11
-11.9054
 21
38.496
  0
LINE
  8
0
 10
-11.9054
 20
38.496
 11
-11.623
 21
37.0157
  0
LINE
  8
0
 10
-11.623
 20
37.0157
 11
-11.1573
 21
35.5825
  0
LINE
  8
0
 10
-11.1573
 20
35.5825
 11
-10.5157
 21
34.2189
  0
LINE
  8
0
 10
-10.5157
 20
34.2189
 11
-9.70819
 21
32.9466
  0
LINE
  8
0
 10
-9.70819
 20
32.9466
 11
-8.74762
 21
31.7854
  0
LINE
  8
0
 10
-8.74762
 20
31.7854
 11
-7.64908
 21
30.7538
  0
LINE
  8
0
 10
-7.64908
 20
30.7538
 11
-6.42992
 21
29.8681
  0
LINE
  8
0
 10
-6.42992
 20
29.8681
 11
-5.10934
 21
29.1421
  0
LINE
  8
0
 10
-5.10934
 20
29.1421
 11
-3.70819
 21
28.5873
  0
LINE
  8
0
 10
-3.70819
 20
28.5873
 11
-2.24857
 21
28.2125
  0
LINE
  8
0
 10
-2.24857
 20
28.2125
 11
-0.753479
 21
28.0237
  0
LINE
  8
0
 10
-0.753479
 20
28.0237
 11
-0.00999451
 21
28.0237
  0
LINE
  8
0
 10
-0.00999451
 20
28.0237
 11
-0.00999451
 21
28.6
  0
LINE
  8
0
 10
-0.00999451
 20
28.6
 11
3.79999
 21
28.6
  0
LINE
  8
0
 10
3.79999
 20
28.6
 11
3.79999
 21
11.4
  0
LINE
  8
0
 10
3.79999
 20
11.4
 11
0
 21
11.4
  0
LINE
  8
0
 10
0
 20
11.4
 11
0
 21
0
  0
LINE
  8
0
 10
0
 20
0
 11
11.4
 21
0
  0
LINE
  8
0
 10
11.4
 20
0
 11
11.4
 21
3.79999
  0
LINE
  8
0
 10
-0.565109
 20
31.0178
 11
-1.68642
 21
31.1594
  0
LINE
  8
0
 10
-1.68642
 20
31.1594
 11
-2.78114
 21
31.4405
  0
LINE
  8
0
 10
-2.78114
 20
31.4405
 11
-3.832
 21
31.8566
  0
LINE
  8
0
 10
-3.832
 20
31.8566
 11
-4.82243
 21
32.4011
  0
LINE
  8
0
 10
-4.82243
 20
32.4011
 11
-5.7368
 21
33.0654
  0
LINE
  8
0
 10
-5.7368
 20
33.0654
 11
-6.56071
 21
33.8391
  0
LINE
  8
0
 10
-6.56071
 20
33.8391
 11
-7.28114
 21
34.7099
  0
LINE
  8
0
 10
-7.28114
 20
34.7099
 11
-7.88675
 21
35.6642
  0
LINE
  8
0
 10
-7.88675
 20
35.6642
 11
-8.36798
 21
36.6869
  0
LINE
  8
0
 10
-8.36798
 20
36.6869
 11
-8.71724
 21
37.7618
  0
LINE
  8
0
 10
-8.71724
 20
37.7618
 11
-8.92903
 21
38.872
  0
LINE
  8
0
 10
-8.92903
 20
38.872
 11
-9
 21
40
  0
LINE
  8
0
 10
-9
 20
40
 11
-8.92903
 21
41.128
  0
LINE
  8
0
 10
-8.92903
 20
41.128
 11
-8.71724
 21
42.2382
  0
LINE
  8
0
 10
-8.71724
 20
42.2382
 11
-8.36798
 21
43.3131
  0
LINE
  8
0
 10
-8.36798
 20
43.3131
 11
-7.88675
 21
44.3358
  0
LINE
  8
0
 10
-7.88675
 20
44.3358
 11
-7.28114
 21
45.2901
  0
LINE
  8
0
 10
-7.28114
 20
45.2901
 11
-6.56071
 21
46.1609
  0
LINE
  8
0
 10
-6.56071
 20
46.1609
 11
-5.7368
 21
46.9346
  0
LINE
  8
0
 10
-5.7368
 20
46.9346
 11
-4.82243
 21
47.5989
  0
LINE
  8
0
 10
-4.82243
 20
47.5989
 11
-3.832
 21
48.1434
  0
LINE
  8
0
 10
-3.832
 20
48.1434
 11
-2.78114
 21
48.5595
  0
LINE
  8
0
 10
-2.78114
 20
48.5595
 11
-1.68642
 21
48.8406
  0
LINE
  8
0
 10
-1.68642
 20
48.8406
 11
-0.565109
 21
48.9822
  0
LINE
  8
0
 10
-0.565109
 20
48.9822
 11
0.565109
 21
48.9822
  0
LINE
  8
0
 10
0.565109
 20
48.9822
 11
1.68642
 21
48.8406
  0
LINE
  8
0
 10
1.68642
 20
48.8406
 11
2.78114
 21
48.5595
  0
LINE
  8
0
 10
2.78114
 20
48.5595
 11
3.832
 21
48.1434
  0
LINE
  8
0
 10
3.832
 20
48.1434
 11
4.82243
 21
47.5989
  0
LINE
  8
0
 10
4.82243
 20
47.5989
 11
5.7368
 21
46.9346
  0
LINE
  8
0
 10
5.7368
 20
46.9346
 11
6.56071
 21
46.1609
  0
LINE
  8
0
 10
6.56071
 20
46.1609
 11
7.28114
 21
45.2901
  0
LINE
  8
0
 10
7.28114
 20
45.2901
 11
7.88675
 21
44.3358
  0
LINE
  8
0
 10
7.88675
 20
44.3358
 11
8.36798
 21
43.3131
  0
LINE
  8
0
 10
8.36798
 20
43.3131
 11
8.71724
 21
42.2382
  0
LINE
  8
0
 10
8.71724
 20
42.2382
 11
8.92903
 21
41.128
  0
LINE
  8
0
 10
8.92903
 20
41.128
 11
9
 21
40
  0
LINE
  8
0
 10
9
 20
40
 11
8.92903
 21
38.872
  0
LINE
  8
0
 10
8.92903
 20
38.872
 11
8.71724
 21
37.7618
  0
LINE
  8
0
 10
8.71724
 20
37.7618
 11
8.36798
 21
36.6869
  0
LINE
  8
0
 10
8.36798
 20
36.6869
 11
7.88675
 21
35.6642
  0
LINE
  8
0
 10
7.88675
 20
35.6642
 11
7.28114
 21
34.7099
  0
LINE
  8
0
 10
7.28114
 20
34.7099
 11
6.56071
 21
33.8391
  0
LINE
  8
0
 10
6.56071
 20
33.8391
 11
5.7368
 21
33.0654
  0
LINE
  8
0
 10
5.7368
 20
33.0654
 11
4.82243
 21
32.4011
  0
LINE
  8
0
 10
4.82243
 20
32.4011
 11
3.832
 21
31.8566
  0
LINE
  8
0
 10
3.832
 20
31.8566
 11
2.78114
 21
31.4405
  0
LINE
  8
0
 10
2.78114
 20
31.4405
 11
1.68642
 21
31.1594
  0
LINE
  8
0
 10
1.68642
 20
31.1594
 11
0.565109
 21
31.0178
  0
LINE
  8
0
 10
0.565109
 20
31.0178
 11
-0.565109
 21
31.0178
  0
LINE
  8
0
 10
3.79999
 20
43.8
 11
0
 21
43.8
  0
LINE
  8
0
 10
0
 20
43.8
 11
0
 21
40
  0
LINE
  8
0
 10
0
 20
40
 11
3.79999
 21
40
  0
LINE
  8
0
 10
3.79999
 20
40
 11
3.79999
 21
43.8
  0
LINE
  8
0
 10
72.1
 20
19
 11
72.1
 21
28.6
  0
LINE
  8
0
 10
72.1
 20
28.6
 11
75.91
 21
28.6
  0
LINE
  8
0
 10
75.91
 20
28.6
 11
75.91
 21
19
  0
LINE
  8
0
 10
75.91
 20
19
 11
72.1
 21
19
  0
LINE
  8
0
 10
161.41
 20
3.79999
 11
169.757
 21
3.79999
  0
LINE
  8
0
 10
169.757
 20
3.79999
 11
169.757
 21
0
  0
LINE
  8
0
 10
169.757
 20
0
 11
178.103
 21
0
  0
LINE
  8
0
 10
178.103
 20
0
 11
178.103
 21
3.79999
  0
LINE
  8
0
 10
178.103
 20
3.79999
 11
186.45
 21
3.79999
  0
LINE
  8
0
 10
186.45
 20
3.79999
 11
186.45
 21
0
  0
LINE
  8
0
 10
186.45
 20
0
 11
194.797
 21
0
  0
LINE
  8
0
 10
194.797
 20
0
 11
194.797
 21
3.79999
  0
LINE
  8
0
 10
194.797
 20
3.79999
 11
203.143
 21
3.79999
  0
LINE
  8
0
 10
203.143
 20
3.79999
 11
203.143
 21
0
  0
LINE
  8
0
 10
203.143
 20
0
 11
211.49
 21
0
  0
LINE
  8
0
 10
211.49
 20
0
 11
211.49
 21
3.79999
  0
LINE
  8
0
 10
211.49
 20
3.79999
 11
219.837
 21
3.79999
  0
LINE
  8
0
 10
219.837
 20
3.79999
 11
219.837
 21
0
  0
LINE
  8
0
 10
219.837
 20
0
 11
228.183
 21
0
  0
LINE
  8
0
 10
228.183
 20
0
 11
228.183
 21
3.79999
  0
LINE
  8
0
 10
228.183
 20
3.79999
 11
236.53
 21
3.79999
  0
LINE
  8
0
 10
236.53
 20
3.79999
 11
236.53
 21
0
  0
LINE
  8
0
 10
236.53
 20
0
 11
244.877
 21
0
  0
LINE
  8
0
 10
244.877
 20
0
 11
244.877
 21
3.79999
  0
LINE
  8
0
 10
244.877
 20
3.79999
 11
253.223
 21
3.79999
  0
LINE
  8
0
 10
253.223
 20
3.79999
 11
253.223
 21
0
  0
LINE
  8
0
 10
253.223
 20
0
 11
261.57
 21
0
  0
LINE
  8
0
 10
261.57
 20
0
 11
261.57
 21
3.79999
  0
LINE
  8
0
 10
261.57
 20
3.79999
 11
269.917
 21
3.79999
  0
LINE
  8
0
 10
269.917
 20
3.79999
 11
269.917
 21
0
  0
LINE
  8
0
 10
269.917
 20
0
 11
278.263
 21
0
  0
LINE
  8
0
 10
278.263
 20
0
 11
278.263
 21
3.79999
  0
LINE
  8
0
 10
278.263
 20
3.79999
 11
286.61
 21
3.79999
  0
LINE
  8
0
 10
286.61
 20
3.79999
 11
286.61
 21
0
  0
LINE
  8
0
 10
286.61
 20
0
 11
298.01
 21
0
  0
LINE
  8
0
 10
298.01
 20
0
 11
298.01
 21
11.4
  0
LINE
  8
0
 10
298.01
 20
11.4
 11
294.21
 21
11.4
  0
LINE
  8
0
 10
294.21
 20
11.4
 11
294.21
 21
28.6
  0
LINE
  8
0
 10
294.21
 20
28.6
 11
298.02
 21
28.6
  0
LINE
  8
0
 10
298.02
 20
28.6
 11
298.02
 21
28.0237
  0
LINE
  8
0
 10
298.02
 20
28.0237
 11
298.763
 21
28.0237
  0
LINE
  8
0
 10
298.763
 20
28.0237
 11
300.259
 21
28.2125
  0
LINE
  8
0
 10
300.259
 20
28.2125
 11
301.718
 21
28.5873
  0
LINE
  8
0
 10
301.718
 20
28.5873
 11
303.119
 21
29.1421
  0
LINE
  8
0
 10
303.119
 20
29.1421
 11
304.44
 21
29.8681
  0
LINE
  8
0
 10
304.44
 20
29.8681
 11
305.659
 21
30.7538
  0
LINE
  8
0
 10
305.659
 20
30.7538
 11
306.758
 21
31.7854
  0
LINE
  8
0
 10
306.758
 20
31.7854
 11
307.718
 21
32.9466
  0
LINE
  8
0
 10
307.718
 20
32.9466
 11
308.526
 21
34.2189
  0
LINE
  8
0
 10
308.526
 20
34.2189
 11
309.167
 21
35.5825
  0
LINE
  8
0
 10
309.167
 20
35.5825
 11
309.633
 21
37.0157
  0
LINE
  8
0
 10
309.633
 20
37.0157
 11
309.915
 21
38.496
  0
LINE
  8
0
 10
309.915
 20
38.496
 11
310.01
 21
40
  0
LINE
  8
0
 10
310.01
 20
40
 11
309.915
 21
41.504
  0
LINE
  8
0
 10
309.915
 20
41.504
 11
309.633
 21
42.9843
  0
LINE
  8
0
 10
309.633
 20
42.9843
 11
309.167
 21
44.4175
  0
LINE
  8
0
 10
309.167
 20
44.4175
 11
308.526
 21
45.781
  0
LINE
  8
0
 10
308.526
 20
45.781
 11
307.718
 21
47.0534
  0
LINE
  8
0
 10
307.718
 20
47.0534
 11
306.758
 21
48.2146
  0
LINE
  8
0
 10
306.758
 20
48.2146
 11
305.659
 21
49.2462
  0
LINE
  8
0
 10
305.659
 20
49.2462
 11
304.44
 21
50.1319
  0
LINE
  8
0
 10
304.44
 20
50.1319
 11
303.119
 21
50.8579
  0
LINE
  8
0
 10
303.119
 20
50.8579
 11
301.718
 21
51.4127
  0
LINE
  8
0
 10
301.718
 20
51.4127
 11
300.259
 21
51.7874
  0
LINE
  8
0
 10
300.259
 20
51.7874
 11
298.763
 21
51.9763
  0
LINE
  8
0
 10
298.763
 20
51.9763
 11
297.257
 21
51.9763
  0
LINE
  8
0
 10
297.257
 20
51.9763
 11
295.761
 21
51.7874
  0
LINE
  8
0
 10
295.761
 20
51.7874
 11
294.302
 21
51.4127
  0
LINE
  8
0
 10
294.302
 20
51.4127
 11
292.901
 21
50.8579
  0
LINE
  8
0
 10
292.901
 20
50.8579
 11
291.58
 21
50.1319
  0
LINE
  8
0
 10
291.58
 20
50.1319
 11
290.361
 21
49.2462
  0
LINE
  8
0
 10
290.361
 20
49.2462
 11
289.262
 21
48.2146
  0
LINE
  8
0
 10
289.262
 20
48.2146
 11
288.302
 21
47.0534
  0
LINE
  8
0
 10
288.302
 20
47.0534
 11
287.494
 21
45.781
  0
LINE
  8
0
 10
287.494
 20
45.781
 11
286.853
 21
44.4175
  0
LINE
  8
0
 10
286.853
 20
44.4175
 11
286.387
 21
42.9843
  0
LINE
  8
0
 10
286.387
 20
42.9843
 11
286.105
 21
41.504
  0
LINE
  8
0
 10
286.105
 20
41.504
 11
286.01
 21
40
  0
LINE
  8
0
 10
286.01
 20
40
 11
150.01
 21
40
  0
LINE
  8
0
 10
150.01
 20
40
 11
150.01
 21
28.6
  0
LINE
  8
0
 10
150.01
 20
28.6
 11
153.81
 21
28.6
  0
LINE
  8
0
 10
153.81
 20
28.6
 11
153.81
 21
11.4
  0
LINE
  8
0
 10
153.81
 20
11.4
 11
150.01
 21
11.4
  0
LINE
  8
0
 10
150.01
 20
11.4
 11
150.01
 21
0
  0
LINE
  8
0
 10
150.01
 20
0
 11
161.41
 21
0
  0
LINE
  8
0
 10
161.41
 20
0
 11
161.41
 21
3.79999
  0
LINE
  8
0
 10
297.445
 20
31.0178
 11
296.324
 21
31.1594
  0
LINE
  8
0
 10
296.324
 20
31.1594
 11
295.229
 21
31.4405
  0
LINE
  8
0
 10
295.229
 20
31.4405
 11
294.178
 21
31.8566
  0
LINE
  8
0
 10
294.178
 20
31.8566
 11
293.188
 21
32.4011
  0
LINE
  8
0
 10
293.188
 20
32.4011
 11
292.273
 21
33.0654
  0
LINE
  8
0
 10
292.273
 20
33.0654
 11
291.449
 21
33.8391
  0
LINE
  8
0
 10
291.449
 20
33.8391
 11
290.729
 21
34.7099
  0
LINE
  8
0
 10
290.729
 20
34.7099
 11
290.123
 21
35.6642
  0
LINE
  8
0
 10
290.123
 20
35.6642
 11
289.642
 21
36.6869
  0
LINE
  8
0
 10
289.642
 20
36.6869
 11
289.293
 21
37.7618
  0
LINE
  8
0
 10
289.293
 20
37.7618
 11
289.081
 21
38.872
  0
LINE
  8
0
 10
289.081
 20
38.872
 11
289.01
 21
40
  0
LINE
  8
0
 10
289.01
 20
40
 11
289.081
 21
41.128
  0
LINE
  8
0
 10
289.081
 20
41.128
 11
289.293
 21
42.2382
  0
LINE
  8
0
 10
289.293
 20
42.2382
 11
289.642
 21
43.3131
  0
LINE
  8
0
 10
289.642
 20
43.3131
 11
290.123
 21
44.3358
  0
LINE
  8
0
 10
290.123
 20
44.3358
 11
290.729
 21
45.2901
  0
LINE
  8
0
 10
290.729
 20
45.2901
 11
291.449
 21
46.1609
  0
LINE
  8
0
 10
291.449
 20
46.1609
 11
292.273
 21
46.9346
  0
LINE
  8
0
 10
292.273
 20
46.9346
 11
293.188
 21
47.5989
  0
LINE
  8
0
 10
293.188
 20
47.5989
 11
294.178
 21
48.1434
  0
LINE
  8
0
 10
294.178
 20
48.1434
 11
295.229
 21
48.5595
  0
LINE
  8
0
 10
295.229
 20
48.5595
 11
296.324
 21
48.8406
  0
LINE
  8
0
 10
296.324
 20
48.8406
 11
297.445
 21
48.9822
  0
LINE
  8
0
 10
297.445
 20
48.9822
 11
298.575
 21
48.9822
  0
LINE
  8
0
 10
298.575
 20
48.9822
 11
299.696
 21
48.8406
  0
LINE
  8
0
 10
299.696
 20
48.8406
 11
300.791
 21
48.5595
  0
LINE
  8
0
 10
300.791
 20
48.5595
 11
301.842
 21
48.1434
  0
LINE
  8
0
 10
301.842
 20
48.1434
 11
302.832
 21
47.5989
  0
LINE
  8
0
 10
302.832
 20
47.5989
 11
303.747
 21
46.9346
  0
LINE
  8
0
 10
303.747
 20
46.9346
 11
304.571
 21
46.1609
  0
LINE
  8
0
 10
304.571
 20
46.1609
 11
305.291
 21
45.2901
  0
LINE
  8
0
 10
305.291
 20
45.2901
 11
305.897
 21
44.3358
  0
LINE
  8
0
 10
305.897
 20
44.3358
 11
306.378
 21
43.3131
  0
LINE
  8
0
 10
306.378
 20
43.3131
 11
306.727
 21
42.2382
  0
LINE
  8
0
 10
306.727
 20
42.2382
 11
306.939
 21
41.128
  0
LINE
  8
0
 10
306.939
 20
41.128
 11
307.01
 21
40
  0
LINE
  8
0
 10
307.01
 20
40
 11
306.939
 21
38.872
  0
LINE
  8
0
 10
306.939
 20
38.872
 11
306.727
 21
37.7618
  0
LINE
  8
0
 10
306.727
 20
37.7618
 11
306.378
 21
36.6869
  0
LINE
  8
0
 10
306.378
 20
36.6869
 11
305.897
 21
35.6642
  0
LINE
  8
0
 10
305.897
 20
35.6642
 11
305.291
 21
34.7099
  0
LINE
  8
0
 10
305.291
 20
34.7099
 11
304.571
 21
33.8391
  0
LINE
  8
0
 10
304.571
 20
33.8391
 11
303.747
 21
33.0654
  0
LINE
  8
0
 10
303.747
 20
33.0654
 11
302.832
 21
32.4011
  0
LINE
  8
0
 10
302.832
 20
32.4011
 11
301.842
 21
31.8566
  0
LINE
  8
0
 10
301.842
 20
31.8566
 11
300.791
 21
31.4405
  0
LINE
  8
0
 10
300.791
 20
31.4405
 11
299.696
 21
31.1594
  0
LINE
  8
0
 10
299.696
 20
31.1594
 11
298.575
 21
31.0178
  0
LINE
  8
0
 10
298.575
 20
31.0178
 11
297.445
 21
31.0178
  0
LINE
  8
0
 10
301.81
 20
43.8
 11
298.01
 21
43.8
  0
LINE
  8
0
 10
298.01
 20
43.8
 11
298.01
 21
40
  0
LINE
  8
0
 10
298.01
 20
40
 11
301.81
 21
40
  0
LINE
  8
0
 10
301.81
 20
40
 11
301.81
 21
43.8
  0
LINE
  8
0
 10
222.11
 20
19
 11
222.11
 21
28.6
  0
LINE
  8
0
 10
222.11
 20
28.6
 11
225.92
 21
28.6
  0
LINE
  8
0
 10
225.92
 20
28.6
 11
225.92
 21
19
  0
LINE
  8
0
 10
225.92
 20
19
 11
222.11
 21
19
  0
LINE
  8
0
 10
539.23
 20
3.79999
 11
547.039
 21
3.79999
  0
LINE
  8
0
 10
547.039
 20
3.79999
 11
547.039
 21
0
  0
LINE
  8
0
 10
547.039
 20
0
 11
554.847
 21
0
  0
LINE
  8
0
 10
554.847
 20
0
 11
554.847
 21
3.79999
  0
LINE
  8
0
 10
554.847
 20
3.79999
 11
562.656
 21
3.79999
  0
LINE
  8
0
 10
562.656
 20
3.79999
 11
562.656
 21
0
  0
LINE
  8
0
 10
562.656
 20
0
 11
570.465
 21
0
  0
LINE
  8
0
 10
570.465
 20
0
 11
570.465
 21
3.79999
  0
LINE
  8
0
 10
570.465
 20
3.79999
 11
578.273
 21
3.79999
  0
LINE
  8
0
 10
578.273
 20
3.79999
 11
578.273
 21
0
  0
LINE
  8
0
 10
578.273
 20
0
 11
586.082
 21
0
  0
LINE
  8
0
 10
586.082
 20
0
 11
586.082
 21
3.79999
  0
LINE
  8
0
 10
586.082
 20
3.79999
 11
593.891
 21
3.79999
  0
LINE
  8
0
 10
593.891
 20
3.79999
 11
593.891
 21
0
  0
LINE
  8
0
 10
593.891
 20
0
 11
601.7
 21
0
  0
LINE
  8
0
 10
601.7
 20
0
 11
601.7
 21
3.79999
  0
LINE
  8
0
 10
601.7
 20
3.79999
 11
609.508
 21
3.79999
  0
LINE
  8
0
 10
609.508
 20
3.79999
 11
609.508
 21
0
  0
LINE
  8
0
 10
609.508
 20
0
 11
617.317
 21
0
  0
LINE
  8
0
 10
617.317
 20
0
 11
617.317
 21
3.79999
  0
LINE
  8
0
 10
617.317
 20
3.79999
 11
625.126
 21
3.79999
  0
LINE
  8
0
 10
625.126
 20
3.79999
 11
625.126
 21
0
  0
LINE
  8
0
 10
625.126
 20
0
 11
632.934
 21
0
  0
LINE
  8
0
 10
632.934
 20
0
 11
632.934
 21
3.79999
  0
LINE
  8
0
 10
632.934
 20
3.79999
 11
640.743
 21
3.79999
  0
LINE
  8
0
 10
640.743
 20
3.79999
 11
640.743
 21
0
  0
LINE
  8
0
 10
640.743
 20
0
 11
648.552
 21
0
  0
LINE
  8
0
 10
648.552
 20
0
 11
648.552
 21
3.79999
  0
LINE
  8
0
 10
648.552
 20
3.79999
 11
656.36
 21
3.79999
  0
LINE
  8
0
 10
656.36
 20
3.79999
 11
656.36
 21
0
  0
LINE
  8
0
 10
656.36
 20
0
 11
664.169
 21
0
  0
LINE
  8
0
 10
664.169
 20
0
 11
664.169
 21
3.79999
  0
LINE
  8
0
 10
664.169
 20
3.79999
 11
671.978
 21
3.79999
  0
LINE
  8
0
 10
671.978
 20
3.79999
 11
671.978
 21
0
  0
LINE
  8
0
 10
671.978
 20
0
 11
679.786
 21
0
  0
LINE
  8
0
 10
679.786
 20
0
 11
679.786
 21
3.79999
  0
LINE
  8
0
 10
679.786
 20
3.79999
 11
687.595
 21
3.79999
  0
LINE
  8
0
 10
687.595
 20
3.79999
 11
687.595
 21
0
  0
LINE
  8
0
 10
687.595
 20
0
 11
695.404
 21
0
  0
LINE
  8
0
 10
695.404
 20
0
 11
695.404
 21
3.79999
  0
LINE
  8
0
 10
695.404
 20
3.79999
 11
703.213
 21
3.79999
  0
LINE
  8
0
 10
703.213
 20
3.79999
 11
703.213
 21
0
  0
LINE
  8
0
 10
703.213
 20
0
 11
711.021
 21
0
  0
LINE
  8
0
 10
711.021
 20
0
 11
711.021
 21
3.79999
  0
LINE
  8
0
 10
711.021
 20
3.79999
 11
718.83
 21
3.79999
  0
LINE
  8
0
 10
718.83
 20
3.79999
 11
718.83
 21
0
  0
LINE
  8
0
 10
718.83
 20
0
 11
730.23
 21
0
  0
LINE
  8
0
 10
730.23
 20
0
 11
730.23
 21
11.4
  0
LINE
  8
0
 10
730.23
 20
11.4
 11
734.03
 21
11.4
  0
LINE
  8
0
 10
734.03
 20
11.4
 11
734.03
 21
28.6
  0
LINE
  8
0
 10
734.03
 20
28.6
 11
730.23
 21
28.6
  0
LINE
  8
0
 10
730.23
 20
28.6
 11
730.23
 21
40
  0
LINE
  8
0
 10
730.23
 20
40
 11
527.83
 21
40
  0
LINE
  8
0
 10
527.83
 20
40
 11
527.83
 21
28.6
  0
LINE
  8
0
 10
527.83
 20
28.6
 11
524.03
 21
28.6
  0
LINE
  8
0
 10
524.03
 20
28.6
 11
524.03
 21
11.4
  0
LINE
  8
0
 10
524.03
 20
11.4
 11
527.83
 21
11.4
  0
LINE
  8
0
 10
527.83
 20
11.4
 11
527.83
 21
0
  0
LINE
  8
0
 10
527.83
 20
0
 11
539.23
 21
0
  0
LINE
  8
0
 10
539.23
 20
0
 11
539.23
 21
3.79999
  0
LINE
  8
0
 10
662.13
 20
19
 11
662.13
 21
28.6
  0
LINE
  8
0
 10
662.13
 20
28.6
 11
665.94
 21
28.6
  0
LINE
  8
0
 10
665.94
 20
28.6
 11
665.94
 21
19
  0
LINE
  8
0
 10
665.94
 20
19
 11
662.13
 21
19
  0
LINE
  8
0
 10
592.13
 20
19
 11
592.13
 21
28.6
  0
LINE
  8
0
 10
592.13
 20
28.6
 11
595.94
 21
28.6
  0
LINE
  8
0
 10
595.94
 20
28.6
 11
595.94
 21
19
  0
LINE
  8
0
 10
595.94
 20
19
 11
592.13
 21
19
  0
LINE
  8
0
 10
327.22
 20
3.79999
 11
335.029
 21
3.79999
  0
LINE
  8
0
 10
335.029
 20
3.79999
 11
335.029
 21
0
  0
LINE
  8
0
 10
335.029
 20
0
 11
342.837
 21
0
  0
LINE
  8
0
 10
342.837
 20
0
 11
342.837
 21
3.79999
  0
LINE
  8
0
 10
342.837
 20
3.79999
 11
350.646
 21
3.79999
  0
LINE
  8
0
 10
350.646
 20
3.79999
 11
350.646
 21
0
  0
LINE
  8
0
 10
350.646
 20
0
 11
358.455
 21
0
  0
LINE
  8
0
 10
358.455
 20
0
 11
358.455
 21
3.79999
  0
LINE
  8
0
 10
358.455
 20
3.79999
 11
366.263
 21
3.79999
  0
LINE
  8
0
 10
366.263
 20
3.79999
 11
366.263
 21
0
  0
LINE
  8
0
 10
366.263
 20
0
 11
374.072
 21
0
  0
LINE
  8
0
 10
374.072
 20
0
 11
374.072
 21
3.79999
  0
LINE
  8
0
 10
374.072
 20
3.79999
 11
381.881
 21
3.79999
  0
LINE
  8
0
 10
381.881
 20
3.79999
 11
381.881
 21
0
  0
LINE
  8
0
 10
381.881
 20
0
 11
389.69
 21
0
  0
LINE
  8
0
 10
389.69
 20
0
 11
389.69
 21
3.79999
  0
LINE
  8
0
 10
389.69
 20
3.79999
 11
397.498
 21
3.79999
  0
LINE
  8
0
 10
397.498
 20
3.79999
 11
397.498
 21
0
  0
LINE
  8
0
 10
397.498
 20
0
 11
405.307
 21
0
  0
LINE
  8
0
 10
405.307
 20
0
 11
405.307
 21
3.79999
  0
LINE
  8
0
 10
405.307
 20
3.79999
 11
413.116
 21
3.79999
  0
LINE
  8
0
 10
413.116
 20
3.79999
 11
413.116
 21
0
  0
LINE
  8
0
 10
413.116
 20
0
 11
420.924
 21
0
  0
LINE
  8
0
 10
420.924
 20
0
 11
420.924
 21
3.79999
  0
LINE
  8
0
 10
420.924
 20
3.79999
 11
428.733
 21
3.79999
  0
LINE
  8
0
 10
428.733
 20
3.79999
 11
428.733
 21
0
  0
LINE
  8
0
 10
428.733
 20
0
 11
436.542
 21
0
  0
LINE
  8
0
 10
436.542
 20
0
 11
436.542
 21
3.79999
  0
LINE
  8
0
 10
436.542
 20
3.79999
 11
444.35
 21
3.79999
  0
LINE
  8
0
 10
444.35
 20
3.79999
 11
444.35
 21
0
  0
LINE
  8
0
 10
444.35
 20
0
 11
452.159
 21
0
  0
LINE
  8
0
 10
452.159
 20
0
 11
452.159
 21
3.79999
  0
LINE
  8
0
 10
452.159
 20
3.79999
 11
459.968
 21
3.79999
  0
LINE
  8
0
 10
459.968
 20
3.79999
 11
459.968
 21
0
  0
LINE
  8
0
 10
459.968
 20
0
 11
467.776
 21
0
  0
LINE
  8
0
 10
467.776
 20
0
 11
467.776
 21
3.79999
  0
LINE
  8
0
 10
467.776
 20
3.79999
 11
475.585
 21
3.79999
  0
LINE
  8
0
 10
475.585
 20
3.79999
 11
475.585
 21
0
  0
LINE
  8
0
 10
475.585
 20
0
 11
483.394
 21
0
  0
LINE
  8
0
 10
483.394
 20
0
 11
483.394
 21
3.79999
  0
LINE
  8
0
 10
483.394
 20
3.79999
 11
491.203
 21
3.79999
  0
LINE
  8
0
 10
491.203
 20
3.79999
 11
491.203
 21
0
  0
LINE
  8
0
 10
491.203
 20
0
 11
499.011
 21
0
  0
LINE
  8
0
 10
499.011
 20
0
 11
499.011
 21
3.79999
  0
LINE
  8
0
 10
499.011
 20
3.79999
 11
506.82
 21
3.79999
  0
LINE
  8
0
 10
506.82
 20
3.79999
 11
506.82
 21
0
  0
LINE
  8
0
 10
506.82
 20
0
 11
518.22
 21
0
  0
LINE
  8
0
 10
518.22
 20
0
 11
518.22
 21
11.4
  0
LINE
  8
0
 10
518.22
 20
11.4
 11
522.02
 21
11.4
  0
LINE
  8
0
 10
522.02
 20
11.4
 11
522.02
 21
28.6
  0
LINE
  8
0
 10
522.02
 20
28.6
 11
518.22
 21
28.6
  0
LINE
  8
0
 10
518.22
 20
28.6
 11
518.22
 21
40
  0
LINE
  8
0
 10
518.22
 20
40
 11
315.82
 21
40
  0
LINE
  8
0
 10
315.82
 20
40
 11
315.82
 21
28.6
  0
LINE
  8
0
 10
315.82
 20
28.6
 11
312.02
 21
28.6
  0
LINE
  8
0
 10
312.02
 20
28.6
 11
312.02
 21
11.4
  0
LINE
  8
0
 10
312.02
 20
11.4
 11
315.82
 21
11.4
  0
LINE
  8
0
 10
315.82
 20
11.4
 11
315.82
 21
0
  0
LINE
  8
0
 10
315.82
 20
0
 11
327.22
 21
0
  0
LINE
  8
0
 10
327.22
 20
0
 11
327.22
 21
3.79999
  0
LINE
  8
0
 10
450.12
 20
19
 11
450.12
 21
28.6
  0
LINE
  8
0
 10
450.12
 20
28.6
 11
453.93
 21
28.6
  0
LINE
  8
0
 10
453.93
 20
28.6
 11
453.93
 21
19
  0
LINE
  8
0
 10
453.93
 20
19
 11
450.12
 21
19
  0
LINE
  8
0
 10
380.12
 20
19
 11
380.12
 21
28.6
  0
LINE
  8
0
 10
380.12
 20
28.6
 11
383.93
 21
28.6
  0
LINE
  8
0
 10
383.93
 20
28.6
 11
383.93
 21
19
  0
LINE
  8
0
 10
383.93
 20
19
 11
380.12
 21
19
  0
ENDSEC
  0
SECTION
  2
OBJECTS
  0
DICTIONARY
  0
ENDSEC
  0
EOF
