  0
SECTION
  2
BLOCKS
  0
ENDSEC
  0
SECTION
  2
ENTITIES
  0
LINE
  8
0
 10
16.7526
 20
53.21
 11
23.6053
 21
53.21
  0
LINE
  8
0
 10
23.6053
 20
53.21
 11
23.6053
 21
49.91
  0
LINE
  8
0
 10
23.6053
 20
49.91
 11
30.4579
 21
49.91
  0
LINE
  8
0
 10
30.4579
 20
49.91
 11
30.4579
 21
53.21
  0
LINE
  8
0
 10
30.4579
 20
53.21
 11
37.3105
 21
53.21
  0
LINE
  8
0
 10
37.3105
 20
53.21
 11
37.3105
 21
49.91
  0
LINE
  8
0
 10
37.3105
 20
49.91
 11
44.1631
 21
49.91
  0
LINE
  8
0
 10
44.1631
 20
49.91
 11
44.1631
 21
53.21
  0
LINE
  8
0
 10
44.1631
 20
53.21
 11
51.0158
 21
53.21
  0
LINE
  8
0
 10
51.0158
 20
53.21
 11
51.0158
 21
49.91
  0
LINE
  8
0
 10
51.0158
 20
49.91
 11
57.8684
 21
49.91
  0
LINE
  8
0
 10
57.8684
 20
49.91
 11
57.8684
 21
53.21
  0
LINE
  8
0
 10
57.8684
 20
53.21
 11
64.721
 21
53.21
  0
LINE
  8
0
 10
64.721
 20
53.21
 11
64.721
 21
49.91
  0
LINE
  8
0
 10
64.721
 20
49.91
 11
71.5737
 21
49.91
  0
LINE
  8
0
 10
71.5737
 20
49.91
 11
71.5737
 21
53.21
  0
LINE
  8
0
 10
71.5737
 20
53.21
 11
78.4263
 21
53.21
  0
LINE
  8
0
 10
78.4263
 20
53.21
 11
78.4263
 21
49.91
  0
LINE
  8
0
 10
78.4263
 20
49.91
 11
85.2789
 21
49.91
  0
LINE
  8
0
 10
85.2789
 20
49.91
 11
85.2789
 21
53.21
  0
LINE
  8
0
 10
85.2789
 20
53.21
 11
92.1316
 21
53.21
  0
LINE
  8
0
 10
92.1316
 20
53.21
 11
92.1316
 21
49.91
  0
LINE
  8
0
 10
92.1316
 20
49.91
 11
98.9842
 21
49.91
  0
LINE
  8
0
 10
98.9842
 20
49.91
 11
98.9842
 21
53.21
  0
LINE
  8
0
 10
98.9842
 20
53.21
 11
105.837
 21
53.21
  0
LINE
  8
0
 10
105.837
 20
53.21
 11
105.837
 21
49.91
  0
LINE
  8
0
 10
105.837
 20
49.91
 11
112.689
 21
49.91
  0
LINE
  8
0
 10
112.689
 20
49.91
 11
112.689
 21
53.21
  0
LINE
  8
0
 10
112.689
 20
53.21
 11
119.542
 21
53.21
  0
LINE
  8
0
 10
119.542
 20
53.21
 11
119.542
 21
49.91
  0
LINE
  8
0
 10
119.542
 20
49.91
 11
126.395
 21
49.91
  0
LINE
  8
0
 10
126.395
 20
49.91
 11
126.395
 21
53.21
  0
LINE
  8
0
 10
126.395
 20
53.21
 11
133.247
 21
53.21
  0
LINE
  8
0
 10
133.247
 20
53.21
 11
133.247
 21
49.91
  0
LINE
  8
0
 10
133.247
 20
49.91
 11
140.1
 21
49.91
  0
LINE
  8
0
 10
140.1
 20
49.91
 11
140.1
 21
53.21
  0
LINE
  8
0
 10
140.1
 20
53.21
 11
146.7
 21
53.21
  0
LINE
  8
0
 10
146.7
 20
53.21
 11
146.7
 21
63.11
  0
LINE
  8
0
 10
146.7
 20
63.11
 11
150
 21
63.11
  0
LINE
  8
0
 10
150
 20
63.11
 11
150
 21
70.3806
  0
LINE
  8
0
 10
150
 20
70.3806
 11
146.7
 21
70.3806
  0
LINE
  8
0
 10
146.7
 20
70.3806
 11
146.7
 21
77.6511
  0
LINE
  8
0
 10
146.7
 20
77.6511
 11
150
 21
77.6511
  0
LINE
  8
0
 10
150
 20
77.6511
 11
150
 21
84.9217
  0
LINE
  8
0
 10
150
 20
84.9217
 11
146.7
 21
84.9217
  0
LINE
  8
0
 10
146.7
 20
84.9217
 11
146.7
 21
92.1923
  0
LINE
  8
0
 10
146.7
 20
92.1923
 11
150
 21
92.1923
  0
LINE
  8
0
 10
150
 20
92.1923
 11
150
 21
99.4629
  0
LINE
  8
0
 10
150
 20
99.4629
 11
146.7
 21
99.4629
  0
LINE
  8
0
 10
146.7
 20
99.4629
 11
146.7
 21
106.734
  0
LINE
  8
0
 10
146.7
 20
106.734
 11
150
 21
106.734
  0
LINE
  8
0
 10
150
 20
106.734
 11
150
 21
114.004
  0
LINE
  8
0
 10
150
 20
114.004
 11
146.7
 21
114.004
  0
LINE
  8
0
 10
146.7
 20
114.004
 11
146.7
 21
121.275
  0
LINE
  8
0
 10
146.7
 20
121.275
 11
150
 21
121.275
  0
LINE
  8
0
 10
150
 20
121.275
 11
150
 21
128.545
  0
LINE
  8
0
 10
150
 20
128.545
 11
146.7
 21
128.545
  0
LINE
  8
0
 10
146.7
 20
128.545
 11
146.7
 21
135.816
  0
LINE
  8
0
 10
146.7
 20
135.816
 11
150
 21
135.816
  0
LINE
  8
0
 10
150
 20
135.816
 11
150
 21
143.086
  0
LINE
  8
0
 10
150
 20
143.086
 11
146.7
 21
143.086
  0
LINE
  8
0
 10
146.7
 20
143.086
 11
146.7
 21
150.357
  0
LINE
  8
0
 10
146.7
 20
150.357
 11
150
 21
150.357
  0
LINE
  8
0
 10
150
 20
150.357
 11
150
 21
157.628
  0
LINE
  8
0
 10
150
 20
157.628
 11
146.7
 21
157.628
  0
LINE
  8
0
 10
146.7
 20
157.628
 11
146.7
 21
164.898
  0
LINE
  8
0
 10
146.7
 20
164.898
 11
150
 21
164.898
  0
LINE
  8
0
 10
150
 20
164.898
 11
150
 21
172.169
  0
LINE
  8
0
 10
150
 20
172.169
 11
146.7
 21
172.169
  0
LINE
  8
0
 10
146.7
 20
172.169
 11
146.7
 21
179.439
  0
LINE
  8
0
 10
146.7
 20
179.439
 11
150
 21
179.439
  0
LINE
  8
0
 10
150
 20
179.439
 11
150
 21
186.71
  0
LINE
  8
0
 10
150
 20
186.71
 11
146.7
 21
186.71
  0
LINE
  8
0
 10
146.7
 20
186.71
 11
146.7
 21
196.61
  0
LINE
  8
0
 10
146.7
 20
196.61
 11
140.1
 21
196.61
  0
LINE
  8
0
 10
140.1
 20
196.61
 11
140.1
 21
199.91
  0
LINE
  8
0
 10
140.1
 20
199.91
 11
133.247
 21
199.91
  0
LINE
  8
0
 10
133.247
 20
199.91
 11
133.247
 21
196.61
  0
LINE
  8
0
 10
133.247
 20
196.61
 11
126.395
 21
196.61
  0
LINE
  8
0
 10
126.395
 20
196.61
 11
126.395
 21
199.91
  0
LINE
  8
0
 10
126.395
 20
199.91
 11
119.542
 21
199.91
  0
LINE
  8
0
 10
119.542
 20
199.91
 11
119.542
 21
196.61
  0
LINE
  8
0
 10
119.542
 20
196.61
 11
112.689
 21
196.61
  0
LINE
  8
0
 10
112.689
 20
196.61
 11
112.689
 21
199.91
  0
LINE
  8
0
 10
112.689
 20
199.91
 11
105.837
 21
199.91
  0
LINE
  8
0
 10
105.837
 20
199.91
 11
105.837
 21
196.61
  0
LINE
  8
0
 10
105.837
 20
196.61
 11
98.9842
 21
196.61
  0
LINE
  8
0
 10
98.9842
 20
196.61
 11
98.9842
 21
199.91
  0
LINE
  8
0
 10
98.9842
 20
199.91
 11
92.1316
 21
199.91
  0
LINE
  8
0
 10
92.1316
 20
199.91
 11
92.1316
 21
196.61
  0
LINE
  8
0
 10
92.1316
 20
196.61
 11
85.279
 21
196.61
  0
LINE
  8
0
 10
85.279
 20
196.61
 11
85.279
 21
199.91
  0
LINE
  8
0
 10
85.279
 20
199.91
 11
78.4263
 21
199.91
  0
LINE
  8
0
 10
78.4263
 20
199.91
 11
78.4263
 21
196.61
  0
LINE
  8
0
 10
78.4263
 20
196.61
 11
71.5737
 21
196.61
  0
LINE
  8
0
 10
71.5737
 20
196.61
 11
71.5737
 21
199.91
  0
LINE
  8
0
 10
71.5737
 20
199.91
 11
64.7211
 21
199.91
  0
LINE
  8
0
 10
64.7211
 20
199.91
 11
64.7211
 21
196.61
  0
LINE
  8
0
 10
64.7211
 20
196.61
 11
57.8684
 21
196.61
  0
LINE
  8
0
 10
57.8684
 20
196.61
 11
57.8684
 21
199.91
  0
LINE
  8
0
 10
57.8684
 20
199.91
 11
51.0158
 21
199.91
  0
LINE
  8
0
 10
51.0158
 20
199.91
 11
51.0158
 21
196.61
  0
LINE
  8
0
 10
51.0158
 20
196.61
 11
44.1632
 21
196.61
  0
LINE
  8
0
 10
44.1632
 20
196.61
 11
44.1632
 21
199.91
  0
LINE
  8
0
 10
44.1632
 20
199.91
 11
37.3105
 21
199.91
  0
LINE
  8
0
 10
37.3105
 20
199.91
 11
37.3105
 21
196.61
  0
LINE
  8
0
 10
37.3105
 20
196.61
 11
30.4579
 21
196.61
  0
LINE
  8
0
 10
30.4579
 20
196.61
 11
30.4579
 21
199.91
  0
LINE
  8
0
 10
30.4579
 20
199.91
 11
23.6053
 21
199.91
  0
LINE
  8
0
 10
23.6053
 20
199.91
 11
23.6053
 21
196.61
  0
LINE
  8
0
 10
23.6053
 20
196.61
 11
16.7526
 21
196.61
  0
LINE
  8
0
 10
16.7526
 20
196.61
 11
16.7526
 21
199.91
  0
LINE
  8
0
 10
16.7526
 20
199.91
 11
9.90001
 21
199.91
  0
LINE
  8
0
 10
9.90001
 20
199.91
 11
9.90001
 21
196.61
  0
LINE
  8
0
 10
9.90001
 20
196.61
 11
3.29997
 21
196.61
  0
LINE
  8
0
 10
3.29997
 20
196.61
 11
3.29997
 21
186.71
  0
LINE
  8
0
 10
3.29997
 20
186.71
 11
0
 21
186.71
  0
LINE
  8
0
 10
0
 20
186.71
 11
0
 21
179.439
  0
LINE
  8
0
 10
0
 20
179.439
 11
3.29997
 21
179.439
  0
LINE
  8
0
 10
3.29997
 20
179.439
 11
3.29997
 21
172.169
  0
LINE
  8
0
 10
3.29997
 20
172.169
 11
0
 21
172.169
  0
LINE
  8
0
 10
0
 20
172.169
 11
0
 21
164.898
  0
LINE
  8
0
 10
0
 20
164.898
 11
3.29997
 21
164.898
  0
LINE
  8
0
 10
3.29997
 20
164.898
 11
3.29997
 21
157.628
  0
LINE
  8
0
 10
3.29997
 20
157.628
 11
0
 21
157.628
  0
LINE
  8
0
 10
0
 20
157.628
 11
0
 21
150.357
  0
LINE
  8
0
 10
0
 20
150.357
 11
3.29997
 21
150.357
  0
LINE
  8
0
 10
3.29997
 20
150.357
 11
3.29997
 21
143.086
  0
LINE
  8
0
 10
3.29997
 20
143.086
 11
0
 21
143.086
  0
LINE
  8
0
 10
0
 20
143.086
 11
0
 21
135.816
  0
LINE
  8
0
 10
0
 20
135.816
 11
3.29997
 21
135.816
  0
LINE
  8
0
 10
3.29997
 20
135.816
 11
3.29997
 21
128.545
  0
LINE
  8
0
 10
3.29997
 20
128.545
 11
0
 21
128.545
  0
LINE
  8
0
 10
0
 20
128.545
 11
0
 21
121.275
  0
LINE
  8
0
 10
0
 20
121.275
 11
3.29999
 21
121.275
  0
LINE
  8
0
 10
3.29999
 20
121.275
 11
3.29999
 21
114.004
  0
LINE
  8
0
 10
3.29999
 20
114.004
 11
0
 21
114.004
  0
LINE
  8
0
 10
0
 20
114.004
 11
0
 21
106.734
  0
LINE
  8
0
 10
0
 20
106.734
 11
3.29999
 21
106.734
  0
LINE
  8
0
 10
3.29999
 20
106.734
 11
3.29999
 21
99.4629
  0
LINE
  8
0
 10
3.29999
 20
99.4629
 11
0
 21
99.4629
  0
LINE
  8
0
 10
0
 20
99.4629
 11
0
 21
92.1924
  0
LINE
  8
0
 10
0
 20
92.1924
 11
3.29999
 21
92.1924
  0
LINE
  8
0
 10
3.29999
 20
92.1924
 11
3.29999
 21
84.9218
  0
LINE
  8
0
 10
3.29999
 20
84.9218
 11
0
 21
84.9218
  0
LINE
  8
0
 10
0
 20
84.9218
 11
0
 21
77.6512
  0
LINE
  8
0
 10
0
 20
77.6512
 11
3.29999
 21
77.6512
  0
LINE
  8
0
 10
3.29999
 20
77.6512
 11
3.29999
 21
70.3806
  0
LINE
  8
0
 10
3.29999
 20
70.3806
 11
0
 21
70.3806
  0
LINE
  8
0
 10
0
 20
70.3806
 11
0
 21
63.11
  0
LINE
  8
0
 10
0
 20
63.11
 11
3.29999
 21
63.11
  0
LINE
  8
0
 10
3.29999
 20
63.11
 11
3.29999
 21
53.21
  0
LINE
  8
0
 10
3.29999
 20
53.21
 11
9.89999
 21
53.21
  0
LINE
  8
0
 10
9.89999
 20
53.21
 11
9.89999
 21
49.91
  0
LINE
  8
0
 10
9.89999
 20
49.91
 11
16.7526
 21
49.91
  0
LINE
  8
0
 10
16.7526
 20
49.91
 11
16.7526
 21
53.21
  0
LINE
  8
0
 10
290.11
 20
53.2
 11
296.71
 21
53.2
  0
LINE
  8
0
 10
296.71
 20
53.2
 11
296.71
 21
49.91
  0
LINE
  8
0
 10
296.71
 20
49.91
 11
300.01
 21
49.91
  0
LINE
  8
0
 10
300.01
 20
49.91
 11
300.01
 21
199.91
  0
LINE
  8
0
 10
300.01
 20
199.91
 11
296.71
 21
199.91
  0
LINE
  8
0
 10
296.71
 20
199.91
 11
296.71
 21
196.62
  0
LINE
  8
0
 10
296.71
 20
196.62
 11
290.11
 21
196.62
  0
LINE
  8
0
 10
290.11
 20
196.62
 11
290.11
 21
199.91
  0
LINE
  8
0
 10
290.11
 20
199.91
 11
225.835
 21
199.91
  0
LINE
  8
0
 10
225.835
 20
199.91
 11
225.835
 21
49.91
  0
LINE
  8
0
 10
225.835
 20
49.91
 11
290.11
 21
49.91
  0
LINE
  8
0
 10
290.11
 20
49.91
 11
290.11
 21
53.2
  0
LINE
  8
0
 10
153.31
 20
53.2
 11
159.91
 21
53.2
  0
LINE
  8
0
 10
159.91
 20
53.2
 11
159.91
 21
49.91
  0
LINE
  8
0
 10
159.91
 20
49.91
 11
224.185
 21
49.91
  0
LINE
  8
0
 10
224.185
 20
49.91
 11
224.185
 21
199.91
  0
LINE
  8
0
 10
224.185
 20
199.91
 11
159.91
 21
199.91
  0
LINE
  8
0
 10
159.91
 20
199.91
 11
159.91
 21
196.62
  0
LINE
  8
0
 10
159.91
 20
196.62
 11
153.31
 21
196.62
  0
LINE
  8
0
 10
153.31
 20
196.62
 11
153.31
 21
199.91
  0
LINE
  8
0
 10
153.31
 20
199.91
 11
150.01
 21
199.91
  0
LINE
  8
0
 10
150.01
 20
199.91
 11
150.01
 21
49.91
  0
LINE
  8
0
 10
150.01
 20
49.91
 11
153.31
 21
49.91
  0
LINE
  8
0
 10
153.31
 20
49.91
 11
153.31
 21
53.2
  0
LINE
  8
0
 10
348.37
 20
119.82
 11
351.67
 21
119.82
  0
LINE
  8
0
 10
351.67
 20
119.82
 11
351.67
 21
103.12
  0
LINE
  8
0
 10
351.67
 20
103.12
 11
398.37
 21
103.12
  0
LINE
  8
0
 10
398.37
 20
103.12
 11
398.37
 21
119.82
  0
LINE
  8
0
 10
398.37
 20
119.82
 11
401.67
 21
119.82
  0
LINE
  8
0
 10
401.67
 20
119.82
 11
401.67
 21
103.12
  0
LINE
  8
0
 10
401.67
 20
103.12
 11
446.72
 21
103.12
  0
LINE
  8
0
 10
446.72
 20
103.12
 11
446.72
 21
116.32
  0
LINE
  8
0
 10
446.72
 20
116.32
 11
450.02
 21
116.32
  0
LINE
  8
0
 10
450.02
 20
116.32
 11
450.02
 21
129.92
  0
LINE
  8
0
 10
450.02
 20
129.92
 11
446.72
 21
129.92
  0
LINE
  8
0
 10
446.72
 20
129.92
 11
446.72
 21
139.82
  0
LINE
  8
0
 10
446.72
 20
139.82
 11
303.32
 21
139.82
  0
LINE
  8
0
 10
303.32
 20
139.82
 11
303.32
 21
129.92
  0
LINE
  8
0
 10
303.32
 20
129.92
 11
300.02
 21
129.92
  0
LINE
  8
0
 10
300.02
 20
129.92
 11
300.02
 21
116.32
  0
LINE
  8
0
 10
300.02
 20
116.32
 11
303.32
 21
116.32
  0
LINE
  8
0
 10
303.32
 20
116.32
 11
303.32
 21
103.12
  0
LINE
  8
0
 10
303.32
 20
103.12
 11
348.37
 21
103.12
  0
LINE
  8
0
 10
348.37
 20
103.12
 11
348.37
 21
119.82
  0
LINE
  8
0
 10
446.72
 20
66.41
 11
450.02
 21
66.41
  0
LINE
  8
0
 10
450.02
 20
66.41
 11
450.02
 21
80.01
  0
LINE
  8
0
 10
450.02
 20
80.01
 11
446.72
 21
80.01
  0
LINE
  8
0
 10
446.72
 20
80.01
 11
446.72
 21
89.91
  0
LINE
  8
0
 10
446.72
 20
89.91
 11
376.67
 21
89.91
  0
LINE
  8
0
 10
376.67
 20
89.91
 11
376.67
 21
69.91
  0
LINE
  8
0
 10
376.67
 20
69.91
 11
373.37
 21
69.91
  0
LINE
  8
0
 10
373.37
 20
69.91
 11
373.37
 21
89.91
  0
LINE
  8
0
 10
373.37
 20
89.91
 11
303.32
 21
89.91
  0
LINE
  8
0
 10
303.32
 20
89.91
 11
303.32
 21
80.01
  0
LINE
  8
0
 10
303.32
 20
80.01
 11
300.02
 21
80.01
  0
LINE
  8
0
 10
300.02
 20
80.01
 11
300.02
 21
66.41
  0
LINE
  8
0
 10
300.02
 20
66.41
 11
303.32
 21
66.41
  0
LINE
  8
0
 10
303.32
 20
66.41
 11
303.32
 21
53.21
  0
LINE
  8
0
 10
303.32
 20
53.21
 11
446.72
 21
53.21
  0
LINE
  8
0
 10
446.72
 20
53.21
 11
446.72
 21
66.41
  0
LINE
  8
0
 10
596.73
 20
66.41
 11
600.03
 21
66.41
  0
LINE
  8
0
 10
600.03
 20
66.41
 11
600.03
 21
80.01
  0
LINE
  8
0
 10
600.03
 20
80.01
 11
596.73
 21
80.01
  0
LINE
  8
0
 10
596.73
 20
80.01
 11
596.73
 21
89.91
  0
LINE
  8
0
 10
596.73
 20
89.91
 11
526.68
 21
89.91
  0
LINE
  8
0
 10
526.68
 20
89.91
 11
526.68
 21
69.91
  0
LINE
  8
0
 10
526.68
 20
69.91
 11
523.38
 21
69.91
  0
LINE
  8
0
 10
523.38
 20
69.91
 11
523.38
 21
89.91
  0
LINE
  8
0
 10
523.38
 20
89.91
 11
453.33
 21
89.91
  0
LINE
  8
0
 10
453.33
 20
89.91
 11
453.33
 21
80.01
  0
LINE
  8
0
 10
453.33
 20
80.01
 11
450.03
 21
80.01
  0
LINE
  8
0
 10
450.03
 20
80.01
 11
450.03
 21
66.41
  0
LINE
  8
0
 10
450.03
 20
66.41
 11
453.33
 21
66.41
  0
LINE
  8
0
 10
453.33
 20
66.41
 11
453.33
 21
53.21
  0
LINE
  8
0
 10
453.33
 20
53.21
 11
596.73
 21
53.21
  0
LINE
  8
0
 10
596.73
 20
53.21
 11
596.73
 21
66.41
  0
LINE
  8
0
 10
179.71
 20
3.29999
 11
186.563
 21
3.29999
  0
LINE
  8
0
 10
186.563
 20
3.29999
 11
186.563
 21
0
  0
LINE
  8
0
 10
186.563
 20
0
 11
193.415
 21
0
  0
LINE
  8
0
 10
193.415
 20
0
 11
193.415
 21
3.29999
  0
LINE
  8
0
 10
193.415
 20
3.29999
 11
200.268
 21
3.29999
  0
LINE
  8
0
 10
200.268
 20
3.29999
 11
200.268
 21
0
  0
LINE
  8
0
 10
200.268
 20
0
 11
207.121
 21
0
  0
LINE
  8
0
 10
207.121
 20
0
 11
207.121
 21
3.29999
  0
LINE
  8
0
 10
207.121
 20
3.29999
 11
213.973
 21
3.29999
  0
LINE
  8
0
 10
213.973
 20
3.29999
 11
213.973
 21
0
  0
LINE
  8
0
 10
213.973
 20
0
 11
220.826
 21
0
  0
LINE
  8
0
 10
220.826
 20
0
 11
220.826
 21
3.29999
  0
LINE
  8
0
 10
220.826
 20
3.29999
 11
227.678
 21
3.29999
  0
LINE
  8
0
 10
227.678
 20
3.29999
 11
227.678
 21
0
  0
LINE
  8
0
 10
227.678
 20
0
 11
234.531
 21
0
  0
LINE
  8
0
 10
234.531
 20
0
 11
234.531
 21
3.29999
  0
LINE
  8
0
 10
234.531
 20
3.29999
 11
241.384
 21
3.29999
  0
LINE
  8
0
 10
241.384
 20
3.29999
 11
241.384
 21
0
  0
LINE
  8
0
 10
241.384
 20
0
 11
248.236
 21
0
  0
LINE
  8
0
 10
248.236
 20
0
 11
248.236
 21
3.29999
  0
LINE
  8
0
 10
248.236
 20
3.29999
 11
255.089
 21
3.29999
  0
LINE
  8
0
 10
255.089
 20
3.29999
 11
255.089
 21
0
  0
LINE
  8
0
 10
255.089
 20
0
 11
261.942
 21
0
  0
LINE
  8
0
 10
261.942
 20
0
 11
261.942
 21
3.29999
  0
LINE
  8
0
 10
261.942
 20
3.29999
 11
268.794
 21
3.29999
  0
LINE
  8
0
 10
268.794
 20
3.29999
 11
268.794
 21
0
  0
LINE
  8
0
 10
268.794
 20
0
 11
275.647
 21
0
  0
LINE
  8
0
 10
275.647
 20
0
 11
275.647
 21
3.29999
  0
LINE
  8
0
 10
275.647
 20
3.29999
 11
282.499
 21
3.29999
  0
LINE
  8
0
 10
282.499
 20
3.29999
 11
282.499
 21
0
  0
LINE
  8
0
 10
282.499
 20
0
 11
289.352
 21
0
  0
LINE
  8
0
 10
289.352
 20
0
 11
289.352
 21
3.29999
  0
LINE
  8
0
 10
289.352
 20
3.29999
 11
296.205
 21
3.29999
  0
LINE
  8
0
 10
296.205
 20
3.29999
 11
296.205
 21
0
  0
LINE
  8
0
 10
296.205
 20
0
 11
303.057
 21
0
  0
LINE
  8
0
 10
303.057
 20
0
 11
303.057
 21
3.29999
  0
LINE
  8
0
 10
303.057
 20
3.29999
 11
309.91
 21
3.29999
  0
LINE
  8
0
 10
309.91
 20
3.29999
 11
309.91
 21
0
  0
LINE
  8
0
 10
309.91
 20
0
 11
319.81
 21
0
  0
LINE
  8
0
 10
319.81
 20
0
 11
319.81
 21
9.89999
  0
LINE
  8
0
 10
319.81
 20
9.89999
 11
316.51
 21
9.89999
  0
LINE
  8
0
 10
316.51
 20
9.89999
 11
316.51
 21
16.6333
  0
LINE
  8
0
 10
316.51
 20
16.6333
 11
319.81
 21
16.6333
  0
LINE
  8
0
 10
319.81
 20
16.6333
 11
319.81
 21
23.3667
  0
LINE
  8
0
 10
319.81
 20
23.3667
 11
316.51
 21
23.3667
  0
LINE
  8
0
 10
316.51
 20
23.3667
 11
316.51
 21
30.1
  0
LINE
  8
0
 10
316.51
 20
30.1
 11
319.81
 21
30.1
  0
LINE
  8
0
 10
319.81
 20
30.1
 11
319.81
 21
30.1195
  0
LINE
  8
0
 10
319.81
 20
30.1195
 11
320.432
 21
30.1195
  0
LINE
  8
0
 10
320.432
 20
30.1195
 11
321.665
 21
30.2753
  0
LINE
  8
0
 10
321.665
 20
30.2753
 11
322.869
 21
30.5845
  0
LINE
  8
0
 10
322.869
 20
30.5845
 11
324.025
 21
31.0422
  0
LINE
  8
0
 10
324.025
 20
31.0422
 11
325.115
 21
31.6411
  0
LINE
  8
0
 10
325.115
 20
31.6411
 11
326.12
 21
32.3719
  0
LINE
  8
0
 10
326.12
 20
32.3719
 11
327.027
 21
33.223
  0
LINE
  8
0
 10
327.027
 20
33.223
 11
327.819
 21
34.1809
  0
LINE
  8
0
 10
327.819
 20
34.1809
 11
328.485
 21
35.2306
  0
LINE
  8
0
 10
328.485
 20
35.2306
 11
329.015
 21
36.3556
  0
LINE
  8
0
 10
329.015
 20
36.3556
 11
329.399
 21
37.538
  0
LINE
  8
0
 10
329.399
 20
37.538
 11
329.632
 21
38.7592
  0
LINE
  8
0
 10
329.632
 20
38.7592
 11
329.71
 21
40
  0
LINE
  8
0
 10
329.71
 20
40
 11
329.632
 21
41.2408
  0
LINE
  8
0
 10
329.632
 20
41.2408
 11
329.399
 21
42.462
  0
LINE
  8
0
 10
329.399
 20
42.462
 11
329.015
 21
43.6444
  0
LINE
  8
0
 10
329.015
 20
43.6444
 11
328.485
 21
44.7693
  0
LINE
  8
0
 10
328.485
 20
44.7693
 11
327.819
 21
45.8191
  0
LINE
  8
0
 10
327.819
 20
45.8191
 11
327.027
 21
46.777
  0
LINE
  8
0
 10
327.027
 20
46.777
 11
326.12
 21
47.6281
  0
LINE
  8
0
 10
326.12
 20
47.6281
 11
325.115
 21
48.3588
  0
LINE
  8
0
 10
325.115
 20
48.3588
 11
324.025
 21
48.9578
  0
LINE
  8
0
 10
324.025
 20
48.9578
 11
322.869
 21
49.4155
  0
LINE
  8
0
 10
322.869
 20
49.4155
 11
321.665
 21
49.7246
  0
LINE
  8
0
 10
321.665
 20
49.7246
 11
320.432
 21
49.8805
  0
LINE
  8
0
 10
320.432
 20
49.8805
 11
319.188
 21
49.8805
  0
LINE
  8
0
 10
319.188
 20
49.8805
 11
317.955
 21
49.7246
  0
LINE
  8
0
 10
317.955
 20
49.7246
 11
316.751
 21
49.4155
  0
LINE
  8
0
 10
316.751
 20
49.4155
 11
315.595
 21
48.9578
  0
LINE
  8
0
 10
315.595
 20
48.9578
 11
314.505
 21
48.3588
  0
LINE
  8
0
 10
314.505
 20
48.3588
 11
313.499
 21
47.6281
  0
LINE
  8
0
 10
313.499
 20
47.6281
 11
312.593
 21
46.777
  0
LINE
  8
0
 10
312.593
 20
46.777
 11
311.801
 21
45.8191
  0
LINE
  8
0
 10
311.801
 20
45.8191
 11
311.135
 21
44.7693
  0
LINE
  8
0
 10
311.135
 20
44.7693
 11
310.605
 21
43.6444
  0
LINE
  8
0
 10
310.605
 20
43.6444
 11
310.221
 21
42.462
  0
LINE
  8
0
 10
310.221
 20
42.462
 11
309.988
 21
41.2408
  0
LINE
  8
0
 10
309.988
 20
41.2408
 11
309.91
 21
40
  0
LINE
  8
0
 10
309.91
 20
40
 11
179.71
 21
40
  0
LINE
  8
0
 10
179.71
 20
40
 11
179.632
 21
41.2408
  0
LINE
  8
0
 10
179.632
 20
41.2408
 11
179.399
 21
42.462
  0
LINE
  8
0
 10
179.399
 20
42.462
 11
179.015
 21
43.6444
  0
LINE
  8
0
 10
179.015
 20
43.6444
 11
178.485
 21
44.7693
  0
LINE
  8
0
 10
178.485
 20
44.7693
 11
177.819
 21
45.8191
  0
LINE
  8
0
 10
177.819
 20
45.8191
 11
177.027
 21
46.777
  0
LINE
  8
0
 10
177.027
 20
46.777
 11
176.12
 21
47.6281
  0
LINE
  8
0
 10
176.12
 20
47.6281
 11
175.115
 21
48.3588
  0
LINE
  8
0
 10
175.115
 20
48.3588
 11
174.025
 21
48.9578
  0
LINE
  8
0
 10
174.025
 20
48.9578
 11
172.869
 21
49.4155
  0
LINE
  8
0
 10
172.869
 20
49.4155
 11
171.665
 21
49.7246
  0
LINE
  8
0
 10
171.665
 20
49.7246
 11
170.432
 21
49.8805
  0
LINE
  8
0
 10
170.432
 20
49.8805
 11
169.188
 21
49.8805
  0
LINE
  8
0
 10
169.188
 20
49.8805
 11
167.955
 21
49.7246
  0
LINE
  8
0
 10
167.955
 20
49.7246
 11
166.751
 21
49.4155
  0
LINE
  8
0
 10
166.751
 20
49.4155
 11
165.595
 21
48.9578
  0
LINE
  8
0
 10
165.595
 20
48.9578
 11
164.505
 21
48.3588
  0
LINE
  8
0
 10
164.505
 20
48.3588
 11
163.5
 21
47.6281
  0
LINE
  8
0
 10
163.5
 20
47.6281
 11
162.593
 21
46.777
  0
LINE
  8
0
 10
162.593
 20
46.777
 11
161.801
 21
45.8191
  0
LINE
  8
0
 10
161.801
 20
45.8191
 11
161.135
 21
44.7693
  0
LINE
  8
0
 10
161.135
 20
44.7693
 11
160.605
 21
43.6444
  0
LINE
  8
0
 10
160.605
 20
43.6444
 11
160.221
 21
42.462
  0
LINE
  8
0
 10
160.221
 20
42.462
 11
159.988
 21
41.2408
  0
LINE
  8
0
 10
159.988
 20
41.2408
 11
159.91
 21
40
  0
LINE
  8
0
 10
159.91
 20
40
 11
159.988
 21
38.7592
  0
LINE
  8
0
 10
159.988
 20
38.7592
 11
160.221
 21
37.538
  0
LINE
  8
0
 10
160.221
 20
37.538
 11
160.605
 21
36.3556
  0
LINE
  8
0
 10
160.605
 20
36.3556
 11
161.135
 21
35.2306
  0
LINE
  8
0
 10
161.135
 20
35.2306
 11
161.801
 21
34.1809
  0
LINE
  8
0
 10
161.801
 20
34.1809
 11
162.593
 21
33.223
  0
LINE
  8
0
 10
162.593
 20
33.223
 11
163.5
 21
32.3719
  0
LINE
  8
0
 10
163.5
 20
32.3719
 11
164.505
 21
31.6411
  0
LINE
  8
0
 10
164.505
 20
31.6411
 11
165.595
 21
31.0422
  0
LINE
  8
0
 10
165.595
 20
31.0422
 11
166.751
 21
30.5845
  0
LINE
  8
0
 10
166.751
 20
30.5845
 11
167.955
 21
30.2753
  0
LINE
  8
0
 10
167.955
 20
30.2753
 11
169.188
 21
30.1195
  0
LINE
  8
0
 10
169.188
 20
30.1195
 11
169.81
 21
30.1195
  0
LINE
  8
0
 10
169.81
 20
30.1195
 11
169.81
 21
30.1
  0
LINE
  8
0
 10
169.81
 20
30.1
 11
173.11
 21
30.1
  0
LINE
  8
0
 10
173.11
 20
30.1
 11
173.11
 21
23.3667
  0
LINE
  8
0
 10
173.11
 20
23.3667
 11
169.81
 21
23.3667
  0
LINE
  8
0
 10
169.81
 20
23.3667
 11
169.81
 21
16.6333
  0
LINE
  8
0
 10
169.81
 20
16.6333
 11
173.11
 21
16.6333
  0
LINE
  8
0
 10
173.11
 20
16.6333
 11
173.11
 21
9.90001
  0
LINE
  8
0
 10
173.11
 20
9.90001
 11
169.81
 21
9.90001
  0
LINE
  8
0
 10
169.81
 20
9.90001
 11
169.81
 21
0
  0
LINE
  8
0
 10
169.81
 20
0
 11
179.71
 21
0
  0
LINE
  8
0
 10
179.71
 20
0
 11
179.71
 21
3.29999
  0
LINE
  8
0
 10
169.377
 20
33.1136
 11
168.517
 21
33.2222
  0
LINE
  8
0
 10
168.517
 20
33.2222
 11
167.678
 21
33.4377
  0
LINE
  8
0
 10
167.678
 20
33.4377
 11
166.872
 21
33.7567
  0
LINE
  8
0
 10
166.872
 20
33.7567
 11
166.113
 21
34.1741
  0
LINE
  8
0
 10
166.113
 20
34.1741
 11
165.412
 21
34.6835
  0
LINE
  8
0
 10
165.412
 20
34.6835
 11
164.78
 21
35.2766
  0
LINE
  8
0
 10
164.78
 20
35.2766
 11
164.228
 21
35.9443
  0
LINE
  8
0
 10
164.228
 20
35.9443
 11
163.763
 21
36.6759
  0
LINE
  8
0
 10
163.763
 20
36.6759
 11
163.395
 21
37.4599
  0
LINE
  8
0
 10
163.395
 20
37.4599
 11
163.127
 21
38.284
  0
LINE
  8
0
 10
163.127
 20
38.284
 11
162.964
 21
39.1352
  0
LINE
  8
0
 10
162.964
 20
39.1352
 11
162.91
 21
40
  0
LINE
  8
0
 10
162.91
 20
40
 11
162.964
 21
40.8648
  0
LINE
  8
0
 10
162.964
 20
40.8648
 11
163.127
 21
41.716
  0
LINE
  8
0
 10
163.127
 20
41.716
 11
163.395
 21
42.5401
  0
LINE
  8
0
 10
163.395
 20
42.5401
 11
163.763
 21
43.3241
  0
LINE
  8
0
 10
163.763
 20
43.3241
 11
164.228
 21
44.0557
  0
LINE
  8
0
 10
164.228
 20
44.0557
 11
164.78
 21
44.7234
  0
LINE
  8
0
 10
164.78
 20
44.7234
 11
165.412
 21
45.3165
  0
LINE
  8
0
 10
165.412
 20
45.3165
 11
166.113
 21
45.8259
  0
LINE
  8
0
 10
166.113
 20
45.8259
 11
166.872
 21
46.2433
  0
LINE
  8
0
 10
166.872
 20
46.2433
 11
167.678
 21
46.5623
  0
LINE
  8
0
 10
167.678
 20
46.5623
 11
168.517
 21
46.7778
  0
LINE
  8
0
 10
168.517
 20
46.7778
 11
169.377
 21
46.8864
  0
LINE
  8
0
 10
169.377
 20
46.8864
 11
170.243
 21
46.8864
  0
LINE
  8
0
 10
170.243
 20
46.8864
 11
171.103
 21
46.7778
  0
LINE
  8
0
 10
171.103
 20
46.7778
 11
171.942
 21
46.5623
  0
LINE
  8
0
 10
171.942
 20
46.5623
 11
172.748
 21
46.2433
  0
LINE
  8
0
 10
172.748
 20
46.2433
 11
173.507
 21
45.8259
  0
LINE
  8
0
 10
173.507
 20
45.8259
 11
174.208
 21
45.3165
  0
LINE
  8
0
 10
174.208
 20
45.3165
 11
174.84
 21
44.7234
  0
LINE
  8
0
 10
174.84
 20
44.7234
 11
175.392
 21
44.0557
  0
LINE
  8
0
 10
175.392
 20
44.0557
 11
175.857
 21
43.3241
  0
LINE
  8
0
 10
175.857
 20
43.3241
 11
176.225
 21
42.5401
  0
LINE
  8
0
 10
176.225
 20
42.5401
 11
176.493
 21
41.716
  0
LINE
  8
0
 10
176.493
 20
41.716
 11
176.656
 21
40.8648
  0
LINE
  8
0
 10
176.656
 20
40.8648
 11
176.71
 21
40
  0
LINE
  8
0
 10
176.71
 20
40
 11
176.656
 21
39.1352
  0
LINE
  8
0
 10
176.656
 20
39.1352
 11
176.493
 21
38.284
  0
LINE
  8
0
 10
176.493
 20
38.284
 11
176.225
 21
37.4599
  0
LINE
  8
0
 10
176.225
 20
37.4599
 11
175.857
 21
36.6759
  0
LINE
  8
0
 10
175.857
 20
36.6759
 11
175.392
 21
35.9443
  0
LINE
  8
0
 10
175.392
 20
35.9443
 11
174.84
 21
35.2766
  0
LINE
  8
0
 10
174.84
 20
35.2766
 11
174.208
 21
34.6835
  0
LINE
  8
0
 10
174.208
 20
34.6835
 11
173.507
 21
34.1741
  0
LINE
  8
0
 10
173.507
 20
34.1741
 11
172.748
 21
33.7567
  0
LINE
  8
0
 10
172.748
 20
33.7567
 11
171.942
 21
33.4377
  0
LINE
  8
0
 10
171.942
 20
33.4377
 11
171.103
 21
33.2222
  0
LINE
  8
0
 10
171.103
 20
33.2222
 11
170.243
 21
33.1136
  0
LINE
  8
0
 10
170.243
 20
33.1136
 11
169.377
 21
33.1136
  0
LINE
  8
0
 10
173.11
 20
43.3
 11
169.81
 21
43.3
  0
LINE
  8
0
 10
169.81
 20
43.3
 11
169.81
 21
40
  0
LINE
  8
0
 10
169.81
 20
40
 11
173.11
 21
40
  0
LINE
  8
0
 10
173.11
 20
40
 11
173.11
 21
43.3
  0
LINE
  8
0
 10
319.377
 20
33.1136
 11
318.517
 21
33.2222
  0
LINE
  8
0
 10
318.517
 20
33.2222
 11
317.678
 21
33.4377
  0
LINE
  8
0
 10
317.678
 20
33.4377
 11
316.872
 21
33.7567
  0
LINE
  8
0
 10
316.872
 20
33.7567
 11
316.113
 21
34.1741
  0
LINE
  8
0
 10
316.113
 20
34.1741
 11
315.412
 21
34.6835
  0
LINE
  8
0
 10
315.412
 20
34.6835
 11
314.78
 21
35.2766
  0
LINE
  8
0
 10
314.78
 20
35.2766
 11
314.228
 21
35.9443
  0
LINE
  8
0
 10
314.228
 20
35.9443
 11
313.763
 21
36.6759
  0
LINE
  8
0
 10
313.763
 20
36.6759
 11
313.395
 21
37.4599
  0
LINE
  8
0
 10
313.395
 20
37.4599
 11
313.127
 21
38.284
  0
LINE
  8
0
 10
313.127
 20
38.284
 11
312.964
 21
39.1352
  0
LINE
  8
0
 10
312.964
 20
39.1352
 11
312.91
 21
40
  0
LINE
  8
0
 10
312.91
 20
40
 11
312.964
 21
40.8648
  0
LINE
  8
0
 10
312.964
 20
40.8648
 11
313.127
 21
41.716
  0
LINE
  8
0
 10
313.127
 20
41.716
 11
313.395
 21
42.5401
  0
LINE
  8
0
 10
313.395
 20
42.5401
 11
313.763
 21
43.3241
  0
LINE
  8
0
 10
313.763
 20
43.3241
 11
314.228
 21
44.0557
  0
LINE
  8
0
 10
314.228
 20
44.0557
 11
314.78
 21
44.7234
  0
LINE
  8
0
 10
314.78
 20
44.7234
 11
315.412
 21
45.3165
  0
LINE
  8
0
 10
315.412
 20
45.3165
 11
316.113
 21
45.8259
  0
LINE
  8
0
 10
316.113
 20
45.8259
 11
316.872
 21
46.2433
  0
LINE
  8
0
 10
316.872
 20
46.2433
 11
317.678
 21
46.5623
  0
LINE
  8
0
 10
317.678
 20
46.5623
 11
318.517
 21
46.7778
  0
LINE
  8
0
 10
318.517
 20
46.7778
 11
319.377
 21
46.8864
  0
LINE
  8
0
 10
319.377
 20
46.8864
 11
320.243
 21
46.8864
  0
LINE
  8
0
 10
320.243
 20
46.8864
 11
321.103
 21
46.7778
  0
LINE
  8
0
 10
321.103
 20
46.7778
 11
321.942
 21
46.5623
  0
LINE
  8
0
 10
321.942
 20
46.5623
 11
322.748
 21
46.2433
  0
LINE
  8
0
 10
322.748
 20
46.2433
 11
323.507
 21
45.8259
  0
LINE
  8
0
 10
323.507
 20
45.8259
 11
324.208
 21
45.3165
  0
LINE
  8
0
 10
324.208
 20
45.3165
 11
324.84
 21
44.7234
  0
LINE
  8
0
 10
324.84
 20
44.7234
 11
325.392
 21
44.0557
  0
LINE
  8
0
 10
325.392
 20
44.0557
 11
325.857
 21
43.3241
  0
LINE
  8
0
 10
325.857
 20
43.3241
 11
326.225
 21
42.5401
  0
LINE
  8
0
 10
326.225
 20
42.5401
 11
326.493
 21
41.716
  0
LINE
  8
0
 10
326.493
 20
41.716
 11
326.656
 21
40.8648
  0
LINE
  8
0
 10
326.656
 20
40.8648
 11
326.71
 21
40
  0
LINE
  8
0
 10
326.71
 20
40
 11
326.656
 21
39.1352
  0
LINE
  8
0
 10
326.656
 20
39.1352
 11
326.493
 21
38.284
  0
LINE
  8
0
 10
326.493
 20
38.284
 11
326.225
 21
37.4599
  0
LINE
  8
0
 10
326.225
 20
37.4599
 11
325.857
 21
36.6759
  0
LINE
  8
0
 10
325.857
 20
36.6759
 11
325.392
 21
35.9443
  0
LINE
  8
0
 10
325.392
 20
35.9443
 11
324.84
 21
35.2766
  0
LINE
  8
0
 10
324.84
 20
35.2766
 11
324.208
 21
34.6835
  0
LINE
  8
0
 10
324.208
 20
34.6835
 11
323.507
 21
34.1741
  0
LINE
  8
0
 10
323.507
 20
34.1741
 11
322.748
 21
33.7567
  0
LINE
  8
0
 10
322.748
 20
33.7567
 11
321.942
 21
33.4377
  0
LINE
  8
0
 10
321.942
 20
33.4377
 11
321.103
 21
33.2222
  0
LINE
  8
0
 10
321.103
 20
33.2222
 11
320.243
 21
33.1136
  0
LINE
  8
0
 10
320.243
 20
33.1136
 11
319.377
 21
33.1136
  0
LINE
  8
0
 10
323.11
 20
43.3
 11
319.81
 21
43.3
  0
LINE
  8
0
 10
319.81
 20
43.3
 11
319.81
 21
40
  0
LINE
  8
0
 10
319.81
 20
40
 11
323.11
 21
40
  0
LINE
  8
0
 10
323.11
 20
40
 11
323.11
 21
43.3
  0
LINE
  8
0
 10
243.16
 20
16.5
 11
243.16
 21
30.1
  0
LINE
  8
0
 10
243.16
 20
30.1
 11
246.47
 21
30.1
  0
LINE
  8
0
 10
246.47
 20
30.1
 11
246.47
 21
16.5
  0
LINE
  8
0
 10
246.47
 20
16.5
 11
243.16
 21
16.5
  0
LINE
  8
0
 10
9.89999
 20
3.29999
 11
16.7526
 21
3.29999
  0
LINE
  8
0
 10
16.7526
 20
3.29999
 11
16.7526
 21
0
  0
LINE
  8
0
 10
16.7526
 20
0
 11
23.6053
 21
0
  0
LINE
  8
0
 10
23.6053
 20
0
 11
23.6053
 21
3.29999
  0
LINE
  8
0
 10
23.6053
 20
3.29999
 11
30.4579
 21
3.29999
  0
LINE
  8
0
 10
30.4579
 20
3.29999
 11
30.4579
 21
0
  0
LINE
  8
0
 10
30.4579
 20
0
 11
37.3105
 21
0
  0
LINE
  8
0
 10
37.3105
 20
0
 11
37.3105
 21
3.29999
  0
LINE
  8
0
 10
37.3105
 20
3.29999
 11
44.1631
 21
3.29999
  0
LINE
  8
0
 10
44.1631
 20
3.29999
 11
44.1631
 21
0
  0
LINE
  8
0
 10
44.1631
 20
0
 11
51.0158
 21
0
  0
LINE
  8
0
 10
51.0158
 20
0
 11
51.0158
 21
3.29999
  0
LINE
  8
0
 10
51.0158
 20
3.29999
 11
57.8684
 21
3.29999
  0
LINE
  8
0
 10
57.8684
 20
3.29999
 11
57.8684
 21
0
  0
LINE
  8
0
 10
57.8684
 20
0
 11
64.721
 21
0
  0
LINE
  8
0
 10
64.721
 20
0
 11
64.721
 21
3.29999
  0
LINE
  8
0
 10
64.721
 20
3.29999
 11
71.5737
 21
3.29999
  0
LINE
  8
0
 10
71.5737
 20
3.29999
 11
71.5737
 21
0
  0
LINE
  8
0
 10
71.5737
 20
0
 11
78.4263
 21
0
  0
LINE
  8
0
 10
78.4263
 20
0
 11
78.4263
 21
3.29999
  0
LINE
  8
0
 10
78.4263
 20
3.29999
 11
85.2789
 21
3.29999
  0
LINE
  8
0
 10
85.2789
 20
3.29999
 11
85.2789
 21
0
  0
LINE
  8
0
 10
85.2789
 20
0
 11
92.1316
 21
0
  0
LINE
  8
0
 10
92.1316
 20
0
 11
92.1316
 21
3.29999
  0
LINE
  8
0
 10
92.1316
 20
3.29999
 11
98.9842
 21
3.29999
  0
LINE
  8
0
 10
98.9842
 20
3.29999
 11
98.9842
 21
0
  0
LINE
  8
0
 10
98.9842
 20
0
 11
105.837
 21
0
  0
LINE
  8
0
 10
105.837
 20
0
 11
105.837
 21
3.29999
  0
LINE
  8
0
 10
105.837
 20
3.29999
 11
112.689
 21
3.29999
  0
LINE
  8
0
 10
112.689
 20
3.29999
 11
112.689
 21
0
  0
LINE
  8
0
 10
112.689
 20
0
 11
119.542
 21
0
  0
LINE
  8
0
 10
119.542
 20
0
 11
119.542
 21
3.29999
  0
LINE
  8
0
 10
119.542
 20
3.29999
 11
126.395
 21
3.29999
  0
LINE
  8
0
 10
126.395
 20
3.29999
 11
126.395
 21
0
  0
LINE
  8
0
 10
126.395
 20
0
 11
133.247
 21
0
  0
LINE
  8
0
 10
133.247
 20
0
 11
133.247
 21
3.29999
  0
LINE
  8
0
 10
133.247
 20
3.29999
 11
140.1
 21
3.29999
  0
LINE
  8
0
 10
140.1
 20
3.29999
 11
140.1
 21
0
  0
LINE
  8
0
 10
140.1
 20
0
 11
150
 21
0
  0
LINE
  8
0
 10
150
 20
0
 11
150
 21
9.89999
  0
LINE
  8
0
 10
150
 20
9.89999
 11
146.7
 21
9.89999
  0
LINE
  8
0
 10
146.7
 20
9.89999
 11
146.7
 21
16.6333
  0
LINE
  8
0
 10
146.7
 20
16.6333
 11
150
 21
16.6333
  0
LINE
  8
0
 10
150
 20
16.6333
 11
150
 21
23.3667
  0
LINE
  8
0
 10
150
 20
23.3667
 11
146.7
 21
23.3667
  0
LINE
  8
0
 10
146.7
 20
23.3667
 11
146.7
 21
30.1
  0
LINE
  8
0
 10
146.7
 20
30.1
 11
150
 21
30.1
  0
LINE
  8
0
 10
150
 20
30.1
 11
150
 21
30.1195
  0
LINE
  8
0
 10
150
 20
30.1195
 11
150.622
 21
30.1195
  0
LINE
  8
0
 10
150.622
 20
30.1195
 11
151.855
 21
30.2753
  0
LINE
  8
0
 10
151.855
 20
30.2753
 11
153.059
 21
30.5845
  0
LINE
  8
0
 10
153.059
 20
30.5845
 11
154.215
 21
31.0422
  0
LINE
  8
0
 10
154.215
 20
31.0422
 11
155.305
 21
31.6411
  0
LINE
  8
0
 10
155.305
 20
31.6411
 11
156.31
 21
32.3719
  0
LINE
  8
0
 10
156.31
 20
32.3719
 11
157.217
 21
33.223
  0
LINE
  8
0
 10
157.217
 20
33.223
 11
158.009
 21
34.1809
  0
LINE
  8
0
 10
158.009
 20
34.1809
 11
158.675
 21
35.2306
  0
LINE
  8
0
 10
158.675
 20
35.2306
 11
159.205
 21
36.3556
  0
LINE
  8
0
 10
159.205
 20
36.3556
 11
159.589
 21
37.538
  0
LINE
  8
0
 10
159.589
 20
37.538
 11
159.822
 21
38.7592
  0
LINE
  8
0
 10
159.822
 20
38.7592
 11
159.9
 21
40
  0
LINE
  8
0
 10
159.9
 20
40
 11
159.822
 21
41.2408
  0
LINE
  8
0
 10
159.822
 20
41.2408
 11
159.589
 21
42.462
  0
LINE
  8
0
 10
159.589
 20
42.462
 11
159.205
 21
43.6444
  0
LINE
  8
0
 10
159.205
 20
43.6444
 11
158.675
 21
44.7693
  0
LINE
  8
0
 10
158.675
 20
44.7693
 11
158.009
 21
45.8191
  0
LINE
  8
0
 10
158.009
 20
45.8191
 11
157.217
 21
46.777
  0
LINE
  8
0
 10
157.217
 20
46.777
 11
156.31
 21
47.6281
  0
LINE
  8
0
 10
156.31
 20
47.6281
 11
155.305
 21
48.3588
  0
LINE
  8
0
 10
155.305
 20
48.3588
 11
154.215
 21
48.9578
  0
LINE
  8
0
 10
154.215
 20
48.9578
 11
153.059
 21
49.4155
  0
LINE
  8
0
 10
153.059
 20
49.4155
 11
151.855
 21
49.7246
  0
LINE
  8
0
 10
151.855
 20
49.7246
 11
150.622
 21
49.8805
  0
LINE
  8
0
 10
150.622
 20
49.8805
 11
149.378
 21
49.8805
  0
LINE
  8
0
 10
149.378
 20
49.8805
 11
148.145
 21
49.7246
  0
LINE
  8
0
 10
148.145
 20
49.7246
 11
146.941
 21
49.4155
  0
LINE
  8
0
 10
146.941
 20
49.4155
 11
145.785
 21
48.9578
  0
LINE
  8
0
 10
145.785
 20
48.9578
 11
144.695
 21
48.3588
  0
LINE
  8
0
 10
144.695
 20
48.3588
 11
143.689
 21
47.6281
  0
LINE
  8
0
 10
143.689
 20
47.6281
 11
142.783
 21
46.777
  0
LINE
  8
0
 10
142.783
 20
46.777
 11
141.991
 21
45.8191
  0
LINE
  8
0
 10
141.991
 20
45.8191
 11
141.325
 21
44.7693
  0
LINE
  8
0
 10
141.325
 20
44.7693
 11
140.795
 21
43.6444
  0
LINE
  8
0
 10
140.795
 20
43.6444
 11
140.411
 21
42.462
  0
LINE
  8
0
 10
140.411
 20
42.462
 11
140.178
 21
41.2408
  0
LINE
  8
0
 10
140.178
 20
41.2408
 11
140.1
 21
40
  0
LINE
  8
0
 10
140.1
 20
40
 11
9.89999
 21
40
  0
LINE
  8
0
 10
9.89999
 20
40
 11
9.82193
 21
41.2408
  0
LINE
  8
0
 10
9.82193
 20
41.2408
 11
9.58896
 21
42.462
  0
LINE
  8
0
 10
9.58896
 20
42.462
 11
9.20477
 21
43.6444
  0
LINE
  8
0
 10
9.20477
 20
43.6444
 11
8.67543
 21
44.7693
  0
LINE
  8
0
 10
8.67543
 20
44.7693
 11
8.00926
 21
45.8191
  0
LINE
  8
0
 10
8.00926
 20
45.8191
 11
7.21678
 21
46.777
  0
LINE
  8
0
 10
7.21678
 20
46.777
 11
6.31049
 21
47.6281
  0
LINE
  8
0
 10
6.31049
 20
47.6281
 11
5.30467
 21
48.3588
  0
LINE
  8
0
 10
5.30467
 20
48.3588
 11
4.21521
 21
48.9578
  0
LINE
  8
0
 10
4.21521
 20
48.9578
 11
3.05927
 21
49.4155
  0
LINE
  8
0
 10
3.05927
 20
49.4155
 11
1.85507
 21
49.7246
  0
LINE
  8
0
 10
1.85507
 20
49.7246
 11
0.621613
 21
49.8805
  0
LINE
  8
0
 10
0.621613
 20
49.8805
 11
-0.621613
 21
49.8805
  0
LINE
  8
0
 10
-0.621613
 20
49.8805
 11
-1.85507
 21
49.7246
  0
LINE
  8
0
 10
-1.85507
 20
49.7246
 11
-3.05927
 21
49.4155
  0
LINE
  8
0
 10
-3.05927
 20
49.4155
 11
-4.21521
 21
48.9578
  0
LINE
  8
0
 10
-4.21521
 20
48.9578
 11
-5.30467
 21
48.3588
  0
LINE
  8
0
 10
-5.30467
 20
48.3588
 11
-6.31049
 21
47.6281
  0
LINE
  8
0
 10
-6.31049
 20
47.6281
 11
-7.21678
 21
46.777
  0
LINE
  8
0
 10
-7.21678
 20
46.777
 11
-8.00926
 21
45.8191
  0
LINE
  8
0
 10
-8.00926
 20
45.8191
 11
-8.67543
 21
44.7693
  0
LINE
  8
0
 10
-8.67543
 20
44.7693
 11
-9.20477
 21
43.6444
  0
LINE
  8
0
 10
-9.20477
 20
43.6444
 11
-9.58896
 21
42.462
  0
LINE
  8
0
 10
-9.58896
 20
42.462
 11
-9.82193
 21
41.2408
  0
LINE
  8
0
 10
-9.82193
 20
41.2408
 11
-9.89999
 21
40
  0
LINE
  8
0
 10
-9.89999
 20
40
 11
-9.82193
 21
38.7592
  0
LINE
  8
0
 10
-9.82193
 20
38.7592
 11
-9.58896
 21
37.538
  0
LINE
  8
0
 10
-9.58896
 20
37.538
 11
-9.20477
 21
36.3556
  0
LINE
  8
0
 10
-9.20477
 20
36.3556
 11
-8.67543
 21
35.2306
  0
LINE
  8
0
 10
-8.67543
 20
35.2306
 11
-8.00926
 21
34.1809
  0
LINE
  8
0
 10
-8.00926
 20
34.1809
 11
-7.21678
 21
33.223
  0
LINE
  8
0
 10
-7.21678
 20
33.223
 11
-6.31049
 21
32.3719
  0
LINE
  8
0
 10
-6.31049
 20
32.3719
 11
-5.30467
 21
31.6411
  0
LINE
  8
0
 10
-5.30467
 20
31.6411
 11
-4.21521
 21
31.0422
  0
LINE
  8
0
 10
-4.21521
 20
31.0422
 11
-3.05927
 21
30.5845
  0
LINE
  8
0
 10
-3.05927
 20
30.5845
 11
-1.85507
 21
30.2753
  0
LINE
  8
0
 10
-1.85507
 20
30.2753
 11
-0.621613
 21
30.1195
  0
LINE
  8
0
 10
-0.621613
 20
30.1195
 11
0
 21
30.1195
  0
LINE
  8
0
 10
0
 20
30.1195
 11
0
 21
30.1
  0
LINE
  8
0
 10
0
 20
30.1
 11
3.29997
 21
30.1
  0
LINE
  8
0
 10
3.29997
 20
30.1
 11
3.29999
 21
23.3667
  0
LINE
  8
0
 10
3.29999
 20
23.3667
 11
0
 21
23.3667
  0
LINE
  8
0
 10
0
 20
23.3667
 11
0
 21
16.6333
  0
LINE
  8
0
 10
0
 20
16.6333
 11
3.29999
 21
16.6333
  0
LINE
  8
0
 10
3.29999
 20
16.6333
 11
3.29999
 21
9.90001
  0
LINE
  8
0
 10
3.29999
 20
9.90001
 11
0
 21
9.90001
  0
LINE
  8
0
 10
0
 20
9.90001
 11
0
 21
0
  0
LINE
  8
0
 10
0
 20
0
 11
9.89999
 21
0
  0
LINE
  8
0
 10
9.89999
 20
0
 11
9.89999
 21
3.29999
  0
LINE
  8
0
 10
-0.433243
 20
33.1136
 11
-1.29292
 21
33.2222
  0
LINE
  8
0
 10
-1.29292
 20
33.2222
 11
-2.1322
 21
33.4377
  0
LINE
  8
0
 10
-2.1322
 20
33.4377
 11
-2.93787
 21
33.7567
  0
LINE
  8
0
 10
-2.93787
 20
33.7567
 11
-3.6972
 21
34.1741
  0
LINE
  8
0
 10
-3.6972
 20
34.1741
 11
-4.39822
 21
34.6835
  0
LINE
  8
0
 10
-4.39822
 20
34.6835
 11
-5.02988
 21
35.2766
  0
LINE
  8
0
 10
-5.02988
 20
35.2766
 11
-5.58221
 21
35.9443
  0
LINE
  8
0
 10
-5.58221
 20
35.9443
 11
-6.04651
 21
36.6759
  0
LINE
  8
0
 10
-6.04651
 20
36.6759
 11
-6.41545
 21
37.4599
  0
LINE
  8
0
 10
-6.41545
 20
37.4599
 11
-6.68321
 21
38.284
  0
LINE
  8
0
 10
-6.68321
 20
38.284
 11
-6.84558
 21
39.1352
  0
LINE
  8
0
 10
-6.84558
 20
39.1352
 11
-6.89999
 21
40
  0
LINE
  8
0
 10
-6.89999
 20
40
 11
-6.84558
 21
40.8648
  0
LINE
  8
0
 10
-6.84558
 20
40.8648
 11
-6.68321
 21
41.716
  0
LINE
  8
0
 10
-6.68321
 20
41.716
 11
-6.41545
 21
42.5401
  0
LINE
  8
0
 10
-6.41545
 20
42.5401
 11
-6.04651
 21
43.3241
  0
LINE
  8
0
 10
-6.04651
 20
43.3241
 11
-5.58221
 21
44.0557
  0
LINE
  8
0
 10
-5.58221
 20
44.0557
 11
-5.02988
 21
44.7234
  0
LINE
  8
0
 10
-5.02988
 20
44.7234
 11
-4.39822
 21
45.3165
  0
LINE
  8
0
 10
-4.39822
 20
45.3165
 11
-3.6972
 21
45.8259
  0
LINE
  8
0
 10
-3.6972
 20
45.8259
 11
-2.93787
 21
46.2433
  0
LINE
  8
0
 10
-2.93787
 20
46.2433
 11
-2.1322
 21
46.5623
  0
LINE
  8
0
 10
-2.1322
 20
46.5623
 11
-1.29292
 21
46.7778
  0
LINE
  8
0
 10
-1.29292
 20
46.7778
 11
-0.433243
 21
46.8864
  0
LINE
  8
0
 10
-0.433243
 20
46.8864
 11
0.433243
 21
46.8864
  0
LINE
  8
0
 10
0.433243
 20
46.8864
 11
1.29292
 21
46.7778
  0
LINE
  8
0
 10
1.29292
 20
46.7778
 11
2.1322
 21
46.5623
  0
LINE
  8
0
 10
2.1322
 20
46.5623
 11
2.93787
 21
46.2433
  0
LINE
  8
0
 10
2.93787
 20
46.2433
 11
3.6972
 21
45.8259
  0
LINE
  8
0
 10
3.6972
 20
45.8259
 11
4.39822
 21
45.3165
  0
LINE
  8
0
 10
4.39822
 20
45.3165
 11
5.02988
 21
44.7234
  0
LINE
  8
0
 10
5.02988
 20
44.7234
 11
5.58221
 21
44.0557
  0
LINE
  8
0
 10
5.58221
 20
44.0557
 11
6.04651
 21
43.3241
  0
LINE
  8
0
 10
6.04651
 20
43.3241
 11
6.41545
 21
42.5401
  0
LINE
  8
0
 10
6.41545
 20
42.5401
 11
6.68321
 21
41.716
  0
LINE
  8
0
 10
6.68321
 20
41.716
 11
6.84558
 21
40.8648
  0
LINE
  8
0
 10
6.84558
 20
40.8648
 11
6.89999
 21
40
  0
LINE
  8
0
 10
6.89999
 20
40
 11
6.84558
 21
39.1352
  0
LINE
  8
0
 10
6.84558
 20
39.1352
 11
6.68321
 21
38.284
  0
LINE
  8
0
 10
6.68321
 20
38.284
 11
6.41545
 21
37.4599
  0
LINE
  8
0
 10
6.41545
 20
37.4599
 11
6.04651
 21
36.6759
  0
LINE
  8
0
 10
6.04651
 20
36.6759
 11
5.58221
 21
35.9443
  0
LINE
  8
0
 10
5.58221
 20
35.9443
 11
5.02988
 21
35.2766
  0
LINE
  8
0
 10
5.02988
 20
35.2766
 11
4.39822
 21
34.6835
  0
LINE
  8
0
 10
4.39822
 20
34.6835
 11
3.6972
 21
34.1741
  0
LINE
  8
0
 10
3.6972
 20
34.1741
 11
2.93787
 21
33.7567
  0
LINE
  8
0
 10
2.93787
 20
33.7567
 11
2.1322
 21
33.4377
  0
LINE
  8
0
 10
2.1322
 20
33.4377
 11
1.29292
 21
33.2222
  0
LINE
  8
0
 10
1.29292
 20
33.2222
 11
0.433243
 21
33.1136
  0
LINE
  8
0
 10
0.433243
 20
33.1136
 11
-0.433243
 21
33.1136
  0
LINE
  8
0
 10
3.29999
 20
43.3
 11
0
 21
43.3
  0
LINE
  8
0
 10
0
 20
43.3
 11
0
 21
40
  0
LINE
  8
0
 10
0
 20
40
 11
3.29999
 21
40
  0
LINE
  8
0
 10
3.29999
 20
40
 11
3.29999
 21
43.3
  0
LINE
  8
0
 10
149.567
 20
33.1136
 11
148.707
 21
33.2222
  0
LINE
  8
0
 10
148.707
 20
33.2222
 11
147.868
 21
33.4377
  0
LINE
  8
0
 10
147.868
 20
33.4377
 11
147.062
 21
33.7567
  0
LINE
  8
0
 10
147.062
 20
33.7567
 11
146.303
 21
34.1741
  0
LINE
  8
0
 10
146.303
 20
34.1741
 11
145.602
 21
34.6835
  0
LINE
  8
0
 10
145.602
 20
34.6835
 11
144.97
 21
35.2766
  0
LINE
  8
0
 10
144.97
 20
35.2766
 11
144.418
 21
35.9443
  0
LINE
  8
0
 10
144.418
 20
35.9443
 11
143.953
 21
36.6759
  0
LINE
  8
0
 10
143.953
 20
36.6759
 11
143.585
 21
37.4599
  0
LINE
  8
0
 10
143.585
 20
37.4599
 11
143.317
 21
38.284
  0
LINE
  8
0
 10
143.317
 20
38.284
 11
143.154
 21
39.1352
  0
LINE
  8
0
 10
143.154
 20
39.1352
 11
143.1
 21
40
  0
LINE
  8
0
 10
143.1
 20
40
 11
143.154
 21
40.8648
  0
LINE
  8
0
 10
143.154
 20
40.8648
 11
143.317
 21
41.716
  0
LINE
  8
0
 10
143.317
 20
41.716
 11
143.585
 21
42.5401
  0
LINE
  8
0
 10
143.585
 20
42.5401
 11
143.953
 21
43.3241
  0
LINE
  8
0
 10
143.953
 20
43.3241
 11
144.418
 21
44.0557
  0
LINE
  8
0
 10
144.418
 20
44.0557
 11
144.97
 21
44.7234
  0
LINE
  8
0
 10
144.97
 20
44.7234
 11
145.602
 21
45.3165
  0
LINE
  8
0
 10
145.602
 20
45.3165
 11
146.303
 21
45.8259
  0
LINE
  8
0
 10
146.303
 20
45.8259
 11
147.062
 21
46.2433
  0
LINE
  8
0
 10
147.062
 20
46.2433
 11
147.868
 21
46.5623
  0
LINE
  8
0
 10
147.868
 20
46.5623
 11
148.707
 21
46.7778
  0
LINE
  8
0
 10
148.707
 20
46.7778
 11
149.567
 21
46.8864
  0
LINE
  8
0
 10
149.567
 20
46.8864
 11
150.433
 21
46.8864
  0
LINE
  8
0
 10
150.433
 20
46.8864
 11
151.293
 21
46.7778
  0
LINE
  8
0
 10
151.293
 20
46.7778
 11
152.132
 21
46.5623
  0
LINE
  8
0
 10
152.132
 20
46.5623
 11
152.938
 21
46.2433
  0
LINE
  8
0
 10
152.938
 20
46.2433
 11
153.697
 21
45.8259
  0
LINE
  8
0
 10
153.697
 20
45.8259
 11
154.398
 21
45.3165
  0
LINE
  8
0
 10
154.398
 20
45.3165
 11
155.03
 21
44.7234
  0
LINE
  8
0
 10
155.03
 20
44.7234
 11
155.582
 21
44.0557
  0
LINE
  8
0
 10
155.582
 20
44.0557
 11
156.047
 21
43.3241
  0
LINE
  8
0
 10
156.047
 20
43.3241
 11
156.415
 21
42.5401
  0
LINE
  8
0
 10
156.415
 20
42.5401
 11
156.683
 21
41.716
  0
LINE
  8
0
 10
156.683
 20
41.716
 11
156.846
 21
40.8648
  0
LINE
  8
0
 10
156.846
 20
40.8648
 11
156.9
 21
40
  0
LINE
  8
0
 10
156.9
 20
40
 11
156.846
 21
39.1352
  0
LINE
  8
0
 10
156.846
 20
39.1352
 11
156.683
 21
38.284
  0
LINE
  8
0
 10
156.683
 20
38.284
 11
156.415
 21
37.4599
  0
LINE
  8
0
 10
156.415
 20
37.4599
 11
156.047
 21
36.6759
  0
LINE
  8
0
 10
156.047
 20
36.6759
 11
155.582
 21
35.9443
  0
LINE
  8
0
 10
155.582
 20
35.9443
 11
155.03
 21
35.2766
  0
LINE
  8
0
 10
155.03
 20
35.2766
 11
154.398
 21
34.6835
  0
LINE
  8
0
 10
154.398
 20
34.6835
 11
153.697
 21
34.1741
  0
LINE
  8
0
 10
153.697
 20
34.1741
 11
152.938
 21
33.7567
  0
LINE
  8
0
 10
152.938
 20
33.7567
 11
152.132
 21
33.4377
  0
LINE
  8
0
 10
152.132
 20
33.4377
 11
151.293
 21
33.2222
  0
LINE
  8
0
 10
151.293
 20
33.2222
 11
150.433
 21
33.1136
  0
LINE
  8
0
 10
150.433
 20
33.1136
 11
149.567
 21
33.1136
  0
LINE
  8
0
 10
153.3
 20
43.3
 11
150
 21
43.3
  0
LINE
  8
0
 10
150
 20
43.3
 11
150
 21
40
  0
LINE
  8
0
 10
150
 20
40
 11
153.3
 21
40
  0
LINE
  8
0
 10
153.3
 20
40
 11
153.3
 21
43.3
  0
LINE
  8
0
 10
73.35
 20
16.5
 11
73.35
 21
30.1
  0
LINE
  8
0
 10
73.35
 20
30.1
 11
76.66
 21
30.1
  0
LINE
  8
0
 10
76.66
 20
30.1
 11
76.66
 21
16.5
  0
LINE
  8
0
 10
76.66
 20
16.5
 11
73.35
 21
16.5
  0
LINE
  8
0
 10
342.92
 20
3.29999
 11
350.191
 21
3.29999
  0
LINE
  8
0
 10
350.191
 20
3.29999
 11
350.191
 21
0
  0
LINE
  8
0
 10
350.191
 20
0
 11
357.461
 21
0
  0
LINE
  8
0
 10
357.461
 20
0
 11
357.461
 21
3.29999
  0
LINE
  8
0
 10
357.461
 20
3.29999
 11
364.732
 21
3.29999
  0
LINE
  8
0
 10
364.732
 20
3.29999
 11
364.732
 21
0
  0
LINE
  8
0
 10
364.732
 20
0
 11
372.002
 21
0
  0
LINE
  8
0
 10
372.002
 20
0
 11
372.002
 21
3.29999
  0
LINE
  8
0
 10
372.002
 20
3.29999
 11
379.273
 21
3.29999
  0
LINE
  8
0
 10
379.273
 20
3.29999
 11
379.273
 21
0
  0
LINE
  8
0
 10
379.273
 20
0
 11
386.544
 21
0
  0
LINE
  8
0
 10
386.544
 20
0
 11
386.544
 21
3.29999
  0
LINE
  8
0
 10
386.544
 20
3.29999
 11
393.814
 21
3.29999
  0
LINE
  8
0
 10
393.814
 20
3.29999
 11
393.814
 21
0
  0
LINE
  8
0
 10
393.814
 20
0
 11
401.085
 21
0
  0
LINE
  8
0
 10
401.085
 20
0
 11
401.085
 21
3.29999
  0
LINE
  8
0
 10
401.085
 20
3.29999
 11
408.355
 21
3.29999
  0
LINE
  8
0
 10
408.355
 20
3.29999
 11
408.355
 21
0
  0
LINE
  8
0
 10
408.355
 20
0
 11
415.626
 21
0
  0
LINE
  8
0
 10
415.626
 20
0
 11
415.626
 21
3.29999
  0
LINE
  8
0
 10
415.626
 20
3.29999
 11
422.896
 21
3.29999
  0
LINE
  8
0
 10
422.896
 20
3.29999
 11
422.896
 21
0
  0
LINE
  8
0
 10
422.896
 20
0
 11
430.167
 21
0
  0
LINE
  8
0
 10
430.167
 20
0
 11
430.167
 21
3.29999
  0
LINE
  8
0
 10
430.167
 20
3.29999
 11
437.438
 21
3.29999
  0
LINE
  8
0
 10
437.438
 20
3.29999
 11
437.438
 21
0
  0
LINE
  8
0
 10
437.438
 20
0
 11
444.708
 21
0
  0
LINE
  8
0
 10
444.708
 20
0
 11
444.708
 21
3.29999
  0
LINE
  8
0
 10
444.708
 20
3.29999
 11
451.979
 21
3.29999
  0
LINE
  8
0
 10
451.979
 20
3.29999
 11
451.979
 21
0
  0
LINE
  8
0
 10
451.979
 20
0
 11
459.249
 21
0
  0
LINE
  8
0
 10
459.249
 20
0
 11
459.249
 21
3.29999
  0
LINE
  8
0
 10
459.249
 20
3.29999
 11
466.52
 21
3.29999
  0
LINE
  8
0
 10
466.52
 20
3.29999
 11
466.52
 21
0
  0
LINE
  8
0
 10
466.52
 20
0
 11
476.42
 21
0
  0
LINE
  8
0
 10
476.42
 20
0
 11
476.42
 21
9.89999
  0
LINE
  8
0
 10
476.42
 20
9.89999
 11
479.72
 21
9.89999
  0
LINE
  8
0
 10
479.72
 20
9.89999
 11
479.72
 21
16.6333
  0
LINE
  8
0
 10
479.72
 20
16.6333
 11
476.42
 21
16.6333
  0
LINE
  8
0
 10
476.42
 20
16.6333
 11
476.42
 21
23.3667
  0
LINE
  8
0
 10
476.42
 20
23.3667
 11
479.72
 21
23.3667
  0
LINE
  8
0
 10
479.72
 20
23.3667
 11
479.72
 21
30.1
  0
LINE
  8
0
 10
479.72
 20
30.1
 11
476.42
 21
30.1
  0
LINE
  8
0
 10
476.42
 20
30.1
 11
476.42
 21
40
  0
LINE
  8
0
 10
476.42
 20
40
 11
333.02
 21
40
  0
LINE
  8
0
 10
333.02
 20
40
 11
333.02
 21
30.1
  0
LINE
  8
0
 10
333.02
 20
30.1
 11
329.72
 21
30.1
  0
LINE
  8
0
 10
329.72
 20
30.1
 11
329.72
 21
23.3667
  0
LINE
  8
0
 10
329.72
 20
23.3667
 11
333.02
 21
23.3667
  0
LINE
  8
0
 10
333.02
 20
23.3667
 11
333.02
 21
16.6333
  0
LINE
  8
0
 10
333.02
 20
16.6333
 11
329.72
 21
16.6333
  0
LINE
  8
0
 10
329.72
 20
16.6333
 11
329.72
 21
9.90001
  0
LINE
  8
0
 10
329.72
 20
9.90001
 11
333.02
 21
9.90001
  0
LINE
  8
0
 10
333.02
 20
9.90001
 11
333.02
 21
0
  0
LINE
  8
0
 10
333.02
 20
0
 11
342.92
 21
0
  0
LINE
  8
0
 10
342.92
 20
0
 11
342.92
 21
3.29999
  0
LINE
  8
0
 10
378.07
 20
16.5
 11
378.07
 21
30.1
  0
LINE
  8
0
 10
378.07
 20
30.1
 11
381.38
 21
30.1
  0
LINE
  8
0
 10
381.38
 20
30.1
 11
381.38
 21
16.5
  0
LINE
  8
0
 10
381.38
 20
16.5
 11
378.07
 21
16.5
  0
LINE
  8
0
 10
428.07
 20
16.5
 11
428.07
 21
30.1
  0
LINE
  8
0
 10
428.07
 20
30.1
 11
431.38
 21
30.1
  0
LINE
  8
0
 10
431.38
 20
30.1
 11
431.38
 21
16.5
  0
LINE
  8
0
 10
431.38
 20
16.5
 11
428.07
 21
16.5
  0
LINE
  8
0
 10
492.93
 20
3.29999
 11
500.201
 21
3.29999
  0
LINE
  8
0
 10
500.201
 20
3.29999
 11
500.201
 21
0
  0
LINE
  8
0
 10
500.201
 20
0
 11
507.471
 21
0
  0
LINE
  8
0
 10
507.471
 20
0
 11
507.471
 21
3.29999
  0
LINE
  8
0
 10
507.471
 20
3.29999
 11
514.742
 21
3.29999
  0
LINE
  8
0
 10
514.742
 20
3.29999
 11
514.742
 21
0
  0
LINE
  8
0
 10
514.742
 20
0
 11
522.012
 21
0
  0
LINE
  8
0
 10
522.012
 20
0
 11
522.012
 21
3.29999
  0
LINE
  8
0
 10
522.012
 20
3.29999
 11
529.283
 21
3.29999
  0
LINE
  8
0
 10
529.283
 20
3.29999
 11
529.283
 21
0
  0
LINE
  8
0
 10
529.283
 20
0
 11
536.554
 21
0
  0
LINE
  8
0
 10
536.554
 20
0
 11
536.554
 21
3.29999
  0
LINE
  8
0
 10
536.554
 20
3.29999
 11
543.824
 21
3.29999
  0
LINE
  8
0
 10
543.824
 20
3.29999
 11
543.824
 21
0
  0
LINE
  8
0
 10
543.824
 20
0
 11
551.095
 21
0
  0
LINE
  8
0
 10
551.095
 20
0
 11
551.095
 21
3.29999
  0
LINE
  8
0
 10
551.095
 20
3.29999
 11
558.365
 21
3.29999
  0
LINE
  8
0
 10
558.365
 20
3.29999
 11
558.365
 21
0
  0
LINE
  8
0
 10
558.365
 20
0
 11
565.636
 21
0
  0
LINE
  8
0
 10
565.636
 20
0
 11
565.636
 21
3.29999
  0
LINE
  8
0
 10
565.636
 20
3.29999
 11
572.906
 21
3.29999
  0
LINE
  8
0
 10
572.906
 20
3.29999
 11
572.906
 21
0
  0
LINE
  8
0
 10
572.906
 20
0
 11
580.177
 21
0
  0
LINE
  8
0
 10
580.177
 20
0
 11
580.177
 21
3.29999
  0
LINE
  8
0
 10
580.177
 20
3.29999
 11
587.448
 21
3.29999
  0
LINE
  8
0
 10
587.448
 20
3.29999
 11
587.448
 21
0
  0
LINE
  8
0
 10
587.448
 20
0
 11
594.718
 21
0
  0
LINE
  8
0
 10
594.718
 20
0
 11
594.718
 21
3.29999
  0
LINE
  8
0
 10
594.718
 20
3.29999
 11
601.989
 21
3.29999
  0
LINE
  8
0
 10
601.989
 20
3.29999
 11
601.989
 21
0
  0
LINE
  8
0
 10
601.989
 20
0
 11
609.259
 21
0
  0
LINE
  8
0
 10
609.259
 20
0
 11
609.259
 21
3.29999
  0
LINE
  8
0
 10
609.259
 20
3.29999
 11
616.53
 21
3.29999
  0
LINE
  8
0
 10
616.53
 20
3.29999
 11
616.53
 21
0
  0
LINE
  8
0
 10
616.53
 20
0
 11
626.43
 21
0
  0
LINE
  8
0
 10
626.43
 20
0
 11
626.43
 21
9.89999
  0
LINE
  8
0
 10
626.43
 20
9.89999
 11
629.73
 21
9.89999
  0
LINE
  8
0
 10
629.73
 20
9.89999
 11
629.73
 21
16.6333
  0
LINE
  8
0
 10
629.73
 20
16.6333
 11
626.43
 21
16.6333
  0
LINE
  8
0
 10
626.43
 20
16.6333
 11
626.43
 21
23.3667
  0
LINE
  8
0
 10
626.43
 20
23.3667
 11
629.73
 21
23.3667
  0
LINE
  8
0
 10
629.73
 20
23.3667
 11
629.73
 21
30.1
  0
LINE
  8
0
 10
629.73
 20
30.1
 11
626.43
 21
30.1
  0
LINE
  8
0
 10
626.43
 20
30.1
 11
626.43
 21
40
  0
LINE
  8
0
 10
626.43
 20
40
 11
483.03
 21
40
  0
LINE
  8
0
 10
483.03
 20
40
 11
483.03
 21
30.1
  0
LINE
  8
0
 10
483.03
 20
30.1
 11
479.73
 21
30.1
  0
LINE
  8
0
 10
479.73
 20
30.1
 11
479.73
 21
23.3667
  0
LINE
  8
0
 10
479.73
 20
23.3667
 11
483.03
 21
23.3667
  0
LINE
  8
0
 10
483.03
 20
23.3667
 11
483.03
 21
16.6333
  0
LINE
  8
0
 10
483.03
 20
16.6333
 11
479.73
 21
16.6333
  0
LINE
  8
0
 10
479.73
 20
16.6333
 11
479.73
 21
9.90001
  0
LINE
  8
0
 10
479.73
 20
9.90001
 11
483.03
 21
9.90001
  0
LINE
  8
0
 10
483.03
 20
9.90001
 11
483.03
 21
0
  0
LINE
  8
0
 10
483.03
 20
0
 11
492.93
 21
0
  0
LINE
  8
0
 10
492.93
 20
0
 11
492.93
 21
3.29999
  0
LINE
  8
0
 10
528.08
 20
16.5
 11
528.08
 21
30.1
  0
LINE
  8
0
 10
528.08
 20
30.1
 11
531.39
 21
30.1
  0
LINE
  8
0
 10
531.39
 20
30.1
 11
531.39
 21
16.5
  0
LINE
  8
0
 10
531.39
 20
16.5
 11
528.08
 21
16.5
  0
LINE
  8
0
 10
578.08
 20
16.5
 11
578.08
 21
30.1
  0
LINE
  8
0
 10
578.08
 20
30.1
 11
581.39
 21
30.1
  0
LINE
  8
0
 10
581.39
 20
30.1
 11
581.39
 21
16.5
  0
LINE
  8
0
 10
581.39
 20
16.5
 11
578.08
 21
16.5
  0
ENDSEC
  0
SECTION
  2
OBJECTS
  0
DICTIONARY
  0
ENDSEC
  0
EOF
