  0
SECTION
  2
BLOCKS
  0
ENDSEC
  0
SECTION
  2
ENTITIES
  0
LINE
  8
0
 10
16.58
 20
53.21
 11
23.26
 21
53.21
  0
LINE
  8
0
 10
23.26
 20
53.21
 11
23.26
 21
49.91
  0
LINE
  8
0
 10
23.26
 20
49.91
 11
29.94
 21
49.91
  0
LINE
  8
0
 10
29.94
 20
49.91
 11
29.94
 21
53.21
  0
LINE
  8
0
 10
29.94
 20
53.21
 11
36.62
 21
53.21
  0
LINE
  8
0
 10
36.62
 20
53.21
 11
36.62
 21
49.91
  0
LINE
  8
0
 10
36.62
 20
49.91
 11
43.3
 21
49.91
  0
LINE
  8
0
 10
43.3
 20
49.91
 11
43.3
 21
53.21
  0
LINE
  8
0
 10
43.3
 20
53.21
 11
49.98
 21
53.21
  0
LINE
  8
0
 10
49.98
 20
53.21
 11
49.98
 21
49.91
  0
LINE
  8
0
 10
49.98
 20
49.91
 11
56.66
 21
49.91
  0
LINE
  8
0
 10
56.66
 20
49.91
 11
56.66
 21
53.21
  0
LINE
  8
0
 10
56.66
 20
53.21
 11
63.34
 21
53.21
  0
LINE
  8
0
 10
63.34
 20
53.21
 11
63.34
 21
49.91
  0
LINE
  8
0
 10
63.34
 20
49.91
 11
70.02
 21
49.91
  0
LINE
  8
0
 10
70.02
 20
49.91
 11
70.02
 21
53.21
  0
LINE
  8
0
 10
70.02
 20
53.21
 11
76.7
 21
53.21
  0
LINE
  8
0
 10
76.7
 20
53.21
 11
76.7
 21
49.91
  0
LINE
  8
0
 10
76.7
 20
49.91
 11
83.38
 21
49.91
  0
LINE
  8
0
 10
83.38
 20
49.91
 11
83.38
 21
53.21
  0
LINE
  8
0
 10
83.38
 20
53.21
 11
90.06
 21
53.21
  0
LINE
  8
0
 10
90.06
 20
53.21
 11
90.06
 21
49.91
  0
LINE
  8
0
 10
90.06
 20
49.91
 11
96.74
 21
49.91
  0
LINE
  8
0
 10
96.74
 20
49.91
 11
96.74
 21
53.21
  0
LINE
  8
0
 10
96.74
 20
53.21
 11
103.42
 21
53.21
  0
LINE
  8
0
 10
103.42
 20
53.21
 11
103.42
 21
49.91
  0
LINE
  8
0
 10
103.42
 20
49.91
 11
110.1
 21
49.91
  0
LINE
  8
0
 10
110.1
 20
49.91
 11
110.1
 21
53.21
  0
LINE
  8
0
 10
110.1
 20
53.21
 11
116.7
 21
53.21
  0
LINE
  8
0
 10
116.7
 20
53.21
 11
116.7
 21
63.11
  0
LINE
  8
0
 10
116.7
 20
63.11
 11
120
 21
63.11
  0
LINE
  8
0
 10
120
 20
63.11
 11
120
 21
70.3806
  0
LINE
  8
0
 10
120
 20
70.3806
 11
116.7
 21
70.3806
  0
LINE
  8
0
 10
116.7
 20
70.3806
 11
116.7
 21
77.6511
  0
LINE
  8
0
 10
116.7
 20
77.6511
 11
120
 21
77.6511
  0
LINE
  8
0
 10
120
 20
77.6511
 11
120
 21
84.9217
  0
LINE
  8
0
 10
120
 20
84.9217
 11
116.7
 21
84.9217
  0
LINE
  8
0
 10
116.7
 20
84.9217
 11
116.7
 21
92.1923
  0
LINE
  8
0
 10
116.7
 20
92.1923
 11
120
 21
92.1923
  0
LINE
  8
0
 10
120
 20
92.1923
 11
120
 21
99.4629
  0
LINE
  8
0
 10
120
 20
99.4629
 11
116.7
 21
99.4629
  0
LINE
  8
0
 10
116.7
 20
99.4629
 11
116.7
 21
106.734
  0
LINE
  8
0
 10
116.7
 20
106.734
 11
120
 21
106.734
  0
LINE
  8
0
 10
120
 20
106.734
 11
120
 21
114.004
  0
LINE
  8
0
 10
120
 20
114.004
 11
116.7
 21
114.004
  0
LINE
  8
0
 10
116.7
 20
114.004
 11
116.7
 21
121.275
  0
LINE
  8
0
 10
116.7
 20
121.275
 11
120
 21
121.275
  0
LINE
  8
0
 10
120
 20
121.275
 11
120
 21
128.545
  0
LINE
  8
0
 10
120
 20
128.545
 11
116.7
 21
128.545
  0
LINE
  8
0
 10
116.7
 20
128.545
 11
116.7
 21
135.816
  0
LINE
  8
0
 10
116.7
 20
135.816
 11
120
 21
135.816
  0
LINE
  8
0
 10
120
 20
135.816
 11
120
 21
143.086
  0
LINE
  8
0
 10
120
 20
143.086
 11
116.7
 21
143.086
  0
LINE
  8
0
 10
116.7
 20
143.086
 11
116.7
 21
150.357
  0
LINE
  8
0
 10
116.7
 20
150.357
 11
120
 21
150.357
  0
LINE
  8
0
 10
120
 20
150.357
 11
120
 21
157.628
  0
LINE
  8
0
 10
120
 20
157.628
 11
116.7
 21
157.628
  0
LINE
  8
0
 10
116.7
 20
157.628
 11
116.7
 21
164.898
  0
LINE
  8
0
 10
116.7
 20
164.898
 11
120
 21
164.898
  0
LINE
  8
0
 10
120
 20
164.898
 11
120
 21
172.169
  0
LINE
  8
0
 10
120
 20
172.169
 11
116.7
 21
172.169
  0
LINE
  8
0
 10
116.7
 20
172.169
 11
116.7
 21
179.439
  0
LINE
  8
0
 10
116.7
 20
179.439
 11
120
 21
179.439
  0
LINE
  8
0
 10
120
 20
179.439
 11
120
 21
186.71
  0
LINE
  8
0
 10
120
 20
186.71
 11
116.7
 21
186.71
  0
LINE
  8
0
 10
116.7
 20
186.71
 11
116.7
 21
196.61
  0
LINE
  8
0
 10
116.7
 20
196.61
 11
110.1
 21
196.61
  0
LINE
  8
0
 10
110.1
 20
196.61
 11
110.1
 21
199.91
  0
LINE
  8
0
 10
110.1
 20
199.91
 11
103.42
 21
199.91
  0
LINE
  8
0
 10
103.42
 20
199.91
 11
103.42
 21
196.61
  0
LINE
  8
0
 10
103.42
 20
196.61
 11
96.74
 21
196.61
  0
LINE
  8
0
 10
96.74
 20
196.61
 11
96.74
 21
199.91
  0
LINE
  8
0
 10
96.74
 20
199.91
 11
90.06
 21
199.91
  0
LINE
  8
0
 10
90.06
 20
199.91
 11
90.06
 21
196.61
  0
LINE
  8
0
 10
90.06
 20
196.61
 11
83.38
 21
196.61
  0
LINE
  8
0
 10
83.38
 20
196.61
 11
83.38
 21
199.91
  0
LINE
  8
0
 10
83.38
 20
199.91
 11
76.7
 21
199.91
  0
LINE
  8
0
 10
76.7
 20
199.91
 11
76.7
 21
196.61
  0
LINE
  8
0
 10
76.7
 20
196.61
 11
70.02
 21
196.61
  0
LINE
  8
0
 10
70.02
 20
196.61
 11
70.02
 21
199.91
  0
LINE
  8
0
 10
70.02
 20
199.91
 11
63.34
 21
199.91
  0
LINE
  8
0
 10
63.34
 20
199.91
 11
63.34
 21
196.61
  0
LINE
  8
0
 10
63.34
 20
196.61
 11
56.66
 21
196.61
  0
LINE
  8
0
 10
56.66
 20
196.61
 11
56.66
 21
199.91
  0
LINE
  8
0
 10
56.66
 20
199.91
 11
49.98
 21
199.91
  0
LINE
  8
0
 10
49.98
 20
199.91
 11
49.98
 21
196.61
  0
LINE
  8
0
 10
49.98
 20
196.61
 11
43.3
 21
196.61
  0
LINE
  8
0
 10
43.3
 20
196.61
 11
43.3
 21
199.91
  0
LINE
  8
0
 10
43.3
 20
199.91
 11
36.62
 21
199.91
  0
LINE
  8
0
 10
36.62
 20
199.91
 11
36.62
 21
196.61
  0
LINE
  8
0
 10
36.62
 20
196.61
 11
29.94
 21
196.61
  0
LINE
  8
0
 10
29.94
 20
196.61
 11
29.94
 21
199.91
  0
LINE
  8
0
 10
29.94
 20
199.91
 11
23.26
 21
199.91
  0
LINE
  8
0
 10
23.26
 20
199.91
 11
23.26
 21
196.61
  0
LINE
  8
0
 10
23.26
 20
196.61
 11
16.58
 21
196.61
  0
LINE
  8
0
 10
16.58
 20
196.61
 11
16.58
 21
199.91
  0
LINE
  8
0
 10
16.58
 20
199.91
 11
9.90001
 21
199.91
  0
LINE
  8
0
 10
9.90001
 20
199.91
 11
9.90001
 21
196.61
  0
LINE
  8
0
 10
9.90001
 20
196.61
 11
3.29997
 21
196.61
  0
LINE
  8
0
 10
3.29997
 20
196.61
 11
3.29997
 21
186.71
  0
LINE
  8
0
 10
3.29997
 20
186.71
 11
0
 21
186.71
  0
LINE
  8
0
 10
0
 20
186.71
 11
0
 21
179.439
  0
LINE
  8
0
 10
0
 20
179.439
 11
3.29997
 21
179.439
  0
LINE
  8
0
 10
3.29997
 20
179.439
 11
3.29997
 21
172.169
  0
LINE
  8
0
 10
3.29997
 20
172.169
 11
0
 21
172.169
  0
LINE
  8
0
 10
0
 20
172.169
 11
0
 21
164.898
  0
LINE
  8
0
 10
0
 20
164.898
 11
3.29997
 21
164.898
  0
LINE
  8
0
 10
3.29997
 20
164.898
 11
3.29997
 21
157.628
  0
LINE
  8
0
 10
3.29997
 20
157.628
 11
0
 21
157.628
  0
LINE
  8
0
 10
0
 20
157.628
 11
0
 21
150.357
  0
LINE
  8
0
 10
0
 20
150.357
 11
3.29997
 21
150.357
  0
LINE
  8
0
 10
3.29997
 20
150.357
 11
3.29997
 21
143.086
  0
LINE
  8
0
 10
3.29997
 20
143.086
 11
0
 21
143.086
  0
LINE
  8
0
 10
0
 20
143.086
 11
0
 21
135.816
  0
LINE
  8
0
 10
0
 20
135.816
 11
3.29997
 21
135.816
  0
LINE
  8
0
 10
3.29997
 20
135.816
 11
3.29997
 21
128.545
  0
LINE
  8
0
 10
3.29997
 20
128.545
 11
0
 21
128.545
  0
LINE
  8
0
 10
0
 20
128.545
 11
0
 21
121.275
  0
LINE
  8
0
 10
0
 20
121.275
 11
3.29999
 21
121.275
  0
LINE
  8
0
 10
3.29999
 20
121.275
 11
3.29999
 21
114.004
  0
LINE
  8
0
 10
3.29999
 20
114.004
 11
0
 21
114.004
  0
LINE
  8
0
 10
0
 20
114.004
 11
0
 21
106.734
  0
LINE
  8
0
 10
0
 20
106.734
 11
3.29999
 21
106.734
  0
LINE
  8
0
 10
3.29999
 20
106.734
 11
3.29999
 21
99.4629
  0
LINE
  8
0
 10
3.29999
 20
99.4629
 11
0
 21
99.4629
  0
LINE
  8
0
 10
0
 20
99.4629
 11
0
 21
92.1924
  0
LINE
  8
0
 10
0
 20
92.1924
 11
3.29999
 21
92.1924
  0
LINE
  8
0
 10
3.29999
 20
92.1924
 11
3.29999
 21
84.9218
  0
LINE
  8
0
 10
3.29999
 20
84.9218
 11
0
 21
84.9218
  0
LINE
  8
0
 10
0
 20
84.9218
 11
0
 21
77.6512
  0
LINE
  8
0
 10
0
 20
77.6512
 11
3.29999
 21
77.6512
  0
LINE
  8
0
 10
3.29999
 20
77.6512
 11
3.29999
 21
70.3806
  0
LINE
  8
0
 10
3.29999
 20
70.3806
 11
0
 21
70.3806
  0
LINE
  8
0
 10
0
 20
70.3806
 11
0
 21
63.11
  0
LINE
  8
0
 10
0
 20
63.11
 11
3.29999
 21
63.11
  0
LINE
  8
0
 10
3.29999
 20
63.11
 11
3.29999
 21
53.21
  0
LINE
  8
0
 10
3.29999
 20
53.21
 11
9.89999
 21
53.21
  0
LINE
  8
0
 10
9.89999
 20
53.21
 11
9.89999
 21
49.91
  0
LINE
  8
0
 10
9.89999
 20
49.91
 11
16.58
 21
49.91
  0
LINE
  8
0
 10
16.58
 20
49.91
 11
16.58
 21
53.21
  0
LINE
  8
0
 10
230.11
 20
53.2
 11
236.71
 21
53.2
  0
LINE
  8
0
 10
236.71
 20
53.2
 11
236.71
 21
49.91
  0
LINE
  8
0
 10
236.71
 20
49.91
 11
240.01
 21
49.91
  0
LINE
  8
0
 10
240.01
 20
49.91
 11
240.01
 21
199.91
  0
LINE
  8
0
 10
240.01
 20
199.91
 11
236.71
 21
199.91
  0
LINE
  8
0
 10
236.71
 20
199.91
 11
236.71
 21
196.62
  0
LINE
  8
0
 10
236.71
 20
196.62
 11
230.11
 21
196.62
  0
LINE
  8
0
 10
230.11
 20
196.62
 11
230.11
 21
199.91
  0
LINE
  8
0
 10
230.11
 20
199.91
 11
180.835
 21
199.91
  0
LINE
  8
0
 10
180.835
 20
199.91
 11
180.835
 21
49.91
  0
LINE
  8
0
 10
180.835
 20
49.91
 11
230.11
 21
49.91
  0
LINE
  8
0
 10
230.11
 20
49.91
 11
230.11
 21
53.2
  0
LINE
  8
0
 10
123.31
 20
53.2
 11
129.91
 21
53.2
  0
LINE
  8
0
 10
129.91
 20
53.2
 11
129.91
 21
49.91
  0
LINE
  8
0
 10
129.91
 20
49.91
 11
179.185
 21
49.91
  0
LINE
  8
0
 10
179.185
 20
49.91
 11
179.185
 21
199.91
  0
LINE
  8
0
 10
179.185
 20
199.91
 11
129.91
 21
199.91
  0
LINE
  8
0
 10
129.91
 20
199.91
 11
129.91
 21
196.62
  0
LINE
  8
0
 10
129.91
 20
196.62
 11
123.31
 21
196.62
  0
LINE
  8
0
 10
123.31
 20
196.62
 11
123.31
 21
199.91
  0
LINE
  8
0
 10
123.31
 20
199.91
 11
120.01
 21
199.91
  0
LINE
  8
0
 10
120.01
 20
199.91
 11
120.01
 21
49.91
  0
LINE
  8
0
 10
120.01
 20
49.91
 11
123.31
 21
49.91
  0
LINE
  8
0
 10
123.31
 20
49.91
 11
123.31
 21
53.2
  0
LINE
  8
0
 10
386.72
 20
66.41
 11
390.02
 21
66.41
  0
LINE
  8
0
 10
390.02
 20
66.41
 11
390.02
 21
80.01
  0
LINE
  8
0
 10
390.02
 20
80.01
 11
386.72
 21
80.01
  0
LINE
  8
0
 10
386.72
 20
80.01
 11
386.72
 21
89.91
  0
LINE
  8
0
 10
386.72
 20
89.91
 11
243.32
 21
89.91
  0
LINE
  8
0
 10
243.32
 20
89.91
 11
243.32
 21
80.01
  0
LINE
  8
0
 10
243.32
 20
80.01
 11
240.02
 21
80.01
  0
LINE
  8
0
 10
240.02
 20
80.01
 11
240.02
 21
66.41
  0
LINE
  8
0
 10
240.02
 20
66.41
 11
243.32
 21
66.41
  0
LINE
  8
0
 10
243.32
 20
66.41
 11
243.32
 21
53.21
  0
LINE
  8
0
 10
243.32
 20
53.21
 11
386.72
 21
53.21
  0
LINE
  8
0
 10
386.72
 20
53.21
 11
386.72
 21
66.41
  0
LINE
  8
0
 10
9.89999
 20
3.29999
 11
16.58
 21
3.29999
  0
LINE
  8
0
 10
16.58
 20
3.29999
 11
16.58
 21
0
  0
LINE
  8
0
 10
16.58
 20
0
 11
23.26
 21
0
  0
LINE
  8
0
 10
23.26
 20
0
 11
23.26
 21
3.29999
  0
LINE
  8
0
 10
23.26
 20
3.29999
 11
29.94
 21
3.29999
  0
LINE
  8
0
 10
29.94
 20
3.29999
 11
29.94
 21
0
  0
LINE
  8
0
 10
29.94
 20
0
 11
36.62
 21
0
  0
LINE
  8
0
 10
36.62
 20
0
 11
36.62
 21
3.29999
  0
LINE
  8
0
 10
36.62
 20
3.29999
 11
43.3
 21
3.29999
  0
LINE
  8
0
 10
43.3
 20
3.29999
 11
43.3
 21
0
  0
LINE
  8
0
 10
43.3
 20
0
 11
49.98
 21
0
  0
LINE
  8
0
 10
49.98
 20
0
 11
49.98
 21
3.29999
  0
LINE
  8
0
 10
49.98
 20
3.29999
 11
56.66
 21
3.29999
  0
LINE
  8
0
 10
56.66
 20
3.29999
 11
56.66
 21
0
  0
LINE
  8
0
 10
56.66
 20
0
 11
63.34
 21
0
  0
LINE
  8
0
 10
63.34
 20
0
 11
63.34
 21
3.29999
  0
LINE
  8
0
 10
63.34
 20
3.29999
 11
70.02
 21
3.29999
  0
LINE
  8
0
 10
70.02
 20
3.29999
 11
70.02
 21
0
  0
LINE
  8
0
 10
70.02
 20
0
 11
76.7
 21
0
  0
LINE
  8
0
 10
76.7
 20
0
 11
76.7
 21
3.29999
  0
LINE
  8
0
 10
76.7
 20
3.29999
 11
83.38
 21
3.29999
  0
LINE
  8
0
 10
83.38
 20
3.29999
 11
83.38
 21
0
  0
LINE
  8
0
 10
83.38
 20
0
 11
90.06
 21
0
  0
LINE
  8
0
 10
90.06
 20
0
 11
90.06
 21
3.29999
  0
LINE
  8
0
 10
90.06
 20
3.29999
 11
96.74
 21
3.29999
  0
LINE
  8
0
 10
96.74
 20
3.29999
 11
96.74
 21
0
  0
LINE
  8
0
 10
96.74
 20
0
 11
103.42
 21
0
  0
LINE
  8
0
 10
103.42
 20
0
 11
103.42
 21
3.29999
  0
LINE
  8
0
 10
103.42
 20
3.29999
 11
110.1
 21
3.29999
  0
LINE
  8
0
 10
110.1
 20
3.29999
 11
110.1
 21
0
  0
LINE
  8
0
 10
110.1
 20
0
 11
120
 21
0
  0
LINE
  8
0
 10
120
 20
0
 11
120
 21
9.89999
  0
LINE
  8
0
 10
120
 20
9.89999
 11
116.7
 21
9.89999
  0
LINE
  8
0
 10
116.7
 20
9.89999
 11
116.7
 21
16.6333
  0
LINE
  8
0
 10
116.7
 20
16.6333
 11
120
 21
16.6333
  0
LINE
  8
0
 10
120
 20
16.6333
 11
120
 21
23.3667
  0
LINE
  8
0
 10
120
 20
23.3667
 11
116.7
 21
23.3667
  0
LINE
  8
0
 10
116.7
 20
23.3667
 11
116.7
 21
30.1
  0
LINE
  8
0
 10
116.7
 20
30.1
 11
120
 21
30.1
  0
LINE
  8
0
 10
120
 20
30.1
 11
120
 21
30.1195
  0
LINE
  8
0
 10
120
 20
30.1195
 11
120.622
 21
30.1195
  0
LINE
  8
0
 10
120.622
 20
30.1195
 11
121.855
 21
30.2753
  0
LINE
  8
0
 10
121.855
 20
30.2753
 11
123.059
 21
30.5845
  0
LINE
  8
0
 10
123.059
 20
30.5845
 11
124.215
 21
31.0422
  0
LINE
  8
0
 10
124.215
 20
31.0422
 11
125.305
 21
31.6411
  0
LINE
  8
0
 10
125.305
 20
31.6411
 11
126.31
 21
32.3719
  0
LINE
  8
0
 10
126.31
 20
32.3719
 11
127.217
 21
33.223
  0
LINE
  8
0
 10
127.217
 20
33.223
 11
128.009
 21
34.1809
  0
LINE
  8
0
 10
128.009
 20
34.1809
 11
128.675
 21
35.2306
  0
LINE
  8
0
 10
128.675
 20
35.2306
 11
129.205
 21
36.3556
  0
LINE
  8
0
 10
129.205
 20
36.3556
 11
129.589
 21
37.538
  0
LINE
  8
0
 10
129.589
 20
37.538
 11
129.822
 21
38.7592
  0
LINE
  8
0
 10
129.822
 20
38.7592
 11
129.9
 21
40
  0
LINE
  8
0
 10
129.9
 20
40
 11
129.822
 21
41.2408
  0
LINE
  8
0
 10
129.822
 20
41.2408
 11
129.589
 21
42.462
  0
LINE
  8
0
 10
129.589
 20
42.462
 11
129.205
 21
43.6444
  0
LINE
  8
0
 10
129.205
 20
43.6444
 11
128.675
 21
44.7693
  0
LINE
  8
0
 10
128.675
 20
44.7693
 11
128.009
 21
45.8191
  0
LINE
  8
0
 10
128.009
 20
45.8191
 11
127.217
 21
46.777
  0
LINE
  8
0
 10
127.217
 20
46.777
 11
126.31
 21
47.6281
  0
LINE
  8
0
 10
126.31
 20
47.6281
 11
125.305
 21
48.3588
  0
LINE
  8
0
 10
125.305
 20
48.3588
 11
124.215
 21
48.9578
  0
LINE
  8
0
 10
124.215
 20
48.9578
 11
123.059
 21
49.4155
  0
LINE
  8
0
 10
123.059
 20
49.4155
 11
121.855
 21
49.7246
  0
LINE
  8
0
 10
121.855
 20
49.7246
 11
120.622
 21
49.8805
  0
LINE
  8
0
 10
120.622
 20
49.8805
 11
119.378
 21
49.8805
  0
LINE
  8
0
 10
119.378
 20
49.8805
 11
118.145
 21
49.7246
  0
LINE
  8
0
 10
118.145
 20
49.7246
 11
116.941
 21
49.4155
  0
LINE
  8
0
 10
116.941
 20
49.4155
 11
115.785
 21
48.9578
  0
LINE
  8
0
 10
115.785
 20
48.9578
 11
114.695
 21
48.3588
  0
LINE
  8
0
 10
114.695
 20
48.3588
 11
113.689
 21
47.6281
  0
LINE
  8
0
 10
113.689
 20
47.6281
 11
112.783
 21
46.777
  0
LINE
  8
0
 10
112.783
 20
46.777
 11
111.991
 21
45.8191
  0
LINE
  8
0
 10
111.991
 20
45.8191
 11
111.325
 21
44.7693
  0
LINE
  8
0
 10
111.325
 20
44.7693
 11
110.795
 21
43.6444
  0
LINE
  8
0
 10
110.795
 20
43.6444
 11
110.411
 21
42.462
  0
LINE
  8
0
 10
110.411
 20
42.462
 11
110.178
 21
41.2408
  0
LINE
  8
0
 10
110.178
 20
41.2408
 11
110.1
 21
40
  0
LINE
  8
0
 10
110.1
 20
40
 11
9.89999
 21
40
  0
LINE
  8
0
 10
9.89999
 20
40
 11
9.82193
 21
41.2408
  0
LINE
  8
0
 10
9.82193
 20
41.2408
 11
9.58896
 21
42.462
  0
LINE
  8
0
 10
9.58896
 20
42.462
 11
9.20477
 21
43.6444
  0
LINE
  8
0
 10
9.20477
 20
43.6444
 11
8.67543
 21
44.7693
  0
LINE
  8
0
 10
8.67543
 20
44.7693
 11
8.00926
 21
45.8191
  0
LINE
  8
0
 10
8.00926
 20
45.8191
 11
7.21678
 21
46.777
  0
LINE
  8
0
 10
7.21678
 20
46.777
 11
6.31049
 21
47.6281
  0
LINE
  8
0
 10
6.31049
 20
47.6281
 11
5.30467
 21
48.3588
  0
LINE
  8
0
 10
5.30467
 20
48.3588
 11
4.21521
 21
48.9578
  0
LINE
  8
0
 10
4.21521
 20
48.9578
 11
3.05927
 21
49.4155
  0
LINE
  8
0
 10
3.05927
 20
49.4155
 11
1.85507
 21
49.7246
  0
LINE
  8
0
 10
1.85507
 20
49.7246
 11
0.621613
 21
49.8805
  0
LINE
  8
0
 10
0.621613
 20
49.8805
 11
-0.621613
 21
49.8805
  0
LINE
  8
0
 10
-0.621613
 20
49.8805
 11
-1.85507
 21
49.7246
  0
LINE
  8
0
 10
-1.85507
 20
49.7246
 11
-3.05927
 21
49.4155
  0
LINE
  8
0
 10
-3.05927
 20
49.4155
 11
-4.21521
 21
48.9578
  0
LINE
  8
0
 10
-4.21521
 20
48.9578
 11
-5.30467
 21
48.3588
  0
LINE
  8
0
 10
-5.30467
 20
48.3588
 11
-6.31049
 21
47.6281
  0
LINE
  8
0
 10
-6.31049
 20
47.6281
 11
-7.21678
 21
46.777
  0
LINE
  8
0
 10
-7.21678
 20
46.777
 11
-8.00926
 21
45.8191
  0
LINE
  8
0
 10
-8.00926
 20
45.8191
 11
-8.67543
 21
44.7693
  0
LINE
  8
0
 10
-8.67543
 20
44.7693
 11
-9.20477
 21
43.6444
  0
LINE
  8
0
 10
-9.20477
 20
43.6444
 11
-9.58896
 21
42.462
  0
LINE
  8
0
 10
-9.58896
 20
42.462
 11
-9.82193
 21
41.2408
  0
LINE
  8
0
 10
-9.82193
 20
41.2408
 11
-9.89999
 21
40
  0
LINE
  8
0
 10
-9.89999
 20
40
 11
-9.82193
 21
38.7592
  0
LINE
  8
0
 10
-9.82193
 20
38.7592
 11
-9.58896
 21
37.538
  0
LINE
  8
0
 10
-9.58896
 20
37.538
 11
-9.20477
 21
36.3556
  0
LINE
  8
0
 10
-9.20477
 20
36.3556
 11
-8.67543
 21
35.2306
  0
LINE
  8
0
 10
-8.67543
 20
35.2306
 11
-8.00926
 21
34.1809
  0
LINE
  8
0
 10
-8.00926
 20
34.1809
 11
-7.21678
 21
33.223
  0
LINE
  8
0
 10
-7.21678
 20
33.223
 11
-6.31049
 21
32.3719
  0
LINE
  8
0
 10
-6.31049
 20
32.3719
 11
-5.30467
 21
31.6411
  0
LINE
  8
0
 10
-5.30467
 20
31.6411
 11
-4.21521
 21
31.0422
  0
LINE
  8
0
 10
-4.21521
 20
31.0422
 11
-3.05927
 21
30.5845
  0
LINE
  8
0
 10
-3.05927
 20
30.5845
 11
-1.85507
 21
30.2753
  0
LINE
  8
0
 10
-1.85507
 20
30.2753
 11
-0.621613
 21
30.1195
  0
LINE
  8
0
 10
-0.621613
 20
30.1195
 11
0
 21
30.1195
  0
LINE
  8
0
 10
0
 20
30.1195
 11
0
 21
30.1
  0
LINE
  8
0
 10
0
 20
30.1
 11
3.29997
 21
30.1
  0
LINE
  8
0
 10
3.29997
 20
30.1
 11
3.29999
 21
23.3667
  0
LINE
  8
0
 10
3.29999
 20
23.3667
 11
0
 21
23.3667
  0
LINE
  8
0
 10
0
 20
23.3667
 11
0
 21
16.6333
  0
LINE
  8
0
 10
0
 20
16.6333
 11
3.29999
 21
16.6333
  0
LINE
  8
0
 10
3.29999
 20
16.6333
 11
3.29999
 21
9.90001
  0
LINE
  8
0
 10
3.29999
 20
9.90001
 11
0
 21
9.90001
  0
LINE
  8
0
 10
0
 20
9.90001
 11
0
 21
0
  0
LINE
  8
0
 10
0
 20
0
 11
9.89999
 21
0
  0
LINE
  8
0
 10
9.89999
 20
0
 11
9.89999
 21
3.29999
  0
LINE
  8
0
 10
-0.433243
 20
33.1136
 11
-1.29292
 21
33.2222
  0
LINE
  8
0
 10
-1.29292
 20
33.2222
 11
-2.1322
 21
33.4377
  0
LINE
  8
0
 10
-2.1322
 20
33.4377
 11
-2.93787
 21
33.7567
  0
LINE
  8
0
 10
-2.93787
 20
33.7567
 11
-3.6972
 21
34.1741
  0
LINE
  8
0
 10
-3.6972
 20
34.1741
 11
-4.39822
 21
34.6835
  0
LINE
  8
0
 10
-4.39822
 20
34.6835
 11
-5.02988
 21
35.2766
  0
LINE
  8
0
 10
-5.02988
 20
35.2766
 11
-5.58221
 21
35.9443
  0
LINE
  8
0
 10
-5.58221
 20
35.9443
 11
-6.04651
 21
36.6759
  0
LINE
  8
0
 10
-6.04651
 20
36.6759
 11
-6.41545
 21
37.4599
  0
LINE
  8
0
 10
-6.41545
 20
37.4599
 11
-6.68321
 21
38.284
  0
LINE
  8
0
 10
-6.68321
 20
38.284
 11
-6.84558
 21
39.1352
  0
LINE
  8
0
 10
-6.84558
 20
39.1352
 11
-6.89999
 21
40
  0
LINE
  8
0
 10
-6.89999
 20
40
 11
-6.84558
 21
40.8648
  0
LINE
  8
0
 10
-6.84558
 20
40.8648
 11
-6.68321
 21
41.716
  0
LINE
  8
0
 10
-6.68321
 20
41.716
 11
-6.41545
 21
42.5401
  0
LINE
  8
0
 10
-6.41545
 20
42.5401
 11
-6.04651
 21
43.3241
  0
LINE
  8
0
 10
-6.04651
 20
43.3241
 11
-5.58221
 21
44.0557
  0
LINE
  8
0
 10
-5.58221
 20
44.0557
 11
-5.02988
 21
44.7234
  0
LINE
  8
0
 10
-5.02988
 20
44.7234
 11
-4.39822
 21
45.3165
  0
LINE
  8
0
 10
-4.39822
 20
45.3165
 11
-3.6972
 21
45.8259
  0
LINE
  8
0
 10
-3.6972
 20
45.8259
 11
-2.93787
 21
46.2433
  0
LINE
  8
0
 10
-2.93787
 20
46.2433
 11
-2.1322
 21
46.5623
  0
LINE
  8
0
 10
-2.1322
 20
46.5623
 11
-1.29292
 21
46.7778
  0
LINE
  8
0
 10
-1.29292
 20
46.7778
 11
-0.433243
 21
46.8864
  0
LINE
  8
0
 10
-0.433243
 20
46.8864
 11
0.433243
 21
46.8864
  0
LINE
  8
0
 10
0.433243
 20
46.8864
 11
1.29292
 21
46.7778
  0
LINE
  8
0
 10
1.29292
 20
46.7778
 11
2.1322
 21
46.5623
  0
LINE
  8
0
 10
2.1322
 20
46.5623
 11
2.93787
 21
46.2433
  0
LINE
  8
0
 10
2.93787
 20
46.2433
 11
3.6972
 21
45.8259
  0
LINE
  8
0
 10
3.6972
 20
45.8259
 11
4.39822
 21
45.3165
  0
LINE
  8
0
 10
4.39822
 20
45.3165
 11
5.02988
 21
44.7234
  0
LINE
  8
0
 10
5.02988
 20
44.7234
 11
5.58221
 21
44.0557
  0
LINE
  8
0
 10
5.58221
 20
44.0557
 11
6.04651
 21
43.3241
  0
LINE
  8
0
 10
6.04651
 20
43.3241
 11
6.41545
 21
42.5401
  0
LINE
  8
0
 10
6.41545
 20
42.5401
 11
6.68321
 21
41.716
  0
LINE
  8
0
 10
6.68321
 20
41.716
 11
6.84558
 21
40.8648
  0
LINE
  8
0
 10
6.84558
 20
40.8648
 11
6.89999
 21
40
  0
LINE
  8
0
 10
6.89999
 20
40
 11
6.84558
 21
39.1352
  0
LINE
  8
0
 10
6.84558
 20
39.1352
 11
6.68321
 21
38.284
  0
LINE
  8
0
 10
6.68321
 20
38.284
 11
6.41545
 21
37.4599
  0
LINE
  8
0
 10
6.41545
 20
37.4599
 11
6.04651
 21
36.6759
  0
LINE
  8
0
 10
6.04651
 20
36.6759
 11
5.58221
 21
35.9443
  0
LINE
  8
0
 10
5.58221
 20
35.9443
 11
5.02988
 21
35.2766
  0
LINE
  8
0
 10
5.02988
 20
35.2766
 11
4.39822
 21
34.6835
  0
LINE
  8
0
 10
4.39822
 20
34.6835
 11
3.6972
 21
34.1741
  0
LINE
  8
0
 10
3.6972
 20
34.1741
 11
2.93787
 21
33.7567
  0
LINE
  8
0
 10
2.93787
 20
33.7567
 11
2.1322
 21
33.4377
  0
LINE
  8
0
 10
2.1322
 20
33.4377
 11
1.29292
 21
33.2222
  0
LINE
  8
0
 10
1.29292
 20
33.2222
 11
0.433243
 21
33.1136
  0
LINE
  8
0
 10
0.433243
 20
33.1136
 11
-0.433243
 21
33.1136
  0
LINE
  8
0
 10
3.29999
 20
43.3
 11
0
 21
43.3
  0
LINE
  8
0
 10
0
 20
43.3
 11
0
 21
40
  0
LINE
  8
0
 10
0
 20
40
 11
3.29999
 21
40
  0
LINE
  8
0
 10
3.29999
 20
40
 11
3.29999
 21
43.3
  0
LINE
  8
0
 10
119.567
 20
33.1136
 11
118.707
 21
33.2222
  0
LINE
  8
0
 10
118.707
 20
33.2222
 11
117.868
 21
33.4377
  0
LINE
  8
0
 10
117.868
 20
33.4377
 11
117.062
 21
33.7567
  0
LINE
  8
0
 10
117.062
 20
33.7567
 11
116.303
 21
34.1741
  0
LINE
  8
0
 10
116.303
 20
34.1741
 11
115.602
 21
34.6835
  0
LINE
  8
0
 10
115.602
 20
34.6835
 11
114.97
 21
35.2766
  0
LINE
  8
0
 10
114.97
 20
35.2766
 11
114.418
 21
35.9443
  0
LINE
  8
0
 10
114.418
 20
35.9443
 11
113.953
 21
36.6759
  0
LINE
  8
0
 10
113.953
 20
36.6759
 11
113.585
 21
37.4599
  0
LINE
  8
0
 10
113.585
 20
37.4599
 11
113.317
 21
38.284
  0
LINE
  8
0
 10
113.317
 20
38.284
 11
113.154
 21
39.1352
  0
LINE
  8
0
 10
113.154
 20
39.1352
 11
113.1
 21
40
  0
LINE
  8
0
 10
113.1
 20
40
 11
113.154
 21
40.8648
  0
LINE
  8
0
 10
113.154
 20
40.8648
 11
113.317
 21
41.716
  0
LINE
  8
0
 10
113.317
 20
41.716
 11
113.585
 21
42.5401
  0
LINE
  8
0
 10
113.585
 20
42.5401
 11
113.953
 21
43.3241
  0
LINE
  8
0
 10
113.953
 20
43.3241
 11
114.418
 21
44.0557
  0
LINE
  8
0
 10
114.418
 20
44.0557
 11
114.97
 21
44.7234
  0
LINE
  8
0
 10
114.97
 20
44.7234
 11
115.602
 21
45.3165
  0
LINE
  8
0
 10
115.602
 20
45.3165
 11
116.303
 21
45.8259
  0
LINE
  8
0
 10
116.303
 20
45.8259
 11
117.062
 21
46.2433
  0
LINE
  8
0
 10
117.062
 20
46.2433
 11
117.868
 21
46.5623
  0
LINE
  8
0
 10
117.868
 20
46.5623
 11
118.707
 21
46.7778
  0
LINE
  8
0
 10
118.707
 20
46.7778
 11
119.567
 21
46.8864
  0
LINE
  8
0
 10
119.567
 20
46.8864
 11
120.433
 21
46.8864
  0
LINE
  8
0
 10
120.433
 20
46.8864
 11
121.293
 21
46.7778
  0
LINE
  8
0
 10
121.293
 20
46.7778
 11
122.132
 21
46.5623
  0
LINE
  8
0
 10
122.132
 20
46.5623
 11
122.938
 21
46.2433
  0
LINE
  8
0
 10
122.938
 20
46.2433
 11
123.697
 21
45.8259
  0
LINE
  8
0
 10
123.697
 20
45.8259
 11
124.398
 21
45.3165
  0
LINE
  8
0
 10
124.398
 20
45.3165
 11
125.03
 21
44.7234
  0
LINE
  8
0
 10
125.03
 20
44.7234
 11
125.582
 21
44.0557
  0
LINE
  8
0
 10
125.582
 20
44.0557
 11
126.047
 21
43.3241
  0
LINE
  8
0
 10
126.047
 20
43.3241
 11
126.415
 21
42.5401
  0
LINE
  8
0
 10
126.415
 20
42.5401
 11
126.683
 21
41.716
  0
LINE
  8
0
 10
126.683
 20
41.716
 11
126.846
 21
40.8648
  0
LINE
  8
0
 10
126.846
 20
40.8648
 11
126.9
 21
40
  0
LINE
  8
0
 10
126.9
 20
40
 11
126.846
 21
39.1352
  0
LINE
  8
0
 10
126.846
 20
39.1352
 11
126.683
 21
38.284
  0
LINE
  8
0
 10
126.683
 20
38.284
 11
126.415
 21
37.4599
  0
LINE
  8
0
 10
126.415
 20
37.4599
 11
126.047
 21
36.6759
  0
LINE
  8
0
 10
126.047
 20
36.6759
 11
125.582
 21
35.9443
  0
LINE
  8
0
 10
125.582
 20
35.9443
 11
125.03
 21
35.2766
  0
LINE
  8
0
 10
125.03
 20
35.2766
 11
124.398
 21
34.6835
  0
LINE
  8
0
 10
124.398
 20
34.6835
 11
123.697
 21
34.1741
  0
LINE
  8
0
 10
123.697
 20
34.1741
 11
122.938
 21
33.7567
  0
LINE
  8
0
 10
122.938
 20
33.7567
 11
122.132
 21
33.4377
  0
LINE
  8
0
 10
122.132
 20
33.4377
 11
121.293
 21
33.2222
  0
LINE
  8
0
 10
121.293
 20
33.2222
 11
120.433
 21
33.1136
  0
LINE
  8
0
 10
120.433
 20
33.1136
 11
119.567
 21
33.1136
  0
LINE
  8
0
 10
123.3
 20
43.3
 11
120
 21
43.3
  0
LINE
  8
0
 10
120
 20
43.3
 11
120
 21
40
  0
LINE
  8
0
 10
120
 20
40
 11
123.3
 21
40
  0
LINE
  8
0
 10
123.3
 20
40
 11
123.3
 21
43.3
  0
LINE
  8
0
 10
58.35
 20
16.5
 11
58.35
 21
30.1
  0
LINE
  8
0
 10
58.35
 20
30.1
 11
61.66
 21
30.1
  0
LINE
  8
0
 10
61.66
 20
30.1
 11
61.66
 21
16.5
  0
LINE
  8
0
 10
61.66
 20
16.5
 11
58.35
 21
16.5
  0
LINE
  8
0
 10
149.71
 20
3.29999
 11
156.39
 21
3.29999
  0
LINE
  8
0
 10
156.39
 20
3.29999
 11
156.39
 21
0
  0
LINE
  8
0
 10
156.39
 20
0
 11
163.07
 21
0
  0
LINE
  8
0
 10
163.07
 20
0
 11
163.07
 21
3.29999
  0
LINE
  8
0
 10
163.07
 20
3.29999
 11
169.75
 21
3.29999
  0
LINE
  8
0
 10
169.75
 20
3.29999
 11
169.75
 21
0
  0
LINE
  8
0
 10
169.75
 20
0
 11
176.43
 21
0
  0
LINE
  8
0
 10
176.43
 20
0
 11
176.43
 21
3.29999
  0
LINE
  8
0
 10
176.43
 20
3.29999
 11
183.11
 21
3.29999
  0
LINE
  8
0
 10
183.11
 20
3.29999
 11
183.11
 21
0
  0
LINE
  8
0
 10
183.11
 20
0
 11
189.79
 21
0
  0
LINE
  8
0
 10
189.79
 20
0
 11
189.79
 21
3.29999
  0
LINE
  8
0
 10
189.79
 20
3.29999
 11
196.47
 21
3.29999
  0
LINE
  8
0
 10
196.47
 20
3.29999
 11
196.47
 21
0
  0
LINE
  8
0
 10
196.47
 20
0
 11
203.15
 21
0
  0
LINE
  8
0
 10
203.15
 20
0
 11
203.15
 21
3.29999
  0
LINE
  8
0
 10
203.15
 20
3.29999
 11
209.83
 21
3.29999
  0
LINE
  8
0
 10
209.83
 20
3.29999
 11
209.83
 21
0
  0
LINE
  8
0
 10
209.83
 20
0
 11
216.51
 21
0
  0
LINE
  8
0
 10
216.51
 20
0
 11
216.51
 21
3.29999
  0
LINE
  8
0
 10
216.51
 20
3.29999
 11
223.19
 21
3.29999
  0
LINE
  8
0
 10
223.19
 20
3.29999
 11
223.19
 21
0
  0
LINE
  8
0
 10
223.19
 20
0
 11
229.87
 21
0
  0
LINE
  8
0
 10
229.87
 20
0
 11
229.87
 21
3.29999
  0
LINE
  8
0
 10
229.87
 20
3.29999
 11
236.55
 21
3.29999
  0
LINE
  8
0
 10
236.55
 20
3.29999
 11
236.55
 21
0
  0
LINE
  8
0
 10
236.55
 20
0
 11
243.23
 21
0
  0
LINE
  8
0
 10
243.23
 20
0
 11
243.23
 21
3.29999
  0
LINE
  8
0
 10
243.23
 20
3.29999
 11
249.91
 21
3.29999
  0
LINE
  8
0
 10
249.91
 20
3.29999
 11
249.91
 21
0
  0
LINE
  8
0
 10
249.91
 20
0
 11
259.81
 21
0
  0
LINE
  8
0
 10
259.81
 20
0
 11
259.81
 21
9.89999
  0
LINE
  8
0
 10
259.81
 20
9.89999
 11
256.51
 21
9.89999
  0
LINE
  8
0
 10
256.51
 20
9.89999
 11
256.51
 21
16.6333
  0
LINE
  8
0
 10
256.51
 20
16.6333
 11
259.81
 21
16.6333
  0
LINE
  8
0
 10
259.81
 20
16.6333
 11
259.81
 21
23.3667
  0
LINE
  8
0
 10
259.81
 20
23.3667
 11
256.51
 21
23.3667
  0
LINE
  8
0
 10
256.51
 20
23.3667
 11
256.51
 21
30.1
  0
LINE
  8
0
 10
256.51
 20
30.1
 11
259.81
 21
30.1
  0
LINE
  8
0
 10
259.81
 20
30.1
 11
259.81
 21
30.1195
  0
LINE
  8
0
 10
259.81
 20
30.1195
 11
260.432
 21
30.1195
  0
LINE
  8
0
 10
260.432
 20
30.1195
 11
261.665
 21
30.2753
  0
LINE
  8
0
 10
261.665
 20
30.2753
 11
262.869
 21
30.5845
  0
LINE
  8
0
 10
262.869
 20
30.5845
 11
264.025
 21
31.0422
  0
LINE
  8
0
 10
264.025
 20
31.0422
 11
265.115
 21
31.6411
  0
LINE
  8
0
 10
265.115
 20
31.6411
 11
266.12
 21
32.3719
  0
LINE
  8
0
 10
266.12
 20
32.3719
 11
267.027
 21
33.223
  0
LINE
  8
0
 10
267.027
 20
33.223
 11
267.819
 21
34.1809
  0
LINE
  8
0
 10
267.819
 20
34.1809
 11
268.485
 21
35.2306
  0
LINE
  8
0
 10
268.485
 20
35.2306
 11
269.015
 21
36.3556
  0
LINE
  8
0
 10
269.015
 20
36.3556
 11
269.399
 21
37.538
  0
LINE
  8
0
 10
269.399
 20
37.538
 11
269.632
 21
38.7592
  0
LINE
  8
0
 10
269.632
 20
38.7592
 11
269.71
 21
40
  0
LINE
  8
0
 10
269.71
 20
40
 11
269.632
 21
41.2408
  0
LINE
  8
0
 10
269.632
 20
41.2408
 11
269.399
 21
42.462
  0
LINE
  8
0
 10
269.399
 20
42.462
 11
269.015
 21
43.6444
  0
LINE
  8
0
 10
269.015
 20
43.6444
 11
268.485
 21
44.7693
  0
LINE
  8
0
 10
268.485
 20
44.7693
 11
267.819
 21
45.8191
  0
LINE
  8
0
 10
267.819
 20
45.8191
 11
267.027
 21
46.777
  0
LINE
  8
0
 10
267.027
 20
46.777
 11
266.12
 21
47.6281
  0
LINE
  8
0
 10
266.12
 20
47.6281
 11
265.115
 21
48.3588
  0
LINE
  8
0
 10
265.115
 20
48.3588
 11
264.025
 21
48.9578
  0
LINE
  8
0
 10
264.025
 20
48.9578
 11
262.869
 21
49.4155
  0
LINE
  8
0
 10
262.869
 20
49.4155
 11
261.665
 21
49.7246
  0
LINE
  8
0
 10
261.665
 20
49.7246
 11
260.432
 21
49.8805
  0
LINE
  8
0
 10
260.432
 20
49.8805
 11
259.188
 21
49.8805
  0
LINE
  8
0
 10
259.188
 20
49.8805
 11
257.955
 21
49.7246
  0
LINE
  8
0
 10
257.955
 20
49.7246
 11
256.751
 21
49.4155
  0
LINE
  8
0
 10
256.751
 20
49.4155
 11
255.595
 21
48.9578
  0
LINE
  8
0
 10
255.595
 20
48.9578
 11
254.505
 21
48.3588
  0
LINE
  8
0
 10
254.505
 20
48.3588
 11
253.499
 21
47.6281
  0
LINE
  8
0
 10
253.499
 20
47.6281
 11
252.593
 21
46.777
  0
LINE
  8
0
 10
252.593
 20
46.777
 11
251.801
 21
45.8191
  0
LINE
  8
0
 10
251.801
 20
45.8191
 11
251.135
 21
44.7693
  0
LINE
  8
0
 10
251.135
 20
44.7693
 11
250.605
 21
43.6444
  0
LINE
  8
0
 10
250.605
 20
43.6444
 11
250.221
 21
42.462
  0
LINE
  8
0
 10
250.221
 20
42.462
 11
249.988
 21
41.2408
  0
LINE
  8
0
 10
249.988
 20
41.2408
 11
249.91
 21
40
  0
LINE
  8
0
 10
249.91
 20
40
 11
149.71
 21
40
  0
LINE
  8
0
 10
149.71
 20
40
 11
149.632
 21
41.2408
  0
LINE
  8
0
 10
149.632
 20
41.2408
 11
149.399
 21
42.462
  0
LINE
  8
0
 10
149.399
 20
42.462
 11
149.015
 21
43.6444
  0
LINE
  8
0
 10
149.015
 20
43.6444
 11
148.485
 21
44.7693
  0
LINE
  8
0
 10
148.485
 20
44.7693
 11
147.819
 21
45.8191
  0
LINE
  8
0
 10
147.819
 20
45.8191
 11
147.027
 21
46.777
  0
LINE
  8
0
 10
147.027
 20
46.777
 11
146.12
 21
47.6281
  0
LINE
  8
0
 10
146.12
 20
47.6281
 11
145.115
 21
48.3588
  0
LINE
  8
0
 10
145.115
 20
48.3588
 11
144.025
 21
48.9578
  0
LINE
  8
0
 10
144.025
 20
48.9578
 11
142.869
 21
49.4155
  0
LINE
  8
0
 10
142.869
 20
49.4155
 11
141.665
 21
49.7246
  0
LINE
  8
0
 10
141.665
 20
49.7246
 11
140.432
 21
49.8805
  0
LINE
  8
0
 10
140.432
 20
49.8805
 11
139.188
 21
49.8805
  0
LINE
  8
0
 10
139.188
 20
49.8805
 11
137.955
 21
49.7246
  0
LINE
  8
0
 10
137.955
 20
49.7246
 11
136.751
 21
49.4155
  0
LINE
  8
0
 10
136.751
 20
49.4155
 11
135.595
 21
48.9578
  0
LINE
  8
0
 10
135.595
 20
48.9578
 11
134.505
 21
48.3588
  0
LINE
  8
0
 10
134.505
 20
48.3588
 11
133.5
 21
47.6281
  0
LINE
  8
0
 10
133.5
 20
47.6281
 11
132.593
 21
46.777
  0
LINE
  8
0
 10
132.593
 20
46.777
 11
131.801
 21
45.8191
  0
LINE
  8
0
 10
131.801
 20
45.8191
 11
131.135
 21
44.7693
  0
LINE
  8
0
 10
131.135
 20
44.7693
 11
130.605
 21
43.6444
  0
LINE
  8
0
 10
130.605
 20
43.6444
 11
130.221
 21
42.462
  0
LINE
  8
0
 10
130.221
 20
42.462
 11
129.988
 21
41.2408
  0
LINE
  8
0
 10
129.988
 20
41.2408
 11
129.91
 21
40
  0
LINE
  8
0
 10
129.91
 20
40
 11
129.988
 21
38.7592
  0
LINE
  8
0
 10
129.988
 20
38.7592
 11
130.221
 21
37.538
  0
LINE
  8
0
 10
130.221
 20
37.538
 11
130.605
 21
36.3556
  0
LINE
  8
0
 10
130.605
 20
36.3556
 11
131.135
 21
35.2306
  0
LINE
  8
0
 10
131.135
 20
35.2306
 11
131.801
 21
34.1809
  0
LINE
  8
0
 10
131.801
 20
34.1809
 11
132.593
 21
33.223
  0
LINE
  8
0
 10
132.593
 20
33.223
 11
133.5
 21
32.3719
  0
LINE
  8
0
 10
133.5
 20
32.3719
 11
134.505
 21
31.6411
  0
LINE
  8
0
 10
134.505
 20
31.6411
 11
135.595
 21
31.0422
  0
LINE
  8
0
 10
135.595
 20
31.0422
 11
136.751
 21
30.5845
  0
LINE
  8
0
 10
136.751
 20
30.5845
 11
137.955
 21
30.2753
  0
LINE
  8
0
 10
137.955
 20
30.2753
 11
139.188
 21
30.1195
  0
LINE
  8
0
 10
139.188
 20
30.1195
 11
139.81
 21
30.1195
  0
LINE
  8
0
 10
139.81
 20
30.1195
 11
139.81
 21
30.1
  0
LINE
  8
0
 10
139.81
 20
30.1
 11
143.11
 21
30.1
  0
LINE
  8
0
 10
143.11
 20
30.1
 11
143.11
 21
23.3667
  0
LINE
  8
0
 10
143.11
 20
23.3667
 11
139.81
 21
23.3667
  0
LINE
  8
0
 10
139.81
 20
23.3667
 11
139.81
 21
16.6333
  0
LINE
  8
0
 10
139.81
 20
16.6333
 11
143.11
 21
16.6333
  0
LINE
  8
0
 10
143.11
 20
16.6333
 11
143.11
 21
9.90001
  0
LINE
  8
0
 10
143.11
 20
9.90001
 11
139.81
 21
9.90001
  0
LINE
  8
0
 10
139.81
 20
9.90001
 11
139.81
 21
0
  0
LINE
  8
0
 10
139.81
 20
0
 11
149.71
 21
0
  0
LINE
  8
0
 10
149.71
 20
0
 11
149.71
 21
3.29999
  0
LINE
  8
0
 10
139.377
 20
33.1136
 11
138.517
 21
33.2222
  0
LINE
  8
0
 10
138.517
 20
33.2222
 11
137.678
 21
33.4377
  0
LINE
  8
0
 10
137.678
 20
33.4377
 11
136.872
 21
33.7567
  0
LINE
  8
0
 10
136.872
 20
33.7567
 11
136.113
 21
34.1741
  0
LINE
  8
0
 10
136.113
 20
34.1741
 11
135.412
 21
34.6835
  0
LINE
  8
0
 10
135.412
 20
34.6835
 11
134.78
 21
35.2766
  0
LINE
  8
0
 10
134.78
 20
35.2766
 11
134.228
 21
35.9443
  0
LINE
  8
0
 10
134.228
 20
35.9443
 11
133.763
 21
36.6759
  0
LINE
  8
0
 10
133.763
 20
36.6759
 11
133.395
 21
37.4599
  0
LINE
  8
0
 10
133.395
 20
37.4599
 11
133.127
 21
38.284
  0
LINE
  8
0
 10
133.127
 20
38.284
 11
132.964
 21
39.1352
  0
LINE
  8
0
 10
132.964
 20
39.1352
 11
132.91
 21
40
  0
LINE
  8
0
 10
132.91
 20
40
 11
132.964
 21
40.8648
  0
LINE
  8
0
 10
132.964
 20
40.8648
 11
133.127
 21
41.716
  0
LINE
  8
0
 10
133.127
 20
41.716
 11
133.395
 21
42.5401
  0
LINE
  8
0
 10
133.395
 20
42.5401
 11
133.763
 21
43.3241
  0
LINE
  8
0
 10
133.763
 20
43.3241
 11
134.228
 21
44.0557
  0
LINE
  8
0
 10
134.228
 20
44.0557
 11
134.78
 21
44.7234
  0
LINE
  8
0
 10
134.78
 20
44.7234
 11
135.412
 21
45.3165
  0
LINE
  8
0
 10
135.412
 20
45.3165
 11
136.113
 21
45.8259
  0
LINE
  8
0
 10
136.113
 20
45.8259
 11
136.872
 21
46.2433
  0
LINE
  8
0
 10
136.872
 20
46.2433
 11
137.678
 21
46.5623
  0
LINE
  8
0
 10
137.678
 20
46.5623
 11
138.517
 21
46.7778
  0
LINE
  8
0
 10
138.517
 20
46.7778
 11
139.377
 21
46.8864
  0
LINE
  8
0
 10
139.377
 20
46.8864
 11
140.243
 21
46.8864
  0
LINE
  8
0
 10
140.243
 20
46.8864
 11
141.103
 21
46.7778
  0
LINE
  8
0
 10
141.103
 20
46.7778
 11
141.942
 21
46.5623
  0
LINE
  8
0
 10
141.942
 20
46.5623
 11
142.748
 21
46.2433
  0
LINE
  8
0
 10
142.748
 20
46.2433
 11
143.507
 21
45.8259
  0
LINE
  8
0
 10
143.507
 20
45.8259
 11
144.208
 21
45.3165
  0
LINE
  8
0
 10
144.208
 20
45.3165
 11
144.84
 21
44.7234
  0
LINE
  8
0
 10
144.84
 20
44.7234
 11
145.392
 21
44.0557
  0
LINE
  8
0
 10
145.392
 20
44.0557
 11
145.857
 21
43.3241
  0
LINE
  8
0
 10
145.857
 20
43.3241
 11
146.225
 21
42.5401
  0
LINE
  8
0
 10
146.225
 20
42.5401
 11
146.493
 21
41.716
  0
LINE
  8
0
 10
146.493
 20
41.716
 11
146.656
 21
40.8648
  0
LINE
  8
0
 10
146.656
 20
40.8648
 11
146.71
 21
40
  0
LINE
  8
0
 10
146.71
 20
40
 11
146.656
 21
39.1352
  0
LINE
  8
0
 10
146.656
 20
39.1352
 11
146.493
 21
38.284
  0
LINE
  8
0
 10
146.493
 20
38.284
 11
146.225
 21
37.4599
  0
LINE
  8
0
 10
146.225
 20
37.4599
 11
145.857
 21
36.6759
  0
LINE
  8
0
 10
145.857
 20
36.6759
 11
145.392
 21
35.9443
  0
LINE
  8
0
 10
145.392
 20
35.9443
 11
144.84
 21
35.2766
  0
LINE
  8
0
 10
144.84
 20
35.2766
 11
144.208
 21
34.6835
  0
LINE
  8
0
 10
144.208
 20
34.6835
 11
143.507
 21
34.1741
  0
LINE
  8
0
 10
143.507
 20
34.1741
 11
142.748
 21
33.7567
  0
LINE
  8
0
 10
142.748
 20
33.7567
 11
141.942
 21
33.4377
  0
LINE
  8
0
 10
141.942
 20
33.4377
 11
141.103
 21
33.2222
  0
LINE
  8
0
 10
141.103
 20
33.2222
 11
140.243
 21
33.1136
  0
LINE
  8
0
 10
140.243
 20
33.1136
 11
139.377
 21
33.1136
  0
LINE
  8
0
 10
143.11
 20
43.3
 11
139.81
 21
43.3
  0
LINE
  8
0
 10
139.81
 20
43.3
 11
139.81
 21
40
  0
LINE
  8
0
 10
139.81
 20
40
 11
143.11
 21
40
  0
LINE
  8
0
 10
143.11
 20
40
 11
143.11
 21
43.3
  0
LINE
  8
0
 10
259.377
 20
33.1136
 11
258.517
 21
33.2222
  0
LINE
  8
0
 10
258.517
 20
33.2222
 11
257.678
 21
33.4377
  0
LINE
  8
0
 10
257.678
 20
33.4377
 11
256.872
 21
33.7567
  0
LINE
  8
0
 10
256.872
 20
33.7567
 11
256.113
 21
34.1741
  0
LINE
  8
0
 10
256.113
 20
34.1741
 11
255.412
 21
34.6835
  0
LINE
  8
0
 10
255.412
 20
34.6835
 11
254.78
 21
35.2766
  0
LINE
  8
0
 10
254.78
 20
35.2766
 11
254.228
 21
35.9443
  0
LINE
  8
0
 10
254.228
 20
35.9443
 11
253.763
 21
36.6759
  0
LINE
  8
0
 10
253.763
 20
36.6759
 11
253.395
 21
37.4599
  0
LINE
  8
0
 10
253.395
 20
37.4599
 11
253.127
 21
38.284
  0
LINE
  8
0
 10
253.127
 20
38.284
 11
252.964
 21
39.1352
  0
LINE
  8
0
 10
252.964
 20
39.1352
 11
252.91
 21
40
  0
LINE
  8
0
 10
252.91
 20
40
 11
252.964
 21
40.8648
  0
LINE
  8
0
 10
252.964
 20
40.8648
 11
253.127
 21
41.716
  0
LINE
  8
0
 10
253.127
 20
41.716
 11
253.395
 21
42.5401
  0
LINE
  8
0
 10
253.395
 20
42.5401
 11
253.763
 21
43.3241
  0
LINE
  8
0
 10
253.763
 20
43.3241
 11
254.228
 21
44.0557
  0
LINE
  8
0
 10
254.228
 20
44.0557
 11
254.78
 21
44.7234
  0
LINE
  8
0
 10
254.78
 20
44.7234
 11
255.412
 21
45.3165
  0
LINE
  8
0
 10
255.412
 20
45.3165
 11
256.113
 21
45.8259
  0
LINE
  8
0
 10
256.113
 20
45.8259
 11
256.872
 21
46.2433
  0
LINE
  8
0
 10
256.872
 20
46.2433
 11
257.678
 21
46.5623
  0
LINE
  8
0
 10
257.678
 20
46.5623
 11
258.517
 21
46.7778
  0
LINE
  8
0
 10
258.517
 20
46.7778
 11
259.377
 21
46.8864
  0
LINE
  8
0
 10
259.377
 20
46.8864
 11
260.243
 21
46.8864
  0
LINE
  8
0
 10
260.243
 20
46.8864
 11
261.103
 21
46.7778
  0
LINE
  8
0
 10
261.103
 20
46.7778
 11
261.942
 21
46.5623
  0
LINE
  8
0
 10
261.942
 20
46.5623
 11
262.748
 21
46.2433
  0
LINE
  8
0
 10
262.748
 20
46.2433
 11
263.507
 21
45.8259
  0
LINE
  8
0
 10
263.507
 20
45.8259
 11
264.208
 21
45.3165
  0
LINE
  8
0
 10
264.208
 20
45.3165
 11
264.84
 21
44.7234
  0
LINE
  8
0
 10
264.84
 20
44.7234
 11
265.392
 21
44.0557
  0
LINE
  8
0
 10
265.392
 20
44.0557
 11
265.857
 21
43.3241
  0
LINE
  8
0
 10
265.857
 20
43.3241
 11
266.225
 21
42.5401
  0
LINE
  8
0
 10
266.225
 20
42.5401
 11
266.493
 21
41.716
  0
LINE
  8
0
 10
266.493
 20
41.716
 11
266.656
 21
40.8648
  0
LINE
  8
0
 10
266.656
 20
40.8648
 11
266.71
 21
40
  0
LINE
  8
0
 10
266.71
 20
40
 11
266.656
 21
39.1352
  0
LINE
  8
0
 10
266.656
 20
39.1352
 11
266.493
 21
38.284
  0
LINE
  8
0
 10
266.493
 20
38.284
 11
266.225
 21
37.4599
  0
LINE
  8
0
 10
266.225
 20
37.4599
 11
265.857
 21
36.6759
  0
LINE
  8
0
 10
265.857
 20
36.6759
 11
265.392
 21
35.9443
  0
LINE
  8
0
 10
265.392
 20
35.9443
 11
264.84
 21
35.2766
  0
LINE
  8
0
 10
264.84
 20
35.2766
 11
264.208
 21
34.6835
  0
LINE
  8
0
 10
264.208
 20
34.6835
 11
263.507
 21
34.1741
  0
LINE
  8
0
 10
263.507
 20
34.1741
 11
262.748
 21
33.7567
  0
LINE
  8
0
 10
262.748
 20
33.7567
 11
261.942
 21
33.4377
  0
LINE
  8
0
 10
261.942
 20
33.4377
 11
261.103
 21
33.2222
  0
LINE
  8
0
 10
261.103
 20
33.2222
 11
260.243
 21
33.1136
  0
LINE
  8
0
 10
260.243
 20
33.1136
 11
259.377
 21
33.1136
  0
LINE
  8
0
 10
263.11
 20
43.3
 11
259.81
 21
43.3
  0
LINE
  8
0
 10
259.81
 20
43.3
 11
259.81
 21
40
  0
LINE
  8
0
 10
259.81
 20
40
 11
263.11
 21
40
  0
LINE
  8
0
 10
263.11
 20
40
 11
263.11
 21
43.3
  0
LINE
  8
0
 10
198.16
 20
16.5
 11
198.16
 21
30.1
  0
LINE
  8
0
 10
198.16
 20
30.1
 11
201.47
 21
30.1
  0
LINE
  8
0
 10
201.47
 20
30.1
 11
201.47
 21
16.5
  0
LINE
  8
0
 10
201.47
 20
16.5
 11
198.16
 21
16.5
  0
LINE
  8
0
 10
432.93
 20
3.29999
 11
440.201
 21
3.29999
  0
LINE
  8
0
 10
440.201
 20
3.29999
 11
440.201
 21
0
  0
LINE
  8
0
 10
440.201
 20
0
 11
447.471
 21
0
  0
LINE
  8
0
 10
447.471
 20
0
 11
447.471
 21
3.29999
  0
LINE
  8
0
 10
447.471
 20
3.29999
 11
454.742
 21
3.29999
  0
LINE
  8
0
 10
454.742
 20
3.29999
 11
454.742
 21
0
  0
LINE
  8
0
 10
454.742
 20
0
 11
462.012
 21
0
  0
LINE
  8
0
 10
462.012
 20
0
 11
462.012
 21
3.29999
  0
LINE
  8
0
 10
462.012
 20
3.29999
 11
469.283
 21
3.29999
  0
LINE
  8
0
 10
469.283
 20
3.29999
 11
469.283
 21
0
  0
LINE
  8
0
 10
469.283
 20
0
 11
476.554
 21
0
  0
LINE
  8
0
 10
476.554
 20
0
 11
476.554
 21
3.29999
  0
LINE
  8
0
 10
476.554
 20
3.29999
 11
483.824
 21
3.29999
  0
LINE
  8
0
 10
483.824
 20
3.29999
 11
483.824
 21
0
  0
LINE
  8
0
 10
483.824
 20
0
 11
491.095
 21
0
  0
LINE
  8
0
 10
491.095
 20
0
 11
491.095
 21
3.29999
  0
LINE
  8
0
 10
491.095
 20
3.29999
 11
498.365
 21
3.29999
  0
LINE
  8
0
 10
498.365
 20
3.29999
 11
498.365
 21
0
  0
LINE
  8
0
 10
498.365
 20
0
 11
505.636
 21
0
  0
LINE
  8
0
 10
505.636
 20
0
 11
505.636
 21
3.29999
  0
LINE
  8
0
 10
505.636
 20
3.29999
 11
512.906
 21
3.29999
  0
LINE
  8
0
 10
512.906
 20
3.29999
 11
512.906
 21
0
  0
LINE
  8
0
 10
512.906
 20
0
 11
520.177
 21
0
  0
LINE
  8
0
 10
520.177
 20
0
 11
520.177
 21
3.29999
  0
LINE
  8
0
 10
520.177
 20
3.29999
 11
527.448
 21
3.29999
  0
LINE
  8
0
 10
527.448
 20
3.29999
 11
527.448
 21
0
  0
LINE
  8
0
 10
527.448
 20
0
 11
534.718
 21
0
  0
LINE
  8
0
 10
534.718
 20
0
 11
534.718
 21
3.29999
  0
LINE
  8
0
 10
534.718
 20
3.29999
 11
541.989
 21
3.29999
  0
LINE
  8
0
 10
541.989
 20
3.29999
 11
541.989
 21
0
  0
LINE
  8
0
 10
541.989
 20
0
 11
549.259
 21
0
  0
LINE
  8
0
 10
549.259
 20
0
 11
549.259
 21
3.29999
  0
LINE
  8
0
 10
549.259
 20
3.29999
 11
556.53
 21
3.29999
  0
LINE
  8
0
 10
556.53
 20
3.29999
 11
556.53
 21
0
  0
LINE
  8
0
 10
556.53
 20
0
 11
566.43
 21
0
  0
LINE
  8
0
 10
566.43
 20
0
 11
566.43
 21
9.89999
  0
LINE
  8
0
 10
566.43
 20
9.89999
 11
569.73
 21
9.89999
  0
LINE
  8
0
 10
569.73
 20
9.89999
 11
569.73
 21
16.6333
  0
LINE
  8
0
 10
569.73
 20
16.6333
 11
566.43
 21
16.6333
  0
LINE
  8
0
 10
566.43
 20
16.6333
 11
566.43
 21
23.3667
  0
LINE
  8
0
 10
566.43
 20
23.3667
 11
569.73
 21
23.3667
  0
LINE
  8
0
 10
569.73
 20
23.3667
 11
569.73
 21
30.1
  0
LINE
  8
0
 10
569.73
 20
30.1
 11
566.43
 21
30.1
  0
LINE
  8
0
 10
566.43
 20
30.1
 11
566.43
 21
40
  0
LINE
  8
0
 10
566.43
 20
40
 11
423.03
 21
40
  0
LINE
  8
0
 10
423.03
 20
40
 11
423.03
 21
30.1
  0
LINE
  8
0
 10
423.03
 20
30.1
 11
419.73
 21
30.1
  0
LINE
  8
0
 10
419.73
 20
30.1
 11
419.73
 21
23.3667
  0
LINE
  8
0
 10
419.73
 20
23.3667
 11
423.03
 21
23.3667
  0
LINE
  8
0
 10
423.03
 20
23.3667
 11
423.03
 21
16.6333
  0
LINE
  8
0
 10
423.03
 20
16.6333
 11
419.73
 21
16.6333
  0
LINE
  8
0
 10
419.73
 20
16.6333
 11
419.73
 21
9.90001
  0
LINE
  8
0
 10
419.73
 20
9.90001
 11
423.03
 21
9.90001
  0
LINE
  8
0
 10
423.03
 20
9.90001
 11
423.03
 21
0
  0
LINE
  8
0
 10
423.03
 20
0
 11
432.93
 21
0
  0
LINE
  8
0
 10
432.93
 20
0
 11
432.93
 21
3.29999
  0
LINE
  8
0
 10
282.92
 20
3.29999
 11
290.191
 21
3.29999
  0
LINE
  8
0
 10
290.191
 20
3.29999
 11
290.191
 21
0
  0
LINE
  8
0
 10
290.191
 20
0
 11
297.461
 21
0
  0
LINE
  8
0
 10
297.461
 20
0
 11
297.461
 21
3.29999
  0
LINE
  8
0
 10
297.461
 20
3.29999
 11
304.732
 21
3.29999
  0
LINE
  8
0
 10
304.732
 20
3.29999
 11
304.732
 21
0
  0
LINE
  8
0
 10
304.732
 20
0
 11
312.002
 21
0
  0
LINE
  8
0
 10
312.002
 20
0
 11
312.002
 21
3.29999
  0
LINE
  8
0
 10
312.002
 20
3.29999
 11
319.273
 21
3.29999
  0
LINE
  8
0
 10
319.273
 20
3.29999
 11
319.273
 21
0
  0
LINE
  8
0
 10
319.273
 20
0
 11
326.544
 21
0
  0
LINE
  8
0
 10
326.544
 20
0
 11
326.544
 21
3.29999
  0
LINE
  8
0
 10
326.544
 20
3.29999
 11
333.814
 21
3.29999
  0
LINE
  8
0
 10
333.814
 20
3.29999
 11
333.814
 21
0
  0
LINE
  8
0
 10
333.814
 20
0
 11
341.085
 21
0
  0
LINE
  8
0
 10
341.085
 20
0
 11
341.085
 21
3.29999
  0
LINE
  8
0
 10
341.085
 20
3.29999
 11
348.355
 21
3.29999
  0
LINE
  8
0
 10
348.355
 20
3.29999
 11
348.355
 21
0
  0
LINE
  8
0
 10
348.355
 20
0
 11
355.626
 21
0
  0
LINE
  8
0
 10
355.626
 20
0
 11
355.626
 21
3.29999
  0
LINE
  8
0
 10
355.626
 20
3.29999
 11
362.896
 21
3.29999
  0
LINE
  8
0
 10
362.896
 20
3.29999
 11
362.896
 21
0
  0
LINE
  8
0
 10
362.896
 20
0
 11
370.167
 21
0
  0
LINE
  8
0
 10
370.167
 20
0
 11
370.167
 21
3.29999
  0
LINE
  8
0
 10
370.167
 20
3.29999
 11
377.438
 21
3.29999
  0
LINE
  8
0
 10
377.438
 20
3.29999
 11
377.438
 21
0
  0
LINE
  8
0
 10
377.438
 20
0
 11
384.708
 21
0
  0
LINE
  8
0
 10
384.708
 20
0
 11
384.708
 21
3.29999
  0
LINE
  8
0
 10
384.708
 20
3.29999
 11
391.979
 21
3.29999
  0
LINE
  8
0
 10
391.979
 20
3.29999
 11
391.979
 21
0
  0
LINE
  8
0
 10
391.979
 20
0
 11
399.249
 21
0
  0
LINE
  8
0
 10
399.249
 20
0
 11
399.249
 21
3.29999
  0
LINE
  8
0
 10
399.249
 20
3.29999
 11
406.52
 21
3.29999
  0
LINE
  8
0
 10
406.52
 20
3.29999
 11
406.52
 21
0
  0
LINE
  8
0
 10
406.52
 20
0
 11
416.42
 21
0
  0
LINE
  8
0
 10
416.42
 20
0
 11
416.42
 21
9.89999
  0
LINE
  8
0
 10
416.42
 20
9.89999
 11
419.72
 21
9.89999
  0
LINE
  8
0
 10
419.72
 20
9.89999
 11
419.72
 21
16.6333
  0
LINE
  8
0
 10
419.72
 20
16.6333
 11
416.42
 21
16.6333
  0
LINE
  8
0
 10
416.42
 20
16.6333
 11
416.42
 21
23.3667
  0
LINE
  8
0
 10
416.42
 20
23.3667
 11
419.72
 21
23.3667
  0
LINE
  8
0
 10
419.72
 20
23.3667
 11
419.72
 21
30.1
  0
LINE
  8
0
 10
419.72
 20
30.1
 11
416.42
 21
30.1
  0
LINE
  8
0
 10
416.42
 20
30.1
 11
416.42
 21
40
  0
LINE
  8
0
 10
416.42
 20
40
 11
273.02
 21
40
  0
LINE
  8
0
 10
273.02
 20
40
 11
273.02
 21
30.1
  0
LINE
  8
0
 10
273.02
 20
30.1
 11
269.72
 21
30.1
  0
LINE
  8
0
 10
269.72
 20
30.1
 11
269.72
 21
23.3667
  0
LINE
  8
0
 10
269.72
 20
23.3667
 11
273.02
 21
23.3667
  0
LINE
  8
0
 10
273.02
 20
23.3667
 11
273.02
 21
16.6333
  0
LINE
  8
0
 10
273.02
 20
16.6333
 11
269.72
 21
16.6333
  0
LINE
  8
0
 10
269.72
 20
16.6333
 11
269.72
 21
9.90001
  0
LINE
  8
0
 10
269.72
 20
9.90001
 11
273.02
 21
9.90001
  0
LINE
  8
0
 10
273.02
 20
9.90001
 11
273.02
 21
0
  0
LINE
  8
0
 10
273.02
 20
0
 11
282.92
 21
0
  0
LINE
  8
0
 10
282.92
 20
0
 11
282.92
 21
3.29999
  0
ENDSEC
  0
SECTION
  2
OBJECTS
  0
DICTIONARY
  0
ENDSEC
  0
EOF
