  0
SECTION
  2
BLOCKS
  0
ENDSEC
  0
SECTION
  2
ENTITIES
  0
LINE
  8
0
 10
16.7526
 20
53.21
 11
23.6053
 21
53.21
  0
LINE
  8
0
 10
23.6053
 20
53.21
 11
23.6053
 21
49.91
  0
LINE
  8
0
 10
23.6053
 20
49.91
 11
30.4579
 21
49.91
  0
LINE
  8
0
 10
30.4579
 20
49.91
 11
30.4579
 21
53.21
  0
LINE
  8
0
 10
30.4579
 20
53.21
 11
37.3105
 21
53.21
  0
LINE
  8
0
 10
37.3105
 20
53.21
 11
37.3105
 21
49.91
  0
LINE
  8
0
 10
37.3105
 20
49.91
 11
44.1631
 21
49.91
  0
LINE
  8
0
 10
44.1631
 20
49.91
 11
44.1631
 21
53.21
  0
LINE
  8
0
 10
44.1631
 20
53.21
 11
51.0158
 21
53.21
  0
LINE
  8
0
 10
51.0158
 20
53.21
 11
51.0158
 21
49.91
  0
LINE
  8
0
 10
51.0158
 20
49.91
 11
57.8684
 21
49.91
  0
LINE
  8
0
 10
57.8684
 20
49.91
 11
57.8684
 21
53.21
  0
LINE
  8
0
 10
57.8684
 20
53.21
 11
64.721
 21
53.21
  0
LINE
  8
0
 10
64.721
 20
53.21
 11
64.721
 21
49.91
  0
LINE
  8
0
 10
64.721
 20
49.91
 11
71.5737
 21
49.91
  0
LINE
  8
0
 10
71.5737
 20
49.91
 11
71.5737
 21
53.21
  0
LINE
  8
0
 10
71.5737
 20
53.21
 11
78.4263
 21
53.21
  0
LINE
  8
0
 10
78.4263
 20
53.21
 11
78.4263
 21
49.91
  0
LINE
  8
0
 10
78.4263
 20
49.91
 11
85.2789
 21
49.91
  0
LINE
  8
0
 10
85.2789
 20
49.91
 11
85.2789
 21
53.21
  0
LINE
  8
0
 10
85.2789
 20
53.21
 11
92.1316
 21
53.21
  0
LINE
  8
0
 10
92.1316
 20
53.21
 11
92.1316
 21
49.91
  0
LINE
  8
0
 10
92.1316
 20
49.91
 11
98.9842
 21
49.91
  0
LINE
  8
0
 10
98.9842
 20
49.91
 11
98.9842
 21
53.21
  0
LINE
  8
0
 10
98.9842
 20
53.21
 11
105.837
 21
53.21
  0
LINE
  8
0
 10
105.837
 20
53.21
 11
105.837
 21
49.91
  0
LINE
  8
0
 10
105.837
 20
49.91
 11
112.689
 21
49.91
  0
LINE
  8
0
 10
112.689
 20
49.91
 11
112.689
 21
53.21
  0
LINE
  8
0
 10
112.689
 20
53.21
 11
119.542
 21
53.21
  0
LINE
  8
0
 10
119.542
 20
53.21
 11
119.542
 21
49.91
  0
LINE
  8
0
 10
119.542
 20
49.91
 11
126.395
 21
49.91
  0
LINE
  8
0
 10
126.395
 20
49.91
 11
126.395
 21
53.21
  0
LINE
  8
0
 10
126.395
 20
53.21
 11
133.247
 21
53.21
  0
LINE
  8
0
 10
133.247
 20
53.21
 11
133.247
 21
49.91
  0
LINE
  8
0
 10
133.247
 20
49.91
 11
140.1
 21
49.91
  0
LINE
  8
0
 10
140.1
 20
49.91
 11
140.1
 21
53.21
  0
LINE
  8
0
 10
140.1
 20
53.21
 11
146.7
 21
53.21
  0
LINE
  8
0
 10
146.7
 20
53.21
 11
146.7
 21
63.11
  0
LINE
  8
0
 10
146.7
 20
63.11
 11
150
 21
63.11
  0
LINE
  8
0
 10
150
 20
63.11
 11
150
 21
70.3806
  0
LINE
  8
0
 10
150
 20
70.3806
 11
146.7
 21
70.3806
  0
LINE
  8
0
 10
146.7
 20
70.3806
 11
146.7
 21
77.6511
  0
LINE
  8
0
 10
146.7
 20
77.6511
 11
150
 21
77.6511
  0
LINE
  8
0
 10
150
 20
77.6511
 11
150
 21
84.9217
  0
LINE
  8
0
 10
150
 20
84.9217
 11
146.7
 21
84.9217
  0
LINE
  8
0
 10
146.7
 20
84.9217
 11
146.7
 21
92.1923
  0
LINE
  8
0
 10
146.7
 20
92.1923
 11
150
 21
92.1923
  0
LINE
  8
0
 10
150
 20
92.1923
 11
150
 21
99.4629
  0
LINE
  8
0
 10
150
 20
99.4629
 11
146.7
 21
99.4629
  0
LINE
  8
0
 10
146.7
 20
99.4629
 11
146.7
 21
106.734
  0
LINE
  8
0
 10
146.7
 20
106.734
 11
150
 21
106.734
  0
LINE
  8
0
 10
150
 20
106.734
 11
150
 21
114.004
  0
LINE
  8
0
 10
150
 20
114.004
 11
146.7
 21
114.004
  0
LINE
  8
0
 10
146.7
 20
114.004
 11
146.7
 21
121.275
  0
LINE
  8
0
 10
146.7
 20
121.275
 11
150
 21
121.275
  0
LINE
  8
0
 10
150
 20
121.275
 11
150
 21
128.545
  0
LINE
  8
0
 10
150
 20
128.545
 11
146.7
 21
128.545
  0
LINE
  8
0
 10
146.7
 20
128.545
 11
146.7
 21
135.816
  0
LINE
  8
0
 10
146.7
 20
135.816
 11
150
 21
135.816
  0
LINE
  8
0
 10
150
 20
135.816
 11
150
 21
143.086
  0
LINE
  8
0
 10
150
 20
143.086
 11
146.7
 21
143.086
  0
LINE
  8
0
 10
146.7
 20
143.086
 11
146.7
 21
150.357
  0
LINE
  8
0
 10
146.7
 20
150.357
 11
150
 21
150.357
  0
LINE
  8
0
 10
150
 20
150.357
 11
150
 21
157.628
  0
LINE
  8
0
 10
150
 20
157.628
 11
146.7
 21
157.628
  0
LINE
  8
0
 10
146.7
 20
157.628
 11
146.7
 21
164.898
  0
LINE
  8
0
 10
146.7
 20
164.898
 11
150
 21
164.898
  0
LINE
  8
0
 10
150
 20
164.898
 11
150
 21
172.169
  0
LINE
  8
0
 10
150
 20
172.169
 11
146.7
 21
172.169
  0
LINE
  8
0
 10
146.7
 20
172.169
 11
146.7
 21
179.439
  0
LINE
  8
0
 10
146.7
 20
179.439
 11
150
 21
179.439
  0
LINE
  8
0
 10
150
 20
179.439
 11
150
 21
186.71
  0
LINE
  8
0
 10
150
 20
186.71
 11
146.7
 21
186.71
  0
LINE
  8
0
 10
146.7
 20
186.71
 11
146.7
 21
196.61
  0
LINE
  8
0
 10
146.7
 20
196.61
 11
140.1
 21
196.61
  0
LINE
  8
0
 10
140.1
 20
196.61
 11
140.1
 21
199.91
  0
LINE
  8
0
 10
140.1
 20
199.91
 11
133.247
 21
199.91
  0
LINE
  8
0
 10
133.247
 20
199.91
 11
133.247
 21
196.61
  0
LINE
  8
0
 10
133.247
 20
196.61
 11
126.395
 21
196.61
  0
LINE
  8
0
 10
126.395
 20
196.61
 11
126.395
 21
199.91
  0
LINE
  8
0
 10
126.395
 20
199.91
 11
119.542
 21
199.91
  0
LINE
  8
0
 10
119.542
 20
199.91
 11
119.542
 21
196.61
  0
LINE
  8
0
 10
119.542
 20
196.61
 11
112.689
 21
196.61
  0
LINE
  8
0
 10
112.689
 20
196.61
 11
112.689
 21
199.91
  0
LINE
  8
0
 10
112.689
 20
199.91
 11
105.837
 21
199.91
  0
LINE
  8
0
 10
105.837
 20
199.91
 11
105.837
 21
196.61
  0
LINE
  8
0
 10
105.837
 20
196.61
 11
98.9842
 21
196.61
  0
LINE
  8
0
 10
98.9842
 20
196.61
 11
98.9842
 21
199.91
  0
LINE
  8
0
 10
98.9842
 20
199.91
 11
92.1316
 21
199.91
  0
LINE
  8
0
 10
92.1316
 20
199.91
 11
92.1316
 21
196.61
  0
LINE
  8
0
 10
92.1316
 20
196.61
 11
85.279
 21
196.61
  0
LINE
  8
0
 10
85.279
 20
196.61
 11
85.279
 21
199.91
  0
LINE
  8
0
 10
85.279
 20
199.91
 11
78.4263
 21
199.91
  0
LINE
  8
0
 10
78.4263
 20
199.91
 11
78.4263
 21
196.61
  0
LINE
  8
0
 10
78.4263
 20
196.61
 11
71.5737
 21
196.61
  0
LINE
  8
0
 10
71.5737
 20
196.61
 11
71.5737
 21
199.91
  0
LINE
  8
0
 10
71.5737
 20
199.91
 11
64.7211
 21
199.91
  0
LINE
  8
0
 10
64.7211
 20
199.91
 11
64.7211
 21
196.61
  0
LINE
  8
0
 10
64.7211
 20
196.61
 11
57.8684
 21
196.61
  0
LINE
  8
0
 10
57.8684
 20
196.61
 11
57.8684
 21
199.91
  0
LINE
  8
0
 10
57.8684
 20
199.91
 11
51.0158
 21
199.91
  0
LINE
  8
0
 10
51.0158
 20
199.91
 11
51.0158
 21
196.61
  0
LINE
  8
0
 10
51.0158
 20
196.61
 11
44.1632
 21
196.61
  0
LINE
  8
0
 10
44.1632
 20
196.61
 11
44.1632
 21
199.91
  0
LINE
  8
0
 10
44.1632
 20
199.91
 11
37.3105
 21
199.91
  0
LINE
  8
0
 10
37.3105
 20
199.91
 11
37.3105
 21
196.61
  0
LINE
  8
0
 10
37.3105
 20
196.61
 11
30.4579
 21
196.61
  0
LINE
  8
0
 10
30.4579
 20
196.61
 11
30.4579
 21
199.91
  0
LINE
  8
0
 10
30.4579
 20
199.91
 11
23.6053
 21
199.91
  0
LINE
  8
0
 10
23.6053
 20
199.91
 11
23.6053
 21
196.61
  0
LINE
  8
0
 10
23.6053
 20
196.61
 11
16.7526
 21
196.61
  0
LINE
  8
0
 10
16.7526
 20
196.61
 11
16.7526
 21
199.91
  0
LINE
  8
0
 10
16.7526
 20
199.91
 11
9.90001
 21
199.91
  0
LINE
  8
0
 10
9.90001
 20
199.91
 11
9.90001
 21
196.61
  0
LINE
  8
0
 10
9.90001
 20
196.61
 11
3.29997
 21
196.61
  0
LINE
  8
0
 10
3.29997
 20
196.61
 11
3.29997
 21
186.71
  0
LINE
  8
0
 10
3.29997
 20
186.71
 11
0
 21
186.71
  0
LINE
  8
0
 10
0
 20
186.71
 11
0
 21
179.439
  0
LINE
  8
0
 10
0
 20
179.439
 11
3.29997
 21
179.439
  0
LINE
  8
0
 10
3.29997
 20
179.439
 11
3.29997
 21
172.169
  0
LINE
  8
0
 10
3.29997
 20
172.169
 11
0
 21
172.169
  0
LINE
  8
0
 10
0
 20
172.169
 11
0
 21
164.898
  0
LINE
  8
0
 10
0
 20
164.898
 11
3.29997
 21
164.898
  0
LINE
  8
0
 10
3.29997
 20
164.898
 11
3.29997
 21
157.628
  0
LINE
  8
0
 10
3.29997
 20
157.628
 11
0
 21
157.628
  0
LINE
  8
0
 10
0
 20
157.628
 11
0
 21
150.357
  0
LINE
  8
0
 10
0
 20
150.357
 11
3.29997
 21
150.357
  0
LINE
  8
0
 10
3.29997
 20
150.357
 11
3.29997
 21
143.086
  0
LINE
  8
0
 10
3.29997
 20
143.086
 11
0
 21
143.086
  0
LINE
  8
0
 10
0
 20
143.086
 11
0
 21
135.816
  0
LINE
  8
0
 10
0
 20
135.816
 11
3.29997
 21
135.816
  0
LINE
  8
0
 10
3.29997
 20
135.816
 11
3.29997
 21
128.545
  0
LINE
  8
0
 10
3.29997
 20
128.545
 11
0
 21
128.545
  0
LINE
  8
0
 10
0
 20
128.545
 11
0
 21
121.275
  0
LINE
  8
0
 10
0
 20
121.275
 11
3.29999
 21
121.275
  0
LINE
  8
0
 10
3.29999
 20
121.275
 11
3.29999
 21
114.004
  0
LINE
  8
0
 10
3.29999
 20
114.004
 11
0
 21
114.004
  0
LINE
  8
0
 10
0
 20
114.004
 11
0
 21
106.734
  0
LINE
  8
0
 10
0
 20
106.734
 11
3.29999
 21
106.734
  0
LINE
  8
0
 10
3.29999
 20
106.734
 11
3.29999
 21
99.4629
  0
LINE
  8
0
 10
3.29999
 20
99.4629
 11
0
 21
99.4629
  0
LINE
  8
0
 10
0
 20
99.4629
 11
0
 21
92.1924
  0
LINE
  8
0
 10
0
 20
92.1924
 11
3.29999
 21
92.1924
  0
LINE
  8
0
 10
3.29999
 20
92.1924
 11
3.29999
 21
84.9218
  0
LINE
  8
0
 10
3.29999
 20
84.9218
 11
0
 21
84.9218
  0
LINE
  8
0
 10
0
 20
84.9218
 11
0
 21
77.6512
  0
LINE
  8
0
 10
0
 20
77.6512
 11
3.29999
 21
77.6512
  0
LINE
  8
0
 10
3.29999
 20
77.6512
 11
3.29999
 21
70.3806
  0
LINE
  8
0
 10
3.29999
 20
70.3806
 11
0
 21
70.3806
  0
LINE
  8
0
 10
0
 20
70.3806
 11
0
 21
63.11
  0
LINE
  8
0
 10
0
 20
63.11
 11
3.29999
 21
63.11
  0
LINE
  8
0
 10
3.29999
 20
63.11
 11
3.29999
 21
53.21
  0
LINE
  8
0
 10
3.29999
 20
53.21
 11
9.89999
 21
53.21
  0
LINE
  8
0
 10
9.89999
 20
53.21
 11
9.89999
 21
49.91
  0
LINE
  8
0
 10
9.89999
 20
49.91
 11
16.7526
 21
49.91
  0
LINE
  8
0
 10
16.7526
 20
49.91
 11
16.7526
 21
53.21
  0
LINE
  8
0
 10
290.11
 20
53.2
 11
296.71
 21
53.2
  0
LINE
  8
0
 10
296.71
 20
53.2
 11
296.71
 21
49.91
  0
LINE
  8
0
 10
296.71
 20
49.91
 11
300.01
 21
49.91
  0
LINE
  8
0
 10
300.01
 20
49.91
 11
300.01
 21
199.91
  0
LINE
  8
0
 10
300.01
 20
199.91
 11
296.71
 21
199.91
  0
LINE
  8
0
 10
296.71
 20
199.91
 11
296.71
 21
196.62
  0
LINE
  8
0
 10
296.71
 20
196.62
 11
290.11
 21
196.62
  0
LINE
  8
0
 10
290.11
 20
196.62
 11
290.11
 21
199.91
  0
LINE
  8
0
 10
290.11
 20
199.91
 11
225.835
 21
199.91
  0
LINE
  8
0
 10
225.835
 20
199.91
 11
225.835
 21
49.91
  0
LINE
  8
0
 10
225.835
 20
49.91
 11
290.11
 21
49.91
  0
LINE
  8
0
 10
290.11
 20
49.91
 11
290.11
 21
53.2
  0
LINE
  8
0
 10
153.31
 20
53.2
 11
159.91
 21
53.2
  0
LINE
  8
0
 10
159.91
 20
53.2
 11
159.91
 21
49.91
  0
LINE
  8
0
 10
159.91
 20
49.91
 11
224.185
 21
49.91
  0
LINE
  8
0
 10
224.185
 20
49.91
 11
224.185
 21
199.91
  0
LINE
  8
0
 10
224.185
 20
199.91
 11
159.91
 21
199.91
  0
LINE
  8
0
 10
159.91
 20
199.91
 11
159.91
 21
196.62
  0
LINE
  8
0
 10
159.91
 20
196.62
 11
153.31
 21
196.62
  0
LINE
  8
0
 10
153.31
 20
196.62
 11
153.31
 21
199.91
  0
LINE
  8
0
 10
153.31
 20
199.91
 11
150.01
 21
199.91
  0
LINE
  8
0
 10
150.01
 20
199.91
 11
150.01
 21
49.91
  0
LINE
  8
0
 10
150.01
 20
49.91
 11
153.31
 21
49.91
  0
LINE
  8
0
 10
153.31
 20
49.91
 11
153.31
 21
53.2
  0
LINE
  8
0
 10
446.72
 20
66.41
 11
450.02
 21
66.41
  0
LINE
  8
0
 10
450.02
 20
66.41
 11
450.02
 21
80.01
  0
LINE
  8
0
 10
450.02
 20
80.01
 11
446.72
 21
80.01
  0
LINE
  8
0
 10
446.72
 20
80.01
 11
446.72
 21
89.91
  0
LINE
  8
0
 10
446.72
 20
89.91
 11
303.32
 21
89.91
  0
LINE
  8
0
 10
303.32
 20
89.91
 11
303.32
 21
80.01
  0
LINE
  8
0
 10
303.32
 20
80.01
 11
300.02
 21
80.01
  0
LINE
  8
0
 10
300.02
 20
80.01
 11
300.02
 21
66.41
  0
LINE
  8
0
 10
300.02
 20
66.41
 11
303.32
 21
66.41
  0
LINE
  8
0
 10
303.32
 20
66.41
 11
303.32
 21
53.21
  0
LINE
  8
0
 10
303.32
 20
53.21
 11
446.72
 21
53.21
  0
LINE
  8
0
 10
446.72
 20
53.21
 11
446.72
 21
66.41
  0
LINE
  8
0
 10
148.145
 20
49.7246
 11
146.941
 21
49.4155
  0
LINE
  8
0
 10
146.941
 20
49.4155
 11
145.785
 21
48.9578
  0
LINE
  8
0
 10
145.785
 20
48.9578
 11
144.695
 21
48.3588
  0
LINE
  8
0
 10
144.695
 20
48.3588
 11
143.689
 21
47.6281
  0
LINE
  8
0
 10
143.689
 20
47.6281
 11
142.783
 21
46.777
  0
LINE
  8
0
 10
142.783
 20
46.777
 11
141.991
 21
45.8191
  0
LINE
  8
0
 10
141.991
 20
45.8191
 11
141.325
 21
44.7693
  0
LINE
  8
0
 10
141.325
 20
44.7693
 11
140.795
 21
43.6444
  0
LINE
  8
0
 10
140.795
 20
43.6444
 11
140.411
 21
42.462
  0
LINE
  8
0
 10
140.411
 20
42.462
 11
140.178
 21
41.2408
  0
LINE
  8
0
 10
140.178
 20
41.2408
 11
140.1
 21
40
  0
LINE
  8
0
 10
140.1
 20
40
 11
9.89999
 21
40
  0
LINE
  8
0
 10
9.89999
 20
40
 11
9.82193
 21
41.2408
  0
LINE
  8
0
 10
9.82193
 20
41.2408
 11
9.58896
 21
42.462
  0
LINE
  8
0
 10
9.58896
 20
42.462
 11
9.20477
 21
43.6444
  0
LINE
  8
0
 10
9.20477
 20
43.6444
 11
8.67543
 21
44.7693
  0
LINE
  8
0
 10
8.67543
 20
44.7693
 11
8.00926
 21
45.8191
  0
LINE
  8
0
 10
8.00926
 20
45.8191
 11
7.21678
 21
46.777
  0
LINE
  8
0
 10
7.21678
 20
46.777
 11
6.31049
 21
47.6281
  0
LINE
  8
0
 10
6.31049
 20
47.6281
 11
5.30467
 21
48.3588
  0
LINE
  8
0
 10
5.30467
 20
48.3588
 11
4.21521
 21
48.9578
  0
LINE
  8
0
 10
4.21521
 20
48.9578
 11
3.05927
 21
49.4155
  0
LINE
  8
0
 10
3.05927
 20
49.4155
 11
1.85507
 21
49.7246
  0
LINE
  8
0
 10
1.85507
 20
49.7246
 11
0.621613
 21
49.8805
  0
LINE
  8
0
 10
0.621613
 20
49.8805
 11
-0.621613
 21
49.8805
  0
LINE
  8
0
 10
-0.621613
 20
49.8805
 11
-1.85507
 21
49.7246
  0
LINE
  8
0
 10
-1.85507
 20
49.7246
 11
-3.05927
 21
49.4155
  0
LINE
  8
0
 10
-3.05927
 20
49.4155
 11
-4.21521
 21
48.9578
  0
LINE
  8
0
 10
-4.21521
 20
48.9578
 11
-5.30467
 21
48.3588
  0
LINE
  8
0
 10
-5.30467
 20
48.3588
 11
-6.31049
 21
47.6281
  0
LINE
  8
0
 10
-6.31049
 20
47.6281
 11
-7.21678
 21
46.777
  0
LINE
  8
0
 10
-7.21678
 20
46.777
 11
-8.00926
 21
45.8191
  0
LINE
  8
0
 10
-8.00926
 20
45.8191
 11
-8.67543
 21
44.7693
  0
LINE
  8
0
 10
-8.67543
 20
44.7693
 11
-9.20477
 21
43.6444
  0
LINE
  8
0
 10
-9.20477
 20
43.6444
 11
-9.58896
 21
42.462
  0
LINE
  8
0
 10
-9.58896
 20
42.462
 11
-9.82193
 21
41.2408
  0
LINE
  8
0
 10
-9.82193
 20
41.2408
 11
-9.89999
 21
40
  0
LINE
  8
0
 10
-9.89999
 20
40
 11
-9.82193
 21
38.7592
  0
LINE
  8
0
 10
-9.82193
 20
38.7592
 11
-9.58896
 21
37.538
  0
LINE
  8
0
 10
-9.58896
 20
37.538
 11
-9.20477
 21
36.3556
  0
LINE
  8
0
 10
-9.20477
 20
36.3556
 11
-8.67543
 21
35.2306
  0
LINE
  8
0
 10
-8.67543
 20
35.2306
 11
-8.00926
 21
34.1809
  0
LINE
  8
0
 10
-8.00926
 20
34.1809
 11
-7.21678
 21
33.223
  0
LINE
  8
0
 10
-7.21678
 20
33.223
 11
-6.31049
 21
32.3719
  0
LINE
  8
0
 10
-6.31049
 20
32.3719
 11
-5.30467
 21
31.6411
  0
LINE
  8
0
 10
-5.30467
 20
31.6411
 11
-4.21521
 21
31.0422
  0
LINE
  8
0
 10
-4.21521
 20
31.0422
 11
-3.05927
 21
30.5845
  0
LINE
  8
0
 10
-3.05927
 20
30.5845
 11
-1.85507
 21
30.2753
  0
LINE
  8
0
 10
-1.85507
 20
30.2753
 11
-0.621613
 21
30.1195
  0
LINE
  8
0
 10
-0.621613
 20
30.1195
 11
0
 21
30.1195
  0
LINE
  8
0
 10
0
 20
30.1195
 11
0
 21
30.1
  0
LINE
  8
0
 10
0
 20
30.1
 11
3.29997
 21
30.1
  0
LINE
  8
0
 10
3.29997
 20
30.1
 11
3.29999
 21
23.3667
  0
LINE
  8
0
 10
3.29999
 20
23.3667
 11
0
 21
23.3667
  0
LINE
  8
0
 10
0
 20
23.3667
 11
0
 21
16.6333
  0
LINE
  8
0
 10
0
 20
16.6333
 11
3.29999
 21
16.6333
  0
LINE
  8
0
 10
3.29999
 20
16.6333
 11
3.29999
 21
9.90001
  0
LINE
  8
0
 10
3.29999
 20
9.90001
 11
0
 21
9.90001
  0
LINE
  8
0
 10
0
 20
9.90001
 11
0
 21
0
  0
LINE
  8
0
 10
0
 20
0
 11
9.89999
 21
0
  0
LINE
  8
0
 10
9.89999
 20
0
 11
9.89999
 21
3.29999
  0
LINE
  8
0
 10
9.89999
 20
3.29999
 11
16.7526
 21
3.29999
  0
LINE
  8
0
 10
16.7526
 20
3.29999
 11
16.7526
 21
0
  0
LINE
  8
0
 10
16.7526
 20
0
 11
23.6053
 21
0
  0
LINE
  8
0
 10
23.6053
 20
0
 11
23.6053
 21
3.29999
  0
LINE
  8
0
 10
23.6053
 20
3.29999
 11
30.4579
 21
3.29999
  0
LINE
  8
0
 10
30.4579
 20
3.29999
 11
30.4579
 21
0
  0
LINE
  8
0
 10
30.4579
 20
0
 11
37.3105
 21
0
  0
LINE
  8
0
 10
37.3105
 20
0
 11
37.3105
 21
3.29999
  0
LINE
  8
0
 10
37.3105
 20
3.29999
 11
44.1631
 21
3.29999
  0
LINE
  8
0
 10
44.1631
 20
3.29999
 11
44.1631
 21
0
  0
LINE
  8
0
 10
44.1631
 20
0
 11
51.0158
 21
0
  0
LINE
  8
0
 10
51.0158
 20
0
 11
51.0158
 21
3.29999
  0
LINE
  8
0
 10
51.0158
 20
3.29999
 11
57.8684
 21
3.29999
  0
LINE
  8
0
 10
57.8684
 20
3.29999
 11
57.8684
 21
0
  0
LINE
  8
0
 10
57.8684
 20
0
 11
64.721
 21
0
  0
LINE
  8
0
 10
64.721
 20
0
 11
64.721
 21
3.29999
  0
LINE
  8
0
 10
64.721
 20
3.29999
 11
71.5737
 21
3.29999
  0
LINE
  8
0
 10
71.5737
 20
3.29999
 11
71.5737
 21
0
  0
LINE
  8
0
 10
71.5737
 20
0
 11
78.4263
 21
0
  0
LINE
  8
0
 10
78.4263
 20
0
 11
78.4263
 21
3.29999
  0
LINE
  8
0
 10
78.4263
 20
3.29999
 11
85.2789
 21
3.29999
  0
LINE
  8
0
 10
85.2789
 20
3.29999
 11
85.2789
 21
0
  0
LINE
  8
0
 10
85.2789
 20
0
 11
92.1316
 21
0
  0
LINE
  8
0
 10
92.1316
 20
0
 11
92.1316
 21
3.29999
  0
LINE
  8
0
 10
92.1316
 20
3.29999
 11
98.9842
 21
3.29999
  0
LINE
  8
0
 10
98.9842
 20
3.29999
 11
98.9842
 21
0
  0
LINE
  8
0
 10
98.9842
 20
0
 11
105.837
 21
0
  0
LINE
  8
0
 10
105.837
 20
0
 11
105.837
 21
3.29999
  0
LINE
  8
0
 10
105.837
 20
3.29999
 11
112.689
 21
3.29999
  0
LINE
  8
0
 10
112.689
 20
3.29999
 11
112.689
 21
0
  0
LINE
  8
0
 10
112.689
 20
0
 11
119.542
 21
0
  0
LINE
  8
0
 10
119.542
 20
0
 11
119.542
 21
3.29999
  0
LINE
  8
0
 10
119.542
 20
3.29999
 11
126.395
 21
3.29999
  0
LINE
  8
0
 10
126.395
 20
3.29999
 11
126.395
 21
0
  0
LINE
  8
0
 10
126.395
 20
0
 11
133.247
 21
0
  0
LINE
  8
0
 10
133.247
 20
0
 11
133.247
 21
3.29999
  0
LINE
  8
0
 10
133.247
 20
3.29999
 11
140.1
 21
3.29999
  0
LINE
  8
0
 10
140.1
 20
3.29999
 11
140.1
 21
0
  0
LINE
  8
0
 10
140.1
 20
0
 11
150
 21
0
  0
LINE
  8
0
 10
150
 20
0
 11
150
 21
9.89999
  0
LINE
  8
0
 10
150
 20
9.89999
 11
146.7
 21
9.89999
  0
LINE
  8
0
 10
146.7
 20
9.89999
 11
146.7
 21
16.6333
  0
LINE
  8
0
 10
146.7
 20
16.6333
 11
150
 21
16.6333
  0
LINE
  8
0
 10
150
 20
16.6333
 11
150
 21
23.3667
  0
LINE
  8
0
 10
150
 20
23.3667
 11
146.7
 21
23.3667
  0
LINE
  8
0
 10
146.7
 20
23.3667
 11
146.7
 21
30.1
  0
LINE
  8
0
 10
146.7
 20
30.1
 11
150
 21
30.1
  0
LINE
  8
0
 10
150
 20
30.1
 11
150
 21
30.1195
  0
LINE
  8
0
 10
150
 20
30.1195
 11
150.01
 21
30.1195
  0
LINE
  8
0
 10
150.01
 20
30.1195
 11
150.01
 21
30.1
  0
LINE
  8
0
 10
150.01
 20
30.1
 11
153.31
 21
30.1
  0
LINE
  8
0
 10
153.31
 20
30.1
 11
153.31
 21
23.3667
  0
LINE
  8
0
 10
153.31
 20
23.3667
 11
150.01
 21
23.3667
  0
LINE
  8
0
 10
150.01
 20
23.3667
 11
150.01
 21
16.6333
  0
LINE
  8
0
 10
150.01
 20
16.6333
 11
153.31
 21
16.6333
  0
LINE
  8
0
 10
153.31
 20
16.6333
 11
153.31
 21
9.90001
  0
LINE
  8
0
 10
153.31
 20
9.90001
 11
150.01
 21
9.90001
  0
LINE
  8
0
 10
150.01
 20
9.90001
 11
150.01
 21
0
  0
LINE
  8
0
 10
150.01
 20
0
 11
159.91
 21
0
  0
LINE
  8
0
 10
159.91
 20
0
 11
159.91
 21
3.29999
  0
LINE
  8
0
 10
159.91
 20
3.29999
 11
166.763
 21
3.29999
  0
LINE
  8
0
 10
166.763
 20
3.29999
 11
166.763
 21
0
  0
LINE
  8
0
 10
166.763
 20
0
 11
173.615
 21
0
  0
LINE
  8
0
 10
173.615
 20
0
 11
173.615
 21
3.29999
  0
LINE
  8
0
 10
173.615
 20
3.29999
 11
180.468
 21
3.29999
  0
LINE
  8
0
 10
180.468
 20
3.29999
 11
180.468
 21
0
  0
LINE
  8
0
 10
180.468
 20
0
 11
187.321
 21
0
  0
LINE
  8
0
 10
187.321
 20
0
 11
187.321
 21
3.29999
  0
LINE
  8
0
 10
187.321
 20
3.29999
 11
194.173
 21
3.29999
  0
LINE
  8
0
 10
194.173
 20
3.29999
 11
194.173
 21
0
  0
LINE
  8
0
 10
194.173
 20
0
 11
201.026
 21
0
  0
LINE
  8
0
 10
201.026
 20
0
 11
201.026
 21
3.29999
  0
LINE
  8
0
 10
201.026
 20
3.29999
 11
207.878
 21
3.29999
  0
LINE
  8
0
 10
207.878
 20
3.29999
 11
207.878
 21
0
  0
LINE
  8
0
 10
207.878
 20
0
 11
214.731
 21
0
  0
LINE
  8
0
 10
214.731
 20
0
 11
214.731
 21
3.29999
  0
LINE
  8
0
 10
214.731
 20
3.29999
 11
221.584
 21
3.29999
  0
LINE
  8
0
 10
221.584
 20
3.29999
 11
221.584
 21
0
  0
LINE
  8
0
 10
221.584
 20
0
 11
228.436
 21
0
  0
LINE
  8
0
 10
228.436
 20
0
 11
228.436
 21
3.29999
  0
LINE
  8
0
 10
228.436
 20
3.29999
 11
235.289
 21
3.29999
  0
LINE
  8
0
 10
235.289
 20
3.29999
 11
235.289
 21
0
  0
LINE
  8
0
 10
235.289
 20
0
 11
242.142
 21
0
  0
LINE
  8
0
 10
242.142
 20
0
 11
242.142
 21
3.29999
  0
LINE
  8
0
 10
242.142
 20
3.29999
 11
248.994
 21
3.29999
  0
LINE
  8
0
 10
248.994
 20
3.29999
 11
248.994
 21
0
  0
LINE
  8
0
 10
248.994
 20
0
 11
255.847
 21
0
  0
LINE
  8
0
 10
255.847
 20
0
 11
255.847
 21
3.29999
  0
LINE
  8
0
 10
255.847
 20
3.29999
 11
262.699
 21
3.29999
  0
LINE
  8
0
 10
262.699
 20
3.29999
 11
262.699
 21
0
  0
LINE
  8
0
 10
262.699
 20
0
 11
269.552
 21
0
  0
LINE
  8
0
 10
269.552
 20
0
 11
269.552
 21
3.29999
  0
LINE
  8
0
 10
269.552
 20
3.29999
 11
276.405
 21
3.29999
  0
LINE
  8
0
 10
276.405
 20
3.29999
 11
276.405
 21
0
  0
LINE
  8
0
 10
276.405
 20
0
 11
283.257
 21
0
  0
LINE
  8
0
 10
283.257
 20
0
 11
283.257
 21
3.29999
  0
LINE
  8
0
 10
283.257
 20
3.29999
 11
290.11
 21
3.29999
  0
LINE
  8
0
 10
290.11
 20
3.29999
 11
290.11
 21
0
  0
LINE
  8
0
 10
290.11
 20
0
 11
300.01
 21
0
  0
LINE
  8
0
 10
300.01
 20
0
 11
300.01
 21
9.89999
  0
LINE
  8
0
 10
300.01
 20
9.89999
 11
296.71
 21
9.89999
  0
LINE
  8
0
 10
296.71
 20
9.89999
 11
296.71
 21
16.6333
  0
LINE
  8
0
 10
296.71
 20
16.6333
 11
300.01
 21
16.6333
  0
LINE
  8
0
 10
300.01
 20
16.6333
 11
300.01
 21
23.3667
  0
LINE
  8
0
 10
300.01
 20
23.3667
 11
296.71
 21
23.3667
  0
LINE
  8
0
 10
296.71
 20
23.3667
 11
296.71
 21
30.1
  0
LINE
  8
0
 10
296.71
 20
30.1
 11
300.01
 21
30.1
  0
LINE
  8
0
 10
300.01
 20
30.1
 11
300.01
 21
30.1195
  0
LINE
  8
0
 10
300.01
 20
30.1195
 11
300.632
 21
30.1195
  0
LINE
  8
0
 10
300.632
 20
30.1195
 11
301.865
 21
30.2753
  0
LINE
  8
0
 10
301.865
 20
30.2753
 11
303.069
 21
30.5845
  0
LINE
  8
0
 10
303.069
 20
30.5845
 11
304.225
 21
31.0422
  0
LINE
  8
0
 10
304.225
 20
31.0422
 11
305.315
 21
31.6411
  0
LINE
  8
0
 10
305.315
 20
31.6411
 11
306.32
 21
32.3719
  0
LINE
  8
0
 10
306.32
 20
32.3719
 11
307.227
 21
33.223
  0
LINE
  8
0
 10
307.227
 20
33.223
 11
308.019
 21
34.1809
  0
LINE
  8
0
 10
308.019
 20
34.1809
 11
308.685
 21
35.2306
  0
LINE
  8
0
 10
308.685
 20
35.2306
 11
309.215
 21
36.3556
  0
LINE
  8
0
 10
309.215
 20
36.3556
 11
309.599
 21
37.538
  0
LINE
  8
0
 10
309.599
 20
37.538
 11
309.832
 21
38.7592
  0
LINE
  8
0
 10
309.832
 20
38.7592
 11
309.91
 21
40
  0
LINE
  8
0
 10
309.91
 20
40
 11
309.832
 21
41.2408
  0
LINE
  8
0
 10
309.832
 20
41.2408
 11
309.599
 21
42.462
  0
LINE
  8
0
 10
309.599
 20
42.462
 11
309.215
 21
43.6444
  0
LINE
  8
0
 10
309.215
 20
43.6444
 11
308.685
 21
44.7693
  0
LINE
  8
0
 10
308.685
 20
44.7693
 11
308.019
 21
45.8191
  0
LINE
  8
0
 10
308.019
 20
45.8191
 11
307.227
 21
46.777
  0
LINE
  8
0
 10
307.227
 20
46.777
 11
306.32
 21
47.6281
  0
LINE
  8
0
 10
306.32
 20
47.6281
 11
305.315
 21
48.3588
  0
LINE
  8
0
 10
305.315
 20
48.3588
 11
304.225
 21
48.9578
  0
LINE
  8
0
 10
304.225
 20
48.9578
 11
303.069
 21
49.4155
  0
LINE
  8
0
 10
303.069
 20
49.4155
 11
301.865
 21
49.7246
  0
LINE
  8
0
 10
301.865
 20
49.7246
 11
300.632
 21
49.8805
  0
LINE
  8
0
 10
300.632
 20
49.8805
 11
299.388
 21
49.8805
  0
LINE
  8
0
 10
299.388
 20
49.8805
 11
298.155
 21
49.7246
  0
LINE
  8
0
 10
298.155
 20
49.7246
 11
296.951
 21
49.4155
  0
LINE
  8
0
 10
296.951
 20
49.4155
 11
295.795
 21
48.9578
  0
LINE
  8
0
 10
295.795
 20
48.9578
 11
294.705
 21
48.3588
  0
LINE
  8
0
 10
294.705
 20
48.3588
 11
293.699
 21
47.6281
  0
LINE
  8
0
 10
293.699
 20
47.6281
 11
292.793
 21
46.777
  0
LINE
  8
0
 10
292.793
 20
46.777
 11
292.001
 21
45.8191
  0
LINE
  8
0
 10
292.001
 20
45.8191
 11
291.335
 21
44.7693
  0
LINE
  8
0
 10
291.335
 20
44.7693
 11
290.805
 21
43.6444
  0
LINE
  8
0
 10
290.805
 20
43.6444
 11
290.421
 21
42.462
  0
LINE
  8
0
 10
290.421
 20
42.462
 11
290.188
 21
41.2408
  0
LINE
  8
0
 10
290.188
 20
41.2408
 11
290.11
 21
40
  0
LINE
  8
0
 10
290.11
 20
40
 11
159.91
 21
40
  0
LINE
  8
0
 10
159.91
 20
40
 11
159.832
 21
41.2408
  0
LINE
  8
0
 10
159.832
 20
41.2408
 11
159.599
 21
42.462
  0
LINE
  8
0
 10
159.599
 20
42.462
 11
159.215
 21
43.6444
  0
LINE
  8
0
 10
159.215
 20
43.6444
 11
158.685
 21
44.7693
  0
LINE
  8
0
 10
158.685
 20
44.7693
 11
158.019
 21
45.8191
  0
LINE
  8
0
 10
158.019
 20
45.8191
 11
157.227
 21
46.777
  0
LINE
  8
0
 10
157.227
 20
46.777
 11
156.32
 21
47.6281
  0
LINE
  8
0
 10
156.32
 20
47.6281
 11
155.315
 21
48.3588
  0
LINE
  8
0
 10
155.315
 20
48.3588
 11
154.225
 21
48.9578
  0
LINE
  8
0
 10
154.225
 20
48.9578
 11
153.069
 21
49.4155
  0
LINE
  8
0
 10
153.069
 20
49.4155
 11
151.865
 21
49.7246
  0
LINE
  8
0
 10
151.865
 20
49.7246
 11
150.632
 21
49.8805
  0
LINE
  8
0
 10
150.632
 20
49.8805
 11
149.378
 21
49.8805
  0
LINE
  8
0
 10
149.378
 20
49.8805
 11
148.145
 21
49.7246
  0
LINE
  8
0
 10
-0.433243
 20
33.1136
 11
-1.29292
 21
33.2222
  0
LINE
  8
0
 10
-1.29292
 20
33.2222
 11
-2.1322
 21
33.4377
  0
LINE
  8
0
 10
-2.1322
 20
33.4377
 11
-2.93787
 21
33.7567
  0
LINE
  8
0
 10
-2.93787
 20
33.7567
 11
-3.6972
 21
34.1741
  0
LINE
  8
0
 10
-3.6972
 20
34.1741
 11
-4.39822
 21
34.6835
  0
LINE
  8
0
 10
-4.39822
 20
34.6835
 11
-5.02988
 21
35.2766
  0
LINE
  8
0
 10
-5.02988
 20
35.2766
 11
-5.58221
 21
35.9443
  0
LINE
  8
0
 10
-5.58221
 20
35.9443
 11
-6.04651
 21
36.6759
  0
LINE
  8
0
 10
-6.04651
 20
36.6759
 11
-6.41545
 21
37.4599
  0
LINE
  8
0
 10
-6.41545
 20
37.4599
 11
-6.68321
 21
38.284
  0
LINE
  8
0
 10
-6.68321
 20
38.284
 11
-6.84558
 21
39.1352
  0
LINE
  8
0
 10
-6.84558
 20
39.1352
 11
-6.89999
 21
40
  0
LINE
  8
0
 10
-6.89999
 20
40
 11
-6.84558
 21
40.8648
  0
LINE
  8
0
 10
-6.84558
 20
40.8648
 11
-6.68321
 21
41.716
  0
LINE
  8
0
 10
-6.68321
 20
41.716
 11
-6.41545
 21
42.5401
  0
LINE
  8
0
 10
-6.41545
 20
42.5401
 11
-6.04651
 21
43.3241
  0
LINE
  8
0
 10
-6.04651
 20
43.3241
 11
-5.58221
 21
44.0557
  0
LINE
  8
0
 10
-5.58221
 20
44.0557
 11
-5.02988
 21
44.7234
  0
LINE
  8
0
 10
-5.02988
 20
44.7234
 11
-4.39822
 21
45.3165
  0
LINE
  8
0
 10
-4.39822
 20
45.3165
 11
-3.6972
 21
45.8259
  0
LINE
  8
0
 10
-3.6972
 20
45.8259
 11
-2.93787
 21
46.2433
  0
LINE
  8
0
 10
-2.93787
 20
46.2433
 11
-2.1322
 21
46.5623
  0
LINE
  8
0
 10
-2.1322
 20
46.5623
 11
-1.29292
 21
46.7778
  0
LINE
  8
0
 10
-1.29292
 20
46.7778
 11
-0.433243
 21
46.8864
  0
LINE
  8
0
 10
-0.433243
 20
46.8864
 11
0.433243
 21
46.8864
  0
LINE
  8
0
 10
0.433243
 20
46.8864
 11
1.29292
 21
46.7778
  0
LINE
  8
0
 10
1.29292
 20
46.7778
 11
2.1322
 21
46.5623
  0
LINE
  8
0
 10
2.1322
 20
46.5623
 11
2.93787
 21
46.2433
  0
LINE
  8
0
 10
2.93787
 20
46.2433
 11
3.6972
 21
45.8259
  0
LINE
  8
0
 10
3.6972
 20
45.8259
 11
4.39822
 21
45.3165
  0
LINE
  8
0
 10
4.39822
 20
45.3165
 11
5.02988
 21
44.7234
  0
LINE
  8
0
 10
5.02988
 20
44.7234
 11
5.58221
 21
44.0557
  0
LINE
  8
0
 10
5.58221
 20
44.0557
 11
6.04651
 21
43.3241
  0
LINE
  8
0
 10
6.04651
 20
43.3241
 11
6.41545
 21
42.5401
  0
LINE
  8
0
 10
6.41545
 20
42.5401
 11
6.68321
 21
41.716
  0
LINE
  8
0
 10
6.68321
 20
41.716
 11
6.84558
 21
40.8648
  0
LINE
  8
0
 10
6.84558
 20
40.8648
 11
6.89999
 21
40
  0
LINE
  8
0
 10
6.89999
 20
40
 11
6.84558
 21
39.1352
  0
LINE
  8
0
 10
6.84558
 20
39.1352
 11
6.68321
 21
38.284
  0
LINE
  8
0
 10
6.68321
 20
38.284
 11
6.41545
 21
37.4599
  0
LINE
  8
0
 10
6.41545
 20
37.4599
 11
6.04651
 21
36.6759
  0
LINE
  8
0
 10
6.04651
 20
36.6759
 11
5.58221
 21
35.9443
  0
LINE
  8
0
 10
5.58221
 20
35.9443
 11
5.02988
 21
35.2766
  0
LINE
  8
0
 10
5.02988
 20
35.2766
 11
4.39822
 21
34.6835
  0
LINE
  8
0
 10
4.39822
 20
34.6835
 11
3.6972
 21
34.1741
  0
LINE
  8
0
 10
3.6972
 20
34.1741
 11
2.93787
 21
33.7567
  0
LINE
  8
0
 10
2.93787
 20
33.7567
 11
2.1322
 21
33.4377
  0
LINE
  8
0
 10
2.1322
 20
33.4377
 11
1.29292
 21
33.2222
  0
LINE
  8
0
 10
1.29292
 20
33.2222
 11
0.433243
 21
33.1136
  0
LINE
  8
0
 10
0.433243
 20
33.1136
 11
-0.433243
 21
33.1136
  0
LINE
  8
0
 10
3.29999
 20
43.3
 11
0
 21
43.3
  0
LINE
  8
0
 10
0
 20
43.3
 11
0
 21
40
  0
LINE
  8
0
 10
0
 20
40
 11
3.29999
 21
40
  0
LINE
  8
0
 10
3.29999
 20
40
 11
3.29999
 21
43.3
  0
LINE
  8
0
 10
299.577
 20
33.1136
 11
298.717
 21
33.2222
  0
LINE
  8
0
 10
298.717
 20
33.2222
 11
297.878
 21
33.4377
  0
LINE
  8
0
 10
297.878
 20
33.4377
 11
297.072
 21
33.7567
  0
LINE
  8
0
 10
297.072
 20
33.7567
 11
296.313
 21
34.1741
  0
LINE
  8
0
 10
296.313
 20
34.1741
 11
295.612
 21
34.6835
  0
LINE
  8
0
 10
295.612
 20
34.6835
 11
294.98
 21
35.2766
  0
LINE
  8
0
 10
294.98
 20
35.2766
 11
294.428
 21
35.9443
  0
LINE
  8
0
 10
294.428
 20
35.9443
 11
293.963
 21
36.6759
  0
LINE
  8
0
 10
293.963
 20
36.6759
 11
293.595
 21
37.4599
  0
LINE
  8
0
 10
293.595
 20
37.4599
 11
293.327
 21
38.284
  0
LINE
  8
0
 10
293.327
 20
38.284
 11
293.164
 21
39.1352
  0
LINE
  8
0
 10
293.164
 20
39.1352
 11
293.11
 21
40
  0
LINE
  8
0
 10
293.11
 20
40
 11
293.164
 21
40.8648
  0
LINE
  8
0
 10
293.164
 20
40.8648
 11
293.327
 21
41.716
  0
LINE
  8
0
 10
293.327
 20
41.716
 11
293.595
 21
42.5401
  0
LINE
  8
0
 10
293.595
 20
42.5401
 11
293.963
 21
43.3241
  0
LINE
  8
0
 10
293.963
 20
43.3241
 11
294.428
 21
44.0557
  0
LINE
  8
0
 10
294.428
 20
44.0557
 11
294.98
 21
44.7234
  0
LINE
  8
0
 10
294.98
 20
44.7234
 11
295.612
 21
45.3165
  0
LINE
  8
0
 10
295.612
 20
45.3165
 11
296.313
 21
45.8259
  0
LINE
  8
0
 10
296.313
 20
45.8259
 11
297.072
 21
46.2433
  0
LINE
  8
0
 10
297.072
 20
46.2433
 11
297.878
 21
46.5623
  0
LINE
  8
0
 10
297.878
 20
46.5623
 11
298.717
 21
46.7778
  0
LINE
  8
0
 10
298.717
 20
46.7778
 11
299.577
 21
46.8864
  0
LINE
  8
0
 10
299.577
 20
46.8864
 11
300.443
 21
46.8864
  0
LINE
  8
0
 10
300.443
 20
46.8864
 11
301.303
 21
46.7778
  0
LINE
  8
0
 10
301.303
 20
46.7778
 11
302.142
 21
46.5623
  0
LINE
  8
0
 10
302.142
 20
46.5623
 11
302.948
 21
46.2433
  0
LINE
  8
0
 10
302.948
 20
46.2433
 11
303.707
 21
45.8259
  0
LINE
  8
0
 10
303.707
 20
45.8259
 11
304.408
 21
45.3165
  0
LINE
  8
0
 10
304.408
 20
45.3165
 11
305.04
 21
44.7234
  0
LINE
  8
0
 10
305.04
 20
44.7234
 11
305.592
 21
44.0557
  0
LINE
  8
0
 10
305.592
 20
44.0557
 11
306.057
 21
43.3241
  0
LINE
  8
0
 10
306.057
 20
43.3241
 11
306.425
 21
42.5401
  0
LINE
  8
0
 10
306.425
 20
42.5401
 11
306.693
 21
41.716
  0
LINE
  8
0
 10
306.693
 20
41.716
 11
306.856
 21
40.8648
  0
LINE
  8
0
 10
306.856
 20
40.8648
 11
306.91
 21
40
  0
LINE
  8
0
 10
306.91
 20
40
 11
306.856
 21
39.1352
  0
LINE
  8
0
 10
306.856
 20
39.1352
 11
306.693
 21
38.284
  0
LINE
  8
0
 10
306.693
 20
38.284
 11
306.425
 21
37.4599
  0
LINE
  8
0
 10
306.425
 20
37.4599
 11
306.057
 21
36.6759
  0
LINE
  8
0
 10
306.057
 20
36.6759
 11
305.592
 21
35.9443
  0
LINE
  8
0
 10
305.592
 20
35.9443
 11
305.04
 21
35.2766
  0
LINE
  8
0
 10
305.04
 20
35.2766
 11
304.408
 21
34.6835
  0
LINE
  8
0
 10
304.408
 20
34.6835
 11
303.707
 21
34.1741
  0
LINE
  8
0
 10
303.707
 20
34.1741
 11
302.948
 21
33.7567
  0
LINE
  8
0
 10
302.948
 20
33.7567
 11
302.142
 21
33.4377
  0
LINE
  8
0
 10
302.142
 20
33.4377
 11
301.303
 21
33.2222
  0
LINE
  8
0
 10
301.303
 20
33.2222
 11
300.443
 21
33.1136
  0
LINE
  8
0
 10
300.443
 20
33.1136
 11
299.577
 21
33.1136
  0
LINE
  8
0
 10
303.31
 20
43.3
 11
300.01
 21
43.3
  0
LINE
  8
0
 10
300.01
 20
43.3
 11
300.01
 21
40
  0
LINE
  8
0
 10
300.01
 20
40
 11
303.31
 21
40
  0
LINE
  8
0
 10
303.31
 20
40
 11
303.31
 21
43.3
  0
LINE
  8
0
 10
149.577
 20
33.1136
 11
148.717
 21
33.2222
  0
LINE
  8
0
 10
148.717
 20
33.2222
 11
147.878
 21
33.4377
  0
LINE
  8
0
 10
147.878
 20
33.4377
 11
147.072
 21
33.7567
  0
LINE
  8
0
 10
147.072
 20
33.7567
 11
146.313
 21
34.1741
  0
LINE
  8
0
 10
146.313
 20
34.1741
 11
145.612
 21
34.6835
  0
LINE
  8
0
 10
145.612
 20
34.6835
 11
144.98
 21
35.2766
  0
LINE
  8
0
 10
144.98
 20
35.2766
 11
144.428
 21
35.9443
  0
LINE
  8
0
 10
144.428
 20
35.9443
 11
143.963
 21
36.6759
  0
LINE
  8
0
 10
143.963
 20
36.6759
 11
143.595
 21
37.4599
  0
LINE
  8
0
 10
143.595
 20
37.4599
 11
143.327
 21
38.284
  0
LINE
  8
0
 10
143.327
 20
38.284
 11
143.164
 21
39.1352
  0
LINE
  8
0
 10
143.164
 20
39.1352
 11
143.11
 21
40
  0
LINE
  8
0
 10
143.11
 20
40
 11
143.164
 21
40.8648
  0
LINE
  8
0
 10
143.164
 20
40.8648
 11
143.327
 21
41.716
  0
LINE
  8
0
 10
143.327
 20
41.716
 11
143.595
 21
42.5401
  0
LINE
  8
0
 10
143.595
 20
42.5401
 11
143.963
 21
43.3241
  0
LINE
  8
0
 10
143.963
 20
43.3241
 11
144.428
 21
44.0557
  0
LINE
  8
0
 10
144.428
 20
44.0557
 11
144.98
 21
44.7234
  0
LINE
  8
0
 10
144.98
 20
44.7234
 11
145.612
 21
45.3165
  0
LINE
  8
0
 10
145.612
 20
45.3165
 11
146.313
 21
45.8259
  0
LINE
  8
0
 10
146.313
 20
45.8259
 11
147.072
 21
46.2433
  0
LINE
  8
0
 10
147.072
 20
46.2433
 11
147.878
 21
46.5623
  0
LINE
  8
0
 10
147.878
 20
46.5623
 11
148.717
 21
46.7778
  0
LINE
  8
0
 10
148.717
 20
46.7778
 11
149.577
 21
46.8864
  0
LINE
  8
0
 10
149.577
 20
46.8864
 11
150.433
 21
46.8864
  0
LINE
  8
0
 10
150.433
 20
46.8864
 11
151.293
 21
46.7778
  0
LINE
  8
0
 10
151.293
 20
46.7778
 11
152.132
 21
46.5623
  0
LINE
  8
0
 10
152.132
 20
46.5623
 11
152.938
 21
46.2433
  0
LINE
  8
0
 10
152.938
 20
46.2433
 11
153.697
 21
45.8259
  0
LINE
  8
0
 10
153.697
 20
45.8259
 11
154.398
 21
45.3165
  0
LINE
  8
0
 10
154.398
 20
45.3165
 11
155.03
 21
44.7234
  0
LINE
  8
0
 10
155.03
 20
44.7234
 11
155.582
 21
44.0557
  0
LINE
  8
0
 10
155.582
 20
44.0557
 11
156.047
 21
43.3241
  0
LINE
  8
0
 10
156.047
 20
43.3241
 11
156.415
 21
42.5401
  0
LINE
  8
0
 10
156.415
 20
42.5401
 11
156.683
 21
41.716
  0
LINE
  8
0
 10
156.683
 20
41.716
 11
156.846
 21
40.8648
  0
LINE
  8
0
 10
156.846
 20
40.8648
 11
156.9
 21
40
  0
LINE
  8
0
 10
156.9
 20
40
 11
156.846
 21
39.1352
  0
LINE
  8
0
 10
156.846
 20
39.1352
 11
156.683
 21
38.284
  0
LINE
  8
0
 10
156.683
 20
38.284
 11
156.415
 21
37.4599
  0
LINE
  8
0
 10
156.415
 20
37.4599
 11
156.047
 21
36.6759
  0
LINE
  8
0
 10
156.047
 20
36.6759
 11
155.582
 21
35.9443
  0
LINE
  8
0
 10
155.582
 20
35.9443
 11
155.03
 21
35.2766
  0
LINE
  8
0
 10
155.03
 20
35.2766
 11
154.398
 21
34.6835
  0
LINE
  8
0
 10
154.398
 20
34.6835
 11
153.697
 21
34.1741
  0
LINE
  8
0
 10
153.697
 20
34.1741
 11
152.938
 21
33.7567
  0
LINE
  8
0
 10
152.938
 20
33.7567
 11
152.132
 21
33.4377
  0
LINE
  8
0
 10
152.132
 20
33.4377
 11
151.293
 21
33.2222
  0
LINE
  8
0
 10
151.293
 20
33.2222
 11
150.433
 21
33.1136
  0
LINE
  8
0
 10
150.433
 20
33.1136
 11
149.577
 21
33.1136
  0
LINE
  8
0
 10
150
 20
40
 11
153.31
 21
40
  0
LINE
  8
0
 10
153.31
 20
40
 11
153.31
 21
43.3
  0
LINE
  8
0
 10
153.31
 20
43.3
 11
150
 21
43.3
  0
LINE
  8
0
 10
150
 20
43.3
 11
150
 21
40
  0
LINE
  8
0
 10
223.36
 20
16.5
 11
223.36
 21
30.1
  0
LINE
  8
0
 10
223.36
 20
30.1
 11
226.67
 21
30.1
  0
LINE
  8
0
 10
226.67
 20
30.1
 11
226.67
 21
16.5
  0
LINE
  8
0
 10
226.67
 20
16.5
 11
223.36
 21
16.5
  0
LINE
  8
0
 10
73.35
 20
16.5
 11
73.35
 21
30.1
  0
LINE
  8
0
 10
73.35
 20
30.1
 11
76.66
 21
30.1
  0
LINE
  8
0
 10
76.66
 20
30.1
 11
76.66
 21
16.5
  0
LINE
  8
0
 10
76.66
 20
16.5
 11
73.35
 21
16.5
  0
LINE
  8
0
 10
483.13
 20
3.29999
 11
490.401
 21
3.29999
  0
LINE
  8
0
 10
490.401
 20
3.29999
 11
490.401
 21
0
  0
LINE
  8
0
 10
490.401
 20
0
 11
497.671
 21
0
  0
LINE
  8
0
 10
497.671
 20
0
 11
497.671
 21
3.29999
  0
LINE
  8
0
 10
497.671
 20
3.29999
 11
504.942
 21
3.29999
  0
LINE
  8
0
 10
504.942
 20
3.29999
 11
504.942
 21
0
  0
LINE
  8
0
 10
504.942
 20
0
 11
512.212
 21
0
  0
LINE
  8
0
 10
512.212
 20
0
 11
512.212
 21
3.29999
  0
LINE
  8
0
 10
512.212
 20
3.29999
 11
519.483
 21
3.29999
  0
LINE
  8
0
 10
519.483
 20
3.29999
 11
519.483
 21
0
  0
LINE
  8
0
 10
519.483
 20
0
 11
526.754
 21
0
  0
LINE
  8
0
 10
526.754
 20
0
 11
526.754
 21
3.29999
  0
LINE
  8
0
 10
526.754
 20
3.29999
 11
534.024
 21
3.29999
  0
LINE
  8
0
 10
534.024
 20
3.29999
 11
534.024
 21
0
  0
LINE
  8
0
 10
534.024
 20
0
 11
541.295
 21
0
  0
LINE
  8
0
 10
541.295
 20
0
 11
541.295
 21
3.29999
  0
LINE
  8
0
 10
541.295
 20
3.29999
 11
548.565
 21
3.29999
  0
LINE
  8
0
 10
548.565
 20
3.29999
 11
548.565
 21
0
  0
LINE
  8
0
 10
548.565
 20
0
 11
555.836
 21
0
  0
LINE
  8
0
 10
555.836
 20
0
 11
555.836
 21
3.29999
  0
LINE
  8
0
 10
555.836
 20
3.29999
 11
563.106
 21
3.29999
  0
LINE
  8
0
 10
563.106
 20
3.29999
 11
563.106
 21
0
  0
LINE
  8
0
 10
563.106
 20
0
 11
570.377
 21
0
  0
LINE
  8
0
 10
570.377
 20
0
 11
570.377
 21
3.29999
  0
LINE
  8
0
 10
570.377
 20
3.29999
 11
577.648
 21
3.29999
  0
LINE
  8
0
 10
577.648
 20
3.29999
 11
577.648
 21
0
  0
LINE
  8
0
 10
577.648
 20
0
 11
584.918
 21
0
  0
LINE
  8
0
 10
584.918
 20
0
 11
584.918
 21
3.29999
  0
LINE
  8
0
 10
584.918
 20
3.29999
 11
592.189
 21
3.29999
  0
LINE
  8
0
 10
592.189
 20
3.29999
 11
592.189
 21
0
  0
LINE
  8
0
 10
592.189
 20
0
 11
599.459
 21
0
  0
LINE
  8
0
 10
599.459
 20
0
 11
599.459
 21
3.29999
  0
LINE
  8
0
 10
599.459
 20
3.29999
 11
606.73
 21
3.29999
  0
LINE
  8
0
 10
606.73
 20
3.29999
 11
606.73
 21
0
  0
LINE
  8
0
 10
606.73
 20
0
 11
616.63
 21
0
  0
LINE
  8
0
 10
616.63
 20
0
 11
616.63
 21
9.89999
  0
LINE
  8
0
 10
616.63
 20
9.89999
 11
619.93
 21
9.89999
  0
LINE
  8
0
 10
619.93
 20
9.89999
 11
619.93
 21
16.6333
  0
LINE
  8
0
 10
619.93
 20
16.6333
 11
616.63
 21
16.6333
  0
LINE
  8
0
 10
616.63
 20
16.6333
 11
616.63
 21
23.3667
  0
LINE
  8
0
 10
616.63
 20
23.3667
 11
619.93
 21
23.3667
  0
LINE
  8
0
 10
619.93
 20
23.3667
 11
619.93
 21
30.1
  0
LINE
  8
0
 10
619.93
 20
30.1
 11
616.63
 21
30.1
  0
LINE
  8
0
 10
616.63
 20
30.1
 11
616.63
 21
40
  0
LINE
  8
0
 10
616.63
 20
40
 11
473.23
 21
40
  0
LINE
  8
0
 10
473.23
 20
40
 11
473.23
 21
30.1
  0
LINE
  8
0
 10
473.23
 20
30.1
 11
469.93
 21
30.1
  0
LINE
  8
0
 10
469.93
 20
30.1
 11
469.93
 21
23.3667
  0
LINE
  8
0
 10
469.93
 20
23.3667
 11
473.23
 21
23.3667
  0
LINE
  8
0
 10
473.23
 20
23.3667
 11
473.23
 21
16.6333
  0
LINE
  8
0
 10
473.23
 20
16.6333
 11
469.93
 21
16.6333
  0
LINE
  8
0
 10
469.93
 20
16.6333
 11
469.93
 21
9.90001
  0
LINE
  8
0
 10
469.93
 20
9.90001
 11
473.23
 21
9.90001
  0
LINE
  8
0
 10
473.23
 20
9.90001
 11
473.23
 21
0
  0
LINE
  8
0
 10
473.23
 20
0
 11
483.13
 21
0
  0
LINE
  8
0
 10
483.13
 20
0
 11
483.13
 21
3.29999
  0
LINE
  8
0
 10
323.12
 20
3.29999
 11
330.391
 21
3.29999
  0
LINE
  8
0
 10
330.391
 20
3.29999
 11
330.391
 21
0
  0
LINE
  8
0
 10
330.391
 20
0
 11
337.661
 21
0
  0
LINE
  8
0
 10
337.661
 20
0
 11
337.661
 21
3.29999
  0
LINE
  8
0
 10
337.661
 20
3.29999
 11
344.932
 21
3.29999
  0
LINE
  8
0
 10
344.932
 20
3.29999
 11
344.932
 21
0
  0
LINE
  8
0
 10
344.932
 20
0
 11
352.202
 21
0
  0
LINE
  8
0
 10
352.202
 20
0
 11
352.202
 21
3.29999
  0
LINE
  8
0
 10
352.202
 20
3.29999
 11
359.473
 21
3.29999
  0
LINE
  8
0
 10
359.473
 20
3.29999
 11
359.473
 21
0
  0
LINE
  8
0
 10
359.473
 20
0
 11
366.744
 21
0
  0
LINE
  8
0
 10
366.744
 20
0
 11
366.744
 21
3.29999
  0
LINE
  8
0
 10
366.744
 20
3.29999
 11
374.014
 21
3.29999
  0
LINE
  8
0
 10
374.014
 20
3.29999
 11
374.014
 21
0
  0
LINE
  8
0
 10
374.014
 20
0
 11
381.285
 21
0
  0
LINE
  8
0
 10
381.285
 20
0
 11
381.285
 21
3.29999
  0
LINE
  8
0
 10
381.285
 20
3.29999
 11
388.555
 21
3.29999
  0
LINE
  8
0
 10
388.555
 20
3.29999
 11
388.555
 21
0
  0
LINE
  8
0
 10
388.555
 20
0
 11
395.826
 21
0
  0
LINE
  8
0
 10
395.826
 20
0
 11
395.826
 21
3.29999
  0
LINE
  8
0
 10
395.826
 20
3.29999
 11
403.096
 21
3.29999
  0
LINE
  8
0
 10
403.096
 20
3.29999
 11
403.096
 21
0
  0
LINE
  8
0
 10
403.096
 20
0
 11
410.367
 21
0
  0
LINE
  8
0
 10
410.367
 20
0
 11
410.367
 21
3.29999
  0
LINE
  8
0
 10
410.367
 20
3.29999
 11
417.638
 21
3.29999
  0
LINE
  8
0
 10
417.638
 20
3.29999
 11
417.638
 21
0
  0
LINE
  8
0
 10
417.638
 20
0
 11
424.908
 21
0
  0
LINE
  8
0
 10
424.908
 20
0
 11
424.908
 21
3.29999
  0
LINE
  8
0
 10
424.908
 20
3.29999
 11
432.179
 21
3.29999
  0
LINE
  8
0
 10
432.179
 20
3.29999
 11
432.179
 21
0
  0
LINE
  8
0
 10
432.179
 20
0
 11
439.449
 21
0
  0
LINE
  8
0
 10
439.449
 20
0
 11
439.449
 21
3.29999
  0
LINE
  8
0
 10
439.449
 20
3.29999
 11
446.72
 21
3.29999
  0
LINE
  8
0
 10
446.72
 20
3.29999
 11
446.72
 21
0
  0
LINE
  8
0
 10
446.72
 20
0
 11
456.62
 21
0
  0
LINE
  8
0
 10
456.62
 20
0
 11
456.62
 21
9.89999
  0
LINE
  8
0
 10
456.62
 20
9.89999
 11
459.92
 21
9.89999
  0
LINE
  8
0
 10
459.92
 20
9.89999
 11
459.92
 21
16.6333
  0
LINE
  8
0
 10
459.92
 20
16.6333
 11
456.62
 21
16.6333
  0
LINE
  8
0
 10
456.62
 20
16.6333
 11
456.62
 21
23.3667
  0
LINE
  8
0
 10
456.62
 20
23.3667
 11
459.92
 21
23.3667
  0
LINE
  8
0
 10
459.92
 20
23.3667
 11
459.92
 21
30.1
  0
LINE
  8
0
 10
459.92
 20
30.1
 11
456.62
 21
30.1
  0
LINE
  8
0
 10
456.62
 20
30.1
 11
456.62
 21
40
  0
LINE
  8
0
 10
456.62
 20
40
 11
313.22
 21
40
  0
LINE
  8
0
 10
313.22
 20
40
 11
313.22
 21
30.1
  0
LINE
  8
0
 10
313.22
 20
30.1
 11
309.92
 21
30.1
  0
LINE
  8
0
 10
309.92
 20
30.1
 11
309.92
 21
23.3667
  0
LINE
  8
0
 10
309.92
 20
23.3667
 11
313.22
 21
23.3667
  0
LINE
  8
0
 10
313.22
 20
23.3667
 11
313.22
 21
16.6333
  0
LINE
  8
0
 10
313.22
 20
16.6333
 11
309.92
 21
16.6333
  0
LINE
  8
0
 10
309.92
 20
16.6333
 11
309.92
 21
9.90001
  0
LINE
  8
0
 10
309.92
 20
9.90001
 11
313.22
 21
9.90001
  0
LINE
  8
0
 10
313.22
 20
9.90001
 11
313.22
 21
0
  0
LINE
  8
0
 10
313.22
 20
0
 11
323.12
 21
0
  0
LINE
  8
0
 10
323.12
 20
0
 11
323.12
 21
3.29999
  0
ENDSEC
  0
SECTION
  2
OBJECTS
  0
DICTIONARY
  0
ENDSEC
  0
EOF
