  0
SECTION
  2
BLOCKS
  0
ENDSEC
  0
SECTION
  2
ENTITIES
  0
LINE
  8
0
 10
20.9264
 20
0.0257874
 11
20.9942
 21
0.0696564
  0
LINE
  8
0
 10
20.9942
 20
0.0696564
 11
21.2123
 21
0.19017
  0
LINE
  8
0
 10
21.2123
 20
0.19017
 11
21.3023
 21
0.231979
  0
LINE
  8
0
 10
21.3023
 20
0.231979
 11
21.3209
 21
0.429321
  0
LINE
  8
0
 10
21.3209
 20
0.429321
 11
21.3843
 21
0.659119
  0
LINE
  8
0
 10
21.3843
 20
0.659119
 11
21.4861
 21
0.870377
  0
LINE
  8
0
 10
21.4861
 20
0.870377
 11
21.6227
 21
1.05547
  0
LINE
  8
0
 10
21.6227
 20
1.05547
 11
21.7891
 21
1.20767
  0
LINE
  8
0
 10
21.7891
 20
1.20767
 11
21.9792
 21
1.32152
  0
LINE
  8
0
 10
21.9792
 20
1.32152
 11
22.1864
 21
1.39288
  0
LINE
  8
0
 10
22.1864
 20
1.39288
 11
22.4029
 21
1.41917
  0
LINE
  8
0
 10
22.4029
 20
1.41917
 11
22.6211
 21
1.39946
  0
LINE
  8
0
 10
22.6211
 20
1.39946
 11
22.833
 21
1.33444
  0
LINE
  8
0
 10
22.833
 20
1.33444
 11
23.031
 21
1.22647
  0
LINE
  8
0
 10
23.031
 20
1.22647
 11
23.2079
 21
1.07945
  0
LINE
  8
0
 10
23.2079
 20
1.07945
 11
23.3573
 21
0.898697
  0
LINE
  8
0
 10
23.3573
 20
0.898697
 11
23.4739
 21
0.690735
  0
LINE
  8
0
 10
23.4739
 20
0.690735
 11
23.5392
 21
0.503586
  0
LINE
  8
0
 10
23.5392
 20
0.503586
 11
23.6365
 21
0.484528
  0
LINE
  8
0
 10
23.6365
 20
0.484528
 11
23.8771
 21
0.419708
  0
LINE
  8
0
 10
23.8771
 20
0.419708
 11
23.9446
 21
0.396378
  0
LINE
  8
0
 10
23.9446
 20
0.396378
 11
24.1334
 21
0.436508
  0
LINE
  8
0
 10
24.1334
 20
0.436508
 11
24.1841
 21
0.482376
  0
LINE
  8
0
 10
24.1841
 20
0.482376
 11
24.38
 21
0.636322
  0
LINE
  8
0
 10
24.38
 20
0.636322
 11
24.4621
 21
0.692001
  0
LINE
  8
0
 10
24.4621
 20
0.692001
 11
24.4489
 21
0.889786
  0
LINE
  8
0
 10
24.4489
 20
0.889786
 11
24.4746
 21
1.12679
  0
LINE
  8
0
 10
24.4746
 20
1.12679
 11
24.5412
 21
1.35164
  0
LINE
  8
0
 10
24.5412
 20
1.35164
 11
24.6463
 21
1.55623
  0
LINE
  8
0
 10
24.6463
 20
1.55623
 11
24.7861
 21
1.73315
  0
LINE
  8
0
 10
24.7861
 20
1.73315
 11
24.9556
 21
1.87604
  0
LINE
  8
0
 10
24.9556
 20
1.87604
 11
25.1486
 21
1.97971
  0
LINE
  8
0
 10
25.1486
 20
1.97971
 11
25.3581
 21
2.04039
  0
LINE
  8
0
 10
25.3581
 20
2.04039
 11
25.5766
 21
2.05592
  0
LINE
  8
0
 10
25.5766
 20
2.05592
 11
25.7962
 21
2.02574
  0
LINE
  8
0
 10
25.7962
 20
2.02574
 11
26.0089
 21
1.95093
  0
LINE
  8
0
 10
26.0089
 20
1.95093
 11
26.2071
 21
1.83418
  0
LINE
  8
0
 10
26.2071
 20
1.83418
 11
26.3836
 21
1.67975
  0
LINE
  8
0
 10
26.3836
 20
1.67975
 11
26.532
 21
1.49318
  0
LINE
  8
0
 10
26.532
 20
1.49318
 11
26.6265
 21
1.31892
  0
LINE
  8
0
 10
26.6265
 20
1.31892
 11
26.7256
 21
1.31573
  0
LINE
  8
0
 10
26.7256
 20
1.31573
 11
26.9735
 21
1.29034
  0
LINE
  8
0
 10
26.9735
 20
1.29034
 11
27.0421
 21
1.27844
  0
LINE
  8
0
 10
27.0421
 20
1.27844
 11
27.2199
 21
1.34315
  0
LINE
  8
0
 10
27.2199
 20
1.34315
 11
27.2665
 21
1.40144
  0
LINE
  8
0
 10
27.2665
 20
1.40144
 11
27.4352
 21
1.58482
  0
LINE
  8
0
 10
27.4352
 20
1.58482
 11
27.5073
 21
1.65295
  0
LINE
  8
0
 10
27.5073
 20
1.65295
 11
27.4624
 21
1.84604
  0
LINE
  8
0
 10
27.4624
 20
1.84604
 11
27.4498
 21
2.08409
  0
LINE
  8
0
 10
27.4498
 20
2.08409
 11
27.4795
 21
2.31673
  0
LINE
  8
0
 10
27.4795
 20
2.31673
 11
27.5504
 21
2.53554
  0
LINE
  8
0
 10
27.5504
 20
2.53554
 11
27.66
 21
2.7326
  0
LINE
  8
0
 10
27.66
 20
2.7326
 11
27.8044
 21
2.90082
  0
LINE
  8
0
 10
27.8044
 20
2.90082
 11
27.9783
 21
3.03409
  0
LINE
  8
0
 10
27.9783
 20
3.03409
 11
28.1753
 21
3.12761
  0
LINE
  8
0
 10
28.1753
 20
3.12761
 11
28.3885
 21
3.17799
  0
LINE
  8
0
 10
28.3885
 20
3.17799
 11
28.6101
 21
3.18343
  0
LINE
  8
0
 10
28.6101
 20
3.18343
 11
28.8321
 21
3.14371
  0
LINE
  8
0
 10
28.8321
 20
3.14371
 11
29.0465
 21
3.06027
  0
LINE
  8
0
 10
29.0465
 20
3.06027
 11
29.2454
 21
2.93613
  0
LINE
  8
0
 10
29.2454
 20
2.93613
 11
29.4218
 21
2.77579
  0
LINE
  8
0
 10
29.4218
 20
2.77579
 11
29.543
 21
2.61896
  0
LINE
  8
0
 10
29.543
 20
2.61896
 11
29.6414
 21
2.6317
  0
LINE
  8
0
 10
29.6414
 20
2.6317
 11
29.8902
 21
2.64641
  0
LINE
  8
0
 10
29.8902
 20
2.64641
 11
29.9771
 21
2.64548
  0
LINE
  8
0
 10
29.9771
 20
2.64548
 11
30.0494
 21
2.6839
  0
LINE
  8
0
 10
30.0494
 20
2.6839
 11
30.1188
 21
2.72726
  0
LINE
  8
0
 10
30.1188
 20
2.72726
 11
30.1615
 21
2.80305
  0
LINE
  8
0
 10
30.1615
 20
2.80305
 11
30.2986
 21
3.01112
  0
LINE
  8
0
 10
30.2986
 20
3.01112
 11
30.3588
 21
3.08994
  0
LINE
  8
0
 10
30.3588
 20
3.08994
 11
30.2836
 21
3.27333
  0
LINE
  8
0
 10
30.2836
 20
3.27333
 11
30.233
 21
3.50627
  0
LINE
  8
0
 10
30.233
 20
3.50627
 11
30.2249
 21
3.74066
  0
LINE
  8
0
 10
30.2249
 20
3.74066
 11
30.2598
 21
3.968
  0
LINE
  8
0
 10
30.2598
 20
3.968
 11
30.3364
 21
4.18011
  0
LINE
  8
0
 10
30.3364
 20
4.18011
 11
30.4519
 21
4.36929
  0
LINE
  8
0
 10
30.4519
 20
4.36929
 11
30.6022
 21
4.52873
  0
LINE
  8
0
 10
30.6022
 20
4.52873
 11
30.7817
 21
4.65266
  0
LINE
  8
0
 10
30.7817
 20
4.65266
 11
30.9841
 21
4.7366
  0
LINE
  8
0
 10
30.9841
 20
4.7366
 11
31.2019
 21
4.7775
  0
LINE
  8
0
 10
31.2019
 20
4.7775
 11
31.4274
 21
4.77391
  0
LINE
  8
0
 10
31.4274
 20
4.77391
 11
31.6523
 21
4.72594
  0
LINE
  8
0
 10
31.6523
 20
4.72594
 11
31.8687
 21
4.63531
  0
LINE
  8
0
 10
31.8687
 20
4.63531
 11
32.0685
 21
4.50534
  0
LINE
  8
0
 10
32.0685
 20
4.50534
 11
32.2133
 21
4.36998
  0
LINE
  8
0
 10
32.2133
 20
4.36998
 11
32.3083
 21
4.39835
  0
LINE
  8
0
 10
32.3083
 20
4.39835
 11
32.5515
 21
4.45277
  0
LINE
  8
0
 10
32.5515
 20
4.45277
 11
32.6253
 21
4.46394
  0
LINE
  8
0
 10
32.6253
 20
4.46394
 11
32.7702
 21
4.58556
  0
LINE
  8
0
 10
32.7702
 20
4.58556
 11
32.7942
 21
4.65091
  0
LINE
  8
0
 10
32.7942
 20
4.65091
 11
32.8962
 21
4.87828
  0
LINE
  8
0
 10
32.8962
 20
4.87828
 11
32.943
 21
4.96574
  0
LINE
  8
0
 10
32.943
 20
4.96574
 11
32.8393
 21
5.13469
  0
LINE
  8
0
 10
32.8393
 20
5.13469
 11
32.7519
 21
5.35649
  0
LINE
  8
0
 10
32.7519
 20
5.35649
 11
32.7064
 21
5.58655
  0
LINE
  8
0
 10
32.7064
 20
5.58655
 11
32.7044
 21
5.81656
  0
LINE
  8
0
 10
32.7044
 20
5.81656
 11
32.746
 21
6.03819
  0
LINE
  8
0
 10
32.746
 20
6.03819
 11
32.8296
 21
6.24347
  0
LINE
  8
0
 10
32.8296
 20
6.24347
 11
32.9523
 21
6.42494
  0
LINE
  8
0
 10
32.9523
 20
6.42494
 11
33.1097
 21
6.57605
  0
LINE
  8
0
 10
33.1097
 20
6.57605
 11
33.296
 21
6.69136
  0
LINE
  8
0
 10
33.296
 20
6.69136
 11
33.5044
 21
6.76669
  0
LINE
  8
0
 10
33.5044
 20
6.76669
 11
33.7276
 21
6.7993
  0
LINE
  8
0
 10
33.7276
 20
6.7993
 11
33.9573
 21
6.78804
  0
LINE
  8
0
 10
33.9573
 20
6.78804
 11
34.1853
 21
6.73329
  0
LINE
  8
0
 10
34.1853
 20
6.73329
 11
34.4034
 21
6.63705
  0
LINE
  8
0
 10
34.4034
 20
6.63705
 11
34.5681
 21
6.52669
  0
LINE
  8
0
 10
34.5681
 20
6.52669
 11
34.6573
 21
6.56993
  0
LINE
  8
0
 10
34.6573
 20
6.56993
 11
34.8886
 21
6.66266
  0
LINE
  8
0
 10
34.8886
 20
6.66266
 11
34.9537
 21
6.68361
  0
LINE
  8
0
 10
34.9537
 20
6.68361
 11
35.0829
 21
6.82704
  0
LINE
  8
0
 10
35.0829
 20
6.82704
 11
35.0964
 21
6.89716
  0
LINE
  8
0
 10
35.0964
 20
6.89716
 11
35.1606
 21
7.13794
  0
LINE
  8
0
 10
35.1606
 20
7.13794
 11
35.1927
 21
7.23177
  0
LINE
  8
0
 10
35.1927
 20
7.23177
 11
35.0633
 21
7.38191
  0
LINE
  8
0
 10
35.0633
 20
7.38191
 11
34.9415
 21
7.58682
  0
LINE
  8
0
 10
34.9415
 20
7.58682
 11
34.8596
 21
7.80659
  0
LINE
  8
0
 10
34.8596
 20
7.80659
 11
34.8208
 21
8.03329
  0
LINE
  8
0
 10
34.8208
 20
8.03329
 11
34.8263
 21
8.25874
  0
LINE
  8
0
 10
34.8263
 20
8.25874
 11
34.8759
 21
8.47478
  0
LINE
  8
0
 10
34.8759
 20
8.47478
 11
34.9679
 21
8.67358
  0
LINE
  8
0
 10
34.9679
 20
8.67358
 11
35.099
 21
8.84798
  0
LINE
  8
0
 10
35.099
 20
8.84798
 11
35.2643
 21
8.99167
  0
LINE
  8
0
 10
35.2643
 20
8.99167
 11
35.458
 21
9.09946
  0
LINE
  8
0
 10
35.458
 20
9.09946
 11
35.673
 21
9.16745
  0
LINE
  8
0
 10
35.673
 20
9.16745
 11
35.9016
 21
9.19318
  0
LINE
  8
0
 10
35.9016
 20
9.19318
 11
36.1355
 21
9.17574
  0
LINE
  8
0
 10
36.1355
 20
9.17574
 11
36.3662
 21
9.11572
  0
LINE
  8
0
 10
36.3662
 20
9.11572
 11
36.5464
 21
9.03319
  0
LINE
  8
0
 10
36.5464
 20
9.03319
 11
36.6276
 21
9.09019
  0
LINE
  8
0
 10
36.6276
 20
9.09019
 11
36.841
 21
9.21881
  0
LINE
  8
0
 10
36.841
 20
9.21881
 11
36.9129
 21
9.25557
  0
LINE
  8
0
 10
36.9129
 20
9.25557
 11
37.0058
 21
9.3933
  0
LINE
  8
0
 10
37.0058
 20
9.3933
 11
37.0085
 21
9.48361
  0
LINE
  8
0
 10
37.0085
 20
9.48361
 11
37.0332
 21
9.73157
  0
LINE
  8
0
 10
37.0332
 20
9.73157
 11
37.0499
 21
9.82935
  0
LINE
  8
0
 10
37.0499
 20
9.82935
 11
36.898
 21
9.95677
  0
LINE
  8
0
 10
36.898
 20
9.95677
 11
36.7449
 21
10.1395
  0
LINE
  8
0
 10
36.7449
 20
10.1395
 11
36.6289
 21
10.3433
  0
LINE
  8
0
 10
36.6289
 20
10.3433
 11
36.5542
 21
10.5608
  0
LINE
  8
0
 10
36.5542
 20
10.5608
 11
36.5234
 21
10.7842
  0
LINE
  8
0
 10
36.5234
 20
10.7842
 11
36.5378
 21
11.0054
  0
LINE
  8
0
 10
36.5378
 20
11.0054
 11
36.5967
 21
11.2164
  0
LINE
  8
0
 10
36.5967
 20
11.2164
 11
36.6981
 21
11.4096
  0
LINE
  8
0
 10
36.6981
 20
11.4096
 11
36.8382
 21
11.5779
  0
LINE
  8
0
 10
36.8382
 20
11.5779
 11
37.0121
 21
11.7154
  0
LINE
  8
0
 10
37.0121
 20
11.7154
 11
37.2135
 21
11.817
  0
LINE
  8
0
 10
37.2135
 20
11.817
 11
37.4349
 21
11.8791
  0
LINE
  8
0
 10
37.4349
 20
11.8791
 11
37.6686
 21
11.8994
  0
LINE
  8
0
 10
37.6686
 20
11.8994
 11
37.9059
 21
11.8771
  0
LINE
  8
0
 10
37.9059
 20
11.8771
 11
38.097
 21
11.8246
  0
LINE
  8
0
 10
38.097
 20
11.8246
 11
38.168
 21
11.8939
  0
LINE
  8
0
 10
38.168
 20
11.8939
 11
38.358
 21
12.0551
  0
LINE
  8
0
 10
38.358
 20
12.0551
 11
38.4216
 21
12.1017
  0
LINE
  8
0
 10
38.4216
 20
12.1017
 11
38.4903
 21
12.2718
  0
LINE
  8
0
 10
38.4903
 20
12.2718
 11
38.4809
 21
12.3433
  0
LINE
  8
0
 10
38.4809
 20
12.3433
 11
38.4655
 21
12.592
  0
LINE
  8
0
 10
38.4655
 20
12.592
 11
38.4663
 21
12.6912
  0
LINE
  8
0
 10
38.4663
 20
12.6912
 11
38.296
 21
12.7926
  0
LINE
  8
0
 10
38.296
 20
12.7926
 11
38.1155
 21
12.9484
  0
LINE
  8
0
 10
38.1155
 20
12.9484
 11
37.9683
 21
13.131
  0
LINE
  8
0
 10
37.9683
 20
13.131
 11
37.8596
 21
13.3337
  0
LINE
  8
0
 10
37.8596
 20
13.3337
 11
37.7935
 21
13.5493
  0
LINE
  8
0
 10
37.7935
 20
13.5493
 11
37.7721
 21
13.7699
  0
LINE
  8
0
 10
37.7721
 20
13.7699
 11
37.7965
 21
13.9876
  0
LINE
  8
0
 10
37.7965
 20
13.9876
 11
37.8655
 21
14.1945
  0
LINE
  8
0
 10
37.8655
 20
14.1945
 11
37.9769
 21
14.3832
  0
LINE
  8
0
 10
37.9769
 20
14.3832
 11
38.1265
 21
14.5468
  0
LINE
  8
0
 10
38.1265
 20
14.5468
 11
38.3089
 21
14.6794
  0
LINE
  8
0
 10
38.3089
 20
14.6794
 11
38.5176
 21
14.7761
  0
LINE
  8
0
 10
38.5176
 20
14.7761
 11
38.7449
 21
14.8336
  0
LINE
  8
0
 10
38.7449
 20
14.8336
 11
38.9828
 21
14.8498
  0
LINE
  8
0
 10
38.9828
 20
14.8498
 11
39.1798
 21
14.8286
  0
LINE
  8
0
 10
39.1798
 20
14.8286
 11
39.2388
 21
14.9083
  0
LINE
  8
0
 10
39.2388
 20
14.9083
 11
39.4005
 21
15.0979
  0
LINE
  8
0
 10
39.4005
 20
15.0979
 11
39.4483
 21
15.1466
  0
LINE
  8
0
 10
39.4483
 20
15.1466
 11
39.4955
 21
15.3358
  0
LINE
  8
0
 10
39.4955
 20
15.3358
 11
39.4755
 21
15.4021
  0
LINE
  8
0
 10
39.4755
 20
15.4021
 11
39.4204
 21
15.6451
  0
LINE
  8
0
 10
39.4204
 20
15.6451
 11
39.4053
 21
15.7432
  0
LINE
  8
0
 10
39.4053
 20
15.7432
 11
39.2209
 21
15.816
  0
LINE
  8
0
 10
39.2209
 20
15.816
 11
39.0178
 21
15.9408
  0
LINE
  8
0
 10
39.0178
 20
15.9408
 11
38.8432
 21
16.0974
  0
LINE
  8
0
 10
38.8432
 20
16.0974
 11
38.7034
 21
16.28
  0
LINE
  8
0
 10
38.7034
 20
16.28
 11
38.6035
 21
16.4822
  0
LINE
  8
0
 10
38.6035
 20
16.4822
 11
38.5471
 21
16.6966
  0
LINE
  8
0
 10
38.5471
 20
16.6966
 11
38.5362
 21
16.9154
  0
LINE
  8
0
 10
38.5362
 20
16.9154
 11
38.5712
 21
17.1307
  0
LINE
  8
0
 10
38.5712
 20
17.1307
 11
38.6508
 21
17.3348
  0
LINE
  8
0
 10
38.6508
 20
17.3348
 11
38.7722
 21
17.5202
  0
LINE
  8
0
 10
38.7722
 20
17.5202
 11
38.931
 21
17.6803
  0
LINE
  8
0
 10
38.931
 20
17.6803
 11
39.1214
 21
17.8094
  0
LINE
  8
0
 10
39.1214
 20
17.8094
 11
39.3366
 21
17.9026
  0
LINE
  8
0
 10
39.3366
 20
17.9026
 11
39.5688
 21
17.9567
  0
LINE
  8
0
 10
39.5688
 20
17.9567
 11
39.7667
 21
17.9673
  0
LINE
  8
0
 10
39.7667
 20
17.9673
 11
39.8121
 21
18.0555
  0
LINE
  8
0
 10
39.8121
 20
18.0555
 11
39.9413
 21
18.2686
  0
LINE
  8
0
 10
39.9413
 20
18.2686
 11
39.985
 21
18.3305
  0
LINE
  8
0
 10
39.985
 20
18.3305
 11
40.0034
 21
18.5053
  0
LINE
  8
0
 10
40.0034
 20
18.5053
 11
39.9665
 21
18.5809
  0
LINE
  8
0
 10
39.9665
 20
18.5809
 11
39.8732
 21
18.8119
  0
LINE
  8
0
 10
39.8732
 20
18.8119
 11
39.8425
 21
18.9063
  0
LINE
  8
0
 10
39.8425
 20
18.9063
 11
39.6489
 21
18.9485
  0
LINE
  8
0
 10
39.6489
 20
18.9485
 11
39.4284
 21
19.0392
  0
LINE
  8
0
 10
39.4284
 20
19.0392
 11
39.2309
 21
19.1657
  0
LINE
  8
0
 10
39.2309
 20
19.1657
 11
39.0637
 21
19.3236
  0
LINE
  8
0
 10
39.0637
 20
19.3236
 11
38.9326
 21
19.5071
  0
LINE
  8
0
 10
38.9326
 20
19.5071
 11
38.8425
 21
19.7096
  0
LINE
  8
0
 10
38.8425
 20
19.7096
 11
38.7966
 21
19.9239
  0
LINE
  8
0
 10
38.7966
 20
19.9239
 11
38.7966
 21
20.142
  0
LINE
  8
0
 10
38.7966
 20
20.142
 11
38.8425
 21
20.3562
  0
LINE
  8
0
 10
38.8425
 20
20.3562
 11
38.9326
 21
20.5587
  0
LINE
  8
0
 10
38.9326
 20
20.5587
 11
39.0637
 21
20.7423
  0
LINE
  8
0
 10
39.0637
 20
20.7423
 11
39.2309
 21
20.9002
  0
LINE
  8
0
 10
39.2309
 20
20.9002
 11
39.4284
 21
21.0267
  0
LINE
  8
0
 10
39.4284
 20
21.0267
 11
39.6489
 21
21.1173
  0
LINE
  8
0
 10
39.6489
 20
21.1173
 11
39.8425
 21
21.1596
  0
LINE
  8
0
 10
39.8425
 20
21.1596
 11
39.8732
 21
21.254
  0
LINE
  8
0
 10
39.8732
 20
21.254
 11
39.9665
 21
21.485
  0
LINE
  8
0
 10
39.9665
 20
21.485
 11
40.0034
 21
21.5606
  0
LINE
  8
0
 10
40.0034
 20
21.5606
 11
39.985
 21
21.7354
  0
LINE
  8
0
 10
39.985
 20
21.7354
 11
39.9413
 21
21.7973
  0
LINE
  8
0
 10
39.9413
 20
21.7973
 11
39.8121
 21
22.0103
  0
LINE
  8
0
 10
39.8121
 20
22.0103
 11
39.7667
 21
22.0985
  0
LINE
  8
0
 10
39.7667
 20
22.0985
 11
39.5688
 21
22.1092
  0
LINE
  8
0
 10
39.5688
 20
22.1092
 11
39.3366
 21
22.1633
  0
LINE
  8
0
 10
39.3366
 20
22.1633
 11
39.1214
 21
22.2565
  0
LINE
  8
0
 10
39.1214
 20
22.2565
 11
38.931
 21
22.3855
  0
LINE
  8
0
 10
38.931
 20
22.3855
 11
38.7722
 21
22.5457
  0
LINE
  8
0
 10
38.7722
 20
22.5457
 11
38.6508
 21
22.7311
  0
LINE
  8
0
 10
38.6508
 20
22.7311
 11
38.5712
 21
22.9352
  0
LINE
  8
0
 10
38.5712
 20
22.9352
 11
38.5362
 21
23.1505
  0
LINE
  8
0
 10
38.5362
 20
23.1505
 11
38.5471
 21
23.3693
  0
LINE
  8
0
 10
38.5471
 20
23.3693
 11
38.6035
 21
23.5837
  0
LINE
  8
0
 10
38.6035
 20
23.5837
 11
38.7034
 21
23.7858
  0
LINE
  8
0
 10
38.7034
 20
23.7858
 11
38.8432
 21
23.9685
  0
LINE
  8
0
 10
38.8432
 20
23.9685
 11
39.0178
 21
24.1251
  0
LINE
  8
0
 10
39.0178
 20
24.1251
 11
39.2209
 21
24.2499
  0
LINE
  8
0
 10
39.2209
 20
24.2499
 11
39.4053
 21
24.3227
  0
LINE
  8
0
 10
39.4053
 20
24.3227
 11
39.4204
 21
24.4207
  0
LINE
  8
0
 10
39.4204
 20
24.4207
 11
39.4755
 21
24.6638
  0
LINE
  8
0
 10
39.4755
 20
24.6638
 11
39.4955
 21
24.7301
  0
LINE
  8
0
 10
39.4955
 20
24.7301
 11
39.4483
 21
24.9192
  0
LINE
  8
0
 10
39.4483
 20
24.9192
 11
39.4005
 21
24.9679
  0
LINE
  8
0
 10
39.4005
 20
24.9679
 11
39.2388
 21
25.1575
  0
LINE
  8
0
 10
39.2388
 20
25.1575
 11
39.1798
 21
25.2373
  0
LINE
  8
0
 10
39.1798
 20
25.2373
 11
38.9828
 21
25.2161
  0
LINE
  8
0
 10
38.9828
 20
25.2161
 11
38.7449
 21
25.2322
  0
LINE
  8
0
 10
38.7449
 20
25.2322
 11
38.5176
 21
25.2897
  0
LINE
  8
0
 10
38.5176
 20
25.2897
 11
38.3089
 21
25.3865
  0
LINE
  8
0
 10
38.3089
 20
25.3865
 11
38.1265
 21
25.5191
  0
LINE
  8
0
 10
38.1265
 20
25.5191
 11
37.9769
 21
25.6827
  0
LINE
  8
0
 10
37.9769
 20
25.6827
 11
37.8655
 21
25.8713
  0
LINE
  8
0
 10
37.8655
 20
25.8713
 11
37.7965
 21
26.0783
  0
LINE
  8
0
 10
37.7965
 20
26.0783
 11
37.7721
 21
26.296
  0
LINE
  8
0
 10
37.7721
 20
26.296
 11
37.7935
 21
26.5166
  0
LINE
  8
0
 10
37.7935
 20
26.5166
 11
37.8596
 21
26.7322
  0
LINE
  8
0
 10
37.8596
 20
26.7322
 11
37.9683
 21
26.9349
  0
LINE
  8
0
 10
37.9683
 20
26.9349
 11
38.1155
 21
27.1175
  0
LINE
  8
0
 10
38.1155
 20
27.1175
 11
38.296
 21
27.2733
  0
LINE
  8
0
 10
38.296
 20
27.2733
 11
38.4663
 21
27.3747
  0
LINE
  8
0
 10
38.4663
 20
27.3747
 11
38.4655
 21
27.4739
  0
LINE
  8
0
 10
38.4655
 20
27.4739
 11
38.4809
 21
27.7226
  0
LINE
  8
0
 10
38.4809
 20
27.7226
 11
38.4903
 21
27.794
  0
LINE
  8
0
 10
38.4903
 20
27.794
 11
38.4216
 21
27.9641
  0
LINE
  8
0
 10
38.4216
 20
27.9641
 11
38.358
 21
28.0108
  0
LINE
  8
0
 10
38.358
 20
28.0108
 11
38.168
 21
28.172
  0
LINE
  8
0
 10
38.168
 20
28.172
 11
38.097
 21
28.2413
  0
LINE
  8
0
 10
38.097
 20
28.2413
 11
37.9059
 21
28.1887
  0
LINE
  8
0
 10
37.9059
 20
28.1887
 11
37.6686
 21
28.1665
  0
LINE
  8
0
 10
37.6686
 20
28.1665
 11
37.4349
 21
28.1868
  0
LINE
  8
0
 10
37.4349
 20
28.1868
 11
37.2135
 21
28.2489
  0
LINE
  8
0
 10
37.2135
 20
28.2489
 11
37.0121
 21
28.3505
  0
LINE
  8
0
 10
37.0121
 20
28.3505
 11
36.8382
 21
28.4879
  0
LINE
  8
0
 10
36.8382
 20
28.4879
 11
36.6981
 21
28.6563
  0
LINE
  8
0
 10
36.6981
 20
28.6563
 11
36.5967
 21
28.8495
  0
LINE
  8
0
 10
36.5967
 20
28.8495
 11
36.5378
 21
29.0604
  0
LINE
  8
0
 10
36.5378
 20
29.0604
 11
36.5234
 21
29.2816
  0
LINE
  8
0
 10
36.5234
 20
29.2816
 11
36.5542
 21
29.505
  0
LINE
  8
0
 10
36.5542
 20
29.505
 11
36.6289
 21
29.7226
  0
LINE
  8
0
 10
36.6289
 20
29.7226
 11
36.7449
 21
29.9264
  0
LINE
  8
0
 10
36.7449
 20
29.9264
 11
36.898
 21
30.1091
  0
LINE
  8
0
 10
36.898
 20
30.1091
 11
37.0499
 21
30.2365
  0
LINE
  8
0
 10
37.0499
 20
30.2365
 11
37.0332
 21
30.3343
  0
LINE
  8
0
 10
37.0332
 20
30.3343
 11
37.0085
 21
30.5823
  0
LINE
  8
0
 10
37.0085
 20
30.5823
 11
37.0058
 21
30.6726
  0
LINE
  8
0
 10
37.0058
 20
30.6726
 11
36.9129
 21
30.8103
  0
LINE
  8
0
 10
36.9129
 20
30.8103
 11
36.841
 21
30.847
  0
LINE
  8
0
 10
36.841
 20
30.847
 11
36.6276
 21
30.9757
  0
LINE
  8
0
 10
36.6276
 20
30.9757
 11
36.5464
 21
31.0327
  0
LINE
  8
0
 10
36.5464
 20
31.0327
 11
36.3662
 21
30.9501
  0
LINE
  8
0
 10
36.3662
 20
30.9501
 11
36.1355
 21
30.8901
  0
LINE
  8
0
 10
36.1355
 20
30.8901
 11
35.9016
 21
30.8727
  0
LINE
  8
0
 10
35.9016
 20
30.8727
 11
35.673
 21
30.8984
  0
LINE
  8
0
 10
35.673
 20
30.8984
 11
35.458
 21
30.9664
  0
LINE
  8
0
 10
35.458
 20
30.9664
 11
35.2643
 21
31.0742
  0
LINE
  8
0
 10
35.2643
 20
31.0742
 11
35.099
 21
31.2179
  0
LINE
  8
0
 10
35.099
 20
31.2179
 11
34.9679
 21
31.3923
  0
LINE
  8
0
 10
34.9679
 20
31.3923
 11
34.8759
 21
31.5911
  0
LINE
  8
0
 10
34.8759
 20
31.5911
 11
34.8263
 21
31.8071
  0
LINE
  8
0
 10
34.8263
 20
31.8071
 11
34.8208
 21
32.0326
  0
LINE
  8
0
 10
34.8208
 20
32.0326
 11
34.8596
 21
32.2593
  0
LINE
  8
0
 10
34.8596
 20
32.2593
 11
34.9415
 21
32.479
  0
LINE
  8
0
 10
34.9415
 20
32.479
 11
35.0633
 21
32.684
  0
LINE
  8
0
 10
35.0633
 20
32.684
 11
35.1927
 21
32.8341
  0
LINE
  8
0
 10
35.1927
 20
32.8341
 11
35.1606
 21
32.9279
  0
LINE
  8
0
 10
35.1606
 20
32.9279
 11
35.0964
 21
33.1687
  0
LINE
  8
0
 10
35.0964
 20
33.1687
 11
35.0829
 21
33.2388
  0
LINE
  8
0
 10
35.0829
 20
33.2388
 11
34.9537
 21
33.3823
  0
LINE
  8
0
 10
34.9537
 20
33.3823
 11
34.8886
 21
33.4032
  0
LINE
  8
0
 10
34.8886
 20
33.4032
 11
34.6573
 21
33.4959
  0
LINE
  8
0
 10
34.6573
 20
33.4959
 11
34.5681
 21
33.5392
  0
LINE
  8
0
 10
34.5681
 20
33.5392
 11
34.4034
 21
33.4288
  0
LINE
  8
0
 10
34.4034
 20
33.4288
 11
34.1853
 21
33.3326
  0
LINE
  8
0
 10
34.1853
 20
33.3326
 11
33.9573
 21
33.2778
  0
LINE
  8
0
 10
33.9573
 20
33.2778
 11
33.7276
 21
33.2666
  0
LINE
  8
0
 10
33.7276
 20
33.2666
 11
33.5044
 21
33.2992
  0
LINE
  8
0
 10
33.5044
 20
33.2992
 11
33.296
 21
33.3745
  0
LINE
  8
0
 10
33.296
 20
33.3745
 11
33.1097
 21
33.4898
  0
LINE
  8
0
 10
33.1097
 20
33.4898
 11
32.9523
 21
33.6409
  0
LINE
  8
0
 10
32.9523
 20
33.6409
 11
32.8296
 21
33.8224
  0
LINE
  8
0
 10
32.8296
 20
33.8224
 11
32.746
 21
34.0277
  0
LINE
  8
0
 10
32.746
 20
34.0277
 11
32.7044
 21
34.2493
  0
LINE
  8
0
 10
32.7044
 20
34.2493
 11
32.7064
 21
34.4793
  0
LINE
  8
0
 10
32.7064
 20
34.4793
 11
32.7519
 21
34.7094
  0
LINE
  8
0
 10
32.7519
 20
34.7094
 11
32.8393
 21
34.9312
  0
LINE
  8
0
 10
32.8393
 20
34.9312
 11
32.943
 21
35.1001
  0
LINE
  8
0
 10
32.943
 20
35.1001
 11
32.8962
 21
35.1876
  0
LINE
  8
0
 10
32.8962
 20
35.1876
 11
32.7942
 21
35.415
  0
LINE
  8
0
 10
32.7942
 20
35.415
 11
32.7702
 21
35.4803
  0
LINE
  8
0
 10
32.7702
 20
35.4803
 11
32.6253
 21
35.6019
  0
LINE
  8
0
 10
32.6253
 20
35.6019
 11
32.5515
 21
35.6131
  0
LINE
  8
0
 10
32.5515
 20
35.6131
 11
32.3083
 21
35.6675
  0
LINE
  8
0
 10
32.3083
 20
35.6675
 11
32.2133
 21
35.6959
  0
LINE
  8
0
 10
32.2133
 20
35.6959
 11
32.0685
 21
35.5605
  0
LINE
  8
0
 10
32.0685
 20
35.5605
 11
31.8687
 21
35.4306
  0
LINE
  8
0
 10
31.8687
 20
35.4306
 11
31.6523
 21
35.3399
  0
LINE
  8
0
 10
31.6523
 20
35.3399
 11
31.4274
 21
35.292
  0
LINE
  8
0
 10
31.4274
 20
35.292
 11
31.2019
 21
35.2884
  0
LINE
  8
0
 10
31.2019
 20
35.2884
 11
30.9841
 21
35.3293
  0
LINE
  8
0
 10
30.9841
 20
35.3293
 11
30.7817
 21
35.4132
  0
LINE
  8
0
 10
30.7817
 20
35.4132
 11
30.6022
 21
35.5371
  0
LINE
  8
0
 10
30.6022
 20
35.5371
 11
30.4519
 21
35.6966
  0
LINE
  8
0
 10
30.4519
 20
35.6966
 11
30.3364
 21
35.8858
  0
LINE
  8
0
 10
30.3364
 20
35.8858
 11
30.2598
 21
36.0979
  0
LINE
  8
0
 10
30.2598
 20
36.0979
 11
30.2249
 21
36.3252
  0
LINE
  8
0
 10
30.2249
 20
36.3252
 11
30.233
 21
36.5596
  0
LINE
  8
0
 10
30.233
 20
36.5596
 11
30.2836
 21
36.7925
  0
LINE
  8
0
 10
30.2836
 20
36.7925
 11
30.3588
 21
36.9759
  0
LINE
  8
0
 10
30.3588
 20
36.9759
 11
30.2986
 21
37.0547
  0
LINE
  8
0
 10
30.2986
 20
37.0547
 11
30.1615
 21
37.2628
  0
LINE
  8
0
 10
30.1615
 20
37.2628
 11
30.1188
 21
37.3386
  0
LINE
  8
0
 10
30.1188
 20
37.3386
 11
30.0494
 21
37.382
  0
LINE
  8
0
 10
30.0494
 20
37.382
 11
29.9771
 21
37.4204
  0
LINE
  8
0
 10
29.9771
 20
37.4204
 11
29.8902
 21
37.4195
  0
LINE
  8
0
 10
29.8902
 20
37.4195
 11
29.6414
 21
37.4342
  0
LINE
  8
0
 10
29.6414
 20
37.4342
 11
29.543
 21
37.4469
  0
LINE
  8
0
 10
29.543
 20
37.4469
 11
29.4218
 21
37.2901
  0
LINE
  8
0
 10
29.4218
 20
37.2901
 11
29.2454
 21
37.1297
  0
LINE
  8
0
 10
29.2454
 20
37.1297
 11
29.0465
 21
37.0056
  0
LINE
  8
0
 10
29.0465
 20
37.0056
 11
28.8321
 21
36.9222
  0
LINE
  8
0
 10
28.8321
 20
36.9222
 11
28.6101
 21
36.8824
  0
LINE
  8
0
 10
28.6101
 20
36.8824
 11
28.3885
 21
36.8879
  0
LINE
  8
0
 10
28.3885
 20
36.8879
 11
28.1753
 21
36.9383
  0
LINE
  8
0
 10
28.1753
 20
36.9383
 11
27.9783
 21
37.0318
  0
LINE
  8
0
 10
27.9783
 20
37.0318
 11
27.8044
 21
37.1651
  0
LINE
  8
0
 10
27.8044
 20
37.1651
 11
27.66
 21
37.3333
  0
LINE
  8
0
 10
27.66
 20
37.3333
 11
27.5504
 21
37.5303
  0
LINE
  8
0
 10
27.5504
 20
37.5303
 11
27.4795
 21
37.7491
  0
LINE
  8
0
 10
27.4795
 20
37.7491
 11
27.4498
 21
37.9818
  0
LINE
  8
0
 10
27.4498
 20
37.9818
 11
27.4624
 21
38.2198
  0
LINE
  8
0
 10
27.4624
 20
38.2198
 11
27.5073
 21
38.4129
  0
LINE
  8
0
 10
27.5073
 20
38.4129
 11
27.4352
 21
38.481
  0
LINE
  8
0
 10
27.4352
 20
38.481
 11
27.2665
 21
38.6644
  0
LINE
  8
0
 10
27.2665
 20
38.6644
 11
27.2199
 21
38.7227
  0
LINE
  8
0
 10
27.2199
 20
38.7227
 11
27.0421
 21
38.7874
  0
LINE
  8
0
 10
27.0421
 20
38.7874
 11
26.9735
 21
38.7755
  0
LINE
  8
0
 10
26.9735
 20
38.7755
 11
26.7256
 21
38.7501
  0
LINE
  8
0
 10
26.7256
 20
38.7501
 11
26.6265
 21
38.7469
  0
LINE
  8
0
 10
26.6265
 20
38.7469
 11
26.532
 21
38.5727
  0
LINE
  8
0
 10
26.532
 20
38.5727
 11
26.3836
 21
38.3861
  0
LINE
  8
0
 10
26.3836
 20
38.3861
 11
26.2071
 21
38.2317
  0
LINE
  8
0
 10
26.2071
 20
38.2317
 11
26.0089
 21
38.1149
  0
LINE
  8
0
 10
26.0089
 20
38.1149
 11
25.7962
 21
38.0401
  0
LINE
  8
0
 10
25.7962
 20
38.0401
 11
25.5766
 21
38.0099
  0
LINE
  8
0
 10
25.5766
 20
38.0099
 11
25.3581
 21
38.0255
  0
LINE
  8
0
 10
25.3581
 20
38.0255
 11
25.1486
 21
38.0862
  0
LINE
  8
0
 10
25.1486
 20
38.0862
 11
24.9556
 21
38.1898
  0
LINE
  8
0
 10
24.9556
 20
38.1898
 11
24.7861
 21
38.3327
  0
LINE
  8
0
 10
24.7861
 20
38.3327
 11
24.6463
 21
38.5096
  0
LINE
  8
0
 10
24.6463
 20
38.5096
 11
24.5412
 21
38.7142
  0
LINE
  8
0
 10
24.5412
 20
38.7142
 11
24.4746
 21
38.9391
  0
LINE
  8
0
 10
24.4746
 20
38.9391
 11
24.4489
 21
39.1761
  0
LINE
  8
0
 10
24.4489
 20
39.1761
 11
24.4621
 21
39.3739
  0
LINE
  8
0
 10
24.4621
 20
39.3739
 11
24.38
 21
39.4296
  0
LINE
  8
0
 10
24.38
 20
39.4296
 11
24.1841
 21
39.5835
  0
LINE
  8
0
 10
24.1841
 20
39.5835
 11
24.1334
 21
39.6294
  0
LINE
  8
0
 10
24.1334
 20
39.6294
 11
23.9446
 21
39.6695
  0
LINE
  8
0
 10
23.9446
 20
39.6695
 11
23.8771
 21
39.6462
  0
LINE
  8
0
 10
23.8771
 20
39.6462
 11
23.6365
 21
39.5813
  0
LINE
  8
0
 10
23.6365
 20
39.5813
 11
23.5392
 21
39.5623
  0
LINE
  8
0
 10
23.5392
 20
39.5623
 11
23.4739
 21
39.3751
  0
LINE
  8
0
 10
23.4739
 20
39.3751
 11
23.3573
 21
39.1672
  0
LINE
  8
0
 10
23.3573
 20
39.1672
 11
23.2079
 21
38.9864
  0
LINE
  8
0
 10
23.2079
 20
38.9864
 11
23.031
 21
38.8394
  0
LINE
  8
0
 10
23.031
 20
38.8394
 11
22.833
 21
38.7314
  0
LINE
  8
0
 10
22.833
 20
38.7314
 11
22.6211
 21
38.6664
  0
LINE
  8
0
 10
22.6211
 20
38.6664
 11
22.4029
 21
38.6467
  0
LINE
  8
0
 10
22.4029
 20
38.6467
 11
22.1864
 21
38.673
  0
LINE
  8
0
 10
22.1864
 20
38.673
 11
21.9792
 21
38.7444
  0
LINE
  8
0
 10
21.9792
 20
38.7444
 11
21.7891
 21
38.8582
  0
LINE
  8
0
 10
21.7891
 20
38.8582
 11
21.6227
 21
39.0104
  0
LINE
  8
0
 10
21.6227
 20
39.0104
 11
21.4861
 21
39.1955
  0
LINE
  8
0
 10
21.4861
 20
39.1955
 11
21.3843
 21
39.4068
  0
LINE
  8
0
 10
21.3843
 20
39.4068
 11
21.3209
 21
39.6366
  0
LINE
  8
0
 10
21.3209
 20
39.6366
 11
21.3023
 21
39.8339
  0
LINE
  8
0
 10
21.3023
 20
39.8339
 11
21.2123
 21
39.8757
  0
LINE
  8
0
 10
21.2123
 20
39.8757
 11
20.9942
 21
39.9962
  0
LINE
  8
0
 10
20.9942
 20
39.9962
 11
20.9264
 21
40.0401
  0
LINE
  8
0
 10
20.9264
 20
40.0401
 11
20.7607
 21
40.0517
  0
LINE
  8
0
 10
20.7607
 20
40.0517
 11
20.6812
 21
40.0088
  0
LINE
  8
0
 10
20.6812
 20
40.0088
 11
20.4541
 21
39.9062
  0
LINE
  8
0
 10
20.4541
 20
39.9062
 11
20.361
 21
39.8718
  0
LINE
  8
0
 10
20.361
 20
39.8718
 11
20.3266
 21
39.6766
  0
LINE
  8
0
 10
20.3266
 20
39.6766
 11
20.2449
 21
39.4527
  0
LINE
  8
0
 10
20.2449
 20
39.4527
 11
20.1264
 21
39.2503
  0
LINE
  8
0
 10
20.1264
 20
39.2503
 11
19.9754
 21
39.0768
  0
LINE
  8
0
 10
19.9754
 20
39.0768
 11
19.7973
 21
38.9385
  0
LINE
  8
0
 10
19.7973
 20
38.9385
 11
19.5986
 21
38.8403
  0
LINE
  8
0
 10
19.5986
 20
38.8403
 11
19.3864
 21
38.7858
  0
LINE
  8
0
 10
19.3864
 20
38.7858
 11
19.1684
 21
38.777
  0
LINE
  8
0
 10
19.1684
 20
38.777
 11
18.9525
 21
38.8143
  0
LINE
  8
0
 10
18.9525
 20
38.8143
 11
18.7465
 21
38.8961
  0
LINE
  8
0
 10
18.7465
 20
38.8961
 11
18.5579
 21
39.0197
  0
LINE
  8
0
 10
18.5579
 20
39.0197
 11
18.3934
 21
39.1804
  0
LINE
  8
0
 10
18.3934
 20
39.1804
 11
18.259
 21
39.3726
  0
LINE
  8
0
 10
18.259
 20
39.3726
 11
18.1596
 21
39.5893
  0
LINE
  8
0
 10
18.1596
 20
39.5893
 11
18.1095
 21
39.7811
  0
LINE
  8
0
 10
18.1095
 20
39.7811
 11
18.014
 21
39.8079
  0
LINE
  8
0
 10
18.014
 20
39.8079
 11
17.7794
 21
39.8919
  0
LINE
  8
0
 10
17.7794
 20
39.8919
 11
17.7072
 21
39.9236
  0
LINE
  8
0
 10
17.7072
 20
39.9236
 11
17.5256
 21
39.898
  0
LINE
  8
0
 10
17.5256
 20
39.898
 11
17.4684
 21
39.8541
  0
LINE
  8
0
 10
17.4684
 20
39.8541
 11
17.2607
 21
39.7164
  0
LINE
  8
0
 10
17.2607
 20
39.7164
 11
17.1744
 21
39.6675
  0
LINE
  8
0
 10
17.1744
 20
39.6675
 11
17.1717
 21
39.4693
  0
LINE
  8
0
 10
17.1717
 20
39.4693
 11
17.127
 21
39.2352
  0
LINE
  8
0
 10
17.127
 20
39.2352
 11
17.0425
 21
39.0164
  0
LINE
  8
0
 10
17.0425
 20
39.0164
 11
16.9213
 21
38.821
  0
LINE
  8
0
 10
16.9213
 20
38.821
 11
16.7677
 21
38.6558
  0
LINE
  8
0
 10
16.7677
 20
38.6558
 11
16.5873
 21
38.5271
  0
LINE
  8
0
 10
16.5873
 20
38.5271
 11
16.3866
 21
38.4393
  0
LINE
  8
0
 10
16.3866
 20
38.4393
 11
16.1728
 21
38.3956
  0
LINE
  8
0
 10
16.1728
 20
38.3956
 11
15.9538
 21
38.3977
  0
LINE
  8
0
 10
15.9538
 20
38.3977
 11
15.7373
 21
38.4455
  0
LINE
  8
0
 10
15.7373
 20
38.4455
 11
15.5313
 21
38.5372
  0
LINE
  8
0
 10
15.5313
 20
38.5372
 11
15.3431
 21
38.6695
  0
LINE
  8
0
 10
15.3431
 20
38.6695
 11
15.1797
 21
38.8376
  0
LINE
  8
0
 10
15.1797
 20
38.8376
 11
15.0468
 21
39.0355
  0
LINE
  8
0
 10
15.0468
 20
39.0355
 11
14.9666
 21
39.2168
  0
LINE
  8
0
 10
14.9666
 20
39.2168
 11
14.868
 21
39.228
  0
LINE
  8
0
 10
14.868
 20
39.228
 11
14.623
 21
39.2732
  0
LINE
  8
0
 10
14.623
 20
39.2732
 11
14.5569
 21
39.2903
  0
LINE
  8
0
 10
14.5569
 20
39.2903
 11
14.3695
 21
39.2365
  0
LINE
  8
0
 10
14.3695
 20
39.2365
 11
14.3221
 21
39.1861
  0
LINE
  8
0
 10
14.3221
 20
39.1861
 11
14.1392
 21
39.0169
  0
LINE
  8
0
 10
14.1392
 20
39.0169
 11
14.0618
 21
38.9547
  0
LINE
  8
0
 10
14.0618
 20
38.9547
 11
14.091
 21
38.7587
  0
LINE
  8
0
 10
14.091
 20
38.7587
 11
14.0844
 21
38.5204
  0
LINE
  8
0
 10
14.0844
 20
38.5204
 11
14.0361
 21
38.2909
  0
LINE
  8
0
 10
14.0361
 20
38.2909
 11
13.9478
 21
38.0785
  0
LINE
  8
0
 10
13.9478
 20
38.0785
 11
13.8227
 21
37.8909
  0
LINE
  8
0
 10
13.8227
 20
37.8909
 11
13.6652
 21
37.7348
  0
LINE
  8
0
 10
13.6652
 20
37.7348
 11
13.4812
 21
37.616
  0
LINE
  8
0
 10
13.4812
 20
37.616
 11
13.2772
 21
37.5386
  0
LINE
  8
0
 10
13.2772
 20
37.5386
 11
13.0607
 21
37.5056
  0
LINE
  8
0
 10
13.0607
 20
37.5056
 11
12.8394
 21
37.518
  0
LINE
  8
0
 10
12.8394
 20
37.518
 11
12.6213
 21
37.5754
  0
LINE
  8
0
 10
12.6213
 20
37.5754
 11
12.4144
 21
37.6759
  0
LINE
  8
0
 10
12.4144
 20
37.6759
 11
12.226
 21
37.8156
  0
LINE
  8
0
 10
12.226
 20
37.8156
 11
12.0631
 21
37.9896
  0
LINE
  8
0
 10
12.0631
 20
37.9896
 11
11.9549
 21
38.1557
  0
LINE
  8
0
 10
11.9549
 20
38.1557
 11
11.8558
 21
38.1509
  0
LINE
  8
0
 10
11.8558
 20
38.1509
 11
11.6067
 21
38.1563
  0
LINE
  8
0
 10
11.6067
 20
38.1563
 11
11.5312
 21
38.1632
  0
LINE
  8
0
 10
11.5312
 20
38.1632
 11
11.3707
 21
38.0917
  0
LINE
  8
0
 10
11.3707
 20
38.0917
 11
11.3237
 21
38.022
  0
LINE
  8
0
 10
11.3237
 20
38.022
 11
11.1702
 21
37.8256
  0
LINE
  8
0
 10
11.1702
 20
37.8256
 11
11.1039
 21
37.7519
  0
LINE
  8
0
 10
11.1039
 20
37.7519
 11
11.1641
 21
37.563
  0
LINE
  8
0
 10
11.1641
 20
37.563
 11
11.1958
 21
37.3268
  0
LINE
  8
0
 10
11.1958
 20
37.3268
 11
11.185
 21
37.0925
  0
LINE
  8
0
 10
11.185
 20
37.0925
 11
11.1319
 21
36.8687
  0
LINE
  8
0
 10
11.1319
 20
36.8687
 11
11.0385
 21
36.6634
  0
LINE
  8
0
 10
11.0385
 20
36.6634
 11
10.9081
 21
36.4842
  0
LINE
  8
0
 10
10.9081
 20
36.4842
 11
10.7455
 21
36.3373
  0
LINE
  8
0
 10
10.7455
 20
36.3373
 11
10.5566
 21
36.2283
  0
LINE
  8
0
 10
10.5566
 20
36.2283
 11
10.3482
 21
36.1609
  0
LINE
  8
0
 10
10.3482
 20
36.1609
 11
10.1277
 21
36.1376
  0
LINE
  8
0
 10
10.1277
 20
36.1376
 11
9.90327
 21
36.1594
  0
LINE
  8
0
 10
9.90327
 20
36.1594
 11
9.68291
 21
36.2253
  0
LINE
  8
0
 10
9.68291
 20
36.2253
 11
9.47459
 21
36.333
  0
LINE
  8
0
 10
9.47459
 20
36.333
 11
9.28586
 21
36.4786
  0
LINE
  8
0
 10
9.28586
 20
36.4786
 11
9.15242
 21
36.6252
  0
LINE
  8
0
 10
9.15242
 20
36.6252
 11
9.05539
 21
36.6046
  0
LINE
  8
0
 10
9.05539
 20
36.6046
 11
8.80862
 21
36.5699
  0
LINE
  8
0
 10
8.80862
 20
36.5699
 11
8.72473
 21
36.564
  0
LINE
  8
0
 10
8.72473
 20
36.564
 11
8.58253
 21
36.4607
  0
LINE
  8
0
 10
8.58253
 20
36.4607
 11
8.5508
 21
36.3919
  0
LINE
  8
0
 10
8.5508
 20
36.3919
 11
8.43086
 21
36.1735
  0
LINE
  8
0
 10
8.43086
 20
36.1735
 11
8.37718
 21
36.0901
  0
LINE
  8
0
 10
8.37718
 20
36.0901
 11
8.4669
 21
35.9133
  0
LINE
  8
0
 10
8.4669
 20
35.9133
 11
8.53615
 21
35.6852
  0
LINE
  8
0
 10
8.53615
 20
35.6852
 11
8.563
 21
35.4523
  0
LINE
  8
0
 10
8.563
 20
35.4523
 11
8.54649
 21
35.2229
  0
LINE
  8
0
 10
8.54649
 20
35.2229
 11
8.48721
 21
35.0053
  0
LINE
  8
0
 10
8.48721
 20
35.0053
 11
8.38731
 21
34.8074
  0
LINE
  8
0
 10
8.38731
 20
34.8074
 11
8.2504
 21
34.6364
  0
LINE
  8
0
 10
8.2504
 20
34.6364
 11
8.08142
 21
34.4984
  0
LINE
  8
0
 10
8.08142
 20
34.4984
 11
7.88647
 21
34.3985
  0
LINE
  8
0
 10
7.88647
 20
34.3985
 11
7.67262
 21
34.3402
  0
LINE
  8
0
 10
7.67262
 20
34.3402
 11
7.44759
 21
34.3256
  0
LINE
  8
0
 10
7.44759
 20
34.3256
 11
7.2195
 21
34.3553
  0
LINE
  8
0
 10
7.2195
 20
34.3553
 11
6.9966
 21
34.4282
  0
LINE
  8
0
 10
6.9966
 20
34.4282
 11
6.78696
 21
34.5417
  0
LINE
  8
0
 10
6.78696
 20
34.5417
 11
6.63173
 21
34.665
  0
LINE
  8
0
 10
6.63173
 20
34.665
 11
6.53926
 21
34.6291
  0
LINE
  8
0
 10
6.53926
 20
34.6291
 11
6.30127
 21
34.5553
  0
LINE
  8
0
 10
6.30127
 20
34.5553
 11
6.23383
 21
34.5394
  0
LINE
  8
0
 10
6.23383
 20
34.5394
 11
6.0936
 21
34.404
  0
LINE
  8
0
 10
6.0936
 20
34.404
 11
6.07532
 21
34.3382
  0
LINE
  8
0
 10
6.07532
 20
34.3382
 11
5.99199
 21
34.1034
  0
LINE
  8
0
 10
5.99199
 20
34.1034
 11
5.95236
 21
34.0125
  0
LINE
  8
0
 10
5.95236
 20
34.0125
 11
6.06927
 21
33.8524
  0
LINE
  8
0
 10
6.06927
 20
33.8524
 11
6.17422
 21
33.6383
  0
LINE
  8
0
 10
6.17422
 20
33.6383
 11
6.2381
 21
33.4127
  0
LINE
  8
0
 10
6.2381
 20
33.4127
 11
6.25861
 21
33.1836
  0
LINE
  8
0
 10
6.25861
 20
33.1836
 11
6.235
 21
32.9593
  0
LINE
  8
0
 10
6.235
 20
32.9593
 11
6.16814
 21
32.748
  0
LINE
  8
0
 10
6.16814
 20
32.748
 11
6.06042
 21
32.5572
  0
LINE
  8
0
 10
6.06042
 20
32.5572
 11
5.91576
 21
32.3939
  0
LINE
  8
0
 10
5.91576
 20
32.3939
 11
5.73938
 21
32.264
  0
LINE
  8
0
 10
5.73938
 20
32.264
 11
5.53764
 21
32.1722
  0
LINE
  8
0
 10
5.53764
 20
32.1722
 11
5.31786
 21
32.1217
  0
LINE
  8
0
 10
5.31786
 20
32.1217
 11
5.08795
 21
32.1144
  0
LINE
  8
0
 10
5.08795
 20
32.1144
 11
4.85625
 21
32.1507
  0
LINE
  8
0
 10
4.85625
 20
32.1507
 11
4.63112
 21
32.229
  0
LINE
  8
0
 10
4.63112
 20
32.229
 11
4.45813
 21
32.3258
  0
LINE
  8
0
 10
4.45813
 20
32.3258
 11
4.37262
 21
32.2755
  0
LINE
  8
0
 10
4.37262
 20
32.2755
 11
4.14955
 21
32.1645
  0
LINE
  8
0
 10
4.14955
 20
32.1645
 11
4.08293
 21
32.1369
  0
LINE
  8
0
 10
4.08293
 20
32.1369
 11
3.97
 21
31.9924
  0
LINE
  8
0
 10
3.97
 20
31.9924
 11
3.96133
 21
31.914
  0
LINE
  8
0
 10
3.96133
 20
31.914
 11
3.91675
 21
31.6689
  0
LINE
  8
0
 10
3.91675
 20
31.6689
 11
3.89224
 21
31.5727
  0
LINE
  8
0
 10
3.89224
 20
31.5727
 11
4.03331
 21
31.4335
  0
LINE
  8
0
 10
4.03331
 20
31.4335
 11
4.17123
 21
31.2391
  0
LINE
  8
0
 10
4.17123
 20
31.2391
 11
4.27048
 21
31.0266
  0
LINE
  8
0
 10
4.27048
 20
31.0266
 11
4.32747
 21
30.8037
  0
LINE
  8
0
 10
4.32747
 20
30.8037
 11
4.34015
 21
30.5786
  0
LINE
  8
0
 10
4.34015
 20
30.5786
 11
4.30804
 21
30.3593
  0
LINE
  8
0
 10
4.30804
 20
30.3593
 11
4.23233
 21
30.1537
  0
LINE
  8
0
 10
4.23233
 20
30.1537
 11
4.11574
 21
29.9693
  0
LINE
  8
0
 10
4.11574
 20
29.9693
 11
3.96246
 21
29.8128
  0
LINE
  8
0
 10
3.96246
 20
29.8128
 11
3.77809
 21
29.6898
  0
LINE
  8
0
 10
3.77809
 20
29.6898
 11
3.56924
 21
29.6047
  0
LINE
  8
0
 10
3.56924
 20
29.6047
 11
3.34348
 21
29.5606
  0
LINE
  8
0
 10
3.34348
 20
29.5606
 11
3.10896
 21
29.5592
  0
LINE
  8
0
 10
3.10896
 20
29.5592
 11
2.87418
 21
29.6005
  0
LINE
  8
0
 10
2.87418
 20
29.6005
 11
2.6879
 21
29.6682
  0
LINE
  8
0
 10
2.6879
 20
29.6682
 11
2.61157
 21
29.6049
  0
LINE
  8
0
 10
2.61157
 20
29.6049
 11
2.40919
 21
29.4595
  0
LINE
  8
0
 10
2.40919
 20
29.4595
 11
2.33231
 21
29.412
  0
LINE
  8
0
 10
2.33231
 20
29.412
 11
2.25949
 21
29.2627
  0
LINE
  8
0
 10
2.25949
 20
29.2627
 11
2.2636
 21
29.1821
  0
LINE
  8
0
 10
2.2636
 20
29.1821
 11
2.25891
 21
28.933
  0
LINE
  8
0
 10
2.25891
 20
28.933
 11
2.25014
 21
28.8342
  0
LINE
  8
0
 10
2.25014
 20
28.8342
 11
2.41173
 21
28.7193
  0
LINE
  8
0
 10
2.41173
 20
28.7193
 11
2.57906
 21
28.5495
  0
LINE
  8
0
 10
2.57906
 20
28.5495
 11
2.71109
 21
28.3557
  0
LINE
  8
0
 10
2.71109
 20
28.3557
 11
2.8031
 21
28.1449
  0
LINE
  8
0
 10
2.8031
 20
28.1449
 11
2.85172
 21
27.9247
  0
LINE
  8
0
 10
2.85172
 20
27.9247
 11
2.85522
 21
27.7031
  0
LINE
  8
0
 10
2.85522
 20
27.7031
 11
2.81346
 21
27.488
  0
LINE
  8
0
 10
2.81346
 20
27.488
 11
2.72795
 21
27.2873
  0
LINE
  8
0
 10
2.72795
 20
27.2873
 11
2.60178
 21
27.1082
  0
LINE
  8
0
 10
2.60178
 20
27.1082
 11
2.43951
 21
26.9572
  0
LINE
  8
0
 10
2.43951
 20
26.9572
 11
2.24702
 21
26.8398
  0
LINE
  8
0
 10
2.24702
 20
26.8398
 11
2.03125
 21
26.7601
  0
LINE
  8
0
 10
2.03125
 20
26.7601
 11
1.8
 21
26.7211
  0
LINE
  8
0
 10
1.8
 20
26.7211
 11
1.56163
 21
26.7241
  0
LINE
  8
0
 10
1.56163
 20
26.7241
 11
1.3669
 21
26.7611
  0
LINE
  8
0
 10
1.3669
 20
26.7611
 11
1.30173
 21
26.6863
  0
LINE
  8
0
 10
1.30173
 20
26.6863
 11
1.12529
 21
26.5104
  0
LINE
  8
0
 10
1.12529
 20
26.5104
 11
1.07133
 21
26.4636
  0
LINE
  8
0
 10
1.07133
 20
26.4636
 11
1.01169
 21
26.28
  0
LINE
  8
0
 10
1.01169
 20
26.28
 11
1.02608
 21
26.2132
  0
LINE
  8
0
 10
1.02608
 20
26.2132
 11
1.06142
 21
25.9666
  0
LINE
  8
0
 10
1.06142
 20
25.9666
 11
1.0686
 21
25.8676
  0
LINE
  8
0
 10
1.0686
 20
25.8676
 11
1.24652
 21
25.7802
  0
LINE
  8
0
 10
1.24652
 20
25.7802
 11
1.43892
 21
25.6395
  0
LINE
  8
0
 10
1.43892
 20
25.6395
 11
1.60034
 21
25.4693
  0
LINE
  8
0
 10
1.60034
 20
25.4693
 11
1.72496
 21
25.276
  0
LINE
  8
0
 10
1.72496
 20
25.276
 11
1.80829
 21
25.0665
  0
LINE
  8
0
 10
1.80829
 20
25.0665
 11
1.84729
 21
24.8483
  0
LINE
  8
0
 10
1.84729
 20
24.8483
 11
1.84056
 21
24.6293
  0
LINE
  8
0
 10
1.84056
 20
24.6293
 11
1.78836
 21
24.4175
  0
LINE
  8
0
 10
1.78836
 20
24.4175
 11
1.69255
 21
24.2205
  0
LINE
  8
0
 10
1.69255
 20
24.2205
 11
1.55661
 21
24.0454
  0
LINE
  8
0
 10
1.55661
 20
24.0454
 11
1.38545
 21
23.8986
  0
LINE
  8
0
 10
1.38545
 20
23.8986
 11
1.18526
 21
23.7853
  0
LINE
  8
0
 10
1.18526
 20
23.7853
 11
0.963272
 21
23.7097
  0
LINE
  8
0
 10
0.963272
 20
23.7097
 11
0.727493
 21
23.6745
  0
LINE
  8
0
 10
0.727493
 20
23.6745
 11
0.529343
 21
23.6797
  0
LINE
  8
0
 10
0.529343
 20
23.6797
 11
0.477005
 21
23.5955
  0
LINE
  8
0
 10
0.477005
 20
23.5955
 11
0.331085
 21
23.3935
  0
LINE
  8
0
 10
0.331085
 20
23.3935
 11
0.286484
 21
23.34
  0
LINE
  8
0
 10
0.286484
 20
23.34
 11
0.253632
 21
23.1537
  0
LINE
  8
0
 10
0.253632
 20
23.1537
 11
0.280823
 21
23.0843
  0
LINE
  8
0
 10
0.280823
 20
23.0843
 11
0.355286
 21
22.8465
  0
LINE
  8
0
 10
0.355286
 20
22.8465
 11
0.37825
 21
22.75
  0
LINE
  8
0
 10
0.37825
 20
22.75
 11
0.567871
 21
22.6922
  0
LINE
  8
0
 10
0.567871
 20
22.6922
 11
0.78035
 21
22.5842
  0
LINE
  8
0
 10
0.78035
 20
22.5842
 11
0.96698
 21
22.4421
  0
LINE
  8
0
 10
0.96698
 20
22.4421
 11
1.121
 21
22.2713
  0
LINE
  8
0
 10
1.121
 20
22.2713
 11
1.23685
 21
22.0778
  0
LINE
  8
0
 10
1.23685
 20
22.0778
 11
1.31035
 21
21.8687
  0
LINE
  8
0
 10
1.31035
 20
21.8687
 11
1.33884
 21
21.6515
  0
LINE
  8
0
 10
1.33884
 20
21.6515
 11
1.32129
 21
21.4341
  0
LINE
  8
0
 10
1.32129
 20
21.4341
 11
1.25833
 21
21.2242
  0
LINE
  8
0
 10
1.25833
 20
21.2242
 11
1.15224
 21
21.0296
  0
LINE
  8
0
 10
1.15224
 20
21.0296
 11
1.00684
 21
20.8572
  0
LINE
  8
0
 10
1.00684
 20
20.8572
 11
0.827408
 21
20.7133
  0
LINE
  8
0
 10
0.827408
 20
20.7133
 11
0.620422
 21
20.6031
  0
LINE
  8
0
 10
0.620422
 20
20.6031
 11
0.393356
 21
20.5305
  0
LINE
  8
0
 10
0.393356
 20
20.5305
 11
0.19693
 21
20.5039
  0
LINE
  8
0
 10
0.19693
 20
20.5039
 11
0.158783
 21
20.4124
  0
LINE
  8
0
 10
0.158783
 20
20.4124
 11
0.0471497
 21
20.1896
  0
LINE
  8
0
 10
0.0471497
 20
20.1896
 11
0.00285339
 21
20.1147
  0
LINE
  8
0
 10
0.00285339
 20
20.1147
 11
0
 21
20.0329
  0
LINE
  8
0
 10
0
 20
20.0329
 11
0.00285339
 21
19.9511
  0
LINE
  8
0
 10
0.00285339
 20
19.9511
 11
0.0471497
 21
19.8763
  0
LINE
  8
0
 10
0.0471497
 20
19.8763
 11
0.158783
 21
19.6535
  0
LINE
  8
0
 10
0.158783
 20
19.6535
 11
0.19693
 21
19.562
  0
LINE
  8
0
 10
0.19693
 20
19.562
 11
0.393356
 21
19.5354
  0
LINE
  8
0
 10
0.393356
 20
19.5354
 11
0.620422
 21
19.4628
  0
LINE
  8
0
 10
0.620422
 20
19.4628
 11
0.827408
 21
19.3526
  0
LINE
  8
0
 10
0.827408
 20
19.3526
 11
1.00684
 21
19.2086
  0
LINE
  8
0
 10
1.00684
 20
19.2086
 11
1.15224
 21
19.0363
  0
LINE
  8
0
 10
1.15224
 20
19.0363
 11
1.25833
 21
18.8416
  0
LINE
  8
0
 10
1.25833
 20
18.8416
 11
1.32129
 21
18.6318
  0
LINE
  8
0
 10
1.32129
 20
18.6318
 11
1.33884
 21
18.4144
  0
LINE
  8
0
 10
1.33884
 20
18.4144
 11
1.31035
 21
18.1972
  0
LINE
  8
0
 10
1.31035
 20
18.1972
 11
1.23685
 21
17.988
  0
LINE
  8
0
 10
1.23685
 20
17.988
 11
1.121
 21
17.7946
  0
LINE
  8
0
 10
1.121
 20
17.7946
 11
0.96698
 21
17.6237
  0
LINE
  8
0
 10
0.96698
 20
17.6237
 11
0.78035
 21
17.4817
  0
LINE
  8
0
 10
0.78035
 20
17.4817
 11
0.567871
 21
17.3736
  0
LINE
  8
0
 10
0.567871
 20
17.3736
 11
0.37825
 21
17.3159
  0
LINE
  8
0
 10
0.37825
 20
17.3159
 11
0.355286
 21
17.2194
  0
LINE
  8
0
 10
0.355286
 20
17.2194
 11
0.280823
 21
16.9816
  0
LINE
  8
0
 10
0.280823
 20
16.9816
 11
0.253632
 21
16.9121
  0
LINE
  8
0
 10
0.253632
 20
16.9121
 11
0.286484
 21
16.7258
  0
LINE
  8
0
 10
0.286484
 20
16.7258
 11
0.331085
 21
16.6724
  0
LINE
  8
0
 10
0.331085
 20
16.6724
 11
0.477005
 21
16.4704
  0
LINE
  8
0
 10
0.477005
 20
16.4704
 11
0.529343
 21
16.3861
  0
LINE
  8
0
 10
0.529343
 20
16.3861
 11
0.727493
 21
16.3914
  0
LINE
  8
0
 10
0.727493
 20
16.3914
 11
0.963272
 21
16.3562
  0
LINE
  8
0
 10
0.963272
 20
16.3562
 11
1.18526
 21
16.2806
  0
LINE
  8
0
 10
1.18526
 20
16.2806
 11
1.38545
 21
16.1673
  0
LINE
  8
0
 10
1.38545
 20
16.1673
 11
1.55661
 21
16.0205
  0
LINE
  8
0
 10
1.55661
 20
16.0205
 11
1.69255
 21
15.8454
  0
LINE
  8
0
 10
1.69255
 20
15.8454
 11
1.78836
 21
15.6484
  0
LINE
  8
0
 10
1.78836
 20
15.6484
 11
1.84056
 21
15.4366
  0
LINE
  8
0
 10
1.84056
 20
15.4366
 11
1.84729
 21
15.2176
  0
LINE
  8
0
 10
1.84729
 20
15.2176
 11
1.80829
 21
14.9994
  0
LINE
  8
0
 10
1.80829
 20
14.9994
 11
1.72496
 21
14.7899
  0
LINE
  8
0
 10
1.72496
 20
14.7899
 11
1.60034
 21
14.5965
  0
LINE
  8
0
 10
1.60034
 20
14.5965
 11
1.43892
 21
14.4264
  0
LINE
  8
0
 10
1.43892
 20
14.4264
 11
1.24652
 21
14.2857
  0
LINE
  8
0
 10
1.24652
 20
14.2857
 11
1.0686
 21
14.1983
  0
LINE
  8
0
 10
1.0686
 20
14.1983
 11
1.06142
 21
14.0993
  0
LINE
  8
0
 10
1.06142
 20
14.0993
 11
1.02608
 21
13.8527
  0
LINE
  8
0
 10
1.02608
 20
13.8527
 11
1.01169
 21
13.7858
  0
LINE
  8
0
 10
1.01169
 20
13.7858
 11
1.07133
 21
13.6023
  0
LINE
  8
0
 10
1.07133
 20
13.6023
 11
1.12529
 21
13.5555
  0
LINE
  8
0
 10
1.12529
 20
13.5555
 11
1.30173
 21
13.3795
  0
LINE
  8
0
 10
1.30173
 20
13.3795
 11
1.3669
 21
13.3047
  0
LINE
  8
0
 10
1.3669
 20
13.3047
 11
1.56163
 21
13.3418
  0
LINE
  8
0
 10
1.56163
 20
13.3418
 11
1.8
 21
13.3448
  0
LINE
  8
0
 10
1.8
 20
13.3448
 11
2.03125
 21
13.3058
  0
LINE
  8
0
 10
2.03125
 20
13.3058
 11
2.24702
 21
13.2261
  0
LINE
  8
0
 10
2.24702
 20
13.2261
 11
2.43951
 21
13.1086
  0
LINE
  8
0
 10
2.43951
 20
13.1086
 11
2.60178
 21
12.9576
  0
LINE
  8
0
 10
2.60178
 20
12.9576
 11
2.72795
 21
12.7785
  0
LINE
  8
0
 10
2.72795
 20
12.7785
 11
2.81346
 21
12.5778
  0
LINE
  8
0
 10
2.81346
 20
12.5778
 11
2.85522
 21
12.3628
  0
LINE
  8
0
 10
2.85522
 20
12.3628
 11
2.85172
 21
12.1412
  0
LINE
  8
0
 10
2.85172
 20
12.1412
 11
2.8031
 21
11.9209
  0
LINE
  8
0
 10
2.8031
 20
11.9209
 11
2.71109
 21
11.7101
  0
LINE
  8
0
 10
2.71109
 20
11.7101
 11
2.57906
 21
11.5163
  0
LINE
  8
0
 10
2.57906
 20
11.5163
 11
2.41173
 21
11.3465
  0
LINE
  8
0
 10
2.41173
 20
11.3465
 11
2.25014
 21
11.2317
  0
LINE
  8
0
 10
2.25014
 20
11.2317
 11
2.25891
 21
11.1329
  0
LINE
  8
0
 10
2.25891
 20
11.1329
 11
2.2636
 21
10.8838
  0
LINE
  8
0
 10
2.2636
 20
10.8838
 11
2.25949
 21
10.8032
  0
LINE
  8
0
 10
2.25949
 20
10.8032
 11
2.33231
 21
10.6538
  0
LINE
  8
0
 10
2.33231
 20
10.6538
 11
2.40919
 21
10.6064
  0
LINE
  8
0
 10
2.40919
 20
10.6064
 11
2.61157
 21
10.461
  0
LINE
  8
0
 10
2.61157
 20
10.461
 11
2.6879
 21
10.3976
  0
LINE
  8
0
 10
2.6879
 20
10.3976
 11
2.87418
 21
10.4654
  0
LINE
  8
0
 10
2.87418
 20
10.4654
 11
3.10896
 21
10.5067
  0
LINE
  8
0
 10
3.10896
 20
10.5067
 11
3.34348
 21
10.5052
  0
LINE
  8
0
 10
3.34348
 20
10.5052
 11
3.56924
 21
10.4612
  0
LINE
  8
0
 10
3.56924
 20
10.4612
 11
3.77809
 21
10.3761
  0
LINE
  8
0
 10
3.77809
 20
10.3761
 11
3.96246
 21
10.2531
  0
LINE
  8
0
 10
3.96246
 20
10.2531
 11
4.11574
 21
10.0966
  0
LINE
  8
0
 10
4.11574
 20
10.0966
 11
4.23233
 21
9.91219
  0
LINE
  8
0
 10
4.23233
 20
9.91219
 11
4.30804
 21
9.70662
  0
LINE
  8
0
 10
4.30804
 20
9.70662
 11
4.34015
 21
9.48729
  0
LINE
  8
0
 10
4.34015
 20
9.48729
 11
4.32747
 21
9.26213
  0
LINE
  8
0
 10
4.32747
 20
9.26213
 11
4.27048
 21
9.03929
  0
LINE
  8
0
 10
4.27048
 20
9.03929
 11
4.17123
 21
8.82681
  0
LINE
  8
0
 10
4.17123
 20
8.82681
 11
4.03331
 21
8.63237
  0
LINE
  8
0
 10
4.03331
 20
8.63237
 11
3.89224
 21
8.49313
  0
LINE
  8
0
 10
3.89224
 20
8.49313
 11
3.91675
 21
8.39702
  0
LINE
  8
0
 10
3.91675
 20
8.39702
 11
3.96133
 21
8.15186
  0
LINE
  8
0
 10
3.96133
 20
8.15186
 11
3.97
 21
8.07349
  0
LINE
  8
0
 10
3.97
 20
8.07349
 11
4.08293
 21
7.92894
  0
LINE
  8
0
 10
4.08293
 20
7.92894
 11
4.14955
 21
7.9014
  0
LINE
  8
0
 10
4.14955
 20
7.9014
 11
4.37262
 21
7.79036
  0
LINE
  8
0
 10
4.37262
 20
7.79036
 11
4.45813
 21
7.74008
  0
LINE
  8
0
 10
4.45813
 20
7.74008
 11
4.63112
 21
7.83684
  0
LINE
  8
0
 10
4.63112
 20
7.83684
 11
4.85625
 21
7.91522
  0
LINE
  8
0
 10
4.85625
 20
7.91522
 11
5.08795
 21
7.95143
  0
LINE
  8
0
 10
5.08795
 20
7.95143
 11
5.31786
 21
7.94418
  0
LINE
  8
0
 10
5.31786
 20
7.94418
 11
5.53764
 21
7.89371
  0
LINE
  8
0
 10
5.53764
 20
7.89371
 11
5.73938
 21
7.80185
  0
LINE
  8
0
 10
5.73938
 20
7.80185
 11
5.91576
 21
7.67194
  0
LINE
  8
0
 10
5.91576
 20
7.67194
 11
6.06042
 21
7.50865
  0
LINE
  8
0
 10
6.06042
 20
7.50865
 11
6.16814
 21
7.31789
  0
LINE
  8
0
 10
6.16814
 20
7.31789
 11
6.235
 21
7.10655
  0
LINE
  8
0
 10
6.235
 20
7.10655
 11
6.25861
 21
6.88228
  0
LINE
  8
0
 10
6.25861
 20
6.88228
 11
6.2381
 21
6.65318
  0
LINE
  8
0
 10
6.2381
 20
6.65318
 11
6.17422
 21
6.42754
  0
LINE
  8
0
 10
6.17422
 20
6.42754
 11
6.06927
 21
6.21349
  0
LINE
  8
0
 10
6.06927
 20
6.21349
 11
5.95236
 21
6.05342
  0
LINE
  8
0
 10
5.95236
 20
6.05342
 11
5.99199
 21
5.96248
  0
LINE
  8
0
 10
5.99199
 20
5.96248
 11
6.07532
 21
5.72765
  0
LINE
  8
0
 10
6.07532
 20
5.72765
 11
6.0936
 21
5.6619
  0
LINE
  8
0
 10
6.0936
 20
5.6619
 11
6.23383
 21
5.52647
  0
LINE
  8
0
 10
6.23383
 20
5.52647
 11
6.30127
 21
5.51062
  0
LINE
  8
0
 10
6.30127
 20
5.51062
 11
6.53926
 21
5.43681
  0
LINE
  8
0
 10
6.53926
 20
5.43681
 11
6.63173
 21
5.40089
  0
LINE
  8
0
 10
6.63173
 20
5.40089
 11
6.78696
 21
5.52415
  0
LINE
  8
0
 10
6.78696
 20
5.52415
 11
6.9966
 21
5.63763
  0
LINE
  8
0
 10
6.9966
 20
5.63763
 11
7.2195
 21
5.71054
  0
LINE
  8
0
 10
7.2195
 20
5.71054
 11
7.44759
 21
5.74026
  0
LINE
  8
0
 10
7.44759
 20
5.74026
 11
7.67262
 21
5.72569
  0
LINE
  8
0
 10
7.67262
 20
5.72569
 11
7.88647
 21
5.66739
  0
LINE
  8
0
 10
7.88647
 20
5.66739
 11
8.08142
 21
5.56746
  0
LINE
  8
0
 10
8.08142
 20
5.56746
 11
8.2504
 21
5.42949
  0
LINE
  8
0
 10
8.2504
 20
5.42949
 11
8.38731
 21
5.25847
  0
LINE
  8
0
 10
8.38731
 20
5.25847
 11
8.48721
 21
5.06061
  0
LINE
  8
0
 10
8.48721
 20
5.06061
 11
8.54649
 21
4.84302
  0
LINE
  8
0
 10
8.54649
 20
4.84302
 11
8.563
 21
4.6136
  0
LINE
  8
0
 10
8.563
 20
4.6136
 11
8.53615
 21
4.38063
  0
LINE
  8
0
 10
8.53615
 20
4.38063
 11
8.4669
 21
4.15253
  0
LINE
  8
0
 10
8.4669
 20
4.15253
 11
8.37718
 21
3.97577
  0
LINE
  8
0
 10
8.37718
 20
3.97577
 11
8.43086
 21
3.89236
  0
LINE
  8
0
 10
8.43086
 20
3.89236
 11
8.5508
 21
3.67393
  0
LINE
  8
0
 10
8.5508
 20
3.67393
 11
8.58253
 21
3.60513
  0
LINE
  8
0
 10
8.58253
 20
3.60513
 11
8.72473
 21
3.50183
  0
LINE
  8
0
 10
8.72473
 20
3.50183
 11
8.80862
 21
3.49597
  0
LINE
  8
0
 10
8.80862
 20
3.49597
 11
9.05539
 21
3.46129
  0
LINE
  8
0
 10
9.05539
 20
3.46129
 11
9.15242
 21
3.44066
  0
LINE
  8
0
 10
9.15242
 20
3.44066
 11
9.28586
 21
3.58723
  0
LINE
  8
0
 10
9.28586
 20
3.58723
 11
9.47459
 21
3.73286
  0
LINE
  8
0
 10
9.47459
 20
3.73286
 11
9.68291
 21
3.84059
  0
LINE
  8
0
 10
9.68291
 20
3.84059
 11
9.90327
 21
3.90651
  0
LINE
  8
0
 10
9.90327
 20
3.90651
 11
10.1277
 21
3.92824
  0
LINE
  8
0
 10
10.1277
 20
3.92824
 11
10.3482
 21
3.905
  0
LINE
  8
0
 10
10.3482
 20
3.905
 11
10.5566
 21
3.83762
  0
LINE
  8
0
 10
10.5566
 20
3.83762
 11
10.7455
 21
3.72855
  0
LINE
  8
0
 10
10.7455
 20
3.72855
 11
10.9081
 21
3.58171
  0
LINE
  8
0
 10
10.9081
 20
3.58171
 11
11.0385
 21
3.40242
  0
LINE
  8
0
 10
11.0385
 20
3.40242
 11
11.1319
 21
3.19717
  0
LINE
  8
0
 10
11.1319
 20
3.19717
 11
11.185
 21
2.97337
  0
LINE
  8
0
 10
11.185
 20
2.97337
 11
11.1958
 21
2.73911
  0
LINE
  8
0
 10
11.1958
 20
2.73911
 11
11.1641
 21
2.50285
  0
LINE
  8
0
 10
11.1641
 20
2.50285
 11
11.1039
 21
2.314
  0
LINE
  8
0
 10
11.1039
 20
2.314
 11
11.1702
 21
2.24028
  0
LINE
  8
0
 10
11.1702
 20
2.24028
 11
11.3237
 21
2.04391
  0
LINE
  8
0
 10
11.3237
 20
2.04391
 11
11.3707
 21
1.97418
  0
LINE
  8
0
 10
11.3707
 20
1.97418
 11
11.5312
 21
1.90271
  0
LINE
  8
0
 10
11.5312
 20
1.90271
 11
11.6067
 21
1.90961
  0
LINE
  8
0
 10
11.6067
 20
1.90961
 11
11.8558
 21
1.91496
  0
LINE
  8
0
 10
11.8558
 20
1.91496
 11
11.9549
 21
1.91017
  0
LINE
  8
0
 10
11.9549
 20
1.91017
 11
12.0631
 21
2.07625
  0
LINE
  8
0
 10
12.0631
 20
2.07625
 11
12.226
 21
2.25027
  0
LINE
  8
0
 10
12.226
 20
2.25027
 11
12.4144
 21
2.39001
  0
LINE
  8
0
 10
12.4144
 20
2.39001
 11
12.6213
 21
2.49043
  0
LINE
  8
0
 10
12.6213
 20
2.49043
 11
12.8394
 21
2.54788
  0
LINE
  8
0
 10
12.8394
 20
2.54788
 11
13.0607
 21
2.5603
  0
LINE
  8
0
 10
13.0607
 20
2.5603
 11
13.2772
 21
2.52724
  0
LINE
  8
0
 10
13.2772
 20
2.52724
 11
13.4812
 21
2.44987
  0
LINE
  8
0
 10
13.4812
 20
2.44987
 11
13.6652
 21
2.33102
  0
LINE
  8
0
 10
13.6652
 20
2.33102
 11
13.8227
 21
2.17497
  0
LINE
  8
0
 10
13.8227
 20
2.17497
 11
13.9478
 21
1.98737
  0
LINE
  8
0
 10
13.9478
 20
1.98737
 11
14.0361
 21
1.77498
  0
LINE
  8
0
 10
14.0361
 20
1.77498
 11
14.0844
 21
1.54549
  0
LINE
  8
0
 10
14.0844
 20
1.54549
 11
14.091
 21
1.30719
  0
LINE
  8
0
 10
14.091
 20
1.30719
 11
14.0618
 21
1.11113
  0
LINE
  8
0
 10
14.0618
 20
1.11113
 11
14.1392
 21
1.04901
  0
LINE
  8
0
 10
14.1392
 20
1.04901
 11
14.3221
 21
0.879807
  0
LINE
  8
0
 10
14.3221
 20
0.879807
 11
14.3695
 21
0.82933
  0
LINE
  8
0
 10
14.3695
 20
0.82933
 11
14.5569
 21
0.775589
  0
LINE
  8
0
 10
14.5569
 20
0.775589
 11
14.623
 21
0.792648
  0
LINE
  8
0
 10
14.623
 20
0.792648
 11
14.868
 21
0.837891
  0
LINE
  8
0
 10
14.868
 20
0.837891
 11
14.9666
 21
0.849045
  0
LINE
  8
0
 10
14.9666
 20
0.849045
 11
15.0468
 21
1.03033
  0
LINE
  8
0
 10
15.0468
 20
1.03033
 11
15.1797
 21
1.22824
  0
LINE
  8
0
 10
15.1797
 20
1.22824
 11
15.3431
 21
1.39639
  0
LINE
  8
0
 10
15.3431
 20
1.39639
 11
15.5313
 21
1.5287
  0
LINE
  8
0
 10
15.5313
 20
1.5287
 11
15.7373
 21
1.62038
  0
LINE
  8
0
 10
15.7373
 20
1.62038
 11
15.9538
 21
1.66814
  0
LINE
  8
0
 10
15.9538
 20
1.66814
 11
16.1728
 21
1.67024
  0
LINE
  8
0
 10
16.1728
 20
1.67024
 11
16.3866
 21
1.6266
  0
LINE
  8
0
 10
16.3866
 20
1.6266
 11
16.5873
 21
1.5388
  0
LINE
  8
0
 10
16.5873
 20
1.5388
 11
16.7677
 21
1.41003
  0
LINE
  8
0
 10
16.7677
 20
1.41003
 11
16.9213
 21
1.24492
  0
LINE
  8
0
 10
16.9213
 20
1.24492
 11
17.0425
 21
1.04945
  0
LINE
  8
0
 10
17.0425
 20
1.04945
 11
17.127
 21
0.830688
  0
LINE
  8
0
 10
17.127
 20
0.830688
 11
17.1717
 21
0.596527
  0
LINE
  8
0
 10
17.1717
 20
0.596527
 11
17.1744
 21
0.398331
  0
LINE
  8
0
 10
17.1744
 20
0.398331
 11
17.2607
 21
0.349426
  0
LINE
  8
0
 10
17.2607
 20
0.349426
 11
17.4684
 21
0.211746
  0
LINE
  8
0
 10
17.4684
 20
0.211746
 11
17.5256
 21
0.167831
  0
LINE
  8
0
 10
17.5256
 20
0.167831
 11
17.7072
 21
0.142303
  0
LINE
  8
0
 10
17.7072
 20
0.142303
 11
17.7794
 21
0.173981
  0
LINE
  8
0
 10
17.7794
 20
0.173981
 11
18.014
 21
0.25795
  0
LINE
  8
0
 10
18.014
 20
0.25795
 11
18.1095
 21
0.284775
  0
LINE
  8
0
 10
18.1095
 20
0.284775
 11
18.1596
 21
0.476578
  0
LINE
  8
0
 10
18.1596
 20
0.476578
 11
18.259
 21
0.693237
  0
LINE
  8
0
 10
18.259
 20
0.693237
 11
18.3934
 21
0.885422
  0
LINE
  8
0
 10
18.3934
 20
0.885422
 11
18.5579
 21
1.0462
  0
LINE
  8
0
 10
18.5579
 20
1.0462
 11
18.7465
 21
1.16975
  0
LINE
  8
0
 10
18.7465
 20
1.16975
 11
18.9525
 21
1.25162
  0
LINE
  8
0
 10
18.9525
 20
1.25162
 11
19.1684
 21
1.28883
  0
LINE
  8
0
 10
19.1684
 20
1.28883
 11
19.3864
 21
1.28004
  0
LINE
  8
0
 10
19.3864
 20
1.28004
 11
19.5986
 21
1.22559
  0
LINE
  8
0
 10
19.5986
 20
1.22559
 11
19.7973
 21
1.12741
  0
LINE
  8
0
 10
19.7973
 20
1.12741
 11
19.9754
 21
0.989075
  0
LINE
  8
0
 10
19.9754
 20
0.989075
 11
20.1264
 21
0.815582
  0
LINE
  8
0
 10
20.1264
 20
0.815582
 11
20.2449
 21
0.613205
  0
LINE
  8
0
 10
20.2449
 20
0.613205
 11
20.3266
 21
0.389252
  0
LINE
  8
0
 10
20.3266
 20
0.389252
 11
20.361
 21
0.194046
  0
LINE
  8
0
 10
20.361
 20
0.194046
 11
20.4541
 21
0.159622
  0
LINE
  8
0
 10
20.4541
 20
0.159622
 11
20.6812
 21
0.0570526
  0
LINE
  8
0
 10
20.6812
 20
0.0570526
 11
20.7607
 21
0.0142059
  0
LINE
  8
0
 10
20.7607
 20
0.0142059
 11
20.9264
 21
0.0257874
  0
LINE
  8
0
 10
19.7876
 20
35.2877
 11
19.5566
 21
35.3754
  0
LINE
  8
0
 10
19.5566
 20
35.3754
 11
19.3532
 21
35.5157
  0
LINE
  8
0
 10
19.3532
 20
35.5157
 11
19.1894
 21
35.7007
  0
LINE
  8
0
 10
19.1894
 20
35.7007
 11
19.0745
 21
35.9195
  0
LINE
  8
0
 10
19.0745
 20
35.9195
 11
19.0154
 21
36.1594
  0
LINE
  8
0
 10
19.0154
 20
36.1594
 11
19.0154
 21
36.4065
  0
LINE
  8
0
 10
19.0154
 20
36.4065
 11
19.0745
 21
36.6464
  0
LINE
  8
0
 10
19.0745
 20
36.6464
 11
19.1894
 21
36.8652
  0
LINE
  8
0
 10
19.1894
 20
36.8652
 11
19.3532
 21
37.0502
  0
LINE
  8
0
 10
19.3532
 20
37.0502
 11
19.5566
 21
37.1905
  0
LINE
  8
0
 10
19.5566
 20
37.1905
 11
19.7876
 21
37.2782
  0
LINE
  8
0
 10
19.7876
 20
37.2782
 11
20.0329
 21
37.3079
  0
LINE
  8
0
 10
20.0329
 20
37.3079
 11
20.2782
 21
37.2782
  0
LINE
  8
0
 10
20.2782
 20
37.2782
 11
20.5093
 21
37.1905
  0
LINE
  8
0
 10
20.5093
 20
37.1905
 11
20.7126
 21
37.0502
  0
LINE
  8
0
 10
20.7126
 20
37.0502
 11
20.8765
 21
36.8652
  0
LINE
  8
0
 10
20.8765
 20
36.8652
 11
20.9913
 21
36.6464
  0
LINE
  8
0
 10
20.9913
 20
36.6464
 11
21.0505
 21
36.4065
  0
LINE
  8
0
 10
21.0505
 20
36.4065
 11
21.0505
 21
36.1594
  0
LINE
  8
0
 10
21.0505
 20
36.1594
 11
20.9913
 21
35.9195
  0
LINE
  8
0
 10
20.9913
 20
35.9195
 11
20.8765
 21
35.7007
  0
LINE
  8
0
 10
20.8765
 20
35.7007
 11
20.7126
 21
35.5157
  0
LINE
  8
0
 10
20.7126
 20
35.5157
 11
20.5093
 21
35.3754
  0
LINE
  8
0
 10
20.5093
 20
35.3754
 11
20.2782
 21
35.2877
  0
LINE
  8
0
 10
20.2782
 20
35.2877
 11
20.0329
 21
35.2579
  0
LINE
  8
0
 10
20.0329
 20
35.2579
 11
19.7876
 21
35.2877
  0
LINE
  8
0
 10
19.5136
 20
5.16075
 11
18.4774
 21
5.2332
  0
LINE
  8
0
 10
18.4774
 20
5.2332
 11
17.4488
 21
5.37776
  0
LINE
  8
0
 10
17.4488
 20
5.37776
 11
16.4328
 21
5.59372
  0
LINE
  8
0
 10
16.4328
 20
5.59372
 11
15.4344
 21
5.88002
  0
LINE
  8
0
 10
15.4344
 20
5.88002
 11
14.4583
 21
6.23528
  0
LINE
  8
0
 10
14.4583
 20
6.23528
 11
13.5094
 21
6.65776
  0
LINE
  8
0
 10
13.5094
 20
6.65776
 11
12.5923
 21
7.1454
  0
LINE
  8
0
 10
12.5923
 20
7.1454
 11
11.7114
 21
7.69582
  0
LINE
  8
0
 10
11.7114
 20
7.69582
 11
10.8711
 21
8.30635
  0
LINE
  8
0
 10
10.8711
 20
8.30635
 11
10.0754
 21
8.97401
  0
LINE
  8
0
 10
10.0754
 20
8.97401
 11
9.32826
 21
9.69556
  0
LINE
  8
0
 10
9.32826
 20
9.69556
 11
8.63324
 21
10.4675
  0
LINE
  8
0
 10
8.63324
 20
10.4675
 11
7.99374
 21
11.2859
  0
LINE
  8
0
 10
7.99374
 20
11.2859
 11
7.41292
 21
12.1471
  0
LINE
  8
0
 10
7.41292
 20
12.1471
 11
6.89357
 21
13.0466
  0
LINE
  8
0
 10
6.89357
 20
13.0466
 11
6.43823
 21
13.9802
  0
LINE
  8
0
 10
6.43823
 20
13.9802
 11
6.04913
 21
14.9433
  0
LINE
  8
0
 10
6.04913
 20
14.9433
 11
5.72816
 21
15.9311
  0
LINE
  8
0
 10
5.72816
 20
15.9311
 11
5.47688
 21
16.9389
  0
LINE
  8
0
 10
5.47688
 20
16.9389
 11
5.29651
 21
17.9619
  0
LINE
  8
0
 10
5.29651
 20
17.9619
 11
5.18794
 21
18.9949
  0
LINE
  8
0
 10
5.18794
 20
18.9949
 11
5.15169
 21
20.0329
  0
LINE
  8
0
 10
5.15169
 20
20.0329
 11
5.18794
 21
21.071
  0
LINE
  8
0
 10
5.18794
 20
21.071
 11
5.29651
 21
22.104
  0
LINE
  8
0
 10
5.29651
 20
22.104
 11
5.47688
 21
23.1269
  0
LINE
  8
0
 10
5.47688
 20
23.1269
 11
5.72816
 21
24.1348
  0
LINE
  8
0
 10
5.72816
 20
24.1348
 11
6.04913
 21
25.1226
  0
LINE
  8
0
 10
6.04913
 20
25.1226
 11
6.43823
 21
26.0857
  0
LINE
  8
0
 10
6.43823
 20
26.0857
 11
6.89357
 21
27.0193
  0
LINE
  8
0
 10
6.89357
 20
27.0193
 11
7.41292
 21
27.9188
  0
LINE
  8
0
 10
7.41292
 20
27.9188
 11
7.99374
 21
28.7799
  0
LINE
  8
0
 10
7.99374
 20
28.7799
 11
8.63324
 21
29.5984
  0
LINE
  8
0
 10
8.63324
 20
29.5984
 11
9.32826
 21
30.3703
  0
LINE
  8
0
 10
9.32826
 20
30.3703
 11
10.0754
 21
31.0919
  0
LINE
  8
0
 10
10.0754
 20
31.0919
 11
10.8711
 21
31.7595
  0
LINE
  8
0
 10
10.8711
 20
31.7595
 11
11.7114
 21
32.3701
  0
LINE
  8
0
 10
11.7114
 20
32.3701
 11
12.5923
 21
32.9205
  0
LINE
  8
0
 10
12.5923
 20
32.9205
 11
13.5094
 21
33.4081
  0
LINE
  8
0
 10
13.5094
 20
33.4081
 11
14.4583
 21
33.8306
  0
LINE
  8
0
 10
14.4583
 20
33.8306
 11
15.4344
 21
34.1859
  0
LINE
  8
0
 10
15.4344
 20
34.1859
 11
16.4328
 21
34.4722
  0
LINE
  8
0
 10
16.4328
 20
34.4722
 11
17.4488
 21
34.6881
  0
LINE
  8
0
 10
17.4488
 20
34.6881
 11
18.4774
 21
34.8327
  0
LINE
  8
0
 10
18.4774
 20
34.8327
 11
19.5136
 21
34.9051
  0
LINE
  8
0
 10
19.5136
 20
34.9051
 11
20.5523
 21
34.9051
  0
LINE
  8
0
 10
20.5523
 20
34.9051
 11
21.5885
 21
34.8327
  0
LINE
  8
0
 10
21.5885
 20
34.8327
 11
22.617
 21
34.6881
  0
LINE
  8
0
 10
22.617
 20
34.6881
 11
23.633
 21
34.4722
  0
LINE
  8
0
 10
23.633
 20
34.4722
 11
24.6315
 21
34.1859
  0
LINE
  8
0
 10
24.6315
 20
34.1859
 11
25.6075
 21
33.8306
  0
LINE
  8
0
 10
25.6075
 20
33.8306
 11
26.5564
 21
33.4081
  0
LINE
  8
0
 10
26.5564
 20
33.4081
 11
27.4736
 21
32.9205
  0
LINE
  8
0
 10
27.4736
 20
32.9205
 11
28.3544
 21
32.3701
  0
LINE
  8
0
 10
28.3544
 20
32.3701
 11
29.1947
 21
31.7595
  0
LINE
  8
0
 10
29.1947
 20
31.7595
 11
29.9904
 21
31.0919
  0
LINE
  8
0
 10
29.9904
 20
31.0919
 11
30.7376
 21
30.3703
  0
LINE
  8
0
 10
30.7376
 20
30.3703
 11
31.4326
 21
29.5984
  0
LINE
  8
0
 10
31.4326
 20
29.5984
 11
32.0721
 21
28.7799
  0
LINE
  8
0
 10
32.0721
 20
28.7799
 11
32.653
 21
27.9188
  0
LINE
  8
0
 10
32.653
 20
27.9188
 11
33.1723
 21
27.0193
  0
LINE
  8
0
 10
33.1723
 20
27.0193
 11
33.6276
 21
26.0857
  0
LINE
  8
0
 10
33.6276
 20
26.0857
 11
34.0167
 21
25.1226
  0
LINE
  8
0
 10
34.0167
 20
25.1226
 11
34.3377
 21
24.1348
  0
LINE
  8
0
 10
34.3377
 20
24.1348
 11
34.589
 21
23.1269
  0
LINE
  8
0
 10
34.589
 20
23.1269
 11
34.7694
 21
22.104
  0
LINE
  8
0
 10
34.7694
 20
22.104
 11
34.8779
 21
21.071
  0
LINE
  8
0
 10
34.8779
 20
21.071
 11
34.9142
 21
20.0329
  0
LINE
  8
0
 10
34.9142
 20
20.0329
 11
34.8779
 21
18.9949
  0
LINE
  8
0
 10
34.8779
 20
18.9949
 11
34.7694
 21
17.9619
  0
LINE
  8
0
 10
34.7694
 20
17.9619
 11
34.589
 21
16.9389
  0
LINE
  8
0
 10
34.589
 20
16.9389
 11
34.3377
 21
15.9311
  0
LINE
  8
0
 10
34.3377
 20
15.9311
 11
34.0167
 21
14.9433
  0
LINE
  8
0
 10
34.0167
 20
14.9433
 11
33.6276
 21
13.9802
  0
LINE
  8
0
 10
33.6276
 20
13.9802
 11
33.1723
 21
13.0466
  0
LINE
  8
0
 10
33.1723
 20
13.0466
 11
32.653
 21
12.1471
  0
LINE
  8
0
 10
32.653
 20
12.1471
 11
32.0721
 21
11.2859
  0
LINE
  8
0
 10
32.0721
 20
11.2859
 11
31.4326
 21
10.4675
  0
LINE
  8
0
 10
31.4326
 20
10.4675
 11
30.7376
 21
9.69556
  0
LINE
  8
0
 10
30.7376
 20
9.69556
 11
29.9904
 21
8.97401
  0
LINE
  8
0
 10
29.9904
 20
8.97401
 11
29.1947
 21
8.30635
  0
LINE
  8
0
 10
29.1947
 20
8.30635
 11
28.3544
 21
7.69582
  0
LINE
  8
0
 10
28.3544
 20
7.69582
 11
27.4736
 21
7.1454
  0
LINE
  8
0
 10
27.4736
 20
7.1454
 11
26.5564
 21
6.65776
  0
LINE
  8
0
 10
26.5564
 20
6.65776
 11
25.6075
 21
6.23528
  0
LINE
  8
0
 10
25.6075
 20
6.23528
 11
24.6315
 21
5.88002
  0
LINE
  8
0
 10
24.6315
 20
5.88002
 11
23.633
 21
5.59372
  0
LINE
  8
0
 10
23.633
 20
5.59372
 11
22.617
 21
5.37776
  0
LINE
  8
0
 10
22.617
 20
5.37776
 11
21.5885
 21
5.2332
  0
LINE
  8
0
 10
21.5885
 20
5.2332
 11
20.5523
 21
5.16075
  0
LINE
  8
0
 10
20.5523
 20
5.16075
 11
19.5136
 21
5.16075
  0
LINE
  8
0
 10
11.5187
 20
16.4704
 11
11.3843
 21
16.4885
  0
LINE
  8
0
 10
11.3843
 20
16.4885
 11
11.3105
 21
16.5033
  0
LINE
  8
0
 10
11.3105
 20
16.5033
 11
11.2493
 21
16.5202
  0
LINE
  8
0
 10
11.2493
 20
16.5202
 11
11.2006
 21
16.5392
  0
LINE
  8
0
 10
11.2006
 20
16.5392
 11
11.181
 21
16.5496
  0
LINE
  8
0
 10
11.181
 20
16.5496
 11
11.1645
 21
16.5605
  0
LINE
  8
0
 10
11.1645
 20
16.5605
 11
11.14
 21
16.584
  0
LINE
  8
0
 10
11.14
 20
16.584
 11
11.1205
 21
16.6096
  0
LINE
  8
0
 10
11.1205
 20
16.6096
 11
11.1048
 21
16.6375
  0
LINE
  8
0
 10
11.1048
 20
16.6375
 11
11.0931
 21
16.6674
  0
LINE
  8
0
 10
11.0931
 20
16.6674
 11
11.0853
 21
16.6996
  0
LINE
  8
0
 10
11.0853
 20
16.6996
 11
11.0814
 21
16.7339
  0
LINE
  8
0
 10
11.0814
 20
16.7339
 11
11.0809
 21
18.6277
  0
LINE
  8
0
 10
11.0809
 20
18.6277
 11
12.6127
 21
20.0034
  0
LINE
  8
0
 10
12.6127
 20
20.0034
 11
12.7283
 21
19.8353
  0
LINE
  8
0
 10
12.7283
 20
19.8353
 11
12.9267
 21
19.5526
  0
LINE
  8
0
 10
12.9267
 20
19.5526
 11
13.1338
 21
19.2478
  0
LINE
  8
0
 10
13.1338
 20
19.2478
 11
13.4447
 21
18.7753
  0
LINE
  8
0
 10
13.4447
 20
18.7753
 11
13.6543
 21
18.4616
  0
LINE
  8
0
 10
13.6543
 20
18.4616
 11
13.9151
 21
18.0757
  0
LINE
  8
0
 10
13.9151
 20
18.0757
 11
14.1574
 21
17.7084
  0
LINE
  8
0
 10
14.1574
 20
17.7084
 11
14.3056
 21
17.4769
  0
LINE
  8
0
 10
14.3056
 20
17.4769
 11
14.4691
 21
17.217
  0
LINE
  8
0
 10
14.4691
 20
17.217
 11
14.6517
 21
16.9174
  0
LINE
  8
0
 10
14.6517
 20
16.9174
 11
14.7347
 21
16.7676
  0
LINE
  8
0
 10
14.7347
 20
16.7676
 11
14.7611
 21
16.7089
  0
LINE
  8
0
 10
14.7611
 20
16.7089
 11
14.769
 21
16.6828
  0
LINE
  8
0
 10
14.769
 20
16.6828
 11
14.7694
 21
16.6486
  0
LINE
  8
0
 10
14.7694
 20
16.6486
 11
14.765
 21
16.6039
  0
LINE
  8
0
 10
14.765
 20
16.6039
 11
14.7563
 21
16.5665
  0
LINE
  8
0
 10
14.7563
 20
16.5665
 11
14.7433
 21
16.5366
  0
LINE
  8
0
 10
14.7433
 20
16.5366
 11
14.7259
 21
16.514
  0
LINE
  8
0
 10
14.7259
 20
16.514
 11
14.7156
 21
16.5054
  0
LINE
  8
0
 10
14.7156
 20
16.5054
 11
14.7042
 21
16.4988
  0
LINE
  8
0
 10
14.7042
 20
16.4988
 11
14.6639
 21
16.4868
  0
LINE
  8
0
 10
14.6639
 20
16.4868
 11
14.598
 21
16.4763
  0
LINE
  8
0
 10
14.598
 20
16.4763
 11
14.5181
 21
16.4711
  0
LINE
  8
0
 10
14.5181
 20
16.4711
 11
14.4729
 21
16.4704
  0
LINE
  8
0
 10
14.4729
 20
16.4704
 11
14.4729
 21
16.2829
  0
LINE
  8
0
 10
14.4729
 20
16.2829
 11
18.0527
 21
16.2829
  0
LINE
  8
0
 10
18.0527
 20
16.2829
 11
18.0527
 21
16.4704
  0
LINE
  8
0
 10
18.0527
 20
16.4704
 11
17.9537
 21
16.4739
  0
LINE
  8
0
 10
17.9537
 20
16.4739
 11
17.8651
 21
16.4843
  0
LINE
  8
0
 10
17.8651
 20
16.4843
 11
17.7869
 21
16.5017
  0
LINE
  8
0
 10
17.7869
 20
16.5017
 11
17.7501
 21
16.5165
  0
LINE
  8
0
 10
17.7501
 20
16.5165
 11
17.7123
 21
16.54
  0
LINE
  8
0
 10
17.7123
 20
16.54
 11
17.6737
 21
16.5722
  0
LINE
  8
0
 10
17.6737
 20
16.5722
 11
17.6342
 21
16.613
  0
LINE
  8
0
 10
17.6342
 20
16.613
 11
17.5937
 21
16.6625
  0
LINE
  8
0
 10
17.5937
 20
16.6625
 11
17.5524
 21
16.7207
  0
LINE
  8
0
 10
17.5524
 20
16.7207
 11
14.3637
 21
21.4894
  0
LINE
  8
0
 10
14.3637
 20
21.4894
 11
17.0679
 21
23.8189
  0
LINE
  8
0
 10
17.0679
 20
23.8189
 11
17.2753
 21
24.0002
  0
LINE
  8
0
 10
17.2753
 20
24.0002
 11
17.3601
 21
24.0715
  0
LINE
  8
0
 10
17.3601
 20
24.0715
 11
17.4387
 21
24.1342
  0
LINE
  8
0
 10
17.4387
 20
24.1342
 11
17.5268
 21
24.1985
  0
LINE
  8
0
 10
17.5268
 20
24.1985
 11
17.5876
 21
24.2333
  0
LINE
  8
0
 10
17.5876
 20
24.2333
 11
17.6518
 21
24.2611
  0
LINE
  8
0
 10
17.6518
 20
24.2611
 11
17.7206
 21
24.2824
  0
LINE
  8
0
 10
17.7206
 20
24.2824
 11
17.8006
 21
24.2998
  0
LINE
  8
0
 10
17.8006
 20
24.2998
 11
17.8928
 21
24.3138
  0
LINE
  8
0
 10
17.8928
 20
24.3138
 11
17.9434
 21
24.3194
  0
LINE
  8
0
 10
17.9434
 20
24.3194
 11
17.9434
 21
24.5069
  0
LINE
  8
0
 10
17.9434
 20
24.5069
 11
13.9727
 21
24.5069
  0
LINE
  8
0
 10
13.9727
 20
24.5069
 11
13.9727
 21
24.3192
  0
LINE
  8
0
 10
13.9727
 20
24.3192
 11
14.0861
 21
24.3017
  0
LINE
  8
0
 10
14.0861
 20
24.3017
 11
14.1759
 21
24.2802
  0
LINE
  8
0
 10
14.1759
 20
24.2802
 11
14.1998
 21
24.2691
  0
LINE
  8
0
 10
14.1998
 20
24.2691
 11
14.2194
 21
24.2515
  0
LINE
  8
0
 10
14.2194
 20
24.2515
 11
14.2346
 21
24.2274
  0
LINE
  8
0
 10
14.2346
 20
24.2274
 11
14.2455
 21
24.1969
  0
LINE
  8
0
 10
14.2455
 20
24.1969
 11
14.252
 21
24.1598
  0
LINE
  8
0
 10
14.252
 20
24.1598
 11
14.2542
 21
24.1162
  0
LINE
  8
0
 10
14.2542
 20
24.1162
 11
14.2521
 21
24.1042
  0
LINE
  8
0
 10
14.2521
 20
24.1042
 11
14.2457
 21
24.089
  0
LINE
  8
0
 10
14.2457
 20
24.089
 11
14.2203
 21
24.0492
  0
LINE
  8
0
 10
14.2203
 20
24.0492
 11
14.1779
 21
23.9968
  0
LINE
  8
0
 10
14.1779
 20
23.9968
 11
14.0826
 21
23.8947
  0
LINE
  8
0
 10
14.0826
 20
23.8947
 11
13.9979
 21
23.8108
  0
LINE
  8
0
 10
13.9979
 20
23.8108
 11
13.8435
 21
23.6644
  0
LINE
  8
0
 10
13.8435
 20
23.6644
 11
13.6073
 21
23.4439
  0
LINE
  8
0
 10
13.6073
 20
23.4439
 11
13.2657
 21
23.1291
  0
LINE
  8
0
 10
13.2657
 20
23.1291
 11
12.7164
 21
22.6291
  0
LINE
  8
0
 10
12.7164
 20
22.6291
 11
12.0206
 21
22.0013
  0
LINE
  8
0
 10
12.0206
 20
22.0013
 11
11.6767
 21
21.6852
  0
LINE
  8
0
 10
11.6767
 20
21.6852
 11
11.3485
 21
21.3761
  0
LINE
  8
0
 10
11.3485
 20
21.3761
 11
11.1902
 21
21.2242
  0
LINE
  8
0
 10
11.1902
 20
21.2242
 11
11.0809
 21
21.2242
  0
LINE
  8
0
 10
11.0809
 20
21.2242
 11
11.0814
 21
24.0559
  0
LINE
  8
0
 10
11.0814
 20
24.0559
 11
11.0853
 21
24.0902
  0
LINE
  8
0
 10
11.0853
 20
24.0902
 11
11.0931
 21
24.1224
  0
LINE
  8
0
 10
11.0931
 20
24.1224
 11
11.1048
 21
24.1523
  0
LINE
  8
0
 10
11.1048
 20
24.1523
 11
11.1205
 21
24.1801
  0
LINE
  8
0
 10
11.1205
 20
24.1801
 11
11.14
 21
24.2057
  0
LINE
  8
0
 10
11.14
 20
24.2057
 11
11.1645
 21
24.2291
  0
LINE
  8
0
 10
11.1645
 20
24.2291
 11
11.181
 21
24.24
  0
LINE
  8
0
 10
11.181
 20
24.24
 11
11.2233
 21
24.2602
  0
LINE
  8
0
 10
11.2233
 20
24.2602
 11
11.2783
 21
24.2782
  0
LINE
  8
0
 10
11.2783
 20
24.2782
 11
11.3459
 21
24.294
  0
LINE
  8
0
 10
11.3459
 20
24.294
 11
11.426
 21
24.3077
  0
LINE
  8
0
 10
11.426
 20
24.3077
 11
11.5187
 21
24.3192
  0
LINE
  8
0
 10
11.5187
 20
24.3192
 11
11.5187
 21
24.5069
  0
LINE
  8
0
 10
11.5187
 20
24.5069
 11
8.29118
 21
24.5069
  0
LINE
  8
0
 10
8.29118
 20
24.5069
 11
8.29118
 21
24.3194
  0
LINE
  8
0
 10
8.29118
 20
24.3194
 11
8.42551
 21
24.3013
  0
LINE
  8
0
 10
8.42551
 20
24.3013
 11
8.49931
 21
24.2865
  0
LINE
  8
0
 10
8.49931
 20
24.2865
 11
8.56053
 21
24.2695
  0
LINE
  8
0
 10
8.56053
 20
24.2695
 11
8.60913
 21
24.2504
  0
LINE
  8
0
 10
8.60913
 20
24.2504
 11
8.62872
 21
24.24
  0
LINE
  8
0
 10
8.62872
 20
24.24
 11
8.64516
 21
24.2291
  0
LINE
  8
0
 10
8.64516
 20
24.2291
 11
8.66969
 21
24.2057
  0
LINE
  8
0
 10
8.66969
 20
24.2057
 11
8.68927
 21
24.1801
  0
LINE
  8
0
 10
8.68927
 20
24.1801
 11
8.70494
 21
24.1523
  0
LINE
  8
0
 10
8.70494
 20
24.1523
 11
8.71669
 21
24.1224
  0
LINE
  8
0
 10
8.71669
 20
24.1224
 11
8.72453
 21
24.0902
  0
LINE
  8
0
 10
8.72453
 20
24.0902
 11
8.72844
 21
24.0559
  0
LINE
  8
0
 10
8.72844
 20
24.0559
 11
8.72844
 21
16.7339
  0
LINE
  8
0
 10
8.72844
 20
16.7339
 11
8.72453
 21
16.6996
  0
LINE
  8
0
 10
8.72453
 20
16.6996
 11
8.71669
 21
16.6675
  0
LINE
  8
0
 10
8.71669
 20
16.6675
 11
8.70494
 21
16.6375
  0
LINE
  8
0
 10
8.70494
 20
16.6375
 11
8.68927
 21
16.6098
  0
LINE
  8
0
 10
8.68927
 20
16.6098
 11
8.66969
 21
16.5842
  0
LINE
  8
0
 10
8.66969
 20
16.5842
 11
8.64516
 21
16.5607
  0
LINE
  8
0
 10
8.64516
 20
16.5607
 11
8.62872
 21
16.5498
  0
LINE
  8
0
 10
8.62872
 20
16.5498
 11
8.58641
 21
16.5296
  0
LINE
  8
0
 10
8.58641
 20
16.5296
 11
8.53149
 21
16.5116
  0
LINE
  8
0
 10
8.53149
 20
16.5116
 11
8.46399
 21
16.4957
  0
LINE
  8
0
 10
8.46399
 20
16.4957
 11
8.38388
 21
16.482
  0
LINE
  8
0
 10
8.38388
 20
16.482
 11
8.29118
 21
16.4704
  0
LINE
  8
0
 10
8.29118
 20
16.4704
 11
8.29118
 21
16.2829
  0
LINE
  8
0
 10
8.29118
 20
16.2829
 11
11.5187
 21
16.2829
  0
LINE
  8
0
 10
11.5187
 20
16.2829
 11
11.5187
 21
16.4704
  0
LINE
  8
0
 10
25.9681
 20
16.4707
 11
25.8499
 21
16.4845
  0
LINE
  8
0
 10
25.8499
 20
16.4845
 11
25.7456
 21
16.5052
  0
LINE
  8
0
 10
25.7456
 20
16.5052
 11
25.6766
 21
16.5254
  0
LINE
  8
0
 10
25.6766
 20
16.5254
 11
25.6353
 21
16.5416
  0
LINE
  8
0
 10
25.6353
 20
16.5416
 11
25.6171
 21
16.5521
  0
LINE
  8
0
 10
25.6171
 20
16.5521
 11
25.6006
 21
16.5642
  0
LINE
  8
0
 10
25.6006
 20
16.5642
 11
25.5859
 21
16.5782
  0
LINE
  8
0
 10
25.5859
 20
16.5782
 11
25.5728
 21
16.5938
  0
LINE
  8
0
 10
25.5728
 20
16.5938
 11
25.5616
 21
16.6112
  0
LINE
  8
0
 10
25.5616
 20
16.6112
 11
25.552
 21
16.6303
  0
LINE
  8
0
 10
25.552
 20
16.6303
 11
25.5442
 21
16.6512
  0
LINE
  8
0
 10
25.5442
 20
16.6512
 11
25.5381
 21
16.6738
  0
LINE
  8
0
 10
25.5381
 20
16.6738
 11
25.5312
 21
16.7241
  0
LINE
  8
0
 10
25.5312
 20
16.7241
 11
25.5303
 21
21.1927
  0
LINE
  8
0
 10
25.5303
 20
21.1927
 11
25.5623
 21
21.1927
  0
LINE
  8
0
 10
25.5623
 20
21.1927
 11
27.7981
 21
16.6739
  0
LINE
  8
0
 10
27.7981
 20
16.6739
 11
30.1223
 21
21.1927
  0
LINE
  8
0
 10
30.1223
 20
21.1927
 11
30.1543
 21
21.1927
  0
LINE
  8
0
 10
30.1543
 20
21.1927
 11
30.1535
 21
16.7241
  0
LINE
  8
0
 10
30.1535
 20
16.7241
 11
30.147
 21
16.6738
  0
LINE
  8
0
 10
30.147
 20
16.6738
 11
30.1413
 21
16.6512
  0
LINE
  8
0
 10
30.1413
 20
16.6512
 11
30.134
 21
16.6303
  0
LINE
  8
0
 10
30.134
 20
16.6303
 11
30.125
 21
16.6112
  0
LINE
  8
0
 10
30.125
 20
16.6112
 11
30.1144
 21
16.5938
  0
LINE
  8
0
 10
30.1144
 20
16.5938
 11
30.1022
 21
16.5782
  0
LINE
  8
0
 10
30.1022
 20
16.5782
 11
30.0884
 21
16.5642
  0
LINE
  8
0
 10
30.0884
 20
16.5642
 11
30.0729
 21
16.5521
  0
LINE
  8
0
 10
30.0729
 20
16.5521
 11
30.0558
 21
16.5416
  0
LINE
  8
0
 10
30.0558
 20
16.5416
 11
29.9965
 21
16.5182
  0
LINE
  8
0
 10
29.9965
 20
16.5182
 11
29.9061
 21
16.494
  0
LINE
  8
0
 10
29.9061
 20
16.494
 11
29.8036
 21
16.4767
  0
LINE
  8
0
 10
29.8036
 20
16.4767
 11
29.7478
 21
16.4707
  0
LINE
  8
0
 10
29.7478
 20
16.4707
 11
29.7478
 21
16.2829
  0
LINE
  8
0
 10
29.7478
 20
16.2829
 11
32.3546
 21
16.2829
  0
LINE
  8
0
 10
32.3546
 20
16.2829
 11
32.3546
 21
16.4707
  0
LINE
  8
0
 10
32.3546
 20
16.4707
 11
32.2816
 21
16.4845
  0
LINE
  8
0
 10
32.2816
 20
16.4845
 11
32.2086
 21
16.5052
  0
LINE
  8
0
 10
32.2086
 20
16.5052
 11
32.1356
 21
16.5329
  0
LINE
  8
0
 10
32.1356
 20
16.5329
 11
32.1181
 21
16.5416
  0
LINE
  8
0
 10
32.1181
 20
16.5416
 11
32.1022
 21
16.5521
  0
LINE
  8
0
 10
32.1022
 20
16.5521
 11
32.0878
 21
16.5642
  0
LINE
  8
0
 10
32.0878
 20
16.5642
 11
32.0749
 21
16.5782
  0
LINE
  8
0
 10
32.0749
 20
16.5782
 11
32.0635
 21
16.5938
  0
LINE
  8
0
 10
32.0635
 20
16.5938
 11
32.0536
 21
16.6112
  0
LINE
  8
0
 10
32.0536
 20
16.6112
 11
32.0453
 21
16.6303
  0
LINE
  8
0
 10
32.0453
 20
16.6303
 11
32.0331
 21
16.6738
  0
LINE
  8
0
 10
32.0331
 20
16.6738
 11
32.0271
 21
16.7241
  0
LINE
  8
0
 10
32.0271
 20
16.7241
 11
32.0271
 21
22.7217
  0
LINE
  8
0
 10
32.0271
 20
22.7217
 11
32.0331
 21
22.7721
  0
LINE
  8
0
 10
32.0331
 20
22.7721
 11
32.0453
 21
22.8155
  0
LINE
  8
0
 10
32.0453
 20
22.8155
 11
32.0536
 21
22.8346
  0
LINE
  8
0
 10
32.0536
 20
22.8346
 11
32.0635
 21
22.852
  0
LINE
  8
0
 10
32.0635
 20
22.852
 11
32.0749
 21
22.8676
  0
LINE
  8
0
 10
32.0749
 20
22.8676
 11
32.0878
 21
22.8815
  0
LINE
  8
0
 10
32.0878
 20
22.8815
 11
32.1022
 21
22.8936
  0
LINE
  8
0
 10
32.1022
 20
22.8936
 11
32.1181
 21
22.904
  0
LINE
  8
0
 10
32.1181
 20
22.904
 11
32.1721
 21
22.9275
  0
LINE
  8
0
 10
32.1721
 20
22.9275
 11
32.2451
 21
22.9518
  0
LINE
  8
0
 10
32.2451
 20
22.9518
 11
32.3181
 21
22.9691
  0
LINE
  8
0
 10
32.3181
 20
22.9691
 11
32.3546
 21
22.9752
  0
LINE
  8
0
 10
32.3546
 20
22.9752
 11
32.3546
 21
23.1629
  0
LINE
  8
0
 10
32.3546
 20
23.1629
 11
28.9526
 21
23.1629
  0
LINE
  8
0
 10
28.9526
 20
23.1629
 11
28.9526
 21
22.9752
  0
LINE
  8
0
 10
28.9526
 20
22.9752
 11
29.085
 21
22.957
  0
LINE
  8
0
 10
29.085
 20
22.957
 11
29.177
 21
22.9409
  0
LINE
  8
0
 10
29.177
 20
22.9409
 11
29.2008
 21
22.9323
  0
LINE
  8
0
 10
29.2008
 20
22.9323
 11
29.2199
 21
22.9201
  0
LINE
  8
0
 10
29.2199
 20
22.9201
 11
29.2342
 21
22.9045
  0
LINE
  8
0
 10
29.2342
 20
22.9045
 11
29.2437
 21
22.8854
  0
LINE
  8
0
 10
29.2437
 20
22.8854
 11
29.2485
 21
22.8628
  0
LINE
  8
0
 10
29.2485
 20
22.8628
 11
29.2481
 21
22.8356
  0
LINE
  8
0
 10
29.2481
 20
22.8356
 11
29.2403
 21
22.7974
  0
LINE
  8
0
 10
29.2403
 20
22.7974
 11
29.2139
 21
22.7172
  0
LINE
  8
0
 10
29.2139
 20
22.7172
 11
29.1515
 21
22.5679
  0
LINE
  8
0
 10
29.1515
 20
22.5679
 11
29.0599
 21
22.3731
  0
LINE
  8
0
 10
29.0599
 20
22.3731
 11
28.9209
 21
22.0938
  0
LINE
  8
0
 10
28.9209
 20
22.0938
 11
28.8259
 21
21.9093
  0
LINE
  8
0
 10
28.8259
 20
21.9093
 11
28.6137
 21
21.5081
  0
LINE
  8
0
 10
28.6137
 20
21.5081
 11
28.226
 21
20.7881
  0
LINE
  8
0
 10
28.226
 20
20.7881
 11
28.007
 21
20.3719
  0
LINE
  8
0
 10
28.007
 20
20.3719
 11
27.8761
 21
20.1139
  0
LINE
  8
0
 10
27.8761
 20
20.1139
 11
27.8429
 21
20.1945
  0
LINE
  8
0
 10
27.8429
 20
20.1945
 11
27.7684
 21
20.3582
  0
LINE
  8
0
 10
27.7684
 20
20.3582
 11
27.6896
 21
20.5231
  0
LINE
  8
0
 10
27.6896
 20
20.5231
 11
27.3791
 21
21.1553
  0
LINE
  8
0
 10
27.3791
 20
21.1553
 11
27.1131
 21
21.6909
  0
LINE
  8
0
 10
27.1131
 20
21.6909
 11
26.9018
 21
22.1275
  0
LINE
  8
0
 10
26.9018
 20
22.1275
 11
26.7474
 21
22.4596
  0
LINE
  8
0
 10
26.7474
 20
22.4596
 11
26.6414
 21
22.7056
  0
LINE
  8
0
 10
26.6414
 20
22.7056
 11
26.6078
 21
22.7984
  0
LINE
  8
0
 10
26.6078
 20
22.7984
 11
26.5978
 21
22.8375
  0
LINE
  8
0
 10
26.5978
 20
22.8375
 11
26.5972
 21
22.8628
  0
LINE
  8
0
 10
26.5972
 20
22.8628
 11
26.6019
 21
22.8854
  0
LINE
  8
0
 10
26.6019
 20
22.8854
 11
26.6115
 21
22.9045
  0
LINE
  8
0
 10
26.6115
 20
22.9045
 11
26.6257
 21
22.9201
  0
LINE
  8
0
 10
26.6257
 20
22.9201
 11
26.6448
 21
22.9323
  0
LINE
  8
0
 10
26.6448
 20
22.9323
 11
26.6686
 21
22.9409
  0
LINE
  8
0
 10
26.6686
 20
22.9409
 11
26.778
 21
22.9596
  0
LINE
  8
0
 10
26.778
 20
22.9596
 11
26.8931
 21
22.9752
  0
LINE
  8
0
 10
26.8931
 20
22.9752
 11
26.8931
 21
23.1629
  0
LINE
  8
0
 10
26.8931
 20
23.1629
 11
23.5068
 21
23.1629
  0
LINE
  8
0
 10
23.5068
 20
23.1629
 11
23.5068
 21
22.9752
  0
LINE
  8
0
 10
23.5068
 20
22.9752
 11
23.5893
 21
22.9613
  0
LINE
  8
0
 10
23.5893
 20
22.9613
 11
23.67
 21
22.9405
  0
LINE
  8
0
 10
23.67
 20
22.9405
 11
23.7491
 21
22.9127
  0
LINE
  8
0
 10
23.7491
 20
22.9127
 11
23.7678
 21
22.904
  0
LINE
  8
0
 10
23.7678
 20
22.904
 11
23.7849
 21
22.8936
  0
LINE
  8
0
 10
23.7849
 20
22.8936
 11
23.8004
 21
22.8815
  0
LINE
  8
0
 10
23.8004
 20
22.8815
 11
23.8142
 21
22.8676
  0
LINE
  8
0
 10
23.8142
 20
22.8676
 11
23.8264
 21
22.852
  0
LINE
  8
0
 10
23.8264
 20
22.852
 11
23.837
 21
22.8346
  0
LINE
  8
0
 10
23.837
 20
22.8346
 11
23.846
 21
22.8155
  0
LINE
  8
0
 10
23.846
 20
22.8155
 11
23.8533
 21
22.7947
  0
LINE
  8
0
 10
23.8533
 20
22.7947
 11
23.8631
 21
22.7478
  0
LINE
  8
0
 10
23.8631
 20
22.7478
 11
23.8663
 21
22.6939
  0
LINE
  8
0
 10
23.8663
 20
22.6939
 11
23.8655
 21
16.7241
  0
LINE
  8
0
 10
23.8655
 20
16.7241
 11
23.859
 21
16.6738
  0
LINE
  8
0
 10
23.859
 20
16.6738
 11
23.8533
 21
16.6512
  0
LINE
  8
0
 10
23.8533
 20
16.6512
 11
23.846
 21
16.6303
  0
LINE
  8
0
 10
23.846
 20
16.6303
 11
23.837
 21
16.6112
  0
LINE
  8
0
 10
23.837
 20
16.6112
 11
23.8264
 21
16.5938
  0
LINE
  8
0
 10
23.8264
 20
16.5938
 11
23.8142
 21
16.5782
  0
LINE
  8
0
 10
23.8142
 20
16.5782
 11
23.8004
 21
16.5642
  0
LINE
  8
0
 10
23.8004
 20
16.5642
 11
23.7849
 21
16.5521
  0
LINE
  8
0
 10
23.7849
 20
16.5521
 11
23.7678
 21
16.5416
  0
LINE
  8
0
 10
23.7678
 20
16.5416
 11
23.7491
 21
16.5329
  0
LINE
  8
0
 10
23.7491
 20
16.5329
 11
23.67
 21
16.5052
  0
LINE
  8
0
 10
23.67
 20
16.5052
 11
23.5893
 21
16.4845
  0
LINE
  8
0
 10
23.5893
 20
16.4845
 11
23.5068
 21
16.4707
  0
LINE
  8
0
 10
23.5068
 20
16.4707
 11
23.5068
 21
16.2829
  0
LINE
  8
0
 10
23.5068
 20
16.2829
 11
25.9681
 21
16.2829
  0
LINE
  8
0
 10
25.9681
 20
16.2829
 11
25.9681
 21
16.4707
  0
LINE
  8
0
 10
21.3791
 20
16.4707
 11
21.2341
 21
16.4845
  0
LINE
  8
0
 10
21.2341
 20
16.4845
 11
21.1117
 21
16.5052
  0
LINE
  8
0
 10
21.1117
 20
16.5052
 11
21.0347
 21
16.5254
  0
LINE
  8
0
 10
21.0347
 20
16.5254
 11
20.9906
 21
16.5416
  0
LINE
  8
0
 10
20.9906
 20
16.5416
 11
20.9713
 21
16.5521
  0
LINE
  8
0
 10
20.9713
 20
16.5521
 11
20.9537
 21
16.5642
  0
LINE
  8
0
 10
20.9537
 20
16.5642
 11
20.9381
 21
16.5782
  0
LINE
  8
0
 10
20.9381
 20
16.5782
 11
20.9242
 21
16.5938
  0
LINE
  8
0
 10
20.9242
 20
16.5938
 11
20.9122
 21
16.6112
  0
LINE
  8
0
 10
20.9122
 20
16.6112
 11
20.9021
 21
16.6303
  0
LINE
  8
0
 10
20.9021
 20
16.6303
 11
20.8938
 21
16.6512
  0
LINE
  8
0
 10
20.8938
 20
16.6512
 11
20.8874
 21
16.6738
  0
LINE
  8
0
 10
20.8874
 20
16.6738
 11
20.8828
 21
16.6981
  0
LINE
  8
0
 10
20.8828
 20
16.6981
 11
20.8791
 21
16.7519
  0
LINE
  8
0
 10
20.8791
 20
16.7519
 11
20.88
 21
22.7217
  0
LINE
  8
0
 10
20.88
 20
22.7217
 11
20.8828
 21
22.7478
  0
LINE
  8
0
 10
20.8828
 20
22.7478
 11
20.8874
 21
22.7721
  0
LINE
  8
0
 10
20.8874
 20
22.7721
 11
20.8938
 21
22.7947
  0
LINE
  8
0
 10
20.8938
 20
22.7947
 11
20.9021
 21
22.8155
  0
LINE
  8
0
 10
20.9021
 20
22.8155
 11
20.9122
 21
22.8346
  0
LINE
  8
0
 10
20.9122
 20
22.8346
 11
20.9242
 21
22.852
  0
LINE
  8
0
 10
20.9242
 20
22.852
 11
20.9381
 21
22.8676
  0
LINE
  8
0
 10
20.9381
 20
22.8676
 11
20.9537
 21
22.8815
  0
LINE
  8
0
 10
20.9537
 20
22.8815
 11
20.9713
 21
22.8936
  0
LINE
  8
0
 10
20.9713
 20
22.8936
 11
20.9906
 21
22.904
  0
LINE
  8
0
 10
20.9906
 20
22.904
 11
21.0347
 21
22.9203
  0
LINE
  8
0
 10
21.0347
 20
22.9203
 11
21.1117
 21
22.9405
  0
LINE
  8
0
 10
21.1117
 20
22.9405
 11
21.2014
 21
22.9568
  0
LINE
  8
0
 10
21.2014
 20
22.9568
 11
21.3407
 21
22.9724
  0
LINE
  8
0
 10
21.3407
 20
22.9724
 11
21.3791
 21
22.9752
  0
LINE
  8
0
 10
21.3791
 20
22.9752
 11
21.3791
 21
23.1629
  0
LINE
  8
0
 10
21.3791
 20
23.1629
 11
18.2828
 21
23.1629
  0
LINE
  8
0
 10
18.2828
 20
23.1629
 11
18.2828
 21
22.9752
  0
LINE
  8
0
 10
18.2828
 20
22.9752
 11
18.4278
 21
22.9613
  0
LINE
  8
0
 10
18.4278
 20
22.9613
 11
18.5503
 21
22.9405
  0
LINE
  8
0
 10
18.5503
 20
22.9405
 11
18.6272
 21
22.9203
  0
LINE
  8
0
 10
18.6272
 20
22.9203
 11
18.6713
 21
22.904
  0
LINE
  8
0
 10
18.6713
 20
22.904
 11
18.6907
 21
22.8936
  0
LINE
  8
0
 10
18.6907
 20
22.8936
 11
18.7083
 21
22.8815
  0
LINE
  8
0
 10
18.7083
 20
22.8815
 11
18.724
 21
22.8676
  0
LINE
  8
0
 10
18.724
 20
22.8676
 11
18.7378
 21
22.852
  0
LINE
  8
0
 10
18.7378
 20
22.852
 11
18.7498
 21
22.8346
  0
LINE
  8
0
 10
18.7498
 20
22.8346
 11
18.76
 21
22.8155
  0
LINE
  8
0
 10
18.76
 20
22.8155
 11
18.7683
 21
22.7947
  0
LINE
  8
0
 10
18.7683
 20
22.7947
 11
18.7747
 21
22.7721
  0
LINE
  8
0
 10
18.7747
 20
22.7721
 11
18.7794
 21
22.7478
  0
LINE
  8
0
 10
18.7794
 20
22.7478
 11
18.7831
 21
22.6939
  0
LINE
  8
0
 10
18.7831
 20
22.6939
 11
18.7821
 21
16.7241
  0
LINE
  8
0
 10
18.7821
 20
16.7241
 11
18.7794
 21
16.6981
  0
LINE
  8
0
 10
18.7794
 20
16.6981
 11
18.7747
 21
16.6738
  0
LINE
  8
0
 10
18.7747
 20
16.6738
 11
18.7683
 21
16.6512
  0
LINE
  8
0
 10
18.7683
 20
16.6512
 11
18.76
 21
16.6303
  0
LINE
  8
0
 10
18.76
 20
16.6303
 11
18.7498
 21
16.6112
  0
LINE
  8
0
 10
18.7498
 20
16.6112
 11
18.7378
 21
16.5938
  0
LINE
  8
0
 10
18.7378
 20
16.5938
 11
18.724
 21
16.5782
  0
LINE
  8
0
 10
18.724
 20
16.5782
 11
18.7083
 21
16.5642
  0
LINE
  8
0
 10
18.7083
 20
16.5642
 11
18.6907
 21
16.5521
  0
LINE
  8
0
 10
18.6907
 20
16.5521
 11
18.6713
 21
16.5416
  0
LINE
  8
0
 10
18.6713
 20
16.5416
 11
18.6272
 21
16.5254
  0
LINE
  8
0
 10
18.6272
 20
16.5254
 11
18.5503
 21
16.5052
  0
LINE
  8
0
 10
18.5503
 20
16.5052
 11
18.4278
 21
16.4845
  0
LINE
  8
0
 10
18.4278
 20
16.4845
 11
18.2828
 21
16.4707
  0
LINE
  8
0
 10
18.2828
 20
16.4707
 11
18.2828
 21
16.2829
  0
LINE
  8
0
 10
18.2828
 20
16.2829
 11
21.3791
 21
16.2829
  0
LINE
  8
0
 10
21.3791
 20
16.2829
 11
21.3791
 21
16.4707
  0
LINE
  8
0
 10
36.1594
 20
19.0154
 11
35.9195
 21
19.0745
  0
LINE
  8
0
 10
35.9195
 20
19.0745
 11
35.7007
 21
19.1894
  0
LINE
  8
0
 10
35.7007
 20
19.1894
 11
35.5157
 21
19.3532
  0
LINE
  8
0
 10
35.5157
 20
19.3532
 11
35.3754
 21
19.5566
  0
LINE
  8
0
 10
35.3754
 20
19.5566
 11
35.2877
 21
19.7876
  0
LINE
  8
0
 10
35.2877
 20
19.7876
 11
35.2579
 21
20.0329
  0
LINE
  8
0
 10
35.2579
 20
20.0329
 11
35.2877
 21
20.2782
  0
LINE
  8
0
 10
35.2877
 20
20.2782
 11
35.3754
 21
20.5093
  0
LINE
  8
0
 10
35.3754
 20
20.5093
 11
35.5157
 21
20.7126
  0
LINE
  8
0
 10
35.5157
 20
20.7126
 11
35.7007
 21
20.8765
  0
LINE
  8
0
 10
35.7007
 20
20.8765
 11
35.9195
 21
20.9913
  0
LINE
  8
0
 10
35.9195
 20
20.9913
 11
36.1594
 21
21.0505
  0
LINE
  8
0
 10
36.1594
 20
21.0505
 11
36.4065
 21
21.0505
  0
LINE
  8
0
 10
36.4065
 20
21.0505
 11
36.6464
 21
20.9913
  0
LINE
  8
0
 10
36.6464
 20
20.9913
 11
36.8652
 21
20.8765
  0
LINE
  8
0
 10
36.8652
 20
20.8765
 11
37.0502
 21
20.7126
  0
LINE
  8
0
 10
37.0502
 20
20.7126
 11
37.1905
 21
20.5093
  0
LINE
  8
0
 10
37.1905
 20
20.5093
 11
37.2782
 21
20.2782
  0
LINE
  8
0
 10
37.2782
 20
20.2782
 11
37.3079
 21
20.0329
  0
LINE
  8
0
 10
37.3079
 20
20.0329
 11
37.2782
 21
19.7876
  0
LINE
  8
0
 10
37.2782
 20
19.7876
 11
37.1905
 21
19.5566
  0
LINE
  8
0
 10
37.1905
 20
19.5566
 11
37.0502
 21
19.3532
  0
LINE
  8
0
 10
37.0502
 20
19.3532
 11
36.8652
 21
19.1894
  0
LINE
  8
0
 10
36.8652
 20
19.1894
 11
36.6464
 21
19.0745
  0
LINE
  8
0
 10
36.6464
 20
19.0745
 11
36.4065
 21
19.0154
  0
LINE
  8
0
 10
36.4065
 20
19.0154
 11
36.1594
 21
19.0154
  0
LINE
  8
0
 10
3.65938
 20
19.0154
 11
3.41946
 21
19.0745
  0
LINE
  8
0
 10
3.41946
 20
19.0745
 11
3.20067
 21
19.1894
  0
LINE
  8
0
 10
3.20067
 20
19.1894
 11
3.01572
 21
19.3532
  0
LINE
  8
0
 10
3.01572
 20
19.3532
 11
2.87534
 21
19.5566
  0
LINE
  8
0
 10
2.87534
 20
19.5566
 11
2.78772
 21
19.7876
  0
LINE
  8
0
 10
2.78772
 20
19.7876
 11
2.75793
 21
20.0329
  0
LINE
  8
0
 10
2.75793
 20
20.0329
 11
2.78772
 21
20.2782
  0
LINE
  8
0
 10
2.78772
 20
20.2782
 11
2.87534
 21
20.5093
  0
LINE
  8
0
 10
2.87534
 20
20.5093
 11
3.01572
 21
20.7126
  0
LINE
  8
0
 10
3.01572
 20
20.7126
 11
3.20067
 21
20.8765
  0
LINE
  8
0
 10
3.20067
 20
20.8765
 11
3.41946
 21
20.9913
  0
LINE
  8
0
 10
3.41946
 20
20.9913
 11
3.65938
 21
21.0505
  0
LINE
  8
0
 10
3.65938
 20
21.0505
 11
3.90648
 21
21.0505
  0
LINE
  8
0
 10
3.90648
 20
21.0505
 11
4.14641
 21
20.9913
  0
LINE
  8
0
 10
4.14641
 20
20.9913
 11
4.3652
 21
20.8765
  0
LINE
  8
0
 10
4.3652
 20
20.8765
 11
4.55016
 21
20.7126
  0
LINE
  8
0
 10
4.55016
 20
20.7126
 11
4.69052
 21
20.5093
  0
LINE
  8
0
 10
4.69052
 20
20.5093
 11
4.77815
 21
20.2782
  0
LINE
  8
0
 10
4.77815
 20
20.2782
 11
4.80794
 21
20.0329
  0
LINE
  8
0
 10
4.80794
 20
20.0329
 11
4.77815
 21
19.7876
  0
LINE
  8
0
 10
4.77815
 20
19.7876
 11
4.69052
 21
19.5566
  0
LINE
  8
0
 10
4.69052
 20
19.5566
 11
4.55016
 21
19.3532
  0
LINE
  8
0
 10
4.55016
 20
19.3532
 11
4.3652
 21
19.1894
  0
LINE
  8
0
 10
4.3652
 20
19.1894
 11
4.14641
 21
19.0745
  0
LINE
  8
0
 10
4.14641
 20
19.0745
 11
3.90648
 21
19.0154
  0
LINE
  8
0
 10
3.90648
 20
19.0154
 11
3.65938
 21
19.0154
  0
LINE
  8
0
 10
19.7876
 20
2.78772
 11
19.5566
 21
2.87534
  0
LINE
  8
0
 10
19.5566
 20
2.87534
 11
19.3532
 21
3.01572
  0
LINE
  8
0
 10
19.3532
 20
3.01572
 11
19.1894
 21
3.20067
  0
LINE
  8
0
 10
19.1894
 20
3.20067
 11
19.0745
 21
3.41946
  0
LINE
  8
0
 10
19.0745
 20
3.41946
 11
19.0154
 21
3.65938
  0
LINE
  8
0
 10
19.0154
 20
3.65938
 11
19.0154
 21
3.90648
  0
LINE
  8
0
 10
19.0154
 20
3.90648
 11
19.0745
 21
4.14641
  0
LINE
  8
0
 10
19.0745
 20
4.14641
 11
19.1894
 21
4.3652
  0
LINE
  8
0
 10
19.1894
 20
4.3652
 11
19.3532
 21
4.55016
  0
LINE
  8
0
 10
19.3532
 20
4.55016
 11
19.5566
 21
4.69052
  0
LINE
  8
0
 10
19.5566
 20
4.69052
 11
19.7876
 21
4.77815
  0
LINE
  8
0
 10
19.7876
 20
4.77815
 11
20.0329
 21
4.80794
  0
LINE
  8
0
 10
20.0329
 20
4.80794
 11
20.2782
 21
4.77815
  0
LINE
  8
0
 10
20.2782
 20
4.77815
 11
20.5093
 21
4.69052
  0
LINE
  8
0
 10
20.5093
 20
4.69052
 11
20.7126
 21
4.55016
  0
LINE
  8
0
 10
20.7126
 20
4.55016
 11
20.8765
 21
4.3652
  0
LINE
  8
0
 10
20.8765
 20
4.3652
 11
20.9913
 21
4.14641
  0
LINE
  8
0
 10
20.9913
 20
4.14641
 11
21.0505
 21
3.90648
  0
LINE
  8
0
 10
21.0505
 20
3.90648
 11
21.0505
 21
3.65938
  0
LINE
  8
0
 10
21.0505
 20
3.65938
 11
20.9913
 21
3.41946
  0
LINE
  8
0
 10
20.9913
 20
3.41946
 11
20.8765
 21
3.20067
  0
LINE
  8
0
 10
20.8765
 20
3.20067
 11
20.7126
 21
3.01572
  0
LINE
  8
0
 10
20.7126
 20
3.01572
 11
20.5093
 21
2.87534
  0
LINE
  8
0
 10
20.5093
 20
2.87534
 11
20.2782
 21
2.78772
  0
LINE
  8
0
 10
20.2782
 20
2.78772
 11
20.0329
 21
2.75793
  0
LINE
  8
0
 10
20.0329
 20
2.75793
 11
19.7876
 21
2.78772
  0
ENDSEC
  0
SECTION
  2
OBJECTS
  0
DICTIONARY
  0
ENDSEC
  0
EOF
