  0
SECTION
  2
BLOCKS
  0
ENDSEC
  0
SECTION
  2
ENTITIES
  0
LINE
  8
0
 10
0.981644
 20
-39.9879
 11
1.96269
 21
-39.9518
  0
LINE
  8
0
 10
1.96269
 20
-39.9518
 11
2.94258
 21
-39.8916
  0
LINE
  8
0
 10
2.94258
 20
-39.8916
 11
3.92068
 21
-39.8074
  0
LINE
  8
0
 10
3.92068
 20
-39.8074
 11
4.89642
 21
-39.6992
  0
LINE
  8
0
 10
4.89642
 20
-39.6992
 11
5.86922
 21
-39.567
  0
LINE
  8
0
 10
5.86922
 20
-39.567
 11
6.83847
 21
-39.4111
  0
LINE
  8
0
 10
6.83847
 20
-39.4111
 11
7.8036
 21
-39.2314
  0
LINE
  8
0
 10
7.8036
 20
-39.2314
 11
8.76404
 21
-39.0281
  0
LINE
  8
0
 10
8.76404
 20
-39.0281
 11
9.71919
 21
-38.8012
  0
LINE
  8
0
 10
9.71919
 20
-38.8012
 11
10.6685
 21
-38.551
  0
LINE
  8
0
 10
10.6685
 20
-38.551
 11
11.6114
 21
-38.2776
  0
LINE
  8
0
 10
11.6114
 20
-38.2776
 11
12.5473
 21
-37.9811
  0
LINE
  8
0
 10
12.5473
 20
-37.9811
 11
13.4756
 21
-37.6618
  0
LINE
  8
0
 10
13.4756
 20
-37.6618
 11
14.3958
 21
-37.3197
  0
LINE
  8
0
 10
14.3958
 20
-37.3197
 11
15.3073
 21
-36.9552
  0
LINE
  8
0
 10
15.3073
 20
-36.9552
 11
16.2096
 21
-36.5684
  0
LINE
  8
0
 10
16.2096
 20
-36.5684
 11
17.1022
 21
-36.1596
  0
LINE
  8
0
 10
17.1022
 20
-36.1596
 11
17.9845
 21
-35.729
  0
LINE
  8
0
 10
17.9845
 20
-35.729
 11
18.8559
 21
-35.2768
  0
LINE
  8
0
 10
18.8559
 20
-35.2768
 11
19.7159
 21
-34.8035
  0
LINE
  8
0
 10
19.7159
 20
-34.8035
 11
20.5641
 21
-34.3091
  0
LINE
  8
0
 10
20.5641
 20
-34.3091
 11
21.3999
 21
-33.7941
  0
LINE
  8
0
 10
21.3999
 20
-33.7941
 11
22.2228
 21
-33.2588
  0
LINE
  8
0
 10
22.2228
 20
-33.2588
 11
23.0323
 21
-32.7034
  0
LINE
  8
0
 10
23.0323
 20
-32.7034
 11
23.828
 21
-32.1283
  0
LINE
  8
0
 10
23.828
 20
-32.1283
 11
24.6093
 21
-31.5338
  0
LINE
  8
0
 10
24.6093
 20
-31.5338
 11
25.3757
 21
-30.9204
  0
LINE
  8
0
 10
25.3757
 20
-30.9204
 11
26.1269
 21
-30.2883
  0
LINE
  8
0
 10
26.1269
 20
-30.2883
 11
26.8624
 21
-29.638
  0
LINE
  8
0
 10
26.8624
 20
-29.638
 11
27.5816
 21
-28.9699
  0
LINE
  8
0
 10
27.5816
 20
-28.9699
 11
28.2843
 21
-28.2843
  0
LINE
  8
0
 10
28.2843
 20
-28.2843
 11
28.9699
 21
-27.5816
  0
LINE
  8
0
 10
28.9699
 20
-27.5816
 11
29.638
 21
-26.8624
  0
LINE
  8
0
 10
29.638
 20
-26.8624
 11
30.2883
 21
-26.1269
  0
LINE
  8
0
 10
30.2883
 20
-26.1269
 11
30.9204
 21
-25.3757
  0
LINE
  8
0
 10
30.9204
 20
-25.3757
 11
31.5338
 21
-24.6093
  0
LINE
  8
0
 10
31.5338
 20
-24.6093
 11
32.1283
 21
-23.828
  0
LINE
  8
0
 10
32.1283
 20
-23.828
 11
32.7034
 21
-23.0323
  0
LINE
  8
0
 10
32.7034
 20
-23.0323
 11
33.2588
 21
-22.2228
  0
LINE
  8
0
 10
33.2588
 20
-22.2228
 11
33.7941
 21
-21.3999
  0
LINE
  8
0
 10
33.7941
 20
-21.3999
 11
34.3091
 21
-20.5641
  0
LINE
  8
0
 10
34.3091
 20
-20.5641
 11
34.8035
 21
-19.7159
  0
LINE
  8
0
 10
34.8035
 20
-19.7159
 11
35.2768
 21
-18.8559
  0
LINE
  8
0
 10
35.2768
 20
-18.8559
 11
35.729
 21
-17.9845
  0
LINE
  8
0
 10
35.729
 20
-17.9845
 11
36.1596
 21
-17.1022
  0
LINE
  8
0
 10
36.1596
 20
-17.1022
 11
36.5684
 21
-16.2096
  0
LINE
  8
0
 10
36.5684
 20
-16.2096
 11
36.9552
 21
-15.3073
  0
LINE
  8
0
 10
36.9552
 20
-15.3073
 11
37.3197
 21
-14.3958
  0
LINE
  8
0
 10
37.3197
 20
-14.3958
 11
37.6618
 21
-13.4756
  0
LINE
  8
0
 10
37.6618
 20
-13.4756
 11
37.9811
 21
-12.5473
  0
LINE
  8
0
 10
37.9811
 20
-12.5473
 11
38.2776
 21
-11.6114
  0
LINE
  8
0
 10
38.2776
 20
-11.6114
 11
38.551
 21
-10.6685
  0
LINE
  8
0
 10
38.551
 20
-10.6685
 11
38.8012
 21
-9.71919
  0
LINE
  8
0
 10
38.8012
 20
-9.71919
 11
39.0281
 21
-8.76404
  0
LINE
  8
0
 10
39.0281
 20
-8.76404
 11
39.2314
 21
-7.8036
  0
LINE
  8
0
 10
39.2314
 20
-7.8036
 11
39.4111
 21
-6.83847
  0
LINE
  8
0
 10
39.4111
 20
-6.83847
 11
39.567
 21
-5.86922
  0
LINE
  8
0
 10
39.567
 20
-5.86922
 11
39.6992
 21
-4.89642
  0
LINE
  8
0
 10
39.6992
 20
-4.89642
 11
39.8074
 21
-3.92068
  0
LINE
  8
0
 10
39.8074
 20
-3.92068
 11
39.8916
 21
-2.94258
  0
LINE
  8
0
 10
39.8916
 20
-2.94258
 11
39.9518
 21
-1.96269
  0
LINE
  8
0
 10
39.9518
 20
-1.96269
 11
39.9879
 21
-0.981644
  0
LINE
  8
0
 10
39.9879
 20
-0.981644
 11
40
 21
0
  0
LINE
  8
0
 10
40
 20
0
 11
39.9879
 21
0.981644
  0
LINE
  8
0
 10
39.9879
 20
0.981644
 11
39.9518
 21
1.96269
  0
LINE
  8
0
 10
39.9518
 20
1.96269
 11
39.8916
 21
2.94258
  0
LINE
  8
0
 10
39.8916
 20
2.94258
 11
39.8074
 21
3.92068
  0
LINE
  8
0
 10
39.8074
 20
3.92068
 11
39.6992
 21
4.89642
  0
LINE
  8
0
 10
39.6992
 20
4.89642
 11
39.567
 21
5.86922
  0
LINE
  8
0
 10
39.567
 20
5.86922
 11
39.4111
 21
6.83847
  0
LINE
  8
0
 10
39.4111
 20
6.83847
 11
39.2314
 21
7.8036
  0
LINE
  8
0
 10
39.2314
 20
7.8036
 11
39.0281
 21
8.76404
  0
LINE
  8
0
 10
39.0281
 20
8.76404
 11
38.8012
 21
9.71919
  0
LINE
  8
0
 10
38.8012
 20
9.71919
 11
38.551
 21
10.6685
  0
LINE
  8
0
 10
38.551
 20
10.6685
 11
38.2776
 21
11.6114
  0
LINE
  8
0
 10
38.2776
 20
11.6114
 11
37.9811
 21
12.5473
  0
LINE
  8
0
 10
37.9811
 20
12.5473
 11
37.6618
 21
13.4756
  0
LINE
  8
0
 10
37.6618
 20
13.4756
 11
37.3197
 21
14.3958
  0
LINE
  8
0
 10
37.3197
 20
14.3958
 11
36.9552
 21
15.3073
  0
LINE
  8
0
 10
36.9552
 20
15.3073
 11
36.5684
 21
16.2096
  0
LINE
  8
0
 10
36.5684
 20
16.2096
 11
36.1596
 21
17.1022
  0
LINE
  8
0
 10
36.1596
 20
17.1022
 11
35.729
 21
17.9845
  0
LINE
  8
0
 10
35.729
 20
17.9845
 11
35.2768
 21
18.8559
  0
LINE
  8
0
 10
35.2768
 20
18.8559
 11
34.8035
 21
19.7159
  0
LINE
  8
0
 10
34.8035
 20
19.7159
 11
34.3091
 21
20.5641
  0
LINE
  8
0
 10
34.3091
 20
20.5641
 11
33.7941
 21
21.3999
  0
LINE
  8
0
 10
33.7941
 20
21.3999
 11
33.2588
 21
22.2228
  0
LINE
  8
0
 10
33.2588
 20
22.2228
 11
32.7034
 21
23.0323
  0
LINE
  8
0
 10
32.7034
 20
23.0323
 11
32.1283
 21
23.828
  0
LINE
  8
0
 10
32.1283
 20
23.828
 11
31.5338
 21
24.6093
  0
LINE
  8
0
 10
31.5338
 20
24.6093
 11
30.9204
 21
25.3757
  0
LINE
  8
0
 10
30.9204
 20
25.3757
 11
30.2883
 21
26.1269
  0
LINE
  8
0
 10
30.2883
 20
26.1269
 11
29.638
 21
26.8624
  0
LINE
  8
0
 10
29.638
 20
26.8624
 11
28.9699
 21
27.5816
  0
LINE
  8
0
 10
28.9699
 20
27.5816
 11
28.2843
 21
28.2843
  0
LINE
  8
0
 10
28.2843
 20
28.2843
 11
27.5816
 21
28.9699
  0
LINE
  8
0
 10
27.5816
 20
28.9699
 11
26.8624
 21
29.638
  0
LINE
  8
0
 10
26.8624
 20
29.638
 11
26.1269
 21
30.2883
  0
LINE
  8
0
 10
26.1269
 20
30.2883
 11
25.3757
 21
30.9204
  0
LINE
  8
0
 10
25.3757
 20
30.9204
 11
24.6093
 21
31.5338
  0
LINE
  8
0
 10
24.6093
 20
31.5338
 11
23.828
 21
32.1283
  0
LINE
  8
0
 10
23.828
 20
32.1283
 11
23.0323
 21
32.7034
  0
LINE
  8
0
 10
23.0323
 20
32.7034
 11
22.2228
 21
33.2588
  0
LINE
  8
0
 10
22.2228
 20
33.2588
 11
21.3999
 21
33.7941
  0
LINE
  8
0
 10
21.3999
 20
33.7941
 11
20.5641
 21
34.3091
  0
LINE
  8
0
 10
20.5641
 20
34.3091
 11
19.7159
 21
34.8035
  0
LINE
  8
0
 10
19.7159
 20
34.8035
 11
18.8559
 21
35.2768
  0
LINE
  8
0
 10
18.8559
 20
35.2768
 11
17.9845
 21
35.729
  0
LINE
  8
0
 10
17.9845
 20
35.729
 11
17.1022
 21
36.1596
  0
LINE
  8
0
 10
17.1022
 20
36.1596
 11
16.2096
 21
36.5684
  0
LINE
  8
0
 10
16.2096
 20
36.5684
 11
15.3073
 21
36.9552
  0
LINE
  8
0
 10
15.3073
 20
36.9552
 11
14.3958
 21
37.3197
  0
LINE
  8
0
 10
14.3958
 20
37.3197
 11
13.4756
 21
37.6618
  0
LINE
  8
0
 10
13.4756
 20
37.6618
 11
12.5473
 21
37.9811
  0
LINE
  8
0
 10
12.5473
 20
37.9811
 11
11.6114
 21
38.2776
  0
LINE
  8
0
 10
11.6114
 20
38.2776
 11
10.6685
 21
38.551
  0
LINE
  8
0
 10
10.6685
 20
38.551
 11
9.71919
 21
38.8012
  0
LINE
  8
0
 10
9.71919
 20
38.8012
 11
8.76404
 21
39.0281
  0
LINE
  8
0
 10
8.76404
 20
39.0281
 11
7.8036
 21
39.2314
  0
LINE
  8
0
 10
7.8036
 20
39.2314
 11
6.83847
 21
39.4111
  0
LINE
  8
0
 10
6.83847
 20
39.4111
 11
5.86922
 21
39.567
  0
LINE
  8
0
 10
5.86922
 20
39.567
 11
4.89642
 21
39.6992
  0
LINE
  8
0
 10
4.89642
 20
39.6992
 11
3.92068
 21
39.8074
  0
LINE
  8
0
 10
3.92068
 20
39.8074
 11
2.94258
 21
39.8916
  0
LINE
  8
0
 10
2.94258
 20
39.8916
 11
1.96269
 21
39.9518
  0
LINE
  8
0
 10
1.96269
 20
39.9518
 11
0.981644
 21
39.9879
  0
LINE
  8
0
 10
0.981644
 20
39.9879
 11
0
 21
40
  0
LINE
  8
0
 10
0
 20
40
 11
-0.981644
 21
39.9879
  0
LINE
  8
0
 10
-0.981644
 20
39.9879
 11
-1.96269
 21
39.9518
  0
LINE
  8
0
 10
-1.96269
 20
39.9518
 11
-2.94258
 21
39.8916
  0
LINE
  8
0
 10
-2.94258
 20
39.8916
 11
-3.92068
 21
39.8074
  0
LINE
  8
0
 10
-3.92068
 20
39.8074
 11
-4.89642
 21
39.6992
  0
LINE
  8
0
 10
-4.89642
 20
39.6992
 11
-5.86922
 21
39.567
  0
LINE
  8
0
 10
-5.86922
 20
39.567
 11
-6.83847
 21
39.4111
  0
LINE
  8
0
 10
-6.83847
 20
39.4111
 11
-7.8036
 21
39.2314
  0
LINE
  8
0
 10
-7.8036
 20
39.2314
 11
-8.76404
 21
39.0281
  0
LINE
  8
0
 10
-8.76404
 20
39.0281
 11
-9.71919
 21
38.8012
  0
LINE
  8
0
 10
-9.71919
 20
38.8012
 11
-10.6685
 21
38.551
  0
LINE
  8
0
 10
-10.6685
 20
38.551
 11
-11.6114
 21
38.2776
  0
LINE
  8
0
 10
-11.6114
 20
38.2776
 11
-12.5473
 21
37.9811
  0
LINE
  8
0
 10
-12.5473
 20
37.9811
 11
-13.4756
 21
37.6618
  0
LINE
  8
0
 10
-13.4756
 20
37.6618
 11
-14.3958
 21
37.3197
  0
LINE
  8
0
 10
-14.3958
 20
37.3197
 11
-15.3073
 21
36.9552
  0
LINE
  8
0
 10
-15.3073
 20
36.9552
 11
-16.2096
 21
36.5684
  0
LINE
  8
0
 10
-16.2096
 20
36.5684
 11
-17.1022
 21
36.1596
  0
LINE
  8
0
 10
-17.1022
 20
36.1596
 11
-17.9845
 21
35.729
  0
LINE
  8
0
 10
-17.9845
 20
35.729
 11
-18.8559
 21
35.2768
  0
LINE
  8
0
 10
-18.8559
 20
35.2768
 11
-19.7159
 21
34.8035
  0
LINE
  8
0
 10
-19.7159
 20
34.8035
 11
-20.5641
 21
34.3091
  0
LINE
  8
0
 10
-20.5641
 20
34.3091
 11
-21.3999
 21
33.7941
  0
LINE
  8
0
 10
-21.3999
 20
33.7941
 11
-22.2228
 21
33.2588
  0
LINE
  8
0
 10
-22.2228
 20
33.2588
 11
-23.0323
 21
32.7034
  0
LINE
  8
0
 10
-23.0323
 20
32.7034
 11
-23.828
 21
32.1283
  0
LINE
  8
0
 10
-23.828
 20
32.1283
 11
-24.6093
 21
31.5338
  0
LINE
  8
0
 10
-24.6093
 20
31.5338
 11
-25.3757
 21
30.9204
  0
LINE
  8
0
 10
-25.3757
 20
30.9204
 11
-26.1269
 21
30.2883
  0
LINE
  8
0
 10
-26.1269
 20
30.2883
 11
-26.8624
 21
29.638
  0
LINE
  8
0
 10
-26.8624
 20
29.638
 11
-27.5816
 21
28.9699
  0
LINE
  8
0
 10
-27.5816
 20
28.9699
 11
-28.2843
 21
28.2843
  0
LINE
  8
0
 10
-28.2843
 20
28.2843
 11
-28.9699
 21
27.5816
  0
LINE
  8
0
 10
-28.9699
 20
27.5816
 11
-29.638
 21
26.8624
  0
LINE
  8
0
 10
-29.638
 20
26.8624
 11
-30.2883
 21
26.1269
  0
LINE
  8
0
 10
-30.2883
 20
26.1269
 11
-30.9204
 21
25.3757
  0
LINE
  8
0
 10
-30.9204
 20
25.3757
 11
-31.5338
 21
24.6093
  0
LINE
  8
0
 10
-31.5338
 20
24.6093
 11
-32.1283
 21
23.828
  0
LINE
  8
0
 10
-32.1283
 20
23.828
 11
-32.7034
 21
23.0323
  0
LINE
  8
0
 10
-32.7034
 20
23.0323
 11
-33.2588
 21
22.2228
  0
LINE
  8
0
 10
-33.2588
 20
22.2228
 11
-33.7941
 21
21.3999
  0
LINE
  8
0
 10
-33.7941
 20
21.3999
 11
-34.3091
 21
20.5641
  0
LINE
  8
0
 10
-34.3091
 20
20.5641
 11
-34.8035
 21
19.7159
  0
LINE
  8
0
 10
-34.8035
 20
19.7159
 11
-35.2768
 21
18.8559
  0
LINE
  8
0
 10
-35.2768
 20
18.8559
 11
-35.729
 21
17.9845
  0
LINE
  8
0
 10
-35.729
 20
17.9845
 11
-36.1596
 21
17.1022
  0
LINE
  8
0
 10
-36.1596
 20
17.1022
 11
-36.5684
 21
16.2096
  0
LINE
  8
0
 10
-36.5684
 20
16.2096
 11
-36.9552
 21
15.3073
  0
LINE
  8
0
 10
-36.9552
 20
15.3073
 11
-37.3197
 21
14.3958
  0
LINE
  8
0
 10
-37.3197
 20
14.3958
 11
-37.6618
 21
13.4756
  0
LINE
  8
0
 10
-37.6618
 20
13.4756
 11
-37.9811
 21
12.5473
  0
LINE
  8
0
 10
-37.9811
 20
12.5473
 11
-38.2776
 21
11.6114
  0
LINE
  8
0
 10
-38.2776
 20
11.6114
 11
-38.551
 21
10.6685
  0
LINE
  8
0
 10
-38.551
 20
10.6685
 11
-38.8012
 21
9.71919
  0
LINE
  8
0
 10
-38.8012
 20
9.71919
 11
-39.0281
 21
8.76404
  0
LINE
  8
0
 10
-39.0281
 20
8.76404
 11
-39.2314
 21
7.8036
  0
LINE
  8
0
 10
-39.2314
 20
7.8036
 11
-39.4111
 21
6.83847
  0
LINE
  8
0
 10
-39.4111
 20
6.83847
 11
-39.567
 21
5.86922
  0
LINE
  8
0
 10
-39.567
 20
5.86922
 11
-39.6992
 21
4.89642
  0
LINE
  8
0
 10
-39.6992
 20
4.89642
 11
-39.8074
 21
3.92068
  0
LINE
  8
0
 10
-39.8074
 20
3.92068
 11
-39.8916
 21
2.94258
  0
LINE
  8
0
 10
-39.8916
 20
2.94258
 11
-39.9518
 21
1.96269
  0
LINE
  8
0
 10
-39.9518
 20
1.96269
 11
-39.9879
 21
0.981644
  0
LINE
  8
0
 10
-39.9879
 20
0.981644
 11
-40
 21
0
  0
LINE
  8
0
 10
-40
 20
0
 11
-39.9879
 21
-0.981644
  0
LINE
  8
0
 10
-39.9879
 20
-0.981644
 11
-39.9518
 21
-1.96269
  0
LINE
  8
0
 10
-39.9518
 20
-1.96269
 11
-39.8916
 21
-2.94258
  0
LINE
  8
0
 10
-39.8916
 20
-2.94258
 11
-39.8074
 21
-3.92068
  0
LINE
  8
0
 10
-39.8074
 20
-3.92068
 11
-39.6992
 21
-4.89642
  0
LINE
  8
0
 10
-39.6992
 20
-4.89642
 11
-39.567
 21
-5.86922
  0
LINE
  8
0
 10
-39.567
 20
-5.86922
 11
-39.4111
 21
-6.83847
  0
LINE
  8
0
 10
-39.4111
 20
-6.83847
 11
-39.2314
 21
-7.8036
  0
LINE
  8
0
 10
-39.2314
 20
-7.8036
 11
-39.0281
 21
-8.76404
  0
LINE
  8
0
 10
-39.0281
 20
-8.76404
 11
-38.8012
 21
-9.71919
  0
LINE
  8
0
 10
-38.8012
 20
-9.71919
 11
-38.551
 21
-10.6685
  0
LINE
  8
0
 10
-38.551
 20
-10.6685
 11
-38.2776
 21
-11.6114
  0
LINE
  8
0
 10
-38.2776
 20
-11.6114
 11
-37.9811
 21
-12.5473
  0
LINE
  8
0
 10
-37.9811
 20
-12.5473
 11
-37.6618
 21
-13.4756
  0
LINE
  8
0
 10
-37.6618
 20
-13.4756
 11
-37.3197
 21
-14.3958
  0
LINE
  8
0
 10
-37.3197
 20
-14.3958
 11
-36.9552
 21
-15.3073
  0
LINE
  8
0
 10
-36.9552
 20
-15.3073
 11
-36.5684
 21
-16.2096
  0
LINE
  8
0
 10
-36.5684
 20
-16.2096
 11
-36.1596
 21
-17.1022
  0
LINE
  8
0
 10
-36.1596
 20
-17.1022
 11
-35.729
 21
-17.9845
  0
LINE
  8
0
 10
-35.729
 20
-17.9845
 11
-35.2768
 21
-18.8559
  0
LINE
  8
0
 10
-35.2768
 20
-18.8559
 11
-34.8035
 21
-19.7159
  0
LINE
  8
0
 10
-34.8035
 20
-19.7159
 11
-34.3091
 21
-20.5641
  0
LINE
  8
0
 10
-34.3091
 20
-20.5641
 11
-33.7941
 21
-21.3999
  0
LINE
  8
0
 10
-33.7941
 20
-21.3999
 11
-33.2588
 21
-22.2228
  0
LINE
  8
0
 10
-33.2588
 20
-22.2228
 11
-32.7034
 21
-23.0323
  0
LINE
  8
0
 10
-32.7034
 20
-23.0323
 11
-32.1283
 21
-23.828
  0
LINE
  8
0
 10
-32.1283
 20
-23.828
 11
-31.5338
 21
-24.6093
  0
LINE
  8
0
 10
-31.5338
 20
-24.6093
 11
-30.9204
 21
-25.3757
  0
LINE
  8
0
 10
-30.9204
 20
-25.3757
 11
-30.2883
 21
-26.1269
  0
LINE
  8
0
 10
-30.2883
 20
-26.1269
 11
-29.638
 21
-26.8624
  0
LINE
  8
0
 10
-29.638
 20
-26.8624
 11
-28.9699
 21
-27.5816
  0
LINE
  8
0
 10
-28.9699
 20
-27.5816
 11
-28.2843
 21
-28.2843
  0
LINE
  8
0
 10
-28.2843
 20
-28.2843
 11
-27.5816
 21
-28.9699
  0
LINE
  8
0
 10
-27.5816
 20
-28.9699
 11
-26.8624
 21
-29.638
  0
LINE
  8
0
 10
-26.8624
 20
-29.638
 11
-26.1269
 21
-30.2883
  0
LINE
  8
0
 10
-26.1269
 20
-30.2883
 11
-25.3757
 21
-30.9204
  0
LINE
  8
0
 10
-25.3757
 20
-30.9204
 11
-24.6093
 21
-31.5338
  0
LINE
  8
0
 10
-24.6093
 20
-31.5338
 11
-23.828
 21
-32.1283
  0
LINE
  8
0
 10
-23.828
 20
-32.1283
 11
-23.0323
 21
-32.7034
  0
LINE
  8
0
 10
-23.0323
 20
-32.7034
 11
-22.2228
 21
-33.2588
  0
LINE
  8
0
 10
-22.2228
 20
-33.2588
 11
-21.3999
 21
-33.7941
  0
LINE
  8
0
 10
-21.3999
 20
-33.7941
 11
-20.5641
 21
-34.3091
  0
LINE
  8
0
 10
-20.5641
 20
-34.3091
 11
-19.7159
 21
-34.8035
  0
LINE
  8
0
 10
-19.7159
 20
-34.8035
 11
-18.8559
 21
-35.2768
  0
LINE
  8
0
 10
-18.8559
 20
-35.2768
 11
-17.9845
 21
-35.729
  0
LINE
  8
0
 10
-17.9845
 20
-35.729
 11
-17.1022
 21
-36.1596
  0
LINE
  8
0
 10
-17.1022
 20
-36.1596
 11
-16.2096
 21
-36.5684
  0
LINE
  8
0
 10
-16.2096
 20
-36.5684
 11
-15.3073
 21
-36.9552
  0
LINE
  8
0
 10
-15.3073
 20
-36.9552
 11
-14.3958
 21
-37.3197
  0
LINE
  8
0
 10
-14.3958
 20
-37.3197
 11
-13.4756
 21
-37.6618
  0
LINE
  8
0
 10
-13.4756
 20
-37.6618
 11
-12.5473
 21
-37.9811
  0
LINE
  8
0
 10
-12.5473
 20
-37.9811
 11
-11.6114
 21
-38.2776
  0
LINE
  8
0
 10
-11.6114
 20
-38.2776
 11
-10.6685
 21
-38.551
  0
LINE
  8
0
 10
-10.6685
 20
-38.551
 11
-9.71919
 21
-38.8012
  0
LINE
  8
0
 10
-9.71919
 20
-38.8012
 11
-8.76404
 21
-39.0281
  0
LINE
  8
0
 10
-8.76404
 20
-39.0281
 11
-7.8036
 21
-39.2314
  0
LINE
  8
0
 10
-7.8036
 20
-39.2314
 11
-6.83847
 21
-39.4111
  0
LINE
  8
0
 10
-6.83847
 20
-39.4111
 11
-5.86922
 21
-39.567
  0
LINE
  8
0
 10
-5.86922
 20
-39.567
 11
-4.89642
 21
-39.6992
  0
LINE
  8
0
 10
-4.89642
 20
-39.6992
 11
-3.92068
 21
-39.8074
  0
LINE
  8
0
 10
-3.92068
 20
-39.8074
 11
-2.94258
 21
-39.8916
  0
LINE
  8
0
 10
-2.94258
 20
-39.8916
 11
-1.96269
 21
-39.9518
  0
LINE
  8
0
 10
-1.96269
 20
-39.9518
 11
-0.981644
 21
-39.9879
  0
LINE
  8
0
 10
-0.981644
 20
-39.9879
 11
0
 21
-40
  0
LINE
  8
0
 10
0
 20
-40
 11
0.981644
 21
-39.9879
  0
LINE
  8
0
 10
-3.41719
 20
5.00513
 11
-3.83414
 21
5.02048
  0
LINE
  8
0
 10
-3.83414
 20
5.02048
 11
-4.2506
 21
5.04607
  0
LINE
  8
0
 10
-4.2506
 20
5.04607
 11
-4.66629
 21
5.08186
  0
LINE
  8
0
 10
-4.66629
 20
5.08186
 11
-5.08098
 21
5.12785
  0
LINE
  8
0
 10
-5.08098
 20
5.12785
 11
-5.49442
 21
5.18401
  0
LINE
  8
0
 10
-5.49442
 20
5.18401
 11
-5.90634
 21
5.25029
  0
LINE
  8
0
 10
-5.90634
 20
5.25029
 11
-6.31653
 21
5.32666
  0
LINE
  8
0
 10
-6.31653
 20
5.32666
 11
-6.72472
 21
5.41307
  0
LINE
  8
0
 10
-6.72472
 20
5.41307
 11
-7.13066
 21
5.50948
  0
LINE
  8
0
 10
-7.13066
 20
5.50948
 11
-7.5341
 21
5.61581
  0
LINE
  8
0
 10
-7.5341
 20
5.61581
 11
-7.93483
 21
5.73203
  0
LINE
  8
0
 10
-7.93483
 20
5.73203
 11
-8.33258
 21
5.85803
  0
LINE
  8
0
 10
-8.33258
 20
5.85803
 11
-8.72713
 21
5.99376
  0
LINE
  8
0
 10
-8.72713
 20
5.99376
 11
-9.11821
 21
6.13913
  0
LINE
  8
0
 10
-9.11821
 20
6.13913
 11
-9.50562
 21
6.29405
  0
LINE
  8
0
 10
-9.50562
 20
6.29405
 11
-9.8891
 21
6.45844
  0
LINE
  8
0
 10
-9.8891
 20
6.45844
 11
-10.2684
 21
6.63219
  0
LINE
  8
0
 10
-10.2684
 20
6.63219
 11
-10.6434
 21
6.8152
  0
LINE
  8
0
 10
-10.6434
 20
6.8152
 11
-11.0137
 21
7.00734
  0
LINE
  8
0
 10
-11.0137
 20
7.00734
 11
-11.3793
 21
7.20853
  0
LINE
  8
0
 10
-11.3793
 20
7.20853
 11
-11.7397
 21
7.41862
  0
LINE
  8
0
 10
-11.7397
 20
7.41862
 11
-12.095
 21
7.6375
  0
LINE
  8
0
 10
-12.095
 20
7.6375
 11
-12.4447
 21
7.86502
  0
LINE
  8
0
 10
-12.4447
 20
7.86502
 11
-12.7887
 21
8.10106
  0
LINE
  8
0
 10
-12.7887
 20
8.10106
 11
-13.1269
 21
8.34547
  0
LINE
  8
0
 10
-13.1269
 20
8.34547
 11
-13.4589
 21
8.59811
  0
LINE
  8
0
 10
-13.4589
 20
8.59811
 11
-13.7847
 21
8.85883
  0
LINE
  8
0
 10
-13.7847
 20
8.85883
 11
-14.1039
 21
9.12746
  0
LINE
  8
0
 10
-14.1039
 20
9.12746
 11
-14.4165
 21
9.40384
  0
LINE
  8
0
 10
-14.4165
 20
9.40384
 11
-14.7222
 21
9.68781
  0
LINE
  8
0
 10
-14.7222
 20
9.68781
 11
-15.0208
 21
9.97919
  0
LINE
  8
0
 10
-15.0208
 20
9.97919
 11
-15.3122
 21
10.2778
  0
LINE
  8
0
 10
-15.3122
 20
10.2778
 11
-15.5962
 21
10.5835
  0
LINE
  8
0
 10
-15.5962
 20
10.5835
 11
-15.8725
 21
10.8961
  0
LINE
  8
0
 10
-15.8725
 20
10.8961
 11
-16.1412
 21
11.2153
  0
LINE
  8
0
 10
-16.1412
 20
11.2153
 11
-16.4019
 21
11.5411
  0
LINE
  8
0
 10
-16.4019
 20
11.5411
 11
-16.6545
 21
11.8731
  0
LINE
  8
0
 10
-16.6545
 20
11.8731
 11
-16.8989
 21
12.2113
  0
LINE
  8
0
 10
-16.8989
 20
12.2113
 11
-17.135
 21
12.5553
  0
LINE
  8
0
 10
-17.135
 20
12.5553
 11
-17.3625
 21
12.905
  0
LINE
  8
0
 10
-17.3625
 20
12.905
 11
-17.5814
 21
13.2603
  0
LINE
  8
0
 10
-17.5814
 20
13.2603
 11
-17.7915
 21
13.6207
  0
LINE
  8
0
 10
-17.7915
 20
13.6207
 11
-17.9927
 21
13.9863
  0
LINE
  8
0
 10
-17.9927
 20
13.9863
 11
-18.1848
 21
14.3566
  0
LINE
  8
0
 10
-18.1848
 20
14.3566
 11
-18.3678
 21
14.7316
  0
LINE
  8
0
 10
-18.3678
 20
14.7316
 11
-18.5416
 21
15.1109
  0
LINE
  8
0
 10
-18.5416
 20
15.1109
 11
-18.7059
 21
15.4944
  0
LINE
  8
0
 10
-18.7059
 20
15.4944
 11
-18.8609
 21
15.8818
  0
LINE
  8
0
 10
-18.8609
 20
15.8818
 11
-19.0062
 21
16.2729
  0
LINE
  8
0
 10
-19.0062
 20
16.2729
 11
-19.142
 21
16.6674
  0
LINE
  8
0
 10
-19.142
 20
16.6674
 11
-19.268
 21
17.0652
  0
LINE
  8
0
 10
-19.268
 20
17.0652
 11
-19.3842
 21
17.4659
  0
LINE
  8
0
 10
-19.3842
 20
17.4659
 11
-19.4905
 21
17.8693
  0
LINE
  8
0
 10
-19.4905
 20
17.8693
 11
-19.5869
 21
18.2753
  0
LINE
  8
0
 10
-19.5869
 20
18.2753
 11
-19.6733
 21
18.6835
  0
LINE
  8
0
 10
-19.6733
 20
18.6835
 11
-19.7497
 21
19.0937
  0
LINE
  8
0
 10
-19.7497
 20
19.0937
 11
-19.816
 21
19.5056
  0
LINE
  8
0
 10
-19.816
 20
19.5056
 11
-19.8721
 21
19.919
  0
LINE
  8
0
 10
-19.8721
 20
19.919
 11
-19.9181
 21
20.3337
  0
LINE
  8
0
 10
-19.9181
 20
20.3337
 11
-19.9539
 21
20.7494
  0
LINE
  8
0
 10
-19.9539
 20
20.7494
 11
-19.9795
 21
21.1659
  0
LINE
  8
0
 10
-19.9795
 20
21.1659
 11
-19.9949
 21
21.5828
  0
LINE
  8
0
 10
-19.9949
 20
21.5828
 11
-20
 21
22
  0
LINE
  8
0
 10
-20
 20
22
 11
-19.9949
 21
22.4172
  0
LINE
  8
0
 10
-19.9949
 20
22.4172
 11
-19.9795
 21
22.8341
  0
LINE
  8
0
 10
-19.9795
 20
22.8341
 11
-19.9539
 21
23.2506
  0
LINE
  8
0
 10
-19.9539
 20
23.2506
 11
-19.9181
 21
23.6663
  0
LINE
  8
0
 10
-19.9181
 20
23.6663
 11
-19.8721
 21
24.081
  0
LINE
  8
0
 10
-19.8721
 20
24.081
 11
-19.816
 21
24.4944
  0
LINE
  8
0
 10
-19.816
 20
24.4944
 11
-19.7497
 21
24.9063
  0
LINE
  8
0
 10
-19.7497
 20
24.9063
 11
-19.6733
 21
25.3165
  0
LINE
  8
0
 10
-19.6733
 20
25.3165
 11
-19.5869
 21
25.7247
  0
LINE
  8
0
 10
-19.5869
 20
25.7247
 11
-19.4905
 21
26.1307
  0
LINE
  8
0
 10
-19.4905
 20
26.1307
 11
-19.3842
 21
26.5341
  0
LINE
  8
0
 10
-19.3842
 20
26.5341
 11
-19.268
 21
26.9348
  0
LINE
  8
0
 10
-19.268
 20
26.9348
 11
-19.142
 21
27.3326
  0
LINE
  8
0
 10
-19.142
 20
27.3326
 11
-19.0062
 21
27.7271
  0
LINE
  8
0
 10
-19.0062
 20
27.7271
 11
-18.8609
 21
28.1182
  0
LINE
  8
0
 10
-18.8609
 20
28.1182
 11
-18.7059
 21
28.5056
  0
LINE
  8
0
 10
-18.7059
 20
28.5056
 11
-18.5416
 21
28.8891
  0
LINE
  8
0
 10
-18.5416
 20
28.8891
 11
-18.3678
 21
29.2684
  0
LINE
  8
0
 10
-18.3678
 20
29.2684
 11
-18.1848
 21
29.6434
  0
LINE
  8
0
 10
-18.1848
 20
29.6434
 11
-17.9927
 21
30.0137
  0
LINE
  8
0
 10
-17.9927
 20
30.0137
 11
-17.7915
 21
30.3793
  0
LINE
  8
0
 10
-17.7915
 20
30.3793
 11
-17.5814
 21
30.7397
  0
LINE
  8
0
 10
-17.5814
 20
30.7397
 11
-17.3625
 21
31.095
  0
LINE
  8
0
 10
-17.3625
 20
31.095
 11
-17.135
 21
31.4447
  0
LINE
  8
0
 10
-17.135
 20
31.4447
 11
-16.8989
 21
31.7887
  0
LINE
  8
0
 10
-16.8989
 20
31.7887
 11
-16.6545
 21
32.1269
  0
LINE
  8
0
 10
-16.6545
 20
32.1269
 11
-16.4019
 21
32.4589
  0
LINE
  8
0
 10
-16.4019
 20
32.4589
 11
-16.1412
 21
32.7847
  0
LINE
  8
0
 10
-16.1412
 20
32.7847
 11
-15.8725
 21
33.1039
  0
LINE
  8
0
 10
-15.8725
 20
33.1039
 11
-15.5962
 21
33.4165
  0
LINE
  8
0
 10
-15.5962
 20
33.4165
 11
-15.3122
 21
33.7222
  0
LINE
  8
0
 10
-15.3122
 20
33.7222
 11
-15.0208
 21
34.0208
  0
LINE
  8
0
 10
-15.0208
 20
34.0208
 11
-14.7222
 21
34.3122
  0
LINE
  8
0
 10
-14.7222
 20
34.3122
 11
-14.4165
 21
34.5962
  0
LINE
  8
0
 10
-14.4165
 20
34.5962
 11
-14.1039
 21
34.8725
  0
LINE
  8
0
 10
-14.1039
 20
34.8725
 11
-13.7847
 21
35.1412
  0
LINE
  8
0
 10
-13.7847
 20
35.1412
 11
-13.4265
 21
35.4265
  0
LINE
  8
0
 10
-13.4265
 20
35.4265
 11
-13.6545
 21
35.1269
  0
LINE
  8
0
 10
-13.6545
 20
35.1269
 11
-13.8989
 21
34.7887
  0
LINE
  8
0
 10
-13.8989
 20
34.7887
 11
-14.135
 21
34.4447
  0
LINE
  8
0
 10
-14.135
 20
34.4447
 11
-14.3625
 21
34.095
  0
LINE
  8
0
 10
-14.3625
 20
34.095
 11
-14.5814
 21
33.7397
  0
LINE
  8
0
 10
-14.5814
 20
33.7397
 11
-14.7915
 21
33.3793
  0
LINE
  8
0
 10
-14.7915
 20
33.3793
 11
-14.9927
 21
33.0137
  0
LINE
  8
0
 10
-14.9927
 20
33.0137
 11
-15.1848
 21
32.6434
  0
LINE
  8
0
 10
-15.1848
 20
32.6434
 11
-15.3678
 21
32.2684
  0
LINE
  8
0
 10
-15.3678
 20
32.2684
 11
-15.5416
 21
31.8891
  0
LINE
  8
0
 10
-15.5416
 20
31.8891
 11
-15.7059
 21
31.5056
  0
LINE
  8
0
 10
-15.7059
 20
31.5056
 11
-15.8609
 21
31.1182
  0
LINE
  8
0
 10
-15.8609
 20
31.1182
 11
-16.0062
 21
30.7271
  0
LINE
  8
0
 10
-16.0062
 20
30.7271
 11
-16.142
 21
30.3326
  0
LINE
  8
0
 10
-16.142
 20
30.3326
 11
-16.268
 21
29.9348
  0
LINE
  8
0
 10
-16.268
 20
29.9348
 11
-16.3842
 21
29.5341
  0
LINE
  8
0
 10
-16.3842
 20
29.5341
 11
-16.4905
 21
29.1307
  0
LINE
  8
0
 10
-16.4905
 20
29.1307
 11
-16.5869
 21
28.7247
  0
LINE
  8
0
 10
-16.5869
 20
28.7247
 11
-16.6733
 21
28.3165
  0
LINE
  8
0
 10
-16.6733
 20
28.3165
 11
-16.7497
 21
27.9063
  0
LINE
  8
0
 10
-16.7497
 20
27.9063
 11
-16.816
 21
27.4944
  0
LINE
  8
0
 10
-16.816
 20
27.4944
 11
-16.8721
 21
27.081
  0
LINE
  8
0
 10
-16.8721
 20
27.081
 11
-16.9181
 21
26.6663
  0
LINE
  8
0
 10
-16.9181
 20
26.6663
 11
-16.9539
 21
26.2506
  0
LINE
  8
0
 10
-16.9539
 20
26.2506
 11
-16.9795
 21
25.8341
  0
LINE
  8
0
 10
-16.9795
 20
25.8341
 11
-16.9949
 21
25.4172
  0
LINE
  8
0
 10
-16.9949
 20
25.4172
 11
-17
 21
25
  0
LINE
  8
0
 10
-17
 20
25
 11
-16.9949
 21
24.5828
  0
LINE
  8
0
 10
-16.9949
 20
24.5828
 11
-16.9795
 21
24.1658
  0
LINE
  8
0
 10
-16.9795
 20
24.1658
 11
-16.9539
 21
23.7494
  0
LINE
  8
0
 10
-16.9539
 20
23.7494
 11
-16.9181
 21
23.3337
  0
LINE
  8
0
 10
-16.9181
 20
23.3337
 11
-16.8721
 21
22.919
  0
LINE
  8
0
 10
-16.8721
 20
22.919
 11
-16.816
 21
22.5056
  0
LINE
  8
0
 10
-16.816
 20
22.5056
 11
-16.7497
 21
22.0936
  0
LINE
  8
0
 10
-16.7497
 20
22.0936
 11
-16.6733
 21
21.6835
  0
LINE
  8
0
 10
-16.6733
 20
21.6835
 11
-16.5869
 21
21.2753
  0
LINE
  8
0
 10
-16.5869
 20
21.2753
 11
-16.4905
 21
20.8693
  0
LINE
  8
0
 10
-16.4905
 20
20.8693
 11
-16.3842
 21
20.4659
  0
LINE
  8
0
 10
-16.3842
 20
20.4659
 11
-16.268
 21
20.0652
  0
LINE
  8
0
 10
-16.268
 20
20.0652
 11
-16.142
 21
19.6674
  0
LINE
  8
0
 10
-16.142
 20
19.6674
 11
-16.0062
 21
19.2729
  0
LINE
  8
0
 10
-16.0062
 20
19.2729
 11
-15.8609
 21
18.8818
  0
LINE
  8
0
 10
-15.8609
 20
18.8818
 11
-15.7059
 21
18.4944
  0
LINE
  8
0
 10
-15.7059
 20
18.4944
 11
-15.5416
 21
18.1109
  0
LINE
  8
0
 10
-15.5416
 20
18.1109
 11
-15.3678
 21
17.7316
  0
LINE
  8
0
 10
-15.3678
 20
17.7316
 11
-15.1848
 21
17.3566
  0
LINE
  8
0
 10
-15.1848
 20
17.3566
 11
-14.9927
 21
16.9863
  0
LINE
  8
0
 10
-14.9927
 20
16.9863
 11
-14.7915
 21
16.6207
  0
LINE
  8
0
 10
-14.7915
 20
16.6207
 11
-14.5814
 21
16.2603
  0
LINE
  8
0
 10
-14.5814
 20
16.2603
 11
-14.3625
 21
15.905
  0
LINE
  8
0
 10
-14.3625
 20
15.905
 11
-14.135
 21
15.5553
  0
LINE
  8
0
 10
-14.135
 20
15.5553
 11
-13.8989
 21
15.2113
  0
LINE
  8
0
 10
-13.8989
 20
15.2113
 11
-13.6545
 21
14.8731
  0
LINE
  8
0
 10
-13.6545
 20
14.8731
 11
-13.4019
 21
14.5411
  0
LINE
  8
0
 10
-13.4019
 20
14.5411
 11
-13.1412
 21
14.2153
  0
LINE
  8
0
 10
-13.1412
 20
14.2153
 11
-12.8725
 21
13.8961
  0
LINE
  8
0
 10
-12.8725
 20
13.8961
 11
-12.5962
 21
13.5835
  0
LINE
  8
0
 10
-12.5962
 20
13.5835
 11
-12.3122
 21
13.2778
  0
LINE
  8
0
 10
-12.3122
 20
13.2778
 11
-12.0208
 21
12.9792
  0
LINE
  8
0
 10
-12.0208
 20
12.9792
 11
-11.7222
 21
12.6878
  0
LINE
  8
0
 10
-11.7222
 20
12.6878
 11
-11.4165
 21
12.4038
  0
LINE
  8
0
 10
-11.4165
 20
12.4038
 11
-11.1039
 21
12.1275
  0
LINE
  8
0
 10
-11.1039
 20
12.1275
 11
-10.7847
 21
11.8588
  0
LINE
  8
0
 10
-10.7847
 20
11.8588
 11
-10.4589
 21
11.5981
  0
LINE
  8
0
 10
-10.4589
 20
11.5981
 11
-10.1269
 21
11.3455
  0
LINE
  8
0
 10
-10.1269
 20
11.3455
 11
-9.78873
 21
11.1011
  0
LINE
  8
0
 10
-9.78873
 20
11.1011
 11
-9.44469
 21
10.865
  0
LINE
  8
0
 10
-9.44469
 20
10.865
 11
-9.09496
 21
10.6375
  0
LINE
  8
0
 10
-9.09496
 20
10.6375
 11
-8.73975
 21
10.4186
  0
LINE
  8
0
 10
-8.73975
 20
10.4186
 11
-8.37926
 21
10.2085
  0
LINE
  8
0
 10
-8.37926
 20
10.2085
 11
-8.01373
 21
10.0073
  0
LINE
  8
0
 10
-8.01373
 20
10.0073
 11
-7.64339
 21
9.8152
  0
LINE
  8
0
 10
-7.64339
 20
9.8152
 11
-7.26843
 21
9.63219
  0
LINE
  8
0
 10
-7.26843
 20
9.63219
 11
-6.8891
 21
9.45844
  0
LINE
  8
0
 10
-6.8891
 20
9.45844
 11
-6.50562
 21
9.29405
  0
LINE
  8
0
 10
-6.50562
 20
9.29405
 11
-6.11821
 21
9.13913
  0
LINE
  8
0
 10
-6.11821
 20
9.13913
 11
-5.72713
 21
8.99376
  0
LINE
  8
0
 10
-5.72713
 20
8.99376
 11
-5.33258
 21
8.85803
  0
LINE
  8
0
 10
-5.33258
 20
8.85803
 11
-4.93483
 21
8.73203
  0
LINE
  8
0
 10
-4.93483
 20
8.73203
 11
-4.5341
 21
8.61581
  0
LINE
  8
0
 10
-4.5341
 20
8.61581
 11
-4.13066
 21
8.50948
  0
LINE
  8
0
 10
-4.13066
 20
8.50948
 11
-3.72472
 21
8.41307
  0
LINE
  8
0
 10
-3.72472
 20
8.41307
 11
-3.31653
 21
8.32666
  0
LINE
  8
0
 10
-3.31653
 20
8.32666
 11
-2.90636
 21
8.25029
  0
LINE
  8
0
 10
-2.90636
 20
8.25029
 11
-2.49443
 21
8.18401
  0
LINE
  8
0
 10
-2.49443
 20
8.18401
 11
-2.08099
 21
8.12785
  0
LINE
  8
0
 10
-2.08099
 20
8.12785
 11
-1.66631
 21
8.08186
  0
LINE
  8
0
 10
-1.66631
 20
8.08186
 11
-1.25061
 21
8.04607
  0
LINE
  8
0
 10
-1.25061
 20
8.04607
 11
-0.834152
 21
8.02048
  0
LINE
  8
0
 10
-0.834152
 20
8.02048
 11
-0.417206
 21
8.00513
  0
LINE
  8
0
 10
-0.417206
 20
8.00513
 11
-1.52588e-05
 21
8
  0
LINE
  8
0
 10
-1.52588e-05
 20
8
 11
0.417191
 21
8.00513
  0
LINE
  8
0
 10
0.417191
 20
8.00513
 11
0.834137
 21
8.02048
  0
LINE
  8
0
 10
0.834137
 20
8.02048
 11
1.2506
 21
8.04607
  0
LINE
  8
0
 10
1.2506
 20
8.04607
 11
1.66629
 21
8.08186
  0
LINE
  8
0
 10
1.66629
 20
8.08186
 11
2.08098
 21
8.12785
  0
LINE
  8
0
 10
2.08098
 20
8.12785
 11
2.49442
 21
8.18401
  0
LINE
  8
0
 10
2.49442
 20
8.18401
 11
2.90634
 21
8.25029
  0
LINE
  8
0
 10
2.90634
 20
8.25029
 11
3.31653
 21
8.32666
  0
LINE
  8
0
 10
3.31653
 20
8.32666
 11
3.72472
 21
8.41307
  0
LINE
  8
0
 10
3.72472
 20
8.41307
 11
4.13066
 21
8.50948
  0
LINE
  8
0
 10
4.13066
 20
8.50948
 11
4.5341
 21
8.61581
  0
LINE
  8
0
 10
4.5341
 20
8.61581
 11
4.93483
 21
8.73203
  0
LINE
  8
0
 10
4.93483
 20
8.73203
 11
5.33258
 21
8.85803
  0
LINE
  8
0
 10
5.33258
 20
8.85803
 11
5.72713
 21
8.99376
  0
LINE
  8
0
 10
5.72713
 20
8.99376
 11
6.11821
 21
9.13913
  0
LINE
  8
0
 10
6.11821
 20
9.13913
 11
6.50562
 21
9.29405
  0
LINE
  8
0
 10
6.50562
 20
9.29405
 11
6.8891
 21
9.45844
  0
LINE
  8
0
 10
6.8891
 20
9.45844
 11
7.26843
 21
9.63219
  0
LINE
  8
0
 10
7.26843
 20
9.63219
 11
7.64339
 21
9.8152
  0
LINE
  8
0
 10
7.64339
 20
9.8152
 11
8.01373
 21
10.0073
  0
LINE
  8
0
 10
8.01373
 20
10.0073
 11
8.37926
 21
10.2085
  0
LINE
  8
0
 10
8.37926
 20
10.2085
 11
8.73975
 21
10.4186
  0
LINE
  8
0
 10
8.73975
 20
10.4186
 11
9.09496
 21
10.6375
  0
LINE
  8
0
 10
9.09496
 20
10.6375
 11
9.44469
 21
10.865
  0
LINE
  8
0
 10
9.44469
 20
10.865
 11
9.78873
 21
11.1011
  0
LINE
  8
0
 10
9.78873
 20
11.1011
 11
10.1269
 21
11.3455
  0
LINE
  8
0
 10
10.1269
 20
11.3455
 11
10.4265
 21
11.5735
  0
LINE
  8
0
 10
10.4265
 20
11.5735
 11
10.1412
 21
11.2153
  0
LINE
  8
0
 10
10.1412
 20
11.2153
 11
9.87254
 21
10.8961
  0
LINE
  8
0
 10
9.87254
 20
10.8961
 11
9.59616
 21
10.5835
  0
LINE
  8
0
 10
9.59616
 20
10.5835
 11
9.31219
 21
10.2778
  0
LINE
  8
0
 10
9.31219
 20
10.2778
 11
9.02081
 21
9.97919
  0
LINE
  8
0
 10
9.02081
 20
9.97919
 11
8.72218
 21
9.68781
  0
LINE
  8
0
 10
8.72218
 20
9.68781
 11
8.41649
 21
9.40384
  0
LINE
  8
0
 10
8.41649
 20
9.40384
 11
8.10393
 21
9.12746
  0
LINE
  8
0
 10
8.10393
 20
9.12746
 11
7.78468
 21
8.85883
  0
LINE
  8
0
 10
7.78468
 20
8.85883
 11
7.45892
 21
8.59811
  0
LINE
  8
0
 10
7.45892
 20
8.59811
 11
7.12688
 21
8.34547
  0
LINE
  8
0
 10
7.12688
 20
8.34547
 11
6.78873
 21
8.10106
  0
LINE
  8
0
 10
6.78873
 20
8.10106
 11
6.44469
 21
7.86502
  0
LINE
  8
0
 10
6.44469
 20
7.86502
 11
6.09496
 21
7.6375
  0
LINE
  8
0
 10
6.09496
 20
7.6375
 11
5.73975
 21
7.41862
  0
LINE
  8
0
 10
5.73975
 20
7.41862
 11
5.37926
 21
7.20853
  0
LINE
  8
0
 10
5.37926
 20
7.20853
 11
5.01373
 21
7.00734
  0
LINE
  8
0
 10
5.01373
 20
7.00734
 11
4.64339
 21
6.8152
  0
LINE
  8
0
 10
4.64339
 20
6.8152
 11
4.26843
 21
6.63219
  0
LINE
  8
0
 10
4.26843
 20
6.63219
 11
3.8891
 21
6.45844
  0
LINE
  8
0
 10
3.8891
 20
6.45844
 11
3.50562
 21
6.29405
  0
LINE
  8
0
 10
3.50562
 20
6.29405
 11
3.11821
 21
6.13913
  0
LINE
  8
0
 10
3.11821
 20
6.13913
 11
2.72713
 21
5.99376
  0
LINE
  8
0
 10
2.72713
 20
5.99376
 11
2.33258
 21
5.85803
  0
LINE
  8
0
 10
2.33258
 20
5.85803
 11
1.93483
 21
5.73203
  0
LINE
  8
0
 10
1.93483
 20
5.73203
 11
1.5341
 21
5.61581
  0
LINE
  8
0
 10
1.5341
 20
5.61581
 11
1.13066
 21
5.50948
  0
LINE
  8
0
 10
1.13066
 20
5.50948
 11
0.724716
 21
5.41307
  0
LINE
  8
0
 10
0.724716
 20
5.41307
 11
0.316528
 21
5.32666
  0
LINE
  8
0
 10
0.316528
 20
5.32666
 11
-0.0936584
 21
5.25029
  0
LINE
  8
0
 10
-0.0936584
 20
5.25029
 11
-0.505585
 21
5.18401
  0
LINE
  8
0
 10
-0.505585
 20
5.18401
 11
-0.919022
 21
5.12785
  0
LINE
  8
0
 10
-0.919022
 20
5.12785
 11
-1.33371
 21
5.08186
  0
LINE
  8
0
 10
-1.33371
 20
5.08186
 11
-1.7494
 21
5.04607
  0
LINE
  8
0
 10
-1.7494
 20
5.04607
 11
-2.16586
 21
5.02048
  0
LINE
  8
0
 10
-2.16586
 20
5.02048
 11
-2.58281
 21
5.00513
  0
LINE
  8
0
 10
-2.58281
 20
5.00513
 11
-3
 21
5
  0
LINE
  8
0
 10
-3
 20
5
 11
-3.41719
 21
5.00513
  0
LINE
  8
0
 10
-8.59302
 20
-21.9961
 11
-8.8468
 21
-21.9774
  0
LINE
  8
0
 10
-8.8468
 20
-21.9774
 11
-9.05688
 21
-21.9491
  0
LINE
  8
0
 10
-9.05688
 20
-21.9491
 11
-9.26009
 21
-21.9096
  0
LINE
  8
0
 10
-9.26009
 20
-21.9096
 11
-9.45642
 21
-21.8587
  0
LINE
  8
0
 10
-9.45642
 20
-21.8587
 11
-11.114
 21
-21.314
  0
LINE
  8
0
 10
-11.114
 20
-21.314
 11
-11.1936
 21
-21.283
  0
LINE
  8
0
 10
-11.1936
 20
-21.283
 11
-11.3918
 21
-21.2384
  0
LINE
  8
0
 10
-11.3918
 20
-21.2384
 11
-11.8855
 21
-21.1888
  0
LINE
  8
0
 10
-11.8855
 20
-21.1888
 11
-15.3033
 21
-21.0689
  0
LINE
  8
0
 10
-15.3033
 20
-21.0689
 11
-18.1561
 21
-21.0405
  0
LINE
  8
0
 10
-18.1561
 20
-21.0405
 11
-22.015
 21
-21.063
  0
LINE
  8
0
 10
-22.015
 20
-21.063
 11
-24.8729
 21
-21.1423
  0
LINE
  8
0
 10
-24.8729
 20
-21.1423
 11
-25.39
 21
-21.1783
  0
LINE
  8
0
 10
-25.39
 20
-21.1783
 11
-25.7298
 21
-21.2212
  0
LINE
  8
0
 10
-25.7298
 20
-21.2212
 11
-25.942
 21
-21.264
  0
LINE
  8
0
 10
-25.942
 20
-21.264
 11
-26.3087
 21
-21.3714
  0
LINE
  8
0
 10
-26.3087
 20
-21.3714
 11
-26.603
 21
-21.488
  0
LINE
  8
0
 10
-26.603
 20
-21.488
 11
-26.6582
 21
-21.5186
  0
LINE
  8
0
 10
-26.6582
 20
-21.5186
 11
-26.7706
 21
-21.5769
  0
LINE
  8
0
 10
-26.7706
 20
-21.5769
 11
-26.8855
 21
-21.6314
  0
LINE
  8
0
 10
-26.8855
 20
-21.6314
 11
-27.003
 21
-21.6822
  0
LINE
  8
0
 10
-27.003
 20
-21.6822
 11
-27.123
 21
-21.7292
  0
LINE
  8
0
 10
-27.123
 20
-21.7292
 11
-27.2456
 21
-21.7724
  0
LINE
  8
0
 10
-27.2456
 20
-21.7724
 11
-27.3707
 21
-21.812
  0
LINE
  8
0
 10
-27.3707
 20
-21.812
 11
-27.4983
 21
-21.8477
  0
LINE
  8
0
 10
-27.4983
 20
-21.8477
 11
-27.6286
 21
-21.8797
  0
LINE
  8
0
 10
-27.6286
 20
-21.8797
 11
-27.7613
 21
-21.9079
  0
LINE
  8
0
 10
-27.7613
 20
-21.9079
 11
-27.8966
 21
-21.9323
  0
LINE
  8
0
 10
-27.8966
 20
-21.9323
 11
-28.0345
 21
-21.953
  0
LINE
  8
0
 10
-28.0345
 20
-21.953
 11
-28.1749
 21
-21.9699
  0
LINE
  8
0
 10
-28.1749
 20
-21.9699
 11
-28.3903
 21
-21.9883
  0
LINE
  8
0
 10
-28.3903
 20
-21.9883
 11
-28.6114
 21
-21.9981
  0
LINE
  8
0
 10
-28.6114
 20
-21.9981
 11
-28.7874
 21
-21.9996
  0
LINE
  8
0
 10
-28.7874
 20
-21.9996
 11
-28.8639
 21
-21.9929
  0
LINE
  8
0
 10
-28.8639
 20
-21.9929
 11
-28.9409
 21
-21.9781
  0
LINE
  8
0
 10
-28.9409
 20
-21.9781
 11
-29.0186
 21
-21.9554
  0
LINE
  8
0
 10
-29.0186
 20
-21.9554
 11
-29.0968
 21
-21.9246
  0
LINE
  8
0
 10
-29.0968
 20
-21.9246
 11
-29.1756
 21
-21.8858
  0
LINE
  8
0
 10
-29.1756
 20
-21.8858
 11
-29.2549
 21
-21.8389
  0
LINE
  8
0
 10
-29.2549
 20
-21.8389
 11
-29.3349
 21
-21.784
  0
LINE
  8
0
 10
-29.3349
 20
-21.784
 11
-29.4154
 21
-21.7211
  0
LINE
  8
0
 10
-29.4154
 20
-21.7211
 11
-29.5237
 21
-21.6247
  0
LINE
  8
0
 10
-29.5237
 20
-21.6247
 11
-29.633
 21
-21.514
  0
LINE
  8
0
 10
-29.633
 20
-21.514
 11
-29.9571
 21
-21.1468
  0
LINE
  8
0
 10
-29.9571
 20
-21.1468
 11
-30.272
 21
-20.7521
  0
LINE
  8
0
 10
-30.272
 20
-20.7521
 11
-30.5762
 21
-20.3307
  0
LINE
  8
0
 10
-30.5762
 20
-20.3307
 11
-30.7601
 21
-20.0447
  0
LINE
  8
0
 10
-30.7601
 20
-20.0447
 11
-30.9237
 21
-19.7586
  0
LINE
  8
0
 10
-30.9237
 20
-19.7586
 11
-31.0669
 21
-19.4725
  0
LINE
  8
0
 10
-31.0669
 20
-19.4725
 11
-31.1896
 21
-19.1878
  0
LINE
  8
0
 10
-31.1896
 20
-19.1878
 11
-31.3235
 21
-18.8255
  0
LINE
  8
0
 10
-31.3235
 20
-18.8255
 11
-31.3817
 21
-18.6202
  0
LINE
  8
0
 10
-31.3817
 20
-18.6202
 11
-31.402
 21
-18.5
  0
LINE
  8
0
 10
-31.402
 20
-18.5
 11
-31.4034
 21
-18.4252
  0
LINE
  8
0
 10
-31.4034
 20
-18.4252
 11
-31.3983
 21
-18.3567
  0
LINE
  8
0
 10
-31.3983
 20
-18.3567
 11
-31.3881
 21
-18.2868
  0
LINE
  8
0
 10
-31.3881
 20
-18.2868
 11
-31.3728
 21
-18.2157
  0
LINE
  8
0
 10
-31.3728
 20
-18.2157
 11
-31.3524
 21
-18.1433
  0
LINE
  8
0
 10
-31.3524
 20
-18.1433
 11
-31.3269
 21
-18.0697
  0
LINE
  8
0
 10
-31.3269
 20
-18.0697
 11
-31.2963
 21
-17.9947
  0
LINE
  8
0
 10
-31.2963
 20
-17.9947
 11
-31.2606
 21
-17.9185
  0
LINE
  8
0
 10
-31.2606
 20
-17.9185
 11
-31.1975
 21
-17.8018
  0
LINE
  8
0
 10
-31.1975
 20
-17.8018
 11
-31.123
 21
-17.6822
  0
LINE
  8
0
 10
-31.123
 20
-17.6822
 11
-31.0369
 21
-17.5597
  0
LINE
  8
0
 10
-31.0369
 20
-17.5597
 11
-30.9394
 21
-17.4343
  0
LINE
  8
0
 10
-30.9394
 20
-17.4343
 11
-30.8305
 21
-17.3061
  0
LINE
  8
0
 10
-30.8305
 20
-17.3061
 11
-30.6686
 21
-17.1303
  0
LINE
  8
0
 10
-30.6686
 20
-17.1303
 11
-30.5896
 21
-17.0376
  0
LINE
  8
0
 10
-30.5896
 20
-17.0376
 11
-30.5156
 21
-16.9406
  0
LINE
  8
0
 10
-30.5156
 20
-16.9406
 11
-30.4468
 21
-16.8392
  0
LINE
  8
0
 10
-30.4468
 20
-16.8392
 11
-30.3831
 21
-16.7335
  0
LINE
  8
0
 10
-30.3831
 20
-16.7335
 11
-30.3244
 21
-16.6235
  0
LINE
  8
0
 10
-30.3244
 20
-16.6235
 11
-30.2709
 21
-16.5091
  0
LINE
  8
0
 10
-30.2709
 20
-16.5091
 11
-30.2225
 21
-16.3904
  0
LINE
  8
0
 10
-30.2225
 20
-16.3904
 11
-30.1792
 21
-16.2673
  0
LINE
  8
0
 10
-30.1792
 20
-16.2673
 11
-30.1409
 21
-16.14
  0
LINE
  8
0
 10
-30.1409
 20
-16.14
 11
-30.1078
 21
-16.0083
  0
LINE
  8
0
 10
-30.1078
 20
-16.0083
 11
-30.0797
 21
-15.8722
  0
LINE
  8
0
 10
-30.0797
 20
-15.8722
 11
-30.0568
 21
-15.7318
  0
LINE
  8
0
 10
-30.0568
 20
-15.7318
 11
-30.039
 21
-15.5871
  0
LINE
  8
0
 10
-30.039
 20
-15.5871
 11
-30.0262
 21
-15.4381
  0
LINE
  8
0
 10
-30.0262
 20
-15.4381
 11
-30.0186
 21
-15.2847
  0
LINE
  8
0
 10
-30.0186
 20
-15.2847
 11
-30.016
 21
-15.127
  0
LINE
  8
0
 10
-30.016
 20
-15.127
 11
-29.9475
 21
-13.5162
  0
LINE
  8
0
 10
-29.9475
 20
-13.5162
 11
-29.8975
 21
-10.8525
  0
LINE
  8
0
 10
-29.8975
 20
-10.8525
 11
-29.888
 21
1.11899
  0
LINE
  8
0
 10
-29.888
 20
1.11899
 11
-29.8909
 21
2.02351
  0
LINE
  8
0
 10
-29.8909
 20
2.02351
 11
-29.8995
 21
2.8942
  0
LINE
  8
0
 10
-29.8995
 20
2.8942
 11
-29.9138
 21
3.73102
  0
LINE
  8
0
 10
-29.9138
 20
3.73102
 11
-29.9339
 21
4.534
  0
LINE
  8
0
 10
-29.9339
 20
4.534
 11
-29.9597
 21
5.30313
  0
LINE
  8
0
 10
-29.9597
 20
5.30313
 11
-29.9912
 21
6.03839
  0
LINE
  8
0
 10
-29.9912
 20
6.03839
 11
-30.0285
 21
6.73982
  0
LINE
  8
0
 10
-30.0285
 20
6.73982
 11
-30.0715
 21
7.40739
  0
LINE
  8
0
 10
-30.0715
 20
7.40739
 11
-30.1203
 21
8.04111
  0
LINE
  8
0
 10
-30.1203
 20
8.04111
 11
-30.1748
 21
8.64098
  0
LINE
  8
0
 10
-30.1748
 20
8.64098
 11
-30.2143
 21
9.02208
  0
LINE
  8
0
 10
-30.2143
 20
9.02208
 11
-30.2984
 21
9.74536
  0
LINE
  8
0
 10
-30.2984
 20
9.74536
 11
-30.4269
 21
10.7566
  0
LINE
  8
0
 10
-30.4269
 20
10.7566
 11
-30.5577
 21
11.6806
  0
LINE
  8
0
 10
-30.5577
 20
11.6806
 11
-30.6685
 21
12.384
  0
LINE
  8
0
 10
-30.6685
 20
12.384
 11
-30.7809
 21
13.0267
  0
LINE
  8
0
 10
-30.7809
 20
13.0267
 11
-30.8719
 21
13.4972
  0
LINE
  8
0
 10
-30.8719
 20
13.4972
 11
-30.964
 21
13.929
  0
LINE
  8
0
 10
-30.964
 20
13.929
 11
-31.079
 21
14.4205
  0
LINE
  8
0
 10
-31.079
 20
14.4205
 11
-31.1923
 21
14.8642
  0
LINE
  8
0
 10
-31.1923
 20
14.8642
 11
-31.304
 21
15.2601
  0
LINE
  8
0
 10
-31.304
 20
15.2601
 11
-31.3923
 21
15.5423
  0
LINE
  8
0
 10
-31.3923
 20
15.5423
 11
-31.4795
 21
15.7939
  0
LINE
  8
0
 10
-31.4795
 20
15.7939
 11
-31.5657
 21
16.0149
  0
LINE
  8
0
 10
-31.5657
 20
16.0149
 11
-31.6296
 21
16.1606
  0
LINE
  8
0
 10
-31.6296
 20
16.1606
 11
-31.8077
 21
16.5209
  0
LINE
  8
0
 10
-31.8077
 20
16.5209
 11
-31.8858
 21
16.7019
  0
LINE
  8
0
 10
-31.8858
 20
16.7019
 11
-31.9479
 21
16.8716
  0
LINE
  8
0
 10
-31.9479
 20
16.8716
 11
-31.9941
 21
17.0302
  0
LINE
  8
0
 10
-31.9941
 20
17.0302
 11
-32.0196
 21
17.149
  0
LINE
  8
0
 10
-32.0196
 20
17.149
 11
-32.0349
 21
17.2606
  0
LINE
  8
0
 10
-32.0349
 20
17.2606
 11
-32.04
 21
17.365
  0
LINE
  8
0
 10
-32.04
 20
17.365
 11
-32.0376
 21
17.4083
  0
LINE
  8
0
 10
-32.0376
 20
17.4083
 11
-32.0303
 21
17.4542
  0
LINE
  8
0
 10
-32.0303
 20
17.4542
 11
-32.0182
 21
17.5026
  0
LINE
  8
0
 10
-32.0182
 20
17.5026
 11
-31.991
 21
17.5801
  0
LINE
  8
0
 10
-31.991
 20
17.5801
 11
-31.9529
 21
17.6632
  0
LINE
  8
0
 10
-31.9529
 20
17.6632
 11
-31.9039
 21
17.7521
  0
LINE
  8
0
 10
-31.9039
 20
17.7521
 11
-31.8439
 21
17.8468
  0
LINE
  8
0
 10
-31.8439
 20
17.8468
 11
-31.7471
 21
17.9819
  0
LINE
  8
0
 10
-31.7471
 20
17.9819
 11
-31.6309
 21
18.1272
  0
LINE
  8
0
 10
-31.6309
 20
18.1272
 11
-31.4585
 21
18.3232
  0
LINE
  8
0
 10
-31.4585
 20
18.3232
 11
-31.2593
 21
18.5321
  0
LINE
  8
0
 10
-31.2593
 20
18.5321
 11
-30.9619
 21
18.8239
  0
LINE
  8
0
 10
-30.9619
 20
18.8239
 11
-30.6458
 21
19.1125
  0
LINE
  8
0
 10
-30.6458
 20
19.1125
 11
-30.311
 21
19.3979
  0
LINE
  8
0
 10
-30.311
 20
19.3979
 11
-29.9575
 21
19.68
  0
LINE
  8
0
 10
-29.9575
 20
19.68
 11
-29.5374
 21
19.9942
  0
LINE
  8
0
 10
-29.5374
 20
19.9942
 11
-29.1165
 21
20.2887
  0
LINE
  8
0
 10
-29.1165
 20
20.2887
 11
-28.6957
 21
20.5627
  0
LINE
  8
0
 10
-28.6957
 20
20.5627
 11
-28.2748
 21
20.8162
  0
LINE
  8
0
 10
-28.2748
 20
20.8162
 11
-27.914
 21
21.0167
  0
LINE
  8
0
 10
-27.914
 20
21.0167
 11
-27.6382
 21
21.1559
  0
LINE
  8
0
 10
-27.6382
 20
21.1559
 11
-27.4346
 21
21.2474
  0
LINE
  8
0
 10
-27.4346
 20
21.2474
 11
-27.255
 21
21.3166
  0
LINE
  8
0
 10
-27.255
 20
21.3166
 11
-27.1286
 21
21.3559
  0
LINE
  8
0
 10
-27.1286
 20
21.3559
 11
-27.0174
 21
21.3808
  0
LINE
  8
0
 10
-27.0174
 20
21.3808
 11
-26.9441
 21
21.3902
  0
LINE
  8
0
 10
-26.9441
 20
21.3902
 11
-26.8619
 21
21.3916
  0
LINE
  8
0
 10
-26.8619
 20
21.3916
 11
-26.7444
 21
21.3853
  0
LINE
  8
0
 10
-26.7444
 20
21.3853
 11
-26.6223
 21
21.3717
  0
LINE
  8
0
 10
-26.6223
 20
21.3717
 11
-26.4957
 21
21.3505
  0
LINE
  8
0
 10
-26.4957
 20
21.3505
 11
-26.3644
 21
21.3219
  0
LINE
  8
0
 10
-26.3644
 20
21.3219
 11
-26.2286
 21
21.2857
  0
LINE
  8
0
 10
-26.2286
 20
21.2857
 11
-26.0403
 21
21.226
  0
LINE
  8
0
 10
-26.0403
 20
21.226
 11
-25.8439
 21
21.1529
  0
LINE
  8
0
 10
-25.8439
 20
21.1529
 11
-25.6393
 21
21.0666
  0
LINE
  8
0
 10
-25.6393
 20
21.0666
 11
-25.4265
 21
20.967
  0
LINE
  8
0
 10
-25.4265
 20
20.967
 11
-25.2657
 21
20.8842
  0
LINE
  8
0
 10
-25.2657
 20
20.8842
 11
-25.1661
 21
20.8261
  0
LINE
  8
0
 10
-25.1661
 20
20.8261
 11
-25.0732
 21
20.7656
  0
LINE
  8
0
 10
-25.0732
 20
20.7656
 11
-24.9868
 21
20.7029
  0
LINE
  8
0
 10
-24.9868
 20
20.7029
 11
-24.9071
 21
20.6379
  0
LINE
  8
0
 10
-24.9071
 20
20.6379
 11
-24.8341
 21
20.5706
  0
LINE
  8
0
 10
-24.8341
 20
20.5706
 11
-24.7677
 21
20.501
  0
LINE
  8
0
 10
-24.7677
 20
20.501
 11
-24.7079
 21
20.4291
  0
LINE
  8
0
 10
-24.7079
 20
20.4291
 11
-24.6548
 21
20.3549
  0
LINE
  8
0
 10
-24.6548
 20
20.3549
 11
-24.6083
 21
20.2784
  0
LINE
  8
0
 10
-24.6083
 20
20.2784
 11
-24.5685
 21
20.1996
  0
LINE
  8
0
 10
-24.5685
 20
20.1996
 11
-24.5352
 21
20.1184
  0
LINE
  8
0
 10
-24.5352
 20
20.1184
 11
-24.5087
 21
20.035
  0
LINE
  8
0
 10
-24.5087
 20
20.035
 11
-24.4888
 21
19.9493
  0
LINE
  8
0
 10
-24.4888
 20
19.9493
 11
-24.4755
 21
19.8613
  0
LINE
  8
0
 10
-24.4755
 20
19.8613
 11
-24.4688
 21
19.771
  0
LINE
  8
0
 10
-24.4688
 20
19.771
 11
-24.4683
 21
19.6868
  0
LINE
  8
0
 10
-24.4683
 20
19.6868
 11
-24.4772
 21
19.4882
  0
LINE
  8
0
 10
-24.4772
 20
19.4882
 11
-24.4989
 21
19.2769
  0
LINE
  8
0
 10
-24.4989
 20
19.2769
 11
-24.5334
 21
19.0528
  0
LINE
  8
0
 10
-24.5334
 20
19.0528
 11
-24.5916
 21
18.7672
  0
LINE
  8
0
 10
-24.5916
 20
18.7672
 11
-24.6682
 21
18.4633
  0
LINE
  8
0
 10
-24.6682
 20
18.4633
 11
-24.7787
 21
18.0863
  0
LINE
  8
0
 10
-24.7787
 20
18.0863
 11
-24.8379
 21
17.8653
  0
LINE
  8
0
 10
-24.8379
 20
17.8653
 11
-24.889
 21
17.6423
  0
LINE
  8
0
 10
-24.889
 20
17.6423
 11
-24.9319
 21
17.4172
  0
LINE
  8
0
 10
-24.9319
 20
17.4172
 11
-24.9666
 21
17.1901
  0
LINE
  8
0
 10
-24.9666
 20
17.1901
 11
-24.9931
 21
16.9609
  0
LINE
  8
0
 10
-24.9931
 20
16.9609
 11
-25.0115
 21
16.7296
  0
LINE
  8
0
 10
-25.0115
 20
16.7296
 11
-25.0217
 21
16.4963
  0
LINE
  8
0
 10
-25.0217
 20
16.4963
 11
-25.0268
 21
15.5632
  0
LINE
  8
0
 10
-25.0268
 20
15.5632
 11
-25.0416
 21
14.4318
  0
LINE
  8
0
 10
-25.0416
 20
14.4318
 11
-25.0691
 21
13.3049
  0
LINE
  8
0
 10
-25.0691
 20
13.3049
 11
-25.1093
 21
12.1827
  0
LINE
  8
0
 10
-25.1093
 20
12.1827
 11
-25.1622
 21
11.0649
  0
LINE
  8
0
 10
-25.1622
 20
11.0649
 11
-25.2597
 21
9.39795
  0
LINE
  8
0
 10
-25.2597
 20
9.39795
 11
-25.3147
 21
8.29703
  0
LINE
  8
0
 10
-25.3147
 20
8.29703
 11
-25.3571
 21
7.20531
  0
LINE
  8
0
 10
-25.3571
 20
7.20531
 11
-25.3867
 21
6.12277
  0
LINE
  8
0
 10
-25.3867
 20
6.12277
 11
-25.4036
 21
5.04942
  0
LINE
  8
0
 10
-25.4036
 20
5.04942
 11
-25.4078
 21
3.92712
  0
LINE
  8
0
 10
-25.4078
 20
3.92712
 11
-25.3868
 21
2.00252
  0
LINE
  8
0
 10
-25.3868
 20
2.00252
 11
-25.3365
 21
0.305527
  0
LINE
  8
0
 10
-25.3365
 20
0.305527
 11
-25.297
 21
-1.27513
  0
LINE
  8
0
 10
-25.297
 20
-1.27513
 11
-25.2801
 21
-3.34164
  0
LINE
  8
0
 10
-25.2801
 20
-3.34164
 11
-25.2882
 21
-4.53049
  0
LINE
  8
0
 10
-25.2882
 20
-4.53049
 11
-25.3129
 21
-5.59319
  0
LINE
  8
0
 10
-25.3129
 20
-5.59319
 11
-25.354
 21
-6.66811
  0
LINE
  8
0
 10
-25.354
 20
-6.66811
 11
-25.4117
 21
-7.75525
  0
LINE
  8
0
 10
-25.4117
 20
-7.75525
 11
-25.7655
 21
-13.0105
  0
LINE
  8
0
 10
-25.7655
 20
-13.0105
 11
-26.0597
 21
-16.4508
  0
LINE
  8
0
 10
-26.0597
 20
-16.4508
 11
-26.1078
 21
-17.232
  0
LINE
  8
0
 10
-26.1078
 20
-17.232
 11
-26.1152
 21
-17.6171
  0
LINE
  8
0
 10
-26.1152
 20
-17.6171
 11
-26.1091
 21
-17.6803
  0
LINE
  8
0
 10
-26.1091
 20
-17.6803
 11
-26.0968
 21
-17.7394
  0
LINE
  8
0
 10
-26.0968
 20
-17.7394
 11
-26.0784
 21
-17.7945
  0
LINE
  8
0
 10
-26.0784
 20
-17.7945
 11
-26.0538
 21
-17.8455
  0
LINE
  8
0
 10
-26.0538
 20
-17.8455
 11
-26.0231
 21
-17.8923
  0
LINE
  8
0
 10
-26.0231
 20
-17.8923
 11
-25.9863
 21
-17.9352
  0
LINE
  8
0
 10
-25.9863
 20
-17.9352
 11
-25.9433
 21
-17.9739
  0
LINE
  8
0
 10
-25.9433
 20
-17.9739
 11
-25.8941
 21
-18.0085
  0
LINE
  8
0
 10
-25.8941
 20
-18.0085
 11
-25.8389
 21
-18.0391
  0
LINE
  8
0
 10
-25.8389
 20
-18.0391
 11
-25.7775
 21
-18.0656
  0
LINE
  8
0
 10
-25.7775
 20
-18.0656
 11
-25.7099
 21
-18.088
  0
LINE
  8
0
 10
-25.7099
 20
-18.088
 11
-25.6362
 21
-18.1064
  0
LINE
  8
0
 10
-25.6362
 20
-18.1064
 11
-25.5564
 21
-18.1207
  0
LINE
  8
0
 10
-25.5564
 20
-18.1207
 11
-25.4704
 21
-18.1309
  0
LINE
  8
0
 10
-25.4704
 20
-18.1309
 11
-25.3783
 21
-18.137
  0
LINE
  8
0
 10
-25.3783
 20
-18.137
 11
-25.28
 21
-18.139
  0
LINE
  8
0
 10
-25.28
 20
-18.139
 11
-25.1312
 21
-18.1328
  0
LINE
  8
0
 10
-25.1312
 20
-18.1328
 11
-24.9353
 21
-18.1066
  0
LINE
  8
0
 10
-24.9353
 20
-18.1066
 11
-24.7342
 21
-18.0598
  0
LINE
  8
0
 10
-24.7342
 20
-18.0598
 11
-24.4807
 21
-17.9769
  0
LINE
  8
0
 10
-24.4807
 20
-17.9769
 11
-24.3099
 21
-17.9295
  0
LINE
  8
0
 10
-24.3099
 20
-17.9295
 11
-24.1298
 21
-17.8947
  0
LINE
  8
0
 10
-24.1298
 20
-17.8947
 11
-23.9125
 21
-17.8702
  0
LINE
  8
0
 10
-23.9125
 20
-17.8702
 11
-11.114
 21
-17.392
  0
LINE
  8
0
 10
-11.114
 20
-17.392
 11
-11.0551
 21
-17.3873
  0
LINE
  8
0
 10
-11.0551
 20
-17.3873
 11
-10.8784
 21
-17.3674
  0
LINE
  8
0
 10
-10.8784
 20
-17.3674
 11
-10.7016
 21
-17.3389
  0
LINE
  8
0
 10
-10.7016
 20
-17.3389
 11
-10.5249
 21
-17.3018
  0
LINE
  8
0
 10
-10.5249
 20
-17.3018
 11
-10.3482
 21
-17.2562
  0
LINE
  8
0
 10
-10.3482
 20
-17.2562
 11
-10.1715
 21
-17.2019
  0
LINE
  8
0
 10
-10.1715
 20
-17.2019
 11
-9.99474
 21
-17.139
  0
LINE
  8
0
 10
-9.99474
 20
-17.139
 11
-9.81801
 21
-17.0676
  0
LINE
  8
0
 10
-9.81801
 20
-17.0676
 11
-9.64128
 21
-16.9875
  0
LINE
  8
0
 10
-9.64128
 20
-16.9875
 11
-9.46455
 21
-16.8989
  0
LINE
  8
0
 10
-9.46455
 20
-16.8989
 11
-9.28783
 21
-16.8016
  0
LINE
  8
0
 10
-9.28783
 20
-16.8016
 11
-9.05284
 21
-16.6627
  0
LINE
  8
0
 10
-9.05284
 20
-16.6627
 11
-8.87997
 21
-16.5668
  0
LINE
  8
0
 10
-8.87997
 20
-16.5668
 11
-8.71059
 21
-16.4806
  0
LINE
  8
0
 10
-8.71059
 20
-16.4806
 11
-8.54468
 21
-16.4042
  0
LINE
  8
0
 10
-8.54468
 20
-16.4042
 11
-8.38223
 21
-16.3376
  0
LINE
  8
0
 10
-8.38223
 20
-16.3376
 11
-8.22325
 21
-16.2807
  0
LINE
  8
0
 10
-8.22325
 20
-16.2807
 11
-8.06775
 21
-16.2336
  0
LINE
  8
0
 10
-8.06775
 20
-16.2336
 11
-7.91571
 21
-16.1962
  0
LINE
  8
0
 10
-7.91571
 20
-16.1962
 11
-7.76715
 21
-16.1685
  0
LINE
  8
0
 10
-7.76715
 20
-16.1685
 11
-7.67004
 21
-16.1555
  0
LINE
  8
0
 10
-7.67004
 20
-16.1555
 11
-7.57446
 21
-16.1469
  0
LINE
  8
0
 10
-7.57446
 20
-16.1469
 11
-7.48044
 21
-16.1425
  0
LINE
  8
0
 10
-7.48044
 20
-16.1425
 11
-7.36351
 21
-16.1428
  0
LINE
  8
0
 10
-7.36351
 20
-16.1428
 11
-7.22903
 21
-16.1495
  0
LINE
  8
0
 10
-7.22903
 20
-16.1495
 11
-7.10324
 21
-16.1627
  0
LINE
  8
0
 10
-7.10324
 20
-16.1627
 11
-6.98611
 21
-16.1826
  0
LINE
  8
0
 10
-6.98611
 20
-16.1826
 11
-6.9308
 21
-16.195
  0
LINE
  8
0
 10
-6.9308
 20
-16.195
 11
-6.87767
 21
-16.2091
  0
LINE
  8
0
 10
-6.87767
 20
-16.2091
 11
-6.82669
 21
-16.2248
  0
LINE
  8
0
 10
-6.82669
 20
-16.2248
 11
-6.77789
 21
-16.2422
  0
LINE
  8
0
 10
-6.77789
 20
-16.2422
 11
-6.73126
 21
-16.2613
  0
LINE
  8
0
 10
-6.73126
 20
-16.2613
 11
-6.6868
 21
-16.282
  0
LINE
  8
0
 10
-6.6868
 20
-16.282
 11
-6.6445
 21
-16.3044
  0
LINE
  8
0
 10
-6.6445
 20
-16.3044
 11
-6.60439
 21
-16.3284
  0
LINE
  8
0
 10
-6.60439
 20
-16.3284
 11
-6.56642
 21
-16.354
  0
LINE
  8
0
 10
-6.56642
 20
-16.354
 11
-6.53064
 21
-16.3814
  0
LINE
  8
0
 10
-6.53064
 20
-16.3814
 11
-6.49701
 21
-16.4104
  0
LINE
  8
0
 10
-6.49701
 20
-16.4104
 11
-6.46556
 21
-16.441
  0
LINE
  8
0
 10
-6.46556
 20
-16.441
 11
-6.43628
 21
-16.4733
  0
LINE
  8
0
 10
-6.43628
 20
-16.4733
 11
-6.40918
 21
-16.5073
  0
LINE
  8
0
 10
-6.40918
 20
-16.5073
 11
-6.38423
 21
-16.5429
  0
LINE
  8
0
 10
-6.38423
 20
-16.5429
 11
-6.36145
 21
-16.5802
  0
LINE
  8
0
 10
-6.36145
 20
-16.5802
 11
-6.34085
 21
-16.6191
  0
LINE
  8
0
 10
-6.34085
 20
-16.6191
 11
-6.32242
 21
-16.6597
  0
LINE
  8
0
 10
-6.32242
 20
-16.6597
 11
-6.30615
 21
-16.7019
  0
LINE
  8
0
 10
-6.30615
 20
-16.7019
 11
-6.29205
 21
-16.7458
  0
LINE
  8
0
 10
-6.29205
 20
-16.7458
 11
-6.28012
 21
-16.7914
  0
LINE
  8
0
 10
-6.28012
 20
-16.7914
 11
-6.27036
 21
-16.8386
  0
LINE
  8
0
 10
-6.27036
 20
-16.8386
 11
-6.26277
 21
-16.8875
  0
LINE
  8
0
 10
-6.26277
 20
-16.8875
 11
-6.25734
 21
-16.938
  0
LINE
  8
0
 10
-6.25734
 20
-16.938
 11
-6.25409
 21
-16.9902
  0
LINE
  8
0
 10
-6.25409
 20
-16.9902
 11
-6.25301
 21
-17.044
  0
LINE
  8
0
 10
-6.25301
 20
-17.044
 11
-6.26898
 21
-17.2242
  0
LINE
  8
0
 10
-6.26898
 20
-17.2242
 11
-6.36102
 21
-17.7352
  0
LINE
  8
0
 10
-6.36102
 20
-17.7352
 11
-6.54471
 21
-18.5307
  0
LINE
  8
0
 10
-6.54471
 20
-18.5307
 11
-6.68813
 21
-19.0291
  0
LINE
  8
0
 10
-6.68813
 20
-19.0291
 11
-6.85725
 21
-19.5402
  0
LINE
  8
0
 10
-6.85725
 20
-19.5402
 11
-7.06839
 21
-20.1049
  0
LINE
  8
0
 10
-7.06839
 20
-20.1049
 11
-7.2742
 21
-20.5931
  0
LINE
  8
0
 10
-7.2742
 20
-20.5931
 11
-7.47041
 21
-21.0109
  0
LINE
  8
0
 10
-7.47041
 20
-21.0109
 11
-7.65344
 21
-21.3629
  0
LINE
  8
0
 10
-7.65344
 20
-21.3629
 11
-7.72357
 21
-21.4802
  0
LINE
  8
0
 10
-7.72357
 20
-21.4802
 11
-7.79428
 21
-21.5856
  0
LINE
  8
0
 10
-7.79428
 20
-21.5856
 11
-7.86557
 21
-21.6791
  0
LINE
  8
0
 10
-7.86557
 20
-21.6791
 11
-7.93742
 21
-21.7607
  0
LINE
  8
0
 10
-7.93742
 20
-21.7607
 11
-8.00987
 21
-21.8303
  0
LINE
  8
0
 10
-8.00987
 20
-21.8303
 11
-8.05849
 21
-21.8701
  0
LINE
  8
0
 10
-8.05849
 20
-21.8701
 11
-8.10736
 21
-21.9045
  0
LINE
  8
0
 10
-8.10736
 20
-21.9045
 11
-8.15649
 21
-21.9337
  0
LINE
  8
0
 10
-8.15649
 20
-21.9337
 11
-8.20589
 21
-21.9576
  0
LINE
  8
0
 10
-8.20589
 20
-21.9576
 11
-8.25552
 21
-21.9761
  0
LINE
  8
0
 10
-8.25552
 20
-21.9761
 11
-8.30544
 21
-21.9894
  0
LINE
  8
0
 10
-8.30544
 20
-21.9894
 11
-8.35559
 21
-21.9974
  0
LINE
  8
0
 10
-8.35559
 20
-21.9974
 11
-8.40601
 21
-22
  0
LINE
  8
0
 10
-8.40601
 20
-22
 11
-8.59302
 21
-21.9961
  0
LINE
  8
0
 10
32.3168
 20
-14.1806
 11
32.2628
 21
-14.162
  0
LINE
  8
0
 10
32.2628
 20
-14.162
 11
32.2152
 21
-14.1346
  0
LINE
  8
0
 10
32.2152
 20
-14.1346
 11
32.1739
 21
-14.0982
  0
LINE
  8
0
 10
32.1739
 20
-14.0982
 11
32.1389
 21
-14.053
  0
LINE
  8
0
 10
32.1389
 20
-14.053
 11
32.0099
 21
-13.8073
  0
LINE
  8
0
 10
32.0099
 20
-13.8073
 11
31.7703
 21
-13.4837
  0
LINE
  8
0
 10
31.7703
 20
-13.4837
 11
31.5673
 21
-13.2276
  0
LINE
  8
0
 10
31.5673
 20
-13.2276
 11
31.3331
 21
-12.9454
  0
LINE
  8
0
 10
31.3331
 20
-12.9454
 11
31.0676
 21
-12.6373
  0
LINE
  8
0
 10
31.0676
 20
-12.6373
 11
30.6651
 21
-12.1861
  0
LINE
  8
0
 10
30.6651
 20
-12.1861
 11
30.207
 21
-11.6887
  0
LINE
  8
0
 10
30.207
 20
-11.6887
 11
29.6934
 21
-11.1451
  0
LINE
  8
0
 10
29.6934
 20
-11.1451
 11
28.9732
 21
-10.4007
  0
LINE
  8
0
 10
28.9732
 20
-10.4007
 11
28.1663
 21
-9.58401
  0
LINE
  8
0
 10
28.1663
 20
-9.58401
 11
20.8063
 21
-9.58401
  0
LINE
  8
0
 10
20.8063
 20
-9.58401
 11
20.5581
 21
-9.58786
  0
LINE
  8
0
 10
20.5581
 20
-9.58786
 11
20.3253
 21
-9.59941
  0
LINE
  8
0
 10
20.3253
 20
-9.59941
 11
20.1081
 21
-9.61865
  0
LINE
  8
0
 10
20.1081
 20
-9.61865
 11
19.9064
 21
-9.6456
  0
LINE
  8
0
 10
19.9064
 20
-9.6456
 11
19.7202
 21
-9.68024
  0
LINE
  8
0
 10
19.7202
 20
-9.68024
 11
19.5908
 21
-9.71127
  0
LINE
  8
0
 10
19.5908
 20
-9.71127
 11
19.4701
 21
-9.74664
  0
LINE
  8
0
 10
19.4701
 20
-9.74664
 11
19.3581
 21
-9.78635
  0
LINE
  8
0
 10
19.3581
 20
-9.78635
 11
19.2548
 21
-9.83037
  0
LINE
  8
0
 10
19.2548
 20
-9.83037
 11
19.1589
 21
-9.87933
  0
LINE
  8
0
 10
19.1589
 20
-9.87933
 11
19.0658
 21
-9.93523
  0
LINE
  8
0
 10
19.0658
 20
-9.93523
 11
18.9749
 21
-9.99818
  0
LINE
  8
0
 10
18.9749
 20
-9.99818
 11
18.8863
 21
-10.0682
  0
LINE
  8
0
 10
18.8863
 20
-10.0682
 11
18.8
 21
-10.1453
  0
LINE
  8
0
 10
18.8
 20
-10.1453
 11
18.716
 21
-10.2295
  0
LINE
  8
0
 10
18.716
 20
-10.2295
 11
18.6342
 21
-10.3208
  0
LINE
  8
0
 10
18.6342
 20
-10.3208
 11
18.5547
 21
-10.4191
  0
LINE
  8
0
 10
18.5547
 20
-10.4191
 11
18.4775
 21
-10.5245
  0
LINE
  8
0
 10
18.4775
 20
-10.5245
 11
18.3782
 21
-10.6761
  0
LINE
  8
0
 10
18.3782
 20
-10.6761
 11
16.9173
 21
-13.2
  0
LINE
  8
0
 10
16.9173
 20
-13.2
 11
16.8852
 21
-13.2605
  0
LINE
  8
0
 10
16.8852
 20
-13.2605
 11
16.8193
 21
-13.4155
  0
LINE
  8
0
 10
16.8193
 20
-13.4155
 11
16.7738
 21
-13.5755
  0
LINE
  8
0
 10
16.7738
 20
-13.5755
 11
16.7457
 21
-13.7565
  0
LINE
  8
0
 10
16.7457
 20
-13.7565
 11
16.7338
 21
-13.8013
  0
LINE
  8
0
 10
16.7338
 20
-13.8013
 11
16.7159
 21
-13.8416
  0
LINE
  8
0
 10
16.7159
 20
-13.8416
 11
16.6921
 21
-13.8773
  0
LINE
  8
0
 10
16.6921
 20
-13.8773
 11
16.6622
 21
-13.9085
  0
LINE
  8
0
 10
16.6622
 20
-13.9085
 11
16.6264
 21
-13.9351
  0
LINE
  8
0
 10
16.6264
 20
-13.9351
 11
16.5846
 21
-13.9572
  0
LINE
  8
0
 10
16.5846
 20
-13.9572
 11
16.5368
 21
-13.9747
  0
LINE
  8
0
 10
16.5368
 20
-13.9747
 11
16.4638
 21
-13.9909
  0
LINE
  8
0
 10
16.4638
 20
-13.9909
 11
16.3801
 21
-13.999
  0
LINE
  8
0
 10
16.3801
 20
-13.999
 11
16.1502
 21
-13.9976
  0
LINE
  8
0
 10
16.1502
 20
-13.9976
 11
15.8909
 21
-13.9847
  0
LINE
  8
0
 10
15.8909
 20
-13.9847
 11
15.6518
 21
-13.9608
  0
LINE
  8
0
 10
15.6518
 20
-13.9608
 11
15.433
 21
-13.9258
  0
LINE
  8
0
 10
15.433
 20
-13.9258
 11
15.2661
 21
-13.8882
  0
LINE
  8
0
 10
15.2661
 20
-13.8882
 11
15.1132
 21
-13.843
  0
LINE
  8
0
 10
15.1132
 20
-13.843
 11
15.0024
 21
-13.8015
  0
LINE
  8
0
 10
15.0024
 20
-13.8015
 11
14.9053
 21
-13.756
  0
LINE
  8
0
 10
14.9053
 20
-13.756
 11
14.8221
 21
-13.7063
  0
LINE
  8
0
 10
14.8221
 20
-13.7063
 11
14.7688
 21
-13.6665
  0
LINE
  8
0
 10
14.7688
 20
-13.6665
 11
14.7233
 21
-13.6243
  0
LINE
  8
0
 10
14.7233
 20
-13.6243
 11
14.6855
 21
-13.5799
  0
LINE
  8
0
 10
14.6855
 20
-13.5799
 11
14.6557
 21
-13.5332
  0
LINE
  8
0
 10
14.6557
 20
-13.5332
 11
14.6335
 21
-13.4842
  0
LINE
  8
0
 10
14.6335
 20
-13.4842
 11
14.6192
 21
-13.4329
  0
LINE
  8
0
 10
14.6192
 20
-13.4329
 11
14.6127
 21
-13.3794
  0
LINE
  8
0
 10
14.6127
 20
-13.3794
 11
14.6133
 21
-13.3305
  0
LINE
  8
0
 10
14.6133
 20
-13.3305
 11
14.6248
 21
-13.2533
  0
LINE
  8
0
 10
14.6248
 20
-13.2533
 11
14.6489
 21
-13.1749
  0
LINE
  8
0
 10
14.6489
 20
-13.1749
 11
14.6858
 21
-13.0952
  0
LINE
  8
0
 10
14.6858
 20
-13.0952
 11
14.7354
 21
-13.0143
  0
LINE
  8
0
 10
14.7354
 20
-13.0143
 11
14.8117
 21
-12.9156
  0
LINE
  8
0
 10
14.8117
 20
-12.9156
 11
14.9754
 21
-12.7433
  0
LINE
  8
0
 10
14.9754
 20
-12.7433
 11
15.2969
 21
-12.3751
  0
LINE
  8
0
 10
15.2969
 20
-12.3751
 11
15.9725
 21
-11.4942
  0
LINE
  8
0
 10
15.9725
 20
-11.4942
 11
16.7134
 21
-10.4448
  0
LINE
  8
0
 10
16.7134
 20
-10.4448
 11
17.6021
 21
-9.09906
  0
LINE
  8
0
 10
17.6021
 20
-9.09906
 11
18.7361
 21
-7.26785
  0
LINE
  8
0
 10
18.7361
 20
-7.26785
 11
19.7119
 21
-5.59084
  0
LINE
  8
0
 10
19.7119
 20
-5.59084
 11
20.3376
 21
-4.42375
  0
LINE
  8
0
 10
20.3376
 20
-4.42375
 11
20.7357
 21
-3.60559
  0
LINE
  8
0
 10
20.7357
 20
-3.60559
 11
20.9363
 21
-3.13753
  0
LINE
  8
0
 10
20.9363
 20
-3.13753
 11
21.018
 21
-2.90582
  0
LINE
  8
0
 10
21.018
 20
-2.90582
 11
21.0626
 21
-2.73933
  0
LINE
  8
0
 10
21.0626
 20
-2.73933
 11
21.081
 21
-2.62357
  0
LINE
  8
0
 10
21.081
 20
-2.62357
 11
21.0824
 21
-2.54095
  0
LINE
  8
0
 10
21.0824
 20
-2.54095
 11
21.0755
 21
-2.47069
  0
LINE
  8
0
 10
21.0755
 20
-2.47069
 11
21.0616
 21
-2.39757
  0
LINE
  8
0
 10
21.0616
 20
-2.39757
 11
21.0408
 21
-2.32158
  0
LINE
  8
0
 10
21.0408
 20
-2.32158
 11
21.0131
 21
-2.24272
  0
LINE
  8
0
 10
21.0131
 20
-2.24272
 11
20.9784
 21
-2.16101
  0
LINE
  8
0
 10
20.9784
 20
-2.16101
 11
20.9368
 21
-2.07642
  0
LINE
  8
0
 10
20.9368
 20
-2.07642
 11
20.8883
 21
-1.98897
  0
LINE
  8
0
 10
20.8883
 20
-1.98897
 11
20.8328
 21
-1.89867
  0
LINE
  8
0
 10
20.8328
 20
-1.89867
 11
20.7704
 21
-1.80548
  0
LINE
  8
0
 10
20.7704
 20
-1.80548
 11
20.6637
 21
-1.66034
  0
LINE
  8
0
 10
20.6637
 20
-1.66034
 11
20.5415
 21
-1.50876
  0
LINE
  8
0
 10
20.5415
 20
-1.50876
 11
20.4037
 21
-1.35072
  0
LINE
  8
0
 10
20.4037
 20
-1.35072
 11
20.2503
 21
-1.18625
  0
LINE
  8
0
 10
20.2503
 20
-1.18625
 11
17.8613
 21
1.23399
  0
LINE
  8
0
 10
17.8613
 20
1.23399
 11
17.7463
 21
1.3546
  0
LINE
  8
0
 10
17.7463
 20
1.3546
 11
17.5109
 21
1.57935
  0
LINE
  8
0
 10
17.5109
 20
1.57935
 11
17.3366
 21
1.72176
  0
LINE
  8
0
 10
17.3366
 20
1.72176
 11
17.1034
 21
1.87958
  0
LINE
  8
0
 10
17.1034
 20
1.87958
 11
17.0409
 21
1.93456
  0
LINE
  8
0
 10
17.0409
 20
1.93456
 11
16.9911
 21
1.9921
  0
LINE
  8
0
 10
16.9911
 20
1.9921
 11
16.9541
 21
2.05222
  0
LINE
  8
0
 10
16.9541
 20
2.05222
 11
16.9336
 21
2.10216
  0
LINE
  8
0
 10
16.9336
 20
2.10216
 11
16.9214
 21
2.15375
  0
LINE
  8
0
 10
16.9214
 20
2.15375
 11
16.9173
 21
2.20699
  0
LINE
  8
0
 10
16.9173
 20
2.20699
 11
16.9204
 21
2.23451
  0
LINE
  8
0
 10
16.9204
 20
2.23451
 11
16.9364
 21
2.27812
  0
LINE
  8
0
 10
16.9364
 20
2.27812
 11
16.9792
 21
2.34058
  0
LINE
  8
0
 10
16.9792
 20
2.34058
 11
17.067
 21
2.4256
  0
LINE
  8
0
 10
17.067
 20
2.4256
 11
17.2722
 21
2.573
  0
LINE
  8
0
 10
17.2722
 20
2.573
 11
17.764
 21
2.85733
  0
LINE
  8
0
 10
17.764
 20
2.85733
 11
18.1989
 21
3.04762
  0
LINE
  8
0
 10
18.1989
 20
3.04762
 11
18.4414
 21
3.12253
  0
LINE
  8
0
 10
18.4414
 20
3.12253
 11
18.6063
 21
3.14944
  0
LINE
  8
0
 10
18.6063
 20
3.14944
 11
18.8877
 21
3.14941
  0
LINE
  8
0
 10
18.8877
 20
3.14941
 11
19.3311
 21
3.1162
  0
LINE
  8
0
 10
19.3311
 20
3.1162
 11
19.5
 21
3.07292
  0
LINE
  8
0
 10
19.5
 20
3.07292
 11
19.6249
 21
3.01605
  0
LINE
  8
0
 10
19.6249
 20
3.01605
 11
19.7242
 21
2.9462
  0
LINE
  8
0
 10
19.7242
 20
2.9462
 11
19.8109
 21
2.85481
  0
LINE
  8
0
 10
19.8109
 20
2.85481
 11
19.8852
 21
2.74164
  0
LINE
  8
0
 10
19.8852
 20
2.74164
 11
20.1803
 21
2.08498
  0
LINE
  8
0
 10
20.1803
 20
2.08498
 11
20.3057
 21
1.87654
  0
LINE
  8
0
 10
20.3057
 20
1.87654
 11
20.7004
 21
1.34009
  0
LINE
  8
0
 10
20.7004
 20
1.34009
 11
22.3908
 21
-0.726761
  0
LINE
  8
0
 10
22.3908
 20
-0.726761
 11
23.8118
 21
-2.4039
  0
LINE
  8
0
 10
23.8118
 20
-2.4039
 11
24.9723
 21
-3.74101
  0
LINE
  8
0
 10
24.9723
 20
-3.74101
 11
26.2183
 21
-5.13696
  0
LINE
  8
0
 10
26.2183
 20
-5.13696
 11
27.2881
 21
-6.29936
  0
LINE
  8
0
 10
27.2881
 20
-6.29936
 11
28.2023
 21
-7.2601
  0
LINE
  8
0
 10
28.2023
 20
-7.2601
 11
29.0812
 21
-8.15077
  0
LINE
  8
0
 10
29.0812
 20
-8.15077
 11
29.8589
 21
-8.90955
  0
LINE
  8
0
 10
29.8589
 20
-8.90955
 11
30.6164
 21
-9.62019
  0
LINE
  8
0
 10
30.6164
 20
-9.62019
 11
33.2996
 21
-12.0401
  0
LINE
  8
0
 10
33.2996
 20
-12.0401
 11
33.464
 21
-12.1672
  0
LINE
  8
0
 10
33.464
 20
-12.1672
 11
33.6075
 21
-12.2556
  0
LINE
  8
0
 10
33.6075
 20
-12.2556
 11
33.7316
 21
-12.3134
  0
LINE
  8
0
 10
33.7316
 20
-12.3134
 11
34.2502
 21
-12.483
  0
LINE
  8
0
 10
34.2502
 20
-12.483
 11
34.401
 21
-12.5515
  0
LINE
  8
0
 10
34.401
 20
-12.5515
 11
34.5123
 21
-12.6343
  0
LINE
  8
0
 10
34.5123
 20
-12.6343
 11
34.5516
 21
-12.6863
  0
LINE
  8
0
 10
34.5516
 20
-12.6863
 11
34.5808
 21
-12.752
  0
LINE
  8
0
 10
34.5808
 20
-12.752
 11
34.6021
 21
-12.844
  0
LINE
  8
0
 10
34.6021
 20
-12.844
 11
34.6103
 21
-12.969
  0
LINE
  8
0
 10
34.6103
 20
-12.969
 11
34.6068
 21
-13.0049
  0
LINE
  8
0
 10
34.6068
 20
-13.0049
 11
34.5787
 21
-13.0902
  0
LINE
  8
0
 10
34.5787
 20
-13.0902
 11
34.5002
 21
-13.2279
  0
LINE
  8
0
 10
34.5002
 20
-13.2279
 11
34.3045
 21
-13.4783
  0
LINE
  8
0
 10
34.3045
 20
-13.4783
 11
34.015
 21
-13.7675
  0
LINE
  8
0
 10
34.015
 20
-13.7675
 11
33.7325
 21
-13.9909
  0
LINE
  8
0
 10
33.7325
 20
-13.9909
 11
33.5213
 21
-14.1185
  0
LINE
  8
0
 10
33.5213
 20
-14.1185
 11
33.3894
 21
-14.1704
  0
LINE
  8
0
 10
33.3894
 20
-14.1704
 11
33.2906
 21
-14.19
  0
LINE
  8
0
 10
33.2906
 20
-14.19
 11
32.3771
 21
-14.1904
  0
LINE
  8
0
 10
32.3771
 20
-14.1904
 11
32.3168
 21
-14.1806
  0
LINE
  8
0
 10
25.5145
 20
-8.26224
 11
26.2348
 21
-8.20892
  0
LINE
  8
0
 10
26.2348
 20
-8.20892
 11
26.5688
 21
-8.15126
  0
LINE
  8
0
 10
26.5688
 20
-8.15126
 11
26.7783
 21
-8.08
  0
LINE
  8
0
 10
26.7783
 20
-8.08
 11
22.4173
 21
-3.60201
  0
LINE
  8
0
 10
22.4173
 20
-3.60201
 11
20.5833
 21
-6.79301
  0
LINE
  8
0
 10
20.5833
 20
-6.79301
 11
20.0496
 21
-7.75645
  0
LINE
  8
0
 10
20.0496
 20
-7.75645
 11
20.0086
 21
-7.88748
  0
LINE
  8
0
 10
20.0086
 20
-7.88748
 11
20.0006
 21
-7.98143
  0
LINE
  8
0
 10
20.0006
 20
-7.98143
 11
20.0186
 21
-8.07225
  0
LINE
  8
0
 10
20.0186
 20
-8.07225
 11
20.0612
 21
-8.14137
  0
LINE
  8
0
 10
20.0612
 20
-8.14137
 11
20.1084
 21
-8.17781
  0
LINE
  8
0
 10
20.1084
 20
-8.17781
 11
20.1966
 21
-8.21098
  0
LINE
  8
0
 10
20.1966
 20
-8.21098
 11
20.4007
 21
-8.24628
  0
LINE
  8
0
 10
20.4007
 20
-8.24628
 11
21.429
 21
-8.29393
  0
LINE
  8
0
 10
21.429
 20
-8.29393
 11
25.5145
 21
-8.26224
  0
LINE
  8
0
 10
-15.8367
 20
-13.7141
 11
-16.1509
 21
-13.6702
  0
LINE
  8
0
 10
-16.1509
 20
-13.6702
 11
-16.5279
 21
-13.5975
  0
LINE
  8
0
 10
-16.5279
 20
-13.5975
 11
-16.8778
 21
-13.5123
  0
LINE
  8
0
 10
-16.8778
 20
-13.5123
 11
-17.2268
 21
-13.409
  0
LINE
  8
0
 10
-17.2268
 20
-13.409
 11
-17.5741
 21
-13.2878
  0
LINE
  8
0
 10
-17.5741
 20
-13.2878
 11
-17.9198
 21
-13.1488
  0
LINE
  8
0
 10
-17.9198
 20
-13.1488
 11
-18.2197
 21
-13.0122
  0
LINE
  8
0
 10
-18.2197
 20
-13.0122
 11
-18.5116
 21
-12.8618
  0
LINE
  8
0
 10
-18.5116
 20
-12.8618
 11
-18.7947
 21
-12.6977
  0
LINE
  8
0
 10
-18.7947
 20
-12.6977
 11
-19.0691
 21
-12.5199
  0
LINE
  8
0
 10
-19.0691
 20
-12.5199
 11
-19.3348
 21
-12.3285
  0
LINE
  8
0
 10
-19.3348
 20
-12.3285
 11
-19.5159
 21
-12.184
  0
LINE
  8
0
 10
-19.5159
 20
-12.184
 11
-19.6508
 21
-12.0646
  0
LINE
  8
0
 10
-19.6508
 20
-12.0646
 11
-19.7768
 21
-11.9421
  0
LINE
  8
0
 10
-19.7768
 20
-11.9421
 11
-19.8938
 21
-11.8162
  0
LINE
  8
0
 10
-19.8938
 20
-11.8162
 11
-20.0018
 21
-11.6871
  0
LINE
  8
0
 10
-20.0018
 20
-11.6871
 11
-20.1009
 21
-11.5547
  0
LINE
  8
0
 10
-20.1009
 20
-11.5547
 11
-20.191
 21
-11.4191
  0
LINE
  8
0
 10
-20.191
 20
-11.4191
 11
-20.2721
 21
-11.2802
  0
LINE
  8
0
 10
-20.2721
 20
-11.2802
 11
-20.3311
 21
-11.1653
  0
LINE
  8
0
 10
-20.3311
 20
-11.1653
 11
-20.4093
 21
-10.992
  0
LINE
  8
0
 10
-20.4093
 20
-10.992
 11
-20.4845
 21
-10.8004
  0
LINE
  8
0
 10
-20.4845
 20
-10.8004
 11
-20.5569
 21
-10.5905
  0
LINE
  8
0
 10
-20.5569
 20
-10.5905
 11
-20.6265
 21
-10.3623
  0
LINE
  8
0
 10
-20.6265
 20
-10.3623
 11
-20.7095
 21
-10.0512
  0
LINE
  8
0
 10
-20.7095
 20
-10.0512
 11
-20.788
 21
-9.71141
  0
LINE
  8
0
 10
-20.788
 20
-9.71141
 11
-20.862
 21
-9.343
  0
LINE
  8
0
 10
-20.862
 20
-9.343
 11
-20.9584
 21
-8.78741
  0
LINE
  8
0
 10
-20.9584
 20
-8.78741
 11
-21.0596
 21
-8.10507
  0
LINE
  8
0
 10
-21.0596
 20
-8.10507
 11
-21.1619
 21
-7.27702
  0
LINE
  8
0
 10
-21.1619
 20
-7.27702
 11
-21.252
 21
-6.38501
  0
LINE
  8
0
 10
-21.252
 20
-6.38501
 11
-21.3448
 21
-5.22023
  0
LINE
  8
0
 10
-21.3448
 20
-5.22023
 11
-21.4191
 21
-3.98456
  0
LINE
  8
0
 10
-21.4191
 20
-3.98456
 11
-21.4791
 21
-2.55592
  0
LINE
  8
0
 10
-21.4791
 20
-2.55592
 11
-21.5278
 21
-0.578003
  0
LINE
  8
0
 10
-21.5278
 20
-0.578003
 11
-21.5439
 21
1.48439
  0
LINE
  8
0
 10
-21.5439
 20
1.48439
 11
-21.5326
 21
1.80002
  0
LINE
  8
0
 10
-21.5326
 20
1.80002
 11
-21.5111
 21
2.00829
  0
LINE
  8
0
 10
-21.5111
 20
2.00829
 11
-21.4838
 21
2.16087
  0
LINE
  8
0
 10
-21.4838
 20
2.16087
 11
-21.4482
 21
2.28952
  0
LINE
  8
0
 10
-21.4482
 20
2.28952
 11
-21.4122
 21
2.37859
  0
LINE
  8
0
 10
-21.4122
 20
2.37859
 11
-21.3857
 21
2.42531
  0
LINE
  8
0
 10
-21.3857
 20
2.42531
 11
-21.3544
 21
2.46742
  0
LINE
  8
0
 10
-21.3544
 20
2.46742
 11
-21.3183
 21
2.50494
  0
LINE
  8
0
 10
-21.3183
 20
2.50494
 11
-21.2775
 21
2.53789
  0
LINE
  8
0
 10
-21.2775
 20
2.53789
 11
-21.2318
 21
2.56622
  0
LINE
  8
0
 10
-21.2318
 20
2.56622
 11
-21.1814
 21
2.58995
  0
LINE
  8
0
 10
-21.1814
 20
2.58995
 11
-21.1068
 21
2.61447
  0
LINE
  8
0
 10
-21.1068
 20
2.61447
 11
-21.0236
 21
2.6308
  0
LINE
  8
0
 10
-21.0236
 20
2.6308
 11
-20.932
 21
2.63898
  0
LINE
  8
0
 10
-20.932
 20
2.63898
 11
-20.8464
 21
2.63861
  0
LINE
  8
0
 10
-20.8464
 20
2.63861
 11
-20.7345
 21
2.62143
  0
LINE
  8
0
 10
-20.7345
 20
2.62143
 11
-20.5649
 21
2.57236
  0
LINE
  8
0
 10
-20.5649
 20
2.57236
 11
-20.2955
 21
2.46286
  0
LINE
  8
0
 10
-20.2955
 20
2.46286
 11
-19.8893
 21
2.2583
  0
LINE
  8
0
 10
-19.8893
 20
2.2583
 11
-19.4616
 21
1.99783
  0
LINE
  8
0
 10
-19.4616
 20
1.99783
 11
-19.1306
 21
1.75829
  0
LINE
  8
0
 10
-19.1306
 20
1.75829
 11
-18.8573
 21
1.52234
  0
LINE
  8
0
 10
-18.8573
 20
1.52234
 11
-18.7704
 21
1.42912
  0
LINE
  8
0
 10
-18.7704
 20
1.42912
 11
-18.7029
 21
1.33867
  0
LINE
  8
0
 10
-18.7029
 20
1.33867
 11
-18.6613
 21
1.26543
  0
LINE
  8
0
 10
-18.6613
 20
1.26543
 11
-18.6332
 21
1.19409
  0
LINE
  8
0
 10
-18.6332
 20
1.19409
 11
-18.6203
 21
1.13843
  0
LINE
  8
0
 10
-18.6203
 20
1.13843
 11
-18.616
 21
1.084
  0
LINE
  8
0
 10
-18.616
 20
1.084
 11
-18.625
 21
0.975113
  0
LINE
  8
0
 10
-18.625
 20
0.975113
 11
-18.652
 21
0.8647
  0
LINE
  8
0
 10
-18.652
 20
0.8647
 11
-18.6969
 21
0.752747
  0
LINE
  8
0
 10
-18.6969
 20
0.752747
 11
-18.853
 21
0.474548
  0
LINE
  8
0
 10
-18.853
 20
0.474548
 11
-18.9588
 21
0.231674
  0
LINE
  8
0
 10
-18.9588
 20
0.231674
 11
-19.0981
 21
-0.171417
  0
LINE
  8
0
 10
-19.0981
 20
-0.171417
 11
-19.1879
 21
-0.499878
  0
LINE
  8
0
 10
-19.1879
 20
-0.499878
 11
-19.2853
 21
-0.942459
  0
LINE
  8
0
 10
-19.2853
 20
-0.942459
 11
-19.408
 21
-1.64001
  0
LINE
  8
0
 10
-19.408
 20
-1.64001
 11
-19.4506
 21
-1.95116
  0
LINE
  8
0
 10
-19.4506
 20
-1.95116
 11
-19.4862
 21
-2.29549
  0
LINE
  8
0
 10
-19.4862
 20
-2.29549
 11
-19.5197
 21
-2.75252
  0
LINE
  8
0
 10
-19.5197
 20
-2.75252
 11
-19.5431
 21
-3.25734
  0
LINE
  8
0
 10
-19.5431
 20
-3.25734
 11
-19.5578
 21
-3.90672
  0
LINE
  8
0
 10
-19.5578
 20
-3.90672
 11
-19.5586
 21
-4.73154
  0
LINE
  8
0
 10
-19.5586
 20
-4.73154
 11
-19.54
 21
-5.82945
  0
LINE
  8
0
 10
-19.54
 20
-5.82945
 11
-19.5043
 21
-6.73903
  0
LINE
  8
0
 10
-19.5043
 20
-6.73903
 11
-19.4567
 21
-7.48573
  0
LINE
  8
0
 10
-19.4567
 20
-7.48573
 11
-19.4337
 21
-7.72171
  0
LINE
  8
0
 10
-19.4337
 20
-7.72171
 11
-19.4045
 21
-7.95287
  0
LINE
  8
0
 10
-19.4045
 20
-7.95287
 11
-19.369
 21
-8.1792
  0
LINE
  8
0
 10
-19.369
 20
-8.1792
 11
-19.3273
 21
-8.4007
  0
LINE
  8
0
 10
-19.3273
 20
-8.4007
 11
-19.2794
 21
-8.61737
  0
LINE
  8
0
 10
-19.2794
 20
-8.61737
 11
-19.2252
 21
-8.82921
  0
LINE
  8
0
 10
-19.2252
 20
-8.82921
 11
-19.1648
 21
-9.03622
  0
LINE
  8
0
 10
-19.1648
 20
-9.03622
 11
-19.0982
 21
-9.23842
  0
LINE
  8
0
 10
-19.0982
 20
-9.23842
 11
-19.0253
 21
-9.43579
  0
LINE
  8
0
 10
-19.0253
 20
-9.43579
 11
-18.9462
 21
-9.62833
  0
LINE
  8
0
 10
-18.9462
 20
-9.62833
 11
-18.8384
 21
-9.86806
  0
LINE
  8
0
 10
-18.8384
 20
-9.86806
 11
-18.7624
 21
-10.0089
  0
LINE
  8
0
 10
-18.7624
 20
-10.0089
 11
-18.6737
 21
-10.1478
  0
LINE
  8
0
 10
-18.6737
 20
-10.1478
 11
-18.5722
 21
-10.2847
  0
LINE
  8
0
 10
-18.5722
 20
-10.2847
 11
-18.4579
 21
-10.4198
  0
LINE
  8
0
 10
-18.4579
 20
-10.4198
 11
-18.3308
 21
-10.5529
  0
LINE
  8
0
 10
-18.3308
 20
-10.5529
 11
-18.1621
 21
-10.7098
  0
LINE
  8
0
 10
-18.1621
 20
-10.7098
 11
-17.8926
 21
-10.934
  0
LINE
  8
0
 10
-17.8926
 20
-10.934
 11
-17.6086
 21
-11.144
  0
LINE
  8
0
 10
-17.6086
 20
-11.144
 11
-17.3102
 21
-11.3396
  0
LINE
  8
0
 10
-17.3102
 20
-11.3396
 11
-17.0335
 21
-11.5007
  0
LINE
  8
0
 10
-17.0335
 20
-11.5007
 11
-16.7509
 21
-11.6459
  0
LINE
  8
0
 10
-16.7509
 20
-11.6459
 11
-16.4634
 21
-11.7749
  0
LINE
  8
0
 10
-16.4634
 20
-11.7749
 11
-16.1711
 21
-11.8877
  0
LINE
  8
0
 10
-16.1711
 20
-11.8877
 11
-15.8751
 21
-11.9837
  0
LINE
  8
0
 10
-15.8751
 20
-11.9837
 11
-15.6236
 21
-12.0498
  0
LINE
  8
0
 10
-15.6236
 20
-12.0498
 11
-15.3821
 21
-12.0984
  0
LINE
  8
0
 10
-15.3821
 20
-12.0984
 11
-15.1507
 21
-12.1296
  0
LINE
  8
0
 10
-15.1507
 20
-12.1296
 11
-14.9604
 21
-12.1424
  0
LINE
  8
0
 10
-14.9604
 20
-12.1424
 11
-14.7405
 21
-12.1422
  0
LINE
  8
0
 10
-14.7405
 20
-12.1422
 11
-14.5535
 21
-12.1325
  0
LINE
  8
0
 10
-14.5535
 20
-12.1325
 11
-14.3716
 21
-12.1146
  0
LINE
  8
0
 10
-14.3716
 20
-12.1146
 11
-14.1948
 21
-12.0885
  0
LINE
  8
0
 10
-14.1948
 20
-12.0885
 11
-14.0797
 21
-12.0664
  0
LINE
  8
0
 10
-14.0797
 20
-12.0664
 11
-13.9669
 21
-12.0407
  0
LINE
  8
0
 10
-13.9669
 20
-12.0407
 11
-13.8563
 21
-12.0113
  0
LINE
  8
0
 10
-13.8563
 20
-12.0113
 11
-13.748
 21
-11.9783
  0
LINE
  8
0
 10
-13.748
 20
-11.9783
 11
-13.642
 21
-11.9415
  0
LINE
  8
0
 10
-13.642
 20
-11.9415
 11
-13.5382
 21
-11.9011
  0
LINE
  8
0
 10
-13.5382
 20
-11.9011
 11
-13.4366
 21
-11.857
  0
LINE
  8
0
 10
-13.4366
 20
-11.857
 11
-13.3373
 21
-11.8093
  0
LINE
  8
0
 10
-13.3373
 20
-11.8093
 11
-13.2403
 21
-11.7579
  0
LINE
  8
0
 10
-13.2403
 20
-11.7579
 11
-13.1455
 21
-11.7028
  0
LINE
  8
0
 10
-13.1455
 20
-11.7028
 11
-13.053
 21
-11.644
  0
LINE
  8
0
 10
-13.053
 20
-11.644
 11
-12.918
 21
-11.5505
  0
LINE
  8
0
 10
-12.918
 20
-11.5505
 11
-12.7872
 21
-11.4516
  0
LINE
  8
0
 10
-12.7872
 20
-11.4516
 11
-12.6605
 21
-11.3475
  0
LINE
  8
0
 10
-12.6605
 20
-11.3475
 11
-12.538
 21
-11.2382
  0
LINE
  8
0
 10
-12.538
 20
-11.2382
 11
-12.4196
 21
-11.1236
  0
LINE
  8
0
 10
-12.4196
 20
-11.1236
 11
-12.3054
 21
-11.0036
  0
LINE
  8
0
 10
-12.3054
 20
-11.0036
 11
-12.1954
 21
-10.8785
  0
LINE
  8
0
 10
-12.1954
 20
-10.8785
 11
-12.0896
 21
-10.748
  0
LINE
  8
0
 10
-12.0896
 20
-10.748
 11
-11.9879
 21
-10.6123
  0
LINE
  8
0
 10
-11.9879
 20
-10.6123
 11
-11.8904
 21
-10.4713
  0
LINE
  8
0
 10
-11.8904
 20
-10.4713
 11
-11.797
 21
-10.325
  0
LINE
  8
0
 10
-11.797
 20
-10.325
 11
-11.6781
 21
-10.1232
  0
LINE
  8
0
 10
-11.6781
 20
-10.1232
 11
-11.5655
 21
-9.91527
  0
LINE
  8
0
 10
-11.5655
 20
-9.91527
 11
-11.459
 21
-9.70128
  0
LINE
  8
0
 10
-11.459
 20
-9.70128
 11
-11.3586
 21
-9.4812
  0
LINE
  8
0
 10
-11.3586
 20
-9.4812
 11
-11.2645
 21
-9.25504
  0
LINE
  8
0
 10
-11.2645
 20
-9.25504
 11
-11.1554
 21
-8.96378
  0
LINE
  8
0
 10
-11.1554
 20
-8.96378
 11
-11.056
 21
-8.66302
  0
LINE
  8
0
 10
-11.056
 20
-8.66302
 11
-10.9659
 21
-8.35326
  0
LINE
  8
0
 10
-10.9659
 20
-8.35326
 11
-10.8522
 21
-7.91423
  0
LINE
  8
0
 10
-10.8522
 20
-7.91423
 11
-10.7523
 21
-7.47153
  0
LINE
  8
0
 10
-10.7523
 20
-7.47153
 11
-10.6665
 21
-7.02512
  0
LINE
  8
0
 10
-10.6665
 20
-7.02512
 11
-10.5946
 21
-6.57503
  0
LINE
  8
0
 10
-10.5946
 20
-6.57503
 11
-10.513
 21
-5.93022
  0
LINE
  8
0
 10
-10.513
 20
-5.93022
 11
-10.4343
 21
-5.10976
  0
LINE
  8
0
 10
-10.4343
 20
-5.10976
 11
-10.3886
 21
-4.37167
  0
LINE
  8
0
 10
-10.3886
 20
-4.37167
 11
-10.3459
 21
-2.89044
  0
LINE
  8
0
 10
-10.3459
 20
-2.89044
 11
-10.3589
 21
-1.61934
  0
LINE
  8
0
 10
-10.3589
 20
-1.61934
 11
-10.3967
 21
-0.935684
  0
LINE
  8
0
 10
-10.3967
 20
-0.935684
 11
-10.5277
 21
0.309875
  0
LINE
  8
0
 10
-10.5277
 20
0.309875
 11
-10.6671
 21
1.05594
  0
LINE
  8
0
 10
-10.6671
 20
1.05594
 11
-10.6745
 21
1.25279
  0
LINE
  8
0
 10
-10.6745
 20
1.25279
 11
-10.6633
 21
1.33215
  0
LINE
  8
0
 10
-10.6633
 20
1.33215
 11
-10.6431
 21
1.405
  0
LINE
  8
0
 10
-10.6431
 20
1.405
 11
-10.6221
 21
1.45534
  0
LINE
  8
0
 10
-10.6221
 20
1.45534
 11
-10.5961
 21
1.50201
  0
LINE
  8
0
 10
-10.5961
 20
1.50201
 11
-10.565
 21
1.54503
  0
LINE
  8
0
 10
-10.565
 20
1.54503
 11
-10.5289
 21
1.58437
  0
LINE
  8
0
 10
-10.5289
 20
1.58437
 11
-10.4877
 21
1.62004
  0
LINE
  8
0
 10
-10.4877
 20
1.62004
 11
-10.4249
 21
1.66188
  0
LINE
  8
0
 10
-10.4249
 20
1.66188
 11
-10.3533
 21
1.6973
  0
LINE
  8
0
 10
-10.3533
 20
1.6973
 11
-10.2155
 21
1.74821
  0
LINE
  8
0
 10
-10.2155
 20
1.74821
 11
-10.0651
 21
1.78664
  0
LINE
  8
0
 10
-10.0651
 20
1.78664
 11
-9.90224
 21
1.81255
  0
LINE
  8
0
 10
-9.90224
 20
1.81255
 11
-9.70078
 21
1.82684
  0
LINE
  8
0
 10
-9.70078
 20
1.82684
 11
-9.49445
 21
1.82451
  0
LINE
  8
0
 10
-9.49445
 20
1.82451
 11
-9.3403
 21
1.81036
  0
LINE
  8
0
 10
-9.3403
 20
1.81036
 11
-9.19064
 21
1.78534
  0
LINE
  8
0
 10
-9.19064
 20
1.78534
 11
-9.0455
 21
1.74942
  0
LINE
  8
0
 10
-9.0455
 20
1.74942
 11
-8.90485
 21
1.70264
  0
LINE
  8
0
 10
-8.90485
 20
1.70264
 11
-8.76869
 21
1.64496
  0
LINE
  8
0
 10
-8.76869
 20
1.64496
 11
-8.63728
 21
1.57648
  0
LINE
  8
0
 10
-8.63728
 20
1.57648
 11
-8.56485
 21
1.53032
  0
LINE
  8
0
 10
-8.56485
 20
1.53032
 11
-8.49956
 21
1.48026
  0
LINE
  8
0
 10
-8.49956
 20
1.48026
 11
-8.44138
 21
1.42628
  0
LINE
  8
0
 10
-8.44138
 20
1.42628
 11
-8.39032
 21
1.36842
  0
LINE
  8
0
 10
-8.39032
 20
1.36842
 11
-8.34639
 21
1.30667
  0
LINE
  8
0
 10
-8.34639
 20
1.30667
 11
-8.30959
 21
1.241
  0
LINE
  8
0
 10
-8.30959
 20
1.241
 11
-8.27989
 21
1.17143
  0
LINE
  8
0
 10
-8.27989
 20
1.17143
 11
-8.25734
 21
1.09798
  0
LINE
  8
0
 10
-8.25734
 20
1.09798
 11
-8.2419
 21
1.0206
  0
LINE
  8
0
 10
-8.2419
 20
1.0206
 11
-8.2336
 21
0.939331
  0
LINE
  8
0
 10
-8.2336
 20
0.939331
 11
-8.23232
 21
0.840942
  0
LINE
  8
0
 10
-8.23232
 20
0.840942
 11
-8.26602
 21
0.2733
  0
LINE
  8
0
 10
-8.26602
 20
0.2733
 11
-8.55592
 21
-2.29466
  0
LINE
  8
0
 10
-8.55592
 20
-2.29466
 11
-8.99278
 21
-5.34778
  0
LINE
  8
0
 10
-8.99278
 20
-5.34778
 11
-9.34381
 21
-7.34486
  0
LINE
  8
0
 10
-9.34381
 20
-7.34486
 11
-9.57623
 21
-8.41968
  0
LINE
  8
0
 10
-9.57623
 20
-8.41968
 11
-9.74541
 21
-9.07341
  0
LINE
  8
0
 10
-9.74541
 20
-9.07341
 11
-9.87241
 21
-9.47678
  0
LINE
  8
0
 10
-9.87241
 20
-9.47678
 11
-9.94398
 21
-9.65965
  0
LINE
  8
0
 10
-9.94398
 20
-9.65965
 11
-10.029
 21
-9.8532
  0
LINE
  8
0
 10
-10.029
 20
-9.8532
 11
-10.1179
 21
-10.0417
  0
LINE
  8
0
 10
-10.1179
 20
-10.0417
 11
-10.2109
 21
-10.2252
  0
LINE
  8
0
 10
-10.2109
 20
-10.2252
 11
-10.3078
 21
-10.4037
  0
LINE
  8
0
 10
-10.3078
 20
-10.4037
 11
-10.4088
 21
-10.5772
  0
LINE
  8
0
 10
-10.4088
 20
-10.5772
 11
-10.5137
 21
-10.7457
  0
LINE
  8
0
 10
-10.5137
 20
-10.7457
 11
-10.6227
 21
-10.9092
  0
LINE
  8
0
 10
-10.6227
 20
-10.9092
 11
-10.7356
 21
-11.0677
  0
LINE
  8
0
 10
-10.7356
 20
-11.0677
 11
-10.8526
 21
-11.2211
  0
LINE
  8
0
 10
-10.8526
 20
-11.2211
 11
-10.9735
 21
-11.3696
  0
LINE
  8
0
 10
-10.9735
 20
-11.3696
 11
-11.0984
 21
-11.513
  0
LINE
  8
0
 10
-11.0984
 20
-11.513
 11
-11.2273
 21
-11.6514
  0
LINE
  8
0
 10
-11.2273
 20
-11.6514
 11
-11.3603
 21
-11.7848
  0
LINE
  8
0
 10
-11.3603
 20
-11.7848
 11
-11.4972
 21
-11.9132
  0
LINE
  8
0
 10
-11.4972
 20
-11.9132
 11
-11.6381
 21
-12.0366
  0
LINE
  8
0
 10
-11.6381
 20
-12.0366
 11
-11.783
 21
-12.155
  0
LINE
  8
0
 10
-11.783
 20
-12.155
 11
-12.0031
 21
-12.3246
  0
LINE
  8
0
 10
-12.0031
 20
-12.3246
 11
-12.2229
 21
-12.4862
  0
LINE
  8
0
 10
-12.2229
 20
-12.4862
 11
-12.4426
 21
-12.6397
  0
LINE
  8
0
 10
-12.4426
 20
-12.6397
 11
-12.662
 21
-12.7852
  0
LINE
  8
0
 10
-12.662
 20
-12.7852
 11
-12.8812
 21
-12.9226
  0
LINE
  8
0
 10
-12.8812
 20
-12.9226
 11
-13.1002
 21
-13.0519
  0
LINE
  8
0
 10
-13.1002
 20
-13.0519
 11
-13.319
 21
-13.1732
  0
LINE
  8
0
 10
-13.319
 20
-13.1732
 11
-13.5376
 21
-13.2865
  0
LINE
  8
0
 10
-13.5376
 20
-13.2865
 11
-13.7559
 21
-13.3917
  0
LINE
  8
0
 10
-13.7559
 20
-13.3917
 11
-13.9741
 21
-13.4889
  0
LINE
  8
0
 10
-13.9741
 20
-13.4889
 11
-14.192
 21
-13.578
  0
LINE
  8
0
 10
-14.192
 20
-13.578
 11
-14.3388
 21
-13.627
  0
LINE
  8
0
 10
-14.3388
 20
-13.627
 11
-14.6054
 21
-13.6924
  0
LINE
  8
0
 10
-14.6054
 20
-13.6924
 11
-14.8781
 21
-13.7259
  0
LINE
  8
0
 10
-14.8781
 20
-13.7259
 11
-15.5421
 21
-13.7385
  0
LINE
  8
0
 10
-15.5421
 20
-13.7385
 11
-15.8367
 21
-13.7141
  0
LINE
  8
0
 10
-2.6479
 20
-14.183
 11
-2.72485
 21
-14.1691
  0
LINE
  8
0
 10
-2.72485
 20
-14.1691
 11
-2.79308
 21
-14.1487
  0
LINE
  8
0
 10
-2.79308
 20
-14.1487
 11
-2.83372
 21
-14.1315
  0
LINE
  8
0
 10
-2.83372
 20
-14.1315
 11
-2.87051
 21
-14.1114
  0
LINE
  8
0
 10
-2.87051
 20
-14.1114
 11
-2.90341
 21
-14.0885
  0
LINE
  8
0
 10
-2.90341
 20
-14.0885
 11
-2.93245
 21
-14.0627
  0
LINE
  8
0
 10
-2.93245
 20
-14.0627
 11
-2.95761
 21
-14.0341
  0
LINE
  8
0
 10
-2.95761
 20
-14.0341
 11
-2.97891
 21
-14.0025
  0
LINE
  8
0
 10
-2.97891
 20
-14.0025
 11
-2.99634
 21
-13.9682
  0
LINE
  8
0
 10
-2.99634
 20
-13.9682
 11
-3.00989
 21
-13.9309
  0
LINE
  8
0
 10
-3.00989
 20
-13.9309
 11
-3.01956
 21
-13.8908
  0
LINE
  8
0
 10
-3.01956
 20
-13.8908
 11
-3.02538
 21
-13.8479
  0
LINE
  8
0
 10
-3.02538
 20
-13.8479
 11
-3.02718
 21
-13.7886
  0
LINE
  8
0
 10
-3.02718
 20
-13.7886
 11
-3.01704
 21
-13.682
  0
LINE
  8
0
 10
-3.01704
 20
-13.682
 11
-2.99068
 21
-13.577
  0
LINE
  8
0
 10
-2.99068
 20
-13.577
 11
-2.94164
 21
-13.4609
  0
LINE
  8
0
 10
-2.94164
 20
-13.4609
 11
-2.56931
 21
-12.843
  0
LINE
  8
0
 10
-2.56931
 20
-12.843
 11
-2.4503
 21
-12.6064
  0
LINE
  8
0
 10
-2.4503
 20
-12.6064
 11
-2.3243
 21
-12.2954
  0
LINE
  8
0
 10
-2.3243
 20
-12.2954
 11
-2.19287
 21
-11.8953
  0
LINE
  8
0
 10
-2.19287
 20
-11.8953
 11
-2.13138
 21
-11.6454
  0
LINE
  8
0
 10
-2.13138
 20
-11.6454
 11
-2.07997
 21
-11.368
  0
LINE
  8
0
 10
-2.07997
 20
-11.368
 11
-2.03355
 21
-11.0174
  0
LINE
  8
0
 10
-2.03355
 20
-11.0174
 11
-2.00031
 21
-10.631
  0
LINE
  8
0
 10
-2.00031
 20
-10.631
 11
-1.6803
 21
-3.759
  0
LINE
  8
0
 10
-1.6803
 20
-3.759
 11
-1.61665
 21
-1.61516
  0
LINE
  8
0
 10
-1.61665
 20
-1.61516
 11
-1.62181
 21
-1.45044
  0
LINE
  8
0
 10
-1.62181
 20
-1.45044
 11
-1.63318
 21
-1.29448
  0
LINE
  8
0
 10
-1.63318
 20
-1.29448
 11
-1.65074
 21
-1.14725
  0
LINE
  8
0
 10
-1.65074
 20
-1.14725
 11
-1.6745
 21
-1.00877
  0
LINE
  8
0
 10
-1.6745
 20
-1.00877
 11
-1.70445
 21
-0.879028
  0
LINE
  8
0
 10
-1.70445
 20
-0.879028
 11
-1.74062
 21
-0.758041
  0
LINE
  8
0
 10
-1.74062
 20
-0.758041
 11
-1.78297
 21
-0.645782
  0
LINE
  8
0
 10
-1.78297
 20
-0.645782
 11
-1.81465
 21
-0.575806
  0
LINE
  8
0
 10
-1.81465
 20
-0.575806
 11
-1.84909
 21
-0.50972
  0
LINE
  8
0
 10
-1.84909
 20
-0.50972
 11
-1.88628
 21
-0.44751
  0
LINE
  8
0
 10
-1.88628
 20
-0.44751
 11
-1.92622
 21
-0.389191
  0
LINE
  8
0
 10
-1.92622
 20
-0.389191
 11
-1.96892
 21
-0.334763
  0
LINE
  8
0
 10
-1.96892
 20
-0.334763
 11
-2.01411
 21
-0.283951
  0
LINE
  8
0
 10
-2.01411
 20
-0.283951
 11
-2.13042
 21
-0.165176
  0
LINE
  8
0
 10
-2.13042
 20
-0.165176
 11
-2.25053
 21
-0.0572357
  0
LINE
  8
0
 10
-2.25053
 20
-0.0572357
 11
-2.37445
 21
0.0398712
  0
LINE
  8
0
 10
-2.37445
 20
0.0398712
 11
-2.50218
 21
0.126144
  0
LINE
  8
0
 10
-2.50218
 20
0.126144
 11
-2.63374
 21
0.201584
  0
LINE
  8
0
 10
-2.63374
 20
0.201584
 11
-2.76909
 21
0.26619
  0
LINE
  8
0
 10
-2.76909
 20
0.26619
 11
-3.6573
 21
0.608994
  0
LINE
  8
0
 10
-3.6573
 20
0.608994
 11
-3.74271
 21
0.645966
  0
LINE
  8
0
 10
-3.74271
 20
0.645966
 11
-3.79951
 21
0.677994
  0
LINE
  8
0
 10
-3.79951
 20
0.677994
 11
-3.85014
 21
0.713715
  0
LINE
  8
0
 10
-3.85014
 20
0.713715
 11
-3.89456
 21
0.753113
  0
LINE
  8
0
 10
-3.89456
 20
0.753113
 11
-3.93279
 21
0.796204
  0
LINE
  8
0
 10
-3.93279
 20
0.796204
 11
-3.96481
 21
0.842972
  0
LINE
  8
0
 10
-3.96481
 20
0.842972
 11
-3.99063
 21
0.893433
  0
LINE
  8
0
 10
-3.99063
 20
0.893433
 11
-4.01027
 21
0.947586
  0
LINE
  8
0
 10
-4.01027
 20
0.947586
 11
-4.0237
 21
1.00542
  0
LINE
  8
0
 10
-4.0237
 20
1.00542
 11
-4.03093
 21
1.06694
  0
LINE
  8
0
 10
-4.03093
 20
1.06694
 11
-4.03119
 21
1.13373
  0
LINE
  8
0
 10
-4.03119
 20
1.13373
 11
-4.02222
 21
1.18179
  0
LINE
  8
0
 10
-4.02222
 20
1.18179
 11
-4.0043
 21
1.23065
  0
LINE
  8
0
 10
-4.0043
 20
1.23065
 11
-3.96928
 21
1.29285
  0
LINE
  8
0
 10
-3.96928
 20
1.29285
 11
-3.92027
 21
1.35628
  0
LINE
  8
0
 10
-3.92027
 20
1.35628
 11
-3.84297
 21
1.43402
  0
LINE
  8
0
 10
-3.84297
 20
1.43402
 11
-2.72731
 21
2.334
  0
LINE
  8
0
 10
-2.72731
 20
2.334
 11
-2.68752
 21
2.36829
  0
LINE
  8
0
 10
-2.68752
 20
2.36829
 11
-2.49454
 21
2.51213
  0
LINE
  8
0
 10
-2.49454
 20
2.51213
 11
-2.37111
 21
2.57681
  0
LINE
  8
0
 10
-2.37111
 20
2.57681
 11
-2.18956
 21
2.62842
  0
LINE
  8
0
 10
-2.18956
 20
2.62842
 11
-2.02003
 21
2.63855
  0
LINE
  8
0
 10
-2.02003
 20
2.63855
 11
-1.91159
 21
2.61975
  0
LINE
  8
0
 10
-1.91159
 20
2.61975
 11
-1.79707
 21
2.57439
  0
LINE
  8
0
 10
-1.79707
 20
2.57439
 11
-1.68335
 21
2.50073
  0
LINE
  8
0
 10
-1.68335
 20
2.50073
 11
-1.54192
 21
2.3703
  0
LINE
  8
0
 10
-1.54192
 20
2.3703
 11
0.120941
 21
0.421539
  0
LINE
  8
0
 10
0.120941
 20
0.421539
 11
1.94969
 21
-1.673
  0
LINE
  8
0
 10
1.94969
 20
-1.673
 11
4.20335
 21
-4.18622
  0
LINE
  8
0
 10
4.20335
 20
-4.18622
 11
6.28265
 21
-6.43791
  0
LINE
  8
0
 10
6.28265
 20
-6.43791
 11
8.07118
 21
-8.31314
  0
LINE
  8
0
 10
8.07118
 20
-8.31314
 11
8.81061
 21
-9.04906
  0
LINE
  8
0
 10
8.81061
 20
-9.04906
 11
9.1097
 21
-9.32301
  0
LINE
  8
0
 10
9.1097
 20
-9.32301
 11
9.16096
 21
-8.98087
  0
LINE
  8
0
 10
9.16096
 20
-8.98087
 11
9.28317
 21
-8.05904
  0
LINE
  8
0
 10
9.28317
 20
-8.05904
 11
9.37035
 21
-7.24532
  0
LINE
  8
0
 10
9.37035
 20
-7.24532
 11
9.43498
 21
-6.4539
  0
LINE
  8
0
 10
9.43498
 20
-6.4539
 11
9.48444
 21
-5.58078
  0
LINE
  8
0
 10
9.48444
 20
-5.58078
 11
9.51405
 21
-4.61079
  0
LINE
  8
0
 10
9.51405
 20
-4.61079
 11
9.51846
 21
-3.69508
  0
LINE
  8
0
 10
9.51846
 20
-3.69508
 11
9.49995
 21
-2.96747
  0
LINE
  8
0
 10
9.49995
 20
-2.96747
 11
9.46347
 21
-2.36533
  0
LINE
  8
0
 10
9.46347
 20
-2.36533
 11
9.39035
 21
-1.64204
  0
LINE
  8
0
 10
9.39035
 20
-1.64204
 11
9.22342
 21
-0.415329
  0
LINE
  8
0
 10
9.22342
 20
-0.415329
 11
9.0392
 21
0.494232
  0
LINE
  8
0
 10
9.0392
 20
0.494232
 11
9.0197
 21
0.715988
  0
LINE
  8
0
 10
9.0197
 20
0.715988
 11
9.02364
 21
0.745819
  0
LINE
  8
0
 10
9.02364
 20
0.745819
 11
9.04343
 21
0.831085
  0
LINE
  8
0
 10
9.04343
 20
0.831085
 11
9.07518
 21
0.909988
  0
LINE
  8
0
 10
9.07518
 20
0.909988
 11
9.11891
 21
0.982544
  0
LINE
  8
0
 10
9.11891
 20
0.982544
 11
9.17459
 21
1.04877
  0
LINE
  8
0
 10
9.17459
 20
1.04877
 11
9.24225
 21
1.10863
  0
LINE
  8
0
 10
9.24225
 20
1.10863
 11
9.34773
 21
1.17975
  0
LINE
  8
0
 10
9.34773
 20
1.17975
 11
9.51155
 21
1.26407
  0
LINE
  8
0
 10
9.51155
 20
1.26407
 11
9.69695
 21
1.33284
  0
LINE
  8
0
 10
9.69695
 20
1.33284
 11
9.9964
 21
1.40755
  0
LINE
  8
0
 10
9.9964
 20
1.40755
 11
10.3694
 21
1.46152
  0
LINE
  8
0
 10
10.3694
 20
1.46152
 11
11.0912
 21
1.49104
  0
LINE
  8
0
 10
11.0912
 20
1.49104
 11
11.1962
 21
1.47913
  0
LINE
  8
0
 10
11.1962
 20
1.47913
 11
11.272
 21
1.46179
  0
LINE
  8
0
 10
11.272
 20
1.46179
 11
11.3404
 21
1.43752
  0
LINE
  8
0
 10
11.3404
 20
1.43752
 11
11.4015
 21
1.40631
  0
LINE
  8
0
 10
11.4015
 20
1.40631
 11
11.4554
 21
1.36816
  0
LINE
  8
0
 10
11.4554
 20
1.36816
 11
11.5019
 21
1.32309
  0
LINE
  8
0
 10
11.5019
 20
1.32309
 11
11.541
 21
1.27107
  0
LINE
  8
0
 10
11.541
 20
1.27107
 11
11.5956
 21
1.1689
  0
LINE
  8
0
 10
11.5956
 20
1.1689
 11
11.6426
 21
1.04433
  0
LINE
  8
0
 10
11.6426
 20
1.04433
 11
11.6732
 21
0.911652
  0
LINE
  8
0
 10
11.6732
 20
0.911652
 11
11.6875
 21
0.770874
  0
LINE
  8
0
 10
11.6875
 20
0.770874
 11
11.6855
 21
0.623459
  0
LINE
  8
0
 10
11.6855
 20
0.623459
 11
11.6518
 21
0.333771
  0
LINE
  8
0
 10
11.6518
 20
0.333771
 11
11.5412
 21
-0.240143
  0
LINE
  8
0
 10
11.5412
 20
-0.240143
 11
11.3615
 21
-1.19449
  0
LINE
  8
0
 10
11.3615
 20
-1.19449
 11
11.1552
 21
-2.55574
  0
LINE
  8
0
 10
11.1552
 20
-2.55574
 11
11.0344
 21
-3.61111
  0
LINE
  8
0
 10
11.0344
 20
-3.61111
 11
10.9146
 21
-4.93723
  0
LINE
  8
0
 10
10.9146
 20
-4.93723
 11
10.8672
 21
-5.68213
  0
LINE
  8
0
 10
10.8672
 20
-5.68213
 11
10.8324
 21
-6.48587
  0
LINE
  8
0
 10
10.8324
 20
-6.48587
 11
10.8079
 21
-7.4765
  0
LINE
  8
0
 10
10.8079
 20
-7.4765
 11
10.7997
 21
-8.54401
  0
LINE
  8
0
 10
10.7997
 20
-8.54401
 11
10.8637
 21
-11.711
  0
LINE
  8
0
 10
10.8637
 20
-11.711
 11
10.8579
 21
-11.7962
  0
LINE
  8
0
 10
10.8579
 20
-11.7962
 11
10.8407
 21
-11.8833
  0
LINE
  8
0
 10
10.8407
 20
-11.8833
 11
10.8118
 21
-11.9724
  0
LINE
  8
0
 10
10.8118
 20
-11.9724
 11
10.7621
 21
-12.0818
  0
LINE
  8
0
 10
10.7621
 20
-12.0818
 11
10.6957
 21
-12.194
  0
LINE
  8
0
 10
10.6957
 20
-12.194
 11
10.5975
 21
-12.3283
  0
LINE
  8
0
 10
10.5975
 20
-12.3283
 11
10.3878
 21
-12.5698
  0
LINE
  8
0
 10
10.3878
 20
-12.5698
 11
10.1561
 21
-12.7942
  0
LINE
  8
0
 10
10.1561
 20
-12.7942
 11
9.86819
 21
-13.0298
  0
LINE
  8
0
 10
9.86819
 20
-13.0298
 11
9.50874
 21
-13.2803
  0
LINE
  8
0
 10
9.50874
 20
-13.2803
 11
9.21893
 21
-13.4441
  0
LINE
  8
0
 10
9.21893
 20
-13.4441
 11
9.07375
 21
-13.5036
  0
LINE
  8
0
 10
9.07375
 20
-13.5036
 11
9.0056
 21
-13.5168
  0
LINE
  8
0
 10
9.0056
 20
-13.5168
 11
8.96538
 21
-13.5125
  0
LINE
  8
0
 10
8.96538
 20
-13.5125
 11
8.93329
 21
-13.4991
  0
LINE
  8
0
 10
8.93329
 20
-13.4991
 11
8.90244
 21
-13.4767
  0
LINE
  8
0
 10
8.90244
 20
-13.4767
 11
8.8656
 21
-13.4361
  0
LINE
  8
0
 10
8.8656
 20
-13.4361
 11
8.82394
 21
-13.3689
  0
LINE
  8
0
 10
8.82394
 20
-13.3689
 11
8.77885
 21
-13.2649
  0
LINE
  8
0
 10
8.77885
 20
-13.2649
 11
8.48915
 21
-12.3177
  0
LINE
  8
0
 10
8.48915
 20
-12.3177
 11
8.33557
 21
-11.8853
  0
LINE
  8
0
 10
8.33557
 20
-11.8853
 11
8.1207
 21
-11.378
  0
LINE
  8
0
 10
8.1207
 20
-11.378
 11
8.01686
 21
-11.166
  0
LINE
  8
0
 10
8.01686
 20
-11.166
 11
7.89735
 21
-10.9539
  0
LINE
  8
0
 10
7.89735
 20
-10.9539
 11
7.76218
 21
-10.7417
  0
LINE
  8
0
 10
7.76218
 20
-10.7417
 11
7.61134
 21
-10.5295
  0
LINE
  8
0
 10
7.61134
 20
-10.5295
 11
7.44482
 21
-10.3172
  0
LINE
  8
0
 10
7.44482
 20
-10.3172
 11
6.69109
 21
-9.44064
  0
LINE
  8
0
 10
6.69109
 20
-9.44064
 11
5.73903
 21
-8.37418
  0
LINE
  8
0
 10
5.73903
 20
-8.37418
 11
4.22511
 21
-6.7459
  0
LINE
  8
0
 10
4.22511
 20
-6.7459
 11
0.644119
 21
-3.00819
  0
LINE
  8
0
 10
0.644119
 20
-3.00819
 11
-0.134308
 21
-2.173
  0
LINE
  8
0
 10
-0.134308
 20
-2.173
 11
-0.239639
 21
-3.76234
  0
LINE
  8
0
 10
-0.239639
 20
-3.76234
 11
-0.337662
 21
-6.05527
  0
LINE
  8
0
 10
-0.337662
 20
-6.05527
 11
-0.400192
 21
-10.9552
  0
LINE
  8
0
 10
-0.400192
 20
-10.9552
 11
-0.336304
 21
-13.079
  0
LINE
  8
0
 10
-0.336304
 20
-13.079
 11
-0.343521
 21
-13.2017
  0
LINE
  8
0
 10
-0.343521
 20
-13.2017
 11
-0.37558
 21
-13.3685
  0
LINE
  8
0
 10
-0.37558
 20
-13.3685
 11
-0.439377
 21
-13.5532
  0
LINE
  8
0
 10
-0.439377
 20
-13.5532
 11
-0.475449
 21
-13.6198
  0
LINE
  8
0
 10
-0.475449
 20
-13.6198
 11
-0.521088
 21
-13.6793
  0
LINE
  8
0
 10
-0.521088
 20
-13.6793
 11
-0.576263
 21
-13.7319
  0
LINE
  8
0
 10
-0.576263
 20
-13.7319
 11
-0.640991
 21
-13.7774
  0
LINE
  8
0
 10
-0.640991
 20
-13.7774
 11
-0.715271
 21
-13.8159
  0
LINE
  8
0
 10
-0.715271
 20
-13.8159
 11
-0.817017
 21
-13.8528
  0
LINE
  8
0
 10
-0.817017
 20
-13.8528
 11
-2.03406
 21
-14.1476
  0
LINE
  8
0
 10
-2.03406
 20
-14.1476
 11
-2.31117
 21
-14.1843
  0
LINE
  8
0
 10
-2.31117
 20
-14.1843
 11
-2.56224
 21
-14.1906
  0
LINE
  8
0
 10
-2.56224
 20
-14.1906
 11
-2.6479
 21
-14.183
  0
ENDSEC
  0
SECTION
  2
OBJECTS
  0
DICTIONARY
  0
ENDSEC
  0
EOF
