  0
SECTION
  2
BLOCKS
  0
ENDSEC
  0
SECTION
  2
ENTITIES
  0
LINE
  8
0
 10
0.981644
 20
-39.9879
 11
1.96269
 21
-39.9518
  0
LINE
  8
0
 10
1.96269
 20
-39.9518
 11
2.94258
 21
-39.8916
  0
LINE
  8
0
 10
2.94258
 20
-39.8916
 11
3.92068
 21
-39.8074
  0
LINE
  8
0
 10
3.92068
 20
-39.8074
 11
4.89642
 21
-39.6992
  0
LINE
  8
0
 10
4.89642
 20
-39.6992
 11
5.86922
 21
-39.567
  0
LINE
  8
0
 10
5.86922
 20
-39.567
 11
6.83847
 21
-39.4111
  0
LINE
  8
0
 10
6.83847
 20
-39.4111
 11
7.8036
 21
-39.2314
  0
LINE
  8
0
 10
7.8036
 20
-39.2314
 11
8.76404
 21
-39.0281
  0
LINE
  8
0
 10
8.76404
 20
-39.0281
 11
9.71919
 21
-38.8012
  0
LINE
  8
0
 10
9.71919
 20
-38.8012
 11
10.6685
 21
-38.551
  0
LINE
  8
0
 10
10.6685
 20
-38.551
 11
11.6114
 21
-38.2776
  0
LINE
  8
0
 10
11.6114
 20
-38.2776
 11
12.5473
 21
-37.9811
  0
LINE
  8
0
 10
12.5473
 20
-37.9811
 11
13.4756
 21
-37.6618
  0
LINE
  8
0
 10
13.4756
 20
-37.6618
 11
14.3958
 21
-37.3197
  0
LINE
  8
0
 10
14.3958
 20
-37.3197
 11
15.3073
 21
-36.9552
  0
LINE
  8
0
 10
15.3073
 20
-36.9552
 11
16.2096
 21
-36.5684
  0
LINE
  8
0
 10
16.2096
 20
-36.5684
 11
17.1022
 21
-36.1596
  0
LINE
  8
0
 10
17.1022
 20
-36.1596
 11
17.9845
 21
-35.729
  0
LINE
  8
0
 10
17.9845
 20
-35.729
 11
18.8559
 21
-35.2768
  0
LINE
  8
0
 10
18.8559
 20
-35.2768
 11
19.7159
 21
-34.8035
  0
LINE
  8
0
 10
19.7159
 20
-34.8035
 11
20.5641
 21
-34.3091
  0
LINE
  8
0
 10
20.5641
 20
-34.3091
 11
21.3999
 21
-33.7941
  0
LINE
  8
0
 10
21.3999
 20
-33.7941
 11
22.2228
 21
-33.2588
  0
LINE
  8
0
 10
22.2228
 20
-33.2588
 11
23.0323
 21
-32.7034
  0
LINE
  8
0
 10
23.0323
 20
-32.7034
 11
23.828
 21
-32.1283
  0
LINE
  8
0
 10
23.828
 20
-32.1283
 11
24.6093
 21
-31.5338
  0
LINE
  8
0
 10
24.6093
 20
-31.5338
 11
25.3757
 21
-30.9204
  0
LINE
  8
0
 10
25.3757
 20
-30.9204
 11
26.1269
 21
-30.2883
  0
LINE
  8
0
 10
26.1269
 20
-30.2883
 11
26.8624
 21
-29.638
  0
LINE
  8
0
 10
26.8624
 20
-29.638
 11
27.5816
 21
-28.9699
  0
LINE
  8
0
 10
27.5816
 20
-28.9699
 11
28.2843
 21
-28.2843
  0
LINE
  8
0
 10
28.2843
 20
-28.2843
 11
28.9699
 21
-27.5816
  0
LINE
  8
0
 10
28.9699
 20
-27.5816
 11
29.638
 21
-26.8624
  0
LINE
  8
0
 10
29.638
 20
-26.8624
 11
30.2883
 21
-26.1269
  0
LINE
  8
0
 10
30.2883
 20
-26.1269
 11
30.9204
 21
-25.3757
  0
LINE
  8
0
 10
30.9204
 20
-25.3757
 11
31.5338
 21
-24.6093
  0
LINE
  8
0
 10
31.5338
 20
-24.6093
 11
32.1283
 21
-23.828
  0
LINE
  8
0
 10
32.1283
 20
-23.828
 11
32.7034
 21
-23.0323
  0
LINE
  8
0
 10
32.7034
 20
-23.0323
 11
33.2588
 21
-22.2228
  0
LINE
  8
0
 10
33.2588
 20
-22.2228
 11
33.7941
 21
-21.3999
  0
LINE
  8
0
 10
33.7941
 20
-21.3999
 11
34.3091
 21
-20.5641
  0
LINE
  8
0
 10
34.3091
 20
-20.5641
 11
34.8035
 21
-19.7159
  0
LINE
  8
0
 10
34.8035
 20
-19.7159
 11
35.2768
 21
-18.8559
  0
LINE
  8
0
 10
35.2768
 20
-18.8559
 11
35.729
 21
-17.9845
  0
LINE
  8
0
 10
35.729
 20
-17.9845
 11
36.1596
 21
-17.1022
  0
LINE
  8
0
 10
36.1596
 20
-17.1022
 11
36.5684
 21
-16.2096
  0
LINE
  8
0
 10
36.5684
 20
-16.2096
 11
36.9552
 21
-15.3073
  0
LINE
  8
0
 10
36.9552
 20
-15.3073
 11
37.3197
 21
-14.3958
  0
LINE
  8
0
 10
37.3197
 20
-14.3958
 11
37.6618
 21
-13.4756
  0
LINE
  8
0
 10
37.6618
 20
-13.4756
 11
37.9811
 21
-12.5473
  0
LINE
  8
0
 10
37.9811
 20
-12.5473
 11
38.2776
 21
-11.6114
  0
LINE
  8
0
 10
38.2776
 20
-11.6114
 11
38.551
 21
-10.6685
  0
LINE
  8
0
 10
38.551
 20
-10.6685
 11
38.8012
 21
-9.71919
  0
LINE
  8
0
 10
38.8012
 20
-9.71919
 11
39.0281
 21
-8.76404
  0
LINE
  8
0
 10
39.0281
 20
-8.76404
 11
39.2314
 21
-7.8036
  0
LINE
  8
0
 10
39.2314
 20
-7.8036
 11
39.4111
 21
-6.83847
  0
LINE
  8
0
 10
39.4111
 20
-6.83847
 11
39.567
 21
-5.86922
  0
LINE
  8
0
 10
39.567
 20
-5.86922
 11
39.6992
 21
-4.89642
  0
LINE
  8
0
 10
39.6992
 20
-4.89642
 11
39.8074
 21
-3.92068
  0
LINE
  8
0
 10
39.8074
 20
-3.92068
 11
39.8916
 21
-2.94258
  0
LINE
  8
0
 10
39.8916
 20
-2.94258
 11
39.9518
 21
-1.96269
  0
LINE
  8
0
 10
39.9518
 20
-1.96269
 11
39.9879
 21
-0.981644
  0
LINE
  8
0
 10
39.9879
 20
-0.981644
 11
40
 21
0
  0
LINE
  8
0
 10
40
 20
0
 11
39.9879
 21
0.981644
  0
LINE
  8
0
 10
39.9879
 20
0.981644
 11
39.9518
 21
1.96269
  0
LINE
  8
0
 10
39.9518
 20
1.96269
 11
39.8916
 21
2.94258
  0
LINE
  8
0
 10
39.8916
 20
2.94258
 11
39.8074
 21
3.92068
  0
LINE
  8
0
 10
39.8074
 20
3.92068
 11
39.6992
 21
4.89642
  0
LINE
  8
0
 10
39.6992
 20
4.89642
 11
39.567
 21
5.86922
  0
LINE
  8
0
 10
39.567
 20
5.86922
 11
39.4111
 21
6.83847
  0
LINE
  8
0
 10
39.4111
 20
6.83847
 11
39.2314
 21
7.8036
  0
LINE
  8
0
 10
39.2314
 20
7.8036
 11
39.0281
 21
8.76404
  0
LINE
  8
0
 10
39.0281
 20
8.76404
 11
38.8012
 21
9.71919
  0
LINE
  8
0
 10
38.8012
 20
9.71919
 11
38.551
 21
10.6685
  0
LINE
  8
0
 10
38.551
 20
10.6685
 11
38.2776
 21
11.6114
  0
LINE
  8
0
 10
38.2776
 20
11.6114
 11
37.9811
 21
12.5473
  0
LINE
  8
0
 10
37.9811
 20
12.5473
 11
37.6618
 21
13.4756
  0
LINE
  8
0
 10
37.6618
 20
13.4756
 11
37.3197
 21
14.3958
  0
LINE
  8
0
 10
37.3197
 20
14.3958
 11
36.9552
 21
15.3073
  0
LINE
  8
0
 10
36.9552
 20
15.3073
 11
36.5684
 21
16.2096
  0
LINE
  8
0
 10
36.5684
 20
16.2096
 11
36.1596
 21
17.1022
  0
LINE
  8
0
 10
36.1596
 20
17.1022
 11
35.729
 21
17.9845
  0
LINE
  8
0
 10
35.729
 20
17.9845
 11
35.2768
 21
18.8559
  0
LINE
  8
0
 10
35.2768
 20
18.8559
 11
34.8035
 21
19.7159
  0
LINE
  8
0
 10
34.8035
 20
19.7159
 11
34.3091
 21
20.5641
  0
LINE
  8
0
 10
34.3091
 20
20.5641
 11
33.7941
 21
21.3999
  0
LINE
  8
0
 10
33.7941
 20
21.3999
 11
33.2588
 21
22.2228
  0
LINE
  8
0
 10
33.2588
 20
22.2228
 11
32.7034
 21
23.0323
  0
LINE
  8
0
 10
32.7034
 20
23.0323
 11
32.1283
 21
23.828
  0
LINE
  8
0
 10
32.1283
 20
23.828
 11
31.5338
 21
24.6093
  0
LINE
  8
0
 10
31.5338
 20
24.6093
 11
30.9204
 21
25.3757
  0
LINE
  8
0
 10
30.9204
 20
25.3757
 11
30.2883
 21
26.1269
  0
LINE
  8
0
 10
30.2883
 20
26.1269
 11
29.638
 21
26.8624
  0
LINE
  8
0
 10
29.638
 20
26.8624
 11
28.9699
 21
27.5816
  0
LINE
  8
0
 10
28.9699
 20
27.5816
 11
28.2843
 21
28.2843
  0
LINE
  8
0
 10
28.2843
 20
28.2843
 11
27.5816
 21
28.9699
  0
LINE
  8
0
 10
27.5816
 20
28.9699
 11
26.8624
 21
29.638
  0
LINE
  8
0
 10
26.8624
 20
29.638
 11
26.1269
 21
30.2883
  0
LINE
  8
0
 10
26.1269
 20
30.2883
 11
25.3757
 21
30.9204
  0
LINE
  8
0
 10
25.3757
 20
30.9204
 11
24.6093
 21
31.5338
  0
LINE
  8
0
 10
24.6093
 20
31.5338
 11
23.828
 21
32.1283
  0
LINE
  8
0
 10
23.828
 20
32.1283
 11
23.0323
 21
32.7034
  0
LINE
  8
0
 10
23.0323
 20
32.7034
 11
22.2228
 21
33.2588
  0
LINE
  8
0
 10
22.2228
 20
33.2588
 11
21.3999
 21
33.7941
  0
LINE
  8
0
 10
21.3999
 20
33.7941
 11
20.5641
 21
34.3091
  0
LINE
  8
0
 10
20.5641
 20
34.3091
 11
19.7159
 21
34.8035
  0
LINE
  8
0
 10
19.7159
 20
34.8035
 11
18.8559
 21
35.2768
  0
LINE
  8
0
 10
18.8559
 20
35.2768
 11
17.9845
 21
35.729
  0
LINE
  8
0
 10
17.9845
 20
35.729
 11
17.1022
 21
36.1596
  0
LINE
  8
0
 10
17.1022
 20
36.1596
 11
16.2096
 21
36.5684
  0
LINE
  8
0
 10
16.2096
 20
36.5684
 11
15.3073
 21
36.9552
  0
LINE
  8
0
 10
15.3073
 20
36.9552
 11
14.3958
 21
37.3197
  0
LINE
  8
0
 10
14.3958
 20
37.3197
 11
13.4756
 21
37.6618
  0
LINE
  8
0
 10
13.4756
 20
37.6618
 11
12.5473
 21
37.9811
  0
LINE
  8
0
 10
12.5473
 20
37.9811
 11
11.6114
 21
38.2776
  0
LINE
  8
0
 10
11.6114
 20
38.2776
 11
10.6685
 21
38.551
  0
LINE
  8
0
 10
10.6685
 20
38.551
 11
9.71919
 21
38.8012
  0
LINE
  8
0
 10
9.71919
 20
38.8012
 11
8.76404
 21
39.0281
  0
LINE
  8
0
 10
8.76404
 20
39.0281
 11
7.8036
 21
39.2314
  0
LINE
  8
0
 10
7.8036
 20
39.2314
 11
6.83847
 21
39.4111
  0
LINE
  8
0
 10
6.83847
 20
39.4111
 11
5.86922
 21
39.567
  0
LINE
  8
0
 10
5.86922
 20
39.567
 11
4.89642
 21
39.6992
  0
LINE
  8
0
 10
4.89642
 20
39.6992
 11
3.92068
 21
39.8074
  0
LINE
  8
0
 10
3.92068
 20
39.8074
 11
2.94258
 21
39.8916
  0
LINE
  8
0
 10
2.94258
 20
39.8916
 11
1.96269
 21
39.9518
  0
LINE
  8
0
 10
1.96269
 20
39.9518
 11
0.981644
 21
39.9879
  0
LINE
  8
0
 10
0.981644
 20
39.9879
 11
0
 21
40
  0
LINE
  8
0
 10
0
 20
40
 11
-0.981644
 21
39.9879
  0
LINE
  8
0
 10
-0.981644
 20
39.9879
 11
-1.96269
 21
39.9518
  0
LINE
  8
0
 10
-1.96269
 20
39.9518
 11
-2.94258
 21
39.8916
  0
LINE
  8
0
 10
-2.94258
 20
39.8916
 11
-3.92068
 21
39.8074
  0
LINE
  8
0
 10
-3.92068
 20
39.8074
 11
-4.89642
 21
39.6992
  0
LINE
  8
0
 10
-4.89642
 20
39.6992
 11
-5.86922
 21
39.567
  0
LINE
  8
0
 10
-5.86922
 20
39.567
 11
-6.83847
 21
39.4111
  0
LINE
  8
0
 10
-6.83847
 20
39.4111
 11
-7.8036
 21
39.2314
  0
LINE
  8
0
 10
-7.8036
 20
39.2314
 11
-8.76404
 21
39.0281
  0
LINE
  8
0
 10
-8.76404
 20
39.0281
 11
-9.71919
 21
38.8012
  0
LINE
  8
0
 10
-9.71919
 20
38.8012
 11
-10.6685
 21
38.551
  0
LINE
  8
0
 10
-10.6685
 20
38.551
 11
-11.6114
 21
38.2776
  0
LINE
  8
0
 10
-11.6114
 20
38.2776
 11
-12.5473
 21
37.9811
  0
LINE
  8
0
 10
-12.5473
 20
37.9811
 11
-13.4756
 21
37.6618
  0
LINE
  8
0
 10
-13.4756
 20
37.6618
 11
-14.3958
 21
37.3197
  0
LINE
  8
0
 10
-14.3958
 20
37.3197
 11
-15.3073
 21
36.9552
  0
LINE
  8
0
 10
-15.3073
 20
36.9552
 11
-16.2096
 21
36.5684
  0
LINE
  8
0
 10
-16.2096
 20
36.5684
 11
-17.1022
 21
36.1596
  0
LINE
  8
0
 10
-17.1022
 20
36.1596
 11
-17.9845
 21
35.729
  0
LINE
  8
0
 10
-17.9845
 20
35.729
 11
-18.8559
 21
35.2768
  0
LINE
  8
0
 10
-18.8559
 20
35.2768
 11
-19.7159
 21
34.8035
  0
LINE
  8
0
 10
-19.7159
 20
34.8035
 11
-20.5641
 21
34.3091
  0
LINE
  8
0
 10
-20.5641
 20
34.3091
 11
-21.3999
 21
33.7941
  0
LINE
  8
0
 10
-21.3999
 20
33.7941
 11
-22.2228
 21
33.2588
  0
LINE
  8
0
 10
-22.2228
 20
33.2588
 11
-23.0323
 21
32.7034
  0
LINE
  8
0
 10
-23.0323
 20
32.7034
 11
-23.828
 21
32.1283
  0
LINE
  8
0
 10
-23.828
 20
32.1283
 11
-24.6093
 21
31.5338
  0
LINE
  8
0
 10
-24.6093
 20
31.5338
 11
-25.3757
 21
30.9204
  0
LINE
  8
0
 10
-25.3757
 20
30.9204
 11
-26.1269
 21
30.2883
  0
LINE
  8
0
 10
-26.1269
 20
30.2883
 11
-26.8624
 21
29.638
  0
LINE
  8
0
 10
-26.8624
 20
29.638
 11
-27.5816
 21
28.9699
  0
LINE
  8
0
 10
-27.5816
 20
28.9699
 11
-28.2843
 21
28.2843
  0
LINE
  8
0
 10
-28.2843
 20
28.2843
 11
-28.9699
 21
27.5816
  0
LINE
  8
0
 10
-28.9699
 20
27.5816
 11
-29.638
 21
26.8624
  0
LINE
  8
0
 10
-29.638
 20
26.8624
 11
-30.2883
 21
26.1269
  0
LINE
  8
0
 10
-30.2883
 20
26.1269
 11
-30.9204
 21
25.3757
  0
LINE
  8
0
 10
-30.9204
 20
25.3757
 11
-31.5338
 21
24.6093
  0
LINE
  8
0
 10
-31.5338
 20
24.6093
 11
-32.1283
 21
23.828
  0
LINE
  8
0
 10
-32.1283
 20
23.828
 11
-32.7034
 21
23.0323
  0
LINE
  8
0
 10
-32.7034
 20
23.0323
 11
-33.2588
 21
22.2228
  0
LINE
  8
0
 10
-33.2588
 20
22.2228
 11
-33.7941
 21
21.3999
  0
LINE
  8
0
 10
-33.7941
 20
21.3999
 11
-34.3091
 21
20.5641
  0
LINE
  8
0
 10
-34.3091
 20
20.5641
 11
-34.8035
 21
19.7159
  0
LINE
  8
0
 10
-34.8035
 20
19.7159
 11
-35.2768
 21
18.8559
  0
LINE
  8
0
 10
-35.2768
 20
18.8559
 11
-35.729
 21
17.9845
  0
LINE
  8
0
 10
-35.729
 20
17.9845
 11
-36.1596
 21
17.1022
  0
LINE
  8
0
 10
-36.1596
 20
17.1022
 11
-36.5684
 21
16.2096
  0
LINE
  8
0
 10
-36.5684
 20
16.2096
 11
-36.9552
 21
15.3073
  0
LINE
  8
0
 10
-36.9552
 20
15.3073
 11
-37.3197
 21
14.3958
  0
LINE
  8
0
 10
-37.3197
 20
14.3958
 11
-37.6618
 21
13.4756
  0
LINE
  8
0
 10
-37.6618
 20
13.4756
 11
-37.9811
 21
12.5473
  0
LINE
  8
0
 10
-37.9811
 20
12.5473
 11
-38.2776
 21
11.6114
  0
LINE
  8
0
 10
-38.2776
 20
11.6114
 11
-38.551
 21
10.6685
  0
LINE
  8
0
 10
-38.551
 20
10.6685
 11
-38.8012
 21
9.71919
  0
LINE
  8
0
 10
-38.8012
 20
9.71919
 11
-39.0281
 21
8.76404
  0
LINE
  8
0
 10
-39.0281
 20
8.76404
 11
-39.2314
 21
7.8036
  0
LINE
  8
0
 10
-39.2314
 20
7.8036
 11
-39.4111
 21
6.83847
  0
LINE
  8
0
 10
-39.4111
 20
6.83847
 11
-39.567
 21
5.86922
  0
LINE
  8
0
 10
-39.567
 20
5.86922
 11
-39.6992
 21
4.89642
  0
LINE
  8
0
 10
-39.6992
 20
4.89642
 11
-39.8074
 21
3.92068
  0
LINE
  8
0
 10
-39.8074
 20
3.92068
 11
-39.8916
 21
2.94258
  0
LINE
  8
0
 10
-39.8916
 20
2.94258
 11
-39.9518
 21
1.96269
  0
LINE
  8
0
 10
-39.9518
 20
1.96269
 11
-39.9879
 21
0.981644
  0
LINE
  8
0
 10
-39.9879
 20
0.981644
 11
-40
 21
0
  0
LINE
  8
0
 10
-40
 20
0
 11
-39.9879
 21
-0.981644
  0
LINE
  8
0
 10
-39.9879
 20
-0.981644
 11
-39.9518
 21
-1.96269
  0
LINE
  8
0
 10
-39.9518
 20
-1.96269
 11
-39.8916
 21
-2.94258
  0
LINE
  8
0
 10
-39.8916
 20
-2.94258
 11
-39.8074
 21
-3.92068
  0
LINE
  8
0
 10
-39.8074
 20
-3.92068
 11
-39.6992
 21
-4.89642
  0
LINE
  8
0
 10
-39.6992
 20
-4.89642
 11
-39.567
 21
-5.86922
  0
LINE
  8
0
 10
-39.567
 20
-5.86922
 11
-39.4111
 21
-6.83847
  0
LINE
  8
0
 10
-39.4111
 20
-6.83847
 11
-39.2314
 21
-7.8036
  0
LINE
  8
0
 10
-39.2314
 20
-7.8036
 11
-39.0281
 21
-8.76404
  0
LINE
  8
0
 10
-39.0281
 20
-8.76404
 11
-38.8012
 21
-9.71919
  0
LINE
  8
0
 10
-38.8012
 20
-9.71919
 11
-38.551
 21
-10.6685
  0
LINE
  8
0
 10
-38.551
 20
-10.6685
 11
-38.2776
 21
-11.6114
  0
LINE
  8
0
 10
-38.2776
 20
-11.6114
 11
-37.9811
 21
-12.5473
  0
LINE
  8
0
 10
-37.9811
 20
-12.5473
 11
-37.6618
 21
-13.4756
  0
LINE
  8
0
 10
-37.6618
 20
-13.4756
 11
-37.3197
 21
-14.3958
  0
LINE
  8
0
 10
-37.3197
 20
-14.3958
 11
-36.9552
 21
-15.3073
  0
LINE
  8
0
 10
-36.9552
 20
-15.3073
 11
-36.5684
 21
-16.2096
  0
LINE
  8
0
 10
-36.5684
 20
-16.2096
 11
-36.1596
 21
-17.1022
  0
LINE
  8
0
 10
-36.1596
 20
-17.1022
 11
-35.729
 21
-17.9845
  0
LINE
  8
0
 10
-35.729
 20
-17.9845
 11
-35.2768
 21
-18.8559
  0
LINE
  8
0
 10
-35.2768
 20
-18.8559
 11
-34.8035
 21
-19.7159
  0
LINE
  8
0
 10
-34.8035
 20
-19.7159
 11
-34.3091
 21
-20.5641
  0
LINE
  8
0
 10
-34.3091
 20
-20.5641
 11
-33.7941
 21
-21.3999
  0
LINE
  8
0
 10
-33.7941
 20
-21.3999
 11
-33.2588
 21
-22.2228
  0
LINE
  8
0
 10
-33.2588
 20
-22.2228
 11
-32.7034
 21
-23.0323
  0
LINE
  8
0
 10
-32.7034
 20
-23.0323
 11
-32.1283
 21
-23.828
  0
LINE
  8
0
 10
-32.1283
 20
-23.828
 11
-31.5338
 21
-24.6093
  0
LINE
  8
0
 10
-31.5338
 20
-24.6093
 11
-30.9204
 21
-25.3757
  0
LINE
  8
0
 10
-30.9204
 20
-25.3757
 11
-30.2883
 21
-26.1269
  0
LINE
  8
0
 10
-30.2883
 20
-26.1269
 11
-29.638
 21
-26.8624
  0
LINE
  8
0
 10
-29.638
 20
-26.8624
 11
-28.9699
 21
-27.5816
  0
LINE
  8
0
 10
-28.9699
 20
-27.5816
 11
-28.2843
 21
-28.2843
  0
LINE
  8
0
 10
-28.2843
 20
-28.2843
 11
-27.5816
 21
-28.9699
  0
LINE
  8
0
 10
-27.5816
 20
-28.9699
 11
-26.8624
 21
-29.638
  0
LINE
  8
0
 10
-26.8624
 20
-29.638
 11
-26.1269
 21
-30.2883
  0
LINE
  8
0
 10
-26.1269
 20
-30.2883
 11
-25.3757
 21
-30.9204
  0
LINE
  8
0
 10
-25.3757
 20
-30.9204
 11
-24.6093
 21
-31.5338
  0
LINE
  8
0
 10
-24.6093
 20
-31.5338
 11
-23.828
 21
-32.1283
  0
LINE
  8
0
 10
-23.828
 20
-32.1283
 11
-23.0323
 21
-32.7034
  0
LINE
  8
0
 10
-23.0323
 20
-32.7034
 11
-22.2228
 21
-33.2588
  0
LINE
  8
0
 10
-22.2228
 20
-33.2588
 11
-21.3999
 21
-33.7941
  0
LINE
  8
0
 10
-21.3999
 20
-33.7941
 11
-20.5641
 21
-34.3091
  0
LINE
  8
0
 10
-20.5641
 20
-34.3091
 11
-19.7159
 21
-34.8035
  0
LINE
  8
0
 10
-19.7159
 20
-34.8035
 11
-18.8559
 21
-35.2768
  0
LINE
  8
0
 10
-18.8559
 20
-35.2768
 11
-17.9845
 21
-35.729
  0
LINE
  8
0
 10
-17.9845
 20
-35.729
 11
-17.1022
 21
-36.1596
  0
LINE
  8
0
 10
-17.1022
 20
-36.1596
 11
-16.2096
 21
-36.5684
  0
LINE
  8
0
 10
-16.2096
 20
-36.5684
 11
-15.3073
 21
-36.9552
  0
LINE
  8
0
 10
-15.3073
 20
-36.9552
 11
-14.3958
 21
-37.3197
  0
LINE
  8
0
 10
-14.3958
 20
-37.3197
 11
-13.4756
 21
-37.6618
  0
LINE
  8
0
 10
-13.4756
 20
-37.6618
 11
-12.5473
 21
-37.9811
  0
LINE
  8
0
 10
-12.5473
 20
-37.9811
 11
-11.6114
 21
-38.2776
  0
LINE
  8
0
 10
-11.6114
 20
-38.2776
 11
-10.6685
 21
-38.551
  0
LINE
  8
0
 10
-10.6685
 20
-38.551
 11
-9.71919
 21
-38.8012
  0
LINE
  8
0
 10
-9.71919
 20
-38.8012
 11
-8.76404
 21
-39.0281
  0
LINE
  8
0
 10
-8.76404
 20
-39.0281
 11
-7.8036
 21
-39.2314
  0
LINE
  8
0
 10
-7.8036
 20
-39.2314
 11
-6.83847
 21
-39.4111
  0
LINE
  8
0
 10
-6.83847
 20
-39.4111
 11
-5.86922
 21
-39.567
  0
LINE
  8
0
 10
-5.86922
 20
-39.567
 11
-4.89642
 21
-39.6992
  0
LINE
  8
0
 10
-4.89642
 20
-39.6992
 11
-3.92068
 21
-39.8074
  0
LINE
  8
0
 10
-3.92068
 20
-39.8074
 11
-2.94258
 21
-39.8916
  0
LINE
  8
0
 10
-2.94258
 20
-39.8916
 11
-1.96269
 21
-39.9518
  0
LINE
  8
0
 10
-1.96269
 20
-39.9518
 11
-0.981644
 21
-39.9879
  0
LINE
  8
0
 10
-0.981644
 20
-39.9879
 11
0
 21
-40
  0
LINE
  8
0
 10
0
 20
-40
 11
0.981644
 21
-39.9879
  0
LINE
  8
0
 10
-3.41719
 20
5.00513
 11
-3.83414
 21
5.02048
  0
LINE
  8
0
 10
-3.83414
 20
5.02048
 11
-4.2506
 21
5.04607
  0
LINE
  8
0
 10
-4.2506
 20
5.04607
 11
-4.66629
 21
5.08186
  0
LINE
  8
0
 10
-4.66629
 20
5.08186
 11
-5.08098
 21
5.12785
  0
LINE
  8
0
 10
-5.08098
 20
5.12785
 11
-5.49442
 21
5.18401
  0
LINE
  8
0
 10
-5.49442
 20
5.18401
 11
-5.90634
 21
5.25029
  0
LINE
  8
0
 10
-5.90634
 20
5.25029
 11
-6.31653
 21
5.32666
  0
LINE
  8
0
 10
-6.31653
 20
5.32666
 11
-6.72472
 21
5.41307
  0
LINE
  8
0
 10
-6.72472
 20
5.41307
 11
-7.13066
 21
5.50948
  0
LINE
  8
0
 10
-7.13066
 20
5.50948
 11
-7.5341
 21
5.61581
  0
LINE
  8
0
 10
-7.5341
 20
5.61581
 11
-7.93483
 21
5.73203
  0
LINE
  8
0
 10
-7.93483
 20
5.73203
 11
-8.33258
 21
5.85803
  0
LINE
  8
0
 10
-8.33258
 20
5.85803
 11
-8.72713
 21
5.99376
  0
LINE
  8
0
 10
-8.72713
 20
5.99376
 11
-9.11821
 21
6.13913
  0
LINE
  8
0
 10
-9.11821
 20
6.13913
 11
-9.50562
 21
6.29405
  0
LINE
  8
0
 10
-9.50562
 20
6.29405
 11
-9.8891
 21
6.45844
  0
LINE
  8
0
 10
-9.8891
 20
6.45844
 11
-10.2684
 21
6.63219
  0
LINE
  8
0
 10
-10.2684
 20
6.63219
 11
-10.6434
 21
6.8152
  0
LINE
  8
0
 10
-10.6434
 20
6.8152
 11
-11.0137
 21
7.00734
  0
LINE
  8
0
 10
-11.0137
 20
7.00734
 11
-11.3793
 21
7.20853
  0
LINE
  8
0
 10
-11.3793
 20
7.20853
 11
-11.7397
 21
7.41862
  0
LINE
  8
0
 10
-11.7397
 20
7.41862
 11
-12.095
 21
7.6375
  0
LINE
  8
0
 10
-12.095
 20
7.6375
 11
-12.4447
 21
7.86502
  0
LINE
  8
0
 10
-12.4447
 20
7.86502
 11
-12.7887
 21
8.10106
  0
LINE
  8
0
 10
-12.7887
 20
8.10106
 11
-13.1269
 21
8.34547
  0
LINE
  8
0
 10
-13.1269
 20
8.34547
 11
-13.4589
 21
8.59811
  0
LINE
  8
0
 10
-13.4589
 20
8.59811
 11
-13.7847
 21
8.85883
  0
LINE
  8
0
 10
-13.7847
 20
8.85883
 11
-14.1039
 21
9.12746
  0
LINE
  8
0
 10
-14.1039
 20
9.12746
 11
-14.4165
 21
9.40384
  0
LINE
  8
0
 10
-14.4165
 20
9.40384
 11
-14.7222
 21
9.68781
  0
LINE
  8
0
 10
-14.7222
 20
9.68781
 11
-15.0208
 21
9.97919
  0
LINE
  8
0
 10
-15.0208
 20
9.97919
 11
-15.3122
 21
10.2778
  0
LINE
  8
0
 10
-15.3122
 20
10.2778
 11
-15.5962
 21
10.5835
  0
LINE
  8
0
 10
-15.5962
 20
10.5835
 11
-15.8725
 21
10.8961
  0
LINE
  8
0
 10
-15.8725
 20
10.8961
 11
-16.1412
 21
11.2153
  0
LINE
  8
0
 10
-16.1412
 20
11.2153
 11
-16.4019
 21
11.5411
  0
LINE
  8
0
 10
-16.4019
 20
11.5411
 11
-16.6545
 21
11.8731
  0
LINE
  8
0
 10
-16.6545
 20
11.8731
 11
-16.8989
 21
12.2113
  0
LINE
  8
0
 10
-16.8989
 20
12.2113
 11
-17.135
 21
12.5553
  0
LINE
  8
0
 10
-17.135
 20
12.5553
 11
-17.3625
 21
12.905
  0
LINE
  8
0
 10
-17.3625
 20
12.905
 11
-17.5814
 21
13.2603
  0
LINE
  8
0
 10
-17.5814
 20
13.2603
 11
-17.7915
 21
13.6207
  0
LINE
  8
0
 10
-17.7915
 20
13.6207
 11
-17.9927
 21
13.9863
  0
LINE
  8
0
 10
-17.9927
 20
13.9863
 11
-18.1848
 21
14.3566
  0
LINE
  8
0
 10
-18.1848
 20
14.3566
 11
-18.3678
 21
14.7316
  0
LINE
  8
0
 10
-18.3678
 20
14.7316
 11
-18.5416
 21
15.1109
  0
LINE
  8
0
 10
-18.5416
 20
15.1109
 11
-18.7059
 21
15.4944
  0
LINE
  8
0
 10
-18.7059
 20
15.4944
 11
-18.8609
 21
15.8818
  0
LINE
  8
0
 10
-18.8609
 20
15.8818
 11
-19.0062
 21
16.2729
  0
LINE
  8
0
 10
-19.0062
 20
16.2729
 11
-19.142
 21
16.6674
  0
LINE
  8
0
 10
-19.142
 20
16.6674
 11
-19.268
 21
17.0652
  0
LINE
  8
0
 10
-19.268
 20
17.0652
 11
-19.3842
 21
17.4659
  0
LINE
  8
0
 10
-19.3842
 20
17.4659
 11
-19.4905
 21
17.8693
  0
LINE
  8
0
 10
-19.4905
 20
17.8693
 11
-19.5869
 21
18.2753
  0
LINE
  8
0
 10
-19.5869
 20
18.2753
 11
-19.6733
 21
18.6835
  0
LINE
  8
0
 10
-19.6733
 20
18.6835
 11
-19.7497
 21
19.0937
  0
LINE
  8
0
 10
-19.7497
 20
19.0937
 11
-19.816
 21
19.5056
  0
LINE
  8
0
 10
-19.816
 20
19.5056
 11
-19.8721
 21
19.919
  0
LINE
  8
0
 10
-19.8721
 20
19.919
 11
-19.9181
 21
20.3337
  0
LINE
  8
0
 10
-19.9181
 20
20.3337
 11
-19.9539
 21
20.7494
  0
LINE
  8
0
 10
-19.9539
 20
20.7494
 11
-19.9795
 21
21.1659
  0
LINE
  8
0
 10
-19.9795
 20
21.1659
 11
-19.9949
 21
21.5828
  0
LINE
  8
0
 10
-19.9949
 20
21.5828
 11
-20
 21
22
  0
LINE
  8
0
 10
-20
 20
22
 11
-19.9949
 21
22.4172
  0
LINE
  8
0
 10
-19.9949
 20
22.4172
 11
-19.9795
 21
22.8341
  0
LINE
  8
0
 10
-19.9795
 20
22.8341
 11
-19.9539
 21
23.2506
  0
LINE
  8
0
 10
-19.9539
 20
23.2506
 11
-19.9181
 21
23.6663
  0
LINE
  8
0
 10
-19.9181
 20
23.6663
 11
-19.8721
 21
24.081
  0
LINE
  8
0
 10
-19.8721
 20
24.081
 11
-19.816
 21
24.4944
  0
LINE
  8
0
 10
-19.816
 20
24.4944
 11
-19.7497
 21
24.9063
  0
LINE
  8
0
 10
-19.7497
 20
24.9063
 11
-19.6733
 21
25.3165
  0
LINE
  8
0
 10
-19.6733
 20
25.3165
 11
-19.5869
 21
25.7247
  0
LINE
  8
0
 10
-19.5869
 20
25.7247
 11
-19.4905
 21
26.1307
  0
LINE
  8
0
 10
-19.4905
 20
26.1307
 11
-19.3842
 21
26.5341
  0
LINE
  8
0
 10
-19.3842
 20
26.5341
 11
-19.268
 21
26.9348
  0
LINE
  8
0
 10
-19.268
 20
26.9348
 11
-19.142
 21
27.3326
  0
LINE
  8
0
 10
-19.142
 20
27.3326
 11
-19.0062
 21
27.7271
  0
LINE
  8
0
 10
-19.0062
 20
27.7271
 11
-18.8609
 21
28.1182
  0
LINE
  8
0
 10
-18.8609
 20
28.1182
 11
-18.7059
 21
28.5056
  0
LINE
  8
0
 10
-18.7059
 20
28.5056
 11
-18.5416
 21
28.8891
  0
LINE
  8
0
 10
-18.5416
 20
28.8891
 11
-18.3678
 21
29.2684
  0
LINE
  8
0
 10
-18.3678
 20
29.2684
 11
-18.1848
 21
29.6434
  0
LINE
  8
0
 10
-18.1848
 20
29.6434
 11
-17.9927
 21
30.0137
  0
LINE
  8
0
 10
-17.9927
 20
30.0137
 11
-17.7915
 21
30.3793
  0
LINE
  8
0
 10
-17.7915
 20
30.3793
 11
-17.5814
 21
30.7397
  0
LINE
  8
0
 10
-17.5814
 20
30.7397
 11
-17.3625
 21
31.095
  0
LINE
  8
0
 10
-17.3625
 20
31.095
 11
-17.135
 21
31.4447
  0
LINE
  8
0
 10
-17.135
 20
31.4447
 11
-16.8989
 21
31.7887
  0
LINE
  8
0
 10
-16.8989
 20
31.7887
 11
-16.6545
 21
32.1269
  0
LINE
  8
0
 10
-16.6545
 20
32.1269
 11
-16.4019
 21
32.4589
  0
LINE
  8
0
 10
-16.4019
 20
32.4589
 11
-16.1412
 21
32.7847
  0
LINE
  8
0
 10
-16.1412
 20
32.7847
 11
-15.8725
 21
33.1039
  0
LINE
  8
0
 10
-15.8725
 20
33.1039
 11
-15.5962
 21
33.4165
  0
LINE
  8
0
 10
-15.5962
 20
33.4165
 11
-15.3122
 21
33.7222
  0
LINE
  8
0
 10
-15.3122
 20
33.7222
 11
-15.0208
 21
34.0208
  0
LINE
  8
0
 10
-15.0208
 20
34.0208
 11
-14.7222
 21
34.3122
  0
LINE
  8
0
 10
-14.7222
 20
34.3122
 11
-14.4165
 21
34.5962
  0
LINE
  8
0
 10
-14.4165
 20
34.5962
 11
-14.1039
 21
34.8725
  0
LINE
  8
0
 10
-14.1039
 20
34.8725
 11
-13.7847
 21
35.1412
  0
LINE
  8
0
 10
-13.7847
 20
35.1412
 11
-13.4265
 21
35.4265
  0
LINE
  8
0
 10
-13.4265
 20
35.4265
 11
-13.6545
 21
35.1269
  0
LINE
  8
0
 10
-13.6545
 20
35.1269
 11
-13.8989
 21
34.7887
  0
LINE
  8
0
 10
-13.8989
 20
34.7887
 11
-14.135
 21
34.4447
  0
LINE
  8
0
 10
-14.135
 20
34.4447
 11
-14.3625
 21
34.095
  0
LINE
  8
0
 10
-14.3625
 20
34.095
 11
-14.5814
 21
33.7397
  0
LINE
  8
0
 10
-14.5814
 20
33.7397
 11
-14.7915
 21
33.3793
  0
LINE
  8
0
 10
-14.7915
 20
33.3793
 11
-14.9927
 21
33.0137
  0
LINE
  8
0
 10
-14.9927
 20
33.0137
 11
-15.1848
 21
32.6434
  0
LINE
  8
0
 10
-15.1848
 20
32.6434
 11
-15.3678
 21
32.2684
  0
LINE
  8
0
 10
-15.3678
 20
32.2684
 11
-15.5416
 21
31.8891
  0
LINE
  8
0
 10
-15.5416
 20
31.8891
 11
-15.7059
 21
31.5056
  0
LINE
  8
0
 10
-15.7059
 20
31.5056
 11
-15.8609
 21
31.1182
  0
LINE
  8
0
 10
-15.8609
 20
31.1182
 11
-16.0062
 21
30.7271
  0
LINE
  8
0
 10
-16.0062
 20
30.7271
 11
-16.142
 21
30.3326
  0
LINE
  8
0
 10
-16.142
 20
30.3326
 11
-16.268
 21
29.9348
  0
LINE
  8
0
 10
-16.268
 20
29.9348
 11
-16.3842
 21
29.5341
  0
LINE
  8
0
 10
-16.3842
 20
29.5341
 11
-16.4905
 21
29.1307
  0
LINE
  8
0
 10
-16.4905
 20
29.1307
 11
-16.5869
 21
28.7247
  0
LINE
  8
0
 10
-16.5869
 20
28.7247
 11
-16.6733
 21
28.3165
  0
LINE
  8
0
 10
-16.6733
 20
28.3165
 11
-16.7497
 21
27.9063
  0
LINE
  8
0
 10
-16.7497
 20
27.9063
 11
-16.816
 21
27.4944
  0
LINE
  8
0
 10
-16.816
 20
27.4944
 11
-16.8721
 21
27.081
  0
LINE
  8
0
 10
-16.8721
 20
27.081
 11
-16.9181
 21
26.6663
  0
LINE
  8
0
 10
-16.9181
 20
26.6663
 11
-16.9539
 21
26.2506
  0
LINE
  8
0
 10
-16.9539
 20
26.2506
 11
-16.9795
 21
25.8341
  0
LINE
  8
0
 10
-16.9795
 20
25.8341
 11
-16.9949
 21
25.4172
  0
LINE
  8
0
 10
-16.9949
 20
25.4172
 11
-17
 21
25
  0
LINE
  8
0
 10
-17
 20
25
 11
-16.9949
 21
24.5828
  0
LINE
  8
0
 10
-16.9949
 20
24.5828
 11
-16.9795
 21
24.1658
  0
LINE
  8
0
 10
-16.9795
 20
24.1658
 11
-16.9539
 21
23.7494
  0
LINE
  8
0
 10
-16.9539
 20
23.7494
 11
-16.9181
 21
23.3337
  0
LINE
  8
0
 10
-16.9181
 20
23.3337
 11
-16.8721
 21
22.919
  0
LINE
  8
0
 10
-16.8721
 20
22.919
 11
-16.816
 21
22.5056
  0
LINE
  8
0
 10
-16.816
 20
22.5056
 11
-16.7497
 21
22.0936
  0
LINE
  8
0
 10
-16.7497
 20
22.0936
 11
-16.6733
 21
21.6835
  0
LINE
  8
0
 10
-16.6733
 20
21.6835
 11
-16.5869
 21
21.2753
  0
LINE
  8
0
 10
-16.5869
 20
21.2753
 11
-16.4905
 21
20.8693
  0
LINE
  8
0
 10
-16.4905
 20
20.8693
 11
-16.3842
 21
20.4659
  0
LINE
  8
0
 10
-16.3842
 20
20.4659
 11
-16.268
 21
20.0652
  0
LINE
  8
0
 10
-16.268
 20
20.0652
 11
-16.142
 21
19.6674
  0
LINE
  8
0
 10
-16.142
 20
19.6674
 11
-16.0062
 21
19.2729
  0
LINE
  8
0
 10
-16.0062
 20
19.2729
 11
-15.8609
 21
18.8818
  0
LINE
  8
0
 10
-15.8609
 20
18.8818
 11
-15.7059
 21
18.4944
  0
LINE
  8
0
 10
-15.7059
 20
18.4944
 11
-15.5416
 21
18.1109
  0
LINE
  8
0
 10
-15.5416
 20
18.1109
 11
-15.3678
 21
17.7316
  0
LINE
  8
0
 10
-15.3678
 20
17.7316
 11
-15.1848
 21
17.3566
  0
LINE
  8
0
 10
-15.1848
 20
17.3566
 11
-14.9927
 21
16.9863
  0
LINE
  8
0
 10
-14.9927
 20
16.9863
 11
-14.7915
 21
16.6207
  0
LINE
  8
0
 10
-14.7915
 20
16.6207
 11
-14.5814
 21
16.2603
  0
LINE
  8
0
 10
-14.5814
 20
16.2603
 11
-14.3625
 21
15.905
  0
LINE
  8
0
 10
-14.3625
 20
15.905
 11
-14.135
 21
15.5553
  0
LINE
  8
0
 10
-14.135
 20
15.5553
 11
-13.8989
 21
15.2113
  0
LINE
  8
0
 10
-13.8989
 20
15.2113
 11
-13.6545
 21
14.8731
  0
LINE
  8
0
 10
-13.6545
 20
14.8731
 11
-13.4019
 21
14.5411
  0
LINE
  8
0
 10
-13.4019
 20
14.5411
 11
-13.1412
 21
14.2153
  0
LINE
  8
0
 10
-13.1412
 20
14.2153
 11
-12.8725
 21
13.8961
  0
LINE
  8
0
 10
-12.8725
 20
13.8961
 11
-12.5962
 21
13.5835
  0
LINE
  8
0
 10
-12.5962
 20
13.5835
 11
-12.3122
 21
13.2778
  0
LINE
  8
0
 10
-12.3122
 20
13.2778
 11
-12.0208
 21
12.9792
  0
LINE
  8
0
 10
-12.0208
 20
12.9792
 11
-11.7222
 21
12.6878
  0
LINE
  8
0
 10
-11.7222
 20
12.6878
 11
-11.4165
 21
12.4038
  0
LINE
  8
0
 10
-11.4165
 20
12.4038
 11
-11.1039
 21
12.1275
  0
LINE
  8
0
 10
-11.1039
 20
12.1275
 11
-10.7847
 21
11.8588
  0
LINE
  8
0
 10
-10.7847
 20
11.8588
 11
-10.4589
 21
11.5981
  0
LINE
  8
0
 10
-10.4589
 20
11.5981
 11
-10.1269
 21
11.3455
  0
LINE
  8
0
 10
-10.1269
 20
11.3455
 11
-9.78873
 21
11.1011
  0
LINE
  8
0
 10
-9.78873
 20
11.1011
 11
-9.44469
 21
10.865
  0
LINE
  8
0
 10
-9.44469
 20
10.865
 11
-9.09496
 21
10.6375
  0
LINE
  8
0
 10
-9.09496
 20
10.6375
 11
-8.73975
 21
10.4186
  0
LINE
  8
0
 10
-8.73975
 20
10.4186
 11
-8.37926
 21
10.2085
  0
LINE
  8
0
 10
-8.37926
 20
10.2085
 11
-8.01373
 21
10.0073
  0
LINE
  8
0
 10
-8.01373
 20
10.0073
 11
-7.64339
 21
9.8152
  0
LINE
  8
0
 10
-7.64339
 20
9.8152
 11
-7.26843
 21
9.63219
  0
LINE
  8
0
 10
-7.26843
 20
9.63219
 11
-6.8891
 21
9.45844
  0
LINE
  8
0
 10
-6.8891
 20
9.45844
 11
-6.50562
 21
9.29405
  0
LINE
  8
0
 10
-6.50562
 20
9.29405
 11
-6.11821
 21
9.13913
  0
LINE
  8
0
 10
-6.11821
 20
9.13913
 11
-5.72713
 21
8.99376
  0
LINE
  8
0
 10
-5.72713
 20
8.99376
 11
-5.33258
 21
8.85803
  0
LINE
  8
0
 10
-5.33258
 20
8.85803
 11
-4.93483
 21
8.73203
  0
LINE
  8
0
 10
-4.93483
 20
8.73203
 11
-4.5341
 21
8.61581
  0
LINE
  8
0
 10
-4.5341
 20
8.61581
 11
-4.13066
 21
8.50948
  0
LINE
  8
0
 10
-4.13066
 20
8.50948
 11
-3.72472
 21
8.41307
  0
LINE
  8
0
 10
-3.72472
 20
8.41307
 11
-3.31653
 21
8.32666
  0
LINE
  8
0
 10
-3.31653
 20
8.32666
 11
-2.90636
 21
8.25029
  0
LINE
  8
0
 10
-2.90636
 20
8.25029
 11
-2.49443
 21
8.18401
  0
LINE
  8
0
 10
-2.49443
 20
8.18401
 11
-2.08099
 21
8.12785
  0
LINE
  8
0
 10
-2.08099
 20
8.12785
 11
-1.66631
 21
8.08186
  0
LINE
  8
0
 10
-1.66631
 20
8.08186
 11
-1.25061
 21
8.04607
  0
LINE
  8
0
 10
-1.25061
 20
8.04607
 11
-0.834152
 21
8.02048
  0
LINE
  8
0
 10
-0.834152
 20
8.02048
 11
-0.417206
 21
8.00513
  0
LINE
  8
0
 10
-0.417206
 20
8.00513
 11
-1.52588e-05
 21
8
  0
LINE
  8
0
 10
-1.52588e-05
 20
8
 11
0.417191
 21
8.00513
  0
LINE
  8
0
 10
0.417191
 20
8.00513
 11
0.834137
 21
8.02048
  0
LINE
  8
0
 10
0.834137
 20
8.02048
 11
1.2506
 21
8.04607
  0
LINE
  8
0
 10
1.2506
 20
8.04607
 11
1.66629
 21
8.08186
  0
LINE
  8
0
 10
1.66629
 20
8.08186
 11
2.08098
 21
8.12785
  0
LINE
  8
0
 10
2.08098
 20
8.12785
 11
2.49442
 21
8.18401
  0
LINE
  8
0
 10
2.49442
 20
8.18401
 11
2.90634
 21
8.25029
  0
LINE
  8
0
 10
2.90634
 20
8.25029
 11
3.31653
 21
8.32666
  0
LINE
  8
0
 10
3.31653
 20
8.32666
 11
3.72472
 21
8.41307
  0
LINE
  8
0
 10
3.72472
 20
8.41307
 11
4.13066
 21
8.50948
  0
LINE
  8
0
 10
4.13066
 20
8.50948
 11
4.5341
 21
8.61581
  0
LINE
  8
0
 10
4.5341
 20
8.61581
 11
4.93483
 21
8.73203
  0
LINE
  8
0
 10
4.93483
 20
8.73203
 11
5.33258
 21
8.85803
  0
LINE
  8
0
 10
5.33258
 20
8.85803
 11
5.72713
 21
8.99376
  0
LINE
  8
0
 10
5.72713
 20
8.99376
 11
6.11821
 21
9.13913
  0
LINE
  8
0
 10
6.11821
 20
9.13913
 11
6.50562
 21
9.29405
  0
LINE
  8
0
 10
6.50562
 20
9.29405
 11
6.8891
 21
9.45844
  0
LINE
  8
0
 10
6.8891
 20
9.45844
 11
7.26843
 21
9.63219
  0
LINE
  8
0
 10
7.26843
 20
9.63219
 11
7.64339
 21
9.8152
  0
LINE
  8
0
 10
7.64339
 20
9.8152
 11
8.01373
 21
10.0073
  0
LINE
  8
0
 10
8.01373
 20
10.0073
 11
8.37926
 21
10.2085
  0
LINE
  8
0
 10
8.37926
 20
10.2085
 11
8.73975
 21
10.4186
  0
LINE
  8
0
 10
8.73975
 20
10.4186
 11
9.09496
 21
10.6375
  0
LINE
  8
0
 10
9.09496
 20
10.6375
 11
9.44469
 21
10.865
  0
LINE
  8
0
 10
9.44469
 20
10.865
 11
9.78873
 21
11.1011
  0
LINE
  8
0
 10
9.78873
 20
11.1011
 11
10.1269
 21
11.3455
  0
LINE
  8
0
 10
10.1269
 20
11.3455
 11
10.4265
 21
11.5735
  0
LINE
  8
0
 10
10.4265
 20
11.5735
 11
10.1412
 21
11.2153
  0
LINE
  8
0
 10
10.1412
 20
11.2153
 11
9.87254
 21
10.8961
  0
LINE
  8
0
 10
9.87254
 20
10.8961
 11
9.59616
 21
10.5835
  0
LINE
  8
0
 10
9.59616
 20
10.5835
 11
9.31219
 21
10.2778
  0
LINE
  8
0
 10
9.31219
 20
10.2778
 11
9.02081
 21
9.97919
  0
LINE
  8
0
 10
9.02081
 20
9.97919
 11
8.72218
 21
9.68781
  0
LINE
  8
0
 10
8.72218
 20
9.68781
 11
8.41649
 21
9.40384
  0
LINE
  8
0
 10
8.41649
 20
9.40384
 11
8.10393
 21
9.12746
  0
LINE
  8
0
 10
8.10393
 20
9.12746
 11
7.78468
 21
8.85883
  0
LINE
  8
0
 10
7.78468
 20
8.85883
 11
7.45892
 21
8.59811
  0
LINE
  8
0
 10
7.45892
 20
8.59811
 11
7.12688
 21
8.34547
  0
LINE
  8
0
 10
7.12688
 20
8.34547
 11
6.78873
 21
8.10106
  0
LINE
  8
0
 10
6.78873
 20
8.10106
 11
6.44469
 21
7.86502
  0
LINE
  8
0
 10
6.44469
 20
7.86502
 11
6.09496
 21
7.6375
  0
LINE
  8
0
 10
6.09496
 20
7.6375
 11
5.73975
 21
7.41862
  0
LINE
  8
0
 10
5.73975
 20
7.41862
 11
5.37926
 21
7.20853
  0
LINE
  8
0
 10
5.37926
 20
7.20853
 11
5.01373
 21
7.00734
  0
LINE
  8
0
 10
5.01373
 20
7.00734
 11
4.64339
 21
6.8152
  0
LINE
  8
0
 10
4.64339
 20
6.8152
 11
4.26843
 21
6.63219
  0
LINE
  8
0
 10
4.26843
 20
6.63219
 11
3.8891
 21
6.45844
  0
LINE
  8
0
 10
3.8891
 20
6.45844
 11
3.50562
 21
6.29405
  0
LINE
  8
0
 10
3.50562
 20
6.29405
 11
3.11821
 21
6.13913
  0
LINE
  8
0
 10
3.11821
 20
6.13913
 11
2.72713
 21
5.99376
  0
LINE
  8
0
 10
2.72713
 20
5.99376
 11
2.33258
 21
5.85803
  0
LINE
  8
0
 10
2.33258
 20
5.85803
 11
1.93483
 21
5.73203
  0
LINE
  8
0
 10
1.93483
 20
5.73203
 11
1.5341
 21
5.61581
  0
LINE
  8
0
 10
1.5341
 20
5.61581
 11
1.13066
 21
5.50948
  0
LINE
  8
0
 10
1.13066
 20
5.50948
 11
0.724716
 21
5.41307
  0
LINE
  8
0
 10
0.724716
 20
5.41307
 11
0.316528
 21
5.32666
  0
LINE
  8
0
 10
0.316528
 20
5.32666
 11
-0.0936584
 21
5.25029
  0
LINE
  8
0
 10
-0.0936584
 20
5.25029
 11
-0.505585
 21
5.18401
  0
LINE
  8
0
 10
-0.505585
 20
5.18401
 11
-0.919022
 21
5.12785
  0
LINE
  8
0
 10
-0.919022
 20
5.12785
 11
-1.33371
 21
5.08186
  0
LINE
  8
0
 10
-1.33371
 20
5.08186
 11
-1.7494
 21
5.04607
  0
LINE
  8
0
 10
-1.7494
 20
5.04607
 11
-2.16586
 21
5.02048
  0
LINE
  8
0
 10
-2.16586
 20
5.02048
 11
-2.58281
 21
5.00513
  0
LINE
  8
0
 10
-2.58281
 20
5.00513
 11
-3
 21
5
  0
LINE
  8
0
 10
-3
 20
5
 11
-3.41719
 21
5.00513
  0
LINE
  8
0
 10
-8.59302
 20
-21.9961
 11
-8.8468
 21
-21.9774
  0
LINE
  8
0
 10
-8.8468
 20
-21.9774
 11
-9.05688
 21
-21.9491
  0
LINE
  8
0
 10
-9.05688
 20
-21.9491
 11
-9.26009
 21
-21.9096
  0
LINE
  8
0
 10
-9.26009
 20
-21.9096
 11
-9.45642
 21
-21.8587
  0
LINE
  8
0
 10
-9.45642
 20
-21.8587
 11
-11.114
 21
-21.314
  0
LINE
  8
0
 10
-11.114
 20
-21.314
 11
-11.1936
 21
-21.283
  0
LINE
  8
0
 10
-11.1936
 20
-21.283
 11
-11.3918
 21
-21.2384
  0
LINE
  8
0
 10
-11.3918
 20
-21.2384
 11
-11.8855
 21
-21.1888
  0
LINE
  8
0
 10
-11.8855
 20
-21.1888
 11
-15.3033
 21
-21.0689
  0
LINE
  8
0
 10
-15.3033
 20
-21.0689
 11
-18.1561
 21
-21.0405
  0
LINE
  8
0
 10
-18.1561
 20
-21.0405
 11
-22.015
 21
-21.063
  0
LINE
  8
0
 10
-22.015
 20
-21.063
 11
-24.8729
 21
-21.1423
  0
LINE
  8
0
 10
-24.8729
 20
-21.1423
 11
-25.39
 21
-21.1783
  0
LINE
  8
0
 10
-25.39
 20
-21.1783
 11
-25.7298
 21
-21.2212
  0
LINE
  8
0
 10
-25.7298
 20
-21.2212
 11
-25.942
 21
-21.264
  0
LINE
  8
0
 10
-25.942
 20
-21.264
 11
-26.3087
 21
-21.3714
  0
LINE
  8
0
 10
-26.3087
 20
-21.3714
 11
-26.603
 21
-21.488
  0
LINE
  8
0
 10
-26.603
 20
-21.488
 11
-26.6582
 21
-21.5186
  0
LINE
  8
0
 10
-26.6582
 20
-21.5186
 11
-26.7706
 21
-21.5769
  0
LINE
  8
0
 10
-26.7706
 20
-21.5769
 11
-26.8855
 21
-21.6314
  0
LINE
  8
0
 10
-26.8855
 20
-21.6314
 11
-27.003
 21
-21.6822
  0
LINE
  8
0
 10
-27.003
 20
-21.6822
 11
-27.123
 21
-21.7292
  0
LINE
  8
0
 10
-27.123
 20
-21.7292
 11
-27.2456
 21
-21.7724
  0
LINE
  8
0
 10
-27.2456
 20
-21.7724
 11
-27.3707
 21
-21.812
  0
LINE
  8
0
 10
-27.3707
 20
-21.812
 11
-27.4983
 21
-21.8477
  0
LINE
  8
0
 10
-27.4983
 20
-21.8477
 11
-27.6286
 21
-21.8797
  0
LINE
  8
0
 10
-27.6286
 20
-21.8797
 11
-27.7613
 21
-21.9079
  0
LINE
  8
0
 10
-27.7613
 20
-21.9079
 11
-27.8966
 21
-21.9323
  0
LINE
  8
0
 10
-27.8966
 20
-21.9323
 11
-28.0345
 21
-21.953
  0
LINE
  8
0
 10
-28.0345
 20
-21.953
 11
-28.1749
 21
-21.9699
  0
LINE
  8
0
 10
-28.1749
 20
-21.9699
 11
-28.3903
 21
-21.9883
  0
LINE
  8
0
 10
-28.3903
 20
-21.9883
 11
-28.6114
 21
-21.9981
  0
LINE
  8
0
 10
-28.6114
 20
-21.9981
 11
-28.7874
 21
-21.9996
  0
LINE
  8
0
 10
-28.7874
 20
-21.9996
 11
-28.8639
 21
-21.9929
  0
LINE
  8
0
 10
-28.8639
 20
-21.9929
 11
-28.9409
 21
-21.9781
  0
LINE
  8
0
 10
-28.9409
 20
-21.9781
 11
-29.0186
 21
-21.9554
  0
LINE
  8
0
 10
-29.0186
 20
-21.9554
 11
-29.0968
 21
-21.9246
  0
LINE
  8
0
 10
-29.0968
 20
-21.9246
 11
-29.1756
 21
-21.8858
  0
LINE
  8
0
 10
-29.1756
 20
-21.8858
 11
-29.2549
 21
-21.8389
  0
LINE
  8
0
 10
-29.2549
 20
-21.8389
 11
-29.3349
 21
-21.784
  0
LINE
  8
0
 10
-29.3349
 20
-21.784
 11
-29.4154
 21
-21.7211
  0
LINE
  8
0
 10
-29.4154
 20
-21.7211
 11
-29.5237
 21
-21.6247
  0
LINE
  8
0
 10
-29.5237
 20
-21.6247
 11
-29.633
 21
-21.514
  0
LINE
  8
0
 10
-29.633
 20
-21.514
 11
-29.9571
 21
-21.1468
  0
LINE
  8
0
 10
-29.9571
 20
-21.1468
 11
-30.272
 21
-20.7521
  0
LINE
  8
0
 10
-30.272
 20
-20.7521
 11
-30.5762
 21
-20.3307
  0
LINE
  8
0
 10
-30.5762
 20
-20.3307
 11
-30.7601
 21
-20.0447
  0
LINE
  8
0
 10
-30.7601
 20
-20.0447
 11
-30.9237
 21
-19.7586
  0
LINE
  8
0
 10
-30.9237
 20
-19.7586
 11
-31.0669
 21
-19.4725
  0
LINE
  8
0
 10
-31.0669
 20
-19.4725
 11
-31.1896
 21
-19.1878
  0
LINE
  8
0
 10
-31.1896
 20
-19.1878
 11
-31.3235
 21
-18.8255
  0
LINE
  8
0
 10
-31.3235
 20
-18.8255
 11
-31.3817
 21
-18.6202
  0
LINE
  8
0
 10
-31.3817
 20
-18.6202
 11
-31.402
 21
-18.5
  0
LINE
  8
0
 10
-31.402
 20
-18.5
 11
-31.4034
 21
-18.4252
  0
LINE
  8
0
 10
-31.4034
 20
-18.4252
 11
-31.3983
 21
-18.3567
  0
LINE
  8
0
 10
-31.3983
 20
-18.3567
 11
-31.3881
 21
-18.2868
  0
LINE
  8
0
 10
-31.3881
 20
-18.2868
 11
-31.3728
 21
-18.2157
  0
LINE
  8
0
 10
-31.3728
 20
-18.2157
 11
-31.3524
 21
-18.1433
  0
LINE
  8
0
 10
-31.3524
 20
-18.1433
 11
-31.3269
 21
-18.0697
  0
LINE
  8
0
 10
-31.3269
 20
-18.0697
 11
-31.2963
 21
-17.9947
  0
LINE
  8
0
 10
-31.2963
 20
-17.9947
 11
-31.2606
 21
-17.9185
  0
LINE
  8
0
 10
-31.2606
 20
-17.9185
 11
-31.1975
 21
-17.8018
  0
LINE
  8
0
 10
-31.1975
 20
-17.8018
 11
-31.123
 21
-17.6822
  0
LINE
  8
0
 10
-31.123
 20
-17.6822
 11
-31.0369
 21
-17.5597
  0
LINE
  8
0
 10
-31.0369
 20
-17.5597
 11
-30.9394
 21
-17.4343
  0
LINE
  8
0
 10
-30.9394
 20
-17.4343
 11
-30.8305
 21
-17.3061
  0
LINE
  8
0
 10
-30.8305
 20
-17.3061
 11
-30.6686
 21
-17.1303
  0
LINE
  8
0
 10
-30.6686
 20
-17.1303
 11
-30.5896
 21
-17.0376
  0
LINE
  8
0
 10
-30.5896
 20
-17.0376
 11
-30.5156
 21
-16.9406
  0
LINE
  8
0
 10
-30.5156
 20
-16.9406
 11
-30.4468
 21
-16.8392
  0
LINE
  8
0
 10
-30.4468
 20
-16.8392
 11
-30.3831
 21
-16.7335
  0
LINE
  8
0
 10
-30.3831
 20
-16.7335
 11
-30.3244
 21
-16.6235
  0
LINE
  8
0
 10
-30.3244
 20
-16.6235
 11
-30.2709
 21
-16.5091
  0
LINE
  8
0
 10
-30.2709
 20
-16.5091
 11
-30.2225
 21
-16.3904
  0
LINE
  8
0
 10
-30.2225
 20
-16.3904
 11
-30.1792
 21
-16.2673
  0
LINE
  8
0
 10
-30.1792
 20
-16.2673
 11
-30.1409
 21
-16.14
  0
LINE
  8
0
 10
-30.1409
 20
-16.14
 11
-30.1078
 21
-16.0083
  0
LINE
  8
0
 10
-30.1078
 20
-16.0083
 11
-30.0797
 21
-15.8722
  0
LINE
  8
0
 10
-30.0797
 20
-15.8722
 11
-30.0568
 21
-15.7318
  0
LINE
  8
0
 10
-30.0568
 20
-15.7318
 11
-30.039
 21
-15.5871
  0
LINE
  8
0
 10
-30.039
 20
-15.5871
 11
-30.0262
 21
-15.4381
  0
LINE
  8
0
 10
-30.0262
 20
-15.4381
 11
-30.0186
 21
-15.2847
  0
LINE
  8
0
 10
-30.0186
 20
-15.2847
 11
-30.016
 21
-15.127
  0
LINE
  8
0
 10
-30.016
 20
-15.127
 11
-29.9475
 21
-13.5162
  0
LINE
  8
0
 10
-29.9475
 20
-13.5162
 11
-29.8975
 21
-10.8525
  0
LINE
  8
0
 10
-29.8975
 20
-10.8525
 11
-29.888
 21
1.11899
  0
LINE
  8
0
 10
-29.888
 20
1.11899
 11
-29.8909
 21
2.02351
  0
LINE
  8
0
 10
-29.8909
 20
2.02351
 11
-29.8995
 21
2.8942
  0
LINE
  8
0
 10
-29.8995
 20
2.8942
 11
-29.9138
 21
3.73102
  0
LINE
  8
0
 10
-29.9138
 20
3.73102
 11
-29.9339
 21
4.534
  0
LINE
  8
0
 10
-29.9339
 20
4.534
 11
-29.9597
 21
5.30313
  0
LINE
  8
0
 10
-29.9597
 20
5.30313
 11
-29.9912
 21
6.03839
  0
LINE
  8
0
 10
-29.9912
 20
6.03839
 11
-30.0285
 21
6.73982
  0
LINE
  8
0
 10
-30.0285
 20
6.73982
 11
-30.0715
 21
7.40739
  0
LINE
  8
0
 10
-30.0715
 20
7.40739
 11
-30.1203
 21
8.04111
  0
LINE
  8
0
 10
-30.1203
 20
8.04111
 11
-30.1748
 21
8.64098
  0
LINE
  8
0
 10
-30.1748
 20
8.64098
 11
-30.2143
 21
9.02208
  0
LINE
  8
0
 10
-30.2143
 20
9.02208
 11
-30.2984
 21
9.74536
  0
LINE
  8
0
 10
-30.2984
 20
9.74536
 11
-30.4269
 21
10.7566
  0
LINE
  8
0
 10
-30.4269
 20
10.7566
 11
-30.5577
 21
11.6806
  0
LINE
  8
0
 10
-30.5577
 20
11.6806
 11
-30.6685
 21
12.384
  0
LINE
  8
0
 10
-30.6685
 20
12.384
 11
-30.7809
 21
13.0267
  0
LINE
  8
0
 10
-30.7809
 20
13.0267
 11
-30.8719
 21
13.4972
  0
LINE
  8
0
 10
-30.8719
 20
13.4972
 11
-30.964
 21
13.929
  0
LINE
  8
0
 10
-30.964
 20
13.929
 11
-31.079
 21
14.4205
  0
LINE
  8
0
 10
-31.079
 20
14.4205
 11
-31.1923
 21
14.8642
  0
LINE
  8
0
 10
-31.1923
 20
14.8642
 11
-31.304
 21
15.2601
  0
LINE
  8
0
 10
-31.304
 20
15.2601
 11
-31.3923
 21
15.5423
  0
LINE
  8
0
 10
-31.3923
 20
15.5423
 11
-31.4795
 21
15.7939
  0
LINE
  8
0
 10
-31.4795
 20
15.7939
 11
-31.5657
 21
16.0149
  0
LINE
  8
0
 10
-31.5657
 20
16.0149
 11
-31.6296
 21
16.1606
  0
LINE
  8
0
 10
-31.6296
 20
16.1606
 11
-31.8077
 21
16.5209
  0
LINE
  8
0
 10
-31.8077
 20
16.5209
 11
-31.8858
 21
16.7019
  0
LINE
  8
0
 10
-31.8858
 20
16.7019
 11
-31.9479
 21
16.8716
  0
LINE
  8
0
 10
-31.9479
 20
16.8716
 11
-31.9941
 21
17.0302
  0
LINE
  8
0
 10
-31.9941
 20
17.0302
 11
-32.0196
 21
17.149
  0
LINE
  8
0
 10
-32.0196
 20
17.149
 11
-32.0349
 21
17.2606
  0
LINE
  8
0
 10
-32.0349
 20
17.2606
 11
-32.04
 21
17.365
  0
LINE
  8
0
 10
-32.04
 20
17.365
 11
-32.0376
 21
17.4083
  0
LINE
  8
0
 10
-32.0376
 20
17.4083
 11
-32.0303
 21
17.4542
  0
LINE
  8
0
 10
-32.0303
 20
17.4542
 11
-32.0182
 21
17.5026
  0
LINE
  8
0
 10
-32.0182
 20
17.5026
 11
-31.991
 21
17.5801
  0
LINE
  8
0
 10
-31.991
 20
17.5801
 11
-31.9529
 21
17.6632
  0
LINE
  8
0
 10
-31.9529
 20
17.6632
 11
-31.9039
 21
17.7521
  0
LINE
  8
0
 10
-31.9039
 20
17.7521
 11
-31.8439
 21
17.8468
  0
LINE
  8
0
 10
-31.8439
 20
17.8468
 11
-31.7471
 21
17.9819
  0
LINE
  8
0
 10
-31.7471
 20
17.9819
 11
-31.6309
 21
18.1272
  0
LINE
  8
0
 10
-31.6309
 20
18.1272
 11
-31.4585
 21
18.3232
  0
LINE
  8
0
 10
-31.4585
 20
18.3232
 11
-31.2593
 21
18.5321
  0
LINE
  8
0
 10
-31.2593
 20
18.5321
 11
-30.9619
 21
18.8239
  0
LINE
  8
0
 10
-30.9619
 20
18.8239
 11
-30.6458
 21
19.1125
  0
LINE
  8
0
 10
-30.6458
 20
19.1125
 11
-30.311
 21
19.3979
  0
LINE
  8
0
 10
-30.311
 20
19.3979
 11
-29.9575
 21
19.68
  0
LINE
  8
0
 10
-29.9575
 20
19.68
 11
-29.5374
 21
19.9942
  0
LINE
  8
0
 10
-29.5374
 20
19.9942
 11
-29.1165
 21
20.2887
  0
LINE
  8
0
 10
-29.1165
 20
20.2887
 11
-28.6957
 21
20.5627
  0
LINE
  8
0
 10
-28.6957
 20
20.5627
 11
-28.2748
 21
20.8162
  0
LINE
  8
0
 10
-28.2748
 20
20.8162
 11
-27.914
 21
21.0167
  0
LINE
  8
0
 10
-27.914
 20
21.0167
 11
-27.6382
 21
21.1559
  0
LINE
  8
0
 10
-27.6382
 20
21.1559
 11
-27.4346
 21
21.2474
  0
LINE
  8
0
 10
-27.4346
 20
21.2474
 11
-27.255
 21
21.3166
  0
LINE
  8
0
 10
-27.255
 20
21.3166
 11
-27.1286
 21
21.3559
  0
LINE
  8
0
 10
-27.1286
 20
21.3559
 11
-27.0174
 21
21.3808
  0
LINE
  8
0
 10
-27.0174
 20
21.3808
 11
-26.9441
 21
21.3902
  0
LINE
  8
0
 10
-26.9441
 20
21.3902
 11
-26.8619
 21
21.3916
  0
LINE
  8
0
 10
-26.8619
 20
21.3916
 11
-26.7444
 21
21.3853
  0
LINE
  8
0
 10
-26.7444
 20
21.3853
 11
-26.6223
 21
21.3717
  0
LINE
  8
0
 10
-26.6223
 20
21.3717
 11
-26.4957
 21
21.3505
  0
LINE
  8
0
 10
-26.4957
 20
21.3505
 11
-26.3644
 21
21.3219
  0
LINE
  8
0
 10
-26.3644
 20
21.3219
 11
-26.2286
 21
21.2857
  0
LINE
  8
0
 10
-26.2286
 20
21.2857
 11
-26.0403
 21
21.226
  0
LINE
  8
0
 10
-26.0403
 20
21.226
 11
-25.8439
 21
21.1529
  0
LINE
  8
0
 10
-25.8439
 20
21.1529
 11
-25.6393
 21
21.0666
  0
LINE
  8
0
 10
-25.6393
 20
21.0666
 11
-25.4265
 21
20.967
  0
LINE
  8
0
 10
-25.4265
 20
20.967
 11
-25.2657
 21
20.8842
  0
LINE
  8
0
 10
-25.2657
 20
20.8842
 11
-25.1661
 21
20.8261
  0
LINE
  8
0
 10
-25.1661
 20
20.8261
 11
-25.0732
 21
20.7656
  0
LINE
  8
0
 10
-25.0732
 20
20.7656
 11
-24.9868
 21
20.7029
  0
LINE
  8
0
 10
-24.9868
 20
20.7029
 11
-24.9071
 21
20.6379
  0
LINE
  8
0
 10
-24.9071
 20
20.6379
 11
-24.8341
 21
20.5706
  0
LINE
  8
0
 10
-24.8341
 20
20.5706
 11
-24.7677
 21
20.501
  0
LINE
  8
0
 10
-24.7677
 20
20.501
 11
-24.7079
 21
20.4291
  0
LINE
  8
0
 10
-24.7079
 20
20.4291
 11
-24.6548
 21
20.3549
  0
LINE
  8
0
 10
-24.6548
 20
20.3549
 11
-24.6083
 21
20.2784
  0
LINE
  8
0
 10
-24.6083
 20
20.2784
 11
-24.5685
 21
20.1996
  0
LINE
  8
0
 10
-24.5685
 20
20.1996
 11
-24.5352
 21
20.1184
  0
LINE
  8
0
 10
-24.5352
 20
20.1184
 11
-24.5087
 21
20.035
  0
LINE
  8
0
 10
-24.5087
 20
20.035
 11
-24.4888
 21
19.9493
  0
LINE
  8
0
 10
-24.4888
 20
19.9493
 11
-24.4755
 21
19.8613
  0
LINE
  8
0
 10
-24.4755
 20
19.8613
 11
-24.4688
 21
19.771
  0
LINE
  8
0
 10
-24.4688
 20
19.771
 11
-24.4683
 21
19.6868
  0
LINE
  8
0
 10
-24.4683
 20
19.6868
 11
-24.4772
 21
19.4882
  0
LINE
  8
0
 10
-24.4772
 20
19.4882
 11
-24.4989
 21
19.2769
  0
LINE
  8
0
 10
-24.4989
 20
19.2769
 11
-24.5334
 21
19.0528
  0
LINE
  8
0
 10
-24.5334
 20
19.0528
 11
-24.5916
 21
18.7672
  0
LINE
  8
0
 10
-24.5916
 20
18.7672
 11
-24.6682
 21
18.4633
  0
LINE
  8
0
 10
-24.6682
 20
18.4633
 11
-24.7787
 21
18.0863
  0
LINE
  8
0
 10
-24.7787
 20
18.0863
 11
-24.8379
 21
17.8653
  0
LINE
  8
0
 10
-24.8379
 20
17.8653
 11
-24.889
 21
17.6423
  0
LINE
  8
0
 10
-24.889
 20
17.6423
 11
-24.9319
 21
17.4172
  0
LINE
  8
0
 10
-24.9319
 20
17.4172
 11
-24.9666
 21
17.1901
  0
LINE
  8
0
 10
-24.9666
 20
17.1901
 11
-24.9931
 21
16.9609
  0
LINE
  8
0
 10
-24.9931
 20
16.9609
 11
-25.0115
 21
16.7296
  0
LINE
  8
0
 10
-25.0115
 20
16.7296
 11
-25.0217
 21
16.4963
  0
LINE
  8
0
 10
-25.0217
 20
16.4963
 11
-25.0268
 21
15.5632
  0
LINE
  8
0
 10
-25.0268
 20
15.5632
 11
-25.0416
 21
14.4318
  0
LINE
  8
0
 10
-25.0416
 20
14.4318
 11
-25.0691
 21
13.3049
  0
LINE
  8
0
 10
-25.0691
 20
13.3049
 11
-25.1093
 21
12.1827
  0
LINE
  8
0
 10
-25.1093
 20
12.1827
 11
-25.1622
 21
11.0649
  0
LINE
  8
0
 10
-25.1622
 20
11.0649
 11
-25.2597
 21
9.39795
  0
LINE
  8
0
 10
-25.2597
 20
9.39795
 11
-25.3147
 21
8.29703
  0
LINE
  8
0
 10
-25.3147
 20
8.29703
 11
-25.3571
 21
7.20531
  0
LINE
  8
0
 10
-25.3571
 20
7.20531
 11
-25.3867
 21
6.12277
  0
LINE
  8
0
 10
-25.3867
 20
6.12277
 11
-25.4036
 21
5.04942
  0
LINE
  8
0
 10
-25.4036
 20
5.04942
 11
-25.4078
 21
3.92712
  0
LINE
  8
0
 10
-25.4078
 20
3.92712
 11
-25.3868
 21
2.00252
  0
LINE
  8
0
 10
-25.3868
 20
2.00252
 11
-25.3365
 21
0.305527
  0
LINE
  8
0
 10
-25.3365
 20
0.305527
 11
-25.297
 21
-1.27513
  0
LINE
  8
0
 10
-25.297
 20
-1.27513
 11
-25.2801
 21
-3.34164
  0
LINE
  8
0
 10
-25.2801
 20
-3.34164
 11
-25.2882
 21
-4.53049
  0
LINE
  8
0
 10
-25.2882
 20
-4.53049
 11
-25.3129
 21
-5.59319
  0
LINE
  8
0
 10
-25.3129
 20
-5.59319
 11
-25.354
 21
-6.66811
  0
LINE
  8
0
 10
-25.354
 20
-6.66811
 11
-25.4117
 21
-7.75525
  0
LINE
  8
0
 10
-25.4117
 20
-7.75525
 11
-25.7655
 21
-13.0105
  0
LINE
  8
0
 10
-25.7655
 20
-13.0105
 11
-26.0597
 21
-16.4508
  0
LINE
  8
0
 10
-26.0597
 20
-16.4508
 11
-26.1078
 21
-17.232
  0
LINE
  8
0
 10
-26.1078
 20
-17.232
 11
-26.1152
 21
-17.6171
  0
LINE
  8
0
 10
-26.1152
 20
-17.6171
 11
-26.1091
 21
-17.6803
  0
LINE
  8
0
 10
-26.1091
 20
-17.6803
 11
-26.0968
 21
-17.7394
  0
LINE
  8
0
 10
-26.0968
 20
-17.7394
 11
-26.0784
 21
-17.7945
  0
LINE
  8
0
 10
-26.0784
 20
-17.7945
 11
-26.0538
 21
-17.8455
  0
LINE
  8
0
 10
-26.0538
 20
-17.8455
 11
-26.0231
 21
-17.8923
  0
LINE
  8
0
 10
-26.0231
 20
-17.8923
 11
-25.9863
 21
-17.9352
  0
LINE
  8
0
 10
-25.9863
 20
-17.9352
 11
-25.9433
 21
-17.9739
  0
LINE
  8
0
 10
-25.9433
 20
-17.9739
 11
-25.8941
 21
-18.0085
  0
LINE
  8
0
 10
-25.8941
 20
-18.0085
 11
-25.8389
 21
-18.0391
  0
LINE
  8
0
 10
-25.8389
 20
-18.0391
 11
-25.7775
 21
-18.0656
  0
LINE
  8
0
 10
-25.7775
 20
-18.0656
 11
-25.7099
 21
-18.088
  0
LINE
  8
0
 10
-25.7099
 20
-18.088
 11
-25.6362
 21
-18.1064
  0
LINE
  8
0
 10
-25.6362
 20
-18.1064
 11
-25.5564
 21
-18.1207
  0
LINE
  8
0
 10
-25.5564
 20
-18.1207
 11
-25.4704
 21
-18.1309
  0
LINE
  8
0
 10
-25.4704
 20
-18.1309
 11
-25.3783
 21
-18.137
  0
LINE
  8
0
 10
-25.3783
 20
-18.137
 11
-25.28
 21
-18.139
  0
LINE
  8
0
 10
-25.28
 20
-18.139
 11
-25.1312
 21
-18.1328
  0
LINE
  8
0
 10
-25.1312
 20
-18.1328
 11
-24.9353
 21
-18.1066
  0
LINE
  8
0
 10
-24.9353
 20
-18.1066
 11
-24.7342
 21
-18.0598
  0
LINE
  8
0
 10
-24.7342
 20
-18.0598
 11
-24.4807
 21
-17.9769
  0
LINE
  8
0
 10
-24.4807
 20
-17.9769
 11
-24.3099
 21
-17.9295
  0
LINE
  8
0
 10
-24.3099
 20
-17.9295
 11
-24.1298
 21
-17.8947
  0
LINE
  8
0
 10
-24.1298
 20
-17.8947
 11
-23.9125
 21
-17.8702
  0
LINE
  8
0
 10
-23.9125
 20
-17.8702
 11
-11.114
 21
-17.392
  0
LINE
  8
0
 10
-11.114
 20
-17.392
 11
-11.0551
 21
-17.3873
  0
LINE
  8
0
 10
-11.0551
 20
-17.3873
 11
-10.8784
 21
-17.3674
  0
LINE
  8
0
 10
-10.8784
 20
-17.3674
 11
-10.7016
 21
-17.3389
  0
LINE
  8
0
 10
-10.7016
 20
-17.3389
 11
-10.5249
 21
-17.3018
  0
LINE
  8
0
 10
-10.5249
 20
-17.3018
 11
-10.3482
 21
-17.2562
  0
LINE
  8
0
 10
-10.3482
 20
-17.2562
 11
-10.1715
 21
-17.2019
  0
LINE
  8
0
 10
-10.1715
 20
-17.2019
 11
-9.99474
 21
-17.139
  0
LINE
  8
0
 10
-9.99474
 20
-17.139
 11
-9.81801
 21
-17.0676
  0
LINE
  8
0
 10
-9.81801
 20
-17.0676
 11
-9.64128
 21
-16.9875
  0
LINE
  8
0
 10
-9.64128
 20
-16.9875
 11
-9.46455
 21
-16.8989
  0
LINE
  8
0
 10
-9.46455
 20
-16.8989
 11
-9.28783
 21
-16.8016
  0
LINE
  8
0
 10
-9.28783
 20
-16.8016
 11
-9.05284
 21
-16.6627
  0
LINE
  8
0
 10
-9.05284
 20
-16.6627
 11
-8.87997
 21
-16.5668
  0
LINE
  8
0
 10
-8.87997
 20
-16.5668
 11
-8.71059
 21
-16.4806
  0
LINE
  8
0
 10
-8.71059
 20
-16.4806
 11
-8.54468
 21
-16.4042
  0
LINE
  8
0
 10
-8.54468
 20
-16.4042
 11
-8.38223
 21
-16.3376
  0
LINE
  8
0
 10
-8.38223
 20
-16.3376
 11
-8.22325
 21
-16.2807
  0
LINE
  8
0
 10
-8.22325
 20
-16.2807
 11
-8.06775
 21
-16.2336
  0
LINE
  8
0
 10
-8.06775
 20
-16.2336
 11
-7.91571
 21
-16.1962
  0
LINE
  8
0
 10
-7.91571
 20
-16.1962
 11
-7.76715
 21
-16.1685
  0
LINE
  8
0
 10
-7.76715
 20
-16.1685
 11
-7.67004
 21
-16.1555
  0
LINE
  8
0
 10
-7.67004
 20
-16.1555
 11
-7.57446
 21
-16.1469
  0
LINE
  8
0
 10
-7.57446
 20
-16.1469
 11
-7.48044
 21
-16.1425
  0
LINE
  8
0
 10
-7.48044
 20
-16.1425
 11
-7.36351
 21
-16.1428
  0
LINE
  8
0
 10
-7.36351
 20
-16.1428
 11
-7.22903
 21
-16.1495
  0
LINE
  8
0
 10
-7.22903
 20
-16.1495
 11
-7.10324
 21
-16.1627
  0
LINE
  8
0
 10
-7.10324
 20
-16.1627
 11
-6.98611
 21
-16.1826
  0
LINE
  8
0
 10
-6.98611
 20
-16.1826
 11
-6.9308
 21
-16.195
  0
LINE
  8
0
 10
-6.9308
 20
-16.195
 11
-6.87767
 21
-16.2091
  0
LINE
  8
0
 10
-6.87767
 20
-16.2091
 11
-6.82669
 21
-16.2248
  0
LINE
  8
0
 10
-6.82669
 20
-16.2248
 11
-6.77789
 21
-16.2422
  0
LINE
  8
0
 10
-6.77789
 20
-16.2422
 11
-6.73126
 21
-16.2613
  0
LINE
  8
0
 10
-6.73126
 20
-16.2613
 11
-6.6868
 21
-16.282
  0
LINE
  8
0
 10
-6.6868
 20
-16.282
 11
-6.6445
 21
-16.3044
  0
LINE
  8
0
 10
-6.6445
 20
-16.3044
 11
-6.60439
 21
-16.3284
  0
LINE
  8
0
 10
-6.60439
 20
-16.3284
 11
-6.56642
 21
-16.354
  0
LINE
  8
0
 10
-6.56642
 20
-16.354
 11
-6.53064
 21
-16.3814
  0
LINE
  8
0
 10
-6.53064
 20
-16.3814
 11
-6.49701
 21
-16.4104
  0
LINE
  8
0
 10
-6.49701
 20
-16.4104
 11
-6.46556
 21
-16.441
  0
LINE
  8
0
 10
-6.46556
 20
-16.441
 11
-6.43628
 21
-16.4733
  0
LINE
  8
0
 10
-6.43628
 20
-16.4733
 11
-6.40918
 21
-16.5073
  0
LINE
  8
0
 10
-6.40918
 20
-16.5073
 11
-6.38423
 21
-16.5429
  0
LINE
  8
0
 10
-6.38423
 20
-16.5429
 11
-6.36145
 21
-16.5802
  0
LINE
  8
0
 10
-6.36145
 20
-16.5802
 11
-6.34085
 21
-16.6191
  0
LINE
  8
0
 10
-6.34085
 20
-16.6191
 11
-6.32242
 21
-16.6597
  0
LINE
  8
0
 10
-6.32242
 20
-16.6597
 11
-6.30615
 21
-16.7019
  0
LINE
  8
0
 10
-6.30615
 20
-16.7019
 11
-6.29205
 21
-16.7458
  0
LINE
  8
0
 10
-6.29205
 20
-16.7458
 11
-6.28012
 21
-16.7914
  0
LINE
  8
0
 10
-6.28012
 20
-16.7914
 11
-6.27036
 21
-16.8386
  0
LINE
  8
0
 10
-6.27036
 20
-16.8386
 11
-6.26277
 21
-16.8875
  0
LINE
  8
0
 10
-6.26277
 20
-16.8875
 11
-6.25734
 21
-16.938
  0
LINE
  8
0
 10
-6.25734
 20
-16.938
 11
-6.25409
 21
-16.9902
  0
LINE
  8
0
 10
-6.25409
 20
-16.9902
 11
-6.25301
 21
-17.044
  0
LINE
  8
0
 10
-6.25301
 20
-17.044
 11
-6.26898
 21
-17.2242
  0
LINE
  8
0
 10
-6.26898
 20
-17.2242
 11
-6.36102
 21
-17.7352
  0
LINE
  8
0
 10
-6.36102
 20
-17.7352
 11
-6.54471
 21
-18.5307
  0
LINE
  8
0
 10
-6.54471
 20
-18.5307
 11
-6.68813
 21
-19.0291
  0
LINE
  8
0
 10
-6.68813
 20
-19.0291
 11
-6.85725
 21
-19.5402
  0
LINE
  8
0
 10
-6.85725
 20
-19.5402
 11
-7.06839
 21
-20.1049
  0
LINE
  8
0
 10
-7.06839
 20
-20.1049
 11
-7.2742
 21
-20.5931
  0
LINE
  8
0
 10
-7.2742
 20
-20.5931
 11
-7.47041
 21
-21.0109
  0
LINE
  8
0
 10
-7.47041
 20
-21.0109
 11
-7.65344
 21
-21.3629
  0
LINE
  8
0
 10
-7.65344
 20
-21.3629
 11
-7.72357
 21
-21.4802
  0
LINE
  8
0
 10
-7.72357
 20
-21.4802
 11
-7.79428
 21
-21.5856
  0
LINE
  8
0
 10
-7.79428
 20
-21.5856
 11
-7.86557
 21
-21.6791
  0
LINE
  8
0
 10
-7.86557
 20
-21.6791
 11
-7.93742
 21
-21.7607
  0
LINE
  8
0
 10
-7.93742
 20
-21.7607
 11
-8.00987
 21
-21.8303
  0
LINE
  8
0
 10
-8.00987
 20
-21.8303
 11
-8.05849
 21
-21.8701
  0
LINE
  8
0
 10
-8.05849
 20
-21.8701
 11
-8.10736
 21
-21.9045
  0
LINE
  8
0
 10
-8.10736
 20
-21.9045
 11
-8.15649
 21
-21.9337
  0
LINE
  8
0
 10
-8.15649
 20
-21.9337
 11
-8.20589
 21
-21.9576
  0
LINE
  8
0
 10
-8.20589
 20
-21.9576
 11
-8.25552
 21
-21.9761
  0
LINE
  8
0
 10
-8.25552
 20
-21.9761
 11
-8.30544
 21
-21.9894
  0
LINE
  8
0
 10
-8.30544
 20
-21.9894
 11
-8.35559
 21
-21.9974
  0
LINE
  8
0
 10
-8.35559
 20
-21.9974
 11
-8.40601
 21
-22
  0
LINE
  8
0
 10
-8.40601
 20
-22
 11
-8.59302
 21
-21.9961
  0
LINE
  8
0
 10
32.3168
 20
-14.1806
 11
32.2628
 21
-14.162
  0
LINE
  8
0
 10
32.2628
 20
-14.162
 11
32.2152
 21
-14.1346
  0
LINE
  8
0
 10
32.2152
 20
-14.1346
 11
32.1739
 21
-14.0982
  0
LINE
  8
0
 10
32.1739
 20
-14.0982
 11
32.1389
 21
-14.053
  0
LINE
  8
0
 10
32.1389
 20
-14.053
 11
32.0099
 21
-13.8073
  0
LINE
  8
0
 10
32.0099
 20
-13.8073
 11
31.7703
 21
-13.4837
  0
LINE
  8
0
 10
31.7703
 20
-13.4837
 11
31.5673
 21
-13.2276
  0
LINE
  8
0
 10
31.5673
 20
-13.2276
 11
31.3331
 21
-12.9454
  0
LINE
  8
0
 10
31.3331
 20
-12.9454
 11
31.0676
 21
-12.6373
  0
LINE
  8
0
 10
31.0676
 20
-12.6373
 11
30.6651
 21
-12.1861
  0
LINE
  8
0
 10
30.6651
 20
-12.1861
 11
30.207
 21
-11.6887
  0
LINE
  8
0
 10
30.207
 20
-11.6887
 11
29.6934
 21
-11.1451
  0
LINE
  8
0
 10
29.6934
 20
-11.1451
 11
28.9732
 21
-10.4007
  0
LINE
  8
0
 10
28.9732
 20
-10.4007
 11
28.1663
 21
-9.58401
  0
LINE
  8
0
 10
28.1663
 20
-9.58401
 11
20.8063
 21
-9.58401
  0
LINE
  8
0
 10
20.8063
 20
-9.58401
 11
20.5581
 21
-9.58786
  0
LINE
  8
0
 10
20.5581
 20
-9.58786
 11
20.3253
 21
-9.59941
  0
LINE
  8
0
 10
20.3253
 20
-9.59941
 11
20.1081
 21
-9.61865
  0
LINE
  8
0
 10
20.1081
 20
-9.61865
 11
19.9064
 21
-9.6456
  0
LINE
  8
0
 10
19.9064
 20
-9.6456
 11
19.7202
 21
-9.68024
  0
LINE
  8
0
 10
19.7202
 20
-9.68024
 11
19.5908
 21
-9.71127
  0
LINE
  8
0
 10
19.5908
 20
-9.71127
 11
19.4701
 21
-9.74664
  0
LINE
  8
0
 10
19.4701
 20
-9.74664
 11
19.3581
 21
-9.78635
  0
LINE
  8
0
 10
19.3581
 20
-9.78635
 11
19.2548
 21
-9.83037
  0
LINE
  8
0
 10
19.2548
 20
-9.83037
 11
19.1589
 21
-9.87933
  0
LINE
  8
0
 10
19.1589
 20
-9.87933
 11
19.0658
 21
-9.93523
  0
LINE
  8
0
 10
19.0658
 20
-9.93523
 11
18.9749
 21
-9.99818
  0
LINE
  8
0
 10
18.9749
 20
-9.99818
 11
18.8863
 21
-10.0682
  0
LINE
  8
0
 10
18.8863
 20
-10.0682
 11
18.8
 21
-10.1453
  0
LINE
  8
0
 10
18.8
 20
-10.1453
 11
18.716
 21
-10.2295
  0
LINE
  8
0
 10
18.716
 20
-10.2295
 11
18.6342
 21
-10.3208
  0
LINE
  8
0
 10
18.6342
 20
-10.3208
 11
18.5547
 21
-10.4191
  0
LINE
  8
0
 10
18.5547
 20
-10.4191
 11
18.4775
 21
-10.5245
  0
LINE
  8
0
 10
18.4775
 20
-10.5245
 11
18.3782
 21
-10.6761
  0
LINE
  8
0
 10
18.3782
 20
-10.6761
 11
16.9173
 21
-13.2
  0
LINE
  8
0
 10
16.9173
 20
-13.2
 11
16.8852
 21
-13.2605
  0
LINE
  8
0
 10
16.8852
 20
-13.2605
 11
16.8193
 21
-13.4155
  0
LINE
  8
0
 10
16.8193
 20
-13.4155
 11
16.7738
 21
-13.5755
  0
LINE
  8
0
 10
16.7738
 20
-13.5755
 11
16.7457
 21
-13.7565
  0
LINE
  8
0
 10
16.7457
 20
-13.7565
 11
16.7338
 21
-13.8013
  0
LINE
  8
0
 10
16.7338
 20
-13.8013
 11
16.7159
 21
-13.8416
  0
LINE
  8
0
 10
16.7159
 20
-13.8416
 11
16.6921
 21
-13.8773
  0
LINE
  8
0
 10
16.6921
 20
-13.8773
 11
16.6622
 21
-13.9085
  0
LINE
  8
0
 10
16.6622
 20
-13.9085
 11
16.6264
 21
-13.9351
  0
LINE
  8
0
 10
16.6264
 20
-13.9351
 11
16.5846
 21
-13.9572
  0
LINE
  8
0
 10
16.5846
 20
-13.9572
 11
16.5368
 21
-13.9747
  0
LINE
  8
0
 10
16.5368
 20
-13.9747
 11
16.4638
 21
-13.9909
  0
LINE
  8
0
 10
16.4638
 20
-13.9909
 11
16.3801
 21
-13.999
  0
LINE
  8
0
 10
16.3801
 20
-13.999
 11
16.1502
 21
-13.9976
  0
LINE
  8
0
 10
16.1502
 20
-13.9976
 11
15.8909
 21
-13.9847
  0
LINE
  8
0
 10
15.8909
 20
-13.9847
 11
15.6518
 21
-13.9608
  0
LINE
  8
0
 10
15.6518
 20
-13.9608
 11
15.433
 21
-13.9258
  0
LINE
  8
0
 10
15.433
 20
-13.9258
 11
15.2661
 21
-13.8882
  0
LINE
  8
0
 10
15.2661
 20
-13.8882
 11
15.1132
 21
-13.843
  0
LINE
  8
0
 10
15.1132
 20
-13.843
 11
15.0024
 21
-13.8015
  0
LINE
  8
0
 10
15.0024
 20
-13.8015
 11
14.9053
 21
-13.756
  0
LINE
  8
0
 10
14.9053
 20
-13.756
 11
14.8221
 21
-13.7063
  0
LINE
  8
0
 10
14.8221
 20
-13.7063
 11
14.7688
 21
-13.6665
  0
LINE
  8
0
 10
14.7688
 20
-13.6665
 11
14.7233
 21
-13.6243
  0
LINE
  8
0
 10
14.7233
 20
-13.6243
 11
14.6855
 21
-13.5799
  0
LINE
  8
0
 10
14.6855
 20
-13.5799
 11
14.6557
 21
-13.5332
  0
LINE
  8
0
 10
14.6557
 20
-13.5332
 11
14.6335
 21
-13.4842
  0
LINE
  8
0
 10
14.6335
 20
-13.4842
 11
14.6192
 21
-13.4329
  0
LINE
  8
0
 10
14.6192
 20
-13.4329
 11
14.6127
 21
-13.3794
  0
LINE
  8
0
 10
14.6127
 20
-13.3794
 11
14.6133
 21
-13.3305
  0
LINE
  8
0
 10
14.6133
 20
-13.3305
 11
14.6248
 21
-13.2533
  0
LINE
  8
0
 10
14.6248
 20
-13.2533
 11
14.6489
 21
-13.1749
  0
LINE
  8
0
 10
14.6489
 20
-13.1749
 11
14.6858
 21
-13.0952
  0
LINE
  8
0
 10
14.6858
 20
-13.0952
 11
14.7354
 21
-13.0143
  0
LINE
  8
0
 10
14.7354
 20
-13.0143
 11
14.8117
 21
-12.9156
  0
LINE
  8
0
 10
14.8117
 20
-12.9156
 11
14.9754
 21
-12.7433
  0
LINE
  8
0
 10
14.9754
 20
-12.7433
 11
15.2969
 21
-12.3751
  0
LINE
  8
0
 10
15.2969
 20
-12.3751
 11
15.9725
 21
-11.4942
  0
LINE
  8
0
 10
15.9725
 20
-11.4942
 11
16.7134
 21
-10.4448
  0
LINE
  8
0
 10
16.7134
 20
-10.4448
 11
17.6021
 21
-9.09906
  0
LINE
  8
0
 10
17.6021
 20
-9.09906
 11
18.7361
 21
-7.26785
  0
LINE
  8
0
 10
18.7361
 20
-7.26785
 11
19.7119
 21
-5.59084
  0
LINE
  8
0
 10
19.7119
 20
-5.59084
 11
20.3376
 21
-4.42375
  0
LINE
  8
0
 10
20.3376
 20
-4.42375
 11
20.7357
 21
-3.60559
  0
LINE
  8
0
 10
20.7357
 20
-3.60559
 11
20.9363
 21
-3.13753
  0
LINE
  8
0
 10
20.9363
 20
-3.13753
 11
21.018
 21
-2.90582
  0
LINE
  8
0
 10
21.018
 20
-2.90582
 11
21.0626
 21
-2.73933
  0
LINE
  8
0
 10
21.0626
 20
-2.73933
 11
21.081
 21
-2.62357
  0
LINE
  8
0
 10
21.081
 20
-2.62357
 11
21.0824
 21
-2.54095
  0
LINE
  8
0
 10
21.0824
 20
-2.54095
 11
21.0755
 21
-2.47069
  0
LINE
  8
0
 10
21.0755
 20
-2.47069
 11
21.0616
 21
-2.39757
  0
LINE
  8
0
 10
21.0616
 20
-2.39757
 11
21.0408
 21
-2.32158
  0
LINE
  8
0
 10
21.0408
 20
-2.32158
 11
21.0131
 21
-2.24272
  0
LINE
  8
0
 10
21.0131
 20
-2.24272
 11
20.9784
 21
-2.16101
  0
LINE
  8
0
 10
20.9784
 20
-2.16101
 11
20.9368
 21
-2.07642
  0
LINE
  8
0
 10
20.9368
 20
-2.07642
 11
20.8883
 21
-1.98897
  0
LINE
  8
0
 10
20.8883
 20
-1.98897
 11
20.8328
 21
-1.89867
  0
LINE
  8
0
 10
20.8328
 20
-1.89867
 11
20.7704
 21
-1.80548
  0
LINE
  8
0
 10
20.7704
 20
-1.80548
 11
20.6637
 21
-1.66034
  0
LINE
  8
0
 10
20.6637
 20
-1.66034
 11
20.5415
 21
-1.50876
  0
LINE
  8
0
 10
20.5415
 20
-1.50876
 11
20.4037
 21
-1.35072
  0
LINE
  8
0
 10
20.4037
 20
-1.35072
 11
20.2503
 21
-1.18625
  0
LINE
  8
0
 10
20.2503
 20
-1.18625
 11
17.8613
 21
1.23399
  0
LINE
  8
0
 10
17.8613
 20
1.23399
 11
17.7463
 21
1.3546
  0
LINE
  8
0
 10
17.7463
 20
1.3546
 11
17.5109
 21
1.57935
  0
LINE
  8
0
 10
17.5109
 20
1.57935
 11
17.3366
 21
1.72176
  0
LINE
  8
0
 10
17.3366
 20
1.72176
 11
17.1034
 21
1.87958
  0
LINE
  8
0
 10
17.1034
 20
1.87958
 11
17.0409
 21
1.93456
  0
LINE
  8
0
 10
17.0409
 20
1.93456
 11
16.9911
 21
1.9921
  0
LINE
  8
0
 10
16.9911
 20
1.9921
 11
16.9541
 21
2.05222
  0
LINE
  8
0
 10
16.9541
 20
2.05222
 11
16.9336
 21
2.10216
  0
LINE
  8
0
 10
16.9336
 20
2.10216
 11
16.9214
 21
2.15375
  0
LINE
  8
0
 10
16.9214
 20
2.15375
 11
16.9173
 21
2.20699
  0
LINE
  8
0
 10
16.9173
 20
2.20699
 11
16.9204
 21
2.23451
  0
LINE
  8
0
 10
16.9204
 20
2.23451
 11
16.9364
 21
2.27812
  0
LINE
  8
0
 10
16.9364
 20
2.27812
 11
16.9792
 21
2.34058
  0
LINE
  8
0
 10
16.9792
 20
2.34058
 11
17.067
 21
2.4256
  0
LINE
  8
0
 10
17.067
 20
2.4256
 11
17.2722
 21
2.573
  0
LINE
  8
0
 10
17.2722
 20
2.573
 11
17.764
 21
2.85733
  0
LINE
  8
0
 10
17.764
 20
2.85733
 11
18.1989
 21
3.04762
  0
LINE
  8
0
 10
18.1989
 20
3.04762
 11
18.4414
 21
3.12253
  0
LINE
  8
0
 10
18.4414
 20
3.12253
 11
18.6063
 21
3.14944
  0
LINE
  8
0
 10
18.6063
 20
3.14944
 11
18.8877
 21
3.14941
  0
LINE
  8
0
 10
18.8877
 20
3.14941
 11
19.3311
 21
3.1162
  0
LINE
  8
0
 10
19.3311
 20
3.1162
 11
19.5
 21
3.07292
  0
LINE
  8
0
 10
19.5
 20
3.07292
 11
19.6249
 21
3.01605
  0
LINE
  8
0
 10
19.6249
 20
3.01605
 11
19.7242
 21
2.9462
  0
LINE
  8
0
 10
19.7242
 20
2.9462
 11
19.8109
 21
2.85481
  0
LINE
  8
0
 10
19.8109
 20
2.85481
 11
19.8852
 21
2.74164
  0
LINE
  8
0
 10
19.8852
 20
2.74164
 11
20.1803
 21
2.08498
  0
LINE
  8
0
 10
20.1803
 20
2.08498
 11
20.3057
 21
1.87654
  0
LINE
  8
0
 10
20.3057
 20
1.87654
 11
20.7004
 21
1.34009
  0
LINE
  8
0
 10
20.7004
 20
1.34009
 11
22.3908
 21
-0.726761
  0
LINE
  8
0
 10
22.3908
 20
-0.726761
 11
23.8118
 21
-2.4039
  0
LINE
  8
0
 10
23.8118
 20
-2.4039
 11
24.9723
 21
-3.74101
  0
LINE
  8
0
 10
24.9723
 20
-3.74101
 11
26.2183
 21
-5.13696
  0
LINE
  8
0
 10
26.2183
 20
-5.13696
 11
27.2881
 21
-6.29936
  0
LINE
  8
0
 10
27.2881
 20
-6.29936
 11
28.2023
 21
-7.2601
  0
LINE
  8
0
 10
28.2023
 20
-7.2601
 11
29.0812
 21
-8.15077
  0
LINE
  8
0
 10
29.0812
 20
-8.15077
 11
29.8589
 21
-8.90955
  0
LINE
  8
0
 10
29.8589
 20
-8.90955
 11
30.6164
 21
-9.62019
  0
LINE
  8
0
 10
30.6164
 20
-9.62019
 11
33.2996
 21
-12.0401
  0
LINE
  8
0
 10
33.2996
 20
-12.0401
 11
33.464
 21
-12.1672
  0
LINE
  8
0
 10
33.464
 20
-12.1672
 11
33.6075
 21
-12.2556
  0
LINE
  8
0
 10
33.6075
 20
-12.2556
 11
33.7316
 21
-12.3134
  0
LINE
  8
0
 10
33.7316
 20
-12.3134
 11
34.2502
 21
-12.483
  0
LINE
  8
0
 10
34.2502
 20
-12.483
 11
34.401
 21
-12.5515
  0
LINE
  8
0
 10
34.401
 20
-12.5515
 11
34.5123
 21
-12.6343
  0
LINE
  8
0
 10
34.5123
 20
-12.6343
 11
34.5516
 21
-12.6863
  0
LINE
  8
0
 10
34.5516
 20
-12.6863
 11
34.5808
 21
-12.752
  0
LINE
  8
0
 10
34.5808
 20
-12.752
 11
34.6021
 21
-12.844
  0
LINE
  8
0
 10
34.6021
 20
-12.844
 11
34.6103
 21
-12.969
  0
LINE
  8
0
 10
34.6103
 20
-12.969
 11
34.6068
 21
-13.0049
  0
LINE
  8
0
 10
34.6068
 20
-13.0049
 11
34.5787
 21
-13.0902
  0
LINE
  8
0
 10
34.5787
 20
-13.0902
 11
34.5002
 21
-13.2279
  0
LINE
  8
0
 10
34.5002
 20
-13.2279
 11
34.3045
 21
-13.4783
  0
LINE
  8
0
 10
34.3045
 20
-13.4783
 11
34.015
 21
-13.7675
  0
LINE
  8
0
 10
34.015
 20
-13.7675
 11
33.7325
 21
-13.9909
  0
LINE
  8
0
 10
33.7325
 20
-13.9909
 11
33.5213
 21
-14.1185
  0
LINE
  8
0
 10
33.5213
 20
-14.1185
 11
33.3894
 21
-14.1704
  0
LINE
  8
0
 10
33.3894
 20
-14.1704
 11
33.2906
 21
-14.19
  0
LINE
  8
0
 10
33.2906
 20
-14.19
 11
32.3771
 21
-14.1904
  0
LINE
  8
0
 10
32.3771
 20
-14.1904
 11
32.3168
 21
-14.1806
  0
LINE
  8
0
 10
25.5145
 20
-8.26224
 11
26.2348
 21
-8.20892
  0
LINE
  8
0
 10
26.2348
 20
-8.20892
 11
26.5688
 21
-8.15126
  0
LINE
  8
0
 10
26.5688
 20
-8.15126
 11
26.7783
 21
-8.08
  0
LINE
  8
0
 10
26.7783
 20
-8.08
 11
22.4173
 21
-3.60201
  0
LINE
  8
0
 10
22.4173
 20
-3.60201
 11
20.5833
 21
-6.79301
  0
LINE
  8
0
 10
20.5833
 20
-6.79301
 11
20.0496
 21
-7.75645
  0
LINE
  8
0
 10
20.0496
 20
-7.75645
 11
20.0086
 21
-7.88748
  0
LINE
  8
0
 10
20.0086
 20
-7.88748
 11
20.0006
 21
-7.98143
  0
LINE
  8
0
 10
20.0006
 20
-7.98143
 11
20.0186
 21
-8.07225
  0
LINE
  8
0
 10
20.0186
 20
-8.07225
 11
20.0612
 21
-8.14137
  0
LINE
  8
0
 10
20.0612
 20
-8.14137
 11
20.1084
 21
-8.17781
  0
LINE
  8
0
 10
20.1084
 20
-8.17781
 11
20.1966
 21
-8.21098
  0
LINE
  8
0
 10
20.1966
 20
-8.21098
 11
20.4007
 21
-8.24628
  0
LINE
  8
0
 10
20.4007
 20
-8.24628
 11
21.429
 21
-8.29393
  0
LINE
  8
0
 10
21.429
 20
-8.29393
 11
25.5145
 21
-8.26224
  0
LINE
  8
0
 10
-15.8367
 20
-13.7141
 11
-16.1509
 21
-13.6702
  0
LINE
  8
0
 10
-16.1509
 20
-13.6702
 11
-16.5279
 21
-13.5975
  0
LINE
  8
0
 10
-16.5279
 20
-13.5975
 11
-16.8778
 21
-13.5123
  0
LINE
  8
0
 10
-16.8778
 20
-13.5123
 11
-17.2268
 21
-13.409
  0
LINE
  8
0
 10
-17.2268
 20
-13.409
 11
-17.5741
 21
-13.2878
  0
LINE
  8
0
 10
-17.5741
 20
-13.2878
 11
-17.9198
 21
-13.1488
  0
LINE
  8
0
 10
-17.9198
 20
-13.1488
 11
-18.2197
 21
-13.0122
  0
LINE
  8
0
 10
-18.2197
 20
-13.0122
 11
-18.5116
 21
-12.8618
  0
LINE
  8
0
 10
-18.5116
 20
-12.8618
 11
-18.7947
 21
-12.6977
  0
LINE
  8
0
 10
-18.7947
 20
-12.6977
 11
-19.0691
 21
-12.5199
  0
LINE
  8
0
 10
-19.0691
 20
-12.5199
 11
-19.3348
 21
-12.3285
  0
LINE
  8
0
 10
-19.3348
 20
-12.3285
 11
-19.5159
 21
-12.184
  0
LINE
  8
0
 10
-19.5159
 20
-12.184
 11
-19.6508
 21
-12.0646
  0
LINE
  8
0
 10
-19.6508
 20
-12.0646
 11
-19.7768
 21
-11.9421
  0
LINE
  8
0
 10
-19.7768
 20
-11.9421
 11
-19.8938
 21
-11.8162
  0
LINE
  8
0
 10
-19.8938
 20
-11.8162
 11
-20.0018
 21
-11.6871
  0
LINE
  8
0
 10
-20.0018
 20
-11.6871
 11
-20.1009
 21
-11.5547
  0
LINE
  8
0
 10
-20.1009
 20
-11.5547
 11
-20.191
 21
-11.4191
  0
LINE
  8
0
 10
-20.191
 20
-11.4191
 11
-20.2721
 21
-11.2802
  0
LINE
  8
0
 10
-20.2721
 20
-11.2802
 11
-20.3311
 21
-11.1653
  0
LINE
  8
0
 10
-20.3311
 20
-11.1653
 11
-20.4093
 21
-10.992
  0
LINE
  8
0
 10
-20.4093
 20
-10.992
 11
-20.4845
 21
-10.8004
  0
LINE
  8
0
 10
-20.4845
 20
-10.8004
 11
-20.5569
 21
-10.5905
  0
LINE
  8
0
 10
-20.5569
 20
-10.5905
 11
-20.6265
 21
-10.3623
  0
LINE
  8
0
 10
-20.6265
 20
-10.3623
 11
-20.7095
 21
-10.0512
  0
LINE
  8
0
 10
-20.7095
 20
-10.0512
 11
-20.788
 21
-9.71141
  0
LINE
  8
0
 10
-20.788
 20
-9.71141
 11
-20.862
 21
-9.343
  0
LINE
  8
0
 10
-20.862
 20
-9.343
 11
-20.9584
 21
-8.78741
  0
LINE
  8
0
 10
-20.9584
 20
-8.78741
 11
-21.0596
 21
-8.10507
  0
LINE
  8
0
 10
-21.0596
 20
-8.10507
 11
-21.1619
 21
-7.27702
  0
LINE
  8
0
 10
-21.1619
 20
-7.27702
 11
-21.252
 21
-6.38501
  0
LINE
  8
0
 10
-21.252
 20
-6.38501
 11
-21.3448
 21
-5.22023
  0
LINE
  8
0
 10
-21.3448
 20
-5.22023
 11
-21.4191
 21
-3.98456
  0
LINE
  8
0
 10
-21.4191
 20
-3.98456
 11
-21.4791
 21
-2.55592
  0
LINE
  8
0
 10
-21.4791
 20
-2.55592
 11
-21.5278
 21
-0.578003
  0
LINE
  8
0
 10
-21.5278
 20
-0.578003
 11
-21.5439
 21
1.48439
  0
LINE
  8
0
 10
-21.5439
 20
1.48439
 11
-21.5326
 21
1.80002
  0
LINE
  8
0
 10
-21.5326
 20
1.80002
 11
-21.5111
 21
2.00829
  0
LINE
  8
0
 10
-21.5111
 20
2.00829
 11
-21.4838
 21
2.16087
  0
LINE
  8
0
 10
-21.4838
 20
2.16087
 11
-21.4482
 21
2.28952
  0
LINE
  8
0
 10
-21.4482
 20
2.28952
 11
-21.4122
 21
2.37859
  0
LINE
  8
0
 10
-21.4122
 20
2.37859
 11
-21.3857
 21
2.42531
  0
LINE
  8
0
 10
-21.3857
 20
2.42531
 11
-21.3544
 21
2.46742
  0
LINE
  8
0
 10
-21.3544
 20
2.46742
 11
-21.3183
 21
2.50494
  0
LINE
  8
0
 10
-21.3183
 20
2.50494
 11
-21.2775
 21
2.53789
  0
LINE
  8
0
 10
-21.2775
 20
2.53789
 11
-21.2318
 21
2.56622
  0
LINE
  8
0
 10
-21.2318
 20
2.56622
 11
-21.1814
 21
2.58995
  0
LINE
  8
0
 10
-21.1814
 20
2.58995
 11
-21.1068
 21
2.61447
  0
LINE
  8
0
 10
-21.1068
 20
2.61447
 11
-21.0236
 21
2.6308
  0
LINE
  8
0
 10
-21.0236
 20
2.6308
 11
-20.932
 21
2.63898
  0
LINE
  8
0
 10
-20.932
 20
2.63898
 11
-20.8464
 21
2.63861
  0
LINE
  8
0
 10
-20.8464
 20
2.63861
 11
-20.7345
 21
2.62143
  0
LINE
  8
0
 10
-20.7345
 20
2.62143
 11
-20.5649
 21
2.57236
  0
LINE
  8
0
 10
-20.5649
 20
2.57236
 11
-20.2955
 21
2.46286
  0
LINE
  8
0
 10
-20.2955
 20
2.46286
 11
-19.8893
 21
2.2583
  0
LINE
  8
0
 10
-19.8893
 20
2.2583
 11
-19.4616
 21
1.99783
  0
LINE
  8
0
 10
-19.4616
 20
1.99783
 11
-19.1306
 21
1.75829
  0
LINE
  8
0
 10
-19.1306
 20
1.75829
 11
-18.8573
 21
1.52234
  0
LINE
  8
0
 10
-18.8573
 20
1.52234
 11
-18.7704
 21
1.42912
  0
LINE
  8
0
 10
-18.7704
 20
1.42912
 11
-18.7029
 21
1.33867
  0
LINE
  8
0
 10
-18.7029
 20
1.33867
 11
-18.6613
 21
1.26543
  0
LINE
  8
0
 10
-18.6613
 20
1.26543
 11
-18.6332
 21
1.19409
  0
LINE
  8
0
 10
-18.6332
 20
1.19409
 11
-18.6203
 21
1.13843
  0
LINE
  8
0
 10
-18.6203
 20
1.13843
 11
-18.616
 21
1.084
  0
LINE
  8
0
 10
-18.616
 20
1.084
 11
-18.625
 21
0.975113
  0
LINE
  8
0
 10
-18.625
 20
0.975113
 11
-18.652
 21
0.8647
  0
LINE
  8
0
 10
-18.652
 20
0.8647
 11
-18.6969
 21
0.752747
  0
LINE
  8
0
 10
-18.6969
 20
0.752747
 11
-18.853
 21
0.474548
  0
LINE
  8
0
 10
-18.853
 20
0.474548
 11
-18.9588
 21
0.231674
  0
LINE
  8
0
 10
-18.9588
 20
0.231674
 11
-19.0981
 21
-0.171417
  0
LINE
  8
0
 10
-19.0981
 20
-0.171417
 11
-19.1879
 21
-0.499878
  0
LINE
  8
0
 10
-19.1879
 20
-0.499878
 11
-19.2853
 21
-0.942459
  0
LINE
  8
0
 10
-19.2853
 20
-0.942459
 11
-19.408
 21
-1.64001
  0
LINE
  8
0
 10
-19.408
 20
-1.64001
 11
-19.4506
 21
-1.95116
  0
LINE
  8
0
 10
-19.4506
 20
-1.95116
 11
-19.4862
 21
-2.29549
  0
LINE
  8
0
 10
-19.4862
 20
-2.29549
 11
-19.5197
 21
-2.75252
  0
LINE
  8
0
 10
-19.5197
 20
-2.75252
 11
-19.5431
 21
-3.25734
  0
LINE
  8
0
 10
-19.5431
 20
-3.25734
 11
-19.5578
 21
-3.90672
  0
LINE
  8
0
 10
-19.5578
 20
-3.90672
 11
-19.5586
 21
-4.73154
  0
LINE
  8
0
 10
-19.5586
 20
-4.73154
 11
-19.54
 21
-5.82945
  0
LINE
  8
0
 10
-19.54
 20
-5.82945
 11
-19.5043
 21
-6.73903
  0
LINE
  8
0
 10
-19.5043
 20
-6.73903
 11
-19.4567
 21
-7.48573
  0
LINE
  8
0
 10
-19.4567
 20
-7.48573
 11
-19.4337
 21
-7.72171
  0
LINE
  8
0
 10
-19.4337
 20
-7.72171
 11
-19.4045
 21
-7.95287
  0
LINE
  8
0
 10
-19.4045
 20
-7.95287
 11
-19.369
 21
-8.1792
  0
LINE
  8
0
 10
-19.369
 20
-8.1792
 11
-19.3273
 21
-8.4007
  0
LINE
  8
0
 10
-19.3273
 20
-8.4007
 11
-19.2794
 21
-8.61737
  0
LINE
  8
0
 10
-19.2794
 20
-8.61737
 11
-19.2252
 21
-8.82921
  0
LINE
  8
0
 10
-19.2252
 20
-8.82921
 11
-19.1648
 21
-9.03622
  0
LINE
  8
0
 10
-19.1648
 20
-9.03622
 11
-19.0982
 21
-9.23842
  0
LINE
  8
0
 10
-19.0982
 20
-9.23842
 11
-19.0253
 21
-9.43579
  0
LINE
  8
0
 10
-19.0253
 20
-9.43579
 11
-18.9462
 21
-9.62833
  0
LINE
  8
0
 10
-18.9462
 20
-9.62833
 11
-18.8384
 21
-9.86806
  0
LINE
  8
0
 10
-18.8384
 20
-9.86806
 11
-18.7624
 21
-10.0089
  0
LINE
  8
0
 10
-18.7624
 20
-10.0089
 11
-18.6737
 21
-10.1478
  0
LINE
  8
0
 10
-18.6737
 20
-10.1478
 11
-18.5722
 21
-10.2847
  0
LINE
  8
0
 10
-18.5722
 20
-10.2847
 11
-18.4579
 21
-10.4198
  0
LINE
  8
0
 10
-18.4579
 20
-10.4198
 11
-18.3308
 21
-10.5529
  0
LINE
  8
0
 10
-18.3308
 20
-10.5529
 11
-18.1621
 21
-10.7098
  0
LINE
  8
0
 10
-18.1621
 20
-10.7098
 11
-17.8926
 21
-10.934
  0
LINE
  8
0
 10
-17.8926
 20
-10.934
 11
-17.6086
 21
-11.144
  0
LINE
  8
0
 10
-17.6086
 20
-11.144
 11
-17.3102
 21
-11.3396
  0
LINE
  8
0
 10
-17.3102
 20
-11.3396
 11
-17.0335
 21
-11.5007
  0
LINE
  8
0
 10
-17.0335
 20
-11.5007
 11
-16.7509
 21
-11.6459
  0
LINE
  8
0
 10
-16.7509
 20
-11.6459
 11
-16.4634
 21
-11.7749
  0
LINE
  8
0
 10
-16.4634
 20
-11.7749
 11
-16.1711
 21
-11.8877
  0
LINE
  8
0
 10
-16.1711
 20
-11.8877
 11
-15.8751
 21
-11.9837
  0
LINE
  8
0
 10
-15.8751
 20
-11.9837
 11
-15.6236
 21
-12.0498
  0
LINE
  8
0
 10
-15.6236
 20
-12.0498
 11
-15.3821
 21
-12.0984
  0
LINE
  8
0
 10
-15.3821
 20
-12.0984
 11
-15.1507
 21
-12.1296
  0
LINE
  8
0
 10
-15.1507
 20
-12.1296
 11
-14.9604
 21
-12.1424
  0
LINE
  8
0
 10
-14.9604
 20
-12.1424
 11
-14.7405
 21
-12.1422
  0
LINE
  8
0
 10
-14.7405
 20
-12.1422
 11
-14.5535
 21
-12.1325
  0
LINE
  8
0
 10
-14.5535
 20
-12.1325
 11
-14.3716
 21
-12.1146
  0
LINE
  8
0
 10
-14.3716
 20
-12.1146
 11
-14.1948
 21
-12.0885
  0
LINE
  8
0
 10
-14.1948
 20
-12.0885
 11
-14.0797
 21
-12.0664
  0
LINE
  8
0
 10
-14.0797
 20
-12.0664
 11
-13.9669
 21
-12.0407
  0
LINE
  8
0
 10
-13.9669
 20
-12.0407
 11
-13.8563
 21
-12.0113
  0
LINE
  8
0
 10
-13.8563
 20
-12.0113
 11
-13.748
 21
-11.9783
  0
LINE
  8
0
 10
-13.748
 20
-11.9783
 11
-13.642
 21
-11.9415
  0
LINE
  8
0
 10
-13.642
 20
-11.9415
 11
-13.5382
 21
-11.9011
  0
LINE
  8
0
 10
-13.5382
 20
-11.9011
 11
-13.4366
 21
-11.857
  0
LINE
  8
0
 10
-13.4366
 20
-11.857
 11
-13.3373
 21
-11.8093
  0
LINE
  8
0
 10
-13.3373
 20
-11.8093
 11
-13.2403
 21
-11.7579
  0
LINE
  8
0
 10
-13.2403
 20
-11.7579
 11
-13.1455
 21
-11.7028
  0
LINE
  8
0
 10
-13.1455
 20
-11.7028
 11
-13.053
 21
-11.644
  0
LINE
  8
0
 10
-13.053
 20
-11.644
 11
-12.918
 21
-11.5505
  0
LINE
  8
0
 10
-12.918
 20
-11.5505
 11
-12.7872
 21
-11.4516
  0
LINE
  8
0
 10
-12.7872
 20
-11.4516
 11
-12.6605
 21
-11.3475
  0
LINE
  8
0
 10
-12.6605
 20
-11.3475
 11
-12.538
 21
-11.2382
  0
LINE
  8
0
 10
-12.538
 20
-11.2382
 11
-12.4196
 21
-11.1236
  0
LINE
  8
0
 10
-12.4196
 20
-11.1236
 11
-12.3054
 21
-11.0036
  0
LINE
  8
0
 10
-12.3054
 20
-11.0036
 11
-12.1954
 21
-10.8785
  0
LINE
  8
0
 10
-12.1954
 20
-10.8785
 11
-12.0896
 21
-10.748
  0
LINE
  8
0
 10
-12.0896
 20
-10.748
 11
-11.9879
 21
-10.6123
  0
LINE
  8
0
 10
-11.9879
 20
-10.6123
 11
-11.8904
 21
-10.4713
  0
LINE
  8
0
 10
-11.8904
 20
-10.4713
 11
-11.797
 21
-10.325
  0
LINE
  8
0
 10
-11.797
 20
-10.325
 11
-11.6781
 21
-10.1232
  0
LINE
  8
0
 10
-11.6781
 20
-10.1232
 11
-11.5655
 21
-9.91527
  0
LINE
  8
0
 10
-11.5655
 20
-9.91527
 11
-11.459
 21
-9.70128
  0
LINE
  8
0
 10
-11.459
 20
-9.70128
 11
-11.3586
 21
-9.4812
  0
LINE
  8
0
 10
-11.3586
 20
-9.4812
 11
-11.2645
 21
-9.25504
  0
LINE
  8
0
 10
-11.2645
 20
-9.25504
 11
-11.1554
 21
-8.96378
  0
LINE
  8
0
 10
-11.1554
 20
-8.96378
 11
-11.056
 21
-8.66302
  0
LINE
  8
0
 10
-11.056
 20
-8.66302
 11
-10.9659
 21
-8.35326
  0
LINE
  8
0
 10
-10.9659
 20
-8.35326
 11
-10.8522
 21
-7.91423
  0
LINE
  8
0
 10
-10.8522
 20
-7.91423
 11
-10.7523
 21
-7.47153
  0
LINE
  8
0
 10
-10.7523
 20
-7.47153
 11
-10.6665
 21
-7.02512
  0
LINE
  8
0
 10
-10.6665
 20
-7.02512
 11
-10.5946
 21
-6.57503
  0
LINE
  8
0
 10
-10.5946
 20
-6.57503
 11
-10.513
 21
-5.93022
  0
LINE
  8
0
 10
-10.513
 20
-5.93022
 11
-10.4343
 21
-5.10976
  0
LINE
  8
0
 10
-10.4343
 20
-5.10976
 11
-10.3886
 21
-4.37167
  0
LINE
  8
0
 10
-10.3886
 20
-4.37167
 11
-10.3459
 21
-2.89044
  0
LINE
  8
0
 10
-10.3459
 20
-2.89044
 11
-10.3589
 21
-1.61934
  0
LINE
  8
0
 10
-10.3589
 20
-1.61934
 11
-10.3967
 21
-0.935684
  0
LINE
  8
0
 10
-10.3967
 20
-0.935684
 11
-10.5277
 21
0.309875
  0
LINE
  8
0
 10
-10.5277
 20
0.309875
 11
-10.6671
 21
1.05594
  0
LINE
  8
0
 10
-10.6671
 20
1.05594
 11
-10.6745
 21
1.25279
  0
LINE
  8
0
 10
-10.6745
 20
1.25279
 11
-10.6633
 21
1.33215
  0
LINE
  8
0
 10
-10.6633
 20
1.33215
 11
-10.6431
 21
1.405
  0
LINE
  8
0
 10
-10.6431
 20
1.405
 11
-10.6221
 21
1.45534
  0
LINE
  8
0
 10
-10.6221
 20
1.45534
 11
-10.5961
 21
1.50201
  0
LINE
  8
0
 10
-10.5961
 20
1.50201
 11
-10.565
 21
1.54503
  0
LINE
  8
0
 10
-10.565
 20
1.54503
 11
-10.5289
 21
1.58437
  0
LINE
  8
0
 10
-10.5289
 20
1.58437
 11
-10.4877
 21
1.62004
  0
LINE
  8
0
 10
-10.4877
 20
1.62004
 11
-10.4249
 21
1.66188
  0
LINE
  8
0
 10
-10.4249
 20
1.66188
 11
-10.3533
 21
1.6973
  0
LINE
  8
0
 10
-10.3533
 20
1.6973
 11
-10.2155
 21
1.74821
  0
LINE
  8
0
 10
-10.2155
 20
1.74821
 11
-10.0651
 21
1.78664
  0
LINE
  8
0
 10
-10.0651
 20
1.78664
 11
-9.90224
 21
1.81255
  0
LINE
  8
0
 10
-9.90224
 20
1.81255
 11
-9.70078
 21
1.82684
  0
LINE
  8
0
 10
-9.70078
 20
1.82684
 11
-9.49445
 21
1.82451
  0
LINE
  8
0
 10
-9.49445
 20
1.82451
 11
-9.3403
 21
1.81036
  0
LINE
  8
0
 10
-9.3403
 20
1.81036
 11
-9.19064
 21
1.78534
  0
LINE
  8
0
 10
-9.19064
 20
1.78534
 11
-9.0455
 21
1.74942
  0
LINE
  8
0
 10
-9.0455
 20
1.74942
 11
-8.90485
 21
1.70264
  0
LINE
  8
0
 10
-8.90485
 20
1.70264
 11
-8.76869
 21
1.64496
  0
LINE
  8
0
 10
-8.76869
 20
1.64496
 11
-8.63728
 21
1.57648
  0
LINE
  8
0
 10
-8.63728
 20
1.57648
 11
-8.56485
 21
1.53032
  0
LINE
  8
0
 10
-8.56485
 20
1.53032
 11
-8.49956
 21
1.48026
  0
LINE
  8
0
 10
-8.49956
 20
1.48026
 11
-8.44138
 21
1.42628
  0
LINE
  8
0
 10
-8.44138
 20
1.42628
 11
-8.39032
 21
1.36842
  0
LINE
  8
0
 10
-8.39032
 20
1.36842
 11
-8.34639
 21
1.30667
  0
LINE
  8
0
 10
-8.34639
 20
1.30667
 11
-8.30959
 21
1.241
  0
LINE
  8
0
 10
-8.30959
 20
1.241
 11
-8.27989
 21
1.17143
  0
LINE
  8
0
 10
-8.27989
 20
1.17143
 11
-8.25734
 21
1.09798
  0
LINE
  8
0
 10
-8.25734
 20
1.09798
 11
-8.2419
 21
1.0206
  0
LINE
  8
0
 10
-8.2419
 20
1.0206
 11
-8.2336
 21
0.939331
  0
LINE
  8
0
 10
-8.2336
 20
0.939331
 11
-8.23232
 21
0.840942
  0
LINE
  8
0
 10
-8.23232
 20
0.840942
 11
-8.26602
 21
0.2733
  0
LINE
  8
0
 10
-8.26602
 20
0.2733
 11
-8.55592
 21
-2.29466
  0
LINE
  8
0
 10
-8.55592
 20
-2.29466
 11
-8.99278
 21
-5.34778
  0
LINE
  8
0
 10
-8.99278
 20
-5.34778
 11
-9.34381
 21
-7.34486
  0
LINE
  8
0
 10
-9.34381
 20
-7.34486
 11
-9.57623
 21
-8.41968
  0
LINE
  8
0
 10
-9.57623
 20
-8.41968
 11
-9.74541
 21
-9.07341
  0
LINE
  8
0
 10
-9.74541
 20
-9.07341
 11
-9.87241
 21
-9.47678
  0
LINE
  8
0
 10
-9.87241
 20
-9.47678
 11
-9.94398
 21
-9.65965
  0
LINE
  8
0
 10
-9.94398
 20
-9.65965
 11
-10.029
 21
-9.8532
  0
LINE
  8
0
 10
-10.029
 20
-9.8532
 11
-10.1179
 21
-10.0417
  0
LINE
  8
0
 10
-10.1179
 20
-10.0417
 11
-10.2109
 21
-10.2252
  0
LINE
  8
0
 10
-10.2109
 20
-10.2252
 11
-10.3078
 21
-10.4037
  0
LINE
  8
0
 10
-10.3078
 20
-10.4037
 11
-10.4088
 21
-10.5772
  0
LINE
  8
0
 10
-10.4088
 20
-10.5772
 11
-10.5137
 21
-10.7457
  0
LINE
  8
0
 10
-10.5137
 20
-10.7457
 11
-10.6227
 21
-10.9092
  0
LINE
  8
0
 10
-10.6227
 20
-10.9092
 11
-10.7356
 21
-11.0677
  0
LINE
  8
0
 10
-10.7356
 20
-11.0677
 11
-10.8526
 21
-11.2211
  0
LINE
  8
0
 10
-10.8526
 20
-11.2211
 11
-10.9735
 21
-11.3696
  0
LINE
  8
0
 10
-10.9735
 20
-11.3696
 11
-11.0984
 21
-11.513
  0
LINE
  8
0
 10
-11.0984
 20
-11.513
 11
-11.2273
 21
-11.6514
  0
LINE
  8
0
 10
-11.2273
 20
-11.6514
 11
-11.3603
 21
-11.7848
  0
LINE
  8
0
 10
-11.3603
 20
-11.7848
 11
-11.4972
 21
-11.9132
  0
LINE
  8
0
 10
-11.4972
 20
-11.9132
 11
-11.6381
 21
-12.0366
  0
LINE
  8
0
 10
-11.6381
 20
-12.0366
 11
-11.783
 21
-12.155
  0
LINE
  8
0
 10
-11.783
 20
-12.155
 11
-12.0031
 21
-12.3246
  0
LINE
  8
0
 10
-12.0031
 20
-12.3246
 11
-12.2229
 21
-12.4862
  0
LINE
  8
0
 10
-12.2229
 20
-12.4862
 11
-12.4426
 21
-12.6397
  0
LINE
  8
0
 10
-12.4426
 20
-12.6397
 11
-12.662
 21
-12.7852
  0
LINE
  8
0
 10
-12.662
 20
-12.7852
 11
-12.8812
 21
-12.9226
  0
LINE
  8
0
 10
-12.8812
 20
-12.9226
 11
-13.1002
 21
-13.0519
  0
LINE
  8
0
 10
-13.1002
 20
-13.0519
 11
-13.319
 21
-13.1732
  0
LINE
  8
0
 10
-13.319
 20
-13.1732
 11
-13.5376
 21
-13.2865
  0
LINE
  8
0
 10
-13.5376
 20
-13.2865
 11
-13.7559
 21
-13.3917
  0
LINE
  8
0
 10
-13.7559
 20
-13.3917
 11
-13.9741
 21
-13.4889
  0
LINE
  8
0
 10
-13.9741
 20
-13.4889
 11
-14.192
 21
-13.578
  0
LINE
  8
0
 10
-14.192
 20
-13.578
 11
-14.3388
 21
-13.627
  0
LINE
  8
0
 10
-14.3388
 20
-13.627
 11
-14.6054
 21
-13.6924
  0
LINE
  8
0
 10
-14.6054
 20
-13.6924
 11
-14.8781
 21
-13.7259
  0
LINE
  8
0
 10
-14.8781
 20
-13.7259
 11
-15.5421
 21
-13.7385
  0
LINE
  8
0
 10
-15.5421
 20
-13.7385
 11
-15.8367
 21
-13.7141
  0
LINE
  8
0
 10
-2.6479
 20
-14.183
 11
-2.72485
 21
-14.1691
  0
LINE
  8
0
 10
-2.72485
 20
-14.1691
 11
-2.79308
 21
-14.1487
  0
LINE
  8
0
 10
-2.79308
 20
-14.1487
 11
-2.83372
 21
-14.1315
  0
LINE
  8
0
 10
-2.83372
 20
-14.1315
 11
-2.87051
 21
-14.1114
  0
LINE
  8
0
 10
-2.87051
 20
-14.1114
 11
-2.90341
 21
-14.0885
  0
LINE
  8
0
 10
-2.90341
 20
-14.0885
 11
-2.93245
 21
-14.0627
  0
LINE
  8
0
 10
-2.93245
 20
-14.0627
 11
-2.95761
 21
-14.0341
  0
LINE
  8
0
 10
-2.95761
 20
-14.0341
 11
-2.97891
 21
-14.0025
  0
LINE
  8
0
 10
-2.97891
 20
-14.0025
 11
-2.99634
 21
-13.9682
  0
LINE
  8
0
 10
-2.99634
 20
-13.9682
 11
-3.00989
 21
-13.9309
  0
LINE
  8
0
 10
-3.00989
 20
-13.9309
 11
-3.01956
 21
-13.8908
  0
LINE
  8
0
 10
-3.01956
 20
-13.8908
 11
-3.02538
 21
-13.8479
  0
LINE
  8
0
 10
-3.02538
 20
-13.8479
 11
-3.02718
 21
-13.7886
  0
LINE
  8
0
 10
-3.02718
 20
-13.7886
 11
-3.01704
 21
-13.682
  0
LINE
  8
0
 10
-3.01704
 20
-13.682
 11
-2.99068
 21
-13.577
  0
LINE
  8
0
 10
-2.99068
 20
-13.577
 11
-2.94164
 21
-13.4609
  0
LINE
  8
0
 10
-2.94164
 20
-13.4609
 11
-2.56931
 21
-12.843
  0
LINE
  8
0
 10
-2.56931
 20
-12.843
 11
-2.4503
 21
-12.6064
  0
LINE
  8
0
 10
-2.4503
 20
-12.6064
 11
-2.3243
 21
-12.2954
  0
LINE
  8
0
 10
-2.3243
 20
-12.2954
 11
-2.19287
 21
-11.8953
  0
LINE
  8
0
 10
-2.19287
 20
-11.8953
 11
-2.13138
 21
-11.6454
  0
LINE
  8
0
 10
-2.13138
 20
-11.6454
 11
-2.07997
 21
-11.368
  0
LINE
  8
0
 10
-2.07997
 20
-11.368
 11
-2.03355
 21
-11.0174
  0
LINE
  8
0
 10
-2.03355
 20
-11.0174
 11
-2.00031
 21
-10.631
  0
LINE
  8
0
 10
-2.00031
 20
-10.631
 11
-1.6803
 21
-3.759
  0
LINE
  8
0
 10
-1.6803
 20
-3.759
 11
-1.61665
 21
-1.61516
  0
LINE
  8
0
 10
-1.61665
 20
-1.61516
 11
-1.62181
 21
-1.45044
  0
LINE
  8
0
 10
-1.62181
 20
-1.45044
 11
-1.63318
 21
-1.29448
  0
LINE
  8
0
 10
-1.63318
 20
-1.29448
 11
-1.65074
 21
-1.14725
  0
LINE
  8
0
 10
-1.65074
 20
-1.14725
 11
-1.6745
 21
-1.00877
  0
LINE
  8
0
 10
-1.6745
 20
-1.00877
 11
-1.70445
 21
-0.879028
  0
LINE
  8
0
 10
-1.70445
 20
-0.879028
 11
-1.74062
 21
-0.758041
  0
LINE
  8
0
 10
-1.74062
 20
-0.758041
 11
-1.78297
 21
-0.645782
  0
LINE
  8
0
 10
-1.78297
 20
-0.645782
 11
-1.81465
 21
-0.575806
  0
LINE
  8
0
 10
-1.81465
 20
-0.575806
 11
-1.84909
 21
-0.50972
  0
LINE
  8
0
 10
-1.84909
 20
-0.50972
 11
-1.88628
 21
-0.44751
  0
LINE
  8
0
 10
-1.88628
 20
-0.44751
 11
-1.92622
 21
-0.389191
  0
LINE
  8
0
 10
-1.92622
 20
-0.389191
 11
-1.96892
 21
-0.334763
  0
LINE
  8
0
 10
-1.96892
 20
-0.334763
 11
-2.01411
 21
-0.283951
  0
LINE
  8
0
 10
-2.01411
 20
-0.283951
 11
-2.13042
 21
-0.165176
  0
LINE
  8
0
 10
-2.13042
 20
-0.165176
 11
-2.25053
 21
-0.0572357
  0
LINE
  8
0
 10
-2.25053
 20
-0.0572357
 11
-2.37445
 21
0.0398712
  0
LINE
  8
0
 10
-2.37445
 20
0.0398712
 11
-2.50218
 21
0.126144
  0
LINE
  8
0
 10
-2.50218
 20
0.126144
 11
-2.63374
 21
0.201584
  0
LINE
  8
0
 10
-2.63374
 20
0.201584
 11
-2.76909
 21
0.26619
  0
LINE
  8
0
 10
-2.76909
 20
0.26619
 11
-3.6573
 21
0.608994
  0
LINE
  8
0
 10
-3.6573
 20
0.608994
 11
-3.74271
 21
0.645966
  0
LINE
  8
0
 10
-3.74271
 20
0.645966
 11
-3.79951
 21
0.677994
  0
LINE
  8
0
 10
-3.79951
 20
0.677994
 11
-3.85014
 21
0.713715
  0
LINE
  8
0
 10
-3.85014
 20
0.713715
 11
-3.89456
 21
0.753113
  0
LINE
  8
0
 10
-3.89456
 20
0.753113
 11
-3.93279
 21
0.796204
  0
LINE
  8
0
 10
-3.93279
 20
0.796204
 11
-3.96481
 21
0.842972
  0
LINE
  8
0
 10
-3.96481
 20
0.842972
 11
-3.99063
 21
0.893433
  0
LINE
  8
0
 10
-3.99063
 20
0.893433
 11
-4.01027
 21
0.947586
  0
LINE
  8
0
 10
-4.01027
 20
0.947586
 11
-4.0237
 21
1.00542
  0
LINE
  8
0
 10
-4.0237
 20
1.00542
 11
-4.03093
 21
1.06694
  0
LINE
  8
0
 10
-4.03093
 20
1.06694
 11
-4.03119
 21
1.13373
  0
LINE
  8
0
 10
-4.03119
 20
1.13373
 11
-4.02222
 21
1.18179
  0
LINE
  8
0
 10
-4.02222
 20
1.18179
 11
-4.0043
 21
1.23065
  0
LINE
  8
0
 10
-4.0043
 20
1.23065
 11
-3.96928
 21
1.29285
  0
LINE
  8
0
 10
-3.96928
 20
1.29285
 11
-3.92027
 21
1.35628
  0
LINE
  8
0
 10
-3.92027
 20
1.35628
 11
-3.84297
 21
1.43402
  0
LINE
  8
0
 10
-3.84297
 20
1.43402
 11
-2.72731
 21
2.334
  0
LINE
  8
0
 10
-2.72731
 20
2.334
 11
-2.68752
 21
2.36829
  0
LINE
  8
0
 10
-2.68752
 20
2.36829
 11
-2.49454
 21
2.51213
  0
LINE
  8
0
 10
-2.49454
 20
2.51213
 11
-2.37111
 21
2.57681
  0
LINE
  8
0
 10
-2.37111
 20
2.57681
 11
-2.18956
 21
2.62842
  0
LINE
  8
0
 10
-2.18956
 20
2.62842
 11
-2.02003
 21
2.63855
  0
LINE
  8
0
 10
-2.02003
 20
2.63855
 11
-1.91159
 21
2.61975
  0
LINE
  8
0
 10
-1.91159
 20
2.61975
 11
-1.79707
 21
2.57439
  0
LINE
  8
0
 10
-1.79707
 20
2.57439
 11
-1.68335
 21
2.50073
  0
LINE
  8
0
 10
-1.68335
 20
2.50073
 11
-1.54192
 21
2.3703
  0
LINE
  8
0
 10
-1.54192
 20
2.3703
 11
0.120941
 21
0.421539
  0
LINE
  8
0
 10
0.120941
 20
0.421539
 11
1.94969
 21
-1.673
  0
LINE
  8
0
 10
1.94969
 20
-1.673
 11
4.20335
 21
-4.18622
  0
LINE
  8
0
 10
4.20335
 20
-4.18622
 11
6.28265
 21
-6.43791
  0
LINE
  8
0
 10
6.28265
 20
-6.43791
 11
8.07118
 21
-8.31314
  0
LINE
  8
0
 10
8.07118
 20
-8.31314
 11
8.81061
 21
-9.04906
  0
LINE
  8
0
 10
8.81061
 20
-9.04906
 11
9.1097
 21
-9.32301
  0
LINE
  8
0
 10
9.1097
 20
-9.32301
 11
9.16096
 21
-8.98087
  0
LINE
  8
0
 10
9.16096
 20
-8.98087
 11
9.28317
 21
-8.05904
  0
LINE
  8
0
 10
9.28317
 20
-8.05904
 11
9.37035
 21
-7.24532
  0
LINE
  8
0
 10
9.37035
 20
-7.24532
 11
9.43498
 21
-6.4539
  0
LINE
  8
0
 10
9.43498
 20
-6.4539
 11
9.48444
 21
-5.58078
  0
LINE
  8
0
 10
9.48444
 20
-5.58078
 11
9.51405
 21
-4.61079
  0
LINE
  8
0
 10
9.51405
 20
-4.61079
 11
9.51846
 21
-3.69508
  0
LINE
  8
0
 10
9.51846
 20
-3.69508
 11
9.49995
 21
-2.96747
  0
LINE
  8
0
 10
9.49995
 20
-2.96747
 11
9.46347
 21
-2.36533
  0
LINE
  8
0
 10
9.46347
 20
-2.36533
 11
9.39035
 21
-1.64204
  0
LINE
  8
0
 10
9.39035
 20
-1.64204
 11
9.22342
 21
-0.415329
  0
LINE
  8
0
 10
9.22342
 20
-0.415329
 11
9.0392
 21
0.494232
  0
LINE
  8
0
 10
9.0392
 20
0.494232
 11
9.0197
 21
0.715988
  0
LINE
  8
0
 10
9.0197
 20
0.715988
 11
9.02364
 21
0.745819
  0
LINE
  8
0
 10
9.02364
 20
0.745819
 11
9.04343
 21
0.831085
  0
LINE
  8
0
 10
9.04343
 20
0.831085
 11
9.07518
 21
0.909988
  0
LINE
  8
0
 10
9.07518
 20
0.909988
 11
9.11891
 21
0.982544
  0
LINE
  8
0
 10
9.11891
 20
0.982544
 11
9.17459
 21
1.04877
  0
LINE
  8
0
 10
9.17459
 20
1.04877
 11
9.24225
 21
1.10863
  0
LINE
  8
0
 10
9.24225
 20
1.10863
 11
9.34773
 21
1.17975
  0
LINE
  8
0
 10
9.34773
 20
1.17975
 11
9.51155
 21
1.26407
  0
LINE
  8
0
 10
9.51155
 20
1.26407
 11
9.69695
 21
1.33284
  0
LINE
  8
0
 10
9.69695
 20
1.33284
 11
9.9964
 21
1.40755
  0
LINE
  8
0
 10
9.9964
 20
1.40755
 11
10.3694
 21
1.46152
  0
LINE
  8
0
 10
10.3694
 20
1.46152
 11
11.0912
 21
1.49104
  0
LINE
  8
0
 10
11.0912
 20
1.49104
 11
11.1962
 21
1.47913
  0
LINE
  8
0
 10
11.1962
 20
1.47913
 11
11.272
 21
1.46179
  0
LINE
  8
0
 10
11.272
 20
1.46179
 11
11.3404
 21
1.43752
  0
LINE
  8
0
 10
11.3404
 20
1.43752
 11
11.4015
 21
1.40631
  0
LINE
  8
0
 10
11.4015
 20
1.40631
 11
11.4554
 21
1.36816
  0
LINE
  8
0
 10
11.4554
 20
1.36816
 11
11.5019
 21
1.32309
  0
LINE
  8
0
 10
11.5019
 20
1.32309
 11
11.541
 21
1.27107
  0
LINE
  8
0
 10
11.541
 20
1.27107
 11
11.5956
 21
1.1689
  0
LINE
  8
0
 10
11.5956
 20
1.1689
 11
11.6426
 21
1.04433
  0
LINE
  8
0
 10
11.6426
 20
1.04433
 11
11.6732
 21
0.911652
  0
LINE
  8
0
 10
11.6732
 20
0.911652
 11
11.6875
 21
0.770874
  0
LINE
  8
0
 10
11.6875
 20
0.770874
 11
11.6855
 21
0.623459
  0
LINE
  8
0
 10
11.6855
 20
0.623459
 11
11.6518
 21
0.333771
  0
LINE
  8
0
 10
11.6518
 20
0.333771
 11
11.5412
 21
-0.240143
  0
LINE
  8
0
 10
11.5412
 20
-0.240143
 11
11.3615
 21
-1.19449
  0
LINE
  8
0
 10
11.3615
 20
-1.19449
 11
11.1552
 21
-2.55574
  0
LINE
  8
0
 10
11.1552
 20
-2.55574
 11
11.0344
 21
-3.61111
  0
LINE
  8
0
 10
11.0344
 20
-3.61111
 11
10.9146
 21
-4.93723
  0
LINE
  8
0
 10
10.9146
 20
-4.93723
 11
10.8672
 21
-5.68213
  0
LINE
  8
0
 10
10.8672
 20
-5.68213
 11
10.8324
 21
-6.48587
  0
LINE
  8
0
 10
10.8324
 20
-6.48587
 11
10.8079
 21
-7.4765
  0
LINE
  8
0
 10
10.8079
 20
-7.4765
 11
10.7997
 21
-8.54401
  0
LINE
  8
0
 10
10.7997
 20
-8.54401
 11
10.8637
 21
-11.711
  0
LINE
  8
0
 10
10.8637
 20
-11.711
 11
10.8579
 21
-11.7962
  0
LINE
  8
0
 10
10.8579
 20
-11.7962
 11
10.8407
 21
-11.8833
  0
LINE
  8
0
 10
10.8407
 20
-11.8833
 11
10.8118
 21
-11.9724
  0
LINE
  8
0
 10
10.8118
 20
-11.9724
 11
10.7621
 21
-12.0818
  0
LINE
  8
0
 10
10.7621
 20
-12.0818
 11
10.6957
 21
-12.194
  0
LINE
  8
0
 10
10.6957
 20
-12.194
 11
10.5975
 21
-12.3283
  0
LINE
  8
0
 10
10.5975
 20
-12.3283
 11
10.3878
 21
-12.5698
  0
LINE
  8
0
 10
10.3878
 20
-12.5698
 11
10.1561
 21
-12.7942
  0
LINE
  8
0
 10
10.1561
 20
-12.7942
 11
9.86819
 21
-13.0298
  0
LINE
  8
0
 10
9.86819
 20
-13.0298
 11
9.50874
 21
-13.2803
  0
LINE
  8
0
 10
9.50874
 20
-13.2803
 11
9.21893
 21
-13.4441
  0
LINE
  8
0
 10
9.21893
 20
-13.4441
 11
9.07375
 21
-13.5036
  0
LINE
  8
0
 10
9.07375
 20
-13.5036
 11
9.0056
 21
-13.5168
  0
LINE
  8
0
 10
9.0056
 20
-13.5168
 11
8.96538
 21
-13.5125
  0
LINE
  8
0
 10
8.96538
 20
-13.5125
 11
8.93329
 21
-13.4991
  0
LINE
  8
0
 10
8.93329
 20
-13.4991
 11
8.90244
 21
-13.4767
  0
LINE
  8
0
 10
8.90244
 20
-13.4767
 11
8.8656
 21
-13.4361
  0
LINE
  8
0
 10
8.8656
 20
-13.4361
 11
8.82394
 21
-13.3689
  0
LINE
  8
0
 10
8.82394
 20
-13.3689
 11
8.77885
 21
-13.2649
  0
LINE
  8
0
 10
8.77885
 20
-13.2649
 11
8.48915
 21
-12.3177
  0
LINE
  8
0
 10
8.48915
 20
-12.3177
 11
8.33557
 21
-11.8853
  0
LINE
  8
0
 10
8.33557
 20
-11.8853
 11
8.1207
 21
-11.378
  0
LINE
  8
0
 10
8.1207
 20
-11.378
 11
8.01686
 21
-11.166
  0
LINE
  8
0
 10
8.01686
 20
-11.166
 11
7.89735
 21
-10.9539
  0
LINE
  8
0
 10
7.89735
 20
-10.9539
 11
7.76218
 21
-10.7417
  0
LINE
  8
0
 10
7.76218
 20
-10.7417
 11
7.61134
 21
-10.5295
  0
LINE
  8
0
 10
7.61134
 20
-10.5295
 11
7.44482
 21
-10.3172
  0
LINE
  8
0
 10
7.44482
 20
-10.3172
 11
6.69109
 21
-9.44064
  0
LINE
  8
0
 10
6.69109
 20
-9.44064
 11
5.73903
 21
-8.37418
  0
LINE
  8
0
 10
5.73903
 20
-8.37418
 11
4.22511
 21
-6.7459
  0
LINE
  8
0
 10
4.22511
 20
-6.7459
 11
0.644119
 21
-3.00819
  0
LINE
  8
0
 10
0.644119
 20
-3.00819
 11
-0.134308
 21
-2.173
  0
LINE
  8
0
 10
-0.134308
 20
-2.173
 11
-0.239639
 21
-3.76234
  0
LINE
  8
0
 10
-0.239639
 20
-3.76234
 11
-0.337662
 21
-6.05527
  0
LINE
  8
0
 10
-0.337662
 20
-6.05527
 11
-0.400192
 21
-10.9552
  0
LINE
  8
0
 10
-0.400192
 20
-10.9552
 11
-0.336304
 21
-13.079
  0
LINE
  8
0
 10
-0.336304
 20
-13.079
 11
-0.343521
 21
-13.2017
  0
LINE
  8
0
 10
-0.343521
 20
-13.2017
 11
-0.37558
 21
-13.3685
  0
LINE
  8
0
 10
-0.37558
 20
-13.3685
 11
-0.439377
 21
-13.5532
  0
LINE
  8
0
 10
-0.439377
 20
-13.5532
 11
-0.475449
 21
-13.6198
  0
LINE
  8
0
 10
-0.475449
 20
-13.6198
 11
-0.521088
 21
-13.6793
  0
LINE
  8
0
 10
-0.521088
 20
-13.6793
 11
-0.576263
 21
-13.7319
  0
LINE
  8
0
 10
-0.576263
 20
-13.7319
 11
-0.640991
 21
-13.7774
  0
LINE
  8
0
 10
-0.640991
 20
-13.7774
 11
-0.715271
 21
-13.8159
  0
LINE
  8
0
 10
-0.715271
 20
-13.8159
 11
-0.817017
 21
-13.8528
  0
LINE
  8
0
 10
-0.817017
 20
-13.8528
 11
-2.03406
 21
-14.1476
  0
LINE
  8
0
 10
-2.03406
 20
-14.1476
 11
-2.31117
 21
-14.1843
  0
LINE
  8
0
 10
-2.31117
 20
-14.1843
 11
-2.56224
 21
-14.1906
  0
LINE
  8
0
 10
-2.56224
 20
-14.1906
 11
-2.6479
 21
-14.183
  0
LINE
  8
0
 10
0.981644
 20
-129.988
 11
1.96269
 21
-129.952
  0
LINE
  8
0
 10
1.96269
 20
-129.952
 11
2.94258
 21
-129.892
  0
LINE
  8
0
 10
2.94258
 20
-129.892
 11
3.92068
 21
-129.807
  0
LINE
  8
0
 10
3.92068
 20
-129.807
 11
4.89642
 21
-129.699
  0
LINE
  8
0
 10
4.89642
 20
-129.699
 11
5.86922
 21
-129.567
  0
LINE
  8
0
 10
5.86922
 20
-129.567
 11
6.83847
 21
-129.411
  0
LINE
  8
0
 10
6.83847
 20
-129.411
 11
7.8036
 21
-129.231
  0
LINE
  8
0
 10
7.8036
 20
-129.231
 11
8.76404
 21
-129.028
  0
LINE
  8
0
 10
8.76404
 20
-129.028
 11
9.71919
 21
-128.801
  0
LINE
  8
0
 10
9.71919
 20
-128.801
 11
10.6685
 21
-128.551
  0
LINE
  8
0
 10
10.6685
 20
-128.551
 11
11.6114
 21
-128.278
  0
LINE
  8
0
 10
11.6114
 20
-128.278
 11
12.5473
 21
-127.981
  0
LINE
  8
0
 10
12.5473
 20
-127.981
 11
13.4756
 21
-127.662
  0
LINE
  8
0
 10
13.4756
 20
-127.662
 11
14.3958
 21
-127.32
  0
LINE
  8
0
 10
14.3958
 20
-127.32
 11
15.3073
 21
-126.955
  0
LINE
  8
0
 10
15.3073
 20
-126.955
 11
16.2096
 21
-126.568
  0
LINE
  8
0
 10
16.2096
 20
-126.568
 11
17.1022
 21
-126.16
  0
LINE
  8
0
 10
17.1022
 20
-126.16
 11
17.9845
 21
-125.729
  0
LINE
  8
0
 10
17.9845
 20
-125.729
 11
18.8559
 21
-125.277
  0
LINE
  8
0
 10
18.8559
 20
-125.277
 11
19.7159
 21
-124.803
  0
LINE
  8
0
 10
19.7159
 20
-124.803
 11
20.5641
 21
-124.309
  0
LINE
  8
0
 10
20.5641
 20
-124.309
 11
21.3999
 21
-123.794
  0
LINE
  8
0
 10
21.3999
 20
-123.794
 11
22.2228
 21
-123.259
  0
LINE
  8
0
 10
22.2228
 20
-123.259
 11
23.0323
 21
-122.703
  0
LINE
  8
0
 10
23.0323
 20
-122.703
 11
23.828
 21
-122.128
  0
LINE
  8
0
 10
23.828
 20
-122.128
 11
24.6093
 21
-121.534
  0
LINE
  8
0
 10
24.6093
 20
-121.534
 11
25.3757
 21
-120.92
  0
LINE
  8
0
 10
25.3757
 20
-120.92
 11
26.1269
 21
-120.288
  0
LINE
  8
0
 10
26.1269
 20
-120.288
 11
26.8624
 21
-119.638
  0
LINE
  8
0
 10
26.8624
 20
-119.638
 11
27.5816
 21
-118.97
  0
LINE
  8
0
 10
27.5816
 20
-118.97
 11
28.2843
 21
-118.284
  0
LINE
  8
0
 10
28.2843
 20
-118.284
 11
28.9699
 21
-117.582
  0
LINE
  8
0
 10
28.9699
 20
-117.582
 11
29.638
 21
-116.862
  0
LINE
  8
0
 10
29.638
 20
-116.862
 11
30.2883
 21
-116.127
  0
LINE
  8
0
 10
30.2883
 20
-116.127
 11
30.9204
 21
-115.376
  0
LINE
  8
0
 10
30.9204
 20
-115.376
 11
31.5338
 21
-114.609
  0
LINE
  8
0
 10
31.5338
 20
-114.609
 11
32.1283
 21
-113.828
  0
LINE
  8
0
 10
32.1283
 20
-113.828
 11
32.7034
 21
-113.032
  0
LINE
  8
0
 10
32.7034
 20
-113.032
 11
33.2588
 21
-112.223
  0
LINE
  8
0
 10
33.2588
 20
-112.223
 11
33.7941
 21
-111.4
  0
LINE
  8
0
 10
33.7941
 20
-111.4
 11
34.3091
 21
-110.564
  0
LINE
  8
0
 10
34.3091
 20
-110.564
 11
34.8035
 21
-109.716
  0
LINE
  8
0
 10
34.8035
 20
-109.716
 11
35.2768
 21
-108.856
  0
LINE
  8
0
 10
35.2768
 20
-108.856
 11
35.729
 21
-107.984
  0
LINE
  8
0
 10
35.729
 20
-107.984
 11
36.1596
 21
-107.102
  0
LINE
  8
0
 10
36.1596
 20
-107.102
 11
36.5684
 21
-106.21
  0
LINE
  8
0
 10
36.5684
 20
-106.21
 11
36.9552
 21
-105.307
  0
LINE
  8
0
 10
36.9552
 20
-105.307
 11
37.3197
 21
-104.396
  0
LINE
  8
0
 10
37.3197
 20
-104.396
 11
37.6618
 21
-103.476
  0
LINE
  8
0
 10
37.6618
 20
-103.476
 11
37.9811
 21
-102.547
  0
LINE
  8
0
 10
37.9811
 20
-102.547
 11
38.2776
 21
-101.611
  0
LINE
  8
0
 10
38.2776
 20
-101.611
 11
38.551
 21
-100.669
  0
LINE
  8
0
 10
38.551
 20
-100.669
 11
38.8012
 21
-99.7192
  0
LINE
  8
0
 10
38.8012
 20
-99.7192
 11
39.0281
 21
-98.764
  0
LINE
  8
0
 10
39.0281
 20
-98.764
 11
39.2314
 21
-97.8036
  0
LINE
  8
0
 10
39.2314
 20
-97.8036
 11
39.4111
 21
-96.8385
  0
LINE
  8
0
 10
39.4111
 20
-96.8385
 11
39.567
 21
-95.8692
  0
LINE
  8
0
 10
39.567
 20
-95.8692
 11
39.6992
 21
-94.8964
  0
LINE
  8
0
 10
39.6992
 20
-94.8964
 11
39.8074
 21
-93.9207
  0
LINE
  8
0
 10
39.8074
 20
-93.9207
 11
39.8916
 21
-92.9426
  0
LINE
  8
0
 10
39.8916
 20
-92.9426
 11
39.9518
 21
-91.9627
  0
LINE
  8
0
 10
39.9518
 20
-91.9627
 11
39.9879
 21
-90.9816
  0
LINE
  8
0
 10
39.9879
 20
-90.9816
 11
40
 21
-90
  0
LINE
  8
0
 10
40
 20
-90
 11
39.9879
 21
-89.0184
  0
LINE
  8
0
 10
39.9879
 20
-89.0184
 11
39.9518
 21
-88.0373
  0
LINE
  8
0
 10
39.9518
 20
-88.0373
 11
39.8916
 21
-87.0574
  0
LINE
  8
0
 10
39.8916
 20
-87.0574
 11
39.8074
 21
-86.0793
  0
LINE
  8
0
 10
39.8074
 20
-86.0793
 11
39.6992
 21
-85.1036
  0
LINE
  8
0
 10
39.6992
 20
-85.1036
 11
39.567
 21
-84.1308
  0
LINE
  8
0
 10
39.567
 20
-84.1308
 11
39.4111
 21
-83.1615
  0
LINE
  8
0
 10
39.4111
 20
-83.1615
 11
39.2314
 21
-82.1964
  0
LINE
  8
0
 10
39.2314
 20
-82.1964
 11
39.0281
 21
-81.236
  0
LINE
  8
0
 10
39.0281
 20
-81.236
 11
38.8012
 21
-80.2808
  0
LINE
  8
0
 10
38.8012
 20
-80.2808
 11
38.551
 21
-79.3315
  0
LINE
  8
0
 10
38.551
 20
-79.3315
 11
38.2776
 21
-78.3886
  0
LINE
  8
0
 10
38.2776
 20
-78.3886
 11
37.9811
 21
-77.4527
  0
LINE
  8
0
 10
37.9811
 20
-77.4527
 11
37.6618
 21
-76.5244
  0
LINE
  8
0
 10
37.6618
 20
-76.5244
 11
37.3197
 21
-75.6042
  0
LINE
  8
0
 10
37.3197
 20
-75.6042
 11
36.9552
 21
-74.6927
  0
LINE
  8
0
 10
36.9552
 20
-74.6927
 11
36.5684
 21
-73.7904
  0
LINE
  8
0
 10
36.5684
 20
-73.7904
 11
36.1596
 21
-72.8978
  0
LINE
  8
0
 10
36.1596
 20
-72.8978
 11
35.729
 21
-72.0155
  0
LINE
  8
0
 10
35.729
 20
-72.0155
 11
35.2768
 21
-71.1441
  0
LINE
  8
0
 10
35.2768
 20
-71.1441
 11
34.8035
 21
-70.2841
  0
LINE
  8
0
 10
34.8035
 20
-70.2841
 11
34.3091
 21
-69.4359
  0
LINE
  8
0
 10
34.3091
 20
-69.4359
 11
33.7941
 21
-68.6001
  0
LINE
  8
0
 10
33.7941
 20
-68.6001
 11
33.2588
 21
-67.7772
  0
LINE
  8
0
 10
33.2588
 20
-67.7772
 11
32.7034
 21
-66.9677
  0
LINE
  8
0
 10
32.7034
 20
-66.9677
 11
32.1283
 21
-66.172
  0
LINE
  8
0
 10
32.1283
 20
-66.172
 11
31.5338
 21
-65.3907
  0
LINE
  8
0
 10
31.5338
 20
-65.3907
 11
30.9204
 21
-64.6243
  0
LINE
  8
0
 10
30.9204
 20
-64.6243
 11
30.2883
 21
-63.8731
  0
LINE
  8
0
 10
30.2883
 20
-63.8731
 11
29.638
 21
-63.1376
  0
LINE
  8
0
 10
29.638
 20
-63.1376
 11
28.9699
 21
-62.4184
  0
LINE
  8
0
 10
28.9699
 20
-62.4184
 11
28.2843
 21
-61.7157
  0
LINE
  8
0
 10
28.2843
 20
-61.7157
 11
27.5816
 21
-61.0301
  0
LINE
  8
0
 10
27.5816
 20
-61.0301
 11
26.8624
 21
-60.362
  0
LINE
  8
0
 10
26.8624
 20
-60.362
 11
26.1269
 21
-59.7117
  0
LINE
  8
0
 10
26.1269
 20
-59.7117
 11
25.3757
 21
-59.0796
  0
LINE
  8
0
 10
25.3757
 20
-59.0796
 11
24.6093
 21
-58.4662
  0
LINE
  8
0
 10
24.6093
 20
-58.4662
 11
23.828
 21
-57.8717
  0
LINE
  8
0
 10
23.828
 20
-57.8717
 11
23.0323
 21
-57.2966
  0
LINE
  8
0
 10
23.0323
 20
-57.2966
 11
22.2228
 21
-56.7412
  0
LINE
  8
0
 10
22.2228
 20
-56.7412
 11
21.3999
 21
-56.2059
  0
LINE
  8
0
 10
21.3999
 20
-56.2059
 11
20.5641
 21
-55.6909
  0
LINE
  8
0
 10
20.5641
 20
-55.6909
 11
19.7159
 21
-55.1965
  0
LINE
  8
0
 10
19.7159
 20
-55.1965
 11
18.8559
 21
-54.7232
  0
LINE
  8
0
 10
18.8559
 20
-54.7232
 11
17.9845
 21
-54.271
  0
LINE
  8
0
 10
17.9845
 20
-54.271
 11
17.1022
 21
-53.8404
  0
LINE
  8
0
 10
17.1022
 20
-53.8404
 11
16.2096
 21
-53.4316
  0
LINE
  8
0
 10
16.2096
 20
-53.4316
 11
15.3073
 21
-53.0448
  0
LINE
  8
0
 10
15.3073
 20
-53.0448
 11
14.3958
 21
-52.6803
  0
LINE
  8
0
 10
14.3958
 20
-52.6803
 11
13.4756
 21
-52.3382
  0
LINE
  8
0
 10
13.4756
 20
-52.3382
 11
12.5473
 21
-52.0189
  0
LINE
  8
0
 10
12.5473
 20
-52.0189
 11
11.6114
 21
-51.7224
  0
LINE
  8
0
 10
11.6114
 20
-51.7224
 11
10.6685
 21
-51.449
  0
LINE
  8
0
 10
10.6685
 20
-51.449
 11
9.71919
 21
-51.1988
  0
LINE
  8
0
 10
9.71919
 20
-51.1988
 11
8.76404
 21
-50.9719
  0
LINE
  8
0
 10
8.76404
 20
-50.9719
 11
7.8036
 21
-50.7686
  0
LINE
  8
0
 10
7.8036
 20
-50.7686
 11
6.83847
 21
-50.5889
  0
LINE
  8
0
 10
6.83847
 20
-50.5889
 11
5.86922
 21
-50.433
  0
LINE
  8
0
 10
5.86922
 20
-50.433
 11
4.89642
 21
-50.3008
  0
LINE
  8
0
 10
4.89642
 20
-50.3008
 11
3.92068
 21
-50.1926
  0
LINE
  8
0
 10
3.92068
 20
-50.1926
 11
2.94258
 21
-50.1084
  0
LINE
  8
0
 10
2.94258
 20
-50.1084
 11
1.96269
 21
-50.0482
  0
LINE
  8
0
 10
1.96269
 20
-50.0482
 11
0.981644
 21
-50.0121
  0
LINE
  8
0
 10
0.981644
 20
-50.0121
 11
0
 21
-50
  0
LINE
  8
0
 10
0
 20
-50
 11
-0.981644
 21
-50.0121
  0
LINE
  8
0
 10
-0.981644
 20
-50.0121
 11
-1.96269
 21
-50.0482
  0
LINE
  8
0
 10
-1.96269
 20
-50.0482
 11
-2.94258
 21
-50.1084
  0
LINE
  8
0
 10
-2.94258
 20
-50.1084
 11
-3.92068
 21
-50.1926
  0
LINE
  8
0
 10
-3.92068
 20
-50.1926
 11
-4.89642
 21
-50.3008
  0
LINE
  8
0
 10
-4.89642
 20
-50.3008
 11
-5.86922
 21
-50.433
  0
LINE
  8
0
 10
-5.86922
 20
-50.433
 11
-6.83847
 21
-50.5889
  0
LINE
  8
0
 10
-6.83847
 20
-50.5889
 11
-7.8036
 21
-50.7686
  0
LINE
  8
0
 10
-7.8036
 20
-50.7686
 11
-8.76404
 21
-50.9719
  0
LINE
  8
0
 10
-8.76404
 20
-50.9719
 11
-9.71919
 21
-51.1988
  0
LINE
  8
0
 10
-9.71919
 20
-51.1988
 11
-10.6685
 21
-51.449
  0
LINE
  8
0
 10
-10.6685
 20
-51.449
 11
-11.6114
 21
-51.7224
  0
LINE
  8
0
 10
-11.6114
 20
-51.7224
 11
-12.5473
 21
-52.0189
  0
LINE
  8
0
 10
-12.5473
 20
-52.0189
 11
-13.4756
 21
-52.3382
  0
LINE
  8
0
 10
-13.4756
 20
-52.3382
 11
-14.3958
 21
-52.6803
  0
LINE
  8
0
 10
-14.3958
 20
-52.6803
 11
-15.3073
 21
-53.0448
  0
LINE
  8
0
 10
-15.3073
 20
-53.0448
 11
-16.2096
 21
-53.4316
  0
LINE
  8
0
 10
-16.2096
 20
-53.4316
 11
-17.1022
 21
-53.8404
  0
LINE
  8
0
 10
-17.1022
 20
-53.8404
 11
-17.9845
 21
-54.271
  0
LINE
  8
0
 10
-17.9845
 20
-54.271
 11
-18.8559
 21
-54.7232
  0
LINE
  8
0
 10
-18.8559
 20
-54.7232
 11
-19.7159
 21
-55.1965
  0
LINE
  8
0
 10
-19.7159
 20
-55.1965
 11
-20.5641
 21
-55.6909
  0
LINE
  8
0
 10
-20.5641
 20
-55.6909
 11
-21.3999
 21
-56.2059
  0
LINE
  8
0
 10
-21.3999
 20
-56.2059
 11
-22.2228
 21
-56.7412
  0
LINE
  8
0
 10
-22.2228
 20
-56.7412
 11
-23.0323
 21
-57.2966
  0
LINE
  8
0
 10
-23.0323
 20
-57.2966
 11
-23.828
 21
-57.8717
  0
LINE
  8
0
 10
-23.828
 20
-57.8717
 11
-24.6093
 21
-58.4662
  0
LINE
  8
0
 10
-24.6093
 20
-58.4662
 11
-25.3757
 21
-59.0796
  0
LINE
  8
0
 10
-25.3757
 20
-59.0796
 11
-26.1269
 21
-59.7117
  0
LINE
  8
0
 10
-26.1269
 20
-59.7117
 11
-26.8624
 21
-60.362
  0
LINE
  8
0
 10
-26.8624
 20
-60.362
 11
-27.5816
 21
-61.0301
  0
LINE
  8
0
 10
-27.5816
 20
-61.0301
 11
-28.2843
 21
-61.7157
  0
LINE
  8
0
 10
-28.2843
 20
-61.7157
 11
-28.9699
 21
-62.4184
  0
LINE
  8
0
 10
-28.9699
 20
-62.4184
 11
-29.638
 21
-63.1376
  0
LINE
  8
0
 10
-29.638
 20
-63.1376
 11
-30.2883
 21
-63.8731
  0
LINE
  8
0
 10
-30.2883
 20
-63.8731
 11
-30.9204
 21
-64.6243
  0
LINE
  8
0
 10
-30.9204
 20
-64.6243
 11
-31.5338
 21
-65.3907
  0
LINE
  8
0
 10
-31.5338
 20
-65.3907
 11
-32.1283
 21
-66.172
  0
LINE
  8
0
 10
-32.1283
 20
-66.172
 11
-32.7034
 21
-66.9677
  0
LINE
  8
0
 10
-32.7034
 20
-66.9677
 11
-33.2588
 21
-67.7772
  0
LINE
  8
0
 10
-33.2588
 20
-67.7772
 11
-33.7941
 21
-68.6001
  0
LINE
  8
0
 10
-33.7941
 20
-68.6001
 11
-34.3091
 21
-69.4359
  0
LINE
  8
0
 10
-34.3091
 20
-69.4359
 11
-34.8035
 21
-70.2841
  0
LINE
  8
0
 10
-34.8035
 20
-70.2841
 11
-35.2768
 21
-71.1441
  0
LINE
  8
0
 10
-35.2768
 20
-71.1441
 11
-35.729
 21
-72.0155
  0
LINE
  8
0
 10
-35.729
 20
-72.0155
 11
-36.1596
 21
-72.8978
  0
LINE
  8
0
 10
-36.1596
 20
-72.8978
 11
-36.5684
 21
-73.7904
  0
LINE
  8
0
 10
-36.5684
 20
-73.7904
 11
-36.9552
 21
-74.6927
  0
LINE
  8
0
 10
-36.9552
 20
-74.6927
 11
-37.3197
 21
-75.6042
  0
LINE
  8
0
 10
-37.3197
 20
-75.6042
 11
-37.6618
 21
-76.5244
  0
LINE
  8
0
 10
-37.6618
 20
-76.5244
 11
-37.9811
 21
-77.4527
  0
LINE
  8
0
 10
-37.9811
 20
-77.4527
 11
-38.2776
 21
-78.3886
  0
LINE
  8
0
 10
-38.2776
 20
-78.3886
 11
-38.551
 21
-79.3315
  0
LINE
  8
0
 10
-38.551
 20
-79.3315
 11
-38.8012
 21
-80.2808
  0
LINE
  8
0
 10
-38.8012
 20
-80.2808
 11
-39.0281
 21
-81.236
  0
LINE
  8
0
 10
-39.0281
 20
-81.236
 11
-39.2314
 21
-82.1964
  0
LINE
  8
0
 10
-39.2314
 20
-82.1964
 11
-39.4111
 21
-83.1615
  0
LINE
  8
0
 10
-39.4111
 20
-83.1615
 11
-39.567
 21
-84.1308
  0
LINE
  8
0
 10
-39.567
 20
-84.1308
 11
-39.6992
 21
-85.1036
  0
LINE
  8
0
 10
-39.6992
 20
-85.1036
 11
-39.8074
 21
-86.0793
  0
LINE
  8
0
 10
-39.8074
 20
-86.0793
 11
-39.8916
 21
-87.0574
  0
LINE
  8
0
 10
-39.8916
 20
-87.0574
 11
-39.9518
 21
-88.0373
  0
LINE
  8
0
 10
-39.9518
 20
-88.0373
 11
-39.9879
 21
-89.0184
  0
LINE
  8
0
 10
-39.9879
 20
-89.0184
 11
-40
 21
-90
  0
LINE
  8
0
 10
-40
 20
-90
 11
-39.9879
 21
-90.9816
  0
LINE
  8
0
 10
-39.9879
 20
-90.9816
 11
-39.9518
 21
-91.9627
  0
LINE
  8
0
 10
-39.9518
 20
-91.9627
 11
-39.8916
 21
-92.9426
  0
LINE
  8
0
 10
-39.8916
 20
-92.9426
 11
-39.8074
 21
-93.9207
  0
LINE
  8
0
 10
-39.8074
 20
-93.9207
 11
-39.6992
 21
-94.8964
  0
LINE
  8
0
 10
-39.6992
 20
-94.8964
 11
-39.567
 21
-95.8692
  0
LINE
  8
0
 10
-39.567
 20
-95.8692
 11
-39.4111
 21
-96.8385
  0
LINE
  8
0
 10
-39.4111
 20
-96.8385
 11
-39.2314
 21
-97.8036
  0
LINE
  8
0
 10
-39.2314
 20
-97.8036
 11
-39.0281
 21
-98.764
  0
LINE
  8
0
 10
-39.0281
 20
-98.764
 11
-38.8012
 21
-99.7192
  0
LINE
  8
0
 10
-38.8012
 20
-99.7192
 11
-38.551
 21
-100.669
  0
LINE
  8
0
 10
-38.551
 20
-100.669
 11
-38.2776
 21
-101.611
  0
LINE
  8
0
 10
-38.2776
 20
-101.611
 11
-37.9811
 21
-102.547
  0
LINE
  8
0
 10
-37.9811
 20
-102.547
 11
-37.6618
 21
-103.476
  0
LINE
  8
0
 10
-37.6618
 20
-103.476
 11
-37.3197
 21
-104.396
  0
LINE
  8
0
 10
-37.3197
 20
-104.396
 11
-36.9552
 21
-105.307
  0
LINE
  8
0
 10
-36.9552
 20
-105.307
 11
-36.5684
 21
-106.21
  0
LINE
  8
0
 10
-36.5684
 20
-106.21
 11
-36.1596
 21
-107.102
  0
LINE
  8
0
 10
-36.1596
 20
-107.102
 11
-35.729
 21
-107.984
  0
LINE
  8
0
 10
-35.729
 20
-107.984
 11
-35.2768
 21
-108.856
  0
LINE
  8
0
 10
-35.2768
 20
-108.856
 11
-34.8035
 21
-109.716
  0
LINE
  8
0
 10
-34.8035
 20
-109.716
 11
-34.3091
 21
-110.564
  0
LINE
  8
0
 10
-34.3091
 20
-110.564
 11
-33.7941
 21
-111.4
  0
LINE
  8
0
 10
-33.7941
 20
-111.4
 11
-33.2588
 21
-112.223
  0
LINE
  8
0
 10
-33.2588
 20
-112.223
 11
-32.7034
 21
-113.032
  0
LINE
  8
0
 10
-32.7034
 20
-113.032
 11
-32.1283
 21
-113.828
  0
LINE
  8
0
 10
-32.1283
 20
-113.828
 11
-31.5338
 21
-114.609
  0
LINE
  8
0
 10
-31.5338
 20
-114.609
 11
-30.9204
 21
-115.376
  0
LINE
  8
0
 10
-30.9204
 20
-115.376
 11
-30.2883
 21
-116.127
  0
LINE
  8
0
 10
-30.2883
 20
-116.127
 11
-29.638
 21
-116.862
  0
LINE
  8
0
 10
-29.638
 20
-116.862
 11
-28.9699
 21
-117.582
  0
LINE
  8
0
 10
-28.9699
 20
-117.582
 11
-28.2843
 21
-118.284
  0
LINE
  8
0
 10
-28.2843
 20
-118.284
 11
-27.5816
 21
-118.97
  0
LINE
  8
0
 10
-27.5816
 20
-118.97
 11
-26.8624
 21
-119.638
  0
LINE
  8
0
 10
-26.8624
 20
-119.638
 11
-26.1269
 21
-120.288
  0
LINE
  8
0
 10
-26.1269
 20
-120.288
 11
-25.3757
 21
-120.92
  0
LINE
  8
0
 10
-25.3757
 20
-120.92
 11
-24.6093
 21
-121.534
  0
LINE
  8
0
 10
-24.6093
 20
-121.534
 11
-23.828
 21
-122.128
  0
LINE
  8
0
 10
-23.828
 20
-122.128
 11
-23.0323
 21
-122.703
  0
LINE
  8
0
 10
-23.0323
 20
-122.703
 11
-22.2228
 21
-123.259
  0
LINE
  8
0
 10
-22.2228
 20
-123.259
 11
-21.3999
 21
-123.794
  0
LINE
  8
0
 10
-21.3999
 20
-123.794
 11
-20.5641
 21
-124.309
  0
LINE
  8
0
 10
-20.5641
 20
-124.309
 11
-19.7159
 21
-124.803
  0
LINE
  8
0
 10
-19.7159
 20
-124.803
 11
-18.8559
 21
-125.277
  0
LINE
  8
0
 10
-18.8559
 20
-125.277
 11
-17.9845
 21
-125.729
  0
LINE
  8
0
 10
-17.9845
 20
-125.729
 11
-17.1022
 21
-126.16
  0
LINE
  8
0
 10
-17.1022
 20
-126.16
 11
-16.2096
 21
-126.568
  0
LINE
  8
0
 10
-16.2096
 20
-126.568
 11
-15.3073
 21
-126.955
  0
LINE
  8
0
 10
-15.3073
 20
-126.955
 11
-14.3958
 21
-127.32
  0
LINE
  8
0
 10
-14.3958
 20
-127.32
 11
-13.4756
 21
-127.662
  0
LINE
  8
0
 10
-13.4756
 20
-127.662
 11
-12.5473
 21
-127.981
  0
LINE
  8
0
 10
-12.5473
 20
-127.981
 11
-11.6114
 21
-128.278
  0
LINE
  8
0
 10
-11.6114
 20
-128.278
 11
-10.6685
 21
-128.551
  0
LINE
  8
0
 10
-10.6685
 20
-128.551
 11
-9.71919
 21
-128.801
  0
LINE
  8
0
 10
-9.71919
 20
-128.801
 11
-8.76404
 21
-129.028
  0
LINE
  8
0
 10
-8.76404
 20
-129.028
 11
-7.8036
 21
-129.231
  0
LINE
  8
0
 10
-7.8036
 20
-129.231
 11
-6.83847
 21
-129.411
  0
LINE
  8
0
 10
-6.83847
 20
-129.411
 11
-5.86922
 21
-129.567
  0
LINE
  8
0
 10
-5.86922
 20
-129.567
 11
-4.89642
 21
-129.699
  0
LINE
  8
0
 10
-4.89642
 20
-129.699
 11
-3.92068
 21
-129.807
  0
LINE
  8
0
 10
-3.92068
 20
-129.807
 11
-2.94258
 21
-129.892
  0
LINE
  8
0
 10
-2.94258
 20
-129.892
 11
-1.96269
 21
-129.952
  0
LINE
  8
0
 10
-1.96269
 20
-129.952
 11
-0.981644
 21
-129.988
  0
LINE
  8
0
 10
-0.981644
 20
-129.988
 11
0
 21
-130
  0
LINE
  8
0
 10
0
 20
-130
 11
0.981644
 21
-129.988
  0
LINE
  8
0
 10
-14.956
 20
-118.66
 11
-14.9253
 21
-113.297
  0
LINE
  8
0
 10
-14.9253
 20
-113.297
 11
-14.8774
 21
-101.663
  0
LINE
  8
0
 10
-14.8774
 20
-101.663
 11
-14.863
 21
-91.965
  0
LINE
  8
0
 10
-14.863
 20
-91.965
 11
-14.956
 21
-76.565
  0
LINE
  8
0
 10
-14.956
 20
-76.565
 11
-14.9521
 21
-75.7341
  0
LINE
  8
0
 10
-14.9521
 20
-75.7341
 11
-14.9402
 21
-74.9357
  0
LINE
  8
0
 10
-14.9402
 20
-74.9357
 11
-14.9205
 21
-74.1701
  0
LINE
  8
0
 10
-14.9205
 20
-74.1701
 11
-14.9029
 21
-73.6778
  0
LINE
  8
0
 10
-14.9029
 20
-73.6778
 11
-14.8818
 21
-73.2
  0
LINE
  8
0
 10
-14.8818
 20
-73.2
 11
-14.8573
 21
-72.7367
  0
LINE
  8
0
 10
-14.8573
 20
-72.7367
 11
-14.8292
 21
-72.2879
  0
LINE
  8
0
 10
-14.8292
 20
-72.2879
 11
-14.7975
 21
-71.8537
  0
LINE
  8
0
 10
-14.7975
 20
-71.8537
 11
-14.7624
 21
-71.4339
  0
LINE
  8
0
 10
-14.7624
 20
-71.4339
 11
-14.7238
 21
-71.0286
  0
LINE
  8
0
 10
-14.7238
 20
-71.0286
 11
-14.6817
 21
-70.6379
  0
LINE
  8
0
 10
-14.6817
 20
-70.6379
 11
-14.636
 21
-70.2617
  0
LINE
  8
0
 10
-14.636
 20
-70.2617
 11
-14.5869
 21
-69.8999
  0
LINE
  8
0
 10
-14.5869
 20
-69.8999
 11
-14.5342
 21
-69.5527
  0
LINE
  8
0
 10
-14.5342
 20
-69.5527
 11
-14.478
 21
-69.22
  0
LINE
  8
0
 10
-14.478
 20
-69.22
 11
-14.4164
 21
-68.8953
  0
LINE
  8
0
 10
-14.4164
 20
-68.8953
 11
-14.3476
 21
-68.5723
  0
LINE
  8
0
 10
-14.3476
 20
-68.5723
 11
-14.2717
 21
-68.2508
  0
LINE
  8
0
 10
-14.2717
 20
-68.2508
 11
-14.1887
 21
-67.9309
  0
LINE
  8
0
 10
-14.1887
 20
-67.9309
 11
-14.0985
 21
-67.6126
  0
LINE
  8
0
 10
-14.0985
 20
-67.6126
 11
-14.0013
 21
-67.2958
  0
LINE
  8
0
 10
-14.0013
 20
-67.2958
 11
-13.8968
 21
-66.9807
  0
LINE
  8
0
 10
-13.8968
 20
-66.9807
 11
-13.7853
 21
-66.6671
  0
LINE
  8
0
 10
-13.7853
 20
-66.6671
 11
-13.6666
 21
-66.3552
  0
LINE
  8
0
 10
-13.6666
 20
-66.3552
 11
-13.5407
 21
-66.0448
  0
LINE
  8
0
 10
-13.5407
 20
-66.0448
 11
-13.4078
 21
-65.736
  0
LINE
  8
0
 10
-13.4078
 20
-65.736
 11
-13.2677
 21
-65.4288
  0
LINE
  8
0
 10
-13.2677
 20
-65.4288
 11
-13.1205
 21
-65.1232
  0
LINE
  8
0
 10
-13.1205
 20
-65.1232
 11
-12.9661
 21
-64.8192
  0
LINE
  8
0
 10
-12.9661
 20
-64.8192
 11
-12.8046
 21
-64.5167
  0
LINE
  8
0
 10
-12.8046
 20
-64.5167
 11
-12.636
 21
-64.2158
  0
LINE
  8
0
 10
-12.636
 20
-64.2158
 11
-12.4603
 21
-63.9171
  0
LINE
  8
0
 10
-12.4603
 20
-63.9171
 11
-12.3699
 21
-63.7696
  0
LINE
  8
0
 10
-12.3699
 20
-63.7696
 11
-12.278
 21
-63.6236
  0
LINE
  8
0
 10
-12.278
 20
-63.6236
 11
-12.1846
 21
-63.479
  0
LINE
  8
0
 10
-12.1846
 20
-63.479
 11
-12.0895
 21
-63.3359
  0
LINE
  8
0
 10
-12.0895
 20
-63.3359
 11
-11.9928
 21
-63.1942
  0
LINE
  8
0
 10
-11.9928
 20
-63.1942
 11
-11.8946
 21
-63.054
  0
LINE
  8
0
 10
-11.8946
 20
-63.054
 11
-11.7947
 21
-62.9152
  0
LINE
  8
0
 10
-11.7947
 20
-62.9152
 11
-11.6933
 21
-62.7778
  0
LINE
  8
0
 10
-11.6933
 20
-62.7778
 11
-11.5903
 21
-62.6419
  0
LINE
  8
0
 10
-11.5903
 20
-62.6419
 11
-11.4857
 21
-62.5074
  0
LINE
  8
0
 10
-11.4857
 20
-62.5074
 11
-11.3795
 21
-62.3744
  0
LINE
  8
0
 10
-11.3795
 20
-62.3744
 11
-11.2717
 21
-62.2429
  0
LINE
  8
0
 10
-11.2717
 20
-62.2429
 11
-11.1624
 21
-62.1127
  0
LINE
  8
0
 10
-11.1624
 20
-62.1127
 11
-11.0514
 21
-61.9841
  0
LINE
  8
0
 10
-11.0514
 20
-61.9841
 11
-10.9389
 21
-61.8568
  0
LINE
  8
0
 10
-10.9389
 20
-61.8568
 11
-10.8248
 21
-61.731
  0
LINE
  8
0
 10
-10.8248
 20
-61.731
 11
-10.709
 21
-61.6067
  0
LINE
  8
0
 10
-10.709
 20
-61.6067
 11
-10.5918
 21
-61.4838
  0
LINE
  8
0
 10
-10.5918
 20
-61.4838
 11
-10.4729
 21
-61.3624
  0
LINE
  8
0
 10
-10.4729
 20
-61.3624
 11
-10.3524
 21
-61.2423
  0
LINE
  8
0
 10
-10.3524
 20
-61.2423
 11
-10.2303
 21
-61.1238
  0
LINE
  8
0
 10
-10.2303
 20
-61.1238
 11
-10.1067
 21
-61.0067
  0
LINE
  8
0
 10
-10.1067
 20
-61.0067
 11
-9.98148
 21
-60.891
  0
LINE
  8
0
 10
-9.98148
 20
-60.891
 11
-9.85466
 21
-60.7768
  0
LINE
  8
0
 10
-9.85466
 20
-60.7768
 11
-9.72626
 21
-60.664
  0
LINE
  8
0
 10
-9.72626
 20
-60.664
 11
-9.59627
 21
-60.5527
  0
LINE
  8
0
 10
-9.59627
 20
-60.5527
 11
-9.46469
 21
-60.4428
  0
LINE
  8
0
 10
-9.46469
 20
-60.4428
 11
-9.33153
 21
-60.3343
  0
LINE
  8
0
 10
-9.33153
 20
-60.3343
 11
-9.19678
 21
-60.2273
  0
LINE
  8
0
 10
-9.19678
 20
-60.2273
 11
-9.06044
 21
-60.1218
  0
LINE
  8
0
 10
-9.06044
 20
-60.1218
 11
-8.92252
 21
-60.0177
  0
LINE
  8
0
 10
-8.92252
 20
-60.0177
 11
-8.783
 21
-59.915
  0
LINE
  8
0
 10
-8.783
 20
-59.915
 11
-8.50122
 21
-59.715
  0
LINE
  8
0
 10
-8.50122
 20
-59.715
 11
-8.21706
 21
-59.5227
  0
LINE
  8
0
 10
-8.21706
 20
-59.5227
 11
-7.93051
 21
-59.3381
  0
LINE
  8
0
 10
-7.93051
 20
-59.3381
 11
-7.6416
 21
-59.1612
  0
LINE
  8
0
 10
-7.6416
 20
-59.1612
 11
-7.35031
 21
-58.992
  0
LINE
  8
0
 10
-7.35031
 20
-58.992
 11
-7.05666
 21
-58.8306
  0
LINE
  8
0
 10
-7.05666
 20
-58.8306
 11
-6.76064
 21
-58.6768
  0
LINE
  8
0
 10
-6.76064
 20
-58.6768
 11
-6.46223
 21
-58.5308
  0
LINE
  8
0
 10
-6.46223
 20
-58.5308
 11
-6.31213
 21
-58.4607
  0
LINE
  8
0
 10
-6.31213
 20
-58.4607
 11
-6.01018
 21
-58.3262
  0
LINE
  8
0
 10
-6.01018
 20
-58.3262
 11
-5.85831
 21
-58.2619
  0
LINE
  8
0
 10
-5.85831
 20
-58.2619
 11
-5.70584
 21
-58.1995
  0
LINE
  8
0
 10
-5.70584
 20
-58.1995
 11
-5.55278
 21
-58.139
  0
LINE
  8
0
 10
-5.55278
 20
-58.139
 11
-5.39914
 21
-58.0805
  0
LINE
  8
0
 10
-5.39914
 20
-58.0805
 11
-5.24489
 21
-58.0238
  0
LINE
  8
0
 10
-5.24489
 20
-58.0238
 11
-4.93463
 21
-57.9164
  0
LINE
  8
0
 10
-4.93463
 20
-57.9164
 11
-4.62199
 21
-57.8166
  0
LINE
  8
0
 10
-4.62199
 20
-57.8166
 11
-4.30698
 21
-57.7246
  0
LINE
  8
0
 10
-4.30698
 20
-57.7246
 11
-4.14857
 21
-57.6815
  0
LINE
  8
0
 10
-4.14857
 20
-57.6815
 11
-3.98959
 21
-57.6403
  0
LINE
  8
0
 10
-3.98959
 20
-57.6403
 11
-3.67
 21
-57.5632
  0
LINE
  8
0
 10
-3.67
 20
-57.5632
 11
-3.34955
 21
-57.4911
  0
LINE
  8
0
 10
-3.34955
 20
-57.4911
 11
-3.02855
 21
-57.4237
  0
LINE
  8
0
 10
-3.02855
 20
-57.4237
 11
-2.70697
 21
-57.3609
  0
LINE
  8
0
 10
-2.70697
 20
-57.3609
 11
-2.38483
 21
-57.3028
  0
LINE
  8
0
 10
-2.38483
 20
-57.3028
 11
-2.06212
 21
-57.2493
  0
LINE
  8
0
 10
-2.06212
 20
-57.2493
 11
-1.73885
 21
-57.2005
  0
LINE
  8
0
 10
-1.73885
 20
-57.2005
 11
-1.41501
 21
-57.1563
  0
LINE
  8
0
 10
-1.41501
 20
-57.1563
 11
-1.09061
 21
-57.1168
  0
LINE
  8
0
 10
-1.09061
 20
-57.1168
 11
-0.76564
 21
-57.0819
  0
LINE
  8
0
 10
-0.76564
 20
-57.0819
 11
-0.440094
 21
-57.0517
  0
LINE
  8
0
 10
-0.440094
 20
-57.0517
 11
-0.113998
 21
-57.0261
  0
LINE
  8
0
 10
-0.113998
 20
-57.0261
 11
0.212662
 21
-57.0052
  0
LINE
  8
0
 10
0.212662
 20
-57.0052
 11
0.539902
 21
-56.9889
  0
LINE
  8
0
 10
0.539902
 20
-56.9889
 11
0.867706
 21
-56.9773
  0
LINE
  8
0
 10
0.867706
 20
-56.9773
 11
1.19606
 21
-56.9703
  0
LINE
  8
0
 10
1.19606
 20
-56.9703
 11
1.52499
 21
-56.968
  0
LINE
  8
0
 10
1.52499
 20
-56.968
 11
1.82777
 21
-56.9698
  0
LINE
  8
0
 10
1.82777
 20
-56.9698
 11
2.12631
 21
-56.9754
  0
LINE
  8
0
 10
2.12631
 20
-56.9754
 11
2.42059
 21
-56.9846
  0
LINE
  8
0
 10
2.42059
 20
-56.9846
 11
2.71062
 21
-56.9975
  0
LINE
  8
0
 10
2.71062
 20
-56.9975
 11
2.9964
 21
-57.0141
  0
LINE
  8
0
 10
2.9964
 20
-57.0141
 11
3.27792
 21
-57.0343
  0
LINE
  8
0
 10
3.27792
 20
-57.0343
 11
3.55519
 21
-57.0583
  0
LINE
  8
0
 10
3.55519
 20
-57.0583
 11
3.82822
 21
-57.086
  0
LINE
  8
0
 10
3.82822
 20
-57.086
 11
4.09698
 21
-57.1173
  0
LINE
  8
0
 10
4.09698
 20
-57.1173
 11
4.3615
 21
-57.1523
  0
LINE
  8
0
 10
4.3615
 20
-57.1523
 11
4.62177
 21
-57.191
  0
LINE
  8
0
 10
4.62177
 20
-57.191
 11
4.87779
 21
-57.2334
  0
LINE
  8
0
 10
4.87779
 20
-57.2334
 11
5.12955
 21
-57.2795
  0
LINE
  8
0
 10
5.12955
 20
-57.2795
 11
5.37706
 21
-57.3292
  0
LINE
  8
0
 10
5.37706
 20
-57.3292
 11
5.62032
 21
-57.3827
  0
LINE
  8
0
 10
5.62032
 20
-57.3827
 11
5.85933
 21
-57.4398
  0
LINE
  8
0
 10
5.85933
 20
-57.4398
 11
6.09409
 21
-57.5006
  0
LINE
  8
0
 10
6.09409
 20
-57.5006
 11
6.3246
 21
-57.5651
  0
LINE
  8
0
 10
6.3246
 20
-57.5651
 11
6.55086
 21
-57.6333
  0
LINE
  8
0
 10
6.55086
 20
-57.6333
 11
6.77286
 21
-57.7052
  0
LINE
  8
0
 10
6.77286
 20
-57.7052
 11
6.9906
 21
-57.7808
  0
LINE
  8
0
 10
6.9906
 20
-57.7808
 11
7.2041
 21
-57.86
  0
LINE
  8
0
 10
7.2041
 20
-57.86
 11
7.41335
 21
-57.9429
  0
LINE
  8
0
 10
7.41335
 20
-57.9429
 11
7.61835
 21
-58.0296
  0
LINE
  8
0
 10
7.61835
 20
-58.0296
 11
7.81909
 21
-58.1199
  0
LINE
  8
0
 10
7.81909
 20
-58.1199
 11
8.01558
 21
-58.2139
  0
LINE
  8
0
 10
8.01558
 20
-58.2139
 11
8.20782
 21
-58.3115
  0
LINE
  8
0
 10
8.20782
 20
-58.3115
 11
8.39581
 21
-58.4129
  0
LINE
  8
0
 10
8.39581
 20
-58.4129
 11
8.57956
 21
-58.5179
  0
LINE
  8
0
 10
8.57956
 20
-58.5179
 11
8.75905
 21
-58.6267
  0
LINE
  8
0
 10
8.75905
 20
-58.6267
 11
8.93428
 21
-58.7391
  0
LINE
  8
0
 10
8.93428
 20
-58.7391
 11
9.10526
 21
-58.8552
  0
LINE
  8
0
 10
9.10526
 20
-58.8552
 11
9.27199
 21
-58.975
  0
LINE
  8
0
 10
9.27199
 20
-58.975
 11
9.4341
 21
-59.0985
  0
LINE
  8
0
 10
9.4341
 20
-59.0985
 11
9.59123
 21
-59.2259
  0
LINE
  8
0
 10
9.59123
 20
-59.2259
 11
9.74336
 21
-59.3571
  0
LINE
  8
0
 10
9.74336
 20
-59.3571
 11
9.89052
 21
-59.4922
  0
LINE
  8
0
 10
9.89052
 20
-59.4922
 11
10.0327
 21
-59.6311
  0
LINE
  8
0
 10
10.0327
 20
-59.6311
 11
10.1698
 21
-59.7738
  0
LINE
  8
0
 10
10.1698
 20
-59.7738
 11
10.302
 21
-59.9205
  0
LINE
  8
0
 10
10.302
 20
-59.9205
 11
10.4292
 21
-60.071
  0
LINE
  8
0
 10
10.4292
 20
-60.071
 11
10.5514
 21
-60.2253
  0
LINE
  8
0
 10
10.5514
 20
-60.2253
 11
10.6687
 21
-60.3835
  0
LINE
  8
0
 10
10.6687
 20
-60.3835
 11
10.7809
 21
-60.5456
  0
LINE
  8
0
 10
10.7809
 20
-60.5456
 11
10.8881
 21
-60.7115
  0
LINE
  8
0
 10
10.8881
 20
-60.7115
 11
10.9904
 21
-60.8812
  0
LINE
  8
0
 10
10.9904
 20
-60.8812
 11
11.0876
 21
-61.0549
  0
LINE
  8
0
 10
11.0876
 20
-61.0549
 11
11.1799
 21
-61.2323
  0
LINE
  8
0
 10
11.1799
 20
-61.2323
 11
11.2672
 21
-61.4137
  0
LINE
  8
0
 10
11.2672
 20
-61.4137
 11
11.3495
 21
-61.5988
  0
LINE
  8
0
 10
11.3495
 20
-61.5988
 11
11.4268
 21
-61.7879
  0
LINE
  8
0
 10
11.4268
 20
-61.7879
 11
11.4992
 21
-61.9808
  0
LINE
  8
0
 10
11.4992
 20
-61.9808
 11
11.5665
 21
-62.1775
  0
LINE
  8
0
 10
11.5665
 20
-62.1775
 11
11.6288
 21
-62.3781
  0
LINE
  8
0
 10
11.6288
 20
-62.3781
 11
11.6862
 21
-62.5826
  0
LINE
  8
0
 10
11.6862
 20
-62.5826
 11
11.7386
 21
-62.7909
  0
LINE
  8
0
 10
11.7386
 20
-62.7909
 11
11.786
 21
-63.003
  0
LINE
  8
0
 10
11.786
 20
-63.003
 11
11.8284
 21
-63.2191
  0
LINE
  8
0
 10
11.8284
 20
-63.2191
 11
11.8658
 21
-63.4389
  0
LINE
  8
0
 10
11.8658
 20
-63.4389
 11
11.8982
 21
-63.6627
  0
LINE
  8
0
 10
11.8982
 20
-63.6627
 11
11.9256
 21
-63.8903
  0
LINE
  8
0
 10
11.9256
 20
-63.8903
 11
11.9481
 21
-64.1217
  0
LINE
  8
0
 10
11.9481
 20
-64.1217
 11
11.9655
 21
-64.357
  0
LINE
  8
0
 10
11.9655
 20
-64.357
 11
11.978
 21
-64.5961
  0
LINE
  8
0
 10
11.978
 20
-64.5961
 11
11.9855
 21
-64.8391
  0
LINE
  8
0
 10
11.9855
 20
-64.8391
 11
11.988
 21
-65.086
  0
LINE
  8
0
 10
11.988
 20
-65.086
 11
11.9848
 21
-65.3507
  0
LINE
  8
0
 10
11.9848
 20
-65.3507
 11
11.9751
 21
-65.6136
  0
LINE
  8
0
 10
11.9751
 20
-65.6136
 11
11.9589
 21
-65.8748
  0
LINE
  8
0
 10
11.9589
 20
-65.8748
 11
11.9363
 21
-66.134
  0
LINE
  8
0
 10
11.9363
 20
-66.134
 11
11.9073
 21
-66.3915
  0
LINE
  8
0
 10
11.9073
 20
-66.3915
 11
11.8717
 21
-66.6472
  0
LINE
  8
0
 10
11.8717
 20
-66.6472
 11
11.8297
 21
-66.901
  0
LINE
  8
0
 10
11.8297
 20
-66.901
 11
11.7813
 21
-67.153
  0
LINE
  8
0
 10
11.7813
 20
-67.153
 11
11.7264
 21
-67.4032
  0
LINE
  8
0
 10
11.7264
 20
-67.4032
 11
11.665
 21
-67.6516
  0
LINE
  8
0
 10
11.665
 20
-67.6516
 11
11.5972
 21
-67.8982
  0
LINE
  8
0
 10
11.5972
 20
-67.8982
 11
11.5229
 21
-68.143
  0
LINE
  8
0
 10
11.5229
 20
-68.143
 11
11.4422
 21
-68.386
  0
LINE
  8
0
 10
11.4422
 20
-68.386
 11
11.355
 21
-68.6271
  0
LINE
  8
0
 10
11.355
 20
-68.6271
 11
11.2613
 21
-68.8664
  0
LINE
  8
0
 10
11.2613
 20
-68.8664
 11
11.1612
 21
-69.1039
  0
LINE
  8
0
 10
11.1612
 20
-69.1039
 11
11.0546
 21
-69.3396
  0
LINE
  8
0
 10
11.0546
 20
-69.3396
 11
10.9416
 21
-69.5735
  0
LINE
  8
0
 10
10.9416
 20
-69.5735
 11
10.8221
 21
-69.8056
  0
LINE
  8
0
 10
10.8221
 20
-69.8056
 11
10.6962
 21
-70.0358
  0
LINE
  8
0
 10
10.6962
 20
-70.0358
 11
10.5638
 21
-70.2643
  0
LINE
  8
0
 10
10.5638
 20
-70.2643
 11
10.4249
 21
-70.4909
  0
LINE
  8
0
 10
10.4249
 20
-70.4909
 11
10.2796
 21
-70.7157
  0
LINE
  8
0
 10
10.2796
 20
-70.7157
 11
10.1278
 21
-70.9387
  0
LINE
  8
0
 10
10.1278
 20
-70.9387
 11
9.96951
 21
-71.1599
  0
LINE
  8
0
 10
9.96951
 20
-71.1599
 11
9.80481
 21
-71.3792
  0
LINE
  8
0
 10
9.80481
 20
-71.3792
 11
9.63364
 21
-71.5968
  0
LINE
  8
0
 10
9.63364
 20
-71.5968
 11
9.45601
 21
-71.8125
  0
LINE
  8
0
 10
9.45601
 20
-71.8125
 11
9.27193
 21
-72.0265
  0
LINE
  8
0
 10
9.27193
 20
-72.0265
 11
9.08138
 21
-72.2386
  0
LINE
  8
0
 10
9.08138
 20
-72.2386
 11
8.88438
 21
-72.4489
  0
LINE
  8
0
 10
8.88438
 20
-72.4489
 11
8.68091
 21
-72.6573
  0
LINE
  8
0
 10
8.68091
 20
-72.6573
 11
8.47099
 21
-72.864
  0
LINE
  8
0
 10
8.47099
 20
-72.864
 11
8.25642
 21
-73.0673
  0
LINE
  8
0
 10
8.25642
 20
-73.0673
 11
8.03893
 21
-73.2658
  0
LINE
  8
0
 10
8.03893
 20
-73.2658
 11
7.81847
 21
-73.4594
  0
LINE
  8
0
 10
7.81847
 20
-73.4594
 11
7.59506
 21
-73.648
  0
LINE
  8
0
 10
7.59506
 20
-73.648
 11
7.36871
 21
-73.8319
  0
LINE
  8
0
 10
7.36871
 20
-73.8319
 11
7.13942
 21
-74.0108
  0
LINE
  8
0
 10
7.13942
 20
-74.0108
 11
6.90718
 21
-74.1849
  0
LINE
  8
0
 10
6.90718
 20
-74.1849
 11
6.672
 21
-74.3541
  0
LINE
  8
0
 10
6.672
 20
-74.3541
 11
6.43387
 21
-74.5184
  0
LINE
  8
0
 10
6.43387
 20
-74.5184
 11
6.19279
 21
-74.6779
  0
LINE
  8
0
 10
6.19279
 20
-74.6779
 11
5.94878
 21
-74.8325
  0
LINE
  8
0
 10
5.94878
 20
-74.8325
 11
5.7018
 21
-74.9822
  0
LINE
  8
0
 10
5.7018
 20
-74.9822
 11
5.45189
 21
-75.127
  0
LINE
  8
0
 10
5.45189
 20
-75.127
 11
5.19904
 21
-75.2669
  0
LINE
  8
0
 10
5.19904
 20
-75.2669
 11
4.94322
 21
-75.402
  0
LINE
  8
0
 10
4.94322
 20
-75.402
 11
4.68448
 21
-75.5322
  0
LINE
  8
0
 10
4.68448
 20
-75.5322
 11
4.42278
 21
-75.6576
  0
LINE
  8
0
 10
4.42278
 20
-75.6576
 11
4.15813
 21
-75.778
  0
LINE
  8
0
 10
4.15813
 20
-75.778
 11
3.89055
 21
-75.8936
  0
LINE
  8
0
 10
3.89055
 20
-75.8936
 11
3.62001
 21
-76.0043
  0
LINE
  8
0
 10
3.62001
 20
-76.0043
 11
3.34653
 21
-76.1102
  0
LINE
  8
0
 10
3.34653
 20
-76.1102
 11
3.0701
 21
-76.2111
  0
LINE
  8
0
 10
3.0701
 20
-76.2111
 11
2.79073
 21
-76.3072
  0
LINE
  8
0
 10
2.79073
 20
-76.3072
 11
2.50841
 21
-76.3984
  0
LINE
  8
0
 10
2.50841
 20
-76.3984
 11
2.22314
 21
-76.4848
  0
LINE
  8
0
 10
2.22314
 20
-76.4848
 11
1.93494
 21
-76.5662
  0
LINE
  8
0
 10
1.93494
 20
-76.5662
 11
1.64378
 21
-76.6428
  0
LINE
  8
0
 10
1.64378
 20
-76.6428
 11
1.34969
 21
-76.7145
  0
LINE
  8
0
 10
1.34969
 20
-76.7145
 11
1.05264
 21
-76.7814
  0
LINE
  8
0
 10
1.05264
 20
-76.7814
 11
0.75264
 21
-76.8434
  0
LINE
  8
0
 10
0.75264
 20
-76.8434
 11
0.449707
 21
-76.9004
  0
LINE
  8
0
 10
0.449707
 20
-76.9004
 11
0.143829
 21
-76.9527
  0
LINE
  8
0
 10
0.143829
 20
-76.9527
 11
-0.165009
 21
-77
  0
LINE
  8
0
 10
-0.165009
 20
-77
 11
-0.165009
 21
-77.524
  0
LINE
  8
0
 10
-0.165009
 20
-77.524
 11
0.196579
 21
-77.53
  0
LINE
  8
0
 10
0.196579
 20
-77.53
 11
0.88121
 21
-77.5587
  0
LINE
  8
0
 10
0.88121
 20
-77.5587
 11
2.06729
 21
-77.6301
  0
LINE
  8
0
 10
2.06729
 20
-77.6301
 11
4.18399
 21
-77.786
  0
LINE
  8
0
 10
4.18399
 20
-77.786
 11
4.58435
 21
-77.8208
  0
LINE
  8
0
 10
4.58435
 20
-77.8208
 11
4.97791
 21
-77.8618
  0
LINE
  8
0
 10
4.97791
 20
-77.8618
 11
5.36465
 21
-77.9088
  0
LINE
  8
0
 10
5.36465
 20
-77.9088
 11
5.7446
 21
-77.962
  0
LINE
  8
0
 10
5.7446
 20
-77.962
 11
6.11775
 21
-78.0213
  0
LINE
  8
0
 10
6.11775
 20
-78.0213
 11
6.48409
 21
-78.0867
  0
LINE
  8
0
 10
6.48409
 20
-78.0867
 11
6.84363
 21
-78.1582
  0
LINE
  8
0
 10
6.84363
 20
-78.1582
 11
7.19637
 21
-78.2359
  0
LINE
  8
0
 10
7.19637
 20
-78.2359
 11
7.54231
 21
-78.3197
  0
LINE
  8
0
 10
7.54231
 20
-78.3197
 11
7.88144
 21
-78.4095
  0
LINE
  8
0
 10
7.88144
 20
-78.4095
 11
8.21378
 21
-78.5056
  0
LINE
  8
0
 10
8.21378
 20
-78.5056
 11
8.53929
 21
-78.6077
  0
LINE
  8
0
 10
8.53929
 20
-78.6077
 11
8.85802
 21
-78.7159
  0
LINE
  8
0
 10
8.85802
 20
-78.7159
 11
9.01483
 21
-78.7724
  0
LINE
  8
0
 10
9.01483
 20
-78.7724
 11
9.16995
 21
-78.8303
  0
LINE
  8
0
 10
9.16995
 20
-78.8303
 11
9.32336
 21
-78.8898
  0
LINE
  8
0
 10
9.32336
 20
-78.8898
 11
9.47507
 21
-78.9508
  0
LINE
  8
0
 10
9.47507
 20
-78.9508
 11
9.62508
 21
-79.0133
  0
LINE
  8
0
 10
9.62508
 20
-79.0133
 11
9.77339
 21
-79.0774
  0
LINE
  8
0
 10
9.77339
 20
-79.0774
 11
9.92
 21
-79.143
  0
LINE
  8
0
 10
9.92
 20
-79.143
 11
10.0647
 21
-79.2102
  0
LINE
  8
0
 10
10.0647
 20
-79.2102
 11
10.2075
 21
-79.2791
  0
LINE
  8
0
 10
10.2075
 20
-79.2791
 11
10.3482
 21
-79.3498
  0
LINE
  8
0
 10
10.3482
 20
-79.3498
 11
10.4868
 21
-79.4223
  0
LINE
  8
0
 10
10.4868
 20
-79.4223
 11
10.6235
 21
-79.4965
  0
LINE
  8
0
 10
10.6235
 20
-79.4965
 11
10.7581
 21
-79.5725
  0
LINE
  8
0
 10
10.7581
 20
-79.5725
 11
10.8907
 21
-79.6502
  0
LINE
  8
0
 10
10.8907
 20
-79.6502
 11
11.0213
 21
-79.7297
  0
LINE
  8
0
 10
11.0213
 20
-79.7297
 11
11.1498
 21
-79.8109
  0
LINE
  8
0
 10
11.1498
 20
-79.8109
 11
11.2764
 21
-79.8939
  0
LINE
  8
0
 10
11.2764
 20
-79.8939
 11
11.4009
 21
-79.9787
  0
LINE
  8
0
 10
11.4009
 20
-79.9787
 11
11.5234
 21
-80.0652
  0
LINE
  8
0
 10
11.5234
 20
-80.0652
 11
11.6438
 21
-80.1535
  0
LINE
  8
0
 10
11.6438
 20
-80.1535
 11
11.7623
 21
-80.2435
  0
LINE
  8
0
 10
11.7623
 20
-80.2435
 11
11.8787
 21
-80.3353
  0
LINE
  8
0
 10
11.8787
 20
-80.3353
 11
11.9931
 21
-80.4288
  0
LINE
  8
0
 10
11.9931
 20
-80.4288
 11
12.1054
 21
-80.5241
  0
LINE
  8
0
 10
12.1054
 20
-80.5241
 11
12.2158
 21
-80.6212
  0
LINE
  8
0
 10
12.2158
 20
-80.6212
 11
12.3241
 21
-80.72
  0
LINE
  8
0
 10
12.3241
 20
-80.72
 11
12.4304
 21
-80.8206
  0
LINE
  8
0
 10
12.4304
 20
-80.8206
 11
12.5346
 21
-80.9229
  0
LINE
  8
0
 10
12.5346
 20
-80.9229
 11
12.6369
 21
-81.027
  0
LINE
  8
0
 10
12.6369
 20
-81.027
 11
12.7371
 21
-81.1329
  0
LINE
  8
0
 10
12.7371
 20
-81.1329
 11
12.8353
 21
-81.2405
  0
LINE
  8
0
 10
12.8353
 20
-81.2405
 11
12.9315
 21
-81.3498
  0
LINE
  8
0
 10
12.9315
 20
-81.3498
 11
13.0256
 21
-81.461
  0
LINE
  8
0
 10
13.0256
 20
-81.461
 11
13.1177
 21
-81.5738
  0
LINE
  8
0
 10
13.1177
 20
-81.5738
 11
13.2078
 21
-81.6885
  0
LINE
  8
0
 10
13.2078
 20
-81.6885
 11
13.2959
 21
-81.8049
  0
LINE
  8
0
 10
13.2959
 20
-81.8049
 11
13.382
 21
-81.923
  0
LINE
  8
0
 10
13.382
 20
-81.923
 11
13.466
 21
-82.0429
  0
LINE
  8
0
 10
13.466
 20
-82.0429
 11
13.548
 21
-82.1646
  0
LINE
  8
0
 10
13.548
 20
-82.1646
 11
13.628
 21
-82.288
  0
LINE
  8
0
 10
13.628
 20
-82.288
 11
13.7058
 21
-82.4127
  0
LINE
  8
0
 10
13.7058
 20
-82.4127
 11
13.7813
 21
-82.5383
  0
LINE
  8
0
 10
13.7813
 20
-82.5383
 11
13.8543
 21
-82.6647
  0
LINE
  8
0
 10
13.8543
 20
-82.6647
 11
13.925
 21
-82.792
  0
LINE
  8
0
 10
13.925
 20
-82.792
 11
13.9932
 21
-82.9202
  0
LINE
  8
0
 10
13.9932
 20
-82.9202
 11
14.0591
 21
-83.0493
  0
LINE
  8
0
 10
14.0591
 20
-83.0493
 11
14.1225
 21
-83.1792
  0
LINE
  8
0
 10
14.1225
 20
-83.1792
 11
14.1836
 21
-83.31
  0
LINE
  8
0
 10
14.1836
 20
-83.31
 11
14.2423
 21
-83.4417
  0
LINE
  8
0
 10
14.2423
 20
-83.4417
 11
14.2986
 21
-83.5743
  0
LINE
  8
0
 10
14.2986
 20
-83.5743
 11
14.3524
 21
-83.7078
  0
LINE
  8
0
 10
14.3524
 20
-83.7078
 11
14.4039
 21
-83.8421
  0
LINE
  8
0
 10
14.4039
 20
-83.8421
 11
14.453
 21
-83.9773
  0
LINE
  8
0
 10
14.453
 20
-83.9773
 11
14.4997
 21
-84.1134
  0
LINE
  8
0
 10
14.4997
 20
-84.1134
 11
14.544
 21
-84.2504
  0
LINE
  8
0
 10
14.544
 20
-84.2504
 11
14.5859
 21
-84.3883
  0
LINE
  8
0
 10
14.5859
 20
-84.3883
 11
14.6255
 21
-84.527
  0
LINE
  8
0
 10
14.6255
 20
-84.527
 11
14.6626
 21
-84.6666
  0
LINE
  8
0
 10
14.6626
 20
-84.6666
 11
14.6973
 21
-84.8071
  0
LINE
  8
0
 10
14.6973
 20
-84.8071
 11
14.7296
 21
-84.9484
  0
LINE
  8
0
 10
14.7296
 20
-84.9484
 11
14.7596
 21
-85.0907
  0
LINE
  8
0
 10
14.7596
 20
-85.0907
 11
14.7871
 21
-85.2338
  0
LINE
  8
0
 10
14.7871
 20
-85.2338
 11
14.8123
 21
-85.3778
  0
LINE
  8
0
 10
14.8123
 20
-85.3778
 11
14.835
 21
-85.5227
  0
LINE
  8
0
 10
14.835
 20
-85.5227
 11
14.8554
 21
-85.6684
  0
LINE
  8
0
 10
14.8554
 20
-85.6684
 11
14.8733
 21
-85.815
  0
LINE
  8
0
 10
14.8733
 20
-85.815
 11
14.8889
 21
-85.9625
  0
LINE
  8
0
 10
14.8889
 20
-85.9625
 11
14.9021
 21
-86.1109
  0
LINE
  8
0
 10
14.9021
 20
-86.1109
 11
14.9128
 21
-86.2602
  0
LINE
  8
0
 10
14.9128
 20
-86.2602
 11
14.9212
 21
-86.4103
  0
LINE
  8
0
 10
14.9212
 20
-86.4103
 11
14.9272
 21
-86.5613
  0
LINE
  8
0
 10
14.9272
 20
-86.5613
 11
14.9308
 21
-86.7132
  0
LINE
  8
0
 10
14.9308
 20
-86.7132
 11
14.932
 21
-86.866
  0
LINE
  8
0
 10
14.932
 20
-86.866
 11
14.9305
 21
-87.0583
  0
LINE
  8
0
 10
14.9305
 20
-87.0583
 11
14.9259
 21
-87.25
  0
LINE
  8
0
 10
14.9259
 20
-87.25
 11
14.9183
 21
-87.4413
  0
LINE
  8
0
 10
14.9183
 20
-87.4413
 11
14.9076
 21
-87.6321
  0
LINE
  8
0
 10
14.9076
 20
-87.6321
 11
14.8939
 21
-87.8224
  0
LINE
  8
0
 10
14.8939
 20
-87.8224
 11
14.8771
 21
-88.0123
  0
LINE
  8
0
 10
14.8771
 20
-88.0123
 11
14.8573
 21
-88.2016
  0
LINE
  8
0
 10
14.8573
 20
-88.2016
 11
14.8344
 21
-88.3905
  0
LINE
  8
0
 10
14.8344
 20
-88.3905
 11
14.8084
 21
-88.5789
  0
LINE
  8
0
 10
14.8084
 20
-88.5789
 11
14.7795
 21
-88.7668
  0
LINE
  8
0
 10
14.7795
 20
-88.7668
 11
14.7474
 21
-88.9542
  0
LINE
  8
0
 10
14.7474
 20
-88.9542
 11
14.7124
 21
-89.1412
  0
LINE
  8
0
 10
14.7124
 20
-89.1412
 11
14.6742
 21
-89.3277
  0
LINE
  8
0
 10
14.6742
 20
-89.3277
 11
14.633
 21
-89.5136
  0
LINE
  8
0
 10
14.633
 20
-89.5136
 11
14.5888
 21
-89.6991
  0
LINE
  8
0
 10
14.5888
 20
-89.6991
 11
14.5415
 21
-89.8842
  0
LINE
  8
0
 10
14.5415
 20
-89.8842
 11
14.4912
 21
-90.0687
  0
LINE
  8
0
 10
14.4912
 20
-90.0687
 11
14.4378
 21
-90.2528
  0
LINE
  8
0
 10
14.4378
 20
-90.2528
 11
14.3814
 21
-90.4364
  0
LINE
  8
0
 10
14.3814
 20
-90.4364
 11
14.3219
 21
-90.6195
  0
LINE
  8
0
 10
14.3219
 20
-90.6195
 11
14.2594
 21
-90.8021
  0
LINE
  8
0
 10
14.2594
 20
-90.8021
 11
14.1938
 21
-90.9842
  0
LINE
  8
0
 10
14.1938
 20
-90.9842
 11
14.1251
 21
-91.1659
  0
LINE
  8
0
 10
14.1251
 20
-91.1659
 11
14.0535
 21
-91.3471
  0
LINE
  8
0
 10
14.0535
 20
-91.3471
 11
13.9787
 21
-91.5278
  0
LINE
  8
0
 10
13.9787
 20
-91.5278
 11
13.9009
 21
-91.708
  0
LINE
  8
0
 10
13.9009
 20
-91.708
 11
13.8201
 21
-91.8877
  0
LINE
  8
0
 10
13.8201
 20
-91.8877
 11
13.7362
 21
-92.067
  0
LINE
  8
0
 10
13.7362
 20
-92.067
 11
13.6493
 21
-92.2457
  0
LINE
  8
0
 10
13.6493
 20
-92.2457
 11
13.5593
 21
-92.424
  0
LINE
  8
0
 10
13.5593
 20
-92.424
 11
13.4662
 21
-92.6018
  0
LINE
  8
0
 10
13.4662
 20
-92.6018
 11
13.3701
 21
-92.7792
  0
LINE
  8
0
 10
13.3701
 20
-92.7792
 11
13.271
 21
-92.956
  0
LINE
  8
0
 10
13.271
 20
-92.956
 11
13.1692
 21
-93.1318
  0
LINE
  8
0
 10
13.1692
 20
-93.1318
 11
13.0653
 21
-93.3058
  0
LINE
  8
0
 10
13.0653
 20
-93.3058
 11
12.9592
 21
-93.4782
  0
LINE
  8
0
 10
12.9592
 20
-93.4782
 11
12.8508
 21
-93.6488
  0
LINE
  8
0
 10
12.8508
 20
-93.6488
 11
12.7403
 21
-93.8178
  0
LINE
  8
0
 10
12.7403
 20
-93.8178
 11
12.6277
 21
-93.9851
  0
LINE
  8
0
 10
12.6277
 20
-93.9851
 11
12.5128
 21
-94.1506
  0
LINE
  8
0
 10
12.5128
 20
-94.1506
 11
12.3957
 21
-94.3145
  0
LINE
  8
0
 10
12.3957
 20
-94.3145
 11
12.2765
 21
-94.4767
  0
LINE
  8
0
 10
12.2765
 20
-94.4767
 11
12.155
 21
-94.6371
  0
LINE
  8
0
 10
12.155
 20
-94.6371
 11
12.0314
 21
-94.7959
  0
LINE
  8
0
 10
12.0314
 20
-94.7959
 11
11.9056
 21
-94.953
  0
LINE
  8
0
 10
11.9056
 20
-94.953
 11
11.7776
 21
-95.1083
  0
LINE
  8
0
 10
11.7776
 20
-95.1083
 11
11.6475
 21
-95.262
  0
LINE
  8
0
 10
11.6475
 20
-95.262
 11
11.5151
 21
-95.414
  0
LINE
  8
0
 10
11.5151
 20
-95.414
 11
11.3806
 21
-95.5643
  0
LINE
  8
0
 10
11.3806
 20
-95.5643
 11
11.2439
 21
-95.7128
  0
LINE
  8
0
 10
11.2439
 20
-95.7128
 11
11.1049
 21
-95.8597
  0
LINE
  8
0
 10
11.1049
 20
-95.8597
 11
10.9639
 21
-96.0049
  0
LINE
  8
0
 10
10.9639
 20
-96.0049
 11
10.8206
 21
-96.1484
  0
LINE
  8
0
 10
10.8206
 20
-96.1484
 11
10.6751
 21
-96.2901
  0
LINE
  8
0
 10
10.6751
 20
-96.2901
 11
10.5274
 21
-96.4302
  0
LINE
  8
0
 10
10.5274
 20
-96.4302
 11
10.3776
 21
-96.5686
  0
LINE
  8
0
 10
10.3776
 20
-96.5686
 11
10.2256
 21
-96.7053
  0
LINE
  8
0
 10
10.2256
 20
-96.7053
 11
10.0714
 21
-96.8403
  0
LINE
  8
0
 10
10.0714
 20
-96.8403
 11
9.91496
 21
-96.9736
  0
LINE
  8
0
 10
9.91496
 20
-96.9736
 11
9.75638
 21
-97.1052
  0
LINE
  8
0
 10
9.75638
 20
-97.1052
 11
9.59561
 21
-97.235
  0
LINE
  8
0
 10
9.59561
 20
-97.235
 11
9.43266
 21
-97.3632
  0
LINE
  8
0
 10
9.43266
 20
-97.3632
 11
9.26752
 21
-97.4897
  0
LINE
  8
0
 10
9.26752
 20
-97.4897
 11
9.1002
 21
-97.6145
  0
LINE
  8
0
 10
9.1002
 20
-97.6145
 11
8.93069
 21
-97.7376
  0
LINE
  8
0
 10
8.93069
 20
-97.7376
 11
8.75899
 21
-97.859
  0
LINE
  8
0
 10
8.75899
 20
-97.859
 11
8.58589
 21
-97.9784
  0
LINE
  8
0
 10
8.58589
 20
-97.9784
 11
8.41205
 21
-98.0957
  0
LINE
  8
0
 10
8.41205
 20
-98.0957
 11
8.23747
 21
-98.2109
  0
LINE
  8
0
 10
8.23747
 20
-98.2109
 11
8.06215
 21
-98.324
  0
LINE
  8
0
 10
8.06215
 20
-98.324
 11
7.88608
 21
-98.4349
  0
LINE
  8
0
 10
7.88608
 20
-98.4349
 11
7.70927
 21
-98.5437
  0
LINE
  8
0
 10
7.70927
 20
-98.5437
 11
7.53172
 21
-98.6504
  0
LINE
  8
0
 10
7.53172
 20
-98.6504
 11
7.35342
 21
-98.755
  0
LINE
  8
0
 10
7.35342
 20
-98.755
 11
7.17439
 21
-98.8575
  0
LINE
  8
0
 10
7.17439
 20
-98.8575
 11
6.99463
 21
-98.9578
  0
LINE
  8
0
 10
6.99463
 20
-98.9578
 11
6.8141
 21
-99.056
  0
LINE
  8
0
 10
6.8141
 20
-99.056
 11
6.63284
 21
-99.1521
  0
LINE
  8
0
 10
6.63284
 20
-99.1521
 11
6.45084
 21
-99.2461
  0
LINE
  8
0
 10
6.45084
 20
-99.2461
 11
6.2681
 21
-99.3379
  0
LINE
  8
0
 10
6.2681
 20
-99.3379
 11
6.08461
 21
-99.4276
  0
LINE
  8
0
 10
6.08461
 20
-99.4276
 11
5.90039
 21
-99.5152
  0
LINE
  8
0
 10
5.90039
 20
-99.5152
 11
5.71541
 21
-99.6007
  0
LINE
  8
0
 10
5.71541
 20
-99.6007
 11
5.52971
 21
-99.6841
  0
LINE
  8
0
 10
5.52971
 20
-99.6841
 11
5.34325
 21
-99.7653
  0
LINE
  8
0
 10
5.34325
 20
-99.7653
 11
5.15605
 21
-99.8445
  0
LINE
  8
0
 10
5.15605
 20
-99.8445
 11
4.96811
 21
-99.9215
  0
LINE
  8
0
 10
4.96811
 20
-99.9215
 11
4.77943
 21
-99.9963
  0
LINE
  8
0
 10
4.77943
 20
-99.9963
 11
4.59001
 21
-100.069
  0
LINE
  8
0
 10
4.59001
 20
-100.069
 11
4.39986
 21
-100.14
  0
LINE
  8
0
 10
4.39986
 20
-100.14
 11
4.20895
 21
-100.208
  0
LINE
  8
0
 10
4.20895
 20
-100.208
 11
4.0173
 21
-100.275
  0
LINE
  8
0
 10
4.0173
 20
-100.275
 11
3.82491
 21
-100.339
  0
LINE
  8
0
 10
3.82491
 20
-100.339
 11
3.63177
 21
-100.401
  0
LINE
  8
0
 10
3.63177
 20
-100.401
 11
3.43791
 21
-100.461
  0
LINE
  8
0
 10
3.43791
 20
-100.461
 11
3.24329
 21
-100.519
  0
LINE
  8
0
 10
3.24329
 20
-100.519
 11
3.04793
 21
-100.575
  0
LINE
  8
0
 10
3.04793
 20
-100.575
 11
2.85184
 21
-100.628
  0
LINE
  8
0
 10
2.85184
 20
-100.628
 11
2.655
 21
-100.68
  0
LINE
  8
0
 10
2.655
 20
-100.68
 11
2.25938
 21
-100.778
  0
LINE
  8
0
 10
2.25938
 20
-100.778
 11
1.8614
 21
-100.869
  0
LINE
  8
0
 10
1.8614
 20
-100.869
 11
1.46104
 21
-100.955
  0
LINE
  8
0
 10
1.46104
 20
-100.955
 11
1.05832
 21
-101.034
  0
LINE
  8
0
 10
1.05832
 20
-101.034
 11
0.653214
 21
-101.108
  0
LINE
  8
0
 10
0.653214
 20
-101.108
 11
0.245743
 21
-101.175
  0
LINE
  8
0
 10
0.245743
 20
-101.175
 11
-0.164108
 21
-101.236
  0
LINE
  8
0
 10
-0.164108
 20
-101.236
 11
-0.576324
 21
-101.291
  0
LINE
  8
0
 10
-0.576324
 20
-101.291
 11
-0.990921
 21
-101.34
  0
LINE
  8
0
 10
-0.990921
 20
-101.34
 11
-1.4079
 21
-101.383
  0
LINE
  8
0
 10
-1.4079
 20
-101.383
 11
-1.82722
 21
-101.42
  0
LINE
  8
0
 10
-1.82722
 20
-101.42
 11
-2.24895
 21
-101.45
  0
LINE
  8
0
 10
-2.24895
 20
-101.45
 11
-2.67302
 21
-101.475
  0
LINE
  8
0
 10
-2.67302
 20
-101.475
 11
-3.09949
 21
-101.493
  0
LINE
  8
0
 10
-3.09949
 20
-101.493
 11
-3.52832
 21
-101.505
  0
LINE
  8
0
 10
-3.52832
 20
-101.505
 11
-3.95952
 21
-101.511
  0
LINE
  8
0
 10
-3.95952
 20
-101.511
 11
-4.27151
 21
-101.512
  0
LINE
  8
0
 10
-4.27151
 20
-101.512
 11
-4.84926
 21
-101.503
  0
LINE
  8
0
 10
-4.84926
 20
-101.503
 11
-5.43506
 21
-101.482
  0
LINE
  8
0
 10
-5.43506
 20
-101.482
 11
-6.02893
 21
-101.448
  0
LINE
  8
0
 10
-6.02893
 20
-101.448
 11
-6.73198
 21
-101.393
  0
LINE
  8
0
 10
-6.73198
 20
-101.393
 11
-7.44601
 21
-101.32
  0
LINE
  8
0
 10
-7.44601
 20
-101.32
 11
-7.79155
 21
-98.311
  0
LINE
  8
0
 10
-7.79155
 20
-98.311
 11
-8.05388
 21
-96.2102
  0
LINE
  8
0
 10
-8.05388
 20
-96.2102
 11
-8.248
 21
-94.795
  0
LINE
  8
0
 10
-8.248
 20
-94.795
 11
-7.53801
 21
-94.487
  0
LINE
  8
0
 10
-7.53801
 20
-94.487
 11
-7.47169
 21
-94.6206
  0
LINE
  8
0
 10
-7.47169
 20
-94.6206
 11
-7.40353
 21
-94.7524
  0
LINE
  8
0
 10
-7.40353
 20
-94.7524
 11
-7.33354
 21
-94.8824
  0
LINE
  8
0
 10
-7.33354
 20
-94.8824
 11
-7.26169
 21
-95.0105
  0
LINE
  8
0
 10
-7.26169
 20
-95.0105
 11
-7.18802
 21
-95.1367
  0
LINE
  8
0
 10
-7.18802
 20
-95.1367
 11
-7.11249
 21
-95.2612
  0
LINE
  8
0
 10
-7.11249
 20
-95.2612
 11
-7.03513
 21
-95.3838
  0
LINE
  8
0
 10
-7.03513
 20
-95.3838
 11
-6.95592
 21
-95.5045
  0
LINE
  8
0
 10
-6.95592
 20
-95.5045
 11
-6.87486
 21
-95.6235
  0
LINE
  8
0
 10
-6.87486
 20
-95.6235
 11
-6.79196
 21
-95.7405
  0
LINE
  8
0
 10
-6.79196
 20
-95.7405
 11
-6.70723
 21
-95.8558
  0
LINE
  8
0
 10
-6.70723
 20
-95.8558
 11
-6.62065
 21
-95.9692
  0
LINE
  8
0
 10
-6.62065
 20
-95.9692
 11
-6.53223
 21
-96.0807
  0
LINE
  8
0
 10
-6.53223
 20
-96.0807
 11
-6.44197
 21
-96.1905
  0
LINE
  8
0
 10
-6.44197
 20
-96.1905
 11
-6.34987
 21
-96.2984
  0
LINE
  8
0
 10
-6.34987
 20
-96.2984
 11
-6.25592
 21
-96.4044
  0
LINE
  8
0
 10
-6.25592
 20
-96.4044
 11
-6.16014
 21
-96.5086
  0
LINE
  8
0
 10
-6.16014
 20
-96.5086
 11
-6.0625
 21
-96.611
  0
LINE
  8
0
 10
-6.0625
 20
-96.611
 11
-5.96303
 21
-96.7115
  0
LINE
  8
0
 10
-5.96303
 20
-96.7115
 11
-5.86172
 21
-96.8102
  0
LINE
  8
0
 10
-5.86172
 20
-96.8102
 11
-5.75856
 21
-96.9071
  0
LINE
  8
0
 10
-5.75856
 20
-96.9071
 11
-5.65356
 21
-97.0021
  0
LINE
  8
0
 10
-5.65356
 20
-97.0021
 11
-5.54672
 21
-97.0953
  0
LINE
  8
0
 10
-5.54672
 20
-97.0953
 11
-5.43803
 21
-97.1866
  0
LINE
  8
0
 10
-5.43803
 20
-97.1866
 11
-5.32751
 21
-97.2762
  0
LINE
  8
0
 10
-5.32751
 20
-97.2762
 11
-5.21515
 21
-97.3638
  0
LINE
  8
0
 10
-5.21515
 20
-97.3638
 11
-5.10094
 21
-97.4496
  0
LINE
  8
0
 10
-5.10094
 20
-97.4496
 11
-4.98489
 21
-97.5336
  0
LINE
  8
0
 10
-4.98489
 20
-97.5336
 11
-4.867
 21
-97.6158
  0
LINE
  8
0
 10
-4.867
 20
-97.6158
 11
-4.74727
 21
-97.6961
  0
LINE
  8
0
 10
-4.74727
 20
-97.6961
 11
-4.62569
 21
-97.7746
  0
LINE
  8
0
 10
-4.62569
 20
-97.7746
 11
-4.50227
 21
-97.8512
  0
LINE
  8
0
 10
-4.50227
 20
-97.8512
 11
-4.37701
 21
-97.926
  0
LINE
  8
0
 10
-4.37701
 20
-97.926
 11
-4.2505
 21
-97.9987
  0
LINE
  8
0
 10
-4.2505
 20
-97.9987
 11
-4.12334
 21
-98.0692
  0
LINE
  8
0
 10
-4.12334
 20
-98.0692
 11
-3.99553
 21
-98.1374
  0
LINE
  8
0
 10
-3.99553
 20
-98.1374
 11
-3.86707
 21
-98.2034
  0
LINE
  8
0
 10
-3.86707
 20
-98.2034
 11
-3.73795
 21
-98.2671
  0
LINE
  8
0
 10
-3.73795
 20
-98.2671
 11
-3.60818
 21
-98.3287
  0
LINE
  8
0
 10
-3.60818
 20
-98.3287
 11
-3.47777
 21
-98.3879
  0
LINE
  8
0
 10
-3.47777
 20
-98.3879
 11
-3.34669
 21
-98.445
  0
LINE
  8
0
 10
-3.34669
 20
-98.445
 11
-3.21497
 21
-98.4998
  0
LINE
  8
0
 10
-3.21497
 20
-98.4998
 11
-3.0826
 21
-98.5523
  0
LINE
  8
0
 10
-3.0826
 20
-98.5523
 11
-2.94957
 21
-98.6027
  0
LINE
  8
0
 10
-2.94957
 20
-98.6027
 11
-2.81589
 21
-98.6508
  0
LINE
  8
0
 10
-2.81589
 20
-98.6508
 11
-2.68155
 21
-98.6966
  0
LINE
  8
0
 10
-2.68155
 20
-98.6966
 11
-2.54657
 21
-98.7402
  0
LINE
  8
0
 10
-2.54657
 20
-98.7402
 11
-2.41093
 21
-98.7816
  0
LINE
  8
0
 10
-2.41093
 20
-98.7816
 11
-2.27464
 21
-98.8208
  0
LINE
  8
0
 10
-2.27464
 20
-98.8208
 11
-2.13771
 21
-98.8577
  0
LINE
  8
0
 10
-2.13771
 20
-98.8577
 11
-2.00012
 21
-98.8923
  0
LINE
  8
0
 10
-2.00012
 20
-98.8923
 11
-1.86188
 21
-98.9248
  0
LINE
  8
0
 10
-1.86188
 20
-98.9248
 11
-1.72298
 21
-98.955
  0
LINE
  8
0
 10
-1.72298
 20
-98.955
 11
-1.58344
 21
-98.983
  0
LINE
  8
0
 10
-1.58344
 20
-98.983
 11
-1.44324
 21
-99.0087
  0
LINE
  8
0
 10
-1.44324
 20
-99.0087
 11
-1.30238
 21
-99.0322
  0
LINE
  8
0
 10
-1.30238
 20
-99.0322
 11
-1.16087
 21
-99.0534
  0
LINE
  8
0
 10
-1.16087
 20
-99.0534
 11
-1.01872
 21
-99.0724
  0
LINE
  8
0
 10
-1.01872
 20
-99.0724
 11
-0.875916
 21
-99.0892
  0
LINE
  8
0
 10
-0.875916
 20
-99.0892
 11
-0.732452
 21
-99.1037
  0
LINE
  8
0
 10
-0.732452
 20
-99.1037
 11
-0.588348
 21
-99.116
  0
LINE
  8
0
 10
-0.588348
 20
-99.116
 11
-0.443573
 21
-99.1261
  0
LINE
  8
0
 10
-0.443573
 20
-99.1261
 11
-0.298172
 21
-99.1339
  0
LINE
  8
0
 10
-0.298172
 20
-99.1339
 11
-0.1521
 21
-99.1395
  0
LINE
  8
0
 10
-0.1521
 20
-99.1395
 11
-0.00537109
 21
-99.1429
  0
LINE
  8
0
 10
-0.00537109
 20
-99.1429
 11
0.141998
 21
-99.144
  0
LINE
  8
0
 10
0.141998
 20
-99.144
 11
0.418381
 21
-99.1411
  0
LINE
  8
0
 10
0.418381
 20
-99.1411
 11
0.690582
 21
-99.1324
  0
LINE
  8
0
 10
0.690582
 20
-99.1324
 11
0.958588
 21
-99.1179
  0
LINE
  8
0
 10
0.958588
 20
-99.1179
 11
1.2224
 21
-99.0976
  0
LINE
  8
0
 10
1.2224
 20
-99.0976
 11
1.48203
 21
-99.0715
  0
LINE
  8
0
 10
1.48203
 20
-99.0715
 11
1.73746
 21
-99.0396
  0
LINE
  8
0
 10
1.73746
 20
-99.0396
 11
1.98871
 21
-99.0018
  0
LINE
  8
0
 10
1.98871
 20
-99.0018
 11
2.23576
 21
-98.9583
  0
LINE
  8
0
 10
2.23576
 20
-98.9583
 11
2.47862
 21
-98.909
  0
LINE
  8
0
 10
2.47862
 20
-98.909
 11
2.71729
 21
-98.8538
  0
LINE
  8
0
 10
2.71729
 20
-98.8538
 11
2.95177
 21
-98.7929
  0
LINE
  8
0
 10
2.95177
 20
-98.7929
 11
3.18205
 21
-98.7262
  0
LINE
  8
0
 10
3.18205
 20
-98.7262
 11
3.40816
 21
-98.6536
  0
LINE
  8
0
 10
3.40816
 20
-98.6536
 11
3.63007
 21
-98.5753
  0
LINE
  8
0
 10
3.63007
 20
-98.5753
 11
3.84778
 21
-98.4911
  0
LINE
  8
0
 10
3.84778
 20
-98.4911
 11
4.06129
 21
-98.4012
  0
LINE
  8
0
 10
4.06129
 20
-98.4012
 11
4.27063
 21
-98.3054
  0
LINE
  8
0
 10
4.27063
 20
-98.3054
 11
4.47578
 21
-98.2038
  0
LINE
  8
0
 10
4.47578
 20
-98.2038
 11
4.67673
 21
-98.0965
  0
LINE
  8
0
 10
4.67673
 20
-98.0965
 11
4.87349
 21
-97.9833
  0
LINE
  8
0
 10
4.87349
 20
-97.9833
 11
5.06606
 21
-97.8643
  0
LINE
  8
0
 10
5.06606
 20
-97.8643
 11
5.25444
 21
-97.7396
  0
LINE
  8
0
 10
5.25444
 20
-97.7396
 11
5.43863
 21
-97.609
  0
LINE
  8
0
 10
5.43863
 20
-97.609
 11
5.61862
 21
-97.4726
  0
LINE
  8
0
 10
5.61862
 20
-97.4726
 11
5.79442
 21
-97.3304
  0
LINE
  8
0
 10
5.79442
 20
-97.3304
 11
5.96603
 21
-97.1824
  0
LINE
  8
0
 10
5.96603
 20
-97.1824
 11
6.13347
 21
-97.0286
  0
LINE
  8
0
 10
6.13347
 20
-97.0286
 11
6.29669
 21
-96.869
  0
LINE
  8
0
 10
6.29669
 20
-96.869
 11
6.45573
 21
-96.7036
  0
LINE
  8
0
 10
6.45573
 20
-96.7036
 11
6.61058
 21
-96.5324
  0
LINE
  8
0
 10
6.61058
 20
-96.5324
 11
6.76125
 21
-96.3554
  0
LINE
  8
0
 10
6.76125
 20
-96.3554
 11
6.90771
 21
-96.1726
  0
LINE
  8
0
 10
6.90771
 20
-96.1726
 11
7.04999
 21
-95.984
  0
LINE
  8
0
 10
7.04999
 20
-95.984
 11
7.18811
 21
-95.7914
  0
LINE
  8
0
 10
7.18811
 20
-95.7914
 11
7.32198
 21
-95.5967
  0
LINE
  8
0
 10
7.32198
 20
-95.5967
 11
7.4516
 21
-95.3999
  0
LINE
  8
0
 10
7.4516
 20
-95.3999
 11
7.57697
 21
-95.201
  0
LINE
  8
0
 10
7.57697
 20
-95.201
 11
7.69809
 21
-95.0001
  0
LINE
  8
0
 10
7.69809
 20
-95.0001
 11
7.81496
 21
-94.797
  0
LINE
  8
0
 10
7.81496
 20
-94.797
 11
7.92757
 21
-94.5919
  0
LINE
  8
0
 10
7.92757
 20
-94.5919
 11
8.03593
 21
-94.3847
  0
LINE
  8
0
 10
8.03593
 20
-94.3847
 11
8.14006
 21
-94.1754
  0
LINE
  8
0
 10
8.14006
 20
-94.1754
 11
8.23993
 21
-93.964
  0
LINE
  8
0
 10
8.23993
 20
-93.964
 11
8.33554
 21
-93.7506
  0
LINE
  8
0
 10
8.33554
 20
-93.7506
 11
8.42691
 21
-93.535
  0
LINE
  8
0
 10
8.42691
 20
-93.535
 11
8.51404
 21
-93.3174
  0
LINE
  8
0
 10
8.51404
 20
-93.3174
 11
8.59691
 21
-93.0977
  0
LINE
  8
0
 10
8.59691
 20
-93.0977
 11
8.67554
 21
-92.8759
  0
LINE
  8
0
 10
8.67554
 20
-92.8759
 11
8.74989
 21
-92.652
  0
LINE
  8
0
 10
8.74989
 20
-92.652
 11
8.82002
 21
-92.426
  0
LINE
  8
0
 10
8.82002
 20
-92.426
 11
8.88589
 21
-92.198
  0
LINE
  8
0
 10
8.88589
 20
-92.198
 11
8.94751
 21
-91.9678
  0
LINE
  8
0
 10
8.94751
 20
-91.9678
 11
9.00488
 21
-91.7356
  0
LINE
  8
0
 10
9.00488
 20
-91.7356
 11
9.05801
 21
-91.5013
  0
LINE
  8
0
 10
9.05801
 20
-91.5013
 11
9.10689
 21
-91.2649
  0
LINE
  8
0
 10
9.10689
 20
-91.2649
 11
9.1515
 21
-91.0264
  0
LINE
  8
0
 10
9.1515
 20
-91.0264
 11
9.19188
 21
-90.7859
  0
LINE
  8
0
 10
9.19188
 20
-90.7859
 11
9.228
 21
-90.5432
  0
LINE
  8
0
 10
9.228
 20
-90.5432
 11
9.25987
 21
-90.2985
  0
LINE
  8
0
 10
9.25987
 20
-90.2985
 11
9.28749
 21
-90.0517
  0
LINE
  8
0
 10
9.28749
 20
-90.0517
 11
9.31087
 21
-89.8028
  0
LINE
  8
0
 10
9.31087
 20
-89.8028
 11
9.33
 21
-89.5518
  0
LINE
  8
0
 10
9.33
 20
-89.5518
 11
9.34486
 21
-89.2987
  0
LINE
  8
0
 10
9.34486
 20
-89.2987
 11
9.3555
 21
-89.0436
  0
LINE
  8
0
 10
9.3555
 20
-89.0436
 11
9.36186
 21
-88.7863
  0
LINE
  8
0
 10
9.36186
 20
-88.7863
 11
9.364
 21
-88.527
  0
LINE
  8
0
 10
9.364
 20
-88.527
 11
9.36304
 21
-88.3639
  0
LINE
  8
0
 10
9.36304
 20
-88.3639
 11
9.35538
 21
-88.0408
  0
LINE
  8
0
 10
9.35538
 20
-88.0408
 11
9.34004
 21
-87.7219
  0
LINE
  8
0
 10
9.34004
 20
-87.7219
 11
9.31706
 21
-87.4071
  0
LINE
  8
0
 10
9.31706
 20
-87.4071
 11
9.30269
 21
-87.2513
  0
LINE
  8
0
 10
9.30269
 20
-87.2513
 11
9.28641
 21
-87.0965
  0
LINE
  8
0
 10
9.28641
 20
-87.0965
 11
9.26822
 21
-86.9428
  0
LINE
  8
0
 10
9.26822
 20
-86.9428
 11
9.24811
 21
-86.7901
  0
LINE
  8
0
 10
9.24811
 20
-86.7901
 11
9.22607
 21
-86.6385
  0
LINE
  8
0
 10
9.22607
 20
-86.6385
 11
9.20213
 21
-86.4879
  0
LINE
  8
0
 10
9.20213
 20
-86.4879
 11
9.17627
 21
-86.3383
  0
LINE
  8
0
 10
9.17627
 20
-86.3383
 11
9.1485
 21
-86.1898
  0
LINE
  8
0
 10
9.1485
 20
-86.1898
 11
9.1188
 21
-86.0423
  0
LINE
  8
0
 10
9.1188
 20
-86.0423
 11
9.0872
 21
-85.8959
  0
LINE
  8
0
 10
9.0872
 20
-85.8959
 11
9.05368
 21
-85.7505
  0
LINE
  8
0
 10
9.05368
 20
-85.7505
 11
9.01823
 21
-85.6062
  0
LINE
  8
0
 10
9.01823
 20
-85.6062
 11
8.9809
 21
-85.4629
  0
LINE
  8
0
 10
8.9809
 20
-85.4629
 11
8.94162
 21
-85.3207
  0
LINE
  8
0
 10
8.94162
 20
-85.3207
 11
8.90044
 21
-85.1795
  0
LINE
  8
0
 10
8.90044
 20
-85.1795
 11
8.85733
 21
-85.0393
  0
LINE
  8
0
 10
8.85733
 20
-85.0393
 11
8.81232
 21
-84.9002
  0
LINE
  8
0
 10
8.81232
 20
-84.9002
 11
8.7654
 21
-84.7621
  0
LINE
  8
0
 10
8.7654
 20
-84.7621
 11
8.71655
 21
-84.625
  0
LINE
  8
0
 10
8.71655
 20
-84.625
 11
8.66579
 21
-84.4891
  0
LINE
  8
0
 10
8.66579
 20
-84.4891
 11
8.61311
 21
-84.3541
  0
LINE
  8
0
 10
8.61311
 20
-84.3541
 11
8.55852
 21
-84.2202
  0
LINE
  8
0
 10
8.55852
 20
-84.2202
 11
8.50201
 21
-84.0873
  0
LINE
  8
0
 10
8.50201
 20
-84.0873
 11
8.44359
 21
-83.9555
  0
LINE
  8
0
 10
8.44359
 20
-83.9555
 11
8.38324
 21
-83.8247
  0
LINE
  8
0
 10
8.38324
 20
-83.8247
 11
8.321
 21
-83.695
  0
LINE
  8
0
 10
8.321
 20
-83.695
 11
8.25659
 21
-83.5665
  0
LINE
  8
0
 10
8.25659
 20
-83.5665
 11
8.18971
 21
-83.4396
  0
LINE
  8
0
 10
8.18971
 20
-83.4396
 11
8.12035
 21
-83.3142
  0
LINE
  8
0
 10
8.12035
 20
-83.3142
 11
8.04849
 21
-83.1903
  0
LINE
  8
0
 10
8.04849
 20
-83.1903
 11
7.97415
 21
-83.068
  0
LINE
  8
0
 10
7.97415
 20
-83.068
 11
7.89732
 21
-82.9473
  0
LINE
  8
0
 10
7.89732
 20
-82.9473
 11
7.81801
 21
-82.8281
  0
LINE
  8
0
 10
7.81801
 20
-82.8281
 11
7.73621
 21
-82.7104
  0
LINE
  8
0
 10
7.73621
 20
-82.7104
 11
7.65192
 21
-82.5943
  0
LINE
  8
0
 10
7.65192
 20
-82.5943
 11
7.56514
 21
-82.4798
  0
LINE
  8
0
 10
7.56514
 20
-82.4798
 11
7.47588
 21
-82.3668
  0
LINE
  8
0
 10
7.47588
 20
-82.3668
 11
7.38414
 21
-82.2553
  0
LINE
  8
0
 10
7.38414
 20
-82.2553
 11
7.2899
 21
-82.1454
  0
LINE
  8
0
 10
7.2899
 20
-82.1454
 11
7.19318
 21
-82.0371
  0
LINE
  8
0
 10
7.19318
 20
-82.0371
 11
7.09396
 21
-81.9303
  0
LINE
  8
0
 10
7.09396
 20
-81.9303
 11
6.99228
 21
-81.825
  0
LINE
  8
0
 10
6.99228
 20
-81.825
 11
6.88809
 21
-81.7214
  0
LINE
  8
0
 10
6.88809
 20
-81.7214
 11
6.78142
 21
-81.6192
  0
LINE
  8
0
 10
6.78142
 20
-81.6192
 11
6.67227
 21
-81.5186
  0
LINE
  8
0
 10
6.67227
 20
-81.5186
 11
6.56062
 21
-81.4196
  0
LINE
  8
0
 10
6.56062
 20
-81.4196
 11
6.4465
 21
-81.3221
  0
LINE
  8
0
 10
6.4465
 20
-81.3221
 11
6.32988
 21
-81.2261
  0
LINE
  8
0
 10
6.32988
 20
-81.2261
 11
6.21078
 21
-81.1317
  0
LINE
  8
0
 10
6.21078
 20
-81.1317
 11
6.08919
 21
-81.0389
  0
LINE
  8
0
 10
6.08919
 20
-81.0389
 11
5.96512
 21
-80.9476
  0
LINE
  8
0
 10
5.96512
 20
-80.9476
 11
5.83855
 21
-80.8578
  0
LINE
  8
0
 10
5.83855
 20
-80.8578
 11
5.7095
 21
-80.7696
  0
LINE
  8
0
 10
5.7095
 20
-80.7696
 11
5.57797
 21
-80.683
  0
LINE
  8
0
 10
5.57797
 20
-80.683
 11
5.44395
 21
-80.5979
  0
LINE
  8
0
 10
5.44395
 20
-80.5979
 11
5.30743
 21
-80.5143
  0
LINE
  8
0
 10
5.30743
 20
-80.5143
 11
5.16844
 21
-80.4323
  0
LINE
  8
0
 10
5.16844
 20
-80.4323
 11
5.02696
 21
-80.3519
  0
LINE
  8
0
 10
5.02696
 20
-80.3519
 11
4.883
 21
-80.273
  0
LINE
  8
0
 10
4.883
 20
-80.273
 11
4.73682
 21
-80.1961
  0
LINE
  8
0
 10
4.73682
 20
-80.1961
 11
4.58858
 21
-80.1215
  0
LINE
  8
0
 10
4.58858
 20
-80.1215
 11
4.43828
 21
-80.0493
  0
LINE
  8
0
 10
4.43828
 20
-80.0493
 11
4.28592
 21
-79.9795
  0
LINE
  8
0
 10
4.28592
 20
-79.9795
 11
4.1315
 21
-79.912
  0
LINE
  8
0
 10
4.1315
 20
-79.912
 11
3.97502
 21
-79.8469
  0
LINE
  8
0
 10
3.97502
 20
-79.8469
 11
3.8165
 21
-79.7842
  0
LINE
  8
0
 10
3.8165
 20
-79.7842
 11
3.6559
 21
-79.7238
  0
LINE
  8
0
 10
3.6559
 20
-79.7238
 11
3.49326
 21
-79.6658
  0
LINE
  8
0
 10
3.49326
 20
-79.6658
 11
3.32854
 21
-79.6102
  0
LINE
  8
0
 10
3.32854
 20
-79.6102
 11
3.16177
 21
-79.5569
  0
LINE
  8
0
 10
3.16177
 20
-79.5569
 11
2.99294
 21
-79.506
  0
LINE
  8
0
 10
2.99294
 20
-79.506
 11
2.82205
 21
-79.4575
  0
LINE
  8
0
 10
2.82205
 20
-79.4575
 11
2.64911
 21
-79.4113
  0
LINE
  8
0
 10
2.64911
 20
-79.4113
 11
2.47411
 21
-79.3675
  0
LINE
  8
0
 10
2.47411
 20
-79.3675
 11
2.29704
 21
-79.3261
  0
LINE
  8
0
 10
2.29704
 20
-79.3261
 11
2.11792
 21
-79.287
  0
LINE
  8
0
 10
2.11792
 20
-79.287
 11
1.93674
 21
-79.2503
  0
LINE
  8
0
 10
1.93674
 20
-79.2503
 11
1.75351
 21
-79.216
  0
LINE
  8
0
 10
1.75351
 20
-79.216
 11
1.56821
 21
-79.1841
  0
LINE
  8
0
 10
1.56821
 20
-79.1841
 11
1.38086
 21
-79.1544
  0
LINE
  8
0
 10
1.38086
 20
-79.1544
 11
1.19144
 21
-79.1272
  0
LINE
  8
0
 10
1.19144
 20
-79.1272
 11
0.999969
 21
-79.1024
  0
LINE
  8
0
 10
0.999969
 20
-79.1024
 11
0.806427
 21
-79.0799
  0
LINE
  8
0
 10
0.806427
 20
-79.0799
 11
0.61084
 21
-79.0598
  0
LINE
  8
0
 10
0.61084
 20
-79.0598
 11
0.413193
 21
-79.042
  0
LINE
  8
0
 10
0.413193
 20
-79.042
 11
0.213486
 21
-79.0266
  0
LINE
  8
0
 10
0.213486
 20
-79.0266
 11
0.0117188
 21
-79.0136
  0
LINE
  8
0
 10
0.0117188
 20
-79.0136
 11
-0.192108
 21
-79.0029
  0
LINE
  8
0
 10
-0.192108
 20
-79.0029
 11
-0.397995
 21
-78.9947
  0
LINE
  8
0
 10
-0.397995
 20
-78.9947
 11
-0.605942
 21
-78.9887
  0
LINE
  8
0
 10
-0.605942
 20
-78.9887
 11
-0.815948
 21
-78.9852
  0
LINE
  8
0
 10
-0.815948
 20
-78.9852
 11
-1.02802
 21
-78.984
  0
LINE
  8
0
 10
-1.02802
 20
-78.984
 11
-1.18683
 21
-78.985
  0
LINE
  8
0
 10
-1.18683
 20
-78.985
 11
-1.5043
 21
-78.9927
  0
LINE
  8
0
 10
-1.5043
 20
-78.9927
 11
-1.82156
 21
-79.0081
  0
LINE
  8
0
 10
-1.82156
 20
-79.0081
 11
-2.1386
 21
-79.0312
  0
LINE
  8
0
 10
-2.1386
 20
-79.0312
 11
-2.45541
 21
-79.062
  0
LINE
  8
0
 10
-2.45541
 20
-79.062
 11
-2.772
 21
-79.1004
  0
LINE
  8
0
 10
-2.772
 20
-79.1004
 11
-3.08838
 21
-79.1467
  0
LINE
  8
0
 10
-3.08838
 20
-79.1467
 11
-3.40454
 21
-79.2005
  0
LINE
  8
0
 10
-3.40454
 20
-79.2005
 11
-3.72047
 21
-79.2621
  0
LINE
  8
0
 10
-3.72047
 20
-79.2621
 11
-4.03618
 21
-79.3314
  0
LINE
  8
0
 10
-4.03618
 20
-79.3314
 11
-4.35168
 21
-79.4084
  0
LINE
  8
0
 10
-4.35168
 20
-79.4084
 11
-4.66695
 21
-79.4931
  0
LINE
  8
0
 10
-4.66695
 20
-79.4931
 11
-4.98199
 21
-79.5855
  0
LINE
  8
0
 10
-4.98199
 20
-79.5855
 11
-5.29683
 21
-79.6856
  0
LINE
  8
0
 10
-5.29683
 20
-79.6856
 11
-5.61145
 21
-79.7934
  0
LINE
  8
0
 10
-5.61145
 20
-79.7934
 11
-5.92584
 21
-79.9088
  0
LINE
  8
0
 10
-5.92584
 20
-79.9088
 11
-6.24001
 21
-80.032
  0
LINE
  8
0
 10
-6.24001
 20
-80.032
 11
-6.826
 21
-79.508
  0
LINE
  8
0
 10
-6.826
 20
-79.508
 11
-5.46901
 21
-76.68
  0
LINE
  8
0
 10
-5.46901
 20
-76.68
 11
-4.62196
 21
-76.7308
  0
LINE
  8
0
 10
-4.62196
 20
-76.7308
 11
-3.96234
 21
-76.7427
  0
LINE
  8
0
 10
-3.96234
 20
-76.7427
 11
-3.81235
 21
-76.7388
  0
LINE
  8
0
 10
-3.81235
 20
-76.7388
 11
-3.66206
 21
-76.7324
  0
LINE
  8
0
 10
-3.66206
 20
-76.7324
 11
-3.51144
 21
-76.7233
  0
LINE
  8
0
 10
-3.51144
 20
-76.7233
 11
-3.36053
 21
-76.7117
  0
LINE
  8
0
 10
-3.36053
 20
-76.7117
 11
-3.20929
 21
-76.6975
  0
LINE
  8
0
 10
-3.20929
 20
-76.6975
 11
-3.05775
 21
-76.6807
  0
LINE
  8
0
 10
-3.05775
 20
-76.6807
 11
-2.9059
 21
-76.6614
  0
LINE
  8
0
 10
-2.9059
 20
-76.6614
 11
-2.75372
 21
-76.6394
  0
LINE
  8
0
 10
-2.75372
 20
-76.6394
 11
-2.60124
 21
-76.6149
  0
LINE
  8
0
 10
-2.60124
 20
-76.6149
 11
-2.44846
 21
-76.5878
  0
LINE
  8
0
 10
-2.44846
 20
-76.5878
 11
-2.29535
 21
-76.5581
  0
LINE
  8
0
 10
-2.29535
 20
-76.5581
 11
-2.14192
 21
-76.5258
  0
LINE
  8
0
 10
-2.14192
 20
-76.5258
 11
-1.9882
 21
-76.491
  0
LINE
  8
0
 10
-1.9882
 20
-76.491
 11
-1.83415
 21
-76.4535
  0
LINE
  8
0
 10
-1.83415
 20
-76.4535
 11
-1.67979
 21
-76.4135
  0
LINE
  8
0
 10
-1.67979
 20
-76.4135
 11
-1.52513
 21
-76.3709
  0
LINE
  8
0
 10
-1.52513
 20
-76.3709
 11
-1.37016
 21
-76.3257
  0
LINE
  8
0
 10
-1.37016
 20
-76.3257
 11
-1.21486
 21
-76.2779
  0
LINE
  8
0
 10
-1.21486
 20
-76.2779
 11
-1.05927
 21
-76.2276
  0
LINE
  8
0
 10
-1.05927
 20
-76.2276
 11
-0.903351
 21
-76.1746
  0
LINE
  8
0
 10
-0.903351
 20
-76.1746
 11
-0.747116
 21
-76.1191
  0
LINE
  8
0
 10
-0.747116
 20
-76.1191
 11
-0.590576
 21
-76.061
  0
LINE
  8
0
 10
-0.590576
 20
-76.061
 11
-0.433731
 21
-76.0003
  0
LINE
  8
0
 10
-0.433731
 20
-76.0003
 11
-0.276566
 21
-75.9371
  0
LINE
  8
0
 10
-0.276566
 20
-75.9371
 11
-0.11908
 21
-75.8712
  0
LINE
  8
0
 10
-0.11908
 20
-75.8712
 11
0.0386963
 21
-75.8028
  0
LINE
  8
0
 10
0.0386963
 20
-75.8028
 11
0.196808
 21
-75.7318
  0
LINE
  8
0
 10
0.196808
 20
-75.7318
 11
0.355225
 21
-75.6582
  0
LINE
  8
0
 10
0.355225
 20
-75.6582
 11
0.513947
 21
-75.582
  0
LINE
  8
0
 10
0.513947
 20
-75.582
 11
0.672974
 21
-75.5033
  0
LINE
  8
0
 10
0.672974
 20
-75.5033
 11
0.832336
 21
-75.4219
  0
LINE
  8
0
 10
0.832336
 20
-75.4219
 11
0.991989
 21
-75.338
  0
LINE
  8
0
 10
0.991989
 20
-75.338
 11
1.15094
 21
-75.2515
  0
LINE
  8
0
 10
1.15094
 20
-75.2515
 11
1.30801
 21
-75.1624
  0
LINE
  8
0
 10
1.30801
 20
-75.1624
 11
1.46321
 21
-75.0707
  0
LINE
  8
0
 10
1.46321
 20
-75.0707
 11
1.61653
 21
-74.9765
  0
LINE
  8
0
 10
1.61653
 20
-74.9765
 11
1.76799
 21
-74.8797
  0
LINE
  8
0
 10
1.76799
 20
-74.8797
 11
1.91757
 21
-74.7804
  0
LINE
  8
0
 10
1.91757
 20
-74.7804
 11
2.06529
 21
-74.6785
  0
LINE
  8
0
 10
2.06529
 20
-74.6785
 11
2.21114
 21
-74.5741
  0
LINE
  8
0
 10
2.21114
 20
-74.5741
 11
2.3551
 21
-74.4671
  0
LINE
  8
0
 10
2.3551
 20
-74.4671
 11
2.49721
 21
-74.3575
  0
LINE
  8
0
 10
2.49721
 20
-74.3575
 11
2.63744
 21
-74.2455
  0
LINE
  8
0
 10
2.63744
 20
-74.2455
 11
2.77579
 21
-74.1308
  0
LINE
  8
0
 10
2.77579
 20
-74.1308
 11
2.91228
 21
-74.0136
  0
LINE
  8
0
 10
2.91228
 20
-74.0136
 11
3.04689
 21
-73.8938
  0
LINE
  8
0
 10
3.04689
 20
-73.8938
 11
3.17964
 21
-73.7715
  0
LINE
  8
0
 10
3.17964
 20
-73.7715
 11
3.3105
 21
-73.6467
  0
LINE
  8
0
 10
3.3105
 20
-73.6467
 11
3.43951
 21
-73.5192
  0
LINE
  8
0
 10
3.43951
 20
-73.5192
 11
3.56664
 21
-73.3893
  0
LINE
  8
0
 10
3.56664
 20
-73.3893
 11
3.69189
 21
-73.2567
  0
LINE
  8
0
 10
3.69189
 20
-73.2567
 11
3.81528
 21
-73.1216
  0
LINE
  8
0
 10
3.81528
 20
-73.1216
 11
3.9368
 21
-72.984
  0
LINE
  8
0
 10
3.9368
 20
-72.984
 11
4.05644
 21
-72.8438
  0
LINE
  8
0
 10
4.05644
 20
-72.8438
 11
4.17421
 21
-72.701
  0
LINE
  8
0
 10
4.17421
 20
-72.701
 11
4.29012
 21
-72.5557
  0
LINE
  8
0
 10
4.29012
 20
-72.5557
 11
4.40413
 21
-72.4079
  0
LINE
  8
0
 10
4.40413
 20
-72.4079
 11
4.5163
 21
-72.2574
  0
LINE
  8
0
 10
4.5163
 20
-72.2574
 11
4.62657
 21
-72.1045
  0
LINE
  8
0
 10
4.62657
 20
-72.1045
 11
4.735
 21
-71.949
  0
LINE
  8
0
 10
4.735
 20
-71.949
 11
4.84154
 21
-71.7909
  0
LINE
  8
0
 10
4.84154
 20
-71.7909
 11
4.94621
 21
-71.6302
  0
LINE
  8
0
 10
4.94621
 20
-71.6302
 11
5.04901
 21
-71.4671
  0
LINE
  8
0
 10
5.04901
 20
-71.4671
 11
5.14993
 21
-71.3013
  0
LINE
  8
0
 10
5.14993
 20
-71.3013
 11
5.24899
 21
-71.133
  0
LINE
  8
0
 10
5.24899
 20
-71.133
 11
5.34563
 21
-70.9634
  0
LINE
  8
0
 10
5.34563
 20
-70.9634
 11
5.43929
 21
-70.7938
  0
LINE
  8
0
 10
5.43929
 20
-70.7938
 11
5.52997
 21
-70.6242
  0
LINE
  8
0
 10
5.52997
 20
-70.6242
 11
5.61769
 21
-70.4545
  0
LINE
  8
0
 10
5.61769
 20
-70.4545
 11
5.70244
 21
-70.2848
  0
LINE
  8
0
 10
5.70244
 20
-70.2848
 11
5.78419
 21
-70.1151
  0
LINE
  8
0
 10
5.78419
 20
-70.1151
 11
5.86299
 21
-69.9453
  0
LINE
  8
0
 10
5.86299
 20
-69.9453
 11
5.93881
 21
-69.7755
  0
LINE
  8
0
 10
5.93881
 20
-69.7755
 11
6.01166
 21
-69.6057
  0
LINE
  8
0
 10
6.01166
 20
-69.6057
 11
6.08154
 21
-69.4359
  0
LINE
  8
0
 10
6.08154
 20
-69.4359
 11
6.14844
 21
-69.266
  0
LINE
  8
0
 10
6.14844
 20
-69.266
 11
6.21237
 21
-69.0961
  0
LINE
  8
0
 10
6.21237
 20
-69.0961
 11
6.27332
 21
-68.9262
  0
LINE
  8
0
 10
6.27332
 20
-68.9262
 11
6.3313
 21
-68.7562
  0
LINE
  8
0
 10
6.3313
 20
-68.7562
 11
6.38631
 21
-68.5863
  0
LINE
  8
0
 10
6.38631
 20
-68.5863
 11
6.43834
 21
-68.4163
  0
LINE
  8
0
 10
6.43834
 20
-68.4163
 11
6.4874
 21
-68.2462
  0
LINE
  8
0
 10
6.4874
 20
-68.2462
 11
6.53349
 21
-68.0762
  0
LINE
  8
0
 10
6.53349
 20
-68.0762
 11
6.5766
 21
-67.9061
  0
LINE
  8
0
 10
6.5766
 20
-67.9061
 11
6.61674
 21
-67.736
  0
LINE
  8
0
 10
6.61674
 20
-67.736
 11
6.65392
 21
-67.5658
  0
LINE
  8
0
 10
6.65392
 20
-67.5658
 11
6.68811
 21
-67.3957
  0
LINE
  8
0
 10
6.68811
 20
-67.3957
 11
6.71933
 21
-67.2255
  0
LINE
  8
0
 10
6.71933
 20
-67.2255
 11
6.74757
 21
-67.0553
  0
LINE
  8
0
 10
6.74757
 20
-67.0553
 11
6.77284
 21
-66.885
  0
LINE
  8
0
 10
6.77284
 20
-66.885
 11
6.79515
 21
-66.7147
  0
LINE
  8
0
 10
6.79515
 20
-66.7147
 11
6.81447
 21
-66.5444
  0
LINE
  8
0
 10
6.81447
 20
-66.5444
 11
6.83083
 21
-66.3741
  0
LINE
  8
0
 10
6.83083
 20
-66.3741
 11
6.84421
 21
-66.2037
  0
LINE
  8
0
 10
6.84421
 20
-66.2037
 11
6.85461
 21
-66.0333
  0
LINE
  8
0
 10
6.85461
 20
-66.0333
 11
6.86205
 21
-65.8629
  0
LINE
  8
0
 10
6.86205
 20
-65.8629
 11
6.8665
 21
-65.6925
  0
LINE
  8
0
 10
6.8665
 20
-65.6925
 11
6.868
 21
-65.522
  0
LINE
  8
0
 10
6.868
 20
-65.522
 11
6.86638
 21
-65.3375
  0
LINE
  8
0
 10
6.86638
 20
-65.3375
 11
6.86156
 21
-65.155
  0
LINE
  8
0
 10
6.86156
 20
-65.155
 11
6.8535
 21
-64.9744
  0
LINE
  8
0
 10
6.8535
 20
-64.9744
 11
6.84224
 21
-64.7959
  0
LINE
  8
0
 10
6.84224
 20
-64.7959
 11
6.82774
 21
-64.6193
  0
LINE
  8
0
 10
6.82774
 20
-64.6193
 11
6.81004
 21
-64.4447
  0
LINE
  8
0
 10
6.81004
 20
-64.4447
 11
6.78911
 21
-64.2721
  0
LINE
  8
0
 10
6.78911
 20
-64.2721
 11
6.76497
 21
-64.1015
  0
LINE
  8
0
 10
6.76497
 20
-64.1015
 11
6.73761
 21
-63.9329
  0
LINE
  8
0
 10
6.73761
 20
-63.9329
 11
6.70702
 21
-63.7663
  0
LINE
  8
0
 10
6.70702
 20
-63.7663
 11
6.67322
 21
-63.6017
  0
LINE
  8
0
 10
6.67322
 20
-63.6017
 11
6.63618
 21
-63.439
  0
LINE
  8
0
 10
6.63618
 20
-63.439
 11
6.59595
 21
-63.2784
  0
LINE
  8
0
 10
6.59595
 20
-63.2784
 11
6.55249
 21
-63.1197
  0
LINE
  8
0
 10
6.55249
 20
-63.1197
 11
6.5058
 21
-62.963
  0
LINE
  8
0
 10
6.5058
 20
-62.963
 11
6.4559
 21
-62.8083
  0
LINE
  8
0
 10
6.4559
 20
-62.8083
 11
6.40279
 21
-62.6557
  0
LINE
  8
0
 10
6.40279
 20
-62.6557
 11
6.34644
 21
-62.5049
  0
LINE
  8
0
 10
6.34644
 20
-62.5049
 11
6.28688
 21
-62.3562
  0
LINE
  8
0
 10
6.28688
 20
-62.3562
 11
6.22411
 21
-62.2095
  0
LINE
  8
0
 10
6.22411
 20
-62.2095
 11
6.1581
 21
-62.0648
  0
LINE
  8
0
 10
6.1581
 20
-62.0648
 11
6.08888
 21
-61.922
  0
LINE
  8
0
 10
6.08888
 20
-61.922
 11
6.01645
 21
-61.7812
  0
LINE
  8
0
 10
6.01645
 20
-61.7812
 11
5.94078
 21
-61.6425
  0
LINE
  8
0
 10
5.94078
 20
-61.6425
 11
5.86191
 21
-61.5057
  0
LINE
  8
0
 10
5.86191
 20
-61.5057
 11
5.77982
 21
-61.3709
  0
LINE
  8
0
 10
5.77982
 20
-61.3709
 11
5.6945
 21
-61.2381
  0
LINE
  8
0
 10
5.6945
 20
-61.2381
 11
5.60596
 21
-61.1073
  0
LINE
  8
0
 10
5.60596
 20
-61.1073
 11
5.51421
 21
-60.9784
  0
LINE
  8
0
 10
5.51421
 20
-60.9784
 11
5.41924
 21
-60.8516
  0
LINE
  8
0
 10
5.41924
 20
-60.8516
 11
5.32104
 21
-60.7267
  0
LINE
  8
0
 10
5.32104
 20
-60.7267
 11
5.21962
 21
-60.6039
  0
LINE
  8
0
 10
5.21962
 20
-60.6039
 11
5.11499
 21
-60.483
  0
LINE
  8
0
 10
5.11499
 20
-60.483
 11
5.00757
 21
-60.3649
  0
LINE
  8
0
 10
5.00757
 20
-60.3649
 11
4.89766
 21
-60.2504
  0
LINE
  8
0
 10
4.89766
 20
-60.2504
 11
4.78526
 21
-60.1395
  0
LINE
  8
0
 10
4.78526
 20
-60.1395
 11
4.67036
 21
-60.0323
  0
LINE
  8
0
 10
4.67036
 20
-60.0323
 11
4.55299
 21
-59.9287
  0
LINE
  8
0
 10
4.55299
 20
-59.9287
 11
4.43314
 21
-59.8288
  0
LINE
  8
0
 10
4.43314
 20
-59.8288
 11
4.31079
 21
-59.7325
  0
LINE
  8
0
 10
4.31079
 20
-59.7325
 11
4.18596
 21
-59.6398
  0
LINE
  8
0
 10
4.18596
 20
-59.6398
 11
4.05864
 21
-59.5508
  0
LINE
  8
0
 10
4.05864
 20
-59.5508
 11
3.92883
 21
-59.4653
  0
LINE
  8
0
 10
3.92883
 20
-59.4653
 11
3.79655
 21
-59.3836
  0
LINE
  8
0
 10
3.79655
 20
-59.3836
 11
3.66177
 21
-59.3054
  0
LINE
  8
0
 10
3.66177
 20
-59.3054
 11
3.52451
 21
-59.2309
  0
LINE
  8
0
 10
3.52451
 20
-59.2309
 11
3.38475
 21
-59.16
  0
LINE
  8
0
 10
3.38475
 20
-59.16
 11
3.24251
 21
-59.0928
  0
LINE
  8
0
 10
3.24251
 20
-59.0928
 11
3.09779
 21
-59.0292
  0
LINE
  8
0
 10
3.09779
 20
-59.0292
 11
2.95058
 21
-58.9692
  0
LINE
  8
0
 10
2.95058
 20
-58.9692
 11
2.80087
 21
-58.9129
  0
LINE
  8
0
 10
2.80087
 20
-58.9129
 11
2.6487
 21
-58.8602
  0
LINE
  8
0
 10
2.6487
 20
-58.8602
 11
2.49402
 21
-58.8111
  0
LINE
  8
0
 10
2.49402
 20
-58.8111
 11
2.33685
 21
-58.7657
  0
LINE
  8
0
 10
2.33685
 20
-58.7657
 11
2.17722
 21
-58.7239
  0
LINE
  8
0
 10
2.17722
 20
-58.7239
 11
2.01508
 21
-58.6857
  0
LINE
  8
0
 10
2.01508
 20
-58.6857
 11
1.85046
 21
-58.6512
  0
LINE
  8
0
 10
1.85046
 20
-58.6512
 11
1.68336
 21
-58.6203
  0
LINE
  8
0
 10
1.68336
 20
-58.6203
 11
1.51376
 21
-58.593
  0
LINE
  8
0
 10
1.51376
 20
-58.593
 11
1.34169
 21
-58.5694
  0
LINE
  8
0
 10
1.34169
 20
-58.5694
 11
1.16711
 21
-58.5494
  0
LINE
  8
0
 10
1.16711
 20
-58.5494
 11
0.990067
 21
-58.5331
  0
LINE
  8
0
 10
0.990067
 20
-58.5331
 11
0.810532
 21
-58.5204
  0
LINE
  8
0
 10
0.810532
 20
-58.5204
 11
0.62851
 21
-58.5113
  0
LINE
  8
0
 10
0.62851
 20
-58.5113
 11
0.443985
 21
-58.5058
  0
LINE
  8
0
 10
0.443985
 20
-58.5058
 11
0.256989
 21
-58.504
  0
LINE
  8
0
 10
0.256989
 20
-58.504
 11
0.119308
 21
-58.505
  0
LINE
  8
0
 10
0.119308
 20
-58.505
 11
-0.0179749
 21
-58.508
  0
LINE
  8
0
 10
-0.0179749
 20
-58.508
 11
-0.154861
 21
-58.5131
  0
LINE
  8
0
 10
-0.154861
 20
-58.5131
 11
-0.291367
 21
-58.5201
  0
LINE
  8
0
 10
-0.291367
 20
-58.5201
 11
-0.42746
 21
-58.5292
  0
LINE
  8
0
 10
-0.42746
 20
-58.5292
 11
-0.563171
 21
-58.5402
  0
LINE
  8
0
 10
-0.563171
 20
-58.5402
 11
-0.698486
 21
-58.5533
  0
LINE
  8
0
 10
-0.698486
 20
-58.5533
 11
-0.833405
 21
-58.5684
  0
LINE
  8
0
 10
-0.833405
 20
-58.5684
 11
-0.967926
 21
-58.5855
  0
LINE
  8
0
 10
-0.967926
 20
-58.5855
 11
-1.10205
 21
-58.6046
  0
LINE
  8
0
 10
-1.10205
 20
-58.6046
 11
-1.23578
 21
-58.6258
  0
LINE
  8
0
 10
-1.23578
 20
-58.6258
 11
-1.36913
 21
-58.6489
  0
LINE
  8
0
 10
-1.36913
 20
-58.6489
 11
-1.50206
 21
-58.6741
  0
LINE
  8
0
 10
-1.50206
 20
-58.6741
 11
-1.63461
 21
-58.7013
  0
LINE
  8
0
 10
-1.63461
 20
-58.7013
 11
-1.76677
 21
-58.7305
  0
LINE
  8
0
 10
-1.76677
 20
-58.7305
 11
-1.89853
 21
-58.7617
  0
LINE
  8
0
 10
-1.89853
 20
-58.7617
 11
-2.02989
 21
-58.7949
  0
LINE
  8
0
 10
-2.02989
 20
-58.7949
 11
-2.16086
 21
-58.8301
  0
LINE
  8
0
 10
-2.16086
 20
-58.8301
 11
-2.29143
 21
-58.8673
  0
LINE
  8
0
 10
-2.29143
 20
-58.8673
 11
-2.42162
 21
-58.9066
  0
LINE
  8
0
 10
-2.42162
 20
-58.9066
 11
-2.55139
 21
-58.9478
  0
LINE
  8
0
 10
-2.55139
 20
-58.9478
 11
-2.68079
 21
-58.9911
  0
LINE
  8
0
 10
-2.68079
 20
-58.9911
 11
-2.80978
 21
-59.0364
  0
LINE
  8
0
 10
-2.80978
 20
-59.0364
 11
-2.93839
 21
-59.0837
  0
LINE
  8
0
 10
-2.93839
 20
-59.0837
 11
-3.06659
 21
-59.133
  0
LINE
  8
0
 10
-3.06659
 20
-59.133
 11
-3.32181
 21
-59.2377
  0
LINE
  8
0
 10
-3.32181
 20
-59.2377
 11
-3.44882
 21
-59.293
  0
LINE
  8
0
 10
-3.44882
 20
-59.293
 11
-3.70169
 21
-59.4098
  0
LINE
  8
0
 10
-3.70169
 20
-59.4098
 11
-3.82751
 21
-59.4712
  0
LINE
  8
0
 10
-3.82751
 20
-59.4712
 11
-4.078
 21
-59.6
  0
LINE
  8
0
 10
-4.078
 20
-59.6
 11
-4.32494
 21
-59.7357
  0
LINE
  8
0
 10
-4.32494
 20
-59.7357
 11
-4.56635
 21
-59.8773
  0
LINE
  8
0
 10
-4.56635
 20
-59.8773
 11
-4.8022
 21
-60.0248
  0
LINE
  8
0
 10
-4.8022
 20
-60.0248
 11
-5.03255
 21
-60.1782
  0
LINE
  8
0
 10
-5.03255
 20
-60.1782
 11
-5.14563
 21
-60.2571
  0
LINE
  8
0
 10
-5.14563
 20
-60.2571
 11
-5.36768
 21
-60.4193
  0
LINE
  8
0
 10
-5.36768
 20
-60.4193
 11
-5.47662
 21
-60.5027
  0
LINE
  8
0
 10
-5.47662
 20
-60.5027
 11
-5.58418
 21
-60.5875
  0
LINE
  8
0
 10
-5.58418
 20
-60.5875
 11
-5.69035
 21
-60.6738
  0
LINE
  8
0
 10
-5.69035
 20
-60.6738
 11
-5.79515
 21
-60.7616
  0
LINE
  8
0
 10
-5.79515
 20
-60.7616
 11
-5.89857
 21
-60.8508
  0
LINE
  8
0
 10
-5.89857
 20
-60.8508
 11
-6.0006
 21
-60.9416
  0
LINE
  8
0
 10
-6.0006
 20
-60.9416
 11
-6.10124
 21
-61.0338
  0
LINE
  8
0
 10
-6.10124
 20
-61.0338
 11
-6.20052
 21
-61.1274
  0
LINE
  8
0
 10
-6.20052
 20
-61.1274
 11
-6.2984
 21
-61.2226
  0
LINE
  8
0
 10
-6.2984
 20
-61.2226
 11
-6.3949
 21
-61.3192
  0
LINE
  8
0
 10
-6.3949
 20
-61.3192
 11
-6.49001
 21
-61.4173
  0
LINE
  8
0
 10
-6.49001
 20
-61.4173
 11
-6.58374
 21
-61.5169
  0
LINE
  8
0
 10
-6.58374
 20
-61.5169
 11
-6.67609
 21
-61.618
  0
LINE
  8
0
 10
-6.67609
 20
-61.618
 11
-6.76706
 21
-61.7205
  0
LINE
  8
0
 10
-6.76706
 20
-61.7205
 11
-6.85664
 21
-61.8246
  0
LINE
  8
0
 10
-6.85664
 20
-61.8246
 11
-6.94484
 21
-61.93
  0
LINE
  8
0
 10
-6.94484
 20
-61.93
 11
-7.1171
 21
-62.1455
  0
LINE
  8
0
 10
-7.1171
 20
-62.1455
 11
-7.28381
 21
-62.3668
  0
LINE
  8
0
 10
-7.28381
 20
-62.3668
 11
-7.44501
 21
-62.594
  0
LINE
  8
0
 10
-7.44501
 20
-62.594
 11
-7.60089
 21
-62.8258
  0
LINE
  8
0
 10
-7.60089
 20
-62.8258
 11
-7.75169
 21
-63.0612
  0
LINE
  8
0
 10
-7.75169
 20
-63.0612
 11
-7.8974
 21
-63.3
  0
LINE
  8
0
 10
-7.8974
 20
-63.3
 11
-8.03804
 21
-63.5424
  0
LINE
  8
0
 10
-8.03804
 20
-63.5424
 11
-8.17358
 21
-63.7883
  0
LINE
  8
0
 10
-8.17358
 20
-63.7883
 11
-8.30405
 21
-64.0377
  0
LINE
  8
0
 10
-8.30405
 20
-64.0377
 11
-8.42943
 21
-64.2906
  0
LINE
  8
0
 10
-8.42943
 20
-64.2906
 11
-8.54973
 21
-64.5471
  0
LINE
  8
0
 10
-8.54973
 20
-64.5471
 11
-8.66495
 21
-64.8071
  0
LINE
  8
0
 10
-8.66495
 20
-64.8071
 11
-8.77507
 21
-65.0706
  0
LINE
  8
0
 10
-8.77507
 20
-65.0706
 11
-8.88011
 21
-65.3376
  0
LINE
  8
0
 10
-8.88011
 20
-65.3376
 11
-8.98009
 21
-65.6081
  0
LINE
  8
0
 10
-8.98009
 20
-65.6081
 11
-9.07497
 21
-65.8821
  0
LINE
  8
0
 10
-9.07497
 20
-65.8821
 11
-9.16476
 21
-66.1597
  0
LINE
  8
0
 10
-9.16476
 20
-66.1597
 11
-9.24947
 21
-66.4408
  0
LINE
  8
0
 10
-9.24947
 20
-66.4408
 11
-9.3291
 21
-66.7254
  0
LINE
  8
0
 10
-9.3291
 20
-66.7254
 11
-9.40392
 21
-67.0141
  0
LINE
  8
0
 10
-9.40392
 20
-67.0141
 11
-9.47552
 21
-67.3105
  0
LINE
  8
0
 10
-9.47552
 20
-67.3105
 11
-9.54419
 21
-67.6152
  0
LINE
  8
0
 10
-9.54419
 20
-67.6152
 11
-9.60992
 21
-67.9284
  0
LINE
  8
0
 10
-9.60992
 20
-67.9284
 11
-9.67271
 21
-68.25
  0
LINE
  8
0
 10
-9.67271
 20
-68.25
 11
-9.73256
 21
-68.58
  0
LINE
  8
0
 10
-9.73256
 20
-68.58
 11
-9.78947
 21
-68.9184
  0
LINE
  8
0
 10
-9.78947
 20
-68.9184
 11
-9.84346
 21
-69.2652
  0
LINE
  8
0
 10
-9.84346
 20
-69.2652
 11
-9.89449
 21
-69.6203
  0
LINE
  8
0
 10
-9.89449
 20
-69.6203
 11
-9.9426
 21
-69.9839
  0
LINE
  8
0
 10
-9.9426
 20
-69.9839
 11
-10.0092
 21
-70.545
  0
LINE
  8
0
 10
-10.0092
 20
-70.545
 11
-10.0693
 21
-71.125
  0
LINE
  8
0
 10
-10.0693
 20
-71.125
 11
-10.1227
 21
-71.7239
  0
LINE
  8
0
 10
-10.1227
 20
-71.7239
 11
-10.1695
 21
-72.3417
  0
LINE
  8
0
 10
-10.1695
 20
-72.3417
 11
-10.2098
 21
-72.9833
  0
LINE
  8
0
 10
-10.2098
 20
-72.9833
 11
-10.2343
 21
-73.458
  0
LINE
  8
0
 10
-10.2343
 20
-73.458
 11
-10.2681
 21
-74.2606
  0
LINE
  8
0
 10
-10.2681
 20
-74.2606
 11
-10.2983
 21
-75.172
  0
LINE
  8
0
 10
-10.2983
 20
-75.172
 11
-10.3249
 21
-76.192
  0
LINE
  8
0
 10
-10.3249
 20
-76.192
 11
-10.3549
 21
-77.721
  0
LINE
  8
0
 10
-10.3549
 20
-77.721
 11
-10.3786
 21
-79.4433
  0
LINE
  8
0
 10
-10.3786
 20
-79.4433
 11
-10.396
 21
-81.3588
  0
LINE
  8
0
 10
-10.396
 20
-81.3588
 11
-10.4088
 21
-84.0248
  0
LINE
  8
0
 10
-10.4088
 20
-84.0248
 11
-10.4113
 21
-87.0607
  0
LINE
  8
0
 10
-10.4113
 20
-87.0607
 11
-10.4057
 21
-88.4827
  0
LINE
  8
0
 10
-10.4057
 20
-88.4827
 11
-10.3944
 21
-89.9722
  0
LINE
  8
0
 10
-10.3944
 20
-89.9722
 11
-10.3775
 21
-91.5293
  0
LINE
  8
0
 10
-10.3775
 20
-91.5293
 11
-10.3549
 21
-93.154
  0
LINE
  8
0
 10
-10.3549
 20
-93.154
 11
-10.3267
 21
-94.8462
  0
LINE
  8
0
 10
-10.3267
 20
-94.8462
 11
-10.2928
 21
-96.606
  0
LINE
  8
0
 10
-10.2928
 20
-96.606
 11
-10.2533
 21
-98.4334
  0
LINE
  8
0
 10
-10.2533
 20
-98.4334
 11
-10.1835
 21
-101.301
  0
LINE
  8
0
 10
-10.1835
 20
-101.301
 11
-10.101
 21
-104.321
  0
LINE
  8
0
 10
-10.101
 20
-104.321
 11
-10.0058
 21
-107.493
  0
LINE
  8
0
 10
-10.0058
 20
-107.493
 11
-9.89789
 21
-110.816
  0
LINE
  8
0
 10
-9.89789
 20
-110.816
 11
-9.7773
 21
-114.292
  0
LINE
  8
0
 10
-9.7773
 20
-114.292
 11
-9.64401
 21
-117.92
  0
LINE
  8
0
 10
-9.64401
 20
-117.92
 11
-9.92775
 21
-117.985
  0
LINE
  8
0
 10
-9.92775
 20
-117.985
 11
-10.3487
 21
-118.089
  0
LINE
  8
0
 10
-10.3487
 20
-118.089
 11
-10.7641
 21
-118.201
  0
LINE
  8
0
 10
-10.7641
 20
-118.201
 11
-11.174
 21
-118.321
  0
LINE
  8
0
 10
-11.174
 20
-118.321
 11
-11.4442
 21
-118.405
  0
LINE
  8
0
 10
-11.4442
 20
-118.405
 11
-11.7119
 21
-118.492
  0
LINE
  8
0
 10
-11.7119
 20
-118.492
 11
-11.9771
 21
-118.583
  0
LINE
  8
0
 10
-11.9771
 20
-118.583
 11
-12.2398
 21
-118.677
  0
LINE
  8
0
 10
-12.2398
 20
-118.677
 11
-12.5001
 21
-118.775
  0
LINE
  8
0
 10
-12.5001
 20
-118.775
 11
-12.7579
 21
-118.876
  0
LINE
  8
0
 10
-12.7579
 20
-118.876
 11
-13.0133
 21
-118.98
  0
LINE
  8
0
 10
-13.0133
 20
-118.98
 11
-13.2662
 21
-119.088
  0
LINE
  8
0
 10
-13.2662
 20
-119.088
 11
-13.5166
 21
-119.199
  0
LINE
  8
0
 10
-13.5166
 20
-119.199
 11
-13.7645
 21
-119.314
  0
LINE
  8
0
 10
-13.7645
 20
-119.314
 11
-14.01
 21
-119.432
  0
LINE
  8
0
 10
-14.01
 20
-119.432
 11
-14.956
 21
-118.66
  0
LINE
  8
0
 10
2.59038
 20
-123.376
 11
2.35941
 21
-123.361
  0
LINE
  8
0
 10
2.35941
 20
-123.361
 11
2.13336
 21
-123.337
  0
LINE
  8
0
 10
2.13336
 20
-123.337
 11
1.9854
 21
-123.316
  0
LINE
  8
0
 10
1.9854
 20
-123.316
 11
1.83963
 21
-123.291
  0
LINE
  8
0
 10
1.83963
 20
-123.291
 11
1.69604
 21
-123.263
  0
LINE
  8
0
 10
1.69604
 20
-123.263
 11
1.55466
 21
-123.23
  0
LINE
  8
0
 10
1.55466
 20
-123.23
 11
1.41545
 21
-123.194
  0
LINE
  8
0
 10
1.41545
 20
-123.194
 11
1.27844
 21
-123.155
  0
LINE
  8
0
 10
1.27844
 20
-123.155
 11
1.14362
 21
-123.111
  0
LINE
  8
0
 10
1.14362
 20
-123.111
 11
1.01097
 21
-123.064
  0
LINE
  8
0
 10
1.01097
 20
-123.064
 11
0.880524
 21
-123.013
  0
LINE
  8
0
 10
0.880524
 20
-123.013
 11
0.752274
 21
-122.958
  0
LINE
  8
0
 10
0.752274
 20
-122.958
 11
0.626205
 21
-122.899
  0
LINE
  8
0
 10
0.626205
 20
-122.899
 11
0.502487
 21
-122.836
  0
LINE
  8
0
 10
0.502487
 20
-122.836
 11
0.382095
 21
-122.77
  0
LINE
  8
0
 10
0.382095
 20
-122.77
 11
0.265198
 21
-122.699
  0
LINE
  8
0
 10
0.265198
 20
-122.699
 11
0.151794
 21
-122.625
  0
LINE
  8
0
 10
0.151794
 20
-122.625
 11
0.0418701
 21
-122.546
  0
LINE
  8
0
 10
0.0418701
 20
-122.546
 11
-0.0645599
 21
-122.463
  0
LINE
  8
0
 10
-0.0645599
 20
-122.463
 11
-0.167511
 21
-122.377
  0
LINE
  8
0
 10
-0.167511
 20
-122.377
 11
-0.266953
 21
-122.286
  0
LINE
  8
0
 10
-0.266953
 20
-122.286
 11
-0.362915
 21
-122.191
  0
LINE
  8
0
 10
-0.362915
 20
-122.191
 11
-0.455399
 21
-122.093
  0
LINE
  8
0
 10
-0.455399
 20
-122.093
 11
-0.544373
 21
-121.99
  0
LINE
  8
0
 10
-0.544373
 20
-121.99
 11
-0.629868
 21
-121.883
  0
LINE
  8
0
 10
-0.629868
 20
-121.883
 11
-0.711884
 21
-121.773
  0
LINE
  8
0
 10
-0.711884
 20
-121.773
 11
-0.79039
 21
-121.658
  0
LINE
  8
0
 10
-0.79039
 20
-121.658
 11
-0.865417
 21
-121.539
  0
LINE
  8
0
 10
-0.865417
 20
-121.539
 11
-0.936966
 21
-121.417
  0
LINE
  8
0
 10
-0.936966
 20
-121.417
 11
-1.005
 21
-121.29
  0
LINE
  8
0
 10
-1.005
 20
-121.29
 11
-1.06931
 21
-121.158
  0
LINE
  8
0
 10
-1.06931
 20
-121.158
 11
-1.12958
 21
-121.02
  0
LINE
  8
0
 10
-1.12958
 20
-121.02
 11
-1.18584
 21
-120.875
  0
LINE
  8
0
 10
-1.18584
 20
-120.875
 11
-1.23807
 21
-120.725
  0
LINE
  8
0
 10
-1.23807
 20
-120.725
 11
-1.2863
 21
-120.568
  0
LINE
  8
0
 10
-1.2863
 20
-120.568
 11
-1.33049
 21
-120.404
  0
LINE
  8
0
 10
-1.33049
 20
-120.404
 11
-1.37068
 21
-120.235
  0
LINE
  8
0
 10
-1.37068
 20
-120.235
 11
-1.40685
 21
-120.059
  0
LINE
  8
0
 10
-1.40685
 20
-120.059
 11
-1.439
 21
-119.876
  0
LINE
  8
0
 10
-1.439
 20
-119.876
 11
-1.46712
 21
-119.688
  0
LINE
  8
0
 10
-1.46712
 20
-119.688
 11
-1.49123
 21
-119.493
  0
LINE
  8
0
 10
-1.49123
 20
-119.493
 11
-1.51132
 21
-119.292
  0
LINE
  8
0
 10
-1.51132
 20
-119.292
 11
-1.52739
 21
-119.085
  0
LINE
  8
0
 10
-1.52739
 20
-119.085
 11
-1.53944
 21
-118.871
  0
LINE
  8
0
 10
-1.53944
 20
-118.871
 11
-1.54749
 21
-118.651
  0
LINE
  8
0
 10
-1.54749
 20
-118.651
 11
-1.5515
 21
-118.425
  0
LINE
  8
0
 10
-1.5515
 20
-118.425
 11
-1.55063
 21
-118.187
  0
LINE
  8
0
 10
-1.55063
 20
-118.187
 11
-1.52997
 21
-117.611
  0
LINE
  8
0
 10
-1.52997
 20
-117.611
 11
-1.44044
 21
-115.958
  0
LINE
  8
0
 10
-1.44044
 20
-115.958
 11
-1.177
 21
-111.852
  0
LINE
  8
0
 10
-1.177
 20
-111.852
 11
-0.844009
 21
-106.488
  0
LINE
  8
0
 10
-0.844009
 20
-106.488
 11
-1.60301
 21
-106.507
  0
LINE
  8
0
 10
-1.60301
 20
-106.507
 11
-2.29698
 21
-106.533
  0
LINE
  8
0
 10
-2.29698
 20
-106.533
 11
-2.77478
 21
-106.558
  0
LINE
  8
0
 10
-2.77478
 20
-106.558
 11
-3.21602
 21
-106.587
  0
LINE
  8
0
 10
-3.21602
 20
-106.587
 11
-3.62065
 21
-106.62
  0
LINE
  8
0
 10
-3.62065
 20
-106.62
 11
-3.98872
 21
-106.658
  0
LINE
  8
0
 10
-3.98872
 20
-106.658
 11
-4.32022
 21
-106.7
  0
LINE
  8
0
 10
-4.32022
 20
-106.7
 11
-4.52089
 21
-106.73
  0
LINE
  8
0
 10
-4.52089
 20
-106.73
 11
-4.70531
 21
-106.762
  0
LINE
  8
0
 10
-4.70531
 20
-106.762
 11
-4.87346
 21
-106.796
  0
LINE
  8
0
 10
-4.87346
 20
-106.796
 11
-5.02536
 21
-106.832
  0
LINE
  8
0
 10
-5.02536
 20
-106.832
 11
-5.16101
 21
-106.87
  0
LINE
  8
0
 10
-5.16101
 20
-106.87
 11
-5.287
 21
-106.912
  0
LINE
  8
0
 10
-5.287
 20
-106.912
 11
-5.40999
 21
-106.959
  0
LINE
  8
0
 10
-5.40999
 20
-106.959
 11
-5.52994
 21
-107.013
  0
LINE
  8
0
 10
-5.52994
 20
-107.013
 11
-5.64685
 21
-107.073
  0
LINE
  8
0
 10
-5.64685
 20
-107.073
 11
-5.76076
 21
-107.139
  0
LINE
  8
0
 10
-5.76076
 20
-107.139
 11
-5.87161
 21
-107.211
  0
LINE
  8
0
 10
-5.87161
 20
-107.211
 11
-5.97946
 21
-107.289
  0
LINE
  8
0
 10
-5.97946
 20
-107.289
 11
-6.08427
 21
-107.374
  0
LINE
  8
0
 10
-6.08427
 20
-107.374
 11
-6.18607
 21
-107.464
  0
LINE
  8
0
 10
-6.18607
 20
-107.464
 11
-6.28482
 21
-107.56
  0
LINE
  8
0
 10
-6.28482
 20
-107.56
 11
-6.38057
 21
-107.662
  0
LINE
  8
0
 10
-6.38057
 20
-107.662
 11
-6.47327
 21
-107.771
  0
LINE
  8
0
 10
-6.47327
 20
-107.771
 11
-6.56296
 21
-107.885
  0
LINE
  8
0
 10
-6.56296
 20
-107.885
 11
-6.64961
 21
-108.006
  0
LINE
  8
0
 10
-6.64961
 20
-108.006
 11
-6.73325
 21
-108.133
  0
LINE
  8
0
 10
-6.73325
 20
-108.133
 11
-6.81384
 21
-108.265
  0
LINE
  8
0
 10
-6.81384
 20
-108.265
 11
-6.89154
 21
-108.405
  0
LINE
  8
0
 10
-6.89154
 20
-108.405
 11
-6.96748
 21
-108.558
  0
LINE
  8
0
 10
-6.96748
 20
-108.558
 11
-7.04192
 21
-108.726
  0
LINE
  8
0
 10
-7.04192
 20
-108.726
 11
-7.11482
 21
-108.907
  0
LINE
  8
0
 10
-7.11482
 20
-108.907
 11
-7.18623
 21
-109.103
  0
LINE
  8
0
 10
-7.18623
 20
-109.103
 11
-7.25612
 21
-109.314
  0
LINE
  8
0
 10
-7.25612
 20
-109.314
 11
-7.32449
 21
-109.538
  0
LINE
  8
0
 10
-7.32449
 20
-109.538
 11
-7.39136
 21
-109.777
  0
LINE
  8
0
 10
-7.39136
 20
-109.777
 11
-7.4567
 21
-110.031
  0
LINE
  8
0
 10
-7.4567
 20
-110.031
 11
-7.52054
 21
-110.298
  0
LINE
  8
0
 10
-7.52054
 20
-110.298
 11
-7.58286
 21
-110.58
  0
LINE
  8
0
 10
-7.58286
 20
-110.58
 11
-7.64366
 21
-110.876
  0
LINE
  8
0
 10
-7.64366
 20
-110.876
 11
-7.70296
 21
-111.187
  0
LINE
  8
0
 10
-7.70296
 20
-111.187
 11
-7.76074
 21
-111.512
  0
LINE
  8
0
 10
-7.76074
 20
-111.512
 11
-7.84457
 21
-112.026
  0
LINE
  8
0
 10
-7.84457
 20
-112.026
 11
-7.925
 21
-112.572
  0
LINE
  8
0
 10
-7.925
 20
-112.572
 11
-8.27501
 21
-112.614
  0
LINE
  8
0
 10
-8.27501
 20
-112.614
 11
-8.66701
 21
-112.077
  0
LINE
  8
0
 10
-8.66701
 20
-112.077
 11
-8.52858
 21
-110.663
  0
LINE
  8
0
 10
-8.52858
 20
-110.663
 11
-8.35229
 21
-108.972
  0
LINE
  8
0
 10
-8.35229
 20
-108.972
 11
-8.21745
 21
-107.79
  0
LINE
  8
0
 10
-8.21745
 20
-107.79
 11
-8.11655
 21
-106.994
  0
LINE
  8
0
 10
-8.11655
 20
-106.994
 11
-8.04333
 21
-106.481
  0
LINE
  8
0
 10
-8.04333
 20
-106.481
 11
-7.9928
 21
-106.169
  0
LINE
  8
0
 10
-7.9928
 20
-106.169
 11
-7.94601
 21
-105.918
  0
LINE
  8
0
 10
-7.94601
 20
-105.918
 11
-7.89777
 21
-105.704
  0
LINE
  8
0
 10
-7.89777
 20
-105.704
 11
-7.86211
 21
-105.568
  0
LINE
  8
0
 10
-7.86211
 20
-105.568
 11
-7.82365
 21
-105.438
  0
LINE
  8
0
 10
-7.82365
 20
-105.438
 11
-7.78239
 21
-105.312
  0
LINE
  8
0
 10
-7.78239
 20
-105.312
 11
-7.73834
 21
-105.192
  0
LINE
  8
0
 10
-7.73834
 20
-105.192
 11
-7.69148
 21
-105.078
  0
LINE
  8
0
 10
-7.69148
 20
-105.078
 11
-7.64183
 21
-104.968
  0
LINE
  8
0
 10
-7.64183
 20
-104.968
 11
-7.58939
 21
-104.864
  0
LINE
  8
0
 10
-7.58939
 20
-104.864
 11
-7.53413
 21
-104.766
  0
LINE
  8
0
 10
-7.53413
 20
-104.766
 11
-7.47609
 21
-104.672
  0
LINE
  8
0
 10
-7.47609
 20
-104.672
 11
-7.41524
 21
-104.584
  0
LINE
  8
0
 10
-7.41524
 20
-104.584
 11
-7.35159
 21
-104.501
  0
LINE
  8
0
 10
-7.35159
 20
-104.501
 11
-7.28514
 21
-104.424
  0
LINE
  8
0
 10
-7.28514
 20
-104.424
 11
-7.2159
 21
-104.351
  0
LINE
  8
0
 10
-7.2159
 20
-104.351
 11
-7.14384
 21
-104.285
  0
LINE
  8
0
 10
-7.14384
 20
-104.285
 11
-7.069
 21
-104.223
  0
LINE
  8
0
 10
-7.069
 20
-104.223
 11
-6.98932
 21
-104.166
  0
LINE
  8
0
 10
-6.98932
 20
-104.166
 11
-6.90273
 21
-104.112
  0
LINE
  8
0
 10
-6.90273
 20
-104.112
 11
-6.80923
 21
-104.062
  0
LINE
  8
0
 10
-6.80923
 20
-104.062
 11
-6.70885
 21
-104.016
  0
LINE
  8
0
 10
-6.70885
 20
-104.016
 11
-6.60156
 21
-103.973
  0
LINE
  8
0
 10
-6.60156
 20
-103.973
 11
-6.48738
 21
-103.933
  0
LINE
  8
0
 10
-6.48738
 20
-103.933
 11
-6.3663
 21
-103.897
  0
LINE
  8
0
 10
-6.3663
 20
-103.897
 11
-6.23833
 21
-103.865
  0
LINE
  8
0
 10
-6.23833
 20
-103.865
 11
-6.10345
 21
-103.837
  0
LINE
  8
0
 10
-6.10345
 20
-103.837
 11
-5.96169
 21
-103.812
  0
LINE
  8
0
 10
-5.96169
 20
-103.812
 11
-5.813
 21
-103.79
  0
LINE
  8
0
 10
-5.813
 20
-103.79
 11
-5.65744
 21
-103.772
  0
LINE
  8
0
 10
-5.65744
 20
-103.772
 11
-5.49496
 21
-103.758
  0
LINE
  8
0
 10
-5.49496
 20
-103.758
 11
-5.23833
 21
-103.743
  0
LINE
  8
0
 10
-5.23833
 20
-103.743
 11
-4.96617
 21
-103.736
  0
LINE
  8
0
 10
-4.96617
 20
-103.736
 11
-4.64764
 21
-103.737
  0
LINE
  8
0
 10
-4.64764
 20
-103.737
 11
-3.34344
 21
-103.766
  0
LINE
  8
0
 10
-3.34344
 20
-103.766
 11
0.71936
 21
-103.927
  0
LINE
  8
0
 10
0.71936
 20
-103.927
 11
2.79889
 21
-103.999
  0
LINE
  8
0
 10
2.79889
 20
-103.999
 11
4.41006
 21
-104.038
  0
LINE
  8
0
 10
4.41006
 20
-104.038
 11
5.63666
 21
-104.054
  0
LINE
  8
0
 10
5.63666
 20
-104.054
 11
9.327
 21
-104.056
  0
LINE
  8
0
 10
9.327
 20
-104.056
 11
9.24312
 21
-104.28
  0
LINE
  8
0
 10
9.24312
 20
-104.28
 11
9.16168
 21
-104.524
  0
LINE
  8
0
 10
9.16168
 20
-104.524
 11
9.08269
 21
-104.788
  0
LINE
  8
0
 10
9.08269
 20
-104.788
 11
8.98738
 21
-105.144
  0
LINE
  8
0
 10
8.98738
 20
-105.144
 11
8.89587
 21
-105.531
  0
LINE
  8
0
 10
8.89587
 20
-105.531
 11
8.8082
 21
-105.948
  0
LINE
  8
0
 10
8.8082
 20
-105.948
 11
8.70799
 21
-106.488
  0
LINE
  8
0
 10
8.70799
 20
-106.488
 11
8.41631
 21
-106.473
  0
LINE
  8
0
 10
8.41631
 20
-106.473
 11
7.07275
 21
-106.423
  0
LINE
  8
0
 10
7.07275
 20
-106.423
 11
5.8513
 21
-106.404
  0
LINE
  8
0
 10
5.8513
 20
-106.404
 11
2.5
 21
-106.424
  0
LINE
  8
0
 10
2.5
 20
-106.424
 11
1.84
 21
-106.445
  0
LINE
  8
0
 10
1.84
 20
-106.445
 11
1.77652
 21
-108.133
  0
LINE
  8
0
 10
1.77652
 20
-108.133
 11
1.68256
 21
-111.061
  0
LINE
  8
0
 10
1.68256
 20
-111.061
 11
1.6524
 21
-112.502
  0
LINE
  8
0
 10
1.6524
 20
-112.502
 11
1.64828
 21
-113.299
  0
LINE
  8
0
 10
1.64828
 20
-113.299
 11
1.65533
 21
-114.081
  0
LINE
  8
0
 10
1.65533
 20
-114.081
 11
1.6718
 21
-114.813
  0
LINE
  8
0
 10
1.6718
 20
-114.813
 11
1.69031
 21
-115.328
  0
LINE
  8
0
 10
1.69031
 20
-115.328
 11
1.71411
 21
-115.814
  0
LINE
  8
0
 10
1.71411
 20
-115.814
 11
1.74319
 21
-116.271
  0
LINE
  8
0
 10
1.74319
 20
-116.271
 11
1.77757
 21
-116.699
  0
LINE
  8
0
 10
1.77757
 20
-116.699
 11
1.81725
 21
-117.099
  0
LINE
  8
0
 10
1.81725
 20
-117.099
 11
1.86221
 21
-117.469
  0
LINE
  8
0
 10
1.86221
 20
-117.469
 11
1.89511
 21
-117.7
  0
LINE
  8
0
 10
1.89511
 20
-117.7
 11
1.93037
 21
-117.919
  0
LINE
  8
0
 10
1.93037
 20
-117.919
 11
1.96799
 21
-118.124
  0
LINE
  8
0
 10
1.96799
 20
-118.124
 11
2.00871
 21
-118.32
  0
LINE
  8
0
 10
2.00871
 20
-118.32
 11
2.05328
 21
-118.509
  0
LINE
  8
0
 10
2.05328
 20
-118.509
 11
2.10172
 21
-118.693
  0
LINE
  8
0
 10
2.10172
 20
-118.693
 11
2.15399
 21
-118.87
  0
LINE
  8
0
 10
2.15399
 20
-118.87
 11
2.21014
 21
-119.04
  0
LINE
  8
0
 10
2.21014
 20
-119.04
 11
2.27014
 21
-119.205
  0
LINE
  8
0
 10
2.27014
 20
-119.205
 11
2.334
 21
-119.363
  0
LINE
  8
0
 10
2.334
 20
-119.363
 11
2.40172
 21
-119.515
  0
LINE
  8
0
 10
2.40172
 20
-119.515
 11
2.47328
 21
-119.66
  0
LINE
  8
0
 10
2.47328
 20
-119.66
 11
2.54871
 21
-119.8
  0
LINE
  8
0
 10
2.54871
 20
-119.8
 11
2.62799
 21
-119.932
  0
LINE
  8
0
 10
2.62799
 20
-119.932
 11
2.71114
 21
-120.059
  0
LINE
  8
0
 10
2.71114
 20
-120.059
 11
2.79813
 21
-120.179
  0
LINE
  8
0
 10
2.79813
 20
-120.179
 11
2.88898
 21
-120.293
  0
LINE
  8
0
 10
2.88898
 20
-120.293
 11
2.98369
 21
-120.401
  0
LINE
  8
0
 10
2.98369
 20
-120.401
 11
3.08226
 21
-120.503
  0
LINE
  8
0
 10
3.08226
 20
-120.503
 11
3.18472
 21
-120.598
  0
LINE
  8
0
 10
3.18472
 20
-120.598
 11
3.29089
 21
-120.687
  0
LINE
  8
0
 10
3.29089
 20
-120.687
 11
3.4007
 21
-120.771
  0
LINE
  8
0
 10
3.4007
 20
-120.771
 11
3.51413
 21
-120.849
  0
LINE
  8
0
 10
3.51413
 20
-120.849
 11
3.6312
 21
-120.921
  0
LINE
  8
0
 10
3.6312
 20
-120.921
 11
3.75188
 21
-120.987
  0
LINE
  8
0
 10
3.75188
 20
-120.987
 11
3.87621
 21
-121.048
  0
LINE
  8
0
 10
3.87621
 20
-121.048
 11
4.00415
 21
-121.102
  0
LINE
  8
0
 10
4.00415
 20
-121.102
 11
4.13573
 21
-121.151
  0
LINE
  8
0
 10
4.13573
 20
-121.151
 11
4.27094
 21
-121.195
  0
LINE
  8
0
 10
4.27094
 20
-121.195
 11
4.40977
 21
-121.232
  0
LINE
  8
0
 10
4.40977
 20
-121.232
 11
4.55223
 21
-121.264
  0
LINE
  8
0
 10
4.55223
 20
-121.264
 11
4.69833
 21
-121.29
  0
LINE
  8
0
 10
4.69833
 20
-121.29
 11
4.84805
 21
-121.31
  0
LINE
  8
0
 10
4.84805
 20
-121.31
 11
5.0014
 21
-121.324
  0
LINE
  8
0
 10
5.0014
 20
-121.324
 11
5.15839
 21
-121.333
  0
LINE
  8
0
 10
5.15839
 20
-121.333
 11
5.31898
 21
-121.336
  0
LINE
  8
0
 10
5.31898
 20
-121.336
 11
5.51733
 21
-121.331
  0
LINE
  8
0
 10
5.51733
 20
-121.331
 11
5.75099
 21
-121.313
  0
LINE
  8
0
 10
5.75099
 20
-121.313
 11
5.97989
 21
-121.281
  0
LINE
  8
0
 10
5.97989
 20
-121.281
 11
6.20401
 21
-121.234
  0
LINE
  8
0
 10
6.20401
 20
-121.234
 11
6.38716
 21
-121.186
  0
LINE
  8
0
 10
6.38716
 20
-121.186
 11
6.56699
 21
-121.127
  0
LINE
  8
0
 10
6.56699
 20
-121.127
 11
6.67928
 21
-121.083
  0
LINE
  8
0
 10
6.67928
 20
-121.083
 11
6.80229
 21
-121.025
  0
LINE
  8
0
 10
6.80229
 20
-121.025
 11
6.93607
 21
-120.956
  0
LINE
  8
0
 10
6.93607
 20
-120.956
 11
7.13113
 21
-120.843
  0
LINE
  8
0
 10
7.13113
 20
-120.843
 11
7.34531
 21
-120.707
  0
LINE
  8
0
 10
7.34531
 20
-120.707
 11
7.63988
 21
-120.505
  0
LINE
  8
0
 10
7.63988
 20
-120.505
 11
7.96429
 21
-120.268
  0
LINE
  8
0
 10
7.96429
 20
-120.268
 11
8.39299
 21
-119.937
  0
LINE
  8
0
 10
8.39299
 20
-119.937
 11
8.45399
 21
-120.866
  0
LINE
  8
0
 10
8.45399
 20
-120.866
 11
8.18196
 21
-121.107
  0
LINE
  8
0
 10
8.18196
 20
-121.107
 11
7.91316
 21
-121.335
  0
LINE
  8
0
 10
7.91316
 20
-121.335
 11
7.64758
 21
-121.551
  0
LINE
  8
0
 10
7.64758
 20
-121.551
 11
7.38524
 21
-121.753
  0
LINE
  8
0
 10
7.38524
 20
-121.753
 11
7.1261
 21
-121.942
  0
LINE
  8
0
 10
7.1261
 20
-121.942
 11
6.87019
 21
-122.119
  0
LINE
  8
0
 10
6.87019
 20
-122.119
 11
6.70137
 21
-122.229
  0
LINE
  8
0
 10
6.70137
 20
-122.229
 11
6.534
 21
-122.334
  0
LINE
  8
0
 10
6.534
 20
-122.334
 11
6.36804
 21
-122.432
  0
LINE
  8
0
 10
6.36804
 20
-122.432
 11
6.20352
 21
-122.526
  0
LINE
  8
0
 10
6.20352
 20
-122.526
 11
6.04044
 21
-122.613
  0
LINE
  8
0
 10
6.04044
 20
-122.613
 11
5.87878
 21
-122.694
  0
LINE
  8
0
 10
5.87878
 20
-122.694
 11
5.71857
 21
-122.77
  0
LINE
  8
0
 10
5.71857
 20
-122.77
 11
5.55949
 21
-122.84
  0
LINE
  8
0
 10
5.55949
 20
-122.84
 11
5.39987
 21
-122.906
  0
LINE
  8
0
 10
5.39987
 20
-122.906
 11
5.23943
 21
-122.968
  0
LINE
  8
0
 10
5.23943
 20
-122.968
 11
5.07816
 21
-123.025
  0
LINE
  8
0
 10
5.07816
 20
-123.025
 11
4.91605
 21
-123.078
  0
LINE
  8
0
 10
4.91605
 20
-123.078
 11
4.7531
 21
-123.127
  0
LINE
  8
0
 10
4.7531
 20
-123.127
 11
4.58934
 21
-123.172
  0
LINE
  8
0
 10
4.58934
 20
-123.172
 11
4.42474
 21
-123.212
  0
LINE
  8
0
 10
4.42474
 20
-123.212
 11
4.25931
 21
-123.248
  0
LINE
  8
0
 10
4.25931
 20
-123.248
 11
4.09305
 21
-123.28
  0
LINE
  8
0
 10
4.09305
 20
-123.28
 11
3.92596
 21
-123.308
  0
LINE
  8
0
 10
3.92596
 20
-123.308
 11
3.75804
 21
-123.331
  0
LINE
  8
0
 10
3.75804
 20
-123.331
 11
3.58929
 21
-123.35
  0
LINE
  8
0
 10
3.58929
 20
-123.35
 11
3.41971
 21
-123.365
  0
LINE
  8
0
 10
3.41971
 20
-123.365
 11
3.2493
 21
-123.376
  0
LINE
  8
0
 10
3.2493
 20
-123.376
 11
3.07806
 21
-123.382
  0
LINE
  8
0
 10
3.07806
 20
-123.382
 11
2.82626
 21
-123.384
  0
LINE
  8
0
 10
2.82626
 20
-123.384
 11
2.59038
 21
-123.376
  0
ENDSEC
  0
SECTION
  2
OBJECTS
  0
DICTIONARY
  0
ENDSEC
  0
EOF
