<?xml version="1.0" standalone="no"?>
<!DOCTYPE svg PUBLIC "-//W3C//DTD SVG 1.1//EN" "http://www.w3.org/Graphics/SVG/1.1/DTD/svg11.dtd">
<svg width="22mm" height="13mm" viewBox="-1 -12 22 13" xmlns="http://www.w3.org/2000/svg" version="1.1">
<title>OpenSCAD Model</title>
<path d="
M 6.80393,-5.99844 L 6.81626,-5.99858 L 6.82855,-5.9988 L 6.84081,-5.99911 L 6.85302,-5.99951 L 6.86519,-6
 L 6.87733,-6.00057 L 6.88942,-6.00124 L 6.90148,-6.00199 L 6.9135,-6.00284 L 6.92547,-6.00377 L 6.93741,-6.00479
 L 6.94931,-6.0059 L 6.96117,-6.0071 L 6.97299,-6.00839 L 6.98477,-6.00976 L 6.99651,-6.01123 L 7.00821,-6.01278
 L 7.01987,-6.01442 L 7.03149,-6.01615 L 7.04307,-6.01797 L 7.05461,-6.01988 L 7.06612,-6.02188 L 7.07758,-6.02396
 L 7.08901,-6.02614 L 7.10039,-6.0284 L 7.11174,-6.03075 L 7.12304,-6.03319 L 7.13431,-6.03572 L 7.14554,-6.03834
 L 7.15673,-6.04105 L 7.16788,-6.04384 L 7.17898,-6.04673 L 7.19005,-6.0497 L 7.20108,-6.05276 L 7.21208,-6.05591
 L 7.22303,-6.05915 L 7.23394,-6.06248 L 7.24481,-6.0659 L 7.25565,-6.06941 L 7.26644,-6.073 L 7.27719,-6.07668
 L 7.28791,-6.08046 L 7.29858,-6.08432 L 7.30922,-6.08827 L 7.31982,-6.09231 L 7.33037,-6.09643 L 7.34089,-6.10065
 L 7.35137,-6.10495 L 7.36181,-6.10935 L 7.37221,-6.11383 L 7.38257,-6.1184 L 7.39289,-6.12306 L 7.40317,-6.12781
 L 7.41341,-6.13265 L 7.42361,-6.13757 L 7.43378,-6.14259 L 7.4439,-6.14769 L 7.45398,-6.15288 L 7.46403,-6.15816
 L 7.47403,-6.16353 L 7.484,-6.16899 L 7.49393,-6.17454 L 7.50381,-6.18018 L 7.51366,-6.1859 L 7.52347,-6.19171
 L 7.53322,-6.19758 L 7.54293,-6.20353 L 7.55259,-6.20954 L 7.5622,-6.21562 L 7.57176,-6.22178 L 7.58127,-6.228
 L 7.59073,-6.23429 L 7.60014,-6.24065 L 7.6095,-6.24707 L 7.61881,-6.25357 L 7.62807,-6.26014 L 7.63729,-6.26677
 L 7.64645,-6.27348 L 7.65557,-6.28025 L 7.66463,-6.28709 L 7.67365,-6.294 L 7.68262,-6.30098 L 7.69153,-6.30803
 L 7.7004,-6.31515 L 7.70922,-6.32234 L 7.71799,-6.32959 L 7.72671,-6.33692 L 7.73538,-6.34431 L 7.744,-6.35178
 L 7.75257,-6.35931 L 7.76109,-6.36691 L 7.76957,-6.37458 L 7.77799,-6.38232 L 7.78637,-6.39013 L 7.79469,-6.398
 L 7.80297,-6.40595 L 7.81119,-6.41397 L 7.81937,-6.42205 L 7.8275,-6.4302 L 7.83557,-6.43843 L 7.8436,-6.44672
 L 7.85158,-6.45508 L 7.85951,-6.46351 L 7.86739,-6.47201 L 7.87522,-6.48057 L 7.88301,-6.48921 L 7.89074,-6.49792
 L 7.89842,-6.50669 L 7.90605,-6.51553 L 7.91364,-6.52445 L 7.92117,-6.53343 L 7.92866,-6.54248 L 7.9361,-6.5516
 L 7.94348,-6.56079 L 7.95082,-6.57005 L 7.95811,-6.57937 L 7.96535,-6.58877 L 7.97254,-6.59823 L 7.97968,-6.60777
 L 7.98677,-6.61737 L 7.99381,-6.62704 L 8.0008,-6.63678 L 8.00774,-6.64659 L 8.01464,-6.65647 L 8.02148,-6.66642
 L 8.02827,-6.67644 L 8.03502,-6.68652 L 8.04171,-6.69668 L 8.04836,-6.7069 L 8.05496,-6.71719 L 8.06152,-6.72755
 L 8.06803,-6.73797 L 8.07449,-6.74845 L 8.08091,-6.75899 L 8.08728,-6.76959 L 8.0936,-6.78026 L 8.09988,-6.79099
 L 8.10612,-6.80178 L 8.1123,-6.81264 L 8.11844,-6.82355 L 8.12454,-6.83453 L 8.13059,-6.84558 L 8.13659,-6.85668
 L 8.14255,-6.86785 L 8.14846,-6.87908 L 8.15432,-6.89037 L 8.16014,-6.90172 L 8.16591,-6.91314 L 8.17164,-6.92462
 L 8.17732,-6.93616 L 8.18296,-6.94776 L 8.18854,-6.95943 L 8.19409,-6.97116 L 8.19958,-6.98295 L 8.20503,-6.9948
 L 8.21044,-7.00672 L 8.21579,-7.0187 L 8.22111,-7.03074 L 8.22637,-7.04284 L 8.23159,-7.05501 L 8.23677,-7.06724
 L 8.24189,-7.07953 L 8.24697,-7.09188 L 8.25201,-7.1043 L 8.257,-7.11678 L 8.26194,-7.12932 L 8.26684,-7.14192
 L 8.27169,-7.15458 L 8.2765,-7.16731 L 8.28126,-7.1801 L 8.28597,-7.19295 L 8.29064,-7.20587 L 8.29526,-7.21885
 L 8.29983,-7.23189 L 8.30436,-7.24499 L 8.30884,-7.25815 L 8.31328,-7.27138 L 8.31767,-7.28467 L 8.32202,-7.29802
 L 8.32632,-7.31144 L 8.33057,-7.32492 L 8.33477,-7.33846 L 8.33893,-7.35206 L 8.34305,-7.36572 L 8.34712,-7.37945
 L 8.35114,-7.39324 L 8.35512,-7.40709 L 8.35905,-7.421 L 8.36293,-7.43498 L 8.36677,-7.44902 L 8.37056,-7.46312
 L 8.37431,-7.47728 L 8.37801,-7.49151 L 8.38166,-7.5058 L 8.38527,-7.52014 L 8.38882,-7.53451 L 8.39231,-7.54892
 L 8.39575,-7.56337 L 8.39913,-7.57785 L 8.40246,-7.59237 L 8.40573,-7.60693 L 8.40894,-7.62152 L 8.4121,-7.63615
 L 8.4152,-7.65081 L 8.41825,-7.66551 L 8.42124,-7.68025 L 8.42418,-7.69502 L 8.42706,-7.70983 L 8.42988,-7.72467
 L 8.43265,-7.73956 L 8.43536,-7.75447 L 8.43801,-7.76943 L 8.44061,-7.78442 L 8.44316,-7.79944 L 8.44564,-7.8145
 L 8.44808,-7.8296 L 8.45045,-7.84474 L 8.45277,-7.85991 L 8.45504,-7.87512 L 8.45724,-7.89036 L 8.4594,-7.90564
 L 8.46149,-7.92096 L 8.46353,-7.93631 L 8.46552,-7.9517 L 8.46745,-7.96712 L 8.46932,-7.98258 L 8.47114,-7.99808
 L 8.4729,-8.01361 L 8.4746,-8.02918 L 8.47625,-8.04479 L 8.47785,-8.06043 L 8.47938,-8.07611 L 8.48086,-8.09182
 L 8.48229,-8.10757 L 8.48366,-8.12336 L 8.48497,-8.13918 L 8.48623,-8.15504 L 8.48743,-8.17093 L 8.48858,-8.18687
 L 8.48967,-8.20283 L 8.4907,-8.21884 L 8.49168,-8.23488 L 8.4926,-8.25095 L 8.49347,-8.26707 L 8.49428,-8.28322
 L 8.49504,-8.2994 L 8.49573,-8.31562 L 8.49638,-8.33188 L 8.49696,-8.34817 L 8.4975,-8.3645 L 8.49797,-8.38087
 L 8.49839,-8.39727 L 8.49875,-8.41371 L 8.49906,-8.43018 L 8.49931,-8.44669 L 8.49951,-8.46324 L 8.49965,-8.47982
 L 8.49973,-8.49644 L 8.49976,-8.5131 L 8.49973,-8.52975 L 8.49965,-8.54637 L 8.49951,-8.56295 L 8.49931,-8.57949
 L 8.49906,-8.596 L 8.49875,-8.61247 L 8.49839,-8.62891 L 8.49797,-8.64531 L 8.4975,-8.66167 L 8.49696,-8.678
 L 8.49638,-8.69429 L 8.49573,-8.71055 L 8.49504,-8.72676 L 8.49428,-8.74295 L 8.49347,-8.75909 L 8.4926,-8.7752
 L 8.49168,-8.79128 L 8.4907,-8.80732 L 8.48967,-8.82332 L 8.48858,-8.83928 L 8.48743,-8.85521 L 8.48623,-8.8711
 L 8.48497,-8.88696 L 8.48366,-8.90278 L 8.48229,-8.91857 L 8.48086,-8.93432 L 8.47938,-8.95003 L 8.47785,-8.9657
 L 8.47625,-8.98134 L 8.4746,-8.99695 L 8.4729,-9.01252 L 8.47114,-9.02805 L 8.46932,-9.04354 L 8.46745,-9.059
 L 8.46552,-9.07443 L 8.46353,-9.08981 L 8.46149,-9.10516 L 8.4594,-9.12048 L 8.45724,-9.13576 L 8.45504,-9.151
 L 8.45277,-9.1662 L 8.45045,-9.18137 L 8.44808,-9.19651 L 8.44564,-9.21161 L 8.44316,-9.22667 L 8.44061,-9.24169
 L 8.43801,-9.25668 L 8.43536,-9.27163 L 8.43265,-9.28655 L 8.42988,-9.30143 L 8.42706,-9.31628 L 8.42418,-9.33108
 L 8.42124,-9.34586 L 8.41825,-9.36059 L 8.4152,-9.37529 L 8.4121,-9.38996 L 8.40894,-9.40458 L 8.40573,-9.41917
 L 8.40246,-9.43373 L 8.39913,-9.44825 L 8.39575,-9.46273 L 8.39231,-9.47718 L 8.38882,-9.49159 L 8.38527,-9.50596
 L 8.38166,-9.5203 L 8.37801,-9.53459 L 8.37431,-9.54882 L 8.37056,-9.56299 L 8.36677,-9.57711 L 8.36293,-9.59116
 L 8.35905,-9.60515 L 8.35512,-9.61909 L 8.35114,-9.63297 L 8.34712,-9.64678 L 8.34305,-9.66054 L 8.33893,-9.67424
 L 8.33477,-9.68788 L 8.33057,-9.70146 L 8.32632,-9.71498 L 8.32202,-9.72844 L 8.31767,-9.74185 L 8.31328,-9.75519
 L 8.30884,-9.76847 L 8.30436,-9.7817 L 8.29983,-9.79487 L 8.29526,-9.80797 L 8.29064,-9.82102 L 8.28597,-9.83401
 L 8.28126,-9.84694 L 8.2765,-9.85981 L 8.27169,-9.87262 L 8.26684,-9.88537 L 8.26194,-9.89806 L 8.257,-9.9107
 L 8.25201,-9.92327 L 8.24697,-9.93579 L 8.24189,-9.94824 L 8.23677,-9.96064 L 8.23159,-9.97298 L 8.22637,-9.98526
 L 8.22111,-9.99748 L 8.21579,-10.0096 L 8.21044,-10.0217 L 8.20503,-10.0338 L 8.19958,-10.0458 L 8.19409,-10.0577
 L 8.18854,-10.0696 L 8.18296,-10.0814 L 8.17732,-10.0931 L 8.17164,-10.1048 L 8.16591,-10.1164 L 8.16014,-10.128
 L 8.15432,-10.1395 L 8.14846,-10.1509 L 8.14255,-10.1623 L 8.13659,-10.1737 L 8.13059,-10.1849 L 8.12454,-10.1962
 L 8.11844,-10.2073 L 8.1123,-10.2184 L 8.10612,-10.2294 L 8.09988,-10.2404 L 8.0936,-10.2513 L 8.08728,-10.2622
 L 8.08091,-10.273 L 8.07449,-10.2837 L 8.06803,-10.2944 L 8.06152,-10.305 L 8.05496,-10.3156 L 8.04836,-10.3261
 L 8.04171,-10.3365 L 8.03502,-10.3469 L 8.02827,-10.3572 L 8.02148,-10.3674 L 8.01464,-10.3776 L 8.00774,-10.3876
 L 8.0008,-10.3976 L 7.99381,-10.4076 L 7.98677,-10.4174 L 7.97968,-10.4272 L 7.97254,-10.4369 L 7.96535,-10.4466
 L 7.95811,-10.4561 L 7.95082,-10.4656 L 7.94348,-10.4751 L 7.9361,-10.4844 L 7.92866,-10.4937 L 7.92117,-10.5029
 L 7.91364,-10.512 L 7.90605,-10.5211 L 7.89842,-10.5301 L 7.89074,-10.539 L 7.88301,-10.5479 L 7.87522,-10.5566
 L 7.86739,-10.5653 L 7.85951,-10.574 L 7.85158,-10.5825 L 7.8436,-10.591 L 7.83557,-10.5994 L 7.8275,-10.6077
 L 7.81937,-10.616 L 7.81119,-10.6242 L 7.80297,-10.6323 L 7.79469,-10.6404 L 7.78637,-10.6484 L 7.77799,-10.6563
 L 7.76957,-10.6641 L 7.76109,-10.6718 L 7.75257,-10.6795 L 7.744,-10.6872 L 7.73538,-10.6947 L 7.72671,-10.7022
 L 7.71799,-10.7096 L 7.70922,-10.7169 L 7.7004,-10.7241 L 7.69153,-10.7313 L 7.68262,-10.7384 L 7.67365,-10.7455
 L 7.66463,-10.7524 L 7.65557,-10.7593 L 7.64645,-10.7661 L 7.63729,-10.7729 L 7.62807,-10.7796 L 7.61881,-10.7862
 L 7.6095,-10.7927 L 7.60014,-10.7991 L 7.59073,-10.8055 L 7.58127,-10.8118 L 7.57176,-10.8181 L 7.5622,-10.8242
 L 7.55259,-10.8303 L 7.54293,-10.8364 L 7.53322,-10.8423 L 7.52347,-10.8482 L 7.51366,-10.854 L 7.50381,-10.8597
 L 7.49393,-10.8654 L 7.484,-10.8709 L 7.47403,-10.8764 L 7.46403,-10.8818 L 7.45398,-10.887 L 7.4439,-10.8922
 L 7.43378,-10.8973 L 7.42361,-10.9024 L 7.41341,-10.9073 L 7.40317,-10.9121 L 7.39289,-10.9169 L 7.38257,-10.9215
 L 7.37221,-10.9261 L 7.36181,-10.9306 L 7.35137,-10.935 L 7.34089,-10.9393 L 7.33037,-10.9435 L 7.31982,-10.9476
 L 7.30922,-10.9517 L 7.29858,-10.9556 L 7.28791,-10.9595 L 7.27719,-10.9633 L 7.26644,-10.967 L 7.25565,-10.9706
 L 7.24481,-10.9741 L 7.23394,-10.9775 L 7.22303,-10.9808 L 7.21208,-10.9841 L 7.20108,-10.9872 L 7.19005,-10.9903
 L 7.17898,-10.9932 L 7.16788,-10.9961 L 7.15673,-10.9989 L 7.14554,-11.0016 L 7.13431,-11.0043 L 7.12304,-11.0068
 L 7.11174,-11.0092 L 7.10039,-11.0116 L 7.08901,-11.0138 L 7.07758,-11.016 L 7.06612,-11.0181 L 7.05461,-11.0201
 L 7.04307,-11.022 L 7.03149,-11.0238 L 7.01987,-11.0256 L 7.00821,-11.0272 L 6.99651,-11.0288 L 6.98477,-11.0302
 L 6.97299,-11.0316 L 6.96117,-11.0329 L 6.94931,-11.0341 L 6.93741,-11.0352 L 6.92547,-11.0362 L 6.9135,-11.0372
 L 6.90148,-11.038 L 6.88942,-11.0388 L 6.87733,-11.0394 L 6.86519,-11.04 L 6.85302,-11.0405 L 6.84081,-11.0409
 L 6.82855,-11.0412 L 6.81626,-11.0414 L 6.80393,-11.0416 L 6.79156,-11.0416 L 6.77919,-11.0416 L 6.76686,-11.0414
 L 6.75456,-11.0412 L 6.74231,-11.0409 L 6.7301,-11.0405 L 6.71792,-11.04 L 6.70579,-11.0394 L 6.69369,-11.0388
 L 6.68164,-11.038 L 6.66962,-11.0372 L 6.65764,-11.0362 L 6.64571,-11.0352 L 6.63381,-11.0341 L 6.62195,-11.0329
 L 6.61013,-11.0316 L 6.59835,-11.0302 L 6.58661,-11.0288 L 6.57491,-11.0272 L 6.56324,-11.0256 L 6.55162,-11.0238
 L 6.54004,-11.022 L 6.52849,-11.0201 L 6.51699,-11.0181 L 6.50552,-11.016 L 6.4941,-11.0138 L 6.48271,-11.0116
 L 6.47136,-11.0092 L 6.46006,-11.0068 L 6.44879,-11.0043 L 6.43756,-11.0016 L 6.42637,-10.9989 L 6.41522,-10.9961
 L 6.40411,-10.9932 L 6.39304,-10.9903 L 6.38201,-10.9872 L 6.37101,-10.9841 L 6.36006,-10.9808 L 6.34915,-10.9775
 L 6.33827,-10.9741 L 6.32744,-10.9706 L 6.31664,-10.967 L 6.30588,-10.9633 L 6.29517,-10.9595 L 6.28449,-10.9556
 L 6.27385,-10.9517 L 6.26325,-10.9476 L 6.25269,-10.9435 L 6.24217,-10.9393 L 6.23169,-10.935 L 6.22125,-10.9306
 L 6.21085,-10.9261 L 6.20049,-10.9215 L 6.19016,-10.9169 L 6.17988,-10.9121 L 6.16964,-10.9073 L 6.15943,-10.9024
 L 6.14927,-10.8973 L 6.13914,-10.8922 L 6.12905,-10.887 L 6.11901,-10.8818 L 6.109,-10.8764 L 6.09903,-10.8709
 L 6.0891,-10.8654 L 6.07921,-10.8597 L 6.06936,-10.854 L 6.05956,-10.8482 L 6.0498,-10.8423 L 6.04008,-10.8364
 L 6.03042,-10.8303 L 6.0208,-10.8242 L 6.01122,-10.8181 L 6.00169,-10.8118 L 5.99221,-10.8055 L 5.98277,-10.7991
 L 5.97338,-10.7927 L 5.96404,-10.7862 L 5.95474,-10.7796 L 5.94549,-10.7729 L 5.93628,-10.7661 L 5.92712,-10.7593
 L 5.91801,-10.7524 L 5.90894,-10.7455 L 5.89992,-10.7384 L 5.89094,-10.7313 L 5.88201,-10.7241 L 5.87312,-10.7169
 L 5.86429,-10.7096 L 5.85549,-10.7022 L 5.84675,-10.6947 L 5.83805,-10.6872 L 5.82939,-10.6795 L 5.82078,-10.6718
 L 5.81222,-10.6641 L 5.8037,-10.6563 L 5.79523,-10.6484 L 5.78681,-10.6404 L 5.77843,-10.6323 L 5.7701,-10.6242
 L 5.76181,-10.616 L 5.75357,-10.6077 L 5.74538,-10.5994 L 5.73723,-10.591 L 5.72913,-10.5825 L 5.72107,-10.574
 L 5.71306,-10.5653 L 5.7051,-10.5566 L 5.69718,-10.5479 L 5.68931,-10.539 L 5.68148,-10.5301 L 5.6737,-10.5211
 L 5.66597,-10.512 L 5.65828,-10.5029 L 5.65064,-10.4937 L 5.64304,-10.4844 L 5.63549,-10.4751 L 5.62799,-10.4656
 L 5.62053,-10.4561 L 5.61312,-10.4466 L 5.60575,-10.4369 L 5.59843,-10.4272 L 5.59116,-10.4174 L 5.58393,-10.4076
 L 5.57675,-10.3976 L 5.56961,-10.3876 L 5.56252,-10.3776 L 5.55548,-10.3674 L 5.54848,-10.3572 L 5.54153,-10.3469
 L 5.53462,-10.3365 L 5.52776,-10.3261 L 5.52095,-10.3156 L 5.51419,-10.305 L 5.50749,-10.2944 L 5.50083,-10.2837
 L 5.49423,-10.273 L 5.48769,-10.2622 L 5.48119,-10.2513 L 5.47475,-10.2404 L 5.46836,-10.2294 L 5.46202,-10.2184
 L 5.45574,-10.2073 L 5.4495,-10.1962 L 5.44332,-10.1849 L 5.4372,-10.1737 L 5.43112,-10.1623 L 5.4251,-10.1509
 L 5.41913,-10.1395 L 5.41322,-10.128 L 5.40735,-10.1164 L 5.40154,-10.1048 L 5.39578,-10.0931 L 5.39007,-10.0814
 L 5.38442,-10.0696 L 5.37882,-10.0577 L 5.37327,-10.0458 L 5.36778,-10.0338 L 5.36233,-10.0217 L 5.35694,-10.0096
 L 5.3516,-9.99748 L 5.34632,-9.98526 L 5.34109,-9.97298 L 5.33591,-9.96064 L 5.33078,-9.94824 L 5.3257,-9.93579
 L 5.32068,-9.92327 L 5.31571,-9.9107 L 5.31079,-9.89806 L 5.30593,-9.88537 L 5.30112,-9.87262 L 5.29636,-9.85981
 L 5.29165,-9.84694 L 5.287,-9.83401 L 5.28239,-9.82102 L 5.27784,-9.80797 L 5.27335,-9.79487 L 5.2689,-9.7817
 L 5.26451,-9.76847 L 5.26017,-9.75519 L 5.25589,-9.74185 L 5.25165,-9.72844 L 5.24747,-9.71498 L 5.24334,-9.70146
 L 5.23927,-9.68788 L 5.23524,-9.67424 L 5.23127,-9.66054 L 5.22736,-9.64678 L 5.22349,-9.63297 L 5.21968,-9.61909
 L 5.21592,-9.60515 L 5.21221,-9.59116 L 5.20855,-9.57711 L 5.20495,-9.56299 L 5.2014,-9.54882 L 5.1979,-9.53459
 L 5.19446,-9.5203 L 5.19107,-9.50596 L 5.18773,-9.49159 L 5.18444,-9.47718 L 5.18121,-9.46273 L 5.17803,-9.44825
 L 5.1749,-9.43373 L 5.17182,-9.41917 L 5.1688,-9.40458 L 5.16582,-9.38996 L 5.1629,-9.37529 L 5.16004,-9.36059
 L 5.15723,-9.34586 L 5.15446,-9.33108 L 5.15176,-9.31628 L 5.1491,-9.30143 L 5.1465,-9.28655 L 5.14395,-9.27163
 L 5.14145,-9.25668 L 5.139,-9.24169 L 5.13661,-9.22667 L 5.13427,-9.21161 L 5.13198,-9.19651 L 5.12975,-9.18137
 L 5.12756,-9.1662 L 5.12543,-9.151 L 5.12336,-9.13576 L 5.12133,-9.12048 L 5.11936,-9.10516 L 5.11744,-9.08981
 L 5.11557,-9.07443 L 5.11376,-9.059 L 5.112,-9.04354 L 5.11029,-9.02805 L 5.10863,-9.01252 L 5.10703,-8.99695
 L 5.10547,-8.98134 L 5.10398,-8.9657 L 5.10253,-8.95003 L 5.10114,-8.93432 L 5.09979,-8.91857 L 5.09851,-8.90278
 L 5.09727,-8.88696 L 5.09609,-8.8711 L 5.09496,-8.85521 L 5.09388,-8.83928 L 5.09285,-8.82332 L 5.09188,-8.80732
 L 5.09096,-8.79128 L 5.09009,-8.7752 L 5.08928,-8.75909 L 5.08851,-8.74295 L 5.0878,-8.72676 L 5.08715,-8.71055
 L 5.08654,-8.69429 L 5.08599,-8.678 L 5.08549,-8.66167 L 5.08504,-8.64531 L 5.08465,-8.62891 L 5.08431,-8.61247
 L 5.08402,-8.596 L 5.08378,-8.57949 L 5.0836,-8.56295 L 5.08347,-8.54637 L 5.08339,-8.52975 L 5.08336,-8.5131
 L 5.08339,-8.49644 L 5.08347,-8.47982 L 5.08361,-8.46324 L 5.08381,-8.44669 L 5.08406,-8.43018 L 5.08437,-8.41371
 L 5.08473,-8.39727 L 5.08515,-8.38087 L 5.08562,-8.3645 L 5.08615,-8.34817 L 5.08674,-8.33188 L 5.08738,-8.31562
 L 5.08808,-8.2994 L 5.08883,-8.28322 L 5.08964,-8.26707 L 5.09051,-8.25095 L 5.09143,-8.23488 L 5.09241,-8.21884
 L 5.09344,-8.20283 L 5.09453,-8.18687 L 5.09568,-8.17093 L 5.09688,-8.15504 L 5.09813,-8.13918 L 5.09945,-8.12336
 L 5.10082,-8.10757 L 5.10224,-8.09182 L 5.10372,-8.07611 L 5.10526,-8.06043 L 5.10685,-8.04479 L 5.1085,-8.02918
 L 5.1102,-8.01361 L 5.11196,-7.99808 L 5.11377,-7.98258 L 5.11565,-7.96712 L 5.11757,-7.9517 L 5.11956,-7.93631
 L 5.12159,-7.92096 L 5.12369,-7.90564 L 5.12584,-7.89036 L 5.12805,-7.87512 L 5.13031,-7.85991 L 5.13263,-7.84474
 L 5.135,-7.8296 L 5.13743,-7.8145 L 5.13992,-7.79944 L 5.14246,-7.78442 L 5.14506,-7.76943 L 5.14771,-7.75447
 L 5.15042,-7.73956 L 5.15318,-7.72467 L 5.156,-7.70983 L 5.15888,-7.69502 L 5.16181,-7.68025 L 5.1648,-7.66551
 L 5.16785,-7.65081 L 5.17095,-7.63615 L 5.1741,-7.62152 L 5.17731,-7.60693 L 5.18058,-7.59237 L 5.1839,-7.57785
 L 5.18728,-7.56337 L 5.19072,-7.54892 L 5.19421,-7.53451 L 5.19776,-7.52014 L 5.20136,-7.5058 L 5.20502,-7.49151
 L 5.20873,-7.47728 L 5.21248,-7.46312 L 5.21629,-7.44902 L 5.22015,-7.43498 L 5.22405,-7.421 L 5.228,-7.40709
 L 5.23201,-7.39324 L 5.23606,-7.37945 L 5.24016,-7.36572 L 5.24431,-7.35206 L 5.24851,-7.33846 L 5.25276,-7.32492
 L 5.25706,-7.31144 L 5.26141,-7.29802 L 5.26581,-7.28467 L 5.27026,-7.27138 L 5.27475,-7.25815 L 5.2793,-7.24499
 L 5.28389,-7.23189 L 5.28854,-7.21885 L 5.29323,-7.20587 L 5.29797,-7.19295 L 5.30276,-7.1801 L 5.30761,-7.16731
 L 5.3125,-7.15458 L 5.31744,-7.14192 L 5.32242,-7.12932 L 5.32746,-7.11678 L 5.33255,-7.1043 L 5.33769,-7.09188
 L 5.34287,-7.07953 L 5.34811,-7.06724 L 5.35339,-7.05501 L 5.35873,-7.04284 L 5.36411,-7.03074 L 5.36954,-7.0187
 L 5.37502,-7.00672 L 5.38056,-6.9948 L 5.38614,-6.98295 L 5.39177,-6.97116 L 5.39744,-6.95943 L 5.40317,-6.94776
 L 5.40895,-6.93616 L 5.41478,-6.92462 L 5.42065,-6.91314 L 5.42658,-6.90172 L 5.43255,-6.89037 L 5.43858,-6.87908
 L 5.44465,-6.86785 L 5.45077,-6.85668 L 5.45694,-6.84558 L 5.46316,-6.83453 L 5.46944,-6.82355 L 5.47575,-6.81264
 L 5.48212,-6.80178 L 5.48854,-6.79099 L 5.49501,-6.78026 L 5.50153,-6.76959 L 5.50809,-6.75899 L 5.51471,-6.74845
 L 5.52137,-6.73797 L 5.52808,-6.72755 L 5.53485,-6.71719 L 5.54166,-6.7069 L 5.54852,-6.69668 L 5.55542,-6.68652
 L 5.56236,-6.67644 L 5.56935,-6.66642 L 5.57638,-6.65647 L 5.58345,-6.64659 L 5.59057,-6.63678 L 5.59772,-6.62704
 L 5.60492,-6.61737 L 5.61217,-6.60777 L 5.61945,-6.59823 L 5.62678,-6.58877 L 5.63415,-6.57937 L 5.64157,-6.57005
 L 5.64902,-6.56079 L 5.65652,-6.5516 L 5.66406,-6.54248 L 5.67165,-6.53343 L 5.67928,-6.52445 L 5.68695,-6.51553
 L 5.69466,-6.50669 L 5.70242,-6.49792 L 5.71022,-6.48921 L 5.71806,-6.48057 L 5.72594,-6.47201 L 5.73387,-6.46351
 L 5.74184,-6.45508 L 5.74985,-6.44672 L 5.75791,-6.43843 L 5.766,-6.4302 L 5.77414,-6.42205 L 5.78233,-6.41397
 L 5.79055,-6.40595 L 5.79882,-6.398 L 5.80713,-6.39013 L 5.81549,-6.38232 L 5.82389,-6.37458 L 5.83233,-6.36691
 L 5.84081,-6.35931 L 5.84933,-6.35178 L 5.8579,-6.34431 L 5.86651,-6.33692 L 5.87517,-6.32959 L 5.88386,-6.32234
 L 5.8926,-6.31515 L 5.90138,-6.30803 L 5.91021,-6.30098 L 5.91908,-6.294 L 5.92799,-6.28709 L 5.93694,-6.28025
 L 5.94593,-6.27348 L 5.95497,-6.26677 L 5.96405,-6.26014 L 5.97318,-6.25357 L 5.98234,-6.24707 L 5.99155,-6.24065
 L 6.0008,-6.23429 L 6.0101,-6.228 L 6.01944,-6.22178 L 6.02882,-6.21562 L 6.03824,-6.20954 L 6.04771,-6.20353
 L 6.05721,-6.19758 L 6.06677,-6.19171 L 6.07636,-6.1859 L 6.086,-6.18018 L 6.09568,-6.17454 L 6.1054,-6.16899
 L 6.11516,-6.16353 L 6.12497,-6.15816 L 6.13482,-6.15288 L 6.14471,-6.14769 L 6.15465,-6.14259 L 6.16463,-6.13757
 L 6.17465,-6.13265 L 6.18471,-6.12781 L 6.19482,-6.12306 L 6.20497,-6.1184 L 6.21516,-6.11383 L 6.22539,-6.10935
 L 6.23567,-6.10495 L 6.24599,-6.10065 L 6.25635,-6.09643 L 6.26676,-6.09231 L 6.27721,-6.08827 L 6.2877,-6.08432
 L 6.29823,-6.08046 L 6.30881,-6.07668 L 6.31943,-6.073 L 6.33009,-6.06941 L 6.34079,-6.0659 L 6.35154,-6.06248
 L 6.36233,-6.05915 L 6.37316,-6.05591 L 6.38404,-6.05276 L 6.39495,-6.0497 L 6.40591,-6.04673 L 6.41692,-6.04384
 L 6.42796,-6.04105 L 6.43905,-6.03834 L 6.45018,-6.03572 L 6.46136,-6.03319 L 6.47257,-6.03075 L 6.48383,-6.0284
 L 6.49513,-6.02614 L 6.50648,-6.02396 L 6.51787,-6.02188 L 6.5293,-6.01988 L 6.54077,-6.01797 L 6.55228,-6.01615
 L 6.56384,-6.01442 L 6.57544,-6.01278 L 6.58709,-6.01123 L 6.59877,-6.00976 L 6.6105,-6.00839 L 6.62227,-6.0071
 L 6.63409,-6.0059 L 6.64595,-6.00479 L 6.65784,-6.00377 L 6.66979,-6.00284 L 6.68177,-6.00199 L 6.6938,-6.00124
 L 6.70587,-6.00057 L 6.71798,-6 L 6.73014,-5.99951 L 6.74234,-5.99911 L 6.75458,-5.9988 L 6.76686,-5.99858
 L 6.77919,-5.99844 L 6.79156,-5.9984 z
M 6.77709,-6.70892 L 6.76273,-6.70929 L 6.74849,-6.70991 L 6.73436,-6.71077 L 6.72035,-6.71188 L 6.70646,-6.71323
 L 6.69267,-6.71484 L 6.67901,-6.71668 L 6.66546,-6.71878 L 6.65202,-6.72112 L 6.6387,-6.7237 L 6.62549,-6.72654
 L 6.6124,-6.72962 L 6.59942,-6.73294 L 6.58656,-6.73651 L 6.57382,-6.74033 L 6.56118,-6.7444 L 6.54867,-6.74871
 L 6.53627,-6.75326 L 6.52398,-6.75807 L 6.51181,-6.76312 L 6.49975,-6.76842 L 6.48781,-6.77396 L 6.47599,-6.77975
 L 6.46428,-6.78578 L 6.45268,-6.79206 L 6.4412,-6.79859 L 6.42983,-6.80537 L 6.41858,-6.81239 L 6.40745,-6.81965
 L 6.39643,-6.82717 L 6.38552,-6.83493 L 6.37473,-6.84293 L 6.36405,-6.85119 L 6.35349,-6.85969 L 6.34305,-6.86843
 L 6.33272,-6.87742 L 6.3225,-6.88666 L 6.3124,-6.89614 L 6.30241,-6.90587 L 6.29254,-6.91585 L 6.28279,-6.92607
 L 6.27315,-6.93654 L 6.26362,-6.94726 L 6.25421,-6.95822 L 6.24492,-6.96943 L 6.23574,-6.98089 L 6.22667,-6.99259
 L 6.21772,-7.00454 L 6.20889,-7.01673 L 6.20017,-7.02917 L 6.19156,-7.04186 L 6.18307,-7.05479 L 6.17469,-7.06797
 L 6.16643,-7.08139 L 6.15829,-7.09507 L 6.15026,-7.10898 L 6.14234,-7.12315 L 6.13454,-7.13756 L 6.12686,-7.15222
 L 6.11929,-7.16712 L 6.11183,-7.18227 L 6.10449,-7.19767 L 6.09727,-7.21331 L 6.09016,-7.2292 L 6.08316,-7.24527
 L 6.07628,-7.26146 L 6.0695,-7.27776 L 6.06283,-7.29418 L 6.05627,-7.31071 L 6.04982,-7.32736 L 6.04347,-7.34412
 L 6.03724,-7.361 L 6.03111,-7.378 L 6.02509,-7.3951 L 6.01918,-7.41233 L 6.01338,-7.42966 L 6.00768,-7.44712
 L 6.0021,-7.46468 L 5.99662,-7.48237 L 5.99125,-7.50016 L 5.98599,-7.51808 L 5.98084,-7.5361 L 5.9758,-7.55425
 L 5.97087,-7.5725 L 5.96604,-7.59088 L 5.96132,-7.60936 L 5.95671,-7.62797 L 5.95221,-7.64668 L 5.94782,-7.66552
 L 5.94354,-7.68446 L 5.93936,-7.70353 L 5.93529,-7.7227 L 5.93134,-7.742 L 5.92749,-7.7614 L 5.92374,-7.78093
 L 5.92011,-7.80056 L 5.91659,-7.82032 L 5.91317,-7.84018 L 5.90986,-7.86017 L 5.90666,-7.88026 L 5.90357,-7.90047
 L 5.90059,-7.9208 L 5.89772,-7.94124 L 5.89495,-7.9618 L 5.89229,-7.98247 L 5.88974,-8.00326 L 5.8873,-8.02416
 L 5.88497,-8.04518 L 5.88275,-8.06631 L 5.88064,-8.08756 L 5.87863,-8.10892 L 5.87673,-8.1304 L 5.87494,-8.15199
 L 5.87326,-8.1737 L 5.87169,-8.19552 L 5.87022,-8.21746 L 5.86887,-8.23951 L 5.86762,-8.26167 L 5.86648,-8.28396
 L 5.86545,-8.30635 L 5.86453,-8.32887 L 5.86372,-8.35149 L 5.86301,-8.37423 L 5.86242,-8.39709 L 5.86193,-8.42006
 L 5.86155,-8.44315 L 5.86128,-8.46635 L 5.86111,-8.48967 L 5.86106,-8.5131 L 5.86111,-8.53738 L 5.86128,-8.56152
 L 5.86155,-8.58553 L 5.86193,-8.60941 L 5.86242,-8.63317 L 5.86301,-8.65678 L 5.86372,-8.68027 L 5.86453,-8.70363
 L 5.86545,-8.72685 L 5.86648,-8.74994 L 5.86762,-8.77291 L 5.86887,-8.79574 L 5.87022,-8.81844 L 5.87169,-8.841
 L 5.87326,-8.86344 L 5.87494,-8.88574 L 5.87673,-8.90792 L 5.87863,-8.92996 L 5.88064,-8.95187 L 5.88275,-8.97365
 L 5.88497,-8.9953 L 5.8873,-9.01681 L 5.88974,-9.0382 L 5.89229,-9.05945 L 5.89495,-9.08057 L 5.89772,-9.10156
 L 5.90059,-9.12242 L 5.90357,-9.14315 L 5.90666,-9.16375 L 5.90986,-9.18421 L 5.91317,-9.20455 L 5.91659,-9.22475
 L 5.92011,-9.24482 L 5.92374,-9.26476 L 5.92749,-9.28457 L 5.93134,-9.30424 L 5.93529,-9.32379 L 5.93936,-9.3432
 L 5.94354,-9.36248 L 5.94782,-9.38163 L 5.95221,-9.40065 L 5.95671,-9.41954 L 5.96132,-9.4383 L 5.96604,-9.45692
 L 5.97087,-9.47542 L 5.9758,-9.49378 L 5.98084,-9.51201 L 5.98599,-9.53011 L 5.99125,-9.54808 L 5.99662,-9.56592
 L 6.0021,-9.58362 L 6.00768,-9.6012 L 6.01338,-9.61864 L 6.01918,-9.63595 L 6.02509,-9.65313 L 6.03111,-9.67018
 L 6.03724,-9.68709 L 6.04347,-9.70388 L 6.04982,-9.72053 L 6.05627,-9.73706 L 6.06283,-9.75345 L 6.0695,-9.76971
 L 6.07628,-9.78584 L 6.08316,-9.80183 L 6.09016,-9.8177 L 6.09727,-9.83338 L 6.10449,-9.84881 L 6.11183,-9.86401
 L 6.11929,-9.87896 L 6.12686,-9.89366 L 6.13454,-9.90812 L 6.14234,-9.92234 L 6.15026,-9.93632 L 6.15829,-9.95006
 L 6.16643,-9.96355 L 6.17469,-9.97679 L 6.18307,-9.9898 L 6.19156,-10.0026 L 6.20017,-10.0151 L 6.20889,-10.0274
 L 6.21772,-10.0394 L 6.22667,-10.0512 L 6.23574,-10.0627 L 6.24492,-10.074 L 6.25421,-10.0851 L 6.26362,-10.0959
 L 6.27315,-10.1065 L 6.28279,-10.1168 L 6.29254,-10.1269 L 6.30241,-10.1367 L 6.3124,-10.1463 L 6.3225,-10.1557
 L 6.33272,-10.1648 L 6.34305,-10.1737 L 6.35349,-10.1823 L 6.36405,-10.1907 L 6.37473,-10.1988 L 6.38552,-10.2067
 L 6.39643,-10.2144 L 6.40745,-10.2218 L 6.41858,-10.229 L 6.42983,-10.2359 L 6.4412,-10.2426 L 6.45268,-10.249
 L 6.46428,-10.2552 L 6.47599,-10.2612 L 6.48781,-10.2669 L 6.49975,-10.2724 L 6.51181,-10.2776 L 6.52398,-10.2826
 L 6.53627,-10.2873 L 6.54867,-10.2918 L 6.56118,-10.2961 L 6.57382,-10.3001 L 6.58656,-10.3039 L 6.59942,-10.3074
 L 6.6124,-10.3107 L 6.62549,-10.3137 L 6.6387,-10.3165 L 6.65202,-10.319 L 6.66546,-10.3214 L 6.67901,-10.3234
 L 6.69267,-10.3252 L 6.70646,-10.3268 L 6.72035,-10.3282 L 6.73436,-10.3293 L 6.74849,-10.3301 L 6.76273,-10.3307
 L 6.77709,-10.3311 L 6.79156,-10.3312 L 6.80561,-10.3311 L 6.81955,-10.3307 L 6.83339,-10.3301 L 6.84712,-10.3293
 L 6.86075,-10.3282 L 6.87428,-10.3268 L 6.88769,-10.3252 L 6.90101,-10.3234 L 6.91421,-10.3214 L 6.92732,-10.319
 L 6.94031,-10.3165 L 6.95321,-10.3137 L 6.96599,-10.3107 L 6.97867,-10.3074 L 6.99125,-10.3039 L 7.00372,-10.3001
 L 7.01609,-10.2961 L 7.02835,-10.2918 L 7.0405,-10.2873 L 7.05255,-10.2826 L 7.0645,-10.2776 L 7.07634,-10.2724
 L 7.08807,-10.2669 L 7.0997,-10.2612 L 7.11123,-10.2552 L 7.12265,-10.249 L 7.13396,-10.2426 L 7.14517,-10.2359
 L 7.15627,-10.229 L 7.16727,-10.2218 L 7.17817,-10.2144 L 7.18896,-10.2067 L 7.19964,-10.1988 L 7.21022,-10.1907
 L 7.22069,-10.1823 L 7.23106,-10.1737 L 7.24132,-10.1648 L 7.25148,-10.1557 L 7.26153,-10.1463 L 7.27147,-10.1367
 L 7.28132,-10.1269 L 7.29105,-10.1168 L 7.30068,-10.1065 L 7.31021,-10.0959 L 7.31963,-10.0851 L 7.32895,-10.074
 L 7.33816,-10.0627 L 7.34726,-10.0512 L 7.35626,-10.0394 L 7.36516,-10.0274 L 7.37395,-10.0151 L 7.38263,-10.0026
 L 7.39121,-9.9898 L 7.39969,-9.97679 L 7.40805,-9.96355 L 7.41632,-9.95006 L 7.42448,-9.93632 L 7.43253,-9.92234
 L 7.44048,-9.90812 L 7.44832,-9.89366 L 7.45606,-9.87896 L 7.46369,-9.86401 L 7.47122,-9.84881 L 7.47864,-9.83338
 L 7.48596,-9.8177 L 7.49317,-9.80183 L 7.50027,-9.78584 L 7.50725,-9.76971 L 7.51412,-9.75345 L 7.52089,-9.73706
 L 7.52754,-9.72053 L 7.53407,-9.70388 L 7.5405,-9.68709 L 7.54682,-9.67018 L 7.55302,-9.65313 L 7.55911,-9.63595
 L 7.56509,-9.61864 L 7.57096,-9.6012 L 7.57671,-9.58362 L 7.58236,-9.56592 L 7.58789,-9.54808 L 7.59331,-9.53011
 L 7.59862,-9.51201 L 7.60381,-9.49378 L 7.6089,-9.47542 L 7.61387,-9.45692 L 7.61873,-9.4383 L 7.62348,-9.41954
 L 7.62812,-9.40065 L 7.63265,-9.38163 L 7.63706,-9.36248 L 7.64137,-9.3432 L 7.64556,-9.32379 L 7.64964,-9.30424
 L 7.6536,-9.28457 L 7.65746,-9.26476 L 7.6612,-9.24482 L 7.66484,-9.22475 L 7.66836,-9.20455 L 7.67177,-9.18421
 L 7.67506,-9.16375 L 7.67825,-9.14315 L 7.68132,-9.12242 L 7.68428,-9.10156 L 7.68713,-9.08057 L 7.68987,-9.05945
 L 7.6925,-9.0382 L 7.69501,-9.01681 L 7.69742,-8.9953 L 7.69971,-8.97365 L 7.70189,-8.95187 L 7.70395,-8.92996
 L 7.70591,-8.90792 L 7.70775,-8.88574 L 7.70949,-8.86344 L 7.71111,-8.841 L 7.71262,-8.81844 L 7.71401,-8.79574
 L 7.7153,-8.77291 L 7.71647,-8.74994 L 7.71753,-8.72685 L 7.71848,-8.70363 L 7.71932,-8.68027 L 7.72005,-8.65678
 L 7.72066,-8.63317 L 7.72117,-8.60941 L 7.72156,-8.58553 L 7.72184,-8.56152 L 7.722,-8.53738 L 7.72206,-8.5131
 L 7.722,-8.48967 L 7.72184,-8.46635 L 7.72156,-8.44315 L 7.72117,-8.42006 L 7.72066,-8.39709 L 7.72005,-8.37423
 L 7.71932,-8.35149 L 7.71848,-8.32887 L 7.71753,-8.30635 L 7.71647,-8.28396 L 7.7153,-8.26167 L 7.71401,-8.23951
 L 7.71262,-8.21746 L 7.71111,-8.19552 L 7.70949,-8.1737 L 7.70775,-8.15199 L 7.70591,-8.1304 L 7.70395,-8.10892
 L 7.70189,-8.08756 L 7.69971,-8.06631 L 7.69742,-8.04518 L 7.69501,-8.02416 L 7.6925,-8.00326 L 7.68987,-7.98247
 L 7.68713,-7.9618 L 7.68428,-7.94124 L 7.68132,-7.9208 L 7.67825,-7.90047 L 7.67506,-7.88026 L 7.67177,-7.86017
 L 7.66836,-7.84018 L 7.66484,-7.82032 L 7.6612,-7.80056 L 7.65746,-7.78093 L 7.6536,-7.7614 L 7.64964,-7.742
 L 7.64556,-7.7227 L 7.64137,-7.70353 L 7.63706,-7.68446 L 7.63265,-7.66552 L 7.62812,-7.64668 L 7.62348,-7.62797
 L 7.61873,-7.60936 L 7.61387,-7.59088 L 7.6089,-7.5725 L 7.60381,-7.55425 L 7.59862,-7.5361 L 7.59331,-7.51808
 L 7.58789,-7.50016 L 7.58236,-7.48237 L 7.57671,-7.46468 L 7.57096,-7.44712 L 7.56509,-7.42966 L 7.55911,-7.41233
 L 7.55302,-7.3951 L 7.54682,-7.378 L 7.5405,-7.361 L 7.53407,-7.34412 L 7.52754,-7.32736 L 7.52089,-7.31071
 L 7.51412,-7.29418 L 7.50725,-7.27776 L 7.50027,-7.26146 L 7.49317,-7.24527 L 7.48596,-7.2292 L 7.47864,-7.21331
 L 7.47122,-7.19767 L 7.46369,-7.18227 L 7.45606,-7.16712 L 7.44832,-7.15222 L 7.44048,-7.13756 L 7.43253,-7.12315
 L 7.42448,-7.10898 L 7.41632,-7.09507 L 7.40805,-7.08139 L 7.39969,-7.06797 L 7.39121,-7.05479 L 7.38263,-7.04186
 L 7.37395,-7.02917 L 7.36516,-7.01673 L 7.35626,-7.00454 L 7.34726,-6.99259 L 7.33816,-6.98089 L 7.32895,-6.96943
 L 7.31963,-6.95822 L 7.31021,-6.94726 L 7.30068,-6.93654 L 7.29105,-6.92607 L 7.28132,-6.91585 L 7.27147,-6.90587
 L 7.26153,-6.89614 L 7.25148,-6.88666 L 7.24132,-6.87742 L 7.23106,-6.86843 L 7.22069,-6.85969 L 7.21022,-6.85119
 L 7.19964,-6.84293 L 7.18896,-6.83493 L 7.17817,-6.82717 L 7.16727,-6.81965 L 7.15627,-6.81239 L 7.14517,-6.80537
 L 7.13396,-6.79859 L 7.12265,-6.79206 L 7.11123,-6.78578 L 7.0997,-6.77975 L 7.08807,-6.77396 L 7.07634,-6.76842
 L 7.0645,-6.76312 L 7.05255,-6.75807 L 7.0405,-6.75326 L 7.02835,-6.74871 L 7.01609,-6.7444 L 7.00372,-6.74033
 L 6.99125,-6.73651 L 6.97867,-6.73294 L 6.96599,-6.72962 L 6.95321,-6.72654 L 6.94031,-6.7237 L 6.92732,-6.72112
 L 6.91421,-6.71878 L 6.90101,-6.71668 L 6.88769,-6.71484 L 6.87428,-6.71323 L 6.86075,-6.71188 L 6.84712,-6.71077
 L 6.83339,-6.70991 L 6.81955,-6.70929 L 6.80561,-6.70892 L 6.79156,-6.7088 z
M 4.833,-3.3488 L 6.0552,-3.3488 L 6.0552,-4.1808 L 4.833,-4.1808 L 4.833,-10.8304 L 3.5553,-10.8304
 L 0.4305,-4.251 L 0.4305,-3.3488 L 3.9581,-3.3488 L 3.9581,-1 L 0,-1 L 0,-0
 L 20,-0 L 20,-1 L 11.9104,-1 L 11.9121,-1.00088 L 11.9221,-1.00616 L 11.9321,-1.01153
 L 11.9421,-1.01699 L 11.952,-1.02254 L 11.9619,-1.02818 L 11.9718,-1.0339 L 11.9816,-1.03971 L 11.9913,-1.04558
 L 12.001,-1.05153 L 12.0107,-1.05754 L 12.0203,-1.06362 L 12.0299,-1.06978 L 12.0394,-1.076 L 12.0488,-1.08229
 L 12.0582,-1.08865 L 12.0676,-1.09507 L 12.0769,-1.10157 L 12.0862,-1.10814 L 12.0954,-1.11477 L 12.1046,-1.12148
 L 12.1137,-1.12825 L 12.1227,-1.13509 L 12.1317,-1.142 L 12.1407,-1.14898 L 12.1496,-1.15603 L 12.1585,-1.16315
 L 12.1673,-1.17034 L 12.1761,-1.17759 L 12.1848,-1.18492 L 12.1935,-1.19231 L 12.2021,-1.19978 L 12.2107,-1.20731
 L 12.2192,-1.21491 L 12.2277,-1.22258 L 12.2361,-1.23032 L 12.2445,-1.23813 L 12.2528,-1.246 L 12.2611,-1.25395
 L 12.2693,-1.26197 L 12.2775,-1.27005 L 12.2856,-1.2782 L 12.2937,-1.28643 L 12.3017,-1.29472 L 12.3097,-1.30308
 L 12.3176,-1.31151 L 12.3255,-1.32001 L 12.3333,-1.32857 L 12.3411,-1.33721 L 12.3488,-1.34592 L 12.3565,-1.35469
 L 12.3642,-1.36353 L 12.3717,-1.37245 L 12.3793,-1.38143 L 12.3868,-1.39048 L 12.3942,-1.3996 L 12.4016,-1.40879
 L 12.4089,-1.41805 L 12.4162,-1.42737 L 12.4234,-1.43677 L 12.4306,-1.44623 L 12.4378,-1.45577 L 12.4449,-1.46537
 L 12.4519,-1.47504 L 12.4589,-1.48478 L 12.4658,-1.49459 L 12.4727,-1.50447 L 12.4796,-1.51442 L 12.4864,-1.52444
 L 12.4931,-1.53452 L 12.4998,-1.54468 L 12.5065,-1.5549 L 12.5131,-1.56519 L 12.5196,-1.57555 L 12.5261,-1.58597
 L 12.5326,-1.59645 L 12.539,-1.60699 L 12.5454,-1.61759 L 12.5517,-1.62826 L 12.558,-1.63899 L 12.5642,-1.64978
 L 12.5704,-1.66064 L 12.5765,-1.67155 L 12.5826,-1.68253 L 12.5887,-1.69358 L 12.5947,-1.70468 L 12.6006,-1.71585
 L 12.6066,-1.72708 L 12.6124,-1.73837 L 12.6182,-1.74972 L 12.624,-1.76114 L 12.6297,-1.77262 L 12.6354,-1.78416
 L 12.6411,-1.79576 L 12.6466,-1.80743 L 12.6522,-1.81916 L 12.6577,-1.83095 L 12.6631,-1.8428 L 12.6685,-1.85472
 L 12.6739,-1.8667 L 12.6792,-1.87874 L 12.6845,-1.89084 L 12.6897,-1.90301 L 12.6949,-1.91524 L 12.7,-1.92753
 L 12.7051,-1.93988 L 12.7101,-1.9523 L 12.7151,-1.96478 L 12.72,-1.97732 L 12.7249,-1.98992 L 12.7298,-2.00258
 L 12.7346,-2.01531 L 12.7394,-2.0281 L 12.7441,-2.04095 L 12.7487,-2.05387 L 12.7534,-2.06685 L 12.7579,-2.07989
 L 12.7625,-2.09299 L 12.7669,-2.10615 L 12.7714,-2.11938 L 12.7758,-2.13267 L 12.7801,-2.14602 L 12.7844,-2.15944
 L 12.7887,-2.17292 L 12.7929,-2.18646 L 12.797,-2.20006 L 12.8011,-2.21372 L 12.8052,-2.22745 L 12.8092,-2.24124
 L 12.8132,-2.25509 L 12.8171,-2.269 L 12.821,-2.28298 L 12.8249,-2.29702 L 12.8287,-2.31112 L 12.8324,-2.32528
 L 12.8361,-2.33951 L 12.8398,-2.3538 L 12.8434,-2.36814 L 12.8469,-2.38251 L 12.8504,-2.39692 L 12.8538,-2.41137
 L 12.8572,-2.42585 L 12.8606,-2.44037 L 12.8638,-2.45493 L 12.867,-2.46952 L 12.8702,-2.48415 L 12.8733,-2.49881
 L 12.8764,-2.51351 L 12.8793,-2.52825 L 12.8823,-2.54302 L 12.8852,-2.55783 L 12.888,-2.57267 L 12.8907,-2.58756
 L 12.8935,-2.60247 L 12.8961,-2.61743 L 12.8987,-2.63242 L 12.9013,-2.64744 L 12.9037,-2.6625 L 12.9062,-2.6776
 L 12.9086,-2.69274 L 12.9109,-2.70791 L 12.9131,-2.72312 L 12.9153,-2.73836 L 12.9175,-2.75364 L 12.9196,-2.76896
 L 12.9216,-2.78431 L 12.9236,-2.7997 L 12.9255,-2.81512 L 12.9274,-2.83058 L 12.9292,-2.84608 L 12.931,-2.86161
 L 12.9327,-2.87718 L 12.9344,-2.89279 L 12.9359,-2.90843 L 12.9375,-2.92411 L 12.939,-2.93982 L 12.9404,-2.95557
 L 12.9418,-2.97136 L 12.9431,-2.98718 L 12.9443,-3.00304 L 12.9455,-3.01893 L 12.9467,-3.03487 L 12.9478,-3.05083
 L 12.9488,-3.06684 L 12.9498,-3.08288 L 12.9507,-3.09895 L 12.9516,-3.11507 L 12.9524,-3.13122 L 12.9531,-3.1474
 L 12.9538,-3.16362 L 12.9545,-3.17988 L 12.9551,-3.19617 L 12.9556,-3.2125 L 12.9561,-3.22887 L 12.9565,-3.24527
 L 12.9569,-3.26171 L 12.9572,-3.27818 L 12.9574,-3.29469 L 12.9576,-3.31124 L 12.9577,-3.32782 L 12.9578,-3.34444
 L 12.9579,-3.3611 L 12.9578,-3.37775 L 12.9577,-3.39437 L 12.9576,-3.41095 L 12.9574,-3.42749 L 12.9572,-3.444
 L 12.9569,-3.46047 L 12.9565,-3.47691 L 12.9561,-3.49331 L 12.9556,-3.50967 L 12.9551,-3.526 L 12.9545,-3.54229
 L 12.9538,-3.55855 L 12.9531,-3.57476 L 12.9524,-3.59095 L 12.9516,-3.60709 L 12.9507,-3.6232 L 12.9498,-3.63928
 L 12.9488,-3.65532 L 12.9478,-3.67132 L 12.9467,-3.68728 L 12.9455,-3.70321 L 12.9443,-3.7191 L 12.9431,-3.73496
 L 12.9418,-3.75078 L 12.9404,-3.76657 L 12.939,-3.78232 L 12.9375,-3.79803 L 12.9359,-3.8137 L 12.9344,-3.82934
 L 12.9327,-3.84495 L 12.931,-3.86052 L 12.9292,-3.87605 L 12.9274,-3.89154 L 12.9255,-3.907 L 12.9236,-3.92243
 L 12.9216,-3.93781 L 12.9196,-3.95316 L 12.9175,-3.96848 L 12.9153,-3.98376 L 12.9131,-3.999 L 12.9109,-4.0142
 L 12.9086,-4.02937 L 12.9062,-4.04451 L 12.9037,-4.05961 L 12.9013,-4.07467 L 12.8987,-4.08969 L 12.8961,-4.10468
 L 12.8935,-4.11963 L 12.8907,-4.13455 L 12.888,-4.14943 L 12.8852,-4.16428 L 12.8823,-4.17908 L 12.8793,-4.19386
 L 12.8764,-4.20859 L 12.8733,-4.22329 L 12.8702,-4.23796 L 12.867,-4.25258 L 12.8638,-4.26717 L 12.8606,-4.28173
 L 12.8572,-4.29625 L 12.8538,-4.31073 L 12.8504,-4.32518 L 12.8469,-4.33959 L 12.8434,-4.35396 L 12.8398,-4.3683
 L 12.8361,-4.38259 L 12.8324,-4.39682 L 12.8287,-4.41099 L 12.8249,-4.42511 L 12.821,-4.43916 L 12.8171,-4.45315
 L 12.8132,-4.46709 L 12.8092,-4.48097 L 12.8052,-4.49478 L 12.8011,-4.50854 L 12.797,-4.52224 L 12.7929,-4.53588
 L 12.7887,-4.54946 L 12.7844,-4.56298 L 12.7801,-4.57644 L 12.7758,-4.58985 L 12.7714,-4.60319 L 12.7669,-4.61647
 L 12.7625,-4.6297 L 12.7579,-4.64287 L 12.7534,-4.65597 L 12.7487,-4.66902 L 12.7441,-4.68201 L 12.7394,-4.69494
 L 12.7346,-4.70781 L 12.7298,-4.72062 L 12.7249,-4.73337 L 12.72,-4.74606 L 12.7151,-4.7587 L 12.7101,-4.77127
 L 12.7051,-4.78379 L 12.7,-4.79624 L 12.6949,-4.80864 L 12.6897,-4.82098 L 12.6845,-4.83326 L 12.6792,-4.84548
 L 12.6739,-4.85764 L 12.6685,-4.86974 L 12.6631,-4.88178 L 12.6577,-4.89376 L 12.6522,-4.90569 L 12.6466,-4.91755
 L 12.6411,-4.92936 L 12.6354,-4.9411 L 12.6297,-4.95279 L 12.624,-4.96442 L 12.6182,-4.97598 L 12.6124,-4.98749
 L 12.6066,-4.99894 L 12.6006,-5.01034 L 12.5947,-5.02167 L 12.5887,-5.03294 L 12.5826,-5.04415 L 12.5765,-5.05531
 L 12.5704,-5.0664 L 12.5642,-5.07744 L 12.558,-5.08842 L 12.5517,-5.09933 L 12.5454,-5.11019 L 12.539,-5.12099
 L 12.5326,-5.13173 L 12.5261,-5.14241 L 12.5196,-5.15303 L 12.5131,-5.1636 L 12.5065,-5.1741 L 12.4998,-5.18454
 L 12.4931,-5.1949 L 12.4864,-5.2052 L 12.4796,-5.21542 L 12.4727,-5.22556 L 12.4658,-5.23564 L 12.4589,-5.24564
 L 12.4519,-5.25557 L 12.4449,-5.26543 L 12.4378,-5.27522 L 12.4306,-5.28493 L 12.4234,-5.29457 L 12.4162,-5.30414
 L 12.4089,-5.31364 L 12.4016,-5.32307 L 12.3942,-5.33242 L 12.3868,-5.3417 L 12.3793,-5.3509 L 12.3717,-5.36004
 L 12.3642,-5.3691 L 12.3565,-5.37809 L 12.3488,-5.38701 L 12.3411,-5.39585 L 12.3333,-5.40463 L 12.3255,-5.41333
 L 12.3176,-5.42196 L 12.3097,-5.43051 L 12.3017,-5.439 L 12.2937,-5.44741 L 12.2856,-5.45574 L 12.2775,-5.46401
 L 12.2693,-5.47221 L 12.2611,-5.48033 L 12.2528,-5.48838 L 12.2445,-5.49635 L 12.2361,-5.50426 L 12.2277,-5.51209
 L 12.2192,-5.51985 L 12.2107,-5.52754 L 12.2021,-5.53515 L 12.1935,-5.54269 L 12.1848,-5.55016 L 12.1761,-5.55756
 L 12.1673,-5.56489 L 12.1585,-5.57214 L 12.1496,-5.57932 L 12.1407,-5.58643 L 12.1317,-5.59346 L 12.1227,-5.60043
 L 12.1137,-5.60732 L 12.1046,-5.61414 L 12.0954,-5.62088 L 12.0862,-5.62756 L 12.0769,-5.63416 L 12.0676,-5.64069
 L 12.0582,-5.64715 L 12.0488,-5.65353 L 12.0394,-5.65984 L 12.0299,-5.66608 L 12.0203,-5.67225 L 12.0107,-5.67834
 L 12.001,-5.68437 L 11.9913,-5.69032 L 11.9816,-5.69619 L 11.9718,-5.702 L 11.9619,-5.70773 L 11.952,-5.71337
 L 11.9421,-5.71892 L 11.9321,-5.72438 L 11.9221,-5.72975 L 11.9121,-5.73504 L 11.902,-5.74023 L 11.8919,-5.74534
 L 11.8817,-5.75035 L 11.8715,-5.75528 L 11.8613,-5.76012 L 11.851,-5.76487 L 11.8407,-5.76954 L 11.8303,-5.77411
 L 11.8199,-5.77859 L 11.8095,-5.78299 L 11.799,-5.7873 L 11.7885,-5.79152 L 11.7779,-5.79564 L 11.7673,-5.79969
 L 11.7567,-5.80364 L 11.746,-5.8075 L 11.7353,-5.81127 L 11.7245,-5.81496 L 11.7137,-5.81856 L 11.7029,-5.82206
 L 11.692,-5.82548 L 11.6811,-5.82881 L 11.6702,-5.83205 L 11.6592,-5.83521 L 11.6481,-5.83827 L 11.6371,-5.84125
 L 11.6259,-5.84413 L 11.6148,-5.84693 L 11.6036,-5.84964 L 11.5924,-5.85226 L 11.5811,-5.85479 L 11.5698,-5.85723
 L 11.5585,-5.85958 L 11.5471,-5.86185 L 11.5356,-5.86402 L 11.5242,-5.86611 L 11.5127,-5.86811 L 11.5011,-5.87002
 L 11.4895,-5.87184 L 11.4779,-5.87357 L 11.4663,-5.87521 L 11.4546,-5.87677 L 11.4428,-5.87823 L 11.431,-5.87961
 L 11.4192,-5.8809 L 11.4073,-5.8821 L 11.3954,-5.88321 L 11.3835,-5.88423 L 11.3715,-5.88516 L 11.3595,-5.886
 L 11.3474,-5.88676 L 11.3353,-5.88742 L 11.3232,-5.888 L 11.311,-5.88849 L 11.2988,-5.88889 L 11.2866,-5.8892
 L 11.2743,-5.88942 L 11.2619,-5.88956 L 11.2496,-5.8896 L 11.2372,-5.88956 L 11.2249,-5.88942 L 11.2126,-5.8892
 L 11.2003,-5.88889 L 11.1881,-5.88849 L 11.1759,-5.888 L 11.1638,-5.88742 L 11.1517,-5.88676 L 11.1396,-5.886
 L 11.1276,-5.88516 L 11.1156,-5.88423 L 11.1037,-5.88321 L 11.0918,-5.8821 L 11.0799,-5.8809 L 11.0681,-5.87961
 L 11.0563,-5.87823 L 11.0446,-5.87677 L 11.0329,-5.87521 L 11.0212,-5.87357 L 11.0096,-5.87184 L 10.998,-5.87002
 L 10.9865,-5.86811 L 10.975,-5.86611 L 10.9635,-5.86402 L 10.9521,-5.86185 L 10.9407,-5.85958 L 10.9294,-5.85723
 L 10.9181,-5.85479 L 10.9068,-5.85226 L 10.8956,-5.84964 L 10.8844,-5.84693 L 10.8732,-5.84413 L 10.8621,-5.84125
 L 10.851,-5.83827 L 10.84,-5.83521 L 10.829,-5.83205 L 10.8181,-5.82881 L 10.8071,-5.82548 L 10.7963,-5.82206
 L 10.7854,-5.81856 L 10.7746,-5.81496 L 10.7639,-5.81127 L 10.7532,-5.8075 L 10.7425,-5.80364 L 10.7319,-5.79969
 L 10.7213,-5.79564 L 10.7107,-5.79152 L 10.7002,-5.7873 L 10.6897,-5.78299 L 10.6793,-5.77859 L 10.6689,-5.77411
 L 10.6585,-5.76954 L 10.6482,-5.76487 L 10.6379,-5.76012 L 10.6276,-5.75528 L 10.6174,-5.75035 L 10.6073,-5.74534
 L 10.5971,-5.74023 L 10.5871,-5.73504 L 10.577,-5.72975 L 10.567,-5.72438 L 10.557,-5.71892 L 10.5471,-5.71337
 L 10.5372,-5.70773 L 10.5274,-5.702 L 10.5176,-5.69619 L 10.5078,-5.69032 L 10.4981,-5.68437 L 10.4884,-5.67834
 L 10.4788,-5.67225 L 10.4692,-5.66608 L 10.4597,-5.65984 L 10.4502,-5.65353 L 10.4408,-5.64715 L 10.4314,-5.64069
 L 10.422,-5.63416 L 10.4127,-5.62756 L 10.4035,-5.62088 L 10.3943,-5.61414 L 10.3851,-5.60732 L 10.376,-5.60043
 L 10.3669,-5.59346 L 10.3579,-5.58643 L 10.3489,-5.57932 L 10.34,-5.57214 L 10.3311,-5.56489 L 10.3223,-5.55756
 L 10.3135,-5.55016 L 10.3047,-5.54269 L 10.296,-5.53515 L 10.2874,-5.52754 L 10.2788,-5.51985 L 10.2702,-5.51209
 L 10.2617,-5.50426 L 10.2532,-5.49635 L 10.2448,-5.48838 L 10.2364,-5.48033 L 10.2281,-5.47221 L 10.2198,-5.46401
 L 10.2116,-5.45574 L 10.2034,-5.44741 L 10.1952,-5.439 L 10.1871,-5.43051 L 10.1791,-5.42196 L 10.1711,-5.41333
 L 10.1631,-5.40463 L 10.1552,-5.39585 L 10.1473,-5.38701 L 10.1395,-5.37809 L 10.1317,-5.3691 L 10.124,-5.36004
 L 10.1163,-5.3509 L 10.1086,-5.3417 L 10.101,-5.33242 L 10.0935,-5.32307 L 10.086,-5.31364 L 10.0785,-5.30414
 L 10.0711,-5.29457 L 10.0637,-5.28493 L 10.0564,-5.27522 L 10.0492,-5.26543 L 10.0419,-5.25557 L 10.0347,-5.24564
 L 10.0276,-5.23564 L 10.0205,-5.22556 L 10.0135,-5.21542 L 10.0065,-5.2052 L 9.99953,-5.1949 L 9.99262,-5.18454
 L 9.98576,-5.1741 L 9.97895,-5.1636 L 9.97218,-5.15303 L 9.96547,-5.14241 L 9.95881,-5.13173 L 9.95219,-5.12099
 L 9.94563,-5.11019 L 9.93911,-5.09933 L 9.93264,-5.08842 L 9.92622,-5.07744 L 9.91985,-5.0664 L 9.91354,-5.05531
 L 9.90726,-5.04415 L 9.90104,-5.03294 L 9.89487,-5.02167 L 9.88875,-5.01034 L 9.88268,-4.99894 L 9.87665,-4.98749
 L 9.87068,-4.97598 L 9.86475,-4.96442 L 9.85888,-4.95279 L 9.85305,-4.9411 L 9.84727,-4.92936 L 9.84154,-4.91755
 L 9.83587,-4.90569 L 9.83024,-4.89376 L 9.82466,-4.88178 L 9.81912,-4.86974 L 9.81364,-4.85764 L 9.80821,-4.84548
 L 9.80283,-4.83326 L 9.79749,-4.82098 L 9.79221,-4.80864 L 9.78697,-4.79624 L 9.78179,-4.78379 L 9.77665,-4.77127
 L 9.77156,-4.7587 L 9.76652,-4.74606 L 9.76154,-4.73337 L 9.7566,-4.72062 L 9.75171,-4.70781 L 9.74686,-4.69494
 L 9.74207,-4.68201 L 9.73733,-4.66902 L 9.73264,-4.65597 L 9.72799,-4.64287 L 9.7234,-4.6297 L 9.71885,-4.61647
 L 9.71436,-4.60319 L 9.70991,-4.58985 L 9.70551,-4.57644 L 9.70116,-4.56298 L 9.69686,-4.54946 L 9.69261,-4.53588
 L 9.68841,-4.52224 L 9.68426,-4.50854 L 9.68016,-4.49478 L 9.67611,-4.48097 L 9.6721,-4.46709 L 9.66815,-4.45315
 L 9.66425,-4.43916 L 9.66039,-4.42511 L 9.65658,-4.41099 L 9.65283,-4.39682 L 9.64912,-4.38259 L 9.64546,-4.3683
 L 9.64186,-4.35396 L 9.63831,-4.33959 L 9.63482,-4.32518 L 9.63138,-4.31073 L 9.628,-4.29625 L 9.62468,-4.28173
 L 9.62141,-4.26717 L 9.6182,-4.25258 L 9.61505,-4.23796 L 9.61195,-4.22329 L 9.6089,-4.20859 L 9.60591,-4.19386
 L 9.60298,-4.17908 L 9.6001,-4.16428 L 9.59728,-4.14943 L 9.59452,-4.13455 L 9.59181,-4.11963 L 9.58916,-4.10468
 L 9.58656,-4.08969 L 9.58402,-4.07467 L 9.58153,-4.05961 L 9.5791,-4.04451 L 9.57673,-4.02937 L 9.57441,-4.0142
 L 9.57215,-3.999 L 9.56994,-3.98376 L 9.56779,-3.96848 L 9.56569,-3.95316 L 9.56366,-3.93781 L 9.56167,-3.92243
 L 9.55975,-3.907 L 9.55787,-3.89154 L 9.55606,-3.87605 L 9.5543,-3.86052 L 9.5526,-3.84495 L 9.55095,-3.82934
 L 9.54936,-3.8137 L 9.54782,-3.79803 L 9.54634,-3.78232 L 9.54492,-3.76657 L 9.54355,-3.75078 L 9.54223,-3.73496
 L 9.54098,-3.7191 L 9.53978,-3.70321 L 9.53863,-3.68728 L 9.53754,-3.67132 L 9.53651,-3.65532 L 9.53553,-3.63928
 L 9.53461,-3.6232 L 9.53374,-3.60709 L 9.53293,-3.59095 L 9.53218,-3.57476 L 9.53148,-3.55855 L 9.53084,-3.54229
 L 9.53025,-3.526 L 9.52972,-3.50967 L 9.52925,-3.49331 L 9.52883,-3.47691 L 9.52847,-3.46047 L 9.52816,-3.444
 L 9.52791,-3.42749 L 9.52771,-3.41095 L 9.52757,-3.39437 L 9.52749,-3.37775 L 9.52746,-3.3611 L 9.52749,-3.34444
 L 9.52757,-3.32782 L 9.52771,-3.31124 L 9.52791,-3.29469 L 9.52816,-3.27818 L 9.52847,-3.26171 L 9.52883,-3.24527
 L 9.52925,-3.22887 L 9.52972,-3.2125 L 9.53025,-3.19617 L 9.53084,-3.17988 L 9.53148,-3.16362 L 9.53218,-3.1474
 L 9.53293,-3.13122 L 9.53374,-3.11507 L 9.53461,-3.09895 L 9.53553,-3.08288 L 9.53651,-3.06684 L 9.53754,-3.05083
 L 9.53863,-3.03487 L 9.53978,-3.01893 L 9.54098,-3.00304 L 9.54223,-2.98718 L 9.54355,-2.97136 L 9.54492,-2.95557
 L 9.54634,-2.93982 L 9.54782,-2.92411 L 9.54936,-2.90843 L 9.55095,-2.89279 L 9.5526,-2.87718 L 9.5543,-2.86161
 L 9.55606,-2.84608 L 9.55787,-2.83058 L 9.55975,-2.81512 L 9.56167,-2.7997 L 9.56366,-2.78431 L 9.56569,-2.76896
 L 9.56779,-2.75364 L 9.56994,-2.73836 L 9.57215,-2.72312 L 9.57441,-2.70791 L 9.57673,-2.69274 L 9.5791,-2.6776
 L 9.58153,-2.6625 L 9.58402,-2.64744 L 9.58656,-2.63242 L 9.58916,-2.61743 L 9.59181,-2.60247 L 9.59452,-2.58756
 L 9.59728,-2.57267 L 9.6001,-2.55783 L 9.60298,-2.54302 L 9.60591,-2.52825 L 9.6089,-2.51351 L 9.61195,-2.49881
 L 9.61505,-2.48415 L 9.6182,-2.46952 L 9.62141,-2.45493 L 9.62468,-2.44037 L 9.628,-2.42585 L 9.63138,-2.41137
 L 9.63482,-2.39692 L 9.63831,-2.38251 L 9.64186,-2.36814 L 9.64546,-2.3538 L 9.64912,-2.33951 L 9.65283,-2.32528
 L 9.65658,-2.31112 L 9.66039,-2.29702 L 9.66425,-2.28298 L 9.66815,-2.269 L 9.6721,-2.25509 L 9.67611,-2.24124
 L 9.68016,-2.22745 L 9.68426,-2.21372 L 9.68841,-2.20006 L 9.69261,-2.18646 L 9.69686,-2.17292 L 9.70116,-2.15944
 L 9.70551,-2.14602 L 9.70991,-2.13267 L 9.71436,-2.11938 L 9.71885,-2.10615 L 9.7234,-2.09299 L 9.72799,-2.07989
 L 9.73264,-2.06685 L 9.73733,-2.05387 L 9.74207,-2.04095 L 9.74686,-2.0281 L 9.75171,-2.01531 L 9.7566,-2.00258
 L 9.76154,-1.98992 L 9.76652,-1.97732 L 9.77156,-1.96478 L 9.77665,-1.9523 L 9.78179,-1.93988 L 9.78697,-1.92753
 L 9.79221,-1.91524 L 9.79749,-1.90301 L 9.80283,-1.89084 L 9.80821,-1.87874 L 9.81364,-1.8667 L 9.81912,-1.85472
 L 9.82466,-1.8428 L 9.83024,-1.83095 L 9.83587,-1.81916 L 9.84154,-1.80743 L 9.84727,-1.79576 L 9.85305,-1.78416
 L 9.85888,-1.77262 L 9.86475,-1.76114 L 9.87068,-1.74972 L 9.87665,-1.73837 L 9.88268,-1.72708 L 9.88875,-1.71585
 L 9.89487,-1.70468 L 9.90104,-1.69358 L 9.90726,-1.68253 L 9.91354,-1.67155 L 9.91985,-1.66064 L 9.92622,-1.64978
 L 9.93264,-1.63899 L 9.93911,-1.62826 L 9.94563,-1.61759 L 9.95219,-1.60699 L 9.95881,-1.59645 L 9.96547,-1.58597
 L 9.97218,-1.57555 L 9.97895,-1.56519 L 9.98576,-1.5549 L 9.99262,-1.54468 L 9.99953,-1.53452 L 10.0065,-1.52444
 L 10.0135,-1.51442 L 10.0205,-1.50447 L 10.0276,-1.49459 L 10.0347,-1.48478 L 10.0419,-1.47504 L 10.0492,-1.46537
 L 10.0564,-1.45577 L 10.0637,-1.44623 L 10.0711,-1.43677 L 10.0785,-1.42737 L 10.086,-1.41805 L 10.0935,-1.40879
 L 10.101,-1.3996 L 10.1086,-1.39048 L 10.1163,-1.38143 L 10.124,-1.37245 L 10.1317,-1.36353 L 10.1395,-1.35469
 L 10.1473,-1.34592 L 10.1552,-1.33721 L 10.1631,-1.32857 L 10.1711,-1.32001 L 10.1791,-1.31151 L 10.1871,-1.30308
 L 10.1952,-1.29472 L 10.2034,-1.28643 L 10.2116,-1.2782 L 10.2198,-1.27005 L 10.2281,-1.26197 L 10.2364,-1.25395
 L 10.2448,-1.246 L 10.2532,-1.23813 L 10.2617,-1.23032 L 10.2702,-1.22258 L 10.2788,-1.21491 L 10.2874,-1.20731
 L 10.296,-1.19978 L 10.3047,-1.19231 L 10.3135,-1.18492 L 10.3223,-1.17759 L 10.3311,-1.17034 L 10.34,-1.16315
 L 10.3489,-1.15603 L 10.3579,-1.14898 L 10.3669,-1.142 L 10.376,-1.13509 L 10.3851,-1.12825 L 10.3943,-1.12148
 L 10.4035,-1.11477 L 10.4127,-1.10814 L 10.422,-1.10157 L 10.4314,-1.09507 L 10.4408,-1.08865 L 10.4502,-1.08229
 L 10.4597,-1.076 L 10.4692,-1.06978 L 10.4788,-1.06362 L 10.4884,-1.05754 L 10.4981,-1.05153 L 10.5078,-1.04558
 L 10.5176,-1.03971 L 10.5274,-1.0339 L 10.5372,-1.02818 L 10.5471,-1.02254 L 10.557,-1.01699 L 10.567,-1.01153
 L 10.577,-1.00616 L 10.5871,-1.00088 L 10.5888,-1 L 7.54827,-1 L 11.2774,-11.0288 L 10.6108,-11.2372
 L 6.79046,-1 L 4.833,-1 z
M 3.9442,-9.9001 L 3.972,-9.9001 L 3.972,-4.1808 L 1.3055,-4.1808 z
M 11.2351,-1.55692 L 11.2207,-1.55729 L 11.2065,-1.55791 L 11.1924,-1.55877 L 11.1784,-1.55988 L 11.1645,-1.56123
 L 11.1507,-1.56284 L 11.137,-1.56468 L 11.1235,-1.56678 L 11.11,-1.56912 L 11.0967,-1.5717 L 11.0835,-1.57454
 L 11.0704,-1.57762 L 11.0574,-1.58094 L 11.0446,-1.58451 L 11.0318,-1.58833 L 11.0192,-1.5924 L 11.0067,-1.59671
 L 10.9943,-1.60126 L 10.982,-1.60607 L 10.9698,-1.61112 L 10.9578,-1.61642 L 10.9458,-1.62196 L 10.934,-1.62775
 L 10.9223,-1.63378 L 10.9107,-1.64006 L 10.8992,-1.64659 L 10.8878,-1.65337 L 10.8766,-1.66039 L 10.8654,-1.66765
 L 10.8544,-1.67517 L 10.8435,-1.68293 L 10.8327,-1.69093 L 10.8221,-1.69919 L 10.8115,-1.70769 L 10.801,-1.71643
 L 10.7907,-1.72542 L 10.7805,-1.73466 L 10.7704,-1.74414 L 10.7604,-1.75387 L 10.7505,-1.76385 L 10.7408,-1.77407
 L 10.7311,-1.78454 L 10.7216,-1.79526 L 10.7122,-1.80622 L 10.7029,-1.81743 L 10.6937,-1.82889 L 10.6847,-1.84059
 L 10.6757,-1.85254 L 10.6669,-1.86473 L 10.6582,-1.87717 L 10.6496,-1.88986 L 10.6411,-1.90279 L 10.6327,-1.91597
 L 10.6244,-1.92939 L 10.6163,-1.94307 L 10.6083,-1.95698 L 10.6003,-1.97115 L 10.5925,-1.98556 L 10.5849,-2.00022
 L 10.5773,-2.01512 L 10.5698,-2.03027 L 10.5625,-2.04567 L 10.5553,-2.06131 L 10.5482,-2.0772 L 10.5412,-2.09327
 L 10.5343,-2.10946 L 10.5275,-2.12576 L 10.5208,-2.14218 L 10.5143,-2.15871 L 10.5078,-2.17536 L 10.5015,-2.19212
 L 10.4952,-2.209 L 10.4891,-2.226 L 10.4831,-2.2431 L 10.4772,-2.26033 L 10.4714,-2.27766 L 10.4657,-2.29512
 L 10.4601,-2.31268 L 10.4546,-2.33037 L 10.4493,-2.34816 L 10.444,-2.36608 L 10.4388,-2.3841 L 10.4338,-2.40225
 L 10.4289,-2.4205 L 10.424,-2.43888 L 10.4193,-2.45736 L 10.4147,-2.47597 L 10.4102,-2.49468 L 10.4058,-2.51352
 L 10.4015,-2.53246 L 10.3974,-2.55153 L 10.3933,-2.5707 L 10.3893,-2.59 L 10.3855,-2.6094 L 10.3817,-2.62893
 L 10.3781,-2.64856 L 10.3746,-2.66832 L 10.3712,-2.68818 L 10.3679,-2.70817 L 10.3647,-2.72826 L 10.3616,-2.74847
 L 10.3586,-2.7688 L 10.3557,-2.78924 L 10.353,-2.8098 L 10.3503,-2.83047 L 10.3477,-2.85126 L 10.3453,-2.87216
 L 10.343,-2.89318 L 10.3407,-2.91431 L 10.3386,-2.93556 L 10.3366,-2.95692 L 10.3347,-2.9784 L 10.3329,-2.99999
 L 10.3313,-3.0217 L 10.3297,-3.04352 L 10.3282,-3.06546 L 10.3269,-3.08751 L 10.3256,-3.10967 L 10.3245,-3.13196
 L 10.3235,-3.15435 L 10.3225,-3.17687 L 10.3217,-3.19949 L 10.321,-3.22223 L 10.3204,-3.24509 L 10.3199,-3.26806
 L 10.3195,-3.29115 L 10.3193,-3.31435 L 10.3191,-3.33767 L 10.3191,-3.3611 L 10.3191,-3.38538 L 10.3193,-3.40952
 L 10.3195,-3.43353 L 10.3199,-3.45741 L 10.3204,-3.48117 L 10.321,-3.50478 L 10.3217,-3.52827 L 10.3225,-3.55163
 L 10.3235,-3.57485 L 10.3245,-3.59794 L 10.3256,-3.62091 L 10.3269,-3.64374 L 10.3282,-3.66644 L 10.3297,-3.689
 L 10.3313,-3.71144 L 10.3329,-3.73374 L 10.3347,-3.75592 L 10.3366,-3.77796 L 10.3386,-3.79987 L 10.3407,-3.82165
 L 10.343,-3.8433 L 10.3453,-3.86481 L 10.3477,-3.8862 L 10.3503,-3.90745 L 10.353,-3.92857 L 10.3557,-3.94956
 L 10.3586,-3.97042 L 10.3616,-3.99115 L 10.3647,-4.01175 L 10.3679,-4.03221 L 10.3712,-4.05255 L 10.3746,-4.07275
 L 10.3781,-4.09282 L 10.3817,-4.11276 L 10.3855,-4.13257 L 10.3893,-4.15224 L 10.3933,-4.17179 L 10.3974,-4.1912
 L 10.4015,-4.21048 L 10.4058,-4.22963 L 10.4102,-4.24865 L 10.4147,-4.26754 L 10.4193,-4.2863 L 10.424,-4.30492
 L 10.4289,-4.32342 L 10.4338,-4.34178 L 10.4388,-4.36001 L 10.444,-4.37811 L 10.4493,-4.39608 L 10.4546,-4.41392
 L 10.4601,-4.43162 L 10.4657,-4.4492 L 10.4714,-4.46664 L 10.4772,-4.48395 L 10.4831,-4.50113 L 10.4891,-4.51818
 L 10.4952,-4.53509 L 10.5015,-4.55188 L 10.5078,-4.56853 L 10.5143,-4.58506 L 10.5208,-4.60145 L 10.5275,-4.61771
 L 10.5343,-4.63384 L 10.5412,-4.64983 L 10.5482,-4.6657 L 10.5553,-4.68138 L 10.5625,-4.69681 L 10.5698,-4.71201
 L 10.5773,-4.72696 L 10.5849,-4.74166 L 10.5925,-4.75612 L 10.6003,-4.77034 L 10.6083,-4.78432 L 10.6163,-4.79806
 L 10.6244,-4.81155 L 10.6327,-4.82479 L 10.6411,-4.8378 L 10.6496,-4.85056 L 10.6582,-4.86308 L 10.6669,-4.87535
 L 10.6757,-4.88739 L 10.6847,-4.89918 L 10.6937,-4.91072 L 10.7029,-4.92202 L 10.7122,-4.93308 L 10.7216,-4.9439
 L 10.7311,-4.95448 L 10.7408,-4.96481 L 10.7505,-4.97489 L 10.7604,-4.98474 L 10.7704,-4.99434 L 10.7805,-5.0037
 L 10.7907,-5.01281 L 10.801,-5.02169 L 10.8115,-5.03032 L 10.8221,-5.0387 L 10.8327,-5.04684 L 10.8435,-5.05474
 L 10.8544,-5.0624 L 10.8654,-5.06982 L 10.8766,-5.07699 L 10.8878,-5.08391 L 10.8992,-5.0906 L 10.9107,-5.09704
 L 10.9223,-5.10324 L 10.934,-5.10919 L 10.9458,-5.11491 L 10.9578,-5.12038 L 10.9698,-5.1256 L 10.982,-5.13058
 L 10.9943,-5.13532 L 11.0067,-5.13982 L 11.0192,-5.14408 L 11.0318,-5.14809 L 11.0446,-5.15185 L 11.0574,-5.15538
 L 11.0704,-5.15866 L 11.0835,-5.1617 L 11.0967,-5.16449 L 11.11,-5.16705 L 11.1235,-5.16936 L 11.137,-5.17142
 L 11.1507,-5.17324 L 11.1645,-5.17482 L 11.1784,-5.17616 L 11.1924,-5.17726 L 11.2065,-5.17811 L 11.2207,-5.17871
 L 11.2351,-5.17908 L 11.2496,-5.1792 L 11.2636,-5.17908 L 11.2775,-5.17871 L 11.2914,-5.17811 L 11.3051,-5.17726
 L 11.3187,-5.17616 L 11.3322,-5.17482 L 11.3456,-5.17324 L 11.3589,-5.17142 L 11.3721,-5.16936 L 11.3852,-5.16705
 L 11.3981,-5.16449 L 11.411,-5.1617 L 11.4237,-5.15866 L 11.4363,-5.15538 L 11.4489,-5.15185 L 11.4613,-5.14809
 L 11.4736,-5.14408 L 11.4858,-5.13982 L 11.4979,-5.13532 L 11.5099,-5.13058 L 11.5218,-5.1256 L 11.5335,-5.12038
 L 11.5452,-5.11491 L 11.5567,-5.10919 L 11.5682,-5.10324 L 11.5795,-5.09704 L 11.5908,-5.0906 L 11.6019,-5.08391
 L 11.6129,-5.07699 L 11.6238,-5.06982 L 11.6346,-5.0624 L 11.6453,-5.05474 L 11.6558,-5.04684 L 11.6663,-5.0387
 L 11.6767,-5.03032 L 11.6869,-5.02169 L 11.6971,-5.01281 L 11.7071,-5.0037 L 11.717,-4.99434 L 11.7268,-4.98474
 L 11.7365,-4.97489 L 11.7461,-4.96481 L 11.7556,-4.95448 L 11.765,-4.9439 L 11.7743,-4.93308 L 11.7834,-4.92202
 L 11.7925,-4.91072 L 11.8014,-4.89918 L 11.8103,-4.88739 L 11.819,-4.87535 L 11.8276,-4.86308 L 11.8362,-4.85056
 L 11.8446,-4.8378 L 11.8529,-4.82479 L 11.861,-4.81155 L 11.8691,-4.79806 L 11.8771,-4.78432 L 11.885,-4.77034
 L 11.8927,-4.75612 L 11.9004,-4.74166 L 11.9079,-4.72696 L 11.9153,-4.71201 L 11.9226,-4.69681 L 11.9299,-4.68138
 L 11.937,-4.6657 L 11.944,-4.64983 L 11.9508,-4.63384 L 11.9576,-4.61771 L 11.9643,-4.60145 L 11.9709,-4.58506
 L 11.9773,-4.56853 L 11.9837,-4.55188 L 11.9899,-4.53509 L 11.996,-4.51818 L 12.0021,-4.50113 L 12.008,-4.48395
 L 12.0138,-4.46664 L 12.0195,-4.4492 L 12.0251,-4.43162 L 12.0305,-4.41392 L 12.0359,-4.39608 L 12.0412,-4.37811
 L 12.0463,-4.36001 L 12.0514,-4.34178 L 12.0563,-4.32342 L 12.0611,-4.30492 L 12.0659,-4.2863 L 12.0705,-4.26754
 L 12.075,-4.24865 L 12.0794,-4.22963 L 12.0836,-4.21048 L 12.0878,-4.1912 L 12.0919,-4.17179 L 12.0959,-4.15224
 L 12.0997,-4.13257 L 12.1034,-4.11276 L 12.1071,-4.09282 L 12.1106,-4.07275 L 12.114,-4.05255 L 12.1173,-4.03221
 L 12.1205,-4.01175 L 12.1236,-3.99115 L 12.1266,-3.97042 L 12.1295,-3.94956 L 12.1323,-3.92857 L 12.1349,-3.90745
 L 12.1375,-3.8862 L 12.1399,-3.86481 L 12.1422,-3.8433 L 12.1445,-3.82165 L 12.1466,-3.79987 L 12.1486,-3.77796
 L 12.1505,-3.75592 L 12.1523,-3.73374 L 12.154,-3.71144 L 12.1555,-3.689 L 12.157,-3.66644 L 12.1583,-3.64374
 L 12.1596,-3.62091 L 12.1607,-3.59794 L 12.1618,-3.57485 L 12.1627,-3.55163 L 12.1635,-3.52827 L 12.1642,-3.50478
 L 12.1648,-3.48117 L 12.1653,-3.45741 L 12.1657,-3.43353 L 12.1659,-3.40952 L 12.1661,-3.38538 L 12.1662,-3.3611
 L 12.1661,-3.33767 L 12.1659,-3.31435 L 12.1657,-3.29115 L 12.1653,-3.26806 L 12.1648,-3.24509 L 12.1642,-3.22223
 L 12.1635,-3.19949 L 12.1627,-3.17687 L 12.1618,-3.15435 L 12.1607,-3.13196 L 12.1596,-3.10967 L 12.1583,-3.08751
 L 12.157,-3.06546 L 12.1555,-3.04352 L 12.154,-3.0217 L 12.1523,-2.99999 L 12.1505,-2.9784 L 12.1486,-2.95692
 L 12.1466,-2.93556 L 12.1445,-2.91431 L 12.1422,-2.89318 L 12.1399,-2.87216 L 12.1375,-2.85126 L 12.1349,-2.83047
 L 12.1323,-2.8098 L 12.1295,-2.78924 L 12.1266,-2.7688 L 12.1236,-2.74847 L 12.1205,-2.72826 L 12.1173,-2.70817
 L 12.114,-2.68818 L 12.1106,-2.66832 L 12.1071,-2.64856 L 12.1034,-2.62893 L 12.0997,-2.6094 L 12.0959,-2.59
 L 12.0919,-2.5707 L 12.0878,-2.55153 L 12.0836,-2.53246 L 12.0794,-2.51352 L 12.075,-2.49468 L 12.0705,-2.47597
 L 12.0659,-2.45736 L 12.0611,-2.43888 L 12.0563,-2.4205 L 12.0514,-2.40225 L 12.0463,-2.3841 L 12.0412,-2.36608
 L 12.0359,-2.34816 L 12.0305,-2.33037 L 12.0251,-2.31268 L 12.0195,-2.29512 L 12.0138,-2.27766 L 12.008,-2.26033
 L 12.0021,-2.2431 L 11.996,-2.226 L 11.9899,-2.209 L 11.9837,-2.19212 L 11.9773,-2.17536 L 11.9709,-2.15871
 L 11.9643,-2.14218 L 11.9576,-2.12576 L 11.9508,-2.10946 L 11.944,-2.09327 L 11.937,-2.0772 L 11.9299,-2.06131
 L 11.9226,-2.04567 L 11.9153,-2.03027 L 11.9079,-2.01512 L 11.9004,-2.00022 L 11.8927,-1.98556 L 11.885,-1.97115
 L 11.8771,-1.95698 L 11.8691,-1.94307 L 11.861,-1.92939 L 11.8529,-1.91597 L 11.8446,-1.90279 L 11.8362,-1.88986
 L 11.8276,-1.87717 L 11.819,-1.86473 L 11.8103,-1.85254 L 11.8014,-1.84059 L 11.7925,-1.82889 L 11.7834,-1.81743
 L 11.7743,-1.80622 L 11.765,-1.79526 L 11.7556,-1.78454 L 11.7461,-1.77407 L 11.7365,-1.76385 L 11.7268,-1.75387
 L 11.717,-1.74414 L 11.7071,-1.73466 L 11.6971,-1.72542 L 11.6869,-1.71643 L 11.6767,-1.70769 L 11.6663,-1.69919
 L 11.6558,-1.69093 L 11.6453,-1.68293 L 11.6346,-1.67517 L 11.6238,-1.66765 L 11.6129,-1.66039 L 11.6019,-1.65337
 L 11.5908,-1.64659 L 11.5795,-1.64006 L 11.5682,-1.63378 L 11.5567,-1.62775 L 11.5452,-1.62196 L 11.5335,-1.61642
 L 11.5218,-1.61112 L 11.5099,-1.60607 L 11.4979,-1.60126 L 11.4858,-1.59671 L 11.4736,-1.5924 L 11.4613,-1.58833
 L 11.4489,-1.58451 L 11.4363,-1.58094 L 11.4237,-1.57762 L 11.411,-1.57454 L 11.3981,-1.5717 L 11.3852,-1.56912
 L 11.3721,-1.56678 L 11.3589,-1.56468 L 11.3456,-1.56284 L 11.3322,-1.56123 L 11.3187,-1.55988 L 11.3051,-1.55877
 L 11.2914,-1.55791 L 11.2775,-1.55729 L 11.2636,-1.55692 L 11.2496,-1.5568 z
" stroke="#000000" fill="none" stroke-width="0.35"/>
</svg>
