  0
SECTION
  2
BLOCKS
  0
ENDSEC
  0
SECTION
  2
ENTITIES
  0
LINE
  8
0
 10
76.2
 20
55.8
 11
0
 21
55.8
  0
LINE
  8
0
 10
0
 20
55.8
 11
0
 21
0
  0
LINE
  8
0
 10
0
 20
0
 11
76.2
 21
0
  0
LINE
  8
0
 10
76.2
 20
0
 11
76.2
 21
55.8
  0
LINE
  8
0
 10
72.6058
 20
50.8029
 11
72.4189
 21
50.8266
  0
LINE
  8
0
 10
72.4189
 20
50.8266
 11
72.2365
 21
50.8734
  0
LINE
  8
0
 10
72.2365
 20
50.8734
 11
72.0613
 21
50.9427
  0
LINE
  8
0
 10
72.0613
 20
50.9427
 11
71.8963
 21
51.0335
  0
LINE
  8
0
 10
71.8963
 20
51.0335
 11
71.7439
 21
51.1442
  0
LINE
  8
0
 10
71.7439
 20
51.1442
 11
71.6065
 21
51.2732
  0
LINE
  8
0
 10
71.6065
 20
51.2732
 11
71.4865
 21
51.4183
  0
LINE
  8
0
 10
71.4865
 20
51.4183
 11
71.3855
 21
51.5774
  0
LINE
  8
0
 10
71.3855
 20
51.5774
 11
71.3053
 21
51.7478
  0
LINE
  8
0
 10
71.3053
 20
51.7478
 11
71.2471
 21
51.927
  0
LINE
  8
0
 10
71.2471
 20
51.927
 11
71.2118
 21
52.112
  0
LINE
  8
0
 10
71.2118
 20
52.112
 11
71.2
 21
52.3
  0
LINE
  8
0
 10
71.2
 20
52.3
 11
71.2118
 21
52.488
  0
LINE
  8
0
 10
71.2118
 20
52.488
 11
71.2471
 21
52.673
  0
LINE
  8
0
 10
71.2471
 20
52.673
 11
71.3053
 21
52.8522
  0
LINE
  8
0
 10
71.3053
 20
52.8522
 11
71.3855
 21
53.0226
  0
LINE
  8
0
 10
71.3855
 20
53.0226
 11
71.4865
 21
53.1817
  0
LINE
  8
0
 10
71.4865
 20
53.1817
 11
71.6065
 21
53.3268
  0
LINE
  8
0
 10
71.6065
 20
53.3268
 11
71.7439
 21
53.4558
  0
LINE
  8
0
 10
71.7439
 20
53.4558
 11
71.8963
 21
53.5665
  0
LINE
  8
0
 10
71.8963
 20
53.5665
 11
72.0613
 21
53.6572
  0
LINE
  8
0
 10
72.0613
 20
53.6572
 11
72.2365
 21
53.7266
  0
LINE
  8
0
 10
72.2365
 20
53.7266
 11
72.4189
 21
53.7734
  0
LINE
  8
0
 10
72.4189
 20
53.7734
 11
72.6058
 21
53.797
  0
LINE
  8
0
 10
72.6058
 20
53.797
 11
72.7942
 21
53.797
  0
LINE
  8
0
 10
72.7942
 20
53.797
 11
72.9811
 21
53.7734
  0
LINE
  8
0
 10
72.9811
 20
53.7734
 11
73.1635
 21
53.7266
  0
LINE
  8
0
 10
73.1635
 20
53.7266
 11
73.3387
 21
53.6572
  0
LINE
  8
0
 10
73.3387
 20
53.6572
 11
73.5037
 21
53.5665
  0
LINE
  8
0
 10
73.5037
 20
53.5665
 11
73.6561
 21
53.4558
  0
LINE
  8
0
 10
73.6561
 20
53.4558
 11
73.7934
 21
53.3268
  0
LINE
  8
0
 10
73.7934
 20
53.3268
 11
73.9135
 21
53.1817
  0
LINE
  8
0
 10
73.9135
 20
53.1817
 11
74.0145
 21
53.0226
  0
LINE
  8
0
 10
74.0145
 20
53.0226
 11
74.0947
 21
52.8522
  0
LINE
  8
0
 10
74.0947
 20
52.8522
 11
74.1529
 21
52.673
  0
LINE
  8
0
 10
74.1529
 20
52.673
 11
74.1882
 21
52.488
  0
LINE
  8
0
 10
74.1882
 20
52.488
 11
74.2
 21
52.3
  0
LINE
  8
0
 10
74.2
 20
52.3
 11
74.1882
 21
52.112
  0
LINE
  8
0
 10
74.1882
 20
52.112
 11
74.1529
 21
51.927
  0
LINE
  8
0
 10
74.1529
 20
51.927
 11
74.0947
 21
51.7478
  0
LINE
  8
0
 10
74.0947
 20
51.7478
 11
74.0145
 21
51.5774
  0
LINE
  8
0
 10
74.0145
 20
51.5774
 11
73.9135
 21
51.4183
  0
LINE
  8
0
 10
73.9135
 20
51.4183
 11
73.7934
 21
51.2732
  0
LINE
  8
0
 10
73.7934
 20
51.2732
 11
73.6561
 21
51.1442
  0
LINE
  8
0
 10
73.6561
 20
51.1442
 11
73.5037
 21
51.0335
  0
LINE
  8
0
 10
73.5037
 20
51.0335
 11
73.3387
 21
50.9427
  0
LINE
  8
0
 10
73.3387
 20
50.9427
 11
73.1635
 21
50.8734
  0
LINE
  8
0
 10
73.1635
 20
50.8734
 11
72.9811
 21
50.8266
  0
LINE
  8
0
 10
72.9811
 20
50.8266
 11
72.7942
 21
50.8029
  0
LINE
  8
0
 10
72.7942
 20
50.8029
 11
72.6058
 21
50.8029
  0
LINE
  8
0
 10
3.40581
 20
50.8029
 11
3.21892
 21
50.8266
  0
LINE
  8
0
 10
3.21892
 20
50.8266
 11
3.03647
 21
50.8734
  0
LINE
  8
0
 10
3.03647
 20
50.8734
 11
2.86133
 21
50.9427
  0
LINE
  8
0
 10
2.86133
 20
50.9427
 11
2.69626
 21
51.0335
  0
LINE
  8
0
 10
2.69626
 20
51.0335
 11
2.54385
 21
51.1442
  0
LINE
  8
0
 10
2.54385
 20
51.1442
 11
2.40654
 21
51.2732
  0
LINE
  8
0
 10
2.40654
 20
51.2732
 11
2.28647
 21
51.4183
  0
LINE
  8
0
 10
2.28647
 20
51.4183
 11
2.18553
 21
51.5774
  0
LINE
  8
0
 10
2.18553
 20
51.5774
 11
2.10533
 21
51.7478
  0
LINE
  8
0
 10
2.10533
 20
51.7478
 11
2.04712
 21
51.927
  0
LINE
  8
0
 10
2.04712
 20
51.927
 11
2.01183
 21
52.112
  0
LINE
  8
0
 10
2.01183
 20
52.112
 11
2
 21
52.3
  0
LINE
  8
0
 10
2
 20
52.3
 11
2.01183
 21
52.488
  0
LINE
  8
0
 10
2.01183
 20
52.488
 11
2.04712
 21
52.673
  0
LINE
  8
0
 10
2.04712
 20
52.673
 11
2.10533
 21
52.8522
  0
LINE
  8
0
 10
2.10533
 20
52.8522
 11
2.18553
 21
53.0226
  0
LINE
  8
0
 10
2.18553
 20
53.0226
 11
2.28647
 21
53.1817
  0
LINE
  8
0
 10
2.28647
 20
53.1817
 11
2.40654
 21
53.3268
  0
LINE
  8
0
 10
2.40654
 20
53.3268
 11
2.54385
 21
53.4558
  0
LINE
  8
0
 10
2.54385
 20
53.4558
 11
2.69626
 21
53.5665
  0
LINE
  8
0
 10
2.69626
 20
53.5665
 11
2.86133
 21
53.6572
  0
LINE
  8
0
 10
2.86133
 20
53.6572
 11
3.03647
 21
53.7266
  0
LINE
  8
0
 10
3.03647
 20
53.7266
 11
3.21892
 21
53.7734
  0
LINE
  8
0
 10
3.21892
 20
53.7734
 11
3.40581
 21
53.797
  0
LINE
  8
0
 10
3.40581
 20
53.797
 11
3.59418
 21
53.797
  0
LINE
  8
0
 10
3.59418
 20
53.797
 11
3.78107
 21
53.7734
  0
LINE
  8
0
 10
3.78107
 20
53.7734
 11
3.96352
 21
53.7266
  0
LINE
  8
0
 10
3.96352
 20
53.7266
 11
4.13866
 21
53.6572
  0
LINE
  8
0
 10
4.13866
 20
53.6572
 11
4.30373
 21
53.5665
  0
LINE
  8
0
 10
4.30373
 20
53.5665
 11
4.45613
 21
53.4558
  0
LINE
  8
0
 10
4.45613
 20
53.4558
 11
4.59344
 21
53.3268
  0
LINE
  8
0
 10
4.59344
 20
53.3268
 11
4.71352
 21
53.1817
  0
LINE
  8
0
 10
4.71352
 20
53.1817
 11
4.81445
 21
53.0226
  0
LINE
  8
0
 10
4.81445
 20
53.0226
 11
4.89465
 21
52.8522
  0
LINE
  8
0
 10
4.89465
 20
52.8522
 11
4.95287
 21
52.673
  0
LINE
  8
0
 10
4.95287
 20
52.673
 11
4.98816
 21
52.488
  0
LINE
  8
0
 10
4.98816
 20
52.488
 11
5
 21
52.3
  0
LINE
  8
0
 10
5
 20
52.3
 11
4.98816
 21
52.112
  0
LINE
  8
0
 10
4.98816
 20
52.112
 11
4.95287
 21
51.927
  0
LINE
  8
0
 10
4.95287
 20
51.927
 11
4.89465
 21
51.7478
  0
LINE
  8
0
 10
4.89465
 20
51.7478
 11
4.81445
 21
51.5774
  0
LINE
  8
0
 10
4.81445
 20
51.5774
 11
4.71352
 21
51.4183
  0
LINE
  8
0
 10
4.71352
 20
51.4183
 11
4.59344
 21
51.2732
  0
LINE
  8
0
 10
4.59344
 20
51.2732
 11
4.45613
 21
51.1442
  0
LINE
  8
0
 10
4.45613
 20
51.1442
 11
4.30373
 21
51.0335
  0
LINE
  8
0
 10
4.30373
 20
51.0335
 11
4.13866
 21
50.9427
  0
LINE
  8
0
 10
4.13866
 20
50.9427
 11
3.96352
 21
50.8734
  0
LINE
  8
0
 10
3.96352
 20
50.8734
 11
3.78107
 21
50.8266
  0
LINE
  8
0
 10
3.78107
 20
50.8266
 11
3.59418
 21
50.8029
  0
LINE
  8
0
 10
3.59418
 20
50.8029
 11
3.40581
 21
50.8029
  0
LINE
  8
0
 10
3.40581
 20
2.00294
 11
3.21892
 21
2.02657
  0
LINE
  8
0
 10
3.21892
 20
2.02657
 11
3.03647
 21
2.07341
  0
LINE
  8
0
 10
3.03647
 20
2.07341
 11
2.86133
 21
2.14275
  0
LINE
  8
0
 10
2.86133
 20
2.14275
 11
2.69626
 21
2.23351
  0
LINE
  8
0
 10
2.69626
 20
2.23351
 11
2.54385
 21
2.34422
  0
LINE
  8
0
 10
2.54385
 20
2.34422
 11
2.40654
 21
2.47318
  0
LINE
  8
0
 10
2.40654
 20
2.47318
 11
2.28647
 21
2.61832
  0
LINE
  8
0
 10
2.28647
 20
2.61832
 11
2.18553
 21
2.77736
  0
LINE
  8
0
 10
2.18553
 20
2.77736
 11
2.10533
 21
2.9478
  0
LINE
  8
0
 10
2.10533
 20
2.9478
 11
2.04712
 21
3.12695
  0
LINE
  8
0
 10
2.04712
 20
3.12695
 11
2.01183
 21
3.312
  0
LINE
  8
0
 10
2.01183
 20
3.312
 11
2
 21
3.5
  0
LINE
  8
0
 10
2
 20
3.5
 11
2.01183
 21
3.68799
  0
LINE
  8
0
 10
2.01183
 20
3.68799
 11
2.04712
 21
3.87303
  0
LINE
  8
0
 10
2.04712
 20
3.87303
 11
2.10533
 21
4.05219
  0
LINE
  8
0
 10
2.10533
 20
4.05219
 11
2.18553
 21
4.22263
  0
LINE
  8
0
 10
2.18553
 20
4.22263
 11
2.28647
 21
4.38167
  0
LINE
  8
0
 10
2.28647
 20
4.38167
 11
2.40654
 21
4.52681
  0
LINE
  8
0
 10
2.40654
 20
4.52681
 11
2.54385
 21
4.65576
  0
LINE
  8
0
 10
2.54385
 20
4.65576
 11
2.69626
 21
4.76648
  0
LINE
  8
0
 10
2.69626
 20
4.76648
 11
2.86133
 21
4.85724
  0
LINE
  8
0
 10
2.86133
 20
4.85724
 11
3.03647
 21
4.92657
  0
LINE
  8
0
 10
3.03647
 20
4.92657
 11
3.21892
 21
4.97342
  0
LINE
  8
0
 10
3.21892
 20
4.97342
 11
3.40581
 21
4.99704
  0
LINE
  8
0
 10
3.40581
 20
4.99704
 11
3.59418
 21
4.99704
  0
LINE
  8
0
 10
3.59418
 20
4.99704
 11
3.78107
 21
4.97342
  0
LINE
  8
0
 10
3.78107
 20
4.97342
 11
3.96352
 21
4.92657
  0
LINE
  8
0
 10
3.96352
 20
4.92657
 11
4.13866
 21
4.85724
  0
LINE
  8
0
 10
4.13866
 20
4.85724
 11
4.30373
 21
4.76648
  0
LINE
  8
0
 10
4.30373
 20
4.76648
 11
4.45613
 21
4.65576
  0
LINE
  8
0
 10
4.45613
 20
4.65576
 11
4.59344
 21
4.52681
  0
LINE
  8
0
 10
4.59344
 20
4.52681
 11
4.71352
 21
4.38167
  0
LINE
  8
0
 10
4.71352
 20
4.38167
 11
4.81445
 21
4.22263
  0
LINE
  8
0
 10
4.81445
 20
4.22263
 11
4.89465
 21
4.05219
  0
LINE
  8
0
 10
4.89465
 20
4.05219
 11
4.95287
 21
3.87303
  0
LINE
  8
0
 10
4.95287
 20
3.87303
 11
4.98816
 21
3.68799
  0
LINE
  8
0
 10
4.98816
 20
3.68799
 11
5
 21
3.5
  0
LINE
  8
0
 10
5
 20
3.5
 11
4.98816
 21
3.312
  0
LINE
  8
0
 10
4.98816
 20
3.312
 11
4.95287
 21
3.12695
  0
LINE
  8
0
 10
4.95287
 20
3.12695
 11
4.89465
 21
2.9478
  0
LINE
  8
0
 10
4.89465
 20
2.9478
 11
4.81445
 21
2.77736
  0
LINE
  8
0
 10
4.81445
 20
2.77736
 11
4.71352
 21
2.61832
  0
LINE
  8
0
 10
4.71352
 20
2.61832
 11
4.59344
 21
2.47318
  0
LINE
  8
0
 10
4.59344
 20
2.47318
 11
4.45613
 21
2.34422
  0
LINE
  8
0
 10
4.45613
 20
2.34422
 11
4.30373
 21
2.23351
  0
LINE
  8
0
 10
4.30373
 20
2.23351
 11
4.13866
 21
2.14275
  0
LINE
  8
0
 10
4.13866
 20
2.14275
 11
3.96352
 21
2.07341
  0
LINE
  8
0
 10
3.96352
 20
2.07341
 11
3.78107
 21
2.02657
  0
LINE
  8
0
 10
3.78107
 20
2.02657
 11
3.59418
 21
2.00294
  0
LINE
  8
0
 10
3.59418
 20
2.00294
 11
3.40581
 21
2.00294
  0
LINE
  8
0
 10
72.6058
 20
2.00294
 11
72.4189
 21
2.02657
  0
LINE
  8
0
 10
72.4189
 20
2.02657
 11
72.2365
 21
2.07341
  0
LINE
  8
0
 10
72.2365
 20
2.07341
 11
72.0613
 21
2.14275
  0
LINE
  8
0
 10
72.0613
 20
2.14275
 11
71.8963
 21
2.23351
  0
LINE
  8
0
 10
71.8963
 20
2.23351
 11
71.7439
 21
2.34422
  0
LINE
  8
0
 10
71.7439
 20
2.34422
 11
71.6065
 21
2.47318
  0
LINE
  8
0
 10
71.6065
 20
2.47318
 11
71.4865
 21
2.61832
  0
LINE
  8
0
 10
71.4865
 20
2.61832
 11
71.3855
 21
2.77736
  0
LINE
  8
0
 10
71.3855
 20
2.77736
 11
71.3053
 21
2.9478
  0
LINE
  8
0
 10
71.3053
 20
2.9478
 11
71.2471
 21
3.12695
  0
LINE
  8
0
 10
71.2471
 20
3.12695
 11
71.2118
 21
3.312
  0
LINE
  8
0
 10
71.2118
 20
3.312
 11
71.2
 21
3.5
  0
LINE
  8
0
 10
71.2
 20
3.5
 11
71.2118
 21
3.68799
  0
LINE
  8
0
 10
71.2118
 20
3.68799
 11
71.2471
 21
3.87303
  0
LINE
  8
0
 10
71.2471
 20
3.87303
 11
71.3053
 21
4.05219
  0
LINE
  8
0
 10
71.3053
 20
4.05219
 11
71.3855
 21
4.22263
  0
LINE
  8
0
 10
71.3855
 20
4.22263
 11
71.4865
 21
4.38167
  0
LINE
  8
0
 10
71.4865
 20
4.38167
 11
71.6065
 21
4.52681
  0
LINE
  8
0
 10
71.6065
 20
4.52681
 11
71.7439
 21
4.65576
  0
LINE
  8
0
 10
71.7439
 20
4.65576
 11
71.8963
 21
4.76648
  0
LINE
  8
0
 10
71.8963
 20
4.76648
 11
72.0613
 21
4.85724
  0
LINE
  8
0
 10
72.0613
 20
4.85724
 11
72.2365
 21
4.92657
  0
LINE
  8
0
 10
72.2365
 20
4.92657
 11
72.4189
 21
4.97342
  0
LINE
  8
0
 10
72.4189
 20
4.97342
 11
72.6058
 21
4.99704
  0
LINE
  8
0
 10
72.6058
 20
4.99704
 11
72.7942
 21
4.99704
  0
LINE
  8
0
 10
72.7942
 20
4.99704
 11
72.9811
 21
4.97342
  0
LINE
  8
0
 10
72.9811
 20
4.97342
 11
73.1635
 21
4.92657
  0
LINE
  8
0
 10
73.1635
 20
4.92657
 11
73.3387
 21
4.85724
  0
LINE
  8
0
 10
73.3387
 20
4.85724
 11
73.5037
 21
4.76648
  0
LINE
  8
0
 10
73.5037
 20
4.76648
 11
73.6561
 21
4.65576
  0
LINE
  8
0
 10
73.6561
 20
4.65576
 11
73.7934
 21
4.52681
  0
LINE
  8
0
 10
73.7934
 20
4.52681
 11
73.9135
 21
4.38167
  0
LINE
  8
0
 10
73.9135
 20
4.38167
 11
74.0145
 21
4.22263
  0
LINE
  8
0
 10
74.0145
 20
4.22263
 11
74.0947
 21
4.05219
  0
LINE
  8
0
 10
74.0947
 20
4.05219
 11
74.1529
 21
3.87303
  0
LINE
  8
0
 10
74.1529
 20
3.87303
 11
74.1882
 21
3.68799
  0
LINE
  8
0
 10
74.1882
 20
3.68799
 11
74.2
 21
3.5
  0
LINE
  8
0
 10
74.2
 20
3.5
 11
74.1882
 21
3.312
  0
LINE
  8
0
 10
74.1882
 20
3.312
 11
74.1529
 21
3.12695
  0
LINE
  8
0
 10
74.1529
 20
3.12695
 11
74.0947
 21
2.9478
  0
LINE
  8
0
 10
74.0947
 20
2.9478
 11
74.0145
 21
2.77736
  0
LINE
  8
0
 10
74.0145
 20
2.77736
 11
73.9135
 21
2.61832
  0
LINE
  8
0
 10
73.9135
 20
2.61832
 11
73.7934
 21
2.47318
  0
LINE
  8
0
 10
73.7934
 20
2.47318
 11
73.6561
 21
2.34422
  0
LINE
  8
0
 10
73.6561
 20
2.34422
 11
73.5037
 21
2.23351
  0
LINE
  8
0
 10
73.5037
 20
2.23351
 11
73.3387
 21
2.14275
  0
LINE
  8
0
 10
73.3387
 20
2.14275
 11
73.1635
 21
2.07341
  0
LINE
  8
0
 10
73.1635
 20
2.07341
 11
72.9811
 21
2.02657
  0
LINE
  8
0
 10
72.9811
 20
2.02657
 11
72.7942
 21
2.00294
  0
LINE
  8
0
 10
72.7942
 20
2.00294
 11
72.6058
 21
2.00294
  0
ENDSEC
  0
SECTION
  2
OBJECTS
  0
DICTIONARY
  0
ENDSEC
  0
EOF
