<?xml version="1.0" encoding="UTF-8" standalone="no"?>
<!-- Created with Inkscape (http://www.inkscape.org/) -->

<svg
   width="210mm"
   height="297mm"
   viewBox="0 0 210 297"
   version="1.1"
   id="svg1"
   inkscape:version="1.3.2 (091e20e, 2023-11-25)"
   sodipodi:docname="bean2.svg"
   xmlns:inkscape="http://www.inkscape.org/namespaces/inkscape"
   xmlns:sodipodi="http://sodipodi.sourceforge.net/DTD/sodipodi-0.dtd"
   xmlns="http://www.w3.org/2000/svg"
   xmlns:svg="http://www.w3.org/2000/svg">
  <sodipodi:namedview
     id="namedview1"
     pagecolor="#505050"
     bordercolor="#ffffff"
     borderopacity="1"
     inkscape:showpageshadow="0"
     inkscape:pageopacity="0"
     inkscape:pagecheckerboard="1"
     inkscape:deskcolor="#505050"
     inkscape:document-units="mm"
     inkscape:zoom="0.5946522"
     inkscape:cx="455.72858"
     inkscape:cy="615.48583"
     inkscape:window-width="1312"
     inkscape:window-height="929"
     inkscape:window-x="0"
     inkscape:window-y="38"
     inkscape:window-maximized="0"
     inkscape:current-layer="layer1"
     showgrid="false" />
  <defs
     id="defs1" />
  <g
     inkscape:label="Layer 1"
     inkscape:groupmode="layer"
     id="layer1">
    <path
       d="m 48.986145,179.36339 c -13.532161,-0.81905 -27.116361,-5.49051 -32.688964,-11.24146 -0.669324,-0.69078 -1.583695,-1.97844 -2.031924,-2.86154 -0.728723,-1.43569 -0.813484,-1.82031 -0.800954,-3.63437 0.01693,-2.46164 0.593507,-4.12274 2.328505,-6.70913 3.799309,-5.66376 14.69402,-13.78686 30.612711,-22.82487 0.889836,-0.50522 2.423284,-1.38188 3.407665,-1.94814 0.984373,-0.56629 2.216461,-1.2682 2.737975,-1.5598 7.831191,-4.37922 26.289028,-15.50836 35.049021,-21.13276 0.319855,-0.20546 1.458575,-0.92393 2.530578,-1.59683 2.294336,-1.44021 17.626402,-11.612004 20.866002,-13.843204 11.35086,-7.81762 31.70272,-22.67002 36.70081,-26.7835 0.21261,-0.1746 2.29039,-1.79804 4.61769,-3.60706 5.53792,-4.30476 16.1279,-12.77135 18.92915,-15.13372 0.41747,-0.35184 1.24811,-1.03208 1.8459,-1.51126 0.59779,-0.47914 3.6725,-3.03553 6.83266,-5.68088 7.47595,-6.25805 11.06728,-8.655568 14.20859,-9.485497 4.13335,-1.091984 7.30036,0.971305 8.95224,5.832419 2.42285,7.129828 2.37664,18.772008 -0.11891,30.015168 -2.59331,11.68222 -8.91958,25.76437 -16.98673,37.811874 -21.78026,32.52666 -58.65515,59.64199 -96.262649,70.78505 -14.137003,4.18878 -27.741891,5.89552 -40.729122,5.10951 z M 6.4461153,150.51216 C 4.5361235,149.91632 2.525957,147.35165 1.4960249,144.19653 0.28253366,140.4791 0.00469276,137.97679 1.132597e-4,130.72406 -0.00440674,123.88418 0.12143226,122.48152 1.2709337,116.5364 4.7283562,98.654746 15.414777,78.417276 30.842055,60.535896 36.527284,53.946246 43.971745,46.632936 51.383644,40.356066 63.564746,30.04038 79.598657,19.81628 93.324413,13.612341 c 0.684489,-0.309319 1.972565,-0.896309 2.8624,-1.304293 C 106.3956,7.6277458 120.73773,3.2996218 131.78047,1.5667248 c 11.71067,-1.83773496 19.04648,-2.02531996 28.87314,-0.73829996 10.22146,1.33868596 19.51159,4.58408196 25.13636,8.78106496 5.56013,4.1487422 6.43665,9.2884312 2.57969,15.1265702 -1.13884,1.723791 -4.94981,5.604193 -7.55459,7.692205 -5.91973,4.745251 -15.15325,10.753101 -25.8863,16.843061 -2.08161,1.18109 -7.56193,4.38208 -10.08073,5.88803 -1.50587,0.90034 -2.97645,1.76387 -3.26793,1.91898 -1.54754,0.82353 -16.38142,9.96502 -23.32675,14.37525 -6.89588,4.37885 -20.562477,13.51097 -26.297925,17.57248 -1.300567,0.92096 -3.316705,2.32753 -4.480337,3.1257 -4.470929,3.06676 -23.237622,16.961104 -27.531803,20.383774 -0.699684,0.55768 -2.146406,1.68605 -3.214928,2.50744 -2.464337,1.89437 -14.514675,11.49527 -18.287862,14.57055 -3.948042,3.21777 -13.040184,10.7645 -13.192051,10.94971 -0.06849,0.0835 -1.63279,1.41297 -3.476312,2.95441 -5.977314,4.99778 -9.484953,6.95379 -12.7929731,7.13385 -0.9770357,0.0531 -2.1169114,-0.008 -2.5330536,-0.13923 z"
       style="fill:#000000;stroke-width:0.940749"
       id="path1" />
  </g>
</svg>
