<?xml version="1.0" encoding="UTF-8" standalone="no"?>
<!-- Created with Inkscape (http://www.inkscape.org/) -->

<svg
   width="210mm"
   height="297mm"
   viewBox="0 0 210 297"
   version="1.1"
   id="svg1"
   inkscape:version="1.3.2 (091e20e, 2023-11-25)"
   sodipodi:docname="bean3.svg"
   xmlns:inkscape="http://www.inkscape.org/namespaces/inkscape"
   xmlns:sodipodi="http://sodipodi.sourceforge.net/DTD/sodipodi-0.dtd"
   xmlns="http://www.w3.org/2000/svg"
   xmlns:svg="http://www.w3.org/2000/svg">
  <sodipodi:namedview
     id="namedview1"
     pagecolor="#505050"
     bordercolor="#ffffff"
     borderopacity="1"
     inkscape:showpageshadow="0"
     inkscape:pageopacity="0"
     inkscape:pagecheckerboard="1"
     inkscape:deskcolor="#505050"
     inkscape:document-units="mm"
     inkscape:zoom="0.2102413"
     inkscape:cx="394.78447"
     inkscape:cy="561.25985"
     inkscape:window-width="1312"
     inkscape:window-height="449"
     inkscape:window-x="0"
     inkscape:window-y="38"
     inkscape:window-maximized="0"
     inkscape:current-layer="layer1"
     showgrid="false" />
  <defs
     id="defs1" />
  <g
     inkscape:label="Layer 1"
     inkscape:groupmode="layer"
     id="layer1">
    <path
       d="m 76.557858,228.59315 c -3.17433,-1.5955 -5.70195,-5.34049 -7.2379,-10.72388 -0.18683,-0.65484 -0.49835,-1.72641 -0.69227,-2.38125 -1.1124,-3.75655 -2.50972,-10.499 -3.12547,-15.08125 -2.71249,-20.18562 0.27713,-40.21594 9.55667,-64.02918 1.42911,-3.66741 3.47141,-8.58101 4.52359,-10.88341 0.42334,-0.92636 1.03937,-2.27961 1.36896,-3.00721 0.32958,-0.72761 0.95482,-2.09683 1.38941,-3.04271 8.40734,-18.29846 12.3373,-31.053261 14.26642,-46.302081 0.54135,-4.27911 0.45959,-16.96577 -0.13725,-21.29896 -1.15674,-8.39808 -2.64806,-14.25839 -5.9685,-23.45388 -1.82189,-5.04544 -8.40167,-18.3957999 -10.0919,-20.4763999 -0.12243,-0.15072 -0.58639,-1.00724 -1.03102,-1.90339 -0.95373,-1.92225 -1.06057,-3.58455 -0.28979,-4.50873 2.02557,-2.42869997 8.9536,-1.87470997 17.60534,1.4078 3.07633,1.16718 8.966722,4.08327 11.294882,5.59164 17.90413,11.5997499 31.5553,30.8523799 40.13662,56.6057999 1.14842,3.44651 2.84929,9.69891 3.73359,13.72466 0.12786,0.58208 0.35287,1.59411 0.50003,2.24896 0.58855,2.61897 1.86266,10.67015 2.26102,14.2875 0.23238,2.11005 0.54055,4.729421 0.68482,5.820831 0.33888,2.56348 0.33891,24.83608 3e-5,27.18103 -0.14234,0.98496 -0.45015,3.57678 -0.68402,5.75959 -1.79194,16.7249 -6.67605,33.93287 -13.64058,48.05921 -11.81399,23.96262 -28.7909,40.00323 -48.784312,46.09377 -2.54506,0.7753 -2.86752,0.80951 -8.46667,0.89826 -5.8072,0.092 -5.82399,0.0907 -7.1717,-0.58672 z m -20.21267,-1.97432 c -5.35656,-1.49197 -12.98321,-5.5872 -19.16481,-10.2908 -3.18183,-2.42106 -9.95427,-9.0775 -12.42999,-12.21709 -0.97537,-1.23693 -1.91533,-2.42833 -2.08878,-2.64756 -0.60273,-0.76177 -4.87713,-7.28383 -5.80784,-8.86182 C 13.274078,186.53225 9.1839775,176.95452 6.6848075,168.78905 2.2417175,154.27223 -0.01313247,138.07388 5.7532727e-5,120.76718 0.01005753,108.02467 1.3991575,94.254059 3.8174575,82.931759 c 0.23311,-1.09141 0.532,-2.52016 0.66421,-3.175 0.38189,-1.89158 2.29819,-9.17806 3.06168,-11.64167 0.38333,-1.23692 0.79645,-2.60614 0.91805,-3.04271 0.69912,-2.50999 2.8651505,-8.45846 4.5004405,-12.35937 8.62478,-20.57407 20.79531,-36.43851 34.74571,-45.2915099 2.30639,-1.46365 8.20988,-4.24814 10.63333,-5.01542 7.48071,-2.36842997 11.46896,-1.13574 15.3391,4.74101 0.78754,1.19585 2.18751,3.7049799 3.11105,5.5758299 11.60221,23.50307 13.42445,46.66668 5.75214,73.11926 -2.54705,8.78171 -6.47807,19.269741 -10.46229,27.913541 -10.40312,22.56966 -14.51235,35.60748 -16.84492,53.44583 -0.46734,3.57394 -0.46653,17.64812 0.001,21.03439 1.04139,7.53928 2.78555,15.62603 4.02312,18.65312 0.11899,0.29104 0.60296,1.66026 1.0755,3.04271 0.47253,1.38245 1.38521,3.7637 2.02816,5.29167 1.47286,3.50021 1.91874,5.16633 1.91874,7.16979 0,3.9968 -3.00861,5.59846 -7.9375,4.2256 z"
       style="fill:#000000"
       id="path1" />
  </g>
</svg>
