<?xml version="1.0" encoding="UTF-8" standalone="no"?>
<!-- Created with Inkscape (http://www.inkscape.org/) -->

<svg
   width="297mm"
   height="210mm"
   viewBox="0 0 297 210"
   version="1.1"
   id="svg1"
   inkscape:version="1.3.2 (091e20e, 2023-11-25)"
   sodipodi:docname="bean1a.svg"
   xmlns:inkscape="http://www.inkscape.org/namespaces/inkscape"
   xmlns:sodipodi="http://sodipodi.sourceforge.net/DTD/sodipodi-0.dtd"
   xmlns="http://www.w3.org/2000/svg"
   xmlns:svg="http://www.w3.org/2000/svg">
  <sodipodi:namedview
     id="namedview1"
     pagecolor="#505050"
     bordercolor="#ffffff"
     borderopacity="1"
     inkscape:showpageshadow="0"
     inkscape:pageopacity="0"
     inkscape:pagecheckerboard="1"
     inkscape:deskcolor="#505050"
     inkscape:document-units="mm"
     inkscape:zoom="0.2102413"
     inkscape:cx="394.78447"
     inkscape:cy="561.25985"
     inkscape:window-width="1312"
     inkscape:window-height="449"
     inkscape:window-x="0"
     inkscape:window-y="38"
     inkscape:window-maximized="0"
     inkscape:current-layer="layer1"
     showgrid="false" />
  <defs
     id="defs1" />
  <g
     inkscape:label="Layer 1"
     inkscape:groupmode="layer"
     id="layer1">
    <path
       d="m 114.57444,142.98885 c -0.72761,-0.0514 -3.16839,-0.22302 -5.42396,-0.38139 -27.811698,-1.95276 -52.268788,-8.81232 -71.437498,-20.03629 -12.95681,-7.58668 -24.691968,-18.3709 -30.6549274,-28.170849 -2.792451,-4.58932 -5.026507,-10.03096 -5.986841,-14.58255 -1.50555899,-7.13573 -1.43203599,-12.30678 0.270798,-19.046028 2.393654,-9.47328 9.0836994,-15.76627 17.5981084,-16.55366 2.232132,-0.20642 3.578042,-0.14655 12.158272,0.54086 5.58388,0.44736 32.05528,0.45348 39.8198,0.009 3.05593,-0.17485 7.63984,-0.43254 10.18645,-0.57264 2.546615,-0.1401 7.547235,-0.43937 11.112495,-0.66503 24.462793,-1.54837 31.917563,-1.90589 43.920853,-2.1064 32.6069,-0.54469 62.04374,3.75531 79.73187,11.64687 15.30913,6.83017 24.51668,15.418158 27.59453,25.737748 0.92684,3.10757 1.15427,8.21105 0.50988,11.4416 -1.28215,6.42778 -4.41681,12.080559 -10.33733,18.641479 -9.85383,10.91966 -26.30248,20.36192 -45.37604,26.04787 -1.09141,0.32536 -2.52016,0.75218 -3.175,0.9485 -8.4754,2.54086 -22.99146,5.14073 -34.52813,6.1841 -1.74625,0.15793 -4.54422,0.41687 -6.21771,0.57543 -2.85245,0.27025 -26.87201,0.54556 -29.76562,0.34117 z M 246.58361,75.233821 c -2.61997,-5.84773 -5.82381,-11.639998 -8.35247,-15.100568 -4.07548,-5.57745 -9.37695,-10.51431 -15.51758,-14.45035 -5.52733,-3.54294 -14.8043,-7.4895 -22.14954,-9.42276 -0.43656,-0.11491 -1.68672,-0.4468 -2.77812,-0.73753 -1.09141,-0.29074 -2.93688,-0.73056 -4.10105,-0.97737 -1.16416,-0.24681 -2.59291,-0.55045 -3.175,-0.67475 -3.81832,-0.81536 -12.71544,-2.02977 -19.31458,-2.63633 -12.41802,-1.14141 -34.93651,-0.97414 -51.46145,0.38226 -8.90163,0.73066 -8.53005,0.69503 -17.99168,1.72524 -6.909403,0.75232 -12.185083,1.40108 -23.680198,2.912 -18.07424,2.37567 -32.31795,3.65915 -47.1581,4.24936 -11.376664,0.45246 -14.822296,-0.24053 -14.194231,-2.85477 0.751061,-3.12619 10.622501,-11.23349 20.871071,-17.14117 2.40222,-1.38474 10.80251,-5.68457 11.10555,-5.68457 0.0693,0 0.8988,-0.35395 1.84333,-0.78656 8.26748,-3.78658 20.3477,-7.5837403 31.501125,-9.9017103 6.56208,-1.36377 12.1567,-2.24807 19.314583,-3.05291 17.08359,-1.92088998 39.19787,-1.24201998 55.82708,1.7138 1.30969,0.23279 2.97657,0.52683 3.70417,0.65341 4.30131,0.74829 12.64226,2.73707 17.33021,4.13213 18.60994,5.5380203 35.5984,14.2145103 47.07566,24.0428803 7.82431,6.70023 13.57009,13.71552 17.32875,21.15748 2.02371,4.00685 2.32664,4.74897 3.43246,8.40881 1.24983,4.13644 1.79974,7.661038 1.84349,11.815728 0.0437,4.15004 -0.2316,4.62067 -1.30348,2.22825 z"
       style="fill:#000000"
       id="path1" />
  </g>
</svg>
