solid OpenSCAD_Model
  facet normal 1 -0 0
    outer loop
      vertex 10 -10 120
      vertex 10 10 20
      vertex 10 10 120
    endloop
  endfacet
  facet normal 1 0 0
    outer loop
      vertex 10 10 20
      vertex 10 -10 120
      vertex 10 -10 20
    endloop
  endfacet
  facet normal -0 0 1
    outer loop
      vertex -10 10 120
      vertex 10 -10 120
      vertex 10 10 120
    endloop
  endfacet
  facet normal 0 0 1
    outer loop
      vertex 10 -10 120
      vertex -10 10 120
      vertex -10 -10 120
    endloop
  endfacet
  facet normal 0 0 -1
    outer loop
      vertex -120 -10 0
      vertex -10 10 0
      vertex -10 -10 0
    endloop
  endfacet
  facet normal -0 0 -1
    outer loop
      vertex -10 10 0
      vertex -120 -10 0
      vertex -120 10 0
    endloop
  endfacet
  facet normal 0 0 -1
    outer loop
      vertex -10 -10 0
      vertex 10 -10 0
      vertex 10 -120 0
    endloop
  endfacet
  facet normal 0 0 -1
    outer loop
      vertex 10 -10 0
      vertex -10 -10 0
      vertex 10 10 0
    endloop
  endfacet
  facet normal 0 0 -1
    outer loop
      vertex -10 -10 0
      vertex 10 -120 0
      vertex -10 -120 0
    endloop
  endfacet
  facet normal 0 0 -1
    outer loop
      vertex -10 10 0
      vertex 10 10 0
      vertex -10 -10 0
    endloop
  endfacet
  facet normal 0 0 -1
    outer loop
      vertex 10 10 0
      vertex -10 10 0
      vertex 10 120 0
    endloop
  endfacet
  facet normal -0 0 -1
    outer loop
      vertex 10 120 0
      vertex -10 10 0
      vertex -10 120 0
    endloop
  endfacet
  facet normal 0 0 -1
    outer loop
      vertex 10 -10 0
      vertex 120 10 0
      vertex 120 -10 0
    endloop
  endfacet
  facet normal -0 0 -1
    outer loop
      vertex 120 10 0
      vertex 10 -10 0
      vertex 10 10 0
    endloop
  endfacet
  facet normal -1 0 0
    outer loop
      vertex -10 -10 20
      vertex -10 10 120
      vertex -10 10 20
    endloop
  endfacet
  facet normal -1 -0 0
    outer loop
      vertex -10 10 120
      vertex -10 -10 20
      vertex -10 -10 120
    endloop
  endfacet
  facet normal 0 1 -0
    outer loop
      vertex 10 10 20
      vertex -10 10 120
      vertex 10 10 120
    endloop
  endfacet
  facet normal 0 1 0
    outer loop
      vertex -10 10 120
      vertex 10 10 20
      vertex -10 10 20
    endloop
  endfacet
  facet normal 0 1 -0
    outer loop
      vertex 120 10 0
      vertex 10 10 20
      vertex 120 10 20
    endloop
  endfacet
  facet normal 0 1 0
    outer loop
      vertex 10 10 20
      vertex 120 10 0
      vertex 10 10 0
    endloop
  endfacet
  facet normal 0 -1 0
    outer loop
      vertex -10 -10 20
      vertex 10 -10 120
      vertex -10 -10 120
    endloop
  endfacet
  facet normal 0 -1 -0
    outer loop
      vertex 10 -10 120
      vertex -10 -10 20
      vertex 10 -10 20
    endloop
  endfacet
  facet normal 0 -1 0
    outer loop
      vertex -120 -10 0
      vertex -10 -10 20
      vertex -120 -10 20
    endloop
  endfacet
  facet normal 0 -1 -0
    outer loop
      vertex -10 -10 20
      vertex -120 -10 0
      vertex -10 -10 0
    endloop
  endfacet
  facet normal 0 -1 0
    outer loop
      vertex 10 -10 0
      vertex 120 -10 20
      vertex 10 -10 20
    endloop
  endfacet
  facet normal 0 -1 -0
    outer loop
      vertex 120 -10 20
      vertex 10 -10 0
      vertex 120 -10 0
    endloop
  endfacet
  facet normal 1 -0 0
    outer loop
      vertex 120 -10 20
      vertex 120 10 0
      vertex 120 10 20
    endloop
  endfacet
  facet normal 1 0 0
    outer loop
      vertex 120 10 0
      vertex 120 -10 20
      vertex 120 -10 0
    endloop
  endfacet
  facet normal -0 0 1
    outer loop
      vertex 10 10 20
      vertex 120 -10 20
      vertex 120 10 20
    endloop
  endfacet
  facet normal 0 0 1
    outer loop
      vertex 120 -10 20
      vertex 10 10 20
      vertex 10 -10 20
    endloop
  endfacet
  facet normal 1 -0 0
    outer loop
      vertex 10 10 20
      vertex 10 120 0
      vertex 10 120 20
    endloop
  endfacet
  facet normal 1 0 0
    outer loop
      vertex 10 120 0
      vertex 10 10 20
      vertex 10 10 0
    endloop
  endfacet
  facet normal -0 0 1
    outer loop
      vertex -10 120 20
      vertex 10 10 20
      vertex 10 120 20
    endloop
  endfacet
  facet normal 0 0 1
    outer loop
      vertex 10 10 20
      vertex -10 120 20
      vertex -10 10 20
    endloop
  endfacet
  facet normal -1 0 0
    outer loop
      vertex -10 10 0
      vertex -10 120 20
      vertex -10 120 0
    endloop
  endfacet
  facet normal -1 -0 0
    outer loop
      vertex -10 120 20
      vertex -10 10 0
      vertex -10 10 20
    endloop
  endfacet
  facet normal 0 1 -0
    outer loop
      vertex 10 120 0
      vertex -10 120 20
      vertex 10 120 20
    endloop
  endfacet
  facet normal 0 1 0
    outer loop
      vertex -10 120 20
      vertex 10 120 0
      vertex -10 120 0
    endloop
  endfacet
  facet normal -0 0 1
    outer loop
      vertex -120 10 20
      vertex -10 -10 20
      vertex -10 10 20
    endloop
  endfacet
  facet normal 0 0 1
    outer loop
      vertex -10 -10 20
      vertex -120 10 20
      vertex -120 -10 20
    endloop
  endfacet
  facet normal -1 0 0
    outer loop
      vertex -120 -10 0
      vertex -120 10 20
      vertex -120 10 0
    endloop
  endfacet
  facet normal -1 -0 0
    outer loop
      vertex -120 10 20
      vertex -120 -10 0
      vertex -120 -10 20
    endloop
  endfacet
  facet normal 0 1 -0
    outer loop
      vertex -10 10 0
      vertex -120 10 20
      vertex -10 10 20
    endloop
  endfacet
  facet normal 0 1 0
    outer loop
      vertex -120 10 20
      vertex -10 10 0
      vertex -120 10 0
    endloop
  endfacet
  facet normal 1 -0 0
    outer loop
      vertex 10 -120 20
      vertex 10 -10 0
      vertex 10 -10 20
    endloop
  endfacet
  facet normal 1 0 0
    outer loop
      vertex 10 -10 0
      vertex 10 -120 20
      vertex 10 -120 0
    endloop
  endfacet
  facet normal -0 0 1
    outer loop
      vertex -10 -10 20
      vertex 10 -120 20
      vertex 10 -10 20
    endloop
  endfacet
  facet normal 0 0 1
    outer loop
      vertex 10 -120 20
      vertex -10 -10 20
      vertex -10 -120 20
    endloop
  endfacet
  facet normal -1 0 0
    outer loop
      vertex -10 -120 0
      vertex -10 -10 20
      vertex -10 -10 0
    endloop
  endfacet
  facet normal -1 -0 0
    outer loop
      vertex -10 -10 20
      vertex -10 -120 0
      vertex -10 -120 20
    endloop
  endfacet
  facet normal 0 -1 0
    outer loop
      vertex -10 -120 0
      vertex 10 -120 20
      vertex -10 -120 20
    endloop
  endfacet
  facet normal 0 -1 -0
    outer loop
      vertex 10 -120 20
      vertex -10 -120 0
      vertex 10 -120 0
    endloop
  endfacet
endsolid OpenSCAD_Model
