solid OpenSCAD_Model
  facet normal 0 0 -1
    outer loop
      vertex 66 0 0
      vertex 46 19.5 0
      vertex 66 19.5 0
    endloop
  endfacet
  facet normal 0 0 -1
    outer loop
      vertex 66 0 0
      vertex 37.05 6.5 0
      vertex 46 19.5 0
    endloop
  endfacet
  facet normal 0 0 -1
    outer loop
      vertex 37.05 6.5 0
      vertex 66 0 0
      vertex 37.05 1.8 0
    endloop
  endfacet
  facet normal 0 0 -1
    outer loop
      vertex 66 0 0
      vertex 28.75 1.8 0
      vertex 37.05 1.8 0
    endloop
  endfacet
  facet normal 0 0 -1
    outer loop
      vertex 0 0 0
      vertex 28.75 6.5 0
      vertex 28.75 1.8 0
    endloop
  endfacet
  facet normal 0 0 -1
    outer loop
      vertex 0 0 0
      vertex 28.75 1.8 0
      vertex 66 0 0
    endloop
  endfacet
  facet normal -0 0 -1
    outer loop
      vertex 28.75 6.5 0
      vertex 0 0 0
      vertex 19 19.5 0
    endloop
  endfacet
  facet normal -0 0 -1
    outer loop
      vertex 19 19.5 0
      vertex 0 0 0
      vertex 0 19.5 0
    endloop
  endfacet
  facet normal 0 0 -1
    outer loop
      vertex 28.75 6.5 0
      vertex 46 19.5 0
      vertex 37.05 6.5 0
    endloop
  endfacet
  facet normal -0 0 -1
    outer loop
      vertex 46 19.5 0
      vertex 28.75 6.5 0
      vertex 19 19.5 0
    endloop
  endfacet
  facet normal 0 0 -1
    outer loop
      vertex 46 19.5 0
      vertex 19 19.5 0
      vertex 46 39.5 0
    endloop
  endfacet
  facet normal -0 0 -1
    outer loop
      vertex 46 39.5 0
      vertex 19 19.5 0
      vertex 19 39.5 0
    endloop
  endfacet
  facet normal 0 -1 0
    outer loop
      vertex 0 0 0
      vertex 66 0 3.2
      vertex 0 0 3.2
    endloop
  endfacet
  facet normal 0 -1 -0
    outer loop
      vertex 66 0 3.2
      vertex 0 0 0
      vertex 66 0 0
    endloop
  endfacet
  facet normal -1 0 0
    outer loop
      vertex 0 0 3.2
      vertex 0 19.5 0
      vertex 0 0 0
    endloop
  endfacet
  facet normal -1 0 0
    outer loop
      vertex 0 19.5 0
      vertex 0 0 3.2
      vertex 0 19.5 3.9
    endloop
  endfacet
  facet normal 0 -0.0358746 0.999356
    outer loop
      vertex 46 19.5 3.9
      vertex 28.75 6.5 3.43333
      vertex 37.05 6.5 3.43333
    endloop
  endfacet
  facet normal 1.48603e-07 -0.0358745 0.999356
    outer loop
      vertex 0 0 3.2
      vertex 28.75 6.5 3.43333
      vertex 19 19.5 3.9
    endloop
  endfacet
  facet normal 0 -0.0358746 0.999356
    outer loop
      vertex 19 19.5 3.9
      vertex 28.75 6.5 3.43333
      vertex 46 19.5 3.9
    endloop
  endfacet
  facet normal 0 -0.0358743 0.999356
    outer loop
      vertex 46 19.5 3.9
      vertex 66 0 3.2
      vertex 66 19.5 3.9
    endloop
  endfacet
  facet normal -1.49492e-07 -0.0358745 0.999356
    outer loop
      vertex 37.05 6.5 3.43333
      vertex 66 0 3.2
      vertex 46 19.5 3.9
    endloop
  endfacet
  facet normal 2.64409e-07 -0.0358726 0.999356
    outer loop
      vertex 37.05 1.8 3.26462
      vertex 66 0 3.2
      vertex 37.05 6.5 3.43333
    endloop
  endfacet
  facet normal 0 -0.0358769 0.999356
    outer loop
      vertex 28.75 1.8 3.26462
      vertex 66 0 3.2
      vertex 37.05 1.8 3.26462
    endloop
  endfacet
  facet normal 0 -0.0358743 0.999356
    outer loop
      vertex 0 0 3.2
      vertex 19 19.5 3.9
      vertex 0 19.5 3.9
    endloop
  endfacet
  facet normal 0 -0.0358769 0.999356
    outer loop
      vertex 28.75 1.8 3.26462
      vertex 0 0 3.2
      vertex 66 0 3.2
    endloop
  endfacet
  facet normal -2.66249e-07 -0.0358726 0.999356
    outer loop
      vertex 28.75 6.5 3.43333
      vertex 0 0 3.2
      vertex 28.75 1.8 3.26462
    endloop
  endfacet
  facet normal 1 -0 0
    outer loop
      vertex 66 0 3.2
      vertex 66 19.5 0
      vertex 66 19.5 3.9
    endloop
  endfacet
  facet normal 1 0 0
    outer loop
      vertex 66 19.5 0
      vertex 66 0 3.2
      vertex 66 0 0
    endloop
  endfacet
  facet normal 0 1 -0
    outer loop
      vertex 19 19.5 0
      vertex 0 19.5 3.9
      vertex 19 19.5 3.9
    endloop
  endfacet
  facet normal 0 1 0
    outer loop
      vertex 0 19.5 3.9
      vertex 19 19.5 0
      vertex 0 19.5 0
    endloop
  endfacet
  facet normal 0 1 -0
    outer loop
      vertex 66 19.5 0
      vertex 46 19.5 3.9
      vertex 66 19.5 3.9
    endloop
  endfacet
  facet normal 0 1 0
    outer loop
      vertex 46 19.5 3.9
      vertex 66 19.5 0
      vertex 46 19.5 0
    endloop
  endfacet
  facet normal -1 0 0
    outer loop
      vertex 37.05 1.8 3.26462
      vertex 37.05 6.5 0
      vertex 37.05 1.8 0
    endloop
  endfacet
  facet normal -1 0 0
    outer loop
      vertex 37.05 6.5 0
      vertex 37.05 1.8 3.26462
      vertex 37.05 6.5 3.43333
    endloop
  endfacet
  facet normal 1 -0 0
    outer loop
      vertex 28.75 1.8 3.26462
      vertex 28.75 6.5 0
      vertex 28.75 6.5 3.43333
    endloop
  endfacet
  facet normal 1 0 0
    outer loop
      vertex 28.75 6.5 0
      vertex 28.75 1.8 3.26462
      vertex 28.75 1.8 0
    endloop
  endfacet
  facet normal 0 -1 0
    outer loop
      vertex 28.75 6.5 0
      vertex 37.05 6.5 3.43333
      vertex 28.75 6.5 3.43333
    endloop
  endfacet
  facet normal 0 -1 -0
    outer loop
      vertex 37.05 6.5 3.43333
      vertex 28.75 6.5 0
      vertex 37.05 6.5 0
    endloop
  endfacet
  facet normal 0 1 -0
    outer loop
      vertex 37.05 1.8 0
      vertex 28.75 1.8 3.26462
      vertex 37.05 1.8 3.26462
    endloop
  endfacet
  facet normal 0 1 0
    outer loop
      vertex 28.75 1.8 3.26462
      vertex 37.05 1.8 0
      vertex 28.75 1.8 0
    endloop
  endfacet
  facet normal 1 0 0
    outer loop
      vertex 46 32.5 3.9
      vertex 46 39.5 9.9
      vertex 46 32.5 9.9
    endloop
  endfacet
  facet normal 1 0 0
    outer loop
      vertex 46 39.5 9.9
      vertex 46 32.5 3.9
      vertex 46 39.5 0
    endloop
  endfacet
  facet normal 1 0 0
    outer loop
      vertex 46 19.5 0
      vertex 46 32.5 3.9
      vertex 46 19.5 3.9
    endloop
  endfacet
  facet normal 1 0 0
    outer loop
      vertex 46 32.5 3.9
      vertex 46 19.5 0
      vertex 46 39.5 0
    endloop
  endfacet
  facet normal -0 0 1
    outer loop
      vertex 19 32.5 3.9
      vertex 46 19.5 3.9
      vertex 46 32.5 3.9
    endloop
  endfacet
  facet normal 0 0 1
    outer loop
      vertex 46 19.5 3.9
      vertex 19 32.5 3.9
      vertex 19 19.5 3.9
    endloop
  endfacet
  facet normal -1 0 0
    outer loop
      vertex 19 39.5 0
      vertex 19 32.5 3.9
      vertex 19 39.5 9.9
    endloop
  endfacet
  facet normal -1 0 0
    outer loop
      vertex 19 19.5 0
      vertex 19 32.5 3.9
      vertex 19 39.5 0
    endloop
  endfacet
  facet normal -1 -0 0
    outer loop
      vertex 19 32.5 3.9
      vertex 19 19.5 0
      vertex 19 19.5 3.9
    endloop
  endfacet
  facet normal -1 -0 0
    outer loop
      vertex 19 39.5 9.9
      vertex 19 32.5 3.9
      vertex 19 32.5 9.9
    endloop
  endfacet
  facet normal 0 1 -0
    outer loop
      vertex 46 39.5 0
      vertex 19 39.5 9.9
      vertex 46 39.5 9.9
    endloop
  endfacet
  facet normal 0 1 0
    outer loop
      vertex 19 39.5 9.9
      vertex 46 39.5 0
      vertex 19 39.5 0
    endloop
  endfacet
  facet normal -0 0 1
    outer loop
      vertex 19 39.5 9.9
      vertex 46 32.5 9.9
      vertex 46 39.5 9.9
    endloop
  endfacet
  facet normal 0 0 1
    outer loop
      vertex 46 32.5 9.9
      vertex 19 39.5 9.9
      vertex 19 32.5 9.9
    endloop
  endfacet
  facet normal 0 -1 0
    outer loop
      vertex 19 32.5 3.9
      vertex 46 32.5 9.9
      vertex 19 32.5 9.9
    endloop
  endfacet
  facet normal 0 -1 -0
    outer loop
      vertex 46 32.5 9.9
      vertex 19 32.5 3.9
      vertex 46 32.5 3.9
    endloop
  endfacet
endsolid OpenSCAD_Model
