solid OpenSCAD_Model
  facet normal 0 0 -1
    outer loop
      vertex 66 0 0
      vertex 46 19.5 0
      vertex 66 19.5 0
    endloop
  endfacet
  facet normal 0 0 -1
    outer loop
      vertex 66 0 0
      vertex 37.3 6.5 0
      vertex 46 19.5 0
    endloop
  endfacet
  facet normal 0 0 -1
    outer loop
      vertex 37.3 6.5 0
      vertex 66 0 0
      vertex 37.3 1.8 0
    endloop
  endfacet
  facet normal 0 0 -1
    outer loop
      vertex 66 0 0
      vertex 28.5 1.8 0
      vertex 37.3 1.8 0
    endloop
  endfacet
  facet normal 0 0 -1
    outer loop
      vertex 0 0 0
      vertex 28.5 6.5 0
      vertex 28.5 1.8 0
    endloop
  endfacet
  facet normal 0 0 -1
    outer loop
      vertex 0 0 0
      vertex 28.5 1.8 0
      vertex 66 0 0
    endloop
  endfacet
  facet normal -0 0 -1
    outer loop
      vertex 28.5 6.5 0
      vertex 0 0 0
      vertex 19 19.5 0
    endloop
  endfacet
  facet normal -0 0 -1
    outer loop
      vertex 19 19.5 0
      vertex 0 0 0
      vertex 0 19.5 0
    endloop
  endfacet
  facet normal 0 0 -1
    outer loop
      vertex 28.5 6.5 0
      vertex 46 19.5 0
      vertex 37.3 6.5 0
    endloop
  endfacet
  facet normal -0 0 -1
    outer loop
      vertex 46 19.5 0
      vertex 28.5 6.5 0
      vertex 19 19.5 0
    endloop
  endfacet
  facet normal 0 0 -1
    outer loop
      vertex 46 19.5 0
      vertex 19 19.5 0
      vertex 46 25.5 0
    endloop
  endfacet
  facet normal -0 0 -1
    outer loop
      vertex 46 25.5 0
      vertex 19 19.5 0
      vertex 19 25.5 0
    endloop
  endfacet
  facet normal -1 0 0
    outer loop
      vertex 0 0 3.2
      vertex 0 19.5 0
      vertex 0 0 0
    endloop
  endfacet
  facet normal -1 0 0
    outer loop
      vertex 0 19.5 0
      vertex 0 0 3.2
      vertex 0 19.5 3.9
    endloop
  endfacet
  facet normal 0 -0.0358746 0.999356
    outer loop
      vertex 46 19.5 3.9
      vertex 28.5 6.5 3.43333
      vertex 37.3 6.5 3.43333
    endloop
  endfacet
  facet normal 1.50279e-07 -0.0358745 0.999356
    outer loop
      vertex 0 0 3.2
      vertex 28.5 6.5 3.43333
      vertex 19 19.5 3.9
    endloop
  endfacet
  facet normal 0 -0.0358746 0.999356
    outer loop
      vertex 19 19.5 3.9
      vertex 28.5 6.5 3.43333
      vertex 46 19.5 3.9
    endloop
  endfacet
  facet normal 0 -0.0358743 0.999356
    outer loop
      vertex 46 19.5 3.9
      vertex 66 0 3.2
      vertex 66 19.5 3.9
    endloop
  endfacet
  facet normal -1.51189e-07 -0.0358745 0.999356
    outer loop
      vertex 37.3 6.5 3.43333
      vertex 66 0 3.2
      vertex 46 19.5 3.9
    endloop
  endfacet
  facet normal 2.66712e-07 -0.0358726 0.999356
    outer loop
      vertex 37.3 1.8 3.26462
      vertex 66 0 3.2
      vertex 37.3 6.5 3.43333
    endloop
  endfacet
  facet normal 0 -0.0358769 0.999356
    outer loop
      vertex 28.5 1.8 3.26462
      vertex 66 0 3.2
      vertex 37.3 1.8 3.26462
    endloop
  endfacet
  facet normal 0 -0.0358743 0.999356
    outer loop
      vertex 0 0 3.2
      vertex 19 19.5 3.9
      vertex 0 19.5 3.9
    endloop
  endfacet
  facet normal 0 -0.0358769 0.999356
    outer loop
      vertex 28.5 1.8 3.26462
      vertex 0 0 3.2
      vertex 66 0 3.2
    endloop
  endfacet
  facet normal -2.68584e-07 -0.0358726 0.999356
    outer loop
      vertex 28.5 6.5 3.43333
      vertex 0 0 3.2
      vertex 28.5 1.8 3.26462
    endloop
  endfacet
  facet normal 0 -1 0
    outer loop
      vertex 0 0 0
      vertex 66 0 3.2
      vertex 0 0 3.2
    endloop
  endfacet
  facet normal 0 -1 -0
    outer loop
      vertex 66 0 3.2
      vertex 0 0 0
      vertex 66 0 0
    endloop
  endfacet
  facet normal 1 -0 0
    outer loop
      vertex 66 0 3.2
      vertex 66 19.5 0
      vertex 66 19.5 3.9
    endloop
  endfacet
  facet normal 1 0 0
    outer loop
      vertex 66 19.5 0
      vertex 66 0 3.2
      vertex 66 0 0
    endloop
  endfacet
  facet normal 0 1 -0
    outer loop
      vertex 19 19.5 0
      vertex 0 19.5 3.9
      vertex 19 19.5 3.9
    endloop
  endfacet
  facet normal 0 1 0
    outer loop
      vertex 0 19.5 3.9
      vertex 19 19.5 0
      vertex 0 19.5 0
    endloop
  endfacet
  facet normal 0 1 -0
    outer loop
      vertex 66 19.5 0
      vertex 46 19.5 3.9
      vertex 66 19.5 3.9
    endloop
  endfacet
  facet normal 0 1 0
    outer loop
      vertex 46 19.5 3.9
      vertex 66 19.5 0
      vertex 46 19.5 0
    endloop
  endfacet
  facet normal -1 0 0
    outer loop
      vertex 37.3 1.8 3.26462
      vertex 37.3 6.5 0
      vertex 37.3 1.8 0
    endloop
  endfacet
  facet normal -1 0 0
    outer loop
      vertex 37.3 6.5 0
      vertex 37.3 1.8 3.26462
      vertex 37.3 6.5 3.43333
    endloop
  endfacet
  facet normal 1 -0 0
    outer loop
      vertex 28.5 1.8 3.26462
      vertex 28.5 6.5 0
      vertex 28.5 6.5 3.43333
    endloop
  endfacet
  facet normal 1 0 0
    outer loop
      vertex 28.5 6.5 0
      vertex 28.5 1.8 3.26462
      vertex 28.5 1.8 0
    endloop
  endfacet
  facet normal 0 -1 0
    outer loop
      vertex 28.5 6.5 0
      vertex 37.3 6.5 3.43333
      vertex 28.5 6.5 3.43333
    endloop
  endfacet
  facet normal 0 -1 -0
    outer loop
      vertex 37.3 6.5 3.43333
      vertex 28.5 6.5 0
      vertex 37.3 6.5 0
    endloop
  endfacet
  facet normal 0 1 -0
    outer loop
      vertex 37.3 1.8 0
      vertex 28.5 1.8 3.26462
      vertex 37.3 1.8 3.26462
    endloop
  endfacet
  facet normal 0 1 0
    outer loop
      vertex 28.5 1.8 3.26462
      vertex 37.3 1.8 0
      vertex 28.5 1.8 0
    endloop
  endfacet
  facet normal 1 -0 0
    outer loop
      vertex 46 19.5 3.9
      vertex 46 25.5 0
      vertex 46 25.5 3.9
    endloop
  endfacet
  facet normal 1 0 0
    outer loop
      vertex 46 25.5 0
      vertex 46 19.5 3.9
      vertex 46 19.5 0
    endloop
  endfacet
  facet normal 0 0 1
    outer loop
      vertex 22.5 25.5 3.9
      vertex 19 25.5 3.9
      vertex 22.5 22.5 3.9
    endloop
  endfacet
  facet normal 0 0 1
    outer loop
      vertex 42.5 22.5 3.9
      vertex 46 25.5 3.9
      vertex 42.5 25.5 3.9
    endloop
  endfacet
  facet normal 0 0 1
    outer loop
      vertex 46 25.5 3.9
      vertex 42.5 22.5 3.9
      vertex 46 19.5 3.9
    endloop
  endfacet
  facet normal -0 0 1
    outer loop
      vertex 22.5 22.5 3.9
      vertex 46 19.5 3.9
      vertex 42.5 22.5 3.9
    endloop
  endfacet
  facet normal 0 0 1
    outer loop
      vertex 22.5 22.5 3.9
      vertex 19 19.5 3.9
      vertex 46 19.5 3.9
    endloop
  endfacet
  facet normal 0 0 1
    outer loop
      vertex 19 19.5 3.9
      vertex 22.5 22.5 3.9
      vertex 19 25.5 3.9
    endloop
  endfacet
  facet normal -1 0 0
    outer loop
      vertex 19 19.5 0
      vertex 19 25.5 3.9
      vertex 19 25.5 0
    endloop
  endfacet
  facet normal -1 -0 0
    outer loop
      vertex 19 25.5 3.9
      vertex 19 19.5 0
      vertex 19 19.5 3.9
    endloop
  endfacet
  facet normal 0 1 -0
    outer loop
      vertex 46 25.5 0
      vertex 42.5 25.5 3.9
      vertex 46 25.5 3.9
    endloop
  endfacet
  facet normal 0 1 0
    outer loop
      vertex 42.5 25.5 3.9
      vertex 46 25.5 0
      vertex 22.5 25.5 3.9
    endloop
  endfacet
  facet normal 0 1 0
    outer loop
      vertex 19 25.5 0
      vertex 22.5 25.5 3.9
      vertex 46 25.5 0
    endloop
  endfacet
  facet normal 0 1 0
    outer loop
      vertex 22.5 25.5 3.9
      vertex 19 25.5 0
      vertex 19 25.5 3.9
    endloop
  endfacet
  facet normal 0 1 -0
    outer loop
      vertex 42.5 25.5 3.9
      vertex 22.5 25.5 7.9
      vertex 42.5 25.5 7.9
    endloop
  endfacet
  facet normal 0 1 0
    outer loop
      vertex 22.5 25.5 7.9
      vertex 42.5 25.5 3.9
      vertex 22.5 25.5 3.9
    endloop
  endfacet
  facet normal 1 -0 0
    outer loop
      vertex 42.5 22.5 7.9
      vertex 42.5 25.5 3.9
      vertex 42.5 25.5 7.9
    endloop
  endfacet
  facet normal 1 0 0
    outer loop
      vertex 42.5 25.5 3.9
      vertex 42.5 22.5 7.9
      vertex 42.5 22.5 3.9
    endloop
  endfacet
  facet normal -0 0 1
    outer loop
      vertex 22.5 25.5 7.9
      vertex 42.5 22.5 7.9
      vertex 42.5 25.5 7.9
    endloop
  endfacet
  facet normal 0 0 1
    outer loop
      vertex 42.5 22.5 7.9
      vertex 22.5 25.5 7.9
      vertex 22.5 22.5 7.9
    endloop
  endfacet
  facet normal -1 0 0
    outer loop
      vertex 22.5 22.5 3.9
      vertex 22.5 25.5 7.9
      vertex 22.5 25.5 3.9
    endloop
  endfacet
  facet normal -1 -0 0
    outer loop
      vertex 22.5 25.5 7.9
      vertex 22.5 22.5 3.9
      vertex 22.5 22.5 7.9
    endloop
  endfacet
  facet normal 0 -1 0
    outer loop
      vertex 22.5 22.5 3.9
      vertex 42.5 22.5 7.9
      vertex 22.5 22.5 7.9
    endloop
  endfacet
  facet normal 0 -1 -0
    outer loop
      vertex 42.5 22.5 7.9
      vertex 22.5 22.5 3.9
      vertex 42.5 22.5 3.9
    endloop
  endfacet
endsolid OpenSCAD_Model
