<?xml version="1.0" standalone="no"?>
<!DOCTYPE svg PUBLIC "-//W3C//DTD SVG 1.1//EN" "http://www.w3.org/Graphics/SVG/1.1/DTD/svg11.dtd">
<svg width="102mm" height="102mm" viewBox="-1 -101 102 102" xmlns="http://www.w3.org/2000/svg" version="1.1">
<title>OpenSCAD Model</title>
<path d="
M 44.8279,-100 L 41.379,-100 L 41.379,-96.5514 L 44.8279,-96.5514 z
M 82.7583,-72.4141 L 82.7583,-68.9659 L 75.8617,-68.9659 L 75.8617,-65.5176 L 72.4141,-65.5176 L 72.4141,-72.4141
 L 68.9652,-72.4141 L 68.9652,-58.6203 L 79.31,-58.6203 L 79.31,-51.7245 L 75.8617,-51.7245 L 75.8617,-48.2762
 L 72.4141,-48.2762 L 72.4141,-51.7245 L 68.9659,-51.7245 L 68.9659,-55.1728 L 62.0693,-55.1728 L 62.0693,-58.6203
 L 65.5176,-58.6203 L 65.5176,-62.0693 L 62.0693,-62.0693 L 62.0693,-65.5169 L 65.5176,-65.5169 L 65.5176,-68.9659
 L 62.0693,-68.9659 L 62.0693,-72.4141 L 58.621,-72.4141 L 58.621,-79.3107 L 55.1721,-79.3107 L 55.1721,-68.9652
 L 58.6203,-68.9652 L 58.6203,-62.0693 L 55.1721,-62.0693 L 55.1721,-58.6203 L 58.6203,-58.6203 L 58.6203,-51.7245
 L 48.2762,-51.7245 L 48.2762,-55.1728 L 41.379,-55.1728 L 41.379,-51.7238 L 48.2755,-51.7238 L 48.2755,-48.2762
 L 44.8272,-48.2762 L 44.8272,-44.8279 L 31.0348,-44.8279 L 31.0348,-48.2762 L 24.1383,-48.2762 L 24.1383,-51.7238
 L 27.5866,-51.7238 L 27.5866,-55.1721 L 34.4824,-55.1721 L 34.4824,-48.2755 L 37.9314,-48.2755 L 37.9314,-55.1728
 L 34.4831,-55.1728 L 34.4831,-58.6203 L 41.3797,-58.6203 L 41.3797,-62.0693 L 37.9314,-62.0693 L 37.9314,-65.5169
 L 41.3797,-65.5169 L 41.3797,-72.4134 L 48.2755,-72.4134 L 48.2755,-68.9652 L 51.7245,-68.9652 L 51.7245,-72.4141
 L 48.2762,-72.4141 L 48.2762,-75.8617 L 51.7245,-75.8617 L 51.7245,-79.3107 L 48.2762,-79.3107 L 48.2762,-82.7583
 L 51.7245,-82.7583 L 51.7245,-86.2066 L 55.1721,-86.2066 L 55.1721,-82.7583 L 58.621,-82.7583 L 58.621,-89.6548
 L 62.0686,-89.6548 L 62.0686,-86.2066 L 65.5169,-86.2066 L 65.5169,-82.7583 L 68.9659,-82.7583 L 68.9659,-93.1038
 L 65.5176,-93.1038 L 65.5176,-96.5514 L 68.9659,-96.5514 L 68.9659,-100 L 62.0686,-100 L 62.0686,-93.1038
 L 58.6203,-93.1038 L 58.6203,-89.6555 L 55.1728,-89.6555 L 55.1728,-100 L 48.2755,-100 L 48.2755,-93.1031
 L 51.7238,-93.1031 L 51.7238,-89.6555 L 41.3797,-89.6555 L 41.3797,-93.1038 L 37.9314,-93.1038 L 37.9314,-100
 L 34.4824,-100 L 34.4824,-96.5521 L 27.5859,-96.5521 L 27.5859,-93.1031 L 34.4824,-93.1031 L 34.4824,-89.6555
 L 31.0341,-89.6555 L 31.0341,-86.2072 L 27.5859,-86.2072 L 27.5859,-82.7583 L 31.0341,-82.7583 L 31.0341,-79.3107
 L 27.5859,-79.3107 L 27.5859,-75.8617 L 31.0348,-75.8617 L 31.0348,-79.31 L 34.4824,-79.31 L 34.4824,-75.8617
 L 37.9307,-75.8617 L 37.9307,-68.9659 L 34.4824,-68.9659 L 34.4824,-65.5176 L 31.0348,-65.5176 L 31.0348,-68.9659
 L 27.5859,-68.9659 L 27.5859,-62.0686 L 31.0341,-62.0686 L 31.0341,-58.621 L 27.5859,-58.621 L 27.5859,-55.1728
 L 24.1383,-55.1728 L 24.1383,-58.621 L 17.2417,-58.621 L 17.2417,-62.0686 L 24.1383,-62.0686 L 24.1383,-65.5176
 L 17.2417,-65.5176 L 17.2417,-72.4141 L 13.7928,-72.4141 L 13.7928,-68.9659 L 10.3452,-68.9659 L 10.3452,-72.4141
 L 6.89621,-72.4141 L 6.89621,-68.9659 L 3.44862,-68.9659 L 3.44862,-72.4141 L -0.000344828,-72.4141 L -0.000344828,-68.9652
 L 3.44793,-68.9652 L 3.44793,-65.5169 L 10.3445,-65.5169 L 10.3445,-62.0693 L -0.000344828,-62.0693 L -0.000344828,-58.6203
 L 6.89621,-58.6203 L 6.89621,-55.1728 L -0.000344828,-55.1728 L -0.000344828,-51.7238 L 6.89621,-51.7238 L 6.89621,-48.2755
 L 10.3452,-48.2755 L 10.3452,-51.7238 L 13.7928,-51.7238 L 13.7928,-44.8279 L 6.89621,-44.8279 L 6.89621,-41.3797
 L 3.44793,-41.3797 L 3.44793,-37.9314 L -0.000344828,-37.9314 L -0.000344828,-34.4824 L 3.44793,-34.4824 L 3.44793,-31.0348
 L -0.000344828,-31.0348 L -0.000344828,-27.5859 L 3.44862,-27.5859 L 3.44862,-31.0341 L 6.8969,-31.0341 L 6.8969,-34.4831
 L 3.44862,-34.4831 L 3.44862,-37.9307 L 6.8969,-37.9307 L 6.8969,-41.379 L 17.241,-41.379 L 17.241,-31.0348
 L 13.7934,-31.0348 L 13.7934,-34.4831 L 10.3445,-34.4831 L 10.3445,-27.5859 L 17.2417,-27.5859 L 17.2417,-31.0341
 L 20.6893,-31.0341 L 20.6893,-27.5859 L 27.5859,-27.5859 L 27.5859,-24.1376 L 34.4824,-24.1376 L 34.4824,-20.69
 L 31.0341,-20.69 L 31.0341,-17.2417 L 27.5859,-17.2417 L 27.5859,-13.7928 L 31.0341,-13.7928 L 31.0341,-10.3452
 L 27.5859,-10.3452 L 27.5859,-6.89621 L 31.0341,-6.89621 L 31.0341,-3.44862 L 27.5859,-3.44862 L 27.5859,0.000344828
 L 44.8279,0.000344828 L 44.8279,-3.44793 L 48.2755,-3.44793 L 48.2755,0.000344828 L 51.7245,0.000344828 L 51.7245,-3.44793
 L 58.6203,-3.44793 L 58.6203,0.000344828 L 62.0693,0.000344828 L 62.0693,-3.44862 L 58.621,-3.44862 L 58.621,-6.89621
 L 72.4141,-6.89621 L 72.4141,-10.3445 L 75.8624,-10.3445 L 75.8624,-13.7931 L 82.7583,-13.7931 L 82.7583,-10.3452
 L 79.31,-10.3452 L 79.31,-3.44793 L 82.7583,-3.44793 L 82.7583,0.000344828 L 89.6555,0.000344828 L 89.6555,-3.44793
 L 93.1031,-3.44793 L 93.1031,0.000344828 L 100,0.000344828 L 100,-10.3452 L 96.5514,-10.3452 L 96.5514,-3.44862
 L 93.1038,-3.44862 L 93.1038,-6.8969 L 89.6548,-6.8969 L 89.6548,-3.44862 L 86.2072,-3.44862 L 86.2072,-6.8969
 L 82.759,-6.8969 L 82.759,-10.3445 L 89.6555,-10.3445 L 89.6555,-13.7934 L 86.2069,-13.7934 L 86.2069,-17.241
 L 100,-17.241 L 100,-24.1383 L 96.5521,-24.1383 L 96.5521,-27.5859 L 100,-27.5859 L 100,-37.9314
 L 96.5521,-37.9314 L 96.5521,-41.379 L 100,-41.379 L 100,-48.2762 L 93.1031,-48.2762 L 93.1031,-44.8279
 L 89.6555,-44.8279 L 89.6555,-51.7245 L 86.2072,-51.7245 L 86.2072,-58.621 L 79.3107,-58.621 L 79.3107,-65.5169
 L 86.2066,-65.5169 L 86.2066,-62.0686 L 89.6555,-62.0686 L 89.6555,-65.5176 L 86.2072,-65.5176 L 86.2072,-72.4141
 z
M 34.4831,-82.759 L 34.4831,-89.6548 L 41.379,-89.6548 L 41.379,-86.2066 L 48.2755,-86.2066 L 48.2755,-82.759
 L 41.379,-82.759 L 41.379,-75.8624 L 37.9314,-75.8624 L 37.9314,-82.759 z
M 44.8279,-75.8624 L 44.8279,-79.31 L 48.2755,-79.31 L 48.2755,-75.8624 z
M 10.3452,-58.621 L 10.3452,-62.0686 L 13.7928,-62.0686 L 13.7928,-58.621 z
M 13.7934,-55.1728 L 13.7934,-58.6203 L 17.241,-58.6203 L 17.241,-55.1728 z
M 24.1376,-51.7245 L 20.6893,-51.7245 L 20.6893,-48.2762 L 17.2417,-48.2762 L 17.2417,-55.1721 L 24.1376,-55.1721
 z
M 6.8969,-51.7245 L 6.8969,-55.1721 L 10.3445,-55.1721 L 10.3445,-51.7245 z
M 89.6555,-20.69 L 89.6555,-37.9314 L 86.2066,-37.9314 L 86.2066,-31.0345 L 79.3107,-31.0345 L 79.3107,-34.4824
 L 82.759,-34.4824 L 82.759,-37.9314 L 79.3107,-37.9314 L 79.3107,-41.379 L 82.759,-41.379 L 82.759,-44.8279
 L 79.3107,-44.8279 L 79.3107,-51.7238 L 86.2066,-51.7238 L 86.2066,-44.8272 L 89.6548,-44.8272 L 89.6548,-41.379
 L 93.1031,-41.379 L 93.1031,-31.0341 L 96.5514,-31.0341 L 96.5514,-27.5866 L 93.1031,-27.5866 L 93.1031,-20.69
 z
M 20.69,-34.4824 L 27.5866,-34.4824 L 27.5866,-41.379 L 31.0341,-41.379 L 31.0341,-37.9307 L 34.4831,-37.9307
 L 34.4831,-41.379 L 44.8279,-41.379 L 44.8279,-44.8272 L 48.2755,-44.8272 L 48.2755,-37.9314 L 44.8272,-37.9314
 L 44.8272,-34.4824 L 48.2762,-34.4824 L 48.2762,-37.9307 L 51.7245,-37.9307 L 51.7245,-48.2755 L 55.1721,-48.2755
 L 55.1721,-44.8272 L 58.621,-44.8272 L 58.621,-48.2755 L 62.0693,-48.2755 L 62.0693,-51.7238 L 68.9652,-51.7238
 L 68.9652,-41.379 L 72.4134,-41.379 L 72.4134,-34.4831 L 68.9652,-34.4831 L 68.9652,-31.0341 L 68.9655,-31.0341
 L 68.9655,-27.5866 L 65.5176,-27.5866 L 65.5176,-31.0348 L 58.621,-31.0348 L 58.621,-34.4824 L 62.0693,-34.4824
 L 62.0693,-37.9307 L 65.5176,-37.9307 L 65.5176,-44.8279 L 62.0686,-44.8279 L 62.0686,-41.3797 L 58.6203,-41.3797
 L 58.6203,-34.4831 L 55.1721,-34.4831 L 55.1721,-27.5866 L 51.7238,-27.5866 L 51.7238,-24.1383 L 48.2762,-24.1383
 L 48.2762,-27.5866 L 44.8279,-27.5866 L 44.8279,-31.0348 L 41.3797,-31.0348 L 41.3797,-34.4831 L 37.9307,-34.4831
 L 37.9307,-31.0348 L 34.4831,-31.0348 L 34.4831,-34.4831 L 31.0341,-34.4831 L 31.0341,-27.5866 L 27.5866,-27.5866
 L 27.5866,-31.0348 L 20.69,-31.0348 z
M 20.69,-44.8279 L 20.69,-48.2755 L 24.1376,-48.2755 L 24.1376,-44.8279 z
M 27.5859,-44.8272 L 27.5859,-41.3797 L 24.1383,-41.3797 L 24.1383,-44.8272 z
M 75.8624,-41.3797 L 75.8624,-44.8272 L 79.31,-44.8272 L 79.31,-41.3797 z
M 20.69,-37.9314 L 20.69,-41.379 L 24.1376,-41.379 L 24.1376,-37.9314 z
M 72.4138,-17.2414 L 72.4138,-27.5862 L 82.7586,-27.5862 L 82.7586,-17.2414 z
M 79.3103,-24.1379 L 75.8621,-24.1379 L 75.8621,-20.6897 L 79.3103,-20.6897 z
M 34.4831,-24.1383 L 34.4831,-27.5859 L 37.9307,-27.5859 L 37.9307,-24.1383 z
M 68.9652,-10.3452 L 65.5176,-10.3452 L 65.5176,-17.2417 L 62.0686,-17.2417 L 62.0686,-13.7934 L 51.7245,-13.7934
 L 51.7245,-24.1376 L 58.6203,-24.1376 L 58.6203,-20.69 L 55.1721,-20.69 L 55.1721,-17.241 L 58.621,-17.241
 L 58.621,-20.6893 L 62.0693,-20.6893 L 62.0693,-24.1376 L 68.9655,-24.1376 L 68.9655,-13.7934 L 68.9652,-13.7934
 z
M 37.9314,-20.69 L 37.9314,-24.1376 L 41.379,-24.1376 L 41.379,-20.69 z
M 44.8279,-20.69 L 44.8279,-24.1376 L 48.2755,-24.1376 L 48.2755,-20.69 z
M 41.3797,-17.2417 L 41.3797,-20.6893 L 44.8272,-20.6893 L 44.8272,-17.2417 z
M 34.4831,-17.2417 L 34.4831,-20.6893 L 37.9307,-20.6893 L 37.9307,-17.2417 z
M 34.4824,-17.241 L 34.4824,-13.7934 L 31.0348,-13.7934 L 31.0348,-17.241 z
M 34.4831,-3.44862 L 34.4831,-10.3445 L 44.8279,-10.3445 L 44.8279,-17.241 L 48.2755,-17.241 L 48.2755,-10.3445
 L 58.6203,-10.3445 L 58.6203,-6.8969 L 51.7238,-6.8969 L 51.7238,-3.44862 L 48.2762,-3.44862 L 48.2762,-6.8969
 L 44.8272,-6.8969 L 44.8272,-3.44862 L 41.3797,-3.44862 L 41.3797,-6.8969 L 37.9307,-6.8969 L 37.9307,-3.44862
 z
M 24.1379,-100 L 0,-100 L 0,-75.8621 L 24.1379,-75.8621 z
M 3.44828,-79.3103 L 3.44828,-96.5517 L 20.6897,-96.5517 L 20.6897,-79.3103 z
M 17.2414,-93.1034 L 6.89655,-93.1034 L 6.89655,-82.7586 L 17.2414,-82.7586 z
M 100,-100 L 75.8621,-100 L 75.8621,-75.8621 L 100,-75.8621 z
M 79.3103,-79.3103 L 79.3103,-96.5517 L 96.5517,-96.5517 L 96.5517,-79.3103 z
M 93.1034,-93.1034 L 82.7586,-93.1034 L 82.7586,-82.7586 L 93.1034,-82.7586 z
M 65.5176,-79.3107 L 62.0686,-79.3107 L 62.0686,-75.8617 L 65.5176,-75.8617 z
M 72.4141,-79.3107 L 68.9652,-79.3107 L 68.9652,-75.8617 L 72.4141,-75.8617 z
M 24.1383,-72.4141 L 20.6893,-72.4141 L 20.6893,-68.9652 L 24.1383,-68.9652 z
M 93.1031,-72.4141 L 93.1031,-62.0686 L 96.5514,-62.0686 L 96.5514,-58.621 L 89.6548,-58.621 L 89.6548,-55.1721
 L 93.1031,-55.1721 L 93.1031,-51.7238 L 96.5521,-51.7238 L 96.5521,-55.1721 L 100,-55.1721 L 100,-65.5176
 L 96.5521,-65.5176 L 96.5521,-72.4141 z
M 48.2762,-65.5176 L 44.8272,-65.5176 L 44.8272,-62.0686 L 48.2762,-62.0686 z
M 3.44862,-48.2762 L -0.000344828,-48.2762 L -0.000344828,-44.8272 L 3.44862,-44.8272 z
M 24.1379,-24.1379 L 0,-24.1379 L 0,-0 L 24.1379,-0 z
M 3.44828,-3.44828 L 3.44828,-20.6897 L 20.6897,-20.6897 L 20.6897,-3.44828 z
M 17.2414,-17.2414 L 6.89655,-17.2414 L 6.89655,-6.89655 L 17.2414,-6.89655 z
" stroke="black" fill="lightgray" stroke-width="0.5"/>
</svg>
