<?xml version="1.0" standalone="no"?>
<!DOCTYPE svg PUBLIC "-//W3C//DTD SVG 1.1//EN" "http://www.w3.org/Graphics/SVG/1.1/DTD/svg11.dtd">
<svg width="102mm" height="102mm" viewBox="-1 -101 102 102" xmlns="http://www.w3.org/2000/svg" version="1.1">
<title>OpenSCAD Model</title>
<path d="
M 52.3814,-85.7148 L 52.3814,-90.4757 L 57.1433,-90.4757 L 57.1433,-95.2376 L 61.9052,-95.2376 L 61.9052,-100
 L 42.8567,-100 L 42.8567,-95.2386 L 38.0948,-95.2386 L 38.0948,-90.4757 L 42.8576,-90.4757 L 42.8576,-95.2376
 L 47.6186,-95.2376 L 47.6186,-85.7138 L 52.3805,-85.7138 L 52.3805,-80.9529 L 38.0948,-80.9529 L 38.0948,-76.19
 L 42.8567,-76.19 L 42.8567,-71.429 L 38.0948,-71.429 L 38.0948,-66.6662 L 42.8576,-66.6662 L 42.8576,-71.4281
 L 47.6186,-71.4281 L 47.6186,-66.6662 L 52.3805,-66.6662 L 52.3805,-61.9052 L 42.8567,-61.9052 L 42.8567,-52.3814
 L 38.0948,-52.3814 L 38.0948,-33.3329 L 42.8576,-33.3329 L 42.8576,-38.0948 L 52.3805,-38.0948 L 52.3805,-33.3338
 L 47.6186,-33.3338 L 47.6186,-28.571 L 52.3805,-28.571 L 52.3805,-23.81 L 38.0948,-23.81 L 38.0948,-19.0471
 L 47.6186,-19.0471 L 47.6186,-14.2862 L 38.0948,-14.2862 L 38.0948,-9.52333 L 47.6195,-9.52333 L 47.6195,-14.2852
 L 52.3814,-14.2852 L 52.3814,-19.0471 L 57.1433,-19.0471 L 57.1433,-23.809 L 61.9043,-23.809 L 61.9043,-19.0471
 L 66.6662,-19.0471 L 66.6662,-14.2852 L 76.19,-14.2852 L 76.19,-9.52429 L 66.6662,-9.52429 L 66.6662,0.00047619
 L 71.429,0.00047619 L 71.429,-4.76143 L 76.19,-4.76143 L 76.19,0.00047619 L 85.7148,0.00047619 L 85.7148,-19.0481
 L 80.9519,-19.0481 L 80.9519,-14.2862 L 76.191,-14.2862 L 76.191,-23.809 L 85.7148,-23.809 L 85.7148,-38.0948
 L 90.4757,-38.0948 L 90.4757,-23.809 L 100,-23.809 L 100,-33.3338 L 95.2386,-33.3338 L 95.2386,-38.0948
 L 100,-38.0948 L 100,-42.8576 L 95.2386,-42.8576 L 95.2386,-47.6186 L 100,-47.6186 L 100,-57.1433
 L 95.2386,-57.1433 L 95.2386,-61.9052 L 90.4757,-61.9052 L 90.4757,-57.1424 L 95.2376,-57.1424 L 95.2376,-47.6195
 L 90.4757,-47.6195 L 90.4757,-42.8576 L 85.7148,-42.8576 L 85.7148,-57.1433 L 80.9529,-57.1433 L 80.9529,-61.9052
 L 76.19,-61.9052 L 76.19,-57.1424 L 80.9519,-57.1424 L 80.9519,-52.3814 L 76.19,-52.3814 L 76.19,-47.6186
 L 80.9519,-47.6186 L 80.9519,-42.8576 L 76.19,-42.8576 L 76.19,-38.0957 L 71.429,-38.0957 L 71.429,-47.6195
 L 66.6662,-47.6195 L 66.6662,-38.0957 L 61.9052,-38.0957 L 61.9052,-42.8576 L 57.1424,-42.8576 L 57.1424,-38.0957
 L 52.3814,-38.0957 L 52.3814,-47.6195 L 47.6186,-47.6195 L 47.6186,-42.8576 L 42.8576,-42.8576 L 42.8576,-52.3805
 L 52.3814,-52.3805 L 52.3814,-57.1424 L 57.1433,-57.1424 L 57.1433,-61.9043 L 61.9052,-61.9043 L 61.9052,-85.7148
 z
M 52.3814,-66.6671 L 52.3814,-71.429 L 47.6195,-71.429 L 47.6195,-76.19 L 52.3814,-76.19 L 52.3814,-80.9519
 L 57.1424,-80.9519 L 57.1424,-66.6671 z
M 90.4767,-38.0957 L 90.4767,-42.8567 L 95.2376,-42.8567 L 95.2376,-38.0957 z
M 76.191,-28.5719 L 76.191,-38.0948 L 80.9519,-38.0948 L 80.9519,-28.5719 z
M 66.6671,-33.3338 L 66.6671,-38.0948 L 71.4281,-38.0948 L 71.4281,-33.3338 z
M 57.1433,-28.5719 L 57.1433,-38.0948 L 61.9043,-38.0948 L 61.9043,-28.5719 z
M 66.6671,-23.81 L 66.6671,-28.571 L 71.4281,-28.571 L 71.4281,-23.81 z
M 76.191,-4.76238 L 76.191,-9.52333 L 80.9519,-9.52333 L 80.9519,-4.76238 z
M 33.3333,-100 L 0,-100 L 0,-66.6667 L 33.3333,-66.6667 z
M 4.7619,-71.4286 L 4.7619,-95.2381 L 28.5714,-95.2381 L 28.5714,-71.4286 z
M 23.8095,-90.4762 L 9.52381,-90.4762 L 9.52381,-76.1905 L 23.8095,-76.1905 z
M 100,-100 L 66.6667,-100 L 66.6667,-66.6667 L 100,-66.6667 z
M 71.4286,-71.4286 L 71.4286,-95.2381 L 95.2381,-95.2381 L 95.2381,-71.4286 z
M 90.4762,-90.4762 L 76.1905,-90.4762 L 76.1905,-76.1905 L 90.4762,-76.1905 z
M 33.3338,-42.8576 L 23.81,-42.8576 L 23.81,-52.3805 L 28.571,-52.3805 L 28.571,-47.6186 L 33.3338,-47.6186
 L 33.3338,-52.3814 L 28.5719,-52.3814 L 28.5719,-57.1424 L 33.3338,-57.1424 L 33.3338,-61.9052 L 28.571,-61.9052
 L 28.571,-57.1433 L 23.81,-57.1433 L 23.81,-61.9052 L 19.0471,-61.9052 L 19.0471,-57.1433 L 14.2862,-57.1433
 L 14.2862,-61.9052 L 9.52333,-61.9052 L 9.52333,-38.0948 L 14.2862,-38.0948 L 14.2862,-52.3805 L 19.0471,-52.3805
 L 19.0471,-38.0948 L 33.3338,-38.0948 z
M -0.00047619,-61.9052 L -0.00047619,-38.0948 L 4.76238,-38.0948 L 4.76238,-61.9052 z
M 71.429,-57.1433 L 66.6662,-57.1433 L 66.6662,-52.3805 L 71.429,-52.3805 z
M 61.9052,-52.3814 L 57.1424,-52.3814 L 57.1424,-47.6186 L 61.9052,-47.6186 z
M 33.3333,-33.3333 L 0,-33.3333 L 0,-0 L 33.3333,-0 z
M 4.7619,-4.7619 L 4.7619,-28.5714 L 28.5714,-28.5714 L 28.5714,-4.7619 z
M 23.8095,-23.8095 L 9.52381,-23.8095 L 9.52381,-9.52381 L 23.8095,-9.52381 z
M 61.9052,-14.2862 L 57.1424,-14.2862 L 57.1424,-9.52333 L 61.9052,-9.52333 z
M 100,-14.2862 L 95.2376,-14.2862 L 95.2376,-4.76238 L 90.4757,-4.76238 L 90.4757,0.00047619 L 100,0.00047619
 z
M 61.9052,-4.76238 L 57.1424,-4.76238 L 57.1424,0.00047619 L 61.9052,0.00047619 z
M 38.0948,0.00047619 L 52.3814,0.00047619 L 52.3814,-4.76238 L 38.0948,-4.76238 z
" stroke="black" fill="lightgray" stroke-width="0.5"/>
</svg>
