  0
SECTION
  2
BLOCKS
  0
ENDSEC
  0
SECTION
  2
ENTITIES
  0
LINE
  8
0
 10
15.4211
 20
64.01
 11
21.8421
 21
64.01
  0
LINE
  8
0
 10
21.8421
 20
64.01
 11
21.8421
 21
61.01
  0
LINE
  8
0
 10
21.8421
 20
61.01
 11
28.2632
 21
61.01
  0
LINE
  8
0
 10
28.2632
 20
61.01
 11
28.2632
 21
64.01
  0
LINE
  8
0
 10
28.2632
 20
64.01
 11
34.6842
 21
64.01
  0
LINE
  8
0
 10
34.6842
 20
64.01
 11
34.6842
 21
61.01
  0
LINE
  8
0
 10
34.6842
 20
61.01
 11
41.1053
 21
61.01
  0
LINE
  8
0
 10
41.1053
 20
61.01
 11
41.1053
 21
64.01
  0
LINE
  8
0
 10
41.1053
 20
64.01
 11
47.5263
 21
64.01
  0
LINE
  8
0
 10
47.5263
 20
64.01
 11
47.5263
 21
61.01
  0
LINE
  8
0
 10
47.5263
 20
61.01
 11
53.9474
 21
61.01
  0
LINE
  8
0
 10
53.9474
 20
61.01
 11
53.9474
 21
64.01
  0
LINE
  8
0
 10
53.9474
 20
64.01
 11
60.3684
 21
64.01
  0
LINE
  8
0
 10
60.3684
 20
64.01
 11
60.3684
 21
61.01
  0
LINE
  8
0
 10
60.3684
 20
61.01
 11
66.7895
 21
61.01
  0
LINE
  8
0
 10
66.7895
 20
61.01
 11
66.7895
 21
64.01
  0
LINE
  8
0
 10
66.7895
 20
64.01
 11
73.2105
 21
64.01
  0
LINE
  8
0
 10
73.2105
 20
64.01
 11
73.2105
 21
61.01
  0
LINE
  8
0
 10
73.2105
 20
61.01
 11
79.6316
 21
61.01
  0
LINE
  8
0
 10
79.6316
 20
61.01
 11
79.6316
 21
64.01
  0
LINE
  8
0
 10
79.6316
 20
64.01
 11
86.0526
 21
64.01
  0
LINE
  8
0
 10
86.0526
 20
64.01
 11
86.0526
 21
61.01
  0
LINE
  8
0
 10
86.0526
 20
61.01
 11
92.4737
 21
61.01
  0
LINE
  8
0
 10
92.4737
 20
61.01
 11
92.4737
 21
64.01
  0
LINE
  8
0
 10
92.4737
 20
64.01
 11
98.8947
 21
64.01
  0
LINE
  8
0
 10
98.8947
 20
64.01
 11
98.8947
 21
61.01
  0
LINE
  8
0
 10
98.8947
 20
61.01
 11
105.316
 21
61.01
  0
LINE
  8
0
 10
105.316
 20
61.01
 11
105.316
 21
64.01
  0
LINE
  8
0
 10
105.316
 20
64.01
 11
111.737
 21
64.01
  0
LINE
  8
0
 10
111.737
 20
64.01
 11
111.737
 21
61.01
  0
LINE
  8
0
 10
111.737
 20
61.01
 11
118.158
 21
61.01
  0
LINE
  8
0
 10
118.158
 20
61.01
 11
118.158
 21
64.01
  0
LINE
  8
0
 10
118.158
 20
64.01
 11
124.579
 21
64.01
  0
LINE
  8
0
 10
124.579
 20
64.01
 11
124.579
 21
61.01
  0
LINE
  8
0
 10
124.579
 20
61.01
 11
131
 21
61.01
  0
LINE
  8
0
 10
131
 20
61.01
 11
131
 21
64.01
  0
LINE
  8
0
 10
131
 20
64.01
 11
137
 21
64.01
  0
LINE
  8
0
 10
137
 20
64.01
 11
137
 21
73.01
  0
LINE
  8
0
 10
137
 20
73.01
 11
140
 21
73.01
  0
LINE
  8
0
 10
140
 20
73.01
 11
140
 21
79.1152
  0
LINE
  8
0
 10
140
 20
79.1152
 11
137
 21
79.1152
  0
LINE
  8
0
 10
137
 20
79.1152
 11
137
 21
85.2205
  0
LINE
  8
0
 10
137
 20
85.2205
 11
140
 21
85.2205
  0
LINE
  8
0
 10
140
 20
85.2205
 11
140
 21
91.3258
  0
LINE
  8
0
 10
140
 20
91.3258
 11
137
 21
91.3258
  0
LINE
  8
0
 10
137
 20
91.3258
 11
137
 21
97.431
  0
LINE
  8
0
 10
137
 20
97.431
 11
140
 21
97.431
  0
LINE
  8
0
 10
140
 20
97.431
 11
140
 21
103.536
  0
LINE
  8
0
 10
140
 20
103.536
 11
137
 21
103.536
  0
LINE
  8
0
 10
137
 20
103.536
 11
137
 21
109.642
  0
LINE
  8
0
 10
137
 20
109.642
 11
140
 21
109.642
  0
LINE
  8
0
 10
140
 20
109.642
 11
140
 21
115.747
  0
LINE
  8
0
 10
140
 20
115.747
 11
137
 21
115.747
  0
LINE
  8
0
 10
137
 20
115.747
 11
137
 21
121.852
  0
LINE
  8
0
 10
137
 20
121.852
 11
140
 21
121.852
  0
LINE
  8
0
 10
140
 20
121.852
 11
140
 21
127.957
  0
LINE
  8
0
 10
140
 20
127.957
 11
137
 21
127.957
  0
LINE
  8
0
 10
137
 20
127.957
 11
137
 21
134.063
  0
LINE
  8
0
 10
137
 20
134.063
 11
140
 21
134.063
  0
LINE
  8
0
 10
140
 20
134.063
 11
140
 21
140.168
  0
LINE
  8
0
 10
140
 20
140.168
 11
137
 21
140.168
  0
LINE
  8
0
 10
137
 20
140.168
 11
137
 21
146.273
  0
LINE
  8
0
 10
137
 20
146.273
 11
140
 21
146.273
  0
LINE
  8
0
 10
140
 20
146.273
 11
140
 21
152.378
  0
LINE
  8
0
 10
140
 20
152.378
 11
137
 21
152.378
  0
LINE
  8
0
 10
137
 20
152.378
 11
137
 21
158.484
  0
LINE
  8
0
 10
137
 20
158.484
 11
140
 21
158.484
  0
LINE
  8
0
 10
140
 20
158.484
 11
140
 21
164.589
  0
LINE
  8
0
 10
140
 20
164.589
 11
137
 21
164.589
  0
LINE
  8
0
 10
137
 20
164.589
 11
137
 21
170.694
  0
LINE
  8
0
 10
137
 20
170.694
 11
140
 21
170.694
  0
LINE
  8
0
 10
140
 20
170.694
 11
140
 21
176.799
  0
LINE
  8
0
 10
140
 20
176.799
 11
137
 21
176.799
  0
LINE
  8
0
 10
137
 20
176.799
 11
137
 21
182.905
  0
LINE
  8
0
 10
137
 20
182.905
 11
140
 21
182.905
  0
LINE
  8
0
 10
140
 20
182.905
 11
140
 21
189.01
  0
LINE
  8
0
 10
140
 20
189.01
 11
137
 21
189.01
  0
LINE
  8
0
 10
137
 20
189.01
 11
137
 21
198.01
  0
LINE
  8
0
 10
137
 20
198.01
 11
131
 21
198.01
  0
LINE
  8
0
 10
131
 20
198.01
 11
131
 21
201.01
  0
LINE
  8
0
 10
131
 20
201.01
 11
124.579
 21
201.01
  0
LINE
  8
0
 10
124.579
 20
201.01
 11
124.579
 21
198.01
  0
LINE
  8
0
 10
124.579
 20
198.01
 11
118.158
 21
198.01
  0
LINE
  8
0
 10
118.158
 20
198.01
 11
118.158
 21
201.01
  0
LINE
  8
0
 10
118.158
 20
201.01
 11
111.737
 21
201.01
  0
LINE
  8
0
 10
111.737
 20
201.01
 11
111.737
 21
198.01
  0
LINE
  8
0
 10
111.737
 20
198.01
 11
105.316
 21
198.01
  0
LINE
  8
0
 10
105.316
 20
198.01
 11
105.316
 21
201.01
  0
LINE
  8
0
 10
105.316
 20
201.01
 11
98.8947
 21
201.01
  0
LINE
  8
0
 10
98.8947
 20
201.01
 11
98.8947
 21
198.01
  0
LINE
  8
0
 10
98.8947
 20
198.01
 11
92.4737
 21
198.01
  0
LINE
  8
0
 10
92.4737
 20
198.01
 11
92.4737
 21
201.01
  0
LINE
  8
0
 10
92.4737
 20
201.01
 11
86.0526
 21
201.01
  0
LINE
  8
0
 10
86.0526
 20
201.01
 11
86.0526
 21
198.01
  0
LINE
  8
0
 10
86.0526
 20
198.01
 11
79.6316
 21
198.01
  0
LINE
  8
0
 10
79.6316
 20
198.01
 11
79.6316
 21
201.01
  0
LINE
  8
0
 10
79.6316
 20
201.01
 11
73.2105
 21
201.01
  0
LINE
  8
0
 10
73.2105
 20
201.01
 11
73.2105
 21
198.01
  0
LINE
  8
0
 10
73.2105
 20
198.01
 11
66.7895
 21
198.01
  0
LINE
  8
0
 10
66.7895
 20
198.01
 11
66.7895
 21
201.01
  0
LINE
  8
0
 10
66.7895
 20
201.01
 11
60.3684
 21
201.01
  0
LINE
  8
0
 10
60.3684
 20
201.01
 11
60.3684
 21
198.01
  0
LINE
  8
0
 10
60.3684
 20
198.01
 11
53.9474
 21
198.01
  0
LINE
  8
0
 10
53.9474
 20
198.01
 11
53.9474
 21
201.01
  0
LINE
  8
0
 10
53.9474
 20
201.01
 11
47.5263
 21
201.01
  0
LINE
  8
0
 10
47.5263
 20
201.01
 11
47.5263
 21
198.01
  0
LINE
  8
0
 10
47.5263
 20
198.01
 11
41.1053
 21
198.01
  0
LINE
  8
0
 10
41.1053
 20
198.01
 11
41.1053
 21
201.01
  0
LINE
  8
0
 10
41.1053
 20
201.01
 11
34.6842
 21
201.01
  0
LINE
  8
0
 10
34.6842
 20
201.01
 11
34.6842
 21
198.01
  0
LINE
  8
0
 10
34.6842
 20
198.01
 11
28.2632
 21
198.01
  0
LINE
  8
0
 10
28.2632
 20
198.01
 11
28.2632
 21
201.01
  0
LINE
  8
0
 10
28.2632
 20
201.01
 11
21.8421
 21
201.01
  0
LINE
  8
0
 10
21.8421
 20
201.01
 11
21.8421
 21
198.01
  0
LINE
  8
0
 10
21.8421
 20
198.01
 11
15.4211
 21
198.01
  0
LINE
  8
0
 10
15.4211
 20
198.01
 11
15.4211
 21
201.01
  0
LINE
  8
0
 10
15.4211
 20
201.01
 11
9
 21
201.01
  0
LINE
  8
0
 10
9
 20
201.01
 11
9
 21
198.01
  0
LINE
  8
0
 10
9
 20
198.01
 11
3
 21
198.01
  0
LINE
  8
0
 10
3
 20
198.01
 11
3
 21
189.01
  0
LINE
  8
0
 10
3
 20
189.01
 11
0
 21
189.01
  0
LINE
  8
0
 10
0
 20
189.01
 11
0
 21
182.905
  0
LINE
  8
0
 10
0
 20
182.905
 11
3
 21
182.905
  0
LINE
  8
0
 10
3
 20
182.905
 11
3
 21
176.799
  0
LINE
  8
0
 10
3
 20
176.799
 11
0
 21
176.799
  0
LINE
  8
0
 10
0
 20
176.799
 11
0
 21
170.694
  0
LINE
  8
0
 10
0
 20
170.694
 11
3
 21
170.694
  0
LINE
  8
0
 10
3
 20
170.694
 11
3
 21
164.589
  0
LINE
  8
0
 10
3
 20
164.589
 11
0
 21
164.589
  0
LINE
  8
0
 10
0
 20
164.589
 11
0
 21
158.484
  0
LINE
  8
0
 10
0
 20
158.484
 11
3
 21
158.484
  0
LINE
  8
0
 10
3
 20
158.484
 11
3
 21
152.378
  0
LINE
  8
0
 10
3
 20
152.378
 11
0
 21
152.378
  0
LINE
  8
0
 10
0
 20
152.378
 11
0
 21
146.273
  0
LINE
  8
0
 10
0
 20
146.273
 11
3
 21
146.273
  0
LINE
  8
0
 10
3
 20
146.273
 11
3
 21
140.168
  0
LINE
  8
0
 10
3
 20
140.168
 11
0
 21
140.168
  0
LINE
  8
0
 10
0
 20
140.168
 11
0
 21
134.063
  0
LINE
  8
0
 10
0
 20
134.063
 11
3
 21
134.063
  0
LINE
  8
0
 10
3
 20
134.063
 11
3
 21
127.957
  0
LINE
  8
0
 10
3
 20
127.957
 11
0
 21
127.957
  0
LINE
  8
0
 10
0
 20
127.957
 11
0
 21
121.852
  0
LINE
  8
0
 10
0
 20
121.852
 11
3
 21
121.852
  0
LINE
  8
0
 10
3
 20
121.852
 11
3
 21
115.747
  0
LINE
  8
0
 10
3
 20
115.747
 11
0
 21
115.747
  0
LINE
  8
0
 10
0
 20
115.747
 11
0
 21
109.642
  0
LINE
  8
0
 10
0
 20
109.642
 11
3
 21
109.642
  0
LINE
  8
0
 10
3
 20
109.642
 11
3
 21
103.536
  0
LINE
  8
0
 10
3
 20
103.536
 11
0
 21
103.536
  0
LINE
  8
0
 10
0
 20
103.536
 11
0
 21
97.4311
  0
LINE
  8
0
 10
0
 20
97.4311
 11
3
 21
97.4311
  0
LINE
  8
0
 10
3
 20
97.4311
 11
3
 21
91.3258
  0
LINE
  8
0
 10
3
 20
91.3258
 11
0
 21
91.3258
  0
LINE
  8
0
 10
0
 20
91.3258
 11
0
 21
85.2205
  0
LINE
  8
0
 10
0
 20
85.2205
 11
3
 21
85.2205
  0
LINE
  8
0
 10
3
 20
85.2205
 11
3
 21
79.1153
  0
LINE
  8
0
 10
3
 20
79.1153
 11
0
 21
79.1153
  0
LINE
  8
0
 10
0
 20
79.1153
 11
0
 21
73.01
  0
LINE
  8
0
 10
0
 20
73.01
 11
3
 21
73.01
  0
LINE
  8
0
 10
3
 20
73.01
 11
3
 21
64.01
  0
LINE
  8
0
 10
3
 20
64.01
 11
8.99998
 21
64.01
  0
LINE
  8
0
 10
8.99998
 20
64.01
 11
8.99998
 21
61.01
  0
LINE
  8
0
 10
8.99998
 20
61.01
 11
15.4211
 21
61.01
  0
LINE
  8
0
 10
15.4211
 20
61.01
 11
15.4211
 21
64.01
  0
LINE
  8
0
 10
144.01
 20
64
 11
150.01
 21
64
  0
LINE
  8
0
 10
150.01
 20
64
 11
150.01
 21
61.01
  0
LINE
  8
0
 10
150.01
 20
61.01
 11
281.01
 21
61.01
  0
LINE
  8
0
 10
281.01
 20
61.01
 11
281.01
 21
201.01
  0
LINE
  8
0
 10
281.01
 20
201.01
 11
150.01
 21
201.01
  0
LINE
  8
0
 10
150.01
 20
201.01
 11
150.01
 21
198.02
  0
LINE
  8
0
 10
150.01
 20
198.02
 11
144.01
 21
198.02
  0
LINE
  8
0
 10
144.01
 20
198.02
 11
144.01
 21
201.01
  0
LINE
  8
0
 10
144.01
 20
201.01
 11
141.01
 21
201.01
  0
LINE
  8
0
 10
141.01
 20
201.01
 11
141.01
 21
61.01
  0
LINE
  8
0
 10
141.01
 20
61.01
 11
144.01
 21
61.01
  0
LINE
  8
0
 10
144.01
 20
61.01
 11
144.01
 21
64
  0
LINE
  8
0
 10
419.02
 20
76.01
 11
422.02
 21
76.01
  0
LINE
  8
0
 10
422.02
 20
76.01
 11
422.02
 21
84.6767
  0
LINE
  8
0
 10
422.02
 20
84.6767
 11
419.02
 21
84.6767
  0
LINE
  8
0
 10
419.02
 20
84.6767
 11
419.02
 21
93.3433
  0
LINE
  8
0
 10
419.02
 20
93.3433
 11
422.02
 21
93.3433
  0
LINE
  8
0
 10
422.02
 20
93.3433
 11
422.02
 21
102.01
  0
LINE
  8
0
 10
422.02
 20
102.01
 11
419.02
 21
102.01
  0
LINE
  8
0
 10
419.02
 20
102.01
 11
419.02
 21
111.01
  0
LINE
  8
0
 10
419.02
 20
111.01
 11
285.02
 21
111.01
  0
LINE
  8
0
 10
285.02
 20
111.01
 11
285.02
 21
102.01
  0
LINE
  8
0
 10
285.02
 20
102.01
 11
282.02
 21
102.01
  0
LINE
  8
0
 10
282.02
 20
102.01
 11
282.02
 21
93.3433
  0
LINE
  8
0
 10
282.02
 20
93.3433
 11
285.02
 21
93.3433
  0
LINE
  8
0
 10
285.02
 20
93.3433
 11
285.02
 21
84.6767
  0
LINE
  8
0
 10
285.02
 20
84.6767
 11
282.02
 21
84.6767
  0
LINE
  8
0
 10
282.02
 20
84.6767
 11
282.02
 21
76.01
  0
LINE
  8
0
 10
282.02
 20
76.01
 11
285.02
 21
76.01
  0
LINE
  8
0
 10
285.02
 20
76.01
 11
285.02
 21
64.01
  0
LINE
  8
0
 10
285.02
 20
64.01
 11
419.02
 21
64.01
  0
LINE
  8
0
 10
419.02
 20
64.01
 11
419.02
 21
76.01
  0
LINE
  8
0
 10
8.99998
 20
3
 11
15.4211
 21
3
  0
LINE
  8
0
 10
15.4211
 20
3
 11
15.4211
 21
0
  0
LINE
  8
0
 10
15.4211
 20
0
 11
21.8421
 21
0
  0
LINE
  8
0
 10
21.8421
 20
0
 11
21.8421
 21
3
  0
LINE
  8
0
 10
21.8421
 20
3
 11
28.2632
 21
3
  0
LINE
  8
0
 10
28.2632
 20
3
 11
28.2632
 21
0
  0
LINE
  8
0
 10
28.2632
 20
0
 11
34.6842
 21
0
  0
LINE
  8
0
 10
34.6842
 20
0
 11
34.6842
 21
3
  0
LINE
  8
0
 10
34.6842
 20
3
 11
41.1053
 21
3
  0
LINE
  8
0
 10
41.1053
 20
3
 11
41.1053
 21
0
  0
LINE
  8
0
 10
41.1053
 20
0
 11
47.5263
 21
0
  0
LINE
  8
0
 10
47.5263
 20
0
 11
47.5263
 21
3
  0
LINE
  8
0
 10
47.5263
 20
3
 11
53.9474
 21
3
  0
LINE
  8
0
 10
53.9474
 20
3
 11
53.9474
 21
0
  0
LINE
  8
0
 10
53.9474
 20
0
 11
60.3684
 21
0
  0
LINE
  8
0
 10
60.3684
 20
0
 11
60.3684
 21
3
  0
LINE
  8
0
 10
60.3684
 20
3
 11
66.7895
 21
3
  0
LINE
  8
0
 10
66.7895
 20
3
 11
66.7895
 21
0
  0
LINE
  8
0
 10
66.7895
 20
0
 11
73.2105
 21
0
  0
LINE
  8
0
 10
73.2105
 20
0
 11
73.2105
 21
3
  0
LINE
  8
0
 10
73.2105
 20
3
 11
79.6316
 21
3
  0
LINE
  8
0
 10
79.6316
 20
3
 11
79.6316
 21
0
  0
LINE
  8
0
 10
79.6316
 20
0
 11
86.0526
 21
0
  0
LINE
  8
0
 10
86.0526
 20
0
 11
86.0526
 21
3
  0
LINE
  8
0
 10
86.0526
 20
3
 11
92.4737
 21
3
  0
LINE
  8
0
 10
92.4737
 20
3
 11
92.4737
 21
0
  0
LINE
  8
0
 10
92.4737
 20
0
 11
98.8947
 21
0
  0
LINE
  8
0
 10
98.8947
 20
0
 11
98.8947
 21
3
  0
LINE
  8
0
 10
98.8947
 20
3
 11
105.316
 21
3
  0
LINE
  8
0
 10
105.316
 20
3
 11
105.316
 21
0
  0
LINE
  8
0
 10
105.316
 20
0
 11
111.737
 21
0
  0
LINE
  8
0
 10
111.737
 20
0
 11
111.737
 21
3
  0
LINE
  8
0
 10
111.737
 20
3
 11
118.158
 21
3
  0
LINE
  8
0
 10
118.158
 20
3
 11
118.158
 21
0
  0
LINE
  8
0
 10
118.158
 20
0
 11
124.579
 21
0
  0
LINE
  8
0
 10
124.579
 20
0
 11
124.579
 21
3
  0
LINE
  8
0
 10
124.579
 20
3
 11
131
 21
3
  0
LINE
  8
0
 10
131
 20
3
 11
131
 21
0
  0
LINE
  8
0
 10
131
 20
0
 11
140
 21
0
  0
LINE
  8
0
 10
140
 20
0
 11
140
 21
9
  0
LINE
  8
0
 10
140
 20
9
 11
137
 21
9
  0
LINE
  8
0
 10
137
 20
9
 11
137
 21
15.4
  0
LINE
  8
0
 10
137
 20
15.4
 11
140
 21
15.4
  0
LINE
  8
0
 10
140
 20
15.4
 11
140
 21
21.8
  0
LINE
  8
0
 10
140
 20
21.8
 11
137
 21
21.8
  0
LINE
  8
0
 10
137
 20
21.8
 11
137
 21
28.2
  0
LINE
  8
0
 10
137
 20
28.2
 11
140
 21
28.2
  0
LINE
  8
0
 10
140
 20
28.2
 11
140
 21
34.6
  0
LINE
  8
0
 10
140
 20
34.6
 11
137
 21
34.6
  0
LINE
  8
0
 10
137
 20
34.6
 11
137
 21
41
  0
LINE
  8
0
 10
137
 20
41
 11
140
 21
41
  0
LINE
  8
0
 10
140
 20
41
 11
140
 21
50
  0
LINE
  8
0
 10
140
 20
50
 11
10
 21
50
  0
LINE
  8
0
 10
10
 20
50
 11
9.92114
 21
51.2533
  0
LINE
  8
0
 10
9.92114
 20
51.2533
 11
9.68582
 21
52.4869
  0
LINE
  8
0
 10
9.68582
 20
52.4869
 11
9.29776
 21
53.6812
  0
LINE
  8
0
 10
9.29776
 20
53.6812
 11
8.76306
 21
54.8175
  0
LINE
  8
0
 10
8.76306
 20
54.8175
 11
8.09016
 21
55.8778
  0
LINE
  8
0
 10
8.09016
 20
55.8778
 11
7.28967
 21
56.8455
  0
LINE
  8
0
 10
7.28967
 20
56.8455
 11
6.37424
 21
57.7051
  0
LINE
  8
0
 10
6.37424
 20
57.7051
 11
5.35826
 21
58.4433
  0
LINE
  8
0
 10
5.35826
 20
58.4433
 11
4.25778
 21
59.0483
  0
LINE
  8
0
 10
4.25778
 20
59.0483
 11
3.09016
 21
59.5106
  0
LINE
  8
0
 10
3.09016
 20
59.5106
 11
1.87381
 21
59.8229
  0
LINE
  8
0
 10
1.87381
 20
59.8229
 11
0.627899
 21
59.9803
  0
LINE
  8
0
 10
0.627899
 20
59.9803
 11
-0.627899
 21
59.9803
  0
LINE
  8
0
 10
-0.627899
 20
59.9803
 11
-1.87381
 21
59.8229
  0
LINE
  8
0
 10
-1.87381
 20
59.8229
 11
-3.09016
 21
59.5106
  0
LINE
  8
0
 10
-3.09016
 20
59.5106
 11
-4.25778
 21
59.0483
  0
LINE
  8
0
 10
-4.25778
 20
59.0483
 11
-5.35826
 21
58.4433
  0
LINE
  8
0
 10
-5.35826
 20
58.4433
 11
-6.37424
 21
57.7051
  0
LINE
  8
0
 10
-6.37424
 20
57.7051
 11
-7.28967
 21
56.8455
  0
LINE
  8
0
 10
-7.28967
 20
56.8455
 11
-8.09016
 21
55.8778
  0
LINE
  8
0
 10
-8.09016
 20
55.8778
 11
-8.76306
 21
54.8175
  0
LINE
  8
0
 10
-8.76306
 20
54.8175
 11
-9.29776
 21
53.6812
  0
LINE
  8
0
 10
-9.29776
 20
53.6812
 11
-9.68582
 21
52.4869
  0
LINE
  8
0
 10
-9.68582
 20
52.4869
 11
-9.92114
 21
51.2533
  0
LINE
  8
0
 10
-9.92114
 20
51.2533
 11
-10
 21
50
  0
LINE
  8
0
 10
-10
 20
50
 11
-9.92114
 21
48.7467
  0
LINE
  8
0
 10
-9.92114
 20
48.7467
 11
-9.68582
 21
47.5131
  0
LINE
  8
0
 10
-9.68582
 20
47.5131
 11
-9.29776
 21
46.3187
  0
LINE
  8
0
 10
-9.29776
 20
46.3187
 11
-8.76306
 21
45.1824
  0
LINE
  8
0
 10
-8.76306
 20
45.1824
 11
-8.09016
 21
44.1221
  0
LINE
  8
0
 10
-8.09016
 20
44.1221
 11
-7.28967
 21
43.1545
  0
LINE
  8
0
 10
-7.28967
 20
43.1545
 11
-6.37424
 21
42.2949
  0
LINE
  8
0
 10
-6.37424
 20
42.2949
 11
-5.35826
 21
41.5567
  0
LINE
  8
0
 10
-5.35826
 20
41.5567
 11
-4.25778
 21
40.9517
  0
LINE
  8
0
 10
-4.25778
 20
40.9517
 11
-3.09016
 21
40.4894
  0
LINE
  8
0
 10
-3.09016
 20
40.4894
 11
-1.87381
 21
40.1771
  0
LINE
  8
0
 10
-1.87381
 20
40.1771
 11
-0.627899
 21
40.0197
  0
LINE
  8
0
 10
-0.627899
 20
40.0197
 11
-0.00999451
 21
40.0197
  0
LINE
  8
0
 10
-0.00999451
 20
40.0197
 11
-0.00999451
 21
41
  0
LINE
  8
0
 10
-0.00999451
 20
41
 11
3
 21
41
  0
LINE
  8
0
 10
3
 20
41
 11
3
 21
34.6
  0
LINE
  8
0
 10
3
 20
34.6
 11
0
 21
34.6
  0
LINE
  8
0
 10
0
 20
34.6
 11
0
 21
28.2
  0
LINE
  8
0
 10
0
 20
28.2
 11
3
 21
28.2
  0
LINE
  8
0
 10
3
 20
28.2
 11
3
 21
21.8
  0
LINE
  8
0
 10
3
 20
21.8
 11
0
 21
21.8
  0
LINE
  8
0
 10
0
 20
21.8
 11
0
 21
15.4
  0
LINE
  8
0
 10
0
 20
15.4
 11
3
 21
15.4
  0
LINE
  8
0
 10
3
 20
15.4
 11
3
 21
9
  0
LINE
  8
0
 10
3
 20
9
 11
0
 21
9
  0
LINE
  8
0
 10
0
 20
9
 11
0
 21
0
  0
LINE
  8
0
 10
0
 20
0
 11
8.99998
 21
0
  0
LINE
  8
0
 10
8.99998
 20
0
 11
8.99998
 21
3
  0
LINE
  8
0
 10
-0.439529
 20
43.0138
 11
-1.31166
 21
43.124
  0
LINE
  8
0
 10
-1.31166
 20
43.124
 11
-2.16312
 21
43.3426
  0
LINE
  8
0
 10
-2.16312
 20
43.3426
 11
-2.98045
 21
43.6662
  0
LINE
  8
0
 10
-2.98045
 20
43.6662
 11
-3.75078
 21
44.0897
  0
LINE
  8
0
 10
-3.75078
 20
44.0897
 11
-4.46196
 21
44.6064
  0
LINE
  8
0
 10
-4.46196
 20
44.6064
 11
-5.10277
 21
45.2082
  0
LINE
  8
0
 10
-5.10277
 20
45.2082
 11
-5.66312
 21
45.8855
  0
LINE
  8
0
 10
-5.66312
 20
45.8855
 11
-6.13414
 21
46.6277
  0
LINE
  8
0
 10
-6.13414
 20
46.6277
 11
-6.50842
 21
47.4231
  0
LINE
  8
0
 10
-6.50842
 20
47.4231
 11
-6.78008
 21
48.2592
  0
LINE
  8
0
 10
-6.78008
 20
48.2592
 11
-6.94479
 21
49.1227
  0
LINE
  8
0
 10
-6.94479
 20
49.1227
 11
-7
 21
50
  0
LINE
  8
0
 10
-7
 20
50
 11
-6.94479
 21
50.8773
  0
LINE
  8
0
 10
-6.94479
 20
50.8773
 11
-6.78008
 21
51.7408
  0
LINE
  8
0
 10
-6.78008
 20
51.7408
 11
-6.50842
 21
52.5769
  0
LINE
  8
0
 10
-6.50842
 20
52.5769
 11
-6.13414
 21
53.3723
  0
LINE
  8
0
 10
-6.13414
 20
53.3723
 11
-5.66312
 21
54.1145
  0
LINE
  8
0
 10
-5.66312
 20
54.1145
 11
-5.10277
 21
54.7918
  0
LINE
  8
0
 10
-5.10277
 20
54.7918
 11
-4.46196
 21
55.3936
  0
LINE
  8
0
 10
-4.46196
 20
55.3936
 11
-3.75078
 21
55.9103
  0
LINE
  8
0
 10
-3.75078
 20
55.9103
 11
-2.98045
 21
56.3338
  0
LINE
  8
0
 10
-2.98045
 20
56.3338
 11
-2.16312
 21
56.6574
  0
LINE
  8
0
 10
-2.16312
 20
56.6574
 11
-1.31166
 21
56.876
  0
LINE
  8
0
 10
-1.31166
 20
56.876
 11
-0.439529
 21
56.9862
  0
LINE
  8
0
 10
-0.439529
 20
56.9862
 11
0.439529
 21
56.9862
  0
LINE
  8
0
 10
0.439529
 20
56.9862
 11
1.31166
 21
56.876
  0
LINE
  8
0
 10
1.31166
 20
56.876
 11
2.16312
 21
56.6574
  0
LINE
  8
0
 10
2.16312
 20
56.6574
 11
2.98045
 21
56.3338
  0
LINE
  8
0
 10
2.98045
 20
56.3338
 11
3.75078
 21
55.9103
  0
LINE
  8
0
 10
3.75078
 20
55.9103
 11
4.46196
 21
55.3936
  0
LINE
  8
0
 10
4.46196
 20
55.3936
 11
5.10277
 21
54.7918
  0
LINE
  8
0
 10
5.10277
 20
54.7918
 11
5.66312
 21
54.1145
  0
LINE
  8
0
 10
5.66312
 20
54.1145
 11
6.13414
 21
53.3723
  0
LINE
  8
0
 10
6.13414
 20
53.3723
 11
6.50842
 21
52.5769
  0
LINE
  8
0
 10
6.50842
 20
52.5769
 11
6.78008
 21
51.7408
  0
LINE
  8
0
 10
6.78008
 20
51.7408
 11
6.94479
 21
50.8773
  0
LINE
  8
0
 10
6.94479
 20
50.8773
 11
7
 21
50
  0
LINE
  8
0
 10
7
 20
50
 11
6.94479
 21
49.1227
  0
LINE
  8
0
 10
6.94479
 20
49.1227
 11
6.78008
 21
48.2592
  0
LINE
  8
0
 10
6.78008
 20
48.2592
 11
6.50842
 21
47.4231
  0
LINE
  8
0
 10
6.50842
 20
47.4231
 11
6.13414
 21
46.6277
  0
LINE
  8
0
 10
6.13414
 20
46.6277
 11
5.66312
 21
45.8855
  0
LINE
  8
0
 10
5.66312
 20
45.8855
 11
5.10277
 21
45.2082
  0
LINE
  8
0
 10
5.10277
 20
45.2082
 11
4.46196
 21
44.6064
  0
LINE
  8
0
 10
4.46196
 20
44.6064
 11
3.75078
 21
44.0897
  0
LINE
  8
0
 10
3.75078
 20
44.0897
 11
2.98045
 21
43.6662
  0
LINE
  8
0
 10
2.98045
 20
43.6662
 11
2.16312
 21
43.3426
  0
LINE
  8
0
 10
2.16312
 20
43.3426
 11
1.31166
 21
43.124
  0
LINE
  8
0
 10
1.31166
 20
43.124
 11
0.439529
 21
43.0138
  0
LINE
  8
0
 10
0.439529
 20
43.0138
 11
-0.439529
 21
43.0138
  0
LINE
  8
0
 10
3
 20
53
 11
0
 21
53
  0
LINE
  8
0
 10
0
 20
53
 11
0
 21
50
  0
LINE
  8
0
 10
0
 20
50
 11
3
 21
50
  0
LINE
  8
0
 10
3
 20
50
 11
3
 21
53
  0
LINE
  8
0
 10
95.9
 20
32.3333
 11
95.9
 21
41
  0
LINE
  8
0
 10
95.9
 20
41
 11
98.91
 21
41
  0
LINE
  8
0
 10
98.91
 20
41
 11
98.91
 21
32.3333
  0
LINE
  8
0
 10
98.91
 20
32.3333
 11
95.9
 21
32.3333
  0
LINE
  8
0
 10
95.9
 20
15
 11
95.9
 21
23.6667
  0
LINE
  8
0
 10
95.9
 20
23.6667
 11
98.91
 21
23.6667
  0
LINE
  8
0
 10
98.91
 20
23.6667
 11
98.91
 21
15
  0
LINE
  8
0
 10
98.91
 20
15
 11
95.9
 21
15
  0
LINE
  8
0
 10
150.01
 20
3
 11
156.431
 21
3
  0
LINE
  8
0
 10
156.431
 20
3
 11
156.431
 21
0
  0
LINE
  8
0
 10
156.431
 20
0
 11
162.852
 21
0
  0
LINE
  8
0
 10
162.852
 20
0
 11
162.852
 21
3
  0
LINE
  8
0
 10
162.852
 20
3
 11
169.273
 21
3
  0
LINE
  8
0
 10
169.273
 20
3
 11
169.273
 21
0
  0
LINE
  8
0
 10
169.273
 20
0
 11
175.694
 21
0
  0
LINE
  8
0
 10
175.694
 20
0
 11
175.694
 21
3
  0
LINE
  8
0
 10
175.694
 20
3
 11
182.115
 21
3
  0
LINE
  8
0
 10
182.115
 20
3
 11
182.115
 21
0
  0
LINE
  8
0
 10
182.115
 20
0
 11
188.536
 21
0
  0
LINE
  8
0
 10
188.536
 20
0
 11
188.536
 21
3
  0
LINE
  8
0
 10
188.536
 20
3
 11
194.957
 21
3
  0
LINE
  8
0
 10
194.957
 20
3
 11
194.957
 21
0
  0
LINE
  8
0
 10
194.957
 20
0
 11
201.378
 21
0
  0
LINE
  8
0
 10
201.378
 20
0
 11
201.378
 21
3
  0
LINE
  8
0
 10
201.378
 20
3
 11
207.799
 21
3
  0
LINE
  8
0
 10
207.799
 20
3
 11
207.799
 21
0
  0
LINE
  8
0
 10
207.799
 20
0
 11
214.221
 21
0
  0
LINE
  8
0
 10
214.221
 20
0
 11
214.221
 21
3
  0
LINE
  8
0
 10
214.221
 20
3
 11
220.642
 21
3
  0
LINE
  8
0
 10
220.642
 20
3
 11
220.642
 21
0
  0
LINE
  8
0
 10
220.642
 20
0
 11
227.063
 21
0
  0
LINE
  8
0
 10
227.063
 20
0
 11
227.063
 21
3
  0
LINE
  8
0
 10
227.063
 20
3
 11
233.484
 21
3
  0
LINE
  8
0
 10
233.484
 20
3
 11
233.484
 21
0
  0
LINE
  8
0
 10
233.484
 20
0
 11
239.905
 21
0
  0
LINE
  8
0
 10
239.905
 20
0
 11
239.905
 21
3
  0
LINE
  8
0
 10
239.905
 20
3
 11
246.326
 21
3
  0
LINE
  8
0
 10
246.326
 20
3
 11
246.326
 21
0
  0
LINE
  8
0
 10
246.326
 20
0
 11
252.747
 21
0
  0
LINE
  8
0
 10
252.747
 20
0
 11
252.747
 21
3
  0
LINE
  8
0
 10
252.747
 20
3
 11
259.168
 21
3
  0
LINE
  8
0
 10
259.168
 20
3
 11
259.168
 21
0
  0
LINE
  8
0
 10
259.168
 20
0
 11
265.589
 21
0
  0
LINE
  8
0
 10
265.589
 20
0
 11
265.589
 21
3
  0
LINE
  8
0
 10
265.589
 20
3
 11
272.01
 21
3
  0
LINE
  8
0
 10
272.01
 20
3
 11
272.01
 21
0
  0
LINE
  8
0
 10
272.01
 20
0
 11
281.01
 21
0
  0
LINE
  8
0
 10
281.01
 20
0
 11
281.01
 21
9
  0
LINE
  8
0
 10
281.01
 20
9
 11
278.01
 21
9
  0
LINE
  8
0
 10
278.01
 20
9
 11
278.01
 21
15.4
  0
LINE
  8
0
 10
278.01
 20
15.4
 11
281.01
 21
15.4
  0
LINE
  8
0
 10
281.01
 20
15.4
 11
281.01
 21
21.8
  0
LINE
  8
0
 10
281.01
 20
21.8
 11
278.01
 21
21.8
  0
LINE
  8
0
 10
278.01
 20
21.8
 11
278.01
 21
28.2
  0
LINE
  8
0
 10
278.01
 20
28.2
 11
281.01
 21
28.2
  0
LINE
  8
0
 10
281.01
 20
28.2
 11
281.01
 21
34.6
  0
LINE
  8
0
 10
281.01
 20
34.6
 11
278.01
 21
34.6
  0
LINE
  8
0
 10
278.01
 20
34.6
 11
278.01
 21
41
  0
LINE
  8
0
 10
278.01
 20
41
 11
281.02
 21
41
  0
LINE
  8
0
 10
281.02
 20
41
 11
281.02
 21
40.0197
  0
LINE
  8
0
 10
281.02
 20
40.0197
 11
281.638
 21
40.0197
  0
LINE
  8
0
 10
281.638
 20
40.0197
 11
282.884
 21
40.1771
  0
LINE
  8
0
 10
282.884
 20
40.1771
 11
284.1
 21
40.4894
  0
LINE
  8
0
 10
284.1
 20
40.4894
 11
285.268
 21
40.9517
  0
LINE
  8
0
 10
285.268
 20
40.9517
 11
286.368
 21
41.5567
  0
LINE
  8
0
 10
286.368
 20
41.5567
 11
287.384
 21
42.2949
  0
LINE
  8
0
 10
287.384
 20
42.2949
 11
288.3
 21
43.1545
  0
LINE
  8
0
 10
288.3
 20
43.1545
 11
289.1
 21
44.1221
  0
LINE
  8
0
 10
289.1
 20
44.1221
 11
289.773
 21
45.1824
  0
LINE
  8
0
 10
289.773
 20
45.1824
 11
290.308
 21
46.3187
  0
LINE
  8
0
 10
290.308
 20
46.3187
 11
290.696
 21
47.5131
  0
LINE
  8
0
 10
290.696
 20
47.5131
 11
290.931
 21
48.7467
  0
LINE
  8
0
 10
290.931
 20
48.7467
 11
291.01
 21
50
  0
LINE
  8
0
 10
291.01
 20
50
 11
290.931
 21
51.2533
  0
LINE
  8
0
 10
290.931
 20
51.2533
 11
290.696
 21
52.4869
  0
LINE
  8
0
 10
290.696
 20
52.4869
 11
290.308
 21
53.6812
  0
LINE
  8
0
 10
290.308
 20
53.6812
 11
289.773
 21
54.8175
  0
LINE
  8
0
 10
289.773
 20
54.8175
 11
289.1
 21
55.8778
  0
LINE
  8
0
 10
289.1
 20
55.8778
 11
288.3
 21
56.8455
  0
LINE
  8
0
 10
288.3
 20
56.8455
 11
287.384
 21
57.7051
  0
LINE
  8
0
 10
287.384
 20
57.7051
 11
286.368
 21
58.4433
  0
LINE
  8
0
 10
286.368
 20
58.4433
 11
285.268
 21
59.0483
  0
LINE
  8
0
 10
285.268
 20
59.0483
 11
284.1
 21
59.5106
  0
LINE
  8
0
 10
284.1
 20
59.5106
 11
282.884
 21
59.8229
  0
LINE
  8
0
 10
282.884
 20
59.8229
 11
281.638
 21
59.9803
  0
LINE
  8
0
 10
281.638
 20
59.9803
 11
280.382
 21
59.9803
  0
LINE
  8
0
 10
280.382
 20
59.9803
 11
279.136
 21
59.8229
  0
LINE
  8
0
 10
279.136
 20
59.8229
 11
277.92
 21
59.5106
  0
LINE
  8
0
 10
277.92
 20
59.5106
 11
276.752
 21
59.0483
  0
LINE
  8
0
 10
276.752
 20
59.0483
 11
275.652
 21
58.4433
  0
LINE
  8
0
 10
275.652
 20
58.4433
 11
274.636
 21
57.7051
  0
LINE
  8
0
 10
274.636
 20
57.7051
 11
273.72
 21
56.8455
  0
LINE
  8
0
 10
273.72
 20
56.8455
 11
272.92
 21
55.8778
  0
LINE
  8
0
 10
272.92
 20
55.8778
 11
272.247
 21
54.8175
  0
LINE
  8
0
 10
272.247
 20
54.8175
 11
271.712
 21
53.6812
  0
LINE
  8
0
 10
271.712
 20
53.6812
 11
271.324
 21
52.4869
  0
LINE
  8
0
 10
271.324
 20
52.4869
 11
271.089
 21
51.2533
  0
LINE
  8
0
 10
271.089
 20
51.2533
 11
271.01
 21
50
  0
LINE
  8
0
 10
271.01
 20
50
 11
141.01
 21
50
  0
LINE
  8
0
 10
141.01
 20
50
 11
141.01
 21
41
  0
LINE
  8
0
 10
141.01
 20
41
 11
144.01
 21
41
  0
LINE
  8
0
 10
144.01
 20
41
 11
144.01
 21
34.6
  0
LINE
  8
0
 10
144.01
 20
34.6
 11
141.01
 21
34.6
  0
LINE
  8
0
 10
141.01
 20
34.6
 11
141.01
 21
28.2
  0
LINE
  8
0
 10
141.01
 20
28.2
 11
144.01
 21
28.2
  0
LINE
  8
0
 10
144.01
 20
28.2
 11
144.01
 21
21.8
  0
LINE
  8
0
 10
144.01
 20
21.8
 11
141.01
 21
21.8
  0
LINE
  8
0
 10
141.01
 20
21.8
 11
141.01
 21
15.4
  0
LINE
  8
0
 10
141.01
 20
15.4
 11
144.01
 21
15.4
  0
LINE
  8
0
 10
144.01
 20
15.4
 11
144.01
 21
9
  0
LINE
  8
0
 10
144.01
 20
9
 11
141.01
 21
9
  0
LINE
  8
0
 10
141.01
 20
9
 11
141.01
 21
0
  0
LINE
  8
0
 10
141.01
 20
0
 11
150.01
 21
0
  0
LINE
  8
0
 10
150.01
 20
0
 11
150.01
 21
3
  0
LINE
  8
0
 10
280.57
 20
43.0138
 11
279.698
 21
43.124
  0
LINE
  8
0
 10
279.698
 20
43.124
 11
278.847
 21
43.3426
  0
LINE
  8
0
 10
278.847
 20
43.3426
 11
278.03
 21
43.6662
  0
LINE
  8
0
 10
278.03
 20
43.6662
 11
277.259
 21
44.0897
  0
LINE
  8
0
 10
277.259
 20
44.0897
 11
276.548
 21
44.6064
  0
LINE
  8
0
 10
276.548
 20
44.6064
 11
275.907
 21
45.2082
  0
LINE
  8
0
 10
275.907
 20
45.2082
 11
275.347
 21
45.8855
  0
LINE
  8
0
 10
275.347
 20
45.8855
 11
274.876
 21
46.6277
  0
LINE
  8
0
 10
274.876
 20
46.6277
 11
274.502
 21
47.4231
  0
LINE
  8
0
 10
274.502
 20
47.4231
 11
274.23
 21
48.2592
  0
LINE
  8
0
 10
274.23
 20
48.2592
 11
274.065
 21
49.1227
  0
LINE
  8
0
 10
274.065
 20
49.1227
 11
274.01
 21
50
  0
LINE
  8
0
 10
274.01
 20
50
 11
274.065
 21
50.8773
  0
LINE
  8
0
 10
274.065
 20
50.8773
 11
274.23
 21
51.7408
  0
LINE
  8
0
 10
274.23
 20
51.7408
 11
274.502
 21
52.5769
  0
LINE
  8
0
 10
274.502
 20
52.5769
 11
274.876
 21
53.3723
  0
LINE
  8
0
 10
274.876
 20
53.3723
 11
275.347
 21
54.1145
  0
LINE
  8
0
 10
275.347
 20
54.1145
 11
275.907
 21
54.7918
  0
LINE
  8
0
 10
275.907
 20
54.7918
 11
276.548
 21
55.3936
  0
LINE
  8
0
 10
276.548
 20
55.3936
 11
277.259
 21
55.9103
  0
LINE
  8
0
 10
277.259
 20
55.9103
 11
278.03
 21
56.3338
  0
LINE
  8
0
 10
278.03
 20
56.3338
 11
278.847
 21
56.6574
  0
LINE
  8
0
 10
278.847
 20
56.6574
 11
279.698
 21
56.876
  0
LINE
  8
0
 10
279.698
 20
56.876
 11
280.57
 21
56.9862
  0
LINE
  8
0
 10
280.57
 20
56.9862
 11
281.45
 21
56.9862
  0
LINE
  8
0
 10
281.45
 20
56.9862
 11
282.322
 21
56.876
  0
LINE
  8
0
 10
282.322
 20
56.876
 11
283.173
 21
56.6574
  0
LINE
  8
0
 10
283.173
 20
56.6574
 11
283.99
 21
56.3338
  0
LINE
  8
0
 10
283.99
 20
56.3338
 11
284.761
 21
55.9103
  0
LINE
  8
0
 10
284.761
 20
55.9103
 11
285.472
 21
55.3936
  0
LINE
  8
0
 10
285.472
 20
55.3936
 11
286.113
 21
54.7918
  0
LINE
  8
0
 10
286.113
 20
54.7918
 11
286.673
 21
54.1145
  0
LINE
  8
0
 10
286.673
 20
54.1145
 11
287.144
 21
53.3723
  0
LINE
  8
0
 10
287.144
 20
53.3723
 11
287.518
 21
52.5769
  0
LINE
  8
0
 10
287.518
 20
52.5769
 11
287.79
 21
51.7408
  0
LINE
  8
0
 10
287.79
 20
51.7408
 11
287.955
 21
50.8773
  0
LINE
  8
0
 10
287.955
 20
50.8773
 11
288.01
 21
50
  0
LINE
  8
0
 10
288.01
 20
50
 11
287.955
 21
49.1227
  0
LINE
  8
0
 10
287.955
 20
49.1227
 11
287.79
 21
48.2592
  0
LINE
  8
0
 10
287.79
 20
48.2592
 11
287.518
 21
47.4231
  0
LINE
  8
0
 10
287.518
 20
47.4231
 11
287.144
 21
46.6277
  0
LINE
  8
0
 10
287.144
 20
46.6277
 11
286.673
 21
45.8855
  0
LINE
  8
0
 10
286.673
 20
45.8855
 11
286.113
 21
45.2082
  0
LINE
  8
0
 10
286.113
 20
45.2082
 11
285.472
 21
44.6064
  0
LINE
  8
0
 10
285.472
 20
44.6064
 11
284.761
 21
44.0897
  0
LINE
  8
0
 10
284.761
 20
44.0897
 11
283.99
 21
43.6662
  0
LINE
  8
0
 10
283.99
 20
43.6662
 11
283.173
 21
43.3426
  0
LINE
  8
0
 10
283.173
 20
43.3426
 11
282.322
 21
43.124
  0
LINE
  8
0
 10
282.322
 20
43.124
 11
281.45
 21
43.0138
  0
LINE
  8
0
 10
281.45
 20
43.0138
 11
280.57
 21
43.0138
  0
LINE
  8
0
 10
284.01
 20
53
 11
281.01
 21
53
  0
LINE
  8
0
 10
281.01
 20
53
 11
281.01
 21
50
  0
LINE
  8
0
 10
281.01
 20
50
 11
284.01
 21
50
  0
LINE
  8
0
 10
284.01
 20
50
 11
284.01
 21
53
  0
LINE
  8
0
 10
182.11
 20
32.3333
 11
182.11
 21
41
  0
LINE
  8
0
 10
182.11
 20
41
 11
185.12
 21
41
  0
LINE
  8
0
 10
185.12
 20
41
 11
185.12
 21
32.3333
  0
LINE
  8
0
 10
185.12
 20
32.3333
 11
182.11
 21
32.3333
  0
LINE
  8
0
 10
182.11
 20
15
 11
182.11
 21
23.6667
  0
LINE
  8
0
 10
182.11
 20
23.6667
 11
185.12
 21
23.6667
  0
LINE
  8
0
 10
185.12
 20
23.6667
 11
185.12
 21
15
  0
LINE
  8
0
 10
185.12
 20
15
 11
182.11
 21
15
  0
LINE
  8
0
 10
445.03
 20
3
 11
451.135
 21
3
  0
LINE
  8
0
 10
451.135
 20
3
 11
451.135
 21
0
  0
LINE
  8
0
 10
451.135
 20
0
 11
457.241
 21
0
  0
LINE
  8
0
 10
457.241
 20
0
 11
457.241
 21
3
  0
LINE
  8
0
 10
457.241
 20
3
 11
463.346
 21
3
  0
LINE
  8
0
 10
463.346
 20
3
 11
463.346
 21
0
  0
LINE
  8
0
 10
463.346
 20
0
 11
469.451
 21
0
  0
LINE
  8
0
 10
469.451
 20
0
 11
469.451
 21
3
  0
LINE
  8
0
 10
469.451
 20
3
 11
475.556
 21
3
  0
LINE
  8
0
 10
475.556
 20
3
 11
475.556
 21
0
  0
LINE
  8
0
 10
475.556
 20
0
 11
481.662
 21
0
  0
LINE
  8
0
 10
481.662
 20
0
 11
481.662
 21
3
  0
LINE
  8
0
 10
481.662
 20
3
 11
487.767
 21
3
  0
LINE
  8
0
 10
487.767
 20
3
 11
487.767
 21
0
  0
LINE
  8
0
 10
487.767
 20
0
 11
493.872
 21
0
  0
LINE
  8
0
 10
493.872
 20
0
 11
493.872
 21
3
  0
LINE
  8
0
 10
493.872
 20
3
 11
499.977
 21
3
  0
LINE
  8
0
 10
499.977
 20
3
 11
499.977
 21
0
  0
LINE
  8
0
 10
499.977
 20
0
 11
506.083
 21
0
  0
LINE
  8
0
 10
506.083
 20
0
 11
506.083
 21
3
  0
LINE
  8
0
 10
506.083
 20
3
 11
512.188
 21
3
  0
LINE
  8
0
 10
512.188
 20
3
 11
512.188
 21
0
  0
LINE
  8
0
 10
512.188
 20
0
 11
518.293
 21
0
  0
LINE
  8
0
 10
518.293
 20
0
 11
518.293
 21
3
  0
LINE
  8
0
 10
518.293
 20
3
 11
524.398
 21
3
  0
LINE
  8
0
 10
524.398
 20
3
 11
524.398
 21
0
  0
LINE
  8
0
 10
524.398
 20
0
 11
530.504
 21
0
  0
LINE
  8
0
 10
530.504
 20
0
 11
530.504
 21
3
  0
LINE
  8
0
 10
530.504
 20
3
 11
536.609
 21
3
  0
LINE
  8
0
 10
536.609
 20
3
 11
536.609
 21
0
  0
LINE
  8
0
 10
536.609
 20
0
 11
542.714
 21
0
  0
LINE
  8
0
 10
542.714
 20
0
 11
542.714
 21
3
  0
LINE
  8
0
 10
542.714
 20
3
 11
548.819
 21
3
  0
LINE
  8
0
 10
548.819
 20
3
 11
548.819
 21
0
  0
LINE
  8
0
 10
548.819
 20
0
 11
554.925
 21
0
  0
LINE
  8
0
 10
554.925
 20
0
 11
554.925
 21
3
  0
LINE
  8
0
 10
554.925
 20
3
 11
561.03
 21
3
  0
LINE
  8
0
 10
561.03
 20
3
 11
561.03
 21
0
  0
LINE
  8
0
 10
561.03
 20
0
 11
570.03
 21
0
  0
LINE
  8
0
 10
570.03
 20
0
 11
570.03
 21
9
  0
LINE
  8
0
 10
570.03
 20
9
 11
573.03
 21
9
  0
LINE
  8
0
 10
573.03
 20
9
 11
573.03
 21
15.4
  0
LINE
  8
0
 10
573.03
 20
15.4
 11
570.03
 21
15.4
  0
LINE
  8
0
 10
570.03
 20
15.4
 11
570.03
 21
21.8
  0
LINE
  8
0
 10
570.03
 20
21.8
 11
573.03
 21
21.8
  0
LINE
  8
0
 10
573.03
 20
21.8
 11
573.03
 21
28.2
  0
LINE
  8
0
 10
573.03
 20
28.2
 11
570.03
 21
28.2
  0
LINE
  8
0
 10
570.03
 20
28.2
 11
570.03
 21
34.6
  0
LINE
  8
0
 10
570.03
 20
34.6
 11
573.03
 21
34.6
  0
LINE
  8
0
 10
573.03
 20
34.6
 11
573.03
 21
41
  0
LINE
  8
0
 10
573.03
 20
41
 11
570.03
 21
41
  0
LINE
  8
0
 10
570.03
 20
41
 11
570.03
 21
50
  0
LINE
  8
0
 10
570.03
 20
50
 11
436.03
 21
50
  0
LINE
  8
0
 10
436.03
 20
50
 11
436.03
 21
41
  0
LINE
  8
0
 10
436.03
 20
41
 11
433.03
 21
41
  0
LINE
  8
0
 10
433.03
 20
41
 11
433.03
 21
34.6
  0
LINE
  8
0
 10
433.03
 20
34.6
 11
436.03
 21
34.6
  0
LINE
  8
0
 10
436.03
 20
34.6
 11
436.03
 21
28.2
  0
LINE
  8
0
 10
436.03
 20
28.2
 11
433.03
 21
28.2
  0
LINE
  8
0
 10
433.03
 20
28.2
 11
433.03
 21
21.8
  0
LINE
  8
0
 10
433.03
 20
21.8
 11
436.03
 21
21.8
  0
LINE
  8
0
 10
436.03
 20
21.8
 11
436.03
 21
15.4
  0
LINE
  8
0
 10
436.03
 20
15.4
 11
433.03
 21
15.4
  0
LINE
  8
0
 10
433.03
 20
15.4
 11
433.03
 21
9
  0
LINE
  8
0
 10
433.03
 20
9
 11
436.03
 21
9
  0
LINE
  8
0
 10
436.03
 20
9
 11
436.03
 21
0
  0
LINE
  8
0
 10
436.03
 20
0
 11
445.03
 21
0
  0
LINE
  8
0
 10
445.03
 20
0
 11
445.03
 21
3
  0
LINE
  8
0
 10
304.02
 20
3
 11
310.125
 21
3
  0
LINE
  8
0
 10
310.125
 20
3
 11
310.125
 21
0
  0
LINE
  8
0
 10
310.125
 20
0
 11
316.231
 21
0
  0
LINE
  8
0
 10
316.231
 20
0
 11
316.231
 21
3
  0
LINE
  8
0
 10
316.231
 20
3
 11
322.336
 21
3
  0
LINE
  8
0
 10
322.336
 20
3
 11
322.336
 21
0
  0
LINE
  8
0
 10
322.336
 20
0
 11
328.441
 21
0
  0
LINE
  8
0
 10
328.441
 20
0
 11
328.441
 21
3
  0
LINE
  8
0
 10
328.441
 20
3
 11
334.546
 21
3
  0
LINE
  8
0
 10
334.546
 20
3
 11
334.546
 21
0
  0
LINE
  8
0
 10
334.546
 20
0
 11
340.652
 21
0
  0
LINE
  8
0
 10
340.652
 20
0
 11
340.652
 21
3
  0
LINE
  8
0
 10
340.652
 20
3
 11
346.757
 21
3
  0
LINE
  8
0
 10
346.757
 20
3
 11
346.757
 21
0
  0
LINE
  8
0
 10
346.757
 20
0
 11
352.862
 21
0
  0
LINE
  8
0
 10
352.862
 20
0
 11
352.862
 21
3
  0
LINE
  8
0
 10
352.862
 20
3
 11
358.967
 21
3
  0
LINE
  8
0
 10
358.967
 20
3
 11
358.967
 21
0
  0
LINE
  8
0
 10
358.967
 20
0
 11
365.073
 21
0
  0
LINE
  8
0
 10
365.073
 20
0
 11
365.073
 21
3
  0
LINE
  8
0
 10
365.073
 20
3
 11
371.178
 21
3
  0
LINE
  8
0
 10
371.178
 20
3
 11
371.178
 21
0
  0
LINE
  8
0
 10
371.178
 20
0
 11
377.283
 21
0
  0
LINE
  8
0
 10
377.283
 20
0
 11
377.283
 21
3
  0
LINE
  8
0
 10
377.283
 20
3
 11
383.388
 21
3
  0
LINE
  8
0
 10
383.388
 20
3
 11
383.388
 21
0
  0
LINE
  8
0
 10
383.388
 20
0
 11
389.494
 21
0
  0
LINE
  8
0
 10
389.494
 20
0
 11
389.494
 21
3
  0
LINE
  8
0
 10
389.494
 20
3
 11
395.599
 21
3
  0
LINE
  8
0
 10
395.599
 20
3
 11
395.599
 21
0
  0
LINE
  8
0
 10
395.599
 20
0
 11
401.704
 21
0
  0
LINE
  8
0
 10
401.704
 20
0
 11
401.704
 21
3
  0
LINE
  8
0
 10
401.704
 20
3
 11
407.809
 21
3
  0
LINE
  8
0
 10
407.809
 20
3
 11
407.809
 21
0
  0
LINE
  8
0
 10
407.809
 20
0
 11
413.915
 21
0
  0
LINE
  8
0
 10
413.915
 20
0
 11
413.915
 21
3
  0
LINE
  8
0
 10
413.915
 20
3
 11
420.02
 21
3
  0
LINE
  8
0
 10
420.02
 20
3
 11
420.02
 21
0
  0
LINE
  8
0
 10
420.02
 20
0
 11
429.02
 21
0
  0
LINE
  8
0
 10
429.02
 20
0
 11
429.02
 21
9
  0
LINE
  8
0
 10
429.02
 20
9
 11
432.02
 21
9
  0
LINE
  8
0
 10
432.02
 20
9
 11
432.02
 21
15.4
  0
LINE
  8
0
 10
432.02
 20
15.4
 11
429.02
 21
15.4
  0
LINE
  8
0
 10
429.02
 20
15.4
 11
429.02
 21
21.8
  0
LINE
  8
0
 10
429.02
 20
21.8
 11
432.02
 21
21.8
  0
LINE
  8
0
 10
432.02
 20
21.8
 11
432.02
 21
28.2
  0
LINE
  8
0
 10
432.02
 20
28.2
 11
429.02
 21
28.2
  0
LINE
  8
0
 10
429.02
 20
28.2
 11
429.02
 21
34.6
  0
LINE
  8
0
 10
429.02
 20
34.6
 11
432.02
 21
34.6
  0
LINE
  8
0
 10
432.02
 20
34.6
 11
432.02
 21
41
  0
LINE
  8
0
 10
432.02
 20
41
 11
429.02
 21
41
  0
LINE
  8
0
 10
429.02
 20
41
 11
429.02
 21
50
  0
LINE
  8
0
 10
429.02
 20
50
 11
295.02
 21
50
  0
LINE
  8
0
 10
295.02
 20
50
 11
295.02
 21
41
  0
LINE
  8
0
 10
295.02
 20
41
 11
292.02
 21
41
  0
LINE
  8
0
 10
292.02
 20
41
 11
292.02
 21
34.6
  0
LINE
  8
0
 10
292.02
 20
34.6
 11
295.02
 21
34.6
  0
LINE
  8
0
 10
295.02
 20
34.6
 11
295.02
 21
28.2
  0
LINE
  8
0
 10
295.02
 20
28.2
 11
292.02
 21
28.2
  0
LINE
  8
0
 10
292.02
 20
28.2
 11
292.02
 21
21.8
  0
LINE
  8
0
 10
292.02
 20
21.8
 11
295.02
 21
21.8
  0
LINE
  8
0
 10
295.02
 20
21.8
 11
295.02
 21
15.4
  0
LINE
  8
0
 10
295.02
 20
15.4
 11
292.02
 21
15.4
  0
LINE
  8
0
 10
292.02
 20
15.4
 11
292.02
 21
9
  0
LINE
  8
0
 10
292.02
 20
9
 11
295.02
 21
9
  0
LINE
  8
0
 10
295.02
 20
9
 11
295.02
 21
0
  0
LINE
  8
0
 10
295.02
 20
0
 11
304.02
 21
0
  0
LINE
  8
0
 10
304.02
 20
0
 11
304.02
 21
3
  0
ENDSEC
  0
SECTION
  2
OBJECTS
  0
DICTIONARY
  0
ENDSEC
  0
EOF
