<?xml version="1.0" encoding="UTF-8" standalone="no"?>
<!-- Created with Inkscape (http://www.inkscape.org/) -->

<svg
   version="1.1"
   id="svg1"
   width="1618.792"
   height="2000"
   viewBox="0 0 1618.792 2000"
   sodipodi:docname="dasskilt2.svg"
   inkscape:version="1.4 (e7c3feb1, 2024-10-09)"
   xmlns:inkscape="http://www.inkscape.org/namespaces/inkscape"
   xmlns:sodipodi="http://sodipodi.sourceforge.net/DTD/sodipodi-0.dtd"
   xmlns="http://www.w3.org/2000/svg"
   xmlns:svg="http://www.w3.org/2000/svg">
  <defs
     id="defs1" />
  <sodipodi:namedview
     id="namedview1"
     pagecolor="#505050"
     bordercolor="#ffffff"
     borderopacity="1"
     inkscape:showpageshadow="0"
     inkscape:pageopacity="0"
     inkscape:pagecheckerboard="1"
     inkscape:deskcolor="#505050"
     showguides="true"
     inkscape:zoom="0.27135023"
     inkscape:cx="657.82146"
     inkscape:cy="1087.1559"
     inkscape:current-layer="g1" />
  <g
     inkscape:groupmode="layer"
     inkscape:label="Image"
     id="g1">
    <path
       style="fill:#000000;stroke-width:1.28105"
       d="m 945.40034,1999.619 c -8.21665,-1.2061 -18.74341,-6.9966 -24.13829,-13.2781 -9.0042,-10.4836 -8.58261,-6.1204 -8.94886,-92.6083 -0.0756,-17.9987 -0.10376,-40.8145 -0.0602,-50.7016 0.0718,-16.5278 0.0128,-45.4621 -0.15732,-72.5181 -0.0371,-5.9989 -0.0691,-28.8143 -0.0718,-50.7009 0,-35.156 -0.0384,-64.4465 -0.16231,-143.1205 -0.0179,-11.6482 -0.0128,-29.8449 0.0192,-40.4373 0.0294,-10.5922 -0.0282,-51.8912 -0.12811,-91.7752 -0.0999,-39.8842 -0.2024,-81.7578 -0.22866,-93.0526 -0.0257,-11.2946 -0.0282,-42.4881 0,-69.3186 0.023,-26.8305 -0.032,-63.7971 -0.12298,-82.148 -0.091,-18.3508 -0.22649,-65.4214 -0.3008,-104.601 -0.0743,-39.1797 -0.21765,-90.8709 -0.31859,-114.86927 -0.10123,-23.99851 -0.1527,-56.34407 -0.1153,-71.87896 0.0781,-32.1629 0.0205,-74.97194 -0.16538,-122.58132 -0.11402,-29.21507 -0.11273,-69.61305 0,-129.65245 0.12554,-64.37331 0.16961,-80.72717 0.26082,-96.93498 0.0551,-9.88791 0.11529,-25.93329 0.13285,-35.65632 0.0282,-15.73691 0.40058,-18.58007 3.38926,-25.89126 3.93667,-9.6299 4.70247,-10.7389 11.91383,-17.25393 14.78785,-13.35954 34.95698,-14.04515 51.876,-1.76311 3.70279,2.68778 10.95418,7.6649 16.11418,11.06032 5.16021,3.39529 17.64932,12.19737 27.75352,19.56019 17.3229,12.62281 43.2443,30.98561 52.915,37.48502 2.3974,1.61117 9.8323,6.91048 16.5222,11.77628 20.3412,14.7947 28.157,20.0151 29.8065,19.90929 2.1948,-0.14092 1.3082,-3.24644 -8.9957,-31.51469 -19.4177,-53.2711 -19.9891,-55.34499 -21.5527,-78.20491 -0.8653,-12.65048 -0.7961,-22.13741 0.218,-29.89159 2.757,-21.08144 10.9443,-45.20883 21.3115,-62.80377 5.714,-9.69766 25.3995,-32.51006 34.8987,-40.44205 8.2865,-6.91932 23.3047,-16.37577 28.4713,-17.92724 1.9917,-0.59812 8.2717,-3.69634 13.9555,-6.88499 5.6837,-3.18854 13.6384,-6.54949 17.677,-7.46865 4.0387,-0.91914 15.2232,-4.72053 24.8547,-8.44748 37.1086,-14.35953 35.2686,-13.88708 60.5928,-15.56179 21.0503,-1.39211 24.1705,-1.29655 36.6572,1.12194 15.2844,2.9605 33.6145,9.92402 47.7457,18.13849 19.7873,11.5024 43.5175,35.66246 53.0227,53.98324 5.8958,11.36341 16.5646,39.40581 23.8544,62.69885 2.1661,6.92125 8.0252,25.03027 13.0204,40.24221 4.9951,15.21193 13.6571,41.80572 19.249,59.09743 5.592,17.29172 13.1168,40.20391 16.7219,50.9159 3.6052,10.712 7.5019,22.5927 8.6596,26.40151 1.1577,3.80881 5.8664,18.23687 10.4638,32.0622 4.5974,13.82546 9.3145,28.25287 10.4825,32.06105 1.1679,3.80817 4.7521,14.84247 7.9647,24.52067 3.2125,9.67819 8.2513,24.95149 11.1975,33.94073 2.9462,8.98912 7.4921,22.84992 10.1022,30.80177 2.6103,7.95172 8.3536,25.49043 12.7633,38.97486 4.4095,13.48445 10.2638,31.30498 13.0094,39.60105 2.7456,8.29607 8.6122,26.40445 13.0368,40.24106 8.6408,27.02076 12.1989,36.55189 16.063,43.02668 3.0039,5.03349 2.8506,18.68832 -0.2911,25.91894 -3.8262,8.80605 1.7333,5.06782 -81.2067,54.60416 -46.7424,27.91722 -80.6582,48.43592 -123.5696,74.75842 -11.8874,7.2918 -27.4603,16.6619 -34.6065,20.8225 -7.1462,4.1605 -24.6594,14.8003 -38.9183,23.6441 -14.2589,8.8439 -37.3065,22.7832 -51.2172,30.9763 -35.1814,20.7214 -35.31,20.8994 -45.1916,62.5089 -3.0648,12.9053 -9.0373,37.2614 -13.272,54.1249 -7.4257,29.569 -14.9893,60.1088 -26.8143,108.2671 -3.0823,12.5533 -7.1752,28.9904 -9.0951,36.5269 -4.0654,15.9591 -12.6704,51.0144 -20.4896,83.4712 -3.0232,12.5496 -8.961,36.6147 -13.1947,53.478 -20.1215,80.1435 -20.114,80.1222 -33.4642,95.222 -14.0387,15.8782 -31.058,24.5348 -50.8153,25.8459 -15.5105,1.0295 -23.7964,-0.1787 -36.4967,-5.3214 -16.68,-6.754 -31.0261,-19.7252 -38.24523,-34.58 -2.65521,-5.4637 -4.03696,-7.0505 -5.75052,-6.6041 -1.24053,0.3234 -2.36388,0.7039 -2.49651,0.8459 -0.13262,0.1419 -0.23702,9.4807 -0.23201,20.7528 0,11.2719 -0.0133,38.4032 -0.0317,60.2914 -0.0235,21.8884 0,49.3259 0.0419,60.9724 0.0736,18.5381 0,54.1966 -0.18109,86.6603 -0.0307,5.6502 0.0174,20.6663 0.10757,33.3689 0.091,12.7027 0.10123,26.277 0.0235,30.1651 -0.0777,3.8881 -0.10245,16.9218 -0.0542,28.9635 0.10501,26.3778 -0.64757,35.1012 -3.66434,42.5091 -6.60198,16.2113 -24.79793,26.6155 -42.1049,24.075 z m 49.89219,-395.2281 c -0.52548,-1.555 -0.99104,-3.258 -1.03439,-3.7848 -0.044,-0.5267 -0.65442,-0.9207 -1.35741,-0.8756 -0.7032,0.045 -1.16774,1.8079 -1.03235,3.9173 0.17209,2.6798 0.86884,3.7952 2.31296,3.7026 1.51938,-0.097 1.81377,-0.8813 1.11119,-2.9595 z m -0.19213,-37.8565 c 1.63738,-7.3706 17.9045,-75.1638 22.9156,-95.5009 3.2702,-13.2714 8.2993,-34.1011 11.1759,-46.2882 8.8218,-37.3751 17.1353,-71.5571 32.1916,-132.3604 3.6419,-14.7073 7.6532,-31.1393 8.914,-36.5155 7.1667,-30.5573 14.8656,-62.4011 23.3284,-96.4901 5.2544,-21.1651 11.1638,-45.806 13.1323,-54.7578 4.1778,-18.9989 7.4287,-27.2637 14.884,-37.8392 7.8666,-11.1588 17.6351,-19.5313 34.6073,-29.6614 8.2386,-4.9174 22.7621,-13.6841 32.2743,-19.4818 9.5121,-5.7976 27.8056,-16.7402 40.652,-24.31666 12.8465,-7.57651 25.3541,-15.20323 27.7951,-16.9484 2.4408,-1.74505 16.6765,-10.49076 31.6349,-19.43478 77.8533,-46.55034 74.5896,-44.35373 78.1494,-52.59766 3.86,-8.93839 2.5638,-15.67491 -9.2667,-48.1619 -2.6379,-7.24394 -11.6447,-33.23808 -20.0149,-57.76477 -8.3703,-24.52656 -16.9097,-49.39542 -18.9766,-55.2639 -2.0668,-5.86861 -9.4849,-27.63221 -16.4844,-48.36379 -6.9996,-20.73147 -14.8492,-43.62277 -17.444,-50.8694 -8.8098,-24.60433 -33.4774,-97.82237 -46.3452,-137.56125 -3.2518,-10.04201 -4.054,-11.40249 -7.2511,-12.29819 -4.9178,-1.37777 -10.1049,1.02894 -11.9173,5.52951 -1.2578,3.12371 -0.9828,5.02146 2.0233,13.96086 1.9135,5.69017 6.8647,20.52624 11.0028,32.96906 16.2751,48.93809 37.033,110.80976 47.008,140.11336 9.9509,29.233 10.4786,31.31535 10.512,41.48892 0.03,9.04304 -0.6197,12.28359 -4.1689,20.80666 -10.188,24.46545 -30.085,37.11272 -56.4146,35.85909 -16.7044,-0.79527 -17.5925,-1.32191 -95.0004,-56.33306 -31.1325,-22.12486 -76.3094,-53.95134 -79.8673,-56.2653 -1.976,-1.28515 -8.0266,-5.51798 -13.4457,-9.40636 -5.4192,-3.88823 -11.4536,-8.1221 -13.4098,-9.40865 -1.9562,-1.28643 -9.7886,-6.71359 -17.4053,-12.06018 -7.6169,-5.34658 -14.30781,-9.39495 -14.86887,-8.99641 -1.66979,1.18625 -1.69914,2.98817 -1.94659,119.5296 -0.19745,92.95145 -0.21371,107.94048 -0.13938,128.37742 0.0409,11.29385 0.0133,28.91428 -0.0624,39.15653 -0.15982,21.69493 -0.21575,70.32851 -0.11401,98.85095 0.27915,77.9849 0.29173,106.5445 0.0542,120.0212 -0.15021,8.482 -0.2043,30.1476 -0.12035,48.1459 0.14551,31.1405 0.13385,45.1721 -0.0736,89.2208 -0.0501,10.5936 -0.14755,31.6844 -0.21698,46.8684 -0.0695,15.184 -0.091,41.4689 -0.0491,58.4108 0.0419,16.9419 -0.0317,51.8951 -0.16606,77.6735 -0.30891,59.4706 -0.37026,103.8199 -0.14858,107.5182 0.204,3.4022 2.33751,3.7123 3.06341,0.4452 z m -810.41913,360.9772 c -33.03721,-2.8258 -63.30641,-26.3551 -68.53435,-53.2741 -0.8803,-4.5327 -1.34208,-11.3975 -1.02618,-15.2552 0.54628,-6.6717 7.72566,-29.6357 21.93706,-70.1684 24.95137,-71.1645 49.23154,-141.2259 62.10618,-179.2098 3.54714,-10.4651 10.10783,-29.3117 14.57929,-41.8813 4.47146,-12.5698 10.82362,-30.885 14.11594,-40.7005 3.29232,-9.8154 15.75563,-45.9122 27.69623,-80.215 33.91782,-97.4383 34.45257,-99.036 33.70106,-100.6861 -0.47309,-1.0388 -3.64559,-1.3705 -9.50643,-0.9944 l -8.79639,0.5647 -7.14508,20.6768 c -3.92979,11.3721 -13.08568,37.81 -20.34642,58.7509 -7.26072,20.9409 -16.7252,48.4095 -21.03218,61.0414 -4.30696,12.6319 -9.58552,27.9899 -11.73011,34.1288 -2.14459,6.1388 -3.84515,12.169 -3.77902,13.4004 0.066,1.2312 -0.59914,2.281 -1.47836,2.3328 -0.93972,0.055 -5.47469,-9.5736 -11.00333,-23.3627 -5.17263,-12.9013 -20.79748,-50.742 -34.72187,-84.0905 -13.9244,-33.3485 -27.14074,-65.1377 -29.36966,-70.6428 l -4.05253,-10.0094 -14.11485,0.088 c -7.76315,0.049 -32.568625,0.5759 -55.123252,1.1714 -25.199589,0.6652 -42.277281,0.5885 -44.299889,-0.1989 -5.0162752,-1.9531 -5.148417,-7.4617 -0.675976,-28.1797 3.306929,-15.319 15.88134,-75.6272 22.696299,-108.8539 0.953828,-4.6503 3.969325,-18.7077 6.701121,-31.2387 6.581843,-30.1909 12.437473,-58.3741 20.81434,-100.1796 3.797846,-18.9536 8.682613,-42.9512 10.855053,-53.328 2.172431,-10.3769 6.141592,-29.40558 8.820339,-42.28601 2.678747,-12.88043 5.717721,-27.22804 6.75328,-31.88375 1.035569,-4.65559 2.340483,-12.1045 2.899829,-16.55306 0.559335,-4.44857 1.517427,-8.12044 2.129074,-8.15976 0.611648,-0.0397 1.153283,0.57057 1.203653,1.35521 0.05031,0.78465 3.57699,9.36753 7.836919,19.07314 11.51562,26.23651 16.30252,37.26031 29.62829,68.23103 21.40514,49.7482 25.38449,58.9022 36.37336,83.672 5.93867,13.3864 14.0887,32.2147 18.11117,41.8409 15.47289,37.0281 28.17437,63.9959 33.34271,70.7933 10.90214,14.3382 31.25358,26.6221 47.42811,28.6268 9.77145,1.211 27.76667,-0.1984 35.43184,-2.7753 16.56264,-5.5682 36.50571,-22.9493 43.20477,-37.6546 7.27101,-15.9608 7.62178,-37.4394 0.90912,-55.6695 l -3.87711,-10.5293 5.38646,-7.5391 c 2.96255,-4.1465 8.09116,-14.3558 11.39692,-22.6874 6.65737,-16.7786 32.82809,-85.018 40.88365,-106.60288 5.7316,-15.35784 7.90607,-20.96447 20.67793,-53.31658 12.39517,-31.39772 24.42869,-64.28658 24.29329,-66.39595 -0.0704,-1.09082 0.34986,-1.33729 1.08492,-0.63682 0.65949,0.62836 3.28666,9.38445 5.83812,19.4581 2.55134,10.07365 6.45136,25.13122 8.66667,33.46136 2.2152,8.33014 7.94328,30.20225 12.72914,48.60476 4.78574,18.40251 14.71617,56.17921 22.06759,83.94851 7.35143,27.7691 18.80156,71.225 25.44482,96.5684 6.64339,25.3437 16.59482,63.1191 22.11435,83.9456 5.51965,20.8265 12.36236,46.6706 15.20617,57.4316 2.84379,10.7607 5.51363,22.9117 5.93305,27.0016 1.28245,12.5069 3.80445,11.9341 -56.65218,12.8691 -21.15984,0.3273 -42.75062,0.7071 -47.97961,0.844 l -9.50717,0.2488 -6.13801,15.9943 c -3.37595,8.7968 -7.81631,20.9238 -9.86766,26.9489 -2.05121,6.0252 -7.02604,19.8313 -11.05493,30.6801 -8.92154,24.0237 -31.86989,86.9559 -44.09714,120.9298 -4.94209,13.7317 -13.2788,36.7957 -18.52599,51.2529 -5.24721,14.4574 -11.14758,30.7217 -13.11193,36.1431 -1.96435,5.4213 -5.15711,14.0022 -7.09502,19.0687 -1.9379,5.0668 -9.41195,25.4756 -16.60897,45.3534 -7.19703,19.8778 -19.73952,54.187 -27.87221,76.2428 -18.24504,49.4807 -38.72693,106.2479 -43.38393,120.2422 -7.03759,21.148 -24.46563,36.2282 -47.16877,40.8142 -10.93954,2.2097 -11.18728,2.2256 -21.32161,1.3587 z m 85.34656,-702.5709 c -15.43339,-2.5936 -32.97861,-14.2378 -39.62068,-26.2952 -1.59167,-2.8894 -9.7849,-21.1835 -18.20717,-40.6535 -30.28424,-70.0091 -38.86861,-89.6531 -54.75269,-125.2937 C 148.576,1012.7931 133.65687,978.8024 124.2937,957.16357 114.93052,935.52475 101.747,905.46636 94.996996,890.36703 88.246987,875.26783 77.67314,851.39601 71.499563,837.31883 65.325987,823.24152 59.385098,810.04801 58.297605,807.99973 57.210112,805.95147 53.930771,798.65231 51.010174,791.77962 40.762504,767.66465 18.575099,716.6847 11.784128,701.65007 5.8781691,688.57479 4.5819669,684.28661 2.4584957,670.79846 -3.5565719,632.59081 1.4185911,600.93804 17.905566,572.52157 37.398446,538.92416 68.422295,517.3923 111.5033,507.56052 c 4.52291,-1.03215 24.25589,-4.08898 43.85107,-6.79288 19.59517,-2.70392 51.37399,-7.08485 70.61957,-9.73534 77.84519,-10.72095 104.46151,-14.45201 120.19489,-16.84885 26.98732,-4.11127 54.37598,-3.46793 72.66951,1.70699 37.2247,10.53009 64.5857,32.55105 84.47321,67.98677 10.00601,17.82898 14.43151,32.06808 16.6722,53.64453 3.30177,31.79228 2.53442,35.24945 -21.35136,96.20504 -12.49919,31.89759 -29.30384,75.10542 -36.09904,92.81707 -3.47138,9.04817 -11.28206,29.18996 -17.35718,44.75943 -6.07498,15.5696 -13.89796,36.00105 -17.3842,45.40316 -3.48638,9.40213 -7.80619,20.65486 -9.59966,25.00619 -1.79337,4.35135 -9.08364,23.01544 -16.20058,41.47599 -7.11693,18.46054 -16.36051,42.07795 -20.54128,52.48326 -4.18076,10.40522 -9.32349,24.31032 -11.42825,30.90012 -2.10478,6.5899 -8.02769,23.2268 -13.162,36.9709 -18.9478,50.7215 -21.8332,56.1491 -34.49374,64.8862 -11.16627,7.7059 -18.66485,10.1565 -31.73158,10.3699 -9.87797,0.1613 -12.54334,-0.3404 -21.38084,-4.0239 -12.26461,-5.112 -22.94231,-14.1009 -28.70926,-24.1684 -3.86517,-6.7475 -4.21354,-8.2805 -5.13146,-22.5799 l -0.98477,-15.341 5.87494,-15.7813 c 3.23121,-8.68 7.35391,-19.6312 9.16154,-24.3364 1.80763,-4.7052 5.99368,-15.9494 9.30235,-24.9871 3.30866,-9.03778 9.12871,-24.43047 12.93344,-34.20602 14.35515,-36.88317 27.18393,-70.41691 42.29023,-110.54421 8.57972,-22.79061 19.20139,-50.91128 23.60372,-62.49029 14.92836,-39.26464 26.0182,-68.35276 34.86686,-91.45429 15.43996,-40.30946 17.5551,-46.5889 17.39058,-51.62918 -0.24392,-7.47351 -7.24444,-11.38096 -14.45627,-8.06894 -2.27652,1.04547 -3.24683,3.42848 -23.80799,58.47076 -17.25687,46.19664 -34.19113,90.89177 -51.59385,136.17323 -1.94744,5.06719 -6.63058,17.78748 -10.40697,28.26736 -3.77638,10.47973 -9.91944,27.04856 -13.65123,36.81936 -7.23308,18.93825 -11.44581,30.64818 -12.48834,34.71308 -0.37008,1.4431 -1.12201,2.03469 -1.77625,1.39775 -0.62397,-0.6076 -4.69142,-9.82999 -9.03877,-20.49433 -4.34735,-10.66435 -13.35068,-32.03748 -20.0074,-47.49576 -13.22937,-30.72133 -20.6932,-48.23249 -39.14439,-91.83808 -17.14491,-40.51841 -16.71938,-39.63524 -20.84764,-43.26971 -2.05545,-1.80974 -4.95816,-3.21185 -6.45046,-3.11615 -3.10494,0.19933 -8.64599,5.92279 -8.46493,8.74354 0.0668,1.03982 2.87318,7.96222 6.2365,15.3832 3.36333,7.42086 8.73132,19.96757 11.92888,27.88163 3.19758,7.91406 9.47534,22.53018 13.95061,32.48034 18.02374,40.07324 62.9083,144.7204 63.0554,147.01206 0.062,0.96553 -1.57927,5.74895 -3.64725,10.62975 -2.06797,4.88092 -6.33073,15.97121 -9.47281,24.6452 -3.14209,8.6739 -9.33807,25.2461 -13.76886,36.8271 -8.56293,22.3811 -10.473,31.8493 -9.33914,46.2938 2.00252,25.5103 16.6716,47.8907 38.78924,59.1803 13.10666,6.69 22.69155,8.6605 38.09834,7.8326 13.3894,-0.7196 20.93776,-2.6335 28.80182,-7.3032 6.26892,-3.7226 6.91933,-3.5874 8.75259,1.8185 3.7136,10.9506 4.55923,22.4276 2.34636,31.8454 -2.74594,11.6865 -9.78361,24.1445 -17.13421,30.3309 -11.4056,9.599 -31.43792,15.0192 -46.28736,12.524 z M 182.40906,456.49602 C 169.97215,455.69857 150.23337,450.45357 135.24145,443.96275 107.93082,432.13868 81.154697,408.49758 66.124901,382.93874 51.892906,358.73654 46.14234,339.44729 45.559814,313.95686 c -0.648571,-28.37957 3.054538,-47.6929 13.641944,-71.14877 14.29254,-31.66443 42.932482,-59.08015 75.648452,-72.41509 34.10107,-13.89936 76.69712,-13.27216 111.77027,1.64577 19.54926,8.31502 42.49014,25.25087 56.54924,41.74667 13.60765,15.96608 27.40766,43.26983 32.45619,64.21561 2.59265,10.75658 3.50571,40.87158 1.65291,54.5159 -1.26415,9.30925 -7.14402,31.60807 -10.03949,38.07377 -9.37112,20.92567 -28.34912,44.98849 -45.55824,57.76464 -15.8629,11.77667 -36.26201,21.30729 -54.25238,25.34707 -9.61174,2.15831 -32.64162,3.58745 -45.01965,2.79359 z M 1082.0309,298.55213 c -16.6211,-0.98948 -22.1862,-1.97396 -35.9342,-6.35669 -20.7774,-6.62353 -35.3719,-14.57409 -49.70802,-27.07917 -20.68121,-18.03986 -31.30491,-32.87965 -41.55426,-58.04519 -9.45903,-23.22464 -12.42151,-49.44577 -8.65798,-76.63255 2.35009,-16.97735 4.10792,-23.34851 10.59067,-38.386742 8.75379,-20.306021 21.77011,-38.454118 39.1824,-54.630297 15.30399,-14.217585 32.44559,-24.061927 54.75859,-31.4476817 16.9416,-5.60766023 44.8199,-7.6278735 62.162,-4.5044221 16.0803,2.8961944 28.3097,6.6249403 40.3054,12.2890958 10.8455,5.121117 35.0107,21.396066 37.3394,25.147743 0.7565,1.218789 4.1105,5.032725 7.4535,8.47567 10.1811,10.485379 23.9727,34.444054 30.0437,52.191694 3.1986,9.35088 3.786,13.43768 5.2785,36.72932 1.5648,24.42087 1.5012,27.07431 -0.9313,38.91696 -5.2152,25.38909 -14.3298,46.24148 -28.2851,64.71034 -16.2961,21.56658 -37.6139,38.09607 -61.9982,48.07236 -22.1799,9.07444 -38.034,11.85995 -60.0451,10.54956 z"
       id="path1" />
  </g>
</svg>
