<?xml version="1.0" encoding="UTF-8" standalone="no"?>
<!-- Created with Inkscape (http://www.inkscape.org/) -->

<svg
   width="262.39493mm"
   height="242.64914mm"
   viewBox="0 0 262.39493 242.64914"
   version="1.1"
   id="svg1"
   xml:space="preserve"
   inkscape:export-filename="doskiltramme1a.svg"
   inkscape:export-xdpi="96"
   inkscape:export-ydpi="96"
   xmlns:inkscape="http://www.inkscape.org/namespaces/inkscape"
   xmlns:sodipodi="http://sodipodi.sourceforge.net/DTD/sodipodi-0.dtd"
   xmlns="http://www.w3.org/2000/svg"
   xmlns:svg="http://www.w3.org/2000/svg"><sodipodi:namedview
     id="namedview1"
     pagecolor="#505050"
     bordercolor="#ffffff"
     borderopacity="1"
     inkscape:showpageshadow="0"
     inkscape:pageopacity="0"
     inkscape:pagecheckerboard="1"
     inkscape:deskcolor="#505050"
     inkscape:document-units="mm"
     inkscape:zoom="0.47613973"
     inkscape:cx="321.33424"
     inkscape:cy="501.95349"
     inkscape:window-width="1544"
     inkscape:window-height="891"
     inkscape:window-x="0"
     inkscape:window-y="38"
     inkscape:window-maximized="0"
     inkscape:current-layer="layer1"><inkscape:page
       x="0"
       y="0"
       width="262.39493"
       height="242.64914"
       id="page2"
       margin="0"
       bleed="0" /></sodipodi:namedview><defs
     id="defs1"><clipPath
       clipPathUnits="userSpaceOnUse"
       id="clipPath10"><path
         id="lpe_path-effect12"
         class="powerclip"
         d="M 45,145 H 155.34 V 265 H 45 Z m 25,23 a 2,2 0 0 0 -2,-2 2,2 0 0 0 -2,2 2,2 0 0 0 2,2 2,2 0 0 0 2,-2 z m 64,0 a 2,2 0 0 0 -2,-2 2,2 0 0 0 -2,2 2,2 0 0 0 2,2 2,2 0 0 0 2,-2 z" /></clipPath></defs><g
     inkscape:label="Layer 1"
     inkscape:groupmode="layer"
     id="layer1"
     transform="translate(-50,-17.350869)"><g
       id="rect3"
       clip-path="url(#clipPath10)"><path
         style="fill:#ffffff;fill-rule:evenodd"
         d="m 62.859597,155 c 38.526713,25.94091 53.506543,7.14275 74.620803,0 4.1246,-1.39531 7.8596,3.50538 7.8596,7.8596 v 84.2808 c 0,4.35422 -3.50538,7.8596 -7.8596,7.8596 H 62.859597 C 58.50538,255 55,251.49462 55,247.1404 v -84.2808 c 0,-4.35422 4.247803,-10.2915 7.859597,-7.8596 z"
         id="path12"
         sodipodi:nodetypes="sssssssss" /></g></g></svg>
