<?xml version="1.0" standalone="no"?>
<!DOCTYPE svg PUBLIC "-//W3C//DTD SVG 1.1//EN" "http://www.w3.org/Graphics/SVG/1.1/DTD/svg11.dtd">
<svg width="165mm" height="99mm" viewBox="10 -144 165 99" xmlns="http://www.w3.org/2000/svg" version="1.1">
<title>OpenSCAD Model</title>
<path d="
M 174.382,-50.0187 L 164.676,-49.7407 L 154.969,-49.4627 L 153.778,-53.0947 L 153.07,-55.4107 L 152.376,-57.9627
 L 151.73,-60.5907 L 151.164,-63.1357 L 150.712,-65.4387 L 150.407,-67.3407 L 150.284,-68.6817 L 150.374,-69.3037
 L 150.451,-69.3247 L 150.576,-69.2887 L 150.743,-69.2017 L 150.945,-69.0677 L 151.175,-68.8917 L 151.427,-68.6787
 L 151.695,-68.4317 L 151.971,-68.1577 L 152.926,-67.2727 L 153.838,-66.6247 L 154.706,-66.2137 L 155.525,-66.0407
 L 156.294,-66.1047 L 157.009,-66.4057 L 157.666,-66.9457 L 158.264,-67.7237 L 158.424,-67.9657 L 158.616,-68.2357
 L 158.832,-68.5247 L 159.065,-68.8237 L 159.307,-69.1247 L 159.552,-69.4167 L 159.792,-69.6917 L 160.021,-69.9397
 L 160.525,-70.5357 L 160.918,-71.1337 L 161.198,-71.7237 L 161.364,-72.2917 L 161.411,-72.8237 L 161.338,-73.3097
 L 161.143,-73.7337 L 160.822,-74.0857 L 160.645,-74.2537 L 160.443,-74.4857 L 160.224,-74.7717 L 159.996,-75.1007
 L 159.763,-75.4627 L 159.535,-75.8477 L 159.317,-76.2447 L 159.117,-76.6427 L 158.744,-77.3537 L 158.375,-77.9127
 L 158.006,-78.3197 L 157.633,-78.5777 L 157.254,-78.6877 L 156.863,-78.6527 L 156.459,-78.4737 L 156.036,-78.1517
 L 155.801,-77.9427 L 155.617,-77.7947 L 155.474,-77.7057 L 155.363,-77.6777 L 155.272,-77.7097 L 155.193,-77.8027
 L 155.115,-77.9567 L 155.028,-78.1707 L 154.984,-78.3227 L 154.96,-78.4887 L 154.955,-78.6647 L 154.97,-78.8437
 L 155.002,-79.0217 L 155.052,-79.1917 L 155.118,-79.3507 L 155.2,-79.4907 L 155.332,-79.6967 L 155.538,-80.0427
 L 155.808,-80.5107 L 156.133,-81.0807 L 156.501,-81.7357 L 156.902,-82.4557 L 157.325,-83.2237 L 157.761,-84.0197
 L 159.839,-88.0187 L 161.709,-91.9857 L 163.349,-95.8587 L 164.738,-99.5767 L 165.855,-103.08 L 166.679,-106.307
 L 167.189,-109.196 L 167.364,-111.688 L 167.355,-112.249 L 167.325,-112.714 L 167.265,-113.1 L 167.17,-113.425
 L 167.033,-113.707 L 166.846,-113.964 L 166.603,-114.214 L 166.297,-114.473 L 165.95,-114.754 L 165.697,-114.984
 L 165.532,-115.187 L 165.451,-115.387 L 165.449,-115.611 L 165.522,-115.882 L 165.665,-116.226 L 165.872,-116.668
 L 166.663,-119.01 L 166.913,-121.532 L 166.641,-124.184 L 165.864,-126.92 L 164.599,-129.693 L 162.865,-132.454
 L 160.677,-135.156 L 158.056,-137.752 L 156.432,-139.084 L 154.745,-140.238 L 152.994,-141.217 L 151.178,-142.018
 L 149.298,-142.644 L 147.352,-143.093 L 145.34,-143.367 L 143.262,-143.465 L 142.217,-143.454 L 141.339,-143.403
 L 140.593,-143.3 L 139.945,-143.134 L 139.36,-142.893 L 138.804,-142.566 L 138.242,-142.142 L 137.639,-141.608
 L 136.801,-140.56 L 136.357,-139.382 L 136.294,-138.118 L 136.594,-136.808 L 137.245,-135.495 L 138.23,-134.219
 L 139.535,-133.022 L 141.143,-131.947 L 141.661,-131.632 L 142.036,-131.36 L 142.266,-131.13 L 142.353,-130.943
 L 142.296,-130.798 L 142.096,-130.695 L 141.752,-130.633 L 141.264,-130.612 L 141.029,-130.604 L 140.801,-130.582
 L 140.584,-130.547 L 140.386,-130.501 L 140.211,-130.445 L 140.065,-130.381 L 139.954,-130.31 L 139.884,-130.234
 L 139.836,-129.989 L 139.899,-129.619 L 140.061,-129.147 L 140.308,-128.601 L 140.628,-128.005 L 141.009,-127.385
 L 141.438,-126.765 L 141.902,-126.172 L 142.438,-125.435 L 143.022,-124.47 L 143.631,-123.324 L 144.244,-122.045
 L 144.838,-120.683 L 145.39,-119.287 L 145.879,-117.904 L 146.282,-116.584 L 146.719,-114.915 L 146.975,-113.702
 L 147.047,-112.943 L 146.93,-112.635 L 146.619,-112.778 L 146.11,-113.37 L 145.399,-114.409 L 144.481,-115.894
 L 143.24,-117.958 L 142.258,-119.569 L 141.496,-120.78 L 140.919,-121.645 L 140.488,-122.217 L 140.166,-122.55
 L 139.916,-122.696 L 139.7,-122.71 L 139.577,-122.659 L 139.447,-122.55 L 139.313,-122.39 L 139.18,-122.186
 L 139.05,-121.943 L 138.928,-121.67 L 138.819,-121.372 L 138.725,-121.057 L 138.514,-120.293 L 138.304,-119.697
 L 138.057,-119.234 L 137.734,-118.871 L 137.294,-118.574 L 136.7,-118.309 L 135.911,-118.042 L 134.89,-117.739
 L 134.309,-117.57 L 133.736,-117.398 L 133.187,-117.23 L 132.675,-117.07 L 132.216,-116.922 L 131.823,-116.791
 L 131.513,-116.681 L 131.298,-116.598 L 131.078,-116.51 L 130.75,-116.384 L 130.329,-116.229 L 129.832,-116.048
 L 129.274,-115.848 L 128.672,-115.634 L 128.042,-115.413 L 127.4,-115.189 L 126.723,-114.95 L 125.995,-114.684
 L 125.24,-114.398 L 124.478,-114.103 L 123.734,-113.807 L 123.03,-113.519 L 122.389,-113.249 L 121.834,-113.005
 L 121.339,-112.782 L 120.868,-112.575 L 120.435,-112.387 L 120.048,-112.223 L 119.719,-112.087 L 119.46,-111.985
 L 119.279,-111.92 L 119.19,-111.898 L 118.744,-111.708 L 117.669,-111.197 L 116.143,-110.453 L 114.342,-109.564
 L 112.443,-108.618 L 110.623,-107.701 L 109.059,-106.903 L 107.928,-106.311 L 107.552,-106.114 L 107.25,-105.983
 L 106.995,-105.927 L 106.76,-105.953 L 106.517,-106.069 L 106.239,-106.284 L 105.9,-106.605 L 105.472,-107.041
 L 105.196,-107.312 L 104.912,-107.565 L 104.628,-107.794 L 104.353,-107.995 L 104.094,-108.161 L 103.861,-108.286
 L 103.66,-108.367 L 103.5,-108.396 L 102.938,-108.504 L 102.251,-108.796 L 101.485,-109.237 L 100.685,-109.794
 L 99.8946,-110.433 L 99.1616,-111.119 L 98.5296,-111.818 L 98.0436,-112.498 L 97.6006,-113.178 L 97.1776,-113.717
 L 96.7706,-114.114 L 96.3776,-114.373 L 95.9926,-114.496 L 95.6146,-114.482 L 95.2376,-114.336 L 94.8606,-114.057
 L 94.3296,-113.44 L 93.9856,-112.729 L 93.8256,-111.941 L 93.8466,-111.092 L 94.0486,-110.197 L 94.4286,-109.273
 L 94.9846,-108.336 L 95.7136,-107.403 L 97.2756,-105.629 L 96.2766,-103.402 L 95.8646,-102.429 L 95.5016,-101.455
 L 95.1846,-100.455 L 94.9046,-99.4017 L 94.6566,-98.2717 L 94.4336,-97.0377 L 94.2316,-95.6747 L 94.0416,-94.1567
 L 93.9226,-92.8627 L 93.8856,-91.7347 L 93.9316,-90.7667 L 94.0626,-89.9517 L 94.2786,-89.2837 L 94.5826,-88.7567
 L 94.9756,-88.3647 L 95.4586,-88.1017 L 95.7146,-87.9937 L 95.9156,-87.8797 L 96.0646,-87.7537 L 96.1666,-87.6067
 L 96.2256,-87.4317 L 96.2436,-87.2217 L 96.2266,-86.9677 L 96.1766,-86.6637 L 96.1226,-85.8437 L 96.2816,-85.1877
 L 96.6076,-84.7117 L 97.0546,-84.4317 L 97.5766,-84.3637 L 98.1296,-84.5257 L 98.6676,-84.9327 L 99.1436,-85.6007
 L 99.2966,-85.8627 L 99.4536,-86.0737 L 99.6196,-86.2367 L 99.8026,-86.3577 L 100.01,-86.4367 L 100.247,-86.4807
 L 100.521,-86.4907 L 100.839,-86.4717 L 101.375,-86.4947 L 101.88,-86.6777 L 102.36,-87.0257 L 102.821,-87.5497
 L 103.269,-88.2547 L 103.71,-89.1507 L 104.15,-90.2457 L 104.593,-91.5457 L 105.3,-93.7437 L 105.873,-95.4487
 L 106.346,-96.7337 L 106.755,-97.6677 L 107.136,-98.3217 L 107.523,-98.7677 L 107.952,-99.0767 L 108.458,-99.3187
 L 108.778,-99.4467 L 109.154,-99.5857 L 109.571,-99.7317 L 110.017,-99.8807 L 110.477,-100.028 L 110.937,-100.169
 L 111.384,-100.298 L 111.804,-100.412 L 112.255,-100.53 L 112.792,-100.671 L 113.393,-100.828 L 114.04,-100.997
 L 114.712,-101.173 L 115.389,-101.35 L 116.051,-101.523 L 116.678,-101.687 L 117.321,-101.851 L 118.029,-102.023
 L 118.778,-102.198 L 119.545,-102.37 L 120.307,-102.536 L 121.041,-102.689 L 121.723,-102.824 L 122.331,-102.937
 L 122.907,-103.041 L 123.498,-103.151 L 124.086,-103.264 L 124.656,-103.376 L 125.19,-103.484 L 125.672,-103.585
 L 126.086,-103.676 L 126.413,-103.752 L 127.064,-103.881 L 127.569,-103.908 L 127.93,-103.83 L 128.151,-103.639
 L 128.235,-103.333 L 128.185,-102.906 L 128.003,-102.352 L 127.693,-101.668 L 126.906,-99.7927 L 126.189,-97.5077
 L 125.553,-94.8757 L 125.007,-91.9607 L 124.562,-88.8277 L 124.229,-85.5397 L 124.018,-82.1617 L 123.939,-78.7557
 L 123.947,-76.8957 L 123.983,-75.1847 L 124.055,-73.5467 L 124.168,-71.9037 L 124.329,-70.1787 L 124.544,-68.2957
 L 124.819,-66.1767 L 125.16,-63.7447 L 125.416,-61.9637 L 125.667,-60.1907 L 125.908,-58.4727 L 126.132,-56.8567
 L 126.333,-55.3877 L 126.504,-54.1147 L 126.638,-53.0827 L 126.73,-52.3397 L 127.064,-49.5137 L 121.903,-49.5137
 L 120.864,-49.5207 L 119.889,-49.5397 L 119.001,-49.5697 L 118.22,-49.6107 L 117.57,-49.6597 L 117.07,-49.7157
 L 116.744,-49.7777 L 116.613,-49.8447 L 116.607,-49.8517 L 116.597,-49.8597 L 116.583,-49.8667 L 116.568,-49.8747
 L 116.536,-49.8887 L 116.522,-49.8967 L 116.511,-49.9037 L 116.45,-49.9037 L 116.429,-49.9047 L 116.408,-49.9047
 L 116.386,-49.9057 L 116.365,-49.9077 L 116.343,-49.9087 L 116.211,-49.9207 L 116.189,-49.9217 L 116.167,-49.9237
 L 115.783,-49.9597 L 115.656,-49.9697 L 115.528,-49.9777 L 115.4,-49.9827 L 115.271,-49.9837 L 115.143,-49.9797
 L 114.172,-49.9797 L 114.123,-49.9807 L 114.076,-49.9827 L 114.03,-49.9857 L 113.985,-49.9907 L 113.942,-49.9957
 L 113.9,-50.0027 L 113.859,-50.0107 L 113.819,-50.0197 L 113.774,-50.0167 L 113.73,-50.0127 L 113.685,-50.0097
 L 113.597,-50.0017 L 113.507,-49.9957 L 113.463,-49.9937 L 113.363,-49.9907 L 113.264,-49.9887 L 113.164,-49.9867
 L 113.064,-49.9857 L 112.965,-49.9847 L 112.865,-49.9837 L 112.765,-49.9837 L 112.666,-49.9827 L 112.569,-49.9817
 L 112.374,-49.9817 L 112.277,-49.9807 L 111.584,-49.9807 L 111.508,-49.9797 L 111.27,-49.9797 L 111.167,-49.9827
 L 111.07,-49.9907 L 110.978,-50.0047 L 110.893,-50.0237 L 110.813,-50.0467 L 110.739,-50.0747 L 110.671,-50.1067
 L 110.609,-50.1417 L 107.711,-50.0387 L 103.635,-49.9617 L 98.7846,-49.9137 L 93.5636,-49.8947 L 88.3726,-49.9077
 L 83.6166,-49.9537 L 79.6986,-50.0357 L 77.0196,-50.1527 L 73.5026,-50.4027 L 71.8616,-53.6527 L 71.5316,-54.3257
 L 71.2386,-54.9667 L 70.9856,-55.5627 L 70.7786,-56.0977 L 70.6236,-56.5597 L 70.5236,-56.9357 L 70.4836,-57.2097
 L 70.5106,-57.3707 L 70.6226,-57.5147 L 70.8296,-57.7467 L 71.1206,-58.0547 L 71.4836,-58.4257 L 71.9066,-58.8487
 L 72.3766,-59.3107 L 72.8846,-59.8007 L 73.4156,-60.3057 L 74.0746,-60.9477 L 74.6726,-61.5707 L 75.2126,-62.1837
 L 75.7026,-62.7927 L 76.1456,-63.4047 L 76.5476,-64.0257 L 76.9146,-64.6637 L 77.2506,-65.3257 L 77.5166,-65.8577
 L 77.8076,-66.3937 L 78.1126,-66.9177 L 78.4226,-67.4167 L 78.7286,-67.8747 L 79.0216,-68.2767 L 79.2916,-68.6107
 L 79.5296,-68.8597 L 79.8396,-69.1667 L 80.0866,-69.4657 L 80.2816,-69.7837 L 80.4296,-70.1457 L 80.5426,-70.5777
 L 80.6256,-71.1057 L 80.6896,-71.7557 L 80.7426,-72.5517 L 80.7666,-73.1597 L 80.7706,-73.7497 L 80.7546,-74.3137
 L 80.7196,-74.8427 L 80.6666,-75.3287 L 80.5966,-75.7637 L 80.5096,-76.1367 L 80.4056,-76.4417 L 80.0526,-77.1807
 L 79.5766,-77.7437 L 78.8226,-78.1537 L 77.6306,-78.4377 L 75.8426,-78.6187 L 73.3026,-78.7227 L 69.8496,-78.7727
 L 65.3276,-78.7947 L 62.8176,-78.8077 L 60.4366,-78.8307 L 58.2416,-78.8627 L 56.2856,-78.9017 L 54.6236,-78.9467
 L 53.3116,-78.9957 L 52.4036,-79.0487 L 51.9546,-79.1037 L 50.9796,-79.3747 L 50.7826,-87.5457 L 50.7366,-89.1997
 L 50.6816,-90.7697 L 50.6186,-92.2177 L 50.5496,-93.5077 L 50.4786,-94.6037 L 50.4056,-95.4707 L 50.3336,-96.0707
 L 50.2656,-96.3687 L 49.9356,-96.8647 L 49.4586,-97.2727 L 48.8056,-97.5997 L 47.9456,-97.8527 L 46.8476,-98.0367
 L 45.4826,-98.1597 L 43.8186,-98.2287 L 41.8256,-98.2507 L 36.2986,-98.2507 L 35.1586,-97.1107 L 34.0196,-95.9707
 L 34.0196,-84.3757 L 34.0216,-80.5587 L 34.0346,-77.6667 L 34.0696,-75.5467 L 34.1376,-74.0457 L 34.2506,-73.0107
 L 34.4166,-72.2897 L 34.6496,-71.7297 L 34.9586,-71.1787 L 35.1886,-70.8267 L 35.4776,-70.4517 L 35.8146,-70.0637
 L 36.1886,-69.6747 L 36.5896,-69.2957 L 37.0056,-68.9347 L 37.4266,-68.6047 L 37.8416,-68.3167 L 38.2376,-68.0497
 L 38.6196,-67.7737 L 38.9766,-67.4967 L 39.3006,-67.2267 L 39.5816,-66.9717 L 39.8116,-66.7397 L 39.9806,-66.5377
 L 40.0796,-66.3757 L 40.1426,-66.0857 L 40.2086,-65.5187 L 40.2746,-64.7087 L 40.3406,-63.6897 L 40.4046,-62.4947
 L 40.4626,-61.1567 L 40.5146,-59.7107 L 40.5566,-58.1887 L 40.7396,-50.6837 L 26.8706,-50.6837 L 22.0746,-50.6747
 L 18.3646,-50.6407 L 15.5976,-50.5657 L 13.6256,-50.4347 L 12.3056,-50.2337 L 11.4916,-49.9477 L 11.0386,-49.5627
 L 10.8016,-49.0647 L 10.7176,-48.6857 L 10.6986,-48.3037 L 10.7406,-47.9297 L 10.8386,-47.5747 L 10.9896,-47.2497
 L 11.1886,-46.9687 L 11.4306,-46.7417 L 11.7126,-46.5807 L 13.6346,-46.3957 L 18.5756,-46.2247 L 26.6826,-46.0637
 L 38.1046,-45.9127 L 52.9896,-45.7687 L 71.4836,-45.6307 L 93.7356,-45.4967 L 119.894,-45.3657 L 174.382,-45.1137
 z
M 131.166,-48.3437 L 130.568,-50.1957 L 130.198,-51.4177 L 129.816,-52.8187 L 129.428,-54.3797 L 129.037,-56.0837
 L 128.647,-57.9097 L 128.263,-59.8407 L 127.889,-61.8567 L 127.528,-63.9397 L 127.274,-65.5427 L 127.073,-67.0237
 L 126.92,-68.4857 L 126.809,-70.0337 L 126.734,-71.7697 L 126.689,-73.7977 L 126.669,-76.2217 L 126.667,-79.1457
 L 126.677,-82.3377 L 126.702,-84.8517 L 126.755,-86.8487 L 126.849,-88.4907 L 126.995,-89.9387 L 127.207,-91.3557
 L 127.497,-92.9027 L 127.878,-94.7417 L 128.137,-95.9367 L 128.418,-97.1677 L 128.711,-98.3977 L 129.008,-99.5927
 L 129.299,-100.718 L 129.576,-101.737 L 129.829,-102.616 L 130.051,-103.318 L 130.245,-103.91 L 130.42,-104.472
 L 130.573,-104.99 L 130.7,-105.452 L 130.798,-105.845 L 130.864,-106.155 L 130.894,-106.371 L 130.885,-106.478
 L 130.201,-106.545 L 128.565,-106.33 L 126.182,-105.88 L 123.258,-105.241 L 119.999,-104.461 L 116.61,-103.587
 L 113.297,-102.667 L 110.266,-101.747 L 108.864,-101.293 L 107.799,-100.895 L 106.993,-100.466 L 106.371,-99.9157
 L 105.856,-99.1597 L 105.372,-98.1077 L 104.841,-96.6737 L 104.189,-94.7687 L 103.615,-93.1017 L 103.129,-91.7367
 L 102.72,-90.6477 L 102.378,-89.8107 L 102.092,-89.2027 L 101.852,-88.7977 L 101.647,-88.5727 L 101.466,-88.5037
 L 101.389,-88.5267 L 101.317,-88.5937 L 101.252,-88.6997 L 101.195,-88.8397 L 101.148,-89.0097 L 101.112,-89.2047
 L 101.09,-89.4197 L 101.082,-89.6497 L 101.073,-89.8857 L 101.048,-90.1167 L 101.007,-90.3357 L 100.954,-90.5387
 L 100.89,-90.7187 L 100.817,-90.8697 L 100.735,-90.9867 L 100.648,-91.0647 L 100.444,-91.1357 L 100.245,-91.1057
 L 100.057,-90.9837 L 99.8866,-90.7807 L 99.7426,-90.5057 L 99.6296,-90.1707 L 99.5556,-89.7857 L 99.5276,-89.3607
 L 99.4796,-88.9117 L 99.3526,-88.4037 L 99.1656,-87.8727 L 98.9356,-87.3557 L 98.6806,-86.8897 L 98.4206,-86.5107
 L 98.1716,-86.2567 L 97.9526,-86.1637 L 97.8766,-86.2117 L 97.8046,-86.3487 L 97.7406,-86.5647 L 97.6846,-86.8507
 L 97.6376,-87.1977 L 97.6026,-87.5947 L 97.5806,-88.0337 L 97.5726,-88.5037 L 97.5606,-89.2867 L 97.5236,-89.8987
 L 97.4566,-90.3467 L 97.3546,-90.6397 L 97.2146,-90.7837 L 97.0306,-90.7877 L 96.7986,-90.6607 L 96.5146,-90.4087
 L 96.2946,-90.2407 L 96.0716,-90.1647 L 95.8556,-90.1737 L 95.6576,-90.2627 L 95.4866,-90.4227 L 95.3526,-90.6487
 L 95.2646,-90.9347 L 95.2336,-91.2717 L 95.2746,-91.7697 L 95.3896,-92.5757 L 95.5646,-93.6177 L 95.7846,-94.8227
 L 96.0376,-96.1177 L 96.3086,-97.4287 L 96.5846,-98.6847 L 96.8506,-99.8097 L 96.9586,-100.21 L 97.0986,-100.673
 L 97.2646,-101.183 L 97.4516,-101.723 L 97.6526,-102.278 L 97.8626,-102.829 L 98.0756,-103.362 L 98.2856,-103.858
 L 99.2846,-106.152 L 98.3536,-106.906 L 97.7966,-107.398 L 97.2806,-107.935 L 96.8166,-108.5 L 96.4136,-109.078
 L 96.0836,-109.652 L 95.8346,-110.206 L 95.6776,-110.725 L 95.6226,-111.193 L 95.6486,-111.674 L 95.7236,-112.007
 L 95.8496,-112.191 L 96.0246,-112.226 L 96.2486,-112.112 L 96.5206,-111.85 L 96.8406,-111.44 L 97.2086,-110.881
 L 97.6526,-110.295 L 98.2746,-109.658 L 99.0286,-109.003 L 99.8696,-108.363 L 100.75,-107.771 L 101.624,-107.26
 L 102.446,-106.863 L 103.169,-106.613 L 103.392,-106.535 L 103.63,-106.41 L 103.879,-106.244 L 104.129,-106.045
 L 104.374,-105.818 L 104.607,-105.57 L 104.82,-105.306 L 105.006,-105.033 L 105.177,-104.767 L 105.351,-104.519
 L 105.522,-104.294 L 105.686,-104.098 L 105.838,-103.936 L 105.973,-103.814 L 106.086,-103.736 L 106.172,-103.709
 L 106.316,-103.749 L 106.593,-103.861 L 106.987,-104.039 L 107.481,-104.275 L 108.059,-104.56 L 108.705,-104.887
 L 109.403,-105.248 L 110.137,-105.635 L 112.666,-106.947 L 115.276,-108.235 L 117.932,-109.484 L 120.599,-110.678
 L 123.238,-111.802 L 125.816,-112.839 L 128.296,-113.774 L 130.641,-114.591 L 131.858,-114.99 L 133.03,-115.362
 L 134.128,-115.699 L 135.122,-115.993 L 135.987,-116.236 L 136.692,-116.419 L 137.211,-116.535 L 137.514,-116.576
 L 137.866,-116.609 L 138.201,-116.711 L 138.519,-116.881 L 138.82,-117.12 L 139.106,-117.428 L 139.377,-117.807
 L 139.633,-118.257 L 139.876,-118.778 L 140.011,-119.043 L 140.164,-119.174 L 140.365,-119.138 L 140.647,-118.903
 L 141.039,-118.437 L 141.573,-117.708 L 142.28,-116.682 L 143.19,-115.329 L 144.32,-113.656 L 145.283,-112.26
 L 146.092,-111.126 L 146.76,-110.236 L 147.302,-109.573 L 147.729,-109.12 L 148.055,-108.861 L 148.294,-108.778
 L 148.476,-108.922 L 148.589,-109.336 L 148.635,-109.991 L 148.616,-110.859 L 148.531,-111.911 L 148.385,-113.12
 L 148.176,-114.457 L 147.908,-115.895 L 147.565,-117.366 L 147.119,-118.906 L 146.59,-120.469 L 145.998,-122.005
 L 145.361,-123.469 L 144.7,-124.813 L 144.032,-125.99 L 143.379,-126.952 L 142.867,-127.65 L 142.548,-128.184
 L 142.445,-128.571 L 142.583,-128.829 L 142.985,-128.976 L 143.675,-129.03 L 144.678,-129.008 L 146.018,-128.93
 L 146.768,-128.876 L 147.518,-128.816 L 148.247,-128.752 L 148.937,-128.685 L 149.566,-128.617 L 150.115,-128.551
 L 150.563,-128.489 L 150.891,-128.432 L 151.41,-128.358 L 151.793,-128.364 L 152.037,-128.437 L 152.14,-128.565
 L 152.099,-128.734 L 151.912,-128.932 L 151.575,-129.146 L 151.086,-129.363 L 150.813,-129.465 L 150.448,-129.601
 L 150.006,-129.766 L 149.504,-129.952 L 148.957,-130.155 L 148.381,-130.368 L 147.792,-130.585 L 147.206,-130.801
 L 145.943,-131.311 L 144.668,-131.907 L 143.422,-132.564 L 142.245,-133.256 L 141.181,-133.957 L 140.269,-134.641
 L 139.553,-135.283 L 139.073,-135.857 L 138.782,-136.375 L 138.581,-136.896 L 138.47,-137.414 L 138.449,-137.922
 L 138.518,-138.413 L 138.675,-138.88 L 138.922,-139.317 L 139.257,-139.715 L 139.527,-139.961 L 139.808,-140.154
 L 140.127,-140.3 L 140.516,-140.403 L 141.003,-140.471 L 141.618,-140.51 L 142.391,-140.523 L 143.351,-140.519
 L 144.396,-140.501 L 145.245,-140.459 L 145.967,-140.373 L 146.628,-140.226 L 147.298,-139.996 L 148.044,-139.666
 L 148.935,-139.216 L 150.038,-138.626 L 151.777,-137.656 L 153.303,-136.737 L 154.655,-135.837 L 155.873,-134.925
 L 156.996,-133.968 L 158.064,-132.935 L 159.117,-131.794 L 160.195,-130.513 L 161.399,-128.989 L 162.358,-127.669
 L 163.099,-126.493 L 163.647,-125.402 L 164.028,-124.333 L 164.269,-123.226 L 164.396,-122.022 L 164.434,-120.659
 L 164.43,-119.678 L 164.406,-118.894 L 164.349,-118.264 L 164.249,-117.74 L 164.093,-117.278 L 163.87,-116.832
 L 163.567,-116.357 L 163.173,-115.806 L 162.638,-115.051 L 162.258,-114.442 L 162.033,-113.964 L 161.963,-113.604
 L 162.049,-113.348 L 162.292,-113.183 L 162.691,-113.094 L 163.247,-113.067 L 163.521,-113.059 L 163.786,-113.037
 L 164.036,-113.002 L 164.264,-112.955 L 164.463,-112.899 L 164.627,-112.835 L 164.749,-112.763 L 164.824,-112.687
 L 164.864,-112.161 L 164.756,-111.071 L 164.526,-109.552 L 164.198,-107.736 L 163.799,-105.76 L 163.355,-103.755
 L 162.89,-101.858 L 162.432,-100.201 L 161.734,-97.9717 L 160.993,-95.8137 L 160.185,-93.6687 L 159.286,-91.4807
 L 158.271,-89.1947 L 157.116,-86.7527 L 155.798,-84.0987 L 154.292,-81.1777 L 153.971,-80.5497 L 153.729,-80.0327
 L 153.561,-79.5967 L 153.462,-79.2157 L 153.427,-78.8587 L 153.449,-78.4997 L 153.525,-78.1097 L 153.649,-77.6607
 L 153.872,-76.9937 L 154.113,-76.4057 L 154.367,-75.9057 L 154.627,-75.5017 L 154.887,-75.2027 L 155.142,-75.0167
 L 155.384,-74.9507 L 155.608,-75.0157 L 155.698,-75.0867 L 155.783,-75.1837 L 155.859,-75.3017 L 155.925,-75.4367
 L 155.98,-75.5847 L 156.022,-75.7407 L 156.048,-75.9017 L 156.057,-76.0617 L 156.106,-76.3957 L 156.24,-76.6767
 L 156.437,-76.8977 L 156.678,-77.0477 L 156.942,-77.1187 L 157.207,-77.1007 L 157.455,-76.9867 L 157.663,-76.7657
 L 157.73,-76.6187 L 157.783,-76.4077 L 157.822,-76.1447 L 157.846,-75.8367 L 157.854,-75.4957 L 157.847,-75.1317
 L 157.823,-74.7527 L 157.782,-74.3687 L 157.704,-73.7147 L 157.668,-73.2207 L 157.682,-72.8757 L 157.757,-72.6667
 L 157.901,-72.5817 L 158.124,-72.6067 L 158.436,-72.7297 L 158.845,-72.9387 L 159.007,-73.0197 L 159.165,-73.0887
 L 159.315,-73.1437 L 159.453,-73.1847 L 159.576,-73.2107 L 159.678,-73.2197 L 159.758,-73.2107 L 159.809,-73.1847
 L 159.894,-72.9637 L 159.84,-72.6457 L 159.668,-72.2597 L 159.399,-71.8337 L 159.053,-71.3967 L 158.652,-70.9807
 L 158.216,-70.6117 L 157.766,-70.3207 L 157.498,-70.1627 L 157.249,-69.9887 L 157.025,-69.8047 L 156.831,-69.6157
 L 156.67,-69.4277 L 156.55,-69.2457 L 156.473,-69.0737 L 156.447,-68.9197 L 156.432,-68.7427 L 156.385,-68.5957
 L 156.302,-68.4757 L 156.181,-68.3827 L 156.019,-68.3127 L 155.812,-68.2647 L 155.557,-68.2377 L 155.252,-68.2287
 L 154.91,-68.2527 L 154.571,-68.3297 L 154.224,-68.4697 L 153.854,-68.6797 L 153.449,-68.9687 L 152.995,-69.3457
 L 152.48,-69.8187 L 151.889,-70.3957 L 150.834,-71.4177 L 150.024,-72.0887 L 149.432,-72.3807 L 149.031,-72.2647
 L 148.793,-71.7117 L 148.691,-70.6937 L 148.697,-69.1807 L 148.784,-67.1457 L 148.847,-66.0747 L 148.93,-64.9327
 L 149.028,-63.7537 L 149.138,-62.5727 L 149.257,-61.4267 L 149.381,-60.3497 L 149.507,-59.3777 L 149.631,-58.5447
 L 149.875,-57.1667 L 150.176,-55.6557 L 150.512,-54.0997 L 150.864,-52.5847 L 151.211,-51.1967 L 151.53,-50.0227
 L 151.803,-49.1487 L 152.007,-48.6627 L 151.832,-48.5987 L 151.254,-48.5387 L 150.315,-48.4847 L 149.057,-48.4377
 L 147.522,-48.3987 L 145.754,-48.3687 L 143.795,-48.3507 L 141.686,-48.3437 z
M 42.4506,-70.7737 L 41.6146,-70.8397 L 40.8026,-70.9377 L 40.0666,-71.0647 L 39.4566,-71.2147 L 39.0246,-71.3817
 L 38.4376,-71.7607 L 37.9876,-72.2607 L 37.6616,-72.9897 L 37.4456,-74.0547 L 37.3246,-75.5657 L 37.2856,-77.6287
 L 37.3136,-80.3517 L 37.3956,-83.8427 L 37.4736,-86.5857 L 37.5506,-88.8027 L 37.6316,-90.5487 L 37.7206,-91.8837
 L 37.8226,-92.8627 L 37.9436,-93.5447 L 38.0866,-93.9867 L 38.2566,-94.2447 L 38.4066,-94.3737 L 38.5836,-94.4807
 L 38.7976,-94.5657 L 39.0606,-94.6297 L 39.3856,-94.6737 L 39.7826,-94.6987 L 40.2636,-94.7047 L 40.8406,-94.6927
 L 41.0566,-94.6857 L 41.2846,-94.6757 L 41.5246,-94.6647 L 41.7786,-94.6517 L 42.0466,-94.6367 L 42.3276,-94.6207
 L 42.6246,-94.6027 L 42.9356,-94.5827 L 43.7616,-94.5247 L 44.5476,-94.4627 L 45.2726,-94.3977 L 45.9206,-94.3307
 L 46.4726,-94.2657 L 46.9106,-94.2037 L 47.2166,-94.1467 L 47.3716,-94.0977 L 47.4436,-93.8547 L 47.4986,-93.2447
 L 47.5366,-92.2917 L 47.5566,-91.0227 L 47.5586,-89.4627 L 47.5436,-87.6377 L 47.5096,-85.5727 L 47.4576,-83.2937
 L 47.3686,-80.0117 L 47.2876,-77.4697 L 47.2036,-75.5627 L 47.1066,-74.1857 L 46.9886,-73.2317 L 46.8376,-72.5957
 L 46.6456,-72.1727 L 46.4016,-71.8567 L 46.2236,-71.6807 L 46.0176,-71.5097 L 45.7896,-71.3487 L 45.5486,-71.2007
 L 45.3016,-71.0697 L 45.0556,-70.9607 L 44.8176,-70.8777 L 44.5956,-70.8247 L 43.9926,-70.7607 L 43.2606,-70.7457
 z
M 61.4156,-72.1387 L 58.9126,-72.1537 L 56.6096,-72.1757 L 54.5646,-72.2057 L 52.8346,-72.2417 L 51.4756,-72.2817
 L 50.5456,-72.3257 L 50.1026,-72.3737 L 49.6626,-72.5807 L 49.3586,-72.9047 L 49.1896,-73.3047 L 49.1526,-73.7437
 L 49.2436,-74.1817 L 49.4626,-74.5807 L 49.8066,-74.9007 L 50.2716,-75.1047 L 50.4856,-75.1397 L 50.8226,-75.1687
 L 51.2726,-75.1937 L 51.8296,-75.2127 L 52.4846,-75.2277 L 53.2286,-75.2377 L 54.0536,-75.2427 L 54.9526,-75.2447
 L 58.0046,-75.2257 L 61.4176,-75.1757 L 64.9696,-75.0987 L 68.4366,-75.0017 L 71.5976,-74.8877 L 74.2286,-74.7627
 L 76.1086,-74.6327 L 77.0136,-74.5007 L 77.2276,-74.4087 L 77.4266,-74.3027 L 77.6076,-74.1867 L 77.7646,-74.0627
 L 77.8956,-73.9367 L 77.9936,-73.8117 L 78.0556,-73.6917 L 78.0776,-73.5797 L 78.0206,-73.1217 L 77.7576,-72.7717
 L 77.1486,-72.5147 L 76.0556,-72.3377 L 74.3396,-72.2247 L 71.8616,-72.1627 L 68.4816,-72.1367 L 64.0606,-72.1327
 z
M 60.8186,-58.6187 L 60.1266,-58.6377 L 59.1786,-58.6837 L 58.3546,-58.7497 L 57.6236,-58.8417 L 56.9536,-58.9667
 L 56.3146,-59.1327 L 55.6756,-59.3447 L 55.0076,-59.6107 L 54.2776,-59.9377 L 53.1126,-60.5307 L 52.0126,-61.1907
 L 50.9836,-61.9127 L 50.0326,-62.6907 L 49.1666,-63.5197 L 48.3896,-64.3937 L 47.7096,-65.3067 L 47.1316,-66.2547
 L 46.7376,-67.0167 L 46.4786,-67.6387 L 46.3626,-68.1507 L 46.3986,-68.5797 L 46.5936,-68.9567 L 46.9566,-69.3117
 L 47.4966,-69.6727 L 48.2206,-70.0687 L 48.5406,-70.2087 L 48.9376,-70.3237 L 49.4556,-70.4147 L 50.1376,-70.4837
 L 51.0256,-70.5307 L 52.1646,-70.5577 L 53.5966,-70.5667 L 55.3656,-70.5577 L 56.0366,-70.5507 L 56.7526,-70.5427
 L 57.5136,-70.5317 L 58.3206,-70.5197 L 59.1776,-70.5067 L 60.0836,-70.4917 L 61.0416,-70.4747 L 62.0536,-70.4567
 L 66.8856,-70.3657 L 70.4686,-70.2657 L 72.9646,-70.1157 L 74.5356,-69.8737 L 75.3426,-69.4967 L 75.5486,-68.9427
 L 75.3146,-68.1687 L 74.8016,-67.1347 L 73.9966,-65.7817 L 72.9806,-64.4547 L 71.7916,-63.1867 L 70.4706,-62.0077
 L 69.0536,-60.9497 L 67.5816,-60.0457 L 66.0936,-59.3257 L 64.6266,-58.8227 L 64.3236,-58.7627 L 63.9096,-58.7117
 L 63.4026,-58.6707 L 62.8216,-58.6397 L 62.1856,-58.6207 L 61.5116,-58.6137 z
M 57.8176,-50.2977 L 53.5136,-50.3447 L 49.6906,-50.4257 L 46.8616,-50.5377 L 45.5396,-50.6757 L 45.3286,-50.7747
 L 45.1156,-50.9097 L 44.9066,-51.0747 L 44.7076,-51.2637 L 44.5226,-51.4707 L 44.3596,-51.6897 L 44.2236,-51.9137
 L 44.1206,-52.1387 L 43.9796,-52.9797 L 43.9146,-54.3997 L 43.9166,-56.1877 L 43.9776,-58.1287 L 44.0866,-60.0097
 L 44.2336,-61.6177 L 44.4106,-62.7387 L 44.6086,-63.1597 L 44.7026,-63.1327 L 44.8376,-63.0547 L 45.0066,-62.9307
 L 45.2026,-62.7657 L 45.4196,-62.5677 L 45.6526,-62.3397 L 45.8936,-62.0887 L 46.1376,-61.8187 L 46.8276,-61.0977
 L 47.5976,-60.4137 L 48.4536,-59.7637 L 49.4026,-59.1447 L 50.4476,-58.5537 L 51.5956,-57.9877 L 52.8516,-57.4417
 L 54.2216,-56.9137 L 55.2536,-56.5487 L 56.1636,-56.2587 L 57.0106,-56.0347 L 57.8576,-55.8657 L 58.7636,-55.7407
 L 59.7916,-55.6507 L 61.0016,-55.5847 L 62.4556,-55.5337 L 63.6096,-55.4907 L 64.6216,-55.4377 L 65.4916,-55.3737
 L 66.2216,-55.2997 L 66.8136,-55.2137 L 67.2676,-55.1157 L 67.5876,-55.0077 L 67.7726,-54.8867 L 68.0566,-54.5037
 L 68.3806,-53.9377 L 68.7166,-53.2577 L 69.0376,-52.5317 L 69.3136,-51.8277 L 69.5176,-51.2117 L 69.6206,-50.7527
 L 69.5946,-50.5177 L 68.4916,-50.3947 L 65.8186,-50.3197 L 62.0896,-50.2887 z
" stroke="none" fill="#ffffff" stroke-width="0.35"/>
</svg>
