<?xml version="1.0" standalone="no"?>
<!DOCTYPE svg PUBLIC "-//W3C//DTD SVG 1.1//EN" "http://www.w3.org/Graphics/SVG/1.1/DTD/svg11.dtd">
<svg width="1822mm" height="550mm" viewBox="-1 -549 1822 550" xmlns="http://www.w3.org/2000/svg" version="1.1">
<title>OpenSCAD Model</title>
<path d="
M 20.2587,-67.085 L 28.2923,-67.085 L 28.2923,-63.085 L 36.626,-63.085 L 36.626,-67.085 L 44.6597,-67.085
 L 44.6597,-63.085 L 52.9934,-63.085 L 52.9934,-67.085 L 61.027,-67.085 L 61.027,-63.085 L 69.3607,-63.085
 L 69.3607,-67.085 L 77.3944,-67.085 L 77.3944,-63.085 L 85.7281,-63.085 L 85.7281,-67.085 L 93.7617,-67.085
 L 93.7617,-63.085 L 102.095,-63.085 L 102.095,-67.085 L 110.129,-67.085 L 110.129,-63.085 L 118.463,-63.085
 L 118.463,-67.085 L 126.496,-67.085 L 126.496,-63.085 L 134.83,-63.085 L 134.83,-67.085 L 142.864,-67.085
 L 142.864,-63.085 L 151.197,-63.085 L 151.197,-67.085 L 159.231,-67.085 L 159.231,-63.085 L 167.565,-63.085
 L 167.565,-67.085 L 175.598,-67.085 L 175.598,-63.085 L 183.932,-63.085 L 183.932,-67.085 L 191.966,-67.085
 L 191.966,-63.085 L 200.299,-63.085 L 200.299,-67.085 L 208.333,-67.085 L 208.333,-63.085 L 216.667,-63.085
 L 216.667,-67.085 L 224.701,-67.085 L 224.701,-63.085 L 233.034,-63.085 L 233.034,-67.085 L 241.068,-67.085
 L 241.068,-63.085 L 249.402,-63.085 L 249.402,-67.085 L 257.435,-67.085 L 257.435,-63.085 L 265.769,-63.085
 L 265.769,-67.085 L 273.803,-67.085 L 273.803,-63.085 L 282.136,-63.085 L 282.136,-67.085 L 290.17,-67.085
 L 290.17,-63.085 L 298.504,-63.085 L 298.504,-67.085 L 306.537,-67.085 L 306.537,-63.085 L 314.871,-63.085
 L 314.871,-67.085 L 322.905,-67.085 L 322.905,-63.085 L 331.238,-63.085 L 331.238,-67.085 L 339.272,-67.085
 L 339.272,-63.085 L 347.606,-63.085 L 347.606,-67.085 L 355.639,-67.085 L 355.639,-63.085 L 363.973,-63.085
 L 363.973,-67.085 L 372.007,-67.085 L 372.007,-63.085 L 380.34,-63.085 L 380.34,-67.085 L 388.374,-67.085
 L 388.374,-63.085 L 396.708,-63.085 L 396.708,-67.085 L 404.741,-67.085 L 404.741,-63.085 L 413.075,-63.085
 L 413.075,-67.085 L 421.075,-67.085 L 421.075,-79.085 L 425.075,-79.085 L 425.075,-87.4713 L 421.075,-87.4713
 L 421.075,-95.5577 L 425.075,-95.5577 L 425.075,-103.944 L 421.075,-103.944 L 421.075,-112.03 L 425.075,-112.03
 L 425.075,-120.417 L 421.075,-120.417 L 421.075,-128.503 L 425.075,-128.503 L 425.075,-136.89 L 421.075,-136.89
 L 421.075,-144.976 L 425.075,-144.976 L 425.075,-153.362 L 421.075,-153.362 L 421.075,-161.449 L 425.075,-161.449
 L 425.075,-169.835 L 421.075,-169.835 L 421.075,-177.921 L 425.075,-177.921 L 425.075,-186.308 L 421.075,-186.308
 L 421.075,-194.394 L 425.075,-194.394 L 425.075,-202.78 L 421.075,-202.78 L 421.075,-210.867 L 425.075,-210.867
 L 425.075,-219.253 L 421.075,-219.253 L 421.075,-227.34 L 425.075,-227.34 L 425.075,-235.726 L 421.075,-235.726
 L 421.075,-243.812 L 425.075,-243.812 L 425.075,-252.199 L 421.075,-252.199 L 421.075,-260.285 L 425.075,-260.285
 L 425.075,-268.671 L 421.075,-268.671 L 421.075,-276.758 L 425.075,-276.758 L 425.075,-285.144 L 421.075,-285.144
 L 421.075,-293.23 L 425.075,-293.23 L 425.075,-301.617 L 421.075,-301.617 L 421.075,-309.703 L 425.075,-309.703
 L 425.075,-318.09 L 421.075,-318.09 L 421.075,-326.176 L 425.075,-326.176 L 425.075,-334.562 L 421.075,-334.562
 L 421.075,-342.649 L 425.075,-342.649 L 425.075,-351.035 L 421.075,-351.035 L 421.075,-359.121 L 425.075,-359.121
 L 425.075,-367.508 L 421.075,-367.508 L 421.075,-375.594 L 425.075,-375.594 L 425.075,-383.98 L 421.075,-383.98
 L 421.075,-392.067 L 425.075,-392.067 L 425.075,-400.453 L 421.075,-400.453 L 421.075,-408.54 L 425.075,-408.54
 L 425.075,-416.926 L 421.075,-416.926 L 421.075,-425.012 L 425.075,-425.012 L 425.075,-433.399 L 421.075,-433.399
 L 421.075,-441.485 L 425.075,-441.485 L 425.075,-449.871 L 421.075,-449.871 L 421.075,-457.958 L 425.075,-457.958
 L 425.075,-466.344 L 421.075,-466.344 L 421.075,-474.43 L 425.075,-474.43 L 425.075,-482.817 L 421.075,-482.817
 L 421.075,-490.903 L 425.075,-490.903 L 425.075,-499.29 L 421.075,-499.29 L 421.075,-507.376 L 425.075,-507.376
 L 425.075,-515.762 L 421.075,-515.762 L 421.075,-523.849 L 425.075,-523.849 L 425.075,-532.235 L 421.075,-532.235
 L 421.075,-544.235 L 413.075,-544.235 L 413.075,-548.235 L 404.741,-548.235 L 404.741,-544.235 L 396.708,-544.235
 L 396.708,-548.235 L 388.374,-548.235 L 388.374,-544.235 L 380.34,-544.235 L 380.34,-548.235 L 372.007,-548.235
 L 372.007,-544.235 L 363.973,-544.235 L 363.973,-548.235 L 355.639,-548.235 L 355.639,-544.235 L 347.606,-544.235
 L 347.606,-548.235 L 339.272,-548.235 L 339.272,-544.235 L 331.238,-544.235 L 331.238,-548.235 L 322.905,-548.235
 L 322.905,-544.235 L 314.871,-544.235 L 314.871,-548.235 L 306.537,-548.235 L 306.537,-544.235 L 298.504,-544.235
 L 298.504,-548.235 L 290.17,-548.235 L 290.17,-544.235 L 282.136,-544.235 L 282.136,-548.235 L 273.803,-548.235
 L 273.803,-544.235 L 265.769,-544.235 L 265.769,-548.235 L 257.435,-548.235 L 257.435,-544.235 L 249.402,-544.235
 L 249.402,-548.235 L 241.068,-548.235 L 241.068,-544.235 L 233.034,-544.235 L 233.034,-548.235 L 224.701,-548.235
 L 224.701,-544.235 L 216.667,-544.235 L 216.667,-548.235 L 208.333,-548.235 L 208.333,-544.235 L 200.299,-544.235
 L 200.299,-548.235 L 191.966,-548.235 L 191.966,-544.235 L 183.932,-544.235 L 183.932,-548.235 L 175.598,-548.235
 L 175.598,-544.235 L 167.565,-544.235 L 167.565,-548.235 L 159.231,-548.235 L 159.231,-544.235 L 151.197,-544.235
 L 151.197,-548.235 L 142.864,-548.235 L 142.864,-544.235 L 134.83,-544.235 L 134.83,-548.235 L 126.496,-548.235
 L 126.496,-544.235 L 118.463,-544.235 L 118.463,-548.235 L 110.129,-548.235 L 110.129,-544.235 L 102.095,-544.235
 L 102.095,-548.235 L 93.7617,-548.235 L 93.7617,-544.235 L 85.7281,-544.235 L 85.7281,-548.235 L 77.3944,-548.235
 L 77.3944,-544.235 L 69.3607,-544.235 L 69.3607,-548.235 L 61.0271,-548.235 L 61.0271,-544.235 L 52.9934,-544.235
 L 52.9934,-548.235 L 44.6597,-548.235 L 44.6597,-544.235 L 36.626,-544.235 L 36.626,-548.235 L 28.2924,-548.235
 L 28.2924,-544.235 L 20.2587,-544.235 L 20.2587,-548.235 L 11.925,-548.235 L 11.925,-544.235 L 3.925,-544.235
 L 3.925,-532.235 L -0.0749969,-532.235 L -0.0749969,-523.849 L 3.925,-523.849 L 3.925,-515.762 L -0.0749969,-515.762
 L -0.0749969,-507.376 L 3.925,-507.376 L 3.925,-499.29 L -0.0749969,-499.29 L -0.0749969,-490.903 L 3.925,-490.903
 L 3.925,-482.817 L -0.0749969,-482.817 L -0.0749969,-474.43 L 3.925,-474.43 L 3.925,-466.344 L -0.0749969,-466.344
 L -0.0749969,-457.958 L 3.925,-457.958 L 3.925,-449.871 L -0.0749969,-449.871 L -0.0749969,-441.485 L 3.925,-441.485
 L 3.925,-433.399 L -0.0749969,-433.399 L -0.0749969,-425.012 L 3.925,-425.012 L 3.925,-416.926 L -0.0749969,-416.926
 L -0.0749969,-408.54 L 3.925,-408.54 L 3.925,-400.453 L -0.0749969,-400.453 L -0.0749969,-392.067 L 3.925,-392.067
 L 3.925,-383.98 L -0.0749969,-383.98 L -0.0749969,-375.594 L 3.925,-375.594 L 3.925,-367.508 L -0.0749969,-367.508
 L -0.0749969,-359.121 L 3.925,-359.121 L 3.925,-351.035 L -0.0749969,-351.035 L -0.0749969,-342.649 L 3.925,-342.649
 L 3.925,-334.562 L -0.0749969,-334.562 L -0.0749969,-326.176 L 3.925,-326.176 L 3.925,-318.09 L -0.0749969,-318.09
 L -0.0749969,-309.703 L 3.925,-309.703 L 3.925,-301.617 L -0.0749969,-301.617 L -0.0749969,-293.23 L 3.925,-293.23
 L 3.925,-285.144 L -0.0749969,-285.144 L -0.0749969,-276.758 L 3.925,-276.758 L 3.925,-268.671 L -0.0749969,-268.671
 L -0.0749969,-260.285 L 3.925,-260.285 L 3.925,-252.199 L -0.0749969,-252.199 L -0.0749969,-243.812 L 3.925,-243.812
 L 3.925,-235.726 L -0.0749969,-235.726 L -0.0749969,-227.34 L 3.925,-227.34 L 3.925,-219.253 L -0.0749969,-219.253
 L -0.0749969,-210.867 L 3.925,-210.867 L 3.925,-202.78 L -0.0749969,-202.78 L -0.0749969,-194.394 L 3.925,-194.394
 L 3.925,-186.308 L -0.0749969,-186.308 L -0.0749969,-177.921 L 3.925,-177.921 L 3.925,-169.835 L -0.0749969,-169.835
 L -0.0749969,-161.449 L 3.925,-161.449 L 3.925,-153.362 L -0.0749969,-153.362 L -0.0749969,-144.976 L 3.925,-144.976
 L 3.925,-136.89 L -0.0749969,-136.89 L -0.0749969,-128.503 L 3.925,-128.503 L 3.925,-120.417 L -0.0749969,-120.417
 L -0.0749969,-112.03 L 3.925,-112.03 L 3.925,-103.944 L -0.0749969,-103.944 L -0.0749969,-95.5577 L 3.925,-95.5577
 L 3.925,-87.4714 L -0.0749969,-87.4714 L -0.0749969,-79.085 L 3.925,-79.085 L 3.925,-67.085 L 11.925,-67.085
 L 11.925,-63.085 L 20.2587,-63.085 z
M 906.385,-83.085 L 910.385,-83.085 L 910.385,-93.5683 L 906.385,-93.5683 L 906.385,-103.752 L 910.385,-103.752
 L 910.385,-114.235 L 906.385,-114.235 L 906.385,-126.235 L 429.235,-126.235 L 429.235,-114.235 L 425.235,-114.235
 L 425.235,-103.752 L 429.235,-103.752 L 429.235,-93.5683 L 425.235,-93.5683 L 425.235,-83.085 L 429.235,-83.085
 L 429.235,-67.085 L 906.385,-67.085 z
M 866.395,-3.925 L 874.481,-3.925 L 874.481,0.0749969 L 882.868,0.0749969 L 882.868,-3.925 L 890.954,-3.925
 L 890.954,0.0749969 L 899.34,0.0749969 L 899.34,-3.925 L 907.427,-3.925 L 907.427,0.0749969 L 915.813,0.0749969
 L 915.813,-3.925 L 923.9,-3.925 L 923.9,0.0749969 L 932.286,0.0749969 L 932.286,-3.925 L 940.372,-3.925
 L 940.372,0.0749969 L 948.759,0.0749969 L 948.759,-3.925 L 956.845,-3.925 L 956.845,0.0749969 L 965.231,0.0749969
 L 965.231,-3.925 L 973.318,-3.925 L 973.318,0.0749969 L 981.704,0.0749969 L 981.704,-3.925 L 989.79,-3.925
 L 989.79,0.0749969 L 998.177,0.0749969 L 998.177,-3.925 L 1006.26,-3.925 L 1006.26,0.0749969 L 1014.65,0.0749969
 L 1014.65,-3.925 L 1022.74,-3.925 L 1022.74,0.0749969 L 1031.12,0.0749969 L 1031.12,-3.925 L 1039.21,-3.925
 L 1039.21,0.0749969 L 1047.59,0.0749969 L 1047.59,-3.925 L 1055.68,-3.925 L 1055.68,0.0749969 L 1064.07,0.0749969
 L 1064.07,-3.925 L 1072.15,-3.925 L 1072.15,0.0749969 L 1080.54,0.0749969 L 1080.54,-3.925 L 1088.63,-3.925
 L 1088.63,0.0749969 L 1097.01,0.0749969 L 1097.01,-3.925 L 1105.1,-3.925 L 1105.1,0.0749969 L 1113.49,0.0749969
 L 1113.49,-3.925 L 1121.57,-3.925 L 1121.57,0.0749969 L 1129.96,0.0749969 L 1129.96,-3.925 L 1138.04,-3.925
 L 1138.04,0.0749969 L 1146.43,0.0749969 L 1146.43,-3.925 L 1154.52,-3.925 L 1154.52,0.0749969 L 1162.9,0.0749969
 L 1162.9,-3.925 L 1170.99,-3.925 L 1170.99,0.0749969 L 1179.38,0.0749969 L 1179.38,-3.925 L 1187.46,-3.925
 L 1187.46,0.0749969 L 1195.85,0.0749969 L 1195.85,-3.925 L 1203.94,-3.925 L 1203.94,0.0749969 L 1212.32,0.0749969
 L 1212.32,-3.925 L 1220.41,-3.925 L 1220.41,0.0749969 L 1228.79,0.0749969 L 1228.79,-3.925 L 1236.88,-3.925
 L 1236.88,0.0749969 L 1245.27,0.0749969 L 1245.27,-3.925 L 1253.35,-3.925 L 1253.35,0.0749969 L 1261.74,0.0749969
 L 1261.74,-3.925 L 1269.83,-3.925 L 1269.83,0.0749969 L 1278.21,0.0749969 L 1278.21,-3.925 L 1286.3,-3.925
 L 1286.3,0.0749969 L 1294.69,0.0749969 L 1294.69,-3.925 L 1302.77,-3.925 L 1302.77,0.0749969 L 1311.16,0.0749969
 L 1311.16,-3.925 L 1319.24,-3.925 L 1319.24,0.0749969 L 1331.39,0.0749969 L 1331.39,-11.925 L 1335.39,-11.925
 L 1335.39,-25.075 L 1331.39,-25.075 L 1331.39,-37.925 L 1335.39,-37.925 L 1335.39,-51.075 L 1331.39,-51.075
 L 1331.39,-63.075 L 854.245,-63.075 L 854.245,-51.075 L 850.245,-51.075 L 850.245,-37.925 L 854.245,-37.925
 L 854.245,-25.075 L 850.245,-25.075 L 850.245,-11.925 L 854.245,-11.925 L 854.245,0.0749969 L 866.395,0.0749969
 z
M 12.075,-3.925 L 20.1087,-3.925 L 20.1087,0.0749969 L 28.4423,0.0749969 L 28.4423,-3.925 L 36.476,-3.925
 L 36.476,0.0749969 L 44.8097,0.0749969 L 44.8097,-3.925 L 52.8434,-3.925 L 52.8434,0.0749969 L 61.177,0.0749969
 L 61.177,-3.925 L 69.2107,-3.925 L 69.2107,0.0749969 L 77.5444,0.0749969 L 77.5444,-3.925 L 85.5781,-3.925
 L 85.5781,0.0749969 L 93.9117,0.0749969 L 93.9117,-3.925 L 101.945,-3.925 L 101.945,0.0749969 L 110.279,0.0749969
 L 110.279,-3.925 L 118.313,-3.925 L 118.313,0.0749969 L 126.646,0.0749969 L 126.646,-3.925 L 134.68,-3.925
 L 134.68,0.0749969 L 143.014,0.0749969 L 143.014,-3.925 L 151.047,-3.925 L 151.047,0.0749969 L 159.381,0.0749969
 L 159.381,-3.925 L 167.415,-3.925 L 167.415,0.0749969 L 175.748,0.0749969 L 175.748,-3.925 L 183.782,-3.925
 L 183.782,0.0749969 L 192.116,0.0749969 L 192.116,-3.925 L 200.149,-3.925 L 200.149,0.0749969 L 208.483,0.0749969
 L 208.483,-3.925 L 216.517,-3.925 L 216.517,0.0749969 L 224.85,0.0749969 L 224.85,-3.925 L 232.884,-3.925
 L 232.884,0.0749969 L 241.218,0.0749969 L 241.218,-3.925 L 249.252,-3.925 L 249.252,0.0749969 L 257.585,0.0749969
 L 257.585,-3.925 L 265.619,-3.925 L 265.619,0.0749969 L 273.953,0.0749969 L 273.953,-3.925 L 281.986,-3.925
 L 281.986,0.0749969 L 290.32,0.0749969 L 290.32,-3.925 L 298.354,-3.925 L 298.354,0.0749969 L 306.687,0.0749969
 L 306.687,-3.925 L 314.721,-3.925 L 314.721,0.0749969 L 323.055,0.0749969 L 323.055,-3.925 L 331.088,-3.925
 L 331.088,0.0749969 L 339.422,0.0749969 L 339.422,-3.925 L 347.456,-3.925 L 347.456,0.0749969 L 355.789,0.0749969
 L 355.789,-3.925 L 363.823,-3.925 L 363.823,0.0749969 L 372.157,0.0749969 L 372.157,-3.925 L 380.19,-3.925
 L 380.19,0.0749969 L 388.524,0.0749969 L 388.524,-3.925 L 396.558,-3.925 L 396.558,0.0749969 L 404.891,0.0749969
 L 404.891,-3.925 L 412.925,-3.925 L 412.925,0.0749969 L 425.075,0.0749969 L 425.075,-12.075 L 421.075,-12.075
 L 421.075,-24.925 L 425.075,-24.925 L 425.075,-38.075 L 421.075,-38.075 L 421.075,-50.925 L 425.075,-50.925
 L 425.075,-63.075 L -0.0749969,-63.075 L -0.0749969,-50.925 L 3.925,-50.925 L 3.925,-38.075 L -0.0749969,-38.075
 L -0.0749969,-24.925 L 3.925,-24.925 L 3.925,-12.075 L -0.0749969,-12.075 L -0.0749969,0.0749969 L 12.075,0.0749969
 z
M 210.575,-40.7417 L 210.575,-50.925 L 214.435,-50.925 L 214.435,-40.7417 z
M 210.575,-20.075 L 210.575,-30.2583 L 214.435,-30.2583 L 214.435,-20.075 z
M 437.235,-3.925 L 445.269,-3.925 L 445.269,0.0749969 L 453.602,0.0749969 L 453.602,-3.925 L 461.636,-3.925
 L 461.636,0.0749969 L 469.97,0.0749969 L 469.97,-3.925 L 478.003,-3.925 L 478.003,0.0749969 L 486.337,0.0749969
 L 486.337,-3.925 L 494.371,-3.925 L 494.371,0.0749969 L 502.704,0.0749969 L 502.704,-3.925 L 510.738,-3.925
 L 510.738,0.0749969 L 519.072,0.0749969 L 519.072,-3.925 L 527.105,-3.925 L 527.105,0.0749969 L 535.439,0.0749969
 L 535.439,-3.925 L 543.473,-3.925 L 543.473,0.0749969 L 551.806,0.0749969 L 551.806,-3.925 L 559.84,-3.925
 L 559.84,0.0749969 L 568.174,0.0749969 L 568.174,-3.925 L 576.207,-3.925 L 576.207,0.0749969 L 584.541,0.0749969
 L 584.541,-3.925 L 592.575,-3.925 L 592.575,0.0749969 L 600.908,0.0749969 L 600.908,-3.925 L 608.942,-3.925
 L 608.942,0.0749969 L 617.276,0.0749969 L 617.276,-3.925 L 625.309,-3.925 L 625.309,0.0749969 L 633.643,0.0749969
 L 633.643,-3.925 L 641.677,-3.925 L 641.677,0.0749969 L 650.01,0.0749969 L 650.01,-3.925 L 658.044,-3.925
 L 658.044,0.0749969 L 666.378,0.0749969 L 666.378,-3.925 L 674.412,-3.925 L 674.412,0.0749969 L 682.745,0.0749969
 L 682.745,-3.925 L 690.779,-3.925 L 690.779,0.0749969 L 699.113,0.0749969 L 699.113,-3.925 L 707.146,-3.925
 L 707.146,0.0749969 L 715.48,0.0749969 L 715.48,-3.925 L 723.514,-3.925 L 723.514,0.0749969 L 731.847,0.0749969
 L 731.847,-3.925 L 739.881,-3.925 L 739.881,0.0749969 L 748.215,0.0749969 L 748.215,-3.925 L 756.248,-3.925
 L 756.248,0.0749969 L 764.582,0.0749969 L 764.582,-3.925 L 772.616,-3.925 L 772.616,0.0749969 L 780.949,0.0749969
 L 780.949,-3.925 L 788.983,-3.925 L 788.983,0.0749969 L 797.317,0.0749969 L 797.317,-3.925 L 805.35,-3.925
 L 805.35,0.0749969 L 813.684,0.0749969 L 813.684,-3.925 L 821.718,-3.925 L 821.718,0.0749969 L 830.051,0.0749969
 L 830.051,-3.925 L 838.085,-3.925 L 838.085,0.0749969 L 850.235,0.0749969 L 850.235,-12.075 L 846.235,-12.075
 L 846.235,-24.925 L 850.235,-24.925 L 850.235,-38.075 L 846.235,-38.075 L 846.235,-50.925 L 850.235,-50.925
 L 850.235,-63.075 L 425.085,-63.075 L 425.085,-50.925 L 429.085,-50.925 L 429.085,-38.075 L 425.085,-38.075
 L 425.085,-24.925 L 429.085,-24.925 L 429.085,-12.075 L 425.085,-12.075 L 425.085,0.0749969 L 437.235,0.0749969
 z
M 635.735,-40.7417 L 635.735,-50.925 L 639.595,-50.925 L 639.595,-40.7417 z
M 635.735,-20.075 L 635.735,-30.2583 L 639.595,-30.2583 L 639.595,-20.075 z
M 1351.55,-3.925 L 1359.64,-3.925 L 1359.64,0.0749969 L 1368.03,0.0749969 L 1368.03,-3.925 L 1376.11,-3.925
 L 1376.11,0.0749969 L 1384.5,0.0749969 L 1384.5,-3.925 L 1392.59,-3.925 L 1392.59,0.0749969 L 1400.97,0.0749969
 L 1400.97,-3.925 L 1409.06,-3.925 L 1409.06,0.0749969 L 1417.45,0.0749969 L 1417.45,-3.925 L 1425.53,-3.925
 L 1425.53,0.0749969 L 1433.92,0.0749969 L 1433.92,-3.925 L 1442,-3.925 L 1442,0.0749969 L 1450.39,0.0749969
 L 1450.39,-3.925 L 1458.48,-3.925 L 1458.48,0.0749969 L 1466.86,0.0749969 L 1466.86,-3.925 L 1474.95,-3.925
 L 1474.95,0.0749969 L 1483.34,0.0749969 L 1483.34,-3.925 L 1491.42,-3.925 L 1491.42,0.0749969 L 1499.81,0.0749969
 L 1499.81,-3.925 L 1507.9,-3.925 L 1507.9,0.0749969 L 1516.28,0.0749969 L 1516.28,-3.925 L 1524.37,-3.925
 L 1524.37,0.0749969 L 1532.75,0.0749969 L 1532.75,-3.925 L 1540.84,-3.925 L 1540.84,0.0749969 L 1549.23,0.0749969
 L 1549.23,-3.925 L 1557.31,-3.925 L 1557.31,0.0749969 L 1565.7,0.0749969 L 1565.7,-3.925 L 1573.79,-3.925
 L 1573.79,0.0749969 L 1582.17,0.0749969 L 1582.17,-3.925 L 1590.26,-3.925 L 1590.26,0.0749969 L 1598.65,0.0749969
 L 1598.65,-3.925 L 1606.73,-3.925 L 1606.73,0.0749969 L 1615.12,0.0749969 L 1615.12,-3.925 L 1623.2,-3.925
 L 1623.2,0.0749969 L 1631.59,0.0749969 L 1631.59,-3.925 L 1639.68,-3.925 L 1639.68,0.0749969 L 1648.06,0.0749969
 L 1648.06,-3.925 L 1656.15,-3.925 L 1656.15,0.0749969 L 1664.54,0.0749969 L 1664.54,-3.925 L 1672.62,-3.925
 L 1672.62,0.0749969 L 1681.01,0.0749969 L 1681.01,-3.925 L 1689.1,-3.925 L 1689.1,0.0749969 L 1697.48,0.0749969
 L 1697.48,-3.925 L 1705.57,-3.925 L 1705.57,0.0749969 L 1713.95,0.0749969 L 1713.95,-3.925 L 1722.04,-3.925
 L 1722.04,0.0749969 L 1730.43,0.0749969 L 1730.43,-3.925 L 1738.51,-3.925 L 1738.51,0.0749969 L 1746.9,0.0749969
 L 1746.9,-3.925 L 1754.99,-3.925 L 1754.99,0.0749969 L 1763.37,0.0749969 L 1763.37,-3.925 L 1771.46,-3.925
 L 1771.46,0.0749969 L 1779.85,0.0749969 L 1779.85,-3.925 L 1787.93,-3.925 L 1787.93,0.0749969 L 1796.32,0.0749969
 L 1796.32,-3.925 L 1804.4,-3.925 L 1804.4,0.0749969 L 1816.55,0.0749969 L 1816.55,-11.925 L 1820.55,-11.925
 L 1820.55,-25.075 L 1816.55,-25.075 L 1816.55,-37.925 L 1820.55,-37.925 L 1820.55,-51.075 L 1816.55,-51.075
 L 1816.55,-63.075 L 1339.4,-63.075 L 1339.4,-51.075 L 1335.4,-51.075 L 1335.4,-37.925 L 1339.4,-37.925
 L 1339.4,-25.075 L 1335.4,-25.075 L 1335.4,-11.925 L 1339.4,-11.925 L 1339.4,0.0749969 L 1351.55,0.0749969
 z
" stroke="black" fill="lightgray" stroke-width="0.5"/>
</svg>
